start;duration;pitch;velocity;instrument
0.0;0.045312500000000006;64;0.625;violin
0.09375;0.045312500000000006;68;0.625;violin
0.1875;0.045312500000000006;71;0.625;violin
0.28125;0.04531250000000003;76;0.625;violin
0.375;0.04531250000000003;76;0.625;violin
0.46875;0.04531249999999998;71;0.625;violin
0.5625;0.04531250000000009;68;0.625;violin
0.65625;0.04531250000000009;64;0.625;violin
0.75;0.04531250000000009;63;0.625;violin
0.84375;0.04531250000000009;66;0.625;violin
0.9375;0.04531250000000009;71;0.625;violin
1.03125;0.04531250000000009;78;0.625;violin
1.125;0.04531250000000009;78;0.625;violin
1.21875;0.04531250000000009;71;0.625;violin
1.3125;0.04531250000000009;66;0.625;violin
1.40625;0.04531250000000009;63;0.625;violin
1.5;0.04531250000000009;64;0.625;violin
1.59375;0.04531250000000009;68;0.625;violin
1.6875;0.04531250000000009;71;0.625;violin
1.78125;0.04531250000000009;76;0.625;violin
1.875;0.04531250000000009;76;0.625;violin
1.96875;0.04531250000000009;71;0.625;violin
2.0625;0.04531250000000009;68;0.625;violin
2.15625;0.04531250000000009;64;0.625;violin
2.25;0.04531250000000009;59;0.625;violin
2.34375;0.04531250000000009;66;0.625;violin
2.4375;0.04531250000000009;75;0.625;violin
2.53125;0.04531250000000009;83;0.625;violin
2.625;0.04531250000000009;83;0.625;violin
2.71875;0.04531250000000009;75;0.625;violin
2.8125;0.04531250000000009;66;0.625;violin
2.90625;0.04531250000000009;59;0.625;violin
3.0;0.04531250000000009;64;0.625;violin
3.09375;0.04531250000000009;68;0.625;violin
3.1875;0.04531250000000009;71;0.625;violin
3.28125;0.04531250000000009;76;0.625;violin
3.375;0.04531250000000009;76;0.625;violin
3.46875;0.04531250000000009;71;0.625;violin
3.5625;0.04531250000000009;68;0.625;violin
3.65625;0.04531250000000009;64;0.625;violin
3.75;0.04531250000000009;63;0.625;violin
3.84375;0.04531250000000009;66;0.625;violin
3.9375;0.04531250000000009;71;0.625;violin
4.03125;0.04531250000000053;78;0.625;violin
4.125;0.04531250000000053;78;0.625;violin
4.21875;0.04531250000000053;71;0.625;violin
4.3125;0.04531250000000053;66;0.625;violin
4.40625;0.04531250000000053;63;0.625;violin
4.5;0.04531250000000053;64;0.625;violin
4.59375;0.04531250000000053;68;0.625;violin
4.6875;0.04531250000000053;71;0.625;violin
4.78125;0.04531250000000053;76;0.625;violin
4.875;0.04531250000000053;76;0.625;violin
4.96875;0.04531250000000053;71;0.625;violin
5.0625;0.04531250000000053;68;0.625;violin
5.15625;0.04531250000000053;64;0.625;violin
5.25;0.04531250000000053;59;0.625;violin
5.34375;0.04531250000000053;66;0.625;violin
5.4375;0.04531250000000053;75;0.625;violin
5.53125;0.04531250000000053;83;0.625;violin
5.625;0.04531250000000053;83;0.625;violin
5.71875;0.04531250000000053;75;0.625;violin
5.8125;0.04531250000000053;66;0.625;violin
5.90625;0.04531250000000053;59;0.625;violin
6.0;0.04531250000000053;56;0.625;violin
6.09375;0.04531250000000053;64;0.625;violin
6.1875;0.04531250000000053;71;0.625;violin
6.28125;0.04531250000000053;80;0.625;violin
6.375;0.04531250000000053;80;0.625;violin
6.46875;0.04531250000000053;71;0.625;violin
6.5625;0.04531250000000053;64;0.625;violin
6.65625;0.04531250000000053;56;0.625;violin
6.75;0.04531250000000053;57;0.625;violin
6.84375;0.04531250000000053;64;0.625;violin
6.9375;0.04531250000000053;73;0.625;violin
7.03125;0.04531250000000053;81;0.625;violin
7.125;0.09218750000000053;85;0.625;violin
7.3125;0.09218750000000053;88;0.625;violin
7.5;0.04531250000000053;58;0.625;violin
7.59375;0.04531250000000053;66;0.625;violin
7.6875;0.04531250000000053;73;0.625;violin
7.78125;0.04531250000000053;82;0.625;violin
7.875;0.04531250000000053;82;0.625;violin
7.96875;0.045312499999999645;73;0.625;violin
8.0625;0.045312499999999645;66;0.625;violin
8.15625;0.045312499999999645;58;0.625;violin
8.25;0.045312499999999645;59;0.625;violin
8.34375;0.045312499999999645;66;0.625;violin
8.4375;0.045312499999999645;75;0.625;violin
8.53125;0.045312499999999645;83;0.625;violin
8.625;0.09218749999999964;87;0.625;violin
8.8125;0.09218749999999964;90;0.625;violin
9.0;0.045312499999999645;63;0.625;violin
9.09375;0.045312499999999645;71;0.625;violin
9.1875;0.045312499999999645;78;0.625;violin
9.28125;0.045312499999999645;87;0.625;violin
9.375;0.045312499999999645;87;0.625;violin
9.46875;0.045312499999999645;78;0.625;violin
9.5625;0.04531250000000142;71;0.625;violin
9.65625;0.04531250000000142;63;0.625;violin
9.75;0.04531250000000142;64;0.625;violin
9.84375;0.04531250000000142;71;0.625;violin
9.9375;0.04531250000000142;80;0.625;violin
10.03125;0.04531250000000142;88;0.625;violin
10.125;0.04531250000000142;88;0.625;violin
10.21875;0.04531250000000142;80;0.625;violin
10.3125;0.04531250000000142;71;0.625;violin
10.40625;0.04531250000000142;64;0.625;violin
10.5;0.04531250000000142;66;0.625;violin
10.59375;0.04531250000000142;75;0.625;violin
10.6875;0.04531250000000142;83;0.625;violin
10.78125;0.04531250000000142;90;0.625;violin
10.875;0.04531250000000142;90;0.625;violin
10.96875;0.04531250000000142;83;0.625;violin
11.0625;0.04531250000000142;75;0.625;violin
11.15625;0.04531250000000142;66;0.625;violin
11.25;0.04531250000000142;68;0.625;violin
11.34375;0.04531250000000142;76;0.625;violin
11.4375;0.04531250000000142;83;0.625;violin
11.53125;0.04531250000000142;92;0.625;violin
11.625;0.04531250000000142;92;0.625;violin
11.71875;0.04531250000000142;83;0.625;violin
11.8125;0.04531250000000142;76;0.625;violin
11.90625;0.04531250000000142;68;0.625;violin
12.0;0.04531250000000142;69;0.625;violin
12.09375;0.04531250000000142;76;0.625;violin
12.1875;0.04531250000000142;85;0.625;violin
12.28125;0.04531250000000142;93;0.625;violin
12.375;0.04531250000000142;93;0.625;violin
12.46875;0.04531250000000142;85;0.625;violin
12.5625;0.04531250000000142;76;0.625;violin
12.65625;0.04531250000000142;69;0.625;violin
12.75;0.04531250000000142;70;0.625;violin
12.84375;0.04531250000000142;79;0.625;violin
12.9375;0.04531250000000142;88;0.625;violin
13.03125;0.04531250000000142;97;0.625;violin
13.125;0.04531250000000142;97;0.625;violin
13.21875;0.04531250000000142;88;0.625;violin
13.3125;0.04531250000000142;79;0.625;violin
13.40625;0.04531250000000142;70;0.625;violin
13.5;0.04531250000000142;73;0.625;violin
13.59375;0.04531250000000142;82;0.625;violin
13.6875;0.04531250000000142;91;0.625;violin
13.78125;0.04531250000000142;100;0.625;violin
13.875;0.04531250000000142;100;0.625;violin
13.96875;0.04531250000000142;91;0.625;violin
14.0625;0.04531250000000142;82;0.625;violin
14.15625;0.04531250000000142;73;0.625;violin
14.25;0.04531250000000142;70;0.625;violin
14.34375;0.04531250000000142;79;0.625;violin
14.4375;0.04531250000000142;88;0.625;violin
14.53125;0.04531250000000142;97;0.625;violin
14.625;0.04531250000000142;97;0.625;violin
14.71875;0.04531250000000142;88;0.625;violin
14.8125;0.04531250000000142;79;0.625;violin
14.90625;0.04531250000000142;70;0.625;violin
15.0;0.04531250000000142;67;0.625;violin
15.09375;0.04531250000000142;76;0.625;violin
15.1875;0.04531250000000142;85;0.625;violin
15.28125;0.04531250000000142;94;0.625;violin
15.375;0.04531250000000142;94;0.625;violin
15.46875;0.04531250000000142;85;0.625;violin
15.5625;0.04531250000000142;76;0.625;violin
15.65625;0.04531250000000142;67;0.625;violin
15.75;0.04531250000000142;64;0.625;violin
15.84375;0.04531250000000142;73;0.625;violin
15.9375;0.04531250000000142;82;0.625;violin
16.03125;0.04531250000000142;91;0.625;violin
16.125;0.04531250000000142;91;0.625;violin
16.21875;0.04531250000000142;82;0.625;violin
16.3125;0.04531250000000142;73;0.625;violin
16.40625;0.04531250000000142;64;0.625;violin
16.5;0.04531250000000142;61;0.625;violin
16.59375;0.04531250000000142;70;0.625;violin
16.6875;0.04531250000000142;79;0.625;violin
16.78125;0.04531250000000142;88;0.625;violin
16.875;0.04531250000000142;88;0.625;violin
16.96875;0.04531250000000142;79;0.625;violin
17.0625;0.04531250000000142;70;0.625;violin
17.15625;0.04531250000000142;61;0.625;violin
17.25;0.04531250000000142;59;0.625;violin
17.34375;0.04531250000000142;66;0.625;violin
17.4375;0.04531250000000142;75;0.625;violin
17.53125;0.04531250000000142;83;0.625;violin
17.625;0.09218750000000142;87;0.625;violin
17.8125;0.09218750000000142;90;0.625;violin
18.0;0.04531250000000142;57;0.625;violin
18.09375;0.04531250000000142;63;0.625;violin
18.1875;0.04531250000000142;71;0.625;violin
18.28125;0.04531250000000142;78;0.625;violin
18.375;0.04531250000000142;78;0.625;violin
18.46875;0.04531250000000142;71;0.625;violin
18.5625;0.04531250000000142;63;0.625;violin
18.65625;0.04531250000000142;57;0.625;violin
18.75;0.04531250000000142;56;0.625;violin
18.84375;0.04531250000000142;64;0.625;violin
18.9375;0.04531250000000142;71;0.625;violin
19.03125;0.04531250000000142;80;0.625;violin
19.125;0.09218750000000142;83;0.625;violin
19.3125;0.09218750000000142;88;0.625;violin
19.5;0.04531250000000142;57;0.625;violin
19.59375;0.04531250000000142;63;0.625;violin
19.6875;0.04531250000000142;71;0.625;violin
19.78125;0.04531250000000142;78;0.625;violin
19.875;0.04531250000000142;78;0.625;violin
19.96875;0.04531250000000142;71;0.625;violin
20.0625;0.04531250000000142;63;0.625;violin
20.15625;0.04531250000000142;57;0.625;violin
20.25;0.04531250000000142;56;0.625;violin
20.34375;0.04531250000000142;64;0.625;violin
20.4375;0.04531250000000142;71;0.625;violin
20.53125;0.04531250000000142;80;0.625;violin
20.625;0.09218750000000142;83;0.625;violin
20.8125;0.09218750000000142;88;0.625;violin
21.0;0.09218750000000142;57;0.625;violin
21.1875;0.09218750000000142;73;0.625;violin
21.1875;0.09218750000000142;81;0.625;violin
21.375;0.09218750000000142;59;0.625;violin
21.5625;0.09218750000000142;68;0.625;violin
21.5625;0.09218750000000142;76;0.625;violin
21.5625;0.09218750000000142;83;0.625;violin
21.75;0.09218750000000142;61;0.625;violin
21.9375;0.09218750000000142;69;0.625;violin
21.9375;0.09218750000000142;76;0.625;violin
21.9375;0.09218750000000142;85;0.625;violin
22.125;0.09218750000000142;60;0.625;violin
22.3125;0.09218750000000142;70;0.625;violin
22.3125;0.09218750000000142;76;0.625;violin
22.3125;0.09218750000000142;84;0.625;violin
22.5;0.09218750000000142;59;0.625;violin
22.6875;0.09218750000000142;68;0.625;violin
22.6875;0.09218750000000142;76;0.625;violin
22.6875;0.09218750000000142;83;0.625;violin
22.875;0.09218750000000142;59;0.625;violin
23.0625;0.09218750000000142;66;0.625;violin
23.0625;0.09218750000000142;75;0.625;violin
23.0625;0.09218750000000142;83;0.625;violin
23.25;0.3734375000000014;64;0.625;violin
23.625;0.3734375000000014;71;0.625;violin
23.625;0.3734375000000014;80;0.625;violin
23.625;0.3734375000000014;88;0.625;violin
24.0;0.04531250000000142;64;0.625;violin
24.09375;0.04531250000000142;67;0.625;violin
24.1875;0.04531250000000142;71;0.625;violin
24.28125;0.04531250000000142;76;0.625;violin
24.375;0.04531250000000142;76;0.625;violin
24.46875;0.04531250000000142;71;0.625;violin
24.5625;0.04531250000000142;67;0.625;violin
24.65625;0.04531250000000142;64;0.625;violin
24.75;0.04531250000000142;63;0.625;violin
24.84375;0.04531250000000142;66;0.625;violin
24.9375;0.04531250000000142;71;0.625;violin
25.03125;0.04531250000000142;78;0.625;violin
25.125;0.04531250000000142;78;0.625;violin
25.21875;0.04531250000000142;71;0.625;violin
25.3125;0.04531250000000142;66;0.625;violin
25.40625;0.04531250000000142;63;0.625;violin
25.5;0.04531250000000142;64;0.625;violin
25.59375;0.04531250000000142;67;0.625;violin
25.6875;0.04531250000000142;71;0.625;violin
25.78125;0.04531250000000142;76;0.625;violin
25.875;0.04531250000000142;76;0.625;violin
25.96875;0.04531250000000142;71;0.625;violin
26.0625;0.04531250000000142;67;0.625;violin
26.15625;0.04531250000000142;64;0.625;violin
26.25;0.04531250000000142;59;0.625;violin
26.34375;0.04531250000000142;66;0.625;violin
26.4375;0.04531250000000142;75;0.625;violin
26.53125;0.04531250000000142;83;0.625;violin
26.625;0.04531250000000142;83;0.625;violin
26.71875;0.04531250000000142;75;0.625;violin
26.8125;0.04531250000000142;66;0.625;violin
26.90625;0.04531250000000142;59;0.625;violin
27.0;0.04531250000000142;64;0.625;violin
27.09375;0.04531250000000142;67;0.625;violin
27.1875;0.04531250000000142;71;0.625;violin
27.28125;0.04531250000000142;76;0.625;violin
27.375;0.04531250000000142;76;0.625;violin
27.46875;0.04531250000000142;71;0.625;violin
27.5625;0.04531250000000142;67;0.625;violin
27.65625;0.04531250000000142;64;0.625;violin
27.75;0.04531250000000142;63;0.625;violin
27.84375;0.04531250000000142;66;0.625;violin
27.9375;0.04531250000000142;71;0.625;violin
28.03125;0.04531250000000142;78;0.625;violin
28.125;0.04531250000000142;78;0.625;violin
28.21875;0.04531250000000142;71;0.625;violin
28.3125;0.04531250000000142;66;0.625;violin
28.40625;0.04531250000000142;63;0.625;violin
28.5;0.04531250000000142;64;0.625;violin
28.59375;0.04531250000000142;67;0.625;violin
28.6875;0.04531250000000142;71;0.625;violin
28.78125;0.04531250000000142;76;0.625;violin
28.875;0.04531250000000142;76;0.625;violin
28.96875;0.04531250000000142;71;0.625;violin
29.0625;0.04531250000000142;67;0.625;violin
29.15625;0.04531250000000142;64;0.625;violin
29.25;0.04531250000000142;59;0.625;violin
29.34375;0.04531250000000142;66;0.625;violin
29.4375;0.04531250000000142;75;0.625;violin
29.53125;0.04531250000000142;83;0.625;violin
29.625;0.04531250000000142;83;0.625;violin
29.71875;0.04531250000000142;75;0.625;violin
29.8125;0.04531250000000142;66;0.625;violin
29.90625;0.04531250000000142;59;0.625;violin
30.0;0.04531250000000142;59;0.625;violin
30.09375;0.04531250000000142;66;0.625;violin
30.1875;0.04531250000000142;74;0.625;violin
30.28125;0.04531250000000142;83;0.625;violin
30.375;0.04531250000000142;83;0.625;violin
30.46875;0.04531250000000142;74;0.625;violin
30.5625;0.04531250000000142;66;0.625;violin
30.65625;0.04531250000000142;59;0.625;violin
30.75;0.04531250000000142;57;0.625;violin
30.84375;0.04531250000000142;66;0.625;violin
30.9375;0.04531250000000142;74;0.625;violin
31.03125;0.04531250000000142;84;0.625;violin
31.125;0.04531250000000142;84;0.625;violin
31.21875;0.04531250000000142;74;0.625;violin
31.3125;0.04531250000000142;66;0.625;violin
31.40625;0.04531250000000142;57;0.625;violin
31.5;0.04531250000000142;57;0.625;violin
31.59375;0.04531250000000142;66;0.625;violin
31.6875;0.04531250000000142;74;0.625;violin
31.78125;0.04531250000000142;81;0.625;violin
31.875;0.04531250000000142;81;0.625;violin
31.96875;0.04531250000000142;74;0.625;violin
32.0625;0.04531250000000142;66;0.625;violin
32.15625;0.04531250000000142;57;0.625;violin
32.25;0.04531250000000142;55;0.625;violin
32.34375;0.04531250000000142;62;0.625;violin
32.4375;0.04531250000000142;71;0.625;violin
32.53125;0.04531250000000142;86;0.625;violin
32.625;0.04531250000000142;86;0.625;violin
32.71875;0.04531250000000142;71;0.625;violin
32.8125;0.04531250000000142;62;0.625;violin
32.90625;0.04531250000000142;55;0.625;violin
33.0;0.04531250000000142;55;0.625;violin
33.09375;0.04531250000000142;62;0.625;violin
33.1875;0.04531250000000142;74;0.625;violin
33.28125;0.04531250000000142;91;0.625;violin
33.375;0.04531250000000142;91;0.625;violin
33.46875;0.04531250000000142;74;0.625;violin
33.5625;0.04531250000000142;62;0.625;violin
33.65625;0.04531250000000142;55;0.625;violin
33.75;0.04531250000000142;55;0.625;violin
33.84375;0.04531250000000142;62;0.625;violin
33.9375;0.04531250000000142;79;0.625;violin
34.03125;0.04531250000000142;95;0.625;violin
34.125;0.04531250000000142;95;0.625;violin
34.21875;0.04531250000000142;79;0.625;violin
34.3125;0.04531250000000142;62;0.625;violin
34.40625;0.04531250000000142;55;0.625;violin
34.5;0.04531250000000142;55;0.625;violin
34.59375;0.04531250000000142;62;0.625;violin
34.6875;0.04531250000000142;83;0.625;violin
34.78125;0.04531250000000142;98;0.625;violin
34.875;0.04531250000000142;98;0.625;violin
34.96875;0.04531250000000142;83;0.625;violin
35.0625;0.04531250000000142;62;0.625;violin
35.15625;0.04531250000000142;55;0.625;violin
35.25;0.04531250000000142;60;0.625;violin
35.34375;0.04531250000000142;67;0.625;violin
35.4375;0.04531250000000142;76;0.625;violin
35.53125;0.04531250000000142;84;0.625;violin
35.625;0.09218750000000142;61;0.625;violin
35.8125;0.09218750000000142;69;0.625;violin
35.8125;0.09218750000000142;79;0.625;violin
35.8125;0.09218750000000142;88;0.625;violin
36.0;0.04531250000000142;62;0.625;violin
36.09375;0.04531250000000142;69;0.625;violin
36.1875;0.04531250000000142;78;0.625;violin
36.28125;0.04531250000000142;86;0.625;violin
36.375;0.09218750000000142;63;0.625;violin
36.5625;0.09218750000000142;71;0.625;violin
36.5625;0.09218750000000142;81;0.625;violin
36.5625;0.09218750000000142;90;0.625;violin
36.75;0.04531250000000142;64;0.625;violin
36.84375;0.04531250000000142;72;0.625;violin
36.9375;0.04531250000000142;79;0.625;violin
37.03125;0.04531250000000142;88;0.625;violin
37.125;0.09218750000000142;66;0.625;violin
37.3125;0.09218750000000142;74;0.625;violin
37.3125;0.09218750000000142;81;0.625;violin
37.3125;0.09218750000000142;90;0.625;violin
37.5;0.09218750000000142;67;0.625;violin
37.6875;0.09218750000000142;74;0.625;violin
37.6875;0.09218750000000142;83;0.625;violin
37.6875;0.09218750000000142;91;0.625;violin
37.875;0.09218750000000142;69;0.625;violin
38.0625;0.09218750000000142;78;0.625;violin
38.0625;0.09218750000000142;86;0.625;violin
38.0625;0.09218750000000142;93;0.625;violin
38.25;0.09218750000000142;71;0.625;violin
38.4375;0.09218750000000142;79;0.625;violin
38.4375;0.09218750000000142;86;0.625;violin
38.4375;0.09218750000000142;95;0.625;violin
38.625;0.09218750000000142;72;0.625;violin
38.8125;0.09218750000000142;79;0.625;violin
38.8125;0.09218750000000142;88;0.625;violin
38.8125;0.09218750000000142;96;0.625;violin
39.0;0.04531250000000142;73;0.625;violin
39.09375;0.04531250000000142;82;0.625;violin
39.1875;0.04531250000000142;91;0.625;violin
39.28125;0.04531250000000142;100;0.625;violin
39.375;0.18593750000000142;103;0.625;violin
39.5625;0.18593750000000142;61;0.625;violin
39.75;0.12343750000000142;62;0.625;violin
39.875;0.12343750000000142;83;0.625;violin
39.875;0.12343750000000142;86;0.625;violin
40.0;0.12343750000000142;81;0.625;violin
40.0;0.12343750000000142;84;0.625;violin
40.125;0.12343750000000142;79;0.625;violin
40.125;0.12343750000000142;83;0.625;violin
40.25;0.12343750000000142;78;0.625;violin
40.25;0.12343750000000142;81;0.625;violin
40.375;0.12343750000000142;76;0.625;violin
40.375;0.12343750000000142;79;0.625;violin
40.5;0.12343750000000142;74;0.625;violin
40.5;0.12343750000000142;78;0.625;violin
40.625;0.12343750000000142;72;0.625;violin
40.625;0.12343750000000142;76;0.625;violin
40.75;0.12343750000000142;71;0.625;violin
40.75;0.12343750000000142;74;0.625;violin
40.875;0.12343750000000142;69;0.625;violin
40.875;0.12343750000000142;72;0.625;violin
41.0;0.12343750000000142;67;0.625;violin
41.0;0.12343750000000142;71;0.625;violin
41.125;0.12343750000000142;66;0.625;violin
41.125;0.12343750000000142;69;0.625;violin
41.25;0.04531250000000142;55;0.625;violin
41.34375;0.04531250000000142;62;0.625;violin
41.4375;0.04531250000000142;71;0.625;violin
41.53125;0.04531250000000142;79;0.625;violin
41.625;0.04531250000000142;79;0.625;violin
41.71875;0.04531250000000142;71;0.625;violin
41.8125;0.04531250000000142;62;0.625;violin
41.90625;0.04531250000000142;55;0.625;violin
42.0;0.04531250000000142;55;0.625;violin
42.09375;0.04531250000000142;63;0.625;violin
42.1875;0.04531250000000142;72;0.625;violin
42.28125;0.04531250000000142;78;0.625;violin
42.375;0.04531250000000142;78;0.625;violin
42.46875;0.04531250000000142;72;0.625;violin
42.5625;0.04531250000000142;63;0.625;violin
42.65625;0.04531250000000142;55;0.625;violin
42.75;0.12343750000000142;55;0.625;violin
42.75;0.12343750000000142;62;0.625;violin
42.875;0.12343750000000142;83;0.625;violin
42.875;0.12343750000000142;86;0.625;violin
43.0;0.12343750000000142;81;0.625;violin
43.0;0.12343750000000142;84;0.625;violin
43.125;0.12343750000000142;79;0.625;violin
43.125;0.12343750000000142;83;0.625;violin
43.25;0.12343750000000142;78;0.625;violin
43.25;0.12343750000000142;81;0.625;violin
43.375;0.12343750000000142;76;0.625;violin
43.375;0.12343750000000142;79;0.625;violin
43.5;0.12343750000000142;74;0.625;violin
43.5;0.12343750000000142;78;0.625;violin
43.625;0.12343750000000142;72;0.625;violin
43.625;0.12343750000000142;76;0.625;violin
43.75;0.12343750000000142;71;0.625;violin
43.75;0.12343750000000142;74;0.625;violin
43.875;0.12343750000000142;69;0.625;violin
43.875;0.12343750000000142;72;0.625;violin
44.0;0.12343750000000142;67;0.625;violin
44.0;0.12343750000000142;71;0.625;violin
44.125;0.12343750000000142;66;0.625;violin
44.125;0.12343750000000142;69;0.625;violin
44.25;0.04531250000000142;55;0.625;violin
44.34375;0.04531250000000142;62;0.625;violin
44.4375;0.04531250000000142;71;0.625;violin
44.53125;0.04531250000000142;79;0.625;violin
44.625;0.04531250000000142;79;0.625;violin
44.71875;0.04531250000000142;71;0.625;violin
44.8125;0.04531250000000142;62;0.625;violin
44.90625;0.04531250000000142;55;0.625;violin
45.0;0.04531250000000142;55;0.625;violin
45.09375;0.04531250000000142;63;0.625;violin
45.1875;0.04531250000000142;72;0.625;violin
45.28125;0.04531250000000142;78;0.625;violin
45.375;0.04531250000000142;78;0.625;violin
45.46875;0.04531250000000142;72;0.625;violin
45.5625;0.04531250000000142;63;0.625;violin
45.65625;0.04531250000000142;55;0.625;violin
45.75;0.12343750000000142;55;0.625;violin
45.75;0.12343750000000142;62;0.625;violin
45.875;0.12343750000000142;83;0.625;violin
45.875;0.12343750000000142;86;0.625;violin
46.0;0.12343750000000142;81;0.625;violin
46.0;0.12343750000000142;84;0.625;violin
46.125;0.12343750000000142;79;0.625;violin
46.125;0.12343750000000142;83;0.625;violin
46.25;0.12343750000000142;78;0.625;violin
46.25;0.12343750000000142;81;0.625;violin
46.375;0.12343750000000142;76;0.625;violin
46.375;0.12343750000000142;79;0.625;violin
46.5;0.12343750000000142;74;0.625;violin
46.5;0.12343750000000142;78;0.625;violin
46.625;0.12343750000000142;72;0.625;violin
46.625;0.12343750000000142;76;0.625;violin
46.75;0.12343750000000142;71;0.625;violin
46.75;0.12343750000000142;74;0.625;violin
46.875;0.12343750000000142;69;0.625;violin
46.875;0.12343750000000142;72;0.625;violin
47.0;0.12343750000000142;67;0.625;violin
47.0;0.12343750000000142;71;0.625;violin
47.125;0.12343750000000142;66;0.625;violin
47.125;0.12343750000000142;69;0.625;violin
47.25;0.04531250000000142;55;0.625;violin
47.34375;0.04531250000000142;62;0.625;violin
47.4375;0.04531250000000142;71;0.625;violin
47.53125;0.04531250000000142;79;0.625;violin
47.625;0.04531250000000142;79;0.625;violin
47.71875;0.04531250000000142;71;0.625;violin
47.8125;0.04531250000000142;62;0.625;violin
47.90625;0.04531250000000142;55;0.625;violin
48.0;0.04531250000000142;55;0.625;violin
48.09375;0.04531250000000142;62;0.625;violin
48.1875;0.04531250000000142;70;0.625;violin
48.28125;0.04531250000000142;79;0.625;violin
48.375;0.04531250000000142;79;0.625;violin
48.46875;0.04531250000000142;70;0.625;violin
48.5625;0.04531250000000142;62;0.625;violin
48.65625;0.04531250000000142;55;0.625;violin
48.75;0.12343750000000142;55;0.625;violin
48.75;0.12343750000000142;63;0.625;violin
48.875;0.12343750000000142;82;0.625;violin
48.875;0.12343750000000142;85;0.625;violin
49.0;0.12343750000000142;80;0.625;violin
49.0;0.12343750000000142;84;0.625;violin
49.125;0.12343750000000142;79;0.625;violin
49.125;0.12343750000000142;82;0.625;violin
49.25;0.12343750000000142;79;0.625;violin
49.25;0.12343750000000142;82;0.625;violin
49.375;0.12343750000000142;77;0.625;violin
49.375;0.12343750000000142;80;0.625;violin
49.5;0.12343750000000142;75;0.625;violin
49.5;0.12343750000000142;79;0.625;violin
49.625;0.12343750000000142;73;0.625;violin
49.625;0.12343750000000142;77;0.625;violin
49.75;0.12343750000000142;72;0.625;violin
49.75;0.12343750000000142;75;0.625;violin
49.875;0.12343750000000142;70;0.625;violin
49.875;0.12343750000000142;73;0.625;violin
50.0;0.12343750000000142;68;0.625;violin
50.0;0.12343750000000142;72;0.625;violin
50.125;0.12343750000000142;67;0.625;violin
50.125;0.12343750000000142;70;0.625;violin
50.25;0.04531250000000142;56;0.625;violin
50.34375;0.04531250000000142;63;0.625;violin
50.4375;0.04531250000000142;72;0.625;violin
50.53125;0.04531250000000142;80;0.625;violin
50.625;0.04531250000000142;80;0.625;violin
50.71875;0.04531250000000142;72;0.625;violin
50.8125;0.04531250000000142;63;0.625;violin
50.90625;0.04531250000000142;56;0.625;violin
51.0;0.04531250000000142;56;0.625;violin
51.09375;0.04531250000000142;63;0.625;violin
51.1875;0.04531250000000142;71;0.625;violin
51.28125;0.04531250000000142;80;0.625;violin
51.375;0.04531250000000142;80;0.625;violin
51.46875;0.04531250000000142;71;0.625;violin
51.5625;0.04531250000000142;63;0.625;violin
51.65625;0.04531250000000142;56;0.625;violin
51.75;0.12343750000000142;56;0.625;violin
51.75;0.12343750000000142;64;0.625;violin
51.875;0.12343750000000142;83;0.625;violin
51.875;0.12343750000000142;86;0.625;violin
52.0;0.12343750000000142;81;0.625;violin
52.0;0.12343750000000142;85;0.625;violin
52.125;0.12343750000000142;80;0.625;violin
52.125;0.12343750000000142;83;0.625;violin
52.25;0.12343750000000142;80;0.625;violin
52.25;0.12343750000000142;83;0.625;violin
52.375;0.12343750000000142;78;0.625;violin
52.375;0.12343750000000142;81;0.625;violin
52.5;0.12343750000000142;76;0.625;violin
52.5;0.12343750000000142;80;0.625;violin
52.625;0.12343750000000142;74;0.625;violin
52.625;0.12343750000000142;78;0.625;violin
52.75;0.12343750000000142;73;0.625;violin
52.75;0.12343750000000142;76;0.625;violin
52.875;0.12343750000000142;71;0.625;violin
52.875;0.12343750000000142;74;0.625;violin
53.0;0.12343750000000142;69;0.625;violin
53.0;0.12343750000000142;73;0.625;violin
53.125;0.12343750000000142;68;0.625;violin
53.125;0.12343750000000142;71;0.625;violin
53.25;0.04531250000000142;57;0.625;violin
53.34375;0.04531250000000142;64;0.625;violin
53.4375;0.04531250000000142;73;0.625;violin
53.53125;0.04531250000000142;81;0.625;violin
53.625;0.04531250000000142;81;0.625;violin
53.71875;0.04531250000000142;73;0.625;violin
53.8125;0.04531250000000142;64;0.625;violin
53.90625;0.04531250000000142;57;0.625;violin
54.0;0.04531250000000142;57;0.625;violin
54.09375;0.04531250000000142;64;0.625;violin
54.1875;0.04531250000000142;72;0.625;violin
54.28125;0.04531250000000142;81;0.625;violin
54.375;0.04531250000000142;81;0.625;violin
54.46875;0.04531250000000142;72;0.625;violin
54.5625;0.04531250000000142;64;0.625;violin
54.65625;0.04531250000000142;57;0.625;violin
54.75;0.12343750000000142;57;0.625;violin
54.75;0.12343750000000142;65;0.625;violin
54.875;0.12343750000000142;84;0.625;violin
54.875;0.12343750000000142;87;0.625;violin
55.0;0.12343750000000142;82;0.625;violin
55.0;0.12343750000000142;86;0.625;violin
55.125;0.12343750000000142;81;0.625;violin
55.125;0.12343750000000142;84;0.625;violin
55.25;0.12343750000000142;81;0.625;violin
55.25;0.12343750000000142;84;0.625;violin
55.375;0.12343750000000142;79;0.625;violin
55.375;0.12343750000000142;82;0.625;violin
55.5;0.12343750000000142;77;0.625;violin
55.5;0.12343750000000142;81;0.625;violin
55.625;0.12343750000000142;75;0.625;violin
55.625;0.12343750000000142;79;0.625;violin
55.75;0.12343750000000142;74;0.625;violin
55.75;0.12343750000000142;77;0.625;violin
55.875;0.12343750000000142;72;0.625;violin
55.875;0.12343750000000142;75;0.625;violin
56.0;0.12343750000000142;70;0.625;violin
56.0;0.12343750000000142;74;0.625;violin
56.125;0.12343750000000142;69;0.625;violin
56.125;0.12343750000000142;72;0.625;violin
56.25;0.04531250000000142;58;0.625;violin
56.34375;0.04531250000000142;65;0.625;violin
56.4375;0.04531250000000142;74;0.625;violin
56.53125;0.04531250000000142;82;0.625;violin
56.625;0.04531250000000142;82;0.625;violin
56.71875;0.04531250000000142;74;0.625;violin
56.8125;0.04531250000000142;65;0.625;violin
56.90625;0.04531250000000142;58;0.625;violin
57.0;0.04531250000000142;58;0.625;violin
57.09375;0.04531250000000142;65;0.625;violin
57.1875;0.04531250000000142;73;0.625;violin
57.28125;0.04531250000000142;82;0.625;violin
57.375;0.04531250000000142;82;0.625;violin
57.46875;0.04531250000000142;73;0.625;violin
57.5625;0.04531250000000142;65;0.625;violin
57.65625;0.04531250000000142;58;0.625;violin
57.75;0.04531250000000142;58;0.625;violin
57.84375;0.04531250000000142;66;0.625;violin
57.9375;0.04531250000000142;73;0.625;violin
58.03125;0.04531250000000142;82;0.625;violin
58.125;0.04531250000000142;82;0.625;violin
58.21875;0.04531250000000142;73;0.625;violin
58.3125;0.04531250000000142;66;0.625;violin
58.40625;0.04531250000000142;58;0.625;violin
58.5;0.04531250000000142;58;0.625;violin
58.59375;0.04531250000000142;66;0.625;violin
58.6875;0.04531250000000142;76;0.625;violin
58.78125;0.04531250000000142;85;0.625;violin
58.875;0.04531250000000142;85;0.625;violin
58.96875;0.04531250000000142;76;0.625;violin
59.0625;0.04531250000000142;66;0.625;violin
59.15625;0.04531250000000142;58;0.625;violin
59.25;0.04531250000000142;59;0.625;violin
59.34375;0.04531250000000142;66;0.625;violin
59.4375;0.04531250000000142;75;0.625;violin
59.53125;0.04531250000000142;83;0.625;violin
59.625;0.04531250000000142;83;0.625;violin
59.71875;0.04531250000000142;75;0.625;violin
59.8125;0.04531250000000142;66;0.625;violin
59.90625;0.04531250000000142;59;0.625;violin
60.0;0.04531250000000142;59;0.625;violin
60.09375;0.04531250000000142;66;0.625;violin
60.1875;0.04531250000000142;74;0.625;violin
60.28125;0.04531250000000142;83;0.625;violin
60.375;0.04531250000000142;83;0.625;violin
60.46875;0.04531250000000142;74;0.625;violin
60.5625;0.04531250000000142;66;0.625;violin
60.65625;0.04531250000000142;59;0.625;violin
60.75;0.04531250000000142;59;0.625;violin
60.84375;0.04531250000000142;67;0.625;violin
60.9375;0.04531250000000142;74;0.625;violin
61.03125;0.04531250000000142;83;0.625;violin
61.125;0.04531250000000142;83;0.625;violin
61.21875;0.04531250000000142;74;0.625;violin
61.3125;0.04531250000000142;67;0.625;violin
61.40625;0.04531250000000142;59;0.625;violin
61.5;0.04531250000000142;59;0.625;violin
61.59375;0.04531250000000142;67;0.625;violin
61.6875;0.04531250000000142;77;0.625;violin
61.78125;0.04531250000000142;86;0.625;violin
61.875;0.04531250000000142;86;0.625;violin
61.96875;0.04531250000000142;77;0.625;violin
62.0625;0.04531250000000142;67;0.625;violin
62.15625;0.04531250000000142;59;0.625;violin
62.25;0.04531250000000142;60;0.625;violin
62.34375;0.04531250000000142;67;0.625;violin
62.4375;0.04531250000000142;76;0.625;violin
62.53125;0.04531250000000142;84;0.625;violin
62.625;0.04531250000000142;84;0.625;violin
62.71875;0.04531250000000142;76;0.625;violin
62.8125;0.04531250000000142;67;0.625;violin
62.90625;0.04531250000000142;60;0.625;violin
63.0;0.04531250000000142;60;0.625;violin
63.09375;0.04531250000000142;67;0.625;violin
63.1875;0.04531250000000142;75;0.625;violin
63.28125;0.04531250000000142;84;0.625;violin
63.375;0.04531250000000142;84;0.625;violin
63.46875;0.04531250000000142;75;0.625;violin
63.5625;0.04531250000000142;67;0.625;violin
63.65625;0.04531250000000142;60;0.625;violin
63.75;0.04531250000000142;60;0.625;violin
63.84375;0.04531250000000142;68;0.625;violin
63.9375;0.04531250000000142;75;0.625;violin
64.03125;0.045312500000008527;84;0.625;violin
64.125;0.045312500000008527;84;0.625;violin
64.21875;0.045312500000008527;75;0.625;violin
64.3125;0.045312500000008527;68;0.625;violin
64.40625;0.045312500000008527;60;0.625;violin
64.5;0.045312500000008527;60;0.625;violin
64.59375;0.045312500000008527;68;0.625;violin
64.6875;0.045312500000008527;78;0.625;violin
64.78125;0.045312500000008527;87;0.625;violin
64.875;0.045312500000008527;87;0.625;violin
64.96875;0.045312500000008527;78;0.625;violin
65.0625;0.045312500000008527;68;0.625;violin
65.15625;0.045312500000008527;60;0.625;violin
66.0;0.045312500000008527;61;0.3828125;violin
66.09375;0.045312500000008527;65;0.3828125;violin
66.1875;0.045312500000008527;73;0.3828125;violin
66.28125;0.045312500000008527;77;0.3828125;violin
66.375;0.045312500000008527;77;0.3828125;violin
66.46875;0.045312500000008527;73;0.3828125;violin
66.5625;0.045312500000008527;65;0.3828125;violin
66.65625;0.045312500000008527;61;0.3828125;violin
66.75;0.045312500000008527;60;0.3828125;violin
66.84375;0.045312500000008527;63;0.3828125;violin
66.9375;0.045312500000008527;75;0.3828125;violin
67.03125;0.045312500000008527;78;0.3828125;violin
67.125;0.045312500000008527;78;0.3828125;violin
67.21875;0.045312500000008527;75;0.3828125;violin
67.3125;0.045312500000008527;63;0.3828125;violin
67.40625;0.045312500000008527;60;0.3828125;violin
67.5;0.045312500000008527;61;0.3828125;violin
67.59375;0.045312500000008527;65;0.3828125;violin
67.6875;0.045312500000008527;73;0.3828125;violin
67.78125;0.045312500000008527;77;0.3828125;violin
67.875;0.045312500000008527;77;0.3828125;violin
67.96875;0.045312500000008527;73;0.3828125;violin
68.0625;0.045312500000008527;65;0.3828125;violin
68.15625;0.045312500000008527;61;0.3828125;violin
68.25;0.045312500000008527;56;0.3828125;violin
68.34375;0.045312500000008527;63;0.3828125;violin
68.4375;0.045312500000008527;72;0.3828125;violin
68.53125;0.045312500000008527;80;0.3828125;violin
68.625;0.045312500000008527;80;0.3828125;violin
68.71875;0.045312500000008527;72;0.3828125;violin
68.8125;0.045312500000008527;63;0.3828125;violin
68.90625;0.045312500000008527;56;0.3828125;violin
69.0;0.045312500000008527;61;0.3828125;violin
69.09375;0.045312500000008527;64;0.3828125;violin
69.1875;0.045312500000008527;73;0.3828125;violin
69.28125;0.045312500000008527;76;0.3828125;violin
69.375;0.045312500000008527;76;0.3828125;violin
69.46875;0.045312500000008527;73;0.3828125;violin
69.5625;0.045312500000008527;64;0.3828125;violin
69.65625;0.045312500000008527;61;0.3828125;violin
69.75;0.045312500000008527;60;0.3828125;violin
69.84375;0.045312500000008527;63;0.3828125;violin
69.9375;0.045312500000008527;75;0.3828125;violin
70.03125;0.045312500000008527;78;0.3828125;violin
70.125;0.045312500000008527;78;0.3828125;violin
70.21875;0.045312500000008527;75;0.3828125;violin
70.3125;0.045312500000008527;63;0.3828125;violin
70.40625;0.045312500000008527;60;0.3828125;violin
70.5;0.045312500000008527;61;0.3828125;violin
70.59375;0.045312500000008527;64;0.3828125;violin
70.6875;0.045312500000008527;73;0.3828125;violin
70.78125;0.045312500000008527;76;0.3828125;violin
70.875;0.045312500000008527;76;0.3828125;violin
70.96875;0.045312500000008527;73;0.3828125;violin
71.0625;0.045312500000008527;64;0.3828125;violin
71.15625;0.045312500000008527;61;0.3828125;violin
71.25;0.045312500000008527;56;0.3828125;violin
71.34375;0.045312500000008527;63;0.3828125;violin
71.4375;0.045312500000008527;72;0.3828125;violin
71.53125;0.045312500000008527;80;0.3828125;violin
71.625;0.045312500000008527;80;0.3828125;violin
71.71875;0.045312500000008527;72;0.3828125;violin
71.8125;0.045312500000008527;63;0.3828125;violin
71.90625;0.045312500000008527;56;0.3828125;violin
72.0;0.045312500000008527;61;0.3828125;violin
72.09375;0.045312500000008527;64;0.3828125;violin
72.1875;0.045312500000008527;73;0.3828125;violin
72.28125;0.045312500000008527;76;0.3828125;violin
72.375;0.045312500000008527;76;0.3828125;violin
72.46875;0.045312500000008527;73;0.3828125;violin
72.5625;0.045312500000008527;64;0.3828125;violin
72.65625;0.045312500000008527;61;0.3828125;violin
72.75;0.045312500000008527;59;0.3828125;violin
72.84375;0.045312500000008527;68;0.3828125;violin
72.9375;0.045312500000008527;74;0.390625;violin
73.03125;0.045312500000008527;76;0.3984375;violin
73.125;0.045312500000008527;76;0.40625;violin
73.21875;0.045312500000008527;74;0.4140625;violin
73.3125;0.045312500000008527;68;0.421875;violin
73.40625;0.045312500000008527;59;0.4296875;violin
73.5;0.045312500000008527;57;0.4375;violin
73.59375;0.045312500000008527;64;0.4453125;violin
73.6875;0.045312500000008527;73;0.453125;violin
73.78125;0.045312500000008527;81;0.4609375;violin
73.875;0.045312500000008527;81;0.46875;violin
73.96875;0.045312500000008527;73;0.4765625;violin
74.0625;0.045312500000008527;64;0.484375;violin
74.15625;0.045312500000008527;57;0.4921875;violin
74.25;0.045312500000008527;58;0.5;violin
74.34375;0.045312500000008527;67;0.5078125;violin
74.4375;0.045312500000008527;76;0.515625;violin
74.53125;0.045312500000008527;85;0.5234375;violin
74.625;0.045312500000008527;85;0.53125;violin
74.71875;0.045312500000008527;76;0.5390625;violin
74.8125;0.045312500000008527;67;0.546875;violin
74.90625;0.045312500000008527;58;0.5546875;violin
75.0;0.09218750000000853;59;0.5625;violin
75.1875;0.09218750000000853;66;0.578125;violin
75.1875;0.09218750000000853;75;0.578125;violin
75.1875;0.09218750000000853;83;0.578125;violin
75.375;0.09218750000000853;57;0.59375;violin
75.5625;0.09218750000000853;66;0.609375;violin
75.5625;0.09218750000000853;75;0.609375;violin
75.5625;0.09218750000000853;83;0.609375;violin
75.75;0.09218750000000853;56;0.625;violin
75.9375;0.09218750000000853;64;0.640625;violin
75.9375;0.09218750000000853;71;0.640625;violin
75.9375;0.09218750000000853;80;0.640625;violin
76.125;0.09218750000000853;57;0.65625;violin
76.3125;0.09218750000000853;64;0.671875;violin
76.3125;0.09218750000000853;73;0.671875;violin
76.3125;0.09218750000000853;81;0.671875;violin
76.5;0.09218750000000853;59;0.6875;violin
76.6875;0.09218750000000853;68;0.703125;violin
76.6875;0.09218750000000853;76;0.703125;violin
76.6875;0.09218750000000853;83;0.703125;violin
76.875;0.09218750000000853;59;0.71875;violin
77.0625;0.09218750000000853;66;0.734375;violin
77.0625;0.09218750000000853;75;0.734375;violin
77.0625;0.09218750000000853;83;0.734375;violin
77.25;0.3734375000000085;64;0.75;violin
77.625;0.3734375000000085;71;0.75;violin
77.625;0.3734375000000085;80;0.75;violin
77.625;0.3734375000000085;88;0.75;violin
78.0;0.045312500000008527;64;0.75;violin
78.09375;0.045312500000008527;68;0.75;violin
78.1875;0.045312500000008527;71;0.75;violin
78.28125;0.045312500000008527;76;0.75;violin
78.375;0.045312500000008527;76;0.75;violin
78.46875;0.045312500000008527;71;0.75;violin
78.5625;0.045312500000008527;68;0.75;violin
78.65625;0.045312500000008527;64;0.75;violin
78.75;0.045312500000008527;64;0.75;violin
78.84375;0.045312500000008527;69;0.75;violin
78.9375;0.045312500000008527;72;0.75;violin
79.03125;0.045312500000008527;76;0.75;violin
79.125;0.045312500000008527;76;0.75;violin
79.21875;0.045312500000008527;72;0.75;violin
79.3125;0.045312500000008527;69;0.75;violin
79.40625;0.045312500000008527;64;0.75;violin
79.5;0.045312500000008527;64;0.75;violin
79.59375;0.045312500000008527;67;0.75;violin
79.6875;0.045312500000008527;70;0.75;violin
79.78125;0.045312500000008527;76;0.75;violin
79.875;0.045312500000008527;76;0.75;violin
79.96875;0.045312500000008527;70;0.75;violin
80.0625;0.045312500000008527;67;0.75;violin
80.15625;0.045312500000008527;64;0.75;violin
80.25;0.045312500000008527;64;0.75;violin
80.34375;0.045312500000008527;68;0.75;violin
80.4375;0.045312500000008527;71;0.75;violin
80.53125;0.045312500000008527;76;0.75;violin
80.625;0.12343750000000853;80;0.75;violin
80.625;0.12343750000000853;83;0.75;violin
80.75;0.12343750000000853;78;0.75;violin
80.75;0.12343750000000853;81;0.75;violin
80.875;0.12343750000000853;76;0.75;violin
80.875;0.12343750000000853;80;0.75;violin
81.0;0.12343750000000853;81;0.75;violin
81.0;0.12343750000000853;85;0.75;violin
81.125;0.12343750000000853;80;0.75;violin
81.125;0.12343750000000853;83;0.75;violin
81.25;0.12343750000000853;78;0.75;violin
81.25;0.12343750000000853;81;0.75;violin
81.375;0.12343750000000853;76;0.75;violin
81.375;0.12343750000000853;80;0.75;violin
81.5;0.12343750000000853;75;0.75;violin
81.5;0.12343750000000853;78;0.75;violin
81.625;0.12343750000000853;73;0.75;violin
81.625;0.12343750000000853;76;0.75;violin
81.75;0.045312500000008527;59;0.75;violin
81.84375;0.045312500000008527;68;0.75;violin
81.9375;0.045312500000008527;76;0.75;violin
82.03125;0.045312500000008527;83;0.75;violin
82.125;0.045312500000008527;83;0.75;violin
82.21875;0.045312500000008527;76;0.75;violin
82.3125;0.045312500000008527;68;0.75;violin
82.40625;0.045312500000008527;59;0.75;violin
82.5;0.045312500000008527;59;0.75;violin
82.59375;0.045312500000008527;66;0.75;violin
82.6875;0.045312500000008527;75;0.75;violin
82.78125;0.045312500000008527;83;0.75;violin
82.875;0.045312500000008527;83;0.75;violin
82.96875;0.045312500000008527;75;0.75;violin
83.0625;0.045312500000008527;66;0.75;violin
83.15625;0.045312500000008527;59;0.75;violin
83.25;0.045312500000008527;64;0.75;violin
83.34375;0.045312500000008527;68;0.75;violin
83.4375;0.045312500000008527;71;0.75;violin
83.53125;0.045312500000008527;76;0.75;violin
83.625;0.09218750000000853;92;0.75;violin
83.8125;0.09218750000000853;88;0.75;violin
84.0;0.045312500000008527;64;0.75;violin
84.09375;0.045312500000008527;71;0.75;violin
84.1875;0.045312500000008527;80;0.75;violin
84.28125;0.045312500000008527;88;0.75;violin
84.375;0.045312500000008527;88;0.75;violin
84.46875;0.045312500000008527;80;0.75;violin
84.5625;0.045312500000008527;71;0.75;violin
84.65625;0.045312500000008527;64;0.75;violin
84.75;0.045312500000008527;64;0.75;violin
84.84375;0.045312500000008527;72;0.75;violin
84.9375;0.045312500000008527;81;0.75;violin
85.03125;0.045312500000008527;88;0.75;violin
85.125;0.045312500000008527;88;0.75;violin
85.21875;0.045312500000008527;81;0.75;violin
85.3125;0.045312500000008527;72;0.75;violin
85.40625;0.045312500000008527;64;0.75;violin
85.5;0.045312500000008527;64;0.75;violin
85.59375;0.045312500000008527;70;0.75;violin
85.6875;0.045312500000008527;79;0.75;violin
85.78125;0.045312500000008527;88;0.75;violin
85.875;0.045312500000008527;88;0.75;violin
85.96875;0.045312500000008527;79;0.75;violin
86.0625;0.045312500000008527;70;0.75;violin
86.15625;0.045312500000008527;64;0.75;violin
86.25;0.045312500000008527;64;0.75;violin
86.34375;0.045312500000008527;71;0.75;violin
86.4375;0.045312500000008527;80;0.75;violin
86.53125;0.045312500000008527;88;0.75;violin
86.625;0.12343750000000853;64;0.75;violin
86.625;0.12343750000000853;68;0.75;violin
86.75;0.12343750000000853;66;0.75;violin
86.75;0.12343750000000853;69;0.75;violin
86.875;0.12343750000000853;68;0.75;violin
86.875;0.12343750000000853;71;0.75;violin
87.0;0.12343750000000853;69;0.75;violin
87.0;0.12343750000000853;73;0.75;violin
87.125;0.12343750000000853;71;0.75;violin
87.125;0.12343750000000853;75;0.75;violin
87.25;0.12343750000000853;73;0.75;violin
87.25;0.12343750000000853;76;0.75;violin
87.375;0.12343750000000853;75;0.75;violin
87.375;0.12343750000000853;78;0.75;violin
87.5;0.12343750000000853;76;0.75;violin
87.5;0.12343750000000853;80;0.75;violin
87.625;0.12343750000000853;78;0.75;violin
87.625;0.12343750000000853;81;0.75;violin
87.75;0.045312500000008527;71;0.75;violin
87.84375;0.045312500000008527;76;0.75;violin
87.9375;0.045312500000008527;80;0.75;violin
88.03125;0.045312500000008527;88;0.75;violin
88.125;0.045312500000008527;88;0.75;violin
88.21875;0.045312500000008527;80;0.75;violin
88.3125;0.045312500000008527;76;0.75;violin
88.40625;0.045312500000008527;71;0.75;violin
88.5;0.045312500000008527;71;0.75;violin
88.59375;0.045312500000008527;75;0.75;violin
88.6875;0.045312500000008527;78;0.75;violin
88.78125;0.045312500000008527;87;0.75;violin
88.875;0.045312500000008527;87;0.75;violin
88.96875;0.045312500000008527;78;0.75;violin
89.0625;0.045312500000008527;75;0.75;violin
89.15625;0.045312500000008527;71;0.75;violin
89.25;0.045312500000008527;64;0.75;violin
89.34375;0.045312500000008527;71;0.75;violin
89.4375;0.045312500000008527;80;0.75;violin
89.53125;0.045312500000008527;88;0.75;violin
89.625;0.045312500000008527;92;0.75;violin
89.71875;0.045312500000008527;80;0.75;violin
89.8125;0.045312500000008527;71;0.75;violin
89.90625;0.045312500000008527;64;0.75;violin
90.0;0.045312500000008527;64;0.75;violin
90.09375;0.045312500000008527;72;0.75;violin
90.1875;0.045312500000008527;81;0.75;violin
90.28125;0.045312500000008527;88;0.75;violin
90.375;0.045312500000008527;93;0.75;violin
90.46875;0.045312500000008527;81;0.75;violin
90.5625;0.045312500000008527;72;0.75;violin
90.65625;0.045312500000008527;64;0.75;violin
90.75;0.045312500000008527;64;0.75;violin
90.84375;0.045312500000008527;71;0.75;violin
90.9375;0.045312500000008527;80;0.75;violin
91.03125;0.045312500000008527;88;0.75;violin
91.125;0.045312500000008527;92;0.75;violin
91.21875;0.045312500000008527;80;0.75;violin
91.3125;0.045312500000008527;71;0.75;violin
91.40625;0.045312500000008527;64;0.75;violin
91.5;0.045312500000008527;64;0.75;violin
91.59375;0.045312500000008527;72;0.75;violin
91.6875;0.045312500000008527;81;0.75;violin
91.78125;0.045312500000008527;88;0.75;violin
91.875;0.045312500000008527;93;0.75;violin
91.96875;0.045312500000008527;81;0.75;violin
92.0625;0.045312500000008527;72;0.75;violin
92.15625;0.045312500000008527;64;0.75;violin
92.25;0.045312500000008527;64;0.75;violin
92.34375;0.045312500000008527;71;0.75;violin
92.4375;0.045312500000008527;80;0.75;violin
92.53125;0.045312500000008527;88;0.75;violin
92.625;0.045312500000008527;92;0.75;violin
92.71875;0.045312500000008527;80;0.75;violin
92.8125;0.045312500000008527;71;0.75;violin
92.90625;0.045312500000008527;64;0.75;violin
93.0;0.045312500000008527;61;0.75;violin
93.09375;0.045312500000008527;70;0.75;violin
93.1875;0.045312500000008527;79;0.75;violin
93.28125;0.045312500000008527;88;0.75;violin
93.375;0.09218750000000853;61;0.75;violin
93.5625;0.09218750000000853;58;0.75;violin
93.75;0.12343750000000853;59;0.75;violin
93.875;0.12343750000000853;80;0.75;violin
93.875;0.12343750000000853;83;0.75;violin
94.0;0.12343750000000853;78;0.75;violin
94.0;0.12343750000000853;81;0.75;violin
94.125;0.12343750000000853;76;0.75;violin
94.125;0.12343750000000853;80;0.75;violin
94.25;0.12343750000000853;75;0.75;violin
94.25;0.12343750000000853;78;0.75;violin
94.375;0.12343750000000853;73;0.75;violin
94.375;0.12343750000000853;76;0.75;violin
94.5;0.12343750000000853;71;0.75;violin
94.5;0.12343750000000853;75;0.75;violin
94.625;0.12343750000000853;69;0.75;violin
94.625;0.12343750000000853;73;0.75;violin
94.75;0.12343750000000853;68;0.75;violin
94.75;0.12343750000000853;71;0.75;violin
94.875;0.12343750000000853;66;0.75;violin
94.875;0.12343750000000853;69;0.75;violin
95.0;0.12343750000000853;64;0.75;violin
95.0;0.12343750000000853;68;0.75;violin
95.125;0.12343750000000853;63;0.75;violin
95.125;0.12343750000000853;66;0.75;violin
95.25;0.045312500000008527;64;0.75;violin
95.34375;0.045312500000008527;68;0.75;violin
95.4375;0.045312500000008527;71;0.75;violin
95.53125;0.045312500000008527;76;0.75;violin
95.625;0.045312500000008527;80;0.75;violin
95.71875;0.045312500000008527;71;0.75;violin
95.8125;0.045312500000008527;68;0.75;violin
95.90625;0.045312500000008527;64;0.75;violin
96.0;0.045312500000008527;64;0.75;violin
96.09375;0.045312500000008527;69;0.75;violin
96.1875;0.045312500000008527;72;0.75;violin
96.28125;0.045312500000008527;76;0.75;violin
96.375;0.045312500000008527;81;0.75;violin
96.46875;0.045312500000008527;72;0.75;violin
96.5625;0.045312500000008527;69;0.75;violin
96.65625;0.045312500000008527;64;0.75;violin
96.75;0.045312500000008527;64;0.75;violin
96.84375;0.045312500000008527;68;0.75;violin
96.9375;0.045312500000008527;71;0.75;violin
97.03125;0.045312500000008527;76;0.75;violin
97.125;0.045312500000008527;80;0.75;violin
97.21875;0.045312500000008527;71;0.75;violin
97.3125;0.045312500000008527;68;0.75;violin
97.40625;0.045312500000008527;64;0.75;violin
97.5;0.045312500000008527;64;0.75;violin
97.59375;0.045312500000008527;69;0.75;violin
97.6875;0.045312500000008527;72;0.75;violin
97.78125;0.045312500000008527;76;0.75;violin
97.875;0.045312500000008527;81;0.75;violin
97.96875;0.045312500000008527;72;0.75;violin
98.0625;0.045312500000008527;69;0.75;violin
98.15625;0.045312500000008527;64;0.75;violin
98.25;0.045312500000008527;64;0.75;violin
98.34375;0.045312500000008527;68;0.75;violin
98.4375;0.045312500000008527;71;0.75;violin
98.53125;0.045312500000008527;76;0.75;violin
98.625;0.045312500000008527;80;0.75;violin
98.71875;0.045312500000008527;71;0.75;violin
98.8125;0.045312500000008527;68;0.75;violin
98.90625;0.045312500000008527;64;0.75;violin
99.0;0.045312500000008527;61;0.75;violin
99.09375;0.045312500000008527;67;0.75;violin
99.1875;0.045312500000008527;70;0.75;violin
99.28125;0.045312500000008527;76;0.75;violin
99.375;0.09218750000000853;79;0.75;violin
99.5625;0.09218750000000853;76;0.75;violin
99.75;0.12343750000000853;59;0.75;violin
99.875;0.12343750000000853;71;0.75;violin
99.875;0.12343750000000853;76;0.75;violin
100.0;0.12343750000000853;68;0.75;violin
100.0;0.12343750000000853;71;0.75;violin
100.125;0.12343750000000853;83;0.75;violin
100.25;0.12343750000000853;59;0.75;violin
100.25;0.12343750000000853;63;0.75;violin
100.375;0.12343750000000853;61;0.75;violin
100.375;0.12343750000000853;64;0.75;violin
100.5;0.12343750000000853;63;0.75;violin
100.5;0.12343750000000853;66;0.75;violin
100.625;0.12343750000000853;64;0.75;violin
100.625;0.12343750000000853;68;0.75;violin
100.75;0.12343750000000853;66;0.75;violin
100.75;0.12343750000000853;69;0.75;violin
100.875;0.12343750000000853;68;0.75;violin
100.875;0.12343750000000853;71;0.75;violin
101.0;0.12343750000000853;69;0.75;violin
101.0;0.12343750000000853;73;0.75;violin
101.125;0.12343750000000853;71;0.75;violin
101.125;0.12343750000000853;75;0.75;violin
101.25;0.045312500000008527;76;0.75;violin
101.34375;0.045312500000008527;80;0.75;violin
101.4375;0.045312500000008527;83;0.75;violin
101.53125;0.045312500000008527;76;0.75;violin
101.625;0.045312500000008527;76;0.75;violin
101.71875;0.045312500000008527;83;0.75;violin
101.8125;0.045312500000008527;80;0.75;violin
101.90625;0.045312500000008527;76;0.75;violin
102.0;0.045312500000008527;76;0.75;violin
102.09375;0.045312500000008527;81;0.75;violin
102.1875;0.045312500000008527;84;0.75;violin
102.28125;0.045312500000008527;76;0.75;violin
102.375;0.045312500000008527;76;0.75;violin
102.46875;0.045312500000008527;84;0.75;violin
102.5625;0.045312500000008527;81;0.75;violin
102.65625;0.045312500000008527;76;0.75;violin
102.75;0.045312500000008527;76;0.75;violin
102.84375;0.045312500000008527;80;0.75;violin
102.9375;0.045312500000008527;83;0.75;violin
103.03125;0.045312500000008527;76;0.75;violin
103.125;0.045312500000008527;76;0.75;violin
103.21875;0.045312500000008527;83;0.75;violin
103.3125;0.045312500000008527;80;0.75;violin
103.40625;0.045312500000008527;76;0.75;violin
103.5;0.045312500000008527;75;0.75;violin
103.59375;0.045312500000008527;78;0.75;violin
103.6875;0.045312500000008527;83;0.75;violin
103.78125;0.045312500000008527;76;0.75;violin
103.875;0.045312500000008527;76;0.75;violin
103.96875;0.045312500000008527;83;0.75;violin
104.0625;0.045312500000008527;78;0.75;violin
104.15625;0.045312500000008527;75;0.75;violin
104.25;0.045312500000008527;73;0.75;violin
104.34375;0.045312500000008527;76;0.75;violin
104.4375;0.045312500000008527;81;0.75;violin
104.53125;0.045312500000008527;76;0.75;violin
104.625;0.045312500000008527;76;0.75;violin
104.71875;0.045312500000008527;81;0.75;violin
104.8125;0.045312500000008527;76;0.75;violin
104.90625;0.045312500000008527;73;0.75;violin
105.0;0.045312500000008527;71;0.75;violin
105.09375;0.045312500000008527;75;0.75;violin
105.1875;0.045312500000008527;80;0.75;violin
105.28125;0.045312500000008527;76;0.75;violin
105.375;0.045312500000008527;76;0.75;violin
105.46875;0.045312500000008527;80;0.75;violin
105.5625;0.045312500000008527;75;0.75;violin
105.65625;0.045312500000008527;71;0.75;violin
105.75;0.045312500000008527;69;0.75;violin
105.84375;0.045312500000008527;73;0.75;violin
105.9375;0.045312500000008527;78;0.75;violin
106.03125;0.045312500000008527;76;0.75;violin
106.125;0.045312500000008527;76;0.75;violin
106.21875;0.045312500000008527;78;0.75;violin
106.3125;0.045312500000008527;73;0.75;violin
106.40625;0.045312500000008527;69;0.75;violin
106.5;0.045312500000008527;66;0.75;violin
106.59375;0.045312500000008527;69;0.75;violin
106.6875;0.045312500000008527;75;0.75;violin
106.78125;0.045312500000008527;76;0.75;violin
106.875;0.045312500000008527;76;0.75;violin
106.96875;0.045312500000008527;75;0.75;violin
107.0625;0.045312500000008527;69;0.75;violin
107.15625;0.045312500000008527;66;0.75;violin
107.25;0.045312500000008527;64;0.75;violin
107.34375;0.045312500000008527;68;0.75;violin
107.4375;0.045312500000008527;76;0.75;violin
107.53125;0.045312500000008527;76;0.75;violin
107.625;0.045312500000008527;76;0.75;violin
107.71875;0.045312500000008527;76;0.75;violin
107.8125;0.045312500000008527;68;0.75;violin
107.90625;0.045312500000008527;64;0.75;violin
108.0;0.045312500000008527;65;0.75;violin
108.09375;0.045312500000008527;69;0.75;violin
108.1875;0.045312500000008527;75;0.75;violin
108.28125;0.045312500000008527;76;0.75;violin
108.375;0.045312500000008527;76;0.75;violin
108.46875;0.045312500000008527;75;0.75;violin
108.5625;0.045312500000008527;69;0.75;violin
108.65625;0.045312500000008527;65;0.75;violin
108.75;0.045312500000008527;64;0.75;violin
108.84375;0.045312500000008527;68;0.75;violin
108.9375;0.045312500000008527;76;0.75;violin
109.03125;0.045312500000008527;76;0.75;violin
109.125;0.045312500000008527;76;0.75;violin
109.21875;0.045312500000008527;76;0.75;violin
109.3125;0.045312500000008527;68;0.75;violin
109.40625;0.045312500000008527;64;0.75;violin
109.5;0.045312500000008527;65;0.75;violin
109.59375;0.045312500000008527;69;0.75;violin
109.6875;0.045312500000008527;75;0.75;violin
109.78125;0.045312500000008527;76;0.75;violin
109.875;0.045312500000008527;76;0.75;violin
109.96875;0.045312500000008527;75;0.75;violin
110.0625;0.045312500000008527;69;0.75;violin
110.15625;0.045312500000008527;65;0.75;violin
110.25;0.18593750000000853;64;0.75;violin
110.4375;0.18593750000000853;68;0.75;violin
110.4375;0.18593750000000853;76;0.75;violin
111.0;0.18593750000000853;64;0.75;violin
111.1875;0.18593750000000853;68;0.75;violin
111.1875;0.18593750000000853;76;0.75;violin
111.1875;0.18593750000000853;80;0.75;violin
111.75;0.045312500000008527;64;0.75;violin
111.84375;0.045312500000008527;68;0.75;violin
111.9375;0.045312500000008527;76;0.75;violin
112.03125;0.045312500000008527;76;0.75;violin
112.125;0.045312500000008527;76;0.75;violin
112.21875;0.045312500000008527;80;0.75;violin
112.3125;0.045312500000008527;68;0.75;violin
112.40625;0.045312500000008527;64;0.75;violin
112.5;0.045312500000008527;64;0.75;violin
112.59375;0.045312500000008527;68;0.75;violin
112.6875;0.045312500000008527;76;0.75;violin
112.78125;0.045312500000008527;76;0.75;violin
112.875;0.045312500000008527;76;0.75;violin
112.96875;0.045312500000008527;80;0.75;violin
113.0625;0.045312500000008527;68;0.75;violin
113.15625;0.045312500000008527;64;0.75;violin
113.25;0.7484375000000085;64;0.75;violin
113.25;0.7484375000000085;68;0.75;violin
113.25;0.7484375000000085;76;0.75;violin
