start;duration;pitch;velocity;instrument
0.0;0.07374987708333333;71;0.625;violin
0.14999975000000002;0.14874975208333333;83;0.625;violin
0.29999950000000003;0.1487497520833333;82;0.625;violin
0.44999925;0.14874975208333335;83;0.625;violin
0.5999990000000001;0.1487497520833333;81;0.625;violin
0.74999875;0.1487497520833333;83;0.625;violin
0.8999985;0.1487497520833333;79;0.625;violin
1.04999825;0.1487497520833334;83;0.625;violin
1.1999980000000001;0.1487497520833332;78;0.625;violin
1.34999775;0.1487497520833334;83;0.625;violin
1.4999975;0.1487497520833332;76;0.625;violin
1.64999725;0.1487497520833334;83;0.625;violin
1.799997;0.1487497520833334;74;0.625;violin
1.9499967500000002;0.1487497520833332;83;0.625;violin
2.0999965;0.1487497520833334;73;0.625;violin
2.24999625;0.1487497520833334;83;0.625;violin
2.3999960000000002;0.14874975208333296;71;0.625;violin
2.54999575;0.1487497520833334;83;0.625;violin
2.6999955;0.1487497520833334;70;0.625;violin
2.84999525;0.1487497520833334;83;0.625;violin
2.999995;0.1487497520833334;71;0.625;violin
3.1499947500000003;0.14874975208333296;83;0.625;violin
3.2999945;0.1487497520833334;74;0.625;violin
3.44999425;0.1487497520833334;83;0.625;violin
3.599994;0.07374987708333336;73;0.625;violin
3.7499937500000002;0.1487497520833334;82;0.625;violin
3.8999935000000003;0.1487497520833334;79;0.625;violin
4.04999325;0.14874975208333385;82;0.625;violin
4.199993;0.14874975208333296;78;0.625;violin
4.34999275;0.14874975208333296;82;0.625;violin
4.4999925;0.14874975208333296;76;0.625;violin
4.64999225;0.14874975208333296;82;0.625;violin
4.7999920000000005;0.14874975208333296;74;0.625;violin
4.949991750000001;0.14874975208333296;82;0.625;violin
5.0999915;0.14874975208333385;73;0.625;violin
5.24999125;0.14874975208333385;82;0.625;violin
5.399991;0.14874975208333385;71;0.625;violin
5.54999075;0.14874975208333385;82;0.625;violin
5.6999905;0.14874975208333296;70;0.625;violin
5.84999025;0.14874975208333296;82;0.625;violin
5.99999;0.14874975208333296;71;0.625;violin
6.1499897500000005;0.14874975208333296;82;0.625;violin
6.299989500000001;0.14874975208333296;73;0.625;violin
6.44998925;0.14874975208333385;82;0.625;violin
6.599989;0.14874975208333385;74;0.625;violin
6.74998875;0.14874975208333385;82;0.625;violin
6.8999885;0.14874975208333385;76;0.625;violin
7.04998825;0.14874975208333296;82;0.625;violin
7.199988;0.07374987708333336;74;0.625;violin
7.34998775;0.14874975208333296;83;0.625;violin
7.4999875000000005;0.14874975208333296;66;0.625;violin
7.649987250000001;0.14874975208333296;83;0.625;violin
7.799987000000001;0.14874975208333296;64;0.625;violin
7.94998675;0.14874975208333385;83;0.625;violin
8.0999865;0.14874975208333296;62;0.625;violin
8.249986250000001;0.14874975208333296;83;0.625;violin
8.399986;0.14874975208333296;61;0.625;violin
8.54998575;0.14874975208333474;83;0.625;violin
8.6999855;0.14874975208333296;59;0.625;violin
8.84998525;0.14874975208333474;83;0.625;violin
8.999985;0.07374987708333336;67;0.625;violin
9.14998475;0.14874975208333296;86;0.625;violin
9.2999845;0.14874975208333296;71;0.625;violin
9.44998425;0.14874975208333296;86;0.625;violin
9.599984000000001;0.14874975208333296;69;0.625;violin
9.74998375;0.14874975208333296;86;0.625;violin
9.899983500000001;0.14874975208333296;67;0.625;violin
10.04998325;0.14874975208333296;86;0.625;violin
10.199983;0.14874975208333474;66;0.625;violin
10.34998275;0.14874975208333296;86;0.625;violin
10.4999825;0.14874975208333474;67;0.625;violin
10.64998225;0.14874975208333296;86;0.625;violin
10.799982;0.14874975208333296;66;0.625;violin
10.949981750000001;0.14874975208333296;86;0.625;violin
11.0999815;0.14874975208333296;71;0.625;violin
11.249981250000001;0.14874975208333296;86;0.625;violin
11.399981;0.14874975208333296;67;0.625;violin
11.54998075;0.14874975208333474;86;0.625;violin
11.6999805;0.14874975208333296;66;0.625;violin
11.84998025;0.14874975208333474;86;0.625;violin
11.99998;0.14874975208333296;65;0.625;violin
12.14997975;0.14874975208333296;86;0.625;violin
12.299979500000001;0.14874975208333296;66;0.625;violin
12.44997925;0.14874975208333296;86;0.625;violin
12.599979000000001;0.14874975208333296;65;0.625;violin
12.74997875;0.14874975208333296;86;0.625;violin
12.8999785;0.14874975208333474;74;0.625;violin
13.04997825;0.14874975208333296;86;0.625;violin
13.199978;0.14874975208333474;73;0.625;violin
13.34997775;0.14874975208333296;86;0.625;violin
13.4999775;0.14874975208333296;71;0.625;violin
13.649977250000001;0.14874975208333296;86;0.625;violin
13.799977;0.14874975208333296;67;0.625;violin
13.949976750000001;0.14874975208333296;86;0.625;violin
14.0999765;0.14874975208333296;65;0.625;violin
14.24997625;0.14874975208333474;86;0.625;violin
14.399976;0.14874975208333296;66;0.625;violin
14.54997575;0.14874975208333474;85;0.625;violin
14.6999755;0.14874975208333296;70;0.625;violin
14.84997525;0.14874975208333296;85;0.625;violin
14.999975000000001;0.14874975208333296;67;0.625;violin
15.14997475;0.14874975208333296;85;0.625;violin
15.299974500000001;0.14874975208333296;66;0.625;violin
15.44997425;0.14874975208333296;85;0.625;violin
15.599974000000001;0.14874975208333296;66;0.625;violin
15.74997375;0.14874975208333296;85;0.625;violin
15.8999735;0.14874975208333474;66;0.625;violin
16.04997325;0.14874975208333296;85;0.625;violin
16.199973;0.14874975208333296;67;0.625;violin
16.34997275;0.14874975208333296;83;0.625;violin
16.499972500000002;0.14874975208333296;71;0.625;violin
16.64997225;0.14874975208333296;86;0.625;violin
16.799972;0.14874975208333296;69;0.625;violin
16.94997175;0.14874975208333296;85;0.625;violin
17.0999715;0.14874975208333652;67;0.625;violin
17.24997125;0.14874975208333296;83;0.625;violin
17.399971;0.14874975208333296;66;0.625;violin
17.54997075;0.14874975208333296;83;0.625;violin
17.6999705;0.14874975208333296;65;0.625;violin
17.849970250000002;0.14874975208333296;83;0.625;violin
17.99997;0.14874975208333296;66;0.625;violin
18.14996975;0.14874975208333296;82;0.625;violin
18.2999695;0.14874975208333296;78;0.625;violin
18.449969250000002;0.14874975208333296;78;0.625;violin
18.599969;0.14874975208333296;77;0.625;violin
18.74996875;0.14874975208333296;80;0.625;violin
18.8999685;0.14874975208333296;76;0.625;violin
19.04996825;0.14874975208333652;82;0.625;violin
19.199968000000002;0.14874975208333296;74;0.625;violin
19.34996775;0.14874975208333296;83;0.625;violin
19.4999675;0.14874975208333296;70;0.625;violin
19.64996725;0.14874975208333296;85;0.625;violin
19.799967000000002;0.14874975208333296;71;0.625;violin
19.94996675;0.14874975208333296;86;0.625;violin
20.0999665;0.14874975208333296;67;0.625;violin
20.24996625;0.14874975208333296;83;0.625;violin
20.399966;0.14874975208333652;67;0.625;violin
20.549965750000002;0.14874975208333296;81;0.625;violin
20.6999655;0.14874975208333296;67;0.625;violin
20.84996525;0.14874975208333296;79;0.625;violin
20.999965;0.14874975208333296;67;0.625;violin
21.149964750000002;0.14874975208333296;78;0.625;violin
21.2999645;0.14874975208333296;67;0.625;violin
21.44996425;0.14874975208333296;77;0.625;violin
21.599964;0.14874975208333296;66;0.625;violin
21.74996375;0.14874975208333652;78;0.625;violin
21.899963500000002;0.14874975208333296;66;0.625;violin
22.04996325;0.14874975208333296;82;0.625;violin
22.199963;0.14874975208333296;67;0.625;violin
22.34996275;0.14874975208333296;77;0.625;violin
22.499962500000002;0.14874975208333296;66;0.625;violin
22.64996225;0.14874975208333296;78;0.625;violin
22.799962;0.14874975208333296;66;0.625;violin
22.94996175;0.14874975208333296;82;0.625;violin
23.0999615;0.14874975208333652;67;0.625;violin
23.249961250000002;0.14874975208333296;77;0.625;violin
23.399961;0.14874975208333296;66;0.625;violin
23.54996075;0.14874975208333296;78;0.625;violin
23.6999605;0.14874975208333296;66;0.625;violin
23.849960250000002;0.14874975208333296;82;0.625;violin
23.99996;0.14874975208333296;66;0.625;violin
24.14995975;0.14874975208333296;85;0.625;violin
24.2999595;0.14874975208333296;66;0.625;violin
24.44995925;0.14874975208333652;90;0.625;violin
24.599959000000002;0.14874975208333296;66;0.625;violin
24.74995875;0.14874975208333296;85;0.625;violin
24.8999585;0.14874975208333296;66;0.625;violin
25.04995825;0.14874975208333296;82;0.625;violin
25.199958000000002;0.8987485020833326;66;0.625;violin
25.199958000000002;0.8987485020833326;78;0.625;violin
27.898703502083332;0.14874975208333296;74;0.625;violin
28.04870325208333;0.14874975208333296;81;0.625;violin
28.198703002083334;0.14874975208333296;80;0.625;violin
28.348702752083334;0.14874975208333296;81;0.625;violin
28.498702502083333;0.14874975208333296;79;0.625;violin
28.648702252083332;0.14874975208333296;81;0.625;violin
28.79870200208333;0.14874975208333652;77;0.625;violin
28.948701752083334;0.14874975208333296;81;0.625;violin
29.098701502083333;0.14874975208333296;78;0.625;violin
29.248701252083332;0.14874975208333296;81;0.625;violin
29.39870100208333;0.14874975208333296;76;0.625;violin
29.548700752083334;0.14874975208333296;81;0.625;violin
29.698700502083334;0.14874975208333296;74;0.625;violin
29.848700252083333;0.14874975208333296;81;0.625;violin
29.998700002083332;0.14874975208333296;69;0.625;violin
30.14869975208333;0.14874975208333652;81;0.625;violin
30.298699502083334;0.14874975208333296;67;0.625;violin
30.448699252083333;0.14874975208333296;81;0.625;violin
30.598699002083332;0.14874975208333296;66;0.625;violin
30.74869875208333;0.14874975208333652;81;0.625;violin
30.898698502083334;0.14874975208333296;64;0.625;violin
31.048698252083334;0.14874975208333296;81;0.625;violin
31.198698002083333;0.14874975208333296;62;0.625;violin
31.348697752083332;0.14874975208333296;81;0.625;violin
31.49869750208333;0.14874975208333652;61;0.625;violin
31.648697252083334;0.14874975208333296;81;0.625;violin
31.798697002083333;0.14874975208333296;80;0.625;violin
31.948696752083332;0.14874975208333652;81;0.625;violin
32.098696502083335;0.14874975208333296;79;0.625;violin
32.248696252083334;0.14874975208333296;81;0.625;violin
32.398696002083334;0.14874975208333296;75;0.625;violin
32.54869575208333;0.14874975208333296;81;0.625;violin
32.69869550208333;0.14874975208333296;76;0.625;violin
32.84869525208333;0.14874975208333296;81;0.625;violin
32.99869500208333;0.14874975208333296;74;0.625;violin
33.14869475208333;0.14874975208333296;81;0.625;violin
33.298694502083336;0.14874975208333296;73;0.625;violin
33.448694252083335;0.14874975208333296;81;0.625;violin
33.598694002083334;0.14874975208333296;67;0.625;violin
33.748693752083334;0.14874975208333296;81;0.625;violin
33.89869350208333;0.14874975208333296;66;0.625;violin
34.04869325208333;0.14874975208333296;81;0.625;violin
34.19869300208333;0.14874975208333296;64;0.625;violin
34.34869275208333;0.14874975208333296;81;0.625;violin
34.49869250208333;0.14874975208333296;69;0.625;violin
34.648692252083336;0.14874975208333296;81;0.625;violin
34.798692002083335;0.14874975208333296;67;0.625;violin
34.948691752083334;0.14874975208333296;81;0.625;violin
35.098691502083334;0.14874975208333296;66;0.625;violin
35.24869125208333;0.14874975208333296;86;0.625;violin
35.39869100208333;0.14874975208333296;81;0.625;violin
35.54869075208333;0.14874975208333296;86;0.625;violin
35.69869050208333;0.14874975208333296;80;0.625;violin
35.84869025208333;0.14874975208333296;86;0.625;violin
35.998690002083336;0.14874975208333296;81;0.625;violin
36.148689752083335;0.14874975208333296;86;0.625;violin
36.298689502083334;0.14874975208333296;78;0.625;violin
36.448689252083334;0.14874975208333296;86;0.625;violin
36.59868900208333;0.14874975208333296;74;0.625;violin
36.74868875208333;0.14874975208333296;85;0.625;violin
36.89868850208333;0.14874975208333296;79;0.625;violin
37.04868825208334;0.14874975208333296;85;0.625;violin
37.19868800208333;0.14874975208333296;79;0.625;violin
37.348687752083336;0.14874975208333296;83;0.625;violin
37.498687502083335;0.14874975208333296;67;0.625;violin
37.648687252083334;0.14874975208333296;83;0.625;violin
37.798687002083334;0.14874975208333296;64;0.625;violin
37.94868675208333;0.14874975208333296;83;0.625;violin
38.09868650208333;0.14874975208333296;61;0.625;violin
38.24868625208333;0.14874975208333296;83;0.625;violin
38.39868600208334;0.14874975208333296;73;0.625;violin
38.54868575208333;0.14874975208333296;83;0.625;violin
38.698685502083336;0.14874975208333296;78;0.625;violin
38.848685252083335;0.14874975208333296;83;0.625;violin
38.998685002083334;0.14874975208333296;78;0.625;violin
39.148684752083334;0.14874975208333296;81;0.625;violin
39.29868450208333;0.14874975208333296;66;0.625;violin
39.44868425208333;0.14874975208333296;81;0.625;violin
39.59868400208333;0.14874975208333296;62;0.625;violin
39.74868375208334;0.14874975208333296;81;0.625;violin
39.89868350208333;0.14874975208333296;59;0.625;violin
40.048683252083336;0.14874975208333296;81;0.625;violin
40.198683002083335;0.14874975208333296;71;0.625;violin
40.348682752083334;0.14874975208333296;81;0.625;violin
40.498682502083334;0.14874975208333296;76;0.625;violin
40.64868225208333;0.14874975208333296;81;0.625;violin
40.79868200208333;0.14874975208333296;76;0.625;violin
40.94868175208333;0.14874975208333296;79;0.625;violin
41.09868150208334;0.14874975208333296;64;0.625;violin
41.24868125208333;0.14874975208333296;79;0.625;violin
41.398681002083336;0.14874975208333296;61;0.625;violin
41.548680752083335;0.14874975208333296;79;0.625;violin
41.698680502083334;0.14874975208333296;57;0.625;violin
41.848680252083334;0.14874975208333296;79;0.625;violin
41.99868000208333;0.14874975208333296;69;0.625;violin
42.14867975208333;0.14874975208333296;79;0.625;violin
42.29867950208333;0.14874975208333296;74;0.625;violin
42.44867925208334;0.14874975208333296;78;0.625;violin
42.59867900208333;0.14874975208333296;81;0.625;violin
42.59867900208333;0.14874975208333296;90;0.625;violin
42.748678752083336;0.14874975208333296;62;0.625;violin
42.898678502083335;0.14874975208333296;80;0.625;violin
42.898678502083335;0.14874975208333296;89;0.625;violin
43.048678252083334;0.14874975208333296;62;0.625;violin
43.198678002083334;0.14874975208333296;81;0.625;violin
43.198678002083334;0.14874975208333296;90;0.625;violin
43.34867775208333;0.14874975208333296;62;0.625;violin
43.49867750208333;0.14874975208333296;79;0.625;violin
43.49867750208333;0.14874975208333296;88;0.625;violin
43.64867725208333;0.14874975208333296;62;0.625;violin
43.79867700208334;0.14874975208333296;78;0.625;violin
43.79867700208334;0.14874975208333296;86;0.625;violin
43.94867675208333;0.14874975208333296;62;0.625;violin
44.098676502083336;0.14874975208333296;76;0.625;violin
44.098676502083336;0.14874975208333296;85;0.625;violin
44.24867625208333;0.14874975208334007;69;0.625;violin
44.398676002083334;0.14874975208333296;57;0.625;violin
44.398676002083334;0.14874975208333296;73;0.625;violin
44.548675752083334;0.14874975208333296;69;0.625;violin
44.69867550208333;0.14874975208333296;59;0.625;violin
44.69867550208333;0.14874975208333296;74;0.625;violin
44.84867525208333;0.14874975208333296;69;0.625;violin
44.99867500208333;0.14874975208333296;61;0.625;violin
44.99867500208333;0.14874975208333296;76;0.625;violin
45.14867475208334;0.14874975208333296;69;0.625;violin
45.29867450208333;0.14874975208333296;62;0.625;violin
45.29867450208333;0.14874975208333296;78;0.625;violin
45.448674252083336;0.14874975208333296;69;0.625;violin
45.598674002083335;0.14874975208333296;64;0.625;violin
45.598674002083335;0.14874975208333296;79;0.625;violin
45.748673752083334;0.14874975208333296;69;0.625;violin
45.898673502083334;0.14874975208333296;62;0.625;violin
45.898673502083334;0.14874975208333296;78;0.625;violin
46.04867325208333;0.14874975208333296;62;0.625;violin
46.19867300208333;0.14874975208334007;81;0.625;violin
46.19867300208333;0.14874975208334007;90;0.625;violin
46.34867275208333;0.14874975208333296;62;0.625;violin
46.49867250208334;0.14874975208333296;80;0.625;violin
46.49867250208334;0.14874975208333296;89;0.625;violin
46.64867225208333;0.14874975208333296;62;0.625;violin
46.798672002083336;0.14874975208333296;81;0.625;violin
46.798672002083336;0.14874975208333296;90;0.625;violin
46.948671752083335;0.14874975208333296;62;0.625;violin
47.098671502083334;0.14874975208333296;79;0.625;violin
47.098671502083334;0.14874975208333296;88;0.625;violin
47.248671252083334;0.14874975208333296;62;0.625;violin
47.39867100208333;0.14874975208333296;78;0.625;violin
47.39867100208333;0.14874975208333296;86;0.625;violin
47.54867075208333;0.14874975208334007;62;0.625;violin
47.69867050208333;0.14874975208333296;76;0.625;violin
47.69867050208333;0.14874975208333296;85;0.625;violin
47.84867025208334;0.14874975208333296;69;0.625;violin
47.99867000208333;0.14874975208333296;57;0.625;violin
47.99867000208333;0.14874975208333296;73;0.625;violin
48.148669752083336;0.14874975208333296;69;0.625;violin
48.298669502083335;0.14874975208333296;59;0.625;violin
48.298669502083335;0.14874975208333296;74;0.625;violin
48.448669252083334;0.14874975208333296;69;0.625;violin
48.598669002083334;0.14874975208333296;61;0.625;violin
48.598669002083334;0.14874975208333296;76;0.625;violin
48.74866875208333;0.14874975208333296;69;0.625;violin
48.89866850208333;0.14874975208334007;62;0.625;violin
48.89866850208333;0.14874975208334007;78;0.625;violin
49.04866825208333;0.14874975208333296;69;0.625;violin
49.19866800208334;0.14874975208333296;64;0.625;violin
49.19866800208334;0.14874975208333296;79;0.625;violin
49.34866775208333;0.14874975208333296;69;0.625;violin
49.498667502083336;0.14874975208333296;62;0.625;violin
49.498667502083336;0.14874975208333296;78;0.625;violin
49.648667252083335;0.14874975208333296;62;0.625;violin
49.798667002083334;0.14874975208333296;78;0.625;violin
49.798667002083334;0.14874975208333296;93;0.625;violin
49.948666752083334;0.14874975208333296;62;0.625;violin
50.09866650208333;0.14874975208333296;76;0.625;violin
50.09866650208333;0.14874975208333296;91;0.625;violin
50.24866625208333;0.14874975208334007;62;0.625;violin
50.39866600208333;0.14874975208333296;74;0.625;violin
50.39866600208333;0.14874975208333296;90;0.625;violin
50.54866575208334;0.14874975208333296;62;0.625;violin
50.69866550208333;0.14874975208333296;76;0.625;violin
50.69866550208333;0.14874975208333296;91;0.625;violin
50.848665252083336;0.14874975208333296;62;0.625;violin
50.998665002083335;0.14874975208333296;78;0.625;violin
50.998665002083335;0.14874975208333296;93;0.625;violin
51.148664752083334;0.14874975208333296;62;0.625;violin
51.298664502083334;0.14874975208333296;79;0.625;violin
51.44866425208333;0.14874975208333296;95;0.625;violin
51.59866400208333;0.14874975208334007;74;0.625;violin
51.74866375208333;0.14874975208333296;95;0.625;violin
51.89866350208334;0.14874975208333296;71;0.625;violin
52.04866325208333;0.14874975208333296;95;0.625;violin
52.198663002083336;0.14874975208333296;67;0.625;violin
52.348662752083335;0.14874975208333296;95;0.625;violin
52.498662502083334;0.14874975208333296;71;0.625;violin
52.648662252083334;0.14874975208333296;98;0.625;violin
52.79866200208333;0.14874975208333296;68;0.625;violin
52.94866175208333;0.14874975208334007;98;0.625;violin
53.09866150208333;0.14874975208333296;69;0.625;violin
53.24866125208334;0.14874975208333296;97;0.625;violin
53.39866100208333;0.14874975208333296;71;0.625;violin
53.548660752083336;0.14874975208333296;98;0.625;violin
53.698660502083335;0.14874975208333296;73;0.625;violin
53.848660252083334;0.14874975208333296;100;0.625;violin
53.998660002083334;0.14874975208333296;74;0.625;violin
54.14865975208333;0.14874975208333296;102;0.625;violin
54.29865950208333;0.14874975208334007;71;0.625;violin
54.44865925208333;0.14874975208333296;98;0.625;violin
54.59865900208334;0.14874975208333296;67;0.625;violin
54.74865875208333;0.14874975208333296;95;0.625;violin
54.898658502083336;0.14874975208333296;66;0.625;violin
55.048658252083335;0.14874975208333296;93;0.625;violin
55.198658002083334;0.14874975208333296;69;0.625;violin
55.348657752083334;0.14874975208333296;90;0.625;violin
55.49865750208333;0.14874975208333296;62;0.625;violin
55.64865725208333;0.14874975208334007;90;0.625;violin
55.79865700208333;0.14874975208333296;64;0.625;violin
55.94865675208334;0.14874975208333296;91;0.625;violin
56.09865650208333;0.14874975208333296;67;0.625;violin
56.248656252083336;0.14874975208333296;88;0.625;violin
56.398656002083335;0.14874975208333296;61;0.625;violin
56.548655752083334;0.14874975208333296;88;0.625;violin
56.698655502083334;0.14874975208333296;62;0.625;violin
56.84865525208333;0.14874975208333296;86;0.625;violin
56.84865525208333;0.14874975208333296;90;0.625;violin
56.99865500208334;0.14874975208333296;62;0.625;violin
57.14865475208333;0.14874975208333296;85;0.625;violin
57.14865475208333;0.14874975208333296;88;0.625;violin
57.29865450208334;0.14874975208333296;62;0.625;violin
57.44865425208333;0.14874975208333296;83;0.625;violin
57.44865425208333;0.14874975208333296;86;0.625;violin
57.598654002083336;0.14874975208333296;62;0.625;violin
57.748653752083335;0.14874975208333296;81;0.625;violin
57.748653752083335;0.14874975208333296;85;0.625;violin
57.898653502083334;0.14874975208333296;62;0.625;violin
58.048653252083334;0.14874975208333296;79;0.625;violin
58.048653252083334;0.14874975208333296;83;0.625;violin
58.19865300208333;0.14874975208333296;62;0.625;violin
58.34865275208334;0.14874975208333296;78;0.625;violin
58.34865275208334;0.14874975208333296;81;0.625;violin
58.49865250208333;0.14874975208333296;83;0.625;violin
58.49865250208333;0.14874975208333296;86;0.625;violin
58.64865225208334;0.14874975208333296;55;0.625;violin
58.79865200208333;0.14874975208333296;81;0.625;violin
58.79865200208333;0.14874975208333296;85;0.625;violin
58.948651752083336;0.14874975208333296;55;0.625;violin
59.098651502083335;0.14874975208333296;79;0.625;violin
59.098651502083335;0.14874975208333296;83;0.625;violin
59.248651252083334;0.14874975208333296;55;0.625;violin
59.398651002083334;0.14874975208333296;78;0.625;violin
59.398651002083334;0.14874975208333296;81;0.625;violin
59.54865075208333;0.14874975208333296;57;0.625;violin
59.69865050208334;0.14874975208333296;76;0.625;violin
59.69865050208334;0.14874975208333296;79;0.625;violin
59.84865025208333;0.14874975208333296;57;0.625;violin
59.99865000208334;0.14874975208333296;73;0.625;violin
59.99865000208334;0.14874975208333296;76;0.625;violin
60.14864975208333;0.14874975208333296;57;0.625;violin
60.298649502083336;0.14874975208333296;74;0.625;violin
60.44864925208333;0.14874975208333296;61;0.625;violin
60.598649002083334;0.14874975208333296;62;0.625;violin
60.74864875208334;0.14874975208333296;73;0.625;violin
60.89864850208333;0.14874975208333296;74;0.625;violin
61.04864825208334;0.14874975208333296;85;0.625;violin
61.19864800208333;0.14874975208333296;86;0.625;violin
61.34864775208334;0.14874975208333296;79;0.625;violin
61.49864750208333;0.14874975208333296;78;0.625;violin
61.648647252083336;0.14874975208333296;76;0.625;violin
61.79864700208333;0.14874975208333296;74;0.625;violin
61.948646752083334;0.14874975208333296;73;0.625;violin
62.09864650208334;0.0737498770833298;71;0.625;violin
62.24864625208333;0.14874975208333296;83;0.625;violin
62.39864600208334;0.14874975208333296;82;0.625;violin
62.54864575208333;0.14874975208333296;83;0.625;violin
62.69864550208334;0.14874975208333296;81;0.625;violin
62.84864525208333;0.14874975208333296;83;0.625;violin
62.998645002083336;0.14874975208333296;79;0.625;violin
63.14864475208333;0.14874975208333296;83;0.625;violin
63.298644502083334;0.14874975208333296;78;0.625;violin
63.44864425208334;0.14874975208333296;83;0.625;violin
63.59864400208333;0.14874975208333296;76;0.625;violin
63.74864375208334;0.14874975208333296;83;0.625;violin
63.89864350208333;0.14874975208333296;74;0.625;violin
64.04864325208334;0.14874975208333296;83;0.625;violin
64.19864300208333;0.14874975208333296;73;0.625;violin
64.34864275208334;0.14874975208333296;83;0.625;violin
64.49864250208333;0.14874975208333296;71;0.625;violin
64.64864225208333;0.14874975208333296;83;0.625;violin
64.79864200208334;0.14874975208333296;70;0.625;violin
64.94864175208333;0.14874975208333296;83;0.625;violin
65.09864150208334;0.14874975208333296;71;0.625;violin
65.24864125208333;0.14874975208333296;83;0.625;violin
65.39864100208334;0.14874975208333296;74;0.625;violin
65.54864075208333;0.14874975208333296;83;0.625;violin
65.69864050208334;0.0737498770833298;73;0.625;violin
65.84864025208333;0.14874975208333296;82;0.625;violin
65.99864000208333;0.14874975208333296;79;0.625;violin
66.14863975208334;0.14874975208333296;82;0.625;violin
66.29863950208333;0.14874975208333296;78;0.625;violin
66.44863925208334;0.14874975208333296;82;0.625;violin
66.59863900208333;0.14874975208333296;76;0.625;violin
66.74863875208334;0.14874975208333296;82;0.625;violin
66.89863850208333;0.14874975208333296;74;0.625;violin
67.04863825208334;0.14874975208333296;82;0.625;violin
67.19863800208333;0.14874975208333296;73;0.625;violin
67.34863775208333;0.14874975208333296;82;0.625;violin
67.49863750208334;0.14874975208333296;71;0.625;violin
67.64863725208333;0.14874975208333296;82;0.625;violin
67.79863700208334;0.14874975208333296;70;0.625;violin
67.94863675208333;0.14874975208333296;82;0.625;violin
68.09863650208334;0.14874975208333296;71;0.625;violin
68.24863625208333;0.14874975208333296;82;0.625;violin
68.39863600208334;0.14874975208333296;73;0.625;violin
68.54863575208333;0.14874975208333296;82;0.625;violin
68.69863550208333;0.14874975208333296;74;0.625;violin
68.84863525208334;0.14874975208333296;82;0.625;violin
68.99863500208333;0.14874975208333296;76;0.625;violin
69.14863475208334;0.14874975208333296;82;0.625;violin
69.29863450208333;0.0737498770833298;74;0.625;violin
69.44863425208334;0.14874975208333296;83;0.625;violin
69.59863400208333;0.14874975208333296;66;0.625;violin
69.74863375208334;0.14874975208333296;83;0.625;violin
69.89863350208333;0.14874975208333296;64;0.625;violin
70.04863325208333;0.14874975208333296;83;0.625;violin
70.19863300208334;0.14874975208333296;62;0.625;violin
70.34863275208333;0.14874975208333296;83;0.625;violin
70.49863250208334;0.14874975208333296;61;0.625;violin
70.64863225208333;0.14874975208333296;83;0.625;violin
70.79863200208334;0.14874975208333296;59;0.625;violin
70.94863175208333;0.14874975208333296;83;0.625;violin
71.09863150208334;0.0737498770833298;67;0.625;violin
71.24863125208333;0.14874975208333296;86;0.625;violin
71.39863100208333;0.14874975208333296;71;0.625;violin
71.54863075208334;0.14874975208333296;86;0.625;violin
71.69863050208333;0.14874975208333296;69;0.625;violin
71.84863025208334;0.14874975208333296;86;0.625;violin
71.99863000208333;0.14874975208333296;67;0.625;violin
72.14862975208334;0.14874975208333296;86;0.625;violin
72.29862950208333;0.14874975208333296;66;0.625;violin
72.44862925208334;0.14874975208333296;86;0.625;violin
72.59862900208333;0.14874975208333296;67;0.625;violin
72.74862875208333;0.14874975208333296;86;0.625;violin
72.89862850208334;0.14874975208333296;66;0.625;violin
73.04862825208333;0.14874975208333296;86;0.625;violin
73.19862800208334;0.14874975208333296;71;0.625;violin
73.34862775208333;0.14874975208333296;86;0.625;violin
73.49862750208334;0.14874975208333296;67;0.625;violin
73.64862725208333;0.14874975208333296;86;0.625;violin
73.79862700208334;0.14874975208333296;66;0.625;violin
73.94862675208333;0.14874975208333296;86;0.625;violin
74.09862650208333;0.14874975208333296;65;0.625;violin
74.24862625208334;0.14874975208333296;86;0.625;violin
74.39862600208333;0.14874975208333296;66;0.625;violin
74.54862575208334;0.14874975208333296;86;0.625;violin
74.69862550208333;0.14874975208333296;65;0.625;violin
74.84862525208334;0.14874975208333296;86;0.625;violin
74.99862500208333;0.14874975208333296;74;0.625;violin
75.14862475208334;0.14874975208333296;86;0.625;violin
75.29862450208333;0.14874975208333296;73;0.625;violin
75.44862425208333;0.14874975208333296;86;0.625;violin
75.59862400208334;0.14874975208333296;71;0.625;violin
75.74862375208333;0.14874975208333296;86;0.625;violin
75.89862350208334;0.14874975208333296;67;0.625;violin
76.04862325208333;0.14874975208333296;86;0.625;violin
76.19862300208334;0.14874975208333296;65;0.625;violin
76.34862275208333;0.14874975208333296;86;0.625;violin
76.49862250208334;0.14874975208333296;66;0.625;violin
76.64862225208333;0.14874975208333296;85;0.625;violin
76.79862200208333;0.14874975208333296;70;0.625;violin
76.94862175208334;0.14874975208333296;85;0.625;violin
77.09862150208333;0.14874975208333296;67;0.625;violin
77.24862125208334;0.14874975208333296;85;0.625;violin
77.39862100208333;0.14874975208333296;66;0.625;violin
77.54862075208334;0.14874975208333296;85;0.625;violin
77.69862050208333;0.14874975208333296;66;0.625;violin
77.84862025208334;0.14874975208333296;85;0.625;violin
77.99862000208333;0.14874975208333296;66;0.625;violin
78.14861975208333;0.14874975208333296;85;0.625;violin
78.29861950208334;0.14874975208333296;67;0.625;violin
78.44861925208333;0.14874975208333296;83;0.625;violin
78.59861900208334;0.14874975208333296;71;0.625;violin
78.74861875208333;0.14874975208333296;86;0.625;violin
78.89861850208334;0.14874975208333296;69;0.625;violin
79.04861825208333;0.14874975208333296;85;0.625;violin
79.19861800208334;0.14874975208333296;67;0.625;violin
79.34861775208333;0.14874975208333296;83;0.625;violin
79.49861750208333;0.14874975208333296;66;0.625;violin
79.64861725208334;0.14874975208333296;83;0.625;violin
79.79861700208333;0.14874975208333296;65;0.625;violin
79.94861675208334;0.14874975208333296;83;0.625;violin
80.09861650208333;0.14874975208333296;66;0.625;violin
80.24861625208334;0.14874975208333296;82;0.625;violin
80.39861600208333;0.14874975208333296;78;0.625;violin
80.54861575208334;0.14874975208333296;78;0.625;violin
80.69861550208333;0.14874975208333296;77;0.625;violin
80.84861525208333;0.14874975208333296;80;0.625;violin
80.99861500208334;0.14874975208333296;76;0.625;violin
81.14861475208333;0.14874975208333296;82;0.625;violin
81.29861450208334;0.14874975208333296;74;0.625;violin
81.44861425208333;0.14874975208333296;83;0.625;violin
81.59861400208334;0.14874975208333296;70;0.625;violin
81.74861375208333;0.14874975208333296;85;0.625;violin
81.89861350208334;0.14874975208333296;71;0.625;violin
82.04861325208333;0.14874975208333296;86;0.625;violin
82.19861300208333;0.14874975208333296;67;0.625;violin
82.34861275208334;0.14874975208333296;83;0.625;violin
82.49861250208333;0.14874975208333296;67;0.625;violin
82.64861225208334;0.14874975208333296;81;0.625;violin
82.79861200208333;0.14874975208333296;67;0.625;violin
82.94861175208334;0.14874975208333296;79;0.625;violin
83.09861150208333;0.14874975208333296;67;0.625;violin
83.24861125208334;0.14874975208333296;78;0.625;violin
83.39861100208333;0.14874975208333296;67;0.625;violin
83.54861075208333;0.14874975208333296;77;0.625;violin
83.69861050208334;0.14874975208333296;66;0.625;violin
83.84861025208333;0.14874975208333296;78;0.625;violin
83.99861000208334;0.14874975208333296;66;0.625;violin
84.14860975208333;0.14874975208333296;82;0.625;violin
84.29860950208334;0.14874975208333296;67;0.625;violin
84.44860925208333;0.14874975208333296;77;0.625;violin
84.59860900208334;0.14874975208333296;66;0.625;violin
84.74860875208333;0.14874975208333296;78;0.625;violin
84.89860850208333;0.14874975208333296;66;0.625;violin
85.04860825208334;0.14874975208333296;82;0.625;violin
85.19860800208333;0.14874975208333296;67;0.625;violin
85.34860775208334;0.14874975208333296;77;0.625;violin
85.49860750208333;0.14874975208333296;66;0.625;violin
85.64860725208334;0.14874975208333296;78;0.625;violin
85.79860700208333;0.14874975208333296;66;0.625;violin
85.94860675208334;0.14874975208333296;82;0.625;violin
86.09860650208333;0.14874975208333296;66;0.625;violin
86.24860625208333;0.14874975208333296;85;0.625;violin
86.39860600208334;0.14874975208333296;66;0.625;violin
86.54860575208333;0.14874975208333296;90;0.625;violin
86.69860550208334;0.14874975208333296;66;0.625;violin
86.84860525208333;0.14874975208333296;85;0.625;violin
86.99860500208334;0.14874975208333296;66;0.625;violin
87.14860475208333;0.14874975208333296;82;0.625;violin
87.29860450208334;0.8987485020833361;66;0.625;violin
87.29860450208334;0.8987485020833361;78;0.625;violin
89.99735000416668;0.14874975208333296;74;0.625;violin
90.14734975416667;0.14874975208333296;81;0.625;violin
90.29734950416668;0.14874975208333296;80;0.625;violin
90.44734925416667;0.14874975208333296;81;0.625;violin
90.59734900416667;0.14874975208333296;79;0.625;violin
90.74734875416667;0.14874975208333296;81;0.625;violin
90.89734850416667;0.14874975208333296;77;0.625;violin
91.04734825416666;0.14874975208333296;81;0.625;violin
91.19734800416667;0.14874975208333296;78;0.625;violin
91.34734775416668;0.14874975208333296;81;0.625;violin
91.49734750416667;0.14874975208333296;76;0.625;violin
91.64734725416668;0.14874975208333296;81;0.625;violin
91.79734700416667;0.14874975208333296;74;0.625;violin
91.94734675416667;0.14874975208333296;81;0.625;violin
92.09734650416667;0.14874975208333296;69;0.625;violin
92.24734625416667;0.14874975208333296;81;0.625;violin
92.39734600416666;0.14874975208333296;67;0.625;violin
92.54734575416667;0.14874975208333296;81;0.625;violin
92.69734550416668;0.14874975208333296;66;0.625;violin
92.84734525416667;0.14874975208333296;81;0.625;violin
92.99734500416668;0.14874975208333296;64;0.625;violin
93.14734475416667;0.14874975208333296;81;0.625;violin
93.29734450416667;0.14874975208333296;62;0.625;violin
93.44734425416667;0.14874975208333296;81;0.625;violin
93.59734400416667;0.14874975208333296;61;0.625;violin
93.74734375416666;0.14874975208333296;81;0.625;violin
93.89734350416667;0.14874975208333296;80;0.625;violin
94.04734325416668;0.14874975208333296;81;0.625;violin
94.19734300416667;0.14874975208333296;79;0.625;violin
94.34734275416668;0.14874975208333296;81;0.625;violin
94.49734250416667;0.14874975208333296;75;0.625;violin
94.64734225416667;0.14874975208333296;81;0.625;violin
94.79734200416667;0.14874975208333296;76;0.625;violin
94.94734175416667;0.14874975208333296;81;0.625;violin
95.09734150416666;0.14874975208333296;74;0.625;violin
95.24734125416667;0.14874975208333296;81;0.625;violin
95.39734100416668;0.14874975208333296;73;0.625;violin
95.54734075416667;0.14874975208333296;81;0.625;violin
95.69734050416668;0.14874975208333296;67;0.625;violin
95.84734025416667;0.14874975208333296;81;0.625;violin
95.99734000416667;0.14874975208333296;66;0.625;violin
96.14733975416667;0.14874975208333296;81;0.625;violin
96.29733950416667;0.14874975208333296;64;0.625;violin
96.44733925416666;0.14874975208333296;81;0.625;violin
96.59733900416667;0.14874975208333296;69;0.625;violin
96.74733875416668;0.14874975208333296;81;0.625;violin
96.89733850416667;0.14874975208333296;67;0.625;violin
97.04733825416668;0.14874975208333296;81;0.625;violin
97.19733800416667;0.14874975208333296;66;0.625;violin
97.34733775416667;0.14874975208333296;86;0.625;violin
97.49733750416667;0.14874975208333296;81;0.625;violin
97.64733725416667;0.14874975208333296;86;0.625;violin
97.79733700416666;0.14874975208333296;80;0.625;violin
97.94733675416667;0.14874975208333296;86;0.625;violin
98.09733650416666;0.14874975208334718;81;0.625;violin
98.24733625416667;0.14874975208333296;86;0.625;violin
98.39733600416668;0.14874975208333296;78;0.625;violin
98.54733575416667;0.14874975208333296;86;0.625;violin
98.69733550416667;0.14874975208333296;74;0.625;violin
98.84733525416667;0.14874975208333296;85;0.625;violin
98.99733500416667;0.14874975208333296;79;0.625;violin
99.14733475416668;0.14874975208331875;85;0.625;violin
99.29733450416667;0.14874975208333296;79;0.625;violin
99.44733425416666;0.14874975208334718;83;0.625;violin
99.59733400416667;0.14874975208333296;67;0.625;violin
99.74733375416668;0.14874975208333296;83;0.625;violin
99.89733350416667;0.14874975208333296;64;0.625;violin
100.04733325416667;0.14874975208333296;83;0.625;violin
100.19733300416667;0.14874975208333296;61;0.625;violin
100.34733275416667;0.14874975208333296;83;0.625;violin
100.49733250416668;0.14874975208331875;73;0.625;violin
100.64733225416667;0.14874975208333296;83;0.625;violin
100.79733200416666;0.14874975208334718;78;0.625;violin
100.94733175416667;0.14874975208333296;83;0.625;violin
101.09733150416668;0.14874975208333296;78;0.625;violin
101.24733125416667;0.14874975208333296;81;0.625;violin
101.39733100416667;0.14874975208333296;66;0.625;violin
101.54733075416667;0.14874975208333296;81;0.625;violin
101.69733050416667;0.14874975208333296;62;0.625;violin
101.84733025416668;0.14874975208331875;81;0.625;violin
101.99733000416667;0.14874975208333296;59;0.625;violin
102.14732975416666;0.14874975208334718;81;0.625;violin
102.29732950416667;0.14874975208333296;71;0.625;violin
102.44732925416668;0.14874975208333296;81;0.625;violin
102.59732900416667;0.14874975208333296;76;0.625;violin
102.74732875416667;0.14874975208333296;81;0.625;violin
102.89732850416667;0.14874975208333296;76;0.625;violin
103.04732825416667;0.14874975208333296;79;0.625;violin
103.19732800416668;0.14874975208331875;64;0.625;violin
103.34732775416667;0.14874975208333296;79;0.625;violin
103.49732750416666;0.14874975208334718;61;0.625;violin
103.64732725416667;0.14874975208333296;79;0.625;violin
103.79732700416668;0.14874975208333296;57;0.625;violin
103.94732675416667;0.14874975208333296;79;0.625;violin
104.09732650416667;0.14874975208333296;69;0.625;violin
104.24732625416667;0.14874975208333296;79;0.625;violin
104.39732600416667;0.14874975208333296;74;0.625;violin
104.54732575416668;0.14874975208331875;78;0.625;violin
104.69732550416667;0.14874975208333296;81;0.625;violin
104.69732550416667;0.14874975208333296;90;0.625;violin
104.84732525416668;0.14874975208333296;62;0.625;violin
104.99732500416667;0.14874975208333296;80;0.625;violin
104.99732500416667;0.14874975208333296;89;0.625;violin
105.14732475416668;0.14874975208333296;62;0.625;violin
105.29732450416667;0.14874975208333296;81;0.625;violin
105.29732450416667;0.14874975208333296;90;0.625;violin
105.44732425416667;0.14874975208333296;62;0.625;violin
105.59732400416667;0.14874975208333296;79;0.625;violin
105.59732400416667;0.14874975208333296;88;0.625;violin
105.74732375416667;0.14874975208333296;62;0.625;violin
105.89732350416668;0.14874975208331875;78;0.625;violin
105.89732350416668;0.14874975208331875;86;0.625;violin
106.04732325416667;0.14874975208333296;62;0.625;violin
106.19732300416666;0.14874975208334718;76;0.625;violin
106.19732300416666;0.14874975208334718;85;0.625;violin
106.34732275416667;0.14874975208333296;69;0.625;violin
106.49732250416668;0.14874975208333296;57;0.625;violin
106.49732250416668;0.14874975208333296;73;0.625;violin
106.64732225416667;0.14874975208333296;69;0.625;violin
106.79732200416667;0.14874975208333296;59;0.625;violin
106.79732200416667;0.14874975208333296;74;0.625;violin
106.94732175416667;0.14874975208333296;69;0.625;violin
107.09732150416667;0.14874975208333296;61;0.625;violin
107.09732150416667;0.14874975208333296;76;0.625;violin
107.24732125416668;0.14874975208331875;69;0.625;violin
107.39732100416667;0.14874975208333296;62;0.625;violin
107.39732100416667;0.14874975208333296;78;0.625;violin
107.54732075416666;0.14874975208334718;69;0.625;violin
107.69732050416667;0.14874975208333296;64;0.625;violin
107.69732050416667;0.14874975208333296;79;0.625;violin
107.84732025416668;0.14874975208333296;69;0.625;violin
107.99732000416667;0.14874975208333296;62;0.625;violin
107.99732000416667;0.14874975208333296;78;0.625;violin
108.14731975416667;0.14874975208333296;62;0.625;violin
108.29731950416667;0.14874975208334718;81;0.625;violin
108.29731950416667;0.14874975208334718;90;0.625;violin
108.44731925416667;0.14874975208333296;62;0.625;violin
108.59731900416668;0.14874975208331875;80;0.625;violin
108.59731900416668;0.14874975208331875;89;0.625;violin
108.74731875416667;0.14874975208333296;62;0.625;violin
108.89731850416666;0.14874975208334718;81;0.625;violin
108.89731850416666;0.14874975208334718;90;0.625;violin
109.04731825416667;0.14874975208333296;62;0.625;violin
109.19731800416668;0.14874975208333296;79;0.625;violin
109.19731800416668;0.14874975208333296;88;0.625;violin
109.34731775416667;0.14874975208333296;62;0.625;violin
109.49731750416667;0.14874975208333296;78;0.625;violin
109.49731750416667;0.14874975208333296;86;0.625;violin
109.64731725416667;0.14874975208334718;62;0.625;violin
109.79731700416667;0.14874975208333296;76;0.625;violin
109.79731700416667;0.14874975208333296;85;0.625;violin
109.94731675416668;0.14874975208331875;69;0.625;violin
110.09731650416667;0.14874975208333296;57;0.625;violin
110.09731650416667;0.14874975208333296;73;0.625;violin
110.24731625416666;0.14874975208334718;69;0.625;violin
110.39731600416667;0.14874975208333296;59;0.625;violin
110.39731600416667;0.14874975208333296;74;0.625;violin
110.54731575416668;0.14874975208333296;69;0.625;violin
110.69731550416667;0.14874975208333296;61;0.625;violin
110.69731550416667;0.14874975208333296;76;0.625;violin
110.84731525416667;0.14874975208333296;69;0.625;violin
110.99731500416667;0.14874975208334718;62;0.625;violin
110.99731500416667;0.14874975208334718;78;0.625;violin
111.14731475416667;0.14874975208333296;69;0.625;violin
111.29731450416668;0.14874975208331875;64;0.625;violin
111.29731450416668;0.14874975208331875;79;0.625;violin
111.44731425416667;0.14874975208333296;69;0.625;violin
111.59731400416666;0.14874975208334718;62;0.625;violin
111.59731400416666;0.14874975208334718;78;0.625;violin
111.74731375416667;0.14874975208333296;62;0.625;violin
111.89731350416668;0.14874975208333296;78;0.625;violin
111.89731350416668;0.14874975208333296;93;0.625;violin
112.04731325416667;0.14874975208333296;62;0.625;violin
112.19731300416667;0.14874975208333296;76;0.625;violin
112.19731300416667;0.14874975208333296;91;0.625;violin
112.34731275416667;0.14874975208334718;62;0.625;violin
112.49731250416667;0.14874975208333296;74;0.625;violin
112.49731250416667;0.14874975208333296;90;0.625;violin
112.64731225416668;0.14874975208331875;62;0.625;violin
112.79731200416667;0.14874975208333296;76;0.625;violin
112.79731200416667;0.14874975208333296;91;0.625;violin
112.94731175416666;0.14874975208334718;62;0.625;violin
113.09731150416667;0.14874975208333296;78;0.625;violin
113.09731150416667;0.14874975208333296;93;0.625;violin
113.24731125416668;0.14874975208333296;62;0.625;violin
113.39731100416667;0.14874975208333296;79;0.625;violin
113.54731075416667;0.14874975208333296;95;0.625;violin
113.69731050416667;0.14874975208334718;74;0.625;violin
113.84731025416667;0.14874975208333296;95;0.625;violin
113.99731000416668;0.14874975208331875;71;0.625;violin
114.14730975416667;0.14874975208333296;95;0.625;violin
114.29730950416666;0.14874975208334718;67;0.625;violin
114.44730925416667;0.14874975208333296;95;0.625;violin
114.59730900416668;0.14874975208333296;71;0.625;violin
114.74730875416667;0.14874975208333296;98;0.625;violin
114.89730850416667;0.14874975208333296;68;0.625;violin
115.04730825416667;0.14874975208334718;98;0.625;violin
115.19730800416667;0.14874975208333296;69;0.625;violin
115.34730775416668;0.14874975208331875;97;0.625;violin
115.49730750416667;0.14874975208333296;71;0.625;violin
115.64730725416666;0.14874975208334718;98;0.625;violin
115.79730700416667;0.14874975208333296;73;0.625;violin
115.94730675416668;0.14874975208333296;100;0.625;violin
116.09730650416667;0.14874975208333296;74;0.625;violin
116.24730625416667;0.14874975208333296;102;0.625;violin
116.39730600416667;0.14874975208334718;71;0.625;violin
116.54730575416667;0.14874975208333296;98;0.625;violin
116.69730550416668;0.14874975208331875;67;0.625;violin
116.84730525416667;0.14874975208333296;95;0.625;violin
116.99730500416666;0.14874975208334718;66;0.625;violin
117.14730475416667;0.14874975208333296;93;0.625;violin
117.29730450416668;0.14874975208333296;69;0.625;violin
117.44730425416667;0.14874975208333296;90;0.625;violin
117.59730400416667;0.14874975208333296;62;0.625;violin
117.74730375416667;0.14874975208334718;90;0.625;violin
117.89730350416667;0.14874975208333296;64;0.625;violin
118.04730325416668;0.14874975208331875;91;0.625;violin
118.19730300416667;0.14874975208333296;67;0.625;violin
118.34730275416666;0.14874975208334718;88;0.625;violin
118.49730250416667;0.14874975208333296;61;0.625;violin
118.64730225416668;0.14874975208333296;88;0.625;violin
118.79730200416667;0.14874975208333296;62;0.625;violin
118.94730175416667;0.14874975208333296;86;0.625;violin
118.94730175416667;0.14874975208333296;90;0.625;violin
119.09730150416667;0.14874975208334718;62;0.625;violin
119.24730125416667;0.14874975208333296;85;0.625;violin
119.24730125416667;0.14874975208333296;88;0.625;violin
119.39730100416668;0.14874975208331875;62;0.625;violin
119.54730075416667;0.14874975208333296;83;0.625;violin
119.54730075416667;0.14874975208333296;86;0.625;violin
119.69730050416666;0.14874975208334718;62;0.625;violin
119.84730025416667;0.14874975208333296;81;0.625;violin
119.84730025416667;0.14874975208333296;85;0.625;violin
119.99730000416668;0.14874975208333296;62;0.625;violin
120.14729975416667;0.14874975208333296;79;0.625;violin
120.14729975416667;0.14874975208333296;83;0.625;violin
120.29729950416667;0.14874975208333296;62;0.625;violin
120.44729925416667;0.14874975208334718;78;0.625;violin
120.44729925416667;0.14874975208334718;81;0.625;violin
120.59729900416667;0.14874975208333296;83;0.625;violin
120.59729900416667;0.14874975208333296;86;0.625;violin
120.74729875416668;0.14874975208331875;55;0.625;violin
120.89729850416667;0.14874975208333296;81;0.625;violin
120.89729850416667;0.14874975208333296;85;0.625;violin
121.04729825416666;0.14874975208334718;55;0.625;violin
121.19729800416667;0.14874975208333296;79;0.625;violin
121.19729800416667;0.14874975208333296;83;0.625;violin
121.34729775416668;0.14874975208333296;55;0.625;violin
121.49729750416667;0.14874975208333296;78;0.625;violin
121.49729750416667;0.14874975208333296;81;0.625;violin
121.64729725416667;0.14874975208333296;57;0.625;violin
121.79729700416667;0.14874975208334718;76;0.625;violin
121.79729700416667;0.14874975208334718;79;0.625;violin
121.94729675416667;0.14874975208333296;57;0.625;violin
122.09729650416668;0.14874975208331875;73;0.625;violin
122.09729650416668;0.14874975208331875;76;0.625;violin
122.24729625416667;0.14874975208333296;57;0.625;violin
122.39729600416666;0.14874975208334718;74;0.625;violin
122.54729575416667;0.14874975208333296;61;0.625;violin
122.69729550416668;0.14874975208331875;62;0.625;violin
122.84729525416668;0.14874975208331875;73;0.625;violin
122.99729500416667;0.14874975208333296;74;0.625;violin
123.14729475416667;0.14874975208334718;85;0.625;violin
123.29729450416667;0.14874975208333296;86;0.625;violin
123.44729425416668;0.14874975208331875;79;0.625;violin
123.59729400416667;0.14874975208333296;78;0.625;violin
123.74729375416666;0.14874975208334718;76;0.625;violin
123.89729350416667;0.14874975208333296;74;0.625;violin
124.04729325416668;0.14874975208331875;73;0.625;violin
124.19729300416668;0.14874975208331875;71;0.625;violin
124.34729275416667;0.14874975208333296;59;0.625;violin
124.49729250416667;0.14874975208334718;58;0.625;violin
124.64729225416667;0.14874975208333296;59;0.625;violin
124.79729200416668;0.14874975208331875;83;0.625;violin
124.94729175416667;0.14874975208333296;59;0.625;violin
125.09729150416666;0.14874975208334718;82;0.625;violin
125.24729125416667;0.14874975208333296;59;0.625;violin
125.39729100416668;0.14874975208333296;81;0.625;violin
125.54729075416668;0.14874975208331875;59;0.625;violin
125.69729050416667;0.14874975208333296;80;0.625;violin
125.84729025416667;0.14874975208334718;59;0.625;violin
125.99729000416667;0.14874975208333296;79;0.625;violin
126.14728975416668;0.14874975208331875;59;0.625;violin
126.29728950416667;0.14874975208333296;78;0.625;violin
126.44728925416666;0.14874975208334718;59;0.625;violin
126.59728900416667;0.14874975208333296;76;0.625;violin
126.74728875416668;0.14874975208333296;59;0.625;violin
126.89728850416668;0.14874975208331875;75;0.625;violin
127.04728825416667;0.14874975208333296;59;0.625;violin
127.19728800416667;0.14874975208334718;74;0.625;violin
127.34728775416667;0.14874975208333296;59;0.625;violin
127.49728750416668;0.14874975208331875;73;0.625;violin
127.64728725416667;0.14874975208333296;59;0.625;violin
127.79728700416666;0.14874975208334718;71;0.625;violin
127.94728675416667;0.14874975208334718;83;0.625;violin
128.09728650416668;0.14874975208334718;82;0.625;violin
128.24728625416668;0.14874975208331875;83;0.625;violin
128.3972860041667;0.14874975208331875;59;0.625;violin
128.54728575416667;0.14874975208334718;83;0.625;violin
128.69728550416667;0.14874975208331875;60;0.625;violin
128.84728525416668;0.14874975208331875;83;0.625;violin
128.99728500416666;0.14874975208334718;61;0.625;violin
129.14728475416666;0.14874975208334718;83;0.625;violin
129.29728450416667;0.14874975208334718;62;0.625;violin
129.44728425416668;0.14874975208334718;83;0.625;violin
129.59728400416668;0.14874975208331875;63;0.625;violin
129.7472837541667;0.14874975208331875;83;0.625;violin
129.89728350416667;0.14874975208334718;64;0.625;violin
130.04728325416667;0.14874975208331875;83;0.625;violin
130.19728300416668;0.14874975208331875;66;0.625;violin
130.34728275416666;0.14874975208334718;83;0.625;violin
130.49728250416666;0.14874975208334718;69;0.625;violin
130.64728225416667;0.14874975208334718;83;0.625;violin
130.79728200416668;0.14874975208334718;67;0.625;violin
130.94728175416668;0.14874975208331875;83;0.625;violin
131.0972815041667;0.14874975208331875;66;0.625;violin
131.24728125416667;0.14874975208334718;83;0.625;violin
131.39728100416667;0.14874975208331875;88;0.625;violin
131.54728075416668;0.14874975208331875;64;0.625;violin
131.69728050416666;0.14874975208334718;63;0.625;violin
131.84728025416666;0.14874975208334718;64;0.625;violin
131.99728000416667;0.14874975208334718;88;0.625;violin
132.14727975416668;0.14874975208334718;64;0.625;violin
132.29727950416668;0.14874975208331875;87;0.625;violin
132.4472792541667;0.14874975208331875;64;0.625;violin
132.59727900416667;0.14874975208334718;86;0.625;violin
132.74727875416667;0.14874975208331875;64;0.625;violin
132.89727850416668;0.14874975208331875;85;0.625;violin
133.04727825416666;0.14874975208334718;64;0.625;violin
133.19727800416666;0.14874975208334718;84;0.625;violin
133.34727775416667;0.14874975208334718;64;0.625;violin
133.49727750416668;0.14874975208334718;83;0.625;violin
133.64727725416668;0.14874975208331875;64;0.625;violin
133.7972770041667;0.14874975208331875;81;0.625;violin
133.94727675416667;0.14874975208334718;64;0.625;violin
134.09727650416667;0.14874975208331875;80;0.625;violin
134.24727625416668;0.14874975208331875;64;0.625;violin
134.39727600416666;0.14874975208334718;79;0.625;violin
134.54727575416666;0.14874975208334718;64;0.625;violin
134.69727550416667;0.14874975208334718;78;0.625;violin
134.84727525416668;0.14874975208334718;64;0.625;violin
134.99727500416668;0.14874975208331875;76;0.625;violin
135.1472747541667;0.14874975208331875;88;0.625;violin
135.29727450416667;0.14874975208334718;87;0.625;violin
135.44727425416667;0.14874975208331875;88;0.625;violin
135.59727400416668;0.14874975208331875;64;0.625;violin
135.74727375416666;0.14874975208334718;88;0.625;violin
135.89727350416666;0.14874975208334718;65;0.625;violin
136.04727325416667;0.14874975208334718;88;0.625;violin
136.19727300416668;0.14874975208334718;66;0.625;violin
136.34727275416668;0.14874975208331875;88;0.625;violin
136.4972725041667;0.14874975208331875;67;0.625;violin
136.64727225416667;0.14874975208334718;88;0.625;violin
136.79727200416667;0.14874975208331875;68;0.625;violin
136.94727175416668;0.14874975208331875;88;0.625;violin
137.09727150416666;0.14874975208334718;69;0.625;violin
137.24727125416666;0.14874975208334718;88;0.625;violin
137.39727100416667;0.14874975208334718;71;0.625;violin
137.54727075416668;0.14874975208334718;88;0.625;violin
137.69727050416668;0.14874975208331875;74;0.625;violin
137.8472702541667;0.14874975208331875;88;0.625;violin
137.99727000416667;0.14874975208334718;73;0.625;violin
138.14726975416667;0.14874975208331875;88;0.625;violin
138.29726950416668;0.14874975208331875;71;0.625;violin
138.44726925416666;0.14874975208334718;88;0.625;violin
138.59726900416666;0.07374987708334402;81;0.625;violin
138.74726875416667;0.14874975208334718;69;0.625;violin
138.89726850416668;0.14874975208334718;68;0.625;violin
139.04726825416668;0.14874975208331875;69;0.625;violin
139.1972680041667;0.14874975208331875;81;0.625;violin
139.34726775416667;0.14874975208334718;69;0.625;violin
139.49726750416667;0.14874975208331875;81;0.625;violin
139.64726725416668;0.14874975208331875;69;0.625;violin
139.79726700416666;0.14874975208334718;80;0.625;violin
139.94726675416666;0.14874975208334718;69;0.625;violin
140.09726650416667;0.14874975208334718;79;0.625;violin
140.24726625416668;0.14874975208334718;69;0.625;violin
140.39726600416668;0.14874975208331875;78;0.625;violin
140.5472657541667;0.14874975208331875;62;0.625;violin
140.69726550416667;0.14874975208334718;61;0.625;violin
140.84726525416667;0.14874975208331875;62;0.625;violin
140.99726500416668;0.14874975208331875;86;0.625;violin
141.14726475416666;0.14874975208334718;62;0.625;violin
141.29726450416666;0.14874975208334718;86;0.625;violin
141.44726425416667;0.14874975208334718;64;0.625;violin
141.59726400416668;0.14874975208334718;86;0.625;violin
141.74726375416668;0.14874975208331875;65;0.625;violin
141.8972635041667;0.14874975208331875;86;0.625;violin
142.04726325416667;0.14874975208334718;66;0.625;violin
142.19726300416667;0.0737498770833156;79;0.625;violin
142.34726275416668;0.14874975208331875;67;0.625;violin
142.49726250416666;0.14874975208334718;66;0.625;violin
142.64726225416666;0.14874975208334718;67;0.625;violin
142.79726200416667;0.14874975208334718;79;0.625;violin
142.94726175416668;0.14874975208334718;67;0.625;violin
143.09726150416668;0.14874975208331875;79;0.625;violin
143.2472612541667;0.14874975208331875;67;0.625;violin
143.39726100416667;0.14874975208334718;78;0.625;violin
143.54726075416667;0.14874975208331875;67;0.625;violin
143.69726050416668;0.14874975208331875;77;0.625;violin
143.84726025416666;0.14874975208334718;67;0.625;violin
143.99726000416666;0.14874975208334718;76;0.625;violin
144.14725975416667;0.14874975208334718;60;0.625;violin
144.29725950416668;0.14874975208334718;59;0.625;violin
144.44725925416668;0.14874975208331875;60;0.625;violin
144.5972590041667;0.14874975208331875;84;0.625;violin
144.74725875416667;0.14874975208334718;60;0.625;violin
144.89725850416667;0.14874975208331875;84;0.625;violin
145.04725825416668;0.14874975208331875;62;0.625;violin
145.19725800416666;0.14874975208334718;84;0.625;violin
145.34725775416666;0.14874975208334718;63;0.625;violin
145.49725750416667;0.14874975208334718;84;0.625;violin
145.64725725416668;0.14874975208334718;64;0.625;violin
145.79725700416668;0.14874975208331875;77;0.625;violin
145.9472567541667;0.14874975208331875;65;0.625;violin
146.09725650416667;0.14874975208334718;64;0.625;violin
146.24725625416667;0.14874975208331875;65;0.625;violin
146.39725600416668;0.14874975208331875;84;0.625;violin
146.54725575416666;0.14874975208334718;65;0.625;violin
146.69725550416666;0.14874975208334718;86;0.625;violin
146.84725525416667;0.14874975208334718;65;0.625;violin
146.99725500416668;0.14874975208334718;85;0.625;violin
147.14725475416668;0.14874975208331875;65;0.625;violin
147.2972545041667;0.14874975208331875;84;0.625;violin
147.44725425416667;0.14874975208334718;65;0.625;violin
147.59725400416667;0.14874975208331875;83;0.625;violin
147.74725375416668;0.14874975208331875;65;0.625;violin
147.89725350416666;0.14874975208334718;82;0.625;violin
148.04725325416666;0.14874975208334718;65;0.625;violin
148.19725300416667;0.14874975208334718;81;0.625;violin
148.34725275416668;0.14874975208334718;65;0.625;violin
148.49725250416668;0.14874975208331875;80;0.625;violin
148.6472522541667;0.14874975208331875;65;0.625;violin
148.79725200416667;0.14874975208334718;79;0.625;violin
148.94725175416667;0.14874975208331875;65;0.625;violin
149.09725150416668;0.14874975208331875;76;0.625;violin
149.24725125416666;0.14874975208334718;65;0.625;violin
149.39725100416666;0.14874975208334718;77;0.625;violin
149.54725075416667;0.14874975208334718;65;0.625;violin
149.69725050416668;0.14874975208334718;64;0.625;violin
149.84725025416668;0.14874975208331875;65;0.625;violin
149.9972500041667;0.14874975208331875;65;0.625;violin
150.14724975416667;0.14874975208334718;65;0.625;violin
150.29724950416667;0.14874975208331875;64;0.625;violin
150.44724925416668;0.14874975208331875;65;0.625;violin
150.59724900416666;0.14874975208334718;63;0.625;violin
150.74724875416666;0.14874975208334718;65;0.625;violin
150.89724850416667;0.14874975208334718;62;0.625;violin
151.04724825416667;0.14874975208334718;65;0.625;violin
151.19724800416668;0.14874975208331875;61;0.625;violin
151.3472477541667;0.14874975208331875;65;0.625;violin
151.49724750416667;0.14874975208334718;60;0.625;violin
151.64724725416667;0.14874975208331875;65;0.625;violin
151.79724700416668;0.14874975208331875;59;0.625;violin
151.94724675416666;0.14874975208334718;65;0.625;violin
152.09724650416666;0.14874975208334718;58;0.625;violin
152.24724625416667;0.14874975208334718;65;0.625;violin
152.39724600416667;0.14874975208334718;59;0.625;violin
152.54724575416668;0.14874975208331875;65;0.625;violin
152.6972455041667;0.14874975208331875;60;0.625;violin
152.84724525416667;0.14874975208334718;64;0.625;violin
152.99724500416667;0.14874975208331875;61;0.625;violin
153.14724475416668;0.14874975208331875;64;0.625;violin
153.29724450416666;0.14874975208334718;62;0.625;violin
153.44724425416666;0.14874975208334718;65;0.625;violin
153.59724400416667;0.14874975208334718;63;0.625;violin
153.74724375416667;0.14874975208334718;66;0.625;violin
153.89724350416668;0.14874975208331875;64;0.625;violin
154.0472432541667;0.14874975208331875;67;0.625;violin
154.19724300416667;0.14874975208331875;65;0.625;violin
154.34724275416667;0.14874975208331875;68;0.625;violin
154.49724250416668;0.14874975208331875;66;0.625;violin
154.64724225416666;0.14874975208334718;69;0.625;violin
154.79724200416666;0.14874975208334718;67;0.625;violin
154.94724175416667;0.14874975208334718;70;0.625;violin
155.09724150416667;0.14874975208334718;68;0.625;violin
155.24724125416668;0.14874975208331875;71;0.625;violin
155.3972410041667;0.14874975208331875;69;0.625;violin
155.54724075416667;0.14874975208331875;72;0.625;violin
155.69724050416667;0.14874975208331875;70;0.625;violin
155.84724025416668;0.14874975208331875;73;0.625;violin
155.99724000416666;0.14874975208334718;71;0.625;violin
156.14723975416666;0.14874975208334718;74;0.625;violin
156.29723950416667;0.14874975208334718;72;0.625;violin
156.44723925416667;0.14874975208334718;75;0.625;violin
156.59723900416668;0.14874975208331875;73;0.625;violin
156.7472387541667;0.14874975208331875;76;0.625;violin
156.89723850416667;0.14874975208331875;74;0.625;violin
157.04723825416667;0.14874975208331875;77;0.625;violin
157.19723800416668;0.14874975208331875;75;0.625;violin
157.34723775416666;0.14874975208334718;78;0.625;violin
157.49723750416666;0.14874975208334718;76;0.625;violin
157.64723725416667;0.14874975208334718;79;0.625;violin
157.79723700416667;0.14874975208334718;77;0.625;violin
157.94723675416668;0.14874975208331875;80;0.625;violin
158.0972365041667;0.14874975208331875;78;0.625;violin
158.24723625416667;0.14874975208331875;81;0.625;violin
158.39723600416667;0.14874975208331875;79;0.625;violin
158.54723575416668;0.14874975208331875;82;0.625;violin
158.69723550416666;0.14874975208334718;80;0.625;violin
158.84723525416666;0.14874975208334718;83;0.625;violin
158.99723500416667;0.14874975208334718;81;0.625;violin
159.14723475416667;0.14874975208334718;84;0.625;violin
159.29723450416668;0.14874975208331875;82;0.625;violin
159.4472342541667;0.14874975208331875;85;0.625;violin
159.59723400416667;0.14874975208331875;82;0.625;violin
159.74723375416667;0.0737498770833156;79;0.625;violin
159.89723350416668;0.0737498770833156;76;0.625;violin
160.04723325416666;0.14874975208334718;84;0.625;violin
160.19723300416666;0.14874975208334718;81;0.625;violin
160.34723275416667;0.07374987708334402;78;0.625;violin
160.49723250416667;0.07374987708334402;75;0.625;violin
160.64723225416668;0.14874975208331875;83;0.625;violin
160.7972320041667;0.14874975208331875;80;0.625;violin
160.94723175416667;0.07374987708334402;77;0.625;violin
161.09723150416667;0.0737498770833156;74;0.625;violin
161.24723125416668;0.14874975208331875;82;0.625;violin
161.39723100416666;0.14874975208334718;79;0.625;violin
161.54723075416666;0.07374987708334402;76;0.625;violin
161.69723050416667;0.07374987708334402;73;0.625;violin
161.84723025416667;0.14874975208334718;81;0.625;violin
161.99723000416668;0.14874975208331875;78;0.625;violin
162.1472297541667;0.0737498770833156;75;0.625;violin
162.29722950416667;0.07374987708334402;72;0.625;violin
162.44722925416667;0.14874975208331875;80;0.625;violin
162.59722900416668;0.14874975208331875;77;0.625;violin
162.74722875416666;0.07374987708334402;74;0.625;violin
162.89722850416666;0.07374987708334402;71;0.625;violin
163.04722825416667;0.14874975208334718;79;0.625;violin
163.19722800416667;0.14874975208334718;76;0.625;violin
163.34722775416668;0.07374987708334402;73;0.625;violin
163.4972275041667;0.0737498770833156;70;0.625;violin
163.64722725416667;0.14874975208334718;78;0.625;violin
163.79722700416667;0.14874975208331875;75;0.625;violin
163.94722675416668;0.0737498770833156;72;0.625;violin
164.09722650416666;0.07374987708334402;69;0.625;violin
164.24722625416666;0.14874975208334718;77;0.625;violin
164.39722600416667;0.14874975208334718;74;0.625;violin
164.54722575416667;0.07374987708334402;71;0.625;violin
164.69722550416668;0.07374987708334402;68;0.625;violin
164.8472252541667;0.14874975208331875;77;0.625;violin
164.99722500416667;0.14874975208334718;74;0.625;violin
165.14722475416667;0.0737498770833156;71;0.625;violin
165.29722450416668;0.0737498770833156;68;0.625;violin
165.44722425416666;0.07374987708334402;77;0.625;violin
165.59722400416666;0.07374987708334402;66;0.625;violin
165.74722375416667;0.14874975208334718;78;0.625;violin
165.89722350416667;0.14874975208334718;77;0.625;violin
166.04722325416668;0.14874975208331875;78;0.625;violin
166.1972230041667;0.14874975208331875;64;0.625;violin
166.34722275416667;0.14874975208334718;82;0.625;violin
166.49722250416667;0.14874975208331875;62;0.625;violin
166.64722225416668;0.14874975208331875;83;0.625;violin
166.79722200416666;0.14874975208334718;61;0.625;violin
166.94722175416666;0.14874975208334718;85;0.625;violin
167.09722150416667;0.14874975208334718;59;0.625;violin
167.24722125416667;0.14874975208334718;86;0.625;violin
167.39722100416668;0.14874975208331875;58;0.625;violin
167.5472207541667;0.14874975208331875;88;0.625;violin
167.69722050416667;0.14874975208334718;59;0.625;violin
167.84722025416667;0.14874975208331875;86;0.625;violin
167.99722000416668;0.14874975208331875;61;0.625;violin
168.14721975416666;0.14874975208334718;85;0.625;violin
168.29721950416666;0.14874975208334718;62;0.625;violin
168.44721925416667;0.14874975208334718;83;0.625;violin
168.59721900416667;0.14874975208334718;64;0.625;violin
168.74721875416668;0.14874975208331875;83;0.625;violin
168.8972185041667;0.14874975208331875;65;0.625;violin
169.04721825416667;0.14874975208334718;83;0.625;violin
169.19721800416667;0.14874975208331875;82;0.625;violin
169.34721775416668;0.14874975208331875;66;0.625;violin
169.49721750416666;0.14874975208334718;65;0.625;violin
169.64721725416666;0.14874975208334718;66;0.625;violin
169.79721700416667;0.14874975208334718;88;0.625;violin
169.94721675416667;0.14874975208334718;70;0.625;violin
170.09721650416668;0.14874975208331875;86;0.625;violin
170.2472162541667;0.14874975208331875;71;0.625;violin
170.39721600416667;0.14874975208334718;85;0.625;violin
170.54721575416667;0.14874975208331875;73;0.625;violin
170.69721550416668;0.14874975208331875;83;0.625;violin
170.84721525416666;0.14874975208334718;74;0.625;violin
170.99721500416666;0.14874975208334718;82;0.625;violin
171.14721475416667;0.14874975208334718;76;0.625;violin
171.29721450416667;0.14874975208334718;83;0.625;violin
171.44721425416668;0.14874975208331875;74;0.625;violin
171.5972140041667;0.14874975208331875;85;0.625;violin
171.74721375416667;0.14874975208334718;73;0.625;violin
171.89721350416667;0.14874975208331875;86;0.625;violin
172.04721325416668;0.14874975208331875;71;0.625;violin
172.19721300416666;0.14874975208334718;88;0.625;violin
172.34721275416666;0.14874975208334718;71;0.625;violin
172.49721250416667;0.14874975208334718;89;0.625;violin
172.64721225416667;0.14874975208334718;71;0.625;violin
172.79721200416668;0.14874975208331875;70;0.625;violin
172.9472117541667;0.14874975208331875;90;0.625;violin
173.0972115041667;0.14874975208331875;89;0.625;violin
173.24721125416667;0.14874975208331875;90;0.625;violin
173.39721100416668;0.14874975208331875;66;0.625;violin
173.54721075416666;0.14874975208334718;90;0.625;violin
173.69721050416666;0.14874975208334718;67;0.625;violin
173.84721025416667;0.14874975208334718;90;0.625;violin
173.99721000416667;0.14874975208334718;89;0.625;violin
174.14720975416668;0.14874975208331875;90;0.625;violin
174.2972095041667;0.14874975208331875;66;0.625;violin
174.4472092541667;0.14874975208331875;90;0.625;violin
174.59720900416667;0.14874975208331875;64;0.625;violin
174.74720875416668;0.14874975208331875;90;0.625;violin
174.89720850416666;0.14874975208334718;89;0.625;violin
175.04720825416666;0.14874975208334718;90;0.625;violin
175.19720800416667;0.14874975208334718;64;0.625;violin
175.34720775416667;0.14874975208334718;90;0.625;violin
175.49720750416668;0.14874975208331875;66;0.625;violin
175.6472072541667;0.14874975208331875;90;0.625;violin
175.7972070041667;0.14874975208331875;89;0.625;violin
175.94720675416667;0.14874975208331875;90;0.625;violin
176.09720650416668;0.14874975208331875;64;0.625;violin
176.24720625416666;0.14874975208334718;90;0.625;violin
176.39720600416666;0.14874975208334718;62;0.625;violin
176.54720575416667;0.14874975208334718;90;0.625;violin
176.69720550416667;0.14874975208334718;89;0.625;violin
176.84720525416668;0.14874975208331875;90;0.625;violin
176.9972050041667;0.14874975208331875;62;0.625;violin
177.1472047541667;0.14874975208331875;90;0.625;violin
177.29720450416667;0.14874975208331875;64;0.625;violin
177.44720425416668;0.14874975208331875;91;0.625;violin
177.59720400416666;0.14874975208334718;62;0.625;violin
177.74720375416666;0.14874975208334718;90;0.625;violin
177.89720350416667;0.14874975208334718;61;0.625;violin
178.04720325416667;0.14874975208334718;88;0.625;violin
178.19720300416668;0.14874975208331875;59;0.625;violin
178.3472027541667;0.14874975208331875;86;0.625;violin
178.4972025041667;0.14874975208331875;61;0.625;violin
178.64720225416667;0.14874975208331875;88;0.625;violin
178.79720200416668;0.14874975208331875;62;0.625;violin
178.94720175416666;0.14874975208334718;90;0.625;violin
179.09720150416666;0.14874975208334718;61;0.625;violin
179.24720125416667;0.14874975208334718;88;0.625;violin
179.39720100416667;0.14874975208334718;59;0.625;violin
179.54720075416668;0.14874975208331875;86;0.625;violin
179.6972005041667;0.14874975208331875;58;0.625;violin
179.8472002541667;0.14874975208331875;85;0.625;violin
183.59594400625;0.07374987708334402;71;0.625;violin
183.74594375625;0.14874975208334718;83;0.625;violin
183.89594350625;0.14874975208331875;82;0.625;violin
184.04594325625;0.14874975208331875;83;0.625;violin
184.19594300625;0.14874975208334718;81;0.625;violin
184.34594275625;0.14874975208334718;83;0.625;violin
184.49594250625;0.14874975208331875;79;0.625;violin
184.64594225625;0.14874975208331875;83;0.625;violin
184.79594200625;0.14874975208334718;78;0.625;violin
184.94594175625;0.14874975208334718;83;0.625;violin
185.09594150625;0.14874975208334718;76;0.625;violin
185.24594125625;0.14874975208331875;83;0.625;violin
185.39594100625;0.14874975208331875;74;0.625;violin
185.54594075625;0.14874975208334718;83;0.625;violin
185.69594050625;0.14874975208334718;73;0.625;violin
185.84594025625;0.14874975208331875;83;0.625;violin
185.99594000625;0.14874975208331875;71;0.625;violin
186.14593975625;0.14874975208334718;83;0.625;violin
186.29593950625;0.14874975208334718;70;0.625;violin
186.44593925625;0.14874975208334718;83;0.625;violin
186.59593900625;0.14874975208331875;71;0.625;violin
186.74593875625;0.14874975208331875;83;0.625;violin
186.89593850625;0.14874975208334718;74;0.625;violin
187.04593825625;0.14874975208334718;83;0.625;violin
187.19593800625;0.07374987708334402;73;0.625;violin
187.34593775625;0.14874975208331875;82;0.625;violin
187.49593750625;0.14874975208334718;79;0.625;violin
187.64593725625;0.14874975208334718;82;0.625;violin
187.79593700625;0.14874975208334718;78;0.625;violin
187.94593675625;0.14874975208331875;82;0.625;violin
188.09593650625;0.14874975208331875;76;0.625;violin
188.24593625625;0.14874975208334718;82;0.625;violin
188.39593600625;0.14874975208334718;74;0.625;violin
188.54593575625;0.14874975208331875;82;0.625;violin
188.69593550625;0.14874975208331875;73;0.625;violin
188.84593525625002;0.14874975208331875;82;0.625;violin
188.99593500625;0.14874975208334718;71;0.625;violin
189.14593475625;0.14874975208334718;82;0.625;violin
189.29593450625;0.14874975208331875;70;0.625;violin
189.44593425625;0.14874975208331875;82;0.625;violin
189.59593400625;0.14874975208334718;71;0.625;violin
189.74593375625;0.14874975208334718;82;0.625;violin
189.89593350625;0.14874975208331875;73;0.625;violin
190.04593325625;0.14874975208331875;82;0.625;violin
190.19593300625002;0.14874975208331875;74;0.625;violin
190.34593275625;0.14874975208334718;82;0.625;violin
190.49593250625;0.14874975208334718;76;0.625;violin
190.64593225625;0.14874975208331875;82;0.625;violin
190.79593200625;0.0737498770833156;74;0.625;violin
190.94593175625;0.14874975208334718;83;0.625;violin
191.09593150625;0.14874975208334718;75;0.625;violin
191.24593125625;0.14874975208331875;83;0.625;violin
191.39593100625;0.0737498770833156;76;0.625;violin
191.54593075625002;0.14874975208331875;79;0.625;violin
191.69593050625;0.14874975208334718;73;0.625;violin
191.84593025625;0.14874975208334718;81;0.625;violin
191.99593000625;0.0737498770833156;74;0.625;violin
192.14592975625;0.14874975208331875;78;0.625;violin
192.29592950625;0.14874975208334718;71;0.625;violin
192.44592925625;0.14874975208334718;79;0.625;violin
192.59592900625;0.07374987708334402;73;0.625;violin
192.74592875625;0.14874975208331875;76;0.625;violin
192.89592850625002;0.14874975208331875;70;0.625;violin
193.04592825625;0.14874975208334718;78;0.625;violin
193.19592800625;0.07374987708334402;71;0.625;violin
193.34592775625;0.14874975208331875;74;0.625;violin
193.49592750625;0.14874975208331875;67;0.625;violin
193.64592725625;0.14874975208334718;71;0.625;violin
193.79592700625;0.07374987708334402;74;0.625;violin
193.94592675625;0.14874975208331875;77;0.625;violin
194.09592650625;0.14874975208331875;79;0.625;violin
194.24592625625002;0.14874975208331875;83;0.625;violin
194.39592600625;0.14874975208334718;66;0.625;violin
194.54592575625;0.14874975208334718;70;0.625;violin
194.69592550625;0.0737498770833156;73;0.625;violin
194.84592525625;0.0737498770833156;78;0.625;violin
194.99592500625;0.14874975208334718;82;0.625;violin
195.14592475625;0.14874975208334718;79;0.625;violin
195.29592450625;0.07374987708334402;78;0.625;violin
195.44592425625;0.0737498770833156;82;0.625;violin
195.59592400625002;0.14874975208331875;85;0.625;violin
195.74592375625;0.14874975208334718;83;0.625;violin
195.89592350625;0.07374987708334402;82;0.625;violin
196.04592325625;0.0737498770833156;85;0.625;violin
196.19592300625;0.14874975208331875;88;0.625;violin
196.34592275625;0.14874975208334718;86;0.625;violin
196.49592250625;0.07374987708334402;85;0.625;violin
196.64592225625;0.07374987708334402;91;0.625;violin
196.79592200625;0.14874975208331875;90;0.625;violin
196.94592175625002;0.14874975208331875;88;0.625;violin
197.09592150625;0.07374987708334402;86;0.625;violin
197.24592125625;0.07374987708334402;85;0.625;violin
197.39592100625;0.14874975208331875;83;0.625;violin
197.54592075625;0.14874975208331875;82;0.625;violin
197.69592050625;0.07374987708334402;79;0.625;violin
197.84592025625;0.07374987708334402;78;0.625;violin
197.99592000625;0.07374987708334402;83;0.625;violin
198.14591975625;0.0737498770833156;85;0.625;violin
198.29591950625002;0.0737498770833156;86;0.625;violin
198.44591925625;0.14874975208334718;83;0.625;violin
198.59591900625;0.14874975208334718;85;0.625;violin
198.74591875625;0.14874975208331875;82;0.625;violin
198.89591850625;0.14874975208331875;84;0.625;violin
199.04591825625;0.14874975208334718;81;0.625;violin
199.19591800625;0.14874975208334718;83;0.625;violin
199.34591775625;0.14874975208331875;80;0.625;violin
199.49591750625;0.14874975208331875;82;0.625;violin
199.64591725625002;0.14874975208331875;79;0.625;violin
199.79591700625;0.14874975208334718;81;0.625;violin
199.94591675625;0.14874975208334718;78;0.625;violin
200.09591650625;0.14874975208331875;80;0.625;violin
200.24591625625;0.14874975208331875;77;0.625;violin
200.39591600625;0.14874975208334718;79;0.625;violin
200.54591575625;0.14874975208334718;76;0.625;violin
200.69591550625;0.14874975208334718;78;0.625;violin
200.84591525625;0.14874975208331875;75;0.625;violin
200.99591500625002;0.14874975208331875;77;0.625;violin
201.14591475625;0.14874975208334718;74;0.625;violin
201.29591450625;0.14874975208334718;76;0.625;violin
201.44591425625;0.14874975208331875;73;0.625;violin
201.59591400625;0.14874975208331875;74;0.625;violin
201.74591375625;0.14874975208334718;77;0.625;violin
201.89591350625;0.07374987708334402;79;0.625;violin
202.04591325625;0.07374987708334402;77;0.625;violin
202.19591300625;0.0737498770833156;78;0.625;violin
202.34591275625002;0.0737498770833156;71;0.625;violin
202.49591250625;0.07249987916668488;74;0.625;violin
202.56966238333334;0.07249987916665646;73;0.625;violin
202.64466225833334;0.07249987916665646;74;0.625;violin
202.72091213125;0.07249987916665646;73;0.625;violin
202.79466200833335;0.07249987916665646;74;0.625;violin
202.86966188333332;0.07249987916668488;73;0.625;violin
202.94591175625;0.07249987916665646;74;0.625;violin
203.01966163333333;0.07249987916668488;73;0.625;violin
203.09466150833333;0.07249987916668488;74;0.625;violin
203.17091138125;0.07249987916668488;73;0.625;violin
203.24466125833334;0.1474997541666596;74;0.625;violin
203.39591100625;0.07374987708334402;71;0.625;violin
203.54591075625;0.0737498770833156;73;0.625;violin
203.69591050625002;0.0737498770833156;74;0.625;violin
203.84591025625;0.14874975208334718;71;0.625;violin
203.99591000625;0.14874975208334718;73;0.625;violin
204.14590975625;0.14874975208331875;70;0.625;violin
204.29590950625;0.14874975208331875;72;0.625;violin
204.44590925625;0.14874975208334718;69;0.625;violin
204.59590900625;0.14874975208334718;71;0.625;violin
204.74590875625;0.14874975208334718;68;0.625;violin
204.89590850625;0.14874975208331875;70;0.625;violin
205.04590825625002;0.14874975208331875;67;0.625;violin
205.19590800625;0.14874975208334718;69;0.625;violin
205.34590775625;0.14874975208334718;66;0.625;violin
205.49590750625;0.14874975208331875;68;0.625;violin
205.64590725625;0.14874975208331875;65;0.625;violin
205.79590700625;0.14874975208334718;67;0.625;violin
205.94590675625;0.14874975208334718;64;0.625;violin
206.09590650625;0.14874975208334718;66;0.625;violin
206.24590625625;0.14874975208331875;63;0.625;violin
206.39590600625002;0.14874975208331875;65;0.625;violin
206.54590575625;0.14874975208334718;62;0.625;violin
206.69590550625;0.14874975208334718;64;0.625;violin
206.84590525625;0.14874975208331875;61;0.625;violin
206.99590500625;0.14874975208331875;62;0.625;violin
207.14590475625;0.14874975208334718;65;0.625;violin
207.29590450625;0.07374987708334402;67;0.625;violin
207.44590425625;0.07374987708334402;65;0.625;violin
207.59590400625;0.0737498770833156;66;0.625;violin
207.74590375625002;0.0737498770833156;59;0.625;violin
207.89590350625;0.07249987916668488;62;0.625;violin
207.96965338333334;0.07249987916665646;61;0.625;violin
208.04465325833334;0.07249987916665646;62;0.625;violin
208.12090313125;0.07249987916665646;61;0.625;violin
208.19465300833335;0.07249987916665646;62;0.625;violin
208.26965288333332;0.07249987916668488;61;0.625;violin
208.34590275625;0.07249987916665646;62;0.625;violin
208.41965263333333;0.07249987916668488;61;0.625;violin
208.49465250833333;0.07249987916668488;62;0.625;violin
208.57090238125;0.07249987916668488;61;0.625;violin
208.64465225833334;0.1474997541666596;62;0.625;violin
208.79590200625;0.07374987708334402;59;0.625;violin
208.94590175625;0.14874975208331875;71;0.625;violin
209.09590150625002;0.14874975208331875;70;0.625;violin
209.24590125625;0.14874975208334718;71;0.625;violin
209.39590100625;0.07374987708334402;66;0.625;violin
209.54590075625;0.0737498770833156;78;0.625;violin
209.69590050625;0.0737498770833156;71;0.625;violin
209.84590025625;0.14874975208334718;83;0.625;violin
209.99590000625;0.14874975208334718;82;0.625;violin
210.14589975625;0.14874975208334718;83;0.625;violin
210.29589950625;0.0737498770833156;78;0.625;violin
210.44589925625002;0.0737498770833156;90;0.625;violin
210.59589900625;0.07374987708334402;83;0.625;violin
210.74589875625;0.14874975208334718;95;0.625;violin
210.89589850625;0.14874975208331875;94;0.625;violin
211.04589825625;0.14874975208331875;95;0.625;violin
211.19589800625;0.07374987708334402;78;0.625;violin
211.34589775625;0.07374987708334402;90;0.625;violin
211.49589750625;0.07374987708334402;71;0.625;violin
211.64589725625;0.14874975208331875;83;0.625;violin
211.79589700625002;0.14874975208331875;82;0.625;violin
211.94589675625;0.14874975208334718;83;0.625;violin
212.09589650625;0.07374987708334402;66;0.625;violin
212.24589625625;0.0737498770833156;78;0.625;violin
212.39589600625;0.0737498770833156;59;0.625;violin
212.54589575625;0.14874975208334718;83;0.625;violin
212.69589550625;0.14874975208334718;82;0.625;violin
212.84589525625;0.14874975208334718;83;0.625;violin
212.99589500625;0.14874975208331875;74;0.625;violin
213.14589475625002;0.14874975208331875;83;0.625;violin
213.29589450625;0.14874975208334718;71;0.625;violin
213.44589425625;0.14874975208334718;83;0.625;violin
213.59589400625;0.14874975208331875;66;0.625;violin
213.74589375625;0.14874975208331875;83;0.625;violin
213.89589350625;0.14874975208334718;62;0.625;violin
214.04589325625;0.14874975208334718;83;0.625;violin
214.19589300625;0.8987485020833219;59;0.625;violin
214.19589300625;0.8987485020833219;66;0.625;violin
214.19589300625;0.8987485020833219;74;0.625;violin
214.19589300625;0.8987485020833219;83;0.625;violin
