start;duration;pitch;velocity;instrument
0.0;1.9979166666666666;64;0.75;violin
0.0;1.9979166666666666;76;0.75;violin
2.0;0.9979166666666668;66;0.75;violin
2.0;0.9979166666666668;78;0.75;violin
3.0;0.9979166666666668;67;0.75;violin
3.0;0.9979166666666668;79;0.75;violin
4.0;0.12083333333333357;59;0.75;violin
4.0;0.12083333333333357;71;0.75;violin
4.122916666666667;0.12083333333333357;60;0.75;violin
4.122916666666667;0.12083333333333357;72;0.75;violin
4.247916666666667;0.12083333333333357;59;0.75;violin
4.247916666666667;0.12083333333333357;71;0.75;violin
4.375;0.12083333333333357;60;0.75;violin
4.375;0.12083333333333357;72;0.75;violin
4.497916666666667;0.12083333333333357;59;0.75;violin
4.497916666666667;0.12083333333333357;71;0.75;violin
4.622916666666667;0.12083333333333357;60;0.75;violin
4.622916666666667;0.12083333333333357;72;0.75;violin
4.75;0.12083333333333357;59;0.75;violin
4.75;0.12083333333333357;71;0.75;violin
4.872916666666667;0.12083333333333357;60;0.75;violin
4.872916666666667;0.12083333333333357;72;0.75;violin
4.997916666666667;0.12083333333333357;59;0.75;violin
4.997916666666667;0.12083333333333357;71;0.75;violin
5.125;0.12083333333333357;60;0.75;violin
5.125;0.12083333333333357;72;0.75;violin
5.247916666666667;0.12083333333333357;59;0.75;violin
5.247916666666667;0.12083333333333357;71;0.75;violin
5.372916666666667;0.12083333333333357;60;0.75;violin
5.372916666666667;0.12083333333333357;72;0.75;violin
5.5;0.12083333333333357;59;0.75;violin
5.5;0.12083333333333357;71;0.75;violin
5.622916666666667;0.12083333333333357;60;0.75;violin
5.622916666666667;0.12083333333333357;72;0.75;violin
5.747916666666667;0.12083333333333357;59;0.75;violin
5.747916666666667;0.12083333333333357;71;0.75;violin
5.875;0.12083333333333357;60;0.75;violin
5.875;0.12083333333333357;72;0.75;violin
5.997916666666667;0.12083333333333357;59;0.75;violin
5.997916666666667;0.12083333333333357;71;0.75;violin
6.122916666666667;0.12083333333333357;60;0.75;violin
6.122916666666667;0.12083333333333357;72;0.75;violin
6.25;0.12083333333333357;59;0.75;violin
6.25;0.12083333333333357;71;0.75;violin
6.372916666666667;0.12083333333333268;60;0.75;violin
6.372916666666667;0.12083333333333268;72;0.75;violin
6.497916666666667;0.12083333333333268;59;0.75;violin
6.497916666666667;0.12083333333333268;71;0.75;violin
6.625;0.12083333333333357;60;0.75;violin
6.625;0.12083333333333357;72;0.75;violin
6.747916666666667;0.12083333333333268;59;0.75;violin
6.747916666666667;0.12083333333333268;71;0.75;violin
6.872916666666667;0.12083333333333268;60;0.75;violin
6.872916666666667;0.12083333333333268;72;0.75;violin
8.0;1.9979166666666668;67;0.75;violin
8.0;1.9979166666666668;79;0.75;violin
10.0;0.9979166666666668;69;0.75;violin
10.0;0.9979166666666668;81;0.75;violin
11.0;0.9979166666666668;71;0.75;violin
11.0;0.9979166666666668;83;0.75;violin
12.0;0.12083333333333357;62;0.75;violin
12.0;0.12083333333333357;74;0.75;violin
12.122916666666667;0.12083333333333357;64;0.75;violin
12.122916666666667;0.12083333333333357;76;0.75;violin
12.247916666666667;0.12083333333333357;62;0.75;violin
12.247916666666667;0.12083333333333357;74;0.75;violin
12.375;0.12083333333333357;64;0.75;violin
12.375;0.12083333333333357;76;0.75;violin
12.497916666666667;0.12083333333333357;62;0.75;violin
12.497916666666667;0.12083333333333357;74;0.75;violin
12.622916666666667;0.12083333333333357;64;0.75;violin
12.622916666666667;0.12083333333333357;76;0.75;violin
12.75;0.12083333333333357;62;0.75;violin
12.75;0.12083333333333357;74;0.75;violin
12.872916666666667;0.12083333333333357;64;0.75;violin
12.872916666666667;0.12083333333333357;76;0.75;violin
12.997916666666667;0.12083333333333357;62;0.75;violin
12.997916666666667;0.12083333333333357;74;0.75;violin
13.125;0.12083333333333357;64;0.75;violin
13.125;0.12083333333333357;76;0.75;violin
13.247916666666667;0.12083333333333357;62;0.75;violin
13.247916666666667;0.12083333333333357;74;0.75;violin
13.372916666666667;0.12083333333333357;64;0.75;violin
13.372916666666667;0.12083333333333357;76;0.75;violin
13.5;0.12083333333333357;62;0.75;violin
13.5;0.12083333333333357;74;0.75;violin
13.622916666666667;0.12083333333333357;64;0.75;violin
13.622916666666667;0.12083333333333357;76;0.75;violin
13.747916666666667;0.12083333333333357;62;0.75;violin
13.747916666666667;0.12083333333333357;74;0.75;violin
13.875;0.12083333333333357;64;0.75;violin
13.875;0.12083333333333357;76;0.75;violin
13.997916666666667;0.12083333333333357;62;0.75;violin
13.997916666666667;0.12083333333333357;74;0.75;violin
14.122916666666667;0.12083333333333357;64;0.75;violin
14.122916666666667;0.12083333333333357;76;0.75;violin
14.25;0.12083333333333357;62;0.75;violin
14.25;0.12083333333333357;74;0.75;violin
14.372916666666667;0.12083333333333357;64;0.75;violin
14.372916666666667;0.12083333333333357;76;0.75;violin
14.497916666666667;0.12083333333333357;62;0.75;violin
14.497916666666667;0.12083333333333357;74;0.75;violin
14.625;0.12083333333333357;64;0.75;violin
14.625;0.12083333333333357;76;0.75;violin
14.747916666666667;0.12083333333333357;62;0.75;violin
14.747916666666667;0.12083333333333357;74;0.75;violin
14.872916666666667;0.12083333333333357;64;0.75;violin
14.872916666666667;0.12083333333333357;76;0.75;violin
16.0;0.997916666666665;72;0.75;violin
16.0;0.997916666666665;84;0.75;violin
17.0;0.247916666666665;71;0.75;violin
17.0;0.247916666666665;83;0.75;violin
17.25;0.247916666666665;69;0.9921875;violin
17.25;0.247916666666665;81;0.9921875;violin
17.5;0.247916666666665;67;0.75;violin
17.5;0.247916666666665;79;0.75;violin
17.75;0.247916666666665;66;0.9921875;violin
17.75;0.247916666666665;78;0.9921875;violin
18.0;0.247916666666665;64;0.75;violin
18.0;0.247916666666665;76;0.75;violin
18.25;0.247916666666665;63;0.9921875;violin
18.25;0.247916666666665;75;0.9921875;violin
18.5;0.247916666666665;60;0.75;violin
18.5;0.247916666666665;72;0.75;violin
18.75;0.247916666666665;59;0.9921875;violin
18.75;0.247916666666665;71;0.9921875;violin
19.0;0.497916666666665;57;0.75;violin
19.0;0.497916666666665;69;0.75;violin
19.5;0.497916666666665;72;0.75;violin
19.5;0.497916666666665;84;0.75;violin
20.0;0.997916666666665;71;0.75;violin
20.0;0.997916666666665;83;0.75;violin
21.0;0.247916666666665;69;0.75;violin
21.0;0.247916666666665;81;0.75;violin
21.25;0.247916666666665;67;0.9921875;violin
21.25;0.247916666666665;79;0.9921875;violin
21.5;0.247916666666665;66;0.75;violin
21.5;0.247916666666665;78;0.75;violin
21.75;0.247916666666665;64;0.9921875;violin
21.75;0.247916666666665;76;0.9921875;violin
22.0;0.247916666666665;62;0.75;violin
22.0;0.247916666666665;74;0.75;violin
22.25;0.247916666666665;60;0.9921875;violin
22.25;0.247916666666665;72;0.9921875;violin
22.5;0.247916666666665;59;0.75;violin
22.5;0.247916666666665;71;0.75;violin
22.75;0.247916666666665;57;0.9921875;violin
22.75;0.247916666666665;69;0.9921875;violin
23.0;0.497916666666665;55;0.75;violin
23.0;0.497916666666665;67;0.75;violin
23.5;0.497916666666665;71;0.75;violin
23.5;0.497916666666665;83;0.75;violin
24.0;0.997916666666665;69;0.75;violin
24.0;0.997916666666665;81;0.75;violin
25.0;0.247916666666665;67;0.75;violin
25.0;0.247916666666665;79;0.75;violin
25.25;0.247916666666665;66;0.9921875;violin
25.25;0.247916666666665;78;0.9921875;violin
25.5;0.247916666666665;64;0.75;violin
25.5;0.247916666666665;76;0.75;violin
25.75;0.247916666666665;63;0.9921875;violin
25.75;0.247916666666665;75;0.9921875;violin
26.0;0.997916666666665;67;0.75;violin
26.0;0.997916666666665;79;0.75;violin
27.0;0.247916666666665;66;0.75;violin
27.0;0.247916666666665;78;0.75;violin
27.25;0.247916666666665;64;0.9921875;violin
27.25;0.247916666666665;76;0.9921875;violin
27.5;0.247916666666665;60;0.75;violin
27.5;0.247916666666665;72;0.75;violin
27.75;0.247916666666665;58;0.9921875;violin
27.75;0.247916666666665;70;0.9921875;violin
28.0;2.997916666666665;59;0.75;violin
28.0;2.997916666666665;71;0.75;violin
32.0;1.9979166666666686;76;0.75;violin
32.0;1.9979166666666686;88;0.75;violin
34.0;0.9979166666666686;78;0.75;violin
34.0;0.9979166666666686;90;0.75;violin
35.0;0.9979166666666686;79;0.75;violin
35.0;0.9979166666666686;91;0.75;violin
36.0;0.12083333333333002;71;0.75;violin
36.0;0.12083333333333002;83;0.75;violin
36.12291666666667;0.12083333333333002;72;0.75;violin
36.12291666666667;0.12083333333333002;84;0.75;violin
36.24791666666667;0.12083333333333002;71;0.75;violin
36.24791666666667;0.12083333333333002;83;0.75;violin
36.375;0.12083333333333002;72;0.75;violin
36.375;0.12083333333333002;84;0.75;violin
36.49791666666667;0.12083333333333002;71;0.75;violin
36.49791666666667;0.12083333333333002;83;0.75;violin
36.62291666666667;0.12083333333333002;72;0.75;violin
36.62291666666667;0.12083333333333002;84;0.75;violin
36.75;0.12083333333333002;71;0.75;violin
36.75;0.12083333333333002;83;0.75;violin
36.87291666666667;0.12083333333333002;72;0.75;violin
36.87291666666667;0.12083333333333002;84;0.75;violin
36.99791666666667;0.12083333333333002;71;0.75;violin
36.99791666666667;0.12083333333333002;83;0.75;violin
37.125;0.12083333333333002;72;0.75;violin
37.125;0.12083333333333002;84;0.75;violin
37.24791666666667;0.12083333333333002;71;0.75;violin
37.24791666666667;0.12083333333333002;83;0.75;violin
37.37291666666667;0.12083333333333002;72;0.75;violin
37.37291666666667;0.12083333333333002;84;0.75;violin
37.5;0.12083333333333002;71;0.75;violin
37.5;0.12083333333333002;83;0.75;violin
37.62291666666667;0.12083333333333002;72;0.75;violin
37.62291666666667;0.12083333333333002;84;0.75;violin
37.74791666666667;0.12083333333333002;71;0.75;violin
37.74791666666667;0.12083333333333002;83;0.75;violin
37.875;0.12083333333333002;72;0.75;violin
37.875;0.12083333333333002;84;0.75;violin
37.99791666666667;0.12083333333333002;71;0.75;violin
37.99791666666667;0.12083333333333002;83;0.75;violin
38.12291666666667;0.12083333333333002;72;0.75;violin
38.12291666666667;0.12083333333333002;84;0.75;violin
38.25;0.12083333333333002;71;0.75;violin
38.25;0.12083333333333002;83;0.75;violin
38.37291666666667;0.12083333333333002;72;0.75;violin
38.37291666666667;0.12083333333333002;84;0.75;violin
38.49791666666667;0.12083333333333002;71;0.75;violin
38.49791666666667;0.12083333333333002;83;0.75;violin
38.625;0.12083333333333002;72;0.75;violin
38.625;0.12083333333333002;84;0.75;violin
38.74791666666667;0.12083333333333002;71;0.75;violin
38.74791666666667;0.12083333333333002;83;0.75;violin
38.87291666666667;0.12083333333333002;72;0.75;violin
38.87291666666667;0.12083333333333002;84;0.75;violin
40.0;1.9979166666666686;79;0.75;violin
40.0;1.9979166666666686;91;0.75;violin
42.0;0.9979166666666686;81;0.75;violin
42.0;0.9979166666666686;93;0.75;violin
43.0;0.9979166666666686;83;0.75;violin
43.0;0.9979166666666686;95;0.75;violin
44.0;0.12083333333333002;74;0.75;violin
44.0;0.12083333333333002;86;0.75;violin
44.12291666666667;0.12083333333333002;76;0.75;violin
44.12291666666667;0.12083333333333002;88;0.75;violin
44.24791666666667;0.12083333333333002;74;0.75;violin
44.24791666666667;0.12083333333333002;86;0.75;violin
44.375;0.12083333333333002;76;0.75;violin
44.375;0.12083333333333002;88;0.75;violin
44.49791666666667;0.12083333333333002;74;0.75;violin
44.49791666666667;0.12083333333333002;86;0.75;violin
44.62291666666667;0.12083333333333002;76;0.75;violin
44.62291666666667;0.12083333333333002;88;0.75;violin
44.75;0.12083333333333002;74;0.75;violin
44.75;0.12083333333333002;86;0.75;violin
44.87291666666667;0.12083333333333002;76;0.75;violin
44.87291666666667;0.12083333333333002;88;0.75;violin
44.99791666666667;0.12083333333333002;74;0.75;violin
44.99791666666667;0.12083333333333002;86;0.75;violin
45.125;0.12083333333333002;76;0.75;violin
45.125;0.12083333333333002;88;0.75;violin
45.24791666666667;0.12083333333333002;74;0.75;violin
45.24791666666667;0.12083333333333002;86;0.75;violin
45.37291666666667;0.12083333333333002;76;0.75;violin
45.37291666666667;0.12083333333333002;88;0.75;violin
45.5;0.12083333333333002;74;0.75;violin
45.5;0.12083333333333002;86;0.75;violin
45.62291666666667;0.12083333333333002;76;0.75;violin
45.62291666666667;0.12083333333333002;88;0.75;violin
45.74791666666667;0.12083333333333002;74;0.75;violin
45.74791666666667;0.12083333333333002;86;0.75;violin
45.875;0.12083333333333002;76;0.75;violin
45.875;0.12083333333333002;88;0.75;violin
45.99791666666667;0.12083333333333002;74;0.75;violin
45.99791666666667;0.12083333333333002;86;0.75;violin
46.12291666666667;0.12083333333333002;76;0.75;violin
46.12291666666667;0.12083333333333002;88;0.75;violin
46.25;0.12083333333333002;74;0.75;violin
46.25;0.12083333333333002;86;0.75;violin
46.37291666666667;0.12083333333333002;76;0.75;violin
46.37291666666667;0.12083333333333002;88;0.75;violin
46.49791666666667;0.12083333333333002;74;0.75;violin
46.49791666666667;0.12083333333333002;86;0.75;violin
46.625;0.12083333333333002;76;0.75;violin
46.625;0.12083333333333002;88;0.75;violin
46.74791666666667;0.12083333333333002;74;0.75;violin
46.74791666666667;0.12083333333333002;86;0.75;violin
46.87291666666667;0.12083333333333002;76;0.75;violin
46.87291666666667;0.12083333333333002;88;0.75;violin
48.0;1.9979166666666686;75;0.75;violin
48.0;1.9979166666666686;87;0.75;violin
50.0;1.9979166666666686;84;0.75;violin
50.0;1.9979166666666686;96;0.75;violin
52.0;0.9979166666666686;83;0.75;violin
52.0;0.9979166666666686;95;0.75;violin
53.0;1.4979166666666686;76;0.75;violin
53.0;1.4979166666666686;88;0.75;violin
54.5;0.24791666666666856;77;0.75;violin
54.5;0.24791666666666856;89;0.75;violin
54.75;0.24791666666666856;76;0.75;violin
54.75;0.24791666666666856;88;0.75;violin
55.0;0.1979166666666643;77;0.75;violin
55.0;0.1979166666666643;89;0.75;violin
55.199999999999996;0.1979166666666714;79;0.75;violin
55.199999999999996;0.1979166666666714;91;0.75;violin
55.4;0.1979166666666643;81;0.75;violin
55.4;0.1979166666666643;93;0.75;violin
55.6;0.1979166666666643;83;0.75;violin
55.6;0.1979166666666643;95;0.75;violin
55.8;0.1979166666666714;84;0.75;violin
55.8;0.1979166666666714;96;0.75;violin
56.0;1.9979166666666686;76;0.75;violin
56.0;0.06041666666666856;84;0.75;violin
56.0;0.06041666666666856;96;0.75;violin
56.0625;1.9979166666666686;88;0.75;violin
58.0;1.9979166666666686;78;0.75;violin
58.0;1.9979166666666686;90;0.75;violin
60.0;1.9979166666666686;76;0.75;violin
60.0;1.9979166666666686;88;0.75;violin
63.0;0.9979166666666686;56;0.75;violin
63.0;0.9979166666666686;68;0.75;violin
64.0;0.24791666666666856;57;0.75;violin
64.0;0.24791666666666856;69;0.75;violin
64.25;0.24791666666666856;59;0.75;violin
64.25;0.24791666666666856;71;0.75;violin
64.5;0.24791666666666856;60;0.75;violin
64.5;0.24791666666666856;72;0.75;violin
64.75;0.24791666666666856;62;0.75;violin
64.75;0.24791666666666856;74;0.75;violin
65.0;0.24791666666666856;64;0.75;violin
65.0;0.24791666666666856;76;0.75;violin
65.25;0.24791666666666856;66;0.75;violin
65.25;0.24791666666666856;78;0.75;violin
65.5;0.24791666666666856;68;0.75;violin
65.5;0.24791666666666856;80;0.75;violin
65.75;0.24791666666666856;69;0.75;violin
65.75;0.24791666666666856;81;0.75;violin
66.0;0.12083333333333712;71;0.75;violin
66.0;0.12083333333333712;83;0.75;violin
66.12291666666667;0.12083333333333712;72;0.75;violin
66.12291666666667;0.12083333333333712;84;0.75;violin
66.25;0.12083333333333712;71;0.75;violin
66.25;0.12083333333333712;83;0.75;violin
66.37291666666667;0.12083333333333712;72;0.75;violin
66.37291666666667;0.12083333333333712;84;0.75;violin
66.5;0.12083333333333712;71;0.75;violin
66.5;0.12083333333333712;83;0.75;violin
66.62291666666667;0.12083333333333712;72;0.75;violin
66.62291666666667;0.12083333333333712;84;0.75;violin
66.75;0.12083333333333712;71;0.75;violin
66.75;0.12083333333333712;83;0.75;violin
66.87291666666667;0.12083333333333712;72;0.75;violin
66.87291666666667;0.12083333333333712;84;0.75;violin
67.0;0.12083333333333712;71;0.75;violin
67.0;0.12083333333333712;83;0.75;violin
67.12291666666667;0.12083333333333712;72;0.75;violin
67.12291666666667;0.12083333333333712;84;0.75;violin
67.25;0.12083333333333712;71;0.75;violin
67.25;0.12083333333333712;83;0.75;violin
67.37291666666667;0.12083333333333712;72;0.75;violin
67.37291666666667;0.12083333333333712;84;0.75;violin
67.5;0.12083333333333712;71;0.75;violin
67.5;0.12083333333333712;83;0.75;violin
67.62291666666667;0.12083333333333712;72;0.75;violin
67.62291666666667;0.12083333333333712;84;0.75;violin
67.75;0.12083333333333712;71;0.75;violin
67.75;0.12083333333333712;83;0.75;violin
67.87291666666667;0.12083333333333712;72;0.75;violin
67.87291666666667;0.12083333333333712;84;0.75;violin
68.0;0.9979166666666686;72;0.75;violin
68.0;0.9979166666666686;84;0.75;violin
69.0;1.3312499999999972;57;0.9921875;violin
69.0;1.3312499999999972;69;0.9921875;violin
70.33333333333333;0.33124999999999716;72;0.75;violin
70.33333333333333;0.33124999999999716;84;0.75;violin
70.66666666666667;0.33124999999999716;71;0.75;violin
70.66666666666667;0.33124999999999716;83;0.75;violin
71.0;0.33124999999999716;72;0.75;violin
71.0;0.33124999999999716;84;0.75;violin
71.33333333333333;0.33124999999999716;69;0.75;violin
71.33333333333333;0.33124999999999716;81;0.75;violin
71.66666666666667;0.33124999999999716;65;0.75;violin
71.66666666666667;0.33124999999999716;77;0.75;violin
72.0;1.9979166666666686;64;0.75;violin
72.0;1.9979166666666686;76;0.75;violin
74.0;1.9979166666666686;66;0.75;violin
74.0;1.9979166666666686;78;0.75;violin
76.0;1.9979166666666686;64;0.75;violin
76.0;1.9979166666666686;76;0.75;violin
78.0;0.12083333333333712;72;0.3828125;violin
78.0;0.12083333333333712;84;0.3828125;violin
78.12291666666667;0.12083333333333712;74;0.3828125;violin
78.12291666666667;0.12083333333333712;86;0.3828125;violin
78.25;0.12083333333333712;72;0.3828125;violin
78.25;0.12083333333333712;84;0.3828125;violin
78.37291666666667;0.12083333333333712;74;0.3828125;violin
78.37291666666667;0.12083333333333712;86;0.3828125;violin
78.5;0.12083333333333712;72;0.3828125;violin
78.5;0.12083333333333712;84;0.3828125;violin
78.62291666666667;0.12083333333333712;74;0.3828125;violin
78.62291666666667;0.12083333333333712;86;0.3828125;violin
78.75;0.12083333333333712;72;0.3828125;violin
78.75;0.12083333333333712;84;0.3828125;violin
78.87291666666667;0.12083333333333712;74;0.3828125;violin
78.87291666666667;0.12083333333333712;86;0.3828125;violin
79.0;0.12083333333333712;72;0.3828125;violin
79.0;0.12083333333333712;84;0.3828125;violin
79.12291666666667;0.12083333333333712;74;0.3828125;violin
79.12291666666667;0.12083333333333712;86;0.3828125;violin
79.25;0.12083333333333712;72;0.3828125;violin
79.25;0.12083333333333712;84;0.3828125;violin
79.37291666666667;0.12083333333333712;74;0.3828125;violin
79.37291666666667;0.12083333333333712;86;0.3828125;violin
79.5;0.12083333333333712;72;0.3828125;violin
79.5;0.12083333333333712;84;0.3828125;violin
79.62291666666667;0.12083333333333712;74;0.3828125;violin
79.62291666666667;0.12083333333333712;86;0.3828125;violin
79.75;0.12083333333333712;72;0.3828125;violin
79.75;0.12083333333333712;84;0.3828125;violin
79.87291666666667;0.12083333333333712;74;0.3828125;violin
79.87291666666667;0.12083333333333712;86;0.3828125;violin
80.0;0.12083333333333712;69;0.3828125;violin
80.0;0.12083333333333712;81;0.3828125;violin
80.12291666666667;0.12083333333333712;71;0.3828125;violin
80.12291666666667;0.12083333333333712;83;0.3828125;violin
80.25;0.12083333333333712;69;0.3828125;violin
80.25;0.12083333333333712;81;0.3828125;violin
80.37291666666667;0.12083333333333712;71;0.3828125;violin
80.37291666666667;0.12083333333333712;83;0.3828125;violin
80.5;0.12083333333333712;69;0.3828125;violin
80.5;0.12083333333333712;81;0.3828125;violin
80.62291666666667;0.12083333333333712;71;0.3828125;violin
80.62291666666667;0.12083333333333712;83;0.3828125;violin
80.75;0.12083333333333712;69;0.3828125;violin
80.75;0.12083333333333712;81;0.3828125;violin
80.87291666666667;0.12083333333333712;71;0.3828125;violin
80.87291666666667;0.12083333333333712;83;0.3828125;violin
81.0;0.12083333333333712;69;0.3828125;violin
81.0;0.12083333333333712;81;0.3828125;violin
81.12291666666667;0.12083333333333712;71;0.3828125;violin
81.12291666666667;0.12083333333333712;83;0.3828125;violin
81.25;0.12083333333333712;69;0.3828125;violin
81.25;0.12083333333333712;81;0.3828125;violin
81.37291666666667;0.12083333333333712;71;0.3828125;violin
81.37291666666667;0.12083333333333712;83;0.3828125;violin
81.5;0.12083333333333712;69;0.3828125;violin
81.5;0.12083333333333712;81;0.3828125;violin
81.62291666666667;0.12083333333333712;71;0.3828125;violin
81.62291666666667;0.12083333333333712;83;0.3828125;violin
81.75;0.12083333333333712;69;0.3828125;violin
81.75;0.12083333333333712;81;0.3828125;violin
81.87291666666667;0.12083333333333712;71;0.3828125;violin
81.87291666666667;0.12083333333333712;83;0.3828125;violin
82.0;0.12083333333333712;71;0.3828125;violin
82.0;0.12083333333333712;83;0.3828125;violin
82.12291666666667;0.12083333333333712;72;0.3828125;violin
82.12291666666667;0.12083333333333712;84;0.3828125;violin
82.25;0.12083333333333712;71;0.3828125;violin
82.25;0.12083333333333712;83;0.3828125;violin
82.37291666666667;0.12083333333333712;72;0.3828125;violin
82.37291666666667;0.12083333333333712;84;0.3828125;violin
82.5;0.12083333333333712;71;0.3828125;violin
82.5;0.12083333333333712;83;0.3828125;violin
82.62291666666667;0.12083333333333712;72;0.3828125;violin
82.62291666666667;0.12083333333333712;84;0.3828125;violin
82.75;0.12083333333333712;71;0.3828125;violin
82.75;0.12083333333333712;83;0.3828125;violin
82.87291666666667;0.12083333333333712;72;0.3828125;violin
82.87291666666667;0.12083333333333712;84;0.3828125;violin
83.0;0.12083333333333712;71;0.3828125;violin
83.0;0.12083333333333712;83;0.3828125;violin
83.12291666666667;0.12083333333333712;72;0.3828125;violin
83.12291666666667;0.12083333333333712;84;0.3828125;violin
83.25;0.12083333333333712;71;0.3828125;violin
83.25;0.12083333333333712;83;0.3828125;violin
83.37291666666667;0.12083333333333712;72;0.3828125;violin
83.37291666666667;0.12083333333333712;84;0.3828125;violin
83.5;0.12083333333333712;71;0.3828125;violin
83.5;0.12083333333333712;83;0.3828125;violin
83.62291666666667;0.12083333333333712;72;0.3828125;violin
83.62291666666667;0.12083333333333712;84;0.3828125;violin
83.75;0.12083333333333712;71;0.3828125;violin
83.75;0.12083333333333712;83;0.3828125;violin
83.87291666666667;0.12083333333333712;72;0.3828125;violin
83.87291666666667;0.12083333333333712;84;0.3828125;violin
84.0;0.12083333333333712;76;0.3828125;violin
84.12291666666667;0.12083333333333712;78;0.3828125;violin
84.25;0.12083333333333712;76;0.3828125;violin
84.37291666666667;0.12083333333333712;78;0.3828125;violin
84.5;0.12083333333333712;76;0.3828125;violin
84.62291666666667;0.12083333333333712;78;0.3828125;violin
84.75;0.12083333333333712;76;0.3828125;violin
84.87291666666667;0.12083333333333712;78;0.3828125;violin
85.0;0.12083333333333712;76;0.3828125;violin
85.12291666666667;0.12083333333333712;78;0.3828125;violin
85.25;0.12083333333333712;76;0.3828125;violin
85.37291666666667;0.12083333333333712;78;0.3828125;violin
85.5;0.12083333333333712;76;0.3828125;violin
85.62291666666667;0.12083333333333712;78;0.3828125;violin
85.75;0.12083333333333712;76;0.3828125;violin
85.87291666666667;0.12083333333333712;78;0.3828125;violin
86.0;0.12083333333333712;60;0.3828125;violin
86.0;0.12083333333333712;72;0.3828125;violin
86.12291666666667;0.12083333333333712;62;0.3828125;violin
86.12291666666667;0.12083333333333712;74;0.3828125;violin
86.25;0.12083333333333712;60;0.3828125;violin
86.25;0.12083333333333712;72;0.3828125;violin
86.37291666666667;0.12083333333333712;62;0.3828125;violin
86.37291666666667;0.12083333333333712;74;0.3828125;violin
86.5;0.12083333333333712;60;0.3828125;violin
86.5;0.12083333333333712;72;0.3828125;violin
86.62291666666667;0.12083333333333712;62;0.3828125;violin
86.62291666666667;0.12083333333333712;74;0.3828125;violin
86.75;0.12083333333333712;60;0.3828125;violin
86.75;0.12083333333333712;72;0.3828125;violin
86.87291666666667;0.12083333333333712;62;0.3828125;violin
86.87291666666667;0.12083333333333712;74;0.3828125;violin
87.0;0.12083333333333712;60;0.3828125;violin
87.0;0.12083333333333712;72;0.3828125;violin
87.12291666666667;0.12083333333333712;62;0.3828125;violin
87.12291666666667;0.12083333333333712;74;0.3828125;violin
87.25;0.12083333333333712;60;0.3828125;violin
87.25;0.12083333333333712;72;0.3828125;violin
87.37291666666667;0.12083333333333712;62;0.3828125;violin
87.37291666666667;0.12083333333333712;74;0.3828125;violin
87.5;0.12083333333333712;60;0.3828125;violin
87.5;0.12083333333333712;72;0.3828125;violin
87.62291666666667;0.12083333333333712;62;0.3828125;violin
87.62291666666667;0.12083333333333712;74;0.3828125;violin
87.75;0.12083333333333712;60;0.3828125;violin
87.75;0.12083333333333712;72;0.3828125;violin
87.87291666666667;0.12083333333333712;62;0.3828125;violin
87.87291666666667;0.12083333333333712;74;0.3828125;violin
88.0;0.12083333333333712;57;0.3828125;violin
88.0;0.12083333333333712;69;0.3828125;violin
88.12291666666667;0.12083333333333712;59;0.3828125;violin
88.12291666666667;0.12083333333333712;71;0.3828125;violin
88.25;0.12083333333333712;57;0.3828125;violin
88.25;0.12083333333333712;69;0.3828125;violin
88.37291666666667;0.12083333333333712;59;0.3828125;violin
88.37291666666667;0.12083333333333712;71;0.3828125;violin
88.5;0.12083333333333712;57;0.3828125;violin
88.5;0.12083333333333712;69;0.3828125;violin
88.62291666666667;0.12083333333333712;59;0.3828125;violin
88.62291666666667;0.12083333333333712;71;0.3828125;violin
88.75;0.12083333333333712;57;0.3828125;violin
88.75;0.12083333333333712;69;0.3828125;violin
88.87291666666667;0.12083333333333712;59;0.3828125;violin
88.87291666666667;0.12083333333333712;71;0.3828125;violin
89.0;0.12083333333333712;57;0.3828125;violin
89.0;0.12083333333333712;69;0.3828125;violin
89.12291666666667;0.12083333333333712;59;0.3828125;violin
89.12291666666667;0.12083333333333712;71;0.3828125;violin
89.25;0.12083333333333712;57;0.3828125;violin
89.25;0.12083333333333712;69;0.3828125;violin
89.37291666666667;0.12083333333333712;59;0.3828125;violin
89.37291666666667;0.12083333333333712;71;0.3828125;violin
89.5;0.12083333333333712;57;0.3828125;violin
89.5;0.12083333333333712;69;0.3828125;violin
89.62291666666667;0.12083333333333712;59;0.3828125;violin
89.62291666666667;0.12083333333333712;71;0.3828125;violin
89.75;0.12083333333333712;57;0.3828125;violin
89.75;0.12083333333333712;69;0.3828125;violin
89.87291666666667;0.12083333333333712;59;0.3828125;violin
89.87291666666667;0.12083333333333712;71;0.3828125;violin
90.0;0.12083333333333712;59;0.3828125;violin
90.0;0.12083333333333712;71;0.3828125;violin
90.12291666666667;0.12083333333333712;60;0.3828125;violin
90.12291666666667;0.12083333333333712;72;0.3828125;violin
90.25;0.12083333333333712;59;0.3828125;violin
90.25;0.12083333333333712;71;0.3828125;violin
90.37291666666667;0.12083333333333712;60;0.3828125;violin
90.37291666666667;0.12083333333333712;72;0.3828125;violin
90.5;0.12083333333333712;59;0.3828125;violin
90.5;0.12083333333333712;71;0.3828125;violin
90.62291666666667;0.12083333333333712;60;0.3828125;violin
90.62291666666667;0.12083333333333712;72;0.3828125;violin
90.75;0.12083333333333712;59;0.3828125;violin
90.75;0.12083333333333712;71;0.3828125;violin
90.87291666666667;0.12083333333333712;60;0.3828125;violin
90.87291666666667;0.12083333333333712;72;0.3828125;violin
91.0;0.12083333333333712;59;0.3828125;violin
91.0;0.12083333333333712;71;0.3828125;violin
91.12291666666667;0.12083333333333712;60;0.3828125;violin
91.12291666666667;0.12083333333333712;72;0.3828125;violin
91.25;0.12083333333333712;59;0.3828125;violin
91.25;0.12083333333333712;71;0.3828125;violin
91.37291666666667;0.12083333333333712;60;0.3828125;violin
91.37291666666667;0.12083333333333712;72;0.3828125;violin
91.5;0.12083333333333712;59;0.3828125;violin
91.5;0.12083333333333712;71;0.3828125;violin
91.62291666666667;0.12083333333333712;60;0.3828125;violin
91.62291666666667;0.12083333333333712;72;0.3828125;violin
91.75;0.12083333333333712;59;0.3828125;violin
91.75;0.12083333333333712;71;0.3828125;violin
91.87291666666667;0.12083333333333712;60;0.3828125;violin
91.87291666666667;0.12083333333333712;72;0.3828125;violin
92.0;0.12083333333333712;64;0.3828125;violin
92.12291666666667;0.12083333333333712;66;0.3828125;violin
92.24791666666667;0.12083333333333712;64;0.3828125;violin
92.375;0.12083333333333712;66;0.3828125;violin
92.49791666666667;0.12083333333333712;64;0.3828125;violin
92.62291666666667;0.12083333333333712;66;0.3828125;violin
92.75;0.12083333333333712;64;0.3828125;violin
92.87291666666667;0.12083333333333712;66;0.3828125;violin
92.99791666666667;0.12083333333333712;64;0.3828125;violin
93.125;0.12083333333333712;66;0.3828125;violin
93.24791666666667;0.12083333333333712;64;0.3828125;violin
93.37291666666667;0.12083333333333712;66;0.3828125;violin
93.5;0.12083333333333712;64;0.3828125;violin
93.62291666666667;0.12083333333333712;66;0.3828125;violin
93.74791666666667;0.12083333333333712;64;0.3828125;violin
93.875;0.12083333333333712;66;0.3828125;violin
93.99791666666667;0.12083333333333712;64;0.3828125;violin
94.12291666666667;0.12083333333333712;66;0.3828125;violin
94.25;0.12083333333333712;64;0.3828125;violin
94.37291666666667;0.12083333333333712;66;0.3828125;violin
94.49791666666667;0.12083333333333712;64;0.3828125;violin
94.625;0.12083333333333712;66;0.3828125;violin
94.74791666666667;0.12083333333333712;64;0.3828125;violin
94.87291666666667;0.12083333333333712;66;0.3828125;violin
96.99791666666667;0.09916666666666174;64;0.3828125;violin
97.09791666666666;0.09916666666667595;68;0.3828125;violin
97.19791666666667;0.09916666666666174;71;0.3828125;violin
97.29791666666667;0.09916666666667595;76;0.3828125;violin
97.39791666666667;0.09916666666666174;80;0.3828125;violin
97.49791666666667;0.09916666666666174;76;0.3828125;violin
97.59791666666666;0.09916666666667595;70;0.3828125;violin
97.69791666666667;0.09916666666666174;71;0.3828125;violin
97.79791666666667;0.09916666666667595;82;0.3828125;violin
97.89791666666667;0.09916666666666174;83;0.3828125;violin
97.99791666666667;0.09916666666666174;79;0.3828125;violin
98.09791666666666;0.09916666666667595;81;0.3828125;violin
98.19791666666667;0.09916666666666174;80;0.3828125;violin
98.29791666666667;0.09916666666667595;75;0.3828125;violin
98.39791666666667;0.09916666666666174;78;0.3828125;violin
98.49791666666667;0.09916666666666174;76;0.3828125;violin
98.59791666666666;0.09916666666667595;72;0.3828125;violin
98.69791666666667;0.09916666666666174;75;0.3828125;violin
98.79791666666667;0.09916666666667595;73;0.3828125;violin
98.89791666666667;0.09916666666666174;68;0.3828125;violin
98.99791666666667;0.09916666666666174;71;0.3828125;violin
99.09791666666666;0.09916666666667595;69;0.3828125;violin
99.19791666666667;0.09916666666666174;65;0.3828125;violin
99.29791666666667;0.09916666666667595;66;0.3828125;violin
99.39791666666667;0.09916666666666174;63;0.3828125;violin
99.49791666666667;0.09916666666666174;66;0.3828125;violin
99.59791666666666;0.09916666666667595;60;0.3828125;violin
99.69791666666667;0.09916666666666174;59;0.3828125;violin
99.79791666666667;0.09916666666667595;63;0.3828125;violin
99.89791666666667;0.09916666666666174;66;0.3828125;violin
99.99791666666667;0.09916666666666174;69;0.3828125;violin
100.09791666666666;0.09916666666667595;72;0.3828125;violin
100.19791666666667;0.09916666666666174;71;0.3828125;violin
100.29791666666667;0.09916666666667595;75;0.3828125;violin
100.39791666666667;0.09916666666666174;78;0.3828125;violin
100.49791666666667;0.09916666666666174;80;0.3828125;violin
100.59791666666666;0.09916666666667595;83;0.3828125;violin
100.69791666666667;0.09916666666666174;81;0.3828125;violin
100.79791666666667;0.09916666666667595;77;0.3828125;violin
100.89791666666667;0.09916666666666174;78;0.3828125;violin
100.99791666666667;0.09916666666666174;75;0.3828125;violin
101.09791666666666;0.09916666666667595;72;0.3828125;violin
101.19791666666667;0.09916666666666174;70;0.3828125;violin
101.29791666666667;0.09916666666667595;73;0.3828125;violin
101.39791666666667;0.09916666666666174;71;0.3828125;violin
101.49791666666667;0.09916666666666174;68;0.3828125;violin
101.59791666666666;0.09916666666667595;63;0.3828125;violin
101.69791666666667;0.09916666666666174;64;0.3828125;violin
101.79791666666667;0.09916666666667595;80;0.3828125;violin
101.89791666666667;0.09916666666666174;78;0.3828125;violin
101.99791666666667;0.09916666666666174;75;0.3828125;violin
102.09791666666666;0.09916666666667595;73;0.3828125;violin
102.19791666666667;0.09916666666666174;72;0.3828125;violin
102.29791666666667;0.09916666666667595;81;0.3828125;violin
102.39791666666667;0.09916666666666174;79;0.3828125;violin
102.49791666666667;0.09916666666666174;80;0.3828125;violin
102.59791666666666;0.09916666666667595;75;0.3828125;violin
102.69791666666667;0.09916666666666174;76;0.3828125;violin
102.79791666666667;0.09916666666667595;72;0.3828125;violin
102.89791666666667;0.09916666666666174;73;0.3828125;violin
102.99791666666667;0.09916666666666174;78;0.3828125;violin
103.09791666666666;0.09916666666667595;76;0.3828125;violin
103.19791666666667;0.09916666666666174;73;0.3828125;violin
103.29791666666667;0.09916666666667595;71;0.3828125;violin
103.39791666666667;0.09916666666666174;70;0.3828125;violin
103.49791666666667;0.09916666666666174;80;0.3828125;violin
103.59791666666666;0.09916666666667595;77;0.3828125;violin
103.69791666666667;0.09916666666666174;78;0.3828125;violin
103.79791666666667;0.09916666666667595;74;0.3828125;violin
103.89791666666667;0.09916666666666174;75;0.3828125;violin
103.99791666666667;0.09916666666666174;70;0.3828125;violin
104.09791666666666;0.09916666666667595;71;0.3828125;violin
104.19791666666667;0.09916666666666174;80;0.3828125;violin
104.29791666666667;0.09916666666667595;76;0.3828125;violin
104.39791666666667;0.09916666666666174;83;0.3828125;violin
104.49791666666667;0.09916666666666174;80;0.3828125;violin
104.59791666666666;0.09916666666667595;78;0.3828125;violin
104.69791666666667;0.04916666666666458;63;0.3828125;violin
104.79791666666667;0.09916666666667595;76;0.3828125;violin
104.89791666666667;0.09916666666666174;73;0.3828125;violin
104.99791666666667;0.09916666666666174;80;0.3828125;violin
105.09791666666666;0.09916666666667595;76;0.3828125;violin
105.19791666666667;0.09916666666666174;75;0.3828125;violin
105.29791666666667;0.04916666666666458;59;0.3828125;violin
105.39791666666667;0.09916666666666174;64;0.5703125;violin
105.49791666666667;0.09916666666666174;71;0.3828125;violin
105.59791666666666;0.09916666666667595;68;0.3828125;violin
105.69791666666667;0.09916666666666174;66;0.3828125;violin
105.79791666666667;0.09916666666667595;65;0.5703125;violin
105.89791666666667;0.09916666666666174;73;0.3828125;violin
105.99791666666667;0.09916666666666174;70;0.3828125;violin
106.09791666666666;0.09916666666667595;68;0.3828125;violin
106.19791666666667;0.09916666666666174;66;0.5703125;violin
106.29791666666667;0.09916666666667595;75;0.3828125;violin
106.39791666666667;0.09916666666666174;71;0.3828125;violin
106.49791666666667;0.09916666666666174;70;0.3828125;violin
106.59791666666666;0.09916666666667595;68;0.5703125;violin
106.69791666666667;0.09916666666666174;76;0.3828125;violin
106.79791666666667;0.09916666666667595;73;0.3828125;violin
106.89791666666667;0.09916666666666174;71;0.3828125;violin
106.99791666666667;0.09916666666666174;70;0.5703125;violin
107.09791666666666;0.09916666666667595;78;0.3828125;violin
107.19791666666667;0.09916666666666174;75;0.3828125;violin
107.29791666666667;0.09916666666667595;73;0.3828125;violin
107.39791666666667;0.09916666666666174;71;0.5703125;violin
107.49791666666667;0.09916666666666174;83;0.3828125;violin
107.59791666666666;0.09916666666667595;82;0.3828125;violin
107.69791666666667;0.09916666666666174;81;0.3828125;violin
107.79791666666667;0.09916666666667595;78;0.3828125;violin
107.89791666666667;0.09916666666666174;79;0.3828125;violin
107.99791666666667;0.09916666666666174;83;0.3828125;violin
108.09791666666666;0.09916666666667595;79;0.3828125;violin
108.19791666666667;0.09916666666666174;74;0.3828125;violin
108.29791666666667;0.09916666666667595;71;0.3828125;violin
108.39791666666667;0.09916666666666174;67;0.3828125;violin
108.49791666666667;0.09916666666666174;71;0.3828125;violin
108.59791666666666;0.09916666666667595;66;0.3828125;violin
108.69791666666667;0.09916666666666174;71;0.3828125;violin
108.79791666666667;0.09916666666667595;65;0.3828125;violin
108.89791666666667;0.09916666666666174;83;0.3828125;violin
108.99791666666667;0.09916666666666174;78;0.3828125;violin
109.09791666666666;0.09916666666667595;75;0.3828125;violin
109.19791666666667;0.09916666666666174;66;0.3828125;violin
109.29791666666667;0.09916666666667595;63;0.3828125;violin
109.39791666666667;0.09916666666666174;64;0.3828125;violin
109.49791666666667;0.09916666666666174;61;0.3828125;violin
109.59791666666666;0.04916666666667879;59;0.3828125;violin
109.69791666666667;0.09916666666666174;83;0.3828125;violin
109.79791666666667;0.09916666666667595;82;0.3828125;violin
109.89791666666667;0.09916666666666174;83;0.3828125;violin
109.99791666666667;0.09916666666666174;81;0.3828125;violin
110.09791666666666;0.09916666666667595;82;0.3828125;violin
110.19791666666667;0.09916666666666174;79;0.3828125;violin
110.29791666666667;0.09916666666667595;80;0.3828125;violin
110.39791666666667;0.09916666666666174;77;0.3828125;violin
110.49791666666667;0.09916666666666174;78;0.3828125;violin
110.59791666666666;0.09916666666667595;75;0.3828125;violin
110.69791666666667;0.09916666666666174;76;0.3828125;violin
110.79791666666667;0.09916666666667595;74;0.3828125;violin
110.89791666666667;0.09916666666666174;75;0.3828125;violin
110.99791666666667;0.09916666666666174;72;0.3828125;violin
111.09791666666666;0.09916666666667595;73;0.3828125;violin
111.19791666666667;0.09916666666666174;70;0.3828125;violin
111.29791666666667;0.09916666666667595;71;0.3828125;violin
111.39791666666667;0.09916666666666174;67;0.3828125;violin
111.49791666666667;0.09916666666666174;68;0.3828125;violin
111.59791666666666;0.09916666666667595;66;0.3828125;violin
111.69791666666667;0.09916666666666174;63;0.3828125;violin
111.79791666666667;0.09916666666667595;64;0.3828125;violin
111.89791666666667;0.09916666666666174;61;0.3828125;violin
111.99791666666667;0.19916666666667027;59;0.3828125;violin
112.19791666666667;0.19916666666667027;71;0.3828125;violin
112.59791666666666;0.09916666666667595;64;0.3828125;violin
112.69791666666667;0.09916666666666174;68;0.3828125;violin
112.79791666666667;0.09916666666667595;71;0.3828125;violin
112.89791666666667;0.09916666666666174;76;0.3828125;violin
112.99791666666667;0.09916666666666174;80;0.3828125;violin
113.09791666666666;0.09916666666667595;76;0.3828125;violin
113.19791666666667;0.09916666666666174;70;0.3828125;violin
113.29791666666667;0.09916666666667595;71;0.3828125;violin
113.39791666666667;0.09916666666666174;82;0.3828125;violin
113.49791666666667;0.09916666666666174;83;0.3828125;violin
113.59791666666666;0.09916666666667595;79;0.3828125;violin
113.69791666666667;0.09916666666666174;81;0.3828125;violin
113.79791666666667;0.09916666666667595;80;0.3828125;violin
113.89791666666667;0.09916666666666174;75;0.3828125;violin
113.99791666666667;0.09916666666666174;78;0.3828125;violin
114.09791666666666;0.09916666666667595;76;0.3828125;violin
114.19791666666667;0.09916666666666174;72;0.3828125;violin
114.29791666666667;0.09916666666667595;75;0.3828125;violin
114.39791666666667;0.09916666666666174;73;0.3828125;violin
114.49791666666667;0.09916666666666174;68;0.3828125;violin
114.59791666666666;0.09916666666667595;71;0.3828125;violin
114.69791666666667;0.09916666666666174;69;0.3828125;violin
114.79791666666667;0.09916666666667595;65;0.3828125;violin
114.89791666666667;0.09916666666666174;66;0.3828125;violin
114.99791666666667;0.09916666666666174;63;0.3828125;violin
115.09791666666666;0.09916666666667595;66;0.3828125;violin
115.19791666666667;0.09916666666666174;60;0.3828125;violin
115.29791666666667;0.09916666666667595;59;0.3828125;violin
115.39791666666667;0.09916666666666174;63;0.3828125;violin
115.49791666666667;0.09916666666666174;66;0.3828125;violin
115.59791666666666;0.09916666666667595;69;0.3828125;violin
115.69791666666667;0.09916666666666174;72;0.3828125;violin
115.79791666666667;0.09916666666667595;71;0.3828125;violin
115.89791666666667;0.09916666666666174;75;0.3828125;violin
115.99791666666667;0.09916666666666174;78;0.3828125;violin
116.09791666666666;0.09916666666667595;80;0.3828125;violin
116.19791666666667;0.09916666666666174;83;0.3828125;violin
116.29791666666667;0.09916666666667595;81;0.3828125;violin
116.39791666666667;0.09916666666666174;77;0.3828125;violin
116.49791666666667;0.09916666666666174;78;0.3828125;violin
116.59791666666666;0.09916666666667595;75;0.3828125;violin
116.69791666666667;0.09916666666666174;72;0.3828125;violin
116.79791666666667;0.09916666666667595;70;0.3828125;violin
116.89791666666667;0.09916666666666174;73;0.3828125;violin
116.99791666666667;0.09916666666666174;71;0.3828125;violin
117.09791666666666;0.09916666666667595;68;0.3828125;violin
117.19791666666667;0.09916666666666174;63;0.3828125;violin
117.29791666666667;0.09916666666667595;64;0.3828125;violin
117.39791666666667;0.09916666666666174;80;0.3828125;violin
117.49791666666667;0.09916666666666174;78;0.3828125;violin
117.59791666666666;0.09916666666667595;75;0.3828125;violin
117.69791666666667;0.09916666666666174;73;0.3828125;violin
117.79791666666667;0.09916666666667595;72;0.3828125;violin
117.89791666666667;0.09916666666666174;81;0.3828125;violin
117.99791666666667;0.09916666666666174;79;0.3828125;violin
118.09791666666666;0.09916666666667595;80;0.3828125;violin
118.19791666666667;0.09916666666666174;75;0.3828125;violin
118.29791666666667;0.09916666666667595;76;0.3828125;violin
118.39791666666667;0.09916666666666174;72;0.3828125;violin
118.49791666666667;0.09916666666666174;73;0.3828125;violin
118.59791666666666;0.09916666666667595;78;0.3828125;violin
118.69791666666667;0.09916666666666174;76;0.3828125;violin
118.79791666666667;0.09916666666667595;73;0.3828125;violin
118.89791666666667;0.09916666666666174;71;0.3828125;violin
118.99791666666667;0.09916666666666174;70;0.3828125;violin
119.09791666666666;0.09916666666667595;80;0.3828125;violin
119.19791666666667;0.09916666666666174;77;0.3828125;violin
119.29791666666667;0.09916666666667595;78;0.3828125;violin
119.39791666666667;0.09916666666666174;74;0.3828125;violin
119.49791666666667;0.09916666666666174;75;0.3828125;violin
119.59791666666666;0.09916666666667595;70;0.3828125;violin
119.69791666666667;0.09916666666666174;71;0.3828125;violin
119.79791666666667;0.09916666666667595;80;0.3828125;violin
119.89791666666667;0.09916666666666174;76;0.3828125;violin
119.99791666666667;0.09916666666666174;83;0.3828125;violin
120.09791666666666;0.09916666666667595;80;0.3828125;violin
120.19791666666667;0.09916666666666174;78;0.3828125;violin
120.29791666666667;0.04916666666666458;63;0.3828125;violin
120.39791666666667;0.09916666666666174;76;0.3828125;violin
120.49791666666667;0.09916666666666174;73;0.3828125;violin
120.59791666666666;0.09916666666667595;80;0.3828125;violin
120.69791666666667;0.09916666666666174;76;0.3828125;violin
120.79791666666667;0.09916666666667595;75;0.3828125;violin
120.89791666666667;0.04916666666666458;59;0.3828125;violin
120.99791666666667;0.09916666666666174;64;0.5703125;violin
121.09791666666666;0.09916666666667595;71;0.3828125;violin
121.19791666666667;0.09916666666666174;68;0.3828125;violin
121.29791666666667;0.09916666666667595;66;0.3828125;violin
121.39791666666667;0.09916666666666174;65;0.5703125;violin
121.49791666666667;0.09916666666666174;73;0.3828125;violin
121.59791666666666;0.09916666666667595;70;0.3828125;violin
121.69791666666667;0.09916666666666174;68;0.3828125;violin
121.79791666666667;0.09916666666667595;66;0.5703125;violin
121.89791666666667;0.09916666666666174;75;0.3828125;violin
121.99791666666667;0.09916666666666174;71;0.3828125;violin
122.09791666666666;0.09916666666667595;70;0.3828125;violin
122.19791666666667;0.09916666666666174;68;0.5703125;violin
122.29791666666667;0.09916666666667595;76;0.3828125;violin
122.39791666666667;0.09916666666666174;73;0.3828125;violin
122.49791666666667;0.09916666666666174;71;0.3828125;violin
122.59791666666666;0.09916666666667595;70;0.5703125;violin
122.69791666666667;0.09916666666666174;78;0.3828125;violin
122.79791666666667;0.09916666666667595;75;0.3828125;violin
122.89791666666667;0.09916666666666174;73;0.3828125;violin
122.99791666666667;0.09916666666666174;71;0.5703125;violin
123.09791666666666;0.09916666666667595;83;0.3828125;violin
123.19791666666667;0.09916666666666174;82;0.3828125;violin
123.29791666666667;0.09916666666667595;81;0.3828125;violin
123.39791666666667;0.09916666666666174;78;0.3828125;violin
123.49791666666667;0.09916666666666174;79;0.3828125;violin
123.59791666666666;0.09916666666667595;83;0.3828125;violin
123.69791666666667;0.09916666666666174;79;0.3828125;violin
123.79791666666667;0.09916666666667595;74;0.3828125;violin
123.89791666666667;0.09916666666666174;71;0.3828125;violin
123.99791666666667;0.09916666666666174;67;0.3828125;violin
124.09791666666666;0.09916666666667595;71;0.3828125;violin
124.19791666666667;0.09916666666666174;66;0.3828125;violin
124.29791666666667;0.09916666666667595;71;0.3828125;violin
124.39791666666667;0.09916666666666174;65;0.3828125;violin
124.49791666666667;0.09916666666666174;83;0.3828125;violin
124.59791666666666;0.09916666666667595;78;0.3828125;violin
124.69791666666667;0.09916666666666174;75;0.3828125;violin
124.79791666666667;0.09916666666667595;66;0.3828125;violin
124.89791666666667;0.09916666666666174;63;0.3828125;violin
124.99791666666667;0.09916666666666174;64;0.3828125;violin
125.09791666666666;0.09916666666667595;61;0.3828125;violin
125.19791666666667;0.04916666666666458;59;0.3828125;violin
125.29791666666667;0.09916666666667595;83;0.3828125;violin
125.39791666666667;0.09916666666666174;82;0.3828125;violin
125.49791666666667;0.09916666666666174;83;0.3828125;violin
125.59791666666666;0.09916666666667595;81;0.3828125;violin
125.69791666666667;0.09916666666666174;82;0.3828125;violin
125.79791666666667;0.09916666666667595;79;0.3828125;violin
125.89791666666667;0.09916666666666174;80;0.3828125;violin
125.99791666666667;0.09916666666666174;77;0.3828125;violin
126.09791666666666;0.09916666666667595;78;0.3828125;violin
126.19791666666667;0.09916666666666174;75;0.3828125;violin
126.29791666666667;0.09916666666667595;76;0.3828125;violin
126.39791666666667;0.09916666666666174;74;0.3828125;violin
126.49791666666667;0.09916666666666174;75;0.3828125;violin
126.59791666666666;0.09916666666667595;72;0.3828125;violin
126.69791666666667;0.09916666666666174;73;0.3828125;violin
126.79791666666667;0.09916666666667595;70;0.3828125;violin
126.89791666666667;0.09916666666666174;71;0.3828125;violin
126.99791666666667;0.09916666666666174;67;0.3828125;violin
127.09791666666666;0.09916666666667595;68;0.3828125;violin
127.19791666666667;0.09916666666666174;66;0.3828125;violin
127.29791666666667;0.09916666666667595;63;0.3828125;violin
127.39791666666667;0.09916666666666174;64;0.3828125;violin
127.49791666666667;0.09916666666666174;61;0.3828125;violin
127.59791666666666;0.19916666666667027;59;0.3828125;violin
127.79791666666667;0.19916666666667027;71;0.3828125;violin
128.19791666666669;0.09916666666666174;59;0.3828125;violin
128.29791666666668;0.09916666666666174;63;0.3828125;violin
128.39791666666667;0.09916666666666174;66;0.3828125;violin
128.49791666666667;0.09916666666666174;71;0.3828125;violin
128.59791666666666;0.09916666666669016;75;0.3828125;violin
128.69791666666669;0.09916666666666174;71;0.3828125;violin
128.79791666666668;0.09916666666666174;78;0.3828125;violin
128.89791666666667;0.09916666666666174;75;0.3828125;violin
128.99791666666667;0.09916666666666174;83;0.3828125;violin
129.09791666666666;0.09916666666669016;78;0.3828125;violin
129.19791666666669;0.09916666666666174;75;0.3828125;violin
129.29791666666668;0.09916666666666174;71;0.3828125;violin
129.39791666666667;0.09916666666666174;59;0.3828125;violin
129.49791666666667;0.09916666666666174;62;0.3828125;violin
129.59791666666666;0.09916666666669016;66;0.3828125;violin
129.69791666666669;0.09916666666666174;71;0.3828125;violin
129.79791666666668;0.09916666666666174;74;0.3828125;violin
129.89791666666667;0.09916666666666174;71;0.3828125;violin
129.99791666666667;0.09916666666666174;78;0.3828125;violin
130.09791666666666;0.09916666666669016;74;0.3828125;violin
130.19791666666669;0.09916666666666174;83;0.3828125;violin
130.29791666666668;0.09916666666666174;78;0.3828125;violin
130.39791666666667;0.09916666666666174;74;0.3828125;violin
130.49791666666667;0.09916666666666174;71;0.3828125;violin
130.59791666666666;0.09916666666669016;72;0.3828125;violin
130.69791666666669;0.09916666666666174;84;0.3828125;violin
130.79791666666668;0.09916666666666174;71;0.3828125;violin
130.89791666666667;0.09916666666666174;84;0.3828125;violin
130.99791666666667;0.09916666666666174;69;0.3828125;violin
131.09791666666666;0.09916666666669016;84;0.3828125;violin
131.19791666666669;0.09916666666666174;67;0.3828125;violin
131.29791666666668;0.09916666666666174;84;0.3828125;violin
131.39791666666667;0.09916666666666174;65;0.3828125;violin
131.49791666666667;0.09916666666666174;84;0.3828125;violin
131.59791666666666;0.09916666666669016;64;0.3828125;violin
131.69791666666669;0.09916666666666174;84;0.3828125;violin
131.79791666666668;0.09916666666666174;62;0.3828125;violin
131.89791666666667;0.09916666666666174;64;0.3828125;violin
131.99791666666667;0.09916666666666174;62;0.3828125;violin
132.09791666666666;0.09916666666669016;59;0.3828125;violin
132.19791666666669;0.09916666666666174;60;0.3828125;violin
132.29791666666668;0.09916666666666174;57;0.3828125;violin
132.39791666666667;0.09916666666666174;55;0.3828125;violin
132.49791666666667;0.09916666666666174;86;0.5703125;violin
132.59791666666666;0.09916666666669016;85;0.3828125;violin
132.69791666666669;0.09916666666666174;86;0.3828125;violin
132.79791666666668;0.09916666666666174;83;0.3828125;violin
132.89791666666667;0.09916666666666174;79;0.3828125;violin
132.99791666666667;0.09916666666666174;76;0.3828125;violin
133.09791666666666;0.09916666666669016;84;0.5703125;violin
133.19791666666669;0.09916666666666174;83;0.3828125;violin
133.29791666666668;0.09916666666666174;84;0.3828125;violin
133.39791666666667;0.09916666666666174;81;0.3828125;violin
133.49791666666667;0.09916666666666174;78;0.3828125;violin
133.59791666666666;0.09916666666669016;75;0.3828125;violin
133.69791666666669;0.09916666666666174;83;0.5703125;violin
133.79791666666668;0.09916666666666174;82;0.3828125;violin
133.89791666666667;0.09916666666666174;83;0.3828125;violin
133.99791666666667;0.09916666666666174;79;0.3828125;violin
134.09791666666666;0.09916666666669016;76;0.3828125;violin
134.19791666666669;0.09916666666666174;73;0.3828125;violin
134.29791666666668;0.09916666666666174;81;0.5703125;violin
134.39791666666667;0.09916666666666174;80;0.3828125;violin
134.49791666666667;0.09916666666666174;81;0.3828125;violin
134.59791666666666;0.09916666666669016;77;0.3828125;violin
134.69791666666669;0.09916666666666174;74;0.3828125;violin
134.79791666666668;0.09916666666666174;71;0.3828125;violin
134.89791666666667;0.09916666666666174;79;0.5703125;violin
134.99791666666667;0.09916666666666174;78;0.3828125;violin
135.09791666666666;0.09916666666669016;79;0.3828125;violin
135.19791666666669;0.09916666666666174;77;0.3828125;violin
135.29791666666668;0.09916666666666174;74;0.3828125;violin
135.39791666666667;0.09916666666666174;72;0.3828125;violin
135.49791666666667;0.09916666666666174;76;0.3828125;violin
135.59791666666666;0.09916666666669016;71;0.3828125;violin
135.69791666666669;0.09916666666666174;76;0.3828125;violin
135.79791666666668;0.09916666666666174;69;0.3828125;violin
135.89791666666667;0.09916666666666174;76;0.3828125;violin
135.99791666666667;0.09916666666666174;67;0.3828125;violin
136.09791666666666;0.09916666666669016;76;0.3828125;violin
136.19791666666669;0.09916666666666174;65;0.3828125;violin
136.29791666666668;0.09916666666666174;76;0.3828125;violin
136.39791666666667;0.09916666666666174;64;0.3828125;violin
136.49791666666667;0.09916666666666174;76;0.3828125;violin
136.59791666666666;0.09916666666669016;69;0.3828125;violin
136.69791666666669;0.09916666666666174;72;0.3828125;violin
136.79791666666668;0.09916666666666174;67;0.3828125;violin
136.89791666666667;0.09916666666666174;72;0.3828125;violin
136.99791666666667;0.09916666666666174;65;0.3828125;violin
137.09791666666666;0.09916666666669016;72;0.3828125;violin
137.19791666666669;0.09916666666666174;64;0.3828125;violin
137.29791666666668;0.09916666666666174;72;0.3828125;violin
137.39791666666667;0.09916666666666174;62;0.3828125;violin
137.49791666666667;0.09916666666666174;72;0.3828125;violin
137.59791666666666;0.09916666666669016;60;0.3828125;violin
137.69791666666669;0.09916666666666174;72;0.3828125;violin
137.79791666666668;0.09916666666666174;65;0.3828125;violin
137.89791666666667;0.09916666666666174;77;0.5703125;violin
137.99791666666667;0.09916666666666174;76;0.3828125;violin
138.09791666666666;0.09916666666669016;77;0.3828125;violin
138.19791666666669;0.09916666666666174;72;0.3828125;violin
138.29791666666668;0.09916666666666174;69;0.3828125;violin
138.39791666666667;0.09916666666666174;66;0.3828125;violin
138.49791666666667;0.09916666666666174;75;0.5703125;violin
138.59791666666666;0.09916666666669016;74;0.3828125;violin
138.69791666666669;0.09916666666666174;75;0.3828125;violin
138.79791666666668;0.09916666666666174;72;0.3828125;violin
138.89791666666667;0.09916666666666174;69;0.3828125;violin
138.99791666666667;0.09916666666666174;67;0.3828125;violin
139.09791666666666;0.09916666666669016;79;0.3828125;violin
139.19791666666669;0.09916666666666174;78;0.3828125;violin
139.29791666666668;0.09916666666666174;79;0.3828125;violin
139.39791666666667;0.09916666666666174;74;0.3828125;violin
139.49791666666667;0.09916666666666174;71;0.3828125;violin
139.59791666666666;0.09916666666669016;68;0.3828125;violin
139.69791666666669;0.09916666666666174;77;0.5703125;violin
139.79791666666668;0.09916666666666174;76;0.3828125;violin
139.89791666666667;0.09916666666666174;77;0.3828125;violin
139.99791666666667;0.09916666666666174;74;0.3828125;violin
140.09791666666666;0.09916666666669016;71;0.3828125;violin
140.19791666666669;0.09916666666666174;69;0.3828125;violin
140.29791666666668;0.09916666666666174;76;0.3828125;violin
140.39791666666667;0.09916666666666174;73;0.3828125;violin
140.49791666666667;0.09916666666666174;69;0.3828125;violin
140.59791666666666;0.09916666666669016;77;0.3828125;violin
140.69791666666669;0.09916666666666174;74;0.3828125;violin
140.79791666666668;0.09916666666666174;69;0.3828125;violin
140.89791666666667;0.09916666666666174;79;0.3828125;violin
140.99791666666667;0.09916666666666174;76;0.3828125;violin
141.09791666666666;0.09916666666669016;69;0.3828125;violin
141.19791666666669;0.09916666666666174;81;0.3828125;violin
141.29791666666668;0.09916666666666174;77;0.3828125;violin
141.39791666666667;0.09916666666666174;67;0.3828125;violin
141.49791666666667;0.09916666666666174;74;0.3828125;violin
141.59791666666666;0.09916666666669016;71;0.3828125;violin
141.69791666666669;0.09916666666666174;67;0.3828125;violin
141.79791666666668;0.09916666666666174;76;0.3828125;violin
141.89791666666667;0.09916666666666174;72;0.3828125;violin
141.99791666666667;0.09916666666666174;67;0.3828125;violin
142.09791666666666;0.09916666666669016;77;0.3828125;violin
142.19791666666669;0.09916666666666174;74;0.3828125;violin
142.29791666666668;0.09916666666666174;67;0.3828125;violin
142.39791666666667;0.09916666666666174;79;0.3828125;violin
142.49791666666667;0.09916666666666174;75;0.3828125;violin
142.59791666666666;0.09916666666669016;65;0.3828125;violin
142.69791666666669;0.09916666666666174;72;0.3828125;violin
142.79791666666668;0.09916666666666174;69;0.3828125;violin
142.89791666666667;0.09916666666666174;65;0.3828125;violin
142.99791666666667;0.09916666666666174;74;0.3828125;violin
143.09791666666666;0.09916666666669016;70;0.3828125;violin
143.19791666666669;0.09916666666666174;65;0.3828125;violin
143.29791666666668;0.09916666666666174;75;0.3828125;violin
143.39791666666667;0.09916666666666174;72;0.3828125;violin
143.49791666666667;0.09916666666666174;69;0.3828125;violin
143.59791666666666;0.09916666666669016;63;0.3828125;violin
143.69791666666669;0.09916666666666174;60;0.3828125;violin
143.79791666666668;0.09916666666666174;58;0.3828125;violin
143.89791666666667;0.09916666666666174;62;0.3828125;violin
143.99791666666667;0.09916666666666174;65;0.3828125;violin
144.09791666666666;0.09916666666669016;70;0.3828125;violin
144.19791666666669;0.09916666666666174;74;0.3828125;violin
144.29791666666668;0.09916666666666174;70;0.3828125;violin
144.39791666666667;0.09916666666666174;64;0.3828125;violin
144.49791666666667;0.09916666666666174;65;0.3828125;violin
144.59791666666666;0.09916666666669016;76;0.3828125;violin
144.69791666666669;0.09916666666666174;77;0.3828125;violin
144.79791666666668;0.09916666666666174;73;0.3828125;violin
144.89791666666667;0.09916666666666174;75;0.3828125;violin
144.99791666666667;0.09916666666666174;74;0.3828125;violin
145.09791666666666;0.09916666666669016;69;0.3828125;violin
145.19791666666669;0.09916666666666174;72;0.3828125;violin
145.29791666666668;0.09916666666666174;70;0.3828125;violin
145.39791666666667;0.09916666666666174;66;0.3828125;violin
145.49791666666667;0.09916666666666174;69;0.3828125;violin
145.59791666666666;0.09916666666669016;67;0.3828125;violin
145.69791666666669;0.09916666666666174;62;0.3828125;violin
145.79791666666668;0.09916666666666174;65;0.3828125;violin
145.89791666666667;0.09916666666666174;63;0.3828125;violin
145.99791666666667;0.09916666666666174;60;0.3828125;violin
146.09791666666666;0.09916666666669016;58;0.3828125;violin
146.19791666666669;0.09916666666666174;57;0.3828125;violin
146.29791666666668;0.09916666666666174;60;0.3828125;violin
146.39791666666667;0.09916666666666174;63;0.3828125;violin
146.49791666666667;0.09916666666666174;66;0.3828125;violin
146.59791666666666;0.09916666666669016;65;0.3828125;violin
146.69791666666669;0.09916666666666174;69;0.3828125;violin
146.79791666666668;0.09916666666666174;72;0.3828125;violin
146.89791666666667;0.09916666666666174;75;0.3828125;violin
146.99791666666667;0.09916666666666174;78;0.3828125;violin
147.09791666666666;0.09916666666669016;77;0.3828125;violin
147.19791666666669;0.09916666666666174;81;0.3828125;violin
147.29791666666668;0.09916666666666174;84;0.3828125;violin
147.39791666666667;0.09916666666666174;87;0.3828125;violin
147.49791666666667;0.09916666666666174;84;0.3828125;violin
147.59791666666666;0.09916666666669016;81;0.3828125;violin
147.69791666666669;0.09916666666666174;77;0.3828125;violin
147.79791666666668;0.09916666666666174;78;0.3828125;violin
147.89791666666667;0.09916666666666174;75;0.3828125;violin
147.99791666666667;0.09916666666666174;73;0.3828125;violin
148.09791666666666;0.09916666666669016;75;0.3828125;violin
148.19791666666669;0.09916666666666174;74;0.3828125;violin
148.29791666666668;0.09916666666666174;69;0.3828125;violin
148.39791666666667;0.09916666666666174;72;0.3828125;violin
148.49791666666667;0.09916666666666174;70;0.3828125;violin
148.59791666666666;0.09916666666669016;66;0.3828125;violin
148.69791666666669;0.09916666666666174;69;0.3828125;violin
148.79791666666668;0.09916666666666174;67;0.3828125;violin
148.89791666666667;0.09916666666666174;71;0.3828125;violin
148.99791666666667;0.09916666666666174;74;0.3828125;violin
149.09791666666666;0.09916666666669016;72;0.3828125;violin
149.19791666666669;0.09916666666666174;68;0.3828125;violin
149.29791666666668;0.09916666666666174;70;0.3828125;violin
149.39791666666667;0.09916666666666174;69;0.3828125;violin
149.49791666666667;0.09916666666666174;73;0.3828125;violin
149.59791666666666;0.09916666666669016;75;0.3828125;violin
149.69791666666669;0.09916666666666174;74;0.3828125;violin
149.79791666666668;0.09916666666666174;69;0.3828125;violin
149.89791666666667;0.09916666666666174;72;0.3828125;violin
149.99791666666667;0.09916666666666174;70;0.3828125;violin
150.09791666666666;0.09916666666669016;80;0.3828125;violin
150.19791666666669;0.09916666666666174;77;0.3828125;violin
150.29791666666668;0.09916666666666174;74;0.3828125;violin
150.39791666666667;0.09916666666666174;82;0.3828125;violin
150.49791666666667;0.09916666666666174;79;0.3828125;violin
150.59791666666666;0.09916666666669016;75;0.3828125;violin
150.69791666666669;0.09916666666666174;70;0.3828125;violin
150.79791666666668;0.09916666666666174;67;0.3828125;violin
150.89791666666667;0.09916666666666174;63;0.3828125;violin
150.99791666666667;0.09916666666666174;82;0.3828125;violin
151.09791666666666;0.09916666666669016;78;0.3828125;violin
151.19791666666669;0.09916666666666174;75;0.3828125;violin
151.29791666666668;0.09916666666666174;70;0.3828125;violin
151.39791666666667;0.09916666666666174;66;0.3828125;violin
151.49791666666667;0.09916666666666174;63;0.3828125;violin
151.59791666666666;0.09916666666669016;83;0.3828125;violin
151.69791666666669;0.09916666666666174;78;0.3828125;violin
151.79791666666668;0.09916666666666174;75;0.3828125;violin
151.89791666666667;0.09916666666666174;71;0.3828125;violin
151.99791666666667;0.09916666666666174;66;0.3828125;violin
152.09791666666666;0.09916666666669016;63;0.3828125;violin
152.19791666666669;0.09916666666666174;59;0.3828125;violin
152.29791666666668;0.09916666666666174;71;0.3828125;violin
152.39791666666667;0.09916666666666174;70;0.3828125;violin
152.49791666666667;0.09916666666666174;71;0.3828125;violin
152.59791666666666;0.09916666666669016;69;0.3828125;violin
152.69791666666669;0.09916666666666174;66;0.3828125;violin
152.79791666666668;0.09916666666666174;64;0.3828125;violin
152.89791666666667;0.09916666666666174;68;0.3828125;violin
152.99791666666667;0.09916666666666174;71;0.3828125;violin
153.09791666666666;0.09916666666669016;76;0.3828125;violin
153.19791666666669;0.09916666666666174;80;0.3828125;violin
153.29791666666668;0.09916666666666174;76;0.3828125;violin
153.39791666666667;0.09916666666666174;70;0.3828125;violin
153.49791666666667;0.09916666666666174;71;0.3828125;violin
153.59791666666666;0.09916666666669016;82;0.3828125;violin
153.69791666666669;0.09916666666666174;83;0.3828125;violin
153.79791666666668;0.09916666666666174;79;0.3828125;violin
153.89791666666667;0.09916666666666174;81;0.3828125;violin
153.99791666666667;0.09916666666666174;80;0.3828125;violin
154.09791666666666;0.09916666666669016;75;0.3828125;violin
154.19791666666669;0.09916666666666174;78;0.3828125;violin
154.29791666666668;0.09916666666666174;76;0.3828125;violin
154.39791666666667;0.09916666666666174;72;0.3828125;violin
154.49791666666667;0.09916666666666174;75;0.3828125;violin
154.59791666666666;0.09916666666669016;73;0.3828125;violin
154.69791666666669;0.09916666666666174;70;0.3828125;violin
154.79791666666668;0.09916666666666174;67;0.3828125;violin
154.89791666666667;0.09916666666666174;64;0.3828125;violin
154.99791666666667;0.09916666666666174;61;0.3828125;violin
155.09791666666666;0.09916666666669016;59;0.3828125;violin
155.19791666666669;0.09916666666666174;58;0.3828125;violin
155.29791666666668;0.09916666666666174;61;0.3828125;violin
155.39791666666667;0.09916666666666174;64;0.3828125;violin
155.49791666666667;0.09916666666666174;67;0.3828125;violin
155.59791666666666;0.09916666666669016;70;0.3828125;violin
155.69791666666669;0.09916666666666174;73;0.3828125;violin
155.79791666666668;0.09916666666666174;76;0.3828125;violin
155.89791666666667;0.09916666666666174;79;0.3828125;violin
155.99791666666667;0.09916666666666174;82;0.3828125;violin
156.09791666666666;0.09916666666669016;85;0.3828125;violin
156.19791666666669;0.09916666666666174;82;0.3828125;violin
156.29791666666668;0.09916666666666174;88;0.3828125;violin
156.39791666666667;0.09916666666666174;85;0.3828125;violin
156.49791666666667;0.09916666666666174;91;0.3828125;violin
156.59791666666666;0.09916666666669016;88;0.3828125;violin
156.69791666666669;0.09916666666666174;85;0.3828125;violin
156.79791666666668;0.09916666666666174;82;0.3828125;violin
156.89791666666667;0.09916666666666174;85;0.3828125;violin
156.99791666666667;0.09916666666666174;83;0.3828125;violin
157.09791666666666;0.09916666666669016;88;0.3828125;violin
157.19791666666669;0.09916666666666174;87;0.3828125;violin
157.29791666666668;0.09916666666666174;88;0.3828125;violin
157.39791666666667;0.09916666666666174;86;0.3828125;violin
157.49791666666667;0.09916666666666174;87;0.3828125;violin
157.59791666666666;0.09916666666669016;84;0.3828125;violin
157.69791666666669;0.09916666666666174;85;0.3828125;violin
157.79791666666668;0.09916666666666174;82;0.3828125;violin
157.89791666666667;0.09916666666666174;83;0.3828125;violin
157.99791666666667;0.09916666666666174;80;0.3828125;violin
158.09791666666666;0.09916666666669016;81;0.3828125;violin
158.19791666666669;0.09916666666666174;79;0.3828125;violin
158.29791666666668;0.09916666666666174;80;0.3828125;violin
158.39791666666667;0.09916666666666174;77;0.3828125;violin
158.49791666666667;0.09916666666666174;78;0.3828125;violin
158.59791666666666;0.09916666666669016;75;0.3828125;violin
158.69791666666669;0.09916666666666174;76;0.3828125;violin
158.79791666666668;0.09916666666666174;70;0.3828125;violin
158.89791666666667;0.09916666666666174;73;0.3828125;violin
158.99791666666667;0.09916666666666174;71;0.3828125;violin
159.09791666666666;0.09916666666669016;68;0.3828125;violin
159.19791666666669;0.09916666666666174;69;0.3828125;violin
159.29791666666668;0.09916666666666174;66;0.3828125;violin
159.39791666666667;1.9979166666666686;64;0.75;violin
159.39791666666667;1.9979166666666686;76;0.75;violin
161.39791666666667;0.9979166666666686;66;0.75;violin
161.39791666666667;0.9979166666666686;78;0.75;violin
162.39791666666667;0.9979166666666686;67;0.75;violin
162.39791666666667;0.9979166666666686;79;0.75;violin
163.39791666666667;0.12083333333333712;59;0.75;violin
163.39791666666667;0.12083333333333712;71;0.75;violin
163.52083333333334;0.12083333333333712;60;0.75;violin
163.52083333333334;0.12083333333333712;72;0.75;violin
163.64583333333334;0.12083333333333712;59;0.75;violin
163.64583333333334;0.12083333333333712;71;0.75;violin
163.77291666666667;0.12083333333333712;60;0.75;violin
163.77291666666667;0.12083333333333712;72;0.75;violin
163.89583333333334;0.12083333333333712;59;0.75;violin
163.89583333333334;0.12083333333333712;71;0.75;violin
164.02083333333334;0.12083333333333712;60;0.75;violin
164.02083333333334;0.12083333333333712;72;0.75;violin
164.14791666666667;0.12083333333333712;59;0.75;violin
164.14791666666667;0.12083333333333712;71;0.75;violin
164.27083333333334;0.12083333333333712;60;0.75;violin
164.27083333333334;0.12083333333333712;72;0.75;violin
164.39583333333334;0.12083333333333712;59;0.75;violin
164.39583333333334;0.12083333333333712;71;0.75;violin
164.52291666666667;0.12083333333333712;60;0.75;violin
164.52291666666667;0.12083333333333712;72;0.75;violin
164.64583333333334;0.12083333333333712;59;0.75;violin
164.64583333333334;0.12083333333333712;71;0.75;violin
164.77083333333334;0.12083333333333712;60;0.75;violin
164.77083333333334;0.12083333333333712;72;0.75;violin
164.89791666666667;0.12083333333333712;59;0.75;violin
164.89791666666667;0.12083333333333712;71;0.75;violin
165.02083333333334;0.12083333333333712;60;0.75;violin
165.02083333333334;0.12083333333333712;72;0.75;violin
165.14583333333334;0.12083333333333712;59;0.75;violin
165.14583333333334;0.12083333333333712;71;0.75;violin
165.27291666666667;0.12083333333333712;60;0.75;violin
165.27291666666667;0.12083333333333712;72;0.75;violin
165.39583333333334;0.12083333333333712;59;0.75;violin
165.39583333333334;0.12083333333333712;71;0.75;violin
165.52083333333334;0.12083333333333712;60;0.75;violin
165.52083333333334;0.12083333333333712;72;0.75;violin
165.64791666666667;0.12083333333333712;59;0.75;violin
165.64791666666667;0.12083333333333712;71;0.75;violin
165.77083333333334;0.12083333333333712;60;0.75;violin
165.77083333333334;0.12083333333333712;72;0.75;violin
165.89583333333334;0.12083333333333712;59;0.75;violin
165.89583333333334;0.12083333333333712;71;0.75;violin
166.02291666666667;0.12083333333333712;60;0.75;violin
166.02291666666667;0.12083333333333712;72;0.75;violin
166.14583333333334;0.12083333333333712;59;0.75;violin
166.14583333333334;0.12083333333333712;71;0.75;violin
166.27083333333334;0.12083333333333712;60;0.75;violin
166.27083333333334;0.12083333333333712;72;0.75;violin
167.39791666666667;1.9979166666666686;66;0.75;violin
167.39791666666667;1.9979166666666686;78;0.75;violin
169.39791666666667;0.9979166666666686;69;0.75;violin
169.39791666666667;0.9979166666666686;81;0.75;violin
170.39791666666667;0.9979166666666686;67;0.75;violin
170.39791666666667;0.9979166666666686;79;0.75;violin
171.39791666666667;0.12083333333333712;64;0.75;violin
171.39791666666667;0.12083333333333712;76;0.75;violin
171.52083333333334;0.12083333333333712;66;0.75;violin
171.52083333333334;0.12083333333333712;78;0.75;violin
171.64583333333334;0.12083333333333712;64;0.75;violin
171.64583333333334;0.12083333333333712;76;0.75;violin
171.77291666666667;0.12083333333333712;66;0.75;violin
171.77291666666667;0.12083333333333712;78;0.75;violin
171.89583333333334;0.12083333333333712;64;0.75;violin
171.89583333333334;0.12083333333333712;76;0.75;violin
172.02083333333334;0.12083333333333712;66;0.75;violin
172.02083333333334;0.12083333333333712;78;0.75;violin
172.14791666666667;0.12083333333333712;64;0.75;violin
172.14791666666667;0.12083333333333712;76;0.75;violin
172.27083333333334;0.12083333333333712;66;0.75;violin
172.27083333333334;0.12083333333333712;78;0.75;violin
172.39583333333334;0.12083333333333712;64;0.75;violin
172.39583333333334;0.12083333333333712;76;0.75;violin
172.52291666666667;0.12083333333333712;66;0.75;violin
172.52291666666667;0.12083333333333712;78;0.75;violin
172.64583333333334;0.12083333333333712;64;0.75;violin
172.64583333333334;0.12083333333333712;76;0.75;violin
172.77083333333334;0.12083333333333712;66;0.75;violin
172.77083333333334;0.12083333333333712;78;0.75;violin
172.89791666666667;0.12083333333333712;64;0.75;violin
172.89791666666667;0.12083333333333712;76;0.75;violin
173.02083333333334;0.12083333333333712;66;0.75;violin
173.02083333333334;0.12083333333333712;78;0.75;violin
173.14583333333334;0.12083333333333712;64;0.75;violin
173.14583333333334;0.12083333333333712;76;0.75;violin
173.27291666666667;0.12083333333333712;66;0.75;violin
173.27291666666667;0.12083333333333712;78;0.75;violin
173.39583333333334;0.12083333333333712;64;0.75;violin
173.39583333333334;0.12083333333333712;76;0.75;violin
173.52083333333334;0.12083333333333712;66;0.75;violin
173.52083333333334;0.12083333333333712;78;0.75;violin
173.64791666666667;0.12083333333333712;64;0.75;violin
173.64791666666667;0.12083333333333712;76;0.75;violin
173.77083333333334;0.12083333333333712;66;0.75;violin
173.77083333333334;0.12083333333333712;78;0.75;violin
173.89583333333334;0.12083333333333712;64;0.75;violin
173.89583333333334;0.12083333333333712;76;0.75;violin
174.02291666666667;0.12083333333333712;66;0.75;violin
174.02291666666667;0.12083333333333712;78;0.75;violin
174.14583333333334;0.12083333333333712;64;0.75;violin
174.14583333333334;0.12083333333333712;76;0.75;violin
174.27083333333334;0.12083333333333712;66;0.75;violin
174.27083333333334;0.12083333333333712;78;0.75;violin
175.39791666666667;1.9979166666666686;76;0.75;violin
175.39791666666667;1.9979166666666686;88;0.75;violin
177.39791666666667;0.9979166666666686;78;0.75;violin
177.39791666666667;0.9979166666666686;90;0.75;violin
178.39791666666667;0.9979166666666686;79;0.75;violin
178.39791666666667;0.9979166666666686;91;0.75;violin
179.39791666666667;0.9979166666666686;81;0.75;violin
179.39791666666667;0.9979166666666686;93;0.75;violin
180.39791666666667;0.9979166666666686;69;0.75;violin
180.39791666666667;0.9979166666666686;81;0.75;violin
181.39791666666667;0.33125000000001137;84;0.75;violin
181.39791666666667;0.33125000000001137;96;0.75;violin
181.73125000000002;0.33124999999998295;83;0.75;violin
181.73125000000002;0.33124999999998295;95;0.75;violin
182.06458333333333;0.33125000000001137;86;0.75;violin
182.06458333333333;0.33125000000001137;98;0.75;violin
182.39791666666667;0.33125000000001137;84;0.75;violin
182.39791666666667;0.33125000000001137;96;0.75;violin
182.73125000000002;0.33124999999998295;81;0.75;violin
182.73125000000002;0.33124999999998295;93;0.75;violin
183.06458333333333;0.33125000000001137;77;0.75;violin
183.06458333333333;0.33125000000001137;89;0.75;violin
183.39791666666667;1.9979166666666686;76;0.75;violin
183.39791666666667;1.9979166666666686;88;0.75;violin
185.39791666666667;0.12083333333333712;71;0.75;violin
185.39791666666667;0.12083333333333712;83;0.75;violin
185.52083333333334;0.12083333333333712;72;0.75;violin
185.52083333333334;0.12083333333333712;84;0.75;violin
185.64791666666667;0.12083333333333712;71;0.75;violin
185.64791666666667;0.12083333333333712;83;0.75;violin
185.77083333333334;0.12083333333333712;72;0.75;violin
185.77083333333334;0.12083333333333712;84;0.75;violin
185.89791666666667;0.12083333333333712;71;0.75;violin
185.89791666666667;0.12083333333333712;83;0.75;violin
186.02083333333334;0.12083333333333712;72;0.75;violin
186.02083333333334;0.12083333333333712;84;0.75;violin
186.14791666666667;0.12083333333333712;71;0.75;violin
186.14791666666667;0.12083333333333712;83;0.75;violin
186.27083333333334;0.12083333333333712;72;0.75;violin
186.27083333333334;0.12083333333333712;84;0.75;violin
186.39791666666667;0.12083333333333712;71;0.75;violin
186.39791666666667;0.12083333333333712;83;0.75;violin
186.52083333333334;0.12083333333333712;72;0.75;violin
186.52083333333334;0.12083333333333712;84;0.75;violin
186.64791666666667;0.12083333333333712;71;0.75;violin
186.64791666666667;0.12083333333333712;83;0.75;violin
186.77083333333334;0.12083333333333712;72;0.75;violin
186.77083333333334;0.12083333333333712;84;0.75;violin
186.89791666666667;0.12083333333333712;71;0.75;violin
186.89791666666667;0.12083333333333712;83;0.75;violin
187.02083333333334;0.12083333333333712;72;0.75;violin
187.02083333333334;0.12083333333333712;84;0.75;violin
187.14791666666667;0.12083333333333712;71;0.75;violin
187.14791666666667;0.12083333333333712;83;0.75;violin
187.27083333333334;0.12083333333333712;72;0.75;violin
187.27083333333334;0.12083333333333712;84;0.75;violin
187.39791666666667;0.12083333333333712;76;0.75;violin
187.52083333333334;0.12083333333333712;78;0.75;violin
187.64583333333334;0.12083333333333712;76;0.75;violin
187.77291666666667;0.12083333333333712;78;0.75;violin
187.89583333333334;0.12083333333333712;76;0.75;violin
188.02083333333334;0.12083333333333712;78;0.75;violin
188.14791666666667;0.12083333333333712;76;0.75;violin
188.27083333333334;0.12083333333333712;78;0.75;violin
188.39583333333334;0.12083333333333712;76;0.75;violin
188.52291666666667;0.12083333333333712;78;0.75;violin
188.64583333333334;0.12083333333333712;76;0.75;violin
188.77083333333334;0.12083333333333712;78;0.75;violin
188.89791666666667;0.12083333333333712;76;0.75;violin
189.02083333333334;0.12083333333333712;78;0.75;violin
189.14583333333334;0.12083333333333712;76;0.75;violin
189.27291666666667;0.12083333333333712;78;0.75;violin
189.39583333333334;0.12083333333333712;76;0.75;violin
189.52083333333334;0.12083333333333712;78;0.75;violin
189.64791666666667;0.12083333333333712;76;0.75;violin
189.77083333333334;0.12083333333333712;78;0.75;violin
189.89583333333334;0.12083333333333712;76;0.75;violin
190.02291666666667;0.12083333333333712;78;0.75;violin
190.14583333333334;0.12083333333333712;76;0.75;violin
190.27083333333334;0.12083333333333712;78;0.75;violin
191.39791666666667;0.12083333333333712;71;0.3828125;violin
191.39791666666667;0.12083333333333712;83;0.3828125;violin
191.52083333333334;0.12083333333333712;72;0.3828125;violin
191.52083333333334;0.12083333333333712;84;0.3828125;violin
191.64791666666667;0.12083333333333712;71;0.3828125;violin
191.64791666666667;0.12083333333333712;83;0.3828125;violin
191.77083333333334;0.12083333333333712;72;0.3828125;violin
191.77083333333334;0.12083333333333712;84;0.3828125;violin
191.89791666666667;0.12083333333333712;71;0.3828125;violin
191.89791666666667;0.12083333333333712;83;0.3828125;violin
192.02083333333334;0.12083333333333712;72;0.3828125;violin
192.02083333333334;0.12083333333333712;84;0.3828125;violin
192.14791666666667;0.12083333333333712;71;0.3828125;violin
192.14791666666667;0.12083333333333712;83;0.3828125;violin
192.27083333333334;0.12083333333333712;72;0.3828125;violin
192.27083333333334;0.12083333333333712;84;0.3828125;violin
192.39791666666667;0.12083333333333712;71;0.3828125;violin
192.39791666666667;0.12083333333333712;83;0.3828125;violin
192.52083333333334;0.12083333333333712;72;0.3828125;violin
192.52083333333334;0.12083333333333712;84;0.3828125;violin
192.64791666666667;0.12083333333333712;71;0.3828125;violin
192.64791666666667;0.12083333333333712;83;0.3828125;violin
192.77083333333334;0.12083333333333712;72;0.3828125;violin
192.77083333333334;0.12083333333333712;84;0.3828125;violin
192.89791666666667;0.12083333333333712;71;0.3828125;violin
192.89791666666667;0.12083333333333712;83;0.3828125;violin
193.02083333333334;0.12083333333333712;72;0.3828125;violin
193.02083333333334;0.12083333333333712;84;0.3828125;violin
193.14791666666667;0.12083333333333712;71;0.3828125;violin
193.14791666666667;0.12083333333333712;83;0.3828125;violin
193.27083333333334;0.12083333333333712;72;0.3828125;violin
193.27083333333334;0.12083333333333712;84;0.3828125;violin
193.39791666666667;0.12083333333333712;59;0.3828125;violin
193.39791666666667;0.12083333333333712;71;0.3828125;violin
193.52083333333334;0.12083333333333712;60;0.3828125;violin
193.52083333333334;0.12083333333333712;72;0.3828125;violin
193.64791666666667;0.12083333333333712;59;0.3828125;violin
193.64791666666667;0.12083333333333712;71;0.3828125;violin
193.77083333333334;0.12083333333333712;60;0.3828125;violin
193.77083333333334;0.12083333333333712;72;0.3828125;violin
193.89791666666667;0.12083333333333712;59;0.3828125;violin
193.89791666666667;0.12083333333333712;71;0.3828125;violin
194.02083333333334;0.12083333333333712;60;0.3828125;violin
194.02083333333334;0.12083333333333712;72;0.3828125;violin
194.14791666666667;0.12083333333333712;59;0.3828125;violin
194.14791666666667;0.12083333333333712;71;0.3828125;violin
194.27083333333334;0.12083333333333712;60;0.3828125;violin
194.27083333333334;0.12083333333333712;72;0.3828125;violin
194.39791666666667;0.12083333333333712;59;0.3828125;violin
194.39791666666667;0.12083333333333712;71;0.3828125;violin
194.52083333333334;0.12083333333333712;60;0.3828125;violin
194.52083333333334;0.12083333333333712;72;0.3828125;violin
194.64791666666667;0.12083333333333712;59;0.3828125;violin
194.64791666666667;0.12083333333333712;71;0.3828125;violin
194.77083333333334;0.12083333333333712;60;0.3828125;violin
194.77083333333334;0.12083333333333712;72;0.3828125;violin
194.89791666666667;0.12083333333333712;59;0.3828125;violin
194.89791666666667;0.12083333333333712;71;0.3828125;violin
195.02083333333334;0.12083333333333712;60;0.3828125;violin
195.02083333333334;0.12083333333333712;72;0.3828125;violin
195.14791666666667;0.12083333333333712;59;0.3828125;violin
195.14791666666667;0.12083333333333712;71;0.3828125;violin
195.27083333333334;0.12083333333333712;60;0.3828125;violin
195.27083333333334;0.12083333333333712;72;0.3828125;violin
195.39791666666667;0.12083333333333712;64;0.3828125;violin
195.52083333333334;0.12083333333333712;66;0.3828125;violin
195.64583333333334;0.12083333333333712;64;0.3828125;violin
195.77291666666667;0.12083333333333712;66;0.3828125;violin
195.89583333333334;0.12083333333333712;64;0.3828125;violin
196.02083333333334;0.12083333333333712;66;0.3828125;violin
196.14791666666667;0.12083333333333712;64;0.3828125;violin
196.27083333333334;0.12083333333333712;66;0.3828125;violin
196.39583333333334;0.12083333333333712;64;0.3828125;violin
196.52291666666667;0.12083333333333712;66;0.3828125;violin
196.64583333333334;0.12083333333333712;64;0.3828125;violin
196.77083333333334;0.12083333333333712;66;0.3828125;violin
196.89791666666667;0.12083333333333712;64;0.3828125;violin
197.02083333333334;0.12083333333333712;66;0.3828125;violin
197.14583333333334;0.12083333333333712;64;0.3828125;violin
197.27291666666667;0.12083333333333712;66;0.3828125;violin
197.39583333333334;0.12083333333333712;64;0.3828125;violin
197.52083333333334;0.12083333333333712;66;0.3828125;violin
197.64791666666667;0.12083333333333712;64;0.3828125;violin
197.77083333333334;0.12083333333333712;66;0.3828125;violin
197.89583333333334;0.12083333333333712;64;0.3828125;violin
198.02291666666667;0.12083333333333712;66;0.3828125;violin
198.14583333333334;0.12083333333333712;64;0.3828125;violin
198.27083333333334;0.12083333333333712;66;0.3828125;violin
