start;duration;pitch;velocity;instrument
0.0;0.06111109583333333;60;0.3828125;violin
0.06388887291666666;1.6638884729166665;72;0.3828125;violin
1.66666625;0.33055547291666665;67;0.3828125;violin
1.9999995;0.33055547291666665;72;0.3828125;violin
2.33333275;0.33055547291666665;74;0.3828125;violin
2.6666659999999998;1.6638884729166663;72;0.3828125;violin
2.6666659999999998;1.6638884729166663;75;0.3828125;violin
4.33333225;0.3305554729166671;67;0.3828125;violin
4.33333225;0.3305554729166671;74;0.3828125;violin
4.6666655;0.3305554729166671;72;0.3828125;violin
4.6666655;0.3305554729166671;75;0.3828125;violin
4.99999875;0.3305554729166671;74;0.3828125;violin
4.99999875;0.3305554729166671;77;0.3828125;violin
5.3333319999999995;1.6638884729166667;75;0.3828125;violin
5.3333319999999995;1.6638884729166667;79;0.3828125;violin
6.99999825;0.3305554729166662;74;0.3828125;violin
6.99999825;0.3305554729166662;77;0.3828125;violin
7.3333315;0.3305554729166662;72;0.3828125;violin
7.3333315;0.3305554729166662;75;0.3828125;violin
7.66666475;0.3305554729166662;71;0.3828125;violin
7.66666475;0.3305554729166662;74;0.3828125;violin
7.999998;1.3305552229166668;72;0.3828125;violin
7.999998;1.3305552229166668;75;0.3828125;violin
9.333331;0.3305554729166662;71;0.3828125;violin
9.333331;0.3305554729166662;74;0.3828125;violin
9.66666425;0.3305554729166662;55;0.75;violin
9.66666425;0.3305554729166662;67;0.75;violin
9.9999975;0.3305554729166662;56;0.75;violin
9.9999975;0.3305554729166662;68;0.75;violin
10.33333075;0.3305554729166662;55;0.75;violin
10.33333075;0.3305554729166662;67;0.75;violin
10.666663999999999;0.06111109583333452;60;0.3828125;violin
10.730552872916666;1.6638884729166659;72;0.3828125;violin
12.33333025;0.3305554729166662;67;0.3828125;violin
12.6666635;0.3305554729166662;72;0.3828125;violin
12.99999675;0.3305554729166662;74;0.3828125;violin
13.33333;1.6638884729166659;72;0.3828125;violin
13.33333;1.6638884729166659;75;0.3828125;violin
14.999996249999999;0.330555472916668;67;0.3828125;violin
14.999996249999999;0.330555472916668;74;0.3828125;violin
15.3333295;0.3305554729166662;72;0.3828125;violin
15.3333295;0.3305554729166662;75;0.3828125;violin
15.666662749999999;0.330555472916668;74;0.3828125;violin
15.666662749999999;0.330555472916668;77;0.3828125;violin
15.999996;1.6638884729166676;75;0.3828125;violin
15.999996;1.6638884729166676;79;0.3828125;violin
17.666662249999998;0.330555472916668;74;0.3828125;violin
17.666662249999998;0.330555472916668;77;0.3828125;violin
17.9999955;0.33055547291666443;72;0.3828125;violin
17.9999955;0.33055547291666443;75;0.3828125;violin
18.33332875;0.330555472916668;71;0.3828125;violin
18.33332875;0.330555472916668;74;0.3828125;violin
18.666662;1.3305552229166686;72;0.3828125;violin
18.666662;1.3305552229166686;75;0.3828125;violin
19.999995;0.330555472916668;71;0.3828125;violin
19.999995;0.330555472916668;74;0.3828125;violin
20.33332825;0.33055547291666443;55;0.75;violin
20.33332825;0.33055547291666443;67;0.75;violin
20.6666615;0.33055547291666443;56;0.75;violin
20.6666615;0.33055547291666443;68;0.75;violin
20.99999475;0.330555472916668;55;0.75;violin
20.99999475;0.330555472916668;67;0.75;violin
21.333327999999998;1.6638884729166676;56;0.75;violin
21.333327999999998;1.6638884729166676;68;0.75;violin
22.99999425;0.33055547291666443;72;0.75;violin
22.99999425;0.33055547291666443;84;0.75;violin
23.3333275;0.330555472916668;70;0.75;violin
23.3333275;0.330555472916668;82;0.75;violin
23.66666075;0.330555472916668;68;0.75;violin
23.66666075;0.330555472916668;80;0.75;violin
23.999993999999997;1.6638884729166676;67;0.75;violin
23.999993999999997;1.6638884729166676;79;0.75;violin
25.66666025;0.33055547291666443;55;0.75;violin
25.66666025;0.33055547291666443;67;0.75;violin
25.9999935;0.330555472916668;56;0.75;violin
25.9999935;0.330555472916668;68;0.75;violin
26.333326749999998;0.330555472916668;55;0.75;violin
26.333326749999998;0.330555472916668;67;0.75;violin
26.66666;1.663888472916664;56;0.75;violin
26.66666;1.663888472916664;66;0.75;violin
28.33332625;0.997221972916666;56;0.75;violin
28.33332625;0.997221972916666;66;0.75;violin
28.33332625;0.330555472916668;75;0.75;violin
28.666659499999998;0.330555472916668;74;0.75;violin
28.99999275;0.33055547291666443;72;0.75;violin
29.333326;1.330555222916665;55;0.75;violin
29.333326;1.330555222916665;67;0.75;violin
29.333326;1.330555222916665;72;0.75;violin
30.666659;0.330555472916668;55;0.75;violin
30.666659;0.330555472916668;67;0.75;violin
30.666659;0.330555472916668;71;0.75;violin
30.99999225;0.997221972916666;62;0.75;violin
30.99999225;0.997221972916666;71;0.75;violin
30.99999225;0.330555472916668;79;0.75;violin
31.333325499999997;0.330555472916668;80;0.75;violin
31.66665875;0.33055547291666443;79;0.75;violin
31.999992;1.330555222916665;63;0.75;violin
31.999992;1.330555222916665;72;0.75;violin
31.999992;1.330555222916665;79;0.75;violin
33.333325;0.33055547291666443;84;0.75;violin
33.66665825;0.9972219729166696;62;0.75;violin
33.66665825;0.9972219729166696;71;0.75;violin
33.66665825;0.33055547291666443;79;0.75;violin
33.9999915;0.33055547291666443;80;0.75;violin
34.333324749999996;0.33055547291667153;79;0.75;violin
34.666658;1.330555222916665;63;0.75;violin
34.666658;1.330555222916665;72;0.75;violin
34.666658;1.330555222916665;79;0.75;violin
35.999991;0.33055547291666443;84;0.75;violin
36.33332425;0.9972219729166696;61;0.75;violin
36.33332425;0.9972219729166696;68;0.75;violin
36.33332425;0.33055547291667153;80;0.75;violin
36.6666575;0.33055547291666443;77;0.75;violin
36.99999075;0.33055547291666443;73;0.75;violin
37.333324;1.330555222916665;60;0.75;violin
37.333324;1.330555222916665;72;0.75;violin
38.666657;0.33055547291666443;55;0.75;violin
38.666657;0.33055547291666443;74;0.75;violin
38.999990249999996;0.9972219729166696;55;0.75;violin
38.999990249999996;0.9972219729166696;67;0.75;violin
38.999990249999996;0.33055547291667153;72;0.75;violin
39.3333235;0.33055547291666443;74;0.75;violin
39.66665675;0.33055547291666443;75;0.75;violin
39.99999;1.330555222916665;60;0.75;violin
39.99999;1.330555222916665;67;0.75;violin
39.99999;1.330555222916665;74;0.75;violin
41.333323;0.663888722916667;60;0.75;violin
41.333323;0.663888722916667;67;0.75;violin
41.333323;0.663888722916667;72;0.75;violin
42.666655999999996;0.10833330625000315;60;0.75;violin
42.666655999999996;0.10833330625000315;63;0.75;violin
42.888878166666665;0.10833330625000315;62;0.75;violin
42.888878166666665;0.10833330625000315;65;0.75;violin
43.11110033333333;0.10833330624999604;63;0.75;violin
43.11110033333333;0.10833330624999604;67;0.75;violin
43.3333225;0.10833330624999604;65;0.75;violin
43.3333225;0.10833330624999604;68;0.75;violin
43.55554466666666;0.10833330625000315;67;0.75;violin
43.55554466666666;0.10833330625000315;71;0.75;violin
43.77776683333333;0.10833330625000315;69;0.75;violin
43.77776683333333;0.10833330625000315;72;0.75;violin
43.999989;0.10833330624999604;71;0.75;violin
43.999989;0.10833330624999604;74;0.75;violin
44.22221116666667;0.10833330624999604;72;0.75;violin
44.22221116666667;0.10833330624999604;75;0.75;violin
44.44443333333333;0.10833330625000315;74;0.75;violin
44.44443333333333;0.10833330625000315;77;0.75;violin
44.6666555;0.10833330625000315;75;0.75;violin
44.6666555;0.10833330625000315;79;0.75;violin
44.888877666666666;0.10833330624999604;77;0.75;violin
44.888877666666666;0.10833330624999604;80;0.75;violin
45.111099833333334;0.10833330624999604;74;0.75;violin
45.111099833333334;0.10833330624999604;83;0.75;violin
45.333321999999995;0.10833330625000315;72;0.75;violin
45.333321999999995;0.10833330625000315;84;0.75;violin
45.555544166666664;0.10833330625000315;60;0.75;violin
45.77776633333333;0.10833330624999604;72;0.75;violin
45.77776633333333;0.10833330624999604;87;0.75;violin
45.9999885;0.10833330624999604;74;0.75;violin
45.9999885;0.10833330624999604;89;0.75;violin
46.22221066666666;0.10833330625000315;75;0.75;violin
46.22221066666666;0.10833330625000315;91;0.75;violin
46.44443283333333;0.10833330625000315;77;0.75;violin
46.44443283333333;0.10833330625000315;92;0.75;violin
46.666655;0.10833330624999604;79;0.75;violin
46.666655;0.10833330624999604;95;0.75;violin
46.88887716666667;0.10833330624999604;81;0.75;violin
46.88887716666667;0.10833330624999604;96;0.75;violin
47.11109933333333;0.10833330625000315;83;0.75;violin
47.11109933333333;0.10833330625000315;98;0.75;violin
47.3333215;0.10833330625000315;84;0.75;violin
47.3333215;0.10833330625000315;99;0.75;violin
47.555543666666665;0.10833330625000315;63;0.75;violin
47.555543666666665;0.10833330625000315;67;0.75;violin
47.77776583333333;0.10833330624999604;60;0.75;violin
47.77776583333333;0.10833330624999604;63;0.75;violin
47.999987999999995;0.10833330625000315;59;0.75;violin
47.999987999999995;0.10833330625000315;62;0.75;violin
48.22221016666666;0.10833330625000315;60;0.75;violin
48.22221016666666;0.10833330625000315;63;0.75;violin
48.44443233333333;0.10833330625000315;62;0.75;violin
48.44443233333333;0.10833330625000315;65;0.75;violin
48.6666545;0.10833330624999604;63;0.75;violin
48.6666545;0.10833330624999604;67;0.75;violin
48.88887666666667;0.10833330624999604;65;0.75;violin
48.88887666666667;0.10833330624999604;68;0.75;violin
49.11109883333333;0.10833330625000315;67;0.75;violin
49.11109883333333;0.10833330625000315;71;0.75;violin
49.333321;0.10833330625000315;69;0.75;violin
49.333321;0.10833330625000315;72;0.75;violin
49.555543166666666;0.10833330624999604;71;0.75;violin
49.555543166666666;0.10833330624999604;74;0.75;violin
49.777765333333335;0.10833330624999604;72;0.75;violin
49.777765333333335;0.10833330624999604;75;0.75;violin
49.999987499999996;0.10833330625000315;74;0.75;violin
49.999987499999996;0.10833330625000315;77;0.75;violin
50.222209666666664;0.10833330625000315;75;0.75;violin
50.222209666666664;0.10833330625000315;79;0.75;violin
50.44443183333333;0.10833330624999604;77;0.75;violin
50.44443183333333;0.10833330624999604;80;0.75;violin
50.666654;0.10833330624999604;74;0.75;violin
50.666654;0.10833330624999604;83;0.75;violin
50.88887616666666;0.10833330625000315;55;0.75;violin
51.11109833333333;0.10833330625000315;71;0.75;violin
51.11109833333333;0.10833330625000315;86;0.75;violin
51.3333205;0.10833330624999604;72;0.75;violin
51.3333205;0.10833330624999604;87;0.75;violin
51.55554266666667;0.10833330624999604;74;0.75;violin
51.55554266666667;0.10833330624999604;89;0.75;violin
51.77776483333333;0.10833330625000315;75;0.75;violin
51.77776483333333;0.10833330625000315;91;0.75;violin
51.999987;0.10833330625000315;77;0.75;violin
51.999987;0.10833330625000315;92;0.75;violin
52.222209166666666;0.10833330624999604;79;0.75;violin
52.222209166666666;0.10833330624999604;95;0.75;violin
52.444431333333334;0.10833330624999604;81;0.75;violin
52.444431333333334;0.10833330624999604;96;0.75;violin
52.666653499999995;0.10833330625000315;83;0.75;violin
52.666653499999995;0.10833330625000315;98;0.75;violin
52.888875666666664;0.10833330625000315;62;0.75;violin
52.888875666666664;0.10833330625000315;65;0.75;violin
53.11109783333333;0.10833330624999604;59;0.75;violin
53.11109783333333;0.10833330624999604;62;0.75;violin
53.33332;0.10833330624999604;60;0.75;violin
53.33332;0.10833330624999604;63;0.75;violin
53.55554216666666;0.21944438958333734;80;0.75;violin
53.77776433333333;0.21944438958333734;79;0.75;violin
53.9999865;0.10833330624999604;60;0.75;violin
53.9999865;0.10833330624999604;63;0.75;violin
54.22220866666667;0.21944438958333023;80;0.75;violin
54.44443083333333;0.21944438958333734;79;0.75;violin
54.666653;0.10833330625000315;58;0.75;violin
54.666653;0.10833330625000315;63;0.75;violin
54.888875166666665;0.21944438958333023;80;0.75;violin
55.11109733333333;0.21944438958333023;79;0.75;violin
55.333319499999995;0.10833330625000315;58;0.75;violin
55.333319499999995;0.10833330625000315;63;0.75;violin
55.55554166666666;0.21944438958333734;80;0.75;violin
55.77776383333333;0.21944438958333023;79;0.75;violin
55.999986;0.10833330624999604;56;0.75;violin
55.999986;0.10833330624999604;63;0.75;violin
56.22220816666666;0.21944438958333734;79;0.75;violin
56.44443033333333;0.21944438958333734;77;0.75;violin
56.6666525;0.10833330625000315;56;0.75;violin
56.6666525;0.10833330625000315;63;0.75;violin
56.888874666666666;0.21944438958333023;79;0.75;violin
57.111096833333335;0.21944438958333023;77;0.75;violin
57.333318999999996;0.21944438958333734;80;0.75;violin
57.333318999999996;0.21944438958333734;84;0.75;violin
57.555541166666664;0.21944438958333023;77;0.75;violin
57.555541166666664;0.21944438958333023;80;0.75;violin
57.77776333333333;0.21944438958333023;72;0.75;violin
57.77776333333333;0.21944438958333023;77;0.75;violin
57.9999855;0.21944438958333023;68;0.75;violin
57.9999855;0.21944438958333023;72;0.75;violin
58.22220766666666;0.21944438958333734;60;0.75;violin
58.22220766666666;0.21944438958333734;68;0.75;violin
58.44442983333333;0.21944438958333023;56;0.75;violin
58.44442983333333;0.21944438958333023;65;0.75;violin
58.666652;0.10833330624999604;57;0.75;violin
58.666652;0.10833330624999604;63;0.75;violin
58.88887416666667;0.21944438958333023;79;0.75;violin
59.11109633333333;0.21944438958333734;77;0.75;violin
59.3333185;0.10833330625000315;57;0.75;violin
59.3333185;0.10833330625000315;63;0.75;violin
59.555540666666666;0.21944438958333023;79;0.75;violin
59.777762833333334;0.21944438958333023;77;0.75;violin
59.999984999999995;0.21944438958333734;75;0.75;violin
59.999984999999995;0.21944438958333734;84;0.75;violin
60.222207166666664;0.21944438958333734;72;0.75;violin
60.222207166666664;0.21944438958333734;81;0.75;violin
60.44442933333333;0.21944438958333023;69;0.75;violin
60.44442933333333;0.21944438958333023;77;0.75;violin
60.6666515;0.21944438958333023;65;0.75;violin
60.6666515;0.21944438958333023;72;0.75;violin
60.88887366666666;0.21944438958333734;63;0.75;violin
60.88887366666666;0.21944438958333734;69;0.75;violin
61.11109583333333;0.21944438958333734;60;0.75;violin
61.11109583333333;0.21944438958333734;63;0.75;violin
61.333318;0.10833330624999604;58;0.75;violin
61.333318;0.10833330624999604;62;0.75;violin
61.55554016666667;0.21944438958333023;81;0.75;violin
61.55554016666667;0.21944438958333023;84;0.75;violin
61.77776233333333;0.21944438958333734;82;0.75;violin
61.77776233333333;0.21944438958333734;86;0.75;violin
61.9999845;0.10833330625000315;86;0.75;violin
61.9999845;0.10833330625000315;89;0.75;violin
62.222206666666665;0.21944438958333023;84;0.75;violin
62.222206666666665;0.21944438958333023;87;0.75;violin
62.44442883333333;0.21944438958333023;82;0.75;violin
62.44442883333333;0.21944438958333023;86;0.75;violin
62.666650999999995;0.10833330625000315;80;0.75;violin
62.666650999999995;0.10833330625000315;86;0.75;violin
62.88887316666666;0.21944438958333734;80;0.75;violin
62.88887316666666;0.21944438958333734;83;0.75;violin
63.11109533333333;0.21944438958333023;80;0.75;violin
63.11109533333333;0.21944438958333023;82;0.75;violin
63.3333175;0.10833330624999604;80;0.75;violin
63.3333175;0.10833330624999604;86;0.75;violin
63.55553966666666;0.21944438958333734;80;0.75;violin
63.55553966666666;0.21944438958333734;83;0.75;violin
63.77776183333333;0.21944438958333734;80;0.75;violin
63.77776183333333;0.21944438958333734;82;0.75;violin
63.999984;0.21944438958333023;79;0.75;violin
63.999984;0.21944438958333023;82;0.75;violin
64.22220616666667;0.21944438958333023;79;0.75;violin
64.22220616666667;0.21944438958333023;87;0.75;violin
64.44442833333333;0.21944438958333023;77;0.75;violin
64.44442833333333;0.21944438958333023;86;0.75;violin
64.6666505;0.21944438958333023;75;0.75;violin
64.6666505;0.21944438958333023;84;0.75;violin
64.88887266666666;0.21944438958334445;74;0.75;violin
64.88887266666666;0.21944438958334445;82;0.75;violin
65.11109483333333;0.21944438958334445;72;0.75;violin
65.11109483333333;0.21944438958334445;81;0.75;violin
65.333317;0.21944438958333023;70;0.75;violin
65.333317;0.21944438958333023;79;0.75;violin
65.55553916666666;0.21944438958333023;69;0.75;violin
65.55553916666666;0.21944438958333023;77;0.75;violin
65.77776133333333;0.21944438958333023;65;0.75;violin
65.77776133333333;0.21944438958333023;75;0.75;violin
65.9999835;0.21944438958333023;65;0.75;violin
65.9999835;0.21944438958333023;72;0.75;violin
66.22220566666667;0.21944438958333023;63;0.75;violin
66.22220566666667;0.21944438958333023;69;0.75;violin
66.44442783333334;0.21944438958333023;60;0.75;violin
66.44442783333334;0.21944438958333023;63;0.75;violin
66.66665;0.10833330624998894;58;0.75;violin
66.66665;0.10833330624998894;62;0.75;violin
66.88887216666666;0.21944438958334445;69;0.75;violin
66.88887216666666;0.21944438958334445;72;0.75;violin
67.11109433333333;0.21944438958333023;70;0.75;violin
67.11109433333333;0.21944438958333023;74;0.75;violin
67.3333165;0.10833330625000315;74;0.75;violin
67.3333165;0.10833330625000315;77;0.75;violin
67.55553866666666;0.21944438958333023;72;0.75;violin
67.55553866666666;0.21944438958333023;75;0.75;violin
67.77776083333333;0.21944438958333023;70;0.75;violin
67.77776083333333;0.21944438958333023;74;0.75;violin
67.999983;0.10833330625000315;68;0.75;violin
67.999983;0.10833330625000315;74;0.75;violin
68.22220516666667;0.21944438958333023;68;0.75;violin
68.22220516666667;0.21944438958333023;71;0.75;violin
68.44442733333334;0.21944438958333023;68;0.75;violin
68.44442733333334;0.21944438958333023;70;0.75;violin
68.66664949999999;0.10833330625000315;68;0.75;violin
68.66664949999999;0.10833330625000315;74;0.75;violin
68.88887166666666;0.21944438958334445;68;0.75;violin
68.88887166666666;0.21944438958334445;71;0.75;violin
69.11109383333333;0.21944438958333023;68;0.75;violin
69.11109383333333;0.21944438958333023;70;0.75;violin
69.333316;0.21944438958333023;67;0.75;violin
69.333316;0.21944438958333023;70;0.75;violin
69.55553816666666;0.21944438958333023;67;0.75;violin
69.55553816666666;0.21944438958333023;75;0.75;violin
69.77776033333333;0.21944438958333023;65;0.75;violin
69.77776033333333;0.21944438958333023;74;0.75;violin
69.9999825;0.21944438958333023;63;0.75;violin
69.9999825;0.21944438958333023;72;0.75;violin
70.22220466666667;0.21944438958333023;62;0.75;violin
70.22220466666667;0.21944438958333023;70;0.75;violin
70.44442683333332;0.21944438958334445;60;0.75;violin
70.44442683333332;0.21944438958334445;69;0.75;violin
70.66664899999999;0.21944438958334445;58;0.75;violin
70.66664899999999;0.21944438958334445;67;0.75;violin
70.88887116666666;0.21944438958333023;57;0.75;violin
70.88887116666666;0.21944438958333023;65;0.75;violin
71.11109333333333;0.21944438958333023;75;0.75;violin
71.11109333333333;0.21944438958333023;77;0.75;violin
71.3333155;0.21944438958333023;72;0.75;violin
71.3333155;0.21944438958333023;77;0.75;violin
71.55553766666667;0.21944438958333023;72;0.75;violin
71.55553766666667;0.21944438958333023;75;0.75;violin
71.77775983333333;0.21944438958333023;60;0.75;violin
71.77775983333333;0.21944438958333023;63;0.75;violin
71.999982;1.330555222916658;58;0.75;violin
71.999982;1.330555222916658;62;0.75;violin
73.333315;0.33055547291667153;70;0.75;violin
73.66664825;0.33055547291667153;58;0.75;violin
73.66664825;0.33055547291667153;62;0.75;violin
73.66664825;0.9972219729166625;70;0.75;violin
73.9999815;0.3305554729166573;60;0.75;violin
73.9999815;0.3305554729166573;63;0.75;violin
74.33331475;0.3305554729166573;62;0.75;violin
74.33331475;0.3305554729166573;65;0.75;violin
74.666648;1.6638884729166676;63;0.75;violin
74.666648;1.3305552229166722;67;0.75;violin
74.666648;1.3305552229166722;70;0.75;violin
75.99998099999999;0.33055547291667153;66;0.75;violin
75.99998099999999;0.33055547291667153;69;0.75;violin
76.33331425;0.3305554729166573;63;0.75;violin
76.33331425;0.3305554729166573;66;0.75;violin
76.33331425;0.9972219729166625;69;0.75;violin
76.6666475;0.33055547291667153;62;0.75;violin
76.6666475;0.33055547291667153;65;0.75;violin
76.99998074999999;0.33055547291667153;60;0.75;violin
76.99998074999999;0.33055547291667153;63;0.75;violin
77.333314;1.330555222916658;60;0.75;violin
77.333314;1.330555222916658;63;0.75;violin
77.333314;1.330555222916658;69;0.75;violin
78.666647;0.663888722916667;58;0.75;violin
78.666647;0.663888722916667;62;0.75;violin
78.666647;0.663888722916667;70;0.75;violin
79.3333135;0.663888722916667;60;0.75;violin
79.3333135;0.08055553541666427;63;0.75;violin
79.3333135;0.663888722916667;69;0.75;violin
79.41664681249999;0.08055553541667848;65;0.75;violin
79.499980125;0.08055553541666427;63;0.75;violin
79.5833134375;0.08055553541666427;65;0.75;violin
79.66664675;0.08055553541666427;63;0.75;violin
79.7499800625;0.08055553541666427;65;0.75;violin
79.833313375;0.08055553541666427;63;0.75;violin
79.91664668749999;0.08055553541667848;65;0.75;violin
79.99998;1.3305552229166722;60;0.75;violin
79.99998;1.3305552229166722;63;0.75;violin
79.99998;1.3305552229166722;69;0.75;violin
81.333313;0.6638887229166528;58;0.75;violin
81.333313;0.6638887229166528;62;0.75;violin
81.333313;0.6638887229166528;70;0.75;violin
81.9999795;0.663888722916667;60;0.75;violin
81.9999795;0.08055553541666427;63;0.75;violin
81.9999795;0.663888722916667;69;0.75;violin
82.0833128125;0.08055553541666427;65;0.75;violin
82.166646125;0.08055553541666427;63;0.75;violin
82.2499794375;0.08055553541666427;65;0.75;violin
82.33331274999999;0.08055553541667848;63;0.75;violin
82.41664606249999;0.08055553541666427;65;0.75;violin
82.499979375;0.08055553541666427;63;0.75;violin
82.5833126875;0.08055553541666427;65;0.75;violin
82.666646;0.05555556250000393;69;0.75;violin
82.72775711875;0.05555556249998972;70;0.75;violin
82.79442379375;0.05555556250000393;72;0.75;violin
82.8555349125;3.9916671645833333;58;0.75;violin
82.8555349125;3.9916671645833333;62;0.75;violin
82.8555349125;3.9916671645833333;70;0.75;violin
87.99442444166667;0.1638888479166667;79;0.75;violin
87.99442444166667;0.1638888479166667;82;0.75;violin
88.16109106666666;0.1638888479166667;87;0.75;violin
88.32775769166666;0.1638888479166667;78;0.75;violin
88.32775769166666;0.1638888479166667;81;0.75;violin
88.49442431666667;0.1638888479166667;87;0.75;violin
88.66109094166666;0.1638888479166667;79;0.75;violin
88.66109094166666;0.1638888479166667;82;0.75;violin
88.82775756666666;0.1638888479166667;87;0.75;violin
88.99442419166667;0.1638888479166667;78;0.75;violin
88.99442419166667;0.1638888479166667;81;0.75;violin
89.16109081666666;0.1638888479166667;87;0.75;violin
89.32775744166666;0.1638888479166667;79;0.75;violin
89.32775744166666;0.1638888479166667;82;0.75;violin
89.49442406666667;0.1638888479166667;87;0.75;violin
89.66109069166666;0.1638888479166667;78;0.75;violin
89.66109069166666;0.1638888479166667;81;0.75;violin
89.82775731666666;0.1638888479166667;87;0.75;violin
89.99442394166667;0.1638888479166667;79;0.75;violin
89.99442394166667;0.1638888479166667;82;0.75;violin
90.16109056666666;0.1638888479166667;87;0.75;violin
90.32775719166666;0.1638888479166667;78;0.75;violin
90.32775719166666;0.1638888479166667;81;0.75;violin
90.49442381666667;0.1638888479166667;87;0.75;violin
90.66109044166666;0.1638888479166667;79;0.75;violin
90.66109044166666;0.1638888479166667;82;0.75;violin
90.82775706666666;0.1638888479166667;75;0.75;violin
90.82775706666666;0.1638888479166667;79;0.75;violin
90.99442369166667;0.1638888479166667;77;0.75;violin
90.99442369166667;0.1638888479166667;80;0.75;violin
91.16109031666666;0.1638888479166667;79;0.75;violin
91.16109031666666;0.1638888479166667;82;0.75;violin
91.32775694166666;0.1638888479166667;80;0.75;violin
91.32775694166666;0.1638888479166667;84;0.75;violin
91.49442356666665;0.1638888479166667;82;0.75;violin
91.49442356666665;0.1638888479166667;86;0.75;violin
91.66109019166666;0.1638888479166667;84;0.75;violin
91.66109019166666;0.1638888479166667;87;0.75;violin
91.82775681666666;0.1638888479166667;86;0.75;violin
91.82775681666666;0.1638888479166667;89;0.75;violin
91.99442344166667;0.1638888479166667;87;0.75;violin
91.99442344166667;0.1638888479166667;91;0.75;violin
92.16109006666666;0.1638888479166667;86;0.75;violin
92.16109006666666;0.1638888479166667;89;0.75;violin
92.32775669166666;0.1638888479166667;84;0.75;violin
92.32775669166666;0.1638888479166667;87;0.75;violin
92.49442331666665;0.1638888479166667;82;0.75;violin
92.49442331666665;0.1638888479166667;86;0.75;violin
92.66108994166666;0.1638888479166667;80;0.75;violin
92.66108994166666;0.1638888479166667;84;0.75;violin
92.82775656666666;0.1638888479166667;79;0.75;violin
92.82775656666666;0.1638888479166667;82;0.75;violin
92.99442319166666;0.1638888479166667;77;0.75;violin
92.99442319166666;0.1638888479166667;80;0.75;violin
93.16108981666666;0.1638888479166667;75;0.75;violin
93.16108981666666;0.1638888479166667;79;0.75;violin
93.32775644166666;0.1638888479166667;62;0.75;violin
93.32775644166666;0.1638888479166667;70;0.75;violin
93.49442306666666;0.1638888479166667;65;0.75;violin
93.66108969166666;0.1638888479166667;63;0.75;violin
93.66108969166666;0.1638888479166667;69;0.75;violin
93.82775631666667;0.1638888479166667;66;0.75;violin
93.99442294166666;0.1638888479166667;62;0.75;violin
93.99442294166666;0.1638888479166667;70;0.75;violin
94.16108956666666;0.1638888479166667;65;0.75;violin
94.32775619166667;0.1638888479166667;63;0.75;violin
94.32775619166667;0.1638888479166667;69;0.75;violin
94.49442281666666;0.1638888479166667;66;0.75;violin
94.66108944166666;0.1638888479166667;62;0.75;violin
94.66108944166666;0.1638888479166667;70;0.75;violin
94.82775606666667;0.1638888479166667;65;0.75;violin
94.99442269166666;0.1638888479166667;63;0.75;violin
94.99442269166666;0.1638888479166667;69;0.75;violin
95.16108931666666;0.1638888479166667;66;0.75;violin
95.32775594166667;0.1638888479166667;62;0.75;violin
95.32775594166667;0.1638888479166667;70;0.75;violin
95.49442256666666;0.1638888479166667;65;0.75;violin
95.66108919166666;0.1638888479166667;63;0.75;violin
95.66108919166666;0.1638888479166667;69;0.75;violin
95.82775581666667;0.1638888479166667;66;0.75;violin
95.99442244166666;0.1638888479166667;62;0.75;violin
95.99442244166666;0.1638888479166667;70;0.75;violin
96.16108906666666;0.1638888479166667;70;0.75;violin
96.16108906666666;0.1638888479166667;74;0.75;violin
96.32775569166667;0.1638888479166667;74;0.75;violin
96.32775569166667;0.1638888479166667;77;0.75;violin
96.49442231666666;0.1638888479166667;72;0.75;violin
96.49442231666666;0.1638888479166667;75;0.75;violin
96.66108894166666;0.1638888479166667;70;0.75;violin
96.66108894166666;0.1638888479166667;74;0.75;violin
96.82775556666667;0.1638888479166667;74;0.75;violin
96.82775556666667;0.1638888479166667;77;0.75;violin
96.99442219166666;0.1638888479166667;77;0.75;violin
96.99442219166666;0.1638888479166667;80;0.75;violin
97.16108881666666;0.1638888479166667;75;0.75;violin
97.16108881666666;0.1638888479166667;79;0.75;violin
97.32775544166665;0.1638888479166667;74;0.75;violin
97.32775544166665;0.1638888479166667;77;0.75;violin
97.49442206666666;0.1638888479166667;72;0.75;violin
97.49442206666666;0.1638888479166667;75;0.75;violin
97.66108869166666;0.1638888479166667;70;0.75;violin
97.66108869166666;0.1638888479166667;74;0.75;violin
97.82775531666667;0.1638888479166667;68;0.75;violin
97.82775531666667;0.1638888479166667;72;0.75;violin
97.99442194166666;0.1638888479166667;67;0.75;violin
97.99442194166666;0.1638888479166667;70;0.75;violin
98.16108856666666;0.1638888479166667;65;0.75;violin
98.16108856666666;0.1638888479166667;68;0.75;violin
98.32775519166665;0.1638888479166667;63;0.75;violin
98.32775519166665;0.1638888479166667;67;0.75;violin
98.49442181666666;0.1638888479166667;62;0.75;violin
98.49442181666666;0.1638888479166667;65;0.75;violin
98.66108844166666;0.1638888479166667;55;0.75;violin
98.66108844166666;0.1638888479166667;63;0.75;violin
98.82775506666667;0.1638888479166667;58;0.75;violin
98.99442169166666;0.1638888479166667;59;0.75;violin
98.99442169166666;0.1638888479166667;62;0.75;violin
99.16108831666666;0.1638888479166667;56;0.75;violin
99.32775494166665;0.1638888479166667;55;0.75;violin
99.32775494166665;0.1638888479166667;63;0.75;violin
99.49442156666666;0.1638888479166667;58;0.75;violin
99.66108819166666;0.1638888479166667;59;0.75;violin
99.66108819166666;0.1638888479166667;62;0.75;violin
99.82775481666665;0.1638888479166667;56;0.75;violin
99.99442144166666;0.1638888479166667;55;0.75;violin
99.99442144166666;0.1638888479166667;63;0.75;violin
100.16108806666666;0.1638888479166667;58;0.75;violin
100.32775469166666;0.1638888479166667;59;0.75;violin
100.32775469166666;0.1638888479166667;62;0.75;violin
100.49442131666666;0.1638888479166667;56;0.75;violin
100.66108794166666;0.1638888479166667;55;0.75;violin
100.66108794166666;0.1638888479166667;63;0.75;violin
100.82775456666666;0.1638888479166667;58;0.75;violin
100.99442119166666;0.1638888479166667;59;0.75;violin
100.99442119166666;0.1638888479166667;62;0.75;violin
101.16108781666667;0.1638888479166667;56;0.75;violin
101.32775444166666;0.1638888479166667;55;0.75;violin
101.32775444166666;0.1638888479166667;63;0.75;violin
101.49442106666666;0.1638888479166667;58;0.75;violin
101.66108769166667;0.1638888479166667;59;0.75;violin
101.66108769166667;0.1638888479166667;62;0.75;violin
101.82775431666666;0.1638888479166667;56;0.75;violin
101.99442094166666;0.1638888479166667;55;0.75;violin
101.99442094166666;0.1638888479166667;63;0.75;violin
102.16108756666667;0.1638888479166667;58;0.75;violin
102.32775419166666;0.1638888479166667;61;0.75;violin
102.32775419166666;0.1638888479166667;64;0.75;violin
102.49442081666666;0.1638888479166667;58;0.75;violin
102.66108744166667;0.1638888479166667;57;0.75;violin
102.66108744166667;0.1638888479166667;65;0.75;violin
102.82775406666666;0.1638888479166667;59;0.75;violin
102.99442069166666;0.1638888479166667;61;0.75;violin
102.99442069166666;0.1638888479166667;64;0.75;violin
103.16108731666667;0.1638888479166667;58;0.75;violin
103.32775394166666;0.1638888479166667;57;0.75;violin
103.32775394166666;0.1638888479166667;65;0.75;violin
103.49442056666666;0.1638888479166667;59;0.75;violin
103.66108719166667;0.1638888479166667;63;0.75;violin
103.66108719166667;0.1638888479166667;66;0.75;violin
103.82775381666666;0.1638888479166667;59;0.75;violin
103.99442044166666;0.1638888479166667;59;0.75;violin
103.99442044166666;0.1638888479166667;67;0.75;violin
104.16108706666665;0.1638888479166667;62;0.75;violin
104.32775369166666;0.1638888479166667;63;0.75;violin
104.32775369166666;0.1638888479166667;66;0.75;violin
104.49442031666666;0.1638888479166667;60;0.75;violin
104.66108694166667;0.1638888479166667;59;0.75;violin
104.66108694166667;0.1638888479166667;67;0.75;violin
104.82775356666666;0.1638888479166667;62;0.75;violin
104.99442019166666;0.1638888479166667;65;0.75;violin
104.99442019166666;0.1638888479166667;67;0.75;violin
105.16108681666665;0.1638888479166667;62;0.75;violin
105.32775344166666;0.1638888479166667;60;0.75;violin
105.32775344166666;0.1638888479166667;68;0.75;violin
105.49442006666666;0.1638888479166667;63;0.75;violin
105.66108669166667;0.1638888479166667;65;0.75;violin
105.66108669166667;0.1638888479166667;69;0.75;violin
105.82775331666666;0.1638888479166667;63;0.75;violin
105.99441994166666;0.1638888479166667;62;0.75;violin
105.99441994166666;0.1638888479166667;70;0.75;violin
106.16108656666665;0.1638888479166667;65;0.75;violin
106.32775319166666;0.1638888479166667;68;0.75;violin
106.32775319166666;0.1638888479166667;70;0.75;violin
106.49441981666666;0.1638888479166667;65;0.75;violin
106.66108644166667;0.1638888479166667;63;0.75;violin
106.66108644166667;0.1638888479166667;70;0.75;violin
106.82775306666666;0.1638888479166667;67;0.75;violin
106.99441969166666;0.1638888479166667;64;0.75;violin
106.99441969166666;0.1638888479166667;70;0.75;violin
107.16108631666665;0.1638888479166667;67;0.75;violin
107.32775294166666;0.1638888479166667;65;0.75;violin
107.32775294166666;0.1638888479166667;70;0.75;violin
107.49441956666666;0.1638888479166667;74;0.75;violin
107.66108619166667;0.1638888479166667;66;0.75;violin
107.66108619166667;0.1638888479166667;70;0.75;violin
107.82775281666666;0.1638888479166667;75;0.75;violin
107.99441944166666;0.1638888479166667;69;0.75;violin
107.99441944166666;0.1638888479166667;72;0.75;violin
108.16108606666666;0.1638888479166667;72;0.75;violin
108.16108606666666;0.1638888479166667;75;0.75;violin
108.32775269166666;0.1638888479166667;72;0.75;violin
108.32775269166666;0.1638888479166667;75;0.75;violin
108.49441931666667;0.1638888479166667;75;0.75;violin
108.49441931666667;0.1638888479166667;78;0.75;violin
108.66108594166666;0.1638888479166667;75;0.75;violin
108.66108594166666;0.1638888479166667;78;0.75;violin
108.82775256666666;0.1638888479166667;78;0.75;violin
108.82775256666666;0.1638888479166667;81;0.75;violin
108.99441919166667;0.1638888479166667;78;0.75;violin
108.99441919166667;0.1638888479166667;81;0.75;violin
109.16108581666666;0.1638888479166667;81;0.75;violin
109.16108581666666;0.1638888479166667;84;0.75;violin
109.32775244166666;0.1638888479166667;58;0.75;violin
109.49441906666667;0.1638888479166667;75;0.75;violin
109.49441906666667;0.1638888479166667;91;0.75;violin
109.66108569166666;0.1638888479166667;74;0.75;violin
109.66108569166666;0.1638888479166667;89;0.75;violin
109.82775231666666;0.1638888479166667;72;0.75;violin
109.82775231666666;0.1638888479166667;87;0.75;violin
109.99441894166665;0.1638888479166667;70;0.75;violin
109.99441894166665;0.1638888479166667;86;0.75;violin
110.16108556666666;0.1638888479166667;68;0.75;violin
110.16108556666666;0.1638888479166667;84;0.75;violin
110.32775219166666;0.1638888479166667;67;0.75;violin
110.32775219166666;0.1638888479166667;82;0.75;violin
110.49441881666667;0.1638888479166667;65;0.75;violin
110.49441881666667;0.1638888479166667;80;0.75;violin
110.66108544166666;0.1638888479166667;63;0.75;violin
110.66108544166666;0.1638888479166667;79;0.75;violin
110.82775206666666;0.1638888479166667;65;0.75;violin
110.82775206666666;0.1638888479166667;80;0.75;violin
110.99441869166665;0.1638888479166667;67;0.75;violin
110.99441869166665;0.1638888479166667;82;0.75;violin
111.16108531666666;0.1638888479166667;68;0.75;violin
111.16108531666666;0.1638888479166667;84;0.75;violin
111.32775194166666;0.1638888479166667;70;0.75;violin
111.32775194166666;0.1638888479166667;86;0.75;violin
111.49441856666667;0.1638888479166667;72;0.75;violin
111.49441856666667;0.1638888479166667;87;0.75;violin
111.66108519166666;0.1638888479166667;74;0.75;violin
111.66108519166666;0.1638888479166667;89;0.75;violin
111.82775181666666;0.1638888479166667;75;0.75;violin
111.82775181666666;0.1638888479166667;91;0.75;violin
111.99441844166665;1.3305552229166722;58;0.75;violin
111.99441844166665;0.07777775833334033;65;0.75;violin
112.07497397708333;0.07777775833332612;67;0.75;violin
112.16108506666666;0.07777775833334033;65;0.75;violin
112.24164060208332;0.07777775833334033;67;0.75;violin
112.32775169166666;0.07777775833332612;65;0.75;violin
112.40830722708333;0.07777775833332612;67;0.75;violin
112.49441831666667;0.07777775833332612;65;0.75;violin
112.57497385208333;0.07777775833332612;67;0.75;violin
112.66108494166666;0.07777775833334033;65;0.75;violin
112.74164047708332;0.07777775833334033;67;0.75;violin
112.82775156666666;0.07777775833332612;65;0.75;violin
112.90830710208333;0.07777775833334033;67;0.75;violin
112.99441819166665;0.07777775833334033;65;0.75;violin
113.07497372708333;0.07777775833332612;67;0.75;violin
113.16108481666666;0.07777775833334033;65;0.75;violin
113.24164035208332;0.07777775833334033;67;0.75;violin
113.32775144166666;1.3305552229166722;74;0.75;violin
113.32775144166666;0.07777775833332612;82;0.75;violin
113.40830697708333;0.07777775833332612;84;0.75;violin
113.49441806666667;0.07777775833332612;82;0.75;violin
113.57497360208333;0.07777775833332612;84;0.75;violin
113.66108469166666;0.07777775833334033;82;0.75;violin
113.74164022708332;0.07777775833334033;84;0.75;violin
113.82775131666666;0.07777775833332612;82;0.75;violin
113.90830685208333;0.07777775833334033;84;0.75;violin
113.99441794166665;0.07777775833334033;82;0.75;violin
114.07497347708332;0.07777775833334033;84;0.75;violin
114.16108456666666;0.07777775833332612;82;0.75;violin
114.24164010208332;0.07777775833334033;84;0.75;violin
114.32775119166666;0.07777775833332612;82;0.75;violin
114.40830672708333;0.07777775833332612;84;0.75;violin
114.49441781666667;0.07777775833332612;82;0.75;violin
114.57497335208333;0.07777775833332612;84;0.75;violin
114.66108444166666;0.1638888479166667;75;0.75;violin
114.82775106666666;0.1638888479166667;87;0.75;violin
114.99441769166665;0.1638888479166667;79;0.75;violin
114.99441769166665;0.1638888479166667;83;0.75;violin
115.16108431666666;0.1638888479166667;87;0.75;violin
115.32775094166666;0.1638888479166667;80;0.75;violin
115.32775094166666;0.1638888479166667;84;0.75;violin
115.49441756666666;0.1638888479166667;87;0.75;violin
115.66108419166666;0.1638888479166667;78;0.75;violin
115.66108419166666;0.1638888479166667;81;0.75;violin
115.82775081666666;0.1638888479166667;86;0.75;violin
115.99441744166666;0.1638888479166667;79;0.75;violin
115.99441744166666;0.1638888479166667;82;0.75;violin
116.16108406666666;0.1638888479166667;86;0.75;violin
116.32775069166667;0.1638888479166667;76;0.75;violin
116.32775069166667;0.1638888479166667;79;0.75;violin
116.49441731666666;0.1638888479166667;84;0.75;violin
116.66108394166666;0.1638888479166667;77;0.75;violin
116.66108394166666;0.1638888479166667;80;0.75;violin
116.82775056666667;0.1638888479166667;84;0.75;violin
116.99441719166666;0.1638888479166667;74;0.75;violin
116.99441719166666;0.1638888479166667;77;0.75;violin
117.16108381666666;0.1638888479166667;82;0.75;violin
117.32775044166667;0.1638888479166667;75;0.75;violin
117.32775044166667;0.1638888479166667;79;0.75;violin
117.49441706666666;0.1638888479166667;82;0.734375;violin
117.66108369166666;0.1638888479166667;72;0.7109375;violin
117.66108369166666;0.1638888479166667;75;0.7109375;violin
117.82775031666665;0.1638888479166667;80;0.6875;violin
117.99441694166666;0.1638888479166667;74;0.6640625;violin
117.99441694166666;0.1638888479166667;77;0.6640625;violin
118.16108356666666;0.1638888479166667;80;0.640625;violin
118.32775019166667;0.1638888479166667;71;0.6171875;violin
118.32775019166667;0.1638888479166667;74;0.6171875;violin
118.49441681666666;0.1638888479166667;79;0.59375;violin
118.66108344166666;0.1638888479166667;72;0.5703125;violin
118.66108344166666;0.1638888479166667;75;0.5703125;violin
118.82775006666665;0.1638888479166667;79;0.546875;violin
118.99441669166666;0.1638888479166667;69;0.5234375;violin
118.99441669166666;0.1638888479166667;72;0.5234375;violin
119.16108331666666;0.1638888479166667;77;0.5;violin
119.32774994166667;0.1638888479166667;70;0.4765625;violin
119.32774994166667;0.1638888479166667;73;0.4765625;violin
119.49441656666666;0.1638888479166667;77;0.453125;violin
119.66108319166666;0.1638888479166667;67;0.4296875;violin
119.66108319166666;0.1638888479166667;77;0.4296875;violin
119.82774981666665;0.1638888479166667;75;0.40625;violin
119.99441644166666;0.1638888479166667;68;0.3828125;violin
119.99441644166666;0.1638888479166667;73;0.3828125;violin
120.16108306666666;0.1638888479166667;72;0.3828125;violin
120.32774969166667;0.1638888479166667;67;0.3828125;violin
120.32774969166667;0.1638888479166667;72;0.3828125;violin
120.49441631666666;0.1638888479166667;75;0.3828125;violin
120.66108294166666;0.1638888479166667;66;0.3828125;violin
120.66108294166666;0.1638888479166667;75;0.3828125;violin
120.82774956666665;0.1638888479166667;74;0.3828125;violin
120.99441619166666;0.1638888479166667;69;0.3828125;violin
120.99441619166666;0.1638888479166667;74;0.3828125;violin
121.16108281666666;0.1638888479166667;72;0.3828125;violin
121.32774944166667;0.1638888479166667;67;0.3828125;violin
121.32774944166667;0.1638888479166667;72;0.3828125;violin
121.49441606666666;0.1638888479166667;70;0.3828125;violin
121.66108269166665;0.1638888479166667;65;0.3828125;violin
121.66108269166665;0.1638888479166667;70;0.3828125;violin
121.82774931666665;0.1638888479166667;73;0.3828125;violin
121.99441594166666;0.1638888479166667;64;0.3828125;violin
121.99441594166666;0.1638888479166667;73;0.3828125;violin
122.16108256666666;0.1638888479166667;72;0.3828125;violin
122.32774919166667;0.1638888479166667;67;0.3828125;violin
122.32774919166667;0.1638888479166667;72;0.3828125;violin
122.49441581666666;0.1638888479166667;70;0.3828125;violin
122.66108244166665;0.1638888479166667;65;0.3828125;violin
122.66108244166665;0.1638888479166667;68;0.3828125;violin
122.82774906666666;0.1638888479166667;67;0.3984375;violin
122.82774906666666;0.1638888479166667;70;0.3984375;violin
122.99441569166666;0.1638888479166667;68;0.421875;violin
122.99441569166666;0.1638888479166667;72;0.421875;violin
123.16108231666666;0.1638888479166667;67;0.4453125;violin
123.16108231666666;0.1638888479166667;70;0.4453125;violin
123.32774894166667;0.1638888479166667;65;0.46875;violin
123.32774894166667;0.1638888479166667;68;0.46875;violin
123.49441556666666;0.1638888479166667;63;0.4921875;violin
123.49441556666666;0.1638888479166667;67;0.4921875;violin
123.66108219166665;0.1638888479166667;62;0.515625;violin
123.66108219166665;0.1638888479166667;65;0.515625;violin
123.82774881666666;0.1638888479166667;60;0.5390625;violin
123.82774881666666;0.1638888479166667;63;0.5390625;violin
123.99441544166666;0.1638888479166667;58;0.5625;violin
123.99441544166666;0.1638888479166667;62;0.5625;violin
124.16108206666667;0.1638888479166667;80;0.5859375;violin
124.16108206666667;0.1638888479166667;89;0.5859375;violin
124.32774869166667;0.1638888479166667;77;0.609375;violin
124.32774869166667;0.1638888479166667;86;0.609375;violin
124.49441531666666;0.1638888479166667;74;0.6328125;violin
124.49441531666666;0.1638888479166667;82;0.6328125;violin
124.66108194166665;0.1638888479166667;70;0.65625;violin
124.66108194166665;0.1638888479166667;80;0.65625;violin
124.82774856666666;0.1638888479166667;68;0.6796875;violin
124.82774856666666;0.1638888479166667;77;0.6796875;violin
124.99441519166666;0.1638888479166667;65;0.703125;violin
124.99441519166666;0.1638888479166667;74;0.703125;violin
125.16108181666667;0.1638888479166667;56;0.7265625;violin
125.16108181666667;0.1638888479166667;62;0.7265625;violin
125.32774844166666;0.1638888479166667;55;0.75;violin
125.32774844166666;0.1638888479166667;63;0.75;violin
125.49441506666666;0.1638888479166667;67;0.75;violin
125.49441506666666;0.1638888479166667;82;0.75;violin
125.66108169166665;0.1638888479166667;68;0.75;violin
125.66108169166665;0.1638888479166667;84;0.75;violin
125.82774831666666;0.1638888479166667;70;0.75;violin
125.82774831666666;0.1638888479166667;86;0.75;violin
125.99441494166666;0.1638888479166667;72;0.75;violin
125.99441494166666;0.1638888479166667;87;0.75;violin
126.16108156666667;0.1638888479166667;74;0.75;violin
126.16108156666667;0.1638888479166667;89;0.75;violin
126.32774819166666;0.1638888479166667;75;0.75;violin
126.32774819166666;0.1638888479166667;91;0.75;violin
126.49441481666666;0.1638888479166667;77;0.75;violin
126.49441481666666;0.1638888479166667;92;0.75;violin
126.66108144166665;0.1638888479166667;79;0.75;violin
126.66108144166665;0.1638888479166667;94;0.75;violin
126.82774806666666;0.1638888479166667;77;0.75;violin
126.82774806666666;0.1638888479166667;92;0.75;violin
126.99441469166666;0.1638888479166667;75;0.75;violin
126.99441469166666;0.1638888479166667;91;0.75;violin
127.16108131666667;0.1638888479166667;74;0.75;violin
127.16108131666667;0.1638888479166667;89;0.75;violin
127.32774794166666;0.1638888479166667;72;0.75;violin
127.32774794166666;0.1638888479166667;87;0.75;violin
127.49441456666666;0.1638888479166667;70;0.75;violin
127.49441456666666;0.1638888479166667;86;0.75;violin
127.66108119166665;0.1638888479166667;68;0.75;violin
127.66108119166665;0.1638888479166667;84;0.75;violin
127.82774781666666;0.1638888479166667;67;0.75;violin
127.82774781666666;0.1638888479166667;82;0.75;violin
127.99441444166666;0.1638888479166667;56;0.75;violin
127.99441444166666;0.1638888479166667;63;0.75;violin
128.16108106666667;0.1638888479166667;60;0.75;violin
128.16108106666667;0.1638888479166667;63;0.75;violin
128.32774769166667;0.1638888479166667;63;0.75;violin
128.32774769166667;0.1638888479166667;68;0.75;violin
128.49441431666668;0.1638888479166667;63;0.75;violin
128.49441431666668;0.1638888479166667;72;0.75;violin
128.66108094166665;0.1638888479166667;72;0.75;violin
128.66108094166665;0.1638888479166667;75;0.75;violin
128.82774756666666;0.1638888479166667;75;0.75;violin
128.82774756666666;0.1638888479166667;80;0.75;violin
128.99441419166666;0.1638888479166667;80;0.75;violin
128.99441419166666;0.1638888479166667;84;0.75;violin
129.16108081666667;0.1638888479166667;84;0.75;violin
129.16108081666667;0.1638888479166667;87;0.75;violin
129.32774744166665;0.1638888479166667;81;0.75;violin
129.32774744166665;0.1638888479166667;84;0.75;violin
129.49441406666665;0.1638888479166667;90;0.75;violin
129.66108069166665;0.1638888479166667;78;0.75;violin
129.66108069166665;0.1638888479166667;81;0.75;violin
129.82774731666666;0.1638888479166667;87;0.75;violin
129.99441394166666;0.1638888479166667;75;0.75;violin
129.99441394166666;0.1638888479166667;78;0.75;violin
130.16108056666667;0.1638888479166667;84;0.75;violin
130.32774719166667;0.1638888479166667;72;0.75;violin
130.32774719166667;0.1638888479166667;75;0.75;violin
130.49441381666665;0.1638888479166667;81;0.75;violin
130.66108044166666;0.33055547291667153;70;0.75;violin
130.99441369166667;0.1638888479166667;74;0.75;violin
130.99441369166667;0.1638888479166667;90;0.75;violin
131.16108031666667;0.1638888479166667;75;0.75;violin
131.16108031666667;0.1638888479166667;91;0.75;violin
131.32774694166665;0.1638888479166667;73;0.75;violin
131.32774694166665;0.1638888479166667;88;0.75;violin
131.49441356666665;0.1638888479166667;74;0.75;violin
131.49441356666665;0.1638888479166667;89;0.75;violin
131.66108019166666;0.1638888479166667;71;0.75;violin
131.66108019166666;0.1638888479166667;86;0.75;violin
131.82774681666666;0.1638888479166667;72;0.75;violin
131.82774681666666;0.1638888479166667;87;0.75;violin
131.99441344166667;0.1638888479166667;69;0.75;violin
131.99441344166667;0.1638888479166667;85;0.75;violin
132.16108006666667;0.1638888479166667;70;0.75;violin
132.16108006666667;0.1638888479166667;86;0.75;violin
132.32774669166668;0.1638888479166667;67;0.75;violin
132.32774669166668;0.1638888479166667;83;0.75;violin
132.49441331666665;0.1638888479166667;68;0.75;violin
132.49441331666665;0.1638888479166667;84;0.75;violin
132.66107994166666;0.1638888479166667;66;0.75;violin
132.66107994166666;0.1638888479166667;81;0.75;violin
132.82774656666666;0.1638888479166667;67;0.75;violin
132.82774656666666;0.1638888479166667;82;0.75;violin
132.99441319166667;0.1638888479166667;64;0.75;violin
132.99441319166667;0.1638888479166667;79;0.75;violin
133.16107981666664;0.1638888479166667;65;0.75;violin
133.16107981666664;0.1638888479166667;80;0.75;violin
133.32774644166665;1.3305552229166722;58;0.75;violin
133.32774644166665;1.3305552229166722;65;0.75;violin
133.32774644166665;0.07777775833335454;74;0.75;violin
133.40830197708334;0.07777775833332612;75;0.75;violin
133.49441306666665;0.07777775833335454;74;0.75;violin
133.57496860208332;0.07777775833332612;75;0.75;violin
133.66107969166666;0.07777775833332612;74;0.75;violin
133.74163522708332;0.07777775833332612;75;0.75;violin
133.82774631666666;0.07777775833332612;74;0.75;violin
133.90830185208333;0.07777775833332612;75;0.75;violin
133.99441294166667;0.07777775833332612;74;0.75;violin
134.07496847708333;0.07777775833332612;75;0.75;violin
134.16107956666667;0.07777775833332612;74;0.75;violin
134.24163510208334;0.07777775833332612;75;0.75;violin
134.32774619166668;0.07777775833332612;74;0.75;violin
134.4083017270833;0.07777775833335454;75;0.75;violin
134.49441281666665;0.07777775833332612;74;0.75;violin
134.57496835208332;0.07777775833335454;75;0.75;violin
134.66107944166666;1.3305552229166722;65;0.75;violin
134.66107944166666;1.3305552229166722;74;0.75;violin
134.66107944166666;0.07777775833332612;82;0.75;violin
134.74163497708332;0.07777775833335454;84;0.75;violin
134.82774606666666;0.07777775833332612;82;0.75;violin
134.90830160208333;0.07777775833332612;84;0.75;violin
134.99441269166667;0.07777775833332612;82;0.75;violin
135.07496822708333;0.07777775833332612;84;0.75;violin
135.16107931666664;0.07777775833335454;82;0.75;violin
135.24163485208334;0.07777775833332612;84;0.75;violin
135.32774594166665;0.07777775833335454;82;0.75;violin
135.40830147708334;0.07777775833332612;84;0.75;violin
135.49441256666665;0.07777775833335454;82;0.75;violin
135.57496810208332;0.07777775833332612;84;0.75;violin
135.66107919166666;0.07777775833332612;82;0.75;violin
135.74163472708332;0.07777775833332612;84;0.75;violin
135.82774581666666;0.07777775833332612;82;0.75;violin
135.90830135208333;0.07777775833332612;84;0.75;violin
135.99441244166667;1.3305552229166437;55;0.75;violin
135.99441244166667;1.6638884729166534;63;0.75;violin
137.66107869166666;0.9972219729166625;55;0.75;violin
137.66107869166666;0.9972219729166625;63;0.75;violin
137.66107869166666;0.33055547291667153;75;0.75;violin
137.99441194166667;0.33055547291667153;74;0.75;violin
138.32774519166665;0.33055547291667153;73;0.75;violin
138.66107844166666;1.3305552229166722;56;0.75;violin
138.66107844166666;1.3305552229166722;65;0.75;violin
138.66107844166666;1.3305552229166722;73;0.75;violin
139.99441144166667;0.33055547291667153;72;0.75;violin
140.32774469166665;0.9972219729166625;57;0.75;violin
140.32774469166665;0.9972219729166625;65;0.75;violin
140.32774469166665;0.33055547291667153;77;0.75;violin
140.66107794166666;0.33055547291667153;76;0.75;violin
140.99441119166664;0.33055547291667153;75;0.75;violin
141.32774444166665;1.3305552229166722;58;0.75;violin
141.32774444166665;1.3305552229166722;65;0.75;violin
141.32774444166665;1.3305552229166722;75;0.75;violin
142.66107744166666;0.33055547291667153;74;0.75;violin
142.99441069166664;0.9972219729166909;62;0.75;violin
142.99441069166664;0.9972219729166909;70;0.75;violin
142.99441069166664;0.33055547291667153;82;0.75;violin
143.32774394166665;0.33055547291667153;81;0.75;violin
143.66107719166666;0.33055547291667153;80;0.75;violin
143.99441044166667;0.3305554729166431;63;0.75;violin
143.99441044166667;0.3305554729166431;70;0.75;violin
143.99441044166667;0.3305554729166431;80;0.75;violin
144.32774369166665;0.33055547291667153;79;0.7109375;violin
144.66107694166666;0.33055547291667153;57;0.6640625;violin
144.66107694166666;0.33055547291667153;66;0.6640625;violin
144.66107694166666;0.33055547291667153;72;0.6640625;violin
144.99441019166665;0.33055547291667153;75;0.6171875;violin
145.32774344166666;0.33055547291667153;58;0.5703125;violin
145.32774344166666;0.33055547291667153;67;0.5703125;violin
145.32774344166666;0.33055547291667153;75;0.5703125;violin
145.66107669166666;0.33055547291667153;70;0.5234375;violin
145.99440994166667;0.3305554729166431;58;0.4765625;violin
145.99440994166667;0.3305554729166431;68;0.4765625;violin
146.32774319166666;0.33055547291667153;65;0.4296875;violin
146.66107644166667;1.3305552229166722;55;0.3828125;violin
146.66107644166667;1.6638884729166534;63;0.3828125;violin
147.99440944166668;0.3305554729166431;59;0.3828125;violin
148.32774269166666;0.33055547291667153;59;0.3828125;violin
148.32774269166666;0.9972219729166625;62;0.3828125;violin
148.66107594166667;0.3305554729166431;58;0.3828125;violin
148.99440919166665;0.33055547291667153;56;0.3828125;violin
149.32774244166666;1.3305552229166722;55;0.3828125;violin
149.32774244166666;1.6638884729166534;63;0.3828125;violin
150.66107544166667;0.3305554729166431;59;0.3828125;violin
150.99440869166665;0.33055547291667153;59;0.3828125;violin
150.99440869166665;0.9972219729166909;62;0.3828125;violin
151.32774194166666;0.33055547291667153;58;0.3828125;violin
151.66107519166667;0.33055547291667153;56;0.3828125;violin
151.99440844166668;2.663888222916654;56;0.3828125;violin
151.99440844166668;2.663888222916654;62;0.3828125;violin
154.66107444166664;1.3305552229167006;55;0.3828125;violin
154.66107444166664;1.3305552229167006;63;0.3828125;violin
157.32774044166666;0.061111095833325635;60;0.3828125;violin
157.39162931458333;1.6638884729166534;72;0.3828125;violin
158.99440669166665;0.33055547291667153;67;0.3828125;violin
159.32773994166666;0.33055547291667153;72;0.3828125;violin
159.66107319166667;0.33055547291667153;74;0.3828125;violin
159.99440644166665;1.6638884729166818;72;0.3828125;violin
159.99440644166665;1.6638884729166818;75;0.3828125;violin
161.66107269166667;0.33055547291667153;67;0.3828125;violin
161.66107269166667;0.33055547291667153;74;0.3828125;violin
161.99440594166666;0.33055547291667153;72;0.3828125;violin
161.99440594166666;0.33055547291667153;75;0.3828125;violin
162.32773919166664;0.33055547291667153;74;0.3828125;violin
162.32773919166664;0.33055547291667153;77;0.3828125;violin
162.66107244166665;1.6638884729166818;75;0.3828125;violin
162.66107244166665;1.6638884729166818;79;0.3828125;violin
164.32773869166664;0.33055547291667153;74;0.3828125;violin
164.32773869166664;0.33055547291667153;77;0.3828125;violin
164.66107194166665;0.33055547291667153;72;0.3828125;violin
164.66107194166665;0.33055547291667153;75;0.3828125;violin
164.99440519166666;0.33055547291667153;71;0.3828125;violin
164.99440519166666;0.33055547291667153;74;0.3828125;violin
165.32773844166667;1.3305552229166437;72;0.3828125;violin
165.32773844166667;1.3305552229166437;75;0.3828125;violin
166.66107144166665;0.33055547291667153;71;0.3828125;violin
166.66107144166665;0.33055547291667153;74;0.3828125;violin
166.99440469166666;0.33055547291667153;55;0.75;violin
166.99440469166666;0.33055547291667153;67;0.75;violin
167.32773794166667;0.33055547291667153;56;0.75;violin
167.32773794166667;0.33055547291667153;68;0.75;violin
167.66107119166668;0.3305554729166431;55;0.75;violin
167.66107119166668;0.3305554729166431;67;0.75;violin
167.99440444166666;0.061111095833325635;60;0.3828125;violin
168.05829331458332;1.6638884729166818;72;0.3828125;violin
169.66107069166665;0.33055547291667153;67;0.3828125;violin
169.99440394166666;0.3305554729166431;72;0.3828125;violin
170.32773719166664;0.33055547291667153;74;0.3828125;violin
170.66107044166665;1.6638884729166534;72;0.3828125;violin
170.66107044166665;1.6638884729166534;75;0.3828125;violin
172.32773669166664;0.33055547291667153;67;0.3828125;violin
172.32773669166664;0.33055547291667153;74;0.3828125;violin
172.66106994166665;0.33055547291667153;72;0.3828125;violin
172.66106994166665;0.33055547291667153;75;0.3828125;violin
172.99440319166666;0.33055547291667153;74;0.3828125;violin
172.99440319166666;0.33055547291667153;77;0.3828125;violin
173.32773644166667;1.6638884729166534;75;0.3828125;violin
173.32773644166667;1.6638884729166534;79;0.3828125;violin
174.99440269166666;0.33055547291667153;74;0.3828125;violin
174.99440269166666;0.33055547291667153;77;0.3828125;violin
175.32773594166667;0.33055547291667153;72;0.3828125;violin
175.32773594166667;0.33055547291667153;75;0.3828125;violin
175.66106919166666;0.33055547291667153;71;0.3828125;violin
175.66106919166666;0.33055547291667153;74;0.3828125;violin
175.99440244166667;1.3305552229166722;72;0.3828125;violin
175.99440244166667;1.3305552229166722;75;0.3828125;violin
177.32773544166668;0.3305554729166431;71;0.3828125;violin
177.32773544166668;0.3305554729166431;74;0.3828125;violin
177.66106869166666;0.33055547291667153;55;0.75;violin
177.66106869166666;0.33055547291667153;67;0.75;violin
177.99440194166664;0.33055547291667153;56;0.75;violin
177.99440194166664;0.33055547291667153;68;0.75;violin
178.32773519166665;0.33055547291667153;55;0.75;violin
178.32773519166665;0.33055547291667153;67;0.75;violin
178.66106844166666;1.6638884729166534;56;0.75;violin
178.66106844166666;1.6638884729166534;68;0.75;violin
180.32773469166665;0.33055547291667153;72;0.75;violin
180.32773469166665;0.33055547291667153;84;0.75;violin
180.66106794166666;0.33055547291667153;70;0.75;violin
180.66106794166666;0.33055547291667153;82;0.75;violin
180.99440119166667;0.33055547291667153;68;0.75;violin
180.99440119166667;0.33055547291667153;80;0.75;violin
181.32773444166668;1.6638884729166534;67;0.75;violin
181.32773444166668;1.6638884729166534;79;0.75;violin
182.99440069166667;0.33055547291667153;55;0.75;violin
182.99440069166667;0.33055547291667153;67;0.75;violin
183.32773394166668;0.3305554729166431;56;0.75;violin
183.32773394166668;0.3305554729166431;68;0.75;violin
183.66106719166666;0.3305554729166431;55;0.75;violin
183.66106719166666;0.3305554729166431;67;0.75;violin
183.99440044166664;1.6638884729166818;56;0.75;violin
183.99440044166664;1.6638884729166818;66;0.75;violin
185.66106669166666;0.9972219729166625;56;0.75;violin
185.66106669166666;0.9972219729166625;66;0.75;violin
185.66106669166666;0.3305554729166431;75;0.75;violin
185.99439994166664;0.33055547291667153;74;0.75;violin
186.32773319166665;0.33055547291667153;72;0.75;violin
186.66106644166666;1.3305552229166437;55;0.75;violin
186.66106644166666;1.3305552229166437;67;0.75;violin
186.66106644166666;1.3305552229166437;72;0.75;violin
187.99439944166664;0.33055547291667153;55;0.75;violin
187.99439944166664;0.33055547291667153;67;0.75;violin
187.99439944166664;0.33055547291667153;71;0.75;violin
188.32773269166665;0.9972219729166909;62;0.75;violin
188.32773269166665;0.9972219729166909;71;0.75;violin
188.32773269166665;0.33055547291667153;79;0.75;violin
188.66106594166666;0.33055547291667153;80;0.75;violin
188.99439919166667;0.33055547291667153;79;0.75;violin
189.32773244166665;1.3305552229166722;63;0.75;violin
189.32773244166665;1.3305552229166722;72;0.75;violin
189.32773244166665;1.3305552229166722;79;0.75;violin
190.66106544166666;0.33055547291667153;84;0.75;violin
190.99439869166667;0.9972219729166341;62;0.75;violin
190.99439869166667;0.9972219729166341;71;0.75;violin
190.99439869166667;0.3305554729166431;79;0.75;violin
191.32773194166666;0.33055547291667153;80;0.75;violin
191.66106519166664;0.33055547291667153;79;0.75;violin
191.99439844166665;1.3305552229166722;63;0.75;violin
191.99439844166665;1.3305552229166722;72;0.75;violin
191.99439844166665;1.3305552229166722;79;0.75;violin
193.32773144166666;0.33055547291667153;84;0.75;violin
193.66106469166664;0.9972219729166909;61;0.75;violin
193.66106469166664;0.9972219729166909;68;0.75;violin
193.66106469166664;0.33055547291667153;80;0.75;violin
193.99439794166665;0.33055547291667153;77;0.75;violin
194.32773119166666;0.33055547291667153;73;0.75;violin
194.66106444166667;1.3305552229166437;60;0.75;violin
194.66106444166667;1.3305552229166437;72;0.75;violin
195.99439744166665;0.33055547291667153;55;0.75;violin
195.99439744166665;0.33055547291667153;74;0.75;violin
196.32773069166666;0.9972219729166625;55;0.75;violin
196.32773069166666;0.9972219729166625;67;0.75;violin
196.32773069166666;0.33055547291667153;72;0.75;violin
196.66106394166667;0.33055547291667153;74;0.75;violin
196.99439719166668;0.3305554729166431;75;0.75;violin
197.32773044166666;1.3305552229166722;60;0.75;violin
197.32773044166666;1.3305552229166722;67;0.75;violin
197.32773044166666;1.3305552229166722;74;0.75;violin
198.66106344166667;0.6638887229166528;60;0.75;violin
198.66106344166667;0.6638887229166528;67;0.75;violin
198.66106344166667;0.6638887229166528;72;0.75;violin
199.99439644166665;0.10833330625001736;60;0.75;violin
199.99439644166665;0.10833330625001736;63;0.75;violin
200.2166186083333;0.10833330625001736;62;0.75;violin
200.2166186083333;0.10833330625001736;65;0.75;violin
200.438840775;0.10833330624998894;63;0.75;violin
200.438840775;0.10833330624998894;67;0.75;violin
200.66106294166667;0.10833330624998894;65;0.75;violin
200.66106294166667;0.10833330624998894;68;0.75;violin
200.88328510833333;0.10833330625001736;67;0.75;violin
200.88328510833333;0.10833330625001736;71;0.75;violin
201.10550727499998;0.10833330625001736;69;0.75;violin
201.10550727499998;0.10833330625001736;72;0.75;violin
201.32772944166666;0.10833330624998894;71;0.75;violin
201.32772944166666;0.10833330624998894;74;0.75;violin
201.54995160833334;0.10833330624996051;72;0.75;violin
201.54995160833334;0.10833330624996051;75;0.75;violin
201.772173775;0.10833330624998894;74;0.75;violin
201.772173775;0.10833330624998894;77;0.75;violin
201.99439594166665;0.10833330625001736;75;0.75;violin
201.99439594166665;0.10833330625001736;79;0.75;violin
202.2166181083333;0.10833330625001736;77;0.75;violin
202.2166181083333;0.10833330625001736;80;0.75;violin
202.438840275;0.10833330624998894;74;0.75;violin
202.438840275;0.10833330624998894;83;0.75;violin
202.66106244166667;0.10833330624998894;72;0.75;violin
202.66106244166667;0.10833330624998894;84;0.75;violin
202.88328460833333;0.10833330625001736;60;0.75;violin
203.10550677499998;0.10833330625001736;72;0.75;violin
203.10550677499998;0.10833330625001736;87;0.75;violin
203.32772894166666;0.10833330624998894;74;0.75;violin
203.32772894166666;0.10833330624998894;89;0.75;violin
203.54995110833332;0.10833330624998894;75;0.75;violin
203.54995110833332;0.10833330624998894;91;0.75;violin
203.772173275;0.10833330624998894;77;0.75;violin
203.772173275;0.10833330624998894;92;0.75;violin
203.99439544166665;0.10833330625001736;79;0.75;violin
203.99439544166665;0.10833330625001736;95;0.75;violin
204.2166176083333;0.10833330625001736;81;0.75;violin
204.2166176083333;0.10833330625001736;96;0.75;violin
204.438839775;0.10833330624998894;83;0.75;violin
204.438839775;0.10833330624998894;98;0.75;violin
204.66106194166667;0.10833330624998894;84;0.75;violin
204.66106194166667;0.10833330624998894;99;0.75;violin
204.88328410833333;0.10833330624998894;63;0.75;violin
204.88328410833333;0.10833330624998894;67;0.75;violin
205.10550627499998;0.10833330625001736;60;0.75;violin
205.10550627499998;0.10833330625001736;63;0.75;violin
205.32772844166664;0.10833330625001736;59;0.75;violin
205.32772844166664;0.10833330625001736;62;0.75;violin
205.54995060833332;0.10833330624998894;60;0.75;violin
205.54995060833332;0.10833330624998894;63;0.75;violin
205.772172775;0.10833330624998894;62;0.75;violin
205.772172775;0.10833330624998894;65;0.75;violin
205.99439494166666;0.10833330625001736;63;0.75;violin
205.99439494166666;0.10833330625001736;67;0.75;violin
206.2166171083333;0.10833330625001736;65;0.75;violin
206.2166171083333;0.10833330625001736;68;0.75;violin
206.438839275;0.10833330624998894;67;0.75;violin
206.438839275;0.10833330624998894;71;0.75;violin
206.66106144166667;0.10833330624998894;69;0.75;violin
206.66106144166667;0.10833330624998894;72;0.75;violin
206.88328360833333;0.10833330624998894;71;0.75;violin
206.88328360833333;0.10833330624998894;74;0.75;violin
207.10550577499998;0.10833330625001736;72;0.75;violin
207.10550577499998;0.10833330625001736;75;0.75;violin
207.32772794166664;0.10833330625001736;74;0.75;violin
207.32772794166664;0.10833330625001736;77;0.75;violin
207.54995010833332;0.10833330624998894;75;0.75;violin
207.54995010833332;0.10833330624998894;79;0.75;violin
207.772172275;0.10833330624998894;77;0.75;violin
207.772172275;0.10833330624998894;80;0.75;violin
207.99439444166666;0.10833330625001736;74;0.75;violin
207.99439444166666;0.10833330625001736;83;0.75;violin
208.2166166083333;0.10833330625001736;55;0.75;violin
208.438838775;0.10833330624998894;71;0.75;violin
208.438838775;0.10833330624998894;86;0.75;violin
208.66106094166668;0.10833330624996051;72;0.75;violin
208.66106094166668;0.10833330624996051;87;0.75;violin
208.88328310833333;0.10833330624998894;74;0.75;violin
208.88328310833333;0.10833330624998894;89;0.75;violin
209.10550527499998;0.10833330625001736;75;0.75;violin
209.10550527499998;0.10833330625001736;91;0.75;violin
209.32772744166664;0.10833330625001736;77;0.75;violin
209.32772744166664;0.10833330625001736;92;0.75;violin
209.54994960833332;0.10833330624998894;79;0.75;violin
209.54994960833332;0.10833330624998894;95;0.75;violin
209.772171775;0.10833330624998894;81;0.75;violin
209.772171775;0.10833330624998894;96;0.75;violin
209.99439394166666;0.10833330625001736;83;0.75;violin
209.99439394166666;0.10833330625001736;98;0.75;violin
210.2166161083333;0.10833330625001736;62;0.75;violin
210.2166161083333;0.10833330625001736;65;0.75;violin
210.438838275;0.10833330624998894;59;0.75;violin
210.438838275;0.10833330624998894;62;0.75;violin
210.66106044166668;0.10833330624996051;60;0.75;violin
210.66106044166668;0.10833330624996051;63;0.75;violin
210.88328260833333;0.21944438958331602;80;0.75;violin
211.10550477499999;0.21944438958334445;79;0.75;violin
211.32772694166664;0.10833330625001736;60;0.75;violin
211.32772694166664;0.10833330625001736;63;0.75;violin
211.54994910833332;0.21944438958334445;80;0.75;violin
211.772171275;0.21944438958331602;79;0.75;violin
211.99439344166666;0.10833330625001736;58;0.75;violin
211.99439344166666;0.10833330625001736;63;0.75;violin
212.2166156083333;0.21944438958334445;80;0.75;violin
212.438837775;0.21944438958334445;79;0.75;violin
212.66105994166665;0.10833330624998894;58;0.75;violin
212.66105994166665;0.10833330624998894;63;0.75;violin
212.88328210833333;0.21944438958331602;80;0.75;violin
213.105504275;0.21944438958331602;79;0.75;violin
213.32772644166664;0.10833330625001736;56;0.75;violin
213.32772644166664;0.10833330625001736;63;0.75;violin
213.54994860833332;0.21944438958334445;79;0.75;violin
213.772170775;0.21944438958331602;77;0.75;violin
213.99439294166666;0.10833330625001736;56;0.75;violin
213.99439294166666;0.10833330625001736;63;0.75;violin
214.21661510833331;0.21944438958334445;79;0.75;violin
214.43883727499997;0.21944438958337287;77;0.75;violin
214.66105944166665;0.21944438958334445;80;0.75;violin
214.66105944166665;0.21944438958334445;84;0.75;violin
214.88328160833333;0.21944438958331602;77;0.75;violin
214.88328160833333;0.21944438958331602;80;0.75;violin
215.105503775;0.21944438958331602;72;0.75;violin
215.105503775;0.21944438958331602;77;0.75;violin
215.32772594166664;0.21944438958334445;68;0.75;violin
215.32772594166664;0.21944438958334445;72;0.75;violin
215.54994810833333;0.21944438958334445;60;0.75;violin
215.54994810833333;0.21944438958334445;68;0.75;violin
215.772170275;0.21944438958331602;56;0.75;violin
215.772170275;0.21944438958331602;65;0.75;violin
215.99439244166666;0.10833330624998894;57;0.75;violin
215.99439244166666;0.10833330624998894;63;0.75;violin
216.21661460833332;0.21944438958334445;79;0.75;violin
216.438836775;0.21944438958331602;77;0.75;violin
216.66105894166665;0.10833330625001736;57;0.75;violin
216.66105894166665;0.10833330625001736;63;0.75;violin
216.88328110833334;0.21944438958331602;79;0.75;violin
217.105503275;0.21944438958334445;77;0.75;violin
217.32772544166664;0.21944438958334445;75;0.75;violin
217.32772544166664;0.21944438958334445;84;0.75;violin
217.54994760833333;0.21944438958331602;72;0.75;violin
217.54994760833333;0.21944438958331602;81;0.75;violin
217.77216977499998;0.21944438958334445;69;0.75;violin
217.77216977499998;0.21944438958334445;77;0.75;violin
217.99439194166666;0.21944438958331602;65;0.75;violin
217.99439194166666;0.21944438958331602;72;0.75;violin
218.21661410833332;0.21944438958334445;63;0.75;violin
218.21661410833332;0.21944438958334445;69;0.75;violin
218.438836275;0.21944438958331602;60;0.75;violin
218.438836275;0.21944438958331602;63;0.75;violin
218.66105844166665;0.10833330624998894;58;0.75;violin
218.66105844166665;0.10833330624998894;62;0.75;violin
218.88328060833334;0.21944438958331602;81;0.75;violin
218.88328060833334;0.21944438958331602;84;0.75;violin
219.105502775;0.21944438958334445;82;0.75;violin
219.105502775;0.21944438958334445;86;0.75;violin
219.32772494166665;0.10833330625001736;86;0.75;violin
219.32772494166665;0.10833330625001736;89;0.75;violin
219.54994710833333;0.21944438958331602;84;0.75;violin
219.54994710833333;0.21944438958331602;87;0.75;violin
219.77216927499998;0.21944438958334445;82;0.75;violin
219.77216927499998;0.21944438958334445;86;0.75;violin
219.99439144166666;0.10833330624998894;80;0.75;violin
219.99439144166666;0.10833330624998894;86;0.75;violin
220.21661360833332;0.21944438958334445;80;0.75;violin
220.21661360833332;0.21944438958334445;83;0.75;violin
220.438835775;0.21944438958331602;80;0.75;violin
220.438835775;0.21944438958331602;82;0.75;violin
220.66105794166666;0.10833330624998894;80;0.75;violin
220.66105794166666;0.10833330624998894;86;0.75;violin
220.8832801083333;0.21944438958334445;80;0.75;violin
220.8832801083333;0.21944438958334445;83;0.75;violin
221.105502275;0.21944438958334445;80;0.75;violin
221.105502275;0.21944438958334445;82;0.75;violin
221.32772444166665;0.21944438958334445;79;0.75;violin
221.32772444166665;0.21944438958334445;82;0.75;violin
221.54994660833333;0.21944438958331602;79;0.75;violin
221.54994660833333;0.21944438958331602;87;0.75;violin
221.77216877499998;0.21944438958334445;77;0.75;violin
221.77216877499998;0.21944438958334445;86;0.75;violin
221.99439094166667;0.21944438958331602;75;0.75;violin
221.99439094166667;0.21944438958331602;84;0.75;violin
222.21661310833332;0.21944438958334445;74;0.75;violin
222.21661310833332;0.21944438958334445;82;0.75;violin
222.438835275;0.21944438958331602;72;0.75;violin
222.438835275;0.21944438958331602;81;0.75;violin
222.66105744166666;0.21944438958334445;70;0.75;violin
222.66105744166666;0.21944438958334445;79;0.75;violin
222.8832796083333;0.21944438958334445;69;0.75;violin
222.8832796083333;0.21944438958334445;77;0.75;violin
223.105501775;0.21944438958331602;65;0.75;violin
223.105501775;0.21944438958331602;75;0.75;violin
223.32772394166665;0.21944438958334445;65;0.75;violin
223.32772394166665;0.21944438958334445;72;0.75;violin
223.54994610833333;0.21944438958331602;63;0.75;violin
223.54994610833333;0.21944438958331602;69;0.75;violin
223.77216827499998;0.21944438958334445;60;0.75;violin
223.77216827499998;0.21944438958334445;63;0.75;violin
223.99439044166667;0.10833330624998894;58;0.75;violin
223.99439044166667;0.10833330624998894;62;0.75;violin
224.21661260833332;0.21944438958334445;69;0.75;violin
224.21661260833332;0.21944438958334445;72;0.75;violin
224.438834775;0.21944438958331602;70;0.75;violin
224.438834775;0.21944438958331602;74;0.75;violin
224.66105694166666;0.10833330624998894;74;0.75;violin
224.66105694166666;0.10833330624998894;77;0.75;violin
224.8832791083333;0.21944438958334445;72;0.75;violin
224.8832791083333;0.21944438958334445;75;0.75;violin
225.105501275;0.21944438958331602;70;0.75;violin
225.105501275;0.21944438958331602;74;0.75;violin
225.32772344166665;0.10833330625001736;68;0.75;violin
225.32772344166665;0.10833330625001736;74;0.75;violin
225.54994560833333;0.21944438958331602;68;0.75;violin
225.54994560833333;0.21944438958331602;71;0.75;violin
225.77216777499999;0.21944438958334445;68;0.75;violin
225.77216777499999;0.21944438958334445;70;0.75;violin
225.99438994166667;0.10833330624998894;68;0.75;violin
225.99438994166667;0.10833330624998894;74;0.75;violin
226.21661210833332;0.21944438958334445;68;0.75;violin
226.21661210833332;0.21944438958334445;71;0.75;violin
226.43883427499998;0.21944438958334445;68;0.75;violin
226.43883427499998;0.21944438958334445;70;0.75;violin
226.66105644166666;0.21944438958334445;67;0.75;violin
226.66105644166666;0.21944438958334445;70;0.75;violin
226.8832786083333;0.21944438958334445;67;0.75;violin
226.8832786083333;0.21944438958334445;75;0.75;violin
227.105500775;0.21944438958331602;65;0.75;violin
227.105500775;0.21944438958331602;74;0.75;violin
227.32772294166665;0.21944438958334445;63;0.75;violin
227.32772294166665;0.21944438958334445;72;0.75;violin
227.54994510833333;0.21944438958331602;62;0.75;violin
227.54994510833333;0.21944438958331602;70;0.75;violin
227.772167275;0.21944438958334445;60;0.75;violin
227.772167275;0.21944438958334445;69;0.75;violin
227.99438944166667;0.21944438958331602;58;0.75;violin
227.99438944166667;0.21944438958331602;67;0.75;violin
228.21661160833332;0.21944438958334445;57;0.75;violin
228.21661160833332;0.21944438958334445;65;0.75;violin
228.43883377499998;0.21944438958334445;75;0.75;violin
228.43883377499998;0.21944438958334445;77;0.75;violin
228.66105594166666;0.21944438958331602;72;0.75;violin
228.66105594166666;0.21944438958331602;77;0.75;violin
228.88327810833331;0.21944438958334445;72;0.75;violin
228.88327810833331;0.21944438958334445;75;0.75;violin
229.105500275;0.21944438958331602;60;0.75;violin
229.105500275;0.21944438958331602;63;0.75;violin
229.32772244166665;1.3305552229166722;58;0.75;violin
229.32772244166665;1.3305552229166722;62;0.75;violin
230.66105544166666;0.33055547291667153;70;0.75;violin
230.99438869166664;0.33055547291667153;58;0.75;violin
230.99438869166664;0.33055547291667153;62;0.75;violin
230.99438869166664;0.9972219729166909;70;0.75;violin
231.32772194166665;0.33055547291667153;60;0.75;violin
231.32772194166665;0.33055547291667153;63;0.75;violin
231.66105519166666;0.33055547291667153;62;0.75;violin
231.66105519166666;0.33055547291667153;65;0.75;violin
231.99438844166664;1.6638884729166818;63;0.75;violin
231.99438844166664;1.3305552229166722;67;0.75;violin
231.99438844166664;1.3305552229166722;70;0.75;violin
233.32772144166665;0.33055547291667153;66;0.75;violin
233.32772144166665;0.33055547291667153;69;0.75;violin
233.66105469166666;0.33055547291667153;63;0.75;violin
233.66105469166666;0.33055547291667153;66;0.75;violin
233.66105469166666;0.9972219729166625;69;0.75;violin
233.99438794166664;0.33055547291667153;62;0.75;violin
233.99438794166664;0.33055547291667153;65;0.75;violin
234.32772119166665;0.33055547291667153;60;0.75;violin
234.32772119166665;0.33055547291667153;63;0.75;violin
234.66105444166666;1.3305552229166722;60;0.75;violin
234.66105444166666;1.3305552229166722;63;0.75;violin
234.66105444166666;1.3305552229166722;69;0.75;violin
235.99438744166665;0.6638887229166812;58;0.75;violin
235.99438744166665;0.6638887229166812;62;0.75;violin
235.99438744166665;0.6638887229166812;70;0.75;violin
236.66105394166667;0.6638887229166528;60;0.75;violin
236.66105394166667;0.08055553541666427;63;0.75;violin
236.66105394166667;0.6638887229166528;69;0.75;violin
236.74438725416667;0.08055553541666427;65;0.75;violin
236.82772056666664;0.08055553541669269;63;0.75;violin
236.91105387916664;0.08055553541666427;65;0.75;violin
236.99438719166665;0.08055553541666427;63;0.75;violin
237.07772050416665;0.08055553541666427;65;0.75;violin
237.16105381666665;0.08055553541666427;63;0.75;violin
237.24438712916665;0.08055553541666427;65;0.75;violin
237.32772044166666;1.3305552229166722;60;0.75;violin
237.32772044166666;1.3305552229166722;63;0.75;violin
237.32772044166666;1.3305552229166722;69;0.75;violin
238.66105344166667;0.6638887229166528;58;0.75;violin
238.66105344166667;0.6638887229166528;62;0.75;violin
238.66105344166667;0.6638887229166528;70;0.75;violin
239.32771994166666;0.6638887229166528;60;0.75;violin
239.32771994166666;0.08055553541666427;63;0.75;violin
239.32771994166666;0.6638887229166528;69;0.75;violin
239.41105325416666;0.08055553541666427;65;0.75;violin
239.49438656666666;0.08055553541666427;63;0.75;violin
239.57771987916666;0.08055553541666427;65;0.75;violin
239.66105319166667;0.08055553541666427;63;0.75;violin
239.74438650416667;0.08055553541666427;65;0.75;violin
239.82771981666664;0.08055553541669269;63;0.75;violin
239.91105312916665;0.08055553541666427;65;0.75;violin
239.99438644166665;0.05555556249998972;69;0.75;violin
240.05549756041665;0.05555556249998972;70;0.75;violin
240.12216423541665;0.05555556249998972;72;0.75;violin
240.18327535416665;3.9916671645833333;58;0.75;violin
240.18327535416665;3.9916671645833333;62;0.75;violin
240.18327535416665;3.9916671645833333;70;0.75;violin
245.32216488333333;0.1638888479166667;79;0.75;violin
245.32216488333333;0.1638888479166667;82;0.75;violin
245.48883150833333;0.1638888479166667;87;0.75;violin
245.6554981333333;0.1638888479166667;78;0.75;violin
245.6554981333333;0.1638888479166667;81;0.75;violin
245.82216475833332;0.1638888479166667;87;0.75;violin
245.98883138333332;0.1638888479166667;79;0.75;violin
245.98883138333332;0.1638888479166667;82;0.75;violin
246.15549800833332;0.1638888479166667;87;0.75;violin
246.32216463333333;0.1638888479166667;78;0.75;violin
246.32216463333333;0.1638888479166667;81;0.75;violin
246.48883125833333;0.1638888479166667;87;0.75;violin
246.6554978833333;0.1638888479166667;79;0.75;violin
246.6554978833333;0.1638888479166667;82;0.75;violin
246.82216450833332;0.1638888479166667;87;0.75;violin
246.98883113333332;0.1638888479166667;78;0.75;violin
246.98883113333332;0.1638888479166667;81;0.75;violin
247.15549775833333;0.1638888479166667;87;0.75;violin
247.32216438333333;0.1638888479166667;79;0.75;violin
247.32216438333333;0.1638888479166667;82;0.75;violin
247.48883100833334;0.1638888479166667;87;0.75;violin
247.6554976333333;0.1638888479166667;78;0.75;violin
247.6554976333333;0.1638888479166667;81;0.75;violin
247.82216425833332;0.1638888479166667;87;0.75;violin
247.98883088333332;0.1638888479166667;79;0.75;violin
247.98883088333332;0.1638888479166667;82;0.75;violin
248.15549750833333;0.1638888479166667;75;0.75;violin
248.15549750833333;0.1638888479166667;79;0.75;violin
248.32216413333333;0.1638888479166667;77;0.75;violin
248.32216413333333;0.1638888479166667;80;0.75;violin
248.48883075833334;0.1638888479166667;79;0.75;violin
248.48883075833334;0.1638888479166667;82;0.75;violin
248.6554973833333;0.1638888479166667;80;0.75;violin
248.6554973833333;0.1638888479166667;84;0.75;violin
248.82216400833332;0.1638888479166667;82;0.75;violin
248.82216400833332;0.1638888479166667;86;0.75;violin
248.98883063333332;0.1638888479166667;84;0.75;violin
248.98883063333332;0.1638888479166667;87;0.75;violin
249.15549725833333;0.1638888479166667;86;0.75;violin
249.15549725833333;0.1638888479166667;89;0.75;violin
249.32216388333333;0.1638888479166667;87;0.75;violin
249.32216388333333;0.1638888479166667;91;0.75;violin
249.48883050833334;0.1638888479166667;86;0.75;violin
249.48883050833334;0.1638888479166667;89;0.75;violin
249.6554971333333;0.1638888479166667;84;0.75;violin
249.6554971333333;0.1638888479166667;87;0.75;violin
249.82216375833332;0.1638888479166667;82;0.75;violin
249.82216375833332;0.1638888479166667;86;0.75;violin
249.98883038333332;0.1638888479166667;80;0.75;violin
249.98883038333332;0.1638888479166667;84;0.75;violin
250.15549700833333;0.1638888479166667;79;0.75;violin
250.15549700833333;0.1638888479166667;82;0.75;violin
250.32216363333333;0.1638888479166667;77;0.75;violin
250.32216363333333;0.1638888479166667;80;0.75;violin
250.48883025833334;0.1638888479166667;75;0.75;violin
250.48883025833334;0.1638888479166667;79;0.75;violin
250.6554968833333;0.1638888479166667;62;0.75;violin
250.6554968833333;0.1638888479166667;70;0.75;violin
250.82216350833332;0.1638888479166667;65;0.75;violin
250.98883013333332;0.1638888479166667;63;0.75;violin
250.98883013333332;0.1638888479166667;69;0.75;violin
251.15549675833333;0.1638888479166667;66;0.75;violin
251.32216338333333;0.1638888479166667;62;0.75;violin
251.32216338333333;0.1638888479166667;70;0.75;violin
251.48883000833334;0.1638888479166667;65;0.75;violin
251.6554966333333;0.1638888479166667;63;0.75;violin
251.6554966333333;0.1638888479166667;69;0.75;violin
251.82216325833332;0.1638888479166667;66;0.75;violin
251.98882988333332;0.1638888479166667;62;0.75;violin
251.98882988333332;0.1638888479166667;70;0.75;violin
252.15549650833333;0.1638888479166667;65;0.75;violin
252.32216313333333;0.1638888479166667;63;0.75;violin
252.32216313333333;0.1638888479166667;69;0.75;violin
252.48882975833334;0.1638888479166667;66;0.75;violin
252.65549638333331;0.1638888479166667;62;0.75;violin
252.65549638333331;0.1638888479166667;70;0.75;violin
252.82216300833332;0.1638888479166667;65;0.75;violin
252.98882963333332;0.1638888479166667;63;0.75;violin
252.98882963333332;0.1638888479166667;69;0.75;violin
253.15549625833333;0.1638888479166667;66;0.75;violin
253.32216288333333;0.1638888479166667;62;0.75;violin
253.32216288333333;0.1638888479166667;70;0.75;violin
253.4888295083333;0.1638888479166667;70;0.75;violin
253.4888295083333;0.1638888479166667;74;0.75;violin
253.65549613333332;0.1638888479166667;74;0.75;violin
253.65549613333332;0.1638888479166667;77;0.75;violin
253.82216275833332;0.1638888479166667;72;0.75;violin
253.82216275833332;0.1638888479166667;75;0.75;violin
253.98882938333333;0.1638888479166667;70;0.75;violin
253.98882938333333;0.1638888479166667;74;0.75;violin
254.15549600833333;0.1638888479166667;74;0.75;violin
254.15549600833333;0.1638888479166667;77;0.75;violin
254.32216263333333;0.1638888479166667;77;0.75;violin
254.32216263333333;0.1638888479166667;80;0.75;violin
254.4888292583333;0.1638888479166667;75;0.75;violin
254.4888292583333;0.1638888479166667;79;0.75;violin
254.65549588333332;0.1638888479166667;74;0.75;violin
254.65549588333332;0.1638888479166667;77;0.75;violin
254.82216250833332;0.1638888479166667;72;0.75;violin
254.82216250833332;0.1638888479166667;75;0.75;violin
254.98882913333333;0.1638888479166667;70;0.75;violin
254.98882913333333;0.1638888479166667;74;0.75;violin
255.15549575833333;0.1638888479166667;68;0.75;violin
255.15549575833333;0.1638888479166667;72;0.75;violin
255.32216238333334;0.1638888479166667;67;0.75;violin
255.32216238333334;0.1638888479166667;70;0.75;violin
255.4888290083333;0.1638888479166667;65;0.75;violin
255.4888290083333;0.1638888479166667;68;0.75;violin
255.65549563333332;0.1638888479166667;63;0.75;violin
255.65549563333332;0.1638888479166667;67;0.75;violin
255.82216225833332;0.1638888479166667;62;0.75;violin
255.82216225833332;0.1638888479166667;65;0.75;violin
255.98882888333333;0.1638888479166667;55;0.75;violin
255.98882888333333;0.1638888479166667;63;0.75;violin
256.15549550833333;0.1638888479166667;58;0.75;violin
256.32216213333334;0.1638888479166667;59;0.75;violin
256.32216213333334;0.1638888479166667;62;0.75;violin
256.48882875833334;0.1638888479166667;56;0.75;violin
256.65549538333335;0.1638888479166667;55;0.75;violin
256.65549538333335;0.1638888479166667;63;0.75;violin
256.82216200833335;0.1638888479166667;58;0.75;violin
256.9888286333333;0.1638888479166667;59;0.75;violin
256.9888286333333;0.1638888479166667;62;0.75;violin
257.1554952583333;0.1638888479166667;56;0.75;violin
257.3221618833333;0.1638888479166667;55;0.75;violin
257.3221618833333;0.1638888479166667;63;0.75;violin
257.4888285083333;0.1638888479166667;58;0.75;violin
257.6554951333333;0.1638888479166667;59;0.75;violin
257.6554951333333;0.1638888479166667;62;0.75;violin
257.8221617583333;0.1638888479166667;56;0.75;violin
257.9888283833333;0.1638888479166667;55;0.75;violin
257.9888283833333;0.1638888479166667;63;0.75;violin
258.15549500833333;0.1638888479166667;58;0.75;violin
258.32216163333334;0.1638888479166667;59;0.75;violin
258.32216163333334;0.1638888479166667;62;0.75;violin
258.48882825833334;0.1638888479166667;56;0.75;violin
258.65549488333335;0.1638888479166667;55;0.75;violin
258.65549488333335;0.1638888479166667;63;0.75;violin
258.82216150833335;0.16388884791660985;58;0.75;violin
258.9888281333333;0.1638888479166667;59;0.75;violin
258.9888281333333;0.1638888479166667;62;0.75;violin
259.1554947583333;0.1638888479166667;56;0.75;violin
259.3221613833333;0.1638888479166667;55;0.75;violin
259.3221613833333;0.1638888479166667;63;0.75;violin
259.4888280083333;0.1638888479166667;58;0.75;violin
259.6554946333333;0.1638888479166667;61;0.75;violin
259.6554946333333;0.1638888479166667;64;0.75;violin
259.8221612583333;0.1638888479166667;58;0.75;violin
259.98882788333333;0.1638888479166667;57;0.75;violin
259.98882788333333;0.1638888479166667;65;0.75;violin
260.15549450833333;0.1638888479166667;59;0.75;violin
260.32216113333334;0.1638888479166667;61;0.75;violin
260.32216113333334;0.1638888479166667;64;0.75;violin
260.48882775833334;0.1638888479166667;58;0.75;violin
260.65549438333335;0.1638888479166667;57;0.75;violin
260.65549438333335;0.1638888479166667;65;0.75;violin
260.8221610083333;0.1638888479166667;59;0.75;violin
260.9888276333333;0.1638888479166667;63;0.75;violin
260.9888276333333;0.1638888479166667;66;0.75;violin
261.1554942583333;0.1638888479166667;59;0.75;violin
261.3221608833333;0.1638888479166667;59;0.75;violin
261.3221608833333;0.1638888479166667;67;0.75;violin
261.4888275083333;0.1638888479166667;62;0.75;violin
261.6554941333333;0.1638888479166667;63;0.75;violin
261.6554941333333;0.1638888479166667;66;0.75;violin
261.8221607583333;0.1638888479166667;60;0.75;violin
261.98882738333333;0.1638888479166667;59;0.75;violin
261.98882738333333;0.1638888479166667;67;0.75;violin
262.15549400833333;0.1638888479166667;62;0.75;violin
262.32216063333334;0.1638888479166667;65;0.75;violin
262.32216063333334;0.1638888479166667;67;0.75;violin
262.48882725833334;0.1638888479166667;62;0.75;violin
262.65549388333335;0.1638888479166667;60;0.75;violin
262.65549388333335;0.1638888479166667;68;0.75;violin
262.8221605083333;0.1638888479166667;63;0.75;violin
262.9888271333333;0.1638888479166667;65;0.75;violin
262.9888271333333;0.1638888479166667;69;0.75;violin
263.1554937583333;0.1638888479166667;63;0.75;violin
263.3221603833333;0.1638888479166667;62;0.75;violin
263.3221603833333;0.1638888479166667;70;0.75;violin
263.4888270083333;0.1638888479166667;65;0.75;violin
263.6554936333333;0.1638888479166667;68;0.75;violin
263.6554936333333;0.1638888479166667;70;0.75;violin
263.8221602583333;0.1638888479166667;65;0.75;violin
263.98882688333333;0.1638888479166667;63;0.75;violin
263.98882688333333;0.1638888479166667;70;0.75;violin
264.15549350833334;0.1638888479166667;67;0.75;violin
264.32216013333334;0.1638888479166667;64;0.75;violin
264.32216013333334;0.1638888479166667;70;0.75;violin
264.48882675833335;0.1638888479166667;67;0.75;violin
264.65549338333335;0.16388884791660985;65;0.75;violin
264.65549338333335;0.16388884791660985;70;0.75;violin
264.8221600083333;0.1638888479166667;74;0.75;violin
264.9888266333333;0.1638888479166667;66;0.75;violin
264.9888266333333;0.1638888479166667;70;0.75;violin
265.1554932583333;0.1638888479166667;75;0.75;violin
265.3221598833333;0.1638888479166667;69;0.75;violin
265.3221598833333;0.1638888479166667;72;0.75;violin
265.4888265083333;0.1638888479166667;72;0.75;violin
265.4888265083333;0.1638888479166667;75;0.75;violin
265.6554931333333;0.1638888479166667;72;0.75;violin
265.6554931333333;0.1638888479166667;75;0.75;violin
265.8221597583333;0.1638888479166667;75;0.75;violin
265.8221597583333;0.1638888479166667;78;0.75;violin
265.98882638333333;0.1638888479166667;75;0.75;violin
265.98882638333333;0.1638888479166667;78;0.75;violin
266.15549300833334;0.1638888479166667;78;0.75;violin
266.15549300833334;0.1638888479166667;81;0.75;violin
266.32215963333334;0.1638888479166667;78;0.75;violin
266.32215963333334;0.1638888479166667;81;0.75;violin
266.48882625833335;0.1638888479166667;81;0.75;violin
266.48882625833335;0.1638888479166667;84;0.75;violin
266.6554928833333;0.16388884791672353;58;0.75;violin
266.8221595083333;0.1638888479166667;75;0.75;violin
266.8221595083333;0.1638888479166667;91;0.75;violin
266.9888261333333;0.1638888479166667;74;0.75;violin
266.9888261333333;0.1638888479166667;89;0.75;violin
267.1554927583333;0.1638888479166667;72;0.75;violin
267.1554927583333;0.1638888479166667;87;0.75;violin
267.3221593833333;0.1638888479166667;70;0.75;violin
267.3221593833333;0.1638888479166667;86;0.75;violin
267.4888260083333;0.1638888479166667;68;0.75;violin
267.4888260083333;0.1638888479166667;84;0.75;violin
267.6554926333333;0.1638888479166667;67;0.75;violin
267.6554926333333;0.1638888479166667;82;0.75;violin
267.82215925833333;0.1638888479166667;65;0.75;violin
267.82215925833333;0.1638888479166667;80;0.75;violin
267.98882588333333;0.1638888479166667;63;0.75;violin
267.98882588333333;0.1638888479166667;79;0.75;violin
268.15549250833334;0.1638888479166667;65;0.75;violin
268.15549250833334;0.1638888479166667;80;0.75;violin
268.32215913333334;0.1638888479166667;67;0.75;violin
268.32215913333334;0.1638888479166667;82;0.75;violin
268.48882575833335;0.1638888479166667;68;0.75;violin
268.48882575833335;0.1638888479166667;84;0.75;violin
268.65549238333335;0.16388884791660985;70;0.75;violin
268.65549238333335;0.16388884791660985;86;0.75;violin
268.8221590083333;0.1638888479166667;72;0.75;violin
268.8221590083333;0.1638888479166667;87;0.75;violin
268.9888256333333;0.1638888479166667;74;0.75;violin
268.9888256333333;0.1638888479166667;89;0.75;violin
269.1554922583333;0.1638888479166667;75;0.75;violin
269.1554922583333;0.1638888479166667;91;0.75;violin
269.3221588833333;1.3305552229167006;58;0.75;violin
269.3221588833333;0.07777775833335454;65;0.75;violin
269.40271441875;0.0777777583332977;67;0.75;violin
269.4888255083333;0.07777775833335454;65;0.75;violin
269.56938104375;0.0777777583332977;67;0.75;violin
269.6554921333333;0.07777775833335454;65;0.75;violin
269.73604766874996;0.07777775833335454;67;0.75;violin
269.82215875833333;0.07777775833335454;65;0.75;violin
269.90271429374997;0.07777775833335454;67;0.75;violin
269.98882538333334;0.0777777583332977;65;0.75;violin
270.06938091874997;0.07777775833335454;67;0.75;violin
270.15549200833334;0.0777777583332977;65;0.75;violin
270.23604754375;0.07777775833335454;67;0.75;violin
270.32215863333334;0.0777777583332977;65;0.75;violin
270.40271416875;0.07777775833335454;67;0.75;violin
270.48882525833335;0.0777777583332977;65;0.75;violin
270.56938079375;0.07777775833335454;67;0.75;violin
270.6554918833333;1.3305552229167006;74;0.75;violin
270.6554918833333;0.07777775833335454;82;0.75;violin
270.73604741875;0.07777775833335454;84;0.75;violin
270.8221585083333;0.07777775833335454;82;0.75;violin
270.90271404375;0.07777775833335454;84;0.75;violin
270.9888251333333;0.07777775833335454;82;0.75;violin
271.06938066875;0.0777777583332977;84;0.75;violin
271.1554917583333;0.07777775833335454;82;0.75;violin
271.23604729375;0.0777777583332977;84;0.75;violin
271.3221583833333;0.07777775833335454;82;0.75;violin
271.40271391875;0.0777777583332977;84;0.75;violin
271.4888250083333;0.07777775833335454;82;0.75;violin
271.56938054375;0.0777777583332977;84;0.75;violin
271.6554916333333;0.07777775833335454;82;0.75;violin
271.73604716875;0.0777777583332977;84;0.75;violin
271.82215825833333;0.0777777583332977;82;0.75;violin
271.90271379374997;0.07777775833335454;84;0.75;violin
271.98882488333334;0.1638888479166667;75;0.75;violin
272.15549150833334;0.1638888479166667;87;0.75;violin
272.32215813333335;0.1638888479166667;79;0.75;violin
272.32215813333335;0.1638888479166667;83;0.75;violin
272.4888247583333;0.16388884791672353;87;0.75;violin
272.6554913833333;0.1638888479166667;80;0.75;violin
272.6554913833333;0.1638888479166667;84;0.75;violin
272.8221580083333;0.1638888479166667;87;0.75;violin
272.9888246333333;0.1638888479166667;78;0.75;violin
272.9888246333333;0.1638888479166667;81;0.75;violin
273.1554912583333;0.1638888479166667;86;0.75;violin
273.3221578833333;0.1638888479166667;79;0.75;violin
273.3221578833333;0.1638888479166667;82;0.75;violin
273.4888245083333;0.1638888479166667;86;0.75;violin
273.6554911333333;0.1638888479166667;76;0.75;violin
273.6554911333333;0.1638888479166667;79;0.75;violin
273.82215775833333;0.1638888479166667;84;0.75;violin
273.98882438333334;0.1638888479166667;77;0.75;violin
273.98882438333334;0.1638888479166667;80;0.75;violin
274.15549100833334;0.1638888479166667;84;0.75;violin
274.32215763333335;0.1638888479166667;74;0.75;violin
274.32215763333335;0.1638888479166667;77;0.75;violin
274.48882425833335;0.16388884791660985;82;0.75;violin
274.6554908833333;0.1638888479166667;75;0.75;violin
274.6554908833333;0.1638888479166667;79;0.75;violin
274.8221575083333;0.1638888479166667;82;0.734375;violin
274.9888241333333;0.1638888479166667;72;0.7109375;violin
274.9888241333333;0.1638888479166667;75;0.7109375;violin
275.1554907583333;0.1638888479166667;80;0.6875;violin
275.3221573833333;0.1638888479166667;74;0.6640625;violin
275.3221573833333;0.1638888479166667;77;0.6640625;violin
275.4888240083333;0.1638888479166667;80;0.640625;violin
275.65549063333333;0.1638888479166667;71;0.6171875;violin
275.65549063333333;0.1638888479166667;74;0.6171875;violin
275.82215725833333;0.1638888479166667;79;0.59375;violin
275.98882388333334;0.1638888479166667;72;0.5703125;violin
275.98882388333334;0.1638888479166667;75;0.5703125;violin
276.15549050833334;0.1638888479166667;79;0.546875;violin
276.32215713333335;0.1638888479166667;69;0.5234375;violin
276.32215713333335;0.1638888479166667;72;0.5234375;violin
276.4888237583333;0.1638888479166667;77;0.5;violin
276.6554903833333;0.1638888479166667;70;0.4765625;violin
276.6554903833333;0.1638888479166667;73;0.4765625;violin
276.8221570083333;0.1638888479166667;77;0.453125;violin
276.9888236333333;0.1638888479166667;67;0.4296875;violin
276.9888236333333;0.1638888479166667;77;0.4296875;violin
277.1554902583333;0.1638888479166667;75;0.40625;violin
277.3221568833333;0.1638888479166667;68;0.3828125;violin
277.3221568833333;0.1638888479166667;73;0.3828125;violin
277.4888235083333;0.1638888479166667;72;0.3828125;violin
277.65549013333333;0.1638888479166667;67;0.3828125;violin
277.65549013333333;0.1638888479166667;72;0.3828125;violin
277.82215675833334;0.1638888479166667;75;0.3828125;violin
277.98882338333334;0.1638888479166667;66;0.3828125;violin
277.98882338333334;0.1638888479166667;75;0.3828125;violin
278.15549000833335;0.1638888479166667;74;0.3828125;violin
278.3221566333333;0.16388884791672353;69;0.3828125;violin
278.3221566333333;0.16388884791672353;74;0.3828125;violin
278.48882325833335;0.16388884791660985;72;0.3828125;violin
278.6554898833333;0.1638888479166667;67;0.3828125;violin
278.6554898833333;0.1638888479166667;72;0.3828125;violin
278.8221565083333;0.1638888479166667;70;0.3828125;violin
278.9888231333333;0.1638888479166667;65;0.3828125;violin
278.9888231333333;0.1638888479166667;70;0.3828125;violin
279.1554897583333;0.1638888479166667;73;0.3828125;violin
279.3221563833333;0.1638888479166667;64;0.3828125;violin
279.3221563833333;0.1638888479166667;73;0.3828125;violin
279.4888230083333;0.1638888479166667;72;0.3828125;violin
279.65548963333333;0.1638888479166667;67;0.3828125;violin
279.65548963333333;0.1638888479166667;72;0.3828125;violin
279.82215625833334;0.1638888479166667;70;0.3828125;violin
279.98882288333334;0.1638888479166667;65;0.3828125;violin
279.98882288333334;0.1638888479166667;68;0.3828125;violin
280.15548950833335;0.1638888479166667;67;0.3984375;violin
280.15548950833335;0.1638888479166667;70;0.3984375;violin
280.32215613333335;0.16388884791660985;68;0.421875;violin
280.32215613333335;0.16388884791660985;72;0.421875;violin
280.4888227583333;0.1638888479166667;67;0.4453125;violin
280.4888227583333;0.1638888479166667;70;0.4453125;violin
280.6554893833333;0.1638888479166667;65;0.46875;violin
280.6554893833333;0.1638888479166667;68;0.46875;violin
280.8221560083333;0.1638888479166667;63;0.4921875;violin
280.8221560083333;0.1638888479166667;67;0.4921875;violin
280.9888226333333;0.1638888479166667;62;0.515625;violin
280.9888226333333;0.1638888479166667;65;0.515625;violin
281.1554892583333;0.1638888479166667;60;0.5390625;violin
281.1554892583333;0.1638888479166667;63;0.5390625;violin
281.3221558833333;0.1638888479166667;58;0.5625;violin
281.3221558833333;0.1638888479166667;62;0.5625;violin
281.4888225083333;0.1638888479166667;80;0.5859375;violin
281.4888225083333;0.1638888479166667;89;0.5859375;violin
281.65548913333333;0.1638888479166667;77;0.609375;violin
281.65548913333333;0.1638888479166667;86;0.609375;violin
281.82215575833334;0.1638888479166667;74;0.6328125;violin
281.82215575833334;0.1638888479166667;82;0.6328125;violin
281.98882238333334;0.1638888479166667;70;0.65625;violin
281.98882238333334;0.1638888479166667;80;0.65625;violin
282.15548900833335;0.1638888479166667;68;0.6796875;violin
282.15548900833335;0.1638888479166667;77;0.6796875;violin
282.3221556333333;0.16388884791672353;65;0.703125;violin
282.3221556333333;0.16388884791672353;74;0.703125;violin
282.4888222583333;0.1638888479166667;56;0.7265625;violin
282.4888222583333;0.1638888479166667;62;0.7265625;violin
282.6554888833333;0.1638888479166667;55;0.75;violin
282.6554888833333;0.1638888479166667;63;0.75;violin
282.8221555083333;0.1638888479166667;67;0.75;violin
282.8221555083333;0.1638888479166667;82;0.75;violin
282.9888221333333;0.1638888479166667;68;0.75;violin
282.9888221333333;0.1638888479166667;84;0.75;violin
283.1554887583333;0.1638888479166667;70;0.75;violin
283.1554887583333;0.1638888479166667;86;0.75;violin
283.3221553833333;0.1638888479166667;72;0.75;violin
283.3221553833333;0.1638888479166667;87;0.75;violin
283.48882200833333;0.1638888479166667;74;0.75;violin
283.48882200833333;0.1638888479166667;89;0.75;violin
283.65548863333333;0.1638888479166667;75;0.75;violin
283.65548863333333;0.1638888479166667;91;0.75;violin
283.82215525833334;0.1638888479166667;77;0.75;violin
283.82215525833334;0.1638888479166667;92;0.75;violin
283.98882188333334;0.1638888479166667;79;0.75;violin
283.98882188333334;0.1638888479166667;94;0.75;violin
284.1554885083333;0.16388884791672353;77;0.75;violin
284.1554885083333;0.16388884791672353;92;0.75;violin
284.32215513333335;0.16388884791660985;75;0.75;violin
284.32215513333335;0.16388884791660985;91;0.75;violin
284.4888217583333;0.1638888479166667;74;0.75;violin
284.4888217583333;0.1638888479166667;89;0.75;violin
284.6554883833333;0.1638888479166667;72;0.75;violin
284.6554883833333;0.1638888479166667;87;0.75;violin
284.8221550083333;0.1638888479166667;70;0.75;violin
284.8221550083333;0.1638888479166667;86;0.75;violin
284.9888216333333;0.1638888479166667;68;0.75;violin
284.9888216333333;0.1638888479166667;84;0.75;violin
285.1554882583333;0.1638888479166667;67;0.75;violin
285.1554882583333;0.1638888479166667;82;0.75;violin
285.3221548833333;0.1638888479166667;56;0.75;violin
285.3221548833333;0.1638888479166667;63;0.75;violin
285.48882150833333;0.1638888479166667;60;0.75;violin
285.48882150833333;0.1638888479166667;63;0.75;violin
285.65548813333334;0.1638888479166667;63;0.75;violin
285.65548813333334;0.1638888479166667;68;0.75;violin
285.82215475833334;0.1638888479166667;63;0.75;violin
285.82215475833334;0.1638888479166667;72;0.75;violin
285.98882138333335;0.1638888479166667;72;0.75;violin
285.98882138333335;0.1638888479166667;75;0.75;violin
286.15548800833335;0.16388884791660985;75;0.75;violin
286.15548800833335;0.16388884791660985;80;0.75;violin
286.3221546333333;0.1638888479166667;80;0.75;violin
286.3221546333333;0.1638888479166667;84;0.75;violin
286.4888212583333;0.1638888479166667;84;0.75;violin
286.4888212583333;0.1638888479166667;87;0.75;violin
286.6554878833333;0.1638888479166667;81;0.75;violin
286.6554878833333;0.1638888479166667;84;0.75;violin
286.8221545083333;0.1638888479166667;90;0.75;violin
286.9888211333333;0.1638888479166667;78;0.75;violin
286.9888211333333;0.1638888479166667;81;0.75;violin
287.1554877583333;0.1638888479166667;87;0.75;violin
287.3221543833333;0.1638888479166667;75;0.75;violin
287.3221543833333;0.1638888479166667;78;0.75;violin
287.48882100833333;0.1638888479166667;84;0.75;violin
287.65548763333334;0.1638888479166667;72;0.75;violin
287.65548763333334;0.1638888479166667;75;0.75;violin
287.82215425833334;0.1638888479166667;81;0.75;violin
287.98882088333335;0.33055547291667153;70;0.75;violin
288.3221541333333;0.1638888479166667;74;0.75;violin
288.3221541333333;0.1638888479166667;90;0.75;violin
288.4888207583333;0.1638888479166667;75;0.75;violin
288.4888207583333;0.1638888479166667;91;0.75;violin
288.6554873833333;0.1638888479166667;73;0.75;violin
288.6554873833333;0.1638888479166667;88;0.75;violin
288.8221540083333;0.1638888479166667;74;0.75;violin
288.8221540083333;0.1638888479166667;89;0.75;violin
288.9888206333333;0.1638888479166667;71;0.75;violin
288.9888206333333;0.1638888479166667;86;0.75;violin
289.1554872583333;0.1638888479166667;72;0.75;violin
289.1554872583333;0.1638888479166667;87;0.75;violin
289.3221538833333;0.1638888479166667;69;0.75;violin
289.3221538833333;0.1638888479166667;85;0.75;violin
289.48882050833333;0.1638888479166667;70;0.75;violin
289.48882050833333;0.1638888479166667;86;0.75;violin
289.65548713333334;0.1638888479166667;67;0.75;violin
289.65548713333334;0.1638888479166667;83;0.75;violin
289.82215375833334;0.1638888479166667;68;0.75;violin
289.82215375833334;0.1638888479166667;84;0.75;violin
289.9888203833333;0.16388884791672353;66;0.75;violin
289.9888203833333;0.16388884791672353;81;0.75;violin
290.15548700833335;0.16388884791660985;67;0.75;violin
290.15548700833335;0.16388884791660985;82;0.75;violin
290.3221536333333;0.1638888479166667;64;0.75;violin
290.3221536333333;0.1638888479166667;79;0.75;violin
290.4888202583333;0.1638888479166667;65;0.75;violin
290.4888202583333;0.1638888479166667;80;0.75;violin
290.6554868833333;1.3305552229167006;58;0.75;violin
290.6554868833333;1.3305552229167006;65;0.75;violin
290.6554868833333;0.07777775833335454;74;0.75;violin
290.73604241875;0.0777777583332977;75;0.75;violin
290.8221535083333;0.07777775833335454;74;0.75;violin
290.90270904375;0.0777777583332977;75;0.75;violin
290.9888201333333;0.07777775833335454;74;0.75;violin
291.06937566875;0.0777777583332977;75;0.75;violin
291.1554867583333;0.07777775833335454;74;0.75;violin
291.23604229374996;0.07777775833335454;75;0.75;violin
291.32215338333333;0.07777775833335454;74;0.75;violin
291.40270891874997;0.07777775833335454;75;0.75;violin
291.48882000833333;0.0777777583332977;74;0.75;violin
291.56937554374997;0.07777775833335454;75;0.75;violin
291.65548663333334;0.0777777583332977;74;0.75;violin
291.73604216875;0.07777775833335454;75;0.75;violin
291.82215325833334;0.0777777583332977;74;0.75;violin
291.90270879375;0.07777775833335454;75;0.75;violin
291.98881988333335;1.3305552229166437;65;0.75;violin
291.98881988333335;1.3305552229166437;74;0.75;violin
291.98881988333335;0.0777777583332977;82;0.75;violin
292.06937541875;0.07777775833335454;84;0.75;violin
292.1554865083333;0.07777775833335454;82;0.75;violin
292.23604204375;0.07777775833335454;84;0.75;violin
292.3221531333333;0.07777775833335454;82;0.75;violin
292.40270866875;0.0777777583332977;84;0.75;violin
292.4888197583333;0.07777775833335454;82;0.75;violin
292.56937529375;0.07777775833335454;84;0.75;violin
292.6554863833333;0.07777775833335454;82;0.75;violin
292.73604191875;0.0777777583332977;84;0.75;violin
292.8221530083333;0.07777775833335454;82;0.75;violin
292.90270854375;0.0777777583332977;84;0.75;violin
292.9888196333333;0.07777775833335454;82;0.75;violin
293.06937516875;0.0777777583332977;84;0.75;violin
293.1554862583333;0.07777775833335454;82;0.75;violin
293.23604179375;0.0777777583332977;84;0.75;violin
293.32215288333333;1.3305552229166437;55;0.75;violin
293.32215288333333;1.6638884729166534;63;0.75;violin
294.9888191333333;0.9972219729166909;55;0.75;violin
294.9888191333333;0.9972219729166909;63;0.75;violin
294.9888191333333;0.33055547291667153;75;0.75;violin
295.32215238333333;0.33055547291667153;74;0.75;violin
295.65548563333334;0.33055547291667153;73;0.75;violin
295.98881888333335;1.3305552229166437;56;0.75;violin
295.98881888333335;1.3305552229166437;65;0.75;violin
295.98881888333335;1.3305552229166437;73;0.75;violin
297.32215188333333;0.33055547291667153;72;0.75;violin
297.65548513333334;0.9972219729166341;57;0.75;violin
297.65548513333334;0.9972219729166341;65;0.75;violin
297.65548513333334;0.3305554729166147;77;0.75;violin
297.9888183833333;0.33055547291667153;76;0.75;violin
298.3221516333333;0.33055547291667153;75;0.75;violin
298.6554848833333;1.3305552229167006;58;0.75;violin
298.6554848833333;1.3305552229167006;65;0.75;violin
298.6554848833333;1.3305552229167006;75;0.75;violin
299.98881788333335;0.3305554729166147;74;0.75;violin
300.3221511333333;0.9972219729166909;62;0.75;violin
300.3221511333333;0.9972219729166909;70;0.75;violin
300.3221511333333;0.33055547291667153;82;0.75;violin
300.6554843833333;0.33055547291667153;81;0.75;violin
300.9888176333333;0.33055547291667153;80;0.75;violin
301.32215088333334;0.33055547291667153;63;0.75;violin
301.32215088333334;0.33055547291667153;70;0.75;violin
301.32215088333334;0.33055547291667153;80;0.75;violin
301.65548413333335;0.3305554729166147;79;0.7109375;violin
301.9888173833333;0.33055547291667153;57;0.6640625;violin
301.9888173833333;0.33055547291667153;66;0.6640625;violin
301.9888173833333;0.33055547291667153;72;0.6640625;violin
302.3221506333333;0.33055547291667153;75;0.6171875;violin
302.6554838833333;0.33055547291667153;58;0.5703125;violin
302.6554838833333;0.33055547291667153;67;0.5703125;violin
302.6554838833333;0.33055547291667153;75;0.5703125;violin
302.9888171333333;0.33055547291667153;70;0.5234375;violin
303.32215038333334;0.33055547291667153;58;0.4765625;violin
303.32215038333334;0.33055547291667153;68;0.4765625;violin
303.65548363333335;0.33055547291667153;65;0.4296875;violin
303.9888168833333;1.3305552229167006;55;0.3828125;violin
303.9888168833333;1.6638884729167103;63;0.3828125;violin
305.32214988333334;0.33055547291667153;59;0.3828125;violin
305.6554831333333;0.33055547291667153;59;0.3828125;violin
305.6554831333333;0.9972219729166909;62;0.3828125;violin
305.9888163833333;0.33055547291667153;58;0.3828125;violin
306.3221496333333;0.33055547291667153;56;0.3828125;violin
306.6554828833333;1.3305552229166437;55;0.3828125;violin
306.6554828833333;1.6638884729166534;63;0.3828125;violin
307.9888158833333;0.33055547291667153;59;0.3828125;violin
308.3221491333333;0.33055547291667153;59;0.3828125;violin
308.3221491333333;0.9972219729166909;62;0.3828125;violin
308.6554823833333;0.33055547291667153;58;0.3828125;violin
308.98881563333333;0.33055547291667153;56;0.3828125;violin
309.32214888333334;2.6638882229166825;56;0.3828125;violin
309.32214888333334;2.6638882229166825;62;0.3828125;violin
311.9888148833333;1.3305552229167006;55;0.3828125;violin
311.9888148833333;1.3305552229167006;63;0.3828125;violin
314.6554808833333;1.3305552229166437;58;0.3828125;violin
314.6554808833333;1.3305552229166437;64;0.3828125;violin
315.9888138833333;0.33055547291667153;61;0.421875;violin
316.3221471333333;0.33055547291667153;61;0.4375;violin
316.3221471333333;0.9972219729166909;64;0.4375;violin
316.6554803833333;0.33055547291667153;60;0.4453125;violin
316.98881363333334;0.33055547291667153;58;0.4609375;violin
317.3221468833333;1.3305552229167006;56;0.46875;violin
317.3221468833333;1.3305552229167006;65;0.46875;violin
318.6554798833333;0.33055547291667153;68;0.515625;violin
318.98881313333334;0.9972219729166341;56;0.53125;violin
318.98881313333334;0.33055547291667153;68;0.53125;violin
319.32214638333335;0.33055547291667153;67;0.5390625;violin
319.6554796333333;0.33055547291667153;65;0.5546875;violin
319.9888128833333;0.07777775833335454;58;0.5625;violin
319.9888128833333;2.6638882229166825;64;0.5625;violin
320.06936841875;0.0777777583332977;60;0.5625;violin
320.15270173125;0.07777775833335454;58;0.5703125;violin
320.23603504375;0.0777777583332977;60;0.5703125;violin
320.3221461333333;0.07777775833335454;58;0.5703125;violin
320.40270166874996;0.07777775833335454;60;0.578125;violin
320.48603498125;0.07777775833335454;58;0.578125;violin
320.56936829375;0.0777777583332977;60;0.5859375;violin
320.65547938333333;0.0777777583332977;58;0.5859375;violin
320.73603491874997;0.07777775833335454;60;0.5859375;violin
320.81936823125;0.07777775833335454;58;0.59375;violin
320.90270154374997;0.07777775833335454;60;0.59375;violin
320.98881263333334;0.0777777583332977;58;0.59375;violin
321.06936816875;0.07777775833335454;60;0.6015625;violin
321.15270148125;0.0777777583332977;58;0.6015625;violin
321.23603479375;0.07777775833335454;60;0.6015625;violin
321.3221458833333;0.07777775833335454;58;0.609375;violin
321.40270141875;0.07777775833335454;60;0.609375;violin
321.48603473125;0.0777777583332977;58;0.6171875;violin
321.56936804375;0.0777777583332977;60;0.6171875;violin
321.6554791333333;0.07777775833335454;58;0.6171875;violin
321.73603466875;0.07777775833335454;60;0.625;violin
321.81936798124997;0.07777775833335454;58;0.625;violin
321.90270129375;0.0777777583332977;60;0.625;violin
321.9888123833333;0.07777775833335454;58;0.6328125;violin
322.06936791875;0.0777777583332977;60;0.6328125;violin
322.15270123125;0.07777775833335454;58;0.640625;violin
322.23603454375;0.0777777583332977;60;0.640625;violin
322.3221456333333;0.07777775833335454;58;0.640625;violin
322.40270116875;0.0777777583332977;60;0.6484375;violin
322.48603448125;0.07777775833335454;58;0.6484375;violin
322.56936779374996;0.07777775833335454;60;0.6484375;violin
322.65547888333333;1.3305552229166437;56;0.65625;violin
322.65547888333333;1.3305552229166437;65;0.65625;violin
323.9888118833333;0.33055547291667153;68;0.703125;violin
324.3221451333333;0.9972219729166341;56;0.7109375;violin
324.3221451333333;0.33055547291667153;68;0.7109375;violin
324.65547838333333;0.33055547291667153;67;0.7265625;violin
324.98881163333334;0.3305554729166147;65;0.734375;violin
325.3221448833333;1.3305552229167006;56;0.75;violin
325.3221448833333;1.3305552229167006;66;0.75;violin
325.3221448833333;1.3305552229167006;72;0.75;violin
326.65547788333333;0.33055547291667153;75;0.75;violin
326.98881113333334;0.9972219729166341;56;0.75;violin
326.98881113333334;0.9972219729166341;66;0.75;violin
326.98881113333334;0.33055547291667153;75;0.75;violin
327.32214438333335;0.3305554729166147;73;0.75;violin
327.6554776333333;0.33055547291667153;72;0.75;violin
327.9888108833333;1.3305552229166437;56;0.75;violin
327.9888108833333;1.3305552229166437;65;0.75;violin
327.9888108833333;1.3305552229166437;73;0.75;violin
329.3221438833333;0.33055547291667153;77;0.75;violin
329.6554771333333;0.9972219729166909;56;0.75;violin
329.6554771333333;0.9972219729166909;65;0.75;violin
329.6554771333333;0.33055547291667153;77;0.75;violin
329.9888103833333;0.33055547291667153;75;0.75;violin
330.3221436333333;0.33055547291667153;73;0.75;violin
330.65547688333334;1.3305552229166437;57;0.75;violin
330.65547688333334;1.3305552229166437;65;0.75;violin
330.65547688333334;1.3305552229166437;72;0.75;violin
331.9888098833333;0.33055547291667153;60;0.75;violin
332.3221431333333;0.33055547291667153;60;0.75;violin
332.3221431333333;0.9972219729166341;65;0.75;violin
332.3221431333333;0.9972219729166341;72;0.75;violin
332.65547638333334;0.33055547291667153;58;0.75;violin
332.9888096333333;0.33055547291667153;57;0.75;violin
333.3221428833333;1.3305552229167006;58;0.75;violin
333.3221428833333;1.3305552229167006;65;0.75;violin
333.3221428833333;1.3305552229167006;73;0.75;violin
334.65547588333334;0.33055547291667153;61;0.75;violin
334.98880913333335;0.33055547291667153;61;0.75;violin
334.98880913333335;0.9972219729166341;65;0.75;violin
334.98880913333335;0.9972219729166341;73;0.75;violin
335.3221423833333;0.33055547291667153;60;0.75;violin
335.6554756333333;0.33055547291667153;58;0.75;violin
335.9888088833333;1.3305552229166437;66;0.75;violin
335.9888088833333;1.3305552229166437;73;0.75;violin
335.9888088833333;1.3305552229166437;82;0.75;violin
337.3221418833333;0.33055547291667153;85;0.75;violin
337.6554751333333;0.9972219729166909;66;0.75;violin
337.6554751333333;0.9972219729166909;73;0.75;violin
337.6554751333333;0.33055547291667153;85;0.75;violin
337.9888083833333;0.33055547291667153;84;0.75;violin
338.32214163333333;0.33055547291667153;82;0.75;violin
338.65547488333334;1.3305552229166437;65;0.75;violin
338.65547488333334;1.3305552229166437;73;0.75;violin
338.65547488333334;1.3305552229166437;82;0.75;violin
339.9888078833333;0.33055547291667153;85;0.75;violin
340.32214113333333;0.9972219729166341;65;0.75;violin
340.32214113333333;0.9972219729166341;73;0.75;violin
340.32214113333333;0.33055547291667153;85;0.75;violin
340.65547438333334;0.3305554729166147;84;0.75;violin
340.9888076333333;0.33055547291667153;82;0.75;violin
341.3221408833333;1.3305552229167006;64;0.75;violin
341.3221408833333;1.3305552229167006;73;0.75;violin
341.3221408833333;1.3305552229167006;82;0.75;violin
342.65547388333334;0.33055547291667153;85;0.75;violin
342.98880713333335;0.9972219729166341;64;0.75;violin
342.98880713333335;0.9972219729166341;73;0.75;violin
342.98880713333335;0.3305554729166147;85;0.75;violin
343.3221403833333;0.33055547291667153;84;0.75;violin
343.6554736333333;0.33055547291667153;82;0.75;violin
343.9888068833333;0.1638888479166667;65;0.75;violin
343.9888068833333;0.1638888479166667;72;0.75;violin
343.9888068833333;0.1638888479166667;81;0.75;violin
344.32214013333333;0.33055547291667153;65;0.75;violin
344.32214013333333;0.33055547291667153;77;0.75;violin
344.6554733833333;0.33055547291667153;66;0.75;violin
344.6554733833333;0.33055547291667153;78;0.75;violin
344.9888066333333;0.33055547291667153;64;0.75;violin
344.9888066333333;0.33055547291667153;76;0.75;violin
345.3221398833333;0.33055547291667153;65;0.75;violin
345.3221398833333;0.33055547291667153;77;0.75;violin
345.6554731333333;0.33055547291667153;62;0.75;violin
345.6554731333333;0.33055547291667153;74;0.75;violin
345.9888063833333;0.33055547291667153;63;0.75;violin
345.9888063833333;0.33055547291667153;75;0.75;violin
346.32213963333334;0.33055547291667153;60;0.75;violin
346.32213963333334;0.33055547291667153;72;0.75;violin
346.65547288333335;0.33055547291667153;61;0.75;violin
346.65547288333335;0.33055547291667153;73;0.75;violin
346.98880613333336;0.3305554729166147;59;0.75;violin
346.98880613333336;0.3305554729166147;71;0.75;violin
347.3221393833333;0.33055547291667153;60;0.75;violin
347.3221393833333;0.33055547291667153;72;0.75;violin
347.6554726333333;0.33055547291667153;57;0.75;violin
347.6554726333333;0.33055547291667153;69;0.75;violin
347.9888058833333;0.33055547291667153;58;0.75;violin
347.9888058833333;0.33055547291667153;70;0.75;violin
348.32213913333334;0.3305554729166147;66;0.75;violin
348.32213913333334;0.9972219729166341;73;0.75;violin
348.32213913333334;0.9972219729166341;82;0.75;violin
348.6554723833333;0.33055547291667153;65;0.75;violin
348.9888056333333;0.33055547291667153;64;0.75;violin
349.3221388833333;0.1638888479166667;65;0.75;violin
349.3221388833333;0.1638888479166667;72;0.75;violin
349.3221388833333;0.1638888479166667;81;0.75;violin
349.6554721333333;0.33055547291667153;77;0.75;violin
349.6554721333333;0.33055547291667153;89;0.75;violin
349.98880538333333;0.33055547291667153;78;0.75;violin
349.98880538333333;0.33055547291667153;90;0.75;violin
350.32213863333334;0.33055547291667153;76;0.75;violin
350.32213863333334;0.33055547291667153;88;0.75;violin
350.65547188333335;0.33055547291667153;77;0.75;violin
350.65547188333335;0.33055547291667153;89;0.75;violin
350.9888051333333;0.33055547291667153;74;0.75;violin
350.9888051333333;0.33055547291667153;86;0.75;violin
351.3221383833333;0.33055547291667153;75;0.75;violin
351.3221383833333;0.33055547291667153;87;0.75;violin
351.6554716333333;0.33055547291667153;72;0.75;violin
351.6554716333333;0.33055547291667153;84;0.75;violin
351.98880488333333;0.33055547291667153;73;0.75;violin
351.98880488333333;0.33055547291667153;85;0.75;violin
352.32213813333334;0.3305554729166147;71;0.75;violin
352.32213813333334;0.3305554729166147;83;0.75;violin
352.6554713833333;0.33055547291667153;72;0.75;violin
352.6554713833333;0.33055547291667153;84;0.75;violin
352.9888046333333;0.33055547291667153;69;0.75;violin
352.9888046333333;0.33055547291667153;81;0.75;violin
353.3221378833333;0.33055547291667153;70;0.75;violin
353.3221378833333;0.33055547291667153;82;0.75;violin
353.6554711333333;0.33055547291667153;66;0.75;violin
353.6554711333333;0.9972219729166909;73;0.75;violin
353.6554711333333;0.9972219729166909;82;0.75;violin
353.98880438333333;0.33055547291667153;65;0.75;violin
354.32213763333334;0.33055547291667153;64;0.75;violin
354.65547088333335;0.3305554729166147;65;0.75;violin
354.65547088333335;0.3305554729166147;72;0.75;violin
354.65547088333335;0.3305554729166147;81;0.75;violin
354.9888041333333;0.33055547291667153;66;0.75;violin
354.9888041333333;0.9972219729166909;73;0.75;violin
354.9888041333333;0.9972219729166909;82;0.75;violin
355.3221373833333;0.33055547291667153;65;0.75;violin
355.6554706333333;0.33055547291667153;64;0.75;violin
355.98880388333333;0.33055547291667153;65;0.75;violin
355.98880388333333;0.33055547291667153;72;0.75;violin
355.98880388333333;0.33055547291667153;81;0.75;violin
356.3221371333333;0.9972219729166909;62;0.75;violin
356.3221371333333;0.9972219729166909;71;0.75;violin
356.3221371333333;0.33055547291667153;80;0.75;violin
356.6554703833333;0.33055547291667153;78;0.75;violin
356.9888036333333;0.33055547291667153;77;0.75;violin
357.3221368833333;0.6638887229166812;63;0.75;violin
357.3221368833333;0.6638887229166812;70;0.75;violin
357.3221368833333;0.6638887229166812;80;0.75;violin
357.98880338333333;0.6638887229166812;78;0.75;violin
358.65546988333335;0.3305554729166147;60;0.75;violin
358.9888031333333;0.9972219729166909;60;0.75;violin
358.9888031333333;0.9972219729166909;69;0.75;violin
358.9888031333333;0.33055547291667153;78;0.75;violin
359.3221363833333;0.33055547291667153;77;0.75;violin
359.6554696333333;0.33055547291667153;75;0.75;violin
359.98880288333334;0.6638887229166244;61;0.75;violin
359.98880288333334;0.6638887229166244;68;0.75;violin
359.98880288333334;0.6638887229166244;78;0.75;violin
360.6554693833333;0.6638887229166812;77;0.75;violin
361.3221358833333;0.33055547291667153;66;0.75;violin
361.6554691333333;0.9972219729166909;66;0.75;violin
361.6554691333333;0.33055547291667153;82;0.75;violin
361.98880238333334;0.33055547291667153;78;0.75;violin
362.32213563333335;0.33055547291667153;75;0.75;violin
362.6554688833333;1.3305552229167006;56;0.75;violin
362.6554688833333;1.3305552229167006;65;0.75;violin
362.6554688833333;1.3305552229167006;73;0.75;violin
363.98880188333334;1.3305552229166437;56;0.75;violin
363.98880188333334;1.3305552229166437;63;0.75;violin
363.98880188333334;0.0777777583332977;72;0.75;violin
364.06935741875;0.07777775833335454;73;0.75;violin
364.15546850833334;0.0777777583332977;72;0.75;violin
364.23602404375;0.07777775833335454;73;0.75;violin
364.3221351333333;0.07777775833335454;72;0.75;violin
364.40269066875;0.07777775833335454;73;0.75;violin
364.48880175833335;0.0777777583332977;72;0.75;violin
364.56935729375;0.0777777583332977;73;0.75;violin
364.6554683833333;0.07777775833335454;72;0.75;violin
364.73602391875;0.07777775833335454;73;0.75;violin
364.8221350083333;0.07777775833335454;72;0.75;violin
364.90269054375;0.0777777583332977;73;0.75;violin
364.9888016333333;0.07777775833335454;72;0.75;violin
365.06935716875;0.0777777583332977;73;0.75;violin
365.1554682583333;0.07777775833335454;72;0.75;violin
365.23602379375;0.0777777583332977;73;0.75;violin
365.3221348833333;1.6638884729166534;61;0.3828125;violin
366.9888011333333;0.33055547291667153;56;0.3828125;violin
367.3221343833333;0.33055547291667153;61;0.3828125;violin
367.65546763333333;0.33055547291667153;63;0.3828125;violin
367.98880088333334;1.6638884729166534;61;0.3828125;violin
367.98880088333334;1.6638884729166534;64;0.3828125;violin
369.65546713333333;0.33055547291667153;56;0.3828125;violin
369.65546713333333;0.33055547291667153;63;0.3828125;violin
369.98880038333334;0.33055547291667153;61;0.3828125;violin
369.98880038333334;0.33055547291667153;64;0.3828125;violin
370.32213363333335;0.3305554729166147;63;0.3828125;violin
370.32213363333335;0.3305554729166147;66;0.3828125;violin
370.6554668833333;1.6638884729166534;64;0.3828125;violin
370.6554668833333;1.6638884729166534;68;0.3828125;violin
372.3221331333333;0.33055547291667153;63;0.3828125;violin
372.3221331333333;0.33055547291667153;68;0.3828125;violin
372.6554663833333;0.33055547291667153;62;0.3828125;violin
372.6554663833333;0.33055547291667153;68;0.3828125;violin
372.9887996333333;0.33055547291667153;62;0.3828125;violin
372.9887996333333;0.33055547291667153;70;0.3828125;violin
373.3221328833333;1.6638884729166534;63;0.3828125;violin
373.3221328833333;1.3305552229167006;68;0.3828125;violin
374.6554658833333;0.33055547291667153;66;0.3828125;violin
374.9887991333333;0.33055547291667153;58;0.3828125;violin
375.3221323833333;0.33055547291667153;63;0.3828125;violin
375.6554656333333;0.33055547291667153;65;0.3828125;violin
375.9887988833333;1.6638884729167103;63;0.3828125;violin
375.9887988833333;1.6638884729167103;66;0.3828125;violin
377.65546513333334;0.33055547291667153;58;0.3828125;violin
377.65546513333334;0.33055547291667153;65;0.3828125;violin
377.98879838333335;0.33055547291667153;63;0.3828125;violin
377.98879838333335;0.33055547291667153;66;0.3828125;violin
378.32213163333336;0.33055547291667153;65;0.3828125;violin
378.32213163333336;0.33055547291667153;68;0.3828125;violin
378.6554648833333;1.6638884729166534;66;0.3828125;violin
378.6554648833333;1.6638884729166534;70;0.3828125;violin
380.3221311333333;0.33055547291667153;65;0.609375;violin
380.3221311333333;0.9972219729166909;70;0.609375;violin
380.6554643833333;0.33055547291667153;64;0.65625;violin
380.9887976333333;0.33055547291667153;61;0.703125;violin
381.32213088333333;1.6638884729166534;59;0.75;violin
381.32213088333333;1.6638884729166534;66;0.75;violin
381.32213088333333;1.6638884729166534;75;0.75;violin
382.9887971333333;0.33055547291667153;63;0.75;violin
382.9887971333333;0.33055547291667153;66;0.75;violin
382.9887971333333;0.33055547291667153;78;0.75;violin
383.32213038333333;0.3305554729166147;61;0.75;violin
383.32213038333333;0.3305554729166147;66;0.75;violin
383.32213038333333;0.3305554729166147;76;0.75;violin
383.6554636333333;0.33055547291667153;59;0.75;violin
383.6554636333333;0.33055547291667153;66;0.75;violin
383.6554636333333;0.33055547291667153;75;0.75;violin
383.9887968833333;1.3305552229167006;58;0.75;violin
383.9887968833333;1.3305552229167006;67;0.75;violin
383.9887968833333;1.3305552229167006;73;0.75;violin
385.32212988333333;0.33055547291667153;58;0.75;violin
385.32212988333333;0.33055547291667153;66;0.75;violin
385.32212988333333;0.33055547291667153;73;0.75;violin
385.65546313333334;0.9972219729166341;58;0.75;violin
385.65546313333334;0.9972219729166341;66;0.75;violin
385.65546313333334;0.33055547291667153;76;0.75;violin
385.98879638333335;0.33055547291667153;75;0.75;violin
386.32212963333336;0.3305554729166147;73;0.75;violin
386.6554628833333;1.3305552229166437;57;0.75;violin
386.6554628833333;1.3305552229166437;63;0.75;violin
386.6554628833333;1.3305552229166437;72;0.75;violin
387.9887958833333;0.33055547291667153;57;0.75;violin
387.9887958833333;0.33055547291667153;63;0.75;violin
387.9887958833333;0.33055547291667153;71;0.75;violin
388.3221291333333;0.9972219729166909;57;0.75;violin
388.3221291333333;0.9972219729166909;63;0.75;violin
388.3221291333333;0.33055547291667153;75;0.75;violin
388.6554623833333;0.33055547291667153;73;0.75;violin
388.9887956333333;0.33055547291667153;71;0.75;violin
389.32212888333333;1.3305552229166437;56;0.75;violin
389.32212888333333;1.3305552229166437;64;0.75;violin
389.32212888333333;0.9972219729166909;71;0.75;violin
390.3221286333333;0.33055547291667153;76;0.75;violin
390.6554618833333;0.33055547291667153;57;0.75;violin
390.6554618833333;0.33055547291667153;64;0.75;violin
390.6554618833333;0.33055547291667153;73;0.75;violin
390.9887951333333;0.33055547291667153;76;0.75;violin
391.3221283833333;0.33055547291667153;58;0.75;violin
391.3221283833333;0.33055547291667153;66;0.75;violin
391.3221283833333;0.33055547291667153;73;0.75;violin
391.6554616333333;0.33055547291667153;78;0.75;violin
391.9887948833333;0.33055547291667153;59;0.75;violin
391.9887948833333;0.33055547291667153;66;0.75;violin
391.9887948833333;0.33055547291667153;75;0.75;violin
392.3221281333333;0.33055547291667153;78;0.75;violin
392.6554613833333;0.1638888479166667;75;0.75;violin
392.9887946333333;0.1638888479166667;60;0.75;violin
392.9887946333333;0.1638888479166667;68;0.75;violin
392.9887946333333;0.1638888479166667;80;0.75;violin
393.32212788333334;0.33055547291667153;61;0.75;violin
393.32212788333334;0.33055547291667153;69;0.75;violin
393.32212788333334;0.33055547291667153;76;0.75;violin
393.65546113333335;0.33055547291667153;81;0.75;violin
393.98879438333336;0.3305554729166147;63;0.75;violin
393.98879438333336;0.3305554729166147;71;0.75;violin
393.98879438333336;0.3305554729166147;78;0.75;violin
394.3221276333333;0.33055547291667153;83;0.75;violin
394.6554608833333;1.3305552229166437;64;0.75;violin
394.6554608833333;1.3305552229166437;71;0.75;violin
394.6554608833333;1.6638884729166534;80;0.75;violin
396.3221271333333;0.9972219729166909;64;0.75;violin
396.3221271333333;0.9972219729166909;71;0.75;violin
396.3221271333333;0.33055547291667153;83;0.75;violin
396.6554603833333;0.33055547291667153;82;0.75;violin
396.98879363333333;0.33055547291667153;80;0.75;violin
397.32212688333334;1.3305552229166437;63;0.75;violin
397.32212688333334;1.3305552229166437;71;0.75;violin
397.32212688333334;1.6638884729166534;80;0.75;violin
398.98879313333333;0.9972219729166341;63;0.75;violin
398.98879313333333;0.9972219729166341;71;0.75;violin
398.98879313333333;0.3305554729166147;83;0.75;violin
399.3221263833333;0.33055547291667153;82;0.75;violin
399.6554596333333;0.33055547291667153;80;0.75;violin
399.9887928833333;1.3305552229167006;62;0.75;violin
399.9887928833333;1.3305552229167006;71;0.75;violin
399.9887928833333;1.6638884729167103;80;0.75;violin
401.65545913333335;0.16388884791660985;62;0.75;violin
401.65545913333335;0.16388884791660985;71;0.75;violin
401.65545913333335;0.16388884791660985;80;0.75;violin
401.9887923833333;0.1638888479166667;62;0.75;violin
401.9887923833333;0.1638888479166667;71;0.75;violin
401.9887923833333;0.1638888479166667;80;0.75;violin
402.3221256333333;0.1638888479166667;62;0.75;violin
402.3221256333333;0.1638888479166667;71;0.75;violin
402.3221256333333;0.1638888479166667;80;0.75;violin
402.6554588833333;1.3305552229166437;62;0.75;violin
402.6554588833333;1.3305552229166437;71;0.75;violin
402.6554588833333;1.6638884729166534;79;0.75;violin
404.3221251333333;0.9972219729166909;62;0.75;violin
404.3221251333333;0.9972219729166909;71;0.75;violin
404.3221251333333;0.33055547291667153;80;0.75;violin
404.6554583833333;0.33055547291667153;79;0.75;violin
404.98879163333334;0.33055547291667153;77;0.75;violin
405.32212488333334;0.6638887229166812;60;0.75;violin
405.32212488333334;0.6638887229166812;67;0.75;violin
405.32212488333334;0.6638887229166812;77;0.75;violin
405.9887913833333;0.6638887229166812;60;0.75;violin
405.9887913833333;0.6638887229166812;67;0.75;violin
405.9887913833333;0.6638887229166812;75;0.75;violin
406.6554578833333;0.33055547291667153;58;0.75;violin
406.9887911333333;0.9972219729166909;58;0.75;violin
406.9887911333333;0.9972219729166909;67;0.75;violin
406.9887911333333;0.33055547291667153;77;0.75;violin
407.3221243833333;0.33055547291667153;75;0.75;violin
407.6554576333333;0.33055547291667153;74;0.75;violin
407.9887908833333;1.3305552229167006;56;0.75;violin
407.9887908833333;1.3305552229167006;63;0.75;violin
407.9887908833333;0.6638887229166812;74;0.75;violin
408.6554573833333;0.6638887229166812;72;0.75;violin
409.32212388333335;0.33055547291667153;56;0.75;violin
409.32212388333335;0.33055547291667153;66;0.75;violin
409.65545713333336;0.9972219729166341;56;0.75;violin
409.65545713333336;0.9972219729166341;66;0.75;violin
409.65545713333336;0.3305554729166147;75;0.75;violin
409.9887903833333;0.33055547291667153;74;0.75;violin
410.3221236333333;0.33055547291667153;72;0.75;violin
410.65545688333333;1.3305552229166437;55;0.75;violin
410.65545688333333;1.3305552229166437;67;0.75;violin
410.65545688333333;1.3305552229166437;71;0.75;violin
411.9887898833333;0.33055547291667153;56;0.75;violin
411.9887898833333;0.33055547291667153;66;0.75;violin
411.9887898833333;0.33055547291667153;72;0.75;violin
412.3221231333333;0.9972219729166909;56;0.75;violin
412.3221231333333;0.9972219729166909;66;0.75;violin
412.3221231333333;0.33055547291667153;75;0.75;violin
412.65545638333333;0.33055547291667153;74;0.75;violin
412.98878963333334;0.33055547291667153;72;0.75;violin
413.32212288333335;1.3305552229166437;55;0.75;violin
413.32212288333335;1.3305552229166437;67;0.75;violin
413.32212288333335;1.3305552229166437;71;0.75;violin
414.65545588333333;0.3305554729166147;56;0.75;violin
414.65545588333333;0.3305554729166147;66;0.75;violin
414.65545588333333;0.3305554729166147;72;0.75;violin
414.9887891333333;0.9972219729166909;56;0.75;violin
414.9887891333333;0.9972219729166909;66;0.75;violin
414.9887891333333;0.33055547291667153;75;0.75;violin
415.3221223833333;0.33055547291667153;74;0.75;violin
415.6554556333333;0.33055547291667153;72;0.75;violin
415.9887888833333;0.33055547291667153;55;0.75;violin
415.9887888833333;0.33055547291667153;67;0.75;violin
415.9887888833333;0.33055547291667153;71;0.75;violin
416.3221221333333;0.33055547291667153;78;0.75;violin
416.3221221333333;0.33055547291667153;90;0.75;violin
416.65545538333333;0.33055547291667153;79;0.75;violin
416.65545538333333;0.33055547291667153;91;0.75;violin
416.98878863333334;0.33055547291667153;73;0.75;violin
416.98878863333334;0.33055547291667153;85;0.75;violin
417.32212188333335;0.33055547291667153;74;0.75;violin
417.32212188333335;0.33055547291667153;86;0.75;violin
417.6554551333333;0.33055547291667153;70;0.75;violin
417.6554551333333;0.33055547291667153;82;0.75;violin
417.9887883833333;0.33055547291667153;71;0.75;violin
417.9887883833333;0.33055547291667153;83;0.75;violin
418.3221216333333;0.1638888479166667;67;0.75;violin
418.3221216333333;0.1638888479166667;79;0.75;violin
418.6554548833333;1.99722172291672;55;0.75;violin
421.98601010416667;0.1638888479166667;76;0.75;violin
421.98601010416667;0.1638888479166667;79;0.75;violin
422.15267672916667;0.1638888479166667;84;0.75;violin
422.3193433541667;0.1638888479166667;75;0.75;violin
422.3193433541667;0.1638888479166667;78;0.75;violin
422.4860099791667;0.1638888479166667;84;0.75;violin
422.6526766041667;0.1638888479166667;76;0.75;violin
422.6526766041667;0.1638888479166667;79;0.75;violin
422.81934322916663;0.1638888479166667;84;0.75;violin
422.98600985416664;0.1638888479166667;75;0.75;violin
422.98600985416664;0.1638888479166667;78;0.75;violin
423.15267647916664;0.1638888479166667;84;0.75;violin
423.31934310416665;0.1638888479166667;76;0.75;violin
423.31934310416665;0.1638888479166667;79;0.75;violin
423.48600972916665;0.1638888479166667;84;0.75;violin
423.65267635416666;0.1638888479166667;75;0.75;violin
423.65267635416666;0.1638888479166667;78;0.75;violin
423.81934297916666;0.1638888479166667;84;0.75;violin
423.98600960416667;0.1638888479166667;76;0.75;violin
423.98600960416667;0.1638888479166667;79;0.75;violin
424.1526762291667;0.1638888479166667;84;0.75;violin
424.3193428541667;0.1638888479166667;75;0.75;violin
424.3193428541667;0.1638888479166667;78;0.75;violin
424.4860094791667;0.1638888479166667;84;0.75;violin
424.6526761041667;0.1638888479166667;76;0.75;violin
424.6526761041667;0.1638888479166667;79;0.75;violin
424.81934272916664;0.1638888479166667;72;0.75;violin
424.81934272916664;0.1638888479166667;76;0.75;violin
424.98600935416664;0.1638888479166667;74;0.75;violin
424.98600935416664;0.1638888479166667;77;0.75;violin
425.15267597916664;0.1638888479166667;76;0.75;violin
425.15267597916664;0.1638888479166667;79;0.75;violin
425.31934260416665;0.1638888479166667;77;0.75;violin
425.31934260416665;0.1638888479166667;81;0.75;violin
425.48600922916665;0.1638888479166667;79;0.75;violin
425.48600922916665;0.1638888479166667;83;0.75;violin
425.65267585416666;0.1638888479166667;81;0.75;violin
425.65267585416666;0.1638888479166667;84;0.75;violin
425.81934247916666;0.1638888479166667;83;0.75;violin
425.81934247916666;0.1638888479166667;86;0.75;violin
425.98600910416667;0.1638888479166667;84;0.75;violin
425.98600910416667;0.1638888479166667;88;0.75;violin
426.1526757291667;0.1638888479166667;83;0.75;violin
426.1526757291667;0.1638888479166667;86;0.75;violin
426.3193423541667;0.1638888479166667;81;0.75;violin
426.3193423541667;0.1638888479166667;84;0.75;violin
426.4860089791667;0.1638888479166667;79;0.75;violin
426.4860089791667;0.1638888479166667;83;0.75;violin
426.6526756041667;0.1638888479166667;77;0.75;violin
426.6526756041667;0.1638888479166667;81;0.75;violin
426.81934222916664;0.1638888479166667;76;0.75;violin
426.81934222916664;0.1638888479166667;79;0.75;violin
426.98600885416664;0.1638888479166667;74;0.75;violin
426.98600885416664;0.1638888479166667;77;0.75;violin
427.15267547916665;0.1638888479166667;72;0.75;violin
427.15267547916665;0.1638888479166667;76;0.75;violin
427.31934210416665;0.1638888479166667;71;0.75;violin
427.31934210416665;0.1638888479166667;79;0.75;violin
427.48600872916666;0.1638888479166667;74;0.75;violin
427.65267535416666;0.1638888479166667;72;0.75;violin
427.65267535416666;0.1638888479166667;78;0.75;violin
427.81934197916667;0.1638888479166667;75;0.75;violin
427.98600860416667;0.1638888479166667;71;0.75;violin
427.98600860416667;0.1638888479166667;79;0.75;violin
428.1526752291667;0.1638888479166667;74;0.75;violin
428.3193418541667;0.1638888479166667;72;0.75;violin
428.3193418541667;0.1638888479166667;78;0.75;violin
428.4860084791667;0.1638888479166667;75;0.75;violin
428.65267510416663;0.16388884791672353;71;0.75;violin
428.65267510416663;0.16388884791672353;79;0.75;violin
428.81934172916664;0.1638888479166667;74;0.75;violin
428.98600835416664;0.1638888479166667;72;0.75;violin
428.98600835416664;0.1638888479166667;78;0.75;violin
429.15267497916665;0.1638888479166667;75;0.75;violin
429.31934160416665;0.1638888479166667;71;0.75;violin
429.31934160416665;0.1638888479166667;79;0.75;violin
429.48600822916666;0.1638888479166667;74;0.75;violin
429.65267485416666;0.1638888479166667;72;0.75;violin
429.65267485416666;0.1638888479166667;78;0.75;violin
429.81934147916667;0.1638888479166667;75;0.75;violin
429.9860081041667;0.1638888479166667;71;0.75;violin
429.9860081041667;0.1638888479166667;79;0.75;violin
430.1526747291667;0.1638888479166667;67;0.75;violin
430.1526747291667;0.1638888479166667;71;0.75;violin
430.3193413541667;0.1638888479166667;69;0.75;violin
430.3193413541667;0.1638888479166667;72;0.75;violin
430.4860079791667;0.1638888479166667;71;0.75;violin
430.4860079791667;0.1638888479166667;74;0.75;violin
430.65267460416663;0.1638888479166667;72;0.75;violin
430.65267460416663;0.1638888479166667;76;0.75;violin
430.81934122916664;0.1638888479166667;74;0.75;violin
430.81934122916664;0.1638888479166667;77;0.75;violin
430.98600785416664;0.1638888479166667;76;0.75;violin
430.98600785416664;0.1638888479166667;79;0.75;violin
431.15267447916665;0.1638888479166667;77;0.75;violin
431.15267447916665;0.1638888479166667;81;0.75;violin
431.31934110416665;0.1638888479166667;83;0.75;violin
431.31934110416665;0.1638888479166667;86;0.75;violin
431.48600772916666;0.1638888479166667;81;0.75;violin
431.48600772916666;0.1638888479166667;84;0.75;violin
431.65267435416666;0.1638888479166667;79;0.75;violin
431.65267435416666;0.1638888479166667;83;0.75;violin
431.81934097916667;0.1638888479166667;77;0.75;violin
431.81934097916667;0.1638888479166667;81;0.75;violin
431.9860076041667;0.1638888479166667;76;0.75;violin
431.9860076041667;0.1638888479166667;79;0.75;violin
432.1526742291667;0.1638888479166667;74;0.75;violin
432.1526742291667;0.1638888479166667;77;0.75;violin
432.3193408541667;0.1638888479166667;72;0.75;violin
432.3193408541667;0.1638888479166667;76;0.75;violin
432.4860074791667;0.1638888479166667;71;0.75;violin
432.4860074791667;0.1638888479166667;74;0.75;violin
432.65267410416664;0.1638888479166667;64;0.75;violin
432.65267410416664;0.1638888479166667;72;0.75;violin
432.81934072916664;0.1638888479166667;67;0.75;violin
432.98600735416665;0.1638888479166667;68;0.75;violin
432.98600735416665;0.1638888479166667;71;0.75;violin
433.15267397916665;0.1638888479166667;65;0.75;violin
433.31934060416665;0.1638888479166667;64;0.75;violin
433.31934060416665;0.1638888479166667;72;0.75;violin
433.48600722916666;0.1638888479166667;67;0.75;violin
433.65267385416666;0.1638888479166667;68;0.75;violin
433.65267385416666;0.1638888479166667;71;0.75;violin
433.81934047916667;0.1638888479166667;65;0.75;violin
433.9860071041667;0.1638888479166667;64;0.75;violin
433.9860071041667;0.1638888479166667;72;0.75;violin
434.1526737291667;0.1638888479166667;67;0.75;violin
434.3193403541667;0.1638888479166667;68;0.75;violin
434.3193403541667;0.1638888479166667;71;0.75;violin
434.4860069791667;0.1638888479166667;65;0.75;violin
434.65267360416664;0.1638888479166667;64;0.75;violin
434.65267360416664;0.1638888479166667;72;0.75;violin
434.81934022916664;0.1638888479166667;67;0.75;violin
434.98600685416665;0.1638888479166667;68;0.75;violin
434.98600685416665;0.1638888479166667;71;0.75;violin
435.15267347916665;0.1638888479166667;65;0.75;violin
435.31934010416666;0.1638888479166667;64;0.75;violin
435.31934010416666;0.1638888479166667;72;0.75;violin
435.48600672916666;0.1638888479166667;67;0.75;violin
435.65267335416667;0.1638888479166667;68;0.75;violin
435.65267335416667;0.1638888479166667;71;0.75;violin
435.81933997916667;0.1638888479166667;65;0.75;violin
435.9860066041667;0.1638888479166667;64;0.75;violin
435.9860066041667;0.1638888479166667;72;0.75;violin
436.1526732291667;0.1638888479166667;67;0.75;violin
436.3193398541667;0.1638888479166667;70;0.75;violin
436.3193398541667;0.1638888479166667;73;0.75;violin
436.4860064791667;0.16388884791660985;67;0.75;violin
436.65267310416664;0.1638888479166667;66;0.75;violin
436.65267310416664;0.1638888479166667;74;0.75;violin
436.81933972916664;0.1638888479166667;69;0.75;violin
436.98600635416665;0.1638888479166667;70;0.75;violin
436.98600635416665;0.1638888479166667;73;0.75;violin
437.15267297916665;0.1638888479166667;67;0.75;violin
437.31933960416666;0.1638888479166667;66;0.75;violin
437.31933960416666;0.1638888479166667;74;0.75;violin
437.48600622916666;0.1638888479166667;69;0.75;violin
437.65267285416667;0.1638888479166667;72;0.75;violin
437.65267285416667;0.1638888479166667;75;0.75;violin
437.8193394791667;0.1638888479166667;69;0.75;violin
437.9860061041667;0.1638888479166667;68;0.75;violin
437.9860061041667;0.1638888479166667;76;0.75;violin
438.1526727291667;0.1638888479166667;71;0.75;violin
438.3193393541667;0.1638888479166667;72;0.75;violin
438.3193393541667;0.1638888479166667;75;0.75;violin
438.48600597916663;0.16388884791672353;69;0.75;violin
438.65267260416664;0.1638888479166667;68;0.75;violin
438.65267260416664;0.1638888479166667;76;0.75;violin
438.81933922916664;0.1638888479166667;71;0.75;violin
438.98600585416665;0.1638888479166667;74;0.75;violin
438.98600585416665;0.1638888479166667;76;0.75;violin
439.15267247916665;0.1638888479166667;71;0.75;violin
439.31933910416666;0.1638888479166667;69;0.75;violin
439.31933910416666;0.1638888479166667;77;0.75;violin
439.48600572916666;0.1638888479166667;72;0.75;violin
439.65267235416667;0.1638888479166667;74;0.75;violin
439.65267235416667;0.1638888479166667;78;0.75;violin
439.8193389791667;0.1638888479166667;72;0.75;violin
439.9860056041667;0.1638888479166667;71;0.75;violin
439.9860056041667;0.1638888479166667;79;0.75;violin
440.1526722291667;0.1638888479166667;74;0.75;violin
440.3193388541667;0.1638888479166667;77;0.75;violin
440.3193388541667;0.1638888479166667;79;0.75;violin
440.48600547916664;0.1638888479166667;74;0.75;violin
440.65267210416664;0.1638888479166667;72;0.75;violin
440.65267210416664;0.1638888479166667;79;0.75;violin
440.81933872916665;0.1638888479166667;76;0.75;violin
440.98600535416665;0.1638888479166667;73;0.75;violin
440.98600535416665;0.1638888479166667;79;0.75;violin
441.15267197916666;0.1638888479166667;76;0.75;violin
441.31933860416666;0.1638888479166667;74;0.75;violin
441.31933860416666;0.1638888479166667;79;0.75;violin
441.48600522916666;0.1638888479166667;83;0.75;violin
441.65267185416667;0.1638888479166667;75;0.75;violin
441.65267185416667;0.1638888479166667;79;0.75;violin
441.8193384791667;0.1638888479166667;84;0.75;violin
441.9860051041667;0.1638888479166667;78;0.75;violin
441.9860051041667;0.1638888479166667;81;0.75;violin
442.1526717291667;0.1638888479166667;81;0.75;violin
442.1526717291667;0.1638888479166667;84;0.75;violin
442.3193383541667;0.16388884791660985;81;0.75;violin
442.3193383541667;0.16388884791660985;84;0.75;violin
442.48600497916664;0.1638888479166667;84;0.75;violin
442.48600497916664;0.1638888479166667;87;0.75;violin
442.65267160416664;0.1638888479166667;84;0.75;violin
442.65267160416664;0.1638888479166667;87;0.75;violin
442.81933822916665;0.1638888479166667;87;0.75;violin
442.81933822916665;0.1638888479166667;90;0.75;violin
442.98600485416665;0.1638888479166667;87;0.75;violin
442.98600485416665;0.1638888479166667;90;0.75;violin
443.15267147916666;0.1638888479166667;90;0.75;violin
443.15267147916666;0.1638888479166667;93;0.75;violin
443.31933810416666;0.1638888479166667;55;0.75;violin
443.48600472916667;0.1638888479166667;72;0.75;violin
443.48600472916667;0.1638888479166667;88;0.75;violin
443.65267135416667;0.1638888479166667;71;0.75;violin
443.65267135416667;0.1638888479166667;86;0.75;violin
443.8193379791667;0.1638888479166667;69;0.75;violin
443.8193379791667;0.1638888479166667;84;0.75;violin
443.9860046041667;0.1638888479166667;67;0.75;violin
443.9860046041667;0.1638888479166667;83;0.75;violin
444.1526712291667;0.1638888479166667;65;0.75;violin
444.1526712291667;0.1638888479166667;81;0.75;violin
444.31933785416663;0.16388884791672353;64;0.75;violin
444.31933785416663;0.16388884791672353;79;0.75;violin
444.48600447916664;0.1638888479166667;62;0.75;violin
444.48600447916664;0.1638888479166667;77;0.75;violin
444.65267110416664;0.1638888479166667;60;0.75;violin
444.65267110416664;0.1638888479166667;76;0.75;violin
444.81933772916665;0.1638888479166667;62;0.75;violin
444.81933772916665;0.1638888479166667;77;0.75;violin
444.98600435416665;0.1638888479166667;64;0.75;violin
444.98600435416665;0.1638888479166667;79;0.75;violin
445.15267097916666;0.1638888479166667;65;0.75;violin
445.15267097916666;0.1638888479166667;81;0.75;violin
445.31933760416666;0.1638888479166667;67;0.75;violin
445.31933760416666;0.1638888479166667;83;0.75;violin
445.48600422916667;0.1638888479166667;69;0.75;violin
445.48600422916667;0.1638888479166667;84;0.75;violin
445.6526708541667;0.1638888479166667;71;0.75;violin
445.6526708541667;0.1638888479166667;86;0.75;violin
445.8193374791667;0.1638888479166667;72;0.75;violin
445.8193374791667;0.1638888479166667;88;0.75;violin
445.9860041041667;1.3305552229166437;55;0.75;violin
445.9860041041667;0.0777777583332977;62;0.75;violin
446.0665596395833;0.07777775833335454;64;0.75;violin
446.1526707291667;0.0777777583332977;62;0.75;violin
446.2332262645833;0.07777775833335454;64;0.75;violin
446.31933735416663;0.07777775833335454;62;0.75;violin
446.3998928895833;0.07777775833335454;64;0.75;violin
446.48600397916664;0.07777775833335454;62;0.75;violin
446.56655951458333;0.07777775833335454;64;0.75;violin
446.65267060416664;0.07777775833335454;62;0.75;violin
446.73322613958334;0.0777777583332977;64;0.75;violin
446.81933722916665;0.07777775833335454;62;0.75;violin
446.89989276458334;0.0777777583332977;64;0.75;violin
446.98600385416665;0.07777775833335454;62;0.75;violin
447.06655938958335;0.0777777583332977;64;0.75;violin
447.15267047916666;0.07777775833335454;62;0.75;violin
447.23322601458335;0.0777777583332977;64;0.75;violin
447.31933710416666;1.3305552229166437;71;0.75;violin
447.31933710416666;0.07777775833335454;79;0.75;violin
447.3998926395833;0.07777775833335454;81;0.75;violin
447.48600372916667;0.07777775833335454;79;0.75;violin
447.5665592645833;0.07777775833335454;81;0.75;violin
447.6526703541667;0.0777777583332977;79;0.75;violin
447.7332258895833;0.07777775833335454;81;0.75;violin
447.8193369791667;0.0777777583332977;79;0.75;violin
447.8998925145833;0.07777775833335454;81;0.75;violin
447.9860036041667;0.0777777583332977;79;0.75;violin
448.0665591395833;0.07777775833335454;81;0.75;violin
448.1526702291667;0.0777777583332977;79;0.75;violin
448.2332257645833;0.07777775833335454;81;0.75;violin
448.31933685416664;0.07777775833335454;79;0.75;violin
448.39989238958333;0.07777775833335454;81;0.75;violin
448.48600347916664;0.07777775833335454;79;0.75;violin
448.56655901458333;0.0777777583332977;81;0.75;violin
448.65267010416665;0.1638888479166667;72;0.75;violin
448.81933672916665;0.1638888479166667;84;0.75;violin
448.98600335416666;0.1638888479166667;76;0.75;violin
448.98600335416666;0.1638888479166667;80;0.75;violin
449.15266997916666;0.1638888479166667;84;0.75;violin
449.31933660416666;0.1638888479166667;77;0.75;violin
449.31933660416666;0.1638888479166667;81;0.75;violin
449.48600322916667;0.1638888479166667;84;0.75;violin
449.6526698541667;0.1638888479166667;75;0.75;violin
449.6526698541667;0.1638888479166667;78;0.75;violin
449.8193364791667;0.1638888479166667;83;0.75;violin
449.9860031041667;0.1638888479166667;76;0.75;violin
449.9860031041667;0.1638888479166667;79;0.75;violin
450.15266972916663;0.16388884791672353;83;0.75;violin
450.31933635416664;0.1638888479166667;73;0.75;violin
450.31933635416664;0.1638888479166667;76;0.75;violin
450.48600297916664;0.1638888479166667;81;0.75;violin
450.65266960416665;0.1638888479166667;74;0.75;violin
450.65266960416665;0.1638888479166667;77;0.75;violin
450.81933622916665;0.1638888479166667;81;0.75;violin
450.98600285416666;0.1638888479166667;71;0.75;violin
450.98600285416666;0.1638888479166667;74;0.75;violin
451.15266947916666;0.1638888479166667;79;0.75;violin
451.31933610416667;0.1638888479166667;72;0.75;violin
451.31933610416667;0.1638888479166667;76;0.75;violin
451.48600272916667;0.1638888479166667;79;0.75;violin
451.6526693541667;0.1638888479166667;69;0.75;violin
451.6526693541667;0.1638888479166667;72;0.75;violin
451.8193359791667;0.1638888479166667;77;0.75;violin
451.9860026041667;0.1638888479166667;71;0.75;violin
451.9860026041667;0.1638888479166667;74;0.75;violin
452.1526692291667;0.16388884791660985;77;0.75;violin
452.31933585416664;0.1638888479166667;68;0.75;violin
452.31933585416664;0.1638888479166667;71;0.75;violin
452.48600247916664;0.1638888479166667;76;0.75;violin
452.65266910416665;0.1638888479166667;69;0.75;violin
452.65266910416665;0.1638888479166667;72;0.75;violin
452.81933572916665;0.1638888479166667;76;0.75;violin
452.98600235416666;0.1638888479166667;66;0.75;violin
452.98600235416666;0.1638888479166667;69;0.75;violin
453.15266897916666;0.1638888479166667;74;0.75;violin
453.31933560416667;0.1638888479166667;67;0.75;violin
453.31933560416667;0.1638888479166667;70;0.75;violin
453.4860022291667;0.1638888479166667;74;0.75;violin
453.6526688541667;0.1638888479166667;64;0.75;violin
453.6526688541667;0.1638888479166667;74;0.75;violin
453.8193354791667;0.1638888479166667;72;0.75;violin
453.9860021041667;0.16388884791660985;65;0.75;violin
453.9860021041667;0.16388884791660985;70;0.75;violin
454.15266872916663;0.16388884791672353;69;0.75;violin
454.31933535416664;0.1638888479166667;64;0.75;violin
454.31933535416664;0.1638888479166667;69;0.75;violin
454.48600197916664;0.1638888479166667;72;0.75;violin
454.65266860416665;0.1638888479166667;63;0.75;violin
454.65266860416665;0.1638888479166667;72;0.75;violin
454.81933522916665;0.1638888479166667;71;0.75;violin
454.98600185416666;0.1638888479166667;66;0.75;violin
454.98600185416666;0.1638888479166667;71;0.75;violin
455.15266847916666;0.1638888479166667;69;0.75;violin
455.31933510416667;0.1638888479166667;64;0.75;violin
455.31933510416667;0.1638888479166667;69;0.75;violin
455.4860017291667;0.1638888479166667;67;0.75;violin
455.6526683541667;0.1638888479166667;62;0.75;violin
455.6526683541667;0.1638888479166667;67;0.75;violin
455.8193349791667;0.1638888479166667;70;0.75;violin
455.98600160416663;0.16388884791672353;60;0.75;violin
455.98600160416663;0.16388884791672353;70;0.75;violin
456.15266822916664;0.1638888479166667;69;0.75;violin
456.31933485416664;0.1638888479166667;64;0.75;violin
456.31933485416664;0.1638888479166667;69;0.75;violin
456.48600147916665;0.1638888479166667;67;0.75;violin
456.65266810416665;0.1638888479166667;62;0.75;violin
456.65266810416665;0.1638888479166667;65;0.75;violin
456.81933472916666;0.1638888479166667;64;0.75;violin
456.81933472916666;0.1638888479166667;67;0.75;violin
456.98600135416666;0.1638888479166667;65;0.75;violin
456.98600135416666;0.1638888479166667;69;0.75;violin
457.15266797916667;0.1638888479166667;64;0.75;violin
457.15266797916667;0.1638888479166667;67;0.75;violin
457.31933460416667;0.1638888479166667;62;0.75;violin
457.31933460416667;0.1638888479166667;65;0.75;violin
457.4860012291667;0.1638888479166667;60;0.75;violin
457.4860012291667;0.1638888479166667;64;0.75;violin
457.6526678541667;0.1638888479166667;59;0.75;violin
457.6526678541667;0.1638888479166667;62;0.75;violin
457.8193344791667;0.1638888479166667;56;0.75;violin
457.8193344791667;0.1638888479166667;65;0.75;violin
457.9860011041667;0.16388884791660985;55;0.75;violin
457.9860011041667;0.16388884791660985;65;0.75;violin
458.15266772916664;0.1638888479166667;77;0.75;violin
458.15266772916664;0.1638888479166667;86;0.75;violin
458.31933435416664;0.1638888479166667;74;0.75;violin
458.31933435416664;0.1638888479166667;83;0.75;violin
458.48600097916665;0.1638888479166667;71;0.75;violin
458.48600097916665;0.1638888479166667;79;0.75;violin
458.65266760416665;0.1638888479166667;67;0.75;violin
458.65266760416665;0.1638888479166667;77;0.75;violin
458.81933422916666;0.1638888479166667;65;0.75;violin
458.81933422916666;0.1638888479166667;74;0.75;violin
458.98600085416666;0.1638888479166667;62;0.75;violin
458.98600085416666;0.1638888479166667;71;0.75;violin
459.15266747916667;0.1638888479166667;55;0.75;violin
459.15266747916667;0.1638888479166667;65;0.75;violin
459.31933410416667;0.1638888479166667;60;0.75;violin
459.31933410416667;0.1638888479166667;64;0.75;violin
459.4860007291667;0.1638888479166667;72;0.75;violin
459.4860007291667;0.1638888479166667;88;0.75;violin
459.6526673541667;0.1638888479166667;74;0.75;violin
459.6526673541667;0.1638888479166667;89;0.75;violin
459.8193339791667;0.16388884791660985;76;0.75;violin
459.8193339791667;0.16388884791660985;91;0.75;violin
459.98600060416663;0.16388884791672353;77;0.75;violin
459.98600060416663;0.16388884791672353;93;0.75;violin
460.15266722916664;0.1638888479166667;79;0.75;violin
460.15266722916664;0.1638888479166667;95;0.75;violin
460.31933385416664;0.1638888479166667;81;0.75;violin
460.31933385416664;0.1638888479166667;96;0.75;violin
460.48600047916665;0.1638888479166667;83;0.75;violin
460.48600047916665;0.1638888479166667;98;0.75;violin
460.65266710416665;0.1638888479166667;84;0.75;violin
460.65266710416665;0.1638888479166667;100;0.75;violin
460.81933372916666;0.1638888479166667;83;0.75;violin
460.81933372916666;0.1638888479166667;98;0.75;violin
460.98600035416666;0.1638888479166667;81;0.75;violin
460.98600035416666;0.1638888479166667;96;0.75;violin
461.15266697916667;0.1638888479166667;79;0.75;violin
461.15266697916667;0.1638888479166667;95;0.75;violin
461.3193336041667;0.1638888479166667;77;0.75;violin
461.3193336041667;0.1638888479166667;93;0.75;violin
461.4860002291667;0.1638888479166667;76;0.75;violin
461.4860002291667;0.1638888479166667;91;0.75;violin
461.6526668541667;0.1638888479166667;74;0.75;violin
461.6526668541667;0.1638888479166667;89;0.75;violin
461.81933347916663;0.16388884791672353;72;0.75;violin
461.81933347916663;0.16388884791672353;88;0.75;violin
461.9860001041667;0.16388884791660985;57;0.75;violin
461.9860001041667;0.16388884791660985;65;0.75;violin
462.15266672916664;0.1638888479166667;60;0.75;violin
462.15266672916664;0.1638888479166667;69;0.75;violin
462.31933335416664;0.1638888479166667;69;0.75;violin
462.31933335416664;0.1638888479166667;72;0.75;violin
462.48599997916665;0.1638888479166667;72;0.75;violin
462.48599997916665;0.1638888479166667;77;0.75;violin
462.65266660416665;0.1638888479166667;77;0.75;violin
462.65266660416665;0.1638888479166667;81;0.75;violin
462.81933322916666;0.1638888479166667;81;0.75;violin
462.81933322916666;0.1638888479166667;84;0.75;violin
462.98599985416666;0.1638888479166667;81;0.75;violin
462.98599985416666;0.1638888479166667;89;0.75;violin
463.15266647916667;0.1638888479166667;81;0.75;violin
463.15266647916667;0.1638888479166667;84;0.75;violin
463.3193331041667;0.1638888479166667;78;0.75;violin
463.3193331041667;0.1638888479166667;81;0.75;violin
463.4859997291667;0.1638888479166667;87;0.75;violin
463.6526663541667;0.1638888479166667;75;0.75;violin
463.6526663541667;0.1638888479166667;78;0.75;violin
463.8193329791667;0.16388884791660985;84;0.75;violin
463.98599960416664;0.1638888479166667;72;0.75;violin
463.98599960416664;0.1638888479166667;75;0.75;violin
464.15266622916664;0.1638888479166667;81;0.75;violin
464.31933285416665;0.1638888479166667;69;0.75;violin
464.31933285416665;0.1638888479166667;72;0.75;violin
464.48599947916665;0.1638888479166667;78;0.75;violin
464.65266610416666;0.33055547291667153;55;0.75;violin
464.98599935416667;0.1638888479166667;83;0.75;violin
464.98599935416667;0.1638888479166667;99;0.75;violin
465.15266597916667;0.1638888479166667;84;0.75;violin
465.15266597916667;0.1638888479166667;100;0.75;violin
465.3193326041667;0.1638888479166667;82;0.75;violin
465.3193326041667;0.1638888479166667;97;0.75;violin
465.4859992291667;0.1638888479166667;83;0.75;violin
465.4859992291667;0.1638888479166667;98;0.75;violin
465.6526658541667;0.1638888479166667;80;0.75;violin
465.6526658541667;0.1638888479166667;95;0.75;violin
465.81933247916663;0.16388884791672353;81;0.75;violin
465.81933247916663;0.16388884791672353;96;0.75;violin
465.98599910416664;0.1638888479166667;78;0.75;violin
465.98599910416664;0.1638888479166667;94;0.75;violin
466.15266572916664;0.1638888479166667;79;0.75;violin
466.15266572916664;0.1638888479166667;95;0.75;violin
466.31933235416665;0.1638888479166667;76;0.75;violin
466.31933235416665;0.1638888479166667;92;0.75;violin
466.48599897916665;0.1638888479166667;77;0.75;violin
466.48599897916665;0.1638888479166667;93;0.75;violin
466.65266560416666;0.1638888479166667;75;0.75;violin
466.65266560416666;0.1638888479166667;90;0.75;violin
466.81933222916666;0.1638888479166667;76;0.75;violin
466.81933222916666;0.1638888479166667;91;0.75;violin
466.98599885416667;0.1638888479166667;73;0.75;violin
466.98599885416667;0.1638888479166667;88;0.75;violin
467.15266547916667;0.1638888479166667;74;0.75;violin
467.15266547916667;0.1638888479166667;89;0.75;violin
467.3193321041667;1.3305552229166437;55;0.75;violin
467.3193321041667;0.0777777583332977;71;0.75;violin
467.3193321041667;0.0777777583332977;74;0.75;violin
467.3998876395833;0.07777775833335454;72;0.75;violin
467.3998876395833;0.07777775833335454;76;0.75;violin
467.4859987291667;0.0777777583332977;71;0.75;violin
467.4859987291667;0.0777777583332977;74;0.75;violin
467.5665542645833;0.07777775833335454;72;0.75;violin
467.5665542645833;0.07777775833335454;76;0.75;violin
467.65266535416663;0.07777775833335454;71;0.75;violin
467.65266535416663;0.07777775833335454;74;0.75;violin
467.7332208895833;0.07777775833335454;72;0.75;violin
467.7332208895833;0.07777775833335454;76;0.75;violin
467.8193319791667;0.0777777583332977;71;0.75;violin
467.8193319791667;0.0777777583332977;74;0.75;violin
467.8998875145833;0.07777775833335454;72;0.75;violin
467.8998875145833;0.07777775833335454;76;0.75;violin
467.98599860416664;0.07777775833335454;71;0.75;violin
467.98599860416664;0.07777775833335454;74;0.75;violin
468.06655413958333;0.07777775833335454;72;0.75;violin
468.06655413958333;0.07777775833335454;76;0.75;violin
468.15266522916664;0.07777775833335454;71;0.75;violin
468.15266522916664;0.07777775833335454;74;0.75;violin
468.23322076458334;0.0777777583332977;72;0.75;violin
468.23322076458334;0.0777777583332977;76;0.75;violin
468.31933185416665;0.07777775833335454;71;0.75;violin
468.31933185416665;0.07777775833335454;74;0.75;violin
468.39988738958334;0.0777777583332977;72;0.75;violin
468.39988738958334;0.0777777583332977;76;0.75;violin
468.48599847916665;0.07777775833335454;71;0.75;violin
468.48599847916665;0.07777775833335454;74;0.75;violin
468.56655401458335;0.0777777583332977;72;0.75;violin
468.56655401458335;0.0777777583332977;76;0.75;violin
468.65266510416666;0.07777775833335454;74;0.75;violin
468.65266510416666;0.07777775833335454;83;0.75;violin
468.73322063958335;0.0777777583332977;76;0.75;violin
468.73322063958335;0.0777777583332977;84;0.75;violin
468.81933172916666;0.07777775833335454;74;0.75;violin
468.81933172916666;0.07777775833335454;83;0.75;violin
468.8998872645833;0.07777775833335454;76;0.75;violin
468.8998872645833;0.07777775833335454;84;0.75;violin
468.98599835416667;0.07777775833335454;74;0.75;violin
468.98599835416667;0.07777775833335454;83;0.75;violin
469.0665538895833;0.07777775833335454;76;0.75;violin
469.0665538895833;0.07777775833335454;84;0.75;violin
469.1526649791667;0.0777777583332977;74;0.75;violin
469.1526649791667;0.0777777583332977;83;0.75;violin
469.2332205145833;0.07777775833335454;76;0.75;violin
469.2332205145833;0.07777775833335454;84;0.75;violin
469.3193316041667;0.0777777583332977;74;0.75;violin
469.3193316041667;0.0777777583332977;83;0.75;violin
469.3998871395833;0.07777775833335454;76;0.75;violin
469.3998871395833;0.07777775833335454;84;0.75;violin
469.4859982291667;0.0777777583332977;74;0.75;violin
469.4859982291667;0.0777777583332977;83;0.75;violin
469.5665537645833;0.07777775833335454;76;0.75;violin
469.5665537645833;0.07777775833335454;84;0.75;violin
469.6526648541667;0.0777777583332977;74;0.75;violin
469.6526648541667;0.0777777583332977;83;0.75;violin
469.7332203895833;0.07777775833335454;76;0.75;violin
469.7332203895833;0.07777775833335454;84;0.75;violin
469.81933147916664;0.07777775833335454;74;0.75;violin
469.81933147916664;0.07777775833335454;83;0.75;violin
469.8998870145833;0.07777775833335454;76;0.75;violin
469.8998870145833;0.07777775833335454;84;0.75;violin
469.98599810416664;1.3305552229167006;60;0.75;violin
469.98599810416664;1.3305552229167006;67;0.75;violin
469.98599810416664;1.3305552229167006;76;0.75;violin
469.98599810416664;1.6638884729167103;84;0.75;violin
471.65266435416663;0.9972219729166909;64;0.75;violin
471.65266435416663;0.9972219729166909;72;0.75;violin
471.65266435416663;0.33055547291667153;84;0.75;violin
471.98599760416664;0.33055547291667153;83;0.75;violin
472.31933085416665;0.33055547291667153;82;0.75;violin
472.65266410416666;1.3305552229166437;65;0.75;violin
472.65266410416666;1.3305552229166437;74;0.75;violin
472.65266410416666;1.3305552229166437;82;0.75;violin
473.98599710416664;0.33055547291667153;81;0.75;violin
474.31933035416665;0.9972219729166909;66;0.75;violin
474.31933035416665;0.9972219729166909;74;0.75;violin
474.31933035416665;0.33055547291667153;86;0.75;violin
474.65266360416666;0.33055547291667153;85;0.75;violin
474.9859968541667;0.33055547291667153;84;0.75;violin
475.3193301041667;1.3305552229166437;67;0.75;violin
475.3193301041667;1.3305552229166437;74;0.75;violin
475.3193301041667;1.3305552229166437;84;0.75;violin
476.65266310416666;0.33055547291667153;83;0.75;violin
476.9859963541667;0.33055547291667153;67;0.75;violin
476.9859963541667;0.33055547291667153;71;0.75;violin
476.9859963541667;0.33055547291667153;79;0.75;violin
477.3193296041667;0.33055547291667153;69;0.75;violin
477.3193296041667;0.33055547291667153;72;0.75;violin
477.3193296041667;0.33055547291667153;79;0.75;violin
477.65266285416664;0.33055547291667153;71;0.75;violin
477.65266285416664;0.33055547291667153;74;0.75;violin
477.65266285416664;0.33055547291667153;79;0.75;violin
477.98599610416665;0.33055547291667153;71;0.75;violin
477.98599610416665;0.33055547291667153;74;0.75;violin
477.98599610416665;0.33055547291667153;79;0.75;violin
478.31932935416665;0.33055547291667153;72;0.75;violin
478.31932935416665;0.33055547291667153;76;0.75;violin
478.31932935416665;0.33055547291667153;79;0.75;violin
478.65266260416666;0.33055547291667153;66;0.75;violin
478.65266260416666;0.33055547291667153;75;0.75;violin
478.65266260416666;0.33055547291667153;81;0.75;violin
478.9859958541667;0.33055547291667153;84;0.75;violin
479.3193291041667;0.3305554729166147;67;0.75;violin
479.3193291041667;0.3305554729166147;76;0.75;violin
479.3193291041667;0.3305554729166147;84;0.75;violin
479.65266235416664;0.33055547291667153;79;0.75;violin
479.98599560416665;0.33055547291667153;67;0.75;violin
479.98599560416665;0.33055547291667153;77;0.75;violin
480.31932885416666;0.33055547291667153;74;0.75;violin
480.65266210416667;1.3305552229166437;60;0.75;violin
480.65266210416667;1.3305552229166437;64;0.75;violin
480.65266210416667;1.3305552229166437;72;0.75;violin
481.98599510416665;0.33055547291667153;60;0.75;violin
481.98599510416665;0.33055547291667153;68;0.75;violin
481.98599510416665;0.33055547291667153;71;0.75;violin
482.31932835416666;0.33055547291667153;68;0.75;violin
482.65266160416667;0.33055547291667153;67;0.75;violin
482.9859948541667;0.33055547291667153;65;0.75;violin
483.31932810416663;1.3305552229167006;60;0.75;violin
483.31932810416663;1.3305552229167006;64;0.75;violin
483.31932810416663;1.3305552229167006;72;0.75;violin
484.65266110416667;0.33055547291667153;60;0.75;violin
484.65266110416667;0.33055547291667153;68;0.75;violin
484.65266110416667;0.33055547291667153;71;0.75;violin
484.9859943541667;0.33055547291667153;68;0.75;violin
485.3193276041667;0.3305554729166147;67;0.75;violin
485.65266085416664;0.33055547291667153;65;0.75;violin
485.98599410416665;0.6638887229166812;60;0.75;violin
485.98599410416665;0.6638887229166812;64;0.75;violin
485.98599410416665;0.6638887229166812;72;0.75;violin
487.31932710416663;0.6638887229166812;55;0.75;violin
487.31932710416663;0.6638887229166812;67;0.75;violin
487.31932710416663;0.6638887229166812;74;0.75;violin
487.31932710416663;0.6638887229166812;83;0.75;violin
488.65266010416667;1.3305552229166437;60;0.75;violin
488.65266010416667;1.3305552229166437;67;0.75;violin
488.65266010416667;1.3305552229166437;76;0.75;violin
488.65266010416667;1.3305552229166437;84;0.75;violin
