start;duration;pitch;velocity;instrument
0.0;1.08863826875;57;0.625;violin
1.0897746354166666;0.06704563333333335;60;0.625;violin
1.1579566354166666;0.06704563333333335;64;0.625;violin
1.2261386354166668;0.06704563333333335;69;0.625;violin
1.2943206354166668;0.06704563333333335;72;0.625;violin
1.3625026354166667;0.06704563333333335;76;0.625;violin
1.4306846354166667;0.06704563333333335;81;0.625;violin
1.4988666354166666;0.06704563333333335;84;0.625;violin
1.5670486354166666;0.06704563333333358;88;0.625;violin
1.6352306354166668;1.08863826875;93;0.625;violin
2.7250052708333334;0.05340923333333336;92;0.625;violin
2.7795508708333334;0.05340923333333336;89;0.625;violin
2.8340964708333334;0.05340923333333336;88;0.625;violin
2.8886420708333334;0.05340923333333336;86;0.625;violin
2.9431876708333333;0.05340923333333336;84;0.625;violin
2.9977332708333337;0.05340923333333292;83;0.625;violin
3.0522788708333337;0.05340923333333336;81;0.625;violin
3.1068244708333337;0.05340923333333336;80;0.625;violin
3.1613700708333337;0.05340923333333336;77;0.625;violin
3.2159156708333336;0.05340923333333336;76;0.625;violin
3.2704612708333336;0.05340923333333336;74;0.625;violin
3.3250068708333336;0.05340923333333336;72;0.625;violin
3.3795524708333335;0.05340923333333336;71;0.625;violin
3.4340980708333335;0.05340923333333336;69;0.625;violin
3.4886436708333335;0.05340923333333336;68;0.625;violin
3.5431892708333335;0.05340923333333336;65;0.625;violin
3.5977348708333334;0.05340923333333336;64;0.625;violin
3.6522804708333334;0.05340923333333336;62;0.625;violin
3.7068260708333334;0.05340923333333336;60;0.625;violin
3.7613716708333333;0.05340923333333336;59;0.625;violin
3.8159172708333333;1.0886382687499996;57;0.625;violin
4.9056919062499995;0.059091066666666414;60;0.625;violin
4.9659193395833325;0.0590910666666673;64;0.625;violin
5.027283139583333;0.059091066666666414;69;0.625;violin
5.087510572916666;0.059091066666666414;72;0.625;violin
5.14773800625;0.059091066666666414;76;0.625;violin
5.20910180625;0.059091066666666414;81;0.625;violin
5.269329239583333;0.0590910666666673;84;0.625;violin
5.329556672916667;0.059091066666666414;88;0.625;violin
5.390920472916666;0.059091066666666414;93;0.625;violin
5.451147906249999;1.0886382687500005;96;0.625;violin
6.540922541666666;0.04886376666666692;95;0.625;violin
6.590922675;0.04886376666666692;93;0.625;violin
6.639786441666667;0.04886376666666603;92;0.625;violin
6.689786574999999;0.04886376666666692;89;0.625;violin
6.739786708333333;0.04886376666666692;88;0.625;violin
6.788650475;0.04886376666666692;86;0.625;violin
6.838650608333333;0.04886376666666603;84;0.625;violin
6.887514374999999;0.04886376666666692;83;0.625;violin
6.937514508333333;0.04886376666666692;81;0.625;violin
6.9875146416666665;0.04886376666666692;80;0.625;violin
7.036378408333333;0.04886376666666603;77;0.625;violin
7.086378541666666;0.04886376666666692;76;0.625;violin
7.136378675;0.04886376666666692;74;0.625;violin
7.1852424416666665;0.04886376666666692;72;0.625;violin
7.235242575;0.04886376666666603;71;0.625;violin
7.2852427083333335;0.04886376666666603;69;0.625;violin
7.334106475;0.04886376666666692;68;0.625;violin
7.384106608333333;0.04886376666666692;65;0.625;violin
7.432970375;0.04886376666666603;64;0.625;violin
7.482970508333333;0.04886376666666692;62;0.625;violin
7.532970641666666;0.04886376666666692;60;0.625;violin
7.581834408333333;0.04886376666666692;59;0.625;violin
7.631834541666667;1.0886382687499996;57;0.625;violin
8.721609177083334;0.05340923333333336;60;0.625;violin
8.776154777083333;0.05340923333333336;64;0.625;violin
8.830700377083334;0.05340923333333336;69;0.625;violin
8.885245977083333;0.05340923333333336;72;0.625;violin
8.939791577083334;0.05340923333333336;76;0.625;violin
8.994337177083333;0.05340923333333336;81;0.625;violin
9.048882777083334;0.05340923333333336;84;0.625;violin
9.103428377083333;0.05340923333333336;88;0.625;violin
9.157973977083333;0.05340923333333336;93;0.625;violin
9.212519577083333;0.05340923333333336;96;0.625;violin
9.267065177083333;1.0886382687499996;100;0.625;violin
10.3568398125;0.06704563333333269;98;0.625;violin
10.425021812499999;0.06704563333333446;96;0.625;violin
10.4932038125;0.06704563333333446;95;0.625;violin
10.5613858125;0.06704563333333446;93;0.625;violin
10.6295678125;0.06704563333333269;92;0.625;violin
10.6977498125;0.06704563333333269;89;0.625;violin
10.7659318125;0.06704563333333269;88;0.625;violin
10.8341138125;0.06704563333333269;86;0.625;violin
10.9022958125;0.06704563333333269;84;0.625;violin
10.9704778125;0.06704563333333269;83;0.625;violin
11.0386598125;0.06704563333333269;81;0.625;violin
11.106841812499999;0.06704563333333446;80;0.625;violin
11.1750238125;0.06704563333333446;77;0.625;violin
11.2432058125;0.06704563333333446;76;0.625;violin
11.3113878125;0.06704563333333446;74;0.625;violin
11.3795698125;0.06704563333333269;72;0.625;violin
11.4477518125;0.06704563333333269;71;0.625;violin
11.5159338125;0.06704563333333269;69;0.625;violin
11.5841158125;0.06704563333333269;68;0.625;violin
11.6522978125;0.06704563333333269;65;0.625;violin
11.720479812499999;0.06704563333333446;64;0.625;violin
11.7886618125;0.06704563333333446;62;0.625;violin
11.8568438125;0.06704563333333446;60;0.625;violin
11.9250258125;0.06704563333333269;59;0.625;violin
11.9932078125;1.0886382687499996;57;0.625;violin
13.082982447916667;0.04886376666666514;60;0.625;violin
13.13298258125;0.04886376666666692;64;0.625;violin
13.181846347916666;0.04886376666666692;69;0.625;violin
13.231846481249999;0.04886376666666692;72;0.625;violin
13.281846614583333;0.04886376666666514;76;0.625;violin
13.330710381249999;0.04886376666666692;81;0.625;violin
13.380710514583333;0.04886376666666692;84;0.625;violin
13.42957428125;0.04886376666666692;88;0.625;violin
13.479574414583332;0.04886376666666692;93;0.625;violin
13.529574547916665;0.04886376666666692;96;0.625;violin
13.578438314583332;0.04886376666666692;100;0.625;violin
13.628438447916666;1.0886382687499996;105;0.625;violin
14.718213083333334;0.059091066666665526;103;0.625;violin
14.778440516666667;0.059091066666665526;101;0.625;violin
14.839804316666665;0.0590910666666673;100;0.625;violin
14.90003175;0.059091066666665526;98;0.625;violin
14.960259183333333;0.059091066666665526;96;0.625;violin
15.021622983333332;0.0590910666666673;95;0.625;violin
15.081850416666667;0.059091066666665526;93;0.625;violin
15.14207785;0.059091066666665526;92;0.625;violin
15.20344165;0.059091066666665526;89;0.625;violin
15.263669083333333;0.059091066666665526;88;0.625;violin
15.323896516666666;0.059091066666665526;86;0.625;violin
15.385260316666667;0.059091066666665526;84;0.625;violin
15.44548775;0.059091066666665526;83;0.625;violin
15.505715183333333;0.0590910666666673;81;0.625;violin
15.567078983333333;0.059091066666665526;80;0.625;violin
15.627306416666666;0.059091066666665526;77;0.625;violin
15.68753385;0.0590910666666673;76;0.625;violin
15.74889765;0.059091066666665526;74;0.625;violin
15.809125083333333;0.059091066666665526;72;0.625;violin
15.869352516666666;0.0590910666666673;71;0.625;violin
15.930716316666667;0.059091066666665526;69;0.625;violin
15.99094375;0.0590910666666673;68;0.625;violin
16.051171183333334;0.05909106666666375;65;0.625;violin
16.112534983333333;0.0590910666666673;64;0.625;violin
16.172762416666664;0.0590910666666673;62;0.625;violin
16.23298985;0.0590910666666673;60;0.625;violin
16.294353649999998;0.0590910666666673;59;0.625;violin
16.354581083333333;0.27159163333333325;57;0.625;violin
16.627309083333333;0.06704563333333269;58;0.625;violin
16.695491083333334;0.06704563333333269;59;0.625;violin
16.763673083333334;0.06704563333333269;60;0.625;violin
16.831855083333334;0.06704563333333269;61;0.625;violin
16.900037083333334;0.06704563333333269;62;0.625;violin
16.968219083333334;0.06704563333333269;63;0.625;violin
17.03640108333333;0.06704563333333624;64;0.625;violin
17.10458308333333;0.06704563333333624;65;0.625;violin
17.17276508333333;0.06704563333333624;66;0.625;violin
17.24094708333333;0.06704563333333624;67;0.625;violin
17.309129083333332;0.06704563333333624;68;0.625;violin
17.377311083333332;0.06704563333333624;69;0.625;violin
17.445493083333332;0.06704563333333269;70;0.625;violin
17.513675083333332;0.06704563333333269;71;0.625;violin
17.581857083333333;0.06704563333333269;72;0.625;violin
17.650039083333333;0.06704563333333269;73;0.625;violin
17.718221083333333;0.06704563333333269;74;0.625;violin
17.786403083333333;0.06704563333333269;75;0.625;violin
17.854585083333333;0.06704563333333269;76;0.625;violin
17.922767083333333;0.06704563333333269;77;0.625;violin
17.990949083333334;0.06704563333333269;78;0.625;violin
18.059131083333334;0.06704563333333269;79;0.625;violin
18.127313083333334;0.06704563333333269;80;0.625;violin
18.195495083333334;0.06704563333333269;81;0.625;violin
18.263677083333334;0.06704563333333269;80;0.625;violin
18.331859083333335;0.06704563333333269;79;0.625;violin
18.400041083333335;0.06704563333333269;78;0.625;violin
18.46822308333333;0.06704563333333624;77;0.625;violin
18.53640508333333;0.06704563333333624;76;0.625;violin
18.60458708333333;0.06704563333333269;75;0.625;violin
18.672769083333332;0.06704563333333269;74;0.625;violin
18.740951083333332;0.06704563333333269;73;0.625;violin
18.809133083333332;0.06704563333333269;72;0.625;violin
18.877315083333333;0.06704563333333269;71;0.625;violin
18.945497083333333;0.06704563333333269;70;0.625;violin
19.013679083333333;0.06704563333333269;69;0.625;violin
19.081861083333333;0.06704563333333269;68;0.625;violin
19.150043083333333;0.06704563333333269;67;0.625;violin
19.218225083333333;0.06704563333333269;66;0.625;violin
19.286407083333334;0.06704563333333269;65;0.625;violin
19.354589083333334;0.06704563333333269;64;0.625;violin
19.422771083333334;0.06704563333333269;63;0.625;violin
19.490953083333334;0.06704563333333269;62;0.625;violin
19.55913508333333;0.06704563333333624;61;0.625;violin
19.62731708333333;0.06704563333333624;60;0.625;violin
19.69549908333333;0.06704563333333624;59;0.625;violin
19.76368108333333;0.06704563333333624;58;0.625;violin
19.83186308333333;0.544319633333334;57;0.625;violin
20.377319083333333;0.5431827687500004;64;0.625;violin
20.377319083333333;0.5431827687500004;72;0.625;violin
20.377319083333333;0.5431827687500004;81;0.625;violin
23.92163821875;0.042142839583334535;57;0.625;violin
24.00735246875;0.042142839583334535;60;0.625;violin
24.093066718750002;0.04214283958333098;64;0.625;violin
24.17878096875;0.042142839583334535;60;0.625;violin
24.26449521875;0.042142839583334535;59;0.625;violin
24.350209468750002;0.04214283958333098;62;0.625;violin
24.43592371875;0.042142839583334535;64;0.625;violin
24.52163796875;0.042142839583334535;62;0.625;violin
24.607352218750002;0.04214283958333098;60;0.625;violin
24.69306646875;0.042142839583334535;69;0.625;violin
24.77878071875;0.042142839583334535;67;0.625;violin
24.86449496875;0.04214283958333098;65;0.625;violin
24.95020921875;0.042142839583334535;64;0.625;violin
25.03592346875;0.042142839583334535;62;0.625;violin
25.12163771875;0.042142839583334535;60;0.625;violin
25.20735196875;0.042142839583334535;59;0.625;violin
25.29306621875;0.042142839583334535;57;0.625;violin
25.37878046875;0.042142839583334535;60;0.625;violin
25.46449471875;0.042142839583334535;64;0.625;violin
25.550208968750002;0.04214283958333098;60;0.625;violin
25.63592321875;0.042142839583334535;59;0.625;violin
25.72163746875;0.042142839583334535;62;0.625;violin
25.807351718750002;0.04214283958333098;64;0.625;violin
25.89306596875;0.042142839583334535;62;0.625;violin
25.97878021875;0.042142839583334535;60;0.625;violin
26.064494468750002;0.04214283958333098;69;0.625;violin
26.15020871875;0.042142839583334535;67;0.625;violin
26.23592296875;0.042142839583334535;65;0.625;violin
26.321637218750002;0.04214283958333098;64;0.625;violin
26.40735146875;0.042142839583334535;62;0.625;violin
26.49306571875;0.042142839583334535;60;0.625;violin
26.578779968750002;0.04214283958333098;59;0.625;violin
26.66449421875;0.042142839583334535;57;0.625;violin
26.75020846875;0.042142839583334535;61;0.625;violin
26.835922718750002;0.04214283958333098;64;0.625;violin
26.92163696875;0.042142839583334535;61;0.625;violin
27.00735121875;0.042142839583334535;57;0.625;violin
27.09306546875;0.04214283958333098;62;0.625;violin
27.17877971875;0.042142839583334535;65;0.625;violin
27.26449396875;0.042142839583334535;62;0.625;violin
27.35020821875;0.04214283958333098;55;0.625;violin
27.43592246875;0.042142839583334535;59;0.625;violin
27.521636718750003;0.04214283958333098;65;0.625;violin
27.60735096875;0.04214283958333098;59;0.625;violin
27.69306521875;0.042142839583334535;55;0.625;violin
27.778779468750002;0.04214283958333098;60;0.625;violin
27.86449371875;0.04214283958333098;64;0.625;violin
27.95020796875;0.042142839583334535;60;0.625;violin
28.035922218750002;0.04214283958333098;56;0.625;violin
28.12163646875;0.04214283958333098;59;0.625;violin
28.20735071875;0.042142839583334535;65;0.625;violin
28.293064968750002;0.04214283958333098;62;0.625;violin
28.37877921875;0.04214283958333098;60;0.625;violin
28.46449346875;0.042142839583334535;57;0.625;violin
28.550207718750002;0.04214283958333098;69;0.625;violin
28.63592196875;0.04214283958333098;63;0.625;violin
28.72163621875;0.042142839583334535;64;0.625;violin
28.807350468750002;0.04214283958333098;68;0.625;violin
28.89306471875;0.04214283958333098;71;0.625;violin
28.97877896875;0.042142839583334535;76;0.625;violin
29.064493218750002;0.04214283958333098;80;0.625;violin
29.15020746875;0.042142839583334535;83;0.625;violin
29.23592171875;0.042142839583334535;86;0.625;violin
29.32163596875;0.04214283958333098;88;0.625;violin
29.40735021875;0.042142839583334535;69;0.625;violin
29.49306446875;0.042142839583334535;72;0.625;violin
29.57877871875;0.04214283958333098;76;0.625;violin
29.66449296875;0.042142839583334535;72;0.625;violin
29.75020721875;0.042142839583334535;71;0.625;violin
29.83592146875;0.042142839583334535;74;0.625;violin
29.92163571875;0.042142839583334535;76;0.625;violin
30.00734996875;0.042142839583334535;74;0.625;violin
30.09306421875;0.042142839583334535;72;0.625;violin
30.17877846875;0.042142839583334535;81;0.625;violin
30.26449271875;0.042142839583334535;79;0.625;violin
30.35020696875;0.042142839583334535;77;0.625;violin
30.43592121875;0.042142839583334535;76;0.625;violin
30.52163546875;0.042142839583334535;74;0.625;violin
30.60734971875;0.042142839583334535;72;0.625;violin
30.69306396875;0.042142839583334535;71;0.625;violin
30.77877821875;0.042142839583334535;69;0.625;violin
30.86449246875;0.042142839583334535;72;0.625;violin
30.95020671875;0.042142839583334535;76;0.625;violin
31.03592096875;0.042142839583334535;72;0.625;violin
31.12163521875;0.042142839583334535;71;0.625;violin
31.20734946875;0.042142839583334535;74;0.625;violin
31.29306371875;0.042142839583334535;76;0.625;violin
31.37877796875;0.042142839583334535;74;0.625;violin
31.46449221875;0.042142839583334535;72;0.625;violin
31.550206468749998;0.042142839583334535;81;0.625;violin
31.63592071875;0.042142839583334535;79;0.625;violin
31.72163496875;0.042142839583334535;77;0.625;violin
31.80734921875;0.04214283958333098;76;0.625;violin
31.89306346875;0.042142839583334535;74;0.625;violin
31.978777718750003;0.04214283958332743;72;0.625;violin
32.06449196875;0.042142839583334535;71;0.625;violin
32.15020621875;0.042142839583334535;69;0.625;violin
32.23592046875;0.04214283958332743;73;0.625;violin
32.32163471875;0.042142839583334535;76;0.625;violin
32.40734896875;0.042142839583334535;73;0.625;violin
32.49306321875;0.04214283958332743;81;0.625;violin
32.57877746875;0.042142839583334535;79;0.625;violin
32.66449171875;0.042142839583334535;77;0.625;violin
32.75020596875;0.04214283958332743;76;0.625;violin
32.835920218750005;0.04214283958332743;73;0.625;violin
32.92163446875;0.042142839583334535;74;0.625;violin
33.00734871875;0.04214283958332743;83;0.625;violin
33.093062968750004;0.04214283958332743;81;0.625;violin
33.17877721875;0.042142839583334535;79;0.625;violin
33.26449146875;0.04214283958332743;77;0.625;violin
33.350205718750004;0.04214283958332743;76;0.625;violin
33.43591996875;0.042142839583334535;74;0.625;violin
33.52163421875;0.04214283958332743;72;0.625;violin
33.607348468750004;0.04214283958332743;71;0.625;violin
33.69306271875;0.042142839583334535;69;0.625;violin
33.77877696875;0.04214283958332743;67;0.625;violin
33.864491218750004;0.04214283958332743;66;0.625;violin
33.95020546875;0.042142839583334535;67;0.625;violin
34.03591971875;0.042142839583334535;69;0.625;violin
34.121633968750004;0.04214283958332743;65;0.625;violin
34.20734821875;0.042142839583334535;64;0.625;violin
34.29306246875;0.042142839583334535;67;0.625;violin
34.378776718750004;0.04214283958332743;72;0.625;violin
34.46449096875;0.042142839583334535;64;0.625;violin
34.55020521875;0.042142839583334535;62;0.625;violin
34.635919468750004;0.04214283958332743;65;0.625;violin
34.72163371875;0.042142839583334535;71;0.625;violin
34.80734796875;0.042142839583334535;62;0.625;violin
34.89306221875;0.04214283958332743;60;0.625;violin
34.97877646875;0.042142839583334535;64;0.625;violin
35.06449071875;0.042142839583334535;69;0.625;violin
35.15020496875;0.04214283958332743;60;0.625;violin
35.23591921875;0.042142839583334535;59;0.625;violin
35.32163346875;0.042142839583334535;62;0.625;violin
35.40734771875;0.042142839583334535;67;0.625;violin
35.49306196875;0.042142839583334535;59;0.625;violin
35.57877621875;0.042142839583334535;57;0.625;violin
35.66449046875;0.042142839583334535;60;0.625;violin
35.75020471875;0.042142839583334535;65;0.625;violin
35.83591896875;0.042142839583334535;57;0.625;violin
35.92163321875;0.042142839583334535;56;0.625;violin
36.00734746875;0.042142839583334535;60;0.625;violin
36.09306171875;0.042142839583334535;65;0.625;violin
36.17877596875;0.042142839583334535;56;0.625;violin
36.26449021875;0.042142839583334535;55;0.625;violin
36.35020446875;0.042142839583334535;59;0.625;violin
36.43591871875;0.042142839583334535;65;0.625;violin
36.52163296875;0.042142839583334535;59;0.625;violin
36.60734721875;0.042142839583334535;60;0.625;violin
36.69306146875;0.042142839583334535;64;0.625;violin
36.77877571875;0.042142839583334535;67;0.625;violin
36.86448996875;0.042142839583334535;72;0.625;violin
36.95020421875;0.042142839583334535;62;0.625;violin
37.03591846875;0.042142839583334535;65;0.625;violin
37.12163271875;0.042142839583334535;71;0.625;violin
37.20734696875;0.042142839583334535;74;0.625;violin
37.29306121875;0.042142839583334535;64;0.625;violin
37.37877546875;0.042142839583334535;67;0.625;violin
37.46448971875;0.042142839583334535;72;0.625;violin
37.55020396875;0.042142839583334535;76;0.625;violin
37.63591821875;0.042142839583334535;65;0.625;violin
37.72163246875;0.042142839583334535;69;0.625;violin
37.80734671875;0.042142839583334535;72;0.625;violin
37.89306096875;0.042142839583334535;77;0.625;violin
37.97877521875;0.042142839583334535;66;0.625;violin
38.06448946875;0.042142839583334535;75;0.625;violin
38.15020371875;0.042142839583334535;72;0.625;violin
38.23591796875;0.042142839583334535;69;0.625;violin
38.32163221875;0.042142839583334535;67;0.625;violin
38.40734646875;0.042142839583334535;79;0.625;violin
38.49306071875;0.042142839583334535;76;0.625;violin
38.57877496875;0.042142839583334535;72;0.625;violin
38.66448921875;0.042142839583334535;67;0.625;violin
38.75020346875;0.042142839583334535;77;0.625;violin
38.83591771875;0.042142839583334535;74;0.625;violin
38.92163196875;0.042142839583334535;71;0.625;violin
39.00734621875;0.042142839583334535;72;0.625;violin
39.09306046875;0.042142839583334535;84;0.625;violin
39.17877471875;0.042142839583334535;83;0.625;violin
39.26448896875;0.042142839583334535;81;0.625;violin
39.350203218749996;0.042142839583334535;79;0.625;violin
39.43591746875;0.042142839583334535;77;0.625;violin
39.52163171875;0.042142839583334535;76;0.625;violin
39.607345968749996;0.042142839583334535;72;0.625;violin
39.69306021875;0.042142839583334535;77;0.625;violin
39.77877446875;0.042142839583334535;83;0.625;violin
39.864488718749996;0.042142839583334535;81;0.625;violin
39.95020296875;0.042142839583334535;79;0.625;violin
40.03591721875;0.042142839583334535;78;0.625;violin
40.121631468749996;0.042142839583334535;76;0.625;violin
40.20734571875;0.042142839583334535;75;0.625;violin
40.29305996875;0.042142839583334535;71;0.625;violin
40.378774218749996;0.042142839583334535;76;0.625;violin
40.46448846875;0.042142839583334535;81;0.625;violin
40.55020271875;0.042142839583334535;79;0.625;violin
40.635916968749996;0.042142839583334535;77;0.625;violin
40.72163121875;0.042142839583334535;76;0.625;violin
40.80734546875;0.042142839583334535;74;0.625;violin
40.893059718749996;0.042142839583334535;73;0.625;violin
40.97877396875;0.042142839583334535;69;0.625;violin
41.06448821875;0.042142839583334535;74;0.625;violin
41.150202468749995;0.042142839583334535;79;0.625;violin
41.23591671875;0.042142839583334535;77;0.625;violin
41.32163096875;0.042142839583334535;76;0.625;violin
41.407345218749995;0.042142839583334535;74;0.625;violin
41.493059468750005;0.04214283958332743;72;0.625;violin
41.57877371875;0.042142839583334535;71;0.625;violin
41.664487968749995;0.042142839583334535;67;0.625;violin
41.750202218750005;0.04214283958332743;72;0.625;violin
41.83591646875;0.042142839583334535;77;0.625;violin
41.921630718749995;0.042142839583334535;76;0.625;violin
42.007344968750004;0.04214283958332743;74;0.625;violin
42.09305921875;0.042142839583334535;72;0.625;violin
42.178773468749995;0.042142839583334535;71;0.625;violin
42.264487718750004;0.04214283958332743;69;0.625;violin
42.35020196875;0.042142839583334535;67;0.625;violin
42.435916218749995;0.042142839583334535;66;0.625;violin
42.521630468750004;0.04214283958332743;69;0.625;violin
42.60734471875;0.042142839583334535;72;0.625;violin
42.693058968749995;0.042142839583334535;75;0.625;violin
42.778773218750004;0.04214283958332743;78;0.625;violin
42.86448746875;0.042142839583334535;81;0.625;violin
42.950201718749994;0.042142839583334535;84;0.625;violin
43.035915968750004;0.04214283958332743;78;0.625;violin
43.12163021875;0.042142839583334535;84;0.625;violin
43.207344468749994;0.042142839583334535;79;0.625;violin
43.293058718750004;0.04214283958332743;76;0.625;violin
43.37877296875;0.042142839583334535;72;0.625;violin
43.464487218749994;0.042142839583334535;67;0.625;violin
43.550201468750004;0.04214283958332743;64;0.625;violin
43.63591571875;0.042142839583334535;60;0.625;violin
43.721629968749994;0.042142839583334535;55;0.625;violin
43.80734421875;0.04214283958332743;83;0.625;violin
43.89305846875;0.042142839583334535;79;0.625;violin
43.978772718749994;0.042142839583334535;74;0.625;violin
44.06448696875;0.04214283958332743;71;0.625;violin
44.15020121875;0.042142839583334535;67;0.625;violin
44.23591546875;0.04214283958332743;62;0.625;violin
44.32162971875;0.042142839583334535;59;0.625;violin
44.40734396875;0.042142839583334535;55;0.625;violin
44.49305821875;0.04214283958332743;60;0.625;violin
44.57877246875;0.042142839583334535;84;0.625;violin
44.66448671875;0.042142839583334535;83;0.625;violin
44.75020096875;0.04214283958332743;82;0.625;violin
44.83591521875;0.042142839583334535;81;0.625;violin
44.92162946875;0.042142839583334535;80;0.625;violin
45.00734371875;0.04214283958332743;79;0.625;violin
45.09305796875;0.042142839583334535;78;0.625;violin
45.17877221875;0.042142839583334535;77;0.625;violin
45.26448646875;0.04214283958332743;76;0.625;violin
45.35020071875;0.042142839583334535;75;0.625;violin
45.43591496875;0.042142839583334535;74;0.625;violin
45.52162921875;0.04214283958332743;73;0.625;violin
45.60734346875;0.042142839583334535;72;0.625;violin
45.69305771875;0.042142839583334535;71;0.625;violin
45.77877196875;0.04214283958332743;70;0.625;violin
45.86448621875;0.042142839583334535;69;0.625;violin
45.95020046875;0.042142839583334535;68;0.625;violin
46.03591471875;0.04214283958332743;67;0.625;violin
46.12162896875;0.042142839583334535;66;0.625;violin
46.20734321875;0.042142839583334535;65;0.625;violin
46.29305746875;0.04214283958332743;64;0.625;violin
46.37877171875;0.042142839583334535;63;0.625;violin
46.46448596875;0.042142839583334535;62;0.625;violin
46.55020021875;0.04214283958332743;60;0.625;violin
46.63591446875;0.042142839583334535;64;0.625;violin
46.72162871875;0.042142839583334535;68;0.625;violin
46.80734296875;0.042142839583334535;67;0.625;violin
46.89305721875;0.042142839583334535;59;0.625;violin
46.97877146875;0.042142839583334535;67;0.625;violin
47.06448571875;0.042142839583334535;65;0.625;violin
47.15019996875;0.042142839583334535;62;0.625;violin
47.23591421875;0.042142839583334535;60;0.625;violin
47.32162846875;0.042142839583334535;64;0.625;violin
47.40734271875;0.042142839583334535;55;0.625;violin
47.49305696875;0.042142839583334535;60;0.625;violin
47.57877121875;0.042142839583334535;59;0.625;violin
47.66448546875;0.042142839583334535;67;0.625;violin
47.75019971875;0.042142839583334535;65;0.625;violin
47.83591396875;0.042142839583334535;62;0.625;violin
47.92162821875;0.042142839583334535;60;0.625;violin
48.00734246875;0.042142839583334535;64;0.625;violin
48.09305671875;0.042142839583334535;55;0.625;violin
48.17877096875;0.042142839583334535;60;0.625;violin
48.264485218749996;0.042142839583334535;59;0.625;violin
48.35019946875;0.042142839583334535;67;0.625;violin
48.43591371875;0.042142839583334535;65;0.625;violin
48.521627968749996;0.042142839583334535;62;0.625;violin
48.60734221875;0.042142839583334535;60;0.625;violin
48.69305646875;0.042142839583334535;64;0.625;violin
48.778770718749996;0.042142839583334535;62;0.625;violin
48.86448496875;0.042142839583334535;60;0.625;violin
48.95019921875;0.042142839583334535;59;0.625;violin
49.035913468749996;0.042142839583334535;65;0.625;violin
49.12162771875;0.042142839583334535;62;0.625;violin
49.20734196875;0.042142839583334535;59;0.625;violin
49.293056218749996;0.042142839583334535;57;0.625;violin
49.37877046875;0.042142839583334535;60;0.625;violin
49.46448471875;0.042142839583334535;59;0.625;violin
49.550198968749996;0.042142839583334535;57;0.625;violin
49.63591321875;0.042142839583334535;56;0.625;violin
49.72162746875;0.042142839583334535;62;0.625;violin
49.807341718749996;0.042142839583334535;59;0.625;violin
49.89305596875;0.042142839583334535;56;0.625;violin
49.97877021875;0.042142839583334535;57;0.625;violin
50.064484468749995;0.042142839583334535;60;0.625;violin
50.15019871875;0.042142839583334535;64;0.625;violin
50.23591296875;0.042142839583334535;60;0.625;violin
50.321627218749995;0.042142839583334535;59;0.625;violin
50.40734146875;0.042142839583334535;62;0.625;violin
50.49305571875;0.042142839583334535;64;0.625;violin
50.578769968749995;0.042142839583334535;62;0.625;violin
50.66448421875;0.042142839583334535;60;0.625;violin
50.75019846875;0.042142839583334535;69;0.625;violin
50.835912718749995;0.042142839583334535;67;0.625;violin
50.92162696875;0.042142839583334535;65;0.625;violin
51.00734121875;0.042142839583334535;64;0.625;violin
51.093055468749995;0.042142839583334535;62;0.625;violin
51.17876971875;0.042142839583334535;60;0.625;violin
51.26448396875;0.042142839583334535;59;0.625;violin
51.350198218749995;0.042142839583334535;57;0.625;violin
51.43591246875;0.042142839583334535;60;0.625;violin
51.52162671875;0.042142839583334535;64;0.625;violin
51.607340968749995;0.042142839583334535;60;0.625;violin
51.69305521875;0.042142839583334535;59;0.625;violin
51.77876946875;0.042142839583334535;62;0.625;violin
51.864483718749995;0.042142839583334535;64;0.625;violin
51.95019796875;0.042142839583334535;62;0.625;violin
52.03591221875;0.042142839583334535;60;0.625;violin
52.121626468749994;0.042142839583334535;69;0.625;violin
52.207340718750004;0.04214283958332743;67;0.625;violin
52.29305496875;0.042142839583334535;65;0.625;violin
52.378769218749994;0.042142839583334535;64;0.625;violin
52.464483468750004;0.04214283958332743;62;0.625;violin
52.55019771875;0.042142839583334535;60;0.625;violin
52.635911968749994;0.042142839583334535;59;0.625;violin
52.72162621875;0.04214283958332743;57;0.625;violin
52.80734046875;0.042142839583334535;61;0.625;violin
52.893054718749994;0.042142839583334535;64;0.625;violin
52.97876896875;0.04214283958332743;61;0.625;violin
53.06448321875;0.042142839583334535;57;0.625;violin
53.150197468749994;0.042142839583334535;62;0.625;violin
53.23591171875;0.04214283958332743;65;0.625;violin
53.32162596875;0.042142839583334535;62;0.625;violin
53.407340218749994;0.042142839583334535;55;0.625;violin
53.49305446875;0.04214283958332743;59;0.625;violin
53.57876871875;0.042142839583334535;65;0.625;violin
53.664482968749994;0.042142839583334535;59;0.625;violin
53.75019721875;0.04214283958332743;55;0.625;violin
53.83591146875;0.042142839583334535;60;0.625;violin
53.92162571874999;0.042142839583334535;64;0.625;violin
54.00733996875;0.04214283958332743;60;0.625;violin
54.09305421875;0.042142839583334535;56;0.625;violin
54.17876846874999;0.042142839583334535;59;0.625;violin
54.26448271875;0.04214283958332743;65;0.625;violin
54.35019696875;0.042142839583334535;62;0.625;violin
54.43591121874999;0.042142839583334535;60;0.625;violin
54.52162546875;0.04214283958332743;57;0.625;violin
54.60733971875;0.042142839583334535;69;0.625;violin
54.69305396874999;0.042142839583334535;63;0.625;violin
54.77876821875;0.04214283958332743;64;0.625;violin
54.86448246875;0.042142839583334535;68;0.625;violin
54.95019671875;0.04214283958332743;71;0.625;violin
55.03591096875;0.042142839583334535;76;0.625;violin
55.12162521875;0.042142839583334535;80;0.625;violin
55.20733946875;0.04214283958332743;83;0.625;violin
55.29305371875;0.042142839583334535;86;0.625;violin
55.37876796875;0.042142839583334535;88;0.625;violin
55.46448221875;0.04214283958332743;69;0.625;violin
55.55019646875;0.042142839583334535;72;0.625;violin
55.63591071875;0.042142839583334535;76;0.625;violin
55.72162496875;0.04214283958332743;72;0.625;violin
55.80733921875;0.042142839583334535;71;0.625;violin
55.89305346875;0.042142839583334535;74;0.625;violin
55.97876771874999;0.042142839583334535;76;0.625;violin
56.06448196875;0.042142839583334535;74;0.625;violin
56.15019621875;0.042142839583334535;72;0.625;violin
56.23591046874999;0.042142839583334535;81;0.625;violin
56.32162471875;0.042142839583334535;79;0.625;violin
56.40733896875;0.042142839583334535;77;0.625;violin
56.49305321874999;0.042142839583334535;76;0.625;violin
56.57876746875;0.042142839583334535;74;0.625;violin
56.66448171875;0.042142839583334535;72;0.625;violin
56.75019596874999;0.042142839583334535;71;0.625;violin
56.83591021875;0.042142839583334535;69;0.625;violin
56.92162446875;0.042142839583334535;72;0.625;violin
57.00733871874999;0.042142839583334535;76;0.625;violin
57.09305296875;0.042142839583334535;72;0.625;violin
57.17876721875;0.042142839583334535;71;0.625;violin
57.26448146874999;0.042142839583334535;74;0.625;violin
57.35019571875;0.042142839583334535;76;0.625;violin
57.435909968749996;0.042142839583334535;74;0.625;violin
57.52162421874999;0.042142839583334535;72;0.625;violin
57.60733846875;0.042142839583334535;81;0.625;violin
57.693052718749996;0.042142839583334535;79;0.625;violin
57.77876696874999;0.042142839583334535;77;0.625;violin
57.86448121875;0.042142839583334535;76;0.625;violin
57.950195468749996;0.042142839583334535;74;0.625;violin
58.03590971874999;0.042142839583334535;72;0.625;violin
58.12162396875;0.042142839583334535;71;0.625;violin
58.207338218749996;0.042142839583334535;69;0.625;violin
58.29305246874999;0.042142839583334535;73;0.625;violin
58.37876671875;0.042142839583334535;76;0.625;violin
58.464480968749996;0.042142839583334535;73;0.625;violin
58.55019521874999;0.042142839583334535;81;0.625;violin
58.63590946875;0.042142839583334535;79;0.625;violin
58.721623718749996;0.042142839583334535;77;0.625;violin
58.807337968750005;0.042142839583320324;76;0.625;violin
58.89305221875;0.042142839583334535;73;0.625;violin
58.978766468749996;0.042142839583334535;74;0.625;violin
59.064480718750005;0.042142839583320324;83;0.625;violin
59.15019496875;0.042142839583334535;81;0.625;violin
59.235909218749995;0.042142839583334535;79;0.625;violin
59.321623468750005;0.042142839583320324;77;0.625;violin
59.40733771875;0.042142839583334535;76;0.625;violin
59.493051968749995;0.042142839583334535;74;0.625;violin
59.578766218750005;0.042142839583320324;72;0.625;violin
59.66448046875;0.042142839583334535;71;0.625;violin
59.750194718749995;0.042142839583334535;69;0.625;violin
59.835908968750005;0.042142839583320324;67;0.625;violin
59.92162321875;0.042142839583334535;66;0.625;violin
60.007337468749995;0.042142839583334535;67;0.625;violin
60.093051718750004;0.042142839583320324;69;0.625;violin
60.17876596875;0.042142839583334535;65;0.625;violin
60.264480218749995;0.042142839583334535;64;0.625;violin
60.350194468750004;0.042142839583320324;67;0.625;violin
60.43590871875;0.042142839583334535;72;0.625;violin
60.521622968749995;0.042142839583334535;64;0.625;violin
60.607337218750004;0.042142839583320324;62;0.625;violin
60.69305146875;0.042142839583334535;65;0.625;violin
60.778765718749995;0.042142839583334535;71;0.625;violin
60.864479968750004;0.042142839583320324;62;0.625;violin
60.95019421875;0.042142839583334535;60;0.625;violin
61.035908468749994;0.042142839583334535;64;0.625;violin
61.121622718750004;0.042142839583320324;69;0.625;violin
61.20733696875;0.042142839583334535;60;0.625;violin
61.293051218749994;0.042142839583334535;59;0.625;violin
61.378765468750004;0.042142839583320324;62;0.625;violin
61.46447971875;0.042142839583334535;67;0.625;violin
61.550193968749994;0.042142839583334535;59;0.625;violin
61.635908218750004;0.042142839583334535;57;0.625;violin
61.72162246875;0.042142839583334535;60;0.625;violin
61.807336718749994;0.042142839583334535;65;0.625;violin
61.89305096875;0.042142839583334535;57;0.625;violin
61.97876521875;0.042142839583334535;56;0.625;violin
62.064479468749994;0.042142839583334535;60;0.625;violin
62.15019371875;0.042142839583334535;65;0.625;violin
62.23590796875;0.042142839583334535;56;0.625;violin
62.321622218749994;0.042142839583334535;55;0.625;violin
62.40733646875;0.042142839583334535;59;0.625;violin
62.49305071875;0.042142839583334535;65;0.625;violin
62.578764968749994;0.042142839583334535;59;0.625;violin
62.66447921875;0.042142839583334535;60;0.625;violin
62.75019346875;0.042142839583334535;64;0.625;violin
62.83590771874999;0.042142839583334535;67;0.625;violin
62.92162196875;0.042142839583334535;72;0.625;violin
63.00733621875;0.042142839583334535;62;0.625;violin
63.09305046874999;0.042142839583334535;65;0.625;violin
63.17876471875;0.042142839583334535;71;0.625;violin
63.26447896875;0.042142839583334535;74;0.625;violin
63.35019321874999;0.042142839583334535;64;0.625;violin
63.43590746875;0.042142839583334535;67;0.625;violin
63.52162171875;0.042142839583334535;72;0.625;violin
63.60733596874999;0.042142839583334535;76;0.625;violin
63.69305021875;0.042142839583334535;65;0.625;violin
63.77876446875;0.042142839583334535;69;0.625;violin
63.86447871874999;0.042142839583334535;72;0.625;violin
63.95019296875;0.042142839583334535;77;0.625;violin
64.03590721875;0.042142839583334535;66;0.625;violin
64.12162146874999;0.042142839583334535;75;0.625;violin
64.20733571875;0.042142839583334535;72;0.625;violin
64.29304996875;0.042142839583334535;69;0.625;violin
64.37876421874999;0.042142839583334535;67;0.625;violin
64.46447846875;0.042142839583334535;79;0.625;violin
64.55019271875;0.042142839583334535;76;0.625;violin
64.63590696874999;0.042142839583334535;72;0.625;violin
64.72162121875;0.042142839583334535;67;0.625;violin
64.80733546875;0.042142839583334535;77;0.625;violin
64.89304971874999;0.042142839583334535;74;0.625;violin
64.97876396875;0.042142839583334535;71;0.625;violin
65.06447821875;0.042142839583334535;72;0.625;violin
65.15019246874999;0.042142839583334535;84;0.625;violin
65.23590671875;0.042142839583334535;83;0.625;violin
65.32162096875;0.042142839583334535;81;0.625;violin
65.40733521874999;0.042142839583334535;79;0.625;violin
65.49304946875;0.042142839583334535;77;0.625;violin
65.57876371875;0.042142839583334535;76;0.625;violin
65.66447796874999;0.042142839583334535;72;0.625;violin
65.75019221875;0.042142839583334535;77;0.625;violin
65.83590646875;0.042142839583334535;83;0.625;violin
65.92162071874999;0.042142839583334535;81;0.625;violin
66.00733496875;0.042142839583334535;79;0.625;violin
66.09304921875;0.042142839583334535;78;0.625;violin
66.17876346874999;0.042142839583334535;76;0.625;violin
66.26447771875;0.042142839583334535;75;0.625;violin
66.35019196875;0.042142839583334535;71;0.625;violin
66.43590621874999;0.042142839583334535;76;0.625;violin
66.52162046875;0.042142839583334535;81;0.625;violin
66.60733471875;0.042142839583334535;79;0.625;violin
66.69304896874999;0.042142839583334535;77;0.625;violin
66.77876321875;0.042142839583334535;76;0.625;violin
66.86447746875;0.042142839583334535;74;0.625;violin
66.95019171874999;0.042142839583334535;73;0.625;violin
67.03590596875;0.042142839583334535;69;0.625;violin
67.12162021875;0.042142839583334535;74;0.625;violin
67.20733446874999;0.042142839583334535;79;0.625;violin
67.29304871875;0.042142839583334535;77;0.625;violin
67.37876296875;0.042142839583334535;76;0.625;violin
67.46447721874999;0.042142839583334535;74;0.625;violin
67.55019146875;0.042142839583334535;72;0.625;violin
67.63590571875;0.042142839583334535;71;0.625;violin
67.72161996874999;0.042142839583334535;67;0.625;violin
67.80733421875;0.042142839583334535;72;0.625;violin
67.89304846875;0.042142839583334535;77;0.625;violin
67.97876271874999;0.042142839583334535;76;0.625;violin
68.06447696875;0.042142839583334535;74;0.625;violin
68.15019121875;0.042142839583334535;72;0.625;violin
68.23590546874999;0.042142839583334535;71;0.625;violin
68.32161971875;0.042142839583334535;69;0.625;violin
68.40733396875;0.042142839583334535;67;0.625;violin
68.49304821874999;0.042142839583334535;66;0.625;violin
68.57876246875;0.042142839583334535;69;0.625;violin
68.66447671875;0.042142839583334535;72;0.625;violin
68.75019096874999;0.042142839583334535;75;0.625;violin
68.83590521875;0.042142839583334535;78;0.625;violin
68.92161946875;0.042142839583334535;81;0.625;violin
69.00733371874999;0.042142839583334535;84;0.625;violin
69.09304796875;0.042142839583334535;78;0.625;violin
69.17876221875;0.042142839583334535;84;0.625;violin
69.26447646874999;0.042142839583334535;79;0.625;violin
69.35019071875;0.042142839583334535;76;0.625;violin
69.43590496875;0.042142839583334535;72;0.625;violin
69.52161921875;0.042142839583320324;67;0.625;violin
69.60733346875;0.042142839583334535;64;0.625;violin
69.69304771875;0.042142839583334535;60;0.625;violin
69.77876196875;0.042142839583320324;55;0.625;violin
69.86447621875;0.042142839583334535;83;0.625;violin
69.95019046875;0.042142839583334535;79;0.625;violin
70.03590471875;0.042142839583320324;74;0.625;violin
70.12161896875;0.042142839583334535;71;0.625;violin
70.20733321875;0.042142839583334535;67;0.625;violin
70.29304746875;0.042142839583320324;62;0.625;violin
70.37876171875;0.042142839583334535;59;0.625;violin
70.46447596875;0.042142839583334535;55;0.625;violin
70.55019021875;0.042142839583320324;60;0.625;violin
70.63590446875;0.042142839583334535;84;0.625;violin
70.72161871875;0.042142839583334535;83;0.625;violin
70.80733296875;0.042142839583320324;82;0.625;violin
70.89304721875;0.042142839583334535;81;0.625;violin
70.97876146875;0.042142839583334535;80;0.625;violin
71.06447571875;0.042142839583320324;79;0.625;violin
71.15018996875;0.042142839583334535;78;0.625;violin
71.23590421875;0.042142839583334535;77;0.625;violin
71.32161846875;0.042142839583320324;76;0.625;violin
71.40733271875;0.042142839583334535;75;0.625;violin
71.49304696875;0.042142839583334535;74;0.625;violin
71.57876121875;0.042142839583320324;73;0.625;violin
71.66447546875;0.042142839583334535;72;0.625;violin
71.75018971875;0.042142839583334535;71;0.625;violin
71.83590396875;0.042142839583320324;70;0.625;violin
71.92161821875;0.042142839583334535;69;0.625;violin
72.00733246875;0.042142839583334535;68;0.625;violin
72.09304671875;0.042142839583320324;67;0.625;violin
72.17876096875;0.042142839583334535;66;0.625;violin
72.26447521875;0.042142839583334535;65;0.625;violin
72.35018946875;0.042142839583334535;64;0.625;violin
72.43590371875;0.042142839583334535;63;0.625;violin
72.52161796875;0.042142839583334535;62;0.625;violin
72.60733221875;0.042142839583334535;60;0.625;violin
72.69304646875;0.042142839583334535;64;0.625;violin
72.77876071875;0.042142839583334535;68;0.625;violin
72.86447496875;0.042142839583334535;67;0.625;violin
72.95018921875;0.042142839583334535;59;0.625;violin
73.03590346874999;0.042142839583334535;67;0.625;violin
73.12161771875;0.042142839583334535;65;0.625;violin
73.20733196875;0.042142839583334535;62;0.625;violin
73.29304621874999;0.042142839583334535;60;0.625;violin
73.37876046875;0.042142839583334535;64;0.625;violin
73.46447471875;0.042142839583334535;55;0.625;violin
73.55018896874999;0.042142839583334535;60;0.625;violin
73.63590321875;0.042142839583334535;59;0.625;violin
73.72161746875;0.042142839583334535;67;0.625;violin
73.80733171874999;0.042142839583334535;65;0.625;violin
73.89304596875;0.042142839583334535;62;0.625;violin
73.97876021875;0.042142839583334535;60;0.625;violin
74.06447446874999;0.042142839583334535;64;0.625;violin
74.15018871875;0.042142839583334535;55;0.625;violin
74.23590296875;0.042142839583334535;60;0.625;violin
74.32161721874999;0.042142839583334535;59;0.625;violin
74.40733146875;0.042142839583334535;67;0.625;violin
74.49304571875;0.042142839583334535;65;0.625;violin
74.57875996874999;0.042142839583334535;62;0.625;violin
74.66447421875;0.042142839583334535;60;0.625;violin
74.75018846875;0.042142839583334535;67;0.625;violin
74.83590271874999;0.042142839583334535;64;0.625;violin
74.92161696875;0.042142839583334535;60;0.625;violin
75.00733121875;0.042142839583334535;58;0.625;violin
75.09304546874999;0.042142839583334535;67;0.625;violin
75.17875971875;0.042142839583334535;64;0.625;violin
75.26447396875;0.042142839583334535;58;0.625;violin
75.35018821874999;0.042142839583334535;57;0.625;violin
75.43590246875;0.042142839583334535;65;0.625;violin
75.52161671875;0.042142839583334535;60;0.625;violin
75.60733096874999;0.042142839583334535;57;0.625;violin
75.69304521875;0.042142839583334535;55;0.625;violin
75.77875946875;0.042142839583334535;64;0.625;violin
75.86447371874999;0.042142839583334535;58;0.625;violin
75.95018796875;0.042142839583334535;55;0.625;violin
76.03590221875;0.042142839583334535;57;0.625;violin
76.12161646874999;0.042142839583334535;77;0.625;violin
76.20733071875;0.042142839583334535;72;0.625;violin
76.29304496875;0.042142839583334535;69;0.625;violin
76.37875921874999;0.042142839583334535;67;0.625;violin
76.46447346875;0.042142839583334535;76;0.625;violin
76.55018771875;0.042142839583334535;73;0.625;violin
76.63590196874999;0.042142839583334535;67;0.625;violin
76.72161621875;0.042142839583334535;65;0.625;violin
76.80733046875;0.042142839583334535;74;0.625;violin
76.89304471874999;0.042142839583334535;69;0.625;violin
76.97875896875;0.042142839583334535;65;0.625;violin
77.06447321875;0.042142839583334535;64;0.625;violin
77.15018746874999;0.042142839583334535;73;0.625;violin
77.23590171875;0.042142839583334535;67;0.625;violin
77.32161596875;0.042142839583334535;64;0.625;violin
77.40733021874999;0.042142839583334535;65;0.625;violin
77.49304446875;0.042142839583334535;74;0.625;violin
77.57875871875;0.042142839583334535;69;0.625;violin
77.66447296874999;0.042142839583334535;65;0.625;violin
77.75018721875;0.042142839583334535;63;0.625;violin
77.83590146875;0.042142839583334535;72;0.625;violin
77.92161571874999;0.042142839583334535;69;0.625;violin
78.00732996875;0.042142839583334535;63;0.625;violin
78.09304421875;0.042142839583334535;62;0.625;violin
78.17875846874999;0.042142839583334535;70;0.625;violin
78.26447271875;0.042142839583334535;65;0.625;violin
78.35018696875;0.042142839583334535;62;0.625;violin
78.43590121874999;0.042142839583334535;60;0.625;violin
78.52161546875;0.042142839583334535;69;0.625;violin
78.60732971875;0.042142839583334535;63;0.625;violin
78.69304396874999;0.042142839583334535;60;0.625;violin
78.77875821875;0.042142839583334535;62;0.625;violin
78.86447246875;0.042142839583334535;82;0.625;violin
78.95018671874999;0.042142839583334535;77;0.625;violin
79.03590096875;0.042142839583334535;74;0.625;violin
79.12161521875;0.042142839583334535;72;0.625;violin
79.20732946874999;0.042142839583334535;81;0.625;violin
79.29304371875;0.042142839583334535;78;0.625;violin
79.37875796875;0.042142839583334535;72;0.625;violin
79.46447221874999;0.042142839583334535;70;0.625;violin
79.55018646875;0.042142839583334535;79;0.625;violin
79.63590071875;0.042142839583334535;74;0.625;violin
79.72161496874999;0.042142839583334535;70;0.625;violin
79.80732921875;0.042142839583334535;69;0.625;violin
79.89304346875;0.042142839583334535;78;0.625;violin
79.97875771874999;0.042142839583334535;72;0.625;violin
80.06447196875;0.042142839583334535;69;0.625;violin
80.15018621875;0.042142839583334535;70;0.625;violin
80.23590046875;0.042142839583320324;79;0.625;violin
80.32161471875;0.042142839583334535;74;0.625;violin
80.40732896875;0.042142839583334535;70;0.625;violin
80.49304321875;0.042142839583320324;68;0.625;violin
80.57875746875;0.042142839583334535;77;0.625;violin
80.66447171875;0.042142839583334535;74;0.625;violin
80.75018596875;0.042142839583320324;68;0.625;violin
80.83590021875;0.042142839583334535;67;0.625;violin
80.92161446875;0.042142839583334535;75;0.625;violin
81.00732871875;0.042142839583320324;70;0.625;violin
81.09304296875;0.042142839583334535;67;0.625;violin
81.17875721875;0.042142839583334535;65;0.625;violin
81.26447146875;0.042142839583320324;74;0.625;violin
81.35018571875;0.042142839583334535;68;0.625;violin
81.43589996875;0.042142839583334535;65;0.625;violin
81.52161421875;0.042142839583320324;67;0.625;violin
81.60732846875;0.042142839583334535;87;0.625;violin
81.69304271875;0.042142839583334535;82;0.625;violin
81.77875696875;0.042142839583320324;79;0.625;violin
81.86447121875;0.042142839583334535;77;0.625;violin
81.95018546874999;0.042142839583334535;86;0.625;violin
82.03589971875;0.042142839583320324;83;0.625;violin
82.12161396875;0.042142839583334535;77;0.625;violin
82.20732821874999;0.042142839583334535;75;0.625;violin
82.29304246875;0.042142839583320324;84;0.625;violin
82.37875671875;0.042142839583334535;79;0.625;violin
82.46447096874999;0.042142839583334535;75;0.625;violin
82.55018521875;0.042142839583320324;74;0.625;violin
82.63589946875;0.042142839583334535;83;0.625;violin
82.72161371874999;0.042142839583334535;77;0.625;violin
82.80732796875;0.042142839583320324;74;0.625;violin
82.89304221875;0.042142839583334535;72;0.625;violin
82.97875646874999;0.042142839583334535;84;0.625;violin
83.06447071875;0.042142839583334535;83;0.625;violin
83.15018496875;0.042142839583334535;82;0.625;violin
83.23589921874999;0.042142839583334535;81;0.625;violin
83.32161346875;0.042142839583334535;80;0.625;violin
83.40732771875;0.042142839583334535;79;0.625;violin
83.49304196874999;0.042142839583334535;78;0.625;violin
83.57875621875;0.042142839583334535;77;0.625;violin
83.66447046875;0.042142839583334535;76;0.625;violin
83.75018471874999;0.042142839583334535;75;0.625;violin
83.83589896875;0.042142839583334535;74;0.625;violin
83.92161321875;0.042142839583334535;73;0.625;violin
84.00732746874999;0.042142839583334535;72;0.625;violin
84.09304171875;0.042142839583334535;71;0.625;violin
84.17875596875;0.042142839583334535;70;0.625;violin
84.26447021874999;0.042142839583334535;69;0.625;violin
84.35018446875;0.042142839583334535;68;0.625;violin
84.43589871875;0.042142839583334535;67;0.625;violin
84.52161296874999;0.042142839583334535;66;0.625;violin
84.60732721875;0.042142839583334535;65;0.625;violin
84.69304146875;0.042142839583334535;64;0.625;violin
84.77875571874999;0.042142839583334535;63;0.625;violin
84.86446996875;0.042142839583334535;62;0.625;violin
84.95018421875;0.042142839583334535;60;0.625;violin
85.03589846874999;0.042142839583334535;63;0.625;violin
85.12161271875;0.042142839583334535;68;0.625;violin
85.20732696875;0.042142839583334535;67;0.625;violin
85.29304121874999;0.042142839583334535;59;0.625;violin
85.37875546875;0.042142839583334535;67;0.625;violin
85.46446971875;0.042142839583334535;65;0.625;violin
85.55018396874999;0.042142839583334535;62;0.625;violin
85.63589821875;0.042142839583334535;60;0.625;violin
85.72161246875;0.042142839583334535;80;0.625;violin
85.80732671874999;0.042142839583334535;79;0.625;violin
85.89304096875;0.042142839583334535;78;0.625;violin
85.97875521875;0.042142839583334535;77;0.625;violin
86.06446946874999;0.042142839583334535;76;0.625;violin
86.15018371875;0.042142839583334535;75;0.625;violin
86.23589796875;0.042142839583334535;74;0.625;violin
86.32161221874999;0.042142839583334535;73;0.625;violin
86.40732646875;0.042142839583334535;72;0.625;violin
86.49304071875;0.042142839583334535;71;0.625;violin
86.57875496874999;0.042142839583334535;70;0.625;violin
86.66446921875;0.042142839583334535;69;0.625;violin
86.75018346875;0.042142839583334535;68;0.625;violin
86.83589771874999;0.042142839583334535;67;0.625;violin
86.92161196875;0.042142839583334535;66;0.625;violin
87.00732621875;0.042142839583334535;65;0.625;violin
87.09304046874999;0.042142839583334535;64;0.625;violin
87.17875471875;0.042142839583334535;63;0.625;violin
87.26446896875;0.042142839583334535;62;0.625;violin
87.35018321874999;0.042142839583334535;61;0.625;violin
87.43589746875;0.042142839583334535;60;0.625;violin
87.52161171875;0.042142839583334535;59;0.625;violin
87.60732596874999;0.042142839583334535;58;0.625;violin
87.69304021875;0.042142839583334535;56;0.625;violin
87.77875446875;0.042142839583334535;60;0.625;violin
87.86446871874999;0.042142839583334535;65;0.625;violin
87.95018296875;0.042142839583334535;63;0.625;violin
88.03589721875;0.042142839583334535;55;0.625;violin
88.12161146875;0.042142839583334535;63;0.625;violin
88.20732571875;0.042142839583334535;61;0.625;violin
88.29303996875;0.042142839583334535;58;0.625;violin
88.37875421875;0.042142839583334535;56;0.625;violin
88.46446846875;0.042142839583334535;68;0.625;violin
88.55018271875;0.042142839583334535;63;0.625;violin
88.63589696875;0.042142839583334535;60;0.625;violin
88.72161121875;0.042142839583334535;57;0.625;violin
88.80732546875;0.042142839583334535;66;0.625;violin
88.89303971875;0.042142839583334535;63;0.625;violin
88.97875396875;0.042142839583334535;60;0.625;violin
89.06446821875;0.042142839583334535;58;0.625;violin
89.15018246875;0.042142839583334535;70;0.625;violin
89.23589671875;0.042142839583334535;65;0.625;violin
89.32161096875;0.042142839583334535;61;0.625;violin
89.40732521875;0.042142839583334535;59;0.625;violin
89.49303946875;0.042142839583334535;68;0.625;violin
89.57875371875;0.042142839583334535;65;0.625;violin
89.66446796875;0.042142839583334535;62;0.625;violin
89.75018221875;0.042142839583334535;60;0.625;violin
89.83589646875;0.042142839583334535;72;0.625;violin
89.92161071875;0.042142839583334535;67;0.625;violin
90.00732496875;0.042142839583334535;63;0.625;violin
90.09303921875;0.042142839583334535;61;0.625;violin
90.17875346875;0.042142839583334535;70;0.625;violin
90.26446771875;0.042142839583334535;67;0.625;violin
90.35018196875;0.042142839583334535;61;0.625;violin
90.43589621875;0.042142839583334535;58;0.625;violin
90.52161046875;0.042142839583334535;67;0.625;violin
90.60732471875;0.042142839583334535;64;0.625;violin
90.69303896875;0.042142839583334535;72;0.625;violin
90.77875321875;0.042142839583334535;67;0.625;violin
90.86446746875;0.042142839583334535;76;0.625;violin
90.95018171875;0.042142839583334535;72;0.625;violin
91.03589596875;0.042142839583334535;82;0.625;violin
91.12161021874999;0.042142839583334535;80;0.625;violin
91.20732446875;0.042142839583334535;77;0.625;violin
91.29303871875;0.042142839583334535;72;0.625;violin
91.37875296874999;0.042142839583334535;68;0.625;violin
91.46446721875;0.042142839583334535;64;0.625;violin
91.55018146875;0.042142839583334535;65;0.625;violin
91.63589571874999;0.042142839583334535;68;0.625;violin
91.72160996875;0.042142839583334535;65;0.625;violin
91.80732421875;0.042142839583334535;63;0.625;violin
91.89303846874999;0.042142839583334535;61;0.625;violin
91.97875271875;0.042142839583334535;60;0.625;violin
92.06446696875;0.042142839583334535;58;0.625;violin
92.15018121874999;0.042142839583334535;69;0.625;violin
92.23589546875;0.042142839583334535;70;0.625;violin
92.32160971875;0.042142839583334535;73;0.625;violin
92.40732396874999;0.042142839583334535;70;0.625;violin
92.49303821875;0.042142839583334535;68;0.625;violin
92.57875246875;0.042142839583334535;67;0.625;violin
92.66446671874999;0.042142839583334535;65;0.625;violin
92.75018096875;0.042142839583334535;63;0.625;violin
92.83589521875;0.042142839583334535;74;0.625;violin
92.92160946874999;0.042142839583334535;75;0.625;violin
93.00732371875;0.042142839583334535;79;0.625;violin
93.09303796875;0.042142839583334535;75;0.625;violin
93.17875221874999;0.042142839583334535;80;0.625;violin
93.26446646875;0.042142839583334535;75;0.625;violin
93.35018071875;0.042142839583334535;72;0.625;violin
93.43589496874999;0.042142839583334535;68;0.625;violin
93.52160921875;0.042142839583334535;67;0.625;violin
93.60732346875;0.042142839583334535;68;0.625;violin
93.69303771875;0.042142839583320324;66;0.625;violin
93.77875196875;0.042142839583334535;63;0.625;violin
93.86446621875;0.042142839583334535;61;0.625;violin
93.95018046875;0.042142839583320324;65;0.625;violin
94.03589471875;0.042142839583334535;68;0.625;violin
94.12160896875;0.042142839583334535;65;0.625;violin
94.20732321875;0.042142839583320324;63;0.625;violin
94.29303746875;0.042142839583334535;66;0.625;violin
94.37875171875;0.042142839583334535;68;0.625;violin
94.46446596875;0.042142839583320324;66;0.625;violin
94.55018021875;0.042142839583334535;65;0.625;violin
94.63589446875;0.042142839583334535;73;0.625;violin
94.72160871875;0.042142839583320324;72;0.625;violin
94.80732296875;0.042142839583334535;70;0.625;violin
94.89303721875;0.042142839583334535;68;0.625;violin
94.97875146875;0.042142839583320324;66;0.625;violin
95.06446571875;0.042142839583334535;65;0.625;violin
95.15017996875;0.042142839583334535;63;0.625;violin
95.23589421875;0.042142839583320324;61;0.625;violin
95.32160846875;0.042142839583334535;65;0.625;violin
95.40732271875;0.042142839583334535;68;0.625;violin
95.49303696875;0.042142839583320324;65;0.625;violin
95.57875121875;0.042142839583334535;61;0.625;violin
95.66446546875;0.042142839583334535;68;0.625;violin
95.75017971875;0.042142839583320324;71;0.625;violin
95.83589396875;0.042142839583334535;68;0.625;violin
95.92160821875;0.042142839583334535;62;0.625;violin
96.00732246875;0.042142839583320324;68;0.625;violin
96.09303671875;0.042142839583334535;71;0.625;violin
96.17875096875;0.042142839583334535;68;0.625;violin
96.26446521875;0.042142839583320324;63;0.625;violin
96.35017946875;0.042142839583334535;66;0.625;violin
96.43589371875;0.042142839583334535;70;0.625;violin
96.52160796875;0.042142839583334535;66;0.625;violin
96.60732221875;0.042142839583334535;63;0.625;violin
96.69303646875;0.042142839583334535;67;0.625;violin
96.77875071875;0.042142839583334535;70;0.625;violin
96.86446496875;0.042142839583334535;67;0.625;violin
96.95017921875;0.042142839583334535;65;0.625;violin
97.03589346875;0.042142839583334535;68;0.625;violin
97.12160771875;0.042142839583334535;70;0.625;violin
97.20732196875;0.042142839583334535;68;0.625;violin
97.29303621875;0.042142839583334535;67;0.625;violin
97.37875046875;0.042142839583334535;75;0.625;violin
97.46446471875;0.042142839583334535;74;0.625;violin
97.55017896875;0.042142839583334535;72;0.625;violin
97.63589321875;0.042142839583334535;70;0.625;violin
97.72160746875;0.042142839583334535;68;0.625;violin
97.80732171875;0.042142839583334535;67;0.625;violin
97.89303596875;0.042142839583334535;65;0.625;violin
97.97875021875;0.042142839583334535;63;0.625;violin
98.06446446875;0.042142839583334535;67;0.625;violin
98.15017871875;0.042142839583334535;70;0.625;violin
98.23589296875;0.042142839583334535;67;0.625;violin
98.32160721875;0.042142839583334535;63;0.625;violin
98.40732146875;0.042142839583334535;70;0.625;violin
98.49303571875;0.042142839583334535;73;0.625;violin
98.57874996875;0.042142839583334535;70;0.625;violin
98.66446421875;0.042142839583334535;64;0.625;violin
98.75017846875;0.042142839583334535;70;0.625;violin
98.83589271875;0.042142839583334535;73;0.625;violin
98.92160696875;0.042142839583334535;70;0.625;violin
99.00732121875;0.042142839583334535;65;0.625;violin
99.09303546875;0.042142839583334535;68;0.625;violin
99.17874971875;0.042142839583334535;72;0.625;violin
99.26446396875;0.042142839583334535;68;0.625;violin
99.35017821875;0.042142839583334535;66;0.625;violin
99.43589246875;0.042142839583334535;75;0.625;violin
99.52160671875;0.042142839583334535;72;0.625;violin
99.60732096875;0.042142839583334535;66;0.625;violin
99.69303521875;0.042142839583334535;65;0.625;violin
99.77874946875;0.042142839583334535;77;0.625;violin
99.86446371875;0.042142839583334535;73;0.625;violin
99.95017796875;0.042142839583334535;70;0.625;violin
100.03589221874999;0.042142839583334535;68;0.625;violin
100.12160646875;0.042142839583334535;77;0.625;violin
100.20732071875;0.042142839583334535;74;0.625;violin
100.29303496874999;0.042142839583334535;68;0.625;violin
100.37874921875;0.042142839583334535;66;0.625;violin
100.46446346875;0.042142839583334535;78;0.625;violin
100.55017771874999;0.042142839583334535;75;0.625;violin
100.63589196875;0.042142839583334535;70;0.625;violin
100.72160621875;0.042142839583334535;66;0.625;violin
100.80732046874999;0.042142839583334535;76;0.625;violin
100.89303471875;0.042142839583334535;73;0.625;violin
100.97874896875;0.042142839583334535;70;0.625;violin
101.06446321874999;0.042142839583334535;66;0.625;violin
101.15017746875;0.042142839583334535;64;0.625;violin
101.23589171875;0.042142839583334535;61;0.625;violin
101.32160596874999;0.042142839583334535;58;0.625;violin
101.40732021875;0.042142839583334535;59;0.625;violin
101.49303446875;0.042142839583334535;63;0.625;violin
101.57874871874999;0.042142839583334535;66;0.625;violin
101.66446296875;0.042142839583334535;71;0.625;violin
101.75017721875;0.042142839583334535;75;0.625;violin
101.83589146874999;0.042142839583334535;78;0.625;violin
101.92160571875;0.042142839583334535;83;0.625;violin
102.00731996875;0.042142839583334535;87;0.625;violin
102.09303421874999;0.042142839583334535;63;0.625;violin
102.17874846875;0.042142839583334535;73;0.625;violin
102.26446271875;0.042142839583334535;70;0.625;violin
102.35017696874999;0.042142839583334535;67;0.625;violin
102.43589121875;0.042142839583334535;63;0.625;violin
102.52160546875;0.042142839583334535;61;0.625;violin
102.60731971874999;0.042142839583334535;58;0.625;violin
102.69303396875;0.042142839583334535;55;0.625;violin
102.77874821875;0.042142839583334535;56;0.625;violin
102.86446246874999;0.042142839583334535;59;0.625;violin
102.95017671875;0.042142839583334535;63;0.625;violin
103.03589096875;0.042142839583334535;68;0.625;violin
103.12160521874999;0.042142839583334535;71;0.625;violin
103.20731946875;0.042142839583334535;75;0.625;violin
103.29303371875;0.042142839583334535;80;0.625;violin
103.37874796874999;0.042142839583334535;83;0.625;violin
103.46446221875;0.042142839583334535;64;0.625;violin
103.55017646875;0.042142839583334535;68;0.625;violin
103.63589071874999;0.042142839583334535;71;0.625;violin
103.72160496875;0.042142839583334535;68;0.625;violin
103.80731921875;0.042142839583334535;66;0.625;violin
103.89303346874999;0.042142839583334535;69;0.625;violin
103.97874771875;0.042142839583334535;71;0.625;violin
104.06446196875;0.042142839583334535;69;0.625;violin
104.15017621874999;0.042142839583334535;68;0.625;violin
104.23589046875;0.042142839583334535;71;0.625;violin
104.32160471875;0.042142839583334535;76;0.625;violin
104.40731896875;0.042142839583320324;71;0.625;violin
104.49303321875;0.042142839583334535;69;0.625;violin
104.57874746875;0.042142839583334535;72;0.625;violin
104.66446171875;0.042142839583320324;76;0.625;violin
104.75017596875;0.042142839583334535;72;0.625;violin
104.83589021875;0.042142839583334535;70;0.625;violin
104.92160446875;0.042142839583320324;73;0.625;violin
105.00731871875;0.042142839583334535;78;0.625;violin
105.09303296875;0.042142839583334535;73;0.625;violin
105.17874721875;0.042142839583320324;71;0.625;violin
105.26446146875;0.042142839583334535;75;0.625;violin
105.35017571875;0.042142839583334535;78;0.625;violin
105.43588996875;0.042142839583320324;75;0.625;violin
105.52160421875;0.042142839583334535;72;0.625;violin
105.60731846875;0.042142839583334535;75;0.625;violin
105.69303271875;0.042142839583320324;80;0.625;violin
105.77874696875;0.042142839583334535;75;0.625;violin
105.86446121875;0.042142839583334535;73;0.625;violin
105.95017546875;0.042142839583320324;76;0.625;violin
106.03588971875;0.042142839583334535;82;0.625;violin
106.12160396875;0.042142839583334535;76;0.625;violin
106.20731821875;0.042142839583320324;75;0.625;violin
106.29303246875;0.042142839583334535;78;0.625;violin
106.37874671875;0.042142839583334535;83;0.625;violin
106.46446096875;0.042142839583320324;78;0.625;violin
106.55017521875;0.042142839583334535;76;0.625;violin
106.63588946875;0.042142839583334535;80;0.625;violin
106.72160371875;0.042142839583320324;83;0.625;violin
106.80731796875;0.042142839583334535;80;0.625;violin
106.89303221875;0.042142839583334535;76;0.625;violin
106.97874646875;0.042142839583320324;79;0.625;violin
107.06446071875;0.042142839583334535;82;0.625;violin
107.15017496875;0.042142839583334535;79;0.625;violin
107.23588921875;0.042142839583334535;75;0.625;violin
107.32160346875;0.042142839583334535;78;0.625;violin
107.40731771875;0.042142839583334535;83;0.625;violin
107.49303196875;0.042142839583334535;78;0.625;violin
107.57874621875;0.042142839583334535;74;0.625;violin
107.66446046875;0.042142839583334535;77;0.625;violin
107.75017471875;0.042142839583334535;80;0.625;violin
107.83588896875;0.042142839583334535;77;0.625;violin
107.92160321875;0.042142839583334535;73;0.625;violin
108.00731746875;0.042142839583334535;76;0.625;violin
108.09303171875;0.042142839583334535;81;0.625;violin
108.17874596875;0.042142839583334535;76;0.625;violin
108.26446021875;0.042142839583334535;72;0.625;violin
108.35017446875;0.042142839583334535;75;0.625;violin
108.43588871875;0.042142839583334535;78;0.625;violin
108.52160296875;0.042142839583334535;75;0.625;violin
108.60731721875;0.042142839583334535;71;0.625;violin
108.69303146875;0.042142839583334535;74;0.625;violin
108.77874571875;0.042142839583334535;79;0.625;violin
108.86445996875;0.042142839583334535;74;0.625;violin
108.95017421874999;0.042142839583334535;70;0.625;violin
109.03588846875;0.042142839583334535;73;0.625;violin
109.12160271875;0.042142839583334535;76;0.625;violin
109.20731696874999;0.042142839583334535;73;0.625;violin
109.29303121875;0.042142839583334535;69;0.625;violin
109.37874546875;0.042142839583334535;72;0.625;violin
109.46445971874999;0.042142839583334535;77;0.625;violin
109.55017396875;0.042142839583334535;72;0.625;violin
109.63588821875;0.042142839583334535;69;0.625;violin
109.72160246874999;0.042142839583334535;72;0.625;violin
109.80731671875;0.042142839583334535;75;0.625;violin
109.89303096875;0.042142839583334535;72;0.625;violin
109.97874521874999;0.042142839583334535;68;0.625;violin
110.06445946875;0.042142839583334535;71;0.625;violin
110.15017371875;0.042142839583334535;76;0.625;violin
110.23588796874999;0.042142839583334535;71;0.625;violin
110.32160221875;0.042142839583334535;67;0.625;violin
110.40731646875;0.042142839583334535;70;0.625;violin
110.49303071874999;0.042142839583334535;73;0.625;violin
110.57874496875;0.042142839583334535;70;0.625;violin
110.66445921875;0.042142839583334535;66;0.625;violin
110.75017346874999;0.042142839583334535;69;0.625;violin
110.83588771875;0.042142839583334535;74;0.625;violin
110.92160196875;0.042142839583334535;69;0.625;violin
111.00731621874999;0.042142839583334535;65;0.625;violin
111.09303046875;0.042142839583334535;69;0.625;violin
111.17874471875;0.042142839583334535;74;0.625;violin
111.26445896874999;0.042142839583334535;69;0.625;violin
111.35017321875;0.042142839583334535;65;0.625;violin
111.43588746875;0.042142839583334535;69;0.625;violin
111.52160171874999;0.042142839583334535;75;0.625;violin
111.60731596875;0.042142839583334535;69;0.625;violin
111.69303021875;0.042142839583334535;64;0.625;violin
111.77874446874999;0.042142839583334535;68;0.625;violin
111.86445871875;0.042142839583334535;71;0.625;violin
111.95017296875;0.042142839583334535;76;0.625;violin
112.03588721874999;0.042142839583334535;80;0.625;violin
112.12160146875;0.042142839583334535;83;0.625;violin
112.20731571875;0.042142839583334535;88;0.625;violin
112.29302996874999;0.042142839583334535;92;0.625;violin
112.37874421875;0.042142839583334535;77;0.625;violin
112.46445846875;0.042142839583334535;81;0.625;violin
112.55017271874999;0.042142839583334535;86;0.625;violin
112.63588696875;0.042142839583334535;81;0.625;violin
112.72160121875;0.042142839583334535;77;0.625;violin
112.80731546874999;0.042142839583334535;81;0.625;violin
112.89302971875;0.042142839583334535;87;0.625;violin
112.97874396875;0.042142839583334535;81;0.625;violin
113.06445821874999;0.042142839583334535;76;0.625;violin
113.15017246875;0.042142839583334535;80;0.625;violin
113.23588671875;0.042142839583334535;83;0.625;violin
113.32160096874999;0.042142839583334535;88;0.625;violin
113.40731521875;0.042142839583334535;92;0.625;violin
113.49302946875;0.042142839583334535;95;0.625;violin
113.57874371874999;0.042142839583334535;100;0.625;violin
113.66445796875;0.042142839583334535;104;0.625;violin
113.75017221875;0.042142839583334535;81;0.625;violin
113.83588646874999;0.042142839583334535;84;0.625;violin
113.92160071875;0.042142839583334535;88;0.625;violin
114.00731496875;0.042142839583334535;84;0.625;violin
114.09302921874999;0.042142839583334535;83;0.625;violin
114.17874346875;0.042142839583334535;86;0.625;violin
114.26445771875;0.042142839583334535;88;0.625;violin
114.35017196874999;0.042142839583334535;86;0.625;violin
114.43588621875;0.042142839583334535;84;0.625;violin
114.52160046875;0.042142839583334535;93;0.625;violin
114.60731471874999;0.042142839583334535;91;0.625;violin
114.69302896875;0.042142839583334535;89;0.625;violin
114.77874321875;0.042142839583334535;88;0.625;violin
114.86445746874999;0.042142839583334535;86;0.625;violin
114.95017171875;0.042142839583334535;84;0.625;violin
115.03588596875;0.042142839583334535;83;0.625;violin
115.12160021875;0.042142839583320324;81;0.625;violin
115.20731446875;0.042142839583334535;84;0.625;violin
115.29302871875;0.042142839583334535;88;0.625;violin
115.37874296875;0.042142839583320324;84;0.625;violin
115.46445721875;0.042142839583334535;83;0.625;violin
115.55017146875;0.042142839583334535;86;0.625;violin
115.63588571875;0.042142839583320324;88;0.625;violin
115.72159996875;0.042142839583334535;86;0.625;violin
115.80731421875;0.042142839583334535;84;0.625;violin
115.89302846875;0.042142839583320324;93;0.625;violin
115.97874271875;0.042142839583334535;91;0.625;violin
116.06445696875;0.042142839583334535;89;0.625;violin
116.15017121875;0.042142839583320324;88;0.625;violin
116.23588546875;0.042142839583334535;86;0.625;violin
116.32159971875;0.042142839583334535;85;0.625;violin
116.40731396875;0.042142839583320324;81;0.625;violin
116.49302821875;0.042142839583334535;86;0.625;violin
116.57874246875;0.042142839583334535;91;0.625;violin
116.66445671875;0.042142839583320324;89;0.625;violin
116.75017096875;0.042142839583334535;88;0.625;violin
116.83588521875;0.042142839583334535;86;0.625;violin
116.92159946875;0.042142839583320324;84;0.625;violin
117.00731371875;0.042142839583334535;83;0.625;violin
117.09302796875;0.042142839583334535;79;0.625;violin
117.17874221875;0.042142839583320324;84;0.625;violin
117.26445646875;0.042142839583334535;89;0.625;violin
117.35017071875;0.042142839583334535;88;0.625;violin
117.43588496875;0.042142839583320324;86;0.625;violin
117.52159921875;0.042142839583334535;84;0.625;violin
117.60731346875;0.042142839583334535;83;0.625;violin
117.69302771875;0.042142839583320324;81;0.625;violin
117.77874196875;0.042142839583334535;77;0.625;violin
117.86445621875;0.042142839583334535;83;0.625;violin
117.95017046875;0.042142839583334535;88;0.625;violin
118.03588471875;0.042142839583334535;86;0.625;violin
118.12159896874999;0.042142839583334535;84;0.625;violin
118.20731321875;0.042142839583334535;83;0.625;violin
118.29302746875;0.042142839583334535;81;0.625;violin
118.37874171874999;0.042142839583334535;80;0.625;violin
118.46445596875;0.042142839583334535;76;0.625;violin
118.55017021875;0.042142839583334535;81;0.625;violin
118.63588446874999;0.042142839583334535;86;0.625;violin
118.72159871875;0.042142839583334535;84;0.625;violin
118.80731296875;0.042142839583334535;83;0.625;violin
118.89302721874999;0.042142839583334535;81;0.625;violin
118.97874146875;0.042142839583334535;79;0.625;violin
119.06445571875;0.042142839583334535;77;0.625;violin
119.15016996874999;0.042142839583334535;76;0.625;violin
119.23588421875;0.042142839583334535;75;0.625;violin
119.32159846875;0.042142839583334535;84;0.625;violin
119.40731271874999;0.042142839583334535;81;0.625;violin
119.49302696875;0.042142839583334535;78;0.625;violin
119.57874121875;0.042142839583334535;75;0.625;violin
119.66445546874999;0.042142839583334535;72;0.625;violin
119.75016971875;0.042142839583334535;69;0.625;violin
119.83588396875;0.042142839583334535;63;0.625;violin
119.92159821874999;0.042142839583334535;84;0.625;violin
120.00731246875;0.042142839583334535;81;0.625;violin
120.09302671875;0.042142839583334535;76;0.625;violin
120.17874096874999;0.042142839583334535;72;0.625;violin
120.26445521875;0.042142839583334535;69;0.625;violin
120.35016946875;0.042142839583334535;64;0.625;violin
120.43588371874999;0.042142839583334535;60;0.625;violin
120.52159796875;0.042142839583334535;57;0.625;violin
120.60731221875;0.042142839583334535;83;0.625;violin
120.69302646874999;0.042142839583334535;80;0.625;violin
120.77874071875;0.042142839583334535;74;0.625;violin
120.86445496875;0.042142839583334535;71;0.625;violin
120.95016921874999;0.042142839583334535;68;0.625;violin
121.03588346875;0.042142839583334535;62;0.625;violin
121.12159771875;0.042142839583334535;59;0.625;violin
121.20731196874999;0.042142839583334535;56;0.625;violin
121.29302621875;0.042142839583334535;57;0.625;violin
121.37874046875;0.042142839583334535;81;0.625;violin
121.46445471874999;0.042142839583334535;80;0.625;violin
121.55016896875;0.042142839583334535;79;0.625;violin
121.63588321875;0.042142839583334535;78;0.625;violin
121.72159746874999;0.042142839583334535;77;0.625;violin
121.80731171875;0.042142839583334535;76;0.625;violin
121.89302596875;0.042142839583334535;75;0.625;violin
121.97874021874999;0.042142839583334535;74;0.625;violin
122.06445446875;0.042142839583334535;73;0.625;violin
122.15016871875;0.042142839583334535;72;0.625;violin
122.23588296874999;0.042142839583334535;71;0.625;violin
122.32159721875;0.042142839583334535;70;0.625;violin
122.40731146875;0.042142839583334535;69;0.625;violin
122.49302571874999;0.042142839583334535;68;0.625;violin
122.57873996875;0.042142839583334535;67;0.625;violin
122.66445421875;0.042142839583334535;66;0.625;violin
122.75016846874999;0.042142839583334535;65;0.625;violin
122.83588271875;0.042142839583334535;64;0.625;violin
122.92159696875;0.042142839583334535;63;0.625;violin
123.00731121874999;0.042142839583334535;62;0.625;violin
123.09302546875;0.042142839583334535;61;0.625;violin
123.17873971875;0.042142839583334535;60;0.625;violin
123.26445396874999;0.042142839583334535;59;0.625;violin
123.35016821875;0.042142839583334535;57;0.625;violin
123.43588246875;0.042142839583334535;60;0.625;violin
123.52159671874999;0.042142839583334535;65;0.625;violin
123.60731096875;0.042142839583334535;64;0.625;violin
123.69302521875;0.042142839583334535;56;0.625;violin
123.77873946874999;0.042142839583334535;64;0.625;violin
123.86445371875;0.042142839583334535;62;0.625;violin
123.95016796875;0.042142839583334535;59;0.625;violin
124.03588221874999;0.042142839583334535;57;0.625;violin
124.12159646875;0.042142839583334535;60;0.625;violin
124.20731071875;0.042142839583334535;59;0.625;violin
124.29302496874999;0.042142839583334535;62;0.625;violin
124.37873921875;0.042142839583334535;60;0.625;violin
124.46445346875;0.042142839583334535;64;0.625;violin
124.55016771874999;0.042142839583334535;56;0.625;violin
124.63588196875;0.042142839583334535;59;0.625;violin
124.72159621875;0.042142839583334535;57;0.625;violin
124.80731046874999;0.042142839583334535;60;0.625;violin
124.89302471875;0.042142839583334535;59;0.625;violin
124.97873896875;0.042142839583334535;62;0.625;violin
125.06445321874999;0.042142839583334535;60;0.625;violin
125.15016746875;0.042142839583334535;64;0.625;violin
125.23588171875;0.042142839583334535;56;0.625;violin
125.32159596874999;0.042142839583334535;59;0.625;violin
125.40731021875;0.042142839583334535;57;0.625;violin
125.49302446875;0.042142839583334535;60;0.625;violin
125.57873871874999;0.042142839583334535;59;0.625;violin
125.66445296875;0.042142839583334535;62;0.625;violin
125.75016721875;0.042142839583334535;60;0.625;violin
125.83588146875;0.042142839583320324;64;0.625;violin
125.92159571875;0.042142839583334535;56;0.625;violin
126.00730996875;0.042142839583334535;59;0.625;violin
126.09302421875;0.042142839583320324;57;0.625;violin
126.17873846875;0.042142839583334535;60;0.625;violin
126.26445271875;0.042142839583334535;59;0.625;violin
126.35016696875;0.042142839583320324;62;0.625;violin
126.43588121875;0.042142839583334535;60;0.625;violin
126.52159546875;0.042142839583334535;64;0.625;violin
126.60730971875;0.042142839583320324;56;0.625;violin
126.69302396875;0.042142839583334535;59;0.625;violin
126.77873821875;1.0886382687500031;57;0.625;violin
127.86851285416667;0.06704563333332203;61;0.625;violin
127.93669485416666;0.06704563333332203;64;0.625;violin
128.00487685416667;0.06704563333332203;69;0.625;violin
128.07305885416667;0.06704563333332203;73;0.625;violin
128.14124085416665;0.06704563333335045;76;0.625;violin
128.20942285416666;0.06704563333332203;81;0.625;violin
128.27760485416667;0.06704563333332203;85;0.625;violin
128.34578685416668;0.06704563333332203;88;0.625;violin
128.41396885416665;1.0886382687500031;93;0.625;violin
129.50374348958331;0.05340923333335468;92;0.625;violin
129.55828908958333;0.053409233333326256;90;0.625;violin
129.61283468958334;0.053409233333326256;88;0.625;violin
129.66738028958332;0.053409233333326256;86;0.625;violin
129.72192588958333;0.053409233333326256;85;0.625;violin
129.77647148958332;0.05340923333335468;83;0.625;violin
129.83101708958333;0.053409233333326256;81;0.625;violin
129.88556268958334;0.053409233333326256;80;0.625;violin
129.94010828958332;0.053409233333326256;78;0.625;violin
129.99465388958333;0.053409233333326256;76;0.625;violin
130.04919948958332;0.05340923333335468;74;0.625;violin
130.10374508958333;0.053409233333326256;73;0.625;violin
130.1582906895833;0.05340923333335468;71;0.625;violin
130.21283628958332;0.053409233333326256;69;0.625;violin
130.26738188958333;0.053409233333326256;68;0.625;violin
130.32192748958332;0.05340923333335468;66;0.625;violin
130.37647308958333;0.053409233333326256;64;0.625;violin
130.4310186895833;0.05340923333335468;62;0.625;violin
130.48556428958332;0.053409233333326256;61;0.625;violin
130.54010988958333;0.053409233333326256;59;0.625;violin
130.59465548958332;1.0886382687500031;57;0.625;violin
131.68443012499998;0.0590910666666673;61;0.625;violin
131.74465755833333;0.0590910666666673;64;0.625;violin
131.8060213583333;0.0590910666666673;69;0.625;violin
131.86624879166666;0.0590910666666673;73;0.625;violin
131.926476225;0.0590910666666673;76;0.625;violin
131.987840025;0.0590910666666673;81;0.625;violin
132.04806745833332;0.0590910666666673;85;0.625;violin
132.10829489166665;0.0590910666666673;88;0.625;violin
132.16965869166665;0.0590910666666673;93;0.625;violin
132.22988612499998;1.0886382687500031;97;0.625;violin
133.31966076041664;0.04886376666667047;95;0.625;violin
133.36966089375;0.04886376666664205;93;0.625;violin
133.41852466041664;0.04886376666667047;92;0.625;violin
133.46852479375;0.04886376666667047;90;0.625;violin
133.51852492708332;0.04886376666667047;88;0.625;violin
133.56738869375;0.04886376666667047;86;0.625;violin
133.61738882708332;0.04886376666667047;85;0.625;violin
133.66625259375;0.04886376666667047;83;0.625;violin
133.71625272708332;0.04886376666667047;81;0.625;violin
133.76625286041664;0.04886376666667047;80;0.625;violin
133.8151166270833;0.04886376666667047;78;0.625;violin
133.86511676041664;0.04886376666667047;76;0.625;violin
133.91511689375;0.04886376666664205;74;0.625;violin
133.96398066041664;0.04886376666667047;73;0.625;violin
134.01398079375;0.04886376666664205;71;0.625;violin
134.06398092708332;0.04886376666667047;69;0.625;violin
134.11284469375;0.04886376666667047;68;0.625;violin
134.16284482708332;0.04886376666667047;66;0.625;violin
134.21170859375;0.04886376666667047;64;0.625;violin
134.26170872708332;0.04886376666667047;62;0.625;violin
134.31170886041664;0.04886376666667047;61;0.625;violin
134.36057262708331;0.04886376666667047;59;0.625;violin
134.41057276041664;1.0886382687500031;57;0.625;violin
135.5003473958333;0.05340923333335468;61;0.625;violin
135.5548929958333;0.053409233333326256;64;0.625;violin
135.60943859583332;0.053409233333326256;69;0.625;violin
135.6639841958333;0.053409233333326256;73;0.625;violin
135.71852979583332;0.053409233333326256;76;0.625;violin
135.7730753958333;0.05340923333335468;81;0.625;violin
135.8276209958333;0.053409233333326256;85;0.625;violin
135.88216659583333;0.053409233333326256;88;0.625;violin
135.9367121958333;0.053409233333326256;93;0.625;violin
135.99125779583332;0.053409233333326256;97;0.625;violin
136.0458033958333;1.0886382687500031;100;0.625;violin
137.13557803124996;0.06704563333335045;98;0.625;violin
137.20376003124997;0.06704563333332203;97;0.625;violin
137.27194203124998;0.06704563333332203;95;0.625;violin
137.34012403124999;0.06704563333332203;93;0.625;violin
137.40830603124996;0.06704563333335045;92;0.625;violin
137.47648803124997;0.06704563333332203;90;0.625;violin
137.54467003124998;0.06704563333332203;88;0.625;violin
137.61285203125;0.06704563333332203;86;0.625;violin
137.68103403124996;0.06704563333335045;85;0.625;violin
137.74921603124997;0.06704563333332203;83;0.625;violin
137.81739803124998;0.06704563333332203;81;0.625;violin
137.88558003125;0.06704563333332203;80;0.625;violin
137.95376203124997;0.06704563333335045;78;0.625;violin
138.02194403124997;0.06704563333332203;76;0.625;violin
138.09012603124998;0.06704563333332203;74;0.625;violin
138.15830803125;0.06704563333332203;73;0.625;violin
138.22649003124997;0.06704563333335045;71;0.625;violin
138.29467203124997;0.06704563333332203;69;0.625;violin
138.36285403124998;0.06704563333332203;68;0.625;violin
138.43103603124996;0.06704563333335045;66;0.625;violin
138.49921803124997;0.06704563333335045;64;0.625;violin
138.56740003124997;0.06704563333332203;62;0.625;violin
138.63558203124998;0.06704563333332203;61;0.625;violin
138.70376403124996;0.06704563333335045;59;0.625;violin
138.77194603124997;1.0886382687500031;57;0.625;violin
139.86172066666663;0.04886376666667047;61;0.625;violin
139.91172079999998;0.04886376666664205;64;0.625;violin
139.96058456666663;0.04886376666667047;69;0.625;violin
140.01058469999998;0.04886376666667047;73;0.625;violin
140.0605848333333;0.04886376666667047;76;0.625;violin
140.10944859999998;0.04886376666667047;81;0.625;violin
140.1594487333333;0.04886376666667047;85;0.625;violin
140.20831249999998;0.04886376666667047;88;0.625;violin
140.2583126333333;0.04886376666667047;93;0.625;violin
140.30831276666663;0.04886376666667047;97;0.625;violin
140.3571765333333;0.04886376666667047;100;0.625;violin
140.40717666666663;1.0886382687500031;105;0.625;violin
141.4969513020833;0.0590910666666673;104;0.625;violin
141.55717873541664;0.0590910666666673;102;0.625;violin
141.61854253541662;0.0590910666666673;100;0.625;violin
141.67876996874998;0.0590910666666673;98;0.625;violin
141.7389974020833;0.0590910666666673;97;0.625;violin
141.8003612020833;0.0590910666666673;95;0.625;violin
141.86058863541663;0.0590910666666673;93;0.625;violin
141.92081606874996;0.0590910666666673;92;0.625;violin
141.98217986874997;0.0590910666666673;90;0.625;violin
142.0424073020833;0.0590910666666673;88;0.625;violin
142.10263473541664;0.0590910666666673;86;0.625;violin
142.16399853541662;0.0590910666666673;85;0.625;violin
142.22422596874998;0.0590910666666673;83;0.625;violin
142.2844534020833;0.0590910666666673;81;0.625;violin
142.3458172020833;0.0590910666666673;80;0.625;violin
142.40604463541663;0.0590910666666673;78;0.625;violin
142.46627206874996;0.0590910666666673;76;0.625;violin
142.52763586874997;0.0590910666666673;74;0.625;violin
142.5878633020833;0.0590910666666673;73;0.625;violin
142.64809073541664;0.0590910666666673;71;0.625;violin
142.70945453541663;0.0590910666666673;69;0.625;violin
142.76968196874998;0.0590910666666673;68;0.625;violin
142.8299094020833;0.0590910666666673;66;0.625;violin
142.8912732020833;0.0590910666666673;64;0.625;violin
142.95150063541664;0.0590910666666673;62;0.625;violin
143.01172806874996;0.0590910666666673;61;0.625;violin
143.07309186874997;0.0590910666666673;59;0.625;violin
143.1333193020833;0.2715916333333439;57;0.625;violin
143.4060473020833;0.06704563333335045;58;0.625;violin
143.4742293020833;0.06704563333332203;59;0.625;violin
143.5424113020833;0.06704563333332203;60;0.625;violin
143.6105933020833;0.06704563333335045;61;0.625;violin
143.6787753020833;0.06704563333335045;62;0.625;violin
143.7469573020833;0.06704563333332203;63;0.625;violin
143.8151393020833;0.06704563333332203;64;0.625;violin
143.8833213020833;0.06704563333335045;65;0.625;violin
143.9515033020833;0.06704563333335045;66;0.625;violin
144.0196853020833;0.06704563333332203;67;0.625;violin
144.0878673020833;0.06704563333332203;68;0.625;violin
144.1560493020833;0.06704563333335045;69;0.625;violin
144.2242313020833;0.06704563333332203;70;0.625;violin
144.2924133020833;0.06704563333332203;71;0.625;violin
144.3605953020833;0.06704563333332203;72;0.625;violin
144.4287773020833;0.06704563333335045;73;0.625;violin
144.4969593020833;0.06704563333332203;74;0.625;violin
144.5651413020833;0.06704563333332203;75;0.625;violin
144.6333233020833;0.06704563333332203;76;0.625;violin
144.7015053020833;0.06704563333335045;77;0.625;violin
144.7696873020833;0.06704563333332203;78;0.625;violin
144.8378693020833;0.06704563333332203;79;0.625;violin
144.9060513020833;0.06704563333332203;80;0.625;violin
144.9742333020833;0.06704563333335045;81;0.625;violin
145.0424153020833;0.06704563333332203;80;0.625;violin
145.1105973020833;0.06704563333332203;79;0.625;violin
145.17877930208329;0.06704563333335045;78;0.625;violin
145.2469613020833;0.06704563333335045;77;0.625;violin
145.3151433020833;0.06704563333332203;76;0.625;violin
145.3833253020833;0.06704563333332203;75;0.625;violin
145.4515073020833;0.06704563333335045;74;0.625;violin
145.5196893020833;0.06704563333335045;73;0.625;violin
145.5878713020833;0.06704563333332203;72;0.625;violin
145.6560533020833;0.06704563333332203;71;0.625;violin
145.7242353020833;0.06704563333335045;70;0.625;violin
145.7924173020833;0.06704563333335045;69;0.625;violin
145.8605993020833;0.06704563333332203;68;0.625;violin
145.9287813020833;0.06704563333332203;67;0.625;violin
145.9969633020833;0.06704563333335045;66;0.625;violin
146.0651453020833;0.06704563333335045;65;0.625;violin
146.1333273020833;0.06704563333332203;64;0.625;violin
146.2015093020833;0.06704563333332203;63;0.625;violin
146.2696913020833;0.06704563333335045;62;0.625;violin
146.3378733020833;0.06704563333335045;61;0.625;violin
146.4060553020833;0.06704563333332203;60;0.625;violin
146.4742373020833;0.06704563333332203;59;0.625;violin
146.5424193020833;0.06704563333335045;58;0.625;violin
146.6106013020833;0.5443196333333447;57;0.625;violin
147.1560573020833;0.4056826520833283;64;0.625;violin
147.1560573020833;0.4056826520833283;73;0.625;violin
147.1560573020833;0.4056826520833283;81;0.625;violin
