start;duration;pitch;velocity;instrument
0.0;0.05937496041666668;67;0.625;violin
0.0;2.2468735020833335;74;0.625;violin
0.06249995833333334;0.05937496041666668;70;0.625;violin
0.12499991666666668;0.05937496041666668;67;0.625;violin
0.18749987500000004;0.05937496041666665;70;0.625;violin
0.24999983333333337;0.05937496041666668;67;0.625;violin
0.3124997916666667;0.05937496041666668;70;0.625;violin
0.3749997500000001;0.05937496041666662;67;0.625;violin
0.4374997083333334;0.05937496041666668;70;0.625;violin
0.49999966666666673;0.05937496041666668;67;0.625;violin
0.5624996250000001;0.05937496041666668;70;0.625;violin
0.6249995833333334;0.05937496041666668;67;0.625;violin
0.6874995416666667;0.05937496041666668;70;0.625;violin
0.7499995000000002;0.05937496041666657;67;0.625;violin
0.8124994583333335;0.05937496041666668;70;0.625;violin
0.8749994166666668;0.05937496041666668;67;0.625;violin
0.9374993750000001;0.05937496041666668;70;0.625;violin
0.9999993333333335;0.05937496041666668;67;0.625;violin
1.062499291666667;0.05937496041666668;70;0.625;violin
1.1249992500000001;0.05937496041666668;67;0.625;violin
1.1874992083333336;0.05937496041666668;70;0.625;violin
1.2499991666666668;0.05937496041666668;67;0.625;violin
1.3124991250000002;0.05937496041666668;70;0.625;violin
1.3749990833333334;0.05937496041666668;67;0.625;violin
1.4374990416666669;0.05937496041666668;70;0.625;violin
1.4999990000000003;0.059374960416666456;67;0.625;violin
1.5624989583333335;0.05937496041666668;70;0.625;violin
1.624998916666667;0.05937496041666668;67;0.625;violin
1.6874988750000002;0.05937496041666668;70;0.625;violin
1.7499988333333336;0.05937496041666668;67;0.625;violin
1.8124987916666668;0.05937496041666668;70;0.625;violin
1.8749987500000003;0.05937496041666668;67;0.625;violin
1.9374987083333335;0.05937496041666668;70;0.625;violin
1.999998666666667;0.05937496041666668;67;0.625;violin
2.0624986250000004;0.05937496041666668;70;0.625;violin
2.124998583333334;0.05937496041666668;67;0.625;violin
2.187498541666667;0.05937496041666668;70;0.625;violin
2.2499985000000002;0.05937496041666668;67;0.625;violin
2.2499985000000002;0.7468745020833336;79;0.625;violin
2.3124984583333337;0.05937496041666668;75;0.625;violin
2.374998416666667;0.05937496041666668;67;0.625;violin
2.437498375;0.05937496041666668;75;0.625;violin
2.4999983333333335;0.05937496041666668;67;0.625;violin
2.562498291666667;0.05937496041666668;75;0.625;violin
2.6249982500000004;0.05937496041666668;67;0.625;violin
2.687498208333334;0.05937496041666668;75;0.625;violin
2.749998166666667;0.05937496041666668;67;0.625;violin
2.8124981250000003;0.05937496041666668;75;0.625;violin
2.8749980833333337;0.05937496041666668;67;0.625;violin
2.937498041666667;0.05937496041666668;75;0.625;violin
2.9999980000000006;0.059374960416666234;67;0.625;violin
2.9999980000000006;0.7468745020833332;78;0.625;violin
3.0624979583333336;0.05937496041666668;74;0.625;violin
3.124997916666667;0.05937496041666668;67;0.625;violin
3.1874978750000005;0.05937496041666668;74;0.625;violin
3.249997833333334;0.05937496041666668;67;0.625;violin
3.312497791666667;0.05937496041666668;74;0.625;violin
3.3749977500000004;0.05937496041666668;67;0.625;violin
3.437497708333334;0.05937496041666668;74;0.625;violin
3.4999976666666672;0.05937496041666668;67;0.625;violin
3.5624976250000007;0.05937496041666668;74;0.625;violin
3.6249975833333337;0.05937496041666668;67;0.625;violin
3.687497541666667;0.05937496041666668;74;0.625;violin
3.7499975000000005;0.05937496041666668;67;0.625;violin
3.7499975000000005;0.7468745020833336;75;0.625;violin
3.812497458333334;0.05937496041666668;72;0.625;violin
3.874997416666667;0.05937496041666668;67;0.625;violin
3.9374973750000004;0.05937496041666668;72;0.625;violin
3.999997333333334;0.059374960416666234;67;0.625;violin
4.062497291666667;0.059374960416666234;72;0.625;violin
4.124997250000001;0.059374960416666234;67;0.625;violin
4.187497208333334;0.059374960416666234;72;0.625;violin
4.249997166666668;0.059374960416666234;67;0.625;violin
4.312497125;0.05937496041666712;72;0.625;violin
4.374997083333334;0.05937496041666712;67;0.625;violin
4.437497041666667;0.05937496041666712;72;0.625;violin
4.4999970000000005;0.05624996249999992;67;0.625;violin
4.4999970000000005;2.246873502083334;74;0.625;violin
4.559371960416668;0.05624996249999992;70;0.625;violin
4.621871918750001;0.05624996249999992;67;0.625;violin
4.684371877083334;0.056249962500000805;70;0.625;violin
4.746871835416667;0.05624996249999992;67;0.625;violin
4.8093717937500005;0.05624996249999992;70;0.625;violin
4.871871752083334;0.05624996249999992;67;0.625;violin
4.934371710416667;0.05624996249999992;70;0.625;violin
4.996871668750001;0.05624996249999992;67;0.625;violin
5.059371627083334;0.05624996249999992;70;0.625;violin
5.121871585416668;0.05624996249999992;67;0.625;violin
5.184371543750001;0.05624996249999992;70;0.625;violin
5.249996500000001;0.05624996249999992;67;0.625;violin
5.309371460416667;0.05624996249999992;70;0.625;violin
5.3718714187500005;0.05624996249999992;67;0.625;violin
5.434371377083334;0.05624996249999992;70;0.625;violin
5.496871335416667;0.05624996249999992;67;0.625;violin
5.559371293750001;0.05624996249999992;70;0.625;violin
5.621871252083334;0.05624996249999992;67;0.625;violin
5.684371210416668;0.05624996249999992;70;0.625;violin
5.746871168750001;0.05624996249999992;67;0.625;violin
5.809371127083334;0.056249962500000805;70;0.625;violin
5.871871085416667;0.05624996249999992;67;0.625;violin
5.934371043750001;0.05624996249999992;70;0.625;violin
5.999996000000001;0.05624996249999992;67;0.625;violin
6.0593709604166675;0.05624996249999992;70;0.625;violin
6.121870918750001;0.05624996249999992;67;0.625;violin
6.184370877083334;0.05624996249999992;70;0.625;violin
6.246870835416668;0.05624996249999992;67;0.625;violin
6.309370793750001;0.05624996249999992;70;0.625;violin
6.371870752083334;0.056249962500000805;67;0.625;violin
6.434370710416667;0.05624996249999992;70;0.625;violin
6.496870668750001;0.05624996249999992;67;0.625;violin
6.559370627083334;0.05624996249999992;70;0.625;violin
6.6218705854166675;0.05624996249999992;67;0.625;violin
6.684370543750001;0.05624996249999992;70;0.625;violin
6.749995500000001;0.05624996249999992;65;0.625;violin
6.749995500000001;0.7468745020833332;74;0.625;violin
6.809370460416668;0.05624996249999992;69;0.625;violin
6.871870418750001;0.05624996249999992;65;0.625;violin
6.934370377083334;0.056249962500000805;69;0.625;violin
6.996870335416667;0.05624996249999992;65;0.625;violin
7.059370293750001;0.05624996249999992;69;0.625;violin
7.121870252083334;0.05624996249999992;65;0.625;violin
7.184370210416668;0.05624996249999992;69;0.625;violin
7.246870168750001;0.05624996249999992;65;0.625;violin
7.3093701270833344;0.05624996249999992;69;0.625;violin
7.371870085416668;0.05624996249999992;65;0.625;violin
7.434370043750001;0.05624996249999992;69;0.625;violin
7.499995000000001;0.05624996249999992;63;0.625;violin
7.499995000000001;0.7468745020833341;72;0.625;violin
7.559369960416667;0.05624996249999992;67;0.625;violin
7.621869918750001;0.05624996249999992;63;0.625;violin
7.684369877083334;0.05624996249999992;67;0.625;violin
7.746869835416668;0.05624996249999992;63;0.625;violin
7.809369793750001;0.05624996249999992;67;0.625;violin
7.8718697520833345;0.05624996249999992;63;0.625;violin
7.934369710416668;0.05624996249999992;67;0.625;violin
7.996869668750001;0.05624996249999903;63;0.625;violin
8.059369627083335;0.05624996249999903;67;0.625;violin
8.121869585416668;0.05624996249999903;63;0.625;violin
8.184369543750002;0.05624996249999903;67;0.625;violin
8.249994500000001;0.05624996249999903;62;0.625;violin
8.249994500000001;0.7468745020833332;70;0.625;violin
8.309369460416669;0.05624996249999903;65;0.625;violin
8.37186941875;0.056249962500000805;62;0.625;violin
8.434369377083334;0.056249962500000805;65;0.625;violin
8.496869335416667;0.056249962500000805;62;0.625;violin
8.55936929375;0.056249962500000805;65;0.625;violin
8.621869252083334;0.056249962500000805;62;0.625;violin
8.684369210416667;0.056249962500000805;65;0.625;violin
8.74686916875;0.056249962500000805;62;0.625;violin
8.809369127083334;0.056249962500000805;65;0.625;violin
8.871869085416668;0.056249962500000805;62;0.625;violin
8.934369043750001;0.056249962500000805;65;0.625;violin
8.999994000000001;0.056249962500000805;60;0.625;violin
8.999994000000001;2.246873502083334;69;0.625;violin
9.059368960416668;0.05624996249999903;63;0.625;violin
9.121868918750001;0.05624996249999903;60;0.625;violin
9.184368877083335;0.05624996249999903;63;0.625;violin
9.246868835416668;0.05624996249999903;60;0.625;violin
9.309368793750002;0.05624996249999903;63;0.625;violin
9.371868752083335;0.05624996249999903;60;0.625;violin
9.434368710416669;0.05624996249999903;63;0.625;violin
9.49686866875;0.056249962500000805;60;0.625;violin
9.559368627083334;0.056249962500000805;63;0.625;violin
9.621868585416667;0.056249962500000805;60;0.625;violin
9.68436854375;0.056249962500000805;63;0.625;violin
9.7499935;0.056249962500000805;60;0.625;violin
9.809368460416668;0.056249962500000805;63;0.625;violin
9.871868418750001;0.056249962500000805;60;0.625;violin
9.934368377083334;0.056249962500000805;63;0.625;violin
9.996868335416668;0.056249962500000805;60;0.625;violin
10.059368293750001;0.056249962500000805;63;0.625;violin
10.121868252083335;0.05624996249999903;60;0.625;violin
10.184368210416668;0.05624996249999903;63;0.625;violin
10.246868168750002;0.05624996249999903;60;0.625;violin
10.309368127083335;0.05624996249999903;63;0.625;violin
10.371868085416668;0.05624996249999903;60;0.625;violin
10.434368043750002;0.05624996249999903;63;0.625;violin
10.499993000000002;0.05624996249999903;60;0.625;violin
10.559367960416669;0.05624996249999903;63;0.625;violin
10.621867918750002;0.05624996249999903;60;0.625;violin
10.684367877083334;0.056249962500000805;63;0.625;violin
10.746867835416667;0.056249962500000805;60;0.625;violin
10.80936779375;0.056249962500000805;63;0.625;violin
10.871867752083334;0.056249962500000805;60;0.625;violin
10.934367710416668;0.056249962500000805;63;0.625;violin
10.996867668750001;0.056249962500000805;60;0.625;violin
11.059367627083335;0.056249962500000805;63;0.625;violin
11.121867585416668;0.056249962500000805;60;0.625;violin
11.184367543750001;0.056249962500000805;63;0.625;violin
11.249992500000001;0.056249962500000805;60;0.625;violin
11.249992500000001;0.7468745020833332;72;0.625;violin
11.309367460416668;0.05624996249999903;63;0.625;violin
11.371867418750002;0.05624996249999903;60;0.625;violin
11.434367377083335;0.05624996249999903;63;0.625;violin
11.496867335416669;0.05624996249999903;60;0.625;violin
11.559367293750002;0.05624996249999903;63;0.625;violin
11.621867252083335;0.05624996249999903;60;0.625;violin
11.684367210416669;0.05624996249999903;63;0.625;violin
11.746867168750002;0.05624996249999903;60;0.625;violin
11.809367127083334;0.056249962500000805;63;0.625;violin
11.871867085416667;0.056249962500000805;60;0.625;violin
11.934367043750001;0.056249962500000805;63;0.625;violin
11.999992000000002;0.05624996249999903;61;0.625;violin
11.999992000000002;0.7468745020833332;69;0.625;violin
12.059366960416668;0.056249962500000805;64;0.625;violin
12.121866918750001;0.056249962500000805;61;0.625;violin
12.184366877083335;0.056249962500000805;64;0.625;violin
12.246866835416668;0.056249962500000805;61;0.625;violin
12.309366793750002;0.056249962500000805;64;0.625;violin
12.371866752083335;0.056249962500000805;61;0.625;violin
12.434366710416668;0.05624996249999903;64;0.625;violin
12.496866668750002;0.05624996249999903;61;0.625;violin
12.559366627083335;0.05624996249999903;64;0.625;violin
12.621866585416669;0.05624996249999903;61;0.625;violin
12.684366543750002;0.05624996249999903;64;0.625;violin
12.749991500000002;0.05624996249999903;61;0.625;violin
12.749991500000002;0.7468745020833332;67;0.625;violin
12.809366460416669;0.05624996249999903;64;0.625;violin
12.871866418750002;0.05624996249999903;61;0.625;violin
12.934366377083334;0.056249962500000805;64;0.625;violin
12.996866335416668;0.056249962500000805;61;0.625;violin
13.059366293750001;0.056249962500000805;64;0.625;violin
13.121866252083334;0.056249962500000805;61;0.625;violin
13.184366210416668;0.056249962500000805;64;0.625;violin
13.246866168750001;0.056249962500000805;61;0.625;violin
13.309366127083335;0.056249962500000805;64;0.625;violin
13.371866085416668;0.056249962500000805;61;0.625;violin
13.434366043750002;0.056249962500000805;64;0.625;violin
13.499991000000001;2.246873502083334;62;0.625;violin
13.499991000000001;0.056249962500000805;67;0.625;violin
13.559365960416669;0.05624996249999903;70;0.625;violin
13.621865918750002;0.05624996249999903;67;0.625;violin
13.684365877083335;0.05624996249999903;70;0.625;violin
13.746865835416669;0.05624996249999903;67;0.625;violin
13.809365793750002;0.05624996249999903;70;0.625;violin
13.871865752083336;0.05624996249999903;67;0.625;violin
13.93436571041667;0.05624996249999903;70;0.625;violin
13.996865668750003;0.05624996249999903;67;0.625;violin
14.059365627083334;0.056249962500000805;70;0.625;violin
14.121865585416668;0.056249962500000805;67;0.625;violin
14.184365543750001;0.056249962500000805;70;0.625;violin
14.249990500000003;0.05624996249999903;67;0.625;violin
14.309365460416668;0.056249962500000805;70;0.625;violin
14.371865418750001;0.056249962500000805;67;0.625;violin
14.434365377083335;0.056249962500000805;70;0.625;violin
14.496865335416668;0.056249962500000805;67;0.625;violin
14.559365293750002;0.056249962500000805;70;0.625;violin
14.621865252083335;0.056249962500000805;67;0.625;violin
14.684365210416669;0.056249962500000805;70;0.625;violin
14.746865168750002;0.05624996249999903;67;0.625;violin
14.809365127083336;0.05624996249999903;70;0.625;violin
14.871865085416669;0.05624996249999903;67;0.625;violin
14.934365043750002;0.05624996249999903;70;0.625;violin
14.999990000000002;0.05624996249999903;66;0.625;violin
15.05936496041667;0.05624996249999903;69;0.625;violin
15.121864918750003;0.05624996249999903;66;0.625;violin
15.184364877083336;0.05624996249999903;69;0.625;violin
15.246864835416668;0.056249962500000805;66;0.625;violin
15.309364793750001;0.056249962500000805;69;0.625;violin
15.371864752083335;0.056249962500000805;66;0.625;violin
15.434364710416668;0.056249962500000805;69;0.625;violin
15.496864668750002;0.056249962500000805;66;0.625;violin
15.559364627083335;0.056249962500000805;69;0.625;violin
15.621864585416668;0.056249962500000805;66;0.625;violin
15.684364543750002;0.056249962500000805;69;0.625;violin
15.749989500000002;0.7468745020833332;60;0.625;violin
15.749989500000002;0.056249962500000805;63;0.625;violin
15.809364460416669;0.056249962500000805;69;0.625;violin
15.871864418750002;0.05624996249999903;63;0.625;violin
15.934364377083336;0.05624996249999903;69;0.625;violin
15.996864335416669;0.05624996249999903;63;0.625;violin
16.05936429375;0.056249962500000805;69;0.625;violin
16.121864252083334;0.056249962500000805;63;0.625;violin
16.184364210416668;0.056249962500000805;69;0.625;violin
16.24686416875;0.056249962500000805;63;0.625;violin
16.309364127083334;0.056249962500000805;69;0.625;violin
16.371864085416668;0.056249962500000805;63;0.625;violin
16.43436404375;0.056249962500000805;69;0.625;violin
16.499989000000003;0.7468745020833332;58;0.625;violin
16.499989000000003;0.056249962500000805;62;0.625;violin
16.55936396041667;0.056249962500000805;67;0.625;violin
16.62186391875;0.056249962500000805;62;0.625;violin
16.684363877083335;0.056249962500000805;67;0.625;violin
16.74686383541667;0.056249962500000805;62;0.625;violin
16.809363793750002;0.056249962500000805;67;0.625;violin
16.871863752083335;0.056249962500000805;62;0.625;violin
16.93436371041667;0.056249962500000805;67;0.625;violin
16.996863668750002;0.056249962500000805;62;0.625;violin
17.059363627083336;0.056249962500000805;67;0.625;violin
17.12186358541667;0.056249962500000805;62;0.625;violin
17.184363543750003;0.056249962500000805;67;0.625;violin
17.2499885;0.7468745020833367;57;0.625;violin
17.2499885;0.056249962500000805;62;0.625;violin
17.30936346041667;0.056249962500000805;66;0.625;violin
17.371863418750003;0.056249962500000805;62;0.625;violin
17.434363377083336;0.056249962500000805;66;0.625;violin
17.49686333541667;0.056249962500000805;62;0.625;violin
17.559363293750003;0.05624996249999725;66;0.625;violin
17.621863252083337;0.05624996249999725;62;0.625;violin
17.68436321041667;0.05624996249999725;66;0.625;violin
17.746863168750004;0.05624996249999725;62;0.625;violin
17.809363127083337;0.05624996249999725;66;0.625;violin
17.87186308541667;0.05624996249999725;62;0.625;violin
17.934363043750004;0.05624996249999725;66;0.625;violin
17.999988000000002;0.059374960416665346;55;0.625;violin
17.999988000000002;0.056249962500000805;67;0.625;violin
18.059362960416667;0.056249962500000805;70;0.625;violin
18.062487958333335;2.187498541666667;74;0.625;violin
18.12186291875;0.056249962500000805;67;0.625;violin
18.184362877083334;0.056249962500000805;70;0.625;violin
18.246862835416668;0.056249962500000805;67;0.625;violin
18.30936279375;0.056249962500000805;70;0.625;violin
18.371862752083334;0.056249962500000805;67;0.625;violin
18.434362710416668;0.056249962500000805;70;0.625;violin
18.49686266875;0.056249962500000805;67;0.625;violin
18.559362627083335;0.056249962500000805;70;0.625;violin
18.621862585416668;0.056249962500000805;67;0.625;violin
18.68436254375;0.056249962500000805;70;0.625;violin
18.749987500000003;0.056249962500000805;67;0.625;violin
18.80936246041667;0.056249962500000805;70;0.625;violin
18.871862418750002;0.056249962500000805;67;0.625;violin
18.934362377083335;0.056249962500000805;70;0.625;violin
18.99686233541667;0.056249962500000805;67;0.625;violin
19.059362293750002;0.056249962500000805;70;0.625;violin
19.121862252083336;0.056249962500000805;67;0.625;violin
19.18436221041667;0.056249962500000805;70;0.625;violin
19.246862168750003;0.056249962500000805;67;0.625;violin
19.309362127083336;0.056249962500000805;70;0.625;violin
19.37186208541667;0.056249962500000805;67;0.625;violin
19.434362043750003;0.056249962500000805;70;0.625;violin
19.499987;0.056249962500000805;67;0.625;violin
19.55936196041667;0.056249962500000805;70;0.625;violin
19.621861918750003;0.056249962500000805;67;0.625;violin
19.684361877083337;0.056249962500000805;70;0.625;violin
19.74686183541667;0.056249962500000805;67;0.625;violin
19.809361793750003;0.056249962500000805;70;0.625;violin
19.871861752083337;0.05624996249999725;67;0.625;violin
19.93436171041667;0.05624996249999725;70;0.625;violin
19.996861668750004;0.05624996249999725;67;0.625;violin
20.059361627083337;0.05624996249999725;70;0.625;violin
20.12186158541667;0.05624996249999725;67;0.625;violin
20.184361543750004;0.05624996249999725;70;0.625;violin
20.249986500000002;0.056249962500000805;67;0.625;violin
20.249986500000002;0.7468745020833332;74;0.625;violin
20.30936146041667;0.05624996249999725;71;0.625;violin
20.37186141875;0.056249962500000805;67;0.625;violin
20.434361377083334;0.056249962500000805;71;0.625;violin
20.496861335416668;0.056249962500000805;67;0.625;violin
20.55936129375;0.056249962500000805;71;0.625;violin
20.621861252083335;0.056249962500000805;67;0.625;violin
20.684361210416668;0.056249962500000805;71;0.625;violin
20.74686116875;0.056249962500000805;67;0.625;violin
20.809361127083335;0.056249962500000805;71;0.625;violin
20.87186108541667;0.056249962500000805;67;0.625;violin
20.934361043750002;0.056249962500000805;71;0.625;violin
20.999986000000003;0.056249962500000805;67;0.625;violin
20.999986000000003;0.7468745020833332;75;0.625;violin
21.05936096041667;0.056249962500000805;72;0.625;violin
21.121860918750002;0.056249962500000805;67;0.625;violin
21.184360877083336;0.056249962500000805;72;0.625;violin
21.24686083541667;0.056249962500000805;67;0.625;violin
21.309360793750002;0.056249962500000805;72;0.625;violin
21.371860752083336;0.056249962500000805;67;0.625;violin
21.43436071041667;0.056249962500000805;72;0.625;violin
21.496860668750003;0.056249962500000805;67;0.625;violin
21.559360627083336;0.056249962500000805;72;0.625;violin
21.62186058541667;0.056249962500000805;67;0.625;violin
21.684360543750003;0.056249962500000805;72;0.625;violin
21.7499855;0.056249962500000805;66;0.625;violin
21.7499855;0.7468745020833367;75;0.625;violin
21.80936046041667;0.056249962500000805;72;0.625;violin
21.871860418750003;0.056249962500000805;66;0.625;violin
21.934360377083337;0.056249962500000805;72;0.625;violin
21.99686033541667;0.056249962500000805;66;0.625;violin
22.059360293750004;0.056249962500000805;72;0.625;violin
22.121860252083337;0.05624996249999725;66;0.625;violin
22.18436021041667;0.05624996249999725;72;0.625;violin
22.246860168750004;0.05624996249999725;66;0.625;violin
22.309360127083337;0.05624996249999725;72;0.625;violin
22.37186008541667;0.05624996249999725;66;0.625;violin
22.434360043750004;0.05624996249999725;72;0.625;violin
22.499985000000002;0.056249962500000805;65;0.625;violin
22.499985000000002;2.2468735020833357;75;0.625;violin
22.55935996041667;0.05624996249999725;72;0.625;violin
22.621859918750005;0.05624996249999725;65;0.625;violin
22.684359877083335;0.056249962500000805;72;0.625;violin
22.746859835416668;0.056249962500000805;65;0.625;violin
22.80935979375;0.056249962500000805;72;0.625;violin
22.871859752083335;0.056249962500000805;65;0.625;violin
22.93435971041667;0.056249962500000805;72;0.625;violin
22.99685966875;0.056249962500000805;65;0.625;violin
23.059359627083335;0.056249962500000805;72;0.625;violin
23.12185958541667;0.056249962500000805;65;0.625;violin
23.184359543750002;0.056249962500000805;72;0.625;violin
23.249984500000004;0.056249962500000805;65;0.625;violin
23.30935946041667;0.056249962500000805;72;0.625;violin
23.371859418750002;0.056249962500000805;65;0.625;violin
23.434359377083336;0.056249962500000805;72;0.625;violin
23.49685933541667;0.056249962500000805;65;0.625;violin
23.559359293750003;0.056249962500000805;72;0.625;violin
23.621859252083336;0.056249962500000805;65;0.625;violin
23.68435921041667;0.056249962500000805;72;0.625;violin
23.746859168750003;0.056249962500000805;65;0.625;violin
23.809359127083336;0.056249962500000805;72;0.625;violin
23.87185908541667;0.056249962500000805;65;0.625;violin
23.934359043750003;0.056249962500000805;72;0.625;violin
23.999984000000005;0.05624996249999725;65;0.625;violin
24.05935896041667;0.056249962500000805;72;0.625;violin
24.121858918750004;0.056249962500000805;65;0.625;violin
24.184358877083337;0.056249962500000805;72;0.625;violin
24.24685883541667;0.056249962500000805;65;0.625;violin
24.309358793750004;0.056249962500000805;72;0.625;violin
24.371858752083337;0.056249962500000805;65;0.625;violin
24.43435871041667;0.05624996249999725;72;0.625;violin
24.496858668750004;0.05624996249999725;65;0.625;violin
24.559358627083338;0.05624996249999725;72;0.625;violin
24.62185858541667;0.05624996249999725;65;0.625;violin
24.684358543750005;0.05624996249999725;72;0.625;violin
24.749983500000003;0.056249962500000805;66;0.625;violin
24.749983500000003;0.7468745020833332;75;0.625;violin
24.80935846041667;0.05624996249999725;72;0.625;violin
24.871858418750005;0.05624996249999725;66;0.625;violin
24.934358377083335;0.056249962500000805;72;0.625;violin
24.99685833541667;0.056249962500000805;66;0.625;violin
25.05935829375;0.056249962500000805;72;0.625;violin
25.121858252083335;0.056249962500000805;66;0.625;violin
25.18435821041667;0.056249962500000805;72;0.625;violin
25.246858168750002;0.056249962500000805;66;0.625;violin
25.309358127083335;0.056249962500000805;72;0.625;violin
25.37185808541667;0.056249962500000805;66;0.625;violin
25.434358043750002;0.056249962500000805;72;0.625;violin
25.499983000000004;0.056249962500000805;67;0.625;violin
25.499983000000004;0.7468745020833332;74;0.625;violin
25.55935796041667;0.056249962500000805;70;0.625;violin
25.621857918750003;0.056249962500000805;67;0.625;violin
25.684357877083336;0.056249962500000805;70;0.625;violin
25.74685783541667;0.056249962500000805;67;0.625;violin
25.809357793750003;0.056249962500000805;70;0.625;violin
25.871857752083336;0.056249962500000805;67;0.625;violin
25.93435771041667;0.056249962500000805;70;0.625;violin
25.996857668750003;0.056249962500000805;67;0.625;violin
26.059357627083337;0.056249962500000805;70;0.625;violin
26.12185758541667;0.056249962500000805;67;0.625;violin
26.184357543750004;0.056249962500000805;70;0.625;violin
26.249982500000005;0.05624996249999725;65;0.625;violin
26.249982500000005;0.7468745020833332;74;0.625;violin
26.30935746041667;0.056249962500000805;69;0.625;violin
26.371857418750004;0.056249962500000805;65;0.625;violin
26.434357377083337;0.056249962500000805;69;0.625;violin
26.49685733541667;0.056249962500000805;65;0.625;violin
26.559357293750004;0.056249962500000805;69;0.625;violin
26.621857252083338;0.056249962500000805;65;0.625;violin
26.68435721041667;0.056249962500000805;69;0.625;violin
26.746857168750005;0.05624996249999725;65;0.625;violin
26.809357127083338;0.05624996249999725;69;0.625;violin
26.87185708541667;0.05624996249999725;65;0.625;violin
26.934357043750005;0.05624996249999725;69;0.625;violin
26.999982000000003;0.056249962500000805;63;0.625;violin
26.999982000000003;2.2468735020833357;72;0.625;violin
27.05935696041667;0.05624996249999725;67;0.625;violin
27.121856918750005;0.05624996249999725;63;0.625;violin
27.18435687708334;0.05624996249999725;67;0.625;violin
27.24685683541667;0.056249962500000805;63;0.625;violin
27.309356793750002;0.056249962500000805;67;0.625;violin
27.371856752083335;0.056249962500000805;63;0.625;violin
27.43435671041667;0.056249962500000805;67;0.625;violin
27.496856668750002;0.056249962500000805;63;0.625;violin
27.559356627083336;0.056249962500000805;67;0.625;violin
27.62185658541667;0.056249962500000805;63;0.625;violin
27.684356543750003;0.056249962500000805;67;0.625;violin
27.749981500000004;0.056249962500000805;63;0.625;violin
27.80935646041667;0.056249962500000805;67;0.625;violin
27.871856418750003;0.056249962500000805;63;0.625;violin
27.934356377083336;0.056249962500000805;67;0.625;violin
27.99685633541667;0.056249962500000805;63;0.625;violin
28.059356293750003;0.056249962500000805;67;0.625;violin
28.121856252083337;0.056249962500000805;63;0.625;violin
28.18435621041667;0.056249962500000805;67;0.625;violin
28.246856168750003;0.056249962500000805;63;0.625;violin
28.309356127083337;0.056249962500000805;67;0.625;violin
28.37185608541667;0.056249962500000805;63;0.625;violin
28.434356043750004;0.056249962500000805;67;0.625;violin
28.499981000000005;0.05624996249999725;63;0.625;violin
28.55935596041667;0.056249962500000805;67;0.625;violin
28.621855918750004;0.056249962500000805;63;0.625;violin
28.684355877083338;0.056249962500000805;67;0.625;violin
28.74685583541667;0.056249962500000805;63;0.625;violin
28.809355793750004;0.056249962500000805;67;0.625;violin
28.871855752083338;0.056249962500000805;63;0.625;violin
28.93435571041667;0.056249962500000805;67;0.625;violin
28.996855668750005;0.05624996249999725;63;0.625;violin
29.059355627083338;0.05624996249999725;67;0.625;violin
29.12185558541667;0.05624996249999725;63;0.625;violin
29.184355543750005;0.05624996249999725;67;0.625;violin
29.249980500000003;0.056249962500000805;63;0.625;violin
29.249980500000003;0.7468745020833332;73;0.625;violin
29.309355460416672;0.05624996249999725;67;0.625;violin
29.371855418750005;0.05624996249999725;63;0.625;violin
29.43435537708334;0.05624996249999725;67;0.625;violin
29.49685533541667;0.056249962500000805;63;0.625;violin
29.559355293750002;0.056249962500000805;67;0.625;violin
29.621855252083336;0.056249962500000805;63;0.625;violin
29.68435521041667;0.056249962500000805;67;0.625;violin
29.746855168750002;0.056249962500000805;63;0.625;violin
29.809355127083336;0.056249962500000805;67;0.625;violin
29.87185508541667;0.056249962500000805;63;0.625;violin
29.934355043750003;0.056249962500000805;67;0.625;violin
29.999980000000004;0.056249962500000805;64;0.625;violin
29.999980000000004;0.7468745020833332;72;0.625;violin
30.05935496041667;0.056249962500000805;67;0.625;violin
30.121854918750003;0.056249962500000805;64;0.625;violin
30.184354877083337;0.056249962500000805;67;0.625;violin
30.24685483541667;0.056249962500000805;64;0.625;violin
30.309354793750003;0.056249962500000805;67;0.625;violin
30.371854752083337;0.056249962500000805;64;0.625;violin
30.43435471041667;0.056249962500000805;67;0.625;violin
30.496854668750004;0.056249962500000805;64;0.625;violin
30.559354627083337;0.056249962500000805;67;0.625;violin
30.62185458541667;0.056249962500000805;64;0.625;violin
30.684354543750004;0.056249962500000805;67;0.625;violin
30.749979500000006;0.05624996249999725;64;0.625;violin
30.749979500000006;0.7468745020833332;70;0.625;violin
30.80935446041667;0.056249962500000805;67;0.625;violin
30.871854418750004;0.056249962500000805;64;0.625;violin
30.934354377083338;0.056249962500000805;67;0.625;violin
30.99685433541667;0.056249962500000805;64;0.625;violin
31.059354293750005;0.056249962500000805;67;0.625;violin
31.121854252083338;0.056249962500000805;64;0.625;violin
31.18435421041667;0.056249962500000805;67;0.625;violin
31.246854168750005;0.056249962500000805;64;0.625;violin
31.30935412708334;0.05624996249999725;67;0.625;violin
31.371854085416672;0.05624996249999725;64;0.625;violin
31.434354043750005;0.05624996249999725;67;0.625;violin
31.499979000000003;0.7468745020833367;65;0.625;violin
31.499979000000003;0.056249962500000805;69;0.625;violin
31.559353960416672;0.05624996249999725;72;0.625;violin
31.621853918750006;0.05624996249999725;69;0.625;violin
31.68435387708334;0.05624996249999725;72;0.625;violin
31.746853835416672;0.05624996249999725;69;0.625;violin
31.809353793750002;0.056249962500000805;72;0.625;violin
31.871853752083336;0.056249962500000805;69;0.625;violin
31.93435371041667;0.056249962500000805;72;0.625;violin
31.996853668750003;0.056249962500000805;69;0.625;violin
32.05935362708334;0.05624996249999725;72;0.625;violin
32.12185358541667;0.05624996249999725;69;0.625;violin
32.18435354375001;0.05624996249999725;72;0.625;violin
32.249978500000005;0.7468745020833296;63;0.9375;violin
32.249978500000005;0.05624996249999725;69;0.625;violin
32.30935346041667;0.05624996249999725;77;0.625;violin
32.37185341875001;0.05624996249999725;69;0.625;violin
32.43435337708334;0.05624996249999725;77;0.625;violin
32.496853335416674;0.05624996249999725;69;0.625;violin
32.55935329375001;0.05624996249999725;77;0.625;violin
32.62185325208334;0.05624996249999725;69;0.625;violin
32.684353210416674;0.05624996249999725;77;0.625;violin
32.74685316875001;0.05624996249999725;69;0.625;violin
32.80935312708334;0.05624996249999725;77;0.625;violin
32.871853085416674;0.05624996249999725;69;0.625;violin
32.93435304375;0.05624996250000436;77;0.625;violin
32.999978000000006;0.7468745020833296;62;0.625;violin
32.999978000000006;0.05624996249999725;70;0.625;violin
33.05935296041667;0.05624996250000436;77;0.625;violin
33.12185291875;0.05624996250000436;70;0.625;violin
33.184352877083334;0.05624996250000436;77;0.625;violin
33.24685283541667;0.05624996250000436;70;0.625;violin
33.30935279375;0.05624996250000436;77;0.625;violin
33.371852752083335;0.05624996250000436;70;0.625;violin
33.43435271041667;0.05624996250000436;77;0.625;violin
33.49685266875;0.05624996250000436;70;0.625;violin
33.559352627083335;0.05624996250000436;77;0.625;violin
33.62185258541667;0.05624996250000436;70;0.625;violin
33.68435254375;0.05624996250000436;77;0.625;violin
33.74997750000001;0.7468745020833296;66;0.9375;violin
33.74997750000001;0.05624996249999725;69;0.625;violin
33.80935246041667;0.05624996250000436;72;0.625;violin
33.87185241875;0.05624996250000436;69;0.625;violin
33.934352377083336;0.05624996250000436;72;0.625;violin
33.99685233541667;0.05624996250000436;69;0.625;violin
34.05935229375;0.05624996250000436;72;0.625;violin
34.121852252083336;0.05624996250000436;69;0.625;violin
34.18435221041667;0.05624996250000436;72;0.625;violin
34.24685216875;0.05624996250000436;69;0.625;violin
34.309352127083336;0.05624996250000436;72;0.625;violin
34.37185208541667;0.05624996250000436;69;0.625;violin
34.43435204375;0.05624996250000436;72;0.625;violin
34.499977;0.7468745020833367;65;0.625;violin
34.499977;0.05624996250000436;70;0.625;violin
34.55935196041667;0.05624996250000436;74;0.625;violin
34.621851918750004;0.05624996250000436;70;0.625;violin
34.68435187708334;0.05624996250000436;74;0.625;violin
34.74685183541667;0.05624996249999725;70;0.625;violin
34.809351793750004;0.05624996249999725;74;0.625;violin
34.87185175208334;0.05624996249999725;70;0.625;violin
34.93435171041667;0.05624996249999725;74;0.625;violin
34.996851668750004;0.05624996249999725;70;0.625;violin
35.05935162708334;0.05624996249999725;74;0.625;violin
35.12185158541667;0.05624996249999725;70;0.625;violin
35.184351543750005;0.05624996249999725;74;0.625;violin
35.2499765;0.7468745020833367;63;0.9375;violin
35.2499765;0.05624996250000436;69;0.625;violin
35.30935146041667;0.05624996249999725;77;0.625;violin
35.371851418750005;0.05624996249999725;69;0.625;violin
35.43435137708334;0.05624996249999725;77;0.625;violin
35.49685133541667;0.05624996249999725;69;0.625;violin
35.559351293750005;0.05624996249999725;77;0.625;violin
35.62185125208334;0.05624996249999725;69;0.625;violin
35.68435121041667;0.05624996249999725;77;0.625;violin
35.746851168750005;0.05624996249999725;69;0.625;violin
35.80935112708334;0.05624996249999725;77;0.625;violin
35.87185108541667;0.05624996249999725;69;0.625;violin
35.934351043750006;0.05624996249999725;77;0.625;violin
35.999976000000004;1.4968740020833309;62;0.625;violin
35.999976000000004;0.05624996250000436;70;0.625;violin
36.05935096041667;0.05624996249999725;77;0.625;violin
36.121850918750006;0.05624996249999725;70;0.625;violin
36.18435087708334;0.05624996249999725;77;0.625;violin
36.24685083541667;0.05624996249999725;70;0.625;violin
36.309350793750006;0.05624996249999725;77;0.625;violin
36.37185075208334;0.05624996249999725;70;0.625;violin
36.43435071041667;0.05624996249999725;77;0.625;violin
36.49685066875001;0.05624996249999725;70;0.625;violin
36.55935062708334;0.05624996249999725;77;0.625;violin
36.621850585416674;0.05624996249999725;70;0.625;violin
36.68435054375001;0.05624996249999725;77;0.625;violin
36.749975500000005;0.05624996249999725;70;0.625;violin
36.809350460416674;0.05624996249999725;78;0.625;violin
36.87185041875001;0.05624996249999725;70;0.625;violin
36.93435037708334;0.05624996249999725;78;0.625;violin
36.996850335416674;0.05624996249999725;70;0.625;violin
37.05935029375001;0.05624996249999725;78;0.625;violin
37.12185025208334;0.05624996249999725;70;0.625;violin
37.184350210416675;0.05624996249999725;78;0.625;violin
37.24685016875001;0.05624996249999725;70;0.625;violin
37.30935012708334;0.05624996249999725;78;0.625;violin
37.371850085416675;0.05624996249999725;70;0.625;violin
37.43435004375001;0.05624996249999725;78;0.625;violin
37.499975000000006;0.05624996249999725;63;0.625;violin
37.499975000000006;0.7468745020833296;70;0.625;violin
37.55934996041667;0.05624996250000436;67;0.625;violin
37.62184991875;0.05624996250000436;63;0.625;violin
37.684349877083335;0.05624996250000436;67;0.625;violin
37.74684983541667;0.05624996250000436;63;0.625;violin
37.80934979375;0.05624996250000436;67;0.625;violin
37.871849752083335;0.05624996250000436;63;0.625;violin
37.93434971041667;0.05624996250000436;67;0.625;violin
37.99684966875;0.05624996250000436;63;0.625;violin
38.059349627083336;0.05624996250000436;67;0.625;violin
38.12184958541667;0.05624996250000436;63;0.625;violin
38.18434954375;0.05624996250000436;67;0.625;violin
38.24997450000001;0.7468745020833296;64;0.625;violin
38.24997450000001;0.05624996249999725;70;0.625;violin
38.30934946041667;0.05624996250000436;73;0.625;violin
38.37184941875;0.05624996250000436;70;0.625;violin
38.434349377083336;0.05624996250000436;73;0.625;violin
38.49684933541667;0.05624996250000436;70;0.625;violin
38.55934929375;0.05624996250000436;73;0.625;violin
38.62184925208334;0.05624996250000436;70;0.625;violin
38.68434921041667;0.05624996250000436;73;0.625;violin
38.74684916875;0.05624996250000436;70;0.625;violin
38.80934912708334;0.05624996250000436;73;0.625;violin
38.87184908541667;0.05624996250000436;70;0.625;violin
38.934349043750004;0.05624996250000436;73;0.625;violin
38.999974;0.7468745020833367;67;0.625;violin
38.999974;0.05624996250000436;73;0.625;violin
39.05934896041667;0.05624996250000436;76;0.625;violin
39.121848918750004;0.05624996250000436;73;0.6328125;violin
39.18434887708334;0.05624996250000436;76;0.6328125;violin
39.24684883541667;0.05624996250000436;73;0.640625;violin
39.309348793750004;0.05624996249999725;76;0.6484375;violin
39.37184875208334;0.05624996249999725;73;0.6484375;violin
39.43434871041667;0.05624996249999725;76;0.65625;violin
39.496848668750005;0.05624996249999725;73;0.6640625;violin
39.55934862708334;0.05624996249999725;76;0.6640625;violin
39.62184858541667;0.05624996249999725;73;0.671875;violin
39.684348543750005;0.05624996249999725;76;0.6796875;violin
39.7499735;0.7468745020833367;70;0.6875;violin
39.7499735;0.05624996250000436;76;0.6875;violin
39.80934846041667;0.05624996249999725;79;0.6875;violin
39.871848418750005;0.05624996249999725;76;0.6953125;violin
39.93434837708334;0.05624996249999725;79;0.6953125;violin
39.99684833541667;0.05624996249999725;76;0.703125;violin
40.059348293750006;0.05624996249999725;79;0.7109375;violin
40.12184825208334;0.05624996249999725;76;0.7109375;violin
40.18434821041667;0.05624996249999725;79;0.71875;violin
40.246848168750006;0.05624996249999725;76;0.7265625;violin
40.30934812708334;0.05624996249999725;79;0.7265625;violin
40.37184808541667;0.05624996249999725;76;0.734375;violin
40.434348043750006;0.05624996249999725;79;0.7421875;violin
40.499973000000004;0.05624996250000436;70;0.75;violin
40.499973000000004;0.7468745020833367;77;0.75;violin
40.55934796041667;0.05624996249999725;74;0.75;violin
40.62184791875001;0.05624996249999725;70;0.75;violin
40.68434787708334;0.05624996249999725;74;0.75;violin
40.74684783541667;0.05624996249999725;70;0.75;violin
40.80934779375001;0.05624996249999725;74;0.75;violin
40.87184775208334;0.05624996249999725;70;0.75;violin
40.934347710416674;0.05624996249999725;74;0.75;violin
40.99684766875001;0.05624996249999725;70;0.75;violin
41.05934762708334;0.05624996249999725;74;0.75;violin
41.121847585416674;0.05624996249999725;70;0.75;violin
41.18434754375001;0.05624996249999725;74;0.75;violin
41.249972500000005;0.05624996249999725;74;0.75;violin
41.249972500000005;0.7468745020833367;82;0.75;violin
41.309347460416674;0.05624996249999725;77;0.75;violin
41.37184741875001;0.05624996249999725;74;0.75;violin
41.43434737708334;0.05624996249999725;77;0.75;violin
41.496847335416675;0.05624996249999725;74;0.75;violin
41.55934729375001;0.05624996249999725;77;0.75;violin
41.62184725208334;0.05624996249999725;74;0.75;violin
41.684347210416675;0.05624996249999725;77;0.75;violin
41.74684716875001;0.05624996249999725;74;0.75;violin
41.80934712708334;0.05624996249999725;77;0.75;violin
41.871847085416675;0.05624996249999725;74;0.75;violin
41.93434704375001;0.05624996249999725;77;0.75;violin
41.99997200000001;0.05624996249999725;62;0.75;violin
41.99997200000001;1.4968740020833309;70;0.75;violin
42.05934696041667;0.05624996250000436;65;0.75;violin
42.12184691875;0.05624996250000436;62;0.75;violin
42.184346877083335;0.05624996250000436;65;0.75;violin
42.24684683541667;0.05624996250000436;62;0.75;violin
42.30934679375;0.05624996250000436;65;0.75;violin
42.371846752083336;0.05624996250000436;62;0.75;violin
42.43434671041667;0.05624996250000436;65;0.75;violin
42.49684666875;0.05624996250000436;62;0.75;violin
42.559346627083336;0.05624996250000436;65;0.75;violin
42.62184658541667;0.05624996250000436;62;0.75;violin
42.68434654375;0.05624996250000436;65;0.75;violin
42.74997150000001;0.05624996249999725;62;0.75;violin
42.80934646041667;0.05624996250000436;65;0.75;violin
42.87184641875;0.05624996250000436;62;0.75;violin
42.93434637708334;0.05624996250000436;65;0.75;violin
42.99684633541667;0.05624996250000436;62;0.75;violin
43.059346293750004;0.05624996250000436;65;0.75;violin
43.12184625208334;0.05624996250000436;62;0.75;violin
43.18434621041667;0.05624996250000436;65;0.75;violin
43.246846168750004;0.05624996250000436;62;0.75;violin
43.30934612708334;0.05624996250000436;65;0.75;violin
43.37184608541667;0.05624996250000436;62;0.75;violin
43.434346043750004;0.05624996250000436;65;0.75;violin
43.499971;0.7468745020833367;63;0.75;violin
43.499971;0.05624996250000436;69;0.75;violin
43.55934596041667;0.05624996250000436;72;0.75;violin
43.621845918750005;0.05624996250000436;69;0.75;violin
43.68434587708334;0.05624996250000436;72;0.75;violin
43.74684583541667;0.05624996250000436;69;0.75;violin
43.809345793750005;0.05624996250000436;72;0.75;violin
43.87184575208334;0.05624996249999725;69;0.75;violin
43.93434571041667;0.05624996249999725;72;0.75;violin
43.996845668750005;0.05624996249999725;69;0.75;violin
44.05934562708334;0.05624996249999725;72;0.75;violin
44.12184558541667;0.05624996249999725;69;0.75;violin
44.184345543750005;0.05624996249999725;72;0.75;violin
44.2499705;0.7468745020833367;60;0.75;violin
44.2499705;0.05624996250000436;63;0.75;violin
44.30934546041667;0.05624996249999725;69;0.75;violin
44.371845418750006;0.05624996249999725;63;0.75;violin
44.43434537708334;0.05624996249999725;69;0.75;violin
44.49684533541667;0.05624996249999725;63;0.75;violin
44.559345293750006;0.05624996249999725;69;0.75;violin
44.62184525208334;0.05624996249999725;63;0.75;violin
44.68434521041667;0.05624996249999725;69;0.75;violin
44.746845168750006;0.05624996249999725;63;0.75;violin
44.80934512708334;0.05624996249999725;69;0.75;violin
44.87184508541667;0.05624996249999725;63;0.75;violin
44.93434504375001;0.05624996249999725;69;0.75;violin
44.999970000000005;0.05624996250000436;58;0.75;violin
44.999970000000005;2.246873502083332;70;0.75;violin
45.059344960416674;0.05624996249999725;62;0.75;violin
45.12184491875001;0.05624996249999725;58;0.75;violin
45.18434487708334;0.05624996249999725;62;0.75;violin
45.246844835416674;0.05624996249999725;58;0.75;violin
45.30934479375001;0.05624996249999725;62;0.75;violin
45.37184475208334;0.05624996249999725;58;0.75;violin
45.434344710416674;0.05624996249999725;62;0.75;violin
45.49684466875001;0.05624996249999725;58;0.75;violin
45.55934462708334;0.05624996249999725;62;0.75;violin
45.621844585416675;0.05624996249999725;58;0.75;violin
45.68434454375001;0.05624996249999725;62;0.75;violin
45.749969500000006;0.05624996249999725;58;0.75;violin
45.809344460416675;0.05624996249999725;62;0.75;violin
45.87184441875001;0.05624996249999725;58;0.75;violin
45.93434437708334;0.05624996249999725;62;0.75;violin
45.996844335416675;0.05624996249999725;58;0.75;violin
46.05934429375001;0.05624996249999725;62;0.75;violin
46.12184425208334;0.05624996249999725;58;0.75;violin
46.184344210416675;0.05624996249999725;62;0.75;violin
46.24684416875001;0.05624996249999725;58;0.75;violin
46.30934412708334;0.05624996249999725;62;0.75;violin
46.371844085416676;0.05624996249999725;58;0.75;violin
46.43434404375001;0.05624996249999725;62;0.75;violin
46.49996900000001;0.05624996249999725;58;0.75;violin
46.559343960416676;0.05624996249999725;62;0.75;violin
46.62184391875001;0.05624996249999725;58;0.75;violin
46.684343877083336;0.05624996250000436;62;0.75;violin
46.74684383541667;0.05624996250000436;58;0.75;violin
46.80934379375;0.05624996250000436;62;0.75;violin
46.871843752083336;0.05624996250000436;58;0.75;violin
46.93434371041667;0.05624996250000436;62;0.75;violin
46.99684366875;0.05624996250000436;58;0.75;violin
47.05934362708334;0.05624996250000436;62;0.75;violin
47.12184358541667;0.05624996250000436;58;0.75;violin
47.18434354375;0.05624996250000436;62;0.75;violin
47.24996850000001;0.05624996249999725;58;0.75;violin
47.24996850000001;0.7468745020833296;65;0.75;violin
47.30934346041667;0.05624996250000436;62;0.75;violin
47.371843418750004;0.05624996250000436;58;0.75;violin
47.43434337708334;0.05624996250000436;62;0.75;violin
47.49684333541667;0.05624996250000436;58;0.75;violin
47.559343293750004;0.05624996250000436;62;0.75;violin
47.62184325208334;0.05624996250000436;58;0.75;violin
47.68434321041667;0.05624996250000436;62;0.75;violin
47.746843168750004;0.05624996250000436;58;0.75;violin
47.80934312708334;0.05624996250000436;62;0.75;violin
47.87184308541667;0.05624996250000436;58;0.75;violin
47.934343043750005;0.05624996250000436;62;0.75;violin
47.99996800000001;0.05624996249999725;58;0.75;violin
47.99996800000001;0.7468745020833296;67;0.75;violin
48.05934296041667;0.05624996250000436;63;0.75;violin
48.121842918750005;0.05624996250000436;58;0.75;violin
48.18434287708334;0.05624996250000436;63;0.75;violin
48.24684283541667;0.05624996250000436;58;0.75;violin
48.309342793750005;0.05624996250000436;63;0.75;violin
48.37184275208334;0.05624996250000436;58;0.75;violin
48.43434271041667;0.05624996249999725;63;0.75;violin
48.496842668750006;0.05624996249999725;58;0.75;violin
48.55934262708334;0.05624996249999725;63;0.75;violin
48.62184258541667;0.05624996249999725;58;0.75;violin
48.684342543750006;0.05624996249999725;63;0.75;violin
48.749967500000004;0.05624996250000436;58;0.75;violin
48.749967500000004;0.7468745020833367;66;0.75;violin
48.80934246041667;0.05624996249999725;63;0.75;violin
48.871842418750006;0.05624996249999725;58;0.75;violin
48.93434237708334;0.05624996249999725;63;0.75;violin
48.99684233541667;0.05624996249999725;58;0.75;violin
49.05934229375001;0.05624996249999725;63;0.75;violin
49.12184225208334;0.05624996249999725;58;0.75;violin
49.18434221041667;0.05624996249999725;63;0.75;violin
49.24684216875001;0.05624996249999725;58;0.75;violin
49.30934212708334;0.05624996249999725;63;0.75;violin
49.371842085416674;0.05624996249999725;58;0.75;violin
49.43434204375001;0.05624996249999725;63;0.75;violin
49.499967000000005;0.05624996250000436;57;0.75;violin
49.499967000000005;1.496874002083338;66;0.9921875;violin
49.559341960416674;0.05624996249999725;63;0.75;violin
49.62184191875001;0.05624996249999725;57;0.75;violin
49.68434187708334;0.05624996249999725;63;0.75;violin
49.746841835416674;0.05624996249999725;57;0.75;violin
49.80934179375001;0.05624996249999725;63;0.75;violin
49.87184175208334;0.05624996249999725;57;0.75;violin
49.934341710416675;0.05624996249999725;63;0.75;violin
49.99684166875001;0.05624996249999725;57;0.75;violin
50.05934162708334;0.05624996249999725;63;0.75;violin
50.121841585416675;0.05624996249999725;57;0.75;violin
50.18434154375001;0.05624996249999725;63;0.75;violin
50.249966500000006;0.05624996249999725;57;0.75;violin
50.309341460416675;0.05624996249999725;63;0.75;violin
50.37184141875001;0.05624996249999725;57;0.75;violin
50.43434137708334;0.05624996249999725;63;0.75;violin
50.496841335416676;0.05624996249999725;57;0.75;violin
50.55934129375001;0.05624996249999725;63;0.75;violin
50.62184125208334;0.05624996249999725;57;0.75;violin
50.684341210416676;0.05624996249999725;63;0.75;violin
50.74684116875001;0.05624996249999725;57;0.75;violin
50.80934112708334;0.05624996249999725;63;0.75;violin
50.871841085416676;0.05624996249999725;57;0.75;violin
50.93434104375001;0.05624996249999725;63;0.75;violin
50.99996600000001;0.05624996249999725;58;0.75;violin
50.99996600000001;0.7468745020833296;65;0.75;violin
51.05934096041668;0.05624996249999725;62;0.75;violin
51.12184091875001;0.05624996249999725;58;0.75;violin
51.18434087708334;0.05624996249999725;62;0.75;violin
51.24684083541667;0.05624996250000436;58;0.75;violin
51.30934079375;0.05624996250000436;62;0.75;violin
51.37184075208334;0.05624996250000436;58;0.75;violin
51.43434071041667;0.05624996250000436;62;0.75;violin
51.49684066875;0.05624996250000436;58;0.75;violin
51.55934062708334;0.05624996250000436;62;0.75;violin
51.62184058541667;0.05624996250000436;58;0.75;violin
51.684340543750004;0.05624996250000436;62;0.75;violin
51.74996550000001;0.05624996249999725;58;0.75;violin
51.74996550000001;0.7468745020833296;65;0.75;violin
51.80934046041667;0.05624996250000436;62;0.75;violin
51.871840418750004;0.05624996250000436;58;0.75;violin
51.93434037708334;0.05624996250000436;62;0.75;violin
51.99684033541667;0.05624996250000436;58;0.75;violin
52.059340293750004;0.05624996250000436;62;0.75;violin
52.12184025208334;0.05624996250000436;58;0.75;violin
52.18434021041667;0.05624996250000436;62;0.75;violin
52.246840168750005;0.05624996250000436;58;0.75;violin
52.30934012708334;0.05624996250000436;62;0.75;violin
52.37184008541667;0.05624996250000436;58;0.75;violin
52.434340043750005;0.05624996250000436;62;0.75;violin
52.49996500000001;0.05624996249999725;58;0.75;violin
52.49996500000001;0.7468745020833296;67;0.75;violin
52.55933996041667;0.05624996250000436;63;0.75;violin
52.621839918750005;0.05624996250000436;58;0.75;violin
52.68433987708334;0.05624996250000436;63;0.75;violin
52.74683983541667;0.05624996250000436;58;0.75;violin
52.809339793750006;0.05624996250000436;63;0.75;violin
52.87183975208334;0.05624996250000436;58;0.75;violin
52.93433971041667;0.05624996250000436;63;0.75;violin
52.996839668750006;0.05624996249999725;58;0.75;violin
53.05933962708334;0.05624996249999725;63;0.75;violin
53.12183958541667;0.05624996249999725;58;0.75;violin
53.184339543750006;0.05624996249999725;63;0.75;violin
53.249964500000004;0.05624996250000436;58;0.75;violin
53.249964500000004;0.7468745020833367;66;0.75;violin
53.30933946041667;0.05624996249999725;63;0.75;violin
53.37183941875001;0.05624996249999725;58;0.75;violin
53.43433937708334;0.05624996249999725;63;0.75;violin
53.496839335416674;0.05624996249999725;58;0.75;violin
53.55933929375001;0.05624996249999725;63;0.75;violin
53.62183925208334;0.05624996249999725;58;0.75;violin
53.684339210416674;0.05624996249999725;63;0.75;violin
53.74683916875001;0.05624996249999725;58;0.75;violin
53.80933912708334;0.05624996249999725;63;0.75;violin
53.871839085416674;0.05624996249999725;58;0.75;violin
53.93433904375001;0.05624996249999725;63;0.75;violin
53.999964000000006;0.05624996250000436;57;0.75;violin
53.999964000000006;1.496874002083338;66;0.75;violin
54.059338960416675;0.05624996249999725;63;0.75;violin
54.12183891875001;0.05624996249999725;57;0.75;violin
54.18433887708334;0.05624996249999725;63;0.75;violin
54.246838835416675;0.05624996249999725;57;0.75;violin
54.30933879375001;0.05624996249999725;63;0.75;violin
54.37183875208334;0.05624996249999725;57;0.75;violin
54.434338710416675;0.05624996249999725;63;0.75;violin
54.49683866875001;0.05624996249999725;57;0.75;violin
54.55933862708334;0.05624996249999725;63;0.75;violin
54.621838585416675;0.05624996249999725;57;0.75;violin
54.68433854375001;0.05624996249999725;63;0.75;violin
54.74996350000001;0.05624996249999725;57;0.75;violin
54.809338460416676;0.05624996249999725;63;0.75;violin
54.87183841875001;0.05624996249999725;57;0.75;violin
54.93433837708334;0.05624996249999725;63;0.75;violin
54.996838335416676;0.05624996249999725;57;0.75;violin
55.05933829375001;0.05624996249999725;63;0.75;violin
55.12183825208334;0.05624996249999725;57;0.75;violin
55.184338210416676;0.05624996249999725;63;0.75;violin
55.24683816875001;0.05624996249999725;57;0.75;violin
55.30933812708334;0.05624996249999725;63;0.75;violin
55.37183808541668;0.05624996249999725;57;0.75;violin
55.43433804375001;0.05624996249999725;63;0.75;violin
55.49996300000001;0.05624996249999725;58;0.75;violin
55.49996300000001;0.7468745020833296;65;0.75;violin
55.55933796041668;0.05624996249999725;62;0.75;violin
55.62183791875001;0.05624996249999725;58;0.75;violin
55.684337877083344;0.05624996249999725;62;0.75;violin
55.74683783541668;0.05624996249999725;58;0.75;violin
55.809337793750004;0.05624996250000436;62;0.75;violin
55.87183775208334;0.05624996250000436;58;0.75;violin
55.93433771041667;0.05624996250000436;62;0.75;violin
55.996837668750004;0.05624996250000436;58;0.75;violin
56.05933762708334;0.05624996250000436;62;0.75;violin
56.12183758541667;0.05624996250000436;58;0.75;violin
56.184337543750004;0.05624996250000436;62;0.75;violin
56.24996250000001;0.05624996249999725;62;0.75;violin
56.24996250000001;0.7468745020833296;70;0.75;violin
56.30933746041667;0.05624996250000436;68;0.75;violin
56.371837418750005;0.05624996250000436;62;0.75;violin
56.43433737708334;0.05624996250000436;68;0.75;violin
56.49683733541667;0.05624996250000436;62;0.75;violin
56.559337293750005;0.05624996250000436;68;0.75;violin
56.62183725208334;0.05624996250000436;62;0.75;violin
56.68433721041667;0.05624996250000436;68;0.75;violin
56.746837168750005;0.05624996250000436;62;0.75;violin
56.80933712708334;0.05624996250000436;68;0.75;violin
56.87183708541667;0.05624996250000436;62;0.75;violin
56.934337043750006;0.05624996250000436;68;0.75;violin
56.99996200000001;0.05624996249999725;63;0.75;violin
56.99996200000001;0.7468745020833296;70;0.75;violin
57.05933696041667;0.05624996250000436;67;0.75;violin
57.121836918750006;0.05624996250000436;63;0.75;violin
57.18433687708334;0.05624996250000436;67;0.75;violin
57.24683683541667;0.05624996250000436;63;0.75;violin
57.309336793750006;0.05624996250000436;67;0.75;violin
57.37183675208334;0.05624996250000436;63;0.75;violin
57.43433671041667;0.05624996250000436;67;0.75;violin
57.49683666875001;0.05624996250000436;63;0.75;violin
57.55933662708334;0.05624996249999725;67;0.75;violin
57.62183658541667;0.05624996249999725;63;0.75;violin
57.68433654375001;0.05624996249999725;67;0.75;violin
57.749961500000005;0.05624996250000436;64;0.75;violin
57.749961500000005;0.7468745020833367;72;0.75;violin
57.809336460416674;0.05624996249999725;70;0.75;violin
57.87183641875001;0.05624996249999725;64;0.75;violin
57.93433637708334;0.05624996249999725;70;0.75;violin
57.996836335416674;0.05624996249999725;64;0.75;violin
58.05933629375001;0.05624996249999725;70;0.75;violin
58.12183625208334;0.05624996249999725;64;0.75;violin
58.184336210416674;0.05624996249999725;70;0.75;violin
58.24683616875001;0.05624996249999725;64;0.75;violin
58.30933612708334;0.05624996249999725;70;0.75;violin
58.371836085416675;0.05624996249999725;64;0.75;violin
58.43433604375001;0.05624996249999725;70;0.75;violin
58.499961000000006;0.05624996250000436;65;0.75;violin
58.499961000000006;0.7468745020833367;72;0.75;violin
58.559335960416675;0.05624996249999725;69;0.75;violin
58.62183591875001;0.05624996249999725;65;0.75;violin
58.68433587708334;0.05624996249999725;69;0.75;violin
58.746835835416675;0.05624996249999725;65;0.75;violin
58.80933579375001;0.05624996249999725;69;0.75;violin
58.87183575208334;0.05624996249999725;65;0.75;violin
58.934335710416676;0.05624996249999725;69;0.75;violin
58.99683566875001;0.05624996249999725;65;0.75;violin
59.05933562708334;0.05624996249999725;69;0.75;violin
59.121835585416676;0.05624996249999725;65;0.75;violin
59.18433554375001;0.05624996249999725;69;0.75;violin
59.24996050000001;0.05624996249999725;66;0.75;violin
59.24996050000001;0.7468745020833367;74;0.75;violin
59.309335460416676;0.05624996249999725;72;0.75;violin
59.37183541875001;0.05624996249999725;66;0.75;violin
59.43433537708334;0.05624996249999725;72;0.75;violin
59.49683533541668;0.05624996249999725;66;0.75;violin
59.55933529375001;0.05624996249999725;72;0.75;violin
59.62183525208334;0.05624996249999725;66;0.75;violin
59.68433521041668;0.05624996249999725;72;0.75;violin
59.74683516875001;0.05624996249999725;66;0.75;violin
59.809335127083344;0.05624996249999725;72;0.75;violin
59.87183508541668;0.05624996249999725;66;0.75;violin
59.93433504375001;0.05624996249999725;72;0.75;violin
59.99996000000001;0.05624996249999725;67;0.75;violin
59.99996000000001;0.7468745020833296;75;0.75;violin
60.05933496041668;0.05624996249999725;70;0.75;violin
60.12183491875001;0.05624996249999725;67;0.75;violin
60.184334877083344;0.05624996249999725;70;0.75;violin
60.24683483541668;0.05624996249999725;67;0.75;violin
60.30933479375001;0.05624996249999725;70;0.75;violin
60.37183475208334;0.05624996250000436;67;0.75;violin
60.43433471041667;0.05624996250000436;70;0.75;violin
60.496834668750004;0.05624996250000436;67;0.75;violin
60.55933462708334;0.05624996250000436;70;0.75;violin
60.62183458541667;0.05624996250000436;67;0.75;violin
60.684334543750005;0.05624996250000436;70;0.75;violin
60.74995950000001;0.05624996249999725;69;0.75;violin
60.74995950000001;0.7468745020833296;77;0.75;violin
60.80933446041667;0.05624996250000436;75;0.75;violin
60.871834418750005;0.05624996250000436;69;0.75;violin
60.93433437708334;0.05624996250000436;75;0.75;violin
60.99683433541667;0.05624996250000436;69;0.75;violin
61.059334293750005;0.05624996250000436;75;0.75;violin
61.12183425208334;0.05624996250000436;69;0.75;violin
61.18433421041667;0.05624996250000436;75;0.75;violin
61.246834168750006;0.05624996250000436;69;0.75;violin
61.30933412708334;0.05624996250000436;75;0.75;violin
61.37183408541667;0.05624996250000436;69;0.75;violin
61.434334043750006;0.05624996250000436;75;0.75;violin
61.49995900000001;0.05624996249999725;70;0.75;violin
61.49995900000001;0.7468745020833296;77;0.75;violin
61.55933396041667;0.05624996250000436;74;0.75;violin
61.621833918750006;0.05624996250000436;70;0.75;violin
61.68433387708334;0.05624996250000436;74;0.75;violin
61.74683383541667;0.05624996250000436;70;0.75;violin
61.80933379375001;0.05624996250000436;74;0.75;violin
61.87183375208334;0.05624996250000436;70;0.75;violin
61.934333710416674;0.05624996250000436;74;0.75;violin
61.99683366875001;0.05624996250000436;70;0.75;violin
62.05933362708334;0.05624996250000436;74;0.75;violin
62.121833585416674;0.05624996249999725;70;0.75;violin
62.18433354375001;0.05624996249999725;74;0.75;violin
62.249958500000005;0.05624996250000436;72;0.75;violin
62.249958500000005;0.7468745020833367;81;0.75;violin
62.309333460416674;0.05624996249999725;75;0.75;violin
62.37183341875001;0.05624996249999725;72;0.75;violin
62.43433337708334;0.05624996249999725;75;0.75;violin
62.496833335416675;0.05624996249999725;72;0.75;violin
62.55933329375001;0.05624996249999725;75;0.75;violin
62.62183325208334;0.05624996249999725;72;0.75;violin
62.684333210416675;0.05624996249999725;75;0.75;violin
62.74683316875001;0.05624996249999725;72;0.75;violin
62.80933312708334;0.05624996249999725;75;0.75;violin
62.871833085416675;0.05624996249999725;72;0.75;violin
62.93433304375001;0.05624996249999725;75;0.75;violin
62.99995800000001;0.05624996250000436;74;0.75;violin
62.99995800000001;0.7468745020833367;82;0.75;violin
63.059332960416675;0.05624996249999725;77;0.75;violin
63.12183291875001;0.05624996249999725;74;0.75;violin
63.18433287708334;0.05624996249999725;77;0.75;violin
63.246832835416676;0.05624996249999725;74;0.75;violin
63.30933279375001;0.05624996249999725;77;0.75;violin
63.37183275208334;0.05624996249999725;74;0.75;violin
63.434332710416676;0.05624996249999725;77;0.75;violin
63.49683266875001;0.05624996249999725;74;0.75;violin
63.55933262708334;0.05624996249999725;77;0.75;violin
63.621832585416676;0.05624996249999725;74;0.75;violin
63.68433254375001;0.05624996249999725;77;0.75;violin
63.74995750000001;0.05624996249999725;75;0.75;violin
63.74995750000001;0.7468745020833296;82;0.75;violin
63.80933246041668;0.05624996249999725;79;0.75;violin
63.87183241875001;0.05624996249999725;75;0.75;violin
63.934332377083344;0.05624996249999725;79;0.75;violin
63.99683233541668;0.05624996249999725;75;0.75;violin
64.05933229375;0.05624996250000436;79;0.75;violin
64.12183225208334;0.05624996250000436;75;0.75;violin
64.18433221041667;0.05624996250000436;79;0.75;violin
64.24683216875;0.05624996250000436;75;0.75;violin
64.30933212708334;0.05624996250000436;79;0.75;violin
64.37183208541667;0.05624996250000436;75;0.75;violin
64.43433204375;0.05624996250000436;79;0.75;violin
64.49995700000001;0.05624996250000436;76;0.75;violin
64.49995700000001;0.7468745020833296;84;0.75;violin
64.55933196041667;0.05624996250000436;79;0.75;violin
64.62183191875;0.05624996250000436;76;0.75;violin
64.68433187708334;0.05624996250000436;79;0.75;violin
64.74683183541667;0.05624996250000436;76;0.75;violin
64.80933179375;0.05624996250000436;79;0.75;violin
64.87183175208334;0.05624996250000436;76;0.75;violin
64.93433171041667;0.05624996250000436;79;0.75;violin
64.99683166875;0.05624996250000436;76;0.75;violin
65.05933162708334;0.05624996250000436;79;0.75;violin
65.12183158541667;0.05624996250000436;76;0.75;violin
65.18433154375;0.05624996250000436;79;0.75;violin
65.24995650000001;0.05624996250000436;76;0.75;violin
65.24995650000001;0.7468745020833296;85;0.75;violin
65.30933146041667;0.05624996250000436;79;0.75;violin
65.37183141875;0.05624996250000436;76;0.75;violin
65.43433137708334;0.05624996250000436;79;0.75;violin
65.49683133541667;0.05624996250000436;76;0.75;violin
65.55933129375;0.05624996250000436;79;0.75;violin
65.62183125208334;0.05624996250000436;76;0.75;violin
65.68433121041667;0.05624996250000436;79;0.75;violin
65.74683116875;0.05624996250000436;76;0.75;violin
65.80933112708334;0.05624996250000436;79;0.75;violin
65.87183108541667;0.05624996250000436;76;0.75;violin
65.93433104375;0.05624996250000436;79;0.75;violin
65.99995600000001;0.05624996249999015;79;0.75;violin
65.99995600000001;0.7468745020833296;88;0.75;violin
66.05933096041667;0.05624996250000436;82;0.75;violin
66.12183091875;0.05624996250000436;79;0.75;violin
66.18433087708334;0.05624996250000436;82;0.75;violin
66.24683083541667;0.05624996250000436;79;0.75;violin
66.30933079375001;0.05624996250000436;82;0.75;violin
66.37183075208334;0.05624996250000436;79;0.75;violin
66.43433071041667;0.05624996250000436;82;0.75;violin
66.49683066875001;0.05624996250000436;79;0.75;violin
66.55933062708334;0.05624996250000436;82;0.75;violin
66.62183058541667;0.05624996250000436;79;0.75;violin
66.68433054375001;0.05624996250000436;82;0.75;violin
66.74995550000001;0.05624996249999015;76;0.75;violin
66.74995550000001;0.7468745020833296;85;0.75;violin
66.80933046041667;0.05624996250000436;79;0.75;violin
66.87183041875001;0.05624996250000436;76;0.75;violin
66.93433037708334;0.05624996250000436;79;0.75;violin
66.99683033541667;0.05624996250000436;76;0.75;violin
67.05933029375001;0.05624996250000436;79;0.75;violin
67.12183025208334;0.05624996250000436;76;0.75;violin
67.18433021041668;0.05624996250000436;79;0.75;violin
67.24683016875001;0.05624996250000436;76;0.75;violin
67.30933012708334;0.05624996250000436;79;0.75;violin
67.37183008541668;0.05624996250000436;76;0.75;violin
67.43433004375001;0.05624996250000436;79;0.75;violin
67.49995500000001;0.05624996249999015;77;0.75;violin
67.49995500000001;0.7468745020833296;86;0.75;violin
67.55932996041668;0.05624996250000436;82;0.75;violin
67.62182991875001;0.05624996250000436;77;0.75;violin
67.68432987708334;0.05624996250000436;82;0.75;violin
67.74682983541668;0.05624996250000436;77;0.75;violin
67.80932979375001;0.05624996250000436;82;0.75;violin
67.87182975208334;0.05624996250000436;77;0.75;violin
67.93432971041668;0.05624996250000436;82;0.75;violin
67.99682966875001;0.05624996250000436;77;0.75;violin
68.05932962708334;0.05624996250000436;82;0.75;violin
68.12182958541668;0.05624996250000436;77;0.75;violin
68.18432954375001;0.05624996250000436;82;0.75;violin
68.24995450000002;0.05624996249999015;74;0.75;violin
68.24995450000002;0.7468745020833296;82;0.75;violin
68.30932946041668;0.05624996250000436;77;0.75;violin
68.37182941875001;0.05624996250000436;74;0.75;violin
68.43432937708334;0.05624996250000436;77;0.75;violin
68.49682933541668;0.05624996250000436;74;0.75;violin
68.55932929375001;0.05624996250000436;77;0.75;violin
68.62182925208334;0.05624996250000436;74;0.75;violin
68.68432921041668;0.05624996250000436;77;0.75;violin
68.74682916875001;0.05624996250000436;74;0.75;violin
68.80932912708334;0.05624996250000436;77;0.75;violin
68.87182908541668;0.05624996250000436;74;0.75;violin
68.93432904375001;0.05624996250000436;77;0.75;violin
68.999954;0.05624996250000436;70;0.75;violin
68.999954;0.7468745020833438;77;0.75;violin
69.05932896041668;0.05624996249999015;74;0.75;violin
69.12182891875001;0.05624996249999015;70;0.75;violin
69.18432887708335;0.05624996249999015;74;0.75;violin
69.24682883541668;0.05624996249999015;70;0.75;violin
69.30932879375001;0.05624996249999015;74;0.75;violin
69.37182875208335;0.05624996249999015;70;0.75;violin
69.43432871041668;0.05624996249999015;74;0.75;violin
69.49682866875001;0.05624996249999015;70;0.75;violin
69.55932862708335;0.05624996249999015;74;0.75;violin
69.62182858541668;0.05624996249999015;70;0.75;violin
69.68432854375001;0.05624996249999015;74;0.75;violin
69.7499535;0.7468745020833438;65;0.75;violin
69.7499535;0.05624996250000436;70;0.75;violin
69.80932846041668;0.05624996249999015;74;0.75;violin
69.87182841875001;0.05624996249999015;70;0.75;violin
69.93432837708335;0.05624996249999015;74;0.75;violin
69.99682833541668;0.05624996249999015;70;0.75;violin
70.05932829375001;0.05624996249999015;74;0.75;violin
70.12182825208335;0.05624996249999015;70;0.75;violin
70.18432821041668;0.05624996249999015;74;0.75;violin
70.24682816875001;0.05624996249999015;70;0.75;violin
70.30932812708335;0.05624996249999015;74;0.75;violin
70.37182808541668;0.05624996249999015;70;0.75;violin
70.43432804375001;0.05624996249999015;74;0.75;violin
70.499953;0.7468745020833438;63;0.75;violin
70.499953;0.05624996250000436;69;0.75;violin
70.55932796041668;0.05624996249999015;72;0.75;violin
70.62182791875001;0.05624996249999015;69;0.75;violin
70.68432787708335;0.05624996249999015;72;0.75;violin
70.74682783541668;0.05624996249999015;69;0.75;violin
70.80932779375001;0.05624996249999015;72;0.75;violin
70.87182775208335;0.05624996249999015;69;0.75;violin
70.93432771041668;0.05624996249999015;72;0.75;violin
70.99682766875002;0.05624996249999015;69;0.75;violin
71.05932762708335;0.05624996249999015;72;0.75;violin
71.12182758541668;0.05624996249999015;69;0.75;violin
71.18432754375002;0.05624996249999015;72;0.75;violin
71.2499525;0.7468745020833296;60;0.75;violin
71.2499525;0.05624996250000436;63;0.75;violin
71.30932746041668;0.05624996249999015;69;0.75;violin
71.37182741875002;0.05624996249999015;63;0.75;violin
71.43432737708335;0.05624996249999015;69;0.75;violin
71.49682733541668;0.05624996249999015;63;0.75;violin
71.55932729375002;0.05624996249999015;69;0.75;violin
71.62182725208335;0.05624996249999015;63;0.75;violin
71.68432721041668;0.05624996249999015;69;0.75;violin
71.74682716875002;0.05624996249999015;63;0.75;violin
71.80932712708334;0.05624996250000436;69;0.75;violin
71.87182708541667;0.05624996250000436;63;0.75;violin
71.93432704375;0.05624996250000436;69;0.75;violin
71.99995200000001;0.7468745020833296;58;0.75;violin
71.99995200000001;0.05624996250000436;62;0.75;violin
72.05932696041667;0.05624996250000436;70;0.75;violin
72.12182691875;0.05624996250000436;62;0.75;violin
72.18432687708334;0.05624996250000436;70;0.75;violin
72.24682683541667;0.05624996250000436;62;0.7421875;violin
72.30932679375;0.05624996250000436;70;0.7421875;violin
72.37182675208334;0.05624996250000436;62;0.7421875;violin
72.43432671041667;0.05624996250000436;70;0.734375;violin
72.49682666875;0.05624996250000436;62;0.734375;violin
72.55932662708334;0.05624996250000436;70;0.734375;violin
72.62182658541667;0.05624996250000436;62;0.7265625;violin
72.68432654375;0.05624996250000436;70;0.7265625;violin
72.74995150000001;0.7468745020833296;58;0.7265625;violin
72.74995150000001;0.05624996250000436;62;0.7265625;violin
72.80932646041667;0.05624996250000436;69;0.71875;violin
72.87182641875;0.05624996250000436;62;0.71875;violin
72.93432637708334;0.05624996250000436;69;0.71875;violin
72.99682633541667;0.05624996250000436;62;0.7109375;violin
73.05932629375;0.05624996250000436;69;0.7109375;violin
73.12182625208334;0.05624996250000436;62;0.7109375;violin
73.18432621041667;0.05624996250000436;69;0.703125;violin
73.24682616875;0.05624996250000436;62;0.703125;violin
73.30932612708334;0.05624996250000436;69;0.703125;violin
73.37182608541667;0.05624996250000436;62;0.6953125;violin
73.43432604375;0.05624996250000436;69;0.6953125;violin
73.49995100000001;0.7468745020833296;58;0.6953125;violin
73.49995100000001;0.05624996250000436;62;0.6953125;violin
73.55932596041667;0.05624996250000436;68;0.6875;violin
73.62182591875;0.05624996250000436;62;0.6875;violin
73.68432587708334;0.05624996250000436;68;0.6875;violin
73.74682583541667;0.05624996250000436;62;0.6796875;violin
73.80932579375;0.05624996250000436;68;0.6796875;violin
73.87182575208334;0.05624996250000436;62;0.6796875;violin
73.93432571041667;0.05624996250000436;68;0.671875;violin
73.99682566875;0.05624996250000436;62;0.671875;violin
74.05932562708334;0.05624996250000436;68;0.671875;violin
74.12182558541667;0.05624996250000436;62;0.6640625;violin
74.18432554375;0.05624996250000436;68;0.6640625;violin
74.24995050000001;0.7468745020833296;58;0.6640625;violin
74.24995050000001;0.05624996250000436;63;0.6640625;violin
74.30932546041667;0.05624996250000436;67;0.65625;violin
74.37182541875;0.05624996250000436;63;0.65625;violin
74.43432537708334;0.05624996250000436;67;0.65625;violin
74.49682533541667;0.05624996250000436;63;0.6484375;violin
74.55932529375;0.05624996250000436;67;0.6484375;violin
74.62182525208334;0.05624996250000436;63;0.6484375;violin
74.68432521041667;0.05624996250000436;67;0.640625;violin
74.74682516875001;0.05624996250000436;63;0.640625;violin
74.80932512708334;0.05624996250000436;67;0.640625;violin
74.87182508541667;0.05624996250000436;63;0.640625;violin
74.93432504375001;0.05624996250000436;67;0.6328125;violin
74.99995000000001;0.7468745020833296;57;0.6328125;violin
74.99995000000001;0.05624996249999015;63;0.6328125;violin
75.05932496041667;0.05624996250000436;66;0.6328125;violin
75.12182491875001;0.05624996250000436;63;0.625;violin
75.18432487708334;0.05624996250000436;66;0.625;violin
75.24682483541667;0.05624996250000436;63;0.625;violin
75.30932479375001;0.05624996250000436;66;0.6171875;violin
75.37182475208334;0.05624996250000436;63;0.6171875;violin
75.43432471041667;0.05624996250000436;66;0.6171875;violin
75.49682466875001;0.05624996250000436;63;0.609375;violin
75.55932462708334;0.05624996250000436;66;0.609375;violin
75.62182458541668;0.05624996250000436;63;0.609375;violin
75.68432454375001;0.05624996250000436;66;0.6015625;violin
75.74994950000001;0.7468745020833296;57;0.6015625;violin
75.74994950000001;0.05624996249999015;63;0.6015625;violin
75.80932446041668;0.05624996250000436;65;0.6015625;violin
75.87182441875001;0.05624996250000436;63;0.59375;violin
75.93432437708334;0.05624996250000436;65;0.59375;violin
75.99682433541668;0.05624996250000436;63;0.59375;violin
76.05932429375001;0.05624996250000436;65;0.5859375;violin
76.12182425208334;0.05624996250000436;63;0.5859375;violin
76.18432421041668;0.05624996250000436;65;0.5859375;violin
76.24682416875001;0.05624996250000436;63;0.578125;violin
76.30932412708334;0.05624996250000436;65;0.578125;violin
76.37182408541668;0.05624996250000436;63;0.578125;violin
76.43432404375001;0.05624996250000436;65;0.5703125;violin
76.49994900000002;1.4968740020833309;58;0.5703125;violin
76.49994900000002;0.05624996249999015;63;0.5703125;violin
76.55932396041668;0.05624996250000436;65;0.5703125;violin
76.62182391875001;0.05624996250000436;63;0.5625;violin
76.68432387708334;0.05624996250000436;65;0.5625;violin
76.74682383541668;0.05624996250000436;63;0.5625;violin
76.80932379375001;0.05624996250000436;65;0.5546875;violin
76.87182375208334;0.05624996250000436;63;0.5546875;violin
76.93432371041668;0.05624996250000436;65;0.5546875;violin
76.99682366875001;0.05624996250000436;63;0.546875;violin
77.05932362708334;0.05624996250000436;65;0.546875;violin
77.12182358541668;0.05624996250000436;63;0.546875;violin
77.18432354375001;0.05624996250000436;65;0.5390625;violin
77.24994850000002;0.05624996249999015;63;0.5390625;violin
77.30932346041668;0.05624996250000436;65;0.5390625;violin
77.37182341875001;0.05624996250000436;63;0.53125;violin
77.43432337708335;0.05624996250000436;65;0.53125;violin
77.49682333541668;0.05624996250000436;63;0.53125;violin
77.55932329375001;0.05624996250000436;65;0.5234375;violin
77.62182325208335;0.05624996250000436;63;0.5234375;violin
77.68432321041668;0.05624996250000436;65;0.5234375;violin
77.74682316875001;0.05624996250000436;63;0.515625;violin
77.80932312708335;0.05624996250000436;65;0.515625;violin
77.87182308541668;0.05624996250000436;63;0.515625;violin
77.93432304375001;0.05624996250000436;65;0.515625;violin
77.999948;1.496874002083345;58;0.5078125;violin
77.999948;0.05624996250000436;62;0.5078125;violin
78.05932296041668;0.05624996250000436;65;0.5078125;violin
78.12182291875001;0.05624996249999015;62;0.5078125;violin
78.18432287708335;0.05624996249999015;65;0.5;violin
78.24682283541668;0.05624996249999015;62;0.5;violin
78.30932279375001;0.05624996249999015;65;0.5;violin
78.37182275208335;0.05624996249999015;62;0.4921875;violin
78.43432271041668;0.05624996249999015;65;0.4921875;violin
78.49682266875001;0.05624996249999015;62;0.4921875;violin
78.55932262708335;0.05624996249999015;65;0.484375;violin
78.62182258541668;0.05624996249999015;62;0.484375;violin
78.68432254375001;0.05624996249999015;65;0.484375;violin
78.7499475;0.05624996250000436;62;0.4765625;violin
78.80932246041668;0.05624996249999015;65;0.4765625;violin
78.87182241875001;0.05624996249999015;62;0.4765625;violin
78.93432237708335;0.05624996249999015;65;0.46875;violin
78.99682233541668;0.05624996249999015;62;0.46875;violin
79.05932229375001;0.05624996249999015;65;0.46875;violin
79.12182225208335;0.05624996249999015;62;0.4609375;violin
79.18432221041668;0.05624996249999015;65;0.4609375;violin
79.24682216875001;0.05624996249999015;62;0.4609375;violin
79.30932212708335;0.05624996249999015;65;0.453125;violin
79.37182208541668;0.05624996249999015;62;0.453125;violin
79.43432204375002;0.05624996249999015;65;0.453125;violin
79.499947;1.4968740020833309;57;0.4453125;violin
79.499947;0.05624996250000436;62;0.4453125;violin
79.55932196041668;0.05624996249999015;66;0.4453125;violin
79.62182191875002;0.05624996249999015;62;0.4453125;violin
79.68432187708335;0.05624996249999015;66;0.4375;violin
79.74682183541668;0.05624996249999015;62;0.4375;violin
79.80932179375002;0.05624996249999015;66;0.4375;violin
79.87182175208335;0.05624996249999015;62;0.4296875;violin
79.93432171041668;0.05624996249999015;66;0.4296875;violin
79.99682166875002;0.05624996249999015;62;0.4296875;violin
80.05932162708335;0.05624996249999015;66;0.421875;violin
80.12182158541668;0.05624996249999015;62;0.421875;violin
80.18432154375002;0.05624996249999015;66;0.421875;violin
80.24994650000001;0.05624996250000436;62;0.4140625;violin
80.30932146041668;0.05624996249999015;66;0.4140625;violin
80.37182141875002;0.05624996249999015;62;0.4140625;violin
80.43432137708335;0.05624996249999015;66;0.40625;violin
80.49682133541668;0.05624996249999015;62;0.40625;violin
80.55932129375002;0.05624996249999015;66;0.40625;violin
80.62182125208335;0.05624996249999015;62;0.3984375;violin
80.68432121041668;0.05624996249999015;66;0.3984375;violin
80.74682116875002;0.05624996249999015;62;0.3984375;violin
80.80932112708335;0.05624996249999015;66;0.390625;violin
80.87182108541668;0.05624996249999015;62;0.390625;violin
80.93432104375;0.05624996250000436;66;0.390625;violin
80.99994600000001;0.05937496041666179;67;0.625;violin
80.99994600000001;2.246873502083332;74;0.625;violin
81.06244595833334;0.05937496041666179;70;0.625;violin
81.12494591666668;0.05937496041666179;67;0.625;violin
81.18744587500001;0.05937496041666179;70;0.625;violin
81.24994583333334;0.05937496041666179;67;0.625;violin
81.31244579166668;0.05937496041666179;70;0.625;violin
81.37494575000001;0.05937496041666179;67;0.625;violin
81.43744570833334;0.05937496041666179;70;0.625;violin
81.49994566666668;0.05937496041666179;67;0.625;violin
81.56244562500001;0.05937496041666179;70;0.625;violin
81.62494558333334;0.05937496041666179;67;0.625;violin
81.68744554166668;0.05937496041666179;70;0.625;violin
81.74994550000001;0.05937496041666179;67;0.625;violin
81.81244545833334;0.05937496041666179;70;0.625;violin
81.87494541666668;0.05937496041666179;67;0.625;violin
81.93744537500001;0.05937496041666179;70;0.625;violin
81.99994533333334;0.05937496041666179;67;0.625;violin
82.06244529166668;0.05937496041666179;70;0.625;violin
82.12494525000001;0.05937496041666179;67;0.625;violin
82.18744520833334;0.05937496041666179;70;0.625;violin
82.24994516666668;0.05937496041666179;67;0.625;violin
82.31244512500001;0.05937496041666179;70;0.625;violin
82.37494508333334;0.05937496041666179;67;0.625;violin
82.43744504166668;0.05937496041666179;70;0.625;violin
82.49994500000001;0.05937496041666179;67;0.625;violin
82.56244495833334;0.05937496041666179;70;0.625;violin
82.62494491666668;0.05937496041666179;67;0.625;violin
82.68744487500001;0.05937496041666179;70;0.625;violin
82.74994483333334;0.05937496041666179;67;0.625;violin
82.81244479166668;0.05937496041666179;70;0.625;violin
82.87494475000001;0.05937496041666179;67;0.625;violin
82.93744470833335;0.05937496041666179;70;0.625;violin
82.99994466666668;0.05937496041666179;67;0.625;violin
83.06244462500001;0.05937496041666179;70;0.625;violin
83.12494458333335;0.05937496041666179;67;0.625;violin
83.18744454166668;0.05937496041666179;70;0.625;violin
83.24994450000001;0.05937496041666179;67;0.625;violin
83.24994450000001;0.7468745020833296;79;0.625;violin
83.31244445833335;0.05937496041666179;75;0.625;violin
83.37494441666668;0.05937496041666179;67;0.625;violin
83.43744437500001;0.05937496041666179;75;0.625;violin
83.49994433333335;0.05937496041666179;67;0.625;violin
83.56244429166668;0.05937496041666179;75;0.625;violin
83.62494425000001;0.05937496041666179;67;0.625;violin
83.68744420833335;0.05937496041666179;75;0.625;violin
83.74994416666668;0.05937496041666179;67;0.625;violin
83.81244412500001;0.05937496041666179;75;0.625;violin
83.87494408333335;0.05937496041666179;67;0.625;violin
83.93744404166668;0.05937496041666179;75;0.625;violin
83.99994400000001;0.05937496041666179;67;0.625;violin
83.99994400000001;0.7468745020833296;78;0.625;violin
84.06244395833335;0.05937496041666179;74;0.625;violin
84.12494391666668;0.05937496041666179;67;0.625;violin
84.18744387500001;0.05937496041666179;74;0.625;violin
84.24994383333335;0.05937496041666179;67;0.625;violin
84.31244379166668;0.05937496041666179;74;0.625;violin
84.37494375000001;0.05937496041666179;67;0.625;violin
84.43744370833335;0.05937496041666179;74;0.625;violin
84.49994366666668;0.05937496041666179;67;0.625;violin
84.56244362500001;0.05937496041666179;74;0.625;violin
84.62494358333335;0.05937496041666179;67;0.625;violin
84.68744354166668;0.05937496041666179;74;0.625;violin
84.74994350000001;0.05937496041666179;67;0.625;violin
84.74994350000001;0.7468745020833296;75;0.625;violin
84.81244345833335;0.05937496041666179;72;0.625;violin
84.87494341666668;0.05937496041666179;67;0.625;violin
84.93744337500002;0.05937496041666179;72;0.625;violin
84.99994333333335;0.05937496041666179;67;0.625;violin
85.06244329166668;0.05937496041666179;72;0.625;violin
85.12494325000002;0.05937496041666179;67;0.625;violin
85.18744320833335;0.05937496041666179;72;0.625;violin
85.24994316666668;0.05937496041666179;67;0.625;violin
85.31244312500002;0.05937496041666179;72;0.625;violin
85.37494308333335;0.05937496041666179;67;0.625;violin
85.43744304166668;0.05937496041666179;72;0.625;violin
85.49994300000002;0.05624996249999015;67;0.625;violin
85.49994300000002;2.246873502083332;74;0.625;violin
85.55931796041668;0.05624996250000436;70;0.625;violin
85.62181791875001;0.05624996250000436;67;0.625;violin
85.68431787708334;0.05624996250000436;70;0.625;violin
85.74681783541668;0.05624996250000436;67;0.625;violin
85.80931779375001;0.05624996250000436;70;0.625;violin
85.87181775208334;0.05624996250000436;67;0.625;violin
85.93431771041668;0.05624996250000436;70;0.625;violin
85.99681766875001;0.05624996250000436;67;0.625;violin
86.05931762708335;0.05624996250000436;70;0.625;violin
86.12181758541668;0.05624996250000436;67;0.625;violin
86.18431754375001;0.05624996250000436;70;0.625;violin
86.24994250000002;0.05624996249999015;67;0.625;violin
86.30931746041668;0.05624996250000436;70;0.625;violin
86.37181741875001;0.05624996250000436;67;0.625;violin
86.43431737708335;0.05624996250000436;70;0.625;violin
86.49681733541668;0.05624996250000436;67;0.625;violin
86.55931729375001;0.05624996250000436;70;0.625;violin
86.62181725208335;0.05624996250000436;67;0.625;violin
86.68431721041668;0.05624996250000436;70;0.625;violin
86.74681716875001;0.05624996250000436;67;0.625;violin
86.80931712708335;0.05624996250000436;70;0.625;violin
86.87181708541668;0.05624996250000436;67;0.625;violin
86.93431704375001;0.05624996250000436;70;0.625;violin
86.999942;0.05624996250000436;67;0.625;violin
87.05931696041668;0.05624996250000436;70;0.625;violin
87.12181691875001;0.05624996250000436;67;0.625;violin
87.18431687708335;0.05624996250000436;70;0.625;violin
87.24681683541668;0.05624996250000436;67;0.625;violin
87.30931679375001;0.05624996249999015;70;0.625;violin
87.37181675208335;0.05624996249999015;67;0.625;violin
87.43431671041668;0.05624996249999015;70;0.625;violin
87.49681666875001;0.05624996249999015;67;0.625;violin
87.55931662708335;0.05624996249999015;70;0.625;violin
87.62181658541668;0.05624996249999015;67;0.625;violin
87.68431654375001;0.05624996249999015;70;0.625;violin
87.7499415;0.05624996250000436;65;0.625;violin
87.7499415;0.7468745020833438;74;0.625;violin
87.80931646041668;0.05624996249999015;69;0.625;violin
87.87181641875002;0.05624996249999015;65;0.625;violin
87.93431637708335;0.05624996249999015;69;0.625;violin
87.99681633541668;0.05624996249999015;65;0.625;violin
88.05931629375002;0.05624996249999015;69;0.625;violin
88.12181625208335;0.05624996249999015;65;0.625;violin
88.18431621041668;0.05624996249999015;69;0.625;violin
88.24681616875002;0.05624996249999015;65;0.625;violin
88.30931612708335;0.05624996249999015;69;0.625;violin
88.37181608541668;0.05624996249999015;65;0.625;violin
88.43431604375002;0.05624996249999015;69;0.625;violin
88.499941;0.05624996250000436;63;0.625;violin
88.499941;0.7468745020833438;72;0.625;violin
88.55931596041668;0.05624996249999015;67;0.625;violin
88.62181591875002;0.05624996249999015;63;0.625;violin
88.68431587708335;0.05624996249999015;67;0.625;violin
88.74681583541668;0.05624996249999015;63;0.625;violin
88.80931579375002;0.05624996249999015;67;0.625;violin
88.87181575208335;0.05624996249999015;63;0.625;violin
88.93431571041668;0.05624996249999015;67;0.625;violin
88.99681566875002;0.05624996249999015;63;0.625;violin
89.05931562708335;0.05624996249999015;67;0.625;violin
89.12181558541668;0.05624996249999015;63;0.625;violin
89.18431554375002;0.05624996249999015;67;0.625;violin
89.24994050000001;0.05624996250000436;62;0.625;violin
89.24994050000001;0.7468745020833438;70;0.625;violin
89.30931546041668;0.05624996249999015;65;0.625;violin
89.37181541875002;0.05624996249999015;62;0.625;violin
89.43431537708335;0.05624996249999015;65;0.625;violin
89.49681533541668;0.05624996249999015;62;0.625;violin
89.55931529375002;0.05624996249999015;65;0.625;violin
89.62181525208335;0.05624996249999015;62;0.625;violin
89.68431521041668;0.05624996249999015;65;0.625;violin
89.74681516875002;0.05624996249999015;62;0.625;violin
89.80931512708335;0.05624996249999015;65;0.625;violin
89.87181508541669;0.05624996249999015;62;0.625;violin
89.93431504375002;0.05624996249999015;65;0.625;violin
89.99994000000001;0.05624996250000436;60;0.625;violin
89.99994000000001;2.246873502083332;69;0.625;violin
90.05931496041667;0.05624996250000436;63;0.625;violin
90.12181491875;0.05624996250000436;60;0.625;violin
90.18431487708334;0.05624996250000436;63;0.625;violin
90.24681483541667;0.05624996250000436;60;0.625;violin
90.30931479375;0.05624996250000436;63;0.625;violin
90.37181475208334;0.05624996250000436;60;0.625;violin
90.43431471041667;0.05624996250000436;63;0.625;violin
90.49681466875;0.05624996250000436;60;0.625;violin
90.55931462708334;0.05624996250000436;63;0.625;violin
90.62181458541667;0.05624996250000436;60;0.625;violin
90.68431454375;0.05624996250000436;63;0.625;violin
90.74993950000001;0.05624996250000436;60;0.625;violin
90.80931446041667;0.05624996250000436;63;0.625;violin
90.87181441875;0.05624996250000436;60;0.625;violin
90.93431437708334;0.05624996250000436;63;0.625;violin
90.99681433541667;0.05624996250000436;60;0.625;violin
91.05931429375;0.05624996250000436;63;0.625;violin
91.12181425208334;0.05624996250000436;60;0.625;violin
91.18431421041667;0.05624996250000436;63;0.625;violin
91.24681416875;0.05624996250000436;60;0.625;violin
91.30931412708334;0.05624996250000436;63;0.625;violin
91.37181408541667;0.05624996250000436;60;0.625;violin
91.43431404375;0.05624996250000436;63;0.625;violin
91.49993900000001;0.05624996250000436;60;0.625;violin
91.55931396041667;0.05624996250000436;63;0.625;violin
91.62181391875001;0.05624996250000436;60;0.625;violin
91.68431387708334;0.05624996250000436;63;0.625;violin
91.74681383541667;0.05624996250000436;60;0.625;violin
91.80931379375001;0.05624996250000436;63;0.625;violin
91.87181375208334;0.05624996250000436;60;0.625;violin
91.93431371041667;0.05624996250000436;63;0.625;violin
91.99681366875001;0.05624996250000436;60;0.625;violin
92.05931362708334;0.05624996250000436;63;0.625;violin
92.12181358541667;0.05624996250000436;60;0.625;violin
92.18431354375001;0.05624996250000436;63;0.625;violin
92.24993850000001;0.05624996250000436;60;0.625;violin
92.24993850000001;0.7468745020833296;72;0.625;violin
92.30931346041667;0.05624996250000436;63;0.625;violin
92.37181341875001;0.05624996250000436;60;0.625;violin
92.43431337708334;0.05624996250000436;63;0.625;violin
92.49681333541668;0.05624996250000436;60;0.625;violin
92.55931329375001;0.05624996250000436;63;0.625;violin
92.62181325208334;0.05624996250000436;60;0.625;violin
92.68431321041668;0.05624996250000436;63;0.625;violin
92.74681316875001;0.05624996250000436;60;0.625;violin
92.80931312708334;0.05624996250000436;63;0.625;violin
92.87181308541668;0.05624996250000436;60;0.625;violin
92.93431304375001;0.05624996250000436;63;0.625;violin
92.99993800000001;0.05624996250000436;61;0.625;violin
92.99993800000001;0.7468745020833296;69;0.625;violin
93.05931296041668;0.05624996250000436;64;0.625;violin
93.12181291875001;0.05624996250000436;61;0.625;violin
93.18431287708334;0.05624996250000436;64;0.625;violin
93.24681283541668;0.05624996250000436;61;0.625;violin
93.30931279375001;0.05624996250000436;64;0.625;violin
93.37181275208334;0.05624996250000436;61;0.625;violin
93.43431271041668;0.05624996250000436;64;0.625;violin
93.49681266875001;0.05624996250000436;61;0.625;violin
93.55931262708334;0.05624996250000436;64;0.625;violin
93.62181258541668;0.05624996250000436;61;0.625;violin
93.68431254375001;0.05624996250000436;64;0.625;violin
93.74993750000002;0.05624996249999015;61;0.625;violin
93.74993750000002;0.7468745020833296;67;0.625;violin
93.80931246041668;0.05624996250000436;64;0.625;violin
93.87181241875001;0.05624996250000436;61;0.625;violin
93.93431237708334;0.05624996250000436;64;0.625;violin
93.99681233541668;0.05624996250000436;61;0.625;violin
94.05931229375001;0.05624996250000436;64;0.625;violin
94.12181225208334;0.05624996250000436;61;0.625;violin
94.18431221041668;0.05624996250000436;64;0.625;violin
94.24681216875001;0.05624996250000436;61;0.625;violin
94.30931212708334;0.05624996250000436;64;0.625;violin
94.37181208541668;0.05624996250000436;61;0.625;violin
94.43431204375001;0.05624996250000436;64;0.625;violin
94.49993700000002;2.246873502083332;62;0.625;violin
94.49993700000002;0.05624996249999015;67;0.625;violin
94.55931196041668;0.05624996250000436;70;0.625;violin
94.62181191875001;0.05624996250000436;67;0.625;violin
94.68431187708335;0.05624996250000436;70;0.625;violin
94.74681183541668;0.05624996250000436;67;0.625;violin
94.80931179375001;0.05624996250000436;70;0.625;violin
94.87181175208335;0.05624996250000436;67;0.625;violin
94.93431171041668;0.05624996250000436;70;0.625;violin
94.99681166875001;0.05624996250000436;67;0.625;violin
95.05931162708335;0.05624996250000436;70;0.625;violin
95.12181158541668;0.05624996250000436;67;0.625;violin
95.18431154375001;0.05624996250000436;70;0.625;violin
95.24993650000002;0.05624996249999015;67;0.625;violin
95.30931146041668;0.05624996250000436;70;0.625;violin
95.37181141875001;0.05624996250000436;67;0.625;violin
95.43431137708335;0.05624996250000436;70;0.625;violin
95.49681133541668;0.05624996250000436;67;0.625;violin
95.55931129375001;0.05624996250000436;70;0.625;violin
95.62181125208335;0.05624996250000436;67;0.625;violin
95.68431121041668;0.05624996250000436;70;0.625;violin
95.74681116875001;0.05624996250000436;67;0.625;violin
95.80931112708335;0.05624996250000436;70;0.625;violin
95.87181108541668;0.05624996250000436;67;0.625;violin
95.93431104375001;0.05624996250000436;70;0.625;violin
95.99993600000002;0.05624996249999015;66;0.625;violin
96.05931096041668;0.05624996250000436;69;0.625;violin
96.12181091875001;0.05624996250000436;66;0.625;violin
96.18431087708335;0.05624996250000436;69;0.625;violin
96.24681083541668;0.05624996250000436;66;0.625;violin
96.30931079375002;0.05624996250000436;69;0.625;violin
96.37181075208335;0.05624996250000436;66;0.625;violin
96.43431071041668;0.05624996249999015;69;0.625;violin
96.49681066875002;0.05624996249999015;66;0.625;violin
96.55931062708335;0.05624996249999015;69;0.625;violin
96.62181058541668;0.05624996249999015;66;0.625;violin
96.68431054375002;0.05624996249999015;69;0.625;violin
96.7499355;0.7468745020833438;60;0.625;violin
96.7499355;0.05624996250000436;63;0.625;violin
96.80931046041668;0.05624996249999015;69;0.625;violin
96.87181041875002;0.05624996249999015;63;0.625;violin
96.93431037708335;0.05624996249999015;69;0.625;violin
96.99681033541668;0.05624996249999015;63;0.625;violin
97.05931029375002;0.05624996249999015;69;0.625;violin
97.12181025208335;0.05624996249999015;63;0.625;violin
97.18431021041668;0.05624996249999015;69;0.625;violin
97.24681016875002;0.05624996249999015;63;0.625;violin
97.30931012708335;0.05624996249999015;69;0.625;violin
97.37181008541668;0.05624996249999015;63;0.625;violin
97.43431004375002;0.05624996249999015;69;0.625;violin
97.49993500000001;0.7468745020833438;58;0.625;violin
97.49993500000001;0.05624996250000436;62;0.625;violin
97.55930996041668;0.05624996249999015;67;0.625;violin
97.62180991875002;0.05624996249999015;62;0.625;violin
97.68430987708335;0.05624996249999015;67;0.625;violin
97.74680983541668;0.05624996249999015;62;0.625;violin
97.80930979375002;0.05624996249999015;67;0.625;violin
97.87180975208335;0.05624996249999015;62;0.625;violin
97.93430971041668;0.05624996249999015;67;0.625;violin
97.99680966875002;0.05624996249999015;62;0.625;violin
98.05930962708335;0.05624996249999015;67;0.625;violin
98.12180958541668;0.05624996249999015;62;0.625;violin
98.18430954375002;0.05624996249999015;67;0.625;violin
98.24993450000001;0.7468745020833438;57;0.625;violin
98.24993450000001;0.05624996250000436;62;0.625;violin
98.30930946041669;0.05624996249999015;66;0.625;violin
98.37180941875002;0.05624996249999015;62;0.625;violin
98.43430937708335;0.05624996249999015;66;0.625;violin
98.49680933541669;0.05624996249999015;62;0.625;violin
98.55930929375002;0.05624996249999015;66;0.625;violin
98.62180925208335;0.05624996249999015;62;0.625;violin
98.68430921041669;0.05624996249999015;66;0.625;violin
98.74680916875002;0.05624996249999015;62;0.625;violin
98.80930912708335;0.05624996249999015;66;0.625;violin
98.87180908541669;0.05624996249999015;62;0.625;violin
98.93430904375002;0.05624996249999015;66;0.625;violin
98.99993400000001;0.059374960416676004;55;0.625;violin
98.99993400000001;0.05624996250000436;67;0.625;violin
99.05930896041669;0.05624996249999015;70;0.625;violin
99.06243395833334;2.1874985416666703;74;0.625;violin
99.12180891875002;0.05624996249999015;67;0.625;violin
99.18430887708335;0.05624996249999015;70;0.625;violin
99.24680883541667;0.05624996250000436;67;0.625;violin
99.30930879375;0.05624996250000436;70;0.625;violin
99.37180875208334;0.05624996250000436;67;0.625;violin
99.43430871041667;0.05624996250000436;70;0.625;violin
99.49680866875;0.05624996250000436;67;0.625;violin
99.55930862708334;0.05624996250000436;70;0.625;violin
99.62180858541667;0.05624996250000436;67;0.625;violin
99.68430854375;0.05624996250000436;70;0.625;violin
99.74993350000001;0.05624996250000436;67;0.625;violin
99.80930846041667;0.05624996250000436;70;0.625;violin
99.87180841875;0.05624996250000436;67;0.625;violin
99.93430837708334;0.05624996250000436;70;0.625;violin
99.99680833541667;0.05624996250000436;67;0.625;violin
100.05930829375001;0.05624996250000436;70;0.625;violin
100.12180825208334;0.05624996250000436;67;0.625;violin
100.18430821041667;0.05624996250000436;70;0.625;violin
100.24680816875001;0.05624996250000436;67;0.625;violin
100.30930812708334;0.05624996250000436;70;0.625;violin
100.37180808541667;0.05624996250000436;67;0.625;violin
100.43430804375001;0.05624996250000436;70;0.625;violin
100.49993300000001;0.05624996250000436;67;0.625;violin
100.55930796041667;0.05624996250000436;70;0.625;violin
100.62180791875001;0.05624996250000436;67;0.625;violin
100.68430787708334;0.05624996250000436;70;0.625;violin
100.74680783541667;0.05624996250000436;67;0.625;violin
100.80930779375001;0.05624996250000436;70;0.625;violin
100.87180775208334;0.05624996250000436;67;0.625;violin
100.93430771041668;0.05624996250000436;70;0.625;violin
100.99680766875001;0.05624996250000436;67;0.625;violin
101.05930762708334;0.05624996250000436;70;0.625;violin
101.12180758541668;0.05624996250000436;67;0.625;violin
101.18430754375001;0.05624996250000436;70;0.625;violin
101.24993250000001;0.05624996250000436;67;0.625;violin
101.24993250000001;0.7468745020833296;74;0.625;violin
101.30930746041668;0.05624996250000436;71;0.625;violin
101.37180741875001;0.05624996250000436;67;0.625;violin
101.43430737708334;0.05624996250000436;71;0.625;violin
101.49680733541668;0.05624996250000436;67;0.625;violin
101.55930729375001;0.05624996250000436;71;0.625;violin
101.62180725208334;0.05624996250000436;67;0.625;violin
101.68430721041668;0.05624996250000436;71;0.625;violin
101.74680716875001;0.05624996250000436;67;0.625;violin
101.80930712708334;0.05624996250000436;71;0.625;violin
101.87180708541668;0.05624996250000436;67;0.625;violin
101.93430704375001;0.05624996250000436;71;0.625;violin
101.99993200000002;0.05624996250000436;67;0.625;violin
101.99993200000002;0.7468745020833296;75;0.625;violin
102.05930696041668;0.05624996250000436;72;0.625;violin
102.12180691875001;0.05624996250000436;67;0.625;violin
102.18430687708334;0.05624996250000436;72;0.625;violin
102.24680683541668;0.05624996250000436;67;0.625;violin
102.30930679375001;0.05624996250000436;72;0.625;violin
102.37180675208334;0.05624996250000436;67;0.625;violin
102.43430671041668;0.05624996250000436;72;0.625;violin
102.49680666875001;0.05624996250000436;67;0.625;violin
102.55930662708334;0.05624996250000436;72;0.625;violin
102.62180658541668;0.05624996250000436;67;0.625;violin
102.68430654375001;0.05624996250000436;72;0.625;violin
102.74993150000002;0.05624996249999015;66;0.625;violin
102.74993150000002;0.7468745020833296;75;0.625;violin
102.80930646041668;0.05624996250000436;72;0.625;violin
102.87180641875001;0.05624996250000436;66;0.625;violin
102.93430637708335;0.05624996250000436;72;0.625;violin
102.99680633541668;0.05624996250000436;66;0.625;violin
103.05930629375001;0.05624996250000436;72;0.625;violin
103.12180625208335;0.05624996250000436;66;0.625;violin
103.18430621041668;0.05624996250000436;72;0.625;violin
103.24680616875001;0.05624996250000436;66;0.625;violin
103.30930612708335;0.05624996250000436;72;0.625;violin
103.37180608541668;0.05624996250000436;66;0.625;violin
103.43430604375001;0.05624996250000436;72;0.625;violin
103.49993100000002;0.05624996249999015;65;0.625;violin
103.49993100000002;2.246873502083332;75;0.625;violin
103.55930596041668;0.05624996250000436;72;0.625;violin
103.62180591875001;0.05624996250000436;65;0.625;violin
103.68430587708335;0.05624996250000436;72;0.625;violin
103.74680583541668;0.05624996250000436;65;0.625;violin
103.80930579375001;0.05624996250000436;72;0.625;violin
103.87180575208335;0.05624996250000436;65;0.625;violin
103.93430571041668;0.05624996250000436;72;0.625;violin
103.99680566875001;0.05624996250000436;65;0.625;violin
104.05930562708335;0.05624996250000436;72;0.625;violin
104.12180558541668;0.05624996250000436;65;0.625;violin
104.18430554375001;0.05624996250000436;72;0.625;violin
104.24993050000002;0.05624996249999015;65;0.625;violin
104.30930546041668;0.05624996250000436;72;0.625;violin
104.37180541875001;0.05624996250000436;65;0.625;violin
104.43430537708335;0.05624996250000436;72;0.625;violin
104.49680533541668;0.05624996250000436;65;0.625;violin
104.55930529375001;0.05624996250000436;72;0.625;violin
104.62180525208335;0.05624996250000436;65;0.625;violin
104.68430521041668;0.05624996250000436;72;0.625;violin
104.74680516875002;0.05624996250000436;65;0.625;violin
104.80930512708335;0.05624996250000436;72;0.625;violin
104.87180508541668;0.05624996250000436;65;0.625;violin
104.93430504375002;0.05624996250000436;72;0.625;violin
104.99993000000002;0.05624996249999015;65;0.625;violin
105.05930496041668;0.05624996250000436;72;0.625;violin
105.12180491875002;0.05624996250000436;65;0.625;violin
105.18430487708335;0.05624996250000436;72;0.625;violin
105.24680483541668;0.05624996250000436;65;0.625;violin
105.30930479375002;0.05624996250000436;72;0.625;violin
105.37180475208335;0.05624996250000436;65;0.625;violin
105.43430471041668;0.05624996250000436;72;0.625;violin
105.49680466875002;0.05624996250000436;65;0.625;violin
105.55930462708335;0.05624996249999015;72;0.625;violin
105.62180458541668;0.05624996249999015;65;0.625;violin
105.68430454375002;0.05624996249999015;72;0.625;violin
105.74992950000001;0.05624996250000436;66;0.625;violin
105.74992950000001;0.7468745020833438;75;0.625;violin
105.80930446041668;0.05624996249999015;72;0.625;violin
105.87180441875002;0.05624996249999015;66;0.625;violin
105.93430437708335;0.05624996249999015;72;0.625;violin
105.99680433541668;0.05624996249999015;66;0.625;violin
106.05930429375002;0.05624996249999015;72;0.625;violin
106.12180425208335;0.05624996249999015;66;0.625;violin
106.18430421041668;0.05624996249999015;72;0.625;violin
106.24680416875002;0.05624996249999015;66;0.625;violin
106.30930412708335;0.05624996249999015;72;0.625;violin
106.37180408541668;0.05624996249999015;66;0.625;violin
106.43430404375002;0.05624996249999015;72;0.625;violin
106.49992900000001;0.05624996250000436;67;0.625;violin
106.49992900000001;0.7468745020833438;74;0.625;violin
106.55930396041668;0.05624996249999015;70;0.625;violin
106.62180391875002;0.05624996249999015;67;0.625;violin
106.68430387708335;0.05624996249999015;70;0.625;violin
106.74680383541669;0.05624996249999015;67;0.625;violin
106.80930379375002;0.05624996249999015;70;0.625;violin
106.87180375208335;0.05624996249999015;67;0.625;violin
106.93430371041669;0.05624996249999015;70;0.625;violin
106.99680366875002;0.05624996249999015;67;0.625;violin
107.05930362708335;0.05624996249999015;70;0.625;violin
107.12180358541669;0.05624996249999015;67;0.625;violin
107.18430354375002;0.05624996249999015;70;0.625;violin
107.24992850000001;0.05624996250000436;65;0.625;violin
107.24992850000001;0.7468745020833438;74;0.625;violin
107.30930346041669;0.05624996249999015;69;0.625;violin
107.37180341875002;0.05624996249999015;65;0.625;violin
107.43430337708335;0.05624996249999015;69;0.625;violin
107.49680333541669;0.05624996249999015;65;0.625;violin
107.55930329375002;0.05624996249999015;69;0.625;violin
107.62180325208335;0.05624996249999015;65;0.625;violin
107.68430321041669;0.05624996249999015;69;0.625;violin
107.74680316875002;0.05624996249999015;65;0.625;violin
107.80930312708335;0.05624996249999015;69;0.625;violin
107.87180308541669;0.05624996249999015;65;0.625;violin
107.93430304375002;0.05624996249999015;69;0.625;violin
107.99992800000001;0.05624996250000436;63;0.625;violin
107.99992800000001;2.246873502083332;72;0.625;violin
108.05930296041669;0.05624996249999015;67;0.625;violin
108.12180291875002;0.05624996249999015;63;0.625;violin
108.18430287708335;0.05624996249999015;67;0.625;violin
108.24680283541669;0.05624996249999015;63;0.625;violin
108.30930279375002;0.05624996249999015;67;0.625;violin
108.37180275208334;0.05624996250000436;63;0.625;violin
108.43430271041667;0.05624996250000436;67;0.625;violin
108.49680266875001;0.05624996250000436;63;0.625;violin
108.55930262708334;0.05624996250000436;67;0.625;violin
108.62180258541667;0.05624996250000436;63;0.625;violin
108.68430254375001;0.05624996250000436;67;0.625;violin
108.74992750000001;0.05624996250000436;63;0.625;violin
108.80930246041667;0.05624996250000436;67;0.625;violin
108.87180241875001;0.05624996250000436;63;0.625;violin
108.93430237708334;0.05624996250000436;67;0.625;violin
108.99680233541667;0.05624996250000436;63;0.625;violin
109.05930229375001;0.05624996250000436;67;0.625;violin
109.12180225208334;0.05624996250000436;63;0.625;violin
109.18430221041667;0.05624996250000436;67;0.625;violin
109.24680216875001;0.05624996250000436;63;0.625;violin
109.30930212708334;0.05624996250000436;67;0.625;violin
109.37180208541668;0.05624996250000436;63;0.625;violin
109.43430204375001;0.05624996250000436;67;0.625;violin
109.49992700000001;0.05624996250000436;63;0.625;violin
109.55930196041668;0.05624996250000436;67;0.625;violin
109.62180191875001;0.05624996250000436;63;0.625;violin
109.68430187708334;0.05624996250000436;67;0.625;violin
109.74680183541668;0.05624996250000436;63;0.625;violin
109.80930179375001;0.05624996250000436;67;0.625;violin
109.87180175208334;0.05624996250000436;63;0.625;violin
109.93430171041668;0.05624996250000436;67;0.625;violin
109.99680166875001;0.05624996250000436;63;0.625;violin
110.05930162708334;0.05624996250000436;67;0.625;violin
110.12180158541668;0.05624996250000436;63;0.625;violin
110.18430154375001;0.05624996250000436;67;0.625;violin
110.24992650000002;0.05624996250000436;63;0.625;violin
110.24992650000002;0.7468745020833296;73;0.625;violin
110.30930146041668;0.05624996250000436;67;0.625;violin
110.37180141875001;0.05624996250000436;63;0.625;violin
110.43430137708334;0.05624996250000436;67;0.625;violin
110.49680133541668;0.05624996250000436;63;0.625;violin
110.55930129375001;0.05624996250000436;67;0.625;violin
110.62180125208334;0.05624996250000436;63;0.625;violin
110.68430121041668;0.05624996250000436;67;0.625;violin
110.74680116875001;0.05624996250000436;63;0.625;violin
110.80930112708334;0.05624996250000436;67;0.625;violin
110.87180108541668;0.05624996250000436;63;0.625;violin
110.93430104375001;0.05624996250000436;67;0.625;violin
110.99992600000002;0.05624996250000436;64;0.625;violin
110.99992600000002;0.7468745020833296;72;0.625;violin
111.05930096041668;0.05624996250000436;67;0.625;violin
111.12180091875001;0.05624996250000436;64;0.625;violin
111.18430087708334;0.05624996250000436;67;0.625;violin
111.24680083541668;0.05624996250000436;64;0.625;violin
111.30930079375001;0.05624996250000436;67;0.625;violin
111.37180075208335;0.05624996250000436;64;0.625;violin
111.43430071041668;0.05624996250000436;67;0.625;violin
111.49680066875001;0.05624996250000436;64;0.625;violin
111.55930062708335;0.05624996250000436;67;0.625;violin
111.62180058541668;0.05624996250000436;64;0.625;violin
111.68430054375001;0.05624996250000436;67;0.625;violin
111.74992550000002;0.05624996249999015;64;0.625;violin
111.74992550000002;0.7468745020833296;70;0.625;violin
111.80930046041668;0.05624996250000436;67;0.625;violin
111.87180041875001;0.05624996250000436;64;0.625;violin
111.93430037708335;0.05624996250000436;67;0.625;violin
111.99680033541668;0.05624996250000436;64;0.625;violin
112.05930029375001;0.05624996250000436;67;0.625;violin
112.12180025208335;0.05624996250000436;64;0.625;violin
112.18430021041668;0.05624996250000436;67;0.625;violin
112.24680016875001;0.05624996250000436;64;0.625;violin
112.30930012708335;0.05624996250000436;67;0.625;violin
112.37180008541668;0.05624996250000436;64;0.625;violin
112.43430004375001;0.05624996250000436;67;0.625;violin
112.49992500000002;0.7468745020833296;65;0.625;violin
112.49992500000002;0.05624996249999015;69;0.625;violin
112.55929996041668;0.05624996250000436;72;0.625;violin
112.62179991875001;0.05624996250000436;69;0.625;violin
112.68429987708335;0.05624996250000436;72;0.625;violin
112.74679983541668;0.05624996250000436;69;0.625;violin
112.80929979375001;0.05624996250000436;72;0.625;violin
112.87179975208335;0.05624996250000436;69;0.625;violin
112.93429971041668;0.05624996250000436;72;0.625;violin
112.99679966875001;0.05624996250000436;69;0.625;violin
113.05929962708335;0.05624996250000436;72;0.625;violin
113.12179958541668;0.05624996250000436;69;0.625;violin
113.18429954375002;0.05624996250000436;72;0.625;violin
113.24992450000002;0.7468745020833296;63;0.9375;violin
113.24992450000002;0.05624996249999015;69;0.625;violin
113.30929946041668;0.05624996250000436;77;0.625;violin
113.37179941875002;0.05624996250000436;69;0.625;violin
113.43429937708335;0.05624996250000436;77;0.625;violin
113.49679933541668;0.05624996250000436;69;0.625;violin
113.55929929375002;0.05624996250000436;77;0.625;violin
113.62179925208335;0.05624996250000436;69;0.625;violin
113.68429921041668;0.05624996250000436;77;0.625;violin
113.74679916875002;0.05624996250000436;69;0.625;violin
113.80929912708335;0.05624996250000436;77;0.625;violin
113.87179908541668;0.05624996250000436;69;0.625;violin
113.93429904375002;0.05624996250000436;77;0.625;violin
113.99992400000002;0.7468745020833296;62;0.625;violin
113.99992400000002;0.05624996249999015;70;0.625;violin
114.05929896041668;0.05624996250000436;77;0.625;violin
114.12179891875002;0.05624996250000436;70;0.625;violin
114.18429887708335;0.05624996250000436;77;0.625;violin
114.24679883541668;0.05624996250000436;70;0.625;violin
114.30929879375002;0.05624996250000436;77;0.625;violin
114.37179875208335;0.05624996250000436;70;0.625;violin
114.43429871041668;0.05624996250000436;77;0.625;violin
114.49679866875002;0.05624996250000436;70;0.625;violin
114.55929862708335;0.05624996250000436;77;0.625;violin
114.62179858541668;0.05624996250000436;70;0.625;violin
114.68429854375002;0.05624996250000436;77;0.625;violin
114.74992350000001;0.7468745020833438;66;0.9375;violin
114.74992350000001;0.05624996250000436;69;0.625;violin
114.80929846041668;0.05624996249999015;72;0.625;violin
114.87179841875002;0.05624996249999015;69;0.625;violin
114.93429837708335;0.05624996249999015;72;0.625;violin
114.99679833541668;0.05624996249999015;69;0.625;violin
115.05929829375002;0.05624996249999015;72;0.625;violin
115.12179825208335;0.05624996249999015;69;0.625;violin
115.18429821041669;0.05624996249999015;72;0.625;violin
115.24679816875002;0.05624996249999015;69;0.625;violin
115.30929812708335;0.05624996249999015;72;0.625;violin
115.37179808541669;0.05624996249999015;69;0.625;violin
115.43429804375002;0.05624996249999015;72;0.625;violin
115.49992300000001;0.7468745020833438;65;0.625;violin
115.49992300000001;0.05624996250000436;70;0.625;violin
115.55929796041669;0.05624996249999015;74;0.625;violin
115.62179791875002;0.05624996249999015;70;0.625;violin
115.68429787708335;0.05624996249999015;74;0.625;violin
115.74679783541669;0.05624996249999015;70;0.625;violin
115.80929779375002;0.05624996249999015;74;0.625;violin
115.87179775208335;0.05624996249999015;70;0.625;violin
115.93429771041669;0.05624996249999015;74;0.625;violin
115.99679766875002;0.05624996249999015;70;0.625;violin
116.05929762708335;0.05624996249999015;74;0.625;violin
116.12179758541669;0.05624996249999015;70;0.625;violin
116.18429754375002;0.05624996249999015;74;0.625;violin
116.24992250000001;0.7468745020833438;63;0.9375;violin
116.24992250000001;0.05624996250000436;69;0.625;violin
116.30929746041669;0.05624996249999015;77;0.625;violin
116.37179741875002;0.05624996249999015;69;0.625;violin
116.43429737708335;0.05624996249999015;77;0.625;violin
116.49679733541669;0.05624996249999015;69;0.625;violin
116.55929729375002;0.05624996249999015;77;0.625;violin
116.62179725208335;0.05624996249999015;69;0.625;violin
116.68429721041669;0.05624996249999015;77;0.625;violin
116.74679716875002;0.05624996249999015;69;0.625;violin
116.80929712708335;0.05624996249999015;77;0.625;violin
116.87179708541669;0.05624996249999015;69;0.625;violin
116.93429704375002;0.05624996249999015;77;0.625;violin
116.99992200000001;1.4968740020833309;62;0.625;violin
116.99992200000001;0.05624996250000436;70;0.625;violin
117.05929696041669;0.05624996249999015;77;0.625;violin
117.12179691875002;0.05624996249999015;70;0.625;violin
117.18429687708336;0.05624996249999015;77;0.625;violin
117.24679683541669;0.05624996249999015;70;0.625;violin
117.30929679375002;0.05624996249999015;77;0.625;violin
117.37179675208336;0.05624996249999015;70;0.625;violin
117.43429671041669;0.05624996249999015;77;0.625;violin
117.49679666875001;0.05624996250000436;70;0.625;violin
117.55929662708334;0.05624996250000436;77;0.625;violin
117.62179658541667;0.05624996250000436;70;0.625;violin
117.68429654375001;0.05624996250000436;77;0.625;violin
117.74992150000001;0.05624996250000436;70;0.625;violin
117.80929646041668;0.05624996250000436;78;0.625;violin
117.87179641875001;0.05624996250000436;70;0.625;violin
117.93429637708334;0.05624996250000436;78;0.625;violin
117.99679633541668;0.05624996250000436;70;0.625;violin
118.05929629375001;0.05624996250000436;78;0.625;violin
118.12179625208334;0.05624996250000436;70;0.625;violin
118.18429621041668;0.05624996250000436;78;0.625;violin
118.24679616875001;0.05624996250000436;70;0.625;violin
118.30929612708334;0.05624996250000436;78;0.625;violin
118.37179608541668;0.05624996250000436;70;0.625;violin
118.43429604375001;0.05624996250000436;78;0.625;violin
118.49992100000001;0.05624996250000436;63;0.625;violin
118.49992100000001;0.7468745020833296;70;0.625;violin
118.55929596041668;0.05624996250000436;67;0.625;violin
118.62179591875001;0.05624996250000436;63;0.625;violin
118.68429587708334;0.05624996250000436;67;0.625;violin
118.74679583541668;0.05624996250000436;63;0.625;violin
118.80929579375001;0.05624996250000436;67;0.625;violin
118.87179575208334;0.05624996250000436;63;0.625;violin
118.93429571041668;0.05624996250000436;67;0.625;violin
118.99679566875001;0.05624996250000436;63;0.625;violin
119.05929562708334;0.05624996250000436;67;0.625;violin
119.12179558541668;0.05624996250000436;63;0.625;violin
119.18429554375001;0.05624996250000436;67;0.625;violin
119.24992050000002;0.7468745020833296;64;0.625;violin
119.24992050000002;0.05624996250000436;70;0.625;violin
119.30929546041668;0.05624996250000436;73;0.625;violin
119.37179541875001;0.05624996250000436;70;0.625;violin
119.43429537708334;0.05624996250000436;73;0.625;violin
119.49679533541668;0.05624996250000436;70;0.625;violin
119.55929529375001;0.05624996250000436;73;0.625;violin
119.62179525208334;0.05624996250000436;70;0.625;violin
119.68429521041668;0.05624996250000436;73;0.625;violin
119.74679516875001;0.05624996250000436;70;0.625;violin
119.80929512708335;0.05624996250000436;73;0.625;violin
119.87179508541668;0.05624996250000436;70;0.625;violin
119.93429504375001;0.05624996250000436;73;0.625;violin
119.99992000000002;0.7468745020833296;67;0.625;violin
119.99992000000002;0.05624996250000436;73;0.625;violin
120.05929496041668;0.05624996250000436;76;0.625;violin
120.12179491875001;0.05624996250000436;73;0.6328125;violin
120.18429487708335;0.05624996250000436;76;0.6328125;violin
120.24679483541668;0.05624996250000436;73;0.640625;violin
120.30929479375001;0.05624996250000436;76;0.6484375;violin
120.37179475208335;0.05624996250000436;73;0.6484375;violin
120.43429471041668;0.05624996250000436;76;0.65625;violin
120.49679466875001;0.05624996250000436;73;0.6640625;violin
120.55929462708335;0.05624996250000436;76;0.6640625;violin
120.62179458541668;0.05624996250000436;73;0.671875;violin
120.68429454375001;0.05624996250000436;76;0.6796875;violin
120.74991950000002;0.7468745020833296;70;0.6875;violin
120.74991950000002;0.05624996249999015;76;0.6875;violin
120.80929446041668;0.05624996250000436;79;0.6875;violin
120.87179441875001;0.05624996250000436;76;0.6953125;violin
120.93429437708335;0.05624996250000436;79;0.6953125;violin
120.99679433541668;0.05624996250000436;76;0.703125;violin
121.05929429375001;0.05624996250000436;79;0.7109375;violin
121.12179425208335;0.05624996250000436;76;0.7109375;violin
121.18429421041668;0.05624996250000436;79;0.71875;violin
121.24679416875001;0.05624996250000436;76;0.7265625;violin
121.30929412708335;0.05624996250000436;79;0.7265625;violin
121.37179408541668;0.05624996250000436;76;0.734375;violin
121.43429404375001;0.05624996250000436;79;0.7421875;violin
121.49991900000002;0.05624996249999015;70;0.75;violin
121.49991900000002;0.7468745020833296;77;0.75;violin
121.55929396041668;0.05624996250000436;74;0.75;violin
121.62179391875001;0.05624996250000436;70;0.75;violin
121.68429387708335;0.05624996250000436;74;0.75;violin
121.74679383541668;0.05624996250000436;70;0.75;violin
121.80929379375002;0.05624996250000436;74;0.75;violin
121.87179375208335;0.05624996250000436;70;0.75;violin
121.93429371041668;0.05624996250000436;74;0.75;violin
121.99679366875002;0.05624996250000436;70;0.75;violin
122.05929362708335;0.05624996250000436;74;0.75;violin
122.12179358541668;0.05624996250000436;70;0.75;violin
122.18429354375002;0.05624996250000436;74;0.75;violin
122.24991850000002;0.05624996249999015;74;0.75;violin
122.24991850000002;0.7468745020833296;82;0.75;violin
122.30929346041668;0.05624996250000436;77;0.75;violin
122.37179341875002;0.05624996250000436;74;0.75;violin
122.43429337708335;0.05624996250000436;77;0.75;violin
122.49679333541668;0.05624996250000436;74;0.75;violin
122.55929329375002;0.05624996250000436;77;0.75;violin
122.62179325208335;0.05624996250000436;74;0.75;violin
122.68429321041668;0.05624996250000436;77;0.75;violin
122.74679316875002;0.05624996250000436;74;0.75;violin
122.80929312708335;0.05624996250000436;77;0.75;violin
122.87179308541668;0.05624996250000436;74;0.75;violin
122.93429304375002;0.05624996250000436;77;0.75;violin
122.99991800000002;0.05624996249999015;62;0.75;violin
122.99991800000002;1.4968740020833309;70;0.75;violin
123.05929296041668;0.05624996250000436;65;0.75;violin
123.12179291875002;0.05624996250000436;62;0.75;violin
123.18429287708335;0.05624996250000436;65;0.75;violin
123.24679283541668;0.05624996250000436;62;0.75;violin
123.30929279375002;0.05624996250000436;65;0.75;violin
123.37179275208335;0.05624996250000436;62;0.75;violin
123.43429271041668;0.05624996250000436;65;0.75;violin
123.49679266875002;0.05624996250000436;62;0.75;violin
123.55929262708335;0.05624996250000436;65;0.75;violin
123.62179258541669;0.05624996250000436;62;0.75;violin
123.68429254375002;0.05624996250000436;65;0.75;violin
123.74991750000001;0.05624996250000436;62;0.75;violin
123.80929246041669;0.05624996250000436;65;0.75;violin
123.87179241875002;0.05624996249999015;62;0.75;violin
123.93429237708335;0.05624996249999015;65;0.75;violin
123.99679233541669;0.05624996249999015;62;0.75;violin
124.05929229375002;0.05624996249999015;65;0.75;violin
124.12179225208335;0.05624996249999015;62;0.75;violin
124.18429221041669;0.05624996249999015;65;0.75;violin
124.24679216875002;0.05624996249999015;62;0.75;violin
124.30929212708335;0.05624996249999015;65;0.75;violin
124.37179208541669;0.05624996249999015;62;0.75;violin
124.43429204375002;0.05624996249999015;65;0.75;violin
124.49991700000001;0.7468745020833438;63;0.75;violin
124.49991700000001;0.05624996250000436;69;0.75;violin
124.55929196041669;0.05624996249999015;72;0.75;violin
124.62179191875002;0.05624996249999015;69;0.75;violin
124.68429187708335;0.05624996249999015;72;0.75;violin
124.74679183541669;0.05624996249999015;69;0.75;violin
124.80929179375002;0.05624996249999015;72;0.75;violin
124.87179175208335;0.05624996249999015;69;0.75;violin
124.93429171041669;0.05624996249999015;72;0.75;violin
124.99679166875002;0.05624996249999015;69;0.75;violin
125.05929162708335;0.05624996249999015;72;0.75;violin
125.12179158541669;0.05624996249999015;69;0.75;violin
125.18429154375002;0.05624996249999015;72;0.75;violin
125.24991650000001;0.7468745020833438;60;0.75;violin
125.24991650000001;0.05624996250000436;63;0.75;violin
125.30929146041669;0.05624996249999015;69;0.75;violin
125.37179141875002;0.05624996249999015;63;0.75;violin
125.43429137708335;0.05624996249999015;69;0.75;violin
125.49679133541669;0.05624996249999015;63;0.75;violin
125.55929129375002;0.05624996249999015;69;0.75;violin
125.62179125208336;0.05624996249999015;63;0.75;violin
125.68429121041669;0.05624996249999015;69;0.75;violin
125.74679116875002;0.05624996249999015;63;0.75;violin
125.80929112708336;0.05624996249999015;69;0.75;violin
125.87179108541669;0.05624996249999015;63;0.75;violin
125.93429104375002;0.05624996249999015;69;0.75;violin
125.99991600000001;0.05624996250000436;58;0.75;violin
125.99991600000001;2.246873502083332;70;0.75;violin
126.05929096041669;0.05624996249999015;62;0.75;violin
126.12179091875002;0.05624996249999015;58;0.75;violin
126.18429087708336;0.05624996249999015;62;0.75;violin
126.24679083541669;0.05624996249999015;58;0.75;violin
126.30929079375002;0.05624996249999015;62;0.75;violin
126.37179075208336;0.05624996249999015;58;0.75;violin
126.43429071041669;0.05624996249999015;62;0.75;violin
126.49679066875002;0.05624996249999015;58;0.75;violin
126.55929062708336;0.05624996249999015;62;0.75;violin
126.62179058541669;0.05624996249999015;58;0.75;violin
126.68429054375001;0.05624996250000436;62;0.75;violin
126.74991550000001;0.05624996250000436;58;0.75;violin
126.80929046041668;0.05624996250000436;62;0.75;violin
126.87179041875001;0.05624996250000436;58;0.75;violin
126.93429037708334;0.05624996250000436;62;0.75;violin
126.99679033541668;0.05624996250000436;58;0.75;violin
127.05929029375001;0.05624996250000436;62;0.75;violin
127.12179025208334;0.05624996250000436;58;0.75;violin
127.18429021041668;0.05624996250000436;62;0.75;violin
127.24679016875001;0.05624996250000436;58;0.75;violin
127.30929012708334;0.05624996250000436;62;0.75;violin
127.37179008541668;0.05624996250000436;58;0.75;violin
127.43429004375001;0.05624996250000436;62;0.75;violin
127.49991500000002;0.05624996250000436;58;0.75;violin
127.55928996041668;0.05624996250000436;62;0.75;violin
127.62178991875001;0.05624996250000436;58;0.75;violin
127.68428987708334;0.05624996250000436;62;0.75;violin
127.74678983541668;0.05624996250000436;58;0.75;violin
127.80928979375001;0.05624996250000436;62;0.75;violin
127.87178975208334;0.05624996250000436;58;0.75;violin
127.93428971041668;0.05624996250000436;62;0.75;violin
127.99678966875001;0.05624996250000436;58;0.75;violin
128.05928962708336;0.05624996250000436;62;0.75;violin
128.12178958541668;0.05624996250000436;58;0.75;violin
128.18428954375003;0.05624996250000436;62;0.75;violin
128.24991450000002;0.05624996250000436;58;0.75;violin
128.24991450000002;0.7468745020833296;65;0.75;violin
128.3092894604167;0.05624996250000436;62;0.75;violin
128.37178941875;0.05624996250000436;58;0.75;violin
128.43428937708336;0.056249962499975936;62;0.75;violin
128.49678933541668;0.05624996250000436;58;0.75;violin
128.55928929375003;0.056249962499975936;62;0.75;violin
128.62178925208335;0.05624996250000436;58;0.75;violin
128.6842892104167;0.056249962499975936;62;0.75;violin
128.74678916875;0.05624996250000436;58;0.75;violin
128.80928912708336;0.056249962499975936;62;0.75;violin
128.87178908541668;0.05624996250000436;58;0.75;violin
128.93428904375003;0.056249962499975936;62;0.75;violin
128.99991400000002;0.05624996250000436;58;0.75;violin
128.99991400000002;0.7468745020833296;67;0.75;violin
129.0592889604167;0.056249962499975936;63;0.75;violin
129.12178891875;0.05624996250000436;58;0.75;violin
129.18428887708336;0.056249962499975936;63;0.75;violin
129.24678883541668;0.05624996250000436;58;0.75;violin
129.30928879375003;0.056249962499975936;63;0.75;violin
129.37178875208335;0.05624996250000436;58;0.75;violin
129.4342887104167;0.056249962499975936;63;0.75;violin
129.49678866875;0.05624996250000436;58;0.75;violin
129.55928862708336;0.056249962499975936;63;0.75;violin
129.62178858541668;0.05624996250000436;58;0.75;violin
129.68428854375003;0.056249962499975936;63;0.75;violin
129.74991350000002;0.05624996250000436;58;0.75;violin
129.74991350000002;0.7468745020833296;66;0.75;violin
129.8092884604167;0.056249962499975936;63;0.75;violin
129.87178841875001;0.05624996250000436;58;0.75;violin
129.93428837708336;0.056249962499975936;63;0.75;violin
129.99678833541668;0.05624996250000436;58;0.75;violin
130.05928829375003;0.056249962499975936;63;0.75;violin
130.12178825208335;0.05624996250000436;58;0.75;violin
130.1842882104167;0.056249962499975936;63;0.75;violin
130.24678816875002;0.05624996250000436;58;0.75;violin
130.30928812708336;0.056249962499975936;63;0.75;violin
130.37178808541668;0.05624996250000436;58;0.75;violin
130.43428804375003;0.056249962499975936;63;0.75;violin
130.49991300000002;0.05624996250000436;57;0.75;violin
130.49991300000002;1.4968740020833309;66;0.9921875;violin
130.5592879604167;0.056249962499975936;63;0.75;violin
130.62178791875002;0.05624996250000436;57;0.75;violin
130.68428787708336;0.056249962499975936;63;0.75;violin
130.74678783541668;0.05624996250000436;57;0.75;violin
130.80928779375003;0.056249962499975936;63;0.75;violin
130.87178775208335;0.05624996250000436;57;0.75;violin
130.9342877104167;0.056249962499975936;63;0.75;violin
130.99678766875002;0.05624996250000436;57;0.75;violin
131.05928762708336;0.056249962499975936;63;0.75;violin
131.12178758541668;0.05624996250000436;57;0.75;violin
131.18428754375003;0.056249962499975936;63;0.75;violin
131.24991250000002;0.05624996250000436;57;0.75;violin
131.30928746041667;0.05624996250000436;63;0.75;violin
131.37178741875002;0.05624996250000436;57;0.75;violin
131.43428737708334;0.05624996250000436;63;0.75;violin
131.49678733541668;0.05624996250000436;57;0.75;violin
131.55928729375;0.05624996250000436;63;0.75;violin
131.62178725208335;0.05624996250000436;57;0.75;violin
131.68428721041667;0.05624996250000436;63;0.75;violin
131.74678716875002;0.05624996250000436;57;0.75;violin
131.80928712708334;0.05624996250000436;63;0.75;violin
131.87178708541668;0.05624996250000436;57;0.75;violin
131.93428704375;0.05624996250000436;63;0.75;violin
131.99991200000002;0.05624996250000436;58;0.75;violin
131.99991200000002;0.7468745020833296;65;0.75;violin
132.05928696041667;0.05624996250000436;62;0.75;violin
132.12178691875002;0.05624996250000436;58;0.75;violin
132.18428687708334;0.05624996250000436;62;0.75;violin
132.24678683541669;0.05624996250000436;58;0.75;violin
132.30928679375;0.05624996250000436;62;0.75;violin
132.37178675208335;0.05624996250000436;58;0.75;violin
132.43428671041667;0.05624996250000436;62;0.75;violin
132.49678666875002;0.05624996250000436;58;0.75;violin
132.55928662708334;0.05624996250000436;62;0.75;violin
132.6217865854167;0.05624996250000436;58;0.75;violin
132.68428654375;0.05624996250000436;62;0.75;violin
132.74991150000002;0.05624996250000436;58;0.75;violin
132.74991150000002;0.7468745020833296;65;0.75;violin
132.80928646041667;0.05624996250000436;62;0.75;violin
132.87178641875002;0.05624996250000436;58;0.75;violin
132.93428637708334;0.05624996250000436;62;0.75;violin
132.9967863354167;0.05624996250000436;58;0.75;violin
133.05928629375;0.05624996250000436;62;0.75;violin
133.12178625208335;0.05624996250000436;58;0.75;violin
133.18428621041667;0.05624996250000436;62;0.75;violin
133.24678616875002;0.05624996250000436;58;0.75;violin
133.30928612708334;0.05624996250000436;62;0.75;violin
133.3717860854167;0.05624996250000436;58;0.75;violin
133.43428604375;0.05624996250000436;62;0.75;violin
133.49991100000003;0.05624996250000436;58;0.75;violin
133.49991100000003;0.7468745020833296;67;0.75;violin
133.55928596041667;0.05624996250000436;63;0.75;violin
133.62178591875002;0.05624996250000436;58;0.75;violin
133.68428587708334;0.05624996250000436;63;0.75;violin
133.7467858354167;0.05624996250000436;58;0.75;violin
133.80928579375;0.05624996250000436;63;0.75;violin
133.87178575208335;0.05624996250000436;58;0.75;violin
133.93428571041667;0.05624996250000436;63;0.75;violin
133.99678566875002;0.05624996250000436;58;0.75;violin
134.05928562708334;0.05624996250000436;63;0.75;violin
134.1217855854167;0.05624996250000436;58;0.75;violin
134.18428554375;0.05624996250000436;63;0.75;violin
134.24991050000003;0.05624996250000436;58;0.75;violin
134.24991050000003;0.7468745020833296;66;0.75;violin
134.30928546041667;0.05624996250000436;63;0.75;violin
134.37178541875002;0.05624996250000436;58;0.75;violin
134.43428537708334;0.05624996250000436;63;0.75;violin
134.4967853354167;0.05624996250000436;58;0.75;violin
134.55928529375;0.05624996250000436;63;0.75;violin
134.62178525208336;0.05624996250000436;58;0.75;violin
134.68428521041668;0.05624996250000436;63;0.75;violin
134.74678516875002;0.05624996250000436;58;0.75;violin
134.80928512708334;0.05624996250000436;63;0.75;violin
134.8717850854167;0.05624996250000436;58;0.75;violin
134.93428504375;0.05624996250000436;63;0.75;violin
134.99991000000003;0.056249962499975936;57;0.75;violin
134.99991000000003;1.4968740020833309;66;0.75;violin
135.05928496041668;0.05624996250000436;63;0.75;violin
135.12178491875002;0.05624996250000436;57;0.75;violin
135.18428487708334;0.05624996250000436;63;0.75;violin
135.2467848354167;0.05624996250000436;57;0.75;violin
135.30928479375;0.05624996250000436;63;0.75;violin
135.37178475208336;0.05624996250000436;57;0.75;violin
135.43428471041668;0.05624996250000436;63;0.75;violin
135.49678466875002;0.05624996250000436;57;0.75;violin
135.55928462708334;0.05624996250000436;63;0.75;violin
135.6217845854167;0.05624996250000436;57;0.75;violin
135.68428454375;0.05624996250000436;63;0.75;violin
135.74990950000003;0.056249962499975936;57;0.75;violin
135.80928446041668;0.05624996250000436;63;0.75;violin
135.87178441875002;0.05624996250000436;57;0.75;violin
135.93428437708334;0.05624996250000436;63;0.75;violin
135.9967843354167;0.05624996250000436;57;0.75;violin
136.05928429375;0.05624996250000436;63;0.75;violin
136.12178425208336;0.05624996250000436;57;0.75;violin
136.18428421041668;0.05624996250000436;63;0.75;violin
136.24678416875003;0.05624996250000436;57;0.75;violin
136.30928412708334;0.05624996250000436;63;0.75;violin
136.3717840854167;0.05624996250000436;57;0.75;violin
136.43428404375;0.05624996250000436;63;0.75;violin
136.49990900000003;0.056249962499975936;58;0.75;violin
136.49990900000003;0.7468745020833296;65;0.75;violin
136.55928396041668;0.05624996250000436;62;0.75;violin
136.62178391875003;0.05624996250000436;58;0.75;violin
136.68428387708335;0.05624996250000436;62;0.75;violin
136.7467838354167;0.05624996250000436;58;0.75;violin
136.80928379375;0.05624996250000436;62;0.75;violin
136.87178375208336;0.05624996250000436;58;0.75;violin
136.93428371041668;0.05624996250000436;62;0.75;violin
136.99678366875003;0.05624996250000436;58;0.75;violin
137.05928362708335;0.05624996250000436;62;0.75;violin
137.1217835854167;0.05624996250000436;58;0.75;violin
137.18428354375;0.05624996250000436;62;0.75;violin
137.2499085;0.05624996250000436;62;0.75;violin
137.2499085;0.746874502083358;70;0.75;violin
137.30928346041668;0.05624996250000436;68;0.75;violin
137.37178341875003;0.05624996250000436;62;0.75;violin
137.43428337708335;0.05624996250000436;68;0.75;violin
137.4967833354167;0.05624996250000436;62;0.75;violin
137.55928329375;0.05624996250000436;68;0.75;violin
137.62178325208336;0.056249962499975936;62;0.75;violin
137.68428321041668;0.05624996250000436;68;0.75;violin
137.74678316875003;0.056249962499975936;62;0.75;violin
137.80928312708335;0.05624996250000436;68;0.75;violin
137.8717830854167;0.056249962499975936;62;0.75;violin
137.93428304375;0.05624996250000436;68;0.75;violin
137.999908;0.05624996250000436;63;0.75;violin
137.999908;0.746874502083358;70;0.75;violin
138.05928296041668;0.05624996250000436;67;0.75;violin
138.12178291875003;0.056249962499975936;63;0.75;violin
138.18428287708335;0.05624996250000436;67;0.75;violin
138.2467828354167;0.056249962499975936;63;0.75;violin
138.30928279375001;0.05624996250000436;67;0.75;violin
138.37178275208336;0.056249962499975936;63;0.75;violin
138.43428271041668;0.05624996250000436;67;0.75;violin
138.49678266875003;0.056249962499975936;63;0.75;violin
138.55928262708335;0.05624996250000436;67;0.75;violin
138.6217825854167;0.056249962499975936;63;0.75;violin
138.68428254375002;0.05624996250000436;67;0.75;violin
138.7499075;0.05624996250000436;64;0.75;violin
138.7499075;0.746874502083358;72;0.75;violin
138.80928246041668;0.05624996250000436;70;0.75;violin
138.87178241875003;0.056249962499975936;64;0.75;violin
138.93428237708335;0.05624996250000436;70;0.75;violin
138.9967823354167;0.056249962499975936;64;0.75;violin
139.05928229375002;0.05624996250000436;70;0.75;violin
139.12178225208336;0.056249962499975936;64;0.75;violin
139.18428221041668;0.05624996250000436;70;0.75;violin
139.24678216875003;0.056249962499975936;64;0.75;violin
139.30928212708335;0.05624996250000436;70;0.75;violin
139.3717820854167;0.056249962499975936;64;0.75;violin
139.43428204375002;0.05624996250000436;70;0.75;violin
139.499907;0.05624996250000436;65;0.75;violin
139.499907;0.746874502083358;72;0.75;violin
139.55928196041668;0.05624996250000436;69;0.75;violin
139.62178191875003;0.056249962499975936;65;0.75;violin
139.68428187708335;0.05624996250000436;69;0.75;violin
139.7467818354167;0.056249962499975936;65;0.75;violin
139.80928179375002;0.05624996250000436;69;0.75;violin
139.87178175208336;0.056249962499975936;65;0.75;violin
139.93428171041668;0.05624996250000436;69;0.75;violin
139.99678166875003;0.056249962499975936;65;0.75;violin
140.05928162708335;0.05624996250000436;69;0.75;violin
140.1217815854167;0.056249962499975936;65;0.75;violin
140.18428154375002;0.05624996250000436;69;0.75;violin
140.2499065;0.05624996250000436;66;0.75;violin
140.2499065;0.7468745020833296;74;0.75;violin
140.30928146041668;0.05624996250000436;72;0.75;violin
140.37178141875;0.05624996250000436;66;0.75;violin
140.43428137708335;0.05624996250000436;72;0.75;violin
140.49678133541667;0.05624996250000436;66;0.75;violin
140.55928129375002;0.05624996250000436;72;0.75;violin
140.62178125208334;0.05624996250000436;66;0.75;violin
140.68428121041669;0.05624996250000436;72;0.75;violin
140.74678116875;0.05624996250000436;66;0.75;violin
140.80928112708335;0.05624996250000436;72;0.75;violin
140.87178108541667;0.05624996250000436;66;0.75;violin
140.93428104375002;0.05624996250000436;72;0.75;violin
140.999906;0.05624996250000436;67;0.75;violin
140.999906;0.7468745020833296;75;0.75;violin
141.0592809604167;0.05624996250000436;70;0.75;violin
141.12178091875;0.05624996250000436;67;0.75;violin
141.18428087708335;0.05624996250000436;70;0.75;violin
141.24678083541667;0.05624996250000436;67;0.75;violin
141.30928079375002;0.05624996250000436;70;0.75;violin
141.37178075208334;0.05624996250000436;67;0.75;violin
141.4342807104167;0.05624996250000436;70;0.75;violin
141.49678066875;0.05624996250000436;67;0.75;violin
141.55928062708335;0.05624996250000436;70;0.75;violin
141.62178058541667;0.05624996250000436;67;0.75;violin
141.68428054375002;0.05624996250000436;70;0.75;violin
141.7499055;0.05624996250000436;69;0.75;violin
141.7499055;0.7468745020833296;77;0.75;violin
141.8092804604167;0.05624996250000436;75;0.75;violin
141.87178041875;0.05624996250000436;69;0.75;violin
141.93428037708335;0.05624996250000436;75;0.75;violin
141.99678033541667;0.05624996250000436;69;0.75;violin
142.05928029375002;0.05624996250000436;75;0.75;violin
142.12178025208334;0.05624996250000436;69;0.75;violin
142.1842802104167;0.05624996250000436;75;0.75;violin
142.24678016875;0.05624996250000436;69;0.75;violin
142.30928012708335;0.05624996250000436;75;0.75;violin
142.37178008541667;0.05624996250000436;69;0.75;violin
142.43428004375002;0.05624996250000436;75;0.75;violin
142.499905;0.05624996250000436;70;0.75;violin
142.499905;0.7468745020833296;77;0.75;violin
142.5592799604167;0.05624996250000436;74;0.75;violin
142.62177991875;0.05624996250000436;70;0.75;violin
142.68427987708336;0.05624996250000436;74;0.75;violin
142.74677983541667;0.05624996250000436;70;0.75;violin
142.80927979375002;0.05624996250000436;74;0.75;violin
142.87177975208334;0.05624996250000436;70;0.75;violin
142.9342797104167;0.05624996250000436;74;0.75;violin
142.99677966875;0.05624996250000436;70;0.75;violin
143.05927962708336;0.05624996250000436;74;0.75;violin
143.12177958541668;0.05624996250000436;70;0.75;violin
143.18427954375002;0.05624996250000436;74;0.75;violin
143.2499045;0.05624996250000436;72;0.75;violin
143.2499045;0.7468745020833296;81;0.75;violin
143.3092794604167;0.05624996250000436;75;0.75;violin
143.37177941875;0.05624996250000436;72;0.75;violin
143.43427937708336;0.05624996250000436;75;0.75;violin
143.49677933541668;0.05624996250000436;72;0.75;violin
143.55927929375002;0.05624996250000436;75;0.75;violin
143.62177925208334;0.05624996250000436;72;0.75;violin
143.6842792104167;0.05624996250000436;75;0.75;violin
143.74677916875;0.05624996250000436;72;0.75;violin
143.80927912708336;0.05624996250000436;75;0.75;violin
143.87177908541668;0.05624996250000436;72;0.75;violin
143.93427904375002;0.05624996250000436;75;0.75;violin
143.99990400000002;0.05624996250000436;74;0.75;violin
143.99990400000002;0.7468745020833296;82;0.75;violin
144.0592789604167;0.05624996250000436;77;0.75;violin
144.12177891875;0.05624996250000436;74;0.75;violin
144.18427887708336;0.05624996250000436;77;0.75;violin
144.24677883541668;0.05624996250000436;74;0.75;violin
144.30927879375002;0.05624996250000436;77;0.75;violin
144.37177875208334;0.05624996250000436;74;0.75;violin
144.4342787104167;0.05624996250000436;77;0.75;violin
144.49677866875;0.05624996250000436;74;0.75;violin
144.55927862708336;0.05624996250000436;77;0.75;violin
144.62177858541668;0.05624996250000436;74;0.75;violin
144.68427854375003;0.05624996250000436;77;0.75;violin
144.74990350000002;0.05624996250000436;75;0.75;violin
144.74990350000002;0.7468745020833296;82;0.75;violin
144.8092784604167;0.05624996250000436;79;0.75;violin
144.87177841875;0.05624996250000436;75;0.75;violin
144.93427837708336;0.05624996250000436;79;0.75;violin
144.99677833541668;0.05624996250000436;75;0.75;violin
145.05927829375003;0.05624996250000436;79;0.75;violin
145.12177825208335;0.05624996250000436;75;0.75;violin
145.1842782104167;0.05624996250000436;79;0.75;violin
145.24677816875;0.05624996250000436;75;0.75;violin
145.30927812708336;0.05624996250000436;79;0.75;violin
145.37177808541668;0.05624996250000436;75;0.75;violin
145.43427804375003;0.05624996250000436;79;0.75;violin
145.49990300000002;0.05624996250000436;76;0.75;violin
145.49990300000002;0.7468745020833296;84;0.75;violin
145.5592779604167;0.05624996250000436;79;0.75;violin
145.62177791875;0.05624996250000436;76;0.75;violin
145.68427787708336;0.05624996250000436;79;0.75;violin
145.74677783541668;0.05624996250000436;76;0.75;violin
145.80927779375003;0.05624996250000436;79;0.75;violin
145.87177775208335;0.05624996250000436;76;0.75;violin
145.9342777104167;0.05624996250000436;79;0.75;violin
145.99677766875;0.05624996250000436;76;0.75;violin
146.05927762708336;0.05624996250000436;79;0.75;violin
146.12177758541668;0.05624996250000436;76;0.75;violin
146.18427754375003;0.05624996250000436;79;0.75;violin
146.24990250000002;0.05624996250000436;76;0.75;violin
146.24990250000002;0.7468745020833296;85;0.75;violin
146.3092774604167;0.05624996250000436;79;0.75;violin
146.37177741875;0.05624996250000436;76;0.75;violin
146.43427737708336;0.05624996250000436;79;0.75;violin
146.49677733541668;0.05624996250000436;76;0.75;violin
146.55927729375003;0.05624996250000436;79;0.75;violin
146.62177725208335;0.05624996250000436;76;0.75;violin
146.6842772104167;0.05624996250000436;79;0.75;violin
146.74677716875001;0.05624996250000436;76;0.75;violin
146.80927712708336;0.056249962499975936;79;0.75;violin
146.87177708541668;0.05624996250000436;76;0.75;violin
146.93427704375003;0.056249962499975936;79;0.75;violin
146.99990200000002;0.05624996250000436;79;0.75;violin
146.99990200000002;0.7468745020833296;88;0.75;violin
147.0592769604167;0.056249962499975936;82;0.75;violin
147.12177691875002;0.05624996250000436;79;0.75;violin
147.18427687708336;0.056249962499975936;82;0.75;violin
147.24677683541668;0.05624996250000436;79;0.75;violin
147.30927679375003;0.056249962499975936;82;0.75;violin
147.37177675208335;0.05624996250000436;79;0.75;violin
147.4342767104167;0.056249962499975936;82;0.75;violin
147.49677666875002;0.05624996250000436;79;0.75;violin
147.55927662708336;0.056249962499975936;82;0.75;violin
147.62177658541668;0.05624996250000436;79;0.75;violin
147.68427654375003;0.056249962499975936;82;0.75;violin
147.74990150000002;0.05624996250000436;76;0.75;violin
147.74990150000002;0.7468745020833296;85;0.75;violin
147.8092764604167;0.056249962499975936;79;0.75;violin
147.87177641875002;0.05624996250000436;76;0.75;violin
147.93427637708336;0.056249962499975936;79;0.75;violin
147.99677633541668;0.05624996250000436;76;0.75;violin
148.05927629375003;0.056249962499975936;79;0.75;violin
148.12177625208335;0.05624996250000436;76;0.75;violin
148.1842762104167;0.056249962499975936;79;0.75;violin
148.24677616875002;0.05624996250000436;76;0.75;violin
148.30927612708336;0.056249962499975936;79;0.75;violin
148.37177608541668;0.05624996250000436;76;0.75;violin
148.43427604375003;0.056249962499975936;79;0.75;violin
148.49990100000002;0.05624996250000436;77;0.75;violin
148.49990100000002;0.7468745020833296;86;0.75;violin
148.5592759604167;0.056249962499975936;82;0.75;violin
148.62177591875002;0.05624996250000436;77;0.75;violin
148.68427587708337;0.056249962499975936;82;0.75;violin
148.74677583541668;0.05624996250000436;77;0.75;violin
148.80927579375003;0.056249962499975936;82;0.75;violin
148.87177575208335;0.05624996250000436;77;0.75;violin
148.9342757104167;0.056249962499975936;82;0.75;violin
148.99677566875002;0.05624996250000436;77;0.75;violin
149.05927562708337;0.056249962499975936;82;0.75;violin
149.12177558541669;0.05624996250000436;77;0.75;violin
149.18427554375003;0.056249962499975936;82;0.75;violin
149.24990050000002;0.05624996250000436;74;0.75;violin
149.24990050000002;0.7468745020833296;82;0.75;violin
149.3092754604167;0.056249962499975936;77;0.75;violin
149.37177541875002;0.05624996250000436;74;0.75;violin
149.43427537708337;0.056249962499975936;77;0.75;violin
149.4967753354167;0.05624996250000436;74;0.75;violin
149.55927529375;0.05624996250000436;77;0.75;violin
149.62177525208335;0.05624996250000436;74;0.75;violin
149.68427521041667;0.05624996250000436;77;0.75;violin
149.74677516875002;0.05624996250000436;74;0.75;violin
149.80927512708334;0.05624996250000436;77;0.75;violin
149.8717750854167;0.05624996250000436;74;0.75;violin
149.93427504375;0.05624996250000436;77;0.75;violin
149.99990000000003;0.05624996250000436;70;0.75;violin
149.99990000000003;0.7468745020833296;77;0.75;violin
150.05927496041667;0.05624996250000436;74;0.75;violin
150.12177491875002;0.05624996250000436;70;0.75;violin
150.18427487708334;0.05624996250000436;74;0.75;violin
150.2467748354167;0.05624996250000436;70;0.75;violin
150.30927479375;0.05624996250000436;74;0.75;violin
150.37177475208335;0.05624996250000436;70;0.75;violin
150.43427471041667;0.05624996250000436;74;0.75;violin
150.49677466875002;0.05624996250000436;70;0.75;violin
150.55927462708334;0.05624996250000436;74;0.75;violin
150.6217745854167;0.05624996250000436;70;0.75;violin
150.68427454375;0.05624996250000436;74;0.75;violin
150.74989950000003;0.7468745020833296;65;0.75;violin
150.74989950000003;0.05624996250000436;70;0.75;violin
150.80927446041667;0.05624996250000436;74;0.75;violin
150.87177441875002;0.05624996250000436;70;0.75;violin
150.93427437708334;0.05624996250000436;74;0.75;violin
150.9967743354167;0.05624996250000436;70;0.75;violin
151.05927429375;0.05624996250000436;74;0.75;violin
151.12177425208336;0.05624996250000436;70;0.75;violin
151.18427421041667;0.05624996250000436;74;0.75;violin
151.24677416875002;0.05624996250000436;70;0.75;violin
151.30927412708334;0.05624996250000436;74;0.75;violin
151.3717740854167;0.05624996250000436;70;0.75;violin
151.43427404375;0.05624996250000436;74;0.75;violin
151.49989900000003;0.7468745020833296;63;0.75;violin
151.49989900000003;0.05624996250000436;69;0.75;violin
151.55927396041668;0.05624996250000436;72;0.75;violin
151.62177391875002;0.05624996250000436;69;0.75;violin
151.68427387708334;0.05624996250000436;72;0.75;violin
151.7467738354167;0.05624996250000436;69;0.75;violin
151.80927379375;0.05624996250000436;72;0.75;violin
151.87177375208336;0.05624996250000436;69;0.75;violin
151.93427371041668;0.05624996250000436;72;0.75;violin
151.99677366875002;0.05624996250000436;69;0.75;violin
152.05927362708334;0.05624996250000436;72;0.75;violin
152.1217735854167;0.05624996250000436;69;0.75;violin
152.18427354375;0.05624996250000436;72;0.75;violin
152.24989850000003;0.7468745020833296;60;0.75;violin
152.24989850000003;0.05624996250000436;63;0.75;violin
152.30927346041668;0.05624996250000436;69;0.75;violin
152.37177341875002;0.05624996250000436;63;0.75;violin
152.43427337708334;0.05624996250000436;69;0.75;violin
152.4967733354167;0.05624996250000436;63;0.75;violin
152.55927329375;0.05624996250000436;69;0.75;violin
152.62177325208336;0.05624996250000436;63;0.75;violin
152.68427321041668;0.05624996250000436;69;0.75;violin
152.74677316875002;0.05624996250000436;63;0.75;violin
152.80927312708334;0.05624996250000436;69;0.75;violin
152.8717730854167;0.05624996250000436;63;0.75;violin
152.93427304375;0.05624996250000436;69;0.75;violin
152.99989800000003;0.7468745020833296;58;0.75;violin
152.99989800000003;0.056249962499975936;62;0.75;violin
153.05927296041668;0.05624996250000436;70;0.75;violin
153.12177291875003;0.05624996250000436;62;0.75;violin
153.18427287708334;0.05624996250000436;70;0.75;violin
153.2467728354167;0.05624996250000436;62;0.7421875;violin
153.30927279375;0.05624996250000436;70;0.7421875;violin
153.37177275208336;0.05624996250000436;62;0.7421875;violin
153.43427271041668;0.05624996250000436;70;0.734375;violin
153.49677266875003;0.05624996250000436;62;0.734375;violin
153.55927262708335;0.05624996250000436;70;0.734375;violin
153.6217725854167;0.05624996250000436;62;0.7265625;violin
153.68427254375;0.05624996250000436;70;0.7265625;violin
153.74989750000003;0.7468745020833296;58;0.7265625;violin
153.74989750000003;0.056249962499975936;62;0.7265625;violin
153.80927246041668;0.05624996250000436;69;0.71875;violin
153.87177241875003;0.05624996250000436;62;0.71875;violin
153.93427237708335;0.05624996250000436;69;0.71875;violin
153.9967723354167;0.05624996250000436;62;0.7109375;violin
154.05927229375;0.05624996250000436;69;0.7109375;violin
154.12177225208336;0.05624996250000436;62;0.7109375;violin
154.18427221041668;0.05624996250000436;69;0.703125;violin
154.24677216875003;0.05624996250000436;62;0.703125;violin
154.30927212708335;0.05624996250000436;69;0.703125;violin
154.3717720854167;0.05624996250000436;62;0.6953125;violin
154.43427204375;0.05624996250000436;69;0.6953125;violin
154.49989700000003;0.7468745020833296;58;0.6953125;violin
154.49989700000003;0.056249962499975936;62;0.6953125;violin
154.55927196041668;0.05624996250000436;68;0.6875;violin
154.62177191875003;0.05624996250000436;62;0.6875;violin
154.68427187708335;0.05624996250000436;68;0.6875;violin
154.7467718354167;0.05624996250000436;62;0.6796875;violin
154.80927179375;0.05624996250000436;68;0.6796875;violin
154.87177175208336;0.05624996250000436;62;0.6796875;violin
154.93427171041668;0.05624996250000436;68;0.671875;violin
154.99677166875003;0.05624996250000436;62;0.671875;violin
155.05927162708335;0.05624996250000436;68;0.671875;violin
155.1217715854167;0.05624996250000436;62;0.6640625;violin
155.18427154375001;0.05624996250000436;68;0.6640625;violin
155.24989650000003;0.7468745020833296;58;0.6640625;violin
155.24989650000003;0.056249962499975936;63;0.6640625;violin
155.30927146041668;0.05624996250000436;67;0.65625;violin
155.37177141875003;0.05624996250000436;63;0.65625;violin
155.43427137708335;0.05624996250000436;67;0.65625;violin
155.4967713354167;0.05624996250000436;63;0.6484375;violin
155.55927129375002;0.05624996250000436;67;0.6484375;violin
155.62177125208336;0.05624996250000436;63;0.6484375;violin
155.68427121041668;0.05624996250000436;67;0.640625;violin
155.74677116875003;0.05624996250000436;63;0.640625;violin
155.80927112708335;0.05624996250000436;67;0.640625;violin
155.8717710854167;0.056249962499975936;63;0.640625;violin
155.93427104375002;0.05624996250000436;67;0.6328125;violin
155.999896;0.746874502083358;57;0.6328125;violin
155.999896;0.05624996250000436;63;0.6328125;violin
156.05927096041668;0.05624996250000436;66;0.6328125;violin
156.12177091875003;0.056249962499975936;63;0.625;violin
156.18427087708335;0.05624996250000436;66;0.625;violin
156.2467708354167;0.056249962499975936;63;0.625;violin
156.30927079375002;0.05624996250000436;66;0.6171875;violin
156.37177075208336;0.056249962499975936;63;0.6171875;violin
156.43427071041668;0.05624996250000436;66;0.6171875;violin
156.49677066875003;0.056249962499975936;63;0.609375;violin
156.55927062708335;0.05624996250000436;66;0.609375;violin
156.6217705854167;0.056249962499975936;63;0.609375;violin
156.68427054375002;0.05624996250000436;66;0.6015625;violin
156.7498955;0.746874502083358;57;0.6015625;violin
156.7498955;0.05624996250000436;63;0.6015625;violin
156.80927046041668;0.05624996250000436;65;0.6015625;violin
156.87177041875003;0.056249962499975936;63;0.59375;violin
156.93427037708335;0.05624996250000436;65;0.59375;violin
156.9967703354167;0.056249962499975936;63;0.59375;violin
157.05927029375002;0.05624996250000436;65;0.5859375;violin
157.12177025208337;0.056249962499975936;63;0.5859375;violin
157.18427021041668;0.05624996250000436;65;0.5859375;violin
157.24677016875003;0.056249962499975936;63;0.578125;violin
157.30927012708335;0.05624996250000436;65;0.578125;violin
157.3717700854167;0.056249962499975936;63;0.578125;violin
157.43427004375002;0.05624996250000436;65;0.5703125;violin
157.499895;1.4968740020833309;58;0.5703125;violin
157.499895;0.05624996250000436;63;0.5703125;violin
157.55926996041669;0.05624996250000436;65;0.5703125;violin
157.62176991875003;0.056249962499975936;63;0.5625;violin
157.68426987708335;0.05624996250000436;65;0.5625;violin
157.7467698354167;0.056249962499975936;63;0.5625;violin
157.80926979375002;0.05624996250000436;65;0.5546875;violin
157.87176975208337;0.056249962499975936;63;0.5546875;violin
157.9342697104167;0.05624996250000436;65;0.5546875;violin
157.99676966875003;0.056249962499975936;63;0.546875;violin
158.05926962708335;0.05624996250000436;65;0.546875;violin
158.1217695854167;0.056249962499975936;63;0.546875;violin
158.18426954375002;0.05624996250000436;65;0.5390625;violin
158.2498945;0.05624996250000436;63;0.5390625;violin
158.3092694604167;0.05624996250000436;65;0.5390625;violin
158.37176941875003;0.056249962499975936;63;0.53125;violin
158.43426937708335;0.05624996250000436;65;0.53125;violin
158.4967693354167;0.056249962499975936;63;0.53125;violin
158.55926929375002;0.05624996250000436;65;0.5234375;violin
158.62176925208337;0.056249962499975936;63;0.5234375;violin
158.6842692104167;0.05624996250000436;65;0.5234375;violin
158.74676916875;0.05624996250000436;63;0.515625;violin
158.80926912708335;0.05624996250000436;65;0.515625;violin
158.87176908541667;0.05624996250000436;63;0.515625;violin
158.93426904375002;0.05624996250000436;65;0.515625;violin
158.999894;1.4968740020833309;58;0.5078125;violin
158.999894;0.05624996250000436;62;0.5078125;violin
159.0592689604167;0.05624996250000436;65;0.5078125;violin
159.12176891875;0.05624996250000436;62;0.5078125;violin
159.18426887708335;0.05624996250000436;65;0.5;violin
159.24676883541667;0.05624996250000436;62;0.5;violin
159.30926879375002;0.05624996250000436;65;0.5;violin
159.37176875208334;0.05624996250000436;62;0.4921875;violin
159.4342687104167;0.05624996250000436;65;0.4921875;violin
159.49676866875;0.05624996250000436;62;0.4921875;violin
159.55926862708336;0.05624996250000436;65;0.484375;violin
159.62176858541667;0.05624996250000436;62;0.484375;violin
159.68426854375002;0.05624996250000436;65;0.484375;violin
159.7498935;0.05624996250000436;62;0.4765625;violin
159.8092684604167;0.05624996250000436;65;0.4765625;violin
159.87176841875;0.05624996250000436;62;0.4765625;violin
159.93426837708336;0.05624996250000436;65;0.46875;violin
159.99676833541668;0.05624996250000436;62;0.46875;violin
160.05926829375002;0.05624996250000436;65;0.46875;violin
160.12176825208334;0.05624996250000436;62;0.4609375;violin
160.1842682104167;0.05624996250000436;65;0.4609375;violin
160.24676816875;0.05624996250000436;62;0.4609375;violin
160.30926812708336;0.05624996250000436;65;0.453125;violin
160.37176808541668;0.05624996250000436;62;0.453125;violin
160.43426804375002;0.05624996250000436;65;0.453125;violin
160.49989300000001;1.4968740020833309;57;0.4453125;violin
160.49989300000001;0.05624996250000436;62;0.4453125;violin
160.5592679604167;0.05624996250000436;66;0.4453125;violin
160.62176791875;0.05624996250000436;62;0.4453125;violin
160.68426787708336;0.05624996250000436;66;0.4375;violin
160.74676783541668;0.05624996250000436;62;0.4375;violin
160.80926779375002;0.05624996250000436;66;0.4375;violin
160.87176775208334;0.05624996250000436;62;0.4296875;violin
160.9342677104167;0.05624996250000436;66;0.4296875;violin
160.99676766875;0.05624996250000436;62;0.4296875;violin
161.05926762708336;0.05624996250000436;66;0.421875;violin
161.12176758541668;0.05624996250000436;62;0.421875;violin
161.18426754375002;0.05624996250000436;66;0.421875;violin
161.24989250000002;0.05624996250000436;62;0.4140625;violin
161.3092674604167;0.05624996250000436;66;0.4140625;violin
161.37176741875;0.05624996250000436;62;0.4140625;violin
161.43426737708336;0.05624996250000436;66;0.40625;violin
161.49676733541668;0.05624996250000436;62;0.40625;violin
161.55926729375003;0.05624996250000436;66;0.40625;violin
161.62176725208334;0.05624996250000436;62;0.3984375;violin
161.6842672104167;0.05624996250000436;66;0.3984375;violin
161.74676716875;0.05624996250000436;62;0.3984375;violin
161.80926712708336;0.05624996250000436;66;0.390625;violin
161.87176708541668;0.05624996250000436;62;0.390625;violin
161.93426704375003;0.05624996250000436;66;0.390625;violin
161.99989200000002;2.246873502083332;55;0.3828125;violin
161.99989200000002;0.05624996250000436;67;0.3828125;violin
162.0592669604167;0.05624996250000436;71;0.3828125;violin
162.12176691875;0.05624996250000436;67;0.3828125;violin
162.18426687708336;0.05624996250000436;71;0.3828125;violin
162.24676683541668;0.05624996250000436;67;0.3828125;violin
162.30926679375003;0.05624996250000436;71;0.390625;violin
162.37176675208335;0.05624996250000436;67;0.390625;violin
162.4342667104167;0.05624996250000436;71;0.390625;violin
162.49676666875;0.05624996250000436;67;0.390625;violin
162.55926662708336;0.05624996250000436;71;0.390625;violin
162.62176658541668;0.05624996250000436;67;0.3984375;violin
162.68426654375003;0.05624996250000436;71;0.3984375;violin
162.74989150000002;0.05624996250000436;67;0.3984375;violin
162.8092664604167;0.05624996250000436;71;0.3984375;violin
162.87176641875;0.05624996250000436;67;0.40625;violin
162.93426637708336;0.05624996250000436;71;0.40625;violin
162.99676633541668;0.05624996250000436;67;0.40625;violin
163.05926629375003;0.05624996250000436;71;0.40625;violin
163.12176625208335;0.05624996250000436;67;0.40625;violin
163.1842662104167;0.05624996250000436;71;0.4140625;violin
163.24676616875;0.05624996250000436;67;0.4140625;violin
163.30926612708336;0.05624996250000436;71;0.4140625;violin
163.37176608541668;0.05624996250000436;67;0.4140625;violin
163.43426604375003;0.05624996250000436;71;0.4140625;violin
163.49989100000002;0.05624996250000436;67;0.421875;violin
163.5592659604167;0.05624996250000436;71;0.421875;violin
163.62176591875001;0.05624996250000436;67;0.421875;violin
163.68426587708336;0.05624996250000436;71;0.421875;violin
163.74676583541668;0.05624996250000436;67;0.4296875;violin
163.80926579375003;0.05624996250000436;71;0.4296875;violin
163.87176575208335;0.05624996250000436;67;0.4296875;violin
163.9342657104167;0.05624996250000436;71;0.4296875;violin
163.99676566875002;0.05624996250000436;67;0.4296875;violin
164.05926562708336;0.05624996250000436;71;0.4375;violin
164.12176558541668;0.05624996250000436;67;0.4375;violin
164.18426554375003;0.05624996250000436;71;0.4375;violin
164.24989050000002;0.7468745020833296;55;0.4375;violin
164.24989050000002;0.05624996250000436;67;0.4375;violin
164.3092654604167;0.05624996250000436;71;0.4453125;violin
164.37176541875002;0.05624996250000436;67;0.4453125;violin
164.43426537708336;0.05624996250000436;71;0.4453125;violin
164.49676533541668;0.05624996250000436;67;0.4453125;violin
164.55926529375003;0.05624996250000436;71;0.4453125;violin
164.62176525208335;0.05624996250000436;67;0.453125;violin
164.6842652104167;0.05624996250000436;71;0.453125;violin
164.74676516875002;0.05624996250000436;67;0.453125;violin
164.80926512708336;0.05624996250000436;71;0.453125;violin
164.87176508541668;0.05624996250000436;67;0.453125;violin
164.93426504375003;0.05624996250000436;71;0.4609375;violin
164.99989000000002;0.7468745020833296;55;0.4609375;violin
164.99989000000002;0.05624996250000436;69;0.4609375;violin
165.0592649604167;0.056249962499975936;72;0.4609375;violin
165.12176491875002;0.05624996250000436;69;0.4609375;violin
165.18426487708336;0.056249962499975936;72;0.46875;violin
165.24676483541668;0.05624996250000436;69;0.46875;violin
165.30926479375003;0.056249962499975936;72;0.46875;violin
165.37176475208335;0.05624996250000436;69;0.46875;violin
165.4342647104167;0.056249962499975936;72;0.46875;violin
165.49676466875002;0.05624996250000436;69;0.4765625;violin
165.55926462708337;0.056249962499975936;72;0.4765625;violin
165.62176458541668;0.05624996250000436;69;0.4765625;violin
165.68426454375003;0.056249962499975936;72;0.4765625;violin
165.74988950000002;0.7468745020833296;55;0.484375;violin
165.74988950000002;0.05624996250000436;71;0.484375;violin
165.8092644604167;0.056249962499975936;74;0.484375;violin
165.87176441875002;0.05624996250000436;71;0.484375;violin
165.93426437708337;0.056249962499975936;74;0.484375;violin
165.99676433541669;0.05624996250000436;71;0.484375;violin
166.05926429375003;0.056249962499975936;74;0.4921875;violin
166.12176425208335;0.05624996250000436;71;0.4921875;violin
166.1842642104167;0.056249962499975936;74;0.4921875;violin
166.24676416875002;0.05624996250000436;71;0.4921875;violin
166.30926412708337;0.056249962499975936;74;0.5;violin
166.3717640854167;0.05624996250000436;71;0.5;violin
166.43426404375003;0.056249962499975936;74;0.5;violin
166.49988900000002;0.7468745020833296;55;0.5;violin
166.49988900000002;0.05624996250000436;72;0.5;violin
166.5592639604167;0.056249962499975936;75;0.5;violin
166.62176391875002;0.05624996250000436;72;0.5078125;violin
166.68426387708337;0.056249962499975936;75;0.5078125;violin
166.7467638354167;0.05624996250000436;72;0.5078125;violin
166.80926379375003;0.056249962499975936;75;0.5078125;violin
166.87176375208335;0.05624996250000436;72;0.5078125;violin
166.9342637104167;0.056249962499975936;75;0.515625;violin
166.99676366875002;0.05624996250000436;72;0.515625;violin
167.05926362708337;0.056249962499975936;75;0.515625;violin
167.1217635854167;0.05624996250000436;72;0.515625;violin
167.18426354375003;0.056249962499975936;75;0.5234375;violin
167.24988850000003;0.7468745020833296;55;0.5234375;violin
167.24988850000003;0.05624996250000436;74;0.5234375;violin
167.3092634604167;0.056249962499975936;77;0.5234375;violin
167.37176341875002;0.05624996250000436;74;0.5234375;violin
167.43426337708337;0.056249962499975936;77;0.5234375;violin
167.4967633354167;0.05624996250000436;74;0.53125;violin
167.55926329375004;0.056249962499975936;77;0.53125;violin
167.62176325208335;0.05624996250000436;74;0.53125;violin
167.6842632104167;0.056249962499975936;77;0.53125;violin
167.74676316875002;0.05624996250000436;74;0.5390625;violin
167.80926312708334;0.05624996250000436;77;0.5390625;violin
167.8717630854167;0.05624996250000436;74;0.5390625;violin
167.93426304375;0.05624996250000436;77;0.5390625;violin
167.99988800000003;0.7468745020833296;55;0.5390625;violin
167.99988800000003;0.05624996250000436;75;0.5390625;violin
168.05926296041667;0.05624996250000436;79;0.546875;violin
168.12176291875002;0.05624996250000436;75;0.546875;violin
168.18426287708334;0.05624996250000436;79;0.546875;violin
168.2467628354167;0.05624996250000436;75;0.546875;violin
168.30926279375;0.05624996250000436;79;0.546875;violin
168.37176275208336;0.05624996250000436;75;0.5546875;violin
168.43426271041668;0.05624996250000436;79;0.5546875;violin
168.49676266875002;0.05624996250000436;75;0.5546875;violin
168.55926262708334;0.05624996250000436;79;0.5546875;violin
168.6217625854167;0.05624996250000436;75;0.5625;violin
168.68426254375;0.05624996250000436;79;0.5625;violin
168.74988750000003;0.7468745020833296;55;0.5625;violin
168.74988750000003;0.05624996250000436;75;0.5625;violin
168.80926246041668;0.05624996250000436;79;0.5625;violin
168.87176241875002;0.05624996250000436;75;0.5625;violin
168.93426237708334;0.05624996250000436;79;0.5703125;violin
168.9967623354167;0.05624996250000436;75;0.5703125;violin
169.05926229375;0.05624996250000436;79;0.5703125;violin
169.12176225208336;0.05624996250000436;75;0.5703125;violin
169.18426221041668;0.05624996250000436;79;0.578125;violin
169.24676216875002;0.05624996250000436;75;0.578125;violin
169.30926212708334;0.05624996250000436;79;0.578125;violin
169.3717620854167;0.05624996250000436;75;0.578125;violin
169.43426204375;0.05624996250000436;79;0.578125;violin
169.49988700000003;0.7468745020833296;55;0.5859375;violin
169.49988700000003;0.05624996250000436;74;0.5859375;violin
169.55926196041668;0.05624996250000436;77;0.5859375;violin
169.62176191875002;0.05624996250000436;74;0.5859375;violin
169.68426187708334;0.05624996250000436;77;0.5859375;violin
169.7467618354167;0.05624996250000436;74;0.5859375;violin
169.80926179375;0.05624996250000436;77;0.59375;violin
169.87176175208336;0.05624996250000436;74;0.59375;violin
169.93426171041668;0.05624996250000436;77;0.59375;violin
169.99676166875003;0.05624996250000436;74;0.59375;violin
170.05926162708334;0.05624996250000436;77;0.6015625;violin
170.1217615854167;0.05624996250000436;74;0.6015625;violin
170.18426154375;0.05624996250000436;77;0.6015625;violin
170.24988650000003;0.7468745020833296;55;0.6015625;violin
170.24988650000003;0.05624996250000436;72;0.6015625;violin
170.30926146041668;0.05624996250000436;75;0.6015625;violin
170.37176141875003;0.05624996250000436;72;0.609375;violin
170.43426137708335;0.05624996250000436;75;0.609375;violin
170.4967613354167;0.05624996250000436;72;0.609375;violin
170.55926129375;0.05624996250000436;75;0.609375;violin
170.62176125208336;0.05624996250000436;72;0.6171875;violin
170.68426121041668;0.05624996250000436;75;0.6171875;violin
170.74676116875003;0.05624996250000436;72;0.6171875;violin
170.80926112708335;0.05624996250000436;75;0.6171875;violin
170.8717610854167;0.05624996250000436;72;0.6171875;violin
170.93426104375;0.05624996250000436;75;0.625;violin
170.99988600000003;2.246873502083332;55;0.625;violin
170.99988600000003;0.056249962499975936;71;0.625;violin
171.05926096041668;0.05624996250000436;74;0.625;violin
171.12176091875003;0.05624996250000436;71;0.625;violin
171.18426087708335;0.05624996250000436;74;0.625;violin
171.2467608354167;0.05624996250000436;71;0.6328125;violin
171.30926079375;0.05624996250000436;74;0.6328125;violin
171.37176075208336;0.05624996250000436;71;0.6328125;violin
171.43426071041668;0.05624996250000436;74;0.6328125;violin
171.49676066875003;0.05624996250000436;71;0.640625;violin
171.55926062708335;0.05624996250000436;74;0.640625;violin
171.6217605854167;0.05624996250000436;71;0.640625;violin
171.68426054375;0.05624996250000436;74;0.640625;violin
171.74988550000003;0.056249962499975936;71;0.640625;violin
171.80926046041668;0.05624996250000436;74;0.6484375;violin
171.87176041875003;0.05624996250000436;71;0.6484375;violin
171.93426037708335;0.05624996250000436;74;0.6484375;violin
171.9967603354167;0.05624996250000436;71;0.6484375;violin
172.05926029375001;0.05624996250000436;74;0.65625;violin
172.12176025208336;0.05624996250000436;71;0.65625;violin
172.18426021041668;0.05624996250000436;74;0.65625;violin
172.24676016875003;0.05624996250000436;71;0.65625;violin
172.30926012708335;0.05624996250000436;74;0.65625;violin
172.3717600854167;0.05624996250000436;71;0.6640625;violin
172.43426004375002;0.05624996250000436;74;0.6640625;violin
172.49988500000003;0.056249962499975936;71;0.6640625;violin
172.55925996041668;0.05624996250000436;74;0.6640625;violin
172.62175991875003;0.05624996250000436;71;0.6640625;violin
172.68425987708335;0.05624996250000436;74;0.671875;violin
172.7467598354167;0.05624996250000436;71;0.671875;violin
172.80925979375002;0.05624996250000436;74;0.671875;violin
172.87175975208336;0.05624996250000436;71;0.671875;violin
172.93425971041668;0.05624996250000436;74;0.6796875;violin
172.99675966875003;0.05624996250000436;71;0.6796875;violin
173.05925962708335;0.05624996250000436;74;0.6796875;violin
173.1217595854167;0.05624996250000436;71;0.6796875;violin
173.18425954375002;0.05624996250000436;74;0.6796875;violin
173.24988450000004;0.7468745020833296;55;0.6875;violin
173.24988450000004;0.056249962499975936;65;0.6875;violin
173.30925946041668;0.05624996250000436;69;0.6875;violin
173.37175941875003;0.05624996250000436;65;0.6875;violin
173.43425937708335;0.05624996250000436;69;0.6875;violin
173.4967593354167;0.05624996250000436;65;0.6953125;violin
173.55925929375002;0.05624996250000436;69;0.6953125;violin
173.62175925208336;0.05624996250000436;65;0.6953125;violin
173.68425921041668;0.05624996250000436;69;0.6953125;violin
173.74675916875003;0.05624996250000436;65;0.6953125;violin
173.80925912708335;0.05624996250000436;69;0.703125;violin
173.8717590854167;0.05624996250000436;65;0.703125;violin
173.93425904375002;0.05624996250000436;69;0.703125;violin
173.999884;0.746874502083358;55;0.703125;violin
173.999884;0.05624996250000436;63;0.703125;violin
174.05925896041668;0.05624996250000436;67;0.703125;violin
174.12175891875003;0.056249962499975936;63;0.7109375;violin
174.18425887708335;0.05624996250000436;67;0.7109375;violin
174.2467588354167;0.056249962499975936;63;0.7109375;violin
174.30925879375002;0.05624996250000436;67;0.7109375;violin
174.37175875208337;0.056249962499975936;63;0.71875;violin
174.43425871041669;0.05624996250000436;67;0.71875;violin
174.49675866875003;0.056249962499975936;63;0.71875;violin
174.55925862708335;0.05624996250000436;67;0.71875;violin
174.6217585854167;0.056249962499975936;63;0.71875;violin
174.68425854375002;0.05624996250000436;67;0.7265625;violin
174.7498835;0.746874502083358;55;0.7265625;violin
174.7498835;0.05624996250000436;62;0.7265625;violin
174.8092584604167;0.05624996250000436;65;0.7265625;violin
174.87175841875003;0.056249962499975936;62;0.7265625;violin
174.93425837708335;0.05624996250000436;65;0.734375;violin
174.9967583354167;0.056249962499975936;62;0.734375;violin
175.05925829375002;0.05624996250000436;65;0.734375;violin
175.12175825208337;0.056249962499975936;62;0.734375;violin
175.1842582104167;0.05624996250000436;65;0.734375;violin
175.24675816875003;0.056249962499975936;62;0.7421875;violin
175.30925812708335;0.05624996250000436;65;0.7421875;violin
175.3717580854167;0.056249962499975936;62;0.7421875;violin
175.43425804375002;0.05624996250000436;65;0.7421875;violin
175.499883;0.05624996250000436;60;0.75;violin
175.499883;0.746874502083358;72;0.75;violin
175.5592579604167;0.05624996250000436;63;0.75;violin
175.62175791875003;0.056249962499975936;60;0.75;violin
175.68425787708335;0.05624996250000436;63;0.75;violin
175.7467578354167;0.056249962499975936;60;0.75;violin
175.80925779375002;0.05624996250000436;63;0.75;violin
175.87175775208337;0.056249962499975936;60;0.75;violin
175.9342577104167;0.05624996250000436;63;0.75;violin
175.99675766875004;0.056249962499975936;60;0.75;violin
176.05925762708335;0.05624996250000436;63;0.75;violin
176.1217575854167;0.056249962499975936;60;0.75;violin
176.18425754375002;0.05624996250000436;63;0.75;violin
176.2498825;0.05624996250000436;62;0.75;violin
176.2498825;0.7468745020833296;74;0.75;violin
176.3092574604167;0.05624996250000436;65;0.75;violin
176.37175741875004;0.056249962499975936;62;0.75;violin
176.43425737708336;0.05624996250000436;65;0.75;violin
176.4967573354167;0.056249962499975936;62;0.75;violin
176.55925729375002;0.05624996250000436;65;0.75;violin
176.62175725208337;0.056249962499975936;62;0.75;violin
176.6842572104167;0.05624996250000436;65;0.75;violin
176.74675716875004;0.056249962499975936;62;0.75;violin
176.80925712708336;0.05624996250000436;65;0.75;violin
176.8717570854167;0.056249962499975936;62;0.75;violin
176.93425704375002;0.05624996250000436;65;0.75;violin
176.999882;0.05624996250000436;63;0.75;violin
176.999882;0.7468745020833296;75;0.75;violin
177.0592569604167;0.05624996250000436;67;0.75;violin
177.12175691875;0.05624996250000436;63;0.75;violin
177.18425687708336;0.05624996250000436;67;0.75;violin
177.24675683541668;0.05624996250000436;63;0.75;violin
177.30925679375002;0.05624996250000436;67;0.75;violin
177.37175675208334;0.05624996250000436;63;0.75;violin
177.4342567104167;0.05624996250000436;67;0.75;violin
177.49675666875;0.05624996250000436;63;0.75;violin
177.55925662708336;0.05624996250000436;67;0.75;violin
177.62175658541668;0.05624996250000436;63;0.75;violin
177.68425654375002;0.05624996250000436;67;0.75;violin
177.74988150000001;0.05624996250000436;62;0.75;violin
177.74988150000001;0.7468745020833296;74;0.75;violin
177.8092564604167;0.05624996250000436;65;0.75;violin
177.87175641875;0.05624996250000436;62;0.75;violin
177.93425637708336;0.05624996250000436;65;0.75;violin
177.99675633541668;0.05624996250000436;62;0.75;violin
178.05925629375002;0.05624996250000436;65;0.75;violin
178.12175625208334;0.05624996250000436;62;0.75;violin
178.1842562104167;0.05624996250000436;65;0.75;violin
178.24675616875;0.05624996250000436;62;0.75;violin
178.30925612708336;0.05624996250000436;65;0.75;violin
178.37175608541668;0.05624996250000436;62;0.75;violin
178.43425604375003;0.05624996250000436;65;0.75;violin
178.49988100000002;0.05624996250000436;60;0.75;violin
178.49988100000002;0.7468745020833296;72;0.75;violin
178.5592559604167;0.05624996250000436;63;0.75;violin
178.62175591875;0.05624996250000436;60;0.75;violin
178.68425587708336;0.05624996250000436;63;0.75;violin
178.74675583541668;0.05624996250000436;60;0.75;violin
178.80925579375003;0.05624996250000436;63;0.75;violin
178.87175575208335;0.05624996250000436;60;0.75;violin
178.9342557104167;0.05624996250000436;63;0.75;violin
178.99675566875;0.05624996250000436;60;0.75;violin
179.05925562708336;0.05624996250000436;63;0.75;violin
179.12175558541668;0.05624996250000436;60;0.75;violin
179.18425554375003;0.05624996250000436;63;0.75;violin
179.24988050000002;0.05624996250000436;58;0.75;violin
179.24988050000002;0.7468745020833296;70;0.75;violin
179.3092554604167;0.05624996250000436;62;0.75;violin
179.37175541875;0.05624996250000436;58;0.75;violin
179.43425537708336;0.05624996250000436;62;0.75;violin
179.49675533541668;0.05624996250000436;58;0.75;violin
179.55925529375003;0.05624996250000436;62;0.75;violin
179.62175525208335;0.05624996250000436;58;0.75;violin
179.6842552104167;0.05624996250000436;62;0.75;violin
179.74675516875;0.05624996250000436;58;0.75;violin
179.80925512708336;0.05624996250000436;62;0.75;violin
179.87175508541668;0.05624996250000436;58;0.75;violin
179.93425504375003;0.05624996250000436;62;0.75;violin
179.99988000000002;0.059374960416676004;57;0.75;violin
179.99988000000002;0.05624996250000436;69;0.75;violin
180.0592549604167;0.05624996250000436;73;0.75;violin
180.06237995833337;0.05937496041664758;69;0.75;violin
180.12175491875;0.12499991666666688;69;0.75;violin
180.18425487708336;0.05624996250000436;73;0.75;violin
180.24675483541668;0.12499991666666688;69;0.75;violin
180.30925479375003;0.05624996250000436;73;0.75;violin
180.37175475208335;0.12499991666666688;69;0.75;violin
180.4342547104167;0.05624996250000436;73;0.75;violin
180.49675466875001;0.12499991666666688;69;0.75;violin
180.55925462708336;0.05624996250000436;73;0.75;violin
180.62175458541668;0.12812491458333852;69;0.75;violin
180.68425454375003;0.05624996250000436;73;0.75;violin
180.74987950000002;0.12187491874999523;69;0.75;violin
180.8092544604167;0.05624996250000436;73;0.75;violin
180.87175441875002;0.12499991666666688;69;0.75;violin
180.93425437708336;0.05624996250000436;73;0.75;violin
180.99675433541668;0.12499991666666688;69;0.75;violin
181.05925429375003;0.05624996250000436;73;0.75;violin
181.12175425208335;0.12499991666666688;69;0.75;violin
181.1842542104167;0.05624996250000436;73;0.75;violin
181.24675416875002;0.12499991666666688;69;0.75;violin
181.30925412708336;0.05624996250000436;73;0.75;violin
181.37175408541668;0.12812491458333852;69;0.75;violin
181.43425404375003;0.05624996250000436;73;0.75;violin
181.49987900000002;0.12187491874999523;69;0.75;violin
181.5592539604167;0.05624996250000436;73;0.75;violin
181.62175391875002;0.12499991666666688;69;0.75;violin
181.68425387708336;0.05624996250000436;73;0.75;violin
181.74675383541668;0.12499991666666688;69;0.75;violin
181.80925379375003;0.05624996250000436;73;0.75;violin
181.87175375208335;0.12499991666666688;69;0.75;violin
181.9342537104167;0.05624996250000436;73;0.75;violin
181.99675366875002;0.12499991666666688;69;0.75;violin
182.05925362708336;0.05624996250000436;73;0.75;violin
182.12175358541668;0.12812491458333852;69;0.75;violin
182.18425354375003;0.05624996250000436;73;0.75;violin
182.24987850000002;0.12187491874999523;69;0.75;violin
182.3092534604167;0.05624996250000436;73;0.75;violin
182.37175341875002;0.12499991666666688;69;0.75;violin
182.43425337708337;0.05624996250000436;73;0.75;violin
182.49675333541668;0.12499991666666688;69;0.75;violin
182.55925329375003;0.05624996250000436;73;0.75;violin
182.62175325208335;0.12499991666666688;69;0.75;violin
182.6842532104167;0.05624996250000436;73;0.75;violin
182.74675316875002;0.12499991666666688;69;0.75;violin
182.80925312708337;0.05624996250000436;73;0.75;violin
182.87175308541669;0.12499991666666688;69;0.75;violin
182.93425304375003;0.05624996250000436;73;0.75;violin
182.99987800000002;0.7468745020833296;69;0.75;violin
182.99987800000002;0.05624996250000436;71;0.75;violin
183.0592529604167;0.05624996250000436;74;0.75;violin
183.12175291875002;0.05624996250000436;71;0.75;violin
183.18425287708337;0.05624996250000436;74;0.75;violin
183.2467528354167;0.05624996250000436;71;0.75;violin
183.30925279375003;0.056249962499975936;74;0.75;violin
183.37175275208335;0.05624996250000436;71;0.75;violin
183.4342527104167;0.056249962499975936;74;0.75;violin
183.49675266875002;0.05624996250000436;71;0.75;violin
183.55925262708337;0.056249962499975936;74;0.75;violin
183.6217525854167;0.05624996250000436;71;0.75;violin
183.68425254375003;0.056249962499975936;74;0.75;violin
183.74987750000003;0.7468745020833296;69;0.75;violin
183.74987750000003;0.05624996250000436;73;0.75;violin
183.8092524604167;0.056249962499975936;76;0.75;violin
183.87175241875002;0.05624996250000436;73;0.75;violin
183.93425237708337;0.056249962499975936;76;0.75;violin
183.9967523354167;0.05624996250000436;73;0.75;violin
184.05925229375003;0.056249962499975936;76;0.75;violin
184.12175225208335;0.05624996250000436;73;0.75;violin
184.1842522104167;0.056249962499975936;76;0.75;violin
184.24675216875002;0.05624996250000436;73;0.75;violin
184.30925212708337;0.056249962499975936;76;0.75;violin
184.3717520854167;0.05624996250000436;73;0.75;violin
184.43425204375004;0.056249962499975936;76;0.75;violin
184.49987700000003;0.7468745020833296;69;0.75;violin
184.49987700000003;0.05624996250000436;74;0.75;violin
184.5592519604167;0.056249962499975936;77;0.75;violin
184.62175191875002;0.05624996250000436;74;0.75;violin
184.68425187708337;0.056249962499975936;77;0.75;violin
184.7467518354167;0.05624996250000436;74;0.75;violin
184.80925179375004;0.056249962499975936;77;0.75;violin
184.87175175208336;0.05624996250000436;74;0.75;violin
184.9342517104167;0.056249962499975936;77;0.75;violin
184.99675166875002;0.05624996250000436;74;0.75;violin
185.05925162708337;0.056249962499975936;77;0.75;violin
185.1217515854167;0.05624996250000436;74;0.75;violin
185.18425154375004;0.056249962499975936;77;0.75;violin
185.24987650000003;0.7468745020833296;69;0.75;violin
185.24987650000003;0.05624996250000436;76;0.75;violin
185.3092514604167;0.056249962499975936;79;0.75;violin
185.37175141875002;0.05624996250000436;76;0.75;violin
185.43425137708337;0.056249962499975936;79;0.75;violin
185.4967513354167;0.05624996250000436;76;0.75;violin
185.55925129375004;0.056249962499975936;79;0.75;violin
185.62175125208336;0.05624996250000436;76;0.75;violin
185.6842512104167;0.056249962499975936;79;0.75;violin
185.74675116875002;0.05624996250000436;76;0.75;violin
185.80925112708337;0.056249962499975936;79;0.75;violin
185.8717510854167;0.05624996250000436;76;0.75;violin
185.93425104375004;0.056249962499975936;79;0.75;violin
185.99987600000003;0.7468745020833296;69;0.75;violin
185.99987600000003;0.05624996250000436;77;0.75;violin
186.05925096041668;0.05624996250000436;81;0.75;violin
186.12175091875002;0.05624996250000436;77;0.75;violin
186.18425087708334;0.05624996250000436;81;0.75;violin
186.2467508354167;0.05624996250000436;77;0.75;violin
186.30925079375;0.05624996250000436;81;0.75;violin
186.37175075208336;0.05624996250000436;77;0.75;violin
186.43425071041668;0.05624996250000436;81;0.75;violin
186.49675066875002;0.05624996250000436;77;0.75;violin
186.55925062708334;0.05624996250000436;81;0.75;violin
186.6217505854167;0.05624996250000436;77;0.75;violin
186.68425054375;0.05624996250000436;81;0.75;violin
186.74987550000003;0.7468745020833296;69;0.75;violin
186.74987550000003;0.05624996250000436;77;0.75;violin
186.80925046041668;0.05624996250000436;81;0.75;violin
186.87175041875003;0.05624996250000436;77;0.75;violin
186.93425037708334;0.05624996250000436;81;0.75;violin
186.9967503354167;0.05624996250000436;77;0.75;violin
187.05925029375;0.05624996250000436;81;0.75;violin
187.12175025208336;0.05624996250000436;77;0.75;violin
187.18425021041668;0.05624996250000436;81;0.75;violin
187.24675016875003;0.05624996250000436;77;0.75;violin
187.30925012708335;0.05624996250000436;81;0.75;violin
187.3717500854167;0.05624996250000436;77;0.75;violin
187.43425004375;0.05624996250000436;81;0.75;violin
187.49987500000003;0.7468745020833296;69;0.75;violin
187.49987500000003;0.05624996250000436;76;0.75;violin
187.55924996041668;0.05624996250000436;79;0.75;violin
187.62174991875003;0.05624996250000436;76;0.75;violin
187.68424987708335;0.05624996250000436;79;0.75;violin
187.7467498354167;0.05624996250000436;76;0.75;violin
187.80924979375;0.05624996250000436;79;0.75;violin
187.87174975208336;0.05624996250000436;76;0.75;violin
187.93424971041668;0.05624996250000436;79;0.75;violin
187.99674966875003;0.05624996250000436;76;0.75;violin
188.05924962708335;0.05624996250000436;79;0.75;violin
188.1217495854167;0.05624996250000436;76;0.75;violin
188.18424954375;0.05624996250000436;79;0.75;violin
188.24987450000003;0.7468745020833296;69;0.75;violin
188.24987450000003;0.05624996250000436;74;0.75;violin
188.30924946041668;0.05624996250000436;77;0.75;violin
188.37174941875003;0.05624996250000436;74;0.75;violin
188.43424937708335;0.05624996250000436;77;0.75;violin
188.4967493354167;0.05624996250000436;74;0.75;violin
188.55924929375;0.05624996250000436;77;0.75;violin
188.62174925208336;0.05624996250000436;74;0.75;violin
188.68424921041668;0.05624996250000436;77;0.75;violin
188.74674916875003;0.05624996250000436;74;0.75;violin
188.80924912708335;0.05624996250000436;77;0.75;violin
188.8717490854167;0.05624996250000436;74;0.75;violin
188.93424904375001;0.05624996250000436;77;0.75;violin
188.99987400000003;2.246873502083332;69;0.75;violin
188.99987400000003;0.05624996250000436;73;0.75;violin
189.05924896041668;0.05624996250000436;76;0.75;violin
189.12174891875003;0.05624996250000436;73;0.75;violin
189.18424887708335;0.05624996250000436;76;0.75;violin
189.2467488354167;0.05624996250000436;73;0.75;violin
189.30924879375002;0.05624996250000436;76;0.75;violin
189.37174875208336;0.05624996250000436;73;0.75;violin
189.43424871041668;0.05624996250000436;76;0.75;violin
189.49674866875003;0.05624996250000436;73;0.75;violin
189.55924862708335;0.05624996250000436;76;0.75;violin
189.6217485854167;0.05624996250000436;73;0.75;violin
189.68424854375002;0.05624996250000436;76;0.75;violin
189.74987350000004;0.056249962499975936;73;0.75;violin
189.80924846041668;0.05624996250000436;76;0.75;violin
189.87174841875003;0.05624996250000436;73;0.75;violin
189.93424837708335;0.05624996250000436;76;0.75;violin
189.9967483354167;0.05624996250000436;73;0.75;violin
190.05924829375002;0.05624996250000436;76;0.75;violin
190.12174825208336;0.05624996250000436;73;0.75;violin
190.18424821041668;0.05624996250000436;76;0.75;violin
190.24674816875003;0.05624996250000436;73;0.75;violin
190.30924812708335;0.05624996250000436;76;0.75;violin
190.3717480854167;0.05624996250000436;73;0.75;violin
190.43424804375002;0.05624996250000436;76;0.75;violin
190.49987300000004;0.056249962499975936;73;0.75;violin
190.55924796041668;0.05624996250000436;76;0.75;violin
190.62174791875003;0.05624996250000436;73;0.75;violin
190.68424787708335;0.05624996250000436;76;0.75;violin
190.7467478354167;0.05624996250000436;73;0.75;violin
190.80924779375002;0.05624996250000436;76;0.75;violin
190.87174775208337;0.05624996250000436;73;0.75;violin
190.93424771041668;0.05624996250000436;76;0.75;violin
190.99674766875003;0.05624996250000436;73;0.75;violin
191.05924762708335;0.05624996250000436;76;0.75;violin
191.1217475854167;0.05624996250000436;73;0.75;violin
191.18424754375002;0.05624996250000436;76;0.75;violin
191.24987250000004;0.056249962499975936;67;0.75;violin
191.24987250000004;0.7468745020833296;69;0.75;violin
191.30924746041669;0.05624996250000436;70;0.75;violin
191.37174741875003;0.05624996250000436;67;0.75;violin
191.43424737708335;0.05624996250000436;70;0.75;violin
191.4967473354167;0.05624996250000436;67;0.75;violin
191.55924729375002;0.05624996250000436;70;0.75;violin
191.62174725208337;0.05624996250000436;67;0.75;violin
191.6842472104167;0.05624996250000436;70;0.75;violin
191.74674716875003;0.05624996250000436;67;0.75;violin
191.80924712708335;0.05624996250000436;70;0.75;violin
191.8717470854167;0.05624996250000436;67;0.75;violin
191.93424704375002;0.05624996250000436;70;0.75;violin
191.99987200000004;0.056249962499975936;65;0.75;violin
191.99987200000004;0.05937496041664758;69;0.75;violin
192.0592469604167;0.12499991666666688;69;0.75;violin
192.12174691875003;0.05624996250000436;65;0.75;violin
192.18424687708335;0.12499991666666688;69;0.75;violin
192.2467468354167;0.05624996250000436;65;0.75;violin
192.30924679375002;0.12499991666666688;69;0.75;violin
192.37174675208337;0.05624996250000436;65;0.75;violin
192.4342467104167;0.12499991666666688;69;0.75;violin
192.49674666875003;0.056249962499975936;65;0.75;violin
192.55924662708335;0.12499991666666688;69;0.75;violin
192.6217465854167;0.056249962499975936;65;0.75;violin
192.68424654375002;0.06249995833334765;69;0.75;violin
192.7498715;0.05624996250000436;64;0.75;violin
192.7498715;0.746874502083358;69;0.75;violin
192.8092464604167;0.05624996250000436;67;0.75;violin
192.87174641875004;0.056249962499975936;64;0.75;violin
192.93424637708335;0.05624996250000436;67;0.75;violin
192.9967463354167;0.056249962499975936;64;0.75;violin
193.05924629375002;0.05624996250000436;67;0.75;violin
193.12174625208337;0.056249962499975936;64;0.75;violin
193.1842462104167;0.05624996250000436;67;0.75;violin
193.24674616875004;0.056249962499975936;64;0.75;violin
193.30924612708336;0.05624996250000436;67;0.75;violin
193.3717460854167;0.056249962499975936;64;0.75;violin
193.43424604375002;0.05624996250000436;67;0.75;violin
193.499871;0.05624996250000436;62;0.75;violin
193.499871;0.746874502083358;74;0.75;violin
193.5592459604167;0.05624996250000436;65;0.75;violin
193.62174591875004;0.056249962499975936;62;0.75;violin
193.68424587708336;0.05624996250000436;65;0.75;violin
193.7467458354167;0.056249962499975936;62;0.75;violin
193.80924579375002;0.05624996250000436;65;0.75;violin
193.87174575208337;0.056249962499975936;62;0.75;violin
193.9342457104167;0.05624996250000436;65;0.75;violin
193.99674566875004;0.056249962499975936;62;0.75;violin
194.05924562708336;0.05624996250000436;65;0.75;violin
194.1217455854167;0.056249962499975936;62;0.75;violin
194.18424554375002;0.05624996250000436;65;0.75;violin
194.24987050000001;0.05624996250000436;64;0.75;violin
194.24987050000001;0.746874502083358;76;0.75;violin
194.3092454604167;0.05624996250000436;67;0.75;violin
194.37174541875004;0.056249962499975936;64;0.75;violin
194.43424537708336;0.05624996250000436;67;0.75;violin
194.4967453354167;0.056249962499975936;64;0.75;violin
194.55924529375002;0.05624996250000436;67;0.75;violin
194.62174525208337;0.056249962499975936;64;0.75;violin
194.6842452104167;0.05624996250000436;67;0.75;violin
194.74674516875004;0.056249962499975936;64;0.75;violin
194.80924512708336;0.05624996250000436;67;0.75;violin
194.8717450854167;0.056249962499975936;64;0.75;violin
194.93424504375002;0.05624996250000436;67;0.75;violin
194.99987000000002;0.05624996250000436;65;0.75;violin
194.99987000000002;0.7468745020833296;77;0.75;violin
195.0592449604167;0.05624996250000436;69;0.75;violin
195.12174491875004;0.056249962499975936;65;0.75;violin
195.18424487708336;0.05624996250000436;69;0.75;violin
195.24674483541668;0.05624996250000436;65;0.75;violin
195.30924479375003;0.05624996250000436;69;0.75;violin
195.37174475208334;0.05624996250000436;65;0.75;violin
195.4342447104167;0.05624996250000436;69;0.75;violin
195.49674466875;0.05624996250000436;65;0.75;violin
195.55924462708336;0.05624996250000436;69;0.75;violin
195.62174458541668;0.05624996250000436;65;0.75;violin
195.68424454375003;0.05624996250000436;69;0.75;violin
195.74986950000002;0.05624996250000436;64;0.75;violin
195.74986950000002;0.7468745020833296;76;0.75;violin
195.8092444604167;0.05624996250000436;67;0.75;violin
195.87174441875;0.05624996250000436;64;0.75;violin
195.93424437708336;0.05624996250000436;67;0.75;violin
195.99674433541668;0.05624996250000436;64;0.75;violin
196.05924429375003;0.05624996250000436;67;0.75;violin
196.12174425208335;0.05624996250000436;64;0.75;violin
196.1842442104167;0.05624996250000436;67;0.75;violin
196.24674416875;0.05624996250000436;64;0.75;violin
196.30924412708336;0.05624996250000436;67;0.75;violin
196.37174408541668;0.05624996250000436;64;0.75;violin
196.43424404375003;0.05624996250000436;67;0.75;violin
196.49986900000002;0.05624996250000436;62;0.75;violin
196.49986900000002;0.7468745020833296;74;0.75;violin
196.5592439604167;0.05624996250000436;65;0.75;violin
196.62174391875;0.05624996250000436;62;0.75;violin
196.68424387708336;0.05624996250000436;65;0.75;violin
196.74674383541668;0.05624996250000436;62;0.75;violin
196.80924379375003;0.05624996250000436;65;0.75;violin
196.87174375208335;0.05624996250000436;62;0.75;violin
196.9342437104167;0.05624996250000436;65;0.75;violin
196.99674366875;0.05624996250000436;62;0.75;violin
197.05924362708336;0.05624996250000436;65;0.75;violin
197.12174358541668;0.05624996250000436;62;0.75;violin
197.18424354375003;0.05624996250000436;65;0.75;violin
197.24986850000002;0.05624996250000436;62;0.75;violin
197.24986850000002;0.7468745020833296;72;0.75;violin
197.3092434604167;0.05624996250000436;66;0.75;violin
197.37174341875001;0.05624996250000436;62;0.75;violin
197.43424337708336;0.05624996250000436;66;0.75;violin
197.49674333541668;0.05624996250000436;62;0.75;violin
197.55924329375003;0.05624996250000436;66;0.75;violin
197.62174325208335;0.05624996250000436;62;0.75;violin
197.6842432104167;0.05624996250000436;66;0.75;violin
197.74674316875002;0.05624996250000436;62;0.75;violin
197.80924312708336;0.05624996250000436;66;0.75;violin
197.87174308541668;0.05624996250000436;62;0.75;violin
197.93424304375003;0.05624996250000436;66;0.75;violin
197.99986800000002;0.05624996250000436;62;0.75;violin
197.99986800000002;1.4968740020833309;72;0.9921875;violin
198.0592429604167;0.05624996250000436;67;0.75;violin
198.12174291875002;0.05624996250000436;62;0.75;violin
198.18424287708336;0.05624996250000436;67;0.75;violin
198.24674283541668;0.05624996250000436;62;0.75;violin
198.30924279375003;0.05624996250000436;67;0.75;violin
198.37174275208335;0.05624996250000436;62;0.75;violin
198.4342427104167;0.05624996250000436;67;0.75;violin
198.49674266875002;0.05624996250000436;62;0.75;violin
198.55924262708336;0.05624996250000436;67;0.75;violin
198.62174258541668;0.05624996250000436;62;0.75;violin
198.68424254375003;0.05624996250000436;67;0.75;violin
198.74986750000002;0.05624996250000436;62;0.75;violin
198.8092424604167;0.05624996250000436;67;0.75;violin
198.87174241875002;0.05624996250000436;62;0.75;violin
198.93424237708336;0.05624996250000436;67;0.75;violin
198.99674233541668;0.05624996250000436;62;0.75;violin
199.05924229375003;0.05624996250000436;67;0.75;violin
199.12174225208335;0.05624996250000436;62;0.75;violin
199.1842422104167;0.05624996250000436;67;0.75;violin
199.24674216875002;0.05624996250000436;62;0.75;violin
199.30924212708337;0.05624996250000436;67;0.75;violin
199.37174208541668;0.05624996250000436;62;0.75;violin
199.43424204375003;0.05624996250000436;67;0.75;violin
199.49986700000002;0.05624996250000436;62;0.75;violin
199.49986700000002;0.7468745020833296;71;0.75;violin
199.5592419604167;0.05624996250000436;67;0.75;violin
199.62174191875002;0.05624996250000436;62;0.75;violin
199.68424187708337;0.05624996250000436;67;0.75;violin
199.74674183541669;0.05624996250000436;62;0.75;violin
199.80924179375003;0.05624996250000436;67;0.75;violin
199.87174175208335;0.05624996250000436;62;0.75;violin
199.9342417104167;0.05624996250000436;67;0.75;violin
199.99674166875002;0.05624996250000436;62;0.75;violin
200.05924162708337;0.05624996250000436;67;0.75;violin
200.1217415854167;0.05624996250000436;62;0.75;violin
200.18424154375003;0.05624996250000436;67;0.75;violin
200.24986650000002;0.05624996250000436;62;0.75;violin
200.24986650000002;0.7468745020833296;70;0.75;violin
200.3092414604167;0.05624996250000436;67;0.75;violin
200.37174141875002;0.05624996250000436;62;0.75;violin
200.43424137708337;0.05624996250000436;67;0.75;violin
200.4967413354167;0.05624996250000436;62;0.75;violin
200.55924129375003;0.05624996250000436;67;0.75;violin
200.62174125208335;0.05624996250000436;62;0.75;violin
200.6842412104167;0.05624996250000436;67;0.75;violin
200.74674116875002;0.05624996250000436;62;0.75;violin
200.80924112708337;0.05624996250000436;67;0.75;violin
200.8717410854167;0.05624996250000436;62;0.75;violin
200.93424104375003;0.05624996250000436;67;0.75;violin
200.99986600000003;0.05624996250000436;62;0.75;violin
200.99986600000003;0.7468745020833296;70;0.75;violin
201.0592409604167;0.05624996250000436;68;0.75;violin
201.12174091875002;0.05624996250000436;62;0.75;violin
201.18424087708337;0.05624996250000436;68;0.75;violin
201.2467408354167;0.05624996250000436;62;0.75;violin
201.30924079375004;0.05624996250000436;68;0.75;violin
201.37174075208335;0.05624996250000436;62;0.75;violin
201.4342407104167;0.05624996250000436;68;0.75;violin
201.49674066875002;0.05624996250000436;62;0.75;violin
201.55924062708337;0.056249962499975936;68;0.75;violin
201.6217405854167;0.05624996250000436;62;0.75;violin
201.68424054375004;0.056249962499975936;68;0.75;violin
201.74986550000003;0.05624996250000436;62;0.75;violin
201.74986550000003;0.7468745020833296;70;0.75;violin
201.8092404604167;0.056249962499975936;65;0.75;violin
201.87174041875002;0.05624996250000436;62;0.75;violin
201.93424037708337;0.056249962499975936;65;0.75;violin
201.9967403354167;0.05624996250000436;62;0.75;violin
202.05924029375004;0.056249962499975936;65;0.75;violin
202.12174025208336;0.05624996250000436;62;0.75;violin
202.1842402104167;0.056249962499975936;65;0.75;violin
202.24674016875002;0.05624996250000436;62;0.75;violin
202.30924012708337;0.056249962499975936;65;0.75;violin
202.3717400854167;0.05624996250000436;62;0.75;violin
202.43424004375004;0.056249962499975936;65;0.75;violin
202.49986500000003;0.05624996250000436;63;0.75;violin
202.49986500000003;0.7468745020833296;75;0.75;violin
202.5592399604167;0.056249962499975936;67;0.75;violin
202.62173991875002;0.05624996250000436;63;0.75;violin
202.68423987708337;0.056249962499975936;67;0.75;violin
202.7467398354167;0.05624996250000436;63;0.75;violin
202.80923979375004;0.056249962499975936;67;0.75;violin
202.87173975208336;0.05624996250000436;63;0.75;violin
202.9342397104167;0.056249962499975936;67;0.75;violin
202.99673966875002;0.05624996250000436;63;0.75;violin
203.05923962708337;0.056249962499975936;67;0.75;violin
203.1217395854167;0.05624996250000436;63;0.75;violin
203.18423954375004;0.056249962499975936;67;0.75;violin
203.24986450000003;0.05624996250000436;63;0.75;violin
203.24986450000003;0.7468745020833296;74;0.75;violin
203.3092394604167;0.056249962499975936;71;0.75;violin
203.37173941875002;0.05624996250000436;63;0.75;violin
203.43423937708337;0.056249962499975936;71;0.75;violin
203.4967393354167;0.05624996250000436;63;0.75;violin
203.55923929375004;0.056249962499975936;71;0.75;violin
203.62173925208336;0.05624996250000436;63;0.75;violin
203.6842392104167;0.056249962499975936;71;0.75;violin
203.74673916875003;0.05624996250000436;63;0.75;violin
203.80923912708337;0.056249962499975936;71;0.75;violin
203.8717390854167;0.05624996250000436;63;0.75;violin
203.93423904375004;0.056249962499975936;71;0.75;violin
203.99986400000003;0.05624996250000436;63;0.75;violin
203.99986400000003;0.7468745020833296;73;0.75;violin
204.0592389604167;0.056249962499975936;70;0.75;violin
204.12173891875003;0.05624996250000436;63;0.75;violin
204.18423887708337;0.056249962499975936;70;0.75;violin
204.2467388354167;0.05624996250000436;63;0.75;violin
204.30923879375004;0.056249962499975936;70;0.75;violin
204.37173875208336;0.05624996250000436;63;0.75;violin
204.43423871041668;0.05624996250000436;70;0.75;violin
204.49673866875003;0.05624996250000436;63;0.75;violin
204.55923862708335;0.05624996250000436;70;0.75;violin
204.6217385854167;0.05624996250000436;63;0.75;violin
204.68423854375;0.05624996250000436;70;0.75;violin
204.74986350000003;0.05624996250000436;63;0.75;violin
204.74986350000003;0.7468745020833296;72;0.75;violin
204.80923846041668;0.05624996250000436;69;0.75;violin
204.87173841875003;0.05624996250000436;63;0.75;violin
204.93423837708335;0.05624996250000436;69;0.75;violin
204.9967383354167;0.05624996250000436;63;0.75;violin
205.05923829375;0.05624996250000436;69;0.75;violin
205.12173825208336;0.05624996250000436;63;0.75;violin
205.18423821041668;0.05624996250000436;69;0.75;violin
205.24673816875003;0.05624996250000436;63;0.75;violin
205.30923812708335;0.05624996250000436;69;0.75;violin
205.3717380854167;0.05624996250000436;63;0.75;violin
205.43423804375;0.05624996250000436;69;0.75;violin
205.49986300000003;0.05624996250000436;63;0.75;violin
205.49986300000003;0.7468745020833296;71;0.75;violin
205.55923796041668;0.05624996250000436;68;0.75;violin
205.62173791875003;0.05624996250000436;63;0.75;violin
205.68423787708335;0.05624996250000436;68;0.75;violin
205.7467378354167;0.05624996250000436;63;0.75;violin
205.80923779375001;0.05624996250000436;68;0.75;violin
205.87173775208336;0.05624996250000436;63;0.75;violin
205.93423771041668;0.05624996250000436;68;0.75;violin
205.99673766875003;0.05624996250000436;63;0.75;violin
206.05923762708335;0.05624996250000436;68;0.75;violin
206.1217375854167;0.05624996250000436;63;0.75;violin
206.18423754375002;0.05624996250000436;68;0.75;violin
206.24986250000003;0.05624996250000436;63;0.75;violin
206.24986250000003;0.7468745020833296;70;0.75;violin
206.30923746041668;0.05624996250000436;67;0.75;violin
206.37173741875003;0.05624996250000436;63;0.75;violin
206.43423737708335;0.05624996250000436;67;0.75;violin
206.4967373354167;0.05624996250000436;63;0.75;violin
206.55923729375002;0.05624996250000436;67;0.75;violin
206.62173725208336;0.05624996250000436;63;0.75;violin
206.68423721041668;0.05624996250000436;67;0.75;violin
206.74673716875003;0.05624996250000436;63;0.75;violin
206.80923712708335;0.05624996250000436;67;0.75;violin
206.8717370854167;0.05624996250000436;63;0.75;violin
206.93423704375002;0.05624996250000436;67;0.75;violin
206.99986200000004;0.05624996250000436;64;0.75;violin
206.99986200000004;1.4968740020833309;73;0.9921875;violin
207.05923696041668;0.05624996250000436;70;0.75;violin
207.12173691875003;0.05624996250000436;64;0.75;violin
207.18423687708335;0.05624996250000436;70;0.75;violin
207.2467368354167;0.05624996250000436;64;0.75;violin
207.30923679375002;0.05624996250000436;70;0.75;violin
207.37173675208336;0.05624996250000436;64;0.75;violin
207.43423671041668;0.05624996250000436;70;0.75;violin
207.49673666875003;0.05624996250000436;64;0.75;violin
207.55923662708335;0.05624996250000436;70;0.75;violin
207.6217365854167;0.05624996250000436;64;0.75;violin
207.68423654375002;0.05624996250000436;70;0.75;violin
207.74986150000004;0.056249962499975936;64;0.75;violin
207.80923646041668;0.05624996250000436;70;0.75;violin
207.87173641875003;0.05624996250000436;64;0.75;violin
207.93423637708335;0.05624996250000436;70;0.75;violin
207.9967363354167;0.05624996250000436;64;0.75;violin
208.05923629375002;0.05624996250000436;70;0.75;violin
208.12173625208337;0.05624996250000436;64;0.75;violin
208.18423621041669;0.05624996250000436;70;0.75;violin
208.24673616875003;0.05624996250000436;64;0.75;violin
208.30923612708335;0.05624996250000436;70;0.75;violin
208.3717360854167;0.05624996250000436;64;0.75;violin
208.43423604375002;0.05624996250000436;70;0.75;violin
208.49986100000004;0.056249962499975936;64;0.75;violin
208.49986100000004;0.7468745020833296;72;0.75;violin
208.5592359604167;0.05624996250000436;70;0.75;violin
208.62173591875003;0.05624996250000436;64;0.75;violin
208.68423587708335;0.05624996250000436;70;0.75;violin
208.7467358354167;0.05624996250000436;64;0.75;violin
208.80923579375002;0.05624996250000436;70;0.75;violin
208.87173575208337;0.05624996250000436;64;0.75;violin
208.9342357104167;0.05624996250000436;70;0.75;violin
208.99673566875003;0.05624996250000436;64;0.75;violin
209.05923562708335;0.05624996250000436;70;0.75;violin
209.1217355854167;0.05624996250000436;64;0.75;violin
209.18423554375002;0.05624996250000436;70;0.75;violin
209.24986050000004;0.056249962499975936;64;0.75;violin
209.24986050000004;0.7468745020833296;73;0.75;violin
209.3092354604167;0.05624996250000436;70;0.75;violin
209.37173541875003;0.05624996250000436;64;0.75;violin
209.43423537708335;0.05624996250000436;70;0.75;violin
209.4967353354167;0.05624996250000436;64;0.75;violin
209.55923529375002;0.05624996250000436;70;0.75;violin
209.62173525208337;0.05624996250000436;64;0.75;violin
209.6842352104167;0.05624996250000436;70;0.75;violin
209.74673516875004;0.05624996250000436;64;0.75;violin
209.80923512708335;0.05624996250000436;70;0.75;violin
209.8717350854167;0.05624996250000436;64;0.75;violin
209.93423504375002;0.05624996250000436;70;0.75;violin
209.99986000000004;0.056249962499975936;64;0.75;violin
209.99986000000004;0.7468745020833296;72;0.75;violin
210.0592349604167;0.05624996250000436;70;0.75;violin
210.12173491875004;0.05624996250000436;64;0.75;violin
210.18423487708336;0.05624996250000436;70;0.75;violin
210.2467348354167;0.05624996250000436;64;0.75;violin
210.30923479375002;0.05624996250000436;70;0.75;violin
210.37173475208337;0.05624996250000436;64;0.75;violin
210.4342347104167;0.05624996250000436;70;0.75;violin
210.49673466875004;0.05624996250000436;64;0.75;violin
210.55923462708336;0.05624996250000436;70;0.75;violin
210.6217345854167;0.05624996250000436;64;0.75;violin
210.68423454375002;0.05624996250000436;70;0.75;violin
210.7498595;0.05624996250000436;64;0.75;violin
210.7498595;0.746874502083358;72;0.75;violin
210.8092344604167;0.05624996250000436;67;0.75;violin
210.87173441875004;0.056249962499975936;64;0.75;violin
210.93423437708336;0.05624996250000436;67;0.75;violin
210.9967343354167;0.056249962499975936;64;0.75;violin
211.05923429375002;0.05624996250000436;67;0.75;violin
211.12173425208337;0.056249962499975936;64;0.75;violin
211.1842342104167;0.05624996250000436;67;0.75;violin
211.24673416875004;0.056249962499975936;64;0.75;violin
211.30923412708336;0.05624996250000436;67;0.75;violin
211.3717340854167;0.056249962499975936;64;0.75;violin
211.43423404375002;0.05624996250000436;67;0.75;violin
211.49985900000001;0.05624996250000436;65;0.75;violin
211.49985900000001;0.746874502083358;77;0.75;violin
211.5592339604167;0.05624996250000436;69;0.75;violin
211.62173391875004;0.056249962499975936;65;0.75;violin
211.68423387708336;0.05624996250000436;69;0.75;violin
211.7467338354167;0.056249962499975936;65;0.75;violin
211.80923379375002;0.05624996250000436;69;0.75;violin
211.87173375208337;0.056249962499975936;65;0.75;violin
211.9342337104167;0.05624996250000436;69;0.75;violin
211.99673366875004;0.056249962499975936;65;0.75;violin
212.05923362708336;0.05624996250000436;69;0.75;violin
212.1217335854167;0.056249962499975936;65;0.75;violin
212.18423354375003;0.05624996250000436;69;0.75;violin
212.24985850000002;0.05624996250000436;65;0.75;violin
212.24985850000002;0.746874502083358;76;0.75;violin
212.3092334604167;0.05624996250000436;73;0.75;violin
212.37173341875004;0.056249962499975936;65;0.75;violin
212.43423337708336;0.05624996250000436;73;0.75;violin
212.4967333354167;0.056249962499975936;65;0.75;violin
212.55923329375003;0.05624996250000436;73;0.75;violin
212.62173325208337;0.056249962499975936;65;0.75;violin
212.6842332104167;0.05624996250000436;73;0.75;violin
212.74673316875004;0.056249962499975936;65;0.75;violin
212.80923312708336;0.05624996250000436;73;0.75;violin
212.8717330854167;0.056249962499975936;65;0.75;violin
212.93423304375003;0.05624996250000436;73;0.75;violin
212.99985800000002;0.05624996250000436;65;0.75;violin
212.99985800000002;0.7468745020833296;75;0.75;violin
213.0592329604167;0.05624996250000436;72;0.75;violin
213.12173291875004;0.056249962499975936;65;0.75;violin
213.18423287708336;0.05624996250000436;72;0.75;violin
213.2467328354167;0.056249962499975936;65;0.75;violin
213.30923279375003;0.05624996250000436;72;0.75;violin
213.37173275208337;0.056249962499975936;65;0.75;violin
213.4342327104167;0.05624996250000436;72;0.75;violin
213.49673266875;0.05624996250000436;65;0.75;violin
213.55923262708336;0.05624996250000436;72;0.75;violin
213.62173258541668;0.05624996250000436;65;0.75;violin
213.68423254375003;0.05624996250000436;72;0.75;violin
213.74985750000002;0.05624996250000436;65;0.75;violin
213.74985750000002;0.7468745020833296;74;0.75;violin
213.8092324604167;0.05624996250000436;71;0.75;violin
213.87173241875;0.05624996250000436;65;0.75;violin
213.93423237708336;0.05624996250000436;71;0.75;violin
213.99673233541668;0.05624996250000436;65;0.75;violin
214.05923229375003;0.05624996250000436;71;0.75;violin
214.12173225208335;0.05624996250000436;65;0.75;violin
214.1842322104167;0.05624996250000436;71;0.75;violin
214.24673216875001;0.05624996250000436;65;0.75;violin
214.30923212708336;0.05624996250000436;71;0.75;violin
214.37173208541668;0.05624996250000436;65;0.75;violin
214.43423204375003;0.05624996250000436;71;0.75;violin
214.49985700000002;0.05624996250000436;65;0.75;violin
214.49985700000002;0.7468745020833296;73;0.75;violin
214.5592319604167;0.05624996250000436;70;0.75;violin
214.62173191875002;0.05624996250000436;65;0.75;violin
214.68423187708336;0.05624996250000436;70;0.75;violin
214.74673183541668;0.05624996250000436;65;0.75;violin
214.80923179375003;0.05624996250000436;70;0.75;violin
214.87173175208335;0.05624996250000436;65;0.75;violin
214.9342317104167;0.05624996250000436;70;0.75;violin
214.99673166875002;0.05624996250000436;65;0.75;violin
215.05923162708336;0.05624996250000436;70;0.75;violin
215.12173158541668;0.05624996250000436;65;0.75;violin
215.18423154375003;0.05624996250000436;70;0.75;violin
215.24985650000002;0.05624996250000436;65;0.75;violin
215.24985650000002;0.7468745020833296;72;0.75;violin
215.3092314604167;0.05624996250000436;69;0.75;violin
215.37173141875002;0.05624996250000436;65;0.75;violin
215.43423137708336;0.05624996250000436;69;0.75;violin
215.49673133541668;0.05624996250000436;65;0.75;violin
215.55923129375003;0.05624996250000436;69;0.75;violin
215.62173125208335;0.05624996250000436;65;0.75;violin
215.6842312104167;0.05624996250000436;69;0.75;violin
215.74673116875002;0.05624996250000436;65;0.75;violin
215.80923112708336;0.05624996250000436;69;0.75;violin
215.87173108541668;0.05624996250000436;65;0.75;violin
215.93423104375003;0.05624996250000436;69;0.75;violin
215.99985600000002;0.05624996250000436;66;0.75;violin
215.99985600000002;1.4968740020833309;75;0.9921875;violin
216.0592309604167;0.05624996250000436;72;0.75;violin
216.12173091875002;0.05624996250000436;66;0.75;violin
216.18423087708337;0.05624996250000436;72;0.75;violin
216.24673083541668;0.05624996250000436;66;0.75;violin
216.30923079375003;0.05624996250000436;72;0.75;violin
216.37173075208335;0.05624996250000436;66;0.75;violin
216.4342307104167;0.05624996250000436;72;0.75;violin
216.49673066875002;0.05624996250000436;66;0.75;violin
216.55923062708337;0.05624996250000436;72;0.75;violin
216.62173058541669;0.05624996250000436;66;0.75;violin
216.68423054375003;0.05624996250000436;72;0.75;violin
216.74985550000002;0.05624996250000436;66;0.75;violin
216.8092304604167;0.05624996250000436;72;0.75;violin
216.87173041875002;0.05624996250000436;66;0.75;violin
216.93423037708337;0.05624996250000436;72;0.75;violin
216.9967303354167;0.05624996250000436;66;0.75;violin
217.05923029375003;0.05624996250000436;72;0.75;violin
217.12173025208335;0.05624996250000436;66;0.75;violin
217.1842302104167;0.05624996250000436;72;0.75;violin
217.24673016875002;0.05624996250000436;66;0.75;violin
217.30923012708337;0.05624996250000436;72;0.75;violin
217.3717300854167;0.05624996250000436;66;0.75;violin
217.43423004375003;0.05624996250000436;72;0.75;violin
217.49985500000003;0.05624996250000436;66;0.75;violin
217.49985500000003;0.7468745020833296;74;0.75;violin
217.5592299604167;0.05624996250000436;72;0.75;violin
217.62172991875002;0.05624996250000436;66;0.75;violin
217.68422987708337;0.05624996250000436;72;0.75;violin
217.7467298354167;0.05624996250000436;66;0.75;violin
217.80922979375003;0.05624996250000436;72;0.75;violin
217.87172975208335;0.05624996250000436;66;0.75;violin
217.9342297104167;0.05624996250000436;72;0.75;violin
217.99672966875002;0.05624996250000436;66;0.75;violin
218.05922962708337;0.05624996250000436;72;0.75;violin
218.1217295854167;0.05624996250000436;66;0.75;violin
218.18422954375004;0.05624996250000436;72;0.75;violin
218.24985450000003;0.05624996250000436;66;0.75;violin
218.24985450000003;0.7468745020833296;75;0.75;violin
218.3092294604167;0.05624996250000436;72;0.75;violin
218.37172941875002;0.05624996250000436;66;0.75;violin
218.43422937708337;0.05624996250000436;72;0.75;violin
218.4967293354167;0.05624996250000436;66;0.75;violin
218.55922929375004;0.05624996250000436;72;0.75;violin
218.62172925208336;0.05624996250000436;66;0.75;violin
218.6842292104167;0.05624996250000436;72;0.75;violin
218.74672916875002;0.05624996250000436;66;0.75;violin
218.80922912708337;0.05624996250000436;72;0.75;violin
218.8717290854167;0.05624996250000436;66;0.75;violin
218.93422904375004;0.05624996250000436;72;0.75;violin
218.99985400000003;0.05624996250000436;66;0.75;violin
218.99985400000003;0.7468745020833296;74;0.75;violin
219.0592289604167;0.05624996250000436;72;0.75;violin
219.12172891875002;0.05624996250000436;66;0.75;violin
219.18422887708337;0.05624996250000436;72;0.75;violin
219.2467288354167;0.05624996250000436;66;0.75;violin
219.30922879375004;0.05624996250000436;72;0.75;violin
219.37172875208336;0.05624996250000436;66;0.75;violin
219.4342287104167;0.05624996250000436;72;0.75;violin
219.49672866875002;0.05624996250000436;66;0.75;violin
219.55922862708337;0.05624996250000436;72;0.75;violin
219.6217285854167;0.05624996250000436;66;0.75;violin
219.68422854375004;0.05624996250000436;72;0.75;violin
219.74985350000003;0.05624996250000436;66;0.75;violin
219.74985350000003;0.7468745020833296;74;0.75;violin
219.8092284604167;0.05624996250000436;69;0.75;violin
219.87172841875002;0.05624996250000436;66;0.75;violin
219.93422837708337;0.056249962499975936;69;0.75;violin
219.9967283354167;0.05624996250000436;66;0.75;violin
220.05922829375004;0.056249962499975936;69;0.75;violin
220.12172825208336;0.05624996250000436;66;0.75;violin
220.1842282104167;0.056249962499975936;69;0.75;violin
220.24672816875002;0.05624996250000436;66;0.75;violin
220.30922812708337;0.056249962499975936;69;0.75;violin
220.3717280854167;0.05624996250000436;66;0.75;violin
220.43422804375004;0.056249962499975936;69;0.75;violin
220.49985300000003;0.05624996250000436;67;0.75;violin
220.49985300000003;0.7468745020833296;79;0.75;violin
220.5592279604167;0.056249962499975936;71;0.75;violin
220.62172791875003;0.05624996250000436;67;0.75;violin
220.68422787708337;0.056249962499975936;71;0.75;violin
220.7467278354167;0.05624996250000436;67;0.75;violin
220.80922779375004;0.056249962499975936;71;0.75;violin
220.87172775208336;0.05624996250000436;67;0.75;violin
220.9342277104167;0.056249962499975936;71;0.75;violin
220.99672766875003;0.05624996250000436;67;0.75;violin
221.05922762708337;0.056249962499975936;71;0.75;violin
221.1217275854167;0.05624996250000436;67;0.75;violin
221.18422754375004;0.056249962499975936;71;0.75;violin
221.24985250000003;0.05624996250000436;67;0.75;violin
221.24985250000003;0.7468745020833296;77;0.75;violin
221.3092274604167;0.056249962499975936;71;0.75;violin
221.37172741875003;0.05624996250000436;67;0.75;violin
221.43422737708337;0.056249962499975936;71;0.75;violin
221.4967273354167;0.05624996250000436;67;0.75;violin
221.55922729375004;0.056249962499975936;71;0.75;violin
221.62172725208336;0.05624996250000436;67;0.75;violin
221.6842272104167;0.056249962499975936;71;0.75;violin
221.74672716875003;0.05624996250000436;67;0.75;violin
221.80922712708337;0.056249962499975936;71;0.75;violin
221.8717270854167;0.05624996250000436;67;0.75;violin
221.93422704375004;0.056249962499975936;71;0.75;violin
221.99985200000003;0.05624996250000436;67;0.75;violin
221.99985200000003;0.7468745020833296;75;0.75;violin
222.0592269604167;0.056249962499975936;72;0.75;violin
222.12172691875003;0.05624996250000436;67;0.75;violin
222.18422687708338;0.056249962499975936;72;0.75;violin
222.2467268354167;0.05624996250000436;67;0.75;violin
222.30922679375004;0.056249962499975936;72;0.75;violin
222.37172675208336;0.05624996250000436;67;0.75;violin
222.4342267104167;0.056249962499975936;72;0.75;violin
222.49672666875003;0.05624996250000436;67;0.75;violin
222.55922662708338;0.056249962499975936;72;0.75;violin
222.6217265854167;0.05624996250000436;67;0.75;violin
222.68422654375001;0.05624996250000436;72;0.75;violin
222.74985150000003;0.05624996250000436;60;0.75;violin
222.74985150000003;0.7468745020833296;72;0.75;violin
222.80922646041668;0.05624996250000436;63;0.75;violin
222.87172641875003;0.05624996250000436;60;0.75;violin
222.93422637708335;0.05624996250000436;63;0.75;violin
222.9967263354167;0.05624996250000436;60;0.75;violin
223.05922629375002;0.05624996250000436;63;0.75;violin
223.12172625208336;0.05624996250000436;60;0.75;violin
223.18422621041668;0.05624996250000436;63;0.75;violin
223.24672616875003;0.05624996250000436;60;0.75;violin
223.30922612708335;0.05624996250000436;63;0.75;violin
223.3717260854167;0.05624996250000436;60;0.75;violin
223.43422604375002;0.05624996250000436;63;0.75;violin
223.49985100000004;0.05624996250000436;63;0.75;violin
223.49985100000004;0.7468745020833296;75;0.75;violin
223.55922596041668;0.05624996250000436;67;0.75;violin
223.62172591875003;0.05624996250000436;63;0.75;violin
223.68422587708335;0.05624996250000436;67;0.75;violin
223.7467258354167;0.05624996250000436;63;0.75;violin
223.80922579375002;0.05624996250000436;67;0.75;violin
223.87172575208336;0.05624996250000436;63;0.75;violin
223.93422571041668;0.05624996250000436;67;0.75;violin
223.99672566875003;0.05624996250000436;63;0.75;violin
224.05922562708335;0.05624996250000436;67;0.75;violin
224.1217255854167;0.05624996250000436;63;0.75;violin
224.18422554375002;0.05624996250000436;67;0.75;violin
224.24985050000004;0.05624996250000436;60;0.75;violin
224.24985050000004;0.7468745020833296;72;0.75;violin
224.30922546041668;0.05624996250000436;63;0.75;violin
224.37172541875003;0.05624996250000436;60;0.75;violin
224.43422537708335;0.05624996250000436;63;0.75;violin
224.4967253354167;0.05624996250000436;60;0.75;violin
224.55922529375002;0.05624996250000436;63;0.75;violin
224.62172525208337;0.05624996250000436;60;0.75;violin
224.68422521041668;0.05624996250000436;63;0.75;violin
224.74672516875003;0.05624996250000436;60;0.75;violin
224.80922512708335;0.05624996250000436;63;0.75;violin
224.8717250854167;0.05624996250000436;60;0.75;violin
224.93422504375002;0.05624996250000436;63;0.75;violin
224.99985000000004;0.05624996250000436;65;0.75;violin
224.99985000000004;0.7468745020833296;77;0.75;violin
225.05922496041669;0.05624996250000436;69;0.75;violin
225.12172491875003;0.05624996250000436;65;0.75;violin
225.18422487708335;0.05624996250000436;69;0.75;violin
225.2467248354167;0.05624996250000436;65;0.75;violin
225.30922479375002;0.05624996250000436;69;0.75;violin
225.37172475208337;0.05624996250000436;65;0.75;violin
225.4342247104167;0.05624996250000436;69;0.75;violin
225.49672466875003;0.05624996250000436;65;0.75;violin
225.55922462708335;0.05624996250000436;69;0.75;violin
225.6217245854167;0.05624996250000436;65;0.75;violin
225.68422454375002;0.05624996250000436;69;0.75;violin
225.74984950000004;0.05624996250000436;65;0.75;violin
225.74984950000004;0.7468745020833296;75;0.75;violin
225.8092244604167;0.05624996250000436;69;0.75;violin
225.87172441875003;0.05624996250000436;65;0.75;violin
225.93422437708335;0.05624996250000436;69;0.75;violin
225.9967243354167;0.05624996250000436;65;0.75;violin
226.05922429375002;0.05624996250000436;69;0.75;violin
226.12172425208337;0.05624996250000436;65;0.75;violin
226.1842242104167;0.05624996250000436;69;0.75;violin
226.24672416875003;0.05624996250000436;65;0.75;violin
226.30922412708335;0.05624996250000436;69;0.75;violin
226.3717240854167;0.05624996250000436;65;0.75;violin
226.43422404375002;0.05624996250000436;69;0.75;violin
226.49984900000004;0.056249962499975936;65;0.75;violin
226.49984900000004;0.7468745020833296;74;0.75;violin
226.5592239604167;0.05624996250000436;70;0.75;violin
226.62172391875004;0.05624996250000436;65;0.75;violin
226.68422387708335;0.05624996250000436;70;0.75;violin
226.7467238354167;0.05624996250000436;65;0.75;violin
226.80922379375002;0.05624996250000436;70;0.75;violin
226.87172375208337;0.05624996250000436;65;0.75;violin
226.9342237104167;0.05624996250000436;70;0.75;violin
226.99672366875004;0.05624996250000436;65;0.75;violin
227.05922362708336;0.05624996250000436;70;0.75;violin
227.1217235854167;0.05624996250000436;65;0.75;violin
227.18422354375002;0.05624996250000436;70;0.75;violin
227.24984850000004;0.056249962499975936;58;0.75;violin
227.24984850000004;0.7468745020833296;70;0.75;violin
227.3092234604167;0.05624996250000436;62;0.75;violin
227.37172341875004;0.05624996250000436;58;0.75;violin
227.43422337708336;0.05624996250000436;62;0.75;violin
227.4967233354167;0.05624996250000436;58;0.75;violin
227.55922329375002;0.05624996250000436;62;0.75;violin
227.62172325208337;0.05624996250000436;58;0.75;violin
227.6842232104167;0.05624996250000436;62;0.75;violin
227.74672316875004;0.05624996250000436;58;0.75;violin
227.80922312708336;0.05624996250000436;62;0.75;violin
227.8717230854167;0.05624996250000436;58;0.75;violin
227.93422304375002;0.05624996250000436;62;0.75;violin
227.99984800000004;0.056249962499975936;62;0.75;violin
227.99984800000004;0.7468745020833296;74;0.75;violin
228.0592229604167;0.05624996250000436;65;0.75;violin
228.12172291875004;0.05624996250000436;62;0.75;violin
228.18422287708336;0.05624996250000436;65;0.75;violin
228.2467228354167;0.05624996250000436;62;0.75;violin
228.30922279375002;0.05624996250000436;65;0.75;violin
228.37172275208337;0.05624996250000436;62;0.75;violin
228.4342227104167;0.05624996250000436;65;0.75;violin
228.49672266875004;0.05624996250000436;62;0.75;violin
228.55922262708336;0.05624996250000436;65;0.75;violin
228.6217225854167;0.05624996250000436;62;0.75;violin
228.68422254375002;0.05624996250000436;65;0.75;violin
228.74984750000002;0.05624996250000436;58;0.75;violin
228.74984750000002;0.746874502083358;70;0.75;violin
228.8092224604167;0.05624996250000436;62;0.75;violin
228.87172241875004;0.05624996250000436;58;0.75;violin
228.93422237708336;0.05624996250000436;62;0.75;violin
228.9967223354167;0.056249962499975936;58;0.75;violin
229.05922229375003;0.05624996250000436;62;0.75;violin
229.12172225208337;0.056249962499975936;58;0.75;violin
229.1842222104167;0.05624996250000436;62;0.75;violin
229.24672216875004;0.056249962499975936;58;0.75;violin
229.30922212708336;0.05624996250000436;62;0.75;violin
229.3717220854167;0.056249962499975936;58;0.75;violin
229.43422204375003;0.05624996250000436;62;0.75;violin
229.49984700000002;0.05624996250000436;63;0.75;violin
229.49984700000002;0.746874502083358;75;0.75;violin
229.5592219604167;0.05624996250000436;67;0.75;violin
229.62172191875004;0.056249962499975936;63;0.75;violin
229.68422187708336;0.05624996250000436;67;0.75;violin
229.7467218354167;0.056249962499975936;63;0.75;violin
229.80922179375003;0.05624996250000436;67;0.75;violin
229.87172175208337;0.056249962499975936;63;0.75;violin
229.9342217104167;0.05624996250000436;67;0.75;violin
229.99672166875004;0.056249962499975936;63;0.75;violin
230.05922162708336;0.05624996250000436;67;0.75;violin
230.1217215854167;0.056249962499975936;63;0.75;violin
230.18422154375003;0.05624996250000436;67;0.75;violin
230.24984650000002;0.05624996250000436;63;0.75;violin
230.24984650000002;0.746874502083358;74;0.75;violin
230.3092214604167;0.05624996250000436;67;0.75;violin
230.37172141875004;0.056249962499975936;63;0.75;violin
230.43422137708336;0.05624996250000436;67;0.75;violin
230.4967213354167;0.056249962499975936;63;0.75;violin
230.55922129375003;0.05624996250000436;67;0.75;violin
230.62172125208338;0.056249962499975936;63;0.75;violin
230.6842212104167;0.05624996250000436;67;0.75;violin
230.74672116875004;0.056249962499975936;63;0.75;violin
230.80922112708336;0.05624996250000436;67;0.75;violin
230.8717210854167;0.056249962499975936;63;0.75;violin
230.93422104375003;0.05624996250000436;67;0.75;violin
230.99984600000002;0.05624996250000436;63;0.75;violin
230.99984600000002;0.746874502083358;72;0.75;violin
231.0592209604167;0.05624996250000436;69;0.75;violin
231.12172091875004;0.056249962499975936;63;0.75;violin
231.18422087708336;0.05624996250000436;69;0.75;violin
231.2467208354167;0.056249962499975936;63;0.75;violin
231.30922079375003;0.05624996250000436;69;0.75;violin
231.37172075208338;0.056249962499975936;63;0.75;violin
231.4342207104167;0.05624996250000436;69;0.75;violin
231.49672066875004;0.056249962499975936;63;0.75;violin
231.55922062708336;0.05624996250000436;69;0.75;violin
231.6217205854167;0.056249962499975936;63;0.75;violin
231.68422054375003;0.05624996250000436;69;0.75;violin
231.74984550000002;0.05624996250000436;57;0.75;violin
231.74984550000002;0.7468745020833296;69;0.75;violin
231.8092204604167;0.05624996250000436;60;0.75;violin
231.87172041875002;0.05624996250000436;57;0.75;violin
231.93422037708336;0.05624996250000436;60;0.75;violin
231.99672033541668;0.05624996250000436;57;0.75;violin
232.05922029375003;0.05624996250000436;60;0.75;violin
232.12172025208335;0.05624996250000436;57;0.75;violin
232.1842202104167;0.05624996250000436;60;0.75;violin
232.24672016875002;0.05624996250000436;57;0.75;violin
232.30922012708336;0.05624996250000436;60;0.75;violin
232.37172008541668;0.05624996250000436;57;0.75;violin
232.43422004375003;0.05624996250000436;60;0.75;violin
232.49984500000002;0.05624996250000436;60;0.75;violin
232.49984500000002;0.7468745020833296;72;0.75;violin
232.5592199604167;0.05624996250000436;63;0.75;violin
232.62171991875002;0.05624996250000436;60;0.75;violin
232.68421987708336;0.05624996250000436;63;0.75;violin
232.74671983541668;0.05624996250000436;60;0.75;violin
232.80921979375003;0.05624996250000436;63;0.75;violin
232.87171975208335;0.05624996250000436;60;0.75;violin
232.9342197104167;0.05624996250000436;63;0.75;violin
232.99671966875002;0.05624996250000436;60;0.75;violin
233.05921962708337;0.05624996250000436;63;0.75;violin
233.12171958541668;0.05624996250000436;60;0.75;violin
233.18421954375003;0.05624996250000436;63;0.75;violin
233.24984450000002;0.05624996250000436;57;0.75;violin
233.24984450000002;0.7468745020833296;69;0.75;violin
233.3092194604167;0.05624996250000436;60;0.75;violin
233.37171941875002;0.05624996250000436;57;0.75;violin
233.43421937708337;0.05624996250000436;60;0.75;violin
233.49671933541669;0.05624996250000436;57;0.75;violin
233.55921929375003;0.05624996250000436;60;0.75;violin
233.62171925208335;0.05624996250000436;57;0.75;violin
233.6842192104167;0.05624996250000436;60;0.75;violin
233.74671916875002;0.05624996250000436;57;0.75;violin
233.80921912708337;0.05624996250000436;60;0.75;violin
233.8717190854167;0.05624996250000436;57;0.75;violin
233.93421904375003;0.05624996250000436;60;0.75;violin
233.99984400000002;0.05624996250000436;62;0.75;violin
233.99984400000002;0.7468745020833296;74;0.75;violin
234.0592189604167;0.05624996250000436;66;0.75;violin
234.12171891875002;0.05624996250000436;62;0.75;violin
234.18421887708337;0.05624996250000436;66;0.75;violin
234.2467188354167;0.05624996250000436;62;0.75;violin
234.30921879375003;0.05624996250000436;66;0.75;violin
234.37171875208335;0.05624996250000436;62;0.75;violin
234.4342187104167;0.05624996250000436;66;0.75;violin
234.49671866875002;0.05624996250000436;62;0.75;violin
234.55921862708337;0.05624996250000436;66;0.75;violin
234.6217185854167;0.05624996250000436;62;0.75;violin
234.68421854375003;0.05624996250000436;66;0.75;violin
234.74984350000003;0.05624996250000436;62;0.75;violin
234.74984350000003;0.7468745020833296;72;0.75;violin
234.8092184604167;0.05624996250000436;66;0.75;violin
234.87171841875002;0.05624996250000436;62;0.75;violin
234.93421837708337;0.05624996250000436;66;0.75;violin
234.9967183354167;0.05624996250000436;62;0.75;violin
235.05921829375004;0.05624996250000436;66;0.75;violin
235.12171825208335;0.05624996250000436;62;0.75;violin
235.1842182104167;0.05624996250000436;66;0.75;violin
235.24671816875002;0.05624996250000436;62;0.75;violin
235.30921812708337;0.05624996250000436;66;0.75;violin
235.3717180854167;0.05624996250000436;62;0.75;violin
235.43421804375004;0.05624996250000436;66;0.75;violin
235.49984300000003;0.05624996250000436;62;0.75;violin
235.49984300000003;0.7468745020833296;70;0.75;violin
235.5592179604167;0.05624996250000436;67;0.75;violin
235.62171791875002;0.05624996250000436;62;0.75;violin
235.68421787708337;0.05624996250000436;67;0.75;violin
235.7467178354167;0.05624996250000436;62;0.75;violin
235.80921779375004;0.05624996250000436;67;0.75;violin
235.87171775208336;0.05624996250000436;62;0.75;violin
235.9342177104167;0.05624996250000436;67;0.75;violin
235.99671766875002;0.05624996250000436;62;0.75;violin
236.05921762708337;0.05624996250000436;67;0.75;violin
236.1217175854167;0.05624996250000436;62;0.75;violin
236.18421754375004;0.05624996250000436;67;0.75;violin
236.24984250000003;0.7468745020833296;65;0.75;violin
236.24984250000003;0.05624996250000436;70;0.75;violin
236.3092174604167;0.05624996250000436;74;0.75;violin
236.37171741875002;0.05624996250000436;70;0.75;violin
236.43421737708337;0.05624996250000436;74;0.75;violin
236.4967173354167;0.05624996250000436;70;0.75;violin
236.55921729375004;0.05624996250000436;74;0.75;violin
236.62171725208336;0.05624996250000436;70;0.75;violin
236.6842172104167;0.05624996250000436;74;0.75;violin
236.74671716875002;0.05624996250000436;70;0.75;violin
236.80921712708337;0.05624996250000436;74;0.75;violin
236.8717170854167;0.05624996250000436;70;0.75;violin
236.93421704375004;0.05624996250000436;74;0.75;violin
236.99984200000003;0.7468745020833296;63;0.75;violin
236.99984200000003;0.05624996250000436;70;0.75;violin
237.0592169604167;0.05624996250000436;74;0.75;violin
237.12171691875002;0.05624996250000436;70;0.75;violin
237.18421687708337;0.05624996250000436;74;0.75;violin
237.2467168354167;0.05624996250000436;70;0.75;violin
237.30921679375004;0.05624996250000436;74;0.75;violin
237.37171675208336;0.05624996250000436;70;0.75;violin
237.4342167104167;0.05624996250000436;74;0.75;violin
237.49671666875003;0.05624996250000436;70;0.75;violin
237.55921662708337;0.05624996250000436;74;0.75;violin
237.6217165854167;0.05624996250000436;70;0.75;violin
237.68421654375004;0.05624996250000436;74;0.75;violin
237.74984150000003;0.7468745020833296;63;0.75;violin
237.74984150000003;0.05624996250000436;70;0.75;violin
237.8092164604167;0.05624996250000436;73;0.75;violin
237.87171641875003;0.05624996250000436;70;0.75;violin
237.93421637708337;0.05624996250000436;73;0.75;violin
237.9967163354167;0.05624996250000436;70;0.75;violin
238.05921629375004;0.05624996250000436;73;0.75;violin
238.12171625208336;0.05624996250000436;70;0.75;violin
238.1842162104167;0.056249962499975936;73;0.75;violin
238.24671616875003;0.05624996250000436;70;0.75;violin
238.30921612708337;0.056249962499975936;73;0.75;violin
238.3717160854167;0.05624996250000436;70;0.75;violin
238.43421604375004;0.056249962499975936;73;0.75;violin
238.49984100000003;1.4968740020833309;62;0.75;violin
238.49984100000003;0.05624996250000436;74;0.75;violin
238.5592159604167;0.056249962499975936;78;0.75;violin
238.62171591875003;0.05624996250000436;74;0.75;violin
238.68421587708337;0.056249962499975936;78;0.75;violin
238.7467158354167;0.05624996250000436;74;0.75;violin
238.80921579375004;0.056249962499975936;78;0.75;violin
238.87171575208336;0.05624996250000436;74;0.75;violin
238.9342157104167;0.056249962499975936;78;0.75;violin
238.99671566875003;0.05624996250000436;74;0.75;violin
239.05921562708338;0.056249962499975936;78;0.75;violin
239.1217155854167;0.05624996250000436;74;0.75;violin
239.18421554375004;0.056249962499975936;78;0.75;violin
239.24984050000003;0.05624996250000436;74;0.75;violin
239.3092154604167;0.056249962499975936;78;0.75;violin
239.37171541875003;0.05624996250000436;74;0.75;violin
239.43421537708338;0.056249962499975936;78;0.75;violin
239.4967153354167;0.05624996250000436;74;0.75;violin
239.55921529375004;0.056249962499975936;78;0.75;violin
239.62171525208336;0.05624996250000436;74;0.75;violin
239.6842152104167;0.056249962499975936;78;0.75;violin
239.74671516875003;0.05624996250000436;74;0.75;violin
239.80921512708338;0.056249962499975936;78;0.75;violin
239.8717150854167;0.05624996250000436;74;0.75;violin
239.93421504375004;0.056249962499975936;78;0.75;violin
239.99984000000003;0.7468745020833296;62;0.75;violin
239.99984000000003;0.05624996250000436;79;0.75;violin
240.0592149604167;0.056249962499975936;82;0.75;violin
240.12171491875003;0.05624996250000436;79;0.75;violin
240.18421487708338;0.056249962499975936;82;0.75;violin
240.2467148354167;0.05624996250000436;79;0.75;violin
240.30921479375004;0.056249962499975936;82;0.75;violin
240.37171475208336;0.05624996250000436;79;0.75;violin
240.4342147104167;0.056249962499975936;82;0.75;violin
240.49671466875003;0.05624996250000436;79;0.75;violin
240.55921462708338;0.056249962499975936;82;0.75;violin
240.6217145854167;0.05624996250000436;79;0.75;violin
240.68421454375004;0.056249962499975936;82;0.75;violin
240.74983950000004;0.7468745020833296;62;0.75;violin
240.74983950000004;0.05624996250000436;82;0.75;violin
240.8092144604167;0.056249962499975936;86;0.75;violin
240.87171441875003;0.05624996250000436;82;0.75;violin
240.93421437708335;0.05624996250000436;86;0.75;violin
240.9967143354167;0.05624996250000436;82;0.75;violin
241.05921429375002;0.05624996250000436;86;0.75;violin
241.12171425208336;0.05624996250000436;82;0.75;violin
241.18421421041668;0.05624996250000436;86;0.75;violin
241.24671416875003;0.05624996250000436;82;0.75;violin
241.30921412708335;0.05624996250000436;86;0.75;violin
241.3717140854167;0.05624996250000436;82;0.75;violin
241.43421404375002;0.05624996250000436;86;0.75;violin
241.49983900000004;0.7468745020833296;62;0.75;violin
241.49983900000004;0.05624996250000436;81;0.75;violin
241.55921396041668;0.05624996250000436;84;0.75;violin
241.62171391875003;0.05624996250000436;81;0.75;violin
241.68421387708335;0.05624996250000436;84;0.75;violin
241.7467138354167;0.05624996250000436;81;0.75;violin
241.80921379375002;0.05624996250000436;84;0.75;violin
241.87171375208337;0.05624996250000436;81;0.75;violin
241.93421371041669;0.05624996250000436;84;0.75;violin
241.99671366875003;0.05624996250000436;81;0.75;violin
242.05921362708335;0.05624996250000436;84;0.75;violin
242.1217135854167;0.05624996250000436;81;0.75;violin
242.18421354375002;0.05624996250000436;84;0.75;violin
242.24983850000004;0.7468745020833296;62;0.75;violin
242.24983850000004;0.05624996250000436;79;0.75;violin
242.3092134604167;0.05624996250000436;82;0.75;violin
242.37171341875003;0.05624996250000436;79;0.75;violin
242.43421337708335;0.05624996250000436;82;0.75;violin
242.4967133354167;0.05624996250000436;79;0.75;violin
242.55921329375002;0.05624996250000436;82;0.75;violin
242.62171325208337;0.05624996250000436;79;0.75;violin
242.6842132104167;0.05624996250000436;82;0.75;violin
242.74671316875003;0.05624996250000436;79;0.75;violin
242.80921312708335;0.05624996250000436;82;0.75;violin
242.8717130854167;0.05624996250000436;79;0.75;violin
242.93421304375002;0.05624996250000436;82;0.75;violin
242.99983800000004;0.7468745020833296;62;0.75;violin
242.99983800000004;0.05624996250000436;78;0.75;violin
243.0592129604167;0.05624996250000436;81;0.75;violin
243.12171291875003;0.05624996250000436;78;0.75;violin
243.18421287708335;0.05624996250000436;81;0.75;violin
243.2467128354167;0.05624996250000436;78;0.75;violin
243.30921279375002;0.05624996250000436;81;0.75;violin
243.37171275208337;0.05624996250000436;78;0.75;violin
243.4342127104167;0.05624996250000436;81;0.75;violin
243.49671266875004;0.05624996250000436;78;0.75;violin
243.55921262708335;0.05624996250000436;81;0.75;violin
243.6217125854167;0.05624996250000436;78;0.75;violin
243.68421254375002;0.05624996250000436;81;0.75;violin
243.74983750000004;0.7468745020833296;62;0.75;violin
243.74983750000004;0.05624996250000436;75;0.75;violin
243.8092124604167;0.05624996250000436;79;0.75;violin
243.87171241875004;0.05624996250000436;75;0.75;violin
243.93421237708336;0.05624996250000436;79;0.75;violin
243.9967123354167;0.05624996250000436;75;0.75;violin
244.05921229375002;0.05624996250000436;79;0.75;violin
244.12171225208337;0.05624996250000436;75;0.75;violin
244.1842122104167;0.05624996250000436;79;0.75;violin
244.24671216875004;0.05624996250000436;75;0.75;violin
244.30921212708336;0.05624996250000436;79;0.75;violin
244.3717120854167;0.05624996250000436;75;0.75;violin
244.43421204375002;0.05624996250000436;79;0.75;violin
244.49983700000004;0.7468745020833296;62;0.75;violin
244.49983700000004;0.056249962499975936;74;0.75;violin
244.5592119604167;0.05624996250000436;78;0.75;violin
244.62171191875004;0.05624996250000436;74;0.75;violin
244.68421187708336;0.05624996250000436;78;0.75;violin
244.7467118354167;0.05624996250000436;74;0.75;violin
244.80921179375002;0.05624996250000436;78;0.75;violin
244.87171175208337;0.05624996250000436;74;0.75;violin
244.9342117104167;0.05624996250000436;78;0.75;violin
244.99671166875004;0.05624996250000436;74;0.75;violin
245.05921162708336;0.05624996250000436;78;0.75;violin
245.1217115854167;0.05624996250000436;74;0.75;violin
245.18421154375002;0.05624996250000436;78;0.75;violin
245.24983650000004;0.7468745020833296;62;0.75;violin
245.24983650000004;0.056249962499975936;72;0.75;violin
245.3092114604167;0.05624996250000436;75;0.75;violin
245.37171141875004;0.05624996250000436;72;0.75;violin
245.43421137708336;0.05624996250000436;75;0.75;violin
245.4967113354167;0.05624996250000436;72;0.75;violin
245.55921129375002;0.05624996250000436;75;0.75;violin
245.62171125208337;0.05624996250000436;72;0.75;violin
245.6842112104167;0.05624996250000436;75;0.75;violin
245.74671116875004;0.05624996250000436;72;0.75;violin
245.80921112708336;0.05624996250000436;75;0.75;violin
245.8717110854167;0.05624996250000436;72;0.75;violin
245.93421104375003;0.05624996250000436;75;0.75;violin
245.99983600000004;0.7468745020833296;62;0.75;violin
245.99983600000004;0.056249962499975936;70;0.75;violin
246.0592109604167;0.05624996250000436;74;0.75;violin
246.12171091875004;0.05624996250000436;70;0.75;violin
246.18421087708336;0.05624996250000436;74;0.75;violin
246.2467108354167;0.05624996250000436;70;0.75;violin
246.30921079375003;0.05624996250000436;74;0.75;violin
246.37171075208337;0.05624996250000436;70;0.75;violin
246.4342107104167;0.05624996250000436;74;0.75;violin
246.49671066875004;0.05624996250000436;70;0.75;violin
246.55921062708336;0.05624996250000436;74;0.75;violin
246.6217105854167;0.05624996250000436;70;0.75;violin
246.68421054375003;0.05624996250000436;74;0.75;violin
246.74983550000005;0.7468745020833296;62;0.75;violin
246.74983550000005;0.056249962499975936;67;0.75;violin
246.8092104604167;0.05624996250000436;70;0.75;violin
246.87171041875004;0.05624996250000436;67;0.75;violin
246.93421037708336;0.05624996250000436;70;0.75;violin
246.9967103354167;0.05624996250000436;67;0.75;violin
247.05921029375003;0.05624996250000436;70;0.75;violin
247.12171025208337;0.05624996250000436;67;0.75;violin
247.1842102104167;0.05624996250000436;70;0.75;violin
247.24671016875004;0.05624996250000436;67;0.75;violin
247.30921012708336;0.05624996250000436;70;0.75;violin
247.3717100854167;0.056249962499975936;67;0.75;violin
247.43421004375003;0.05624996250000436;70;0.75;violin
247.49983500000002;0.746874502083358;62;0.75;violin
247.49983500000002;0.05624996250000436;66;0.75;violin
247.5592099604167;0.05624996250000436;69;0.75;violin
247.62170991875004;0.056249962499975936;66;0.7421875;violin
247.68420987708336;0.05624996250000436;69;0.7421875;violin
247.7467098354167;0.056249962499975936;66;0.734375;violin
247.80920979375003;0.05624996250000436;69;0.7265625;violin
247.87170975208338;0.056249962499975936;66;0.7265625;violin
247.9342097104167;0.05624996250000436;69;0.71875;violin
247.99670966875004;0.056249962499975936;66;0.7109375;violin
248.05920962708336;0.05624996250000436;69;0.7109375;violin
248.1217095854167;0.056249962499975936;66;0.703125;violin
248.18420954375003;0.05624996250000436;69;0.6953125;violin
248.24983450000002;0.746874502083358;62;0.6953125;violin
248.24983450000002;0.05624996250000436;63;0.6953125;violin
248.3092094604167;0.05624996250000436;67;0.6875;violin
248.37170941875004;0.056249962499975936;63;0.6796875;violin
248.43420937708336;0.05624996250000436;67;0.6796875;violin
248.4967093354167;0.056249962499975936;63;0.671875;violin
248.55920929375003;0.05624996250000436;67;0.6640625;violin
248.62170925208338;0.056249962499975936;63;0.6640625;violin
248.6842092104167;0.05624996250000436;67;0.65625;violin
248.74670916875004;0.056249962499975936;63;0.6484375;violin
248.80920912708336;0.05624996250000436;67;0.6484375;violin
248.8717090854167;0.056249962499975936;63;0.640625;violin
248.93420904375003;0.05624996250000436;67;0.640625;violin
248.99983400000002;0.12187491875002365;62;0.6328125;violin
249.0592089604167;0.05624996250000436;66;0.625;violin
249.12170891875004;0.12499991666666688;62;0.625;violin
249.18420887708336;0.05624996250000436;66;0.6171875;violin
249.2467088354167;0.12499991666666688;62;0.609375;violin
249.30920879375003;0.05624996250000436;66;0.609375;violin
249.37170875208338;0.12499991666666688;62;0.6015625;violin
249.4342087104167;0.05624996250000436;66;0.59375;violin
249.49670866875005;0.12499991666666688;62;0.59375;violin
249.55920862708336;0.05624996250000436;66;0.5859375;violin
249.6217085854167;0.12499991666666688;62;0.578125;violin
249.68420854375003;0.05624996250000436;66;0.578125;violin
249.74983350000002;0.05624996250000436;60;0.5703125;violin
249.74983350000002;0.7468745020833296;62;0.5703125;violin
249.8092084604167;0.05624996250000436;63;0.5625;violin
249.87170841875005;0.056249962499975936;60;0.5625;violin
249.93420837708337;0.05624996250000436;63;0.5546875;violin
249.9967083354167;0.056249962499975936;60;0.546875;violin
250.05920829375003;0.05624996250000436;63;0.546875;violin
250.12170825208335;0.05624996250000436;60;0.5390625;violin
250.1842082104167;0.05624996250000436;63;0.53125;violin
250.24670816875002;0.05624996250000436;60;0.53125;violin
250.30920812708337;0.05624996250000436;63;0.5234375;violin
250.37170808541669;0.05624996250000436;60;0.5234375;violin
250.43420804375003;0.05624996250000436;63;0.515625;violin
250.49983300000002;0.05624996250000436;58;0.5078125;violin
250.49983300000002;0.059374960416676004;62;0.5078125;violin
250.5592079604167;0.12499991666666688;62;0.5078125;violin
250.62170791875002;0.05624996250000436;58;0.5;violin
250.68420787708337;0.12499991666666688;62;0.4921875;violin
250.7467078354167;0.05624996250000436;58;0.4921875;violin
250.80920779375003;0.12499991666666688;62;0.484375;violin
250.87170775208335;0.05624996250000436;58;0.4765625;violin
250.9342077104167;0.12499991666666688;62;0.4765625;violin
250.99670766875002;0.05624996250000436;58;0.46875;violin
251.05920762708337;0.12499991666666688;62;0.4609375;violin
251.1217075854167;0.05624996250000436;58;0.4609375;violin
251.18420754375003;0.06249995833331923;62;0.453125;violin
251.24983250000002;0.05624996250000436;57;0.4453125;violin
251.24983250000002;0.7468745020833296;62;0.4453125;violin
251.3092074604167;0.05624996250000436;60;0.4453125;violin
251.37170741875002;0.05624996250000436;57;0.4375;violin
251.43420737708337;0.05624996250000436;60;0.4296875;violin
251.4967073354167;0.05624996250000436;57;0.4296875;violin
251.55920729375003;0.05624996250000436;60;0.421875;violin
251.62170725208335;0.05624996250000436;57;0.4140625;violin
251.6842072104167;0.05624996250000436;60;0.4140625;violin
251.74670716875002;0.05624996250000436;57;0.40625;violin
251.80920712708337;0.05624996250000436;60;0.3984375;violin
251.8717070854167;0.05624996250000436;57;0.3984375;violin
251.93420704375004;0.05624996250000436;60;0.390625;violin
251.99983200000003;0.059374960416676004;67;0.3828125;violin
251.99983200000003;0.05624996250000436;79;0.3828125;violin
252.0592069604167;0.05624996250000436;82;0.3828125;violin
252.06233195833337;2.246873502083332;86;0.3828125;violin
252.12170691875002;0.05624996250000436;79;0.3828125;violin
252.18420687708337;0.05624996250000436;82;0.3828125;violin
252.2467068354167;0.05624996250000436;79;0.3828125;violin
252.30920679375004;0.05624996250000436;82;0.3828125;violin
252.37170675208336;0.05624996250000436;79;0.3828125;violin
252.4342067104167;0.05624996250000436;82;0.3828125;violin
252.49670666875002;0.05624996250000436;79;0.3828125;violin
252.55920662708337;0.05624996250000436;82;0.3828125;violin
252.6217065854167;0.05624996250000436;79;0.3828125;violin
252.68420654375004;0.05624996250000436;82;0.3828125;violin
252.74983150000003;0.05624996250000436;79;0.3828125;violin
252.8092064604167;0.05624996250000436;82;0.3828125;violin
252.87170641875002;0.05624996250000436;79;0.3828125;violin
252.93420637708337;0.05624996250000436;82;0.3828125;violin
252.9967063354167;0.05624996250000436;79;0.3828125;violin
253.05920629375004;0.05624996250000436;82;0.3828125;violin
253.12170625208336;0.05624996250000436;79;0.3828125;violin
253.1842062104167;0.05624996250000436;82;0.3828125;violin
253.24670616875002;0.05624996250000436;79;0.3828125;violin
253.30920612708337;0.05624996250000436;82;0.3828125;violin
253.3717060854167;0.05624996250000436;79;0.3828125;violin
253.43420604375004;0.05624996250000436;82;0.3828125;violin
253.49983100000003;0.05624996250000436;79;0.3828125;violin
253.5592059604167;0.05624996250000436;82;0.3828125;violin
253.62170591875002;0.05624996250000436;79;0.3828125;violin
253.68420587708337;0.05624996250000436;82;0.3828125;violin
253.7467058354167;0.05624996250000436;79;0.3828125;violin
253.80920579375004;0.05624996250000436;82;0.3828125;violin
253.87170575208336;0.05624996250000436;79;0.3828125;violin
253.9342057104167;0.05624996250000436;82;0.3828125;violin
253.99670566875002;0.05624996250000436;79;0.3828125;violin
254.05920562708337;0.05624996250000436;82;0.3828125;violin
254.1217055854167;0.05624996250000436;79;0.3828125;violin
254.18420554375004;0.05624996250000436;82;0.3828125;violin
254.24983050000003;0.05624996250000436;79;0.3828125;violin
254.24983050000003;0.7468745020833296;91;0.3828125;violin
254.3092054604167;0.05624996250000436;87;0.3828125;violin
254.37170541875003;0.05624996250000436;79;0.3828125;violin
254.43420537708337;0.05624996250000436;87;0.3828125;violin
254.4967053354167;0.05624996250000436;79;0.3828125;violin
254.55920529375004;0.05624996250000436;87;0.3828125;violin
254.62170525208336;0.05624996250000436;79;0.3828125;violin
254.6842052104167;0.05624996250000436;87;0.3828125;violin
254.74670516875003;0.05624996250000436;79;0.3828125;violin
254.80920512708337;0.05624996250000436;87;0.3828125;violin
254.8717050854167;0.05624996250000436;79;0.3828125;violin
254.93420504375004;0.05624996250000436;87;0.3828125;violin
254.99983000000003;0.05624996250000436;79;0.3828125;violin
254.99983000000003;0.7468745020833296;90;0.3828125;violin
255.0592049604167;0.05624996250000436;86;0.3828125;violin
255.12170491875003;0.05624996250000436;79;0.3828125;violin
255.18420487708337;0.05624996250000436;86;0.3828125;violin
255.2467048354167;0.05624996250000436;79;0.3828125;violin
255.30920479375004;0.05624996250000436;86;0.3828125;violin
255.37170475208336;0.05624996250000436;79;0.3828125;violin
255.4342047104167;0.05624996250000436;86;0.3828125;violin
255.49670466875003;0.05624996250000436;79;0.3828125;violin
255.55920462708337;0.05624996250000436;86;0.3828125;violin
255.6217045854167;0.05624996250000436;79;0.3828125;violin
255.68420454375004;0.05624996250000436;86;0.3828125;violin
255.74982950000003;0.05624996250000436;79;0.3828125;violin
255.74982950000003;0.746874502083358;87;0.3828125;violin
255.8092044604167;0.05624996250000436;84;0.3828125;violin
255.87170441875003;0.05624996250000436;79;0.3828125;violin
255.93420437708338;0.05624996250000436;84;0.3828125;violin
255.9967043354167;0.05624996250000436;79;0.3828125;violin
256.05920429375004;0.056249962499975936;84;0.3828125;violin
256.12170425208336;0.05624996250003278;79;0.3828125;violin
256.1842042104167;0.05624996250003278;84;0.3828125;violin
256.24670416875006;0.056249962499975936;79;0.3828125;violin
256.3092041270834;0.056249962499975936;84;0.3828125;violin
256.3717040854167;0.05624996250003278;79;0.3828125;violin
256.43420404375;0.05624996250003278;84;0.3828125;violin
256.49982900000003;0.056249962499975936;79;0.3828125;violin
256.49982900000003;2.2468735020833606;86;0.3828125;violin
256.5592039604167;0.056249962499975936;82;0.3828125;violin
256.62170391875003;0.056249962499975936;79;0.3828125;violin
256.68420387708335;0.05624996250003278;82;0.3828125;violin
256.7467038354167;0.056249962499975936;79;0.3828125;violin
256.80920379375004;0.056249962499975936;82;0.3828125;violin
256.87170375208336;0.056249962499975936;79;0.3828125;violin
256.9342037104167;0.05624996250003278;82;0.3828125;violin
256.99670366875006;0.056249962499975936;79;0.3828125;violin
257.0592036270834;0.056249962499975936;82;0.3828125;violin
257.1217035854167;0.056249962499975936;79;0.3828125;violin
257.18420354375;0.05624996250003278;82;0.3828125;violin
257.24982850000004;0.056249962499975936;79;0.3828125;violin
257.3092034604167;0.056249962499975936;82;0.3828125;violin
257.37170341875003;0.056249962499975936;79;0.3828125;violin
257.43420337708335;0.05624996250003278;82;0.3828125;violin
257.4967033354167;0.056249962499975936;79;0.3828125;violin
257.55920329375004;0.056249962499975936;82;0.3828125;violin
257.62170325208336;0.056249962499975936;79;0.3828125;violin
257.6842032104167;0.05624996250003278;82;0.3828125;violin
257.74670316875006;0.056249962499975936;79;0.3828125;violin
257.8092031270834;0.056249962499975936;82;0.3828125;violin
257.8717030854167;0.056249962499975936;79;0.3828125;violin
257.93420304375;0.05624996250003278;82;0.3828125;violin
257.99982800000004;0.056249962499975936;79;0.3828125;violin
258.0592029604167;0.056249962499975936;82;0.3828125;violin
258.12170291875003;0.056249962499975936;79;0.3828125;violin
258.18420287708335;0.05624996250003278;82;0.3828125;violin
258.2467028354167;0.056249962499975936;79;0.3828125;violin
258.30920279375005;0.056249962499975936;82;0.3828125;violin
258.37170275208337;0.056249962499975936;79;0.3828125;violin
258.4342027104167;0.05624996250003278;82;0.3828125;violin
258.49670266875006;0.056249962499975936;79;0.3828125;violin
258.5592026270834;0.056249962499975936;82;0.3828125;violin
258.6217025854167;0.056249962499975936;79;0.3828125;violin
258.68420254375;0.05624996250003278;82;0.3828125;violin
258.74982750000004;0.056249962499975936;77;0.3828125;violin
258.74982750000004;0.7468745020833012;86;0.3828125;violin
258.8092024604167;0.056249962499975936;81;0.3828125;violin
258.87170241875003;0.056249962499975936;77;0.3828125;violin
258.93420237708335;0.05624996250003278;81;0.3828125;violin
258.9967023354167;0.056249962499975936;77;0.3828125;violin
259.05920229375005;0.056249962499975936;81;0.3828125;violin
259.12170225208337;0.056249962499975936;77;0.3828125;violin
259.1842022104167;0.05624996250003278;81;0.3828125;violin
259.24670216875;0.05624996250003278;77;0.3828125;violin
259.3092021270834;0.056249962499975936;81;0.3828125;violin
259.3717020854167;0.056249962499975936;77;0.3828125;violin
259.43420204375;0.05624996250003278;81;0.3828125;violin
259.49982700000004;0.056249962499975936;75;0.3828125;violin
259.49982700000004;0.7468745020833012;84;0.3828125;violin
259.5592019604167;0.056249962499975936;79;0.3828125;violin
259.62170191875003;0.056249962499975936;75;0.3828125;violin
259.68420187708335;0.05624996250003278;79;0.3828125;violin
259.7467018354167;0.05624996250003278;75;0.3828125;violin
259.80920179375005;0.056249962499975936;79;0.3828125;violin
259.87170175208337;0.056249962499975936;75;0.3828125;violin
259.9342017104167;0.05624996250003278;79;0.3828125;violin
259.99670166875;0.05624996250003278;75;0.3828125;violin
260.0592016270834;0.056249962499975936;79;0.3828125;violin
260.1217015854167;0.056249962499975936;75;0.3828125;violin
260.18420154375;0.05624996250003278;79;0.3828125;violin
260.24982650000004;0.056249962499975936;74;0.3828125;violin
260.24982650000004;0.7468745020833012;82;0.3828125;violin
260.3092014604167;0.056249962499975936;77;0.3828125;violin
260.37170141875004;0.056249962499975936;74;0.3828125;violin
260.43420137708335;0.05624996250003278;77;0.3828125;violin
260.4967013354167;0.05624996250003278;74;0.3828125;violin
260.55920129375005;0.056249962499975936;77;0.3828125;violin
260.62170125208337;0.056249962499975936;74;0.3828125;violin
260.6842012104167;0.05624996250003278;77;0.3828125;violin
260.74670116875;0.05624996250003278;74;0.3828125;violin
260.8092011270834;0.056249962499975936;77;0.3828125;violin
260.8717010854167;0.056249962499975936;74;0.3828125;violin
260.93420104375;0.05624996250003278;77;0.3828125;violin
260.99982600000004;0.056249962499975936;72;0.3828125;violin
260.99982600000004;2.2468735020833037;81;0.3828125;violin
261.0592009604167;0.056249962499975936;75;0.3828125;violin
261.12170091875004;0.056249962499975936;72;0.3828125;violin
261.18420087708336;0.05624996250003278;75;0.3828125;violin
261.2467008354167;0.05624996250003278;72;0.3828125;violin
261.30920079375005;0.056249962499975936;75;0.3828125;violin
261.37170075208337;0.056249962499975936;72;0.3828125;violin
261.4342007104167;0.05624996250003278;75;0.3828125;violin
261.49670066875;0.05624996250003278;72;0.3828125;violin
261.5592006270834;0.056249962499975936;75;0.3828125;violin
261.6217005854167;0.056249962499975936;72;0.3828125;violin
261.68420054375;0.05624996250003278;75;0.3828125;violin
261.74982550000004;0.056249962499975936;72;0.3828125;violin
261.8092004604167;0.056249962499975936;75;0.3828125;violin
261.87170041875004;0.056249962499975936;72;0.3828125;violin
261.93420037708336;0.05624996250003278;75;0.3828125;violin
261.9967003354167;0.05624996250003278;72;0.3828125;violin
262.05920029375005;0.056249962499975936;75;0.3828125;violin
262.1217002520834;0.056249962499975936;72;0.3828125;violin
262.1842002104167;0.05624996250003278;75;0.3828125;violin
262.24670016875;0.05624996250003278;72;0.3828125;violin
262.3092001270834;0.056249962499975936;75;0.3828125;violin
262.3717000854167;0.056249962499975936;72;0.3828125;violin
262.43420004375;0.05624996250003278;75;0.3828125;violin
262.49982500000004;0.056249962499975936;72;0.3828125;violin
262.5591999604167;0.056249962499975936;75;0.3828125;violin
262.62169991875004;0.056249962499975936;72;0.3828125;violin
262.68419987708336;0.05624996250003278;75;0.3828125;violin
262.7466998354167;0.05624996250003278;72;0.3828125;violin
262.80919979375005;0.056249962499975936;75;0.3828125;violin
262.8716997520834;0.056249962499975936;72;0.3828125;violin
262.9341997104167;0.05624996250003278;75;0.3828125;violin
262.99669966875;0.05624996250003278;72;0.3828125;violin
263.0591996270834;0.056249962499975936;75;0.3828125;violin
263.1216995854167;0.056249962499975936;72;0.3828125;violin
263.18419954375;0.05624996250003278;75;0.3828125;violin
263.24982450000005;0.056249962499975936;72;0.3828125;violin
263.24982450000005;0.7468745020833012;84;0.3828125;violin
263.3091994604167;0.056249962499975936;75;0.3828125;violin
263.37169941875004;0.056249962499975936;72;0.3828125;violin
263.43419937708336;0.05624996250003278;75;0.3828125;violin
263.4966993354167;0.05624996250003278;72;0.3828125;violin
263.55919929375005;0.056249962499975936;75;0.3828125;violin
263.6216992520834;0.056249962499975936;72;0.3828125;violin
263.6841992104167;0.05624996250003278;75;0.3828125;violin
263.74669916875;0.05624996250003278;72;0.3828125;violin
263.8091991270834;0.056249962499975936;75;0.3828125;violin
263.8716990854167;0.056249962499975936;72;0.3828125;violin
263.93419904375;0.05624996250003278;75;0.3828125;violin
263.99982400000005;0.056249962499975936;72;0.3828125;violin
263.99982400000005;0.7468745020833012;81;0.3828125;violin
264.0591989604167;0.056249962499975936;75;0.3828125;violin
264.12169891875004;0.056249962499975936;72;0.3828125;violin
264.18419887708336;0.05624996250003278;75;0.3828125;violin
264.2466988354167;0.05624996250003278;72;0.3828125;violin
264.30919879375006;0.056249962499975936;75;0.3828125;violin
264.3716987520834;0.056249962499975936;72;0.3828125;violin
264.4341987104167;0.05624996250003278;75;0.3828125;violin
264.49669866875;0.05624996250003278;72;0.3828125;violin
264.5591986270834;0.056249962499975936;75;0.3828125;violin
264.6216985854167;0.056249962499975936;72;0.3828125;violin
264.68419854375;0.05624996250003278;75;0.3828125;violin
264.74982350000005;0.056249962499975936;73;0.3828125;violin
264.74982350000005;0.7468745020833012;79;0.3828125;violin
264.8091984604167;0.056249962499975936;76;0.3828125;violin
264.87169841875004;0.056249962499975936;73;0.3828125;violin
264.93419837708336;0.05624996250003278;76;0.3828125;violin
264.9966983354167;0.05624996250003278;73;0.3828125;violin
265.05919829375006;0.056249962499975936;76;0.3828125;violin
265.1216982520834;0.056249962499975936;73;0.3828125;violin
265.1841982104167;0.05624996250003278;76;0.3828125;violin
265.24669816875;0.05624996250003278;73;0.3828125;violin
265.3091981270834;0.056249962499975936;76;0.3828125;violin
265.3716980854167;0.056249962499975936;73;0.3828125;violin
265.43419804375003;0.05624996250003278;76;0.3828125;violin
265.49982300000005;1.4968740020833025;74;0.3828125;violin
265.49982300000005;0.056249962499975936;79;0.3828125;violin
265.5591979604167;0.056249962499975936;82;0.3828125;violin
265.62169791875004;0.056249962499975936;79;0.3828125;violin
265.68419787708336;0.056249962499975936;82;0.3828125;violin
265.7466978354167;0.05624996250003278;79;0.3828125;violin
265.80919779375006;0.056249962499975936;82;0.3828125;violin
265.8716977520834;0.056249962499975936;79;0.3828125;violin
265.9341977104167;0.056249962499975936;82;0.3828125;violin
265.99669766875;0.05624996250003278;79;0.3828125;violin
266.0591976270834;0.056249962499975936;82;0.3828125;violin
266.1216975854167;0.056249962499975936;79;0.3828125;violin
266.18419754375003;0.056249962499975936;82;0.3828125;violin
266.24982250000005;0.056249962499975936;79;0.3828125;violin
266.3091974604167;0.056249962499975936;82;0.3828125;violin
266.37169741875005;0.056249962499975936;79;0.3828125;violin
266.43419737708336;0.056249962499975936;82;0.3828125;violin
266.4966973354167;0.05624996250003278;79;0.3828125;violin
266.55919729375006;0.056249962499975936;82;0.3828125;violin
266.6216972520834;0.056249962499975936;79;0.3828125;violin
266.6841972104167;0.056249962499975936;82;0.3828125;violin
266.74669716875;0.05624996250003278;79;0.3828125;violin
266.8091971270834;0.056249962499975936;82;0.3828125;violin
266.8716970854167;0.056249962499975936;79;0.3828125;violin
266.93419704375003;0.056249962499975936;82;0.3828125;violin
266.99982200000005;0.7468745020833012;74;0.3828125;violin
266.99982200000005;0.056249962499975936;78;0.3828125;violin
267.0591969604167;0.056249962499975936;81;0.3828125;violin
267.12169691875005;0.056249962499975936;78;0.3828125;violin
267.18419687708337;0.056249962499975936;81;0.3828125;violin
267.2466968354167;0.05624996250003278;78;0.3828125;violin
267.30919679375006;0.056249962499975936;81;0.3828125;violin
267.3716967520834;0.056249962499975936;78;0.3828125;violin
267.4341967104167;0.056249962499975936;81;0.3828125;violin
267.49669666875;0.05624996250003278;78;0.3828125;violin
267.5591966270834;0.056249962499975936;81;0.3828125;violin
267.6216965854167;0.056249962499975936;78;0.3828125;violin
267.68419654375003;0.056249962499975936;81;0.3828125;violin
267.74982150000005;0.7468745020833012;72;0.3828125;violin
267.74982150000005;0.056249962499975936;78;0.3828125;violin
267.80919646041673;0.056249962499975936;81;0.3828125;violin
267.87169641875005;0.056249962499975936;78;0.3828125;violin
267.93419637708337;0.056249962499975936;81;0.3828125;violin
267.9966963354167;0.05624996250003278;78;0.3828125;violin
268.05919629375006;0.056249962499975936;81;0.3828125;violin
268.1216962520834;0.056249962499975936;78;0.3828125;violin
268.1841962104167;0.056249962499975936;81;0.3828125;violin
268.24669616875;0.05624996250003278;78;0.3828125;violin
268.3091961270834;0.056249962499975936;81;0.3828125;violin
268.3716960854167;0.056249962499975936;78;0.3828125;violin
268.43419604375003;0.056249962499975936;81;0.3828125;violin
268.49982100000005;0.056249962499975936;70;0.3828125;violin
268.49982100000005;0.7468745020833012;79;0.3828125;violin
268.5591959604167;0.05624996250003278;74;0.3828125;violin
268.62169591875005;0.056249962499975936;70;0.3828125;violin
268.68419587708337;0.056249962499975936;74;0.3828125;violin
268.7466958354167;0.05624996250003278;70;0.3828125;violin
268.80919579375;0.05624996250003278;74;0.3828125;violin
268.8716957520834;0.056249962499975936;70;0.3828125;violin
268.9341957104167;0.056249962499975936;74;0.3828125;violin
268.99669566875;0.05624996250003278;70;0.3828125;violin
269.05919562708334;0.05624996250003278;74;0.3828125;violin
269.1216955854167;0.056249962499975936;70;0.3828125;violin
269.18419554375004;0.056249962499975936;74;0.3828125;violin
269.24982050000006;0.056249962499975936;69;0.3828125;violin
269.24982050000006;0.7468745020833012;78;0.3828125;violin
269.3091954604167;0.05624996250003278;72;0.3828125;violin
269.37169541875005;0.056249962499975936;69;0.3828125;violin
269.43419537708337;0.056249962499975936;72;0.3828125;violin
269.4966953354167;0.05624996250003278;69;0.3828125;violin
269.55919529375;0.05624996250003278;72;0.3828125;violin
269.6216952520834;0.056249962499975936;69;0.3828125;violin
269.6841952104167;0.056249962499975936;72;0.3828125;violin
269.74669516875;0.05624996250003278;69;0.3828125;violin
269.80919512708334;0.05624996250003278;72;0.3828125;violin
269.8716950854167;0.056249962499975936;69;0.3828125;violin
269.93419504375004;0.056249962499975936;72;0.3828125;violin
269.99982000000006;0.056249962499975936;68;0.3828125;violin
269.99982000000006;1.4968740020833025;77;0.5703125;violin
270.0591949604167;0.05624996250003278;71;0.3828125;violin
270.12169491875005;0.056249962499975936;68;0.3828125;violin
270.18419487708337;0.056249962499975936;71;0.3828125;violin
270.2466948354167;0.05624996250003278;68;0.3828125;violin
270.30919479375;0.05624996250003278;71;0.3828125;violin
270.3716947520834;0.056249962499975936;68;0.3828125;violin
270.4341947104167;0.056249962499975936;71;0.3828125;violin
270.49669466875;0.05624996250003278;68;0.3828125;violin
270.55919462708334;0.05624996250003278;71;0.3828125;violin
270.6216945854167;0.056249962499975936;68;0.3828125;violin
270.68419454375004;0.056249962499975936;71;0.3828125;violin
270.74981950000006;0.056249962499975936;68;0.3828125;violin
270.8091944604167;0.05624996250003278;71;0.3828125;violin
270.87169441875005;0.056249962499975936;68;0.3828125;violin
270.9341943770834;0.056249962499975936;71;0.3828125;violin
270.9966943354167;0.05624996250003278;68;0.3828125;violin
271.05919429375;0.05624996250003278;71;0.3828125;violin
271.1216942520834;0.056249962499975936;68;0.3828125;violin
271.1841942104167;0.056249962499975936;71;0.3828125;violin
271.24669416875;0.05624996250003278;68;0.3828125;violin
271.30919412708334;0.05624996250003278;71;0.3828125;violin
271.3716940854167;0.056249962499975936;68;0.3828125;violin
271.43419404375004;0.056249962499975936;71;0.3828125;violin
271.49981900000006;0.056249962499975936;67;0.3828125;violin
271.49981900000006;0.7468745020833012;76;0.3828125;violin
271.5591939604167;0.05624996250003278;72;0.3828125;violin
271.62169391875005;0.056249962499975936;67;0.3828125;violin
271.6841938770834;0.056249962499975936;72;0.3828125;violin
271.7466938354167;0.05624996250003278;67;0.3828125;violin
271.80919379375;0.05624996250003278;72;0.3828125;violin
271.8716937520834;0.056249962499975936;67;0.3828125;violin
271.9341937104167;0.056249962499975936;72;0.3828125;violin
271.99669366875;0.05624996250003278;67;0.3828125;violin
272.05919362708335;0.05624996250003278;72;0.3828125;violin
272.1216935854167;0.056249962499975936;67;0.3828125;violin
272.18419354375004;0.056249962499975936;72;0.3828125;violin
272.24981850000006;0.056249962499975936;67;0.3828125;violin
272.24981850000006;0.7468745020833012;75;0.3828125;violin
272.3091934604167;0.05624996250003278;72;0.3828125;violin
272.37169341875006;0.056249962499975936;67;0.3828125;violin
272.4341933770834;0.056249962499975936;72;0.3828125;violin
272.4966933354167;0.05624996250003278;67;0.3828125;violin
272.55919329375;0.05624996250003278;72;0.3828125;violin
272.6216932520834;0.056249962499975936;67;0.3828125;violin
272.6841932104167;0.056249962499975936;72;0.3828125;violin
272.74669316875;0.05624996250003278;67;0.3828125;violin
272.80919312708335;0.05624996250003278;72;0.3828125;violin
272.8716930854167;0.056249962499975936;67;0.3828125;violin
272.93419304375004;0.056249962499975936;72;0.3828125;violin
272.99981800000006;0.056249962499975936;67;0.3828125;violin
272.99981800000006;0.7468745020833012;74;0.3828125;violin
273.0591929604167;0.05624996250003278;71;0.3828125;violin
273.12169291875006;0.056249962499975936;67;0.3828125;violin
273.1841928770834;0.056249962499975936;71;0.3828125;violin
273.2466928354167;0.05624996250003278;67;0.3828125;violin
273.30919279375;0.05624996250003278;71;0.3828125;violin
273.3716927520834;0.056249962499975936;67;0.3828125;violin
273.4341927104167;0.056249962499975936;71;0.3828125;violin
273.49669266875003;0.05624996250003278;67;0.3828125;violin
273.55919262708335;0.05624996250003278;71;0.3828125;violin
273.6216925854167;0.056249962499975936;67;0.3828125;violin
273.68419254375004;0.056249962499975936;71;0.3828125;violin
273.74981750000006;0.056249962499975936;67;0.3828125;violin
273.74981750000006;0.7468745020833012;75;0.3828125;violin
273.8091924604167;0.05624996250003278;71;0.3828125;violin
273.87169241875006;0.056249962499975936;67;0.3828125;violin
273.9341923770834;0.056249962499975936;71;0.3828125;violin
273.9966923354167;0.05624996250003278;67;0.3828125;violin
274.05919229375;0.05624996250003278;71;0.3828125;violin
274.1216922520834;0.056249962499975936;67;0.3828125;violin
274.1841922104167;0.056249962499975936;71;0.3828125;violin
274.24669216875003;0.05624996250003278;67;0.3828125;violin
274.30919212708335;0.05624996250003278;71;0.3828125;violin
274.3716920854167;0.056249962499975936;67;0.3828125;violin
274.43419204375004;0.056249962499975936;71;0.3828125;violin
274.499817;0.05624996250003278;66;0.3828125;violin
274.499817;1.4968740020833593;75;0.3828125;violin
274.5591919604167;0.05624996250003278;72;0.3828125;violin
274.62169191875006;0.056249962499975936;66;0.3828125;violin
274.6841918770834;0.056249962499975936;72;0.3828125;violin
274.7466918354167;0.056249962499975936;66;0.3828125;violin
274.80919179375;0.05624996250003278;72;0.3828125;violin
274.8716917520834;0.056249962499975936;66;0.3828125;violin
274.9341917104167;0.056249962499975936;72;0.3828125;violin
274.99669166875003;0.056249962499975936;66;0.3828125;violin
275.05919162708335;0.05624996250003278;72;0.3828125;violin
275.1216915854167;0.056249962499975936;66;0.3828125;violin
275.18419154375005;0.056249962499975936;72;0.3828125;violin
275.2498165;0.05624996250003278;66;0.3828125;violin
275.3091914604167;0.05624996250003278;72;0.3828125;violin
275.37169141875006;0.056249962499975936;66;0.3828125;violin
275.4341913770834;0.056249962499975936;72;0.3828125;violin
275.4966913354167;0.056249962499975936;66;0.3828125;violin
275.55919129375;0.05624996250003278;72;0.3828125;violin
275.6216912520834;0.056249962499975936;66;0.3828125;violin
275.6841912104167;0.056249962499975936;72;0.3828125;violin
275.74669116875003;0.056249962499975936;66;0.3828125;violin
275.80919112708335;0.05624996250003278;72;0.3828125;violin
275.8716910854167;0.056249962499975936;66;0.3828125;violin
275.93419104375005;0.056249962499975936;72;0.3828125;violin
275.999816;0.05624996250003278;65;0.3828125;violin
275.999816;0.746874502083358;75;0.3828125;violin
276.0591909604167;0.05624996250003278;72;0.3828125;violin
276.12169091875006;0.056249962499975936;65;0.3828125;violin
276.1841908770834;0.056249962499975936;72;0.3828125;violin
276.2466908354167;0.056249962499975936;65;0.3828125;violin
276.30919079375;0.05624996250003278;72;0.3828125;violin
276.3716907520834;0.056249962499975936;65;0.3828125;violin
276.4341907104167;0.056249962499975936;72;0.3828125;violin
276.49669066875003;0.056249962499975936;65;0.3828125;violin
276.55919062708335;0.05624996250003278;72;0.3828125;violin
276.62169058541673;0.056249962499975936;65;0.3828125;violin
276.68419054375005;0.056249962499975936;72;0.3828125;violin
276.7498155;0.05624996250003278;66;0.3828125;violin
276.7498155;0.746874502083358;75;0.3828125;violin
276.8091904604167;0.05624996250003278;72;0.3828125;violin
276.87169041875006;0.056249962499975936;66;0.3828125;violin
276.9341903770834;0.056249962499975936;72;0.3828125;violin
276.9966903354167;0.056249962499975936;66;0.3828125;violin
277.05919029375;0.05624996250003278;72;0.3828125;violin
277.1216902520834;0.056249962499975936;66;0.3828125;violin
277.1841902104167;0.056249962499975936;72;0.3828125;violin
277.24669016875004;0.056249962499975936;66;0.3828125;violin
277.30919012708335;0.05624996250003278;72;0.3828125;violin
277.37169008541673;0.056249962499975936;66;0.3828125;violin
277.43419004375005;0.056249962499975936;72;0.3828125;violin
277.499815;0.05624996250003278;67;0.3828125;violin
277.499815;0.746874502083358;74;0.3828125;violin
277.5591899604167;0.05624996250003278;70;0.3828125;violin
277.62168991875;0.05624996250003278;67;0.3828125;violin
277.6841898770834;0.056249962499975936;70;0.3828125;violin
277.7466898354167;0.056249962499975936;67;0.3828125;violin
277.80918979375;0.05624996250003278;70;0.3828125;violin
277.87168975208334;0.05624996250003278;67;0.3828125;violin
277.9341897104167;0.056249962499975936;70;0.3828125;violin
277.99668966875004;0.056249962499975936;67;0.3828125;violin
278.05918962708336;0.05624996250003278;70;0.3828125;violin
278.1216895854167;0.05624996250003278;67;0.3828125;violin
278.18418954375005;0.056249962499975936;70;0.3828125;violin
278.2498145;0.05624996250003278;65;0.3828125;violin
278.2498145;0.746874502083358;74;0.3828125;violin
278.3091894604167;0.05624996250003278;68;0.3828125;violin
278.37168941875;0.05624996250003278;65;0.3828125;violin
278.4341893770834;0.056249962499975936;68;0.3828125;violin
278.4966893354167;0.056249962499975936;65;0.3828125;violin
278.55918929375;0.05624996250003278;68;0.3828125;violin
278.62168925208334;0.05624996250003278;65;0.3828125;violin
278.6841892104167;0.056249962499975936;68;0.3828125;violin
278.74668916875004;0.056249962499975936;65;0.3828125;violin
278.80918912708336;0.05624996250003278;68;0.3828125;violin
278.8716890854167;0.05624996250003278;65;0.3828125;violin
278.93418904375005;0.056249962499975936;68;0.3828125;violin
278.999814;0.05624996250003278;63;0.3828125;violin
278.999814;0.746874502083358;75;0.3828125;violin
279.0591889604167;0.05624996250003278;67;0.3828125;violin
279.12168891875;0.05624996250003278;63;0.3828125;violin
279.1841888770834;0.056249962499975936;67;0.3828125;violin
279.2466888354167;0.056249962499975936;63;0.3828125;violin
279.30918879375;0.05624996250003278;67;0.3828125;violin
279.37168875208334;0.05624996250003278;63;0.3828125;violin
279.4341887104167;0.056249962499975936;67;0.3828125;violin
279.49668866875004;0.056249962499975936;63;0.3828125;violin
279.55918862708336;0.05624996250003278;67;0.3828125;violin
279.6216885854167;0.05624996250003278;63;0.3828125;violin
279.68418854375005;0.056249962499975936;67;0.3828125;violin
279.7498135;0.05624996250003278;63;0.3828125;violin
279.7498135;0.746874502083358;73;0.3828125;violin
279.8091884604167;0.05624996250003278;67;0.3828125;violin
279.87168841875;0.05624996250003278;63;0.3828125;violin
279.9341883770834;0.056249962499975936;67;0.3828125;violin
279.9966883354167;0.056249962499975936;63;0.3828125;violin
280.05918829375;0.05624996250003278;67;0.3828125;violin
280.12168825208335;0.05624996250003278;63;0.3828125;violin
280.1841882104167;0.056249962499975936;67;0.3828125;violin
280.24668816875004;0.056249962499975936;63;0.3828125;violin
280.30918812708336;0.05624996250003278;67;0.3828125;violin
280.3716880854167;0.05624996250003278;63;0.3828125;violin
280.43418804375005;0.056249962499975936;67;0.3828125;violin
280.499813;0.05624996250003278;62;0.3828125;violin
280.499813;0.746874502083358;74;0.3828125;violin
280.5591879604167;0.05624996250003278;70;0.3828125;violin
280.62168791875;0.05624996250003278;62;0.3828125;violin
280.6841878770834;0.056249962499975936;70;0.3828125;violin
280.7466878354167;0.056249962499975936;62;0.3828125;violin
280.80918779375;0.05624996250003278;70;0.3828125;violin
280.87168775208335;0.05624996250003278;62;0.3828125;violin
280.9341877104167;0.056249962499975936;70;0.3828125;violin
280.99668766875004;0.056249962499975936;62;0.3828125;violin
281.05918762708336;0.05624996250003278;70;0.3828125;violin
281.1216875854167;0.05624996250003278;62;0.3828125;violin
281.18418754375006;0.056249962499975936;70;0.3828125;violin
281.2498125;0.05624996250003278;62;0.3828125;violin
281.2498125;0.746874502083358;70;0.3828125;violin
281.3091874604167;0.05624996250003278;67;0.3828125;violin
281.37168741875;0.05624996250003278;62;0.3828125;violin
281.4341873770834;0.056249962499975936;67;0.3828125;violin
281.4966873354167;0.056249962499975936;62;0.3828125;violin
281.55918729375;0.05624996250003278;67;0.3828125;violin
281.62168725208335;0.05624996250003278;62;0.3828125;violin
281.6841872104167;0.056249962499975936;67;0.3828125;violin
281.74668716875004;0.056249962499975936;62;0.3828125;violin
281.80918712708336;0.05624996250003278;67;0.3828125;violin
281.8716870854167;0.05624996250003278;62;0.3828125;violin
281.93418704375006;0.056249962499975936;67;0.3828125;violin
281.999812;0.05624996250003278;62;0.3828125;violin
281.999812;0.746874502083358;72;0.3828125;violin
282.0591869604167;0.05624996250003278;69;0.3828125;violin
282.12168691875;0.05624996250003278;62;0.3828125;violin
282.1841868770834;0.056249962499975936;69;0.3828125;violin
282.2466868354167;0.056249962499975936;62;0.3828125;violin
282.30918679375003;0.05624996250003278;69;0.3828125;violin
282.37168675208335;0.05624996250003278;62;0.3828125;violin
282.4341867104167;0.056249962499975936;69;0.3828125;violin
282.49668666875004;0.056249962499975936;62;0.3828125;violin
282.55918662708336;0.05624996250003278;69;0.3828125;violin
282.6216865854167;0.05624996250003278;62;0.3828125;violin
282.68418654375006;0.056249962499975936;69;0.3828125;violin
282.7498115;0.05624996250003278;62;0.3828125;violin
282.7498115;0.746874502083358;69;0.3828125;violin
282.8091864604167;0.05624996250003278;66;0.3828125;violin
282.87168641875;0.05624996250003278;62;0.3828125;violin
282.9341863770834;0.056249962499975936;66;0.3828125;violin
282.9966863354167;0.056249962499975936;62;0.3828125;violin
283.05918629375003;0.05624996250003278;66;0.3828125;violin
283.12168625208335;0.05624996250003278;62;0.3828125;violin
283.1841862104167;0.056249962499975936;66;0.3828125;violin
283.24668616875005;0.056249962499975936;62;0.3828125;violin
283.30918612708336;0.05624996250003278;66;0.3828125;violin
283.3716860854167;0.05624996250003278;62;0.3828125;violin
283.43418604375006;0.056249962499975936;66;0.3828125;violin
283.499811;0.746874502083358;55;0.3828125;violin
283.499811;0.05624996250003278;67;0.3828125;violin
283.5591859604167;0.05624996250003278;70;0.3828125;violin
283.62168591875;0.05624996250003278;67;0.3828125;violin
283.6841858770834;0.056249962499975936;70;0.3828125;violin
283.7466858354167;0.056249962499975936;67;0.3828125;violin
283.80918579375003;0.05624996250003278;70;0.3828125;violin
283.87168575208335;0.05624996250003278;67;0.3828125;violin
283.9341857104167;0.056249962499975936;70;0.3828125;violin
283.99668566875005;0.056249962499975936;67;0.3828125;violin
284.05918562708337;0.056249962499975936;70;0.3828125;violin
284.1216855854167;0.05624996250003278;67;0.3828125;violin
284.18418554375006;0.056249962499975936;70;0.3828125;violin
284.2498105;0.746874502083358;55;0.3828125;violin
284.2498105;0.05624996250003278;70;0.3828125;violin
284.3091854604167;0.056249962499975936;74;0.3828125;violin
284.37168541875;0.05624996250003278;70;0.3828125;violin
284.4341853770834;0.056249962499975936;74;0.3828125;violin
284.4966853354167;0.056249962499975936;70;0.3828125;violin
284.55918529375003;0.056249962499975936;74;0.3828125;violin
284.62168525208335;0.05624996250003278;70;0.3828125;violin
284.68418521041673;0.056249962499975936;74;0.3828125;violin
284.74668516875005;0.056249962499975936;70;0.3828125;violin
284.80918512708337;0.056249962499975936;74;0.3828125;violin
284.8716850854167;0.05624996250003278;70;0.3828125;violin
284.93418504375006;0.056249962499975936;74;0.3828125;violin
284.99981;0.746874502083358;55;0.3828125;violin
284.99981;0.05624996250003278;67;0.3828125;violin
285.0591849604167;0.056249962499975936;70;0.3828125;violin
285.12168491875;0.05624996250003278;67;0.3828125;violin
285.1841848770834;0.056249962499975936;70;0.3828125;violin
285.2466848354167;0.056249962499975936;67;0.3828125;violin
285.30918479375003;0.056249962499975936;70;0.3828125;violin
285.37168475208335;0.05624996250003278;67;0.3828125;violin
285.43418471041673;0.056249962499975936;70;0.3828125;violin
285.49668466875005;0.056249962499975936;67;0.3828125;violin
285.55918462708337;0.056249962499975936;70;0.3828125;violin
285.6216845854167;0.05624996250003278;67;0.3828125;violin
285.68418454375006;0.056249962499975936;70;0.3828125;violin
285.7498095;0.746874502083358;55;0.3828125;violin
285.7498095;0.05624996250003278;70;0.3828125;violin
285.8091844604167;0.056249962499975936;74;0.3828125;violin
285.87168441875;0.05624996250003278;70;0.3828125;violin
285.9341843770834;0.056249962499975936;74;0.3828125;violin
285.9966843354167;0.056249962499975936;70;0.3828125;violin
286.05918429375004;0.056249962499975936;74;0.3828125;violin
286.12168425208336;0.05624996250003278;70;0.3828125;violin
286.18418421041673;0.056249962499975936;74;0.3828125;violin
286.24668416875005;0.056249962499975936;70;0.3828125;violin
286.30918412708337;0.056249962499975936;74;0.3828125;violin
286.3716840854167;0.05624996250003278;70;0.3828125;violin
286.43418404375007;0.056249962499975936;74;0.3828125;violin
286.499809;0.746874502083358;55;0.3828125;violin
286.499809;0.05624996250003278;71;0.3828125;violin
286.5591839604167;0.056249962499975936;74;0.3828125;violin
286.62168391875;0.05624996250003278;71;0.3828125;violin
286.68418387708334;0.05624996250003278;74;0.3828125;violin
286.7466838354167;0.056249962499975936;71;0.3828125;violin
286.80918379375004;0.056249962499975936;74;0.3828125;violin
286.87168375208336;0.05624996250003278;71;0.3828125;violin
286.9341837104167;0.05624996250003278;74;0.3828125;violin
286.99668366875005;0.056249962499975936;71;0.3828125;violin
287.05918362708337;0.056249962499975936;74;0.3828125;violin
287.1216835854167;0.05624996250003278;71;0.3828125;violin
287.18418354375;0.05624996250003278;74;0.3828125;violin
287.24980850000003;0.746874502083358;55;0.3828125;violin
287.24980850000003;0.05624996250003278;74;0.3828125;violin
287.3091834604167;0.056249962499975936;77;0.3828125;violin
287.37168341875;0.05624996250003278;74;0.3828125;violin
287.43418337708334;0.05624996250003278;77;0.3828125;violin
287.4966833354167;0.056249962499975936;74;0.3828125;violin
287.55918329375004;0.056249962499975936;77;0.3828125;violin
287.62168325208336;0.05624996250003278;74;0.3828125;violin
287.6841832104167;0.05624996250003278;77;0.3828125;violin
287.74668316875005;0.056249962499975936;74;0.3828125;violin
287.8091831270834;0.056249962499975936;77;0.3828125;violin
287.8716830854167;0.05624996250003278;74;0.3828125;violin
287.93418304375;0.05624996250003278;77;0.3828125;violin
287.99980800000003;0.746874502083358;55;0.3828125;violin
287.99980800000003;0.05624996250003278;75;0.3828125;violin
288.0591829604167;0.056249962499975936;79;0.3828125;violin
288.12168291875;0.05624996250003278;75;0.3828125;violin
288.18418287708334;0.05624996250003278;79;0.3828125;violin
288.2466828354167;0.056249962499975936;75;0.3828125;violin
288.30918279375004;0.056249962499975936;79;0.3828125;violin
288.37168275208336;0.05624996250003278;75;0.3828125;violin
288.4341827104167;0.05624996250003278;79;0.3828125;violin
288.49668266875005;0.056249962499975936;75;0.3828125;violin
288.5591826270834;0.056249962499975936;79;0.3828125;violin
288.6216825854167;0.05624996250003278;75;0.3828125;violin
288.68418254375;0.05624996250003278;79;0.3828125;violin
288.74980750000003;0.746874502083358;55;0.3828125;violin
288.74980750000003;0.05624996250003278;72;0.3828125;violin
288.8091824604167;0.056249962499975936;75;0.3828125;violin
288.87168241875;0.05624996250003278;72;0.3828125;violin
288.93418237708335;0.05624996250003278;75;0.3828125;violin
288.9966823354167;0.056249962499975936;72;0.3828125;violin
289.05918229375004;0.056249962499975936;75;0.3828125;violin
289.12168225208336;0.05624996250003278;72;0.3828125;violin
289.1841822104167;0.05624996250003278;75;0.3828125;violin
289.24668216875006;0.056249962499975936;72;0.3828125;violin
289.3091821270834;0.056249962499975936;75;0.3828125;violin
289.3716820854167;0.05624996250003278;72;0.3828125;violin
289.43418204375;0.05624996250003278;75;0.3828125;violin
289.49980700000003;0.746874502083358;62;0.3828125;violin
289.49980700000003;0.05624996250003278;70;0.3828125;violin
289.5591819604167;0.056249962499975936;74;0.3828125;violin
289.62168191875;0.05624996250003278;70;0.3828125;violin
289.68418187708335;0.05624996250003278;74;0.3828125;violin
289.7466818354167;0.056249962499975936;70;0.3828125;violin
289.80918179375004;0.056249962499975936;74;0.3828125;violin
289.87168175208336;0.05624996250003278;70;0.3828125;violin
289.9341817104167;0.05624996250003278;74;0.3828125;violin
289.99668166875006;0.056249962499975936;70;0.3828125;violin
290.0591816270834;0.056249962499975936;74;0.3828125;violin
290.1216815854167;0.05624996250003278;70;0.3828125;violin
290.18418154375;0.05624996250003278;74;0.3828125;violin
290.24980650000003;0.746874502083358;62;0.3828125;violin
290.24980650000003;0.056249962499975936;67;0.3828125;violin
290.3091814604167;0.056249962499975936;70;0.3828125;violin
290.37168141875003;0.05624996250003278;67;0.3828125;violin
290.43418137708335;0.05624996250003278;70;0.3828125;violin
290.4966813354167;0.056249962499975936;67;0.3828125;violin
290.55918129375004;0.056249962499975936;70;0.3828125;violin
290.62168125208336;0.05624996250003278;67;0.3828125;violin
290.6841812104167;0.05624996250003278;70;0.3828125;violin
290.74668116875006;0.056249962499975936;67;0.3828125;violin
290.8091811270834;0.056249962499975936;70;0.3828125;violin
290.8716810854167;0.05624996250003278;67;0.3828125;violin
290.93418104375;0.05624996250003278;70;0.3828125;violin
290.99980600000004;0.746874502083358;62;0.3828125;violin
290.99980600000004;0.056249962499975936;69;0.3828125;violin
291.0591809604167;0.056249962499975936;72;0.3828125;violin
291.12168091875003;0.05624996250003278;69;0.3828125;violin
291.18418087708335;0.05624996250003278;72;0.3828125;violin
291.2466808354167;0.056249962499975936;69;0.3828125;violin
291.30918079375004;0.056249962499975936;72;0.3828125;violin
291.37168075208336;0.05624996250003278;69;0.3828125;violin
291.4341807104167;0.05624996250003278;72;0.3828125;violin
291.49668066875006;0.056249962499975936;69;0.3828125;violin
291.5591806270834;0.056249962499975936;72;0.3828125;violin
291.6216805854167;0.05624996250003278;69;0.3828125;violin
291.68418054375;0.05624996250003278;72;0.3828125;violin
291.74980550000004;0.746874502083358;62;0.3828125;violin
291.74980550000004;0.056249962499975936;66;0.3828125;violin
291.8091804604167;0.056249962499975936;69;0.3828125;violin
291.87168041875003;0.05624996250003278;66;0.3828125;violin
291.93418037708335;0.05624996250003278;69;0.3828125;violin
291.9966803354167;0.056249962499975936;66;0.3828125;violin
292.05918029375005;0.056249962499975936;69;0.3828125;violin
292.12168025208337;0.05624996250003278;66;0.3828125;violin
292.1841802104167;0.05624996250003278;69;0.3828125;violin
292.24668016875006;0.056249962499975936;66;0.3828125;violin
292.3091801270834;0.056249962499975936;69;0.3828125;violin
292.3716800854167;0.05624996250003278;66;0.3828125;violin
292.43418004375;0.05624996250003278;69;0.3828125;violin
292.49980500000004;0.056249962499975936;55;0.3828125;violin
292.49980500000004;0.746874502083358;67;0.3828125;violin
292.5591799604167;0.056249962499975936;58;0.3828125;violin
292.62167991875003;0.05624996250003278;55;0.3828125;violin
292.68417987708335;0.05624996250003278;58;0.3828125;violin
292.7466798354167;0.056249962499975936;55;0.3828125;violin
292.80917979375005;0.056249962499975936;58;0.3828125;violin
292.87167975208337;0.05624996250003278;55;0.3828125;violin
292.9341797104167;0.05624996250003278;58;0.3828125;violin
292.99667966875006;0.056249962499975936;55;0.3828125;violin
293.0591796270834;0.056249962499975936;58;0.3828125;violin
293.1216795854167;0.056249962499975936;55;0.3828125;violin
293.18417954375;0.05624996250003278;58;0.3828125;violin
293.24980450000004;0.056249962499975936;55;0.3828125;violin
293.24980450000004;0.746874502083358;65;0.3828125;violin
293.3091794604167;0.056249962499975936;59;0.3828125;violin
293.37167941875003;0.056249962499975936;55;0.3828125;violin
293.43417937708335;0.05624996250003278;59;0.3828125;violin
293.49667933541673;0.056249962499975936;55;0.3828125;violin
293.55917929375005;0.056249962499975936;59;0.3828125;violin
293.62167925208337;0.056249962499975936;55;0.3828125;violin
293.6841792104167;0.05624996250003278;59;0.3828125;violin
293.74667916875006;0.056249962499975936;55;0.3828125;violin
293.8091791270834;0.056249962499975936;59;0.3828125;violin
293.8716790854167;0.056249962499975936;55;0.3828125;violin
293.93417904375;0.05624996250003278;59;0.3828125;violin
293.99980400000004;0.056249962499975936;55;0.3828125;violin
293.99980400000004;0.746874502083358;64;0.3828125;violin
294.0591789604167;0.056249962499975936;60;0.3828125;violin
294.12167891875004;0.056249962499975936;55;0.3828125;violin
294.18417887708335;0.05624996250003278;60;0.3828125;violin
294.24667883541673;0.056249962499975936;55;0.3828125;violin
294.30917879375005;0.056249962499975936;60;0.3828125;violin
294.37167875208337;0.056249962499975936;55;0.3828125;violin
294.4341787104167;0.05624996250003278;60;0.3828125;violin
294.49667866875006;0.056249962499975936;55;0.3828125;violin
294.5591786270834;0.056249962499975936;60;0.3828125;violin
294.6216785854167;0.056249962499975936;55;0.3828125;violin
294.68417854375;0.05624996250003278;60;0.3828125;violin
294.74980350000004;0.056249962499975936;55;0.3828125;violin
294.74980350000004;0.746874502083358;63;0.3828125;violin
294.8091784604167;0.056249962499975936;60;0.3828125;violin
294.87167841875004;0.056249962499975936;55;0.3828125;violin
294.93417837708336;0.05624996250003278;60;0.3828125;violin
294.99667833541673;0.056249962499975936;55;0.3828125;violin
295.05917829375005;0.056249962499975936;60;0.3828125;violin
295.12167825208337;0.056249962499975936;55;0.3828125;violin
295.1841782104167;0.05624996250003278;60;0.3828125;violin
295.24667816875007;0.056249962499975936;55;0.3828125;violin
295.3091781270834;0.056249962499975936;60;0.3828125;violin
295.3716780854167;0.056249962499975936;55;0.3828125;violin
295.43417804375;0.05624996250003278;60;0.3828125;violin
295.49980300000004;0.056249962499975936;55;0.3828125;violin
295.49980300000004;1.4968740020833025;66;0.5703125;violin
295.5591779604167;0.056249962499975936;57;0.3828125;violin
295.62167791875004;0.056249962499975936;55;0.3828125;violin
295.68417787708336;0.05624996250003278;57;0.3828125;violin
295.74667783541673;0.056249962499975936;55;0.3828125;violin
295.80917779375005;0.056249962499975936;57;0.3828125;violin
295.8716777520834;0.056249962499975936;55;0.3828125;violin
295.9341777104167;0.05624996250003278;57;0.3828125;violin
295.99667766875;0.05624996250003278;55;0.3828125;violin
296.0591776270834;0.056249962499975936;57;0.3828125;violin
296.1216775854167;0.056249962499975936;55;0.3828125;violin
296.18417754375;0.05624996250003278;57;0.3828125;violin
296.24980250000004;0.056249962499975936;55;0.3828125;violin
296.3091774604167;0.056249962499975936;57;0.3828125;violin
296.37167741875004;0.056249962499975936;55;0.3828125;violin
296.43417737708336;0.05624996250003278;57;0.3828125;violin
296.4966773354167;0.05624996250003278;55;0.3828125;violin
296.55917729375005;0.056249962499975936;57;0.3828125;violin
296.6216772520834;0.056249962499975936;55;0.3828125;violin
296.6841772104167;0.05624996250003278;57;0.3828125;violin
296.74667716875;0.05624996250003278;55;0.3828125;violin
296.8091771270834;0.056249962499975936;57;0.3828125;violin
296.8716770854167;0.056249962499975936;55;0.3828125;violin
296.93417704375;0.05624996250003278;57;0.3828125;violin
296.99980200000005;0.056249962499975936;55;0.3828125;violin
296.99980200000005;0.7468745020833012;67;0.3828125;violin
297.0591769604167;0.056249962499975936;58;0.3828125;violin
297.12167691875004;0.056249962499975936;55;0.3828125;violin
297.18417687708336;0.05624996250003278;58;0.3828125;violin
297.2466768354167;0.05624996250003278;55;0.3828125;violin
297.30917679375005;0.056249962499975936;58;0.3828125;violin
297.3716767520834;0.056249962499975936;55;0.3828125;violin
297.4341767104167;0.05624996250003278;58;0.3828125;violin
297.49667666875;0.05624996250003278;55;0.3828125;violin
297.5591766270834;0.056249962499975936;58;0.3828125;violin
297.6216765854167;0.056249962499975936;55;0.3828125;violin
297.68417654375;0.05624996250003278;58;0.3828125;violin
297.74980150000005;0.056249962499975936;55;0.3828125;violin
297.74980150000005;0.7468745020833012;65;0.3828125;violin
297.8091764604167;0.056249962499975936;59;0.3828125;violin
297.87167641875004;0.056249962499975936;55;0.3828125;violin
297.93417637708336;0.05624996250003278;59;0.3828125;violin
297.9966763354167;0.05624996250003278;55;0.3828125;violin
298.05917629375006;0.056249962499975936;59;0.3828125;violin
298.1216762520834;0.056249962499975936;55;0.3828125;violin
298.1841762104167;0.05624996250003278;59;0.3828125;violin
298.24667616875;0.05624996250003278;55;0.3828125;violin
298.3091761270834;0.056249962499975936;59;0.3828125;violin
298.3716760854167;0.056249962499975936;55;0.3828125;violin
298.43417604375;0.05624996250003278;59;0.3828125;violin
298.49980100000005;0.056249962499975936;55;0.3828125;violin
298.49980100000005;0.7468745020833012;64;0.3828125;violin
298.5591759604167;0.056249962499975936;60;0.3828125;violin
298.62167591875004;0.056249962499975936;55;0.3828125;violin
298.68417587708336;0.05624996250003278;60;0.3828125;violin
298.7466758354167;0.05624996250003278;55;0.3828125;violin
298.80917579375006;0.056249962499975936;60;0.3828125;violin
298.8716757520834;0.056249962499975936;55;0.3828125;violin
298.9341757104167;0.05624996250003278;60;0.3828125;violin
298.99667566875;0.05624996250003278;55;0.3828125;violin
299.0591756270834;0.056249962499975936;60;0.3828125;violin
299.1216755854167;0.056249962499975936;55;0.3828125;violin
299.18417554375003;0.05624996250003278;60;0.3828125;violin
299.24980050000005;0.056249962499975936;55;0.3828125;violin
299.24980050000005;0.7468745020833012;63;0.3828125;violin
299.3091754604167;0.056249962499975936;60;0.3828125;violin
299.37167541875004;0.056249962499975936;55;0.3828125;violin
299.43417537708336;0.05624996250003278;60;0.3828125;violin
299.4966753354167;0.05624996250003278;55;0.3828125;violin
299.55917529375006;0.056249962499975936;60;0.3828125;violin
299.6216752520834;0.056249962499975936;55;0.3828125;violin
299.6841752104167;0.05624996250003278;60;0.3828125;violin
299.74667516875;0.05624996250003278;55;0.3828125;violin
299.8091751270834;0.056249962499975936;60;0.3828125;violin
299.8716750854167;0.056249962499975936;55;0.3828125;violin
299.93417504375003;0.05624996250003278;60;0.3828125;violin
299.99980000000005;0.056249962499975936;55;0.3828125;violin
299.99980000000005;1.4968740020833025;66;0.5703125;violin
300.0591749604167;0.056249962499975936;57;0.3828125;violin
300.12167491875005;0.056249962499975936;55;0.3828125;violin
300.18417487708336;0.05624996250003278;57;0.3828125;violin
300.2466748354167;0.05624996250003278;55;0.3828125;violin
300.30917479375006;0.056249962499975936;57;0.3828125;violin
300.3716747520834;0.056249962499975936;55;0.3828125;violin
300.4341747104167;0.05624996250003278;57;0.3828125;violin
300.49667466875;0.05624996250003278;55;0.3828125;violin
300.5591746270834;0.056249962499975936;57;0.3828125;violin
300.6216745854167;0.056249962499975936;55;0.3828125;violin
300.68417454375003;0.05624996250003278;57;0.3828125;violin
300.74979950000005;0.056249962499975936;55;0.3828125;violin
300.8091744604167;0.056249962499975936;57;0.3828125;violin
300.87167441875005;0.056249962499975936;55;0.3828125;violin
300.93417437708337;0.05624996250003278;57;0.3828125;violin
300.9966743354167;0.05624996250003278;55;0.3828125;violin
301.05917429375006;0.056249962499975936;57;0.3828125;violin
301.1216742520834;0.056249962499975936;55;0.3828125;violin
301.1841742104167;0.05624996250003278;57;0.3828125;violin
301.24667416875;0.05624996250003278;55;0.3828125;violin
301.3091741270834;0.056249962499975936;57;0.3828125;violin
301.3716740854167;0.056249962499975936;55;0.3828125;violin
301.43417404375003;0.05624996250003278;57;0.3828125;violin
301.49979900000005;0.056249962499975936;55;0.3828125;violin
301.49979900000005;0.7468745020833012;67;0.5703125;violin
301.55917396041673;0.056249962499975936;58;0.3828125;violin
301.62167391875005;0.056249962499975936;55;0.3828125;violin
301.68417387708337;0.05624996250003278;58;0.3828125;violin
301.7466738354167;0.05624996250003278;55;0.3828125;violin
301.80917379375006;0.056249962499975936;58;0.3828125;violin
301.8716737520834;0.056249962499975936;55;0.3828125;violin
301.9341737104167;0.05624996250003278;58;0.3828125;violin
301.99667366875;0.05624996250003278;55;0.3828125;violin
302.0591736270834;0.056249962499975936;58;0.3828125;violin
302.1216735854167;0.056249962499975936;55;0.3828125;violin
302.18417354375003;0.056249962499975936;58;0.3828125;violin
302.24979850000005;0.056249962499975936;55;0.3828125;violin
302.24979850000005;0.7468745020833012;70;0.3828125;violin
302.30917346041673;0.056249962499975936;62;0.3828125;violin
302.37167341875005;0.056249962499975936;55;0.3828125;violin
302.43417337708337;0.056249962499975936;62;0.3828125;violin
302.4966733354167;0.05624996250003278;55;0.3828125;violin
302.55917329375006;0.056249962499975936;62;0.3828125;violin
302.6216732520834;0.056249962499975936;55;0.3828125;violin
302.6841732104167;0.056249962499975936;62;0.3828125;violin
302.74667316875;0.05624996250003278;55;0.3828125;violin
302.8091731270834;0.056249962499975936;62;0.3828125;violin
302.8716730854167;0.056249962499975936;55;0.3828125;violin
302.93417304375004;0.056249962499975936;62;0.3828125;violin
302.99979800000006;0.056249962499975936;55;0.3828125;violin
302.99979800000006;0.7468745020833012;67;0.5703125;violin
303.05917296041673;0.056249962499975936;58;0.3828125;violin
303.12167291875005;0.056249962499975936;55;0.3828125;violin
303.18417287708337;0.056249962499975936;58;0.3828125;violin
303.2466728354167;0.05624996250003278;55;0.3828125;violin
303.30917279375007;0.056249962499975936;58;0.3828125;violin
303.3716727520834;0.056249962499975936;55;0.3828125;violin
303.4341727104167;0.056249962499975936;58;0.3828125;violin
303.49667266875;0.05624996250003278;55;0.3828125;violin
303.5591726270834;0.056249962499975936;58;0.3828125;violin
303.6216725854167;0.056249962499975936;55;0.3828125;violin
303.68417254375004;0.056249962499975936;58;0.3828125;violin
303.74979750000006;0.056249962499975936;55;0.3828125;violin
303.74979750000006;0.7468745020833012;70;0.3828125;violin
303.80917246041673;0.056249962499975936;62;0.3828125;violin
303.87167241875005;0.056249962499975936;55;0.3828125;violin
303.93417237708337;0.056249962499975936;62;0.3828125;violin
303.9966723354167;0.05624996250003278;55;0.3828125;violin
304.05917229375007;0.056249962499975936;62;0.3828125;violin
304.1216722520834;0.056249962499975936;55;0.3828125;violin
304.1841722104167;0.056249962499975936;62;0.3828125;violin
304.24667216875;0.05624996250003278;55;0.3828125;violin
304.3091721270834;0.056249962499975936;62;0.3828125;violin
304.3716720854167;0.056249962499975936;55;0.3828125;violin
304.43417204375004;0.056249962499975936;62;0.3828125;violin
304.49979700000006;0.056249962499975936;55;0.3828125;violin
304.49979700000006;0.7468745020833012;67;0.5703125;violin
304.55917196041673;0.056249962499975936;58;0.3828125;violin
304.62167191875005;0.056249962499975936;55;0.3828125;violin
304.6841718770834;0.056249962499975936;58;0.3828125;violin
304.7466718354167;0.05624996250003278;55;0.3828125;violin
304.80917179375007;0.056249962499975936;58;0.3828125;violin
304.8716717520834;0.056249962499975936;55;0.3828125;violin
304.9341717104167;0.056249962499975936;58;0.3828125;violin
304.99667166875;0.05624996250003278;55;0.3828125;violin
305.05917162708334;0.05624996250003278;58;0.3828125;violin
305.1216715854167;0.056249962499975936;55;0.3828125;violin
305.18417154375004;0.056249962499975936;58;0.3828125;violin
305.24979650000006;0.056249962499975936;55;0.3828125;violin
305.24979650000006;0.7468745020833012;70;0.3828125;violin
305.3091714604167;0.05624996250003278;62;0.3828125;violin
305.37167141875005;0.056249962499975936;55;0.3828125;violin
305.4341713770834;0.056249962499975936;62;0.3828125;violin
305.4966713354167;0.05624996250003278;55;0.3828125;violin
305.55917129375;0.05624996250003278;62;0.3828125;violin
305.6216712520834;0.056249962499975936;55;0.3828125;violin
305.6841712104167;0.056249962499975936;62;0.3828125;violin
305.74667116875;0.05624996250003278;55;0.3828125;violin
305.80917112708335;0.05624996250003278;62;0.3828125;violin
305.8716710854167;0.056249962499975936;55;0.3828125;violin
305.93417104375004;0.056249962499975936;62;0.3828125;violin
305.99979600000006;0.056249962499975936;55;0.3828125;violin
305.99979600000006;1.4968740020833025;67;0.3828125;violin
306.0591709604167;0.05624996250003278;58;0.3828125;violin
306.12167091875006;0.056249962499975936;55;0.3828125;violin
306.1841708770834;0.056249962499975936;58;0.3828125;violin
306.2466708354167;0.05624996250003278;55;0.3828125;violin
306.30917079375;0.05624996250003278;58;0.3828125;violin
306.3716707520834;0.056249962499975936;55;0.3828125;violin
306.4341707104167;0.056249962499975936;58;0.3828125;violin
306.49667066875;0.05624996250003278;55;0.3828125;violin
306.55917062708335;0.05624996250003278;58;0.3828125;violin
306.6216705854167;0.056249962499975936;55;0.3828125;violin
306.68417054375004;0.056249962499975936;58;0.3828125;violin
306.74979550000006;0.056249962499975936;55;0.3828125;violin
306.8091704604167;0.05624996250003278;58;0.3828125;violin
306.87167041875006;0.056249962499975936;55;0.3828125;violin
306.9341703770834;0.056249962499975936;58;0.3828125;violin
306.9966703354167;0.05624996250003278;55;0.3828125;violin
307.05917029375;0.05624996250003278;58;0.3828125;violin
307.1216702520834;0.056249962499975936;55;0.3828125;violin
307.1841702104167;0.056249962499975936;58;0.3828125;violin
307.24667016875003;0.05624996250003278;55;0.3828125;violin
307.30917012708335;0.05624996250003278;58;0.3828125;violin
307.3716700854167;0.056249962499975936;55;0.3828125;violin
307.43417004375004;0.056249962499975936;58;0.3828125;violin
307.49979500000006;0.056249962499975936;55;0.3828125;violin
307.49979500000006;1.4968740020833025;67;0.3828125;violin
307.5591699604167;0.05624996250003278;58;0.3828125;violin
307.62166991875006;0.056249962499975936;55;0.3828125;violin
307.6841698770834;0.056249962499975936;58;0.3828125;violin
307.7466698354167;0.05624996250003278;55;0.3828125;violin
307.80916979375;0.05624996250003278;58;0.3828125;violin
307.8716697520834;0.056249962499975936;55;0.3828125;violin
307.9341697104167;0.056249962499975936;58;0.3828125;violin
307.99666966875003;0.05624996250003278;55;0.3828125;violin
308.05916962708335;0.05624996250003278;58;0.3828125;violin
308.1216695854167;0.056249962499975936;55;0.3828125;violin
308.18416954375004;0.056249962499975936;58;0.3828125;violin
308.24979450000006;0.056249962499975936;55;0.3828125;violin
308.3091694604167;0.05624996250003278;58;0.3828125;violin
308.37166941875006;0.056249962499975936;55;0.3828125;violin
308.4341693770834;0.056249962499975936;58;0.3828125;violin
308.4966693354167;0.05624996250003278;55;0.3828125;violin
308.55916929375;0.05624996250003278;58;0.3828125;violin
308.6216692520834;0.056249962499975936;55;0.3828125;violin
308.6841692104167;0.056249962499975936;58;0.3828125;violin
308.74666916875003;0.05624996250003278;55;0.3828125;violin
308.80916912708335;0.05624996250003278;58;0.3828125;violin
308.8716690854167;0.056249962499975936;55;0.3828125;violin
308.93416904375005;0.056249962499975936;58;0.3828125;violin
308.99979400000007;0.056249962499975936;55;0.3828125;violin
308.99979400000007;1.4968740020833025;67;0.3828125;violin
309.0591689604167;0.05624996250003278;58;0.3828125;violin
309.12166891875006;0.056249962499975936;55;0.3828125;violin
309.1841688770834;0.056249962499975936;58;0.3828125;violin
309.2466688354167;0.05624996250003278;55;0.3828125;violin
309.30916879375;0.05624996250003278;58;0.3828125;violin
309.3716687520834;0.056249962499975936;55;0.3828125;violin
309.4341687104167;0.056249962499975936;58;0.3828125;violin
309.49666866875003;0.05624996250003278;55;0.3828125;violin
309.55916862708335;0.05624996250003278;58;0.3828125;violin
309.6216685854167;0.056249962499975936;55;0.3828125;violin
309.68416854375005;0.056249962499975936;58;0.3828125;violin
309.74979350000007;0.056249962499975936;55;0.3828125;violin
309.8091684604167;0.05624996250003278;58;0.3828125;violin
309.87166841875006;0.056249962499975936;55;0.3828125;violin
309.9341683770834;0.056249962499975936;58;0.3828125;violin
309.9966683354167;0.05624996250003278;55;0.3828125;violin
310.05916829375;0.05624996250003278;58;0.3828125;violin
310.1216682520834;0.056249962499975936;55;0.3828125;violin
310.1841682104167;0.056249962499975936;58;0.3828125;violin
310.24666816875003;0.05624996250003278;55;0.3828125;violin
310.30916812708335;0.05624996250003278;58;0.3828125;violin
310.37166808541673;0.056249962499975936;55;0.3828125;violin
310.43416804375005;0.056249962499975936;58;0.3828125;violin
310.49979300000007;0.056249962499975936;55;0.3828125;violin
310.49979300000007;1.4968740020833025;67;0.3828125;violin
310.5591679604167;0.05624996250003278;59;0.3828125;violin
310.62166791875006;0.056249962499975936;55;0.3828125;violin
310.6841678770834;0.056249962499975936;59;0.3828125;violin
310.7466678354167;0.05624996250003278;55;0.3828125;violin
310.80916779375;0.05624996250003278;59;0.3828125;violin
310.8716677520834;0.056249962499975936;55;0.3828125;violin
310.9341677104167;0.056249962499975936;59;0.3828125;violin
310.99666766875004;0.05624996250003278;55;0.3828125;violin
311.05916762708335;0.05624996250003278;59;0.3828125;violin
311.12166758541673;0.056249962499975936;55;0.3828125;violin
311.18416754375005;0.056249962499975936;59;0.3828125;violin
311.2497925;0.05624996250003278;55;0.3828125;violin
311.3091674604167;0.05624996250003278;59;0.3828125;violin
311.37166741875006;0.056249962499975936;55;0.3828125;violin
311.4341673770834;0.056249962499975936;59;0.3828125;violin
311.4966673354167;0.056249962499975936;55;0.3828125;violin
311.55916729375;0.05624996250003278;59;0.3828125;violin
311.6216672520834;0.056249962499975936;55;0.3828125;violin
311.6841672104167;0.056249962499975936;59;0.3828125;violin
311.74666716875004;0.056249962499975936;55;0.3828125;violin
311.80916712708336;0.05624996250003278;59;0.3828125;violin
311.87166708541673;0.056249962499975936;55;0.3828125;violin
311.93416704375005;0.056249962499975936;59;0.3828125;violin
311.999792;0.05624996250003278;55;0.3828125;violin
311.999792;1.4968740020833593;67;0.3828125;violin
312.0591669604167;0.05624996250003278;59;0.3828125;violin
312.12166691875007;0.056249962499975936;55;0.3828125;violin
312.1841668770834;0.056249962499975936;59;0.3828125;violin
312.2466668354167;0.056249962499975936;55;0.3828125;violin
312.30916679375;0.05624996250003278;59;0.3828125;violin
312.3716667520834;0.056249962499975936;55;0.3828125;violin
312.4341667104167;0.056249962499975936;59;0.3828125;violin
312.49666666875004;0.056249962499975936;55;0.3828125;violin
312.55916662708336;0.05624996250003278;59;0.3828125;violin
312.62166658541673;0.056249962499975936;55;0.3828125;violin
312.68416654375005;0.056249962499975936;59;0.3828125;violin
312.7497915;0.05624996250003278;55;0.3828125;violin
312.8091664604167;0.05624996250003278;59;0.3828125;violin
312.87166641875007;0.056249962499975936;55;0.3828125;violin
312.9341663770834;0.056249962499975936;59;0.3828125;violin
312.9966663354167;0.056249962499975936;55;0.3828125;violin
313.05916629375;0.05624996250003278;59;0.3828125;violin
313.1216662520834;0.056249962499975936;55;0.3828125;violin
313.1841662104167;0.056249962499975936;59;0.3828125;violin
313.24666616875004;0.056249962499975936;55;0.3828125;violin
313.30916612708336;0.05624996250003278;59;0.3828125;violin
313.37166608541673;0.056249962499975936;55;0.3828125;violin
313.43416604375005;0.056249962499975936;59;0.3828125;violin
313.499791;0.05624996250003278;55;0.3828125;violin
313.499791;0.746874502083358;67;0.3828125;violin
313.5591659604167;0.05624996250003278;59;0.3828125;violin
313.62166591875007;0.056249962499975936;55;0.3828125;violin
313.6841658770834;0.056249962499975936;59;0.3828125;violin
313.7466658354167;0.056249962499975936;55;0.3828125;violin
313.80916579375;0.05624996250003278;59;0.3828125;violin
313.8716657520834;0.056249962499975936;55;0.3828125;violin
313.9341657104167;0.056249962499975936;59;0.3828125;violin
313.99666566875004;0.056249962499975936;55;0.3828125;violin
314.05916562708336;0.05624996250003278;59;0.3828125;violin
314.1216655854167;0.05624996250003278;55;0.3828125;violin
314.18416554375005;0.056249962499975936;59;0.3828125;violin
