start;duration;pitch;velocity;instrument
0.0;0.4596154229166667;64;0.9921875;violin
0.0;0.4596154229166667;76;0.9921875;violin
0.4615385;0.4596154229166666;64;0.9921875;violin
0.4615385;0.4596154229166666;76;0.9921875;violin
0.923077;0.6903846729166666;72;0.9921875;violin
0.923077;0.6903846729166666;84;0.9921875;violin
1.61538475;0.22884617291666665;71;0.9921875;violin
1.61538475;0.22884617291666665;83;0.9921875;violin
1.846154;0.4596154229166667;69;0.9921875;violin
1.846154;0.4596154229166667;81;0.9921875;violin
2.3076925;0.9211539229166665;68;0.9921875;violin
2.3076925;0.9211539229166665;80;0.9921875;violin
3.2307695;0.45961542291666646;71;0.9921875;violin
3.2307695;0.45961542291666646;83;0.9921875;violin
3.692308;0.4596154229166669;69;0.9921875;violin
3.692308;0.4596154229166669;81;0.9921875;violin
4.1538465;0.11346154791666674;64;0.75;violin
4.1538465;0.11346154791666674;76;0.75;violin
4.38461575;0.11346154791666674;62;0.75;violin
4.38461575;0.11346154791666674;74;0.75;violin
4.615385;0.11346154791666674;60;0.75;violin
4.615385;0.11346154791666674;72;0.75;violin
4.84615425;0.11346154791666674;59;0.75;violin
4.84615425;0.11346154791666674;71;0.75;violin
5.0769235;0.45961542291666646;57;0.75;violin
5.0769235;0.45961542291666646;69;0.75;violin
5.538462;0.22884617291666665;69;0.75;violin
5.538462;0.22884617291666665;81;0.75;violin
6.0000005;0.22884617291666665;71;0.75;violin
6.0000005;0.22884617291666665;83;0.75;violin
6.461539;0.34423079791666655;72;0.75;violin
6.461539;0.34423079791666655;84;0.75;violin
7.15384675;0.11346154791666674;74;0.75;violin
7.15384675;0.11346154791666674;86;0.75;violin
7.384616;0.22884617291666665;76;0.75;violin
7.384616;0.22884617291666665;88;0.75;violin
7.8461545;0.34423079791666655;77;0.75;violin
7.8461545;0.34423079791666655;89;0.75;violin
8.53846225;0.11346154791666585;79;0.75;violin
8.53846225;0.11346154791666585;91;0.75;violin
8.7692315;0.22884617291666665;81;0.75;violin
8.7692315;0.22884617291666665;93;0.75;violin
9.23077;1.8442309229166671;55;0.75;violin
9.23077;1.8442309229166671;67;0.75;violin
11.076924;0.45961542291666646;56;0.3828125;violin
11.076924;0.45961542291666646;68;0.3828125;violin
11.5384625;0.45961542291666646;62;0.3828125;violin
11.5384625;0.45961542291666646;74;0.3828125;violin
12.000001;0.690384672916668;60;0.3828125;violin
12.000001;0.690384672916668;72;0.3828125;violin
12.69230875;0.22884617291666665;59;0.3828125;violin
12.69230875;0.22884617291666665;71;0.3828125;violin
12.923078;0.45961542291666646;57;0.3828125;violin
12.923078;0.45961542291666646;69;0.3828125;violin
13.3846165;0.45961542291666646;56;0.3828125;violin
13.3846165;0.45961542291666646;68;0.3828125;violin
13.846155;0.45961542291666646;68;0.3828125;violin
13.846155;0.45961542291666646;80;0.3828125;violin
14.3076935;0.45961542291666824;74;0.3828125;violin
14.3076935;0.45961542291666824;86;0.3828125;violin
14.769232;0.34423079791666567;72;0.3828125;violin
14.769232;0.34423079791666567;84;0.3828125;violin
15.46153975;0.11346154791666585;71;0.3828125;violin
15.46153975;0.11346154791666585;83;0.3828125;violin
15.692309;0.45961542291666824;69;0.3828125;violin
15.692309;0.45961542291666824;81;0.3828125;violin
16.1538475;0.45961542291666646;68;0.3828125;violin
16.1538475;0.45961542291666646;80;0.3828125;violin
16.615386;0.22884617291666487;67;0.2578125;violin
16.615386;0.22884617291666487;79;0.2578125;violin
17.0769245;0.22884617291666487;65;0.2578125;violin
17.0769245;0.22884617291666487;77;0.2578125;violin
17.538463;0.690384672916668;64;0.2578125;violin
17.538463;0.690384672916668;76;0.2578125;violin
18.23077075;0.22884617291666487;71;0.2578125;violin
18.23077075;0.22884617291666487;83;0.2578125;violin
18.46154;0.45961542291666646;67;0.2578125;violin
18.46154;0.45961542291666646;79;0.2578125;violin
18.9230785;0.690384672916668;64;0.2578125;violin
18.9230785;0.690384672916668;76;0.2578125;violin
19.61538625;0.22884617291666487;66;0.2578125;violin
19.61538625;0.22884617291666487;78;0.2578125;violin
19.8461555;0.45961542291667;63;0.2578125;violin
19.8461555;0.45961542291667;75;0.2578125;violin
20.307694;1.3826924229166657;64;0.2578125;violin
20.307694;1.3826924229166657;76;0.2578125;violin
22.153848;0.45961542291666646;76;0.75;violin
22.153848;0.45961542291666646;88;0.75;violin
22.6153865;0.45961542291666646;76;0.75;violin
22.6153865;0.45961542291666646;88;0.75;violin
23.076925;0.690384672916668;84;0.75;violin
23.076925;0.690384672916668;96;0.75;violin
23.76923275;0.22884617291666487;83;0.75;violin
23.76923275;0.22884617291666487;95;0.75;violin
24.000002;0.45961542291666646;81;0.75;violin
24.000002;0.45961542291666646;93;0.75;violin
24.461540499999998;0.9211539229166696;80;0.75;violin
24.461540499999998;0.9211539229166696;92;0.75;violin
25.3846175;0.45961542291666646;83;0.75;violin
25.3846175;0.45961542291666646;95;0.75;violin
25.846156;0.45961542291666646;81;0.75;violin
25.846156;0.45961542291666646;93;0.75;violin
26.3076945;0.11346154791666763;76;0.75;violin
26.3076945;0.11346154791666763;88;0.75;violin
26.53846375;0.11346154791666763;74;0.75;violin
26.53846375;0.11346154791666763;86;0.75;violin
26.769233;0.11346154791666763;72;0.75;violin
26.769233;0.11346154791666763;84;0.75;violin
27.00000225;0.11346154791666407;71;0.75;violin
27.00000225;0.11346154791666407;83;0.75;violin
27.2307715;0.45961542291666646;69;0.75;violin
27.2307715;0.45961542291666646;81;0.75;violin
27.69231;0.45961542291666646;81;0.75;violin
27.69231;0.45961542291666646;93;0.75;violin
28.1538485;0.45961542291666646;83;0.75;violin
28.1538485;0.45961542291666646;95;0.75;violin
28.615387;0.690384672916668;84;0.75;violin
28.615387;0.690384672916668;96;0.75;violin
29.30769475;0.22884617291666842;86;0.75;violin
29.30769475;0.22884617291666842;98;0.75;violin
29.538464;0.45961542291666646;88;0.75;violin
29.538464;0.45961542291666646;100;0.75;violin
30.0000025;0.6903846729166645;88;0.75;violin
30.0000025;0.6903846729166645;100;0.75;violin
30.69231025;0.22884617291666842;89;0.75;violin
30.69231025;0.22884617291666842;101;0.75;violin
30.9230795;0.45961542291666646;91;0.75;violin
30.9230795;0.45961542291666646;103;0.75;violin
31.384618;1.844230922916669;61;0.75;violin
31.384618;1.844230922916669;73;0.75;violin
33.230772;0.4596154229166629;82;0.75;violin
33.230772;0.4596154229166629;94;0.75;violin
33.6923105;0.45961542291667;81;0.75;violin
33.6923105;0.45961542291667;93;0.75;violin
34.153849;0.4596154229166629;77;0.75;violin
34.153849;0.4596154229166629;89;0.75;violin
34.6153875;0.22884617291666842;62;0.75;violin
34.6153875;0.22884617291666842;77;0.75;violin
35.076926;0.22884617291666842;60;0.75;violin
35.076926;0.22884617291666842;76;0.75;violin
35.538464499999996;0.22884617291666842;59;0.75;violin
35.538464499999996;0.22884617291666842;74;0.75;violin
36.000003;0.45961542291667;80;0.75;violin
36.000003;0.45961542291667;92;0.75;violin
36.4615415;0.4596154229166629;79;0.75;violin
36.4615415;0.4596154229166629;91;0.75;violin
36.92308;0.45961542291667;76;0.75;violin
36.92308;0.45961542291667;88;0.75;violin
37.3846185;0.22884617291666132;60;0.75;violin
37.3846185;0.22884617291666132;76;0.75;violin
37.846157;0.22884617291666842;59;0.75;violin
37.846157;0.22884617291666842;74;0.75;violin
38.3076955;0.22884617291666842;57;0.75;violin
38.3076955;0.22884617291666842;72;0.75;violin
38.769234;0.45961542291667;57;0.75;violin
38.769234;0.45961542291667;66;0.75;violin
39.2307725;0.4596154229166629;78;0.75;violin
39.2307725;0.4596154229166629;86;0.75;violin
39.692311;0.45961542291667;55;0.75;violin
39.692311;0.45961542291667;62;0.75;violin
39.692311;0.45961542291667;71;0.75;violin
39.692311;0.45961542291667;79;0.75;violin
40.1538495;0.45961542291667;57;0.75;violin
40.1538495;0.45961542291667;66;0.75;violin
40.615388;0.4596154229166629;78;0.75;violin
40.615388;0.4596154229166629;86;0.75;violin
41.0769265;0.45961542291667;55;0.75;violin
41.0769265;0.45961542291667;62;0.75;violin
41.0769265;0.45961542291667;71;0.75;violin
41.0769265;0.45961542291667;79;0.75;violin
41.538465;0.4596154229166629;57;0.75;violin
41.538465;0.4596154229166629;66;0.75;violin
42.0000035;0.45961542291667;78;0.75;violin
42.0000035;0.45961542291667;86;0.75;violin
42.461542;1.3826924229166622;55;0.75;violin
42.461542;1.3826924229166622;62;0.75;violin
42.461542;1.3826924229166622;71;0.75;violin
42.461542;1.3826924229166622;79;0.75;violin
44.07692675;0.055769235416669005;77;0.75;violin
44.192311375;0.0557692354166619;76;0.75;violin
44.307696;0.055769235416669005;74;0.75;violin
44.423080625;0.055769235416669005;72;0.75;violin
44.53846525;0.0557692354166619;71;0.75;violin
44.653849875;0.055769235416669005;69;0.75;violin
44.7692345;0.0557692354166619;67;0.75;violin
44.884619125;0.055769235416669005;65;0.75;violin
45.00000375;0.055769235416669005;64;0.75;violin
45.115388375;0.0557692354166619;62;0.75;violin
45.230773;0.22884617291666842;60;0.9921875;violin
45.46154225;0.055769235416669005;64;0.75;violin
45.576926875;0.055769235416669005;60;0.75;violin
45.6923115;0.0557692354166619;67;0.75;violin
45.807696125;0.055769235416669005;64;0.75;violin
45.92308075;0.055769235416669005;72;0.75;violin
46.038465375;0.0557692354166619;67;0.75;violin
46.15385;0.055769235416669005;76;0.75;violin
46.269234625;0.0557692354166619;72;0.75;violin
46.38461925;0.055769235416669005;79;0.75;violin
46.500003875;0.055769235416669005;76;0.75;violin
46.6153885;0.0557692354166619;84;0.75;violin
46.730773125;0.055769235416669005;79;0.75;violin
46.84615775;0.0557692354166619;88;0.75;violin
46.961542375;0.055769235416669005;84;0.75;violin
47.076927;0.055769235416669005;91;0.75;violin
47.192311625;0.0557692354166619;88;0.75;violin
47.30769625;0.055769235416669005;96;0.75;violin
47.423080875;0.055769235416669005;91;0.75;violin
47.5384655;0.055769235416669005;100;0.75;violin
47.653850125;0.055769235416669005;96;0.75;violin
47.76923475;0.0557692354166619;103;0.75;violin
47.884619375;0.055769235416669005;100;0.75;violin
48.000004;0.22884617291666842;108;0.75;violin
48.23077325;0.11346154791667118;72;0.75;violin
48.23077325;0.11346154791667118;84;0.75;violin
48.4615425;0.11346154791666407;71;0.75;violin
48.4615425;0.11346154791666407;83;0.75;violin
48.69231175;0.11346154791666407;70;0.75;violin
48.69231175;0.11346154791666407;82;0.75;violin
48.923080999999996;0.11346154791667118;69;0.75;violin
48.923080999999996;0.11346154791667118;81;0.75;violin
49.15385025;0.11346154791667118;68;0.75;violin
49.15385025;0.11346154791667118;80;0.75;violin
49.3846195;0.11346154791666407;67;0.75;violin
49.3846195;0.11346154791666407;79;0.75;violin
49.61538875;0.0557692354166619;76;0.75;violin
49.730773375;0.055769235416669005;74;0.75;violin
49.846158;0.0557692354166619;72;0.75;violin
49.961542625;0.055769235416669005;71;0.75;violin
50.07692725;0.055769235416669005;69;0.75;violin
50.192311875;0.0557692354166619;67;0.75;violin
50.3076965;0.055769235416669005;65;0.75;violin
50.423081125;0.0557692354166619;64;0.75;violin
50.53846575;0.055769235416669005;62;0.75;violin
50.653850375;0.055769235416669005;60;0.75;violin
50.769235;0.22884617291666132;59;0.9921875;violin
51.000004249999996;0.055769235416669005;62;0.75;violin
51.115388875;0.055769235416669005;59;0.75;violin
51.2307735;0.055769235416669005;67;0.75;violin
51.346158125;0.0557692354166619;62;0.75;violin
51.46154275;0.055769235416669005;71;0.75;violin
51.576927375;0.055769235416669005;67;0.75;violin
51.692312;0.0557692354166619;74;0.75;violin
51.807696625;0.055769235416669005;71;0.75;violin
51.92308125;0.0557692354166619;79;0.75;violin
52.038465875;0.055769235416669005;74;0.75;violin
52.1538505;0.055769235416669005;83;0.75;violin
52.269235125;0.0557692354166619;79;0.75;violin
52.38461975;0.055769235416669005;86;0.75;violin
52.500004375;0.0557692354166619;83;0.75;violin
52.615389;0.055769235416669005;91;0.75;violin
52.730773625;0.055769235416669005;86;0.75;violin
52.84615825;0.0557692354166619;95;0.75;violin
52.961542875;0.055769235416669005;91;0.75;violin
53.0769275;0.055769235416669005;98;0.75;violin
53.192312125;0.055769235416669005;95;0.75;violin
53.30769675;0.055769235416669005;103;0.75;violin
53.423081375;0.0557692354166619;98;0.75;violin
53.538466;0.22884617291666842;107;0.75;violin
53.76923525;0.11346154791666407;74;0.75;violin
53.76923525;0.11346154791666407;86;0.75;violin
54.0000045;0.11346154791666407;71;0.75;violin
54.0000045;0.11346154791666407;83;0.75;violin
54.23077375;0.11346154791667118;70;0.75;violin
54.23077375;0.11346154791667118;82;0.75;violin
54.461543;0.11346154791666407;69;0.75;violin
54.461543;0.11346154791666407;81;0.75;violin
54.69231225;0.11346154791666407;68;0.75;violin
54.69231225;0.11346154791666407;80;0.75;violin
54.9230815;0.11346154791666407;67;0.75;violin
54.9230815;0.11346154791666407;79;0.75;violin
55.15385075;0.055769235416669005;77;0.75;violin
55.269235375;0.0557692354166619;76;0.75;violin
55.38462;0.055769235416669005;74;0.75;violin
55.500004625;0.0557692354166619;72;0.75;violin
55.61538925;0.055769235416669005;71;0.75;violin
55.730773875;0.055769235416669005;69;0.75;violin
55.8461585;0.0557692354166619;67;0.75;violin
55.961543125;0.055769235416669005;65;0.75;violin
56.07692775;0.0557692354166619;64;0.75;violin
56.192312375;0.055769235416669005;62;0.75;violin
56.307697;0.22884617291666842;60;0.75;violin
56.53846625;0.055769235416669005;82;0.75;violin
56.653850874999996;0.055769235416669005;81;0.75;violin
56.7692355;0.055769235416669005;79;0.75;violin
56.884620125;0.055769235416669005;77;0.75;violin
57.00000475;0.0557692354166619;76;0.75;violin
57.115389375;0.055769235416669005;74;0.75;violin
57.230774;0.055769235416669005;72;0.75;violin
57.346158625;0.0557692354166619;70;0.75;violin
57.46154325;0.055769235416669005;69;0.75;violin
57.576927875;0.0557692354166619;67;0.75;violin
57.6923125;0.22884617291666842;65;0.75;violin
57.92308175;0.0557692354166619;77;0.75;violin
58.038466375;0.055769235416669005;79;0.75;violin
58.153851;0.0557692354166619;81;0.75;violin
58.269235625;0.055769235416669005;82;0.75;violin
58.38462025;0.055769235416669005;84;0.75;violin
58.500004875;0.0557692354166619;86;0.75;violin
58.6153895;0.055769235416669005;88;0.75;violin
58.730774124999996;0.055769235416669005;89;0.75;violin
58.84615875;0.055769235416669005;91;0.75;violin
58.961543375;0.055769235416669005;93;0.75;violin
59.076928;0.22884617291666132;57;0.75;violin
59.30769725;0.055769235416669005;79;0.75;violin
59.423081875;0.0557692354166619;77;0.75;violin
59.5384665;0.055769235416669005;76;0.75;violin
59.653851125;0.0557692354166619;74;0.75;violin
59.76923575;0.055769235416669005;73;0.75;violin
59.884620375;0.055769235416669005;70;0.75;violin
60.000005;0.0557692354166619;69;0.75;violin
60.115389625;0.055769235416669005;67;0.75;violin
60.23077425;0.0557692354166619;65;0.75;violin
60.346158875;0.055769235416669005;64;0.75;violin
60.4615435;0.22884617291666842;62;0.75;violin
60.69231275;0.055769235416669005;74;0.75;violin
60.807697375;0.055769235416669005;76;0.75;violin
60.923082;0.055769235416669005;77;0.75;violin
61.038466625;0.055769235416669005;79;0.75;violin
61.15385125;0.0557692354166619;81;0.75;violin
61.269235875;0.055769235416669005;83;0.75;violin
61.3846205;0.055769235416669005;85;0.75;violin
61.500005125;0.0557692354166619;86;0.75;violin
61.61538975;0.055769235416669005;88;0.75;violin
61.730774375;0.0557692354166619;89;0.75;violin
61.846159;0.22884617291666842;55;0.75;violin
62.07692825;0.0557692354166619;77;0.75;violin
62.192312875;0.055769235416669005;76;0.75;violin
62.307697499999996;0.055769235416669005;74;0.75;violin
62.423082125;0.055769235416669005;72;0.75;violin
62.53846675;0.055769235416669005;71;0.75;violin
62.653851375;0.0557692354166619;69;0.75;violin
62.769236;0.055769235416669005;67;0.75;violin
62.884620625;0.055769235416669005;65;0.75;violin
63.00000525;0.0557692354166619;64;0.75;violin
63.115389875;0.055769235416669005;62;0.75;violin
63.2307745;0.22884617291666132;60;0.75;violin
63.46154375;0.055769235416669005;72;0.75;violin
63.576928375;0.0557692354166619;74;0.75;violin
63.692313;0.055769235416669005;75;0.75;violin
63.807697625;0.0557692354166619;77;0.75;violin
63.92308225;0.055769235416669005;79;0.75;violin
64.038466875;0.0557692354166619;81;0.75;violin
64.1538515;0.0557692354166619;83;0.75;violin
64.269236125;0.0557692354166619;84;0.75;violin
64.38462075;0.05576923541667611;86;0.75;violin
64.500005375;0.0557692354166619;87;0.75;violin
64.61539;1.3826924229166622;56;0.75;violin
64.61539;1.3826924229166622;63;0.75;violin
64.61539;0.6903846729166645;72;0.75;violin
65.30769775;0.22884617291666132;74;0.75;violin
65.538467;0.45961542291667;75;0.75;violin
66.0000055;0.22884617291666132;55;0.75;violin
66.0000055;0.22884617291666132;63;0.75;violin
66.0000055;0.22884617291666132;73;0.75;violin
66.23077475;0.05576923541667611;75;0.75;violin
66.346159375;0.0557692354166619;77;0.75;violin
66.461544;0.0557692354166619;79;0.75;violin
66.576928625;0.05576923541667611;81;0.75;violin
66.69231325;0.0557692354166619;82;0.75;violin
66.807697875;0.0557692354166619;83;0.75;violin
66.9230825;0.0557692354166619;84;0.75;violin
67.038467125;0.05576923541667611;85;0.75;violin
67.15385175;0.0557692354166619;86;0.75;violin
67.269236375;0.0557692354166619;87;0.75;violin
67.384621;1.3826924229166764;56;0.75;violin
67.384621;1.3826924229166764;63;0.75;violin
67.384621;0.6903846729166645;72;0.75;violin
68.07692875;0.22884617291667553;74;0.75;violin
68.307698;0.45961542291667;75;0.75;violin
68.7692365;0.22884617291666132;55;0.75;violin
68.7692365;0.22884617291666132;63;0.75;violin
68.7692365;0.22884617291666132;73;0.75;violin
69.00000575;0.0557692354166619;75;0.75;violin
69.115390375;0.0557692354166619;77;0.75;violin
69.230775;0.05576923541667611;79;0.75;violin
69.346159625;0.0557692354166619;81;0.75;violin
69.46154425;0.0557692354166619;82;0.75;violin
69.576928875;0.05576923541667611;83;0.75;violin
69.6923135;0.0557692354166619;84;0.75;violin
69.807698125;0.0557692354166619;85;0.75;violin
69.92308275;0.0557692354166619;86;0.75;violin
70.038467375;0.05576923541667611;87;0.75;violin
70.153852;1.3826924229166622;56;0.75;violin
70.153852;1.3826924229166622;63;0.75;violin
70.153852;0.6903846729166645;72;0.75;violin
70.84615975;0.22884617291666132;74;0.75;violin
71.07692899999999;0.45961542291667;75;0.75;violin
71.5384675;1.3826924229166764;56;0.75;violin
71.5384675;1.3826924229166764;66;0.75;violin
71.5384675;0.6903846729166645;72;0.75;violin
72.23077525;0.22884617291667553;74;0.75;violin
72.4615445;0.45961542291667;75;0.75;violin
72.923083;0.22884617291666132;55;0.75;violin
72.923083;0.22884617291666132;65;0.75;violin
72.923083;0.22884617291666132;74;0.75;violin
73.15385225;0.0557692354166619;83;0.75;violin
73.269236875;0.0557692354166619;81;0.75;violin
73.3846215;0.05576923541667611;79;0.75;violin
73.500006125;0.0557692354166619;77;0.75;violin
73.61539075;0.0557692354166619;76;0.75;violin
73.730775375;0.05576923541667611;74;0.75;violin
73.84616;0.0557692354166619;72;0.75;violin
73.961544625;0.0557692354166619;71;0.75;violin
74.07692925;0.0557692354166619;69;0.75;violin
74.192313875;0.05576923541667611;67;0.75;violin
74.3076985;0.22884617291666132;57;0.75;violin
74.3076985;0.22884617291666132;64;0.75;violin
74.3076985;0.22884617291666132;72;0.75;violin
74.53846775;0.05576923541667611;84;0.75;violin
74.653852375;0.0557692354166619;83;0.75;violin
74.769237;0.0557692354166619;81;0.75;violin
74.884621625;0.05576923541667611;79;0.75;violin
75.00000625;0.0557692354166619;77;0.75;violin
75.115390875;0.0557692354166619;76;0.75;violin
75.2307755;0.05576923541667611;74;0.75;violin
75.346160125;0.0557692354166619;72;0.75;violin
75.46154475;0.0557692354166619;71;0.75;violin
75.576929375;0.0557692354166619;69;0.75;violin
75.692314;0.6903846729166645;60;0.75;violin
75.692314;0.6903846729166645;65;0.75;violin
75.692314;0.6903846729166645;69;0.75;violin
76.38462175;0.11346154791667118;57;0.75;violin
76.38462175;0.11346154791667118;65;0.75;violin
76.38462175;0.11346154791667118;77;0.75;violin
76.615391;0.22884617291666132;56;0.75;violin
76.615391;0.22884617291666132;65;0.75;violin
76.615391;0.22884617291666132;74;0.75;violin
77.0769295;0.6903846729166645;55;0.75;violin
77.0769295;0.6903846729166645;64;0.75;violin
77.0769295;0.6903846729166645;72;0.75;violin
77.76923725;0.11346154791665697;55;0.75;violin
77.76923725;0.11346154791665697;65;0.75;violin
77.76923725;0.11346154791665697;74;0.75;violin
78.0000065;0.22884617291666132;55;0.75;violin
78.0000065;0.22884617291666132;62;0.75;violin
78.0000065;0.22884617291666132;71;0.75;violin
78.461545;0.45961542291667;60;0.75;violin
78.9230835;0.4596154229166558;72;0.75;violin
78.9230835;0.4596154229166558;84;0.75;violin
79.384622;0.45961542291667;74;0.75;violin
79.384622;0.45961542291667;86;0.75;violin
79.8461605;0.6903846729166645;76;0.75;violin
79.8461605;0.6903846729166645;88;0.75;violin
80.53846825;0.22884617291667553;77;0.75;violin
80.53846825;0.22884617291667553;89;0.75;violin
80.7692375;0.45961542291667;79;0.75;violin
80.7692375;0.45961542291667;91;0.75;violin
81.230776;0.6903846729166645;56;0.75;violin
81.230776;0.6903846729166645;65;0.75;violin
81.230776;0.6903846729166645;71;0.75;violin
81.92308375;0.22884617291666132;62;0.75;violin
81.92308375;0.22884617291666132;65;0.75;violin
81.92308375;0.22884617291666132;71;0.75;violin
82.153853;0.22884617291666132;55;0.75;violin
82.38462224999999;0.05576923541667611;83;0.75;violin
82.500006875;0.05576923541667611;81;0.75;violin
82.6153915;0.0557692354166619;79;0.75;violin
82.730776125;0.0557692354166619;77;0.75;violin
82.84616075;0.05576923541667611;76;0.75;violin
82.961545375;0.0557692354166619;74;0.75;violin
83.07693;0.0557692354166619;72;0.75;violin
83.192314625;0.05576923541667611;71;0.75;violin
83.30769925;0.0557692354166619;69;0.75;violin
83.423083875;0.0557692354166619;67;0.75;violin
83.5384685;0.05576923541667611;65;0.75;violin
83.653853125;0.0557692354166619;64;0.75;violin
83.76923775;0.03653846458333021;67;0.75;violin
83.84616083333333;0.03653846458334442;65;0.75;violin
83.92308391666667;0.03653846458333021;62;0.75;violin
84.000007;0.45961542291667;60;0.75;violin
84.000007;0.45961542291667;64;0.75;violin
84.000007;0.45961542291667;72;0.75;violin
85.846161;0.45961542291667;64;0.9921875;violin
85.846161;0.45961542291667;76;0.9921875;violin
86.3076995;0.45961542291667;64;0.9921875;violin
86.3076995;0.45961542291667;76;0.9921875;violin
86.769238;0.6903846729166645;72;0.9921875;violin
86.769238;0.6903846729166645;84;0.9921875;violin
87.46154575;0.22884617291666132;71;0.9921875;violin
87.46154575;0.22884617291666132;83;0.9921875;violin
87.692315;0.45961542291667;69;0.9921875;violin
87.692315;0.45961542291667;81;0.9921875;violin
88.1538535;0.9211539229166732;68;0.9921875;violin
88.1538535;0.9211539229166732;80;0.9921875;violin
89.0769305;0.45961542291667;71;0.9921875;violin
89.0769305;0.45961542291667;83;0.9921875;violin
89.538469;0.4596154229166558;69;0.9921875;violin
89.538469;0.4596154229166558;81;0.9921875;violin
90.0000075;0.11346154791667118;64;0.75;violin
90.0000075;0.11346154791667118;76;0.75;violin
90.23077675;0.11346154791665697;62;0.75;violin
90.23077675;0.11346154791665697;74;0.75;violin
90.461546;0.11346154791667118;60;0.75;violin
90.461546;0.11346154791667118;72;0.75;violin
90.69231525;0.11346154791667118;59;0.75;violin
90.69231525;0.11346154791667118;71;0.75;violin
90.9230845;0.45961542291667;57;0.75;violin
90.9230845;0.45961542291667;69;0.75;violin
91.384623;0.22884617291666132;69;0.75;violin
91.384623;0.22884617291666132;81;0.75;violin
91.8461615;0.22884617291667553;71;0.75;violin
91.8461615;0.22884617291667553;83;0.75;violin
92.3077;0.34423079791666567;72;0.75;violin
92.3077;0.34423079791666567;84;0.75;violin
93.00000775;0.11346154791667118;74;0.75;violin
93.00000775;0.11346154791667118;86;0.75;violin
93.230777;0.22884617291666132;76;0.75;violin
93.230777;0.22884617291666132;88;0.75;violin
93.6923155;0.34423079791666567;77;0.75;violin
93.6923155;0.34423079791666567;89;0.75;violin
94.38462325;0.11346154791665697;79;0.75;violin
94.38462325;0.11346154791665697;91;0.75;violin
94.6153925;0.22884617291666132;81;0.75;violin
94.6153925;0.22884617291666132;93;0.75;violin
95.076931;1.8442309229166653;55;0.75;violin
95.076931;1.8442309229166653;67;0.75;violin
96.923085;0.45961542291667;56;0.3828125;violin
96.923085;0.45961542291667;68;0.3828125;violin
97.3846235;0.4596154229166558;62;0.3828125;violin
97.3846235;0.4596154229166558;74;0.3828125;violin
97.84616199999999;0.6903846729166787;60;0.3828125;violin
97.84616199999999;0.6903846729166787;72;0.3828125;violin
98.53846975;0.22884617291666132;59;0.3828125;violin
98.53846975;0.22884617291666132;71;0.3828125;violin
98.769239;0.45961542291667;57;0.3828125;violin
98.769239;0.45961542291667;69;0.3828125;violin
99.2307775;0.45961542291667;56;0.3828125;violin
99.2307775;0.45961542291667;68;0.3828125;violin
99.692316;0.4596154229166558;68;0.3828125;violin
99.692316;0.4596154229166558;80;0.3828125;violin
100.1538545;0.45961542291667;74;0.3828125;violin
100.1538545;0.45961542291667;86;0.3828125;violin
100.615393;0.34423079791666567;72;0.3828125;violin
100.615393;0.34423079791666567;84;0.3828125;violin
101.30770075;0.11346154791667118;71;0.3828125;violin
101.30770075;0.11346154791667118;83;0.3828125;violin
101.53847;0.4596154229166558;69;0.3828125;violin
101.53847;0.4596154229166558;81;0.3828125;violin
102.00000849999999;0.45961542291667;68;0.3828125;violin
102.00000849999999;0.45961542291667;80;0.3828125;violin
102.461547;0.22884617291667553;67;0.2578125;violin
102.461547;0.22884617291667553;79;0.2578125;violin
102.9230855;0.22884617291666132;65;0.2578125;violin
102.9230855;0.22884617291666132;77;0.2578125;violin
103.384624;0.6903846729166645;64;0.2578125;violin
103.384624;0.6903846729166645;76;0.2578125;violin
104.07693175;0.22884617291666132;71;0.2578125;violin
104.07693175;0.22884617291666132;83;0.2578125;violin
104.307701;0.45961542291667;67;0.2578125;violin
104.307701;0.45961542291667;79;0.2578125;violin
104.7692395;0.6903846729166645;64;0.2578125;violin
104.7692395;0.6903846729166645;76;0.2578125;violin
105.46154725;0.22884617291667553;66;0.2578125;violin
105.46154725;0.22884617291667553;78;0.2578125;violin
105.6923165;0.4596154229166558;63;0.2578125;violin
105.6923165;0.4596154229166558;75;0.2578125;violin
106.153855;1.3826924229166764;64;0.2578125;violin
106.153855;1.3826924229166764;76;0.2578125;violin
108.000009;0.4596154229166558;76;0.75;violin
108.000009;0.4596154229166558;88;0.75;violin
108.4615475;0.45961542291667;76;0.75;violin
108.4615475;0.45961542291667;88;0.75;violin
108.923086;0.6903846729166645;84;0.75;violin
108.923086;0.6903846729166645;96;0.75;violin
109.61539375;0.22884617291667553;83;0.75;violin
109.61539375;0.22884617291667553;95;0.75;violin
109.846163;0.4596154229166558;81;0.75;violin
109.846163;0.4596154229166558;93;0.75;violin
110.3077015;0.9211539229166732;80;0.75;violin
110.3077015;0.9211539229166732;92;0.75;violin
111.2307785;0.45961542291667;83;0.75;violin
111.2307785;0.45961542291667;95;0.75;violin
111.692317;0.45961542291667;81;0.75;violin
111.692317;0.45961542291667;93;0.75;violin
112.1538555;0.11346154791665697;76;0.75;violin
112.1538555;0.11346154791665697;88;0.75;violin
112.38462475;0.11346154791667118;74;0.75;violin
112.38462475;0.11346154791667118;86;0.75;violin
112.615394;0.11346154791667118;72;0.75;violin
112.615394;0.11346154791667118;84;0.75;violin
112.84616325;0.11346154791665697;71;0.75;violin
112.84616325;0.11346154791665697;83;0.75;violin
113.0769325;0.45961542291667;69;0.75;violin
113.0769325;0.45961542291667;81;0.75;violin
113.538471;0.45961542291667;81;0.75;violin
113.538471;0.45961542291667;93;0.75;violin
114.0000095;0.4596154229166558;83;0.75;violin
114.0000095;0.4596154229166558;95;0.75;violin
114.461548;0.6903846729166787;84;0.75;violin
114.461548;0.6903846729166787;96;0.75;violin
115.15385575;0.22884617291666132;86;0.75;violin
115.15385575;0.22884617291666132;98;0.75;violin
115.384625;0.45961542291667;88;0.75;violin
115.384625;0.45961542291667;100;0.75;violin
115.8461635;0.6903846729166645;88;0.75;violin
115.8461635;0.6903846729166645;100;0.75;violin
116.53847125;0.22884617291666132;89;0.75;violin
116.53847125;0.22884617291666132;101;0.75;violin
116.7692405;0.45961542291667;91;0.75;violin
116.7692405;0.45961542291667;103;0.75;violin
117.230779;1.8442309229166653;61;0.75;violin
117.230779;1.8442309229166653;73;0.75;violin
119.076933;0.45961542291667;82;0.75;violin
119.076933;0.45961542291667;94;0.75;violin
119.5384715;0.45961542291667;81;0.75;violin
119.5384715;0.45961542291667;93;0.75;violin
120.00001;0.4596154229166558;77;0.75;violin
120.00001;0.4596154229166558;89;0.75;violin
120.4615485;0.22884617291666132;62;0.75;violin
120.4615485;0.22884617291666132;77;0.75;violin
120.923087;0.22884617291667553;60;0.75;violin
120.923087;0.22884617291667553;76;0.75;violin
121.3846255;0.22884617291666132;59;0.75;violin
121.3846255;0.22884617291666132;74;0.75;violin
121.846164;0.45961542291667;80;0.75;violin
121.846164;0.45961542291667;92;0.75;violin
122.3077025;0.4596154229166558;79;0.75;violin
122.3077025;0.4596154229166558;91;0.75;violin
122.769241;0.45961542291667;76;0.75;violin
122.769241;0.45961542291667;88;0.75;violin
123.2307795;0.22884617291667553;60;0.75;violin
123.2307795;0.22884617291667553;76;0.75;violin
123.692318;0.22884617291666132;59;0.75;violin
123.692318;0.22884617291666132;74;0.75;violin
124.1538565;0.22884617291666132;57;0.75;violin
124.1538565;0.22884617291666132;72;0.75;violin
124.61539499999999;0.45961542291667;57;0.75;violin
124.61539499999999;0.45961542291667;66;0.75;violin
125.0769335;0.45961542291667;78;0.75;violin
125.0769335;0.45961542291667;86;0.75;violin
125.538472;0.45961542291667;55;0.75;violin
125.538472;0.45961542291667;62;0.75;violin
125.538472;0.45961542291667;71;0.75;violin
125.538472;0.45961542291667;79;0.75;violin
126.0000105;0.45961542291667;57;0.75;violin
126.0000105;0.45961542291667;66;0.75;violin
126.461549;0.4596154229166558;78;0.75;violin
126.461549;0.4596154229166558;86;0.75;violin
126.9230875;0.45961542291667;55;0.75;violin
126.9230875;0.45961542291667;62;0.75;violin
126.9230875;0.45961542291667;71;0.75;violin
126.9230875;0.45961542291667;79;0.75;violin
127.384626;0.45961542291667;57;0.75;violin
127.384626;0.45961542291667;66;0.75;violin
127.8461645;0.4596154229166558;78;0.75;violin
127.8461645;0.4596154229166558;86;0.75;violin
128.307703;1.3826924229166764;55;0.75;violin
128.307703;1.3826924229166764;62;0.75;violin
128.307703;1.3826924229166764;71;0.75;violin
128.307703;1.3826924229166764;79;0.75;violin
129.92308775;0.05576923541664769;77;0.75;violin
130.038472375;0.05576923541667611;76;0.75;violin
130.153857;0.05576923541667611;74;0.75;violin
130.269241625;0.05576923541664769;72;0.75;violin
130.38462625;0.05576923541667611;71;0.75;violin
130.500010875;0.05576923541667611;69;0.75;violin
130.6153955;0.05576923541664769;67;0.75;violin
130.730780125;0.05576923541667611;65;0.75;violin
130.84616474999999;0.05576923541667611;64;0.75;violin
130.961549375;0.05576923541664769;62;0.75;violin
131.076934;0.22884617291666132;60;0.9921875;violin
131.30770325;0.05576923541667611;64;0.75;violin
131.423087875;0.05576923541667611;60;0.75;violin
131.5384725;0.05576923541664769;67;0.75;violin
131.653857125;0.05576923541667611;64;0.75;violin
131.76924175;0.05576923541667611;72;0.75;violin
131.884626375;0.05576923541664769;67;0.75;violin
132.000011;0.05576923541667611;76;0.75;violin
132.115395625;0.05576923541667611;72;0.75;violin
132.23078025;0.05576923541664769;79;0.75;violin
132.346164875;0.05576923541667611;76;0.75;violin
132.4615495;0.05576923541667611;84;0.75;violin
132.576934125;0.05576923541664769;79;0.75;violin
132.69231875;0.05576923541667611;88;0.75;violin
132.807703375;0.05576923541667611;84;0.75;violin
132.923088;0.05576923541664769;91;0.75;violin
133.038472625;0.05576923541667611;88;0.75;violin
133.15385725;0.05576923541667611;96;0.75;violin
133.269241875;0.05576923541664769;91;0.75;violin
133.3846265;0.05576923541667611;100;0.75;violin
133.500011125;0.05576923541667611;96;0.75;violin
133.61539575;0.05576923541664769;103;0.75;violin
133.730780375;0.05576923541667611;100;0.75;violin
133.846165;0.22884617291666132;108;0.75;violin
134.07693425;0.11346154791667118;72;0.75;violin
134.07693425;0.11346154791667118;84;0.75;violin
134.3077035;0.11346154791667118;71;0.75;violin
134.3077035;0.11346154791667118;83;0.75;violin
134.53847275;0.11346154791664276;70;0.75;violin
134.53847275;0.11346154791664276;82;0.75;violin
134.769242;0.11346154791667118;69;0.75;violin
134.769242;0.11346154791667118;81;0.75;violin
135.00001125;0.11346154791667118;68;0.75;violin
135.00001125;0.11346154791667118;80;0.75;violin
135.2307805;0.11346154791667118;67;0.75;violin
135.2307805;0.11346154791667118;79;0.75;violin
135.46154975;0.05576923541667611;76;0.75;violin
135.576934375;0.05576923541664769;74;0.75;violin
135.692319;0.05576923541667611;72;0.75;violin
135.807703625;0.05576923541667611;71;0.75;violin
135.92308825;0.05576923541664769;69;0.75;violin
136.038472875;0.05576923541667611;67;0.75;violin
136.1538575;0.05576923541667611;65;0.75;violin
136.269242125;0.05576923541664769;64;0.75;violin
136.38462675;0.05576923541667611;62;0.75;violin
136.50001137499999;0.05576923541667611;60;0.75;violin
136.615396;0.22884617291666132;59;0.9921875;violin
136.84616525;0.05576923541664769;62;0.75;violin
136.961549875;0.05576923541667611;59;0.75;violin
137.0769345;0.05576923541667611;67;0.75;violin
137.192319125;0.05576923541664769;62;0.75;violin
137.30770375;0.05576923541667611;71;0.75;violin
137.423088375;0.05576923541667611;67;0.75;violin
137.538473;0.05576923541664769;74;0.75;violin
137.653857625;0.05576923541667611;71;0.75;violin
137.76924225;0.05576923541667611;79;0.75;violin
137.884626875;0.05576923541664769;74;0.75;violin
138.0000115;0.05576923541667611;83;0.75;violin
138.115396125;0.05576923541667611;79;0.75;violin
138.23078075;0.05576923541664769;86;0.75;violin
138.346165375;0.05576923541667611;83;0.75;violin
138.46155;0.05576923541667611;91;0.75;violin
138.576934625;0.05576923541664769;86;0.75;violin
138.69231925;0.05576923541667611;95;0.75;violin
138.807703875;0.05576923541667611;91;0.75;violin
138.9230885;0.05576923541664769;98;0.75;violin
139.038473125;0.05576923541667611;95;0.75;violin
139.15385775;0.05576923541667611;103;0.75;violin
139.269242375;0.05576923541664769;98;0.75;violin
139.384627;0.22884617291666132;107;0.75;violin
139.61539625;0.11346154791667118;74;0.75;violin
139.61539625;0.11346154791667118;86;0.75;violin
139.8461655;0.11346154791664276;71;0.75;violin
139.8461655;0.11346154791664276;83;0.75;violin
140.07693475;0.11346154791667118;70;0.75;violin
140.07693475;0.11346154791667118;82;0.75;violin
140.307704;0.11346154791667118;69;0.75;violin
140.307704;0.11346154791667118;81;0.75;violin
140.53847325;0.11346154791664276;68;0.75;violin
140.53847325;0.11346154791664276;80;0.75;violin
140.7692425;0.11346154791667118;67;0.75;violin
140.7692425;0.11346154791667118;79;0.75;violin
141.00001175;0.05576923541667611;77;0.75;violin
141.115396375;0.05576923541667611;76;0.75;violin
141.230781;0.05576923541664769;74;0.75;violin
141.346165625;0.05576923541667611;72;0.75;violin
141.46155025;0.05576923541667611;71;0.75;violin
141.576934875;0.05576923541664769;69;0.75;violin
141.6923195;0.05576923541667611;67;0.75;violin
141.807704125;0.05576923541667611;65;0.75;violin
141.92308875;0.05576923541664769;64;0.75;violin
142.038473375;0.05576923541667611;62;0.75;violin
142.15385799999999;0.22884617291668974;60;0.75;violin
142.38462725;0.05576923541667611;82;0.75;violin
142.500011875;0.05576923541664769;81;0.75;violin
142.6153965;0.05576923541667611;79;0.75;violin
142.730781125;0.05576923541667611;77;0.75;violin
142.84616575;0.05576923541664769;76;0.75;violin
142.961550375;0.05576923541667611;74;0.75;violin
143.076935;0.05576923541667611;72;0.75;violin
143.192319625;0.05576923541664769;70;0.75;violin
143.30770425;0.05576923541667611;69;0.75;violin
143.423088875;0.05576923541667611;67;0.75;violin
143.5384735;0.22884617291666132;65;0.75;violin
143.76924275;0.05576923541667611;77;0.75;violin
143.884627375;0.05576923541664769;79;0.75;violin
144.000012;0.05576923541667611;81;0.75;violin
144.115396625;0.05576923541667611;82;0.75;violin
144.23078125;0.05576923541664769;84;0.75;violin
144.346165875;0.05576923541667611;86;0.75;violin
144.4615505;0.05576923541667611;88;0.75;violin
144.576935125;0.05576923541664769;89;0.75;violin
144.69231975;0.05576923541667611;91;0.75;violin
144.807704375;0.05576923541667611;93;0.75;violin
144.923089;0.22884617291666132;57;0.75;violin
145.15385825;0.05576923541664769;79;0.75;violin
145.269242875;0.05576923541667611;77;0.75;violin
145.3846275;0.05576923541667611;76;0.75;violin
145.500012125;0.05576923541664769;74;0.75;violin
145.61539675;0.05576923541667611;73;0.75;violin
145.730781375;0.05576923541667611;70;0.75;violin
145.846166;0.05576923541664769;69;0.75;violin
145.961550625;0.05576923541667611;67;0.75;violin
146.07693525;0.05576923541667611;65;0.75;violin
146.192319875;0.05576923541664769;64;0.75;violin
146.3077045;0.22884617291666132;62;0.75;violin
146.53847375;0.05576923541664769;74;0.75;violin
146.653858375;0.05576923541667611;76;0.75;violin
146.769243;0.05576923541667611;77;0.75;violin
146.884627625;0.05576923541664769;79;0.75;violin
147.00001225;0.05576923541667611;81;0.75;violin
147.115396875;0.05576923541667611;83;0.75;violin
147.2307815;0.05576923541664769;85;0.75;violin
147.346166125;0.05576923541667611;86;0.75;violin
147.46155075;0.05576923541667611;88;0.75;violin
147.576935375;0.05576923541664769;89;0.75;violin
147.69232;0.22884617291666132;55;0.75;violin
147.92308925;0.05576923541667611;77;0.75;violin
148.038473875;0.05576923541667611;76;0.75;violin
148.1538585;0.05576923541664769;74;0.75;violin
148.269243125;0.05576923541667611;72;0.75;violin
148.38462775;0.05576923541667611;71;0.75;violin
148.500012375;0.05576923541664769;69;0.75;violin
148.615397;0.05576923541667611;67;0.75;violin
148.730781625;0.05576923541667611;65;0.75;violin
148.84616625;0.05576923541664769;64;0.75;violin
148.961550875;0.05576923541667611;62;0.75;violin
149.0769355;0.22884617291666132;60;0.75;violin
149.30770475;0.05576923541667611;72;0.75;violin
149.423089375;0.05576923541667611;74;0.75;violin
149.538474;0.05576923541664769;75;0.75;violin
149.653858625;0.05576923541667611;77;0.75;violin
149.76924325;0.05576923541667611;79;0.75;violin
149.884627875;0.05576923541664769;81;0.75;violin
150.0000125;0.05576923541667611;83;0.75;violin
150.115397125;0.05576923541667611;84;0.75;violin
150.23078175;0.05576923541664769;86;0.75;violin
150.346166375;0.05576923541667611;87;0.75;violin
150.461551;1.3826924229166764;56;0.75;violin
150.461551;1.3826924229166764;63;0.75;violin
150.461551;0.6903846729166787;72;0.75;violin
151.15385875;0.22884617291666132;74;0.75;violin
151.384628;0.45961542291667;75;0.75;violin
151.8461665;0.22884617291666132;55;0.75;violin
151.8461665;0.22884617291666132;63;0.75;violin
151.8461665;0.22884617291666132;73;0.75;violin
152.07693575;0.05576923541667611;75;0.75;violin
152.192320375;0.05576923541664769;77;0.75;violin
152.307705;0.05576923541667611;79;0.75;violin
152.423089625;0.05576923541667611;81;0.75;violin
152.53847425;0.05576923541664769;82;0.75;violin
152.653858875;0.05576923541667611;83;0.75;violin
152.7692435;0.05576923541667611;84;0.75;violin
152.884628125;0.05576923541664769;85;0.75;violin
153.00001275;0.05576923541667611;86;0.75;violin
153.115397375;0.05576923541667611;87;0.75;violin
153.230782;1.382692422916648;56;0.75;violin
153.230782;1.382692422916648;63;0.75;violin
153.230782;0.6903846729166503;72;0.75;violin
153.92308975;0.22884617291666132;74;0.75;violin
154.153859;0.4596154229166416;75;0.75;violin
154.6153975;0.22884617291666132;55;0.75;violin
154.6153975;0.22884617291666132;63;0.75;violin
154.6153975;0.22884617291666132;73;0.75;violin
154.84616675;0.05576923541664769;75;0.75;violin
154.961551375;0.05576923541667611;77;0.75;violin
155.076936;0.05576923541667611;79;0.75;violin
155.192320625;0.05576923541664769;81;0.75;violin
155.30770525;0.05576923541667611;82;0.75;violin
155.423089875;0.05576923541667611;83;0.75;violin
155.5384745;0.05576923541664769;84;0.75;violin
155.653859125;0.05576923541667611;85;0.75;violin
155.76924375;0.05576923541667611;86;0.75;violin
155.884628375;0.05576923541664769;87;0.75;violin
156.000013;1.3826924229166764;56;0.75;violin
156.000013;1.3826924229166764;63;0.75;violin
156.000013;0.6903846729166787;72;0.75;violin
156.69232075;0.22884617291666132;74;0.75;violin
156.92309;0.45961542291667;75;0.75;violin
157.3846285;1.3826924229166764;56;0.75;violin
157.3846285;1.3826924229166764;66;0.75;violin
157.3846285;0.6903846729166787;72;0.75;violin
158.07693625;0.22884617291668974;74;0.75;violin
158.3077055;0.45961542291667;75;0.75;violin
158.769244;0.22884617291668974;55;0.75;violin
158.769244;0.22884617291668974;65;0.75;violin
158.769244;0.22884617291668974;74;0.75;violin
159.00001325;0.05576923541667611;83;0.75;violin
159.11539787499999;0.05576923541667611;81;0.75;violin
159.2307825;0.05576923541667611;79;0.75;violin
159.346167125;0.05576923541667611;77;0.75;violin
159.46155175;0.05576923541664769;76;0.75;violin
159.576936375;0.05576923541667611;74;0.75;violin
159.692321;0.05576923541667611;72;0.75;violin
159.807705625;0.05576923541664769;71;0.75;violin
159.92309025;0.05576923541667611;69;0.75;violin
160.038474875;0.05576923541667611;67;0.75;violin
160.1538595;0.22884617291666132;57;0.75;violin
160.1538595;0.22884617291666132;64;0.75;violin
160.1538595;0.22884617291666132;72;0.75;violin
160.38462875;0.05576923541667611;84;0.75;violin
160.500013375;0.05576923541664769;83;0.75;violin
160.615398;0.05576923541667611;81;0.75;violin
160.730782625;0.05576923541667611;79;0.75;violin
160.84616725;0.05576923541664769;77;0.75;violin
160.961551875;0.05576923541667611;76;0.75;violin
161.0769365;0.05576923541667611;74;0.75;violin
161.192321125;0.05576923541664769;72;0.75;violin
161.30770575;0.05576923541667611;71;0.75;violin
161.423090375;0.05576923541667611;69;0.75;violin
161.538475;0.6903846729166503;60;0.75;violin
161.538475;0.6903846729166503;65;0.75;violin
161.538475;0.6903846729166503;69;0.75;violin
162.23078275;0.11346154791667118;57;0.75;violin
162.23078275;0.11346154791667118;65;0.75;violin
162.23078275;0.11346154791667118;77;0.75;violin
162.461552;0.22884617291666132;56;0.75;violin
162.461552;0.22884617291666132;65;0.75;violin
162.461552;0.22884617291666132;74;0.75;violin
162.9230905;0.6903846729166787;55;0.75;violin
162.9230905;0.6903846729166787;64;0.75;violin
162.9230905;0.6903846729166787;72;0.75;violin
163.61539825;0.11346154791667118;55;0.75;violin
163.61539825;0.11346154791667118;65;0.75;violin
163.61539825;0.11346154791667118;74;0.75;violin
163.8461675;0.22884617291666132;55;0.75;violin
163.8461675;0.22884617291666132;62;0.75;violin
163.8461675;0.22884617291666132;71;0.75;violin
164.307706;0.45961542291667;60;0.75;violin
164.76924449999999;0.45961542291667;72;0.75;violin
164.76924449999999;0.45961542291667;84;0.75;violin
165.230783;0.45961542291667;74;0.75;violin
165.230783;0.45961542291667;86;0.75;violin
165.6923215;0.6903846729166787;76;0.75;violin
165.6923215;0.6903846729166787;88;0.75;violin
166.38462925;0.22884617291668974;77;0.75;violin
166.38462925;0.22884617291668974;89;0.75;violin
166.6153985;0.45961542291667;79;0.75;violin
166.6153985;0.45961542291667;91;0.75;violin
167.076937;0.6903846729166787;56;0.75;violin
167.076937;0.6903846729166787;65;0.75;violin
167.076937;0.6903846729166787;71;0.75;violin
167.76924475;0.22884617291666132;62;0.75;violin
167.76924475;0.22884617291666132;65;0.75;violin
167.76924475;0.22884617291666132;71;0.75;violin
168.000014;0.22884617291666132;55;0.75;violin
168.23078325;0.05576923541667611;83;0.75;violin
168.346167875;0.05576923541667611;81;0.75;violin
168.4615525;0.05576923541664769;79;0.75;violin
168.576937125;0.05576923541667611;77;0.75;violin
168.69232175;0.05576923541667611;76;0.75;violin
168.807706375;0.05576923541664769;74;0.75;violin
168.923091;0.05576923541667611;72;0.75;violin
169.038475625;0.05576923541667611;71;0.75;violin
169.15386025;0.05576923541664769;69;0.75;violin
169.269244875;0.05576923541667611;67;0.75;violin
169.3846295;0.05576923541667611;65;0.75;violin
169.500014125;0.05576923541664769;64;0.75;violin
169.61539875;0.03653846458334442;67;0.75;violin
169.69232183333332;0.03653846458334442;65;0.75;violin
169.76924491666668;0.036538464583316;62;0.75;violin
169.846168;0.45961542291667;60;0.75;violin
169.846168;0.45961542291667;64;0.75;violin
169.846168;0.45961542291667;72;0.75;violin
172.615399;0.6903846729166787;58;0.75;violin
172.615399;0.6903846729166787;67;0.75;violin
172.615399;0.6903846729166787;73;0.75;violin
173.30770675;0.22884617291666132;64;0.75;violin
173.30770675;0.22884617291666132;67;0.75;violin
173.30770675;0.22884617291666132;73;0.75;violin
173.538476;0.22884617291666132;57;0.75;violin
173.76924525;0.05576923541664769;85;0.75;violin
173.884629875;0.05576923541667611;82;0.75;violin
174.0000145;0.05576923541667611;81;0.75;violin
174.115399125;0.05576923541664769;79;0.75;violin
174.23078375;0.05576923541667611;77;0.75;violin
174.346168375;0.05576923541667611;76;0.75;violin
174.461553;0.05576923541664769;74;0.75;violin
174.576937625;0.05576923541667611;73;0.75;violin
174.69232225;0.05576923541667611;70;0.75;violin
174.807706875;0.05576923541664769;69;0.75;violin
174.9230915;0.05576923541667611;67;0.75;violin
175.038476125;0.05576923541667611;65;0.75;violin
175.15386075;0.036538464583316;69;0.75;violin
175.23078383333333;0.03653846458334442;67;0.75;violin
175.30770691666666;0.03653846458334442;64;0.75;violin
175.38463;0.3442307979166799;62;0.75;violin
175.38463;0.3442307979166799;65;0.75;violin
175.38463;0.3442307979166799;74;0.75;violin
176.07693774999998;0.11346154791667118;64;0.75;violin
176.07693774999998;0.11346154791667118;67;0.75;violin
176.07693774999998;0.11346154791667118;74;0.75;violin
176.307707;0.22884617291666132;65;0.75;violin
176.307707;0.22884617291666132;69;0.75;violin
176.307707;0.22884617291666132;74;0.75;violin
176.7692455;0.4596154229166416;67;0.75;violin
176.7692455;0.4596154229166416;70;0.75;violin
176.7692455;0.4596154229166416;74;0.75;violin
177.6923225;0.22884617291668974;65;0.75;violin
177.6923225;0.22884617291668974;69;0.75;violin
177.6923225;0.22884617291668974;75;0.75;violin
178.153861;0.34423079791665145;64;0.75;violin
178.153861;0.34423079791665145;68;0.75;violin
178.153861;0.34423079791665145;76;0.75;violin
178.84616875;0.11346154791667118;66;0.75;violin
178.84616875;0.11346154791667118;69;0.75;violin
178.84616875;0.11346154791667118;76;0.75;violin
179.076938;0.22884617291666132;68;0.75;violin
179.076938;0.22884617291666132;71;0.75;violin
179.076938;0.22884617291666132;76;0.75;violin
179.5384765;0.45961542291667;69;0.75;violin
179.5384765;0.45961542291667;72;0.75;violin
179.5384765;0.45961542291667;76;0.75;violin
180.4615535;0.22884617291666132;67;0.75;violin
180.4615535;0.22884617291666132;70;0.75;violin
180.4615535;0.22884617291666132;76;0.75;violin
180.923092;0.3442307979166799;65;0.75;violin
180.923092;0.3442307979166799;69;0.75;violin
180.923092;0.3442307979166799;77;0.75;violin
181.61539975;0.11346154791667118;67;0.75;violin
181.61539975;0.11346154791667118;70;0.75;violin
181.61539975;0.11346154791667118;77;0.75;violin
181.846169;0.22884617291666132;69;0.75;violin
181.846169;0.22884617291666132;72;0.75;violin
181.846169;0.22884617291666132;77;0.75;violin
182.3077075;0.45961542291667;70;0.75;violin
182.3077075;0.45961542291667;73;0.75;violin
182.3077075;0.45961542291667;77;0.75;violin
183.2307845;0.22884617291666132;68;0.75;violin
183.2307845;0.22884617291666132;71;0.75;violin
183.2307845;0.22884617291666132;77;0.75;violin
183.692323;0.3442307979166799;66;0.75;violin
183.692323;0.3442307979166799;70;0.75;violin
183.692323;0.3442307979166799;78;0.75;violin
184.38463074999999;0.11346154791667118;68;0.75;violin
184.38463074999999;0.11346154791667118;71;0.75;violin
184.38463074999999;0.11346154791667118;78;0.75;violin
184.6154;0.22884617291666132;70;0.75;violin
184.6154;0.22884617291666132;73;0.75;violin
184.6154;0.22884617291666132;78;0.75;violin
185.0769385;0.4596154229166416;71;0.75;violin
185.0769385;0.4596154229166416;74;0.75;violin
185.0769385;0.4596154229166416;78;0.75;violin
186.0000155;0.22884617291668974;69;0.75;violin
186.0000155;0.22884617291668974;72;0.75;violin
186.0000155;0.22884617291668974;78;0.75;violin
186.461554;0.34423079791665145;67;0.75;violin
186.461554;0.34423079791665145;71;0.75;violin
186.461554;0.34423079791665145;79;0.75;violin
187.15386175;0.11346154791667118;69;0.75;violin
187.15386175;0.11346154791667118;72;0.75;violin
187.15386175;0.11346154791667118;79;0.75;violin
187.384631;0.22884617291666132;71;0.75;violin
187.384631;0.22884617291666132;74;0.75;violin
187.384631;0.22884617291666132;79;0.75;violin
187.8461695;0.45961542291667;72;0.75;violin
187.8461695;0.45961542291667;75;0.75;violin
187.8461695;0.45961542291667;79;0.75;violin
188.7692465;0.22884617291666132;70;0.75;violin
188.7692465;0.22884617291666132;73;0.75;violin
188.7692465;0.22884617291666132;79;0.75;violin
189.230785;0.3442307979166799;68;0.75;violin
189.230785;0.3442307979166799;72;0.75;violin
189.230785;0.3442307979166799;80;0.75;violin
189.92309275;0.11346154791667118;68;0.75;violin
189.92309275;0.11346154791667118;72;0.75;violin
189.92309275;0.11346154791667118;82;0.75;violin
190.153862;0.22884617291666132;68;0.75;violin
190.153862;0.22884617291666132;72;0.75;violin
190.153862;0.22884617291666132;80;0.75;violin
190.6154005;0.45961542291667;66;0.75;violin
190.6154005;0.45961542291667;72;0.75;violin
190.6154005;0.45961542291667;80;0.75;violin
191.5384775;0.22884617291666132;66;0.75;violin
191.5384775;0.22884617291666132;72;0.75;violin
191.5384775;0.22884617291666132;81;0.75;violin
192.000016;0.3442307979166799;65;0.75;violin
192.000016;0.3442307979166799;72;0.75;violin
192.000016;0.3442307979166799;81;0.75;violin
192.69232374999999;0.11346154791667118;65;0.75;violin
192.69232374999999;0.11346154791667118;73;0.75;violin
192.69232374999999;0.11346154791667118;82;0.75;violin
192.923093;0.22884617291666132;65;0.75;violin
192.923093;0.22884617291666132;75;0.75;violin
192.923093;0.22884617291666132;84;0.75;violin
193.3846315;0.921153922916659;65;0.75;violin
193.3846315;0.921153922916659;73;0.75;violin
193.3846315;0.921153922916659;84;0.75;violin
194.3077085;0.45961542291667;65;0.75;violin
194.3077085;0.45961542291667;73;0.75;violin
194.3077085;0.45961542291667;82;0.75;violin
194.769247;0.921153922916659;64;0.75;violin
194.769247;0.921153922916659;73;0.75;violin
194.769247;0.921153922916659;82;0.75;violin
195.69232399999999;0.45961542291667;64;0.75;violin
195.69232399999999;0.45961542291667;72;0.75;violin
195.69232399999999;0.45961542291667;82;0.75;violin
196.1538625;0.921153922916659;65;0.75;violin
196.1538625;0.921153922916659;72;0.75;violin
196.1538625;0.921153922916659;80;0.75;violin
197.0769395;0.45961542291667;62;0.75;violin
197.0769395;0.45961542291667;71;0.75;violin
197.0769395;0.45961542291667;80;0.75;violin
197.538478;0.921153922916659;63;0.75;violin
197.538478;0.921153922916659;70;0.75;violin
197.538478;0.921153922916659;78;0.75;violin
198.461555;0.45961542291667;60;0.75;violin
198.461555;0.45961542291667;68;0.75;violin
198.461555;0.45961542291667;78;0.75;violin
198.9230935;0.921153922916659;61;0.75;violin
198.9230935;0.921153922916659;68;0.75;violin
198.9230935;0.921153922916659;77;0.75;violin
199.8461705;0.45961542291667;59;0.75;violin
199.8461705;0.45961542291667;68;0.75;violin
199.8461705;0.45961542291667;77;0.75;violin
200.307709;0.3442307979166799;58;0.75;violin
200.307709;0.3442307979166799;66;0.75;violin
200.307709;0.3442307979166799;78;0.75;violin
201.00001675;0.11346154791667118;58;0.75;violin
201.00001675;0.11346154791667118;66;0.75;violin
201.00001675;0.11346154791667118;77;0.75;violin
201.230786;0.22884617291666132;58;0.75;violin
201.230786;0.22884617291666132;66;0.75;violin
201.230786;0.22884617291666132;75;0.75;violin
201.6923245;0.921153922916659;59;0.75;violin
201.6923245;0.921153922916659;65;0.75;violin
201.6923245;0.921153922916659;75;0.75;violin
202.6154015;0.45961542291667;59;0.75;violin
202.6154015;0.45961542291667;65;0.75;violin
202.6154015;0.45961542291667;73;0.75;violin
203.07694;0.34423079791665145;58;0.75;violin
203.07694;0.34423079791665145;66;0.75;violin
203.07694;0.34423079791665145;78;0.75;violin
203.76924775;0.11346154791667118;58;0.75;violin
203.76924775;0.11346154791667118;66;0.75;violin
203.76924775;0.11346154791667118;77;0.75;violin
204.00001699999999;0.22884617291668974;58;0.75;violin
204.00001699999999;0.22884617291668974;66;0.75;violin
204.00001699999999;0.22884617291668974;75;0.75;violin
204.4615555;0.921153922916659;59;0.75;violin
204.4615555;0.921153922916659;65;0.75;violin
204.4615555;0.921153922916659;74;0.75;violin
205.3846325;0.45961542291667;58;0.75;violin
205.3846325;0.45961542291667;65;0.75;violin
205.3846325;0.45961542291667;74;0.75;violin
205.846171;0.3442307979166799;58;0.75;violin
205.846171;0.3442307979166799;66;0.75;violin
205.846171;0.3442307979166799;75;0.75;violin
206.53847875;0.11346154791667118;58;0.75;violin
206.53847875;0.11346154791667118;66;0.75;violin
206.53847875;0.11346154791667118;76;0.75;violin
206.769248;0.22884617291666132;58;0.75;violin
206.769248;0.22884617291666132;66;0.75;violin
206.769248;0.22884617291666132;73;0.75;violin
207.2307865;0.921153922916659;59;0.75;violin
207.2307865;0.921153922916659;63;0.75;violin
207.2307865;0.921153922916659;71;0.75;violin
208.1538635;0.45961542291667;63;0.75;violin
208.1538635;0.45961542291667;71;0.75;violin
208.1538635;0.45961542291667;78;0.75;violin
208.615402;0.9211539229166874;64;0.75;violin
208.615402;0.9211539229166874;71;0.75;violin
208.615402;0.9211539229166874;80;0.75;violin
209.538479;0.45961542291667;65;0.75;violin
209.538479;0.45961542291667;73;0.75;violin
209.538479;0.45961542291667;80;0.75;violin
210.0000175;0.921153922916659;66;0.75;violin
210.0000175;0.921153922916659;70;0.75;violin
210.0000175;0.921153922916659;78;0.75;violin
211.384633;0.05576923541664769;71;0.75;violin
211.500017625;0.05576923541667611;75;0.75;violin
211.61540225;0.05576923541667611;78;0.75;violin
211.730786875;0.05576923541664769;82;0.75;violin
211.8461715;0.05576923541667611;83;0.75;violin
211.961556125;0.05576923541667611;78;0.75;violin
212.07694075;0.05576923541664769;80;0.75;violin
212.192325375;0.05576923541667611;78;0.75;violin
212.30771;0.05576923541667611;76;0.75;violin
212.423094625;0.05576923541664769;75;0.75;violin
212.53847925;0.05576923541667611;73;0.75;violin
212.65386387499998;0.05576923541667611;71;0.75;violin
212.7692485;0.34423079791665145;70;0.75;violin
212.7692485;0.34423079791665145;73;0.75;violin
212.7692485;0.34423079791665145;78;0.75;violin
213.46155625;0.11346154791667118;68;0.75;violin
213.46155625;0.11346154791667118;71;0.75;violin
213.46155625;0.11346154791667118;78;0.75;violin
213.6923255;0.22884617291666132;66;0.75;violin
213.6923255;0.22884617291666132;70;0.75;violin
213.6923255;0.22884617291666132;78;0.75;violin
214.153864;0.05576923541667611;68;0.75;violin
214.269248625;0.05576923541667611;71;0.75;violin
214.38463325;0.05576923541664769;75;0.75;violin
214.500017875;0.05576923541667611;79;0.75;violin
214.6154025;0.05576923541667611;80;0.75;violin
214.730787125;0.05576923541664769;75;0.75;violin
214.84617175;0.05576923541667611;76;0.75;violin
214.961556375;0.05576923541667611;75;0.75;violin
215.076941;0.05576923541664769;73;0.75;violin
215.192325625;0.05576923541667611;71;0.75;violin
215.30771024999999;0.05576923541667611;70;0.75;violin
215.423094875;0.05576923541664769;68;0.75;violin
215.5384795;0.3442307979166799;67;0.75;violin
215.5384795;0.3442307979166799;70;0.75;violin
215.5384795;0.3442307979166799;75;0.75;violin
216.23078725;0.11346154791667118;65;0.75;violin
216.23078725;0.11346154791667118;68;0.75;violin
216.23078725;0.11346154791667118;75;0.75;violin
216.4615565;0.22884617291666132;63;0.75;violin
216.4615565;0.22884617291666132;67;0.75;violin
216.4615565;0.22884617291666132;75;0.75;violin
216.923095;0.05576923541667611;64;0.75;violin
217.038479625;0.05576923541664769;68;0.75;violin
217.15386425;0.05576923541667611;71;0.75;violin
217.269248875;0.05576923541667611;75;0.75;violin
217.3846335;0.05576923541664769;76;0.75;violin
217.500018125;0.05576923541667611;71;0.75;violin
217.61540275;0.05576923541667611;73;0.75;violin
217.730787375;0.05576923541664769;71;0.75;violin
217.846172;0.05576923541667611;70;0.75;violin
217.961556625;0.05576923541667611;68;0.75;violin
218.07694125;0.05576923541664769;66;0.75;violin
218.192325875;0.05576923541667611;64;0.75;violin
218.30771049999998;0.3442307979166799;63;0.75;violin
218.30771049999998;0.3442307979166799;66;0.75;violin
218.30771049999998;0.3442307979166799;71;0.75;violin
219.00001825;0.11346154791664276;61;0.75;violin
219.00001825;0.11346154791664276;64;0.75;violin
219.00001825;0.11346154791664276;71;0.75;violin
219.2307875;0.22884617291666132;59;0.75;violin
219.2307875;0.22884617291666132;63;0.75;violin
219.2307875;0.22884617291666132;71;0.75;violin
219.692326;0.34423079791665145;62;0.75;violin
219.692326;0.34423079791665145;66;0.75;violin
219.692326;0.34423079791665145;71;0.75;violin
220.38463375;0.11346154791667118;61;0.75;violin
220.38463375;0.11346154791667118;64;0.75;violin
220.38463375;0.11346154791667118;71;0.75;violin
220.615403;0.22884617291668974;59;0.75;violin
220.615403;0.22884617291668974;62;0.75;violin
220.615403;0.22884617291668974;71;0.75;violin
221.0769415;0.05576923541664769;57;0.75;violin
221.192326125;0.05576923541667611;60;0.75;violin
221.30771075;0.05576923541664769;66;0.75;violin
221.423095375;0.05576923541667611;69;0.75;violin
221.53848;0.05576923541667611;74;0.75;violin
221.653864625;0.05576923541664769;72;0.75;violin
221.76924925;0.05576923541667611;69;0.75;violin
221.884633875;0.05576923541667611;66;0.75;violin
222.0000185;0.05576923541664769;67;0.75;violin
222.115403125;0.05576923541667611;62;0.75;violin
222.23078775;0.05576923541667611;59;0.75;violin
222.346172375;0.05576923541664769;55;0.75;violin
222.461557;0.3442307979166799;71;0.75;violin
222.461557;0.3442307979166799;74;0.75;violin
222.461557;0.3442307979166799;79;0.75;violin
223.15386475;0.11346154791667118;69;0.75;violin
223.15386475;0.11346154791667118;72;0.75;violin
223.15386475;0.11346154791667118;79;0.75;violin
223.384634;0.22884617291666132;67;0.75;violin
223.384634;0.22884617291666132;71;0.75;violin
223.384634;0.22884617291666132;79;0.75;violin
223.8461725;0.05576923541667611;63;0.75;violin
223.96155712499998;0.05576923541667611;66;0.75;violin
224.07694175;0.05576923541667611;71;0.75;violin
224.192326375;0.05576923541667611;75;0.75;violin
224.307711;0.05576923541664769;83;0.75;violin
224.423095625;0.05576923541667611;81;0.75;violin
224.53848025;0.05576923541667611;78;0.75;violin
224.653864875;0.05576923541664769;75;0.75;violin
224.7692495;0.05576923541667611;76;0.75;violin
224.884634125;0.05576923541667611;71;0.75;violin
225.00001875;0.05576923541664769;67;0.75;violin
225.115403375;0.05576923541667611;64;0.75;violin
225.230788;0.05576923541667611;60;0.75;violin
225.346172625;0.05576923541664769;64;0.75;violin
225.46155725;0.05576923541667611;67;0.75;violin
225.576941875;0.05576923541667611;72;0.75;violin
225.6923265;0.05576923541664769;76;0.75;violin
225.807711125;0.05576923541667611;79;0.75;violin
225.92309575;0.05576923541667611;84;0.75;violin
226.038480375;0.05576923541664769;79;0.75;violin
226.153865;0.05576923541667611;76;0.75;violin
226.269249625;0.05576923541667611;72;0.75;violin
226.38463425;0.05576923541664769;67;0.75;violin
226.500018875;0.05576923541667611;64;0.75;violin
226.61540349999999;0.05576923541667611;59;0.75;violin
226.730788125;0.05576923541664769;64;0.75;violin
226.84617275;0.05576923541667611;67;0.75;violin
226.961557375;0.05576923541664769;71;0.75;violin
227.076942;0.05576923541667611;76;0.75;violin
227.192326625;0.05576923541667611;79;0.75;violin
227.30771125;0.05576923541664769;83;0.75;violin
227.423095875;0.05576923541667611;79;0.75;violin
227.5384805;0.05576923541667611;76;0.75;violin
227.653865125;0.05576923541664769;71;0.75;violin
227.76924975;0.05576923541667611;67;0.75;violin
227.884634375;0.05576923541667611;64;0.75;violin
228.000019;0.05576923541664769;58;0.75;violin
228.115403625;0.05576923541667611;61;0.75;violin
228.23078825;0.05576923541667611;64;0.75;violin
228.346172875;0.05576923541664769;67;0.75;violin
228.4615575;0.05576923541667611;70;0.75;violin
228.576942125;0.05576923541667611;73;0.75;violin
228.69232675;0.05576923541664769;76;0.75;violin
228.807711375;0.05576923541667611;73;0.75;violin
228.923096;0.05576923541667611;70;0.75;violin
229.038480625;0.05576923541664769;67;0.75;violin
229.15386525;0.05576923541667611;64;0.75;violin
229.26924987499999;0.05576923541667611;61;0.75;violin
229.3846345;0.05576923541664769;57;0.75;violin
229.500019125;0.05576923541667611;60;0.75;violin
229.61540374999998;0.05576923541667611;63;0.75;violin
229.730788375;0.05576923541667611;66;0.75;violin
229.846173;0.05576923541667611;69;0.75;violin
229.961557625;0.05576923541664769;72;0.75;violin
230.07694225;0.05576923541667611;75;0.75;violin
230.192326875;0.05576923541667611;72;0.75;violin
230.3077115;0.05576923541664769;69;0.75;violin
230.423096125;0.05576923541667611;66;0.75;violin
230.53848075;0.05576923541667611;63;0.75;violin
230.653865375;0.05576923541664769;60;0.75;violin
230.76925;0.05576923541667611;56;0.75;violin
230.884634625;0.05576923541667611;59;0.75;violin
231.00001925;0.05576923541664769;62;0.75;violin
231.115403875;0.05576923541667611;65;0.75;violin
231.2307885;0.05576923541667611;68;0.75;violin
231.346173125;0.05576923541664769;71;0.75;violin
231.46155775;0.05576923541667611;74;0.75;violin
231.576942375;0.05576923541667611;71;0.75;violin
231.692327;0.05576923541664769;68;0.75;violin
231.807711625;0.05576923541667611;65;0.75;violin
231.92309625;0.05576923541667611;62;0.75;violin
232.038480875;0.05576923541664769;59;0.75;violin
232.1538655;0.05576923541667611;56;0.75;violin
232.26925012499999;0.05576923541667611;57;0.75;violin
232.38463475;0.05576923541664769;60;0.75;violin
232.500019375;0.05576923541667611;64;0.75;violin
232.615404;0.05576923541664769;69;0.75;violin
232.730788625;0.05576923541667611;72;0.75;violin
232.84617325;0.05576923541667611;76;0.75;violin
232.961557875;0.05576923541664769;81;0.75;violin
233.0769425;0.05576923541667611;84;0.75;violin
233.192327125;0.05576923541667611;81;0.75;violin
233.30771175;0.05576923541664769;76;0.75;violin
233.423096375;0.05576923541667611;72;0.75;violin
233.538481;0.05576923541667611;69;0.75;violin
233.653865625;0.05576923541664769;84;0.75;violin
233.76925025;0.05576923541667611;81;0.75;violin
233.884634875;0.05576923541667611;77;0.75;violin
234.0000195;0.05576923541664769;72;0.75;violin
234.115404125;0.05576923541667611;69;0.75;violin
234.23078875;0.05576923541667611;65;0.75;violin
234.346173375;0.05576923541664769;69;0.75;violin
234.461558;0.05576923541667611;64;0.75;violin
234.576942625;0.05576923541667611;69;0.75;violin
234.69232725;0.05576923541664769;63;0.75;violin
234.807711875;0.05576923541667611;69;0.75;violin
234.92309649999999;0.05576923541667611;64;0.75;violin
235.038481125;0.05576923541664769;68;0.75;violin
235.15386575;0.05576923541667611;71;0.75;violin
235.269250375;0.05576923541664769;76;0.75;violin
235.384635;0.05576923541667611;83;0.75;violin
235.500019625;0.05576923541667611;80;0.75;violin
235.61540425;0.05576923541664769;77;0.75;violin
235.730788875;0.05576923541667611;76;0.75;violin
235.8461735;0.05576923541667611;86;0.75;violin
235.961558125;0.05576923541664769;83;0.75;violin
236.07694275;0.05576923541667611;81;0.75;violin
236.192327375;0.05576923541667611;80;0.75;violin
236.307712;0.05576923541664769;77;0.75;violin
236.423096625;0.05576923541667611;76;0.75;violin
236.53848125;0.05576923541667611;74;0.75;violin
236.653865875;0.05576923541664769;72;0.75;violin
236.7692505;0.05576923541667611;71;0.75;violin
236.884635125;0.05576923541667611;69;0.75;violin
237.00001975;0.05576923541664769;68;0.75;violin
237.115404375;0.05576923541667611;65;0.75;violin
237.230789;0.05576923541667611;64;0.75;violin
237.346173625;0.05576923541664769;62;0.75;violin
237.46155825;0.05576923541667611;60;0.75;violin
237.576942875;0.05576923541667611;59;0.75;violin
237.6923275;0.34423079791665145;60;0.75;violin
237.6923275;0.34423079791665145;64;0.75;violin
237.6923275;0.34423079791665145;76;0.75;violin
238.38463525;0.11346154791667118;59;0.75;violin
238.38463525;0.11346154791667118;64;0.75;violin
238.38463525;0.11346154791667118;74;0.75;violin
238.6154045;0.22884617291666132;57;0.75;violin
238.6154045;0.22884617291666132;64;0.75;violin
238.6154045;0.22884617291666132;72;0.75;violin
239.076943;0.34423079791665145;63;0.75;violin
239.076943;0.34423079791665145;72;0.75;violin
239.076943;0.34423079791665145;81;0.75;violin
239.76925075;0.11346154791667118;60;0.75;violin
239.76925075;0.11346154791667118;63;0.75;violin
240.00002;0.22884617291666132;57;0.75;violin
240.00002;0.22884617291666132;63;0.75;violin
240.4615585;0.05576923541667611;56;0.75;violin
240.4615585;0.05576923541667611;64;0.75;violin
240.57694312499999;0.05576923541667611;68;0.75;violin
240.69232775;0.05576923541664769;71;0.75;violin
240.807712375;0.05576923541667611;76;0.75;violin
240.923097;0.05576923541664769;83;0.75;violin
241.038481625;0.05576923541667611;80;0.75;violin
241.15386625;0.05576923541667611;77;0.75;violin
241.269250875;0.05576923541664769;76;0.75;violin
241.3846355;0.05576923541667611;86;0.75;violin
241.500020125;0.05576923541667611;83;0.75;violin
241.61540475;0.05576923541664769;81;0.75;violin
241.730789375;0.05576923541667611;80;0.75;violin
241.846174;0.05576923541667611;77;0.75;violin
241.961558625;0.05576923541664769;76;0.75;violin
242.07694325;0.05576923541667611;74;0.75;violin
242.192327875;0.05576923541667611;72;0.75;violin
242.3077125;0.05576923541664769;71;0.75;violin
242.423097125;0.05576923541667611;69;0.75;violin
242.53848175;0.05576923541667611;68;0.75;violin
242.653866375;0.05576923541664769;65;0.75;violin
242.769251;0.05576923541667611;64;0.75;violin
242.884635625;0.05576923541667611;62;0.75;violin
243.00002025;0.05576923541664769;60;0.75;violin
243.115404875;0.05576923541667611;59;0.75;violin
243.2307895;0.3442307979166799;60;0.75;violin
243.2307895;0.3442307979166799;64;0.75;violin
243.2307895;0.3442307979166799;76;0.75;violin
243.92309725;0.11346154791664276;59;0.75;violin
243.92309725;0.11346154791664276;64;0.75;violin
243.92309725;0.11346154791664276;74;0.75;violin
244.1538665;0.22884617291666132;57;0.75;violin
244.1538665;0.22884617291666132;64;0.75;violin
244.1538665;0.22884617291666132;72;0.75;violin
244.615405;0.34423079791665145;63;0.75;violin
244.615405;0.34423079791665145;72;0.75;violin
244.615405;0.34423079791665145;81;0.75;violin
245.30771275;0.11346154791667118;60;0.3828125;violin
245.30771275;0.11346154791667118;63;0.3828125;violin
245.538482;0.22884617291668974;57;0.3828125;violin
245.538482;0.22884617291668974;63;0.3828125;violin
246.0000205;0.34423079791665145;56;0.3828125;violin
246.0000205;0.34423079791665145;64;0.3828125;violin
246.69232825;0.11346154791667118;57;0.3828125;violin
246.69232825;0.11346154791667118;65;0.3828125;violin
246.9230975;0.22884617291666132;57;0.3828125;violin
246.9230975;0.22884617291666132;63;0.3828125;violin
247.384636;0.34423079791665145;56;0.3828125;violin
247.384636;0.34423079791665145;64;0.3828125;violin
248.07694375;0.11346154791667118;69;0.2578125;violin
248.07694375;0.11346154791667118;77;0.2578125;violin
248.307713;0.22884617291666132;69;0.2578125;violin
248.307713;0.22884617291666132;75;0.2578125;violin
248.7692515;0.3442307979166799;68;0.2578125;violin
248.7692515;0.3442307979166799;76;0.2578125;violin
249.46155925;0.11346154791667118;81;0.2578125;violin
249.46155925;0.11346154791667118;89;0.2578125;violin
249.6923285;0.22884617291666132;81;0.2578125;violin
249.6923285;0.22884617291666132;89;0.2578125;violin
250.153867;1.3826924229166764;80;0.2578125;violin
250.153867;1.3826924229166764;88;0.2578125;violin
252.45963642291667;0.05576923541664769;68;0.5;violin
252.57502104791666;0.05576923541667611;66;0.5390625;violin
252.69040567291665;0.05576923541667611;64;0.578125;violin
252.80579029791667;0.05576923541664769;62;0.625;violin
252.92117492291666;0.05576923541667611;61;0.6640625;violin
253.03655954791665;0.05576923541667611;59;0.703125;violin
253.15194417291667;0.22884617291666132;57;0.9921875;violin
253.38271342291665;0.05576923541667611;61;0.75;violin
253.49809804791667;0.05576923541664769;57;0.75;violin
253.61348267291666;0.05576923541667611;64;0.75;violin
253.72886729791665;0.05576923541667611;61;0.75;violin
253.84425192291667;0.05576923541664769;69;0.75;violin
253.95963654791666;0.05576923541667611;64;0.75;violin
254.07502117291665;0.05576923541667611;73;0.75;violin
254.19040579791667;0.05576923541664769;69;0.75;violin
254.30579042291666;0.05576923541667611;76;0.75;violin
254.42117504791665;0.05576923541667611;73;0.75;violin
254.53655967291667;0.05576923541664769;81;0.75;violin
254.65194429791666;0.05576923541667611;76;0.75;violin
254.76732892291665;0.05576923541667611;85;0.75;violin
254.88271354791667;0.05576923541664769;81;0.75;violin
254.99809817291666;0.05576923541667611;88;0.75;violin
255.11348279791665;0.05576923541667611;85;0.75;violin
255.22886742291666;0.05576923541667611;93;0.75;violin
255.34425204791665;0.05576923541667611;88;0.75;violin
255.45963667291667;0.05576923541664769;97;0.75;violin
255.57502129791666;0.05576923541667611;93;0.75;violin
255.69040592291665;0.05576923541667611;100;0.75;violin
255.80579054791667;0.05576923541664769;97;0.75;violin
255.92117517291666;0.22884617291668974;105;0.75;violin
256.15194442291664;0.1134615479166996;69;0.75;violin
256.15194442291664;0.1134615479166996;81;0.75;violin
256.3827136729167;0.11346154791664276;68;0.75;violin
256.3827136729167;0.11346154791664276;80;0.75;violin
256.61348292291666;0.11346154791664276;67;0.75;violin
256.61348292291666;0.11346154791664276;79;0.75;violin
256.84425217291664;0.1134615479166996;66;0.75;violin
256.84425217291664;0.1134615479166996;78;0.75;violin
257.0750214229167;0.11346154791664276;65;0.75;violin
257.0750214229167;0.11346154791664276;77;0.75;violin
257.30579067291666;0.11346154791664276;64;0.75;violin
257.30579067291666;0.11346154791664276;76;0.75;violin
257.53655992291664;0.05576923541667611;73;0.75;violin
257.6519445479167;0.05576923541661927;71;0.75;violin
257.7673291729167;0.05576923541667611;69;0.75;violin
257.88271379791667;0.05576923541667611;68;0.75;violin
257.99809842291666;0.05576923541667611;66;0.75;violin
258.11348304791665;0.05576923541667611;64;0.75;violin
258.22886767291664;0.05576923541667611;62;0.75;violin
258.3442522979167;0.05576923541661927;61;0.75;violin
258.4596369229167;0.05576923541667611;59;0.75;violin
258.57502154791666;0.05576923541667611;57;0.75;violin
258.69040617291665;0.22884617291668974;56;0.9921875;violin
258.92117542291663;0.05576923541667611;59;0.75;violin
259.0365600479167;0.05576923541661927;56;0.75;violin
259.15194467291667;0.05576923541667611;64;0.75;violin
259.26732929791666;0.05576923541667611;59;0.75;violin
259.38271392291665;0.05576923541667611;68;0.75;violin
259.49809854791664;0.05576923541667611;64;0.75;violin
259.6134831729167;0.05576923541661927;71;0.75;violin
259.7288677979167;0.05576923541667611;68;0.75;violin
259.84425242291667;0.05576923541667611;76;0.75;violin
259.95963704791666;0.05576923541667611;71;0.75;violin
260.07502167291665;0.05576923541667611;80;0.75;violin
260.19040629791664;0.05576923541667611;76;0.75;violin
260.3057909229167;0.05576923541661927;83;0.75;violin
260.4211755479167;0.05576923541667611;80;0.75;violin
260.53656017291667;0.05576923541667611;88;0.75;violin
260.65194479791666;0.05576923541667611;83;0.75;violin
260.76732942291665;0.05576923541667611;92;0.75;violin
260.88271404791664;0.05576923541667611;88;0.75;violin
260.9980986729167;0.05576923541661927;95;0.75;violin
261.1134832979167;0.05576923541667611;92;0.75;violin
261.22886792291666;0.05576923541667611;100;0.75;violin
261.34425254791665;0.05576923541667611;95;0.75;violin
261.45963717291664;0.22884617291668974;104;0.75;violin
261.6904064229167;0.11346154791664276;71;0.75;violin
261.6904064229167;0.11346154791664276;83;0.75;violin
261.92117567291666;0.11346154791664276;68;0.75;violin
261.92117567291666;0.11346154791664276;80;0.75;violin
262.15194492291664;0.1134615479166996;67;0.75;violin
262.15194492291664;0.1134615479166996;79;0.75;violin
262.3827141729167;0.11346154791664276;66;0.75;violin
262.3827141729167;0.11346154791664276;78;0.75;violin
262.61348342291666;0.11346154791664276;65;0.75;violin
262.61348342291666;0.11346154791664276;77;0.75;violin
262.84425267291664;0.1134615479166996;64;0.75;violin
262.84425267291664;0.1134615479166996;76;0.75;violin
263.0750219229167;0.05576923541667611;74;0.75;violin
263.19040654791667;0.05576923541667611;73;0.75;violin
263.30579117291666;0.05576923541667611;71;0.75;violin
263.42117579791665;0.05576923541667611;69;0.75;violin
263.53656042291664;0.05576923541667611;68;0.75;violin
263.6519450479167;0.05576923541661927;66;0.75;violin
263.7673296729167;0.05576923541667611;64;0.75;violin
263.88271429791666;0.05576923541667611;62;0.75;violin
263.99809892291665;0.05576923541667611;61;0.75;violin
264.11348354791664;0.05576923541667611;59;0.75;violin
264.22886817291663;0.22884617291668974;57;0.75;violin
264.45963742291667;0.05576923541667611;79;0.75;violin
264.57502204791666;0.05576923541667611;78;0.75;violin
264.69040667291665;0.05576923541667611;76;0.75;violin
264.80579129791664;0.05576923541667611;74;0.75;violin
264.92117592291663;0.05576923541667611;73;0.75;violin
265.0365605479167;0.05576923541661927;71;0.75;violin
265.15194517291667;0.05576923541667611;69;0.75;violin
265.26732979791666;0.05576923541667611;67;0.75;violin
265.38271442291665;0.05576923541667611;66;0.75;violin
265.49809904791664;0.05576923541667611;64;0.75;violin
265.6134836729167;0.2288461729166329;62;0.75;violin
265.84425292291667;0.05576923541667611;74;0.75;violin
265.95963754791666;0.05576923541667611;76;0.75;violin
266.07502217291665;0.05576923541667611;78;0.75;violin
266.19040679791664;0.05576923541667611;79;0.75;violin
266.3057914229167;0.05576923541661927;81;0.75;violin
266.4211760479167;0.05576923541667611;83;0.75;violin
266.53656067291666;0.05576923541667611;85;0.75;violin
266.65194529791665;0.05576923541667611;86;0.75;violin
266.76732992291664;0.05576923541667611;88;0.75;violin
266.88271454791663;0.05576923541667611;90;0.75;violin
266.9980991729167;0.2288461729166329;66;0.75;violin
267.22886842291666;0.05576923541667611;76;0.75;violin
267.34425304791665;0.05576923541667611;74;0.75;violin
267.45963767291664;0.05576923541667611;73;0.75;violin
267.57502229791663;0.05576923541667611;71;0.75;violin
267.6904069229167;0.05576923541667611;70;0.75;violin
267.80579154791667;0.05576923541667611;67;0.75;violin
267.92117617291666;0.05576923541667611;66;0.75;violin
268.03656079791665;0.05576923541667611;64;0.75;violin
268.15194542291664;0.05576923541667611;62;0.75;violin
268.2673300479167;0.05576923541661927;61;0.75;violin
268.3827146729167;0.2288461729166329;59;0.75;violin
268.61348392291666;0.05576923541667611;71;0.75;violin
268.72886854791665;0.05576923541667611;73;0.75;violin
268.84425317291664;0.05576923541667611;74;0.75;violin
268.9596377979167;0.05576923541661927;76;0.75;violin
269.0750224229167;0.05576923541667611;78;0.75;violin
269.19040704791666;0.05576923541667611;80;0.75;violin
269.30579167291665;0.05576923541667611;82;0.75;violin
269.42117629791665;0.05576923541667611;83;0.75;violin
269.53656092291664;0.05576923541667611;85;0.75;violin
269.6519455479167;0.05576923541661927;86;0.75;violin
269.7673301729167;0.2288461729166329;64;0.75;violin
269.99809942291665;0.05576923541667611;74;0.75;violin
270.11348404791664;0.05576923541667611;73;0.75;violin
270.22886867291663;0.05576923541667611;71;0.75;violin
270.3442532979167;0.05576923541661927;69;0.75;violin
270.45963792291667;0.05576923541667611;68;0.75;violin
270.57502254791666;0.05576923541667611;66;0.75;violin
270.69040717291665;0.05576923541667611;64;0.75;violin
270.80579179791664;0.05576923541667611;62;0.75;violin
270.9211764229167;0.05576923541661927;61;0.75;violin
271.0365610479167;0.05576923541667611;59;0.75;violin
271.15194567291667;0.2288461729166329;57;0.75;violin
271.38271492291665;0.05576923541667611;69;0.75;violin
271.49809954791664;0.05576923541667611;71;0.75;violin
271.6134841729167;0.05576923541661927;72;0.75;violin
271.7288687979167;0.05576923541667611;74;0.75;violin
271.84425342291667;0.05576923541667611;76;0.75;violin
271.95963804791666;0.05576923541667611;78;0.75;violin
272.07502267291665;0.05576923541667611;80;0.75;violin
272.19040729791664;0.05576923541667611;81;0.75;violin
272.3057919229167;0.05576923541661927;83;0.75;violin
272.4211765479167;0.05576923541667611;84;0.75;violin
272.53656117291666;0.3442307979166799;69;0.75;violin
272.53656117291666;0.3442307979166799;72;0.75;violin
272.53656117291666;0.3442307979166799;77;0.75;violin
273.22886892291666;0.11346154791664276;67;0.75;violin
273.22886892291666;0.11346154791664276;72;0.75;violin
273.22886892291666;0.11346154791664276;79;0.75;violin
273.45963817291664;0.22884617291668974;65;0.75;violin
273.45963817291664;0.22884617291668974;72;0.75;violin
273.45963817291664;0.22884617291668974;81;0.75;violin
273.92117667291666;0.22884617291668974;64;0.75;violin
273.92117667291666;0.22884617291668974;72;0.75;violin
273.92117667291666;0.22884617291668974;82;0.75;violin
274.15194592291664;0.05576923541667611;88;0.75;violin
274.2673305479167;0.05576923541661927;86;0.75;violin
274.3827151729167;0.05576923541667611;84;0.75;violin
274.49809979791667;0.05576923541667611;82;0.75;violin
274.61348442291666;0.05576923541667611;81;0.75;violin
274.72886904791665;0.05576923541667611;79;0.75;violin
274.84425367291664;0.05576923541667611;77;0.75;violin
274.9596382979167;0.05576923541661927;76;0.75;violin
275.0750229229167;0.05576923541667611;74;0.75;violin
275.19040754791666;0.05576923541667611;72;0.75;violin
275.30579217291665;0.3442307979166799;69;0.75;violin
275.30579217291665;0.3442307979166799;72;0.75;violin
275.30579217291665;0.3442307979166799;77;0.75;violin
275.99809992291665;0.1134615479166996;67;0.75;violin
275.99809992291665;0.1134615479166996;72;0.75;violin
275.99809992291665;0.1134615479166996;79;0.75;violin
276.2288691729167;0.2288461729166329;65;0.75;violin
276.2288691729167;0.2288461729166329;72;0.75;violin
276.2288691729167;0.2288461729166329;81;0.75;violin
276.69040767291665;0.22884617291668974;64;0.75;violin
276.69040767291665;0.22884617291668974;72;0.75;violin
276.69040767291665;0.22884617291668974;82;0.75;violin
276.9211769229167;0.05576923541661927;88;0.75;violin
277.0365615479167;0.05576923541667611;86;0.75;violin
277.15194617291667;0.05576923541667611;84;0.75;violin
277.26733079791666;0.05576923541667611;82;0.75;violin
277.38271542291665;0.05576923541667611;81;0.75;violin
277.49810004791664;0.05576923541667611;79;0.75;violin
277.6134846729167;0.05576923541661927;77;0.75;violin
277.7288692979167;0.05576923541667611;76;0.75;violin
277.84425392291666;0.05576923541667611;74;0.75;violin
277.95963854791665;0.05576923541667611;72;0.75;violin
278.07502317291664;0.3442307979166799;69;0.75;violin
278.07502317291664;0.3442307979166799;72;0.75;violin
278.07502317291664;0.3442307979166799;77;0.75;violin
278.76733092291664;0.1134615479166996;67;0.75;violin
278.76733092291664;0.1134615479166996;72;0.75;violin
278.76733092291664;0.1134615479166996;79;0.75;violin
278.9981001729167;0.2288461729166329;65;0.75;violin
278.9981001729167;0.2288461729166329;72;0.75;violin
278.9981001729167;0.2288461729166329;81;0.75;violin
279.45963867291664;0.3442307979166799;63;0.75;violin
279.45963867291664;0.3442307979166799;72;0.75;violin
279.45963867291664;0.3442307979166799;84;0.75;violin
280.15194642291664;0.1134615479166996;63;0.75;violin
280.15194642291664;0.1134615479166996;72;0.75;violin
280.15194642291664;0.1134615479166996;83;0.75;violin
280.3827156729167;0.2288461729166329;63;0.75;violin
280.3827156729167;0.2288461729166329;72;0.75;violin
280.3827156729167;0.2288461729166329;81;0.75;violin
280.84425417291664;0.22884617291668974;64;0.75;violin
280.84425417291664;0.22884617291668974;71;0.75;violin
280.84425417291664;0.22884617291668974;80;0.75;violin
281.0750234229167;0.05576923541667611;76;0.75;violin
281.19040804791666;0.05576923541667611;78;0.75;violin
281.30579267291665;0.05576923541667611;80;0.75;violin
281.42117729791664;0.05576923541667611;81;0.75;violin
281.5365619229167;0.05576923541661927;83;0.75;violin
281.6519465479167;0.05576923541667611;85;0.75;violin
281.76733117291667;0.05576923541667611;86;0.75;violin
281.88271579791666;0.05576923541667611;88;0.75;violin
281.99810042291665;0.05576923541667611;90;0.75;violin
282.11348504791664;0.05576923541667611;92;0.75;violin
282.22886967291663;0.22884617291668974;66;0.75;violin
282.22886967291663;0.22884617291668974;73;0.75;violin
282.22886967291663;0.22884617291668974;81;0.75;violin
282.45963892291667;0.05576923541667611;78;0.75;violin
282.57502354791666;0.05576923541667611;80;0.75;violin
282.69040817291665;0.05576923541667611;81;0.75;violin
282.80579279791664;0.05576923541667611;83;0.75;violin
282.9211774229167;0.05576923541661927;85;0.75;violin
283.0365620479167;0.05576923541667611;86;0.75;violin
283.15194667291667;0.05576923541667611;88;0.75;violin
283.26733129791666;0.05576923541667611;90;0.75;violin
283.38271592291665;0.05576923541667611;92;0.75;violin
283.49810054791664;0.05576923541667611;93;0.75;violin
283.6134851729167;0.6903846729166503;62;0.75;violin
283.6134851729167;0.6903846729166503;69;0.75;violin
283.6134851729167;0.6903846729166503;78;0.75;violin
284.3057929229167;0.11346154791664276;66;0.75;violin
284.3057929229167;0.11346154791664276;69;0.75;violin
284.3057929229167;0.11346154791664276;81;0.75;violin
284.53656217291666;0.22884617291668974;63;0.75;violin
284.53656217291666;0.22884617291668974;72;0.75;violin
284.53656217291666;0.22884617291668974;81;0.75;violin
284.9981006729167;0.6903846729166503;64;0.75;violin
284.9981006729167;0.6903846729166503;73;0.75;violin
284.9981006729167;0.6903846729166503;81;0.75;violin
285.6904084229167;0.11346154791664276;64;0.75;violin
285.6904084229167;0.11346154791664276;74;0.75;violin
285.6904084229167;0.11346154791664276;83;0.75;violin
285.92117767291666;0.22884617291668974;64;0.75;violin
285.92117767291666;0.22884617291668974;71;0.75;violin
285.92117767291666;0.22884617291668974;80;0.75;violin
286.3827161729167;0.45961542291667;69;0.75;violin
286.8442546729167;0.45961542291661317;81;0.9921875;violin
286.8442546729167;0.45961542291661317;93;0.9921875;violin
287.30579317291665;0.45961542291667;83;0.9921875;violin
287.30579317291665;0.45961542291667;95;0.9921875;violin
287.76733167291667;0.6903846729166503;85;0.9921875;violin
287.76733167291667;0.6903846729166503;97;0.9921875;violin
288.45963942291667;0.2288461729166329;86;0.9921875;violin
288.45963942291667;0.2288461729166329;98;0.9921875;violin
288.69040867291665;0.45961542291667;88;0.9921875;violin
288.69040867291665;0.45961542291667;100;0.9921875;violin
289.15194717291666;0.6903846729166503;65;0.75;violin
289.15194717291666;0.6903846729166503;74;0.75;violin
289.15194717291666;0.6903846729166503;80;0.75;violin
289.84425492291666;0.2288461729166329;71;0.75;violin
289.84425492291666;0.2288461729166329;74;0.75;violin
289.84425492291666;0.2288461729166329;80;0.75;violin
290.07502417291664;0.22884617291668974;64;0.75;violin
290.3057934229167;0.05576923541667611;83;0.75;violin
290.42117804791667;0.05576923541667611;81;0.75;violin
290.53656267291666;0.05576923541667611;80;0.75;violin
290.65194729791665;0.05576923541667611;78;0.75;violin
290.76733192291664;0.05576923541667611;76;0.75;violin
290.88271654791663;0.05576923541667611;74;0.75;violin
290.9981011729167;0.05576923541661927;73;0.75;violin
291.11348579791667;0.05576923541667611;71;0.75;violin
291.22887042291666;0.05576923541667611;69;0.75;violin
291.34425504791665;0.05576923541667611;68;0.75;violin
291.45963967291664;0.05576923541667611;66;0.75;violin
291.5750242979167;0.05576923541661927;64;0.75;violin
291.6904089229167;0.036538464583316;62;0.75;violin
291.76733200625;0.036538464583316;61;0.75;violin
291.8442550895833;0.036538464583316;59;0.75;violin
291.92117817291665;0.45961542291667;57;0.75;violin
291.92117817291665;0.45961542291667;64;0.75;violin
291.92117817291665;0.45961542291667;73;0.75;violin
291.92117817291665;0.45961542291667;81;0.75;violin
294.69040917291665;0.6903846729166503;58;0.75;violin
294.69040917291665;0.6903846729166503;67;0.75;violin
294.69040917291665;0.6903846729166503;73;0.75;violin
295.38271692291664;0.22884617291668974;64;0.75;violin
295.38271692291664;0.22884617291668974;67;0.75;violin
295.38271692291664;0.22884617291668974;73;0.75;violin
295.6134861729167;0.2288461729166329;57;0.75;violin
295.84425542291666;0.05576923541667611;85;0.75;violin
295.95964004791665;0.05576923541667611;82;0.75;violin
296.07502467291664;0.05576923541667611;81;0.75;violin
296.19040929791663;0.05576923541667611;79;0.75;violin
296.3057939229167;0.05576923541661927;77;0.75;violin
296.42117854791667;0.05576923541667611;76;0.75;violin
296.53656317291666;0.05576923541667611;74;0.75;violin
296.65194779791665;0.05576923541667611;73;0.75;violin
296.76733242291664;0.05576923541667611;70;0.75;violin
296.8827170479167;0.05576923541661927;69;0.75;violin
296.9981016729167;0.05576923541667611;67;0.75;violin
297.11348629791667;0.05576923541667611;65;0.75;violin
297.22887092291666;0.036538464583316;69;0.75;violin
297.30579400625;0.036538464583316;67;0.75;violin
297.3827170895833;0.03653846458337284;64;0.75;violin
297.45964017291664;0.3442307979166799;62;0.75;violin
297.45964017291664;0.3442307979166799;65;0.75;violin
297.45964017291664;0.3442307979166799;74;0.75;violin
298.15194792291663;0.1134615479166996;64;0.75;violin
298.15194792291663;0.1134615479166996;67;0.75;violin
298.15194792291663;0.1134615479166996;74;0.75;violin
298.38271717291667;0.2288461729166329;65;0.75;violin
298.38271717291667;0.2288461729166329;69;0.75;violin
298.38271717291667;0.2288461729166329;74;0.75;violin
298.8442556729167;0.45961542291661317;67;0.75;violin
298.8442556729167;0.45961542291661317;70;0.75;violin
298.8442556729167;0.45961542291661317;74;0.75;violin
299.76733267291667;0.22884617291668974;65;0.75;violin
299.76733267291667;0.22884617291668974;69;0.75;violin
299.76733267291667;0.22884617291668974;75;0.75;violin
300.2288711729167;0.34423079791662303;64;0.75;violin
300.2288711729167;0.34423079791662303;68;0.75;violin
300.2288711729167;0.34423079791662303;76;0.75;violin
300.9211789229167;0.11346154791664276;66;0.75;violin
300.9211789229167;0.11346154791664276;69;0.75;violin
300.9211789229167;0.11346154791664276;76;0.75;violin
301.15194817291666;0.22884617291668974;68;0.75;violin
301.15194817291666;0.22884617291668974;71;0.75;violin
301.15194817291666;0.22884617291668974;76;0.75;violin
301.6134866729167;0.45961542291667;69;0.75;violin
301.6134866729167;0.45961542291667;72;0.75;violin
301.6134866729167;0.45961542291667;76;0.75;violin
302.53656367291666;0.22884617291668974;67;0.75;violin
302.53656367291666;0.22884617291668974;70;0.75;violin
302.53656367291666;0.22884617291668974;76;0.75;violin
302.9981021729167;0.3442307979166799;65;0.75;violin
302.9981021729167;0.3442307979166799;69;0.75;violin
302.9981021729167;0.3442307979166799;77;0.75;violin
303.6904099229167;0.11346154791664276;67;0.75;violin
303.6904099229167;0.11346154791664276;70;0.75;violin
303.6904099229167;0.11346154791664276;77;0.75;violin
303.92117917291665;0.22884617291668974;69;0.75;violin
303.92117917291665;0.22884617291668974;72;0.75;violin
303.92117917291665;0.22884617291668974;77;0.75;violin
304.38271767291667;0.45961542291667;70;0.75;violin
304.38271767291667;0.45961542291667;73;0.75;violin
304.38271767291667;0.45961542291667;77;0.75;violin
305.30579467291665;0.22884617291668974;68;0.75;violin
305.30579467291665;0.22884617291668974;71;0.75;violin
305.30579467291665;0.22884617291668974;77;0.75;violin
305.76733317291666;0.3442307979166799;66;0.75;violin
305.76733317291666;0.3442307979166799;70;0.75;violin
305.76733317291666;0.3442307979166799;78;0.75;violin
306.45964092291666;0.11346154791664276;68;0.75;violin
306.45964092291666;0.11346154791664276;71;0.75;violin
306.45964092291666;0.11346154791664276;78;0.75;violin
306.69041017291664;0.22884617291668974;70;0.75;violin
306.69041017291664;0.22884617291668974;73;0.75;violin
306.69041017291664;0.22884617291668974;78;0.75;violin
307.15194867291666;0.45961542291667;71;0.75;violin
307.15194867291666;0.45961542291667;74;0.75;violin
307.15194867291666;0.45961542291667;78;0.75;violin
308.07502567291664;0.22884617291668974;69;0.75;violin
308.07502567291664;0.22884617291668974;72;0.75;violin
308.07502567291664;0.22884617291668974;78;0.75;violin
308.53656417291666;0.3442307979166799;67;0.75;violin
308.53656417291666;0.3442307979166799;71;0.75;violin
308.53656417291666;0.3442307979166799;79;0.75;violin
309.22887192291665;0.11346154791664276;69;0.75;violin
309.22887192291665;0.11346154791664276;72;0.75;violin
309.22887192291665;0.11346154791664276;79;0.75;violin
309.4596411729167;0.2288461729166329;71;0.75;violin
309.4596411729167;0.2288461729166329;74;0.75;violin
309.4596411729167;0.2288461729166329;79;0.75;violin
309.92117967291665;0.45961542291667;72;0.75;violin
309.92117967291665;0.45961542291667;75;0.75;violin
309.92117967291665;0.45961542291667;79;0.75;violin
310.8442566729167;0.2288461729166329;70;0.75;violin
310.8442566729167;0.2288461729166329;73;0.75;violin
310.8442566729167;0.2288461729166329;79;0.75;violin
311.30579517291665;0.3442307979166799;68;0.75;violin
311.30579517291665;0.3442307979166799;72;0.75;violin
311.30579517291665;0.3442307979166799;80;0.75;violin
311.99810292291664;0.1134615479166996;68;0.75;violin
311.99810292291664;0.1134615479166996;72;0.75;violin
311.99810292291664;0.1134615479166996;82;0.75;violin
312.2288721729167;0.2288461729166329;68;0.75;violin
312.2288721729167;0.2288461729166329;72;0.75;violin
312.2288721729167;0.2288461729166329;80;0.75;violin
312.69041067291664;0.45961542291667;66;0.75;violin
312.69041067291664;0.45961542291667;72;0.75;violin
312.69041067291664;0.45961542291667;80;0.75;violin
313.6134876729167;0.2288461729166329;66;0.75;violin
313.6134876729167;0.2288461729166329;72;0.75;violin
313.6134876729167;0.2288461729166329;81;0.75;violin
314.07502617291664;0.3442307979166799;65;0.75;violin
314.07502617291664;0.3442307979166799;72;0.75;violin
314.07502617291664;0.3442307979166799;81;0.75;violin
314.7673339229167;0.11346154791664276;65;0.75;violin
314.7673339229167;0.11346154791664276;73;0.75;violin
314.7673339229167;0.11346154791664276;82;0.75;violin
314.9981031729167;0.2288461729166329;65;0.75;violin
314.9981031729167;0.2288461729166329;75;0.75;violin
314.9981031729167;0.2288461729166329;84;0.75;violin
315.45964167291663;0.9211539229166874;65;0.75;violin
315.45964167291663;0.9211539229166874;73;0.75;violin
315.45964167291663;0.9211539229166874;84;0.75;violin
316.38271867291667;0.45961542291667;65;0.75;violin
316.38271867291667;0.45961542291667;73;0.75;violin
316.38271867291667;0.45961542291667;82;0.75;violin
316.8442571729166;0.9211539229166874;64;0.75;violin
316.8442571729166;0.9211539229166874;73;0.75;violin
316.8442571729166;0.9211539229166874;82;0.75;violin
317.76733417291666;0.45961542291667;64;0.75;violin
317.76733417291666;0.45961542291667;72;0.75;violin
317.76733417291666;0.45961542291667;82;0.75;violin
318.2288726729167;0.9211539229166306;65;0.75;violin
318.2288726729167;0.9211539229166306;72;0.75;violin
318.2288726729167;0.9211539229166306;80;0.75;violin
319.15194967291666;0.45961542291667;62;0.75;violin
319.15194967291666;0.45961542291667;71;0.75;violin
319.15194967291666;0.45961542291667;80;0.75;violin
319.6134881729167;0.9211539229166306;63;0.75;violin
319.6134881729167;0.9211539229166306;70;0.75;violin
319.6134881729167;0.9211539229166306;78;0.75;violin
320.53656517291665;0.45961542291667;60;0.75;violin
320.53656517291665;0.45961542291667;68;0.75;violin
320.53656517291665;0.45961542291667;78;0.75;violin
320.99810367291667;0.9211539229166306;61;0.75;violin
320.99810367291667;0.9211539229166306;68;0.75;violin
320.99810367291667;0.9211539229166306;77;0.75;violin
321.92118067291665;0.45961542291667;59;0.75;violin
321.92118067291665;0.45961542291667;68;0.75;violin
321.92118067291665;0.45961542291667;77;0.75;violin
322.38271917291667;0.3442307979166799;58;0.75;violin
322.38271917291667;0.3442307979166799;66;0.75;violin
322.38271917291667;0.3442307979166799;78;0.75;violin
323.07502692291666;0.11346154791664276;58;0.75;violin
323.07502692291666;0.11346154791664276;66;0.75;violin
323.07502692291666;0.11346154791664276;77;0.75;violin
323.30579617291664;0.22884617291668974;58;0.75;violin
323.30579617291664;0.22884617291668974;66;0.75;violin
323.30579617291664;0.22884617291668974;75;0.75;violin
323.76733467291666;0.9211539229166306;59;0.75;violin
323.76733467291666;0.9211539229166306;65;0.75;violin
323.76733467291666;0.9211539229166306;75;0.75;violin
324.69041167291664;0.45961542291667;59;0.75;violin
324.69041167291664;0.45961542291667;65;0.75;violin
324.69041167291664;0.45961542291667;73;0.75;violin
325.15195017291666;0.3442307979166799;58;0.75;violin
325.15195017291666;0.3442307979166799;66;0.75;violin
325.15195017291666;0.3442307979166799;78;0.75;violin
325.84425792291665;0.1134615479166996;58;0.75;violin
325.84425792291665;0.1134615479166996;66;0.75;violin
325.84425792291665;0.1134615479166996;77;0.75;violin
326.07502717291663;0.22884617291668974;58;0.75;violin
326.07502717291663;0.22884617291668974;66;0.75;violin
326.07502717291663;0.22884617291668974;75;0.75;violin
326.53656567291665;0.9211539229166874;59;0.75;violin
326.53656567291665;0.9211539229166874;65;0.75;violin
326.53656567291665;0.9211539229166874;74;0.75;violin
327.45964267291663;0.45961542291672686;58;0.75;violin
327.45964267291663;0.45961542291672686;65;0.75;violin
327.45964267291663;0.45961542291672686;74;0.75;violin
327.92118117291665;0.3442307979166799;58;0.75;violin
327.92118117291665;0.3442307979166799;66;0.75;violin
327.92118117291665;0.3442307979166799;75;0.75;violin
328.61348892291664;0.1134615479166996;58;0.75;violin
328.61348892291664;0.1134615479166996;66;0.75;violin
328.61348892291664;0.1134615479166996;76;0.75;violin
328.8442581729166;0.22884617291668974;58;0.75;violin
328.8442581729166;0.22884617291668974;66;0.75;violin
328.8442581729166;0.22884617291668974;73;0.75;violin
329.30579667291664;0.9211539229166874;59;0.75;violin
329.30579667291664;0.9211539229166874;63;0.75;violin
329.30579667291664;0.9211539229166874;71;0.75;violin
330.2288736729167;0.45961542291667;63;0.75;violin
330.2288736729167;0.45961542291667;71;0.75;violin
330.2288736729167;0.45961542291667;78;0.75;violin
330.6904121729167;0.9211539229166306;64;0.75;violin
330.6904121729167;0.9211539229166306;71;0.75;violin
330.6904121729167;0.9211539229166306;80;0.75;violin
331.6134891729167;0.45961542291667;65;0.75;violin
331.6134891729167;0.45961542291667;73;0.75;violin
331.6134891729167;0.45961542291667;80;0.75;violin
332.0750276729167;0.9211539229166306;66;0.75;violin
332.0750276729167;0.9211539229166306;70;0.75;violin
332.0750276729167;0.9211539229166306;78;0.75;violin
333.4596431729167;0.05576923541661927;71;0.75;violin
333.5750277979167;0.05576923541667611;75;0.75;violin
333.69041242291667;0.05576923541667611;78;0.75;violin
333.80579704791666;0.05576923541667611;82;0.75;violin
333.92118167291665;0.05576923541667611;83;0.75;violin
334.0365662979167;0.05576923541661927;78;0.75;violin
334.1519509229166;0.055769235416732954;80;0.75;violin
334.2673355479167;0.05576923541661927;78;0.75;violin
334.38272017291666;0.05576923541667611;76;0.75;violin
334.49810479791665;0.05576923541667611;75;0.75;violin
334.61348942291664;0.05576923541667611;73;0.75;violin
334.72887404791663;0.05576923541667611;71;0.75;violin
334.8442586729167;0.3442307979166799;70;0.75;violin
334.8442586729167;0.3442307979166799;73;0.75;violin
334.8442586729167;0.3442307979166799;78;0.75;violin
335.5365664229167;0.11346154791664276;68;0.75;violin
335.5365664229167;0.11346154791664276;71;0.75;violin
335.5365664229167;0.11346154791664276;78;0.75;violin
335.76733567291666;0.22884617291668974;66;0.75;violin
335.76733567291666;0.22884617291668974;70;0.75;violin
335.76733567291666;0.22884617291668974;78;0.75;violin
336.2288741729167;0.05576923541661927;68;0.75;violin
336.34425879791667;0.05576923541667611;71;0.75;violin
336.45964342291666;0.05576923541667611;75;0.75;violin
336.57502804791665;0.05576923541667611;79;0.75;violin
336.69041267291664;0.05576923541667611;80;0.75;violin
336.8057972979167;0.05576923541661927;75;0.75;violin
336.9211819229167;0.05576923541667611;76;0.75;violin
337.03656654791666;0.05576923541667611;75;0.75;violin
337.15195117291665;0.05576923541667611;73;0.75;violin
337.26733579791664;0.05576923541667611;71;0.75;violin
337.3827204229167;0.05576923541661927;70;0.75;violin
337.4981050479166;0.055769235416732954;68;0.75;violin
337.61348967291667;0.3442307979166799;67;0.75;violin
337.61348967291667;0.3442307979166799;70;0.75;violin
337.61348967291667;0.3442307979166799;75;0.75;violin
338.30579742291667;0.11346154791664276;65;0.75;violin
338.30579742291667;0.11346154791664276;68;0.75;violin
338.30579742291667;0.11346154791664276;75;0.75;violin
338.53656667291665;0.22884617291668974;63;0.75;violin
338.53656667291665;0.22884617291668974;67;0.75;violin
338.53656667291665;0.22884617291668974;75;0.75;violin
338.99810517291667;0.05576923541667611;64;0.75;violin
339.11348979791666;0.05576923541667611;68;0.75;violin
339.22887442291665;0.05576923541667611;71;0.75;violin
339.3442590479167;0.05576923541661927;75;0.75;violin
339.4596436729166;0.055769235416732954;76;0.75;violin
339.5750282979167;0.05576923541661927;71;0.75;violin
339.69041292291666;0.05576923541667611;73;0.75;violin
339.80579754791665;0.05576923541667611;71;0.75;violin
339.92118217291664;0.05576923541667611;70;0.75;violin
340.03656679791663;0.05576923541667611;68;0.75;violin
340.1519514229167;0.05576923541661927;66;0.75;violin
340.2673360479167;0.05576923541667611;64;0.75;violin
340.38272067291666;0.3442307979166799;63;0.75;violin
340.38272067291666;0.3442307979166799;66;0.75;violin
340.38272067291666;0.3442307979166799;71;0.75;violin
341.07502842291666;0.11346154791664276;61;0.75;violin
341.07502842291666;0.11346154791664276;64;0.75;violin
341.07502842291666;0.11346154791664276;71;0.75;violin
341.30579767291664;0.22884617291668974;59;0.75;violin
341.30579767291664;0.22884617291668974;63;0.75;violin
341.30579767291664;0.22884617291668974;71;0.75;violin
341.76733617291666;0.3442307979166799;62;0.75;violin
341.76733617291666;0.3442307979166799;66;0.75;violin
341.76733617291666;0.3442307979166799;71;0.75;violin
342.45964392291665;0.11346154791664276;61;0.75;violin
342.45964392291665;0.11346154791664276;64;0.75;violin
342.45964392291665;0.11346154791664276;71;0.75;violin
342.6904131729167;0.2288461729166329;59;0.75;violin
342.6904131729167;0.2288461729166329;62;0.75;violin
342.6904131729167;0.2288461729166329;71;0.75;violin
343.15195167291665;0.05576923541667611;57;0.75;violin
343.26733629791664;0.05576923541667611;60;0.75;violin
343.38272092291663;0.05576923541667611;66;0.75;violin
343.4981055479167;0.05576923541661927;69;0.75;violin
343.61349017291667;0.05576923541667611;74;0.75;violin
343.72887479791666;0.05576923541667611;72;0.75;violin
343.84425942291665;0.05576923541667611;69;0.75;violin
343.95964404791664;0.05576923541667611;66;0.75;violin
344.0750286729167;0.05576923541661927;67;0.75;violin
344.1904132979167;0.05576923541667611;62;0.75;violin
344.30579792291667;0.05576923541667611;59;0.75;violin
344.42118254791666;0.05576923541667611;55;0.75;violin
344.53656717291665;0.3442307979166799;71;0.75;violin
344.53656717291665;0.3442307979166799;74;0.75;violin
344.53656717291665;0.3442307979166799;79;0.75;violin
345.22887492291665;0.1134615479166996;69;0.75;violin
345.22887492291665;0.1134615479166996;72;0.75;violin
345.22887492291665;0.1134615479166996;79;0.75;violin
345.4596441729167;0.2288461729166329;67;0.75;violin
345.4596441729167;0.2288461729166329;71;0.75;violin
345.4596441729167;0.2288461729166329;79;0.75;violin
345.92118267291664;0.05576923541667611;63;0.75;violin
346.0365672979167;0.05576923541661927;66;0.75;violin
346.1519519229167;0.05576923541667611;71;0.75;violin
346.26733654791667;0.05576923541667611;75;0.75;violin
346.38272117291666;0.05576923541667611;83;0.75;violin
346.49810579791665;0.05576923541667611;81;0.75;violin
346.61349042291664;0.05576923541667611;78;0.75;violin
346.72887504791663;0.05576923541667611;75;0.75;violin
346.8442596729167;0.05576923541661927;76;0.75;violin
346.95964429791667;0.05576923541667611;71;0.75;violin
347.07502892291666;0.05576923541667611;67;0.75;violin
347.19041354791665;0.05576923541667611;64;0.75;violin
347.30579817291664;0.05576923541667611;60;0.75;violin
347.4211827979167;0.05576923541661927;64;0.75;violin
347.5365674229167;0.05576923541667611;67;0.75;violin
347.65195204791667;0.05576923541667611;72;0.75;violin
347.76733667291666;0.05576923541667611;76;0.75;violin
347.88272129791665;0.05576923541667611;79;0.75;violin
347.9981059229167;0.05576923541661927;84;0.75;violin
348.1134905479166;0.055769235416732954;79;0.75;violin
348.2288751729167;0.05576923541661927;76;0.75;violin
348.34425979791666;0.05576923541667611;72;0.75;violin
348.45964442291665;0.05576923541667611;67;0.75;violin
348.57502904791664;0.05576923541667611;64;0.75;violin
348.69041367291663;0.05576923541667611;59;0.75;violin
348.8057982979167;0.05576923541661927;64;0.75;violin
348.92118292291667;0.05576923541667611;67;0.75;violin
349.03656754791666;0.05576923541667611;71;0.75;violin
349.15195217291665;0.05576923541667611;76;0.75;violin
349.26733679791664;0.05576923541667611;79;0.75;violin
349.3827214229167;0.05576923541661927;83;0.75;violin
349.4981060479167;0.05576923541667611;79;0.75;violin
349.61349067291667;0.05576923541667611;76;0.75;violin
349.72887529791666;0.05576923541667611;71;0.75;violin
349.84425992291665;0.05576923541667611;67;0.75;violin
349.95964454791664;0.05576923541667611;64;0.75;violin
350.07502917291663;0.05576923541667611;58;0.75;violin
350.1904137979167;0.05576923541661927;61;0.75;violin
350.30579842291667;0.05576923541667611;64;0.75;violin
350.42118304791666;0.05576923541667611;67;0.75;violin
350.53656767291665;0.05576923541667611;70;0.75;violin
350.65195229791664;0.05576923541667611;73;0.75;violin
350.7673369229167;0.05576923541661927;76;0.75;violin
350.8827215479167;0.05576923541667611;73;0.75;violin
350.99810617291666;0.05576923541667611;70;0.75;violin
351.11349079791665;0.05576923541667611;67;0.75;violin
351.22887542291664;0.05576923541667611;64;0.75;violin
351.3442600479167;0.05576923541661927;61;0.75;violin
351.4596446729166;0.055769235416732954;57;0.75;violin
351.57502929791667;0.05576923541661927;60;0.75;violin
351.69041392291666;0.05576923541667611;63;0.75;violin
351.80579854791665;0.05576923541667611;66;0.75;violin
351.92118317291664;0.05576923541667611;69;0.75;violin
352.03656779791663;0.05576923541667611;72;0.75;violin
352.1519524229167;0.05576923541661927;75;0.75;violin
352.26733704791667;0.05576923541667611;72;0.75;violin
352.38272167291666;0.05576923541667611;69;0.75;violin
352.49810629791665;0.05576923541667611;66;0.75;violin
352.61349092291664;0.05576923541667611;63;0.75;violin
352.7288755479167;0.05576923541661927;60;0.75;violin
352.8442601729167;0.05576923541667611;56;0.75;violin
352.95964479791667;0.05576923541667611;59;0.75;violin
353.07502942291666;0.05576923541667611;62;0.75;violin
353.19041404791665;0.05576923541667611;65;0.75;violin
353.3057986729167;0.05576923541661927;68;0.75;violin
353.4211832979166;0.055769235416732954;71;0.75;violin
353.5365679229167;0.05576923541661927;74;0.75;violin
353.65195254791666;0.05576923541667611;71;0.75;violin
353.76733717291665;0.05576923541667611;68;0.75;violin
353.88272179791664;0.05576923541667611;65;0.75;violin
353.99810642291663;0.05576923541667611;62;0.75;violin
354.1134910479167;0.05576923541661927;59;0.75;violin
354.2288756729167;0.05576923541667611;56;0.75;violin
354.34426029791666;0.05576923541667611;57;0.75;violin
354.45964492291665;0.05576923541667611;60;0.75;violin
354.57502954791664;0.05576923541667611;64;0.75;violin
354.6904141729167;0.05576923541661927;69;0.75;violin
354.8057987979167;0.05576923541667611;72;0.75;violin
354.92118342291667;0.05576923541667611;76;0.75;violin
355.03656804791666;0.05576923541667611;81;0.75;violin
355.15195267291665;0.05576923541667611;84;0.75;violin
355.26733729791664;0.05576923541667611;81;0.75;violin
355.38272192291663;0.05576923541667611;76;0.75;violin
355.4981065479167;0.05576923541661927;72;0.75;violin
355.61349117291667;0.05576923541667611;69;0.75;violin
355.72887579791666;0.05576923541667611;84;0.75;violin
355.84426042291665;0.05576923541667611;81;0.75;violin
355.95964504791664;0.05576923541667611;77;0.75;violin
356.0750296729167;0.05576923541661927;72;0.75;violin
356.1904142979167;0.05576923541667611;69;0.75;violin
356.30579892291667;0.05576923541667611;65;0.75;violin
356.42118354791666;0.05576923541667611;69;0.75;violin
356.53656817291665;0.05576923541667611;64;0.75;violin
356.6519527979167;0.05576923541661927;69;0.75;violin
356.7673374229166;0.055769235416732954;63;0.75;violin
356.8827220479167;0.05576923541661927;69;0.75;violin
356.99810667291666;0.05576923541667611;64;0.75;violin
357.11349129791665;0.05576923541667611;68;0.75;violin
357.22887592291664;0.05576923541667611;71;0.75;violin
357.34426054791663;0.05576923541667611;76;0.75;violin
357.4596451729167;0.05576923541661927;83;0.75;violin
357.57502979791667;0.05576923541667611;80;0.75;violin
357.69041442291666;0.05576923541667611;77;0.75;violin
357.80579904791665;0.05576923541667611;76;0.75;violin
357.92118367291664;0.05576923541667611;86;0.75;violin
358.0365682979167;0.05576923541661927;83;0.75;violin
358.1519529229167;0.05576923541667611;81;0.75;violin
358.26733754791667;0.05576923541667611;80;0.75;violin
358.38272217291666;0.05576923541667611;77;0.75;violin
358.49810679791665;0.05576923541667611;76;0.75;violin
358.61349142291664;0.05576923541667611;74;0.75;violin
358.72887604791663;0.05576923541667611;72;0.75;violin
358.8442606729167;0.05576923541661927;71;0.75;violin
358.95964529791667;0.05576923541667611;69;0.75;violin
359.07502992291666;0.05576923541667611;68;0.75;violin
359.19041454791665;0.05576923541667611;65;0.75;violin
359.30579917291664;0.05576923541667611;64;0.75;violin
359.4211837979167;0.05576923541661927;62;0.75;violin
359.5365684229167;0.05576923541667611;60;0.75;violin
359.65195304791666;0.05576923541667611;59;0.75;violin
359.76733767291665;0.3442307979166799;60;0.75;violin
359.76733767291665;0.3442307979166799;64;0.75;violin
359.76733767291665;0.3442307979166799;76;0.75;violin
360.45964542291665;0.1134615479166996;59;0.75;violin
360.45964542291665;0.1134615479166996;64;0.75;violin
360.45964542291665;0.1134615479166996;74;0.75;violin
360.69041467291663;0.22884617291668974;57;0.75;violin
360.69041467291663;0.22884617291668974;64;0.75;violin
360.69041467291663;0.22884617291668974;72;0.75;violin
361.15195317291665;0.3442307979166799;63;0.75;violin
361.15195317291665;0.3442307979166799;72;0.75;violin
361.15195317291665;0.3442307979166799;81;0.75;violin
361.84426092291665;0.1134615479166996;60;0.75;violin
361.84426092291665;0.1134615479166996;63;0.75;violin
362.0750301729166;0.22884617291668974;57;0.75;violin
362.0750301729166;0.22884617291668974;63;0.75;violin
362.53656867291664;0.05576923541667611;56;0.75;violin
362.53656867291664;0.05576923541667611;64;0.75;violin
362.65195329791663;0.05576923541667611;68;0.75;violin
362.7673379229167;0.05576923541661927;71;0.75;violin
362.88272254791667;0.05576923541667611;76;0.75;violin
362.99810717291666;0.05576923541667611;83;0.75;violin
363.11349179791665;0.05576923541667611;80;0.75;violin
363.22887642291664;0.05576923541667611;77;0.75;violin
363.3442610479167;0.05576923541661927;76;0.75;violin
363.4596456729167;0.05576923541667611;86;0.75;violin
363.57503029791667;0.05576923541667611;83;0.75;violin
363.69041492291666;0.05576923541667611;81;0.75;violin
363.80579954791665;0.05576923541667611;80;0.75;violin
363.92118417291664;0.05576923541667611;77;0.75;violin
364.03656879791663;0.05576923541667611;76;0.75;violin
364.1519534229167;0.05576923541661927;74;0.75;violin
364.26733804791667;0.05576923541667611;72;0.75;violin
364.38272267291666;0.05576923541667611;71;0.75;violin
364.49810729791665;0.05576923541667611;69;0.75;violin
364.61349192291664;0.05576923541667611;68;0.75;violin
364.7288765479167;0.05576923541661927;65;0.75;violin
364.8442611729167;0.05576923541667611;64;0.75;violin
364.95964579791666;0.05576923541667611;62;0.75;violin
365.07503042291665;0.05576923541667611;60;0.75;violin
365.19041504791664;0.05576923541667611;59;0.75;violin
365.3057996729167;0.34423079791662303;60;0.75;violin
365.3057996729167;0.34423079791662303;64;0.75;violin
365.3057996729167;0.34423079791662303;76;0.75;violin
365.99810742291663;0.1134615479166996;59;0.75;violin
365.99810742291663;0.1134615479166996;64;0.75;violin
365.99810742291663;0.1134615479166996;74;0.75;violin
366.22887667291667;0.22884617291668974;57;0.75;violin
366.22887667291667;0.22884617291668974;64;0.75;violin
366.22887667291667;0.22884617291668974;72;0.75;violin
366.6904151729167;0.34423079791662303;63;0.75;violin
366.6904151729167;0.34423079791662303;72;0.75;violin
366.6904151729167;0.34423079791662303;81;0.75;violin
367.3827229229166;0.1134615479166996;60;0.3828125;violin
367.3827229229166;0.1134615479166996;63;0.3828125;violin
367.61349217291666;0.22884617291668974;57;0.3828125;violin
367.61349217291666;0.22884617291668974;63;0.3828125;violin
368.0750306729167;0.34423079791662303;56;0.3828125;violin
368.0750306729167;0.34423079791662303;64;0.3828125;violin
368.7673384229167;0.11346154791664276;57;0.3828125;violin
368.7673384229167;0.11346154791664276;65;0.3828125;violin
368.99810767291666;0.22884617291668974;57;0.3828125;violin
368.99810767291666;0.22884617291668974;63;0.3828125;violin
369.4596461729167;0.3442307979166799;56;0.3828125;violin
369.4596461729167;0.3442307979166799;64;0.3828125;violin
370.1519539229167;0.11346154791664276;69;0.2578125;violin
370.1519539229167;0.11346154791664276;77;0.2578125;violin
370.38272317291666;0.22884617291668974;69;0.2578125;violin
370.38272317291666;0.22884617291668974;75;0.2578125;violin
370.8442616729167;0.3442307979166799;68;0.2578125;violin
370.8442616729167;0.3442307979166799;76;0.2578125;violin
371.53656942291667;0.11346154791664276;81;0.2578125;violin
371.53656942291667;0.11346154791664276;89;0.2578125;violin
371.76733867291665;0.22884617291668974;81;0.2578125;violin
371.76733867291665;0.22884617291668974;89;0.2578125;violin
372.22887717291667;1.382692422916648;80;0.2578125;violin
372.22887717291667;1.382692422916648;88;0.2578125;violin
374.5346465958333;0.05576923541667611;68;0.5;violin
374.6500312208333;0.05576923541667611;66;0.5390625;violin
374.7654158458333;0.05576923541667611;64;0.578125;violin
374.88080047083326;0.05576923541667611;62;0.625;violin
374.99618509583325;0.05576923541667611;61;0.6640625;violin
375.1115697208333;0.05576923541661927;59;0.703125;violin
375.2269543458333;0.2288461729166329;57;0.9921875;violin
375.4577235958333;0.05576923541667611;61;0.75;violin
375.57310822083326;0.05576923541667611;57;0.75;violin
375.68849284583325;0.05576923541667611;64;0.75;violin
375.8038774708333;0.05576923541661927;61;0.75;violin
375.9192620958333;0.05576923541667611;69;0.75;violin
376.0346467208333;0.05576923541667611;64;0.75;violin
376.15003134583327;0.05576923541667611;73;0.75;violin
376.26541597083326;0.05576923541667611;69;0.75;violin
376.3808005958333;0.05576923541661927;76;0.75;violin
376.4961852208333;0.05576923541667611;73;0.75;violin
376.6115698458333;0.05576923541667611;81;0.75;violin
376.7269544708333;0.05576923541667611;76;0.75;violin
376.84233909583327;0.05576923541667611;85;0.75;violin
376.95772372083326;0.05576923541667611;81;0.75;violin
377.0731083458333;0.05576923541661927;88;0.75;violin
377.1884929708333;0.05576923541667611;85;0.75;violin
377.3038775958333;0.05576923541667611;93;0.75;violin
377.4192622208333;0.05576923541667611;88;0.75;violin
377.53464684583327;0.05576923541667611;97;0.75;violin
377.65003147083326;0.05576923541667611;93;0.75;violin
377.7654160958333;0.05576923541661927;100;0.75;violin
377.8808007208333;0.05576923541667611;97;0.75;violin
377.9961853458333;0.22884617291668974;105;0.75;violin
378.22695459583326;0.1134615479166996;69;0.75;violin
378.22695459583326;0.1134615479166996;81;0.75;violin
378.4577238458333;0.11346154791664276;68;0.75;violin
378.4577238458333;0.11346154791664276;80;0.75;violin
378.6884930958333;0.11346154791664276;67;0.75;violin
378.6884930958333;0.11346154791664276;79;0.75;violin
378.91926234583326;0.1134615479166996;66;0.75;violin
378.91926234583326;0.1134615479166996;78;0.75;violin
379.1500315958333;0.11346154791664276;65;0.75;violin
379.1500315958333;0.11346154791664276;77;0.75;violin
379.3808008458333;0.11346154791664276;64;0.75;violin
379.3808008458333;0.11346154791664276;76;0.75;violin
379.61157009583326;0.05576923541667611;73;0.75;violin
379.7269547208333;0.05576923541661927;71;0.75;violin
379.8423393458333;0.05576923541667611;69;0.75;violin
379.9577239708333;0.05576923541667611;68;0.75;violin
380.0731085958333;0.05576923541667611;66;0.75;violin
380.18849322083327;0.05576923541667611;64;0.75;violin
380.30387784583326;0.05576923541667611;62;0.75;violin
380.4192624708333;0.05576923541661927;61;0.75;violin
380.5346470958333;0.05576923541667611;59;0.75;violin
380.6500317208333;0.05576923541667611;57;0.75;violin
380.7654163458333;0.22884617291668974;56;0.9921875;violin
380.99618559583325;0.05576923541667611;59;0.75;violin
381.1115702208333;0.05576923541661927;56;0.75;violin
381.2269548458333;0.05576923541667611;64;0.75;violin
381.3423394708333;0.05576923541667611;59;0.75;violin
381.45772409583327;0.05576923541667611;68;0.75;violin
381.57310872083326;0.05576923541667611;64;0.75;violin
381.6884933458333;0.05576923541661927;71;0.75;violin
381.8038779708333;0.05576923541667611;68;0.75;violin
381.9192625958333;0.05576923541667611;76;0.75;violin
382.0346472208333;0.05576923541667611;71;0.75;violin
382.15003184583327;0.05576923541667611;80;0.75;violin
382.26541647083326;0.05576923541667611;76;0.75;violin
382.3808010958333;0.05576923541661927;83;0.75;violin
382.4961857208333;0.05576923541667611;80;0.75;violin
382.6115703458333;0.05576923541667611;88;0.75;violin
382.7269549708333;0.05576923541667611;83;0.75;violin
382.84233959583327;0.05576923541667611;92;0.75;violin
382.95772422083326;0.05576923541667611;88;0.75;violin
383.0731088458333;0.05576923541661927;95;0.75;violin
383.1884934708333;0.05576923541667611;92;0.75;violin
383.3038780958333;0.05576923541667611;100;0.75;violin
383.4192627208333;0.05576923541667611;95;0.75;violin
383.53464734583326;0.22884617291668974;104;0.75;violin
383.7654165958333;0.11346154791664276;71;0.75;violin
383.7654165958333;0.11346154791664276;83;0.75;violin
383.9961858458333;0.11346154791664276;68;0.75;violin
383.9961858458333;0.11346154791664276;80;0.75;violin
384.22695509583326;0.1134615479166996;67;0.75;violin
384.22695509583326;0.1134615479166996;79;0.75;violin
384.4577243458333;0.11346154791664276;66;0.75;violin
384.4577243458333;0.11346154791664276;78;0.75;violin
384.6884935958333;0.11346154791664276;65;0.75;violin
384.6884935958333;0.11346154791664276;77;0.75;violin
384.91926284583326;0.1134615479166996;64;0.75;violin
384.91926284583326;0.1134615479166996;76;0.75;violin
385.1500320958333;0.05576923541667611;74;0.75;violin
385.2654167208333;0.05576923541667611;73;0.75;violin
385.3808013458333;0.05576923541667611;71;0.75;violin
385.49618597083327;0.05576923541667611;69;0.75;violin
385.61157059583326;0.05576923541667611;68;0.75;violin
385.7269552208333;0.05576923541661927;66;0.75;violin
385.8423398458333;0.05576923541667611;64;0.75;violin
385.9577244708333;0.05576923541667611;62;0.75;violin
386.0731090958333;0.05576923541667611;61;0.75;violin
386.18849372083326;0.05576923541667611;59;0.75;violin
386.30387834583325;0.22884617291668974;57;0.75;violin
386.5346475958333;0.05576923541667611;79;0.75;violin
386.6500322208333;0.05576923541667611;78;0.75;violin
386.7654168458333;0.05576923541667611;76;0.75;violin
386.88080147083326;0.05576923541667611;74;0.75;violin
386.9961860958333;0.05576923541661927;73;0.75;violin
387.1115707208333;0.05576923541667611;71;0.75;violin
387.2269553458333;0.05576923541667611;69;0.75;violin
387.3423399708333;0.05576923541667611;67;0.75;violin
387.45772459583327;0.05576923541667611;66;0.75;violin
387.57310922083326;0.05576923541667611;64;0.75;violin
387.6884938458333;0.2288461729166329;62;0.75;violin
387.9192630958333;0.05576923541667611;74;0.75;violin
388.0346477208333;0.05576923541667611;76;0.75;violin
388.15003234583327;0.05576923541667611;78;0.75;violin
388.26541697083326;0.05576923541667611;79;0.75;violin
388.3808015958333;0.05576923541661927;81;0.75;violin
388.4961862208333;0.05576923541667611;83;0.75;violin
388.6115708458333;0.05576923541667611;85;0.75;violin
388.7269554708333;0.05576923541667611;86;0.75;violin
388.84234009583326;0.05576923541667611;88;0.75;violin
388.95772472083326;0.05576923541667611;90;0.75;violin
389.0731093458333;0.2288461729166329;66;0.75;violin
389.3038785958333;0.05576923541667611;76;0.75;violin
389.4192632208333;0.05576923541667611;74;0.75;violin
389.53464784583326;0.05576923541667611;73;0.75;violin
389.65003247083325;0.05576923541667611;71;0.75;violin
389.7654170958333;0.05576923541661927;70;0.75;violin
389.8808017208333;0.05576923541667611;67;0.75;violin
389.9961863458333;0.05576923541667611;66;0.75;violin
390.11157097083327;0.05576923541667611;64;0.75;violin
390.22695559583326;0.05576923541667611;62;0.75;violin
390.3423402208333;0.05576923541661927;61;0.75;violin
390.4577248458333;0.2288461729166329;59;0.75;violin
390.6884940958333;0.05576923541667611;71;0.75;violin
390.80387872083327;0.05576923541667611;73;0.75;violin
390.91926334583326;0.05576923541667611;74;0.75;violin
391.0346479708333;0.05576923541661927;76;0.75;violin
391.1500325958333;0.05576923541667611;78;0.75;violin
391.2654172208333;0.05576923541667611;80;0.75;violin
391.3808018458333;0.05576923541667611;82;0.75;violin
391.49618647083327;0.05576923541667611;83;0.75;violin
391.61157109583326;0.05576923541667611;85;0.75;violin
391.7269557208333;0.05576923541661927;86;0.75;violin
391.8423403458333;0.2288461729166329;64;0.75;violin
392.0731095958333;0.05576923541667611;74;0.75;violin
392.18849422083326;0.05576923541667611;73;0.75;violin
392.3038788458333;0.05576923541661927;71;0.75;violin
392.4192634708333;0.05576923541667611;69;0.75;violin
392.5346480958333;0.05576923541667611;68;0.75;violin
392.6500327208333;0.05576923541667611;66;0.75;violin
392.76541734583327;0.05576923541667611;64;0.75;violin
392.88080197083326;0.05576923541667611;62;0.75;violin
392.99618659583325;0.05576923541667611;61;0.75;violin
393.1115712208333;0.05576923541661927;59;0.75;violin
393.2269558458333;0.2288461729166329;57;0.75;violin
393.45772509583327;0.05576923541667611;69;0.75;violin
393.57310972083326;0.05576923541667611;71;0.75;violin
393.6884943458333;0.05576923541661927;72;0.75;violin
393.8038789708333;0.05576923541667611;74;0.75;violin
393.9192635958333;0.05576923541667611;76;0.75;violin
394.0346482208333;0.05576923541667611;78;0.75;violin
394.15003284583327;0.05576923541667611;80;0.75;violin
394.26541747083326;0.05576923541667611;81;0.75;violin
394.3808020958333;0.05576923541661927;83;0.75;violin
394.4961867208333;0.05576923541667611;84;0.75;violin
394.6115713458333;0.3442307979166799;69;0.75;violin
394.6115713458333;0.3442307979166799;72;0.75;violin
394.6115713458333;0.3442307979166799;77;0.75;violin
395.3038790958333;0.11346154791664276;67;0.75;violin
395.3038790958333;0.11346154791664276;72;0.75;violin
395.3038790958333;0.11346154791664276;79;0.75;violin
395.53464834583326;0.22884617291668974;65;0.75;violin
395.53464834583326;0.22884617291668974;72;0.75;violin
395.53464834583326;0.22884617291668974;81;0.75;violin
395.9961868458333;0.22884617291668974;64;0.75;violin
395.9961868458333;0.22884617291668974;72;0.75;violin
395.9961868458333;0.22884617291668974;82;0.75;violin
396.22695609583326;0.05576923541667611;88;0.75;violin
396.3423407208333;0.05576923541661927;86;0.75;violin
396.4577253458333;0.05576923541667611;84;0.75;violin
396.5731099708333;0.05576923541667611;82;0.75;violin
396.6884945958333;0.05576923541667611;81;0.75;violin
396.80387922083327;0.05576923541667611;79;0.75;violin
396.91926384583326;0.05576923541667611;77;0.75;violin
397.0346484708333;0.05576923541661927;76;0.75;violin
397.1500330958333;0.05576923541667611;74;0.75;violin
397.2654177208333;0.05576923541667611;72;0.75;violin
397.3808023458333;0.3442307979166799;69;0.75;violin
397.3808023458333;0.3442307979166799;72;0.75;violin
397.3808023458333;0.3442307979166799;77;0.75;violin
398.0731100958333;0.1134615479166996;67;0.75;violin
398.0731100958333;0.1134615479166996;72;0.75;violin
398.0731100958333;0.1134615479166996;79;0.75;violin
398.30387934583325;0.22884617291668974;65;0.75;violin
398.30387934583325;0.22884617291668974;72;0.75;violin
398.30387934583325;0.22884617291668974;81;0.75;violin
398.76541784583327;0.22884617291668974;64;0.75;violin
398.76541784583327;0.22884617291668974;72;0.75;violin
398.76541784583327;0.22884617291668974;82;0.75;violin
398.9961870958333;0.05576923541661927;88;0.75;violin
399.1115717208333;0.05576923541667611;86;0.75;violin
399.2269563458333;0.05576923541667611;84;0.75;violin
399.3423409708333;0.05576923541667611;82;0.75;violin
399.45772559583327;0.05576923541667611;81;0.75;violin
399.57311022083326;0.05576923541667611;79;0.75;violin
399.6884948458333;0.05576923541661927;77;0.75;violin
399.8038794708333;0.05576923541667611;76;0.75;violin
399.9192640958333;0.05576923541667611;74;0.75;violin
400.0346487208333;0.05576923541667611;72;0.75;violin
400.15003334583326;0.3442307979166799;69;0.75;violin
400.15003334583326;0.3442307979166799;72;0.75;violin
400.15003334583326;0.3442307979166799;77;0.75;violin
400.84234109583326;0.1134615479166996;67;0.75;violin
400.84234109583326;0.1134615479166996;72;0.75;violin
400.84234109583326;0.1134615479166996;79;0.75;violin
401.0731103458333;0.2288461729166329;65;0.75;violin
401.0731103458333;0.2288461729166329;72;0.75;violin
401.0731103458333;0.2288461729166329;81;0.75;violin
401.53464884583326;0.3442307979166799;63;0.75;violin
401.53464884583326;0.3442307979166799;72;0.75;violin
401.53464884583326;0.3442307979166799;84;0.75;violin
402.22695659583326;0.1134615479166996;63;0.75;violin
402.22695659583326;0.1134615479166996;72;0.75;violin
402.22695659583326;0.1134615479166996;83;0.75;violin
402.4577258458333;0.2288461729166329;63;0.75;violin
402.4577258458333;0.2288461729166329;72;0.75;violin
402.4577258458333;0.2288461729166329;81;0.75;violin
402.91926434583326;0.22884617291668974;64;0.75;violin
402.91926434583326;0.22884617291668974;71;0.75;violin
402.91926434583326;0.22884617291668974;80;0.75;violin
403.1500335958333;0.05576923541667611;76;0.75;violin
403.2654182208333;0.05576923541667611;78;0.75;violin
403.3808028458333;0.05576923541667611;80;0.75;violin
403.49618747083326;0.05576923541667611;81;0.75;violin
403.61157209583325;0.05576923541667611;83;0.75;violin
403.7269567208333;0.05576923541661927;85;0.75;violin
403.8423413458333;0.05576923541667611;86;0.75;violin
403.9577259708333;0.05576923541667611;88;0.75;violin
404.07311059583327;0.05576923541667611;90;0.75;violin
404.18849522083326;0.05576923541667611;92;0.75;violin
404.3038798458333;0.2288461729166329;66;0.75;violin
404.3038798458333;0.2288461729166329;73;0.75;violin
404.3038798458333;0.2288461729166329;81;0.75;violin
404.5346490958333;0.05576923541667611;78;0.75;violin
404.6500337208333;0.05576923541667611;80;0.75;violin
404.76541834583327;0.05576923541667611;81;0.75;violin
404.88080297083326;0.05576923541667611;83;0.75;violin
404.9961875958333;0.05576923541661927;85;0.75;violin
405.1115722208333;0.05576923541667611;86;0.75;violin
405.2269568458333;0.05576923541667611;88;0.75;violin
405.3423414708333;0.05576923541667611;90;0.75;violin
405.45772609583327;0.05576923541667611;92;0.75;violin
405.57311072083326;0.05576923541667611;93;0.75;violin
405.6884953458333;0.6903846729166503;62;0.75;violin
405.6884953458333;0.6903846729166503;69;0.75;violin
405.6884953458333;0.6903846729166503;78;0.75;violin
406.3808030958333;0.11346154791664276;66;0.75;violin
406.3808030958333;0.11346154791664276;69;0.75;violin
406.3808030958333;0.11346154791664276;81;0.75;violin
406.6115723458333;0.22884617291668974;63;0.75;violin
406.6115723458333;0.22884617291668974;72;0.75;violin
406.6115723458333;0.22884617291668974;81;0.75;violin
407.0731108458333;0.6903846729166503;64;0.75;violin
407.0731108458333;0.6903846729166503;73;0.75;violin
407.0731108458333;0.6903846729166503;81;0.75;violin
407.7654185958333;0.11346154791664276;64;0.75;violin
407.7654185958333;0.11346154791664276;74;0.75;violin
407.7654185958333;0.11346154791664276;83;0.75;violin
407.9961878458333;0.22884617291668974;64;0.75;violin
407.9961878458333;0.22884617291668974;71;0.75;violin
407.9961878458333;0.22884617291668974;80;0.75;violin
408.4577263458333;0.45961542291667;69;0.75;violin
408.91926484583325;0.45961542291667;81;0.9921875;violin
408.91926484583325;0.45961542291667;93;0.9921875;violin
409.38080334583327;0.45961542291667;83;0.9921875;violin
409.38080334583327;0.45961542291667;95;0.9921875;violin
409.8423418458333;0.6903846729166503;85;0.9921875;violin
409.8423418458333;0.6903846729166503;97;0.9921875;violin
410.5346495958333;0.22884617291668974;86;0.9921875;violin
410.5346495958333;0.22884617291668974;98;0.9921875;violin
410.76541884583327;0.45961542291667;88;0.9921875;violin
410.76541884583327;0.45961542291667;100;0.9921875;violin
411.2269573458333;0.6903846729166503;65;0.75;violin
411.2269573458333;0.6903846729166503;74;0.75;violin
411.2269573458333;0.6903846729166503;80;0.75;violin
411.9192650958333;0.22884617291668974;71;0.75;violin
411.9192650958333;0.22884617291668974;74;0.75;violin
411.9192650958333;0.22884617291668974;80;0.75;violin
412.15003434583326;0.22884617291668974;64;0.75;violin
412.3808035958333;0.05576923541661927;83;0.75;violin
412.4961882208333;0.05576923541667611;81;0.75;violin
412.6115728458333;0.05576923541667611;80;0.75;violin
412.72695747083327;0.05576923541667611;78;0.75;violin
412.84234209583326;0.05576923541667611;76;0.75;violin
412.9577267208333;0.05576923541661927;74;0.75;violin
413.0731113458333;0.05576923541667611;73;0.75;violin
413.1884959708333;0.05576923541667611;71;0.75;violin
413.3038805958333;0.05576923541667611;69;0.75;violin
413.41926522083327;0.05576923541667611;68;0.75;violin
413.53464984583326;0.05576923541667611;66;0.75;violin
413.6500344708333;0.05576923541661927;64;0.75;violin
413.7654190958333;0.036538464583316;62;0.75;violin
413.8423421791666;0.036538464583316;61;0.75;violin
413.91926526249995;0.036538464583316;59;0.75;violin
413.9961883458333;0.45961542291667;57;0.75;violin
413.9961883458333;0.45961542291667;64;0.75;violin
413.9961883458333;0.45961542291667;73;0.75;violin
413.9961883458333;0.45961542291667;81;0.75;violin
