start;duration;pitch;velocity;instrument
0.0;1.3319451104166666;63;0.875;violin
0.0;1.3319451104166666;75;0.9921875;violin
1.333334;0.08055559583333327;59;0.875;violin
1.333334;0.08055559583333327;71;0.9921875;violin
1.4152784854166667;0.08055559583333327;60;0.875;violin
1.4152784854166667;0.08055559583333327;72;0.9921875;violin
1.50000075;0.08055559583333327;59;0.875;violin
1.50000075;0.08055559583333327;71;0.9921875;violin
1.5819452354166668;0.08055559583333327;60;0.875;violin
1.5819452354166668;0.08055559583333327;72;0.9921875;violin
1.6666675;0.0805555958333335;59;0.875;violin
1.6666675;0.0805555958333335;71;0.9921875;violin
1.7486119854166666;0.0805555958333335;60;0.875;violin
1.7486119854166666;0.0805555958333335;72;0.9921875;violin
1.83333425;0.08055559583333327;59;0.875;violin
1.83333425;0.08055559583333327;71;0.9921875;violin
1.9152787354166667;0.08055559583333327;60;0.875;violin
1.9152787354166667;0.08055559583333327;72;0.9921875;violin
2.000001;0.08055559583333327;59;0.875;violin
2.000001;0.08055559583333327;71;0.9921875;violin
2.0819454854166666;0.08055559583333372;60;0.875;violin
2.0819454854166666;0.08055559583333372;72;0.9921875;violin
2.1666677500000002;0.08055559583333327;59;0.875;violin
2.1666677500000002;0.08055559583333327;71;0.9921875;violin
2.2486122354166667;0.08055559583333327;60;0.875;violin
2.2486122354166667;0.08055559583333327;72;0.9921875;violin
2.3333345;0.08055559583333372;59;0.875;violin
2.3333345;0.08055559583333372;71;0.9921875;violin
2.4152789854166667;0.08055559583333327;60;0.875;violin
2.4152789854166667;0.08055559583333327;72;0.9921875;violin
2.50000125;0.08055559583333327;59;0.875;violin
2.50000125;0.08055559583333327;71;0.9921875;violin
2.581945735416667;0.08055559583333327;60;0.875;violin
2.581945735416667;0.08055559583333327;72;0.9921875;violin
2.666668;1.998612110416667;60;0.875;violin
2.666668;1.998612110416667;72;0.9921875;violin
5.16666925;0.16527786041666648;58;0.875;violin
5.16666925;0.16527786041666648;70;0.9921875;violin
5.333336;1.331945110416667;57;0.875;violin
5.333336;1.331945110416667;69;0.9921875;violin
6.66667;0.08055559583333327;56;0.875;violin
6.66667;0.08055559583333327;68;0.9921875;violin
6.748614485416667;0.08055559583333327;58;0.875;violin
6.748614485416667;0.08055559583333327;70;0.9921875;violin
6.83333675;0.08055559583333327;56;0.875;violin
6.83333675;0.08055559583333327;68;0.9921875;violin
6.915281235416667;0.08055559583333327;58;0.875;violin
6.915281235416667;0.08055559583333327;70;0.9921875;violin
7.0000035;0.08055559583333327;56;0.875;violin
7.0000035;0.08055559583333327;68;0.9921875;violin
7.081947985416667;0.08055559583333327;58;0.875;violin
7.081947985416667;0.08055559583333327;70;0.9921875;violin
7.16667025;0.08055559583333327;56;0.875;violin
7.16667025;0.08055559583333327;68;0.9921875;violin
7.248614735416667;0.08055559583333327;58;0.875;violin
7.248614735416667;0.08055559583333327;70;0.9921875;violin
7.333337;0.08055559583333327;56;0.875;violin
7.333337;0.08055559583333327;68;0.9921875;violin
7.415281485416667;0.08055559583333327;58;0.875;violin
7.415281485416667;0.08055559583333327;70;0.9921875;violin
7.50000375;0.08055559583333327;56;0.875;violin
7.50000375;0.08055559583333327;68;0.9921875;violin
7.581948235416667;0.08055559583333327;58;0.875;violin
7.581948235416667;0.08055559583333327;70;0.9921875;violin
7.6666705;0.08055559583333327;56;0.875;violin
7.6666705;0.08055559583333327;68;0.9921875;violin
7.748614985416667;0.08055559583333327;58;0.875;violin
7.748614985416667;0.08055559583333327;70;0.9921875;violin
7.8333372500000005;0.08055559583333327;56;0.875;violin
7.8333372500000005;0.08055559583333327;68;0.9921875;violin
7.915281735416667;0.08055559583333327;58;0.875;violin
7.915281735416667;0.08055559583333327;70;0.9921875;violin
8.000004;1.9986121104166656;55;0.9921875;violin
8.000004;1.9986121104166656;67;0.9921875;violin
10.666672;0.16527786041666737;56;0.9921875;violin
10.833338750000001;0.1652778604166656;70;0.3828125;violin
11.0000055;0.16527786041666737;72;0.3828125;violin
11.16667225;0.16527786041666737;74;0.3828125;violin
11.333339;0.16527786041666737;75;0.3828125;violin
11.50000575;0.16527786041666737;77;0.3828125;violin
11.6666725;0.1652778604166656;79;0.3828125;violin
11.83333925;0.16527786041666737;80;0.3828125;violin
12.000006;0.1652778604166656;82;0.3828125;violin
12.16667275;0.16527786041666737;84;0.3828125;violin
12.333339500000001;0.1652778604166656;86;0.3828125;violin
12.50000625;0.16527786041666737;87;0.3828125;violin
12.666673000000001;0.1652778604166656;89;0.3828125;violin
12.83333975;0.16527786041666737;91;0.3828125;violin
13.0000065;0.16527786041666737;92;0.3828125;violin
13.16667325;0.16527786041666737;94;0.3828125;violin
13.33334;0.16527786041666737;55;0.8984375;violin
13.50000675;0.1652778604166656;75;0.3828125;violin
13.6666735;0.16527786041666737;77;0.3828125;violin
13.833340250000001;0.1652778604166656;79;0.3828125;violin
14.000007;0.16527786041666737;80;0.3828125;violin
14.166673750000001;0.1652778604166656;82;0.3828125;violin
14.3333405;0.16527786041666737;84;0.3828125;violin
14.500007250000001;0.1652778604166656;86;0.3828125;violin
14.666674;0.16527786041666737;87;0.3828125;violin
14.833340750000001;0.1652778604166656;89;0.3828125;violin
15.0000075;0.16527786041666737;91;0.3828125;violin
15.16667425;0.16527786041666737;92;0.3828125;violin
15.333341;0.1652778604166656;94;0.3828125;violin
15.50000775;0.16527786041666737;96;0.3828125;violin
15.666674500000001;0.1652778604166656;98;0.3828125;violin
15.83334125;0.16527786041666737;99;0.3828125;violin
16.000008;0.665278110416665;56;0.75;violin
16.000008;0.665278110416665;63;0.75;violin
16.000008;0.665278110416665;72;0.75;violin
16.000008;0.665278110416665;80;0.75;violin
17.333342000000002;0.665278110416665;58;0.75;violin
17.333342000000002;0.665278110416665;65;0.75;violin
17.333342000000002;0.665278110416665;74;0.75;violin
17.333342000000002;0.665278110416665;82;0.75;violin
19.3319531125;0.16527786041666914;63;0.5;violin
19.3319531125;2.6652791104166695;75;0.5;violin
19.4986198625;0.1652778604166656;65;0.5;violin
19.6652866125;0.1652778604166656;67;0.5;violin
19.831953362500002;0.1652778604166656;65;0.5;violin
19.9986201125;0.16527786041666914;63;0.5;violin
20.1652868625;0.1652778604166656;65;0.5;violin
20.3319536125;0.1652778604166656;67;0.5;violin
20.4986203625;0.16527786041666914;65;0.5;violin
20.6652871125;0.16527786041666914;63;0.5;violin
20.8319538625;0.1652778604166656;65;0.5;violin
20.9986206125;0.1652778604166656;67;0.5;violin
21.1652873625;0.16527786041666914;65;0.5;violin
21.3319541125;0.1652778604166656;63;0.5;violin
21.4986208625;0.1652778604166656;65;0.5;violin
21.665287612500002;0.1652778604166656;67;0.5;violin
21.8319543625;0.16527786041666914;63;0.5;violin
21.9986211125;0.1652778604166656;65;0.5;violin
21.9986211125;2.665279110416666;74;0.5;violin
22.1652878625;0.1652778604166656;67;0.5;violin
22.3319546125;0.16527786041666914;68;0.5;violin
22.4986213625;0.16527786041666914;67;0.5;violin
22.6652881125;0.1652778604166656;65;0.5;violin
22.8319548625;0.1652778604166656;67;0.5;violin
22.9986216125;0.16527786041666914;68;0.5;violin
23.1652883625;0.1652778604166656;67;0.5;violin
23.3319551125;0.1652778604166656;65;0.5;violin
23.498621862500002;0.1652778604166656;67;0.5;violin
23.6652886125;0.16527786041666914;68;0.5;violin
23.8319553625;0.1652778604166656;67;0.5;violin
23.9986221125;0.1652778604166656;65;0.5;violin
24.1652888625;0.16527786041666914;67;0.5;violin
24.3319556125;0.16527786041666914;68;0.5;violin
24.4986223625;0.1652778604166656;65;0.5;violin
24.665289112500002;0.1652778604166656;67;0.5;violin
24.665289112500002;2.665279110416666;73;0.5;violin
24.831955862500003;0.1652778604166656;68;0.5;violin
24.9986226125;0.1652778604166656;70;0.5;violin
25.1652893625;0.1652778604166656;68;0.5;violin
25.331956112500002;0.1652778604166656;67;0.5;violin
25.4986228625;0.16527786041666914;68;0.5;violin
25.6652896125;0.1652778604166656;70;0.5;violin
25.8319563625;0.1652778604166656;68;0.5;violin
25.9986231125;0.16527786041666914;67;0.5;violin
26.1652898625;0.16527786041666914;68;0.5;violin
26.3319566125;0.1652778604166656;70;0.5;violin
26.498623362500002;0.1652778604166656;68;0.5;violin
26.665290112500003;0.1652778604166656;67;0.5;violin
26.8319568625;0.1652778604166656;68;0.5;violin
26.9986236125;0.1652778604166656;70;0.5;violin
27.165290362500002;0.1652778604166656;67;0.5;violin
27.3319571125;0.1652778604166656;68;0.5;violin
27.3319571125;0.33333350000000195;72;0.5;violin
27.4986238625;0.16527786041666914;70;0.5;violin
27.6652906125;0.6666669999999968;72;0.5;violin
27.8319573625;0.16527786041666914;70;0.5;violin
27.998624112500003;0.1652778604166656;68;0.5;violin
28.1652908625;0.1652778604166656;70;0.5;violin
28.3319576125;0.6666670000000039;72;0.5;violin
28.498624362500003;0.1652778604166656;70;0.5;violin
28.6652911125;0.1652778604166656;68;0.5;violin
28.8319578625;0.1652778604166656;70;0.5;violin
28.998624612500002;0.6666669999999968;72;0.5;violin
29.1652913625;0.1652778604166656;70;0.5;violin
29.3319581125;0.16527786041666914;68;0.5;violin
29.4986248625;0.1652778604166656;70;0.5;violin
29.6652916125;0.3319446104166701;72;0.5;violin
29.831958362500004;0.1652778604166656;68;0.5;violin
29.9986251125;1.3319451104166689;62;0.59375;violin
29.9986251125;0.1652778604166656;77;0.5;violin
30.1652918625;0.16527786041666914;79;0.5;violin
30.331958612500003;0.1652778604166656;80;0.5;violin
30.4986253625;0.1652778604166656;79;0.5;violin
30.6652921125;0.1652778604166656;77;0.5;violin
30.831958862500002;0.1652778604166656;79;0.5;violin
30.9986256125;0.1652778604166656;80;0.5;violin
31.1652923625;0.16527786041666914;77;0.5;violin
31.3319591125;1.3319451104166689;63;0.59375;violin
31.3319591125;0.1652778604166656;79;0.5;violin
31.4986258625;0.16527786041666914;77;0.5;violin
31.665292612500004;0.1652778604166656;75;0.5;violin
31.8319593625;0.1652778604166656;74;0.5;violin
31.9986261125;0.1652778604166727;75;0.5;violin
32.1652928625;0.1652778604166656;74;0.5;violin
32.3319596125;0.1652778604166656;72;0.5;violin
32.498626362500005;0.1652778604166656;70;0.5;violin
32.6652931125;1.3319451104166617;62;0.59375;violin
32.6652931125;0.1652778604166656;77;0.5;violin
32.8319598625;0.1652778604166656;79;0.5;violin
32.998626612500004;0.1652778604166656;80;0.5;violin
33.1652933625;0.1652778604166656;79;0.5;violin
33.3319601125;0.1652778604166656;77;0.5;violin
33.498626862500004;0.1652778604166656;79;0.5;violin
33.6652936125;0.1652778604166656;80;0.5;violin
33.8319603625;0.1652778604166656;77;0.5;violin
33.9986271125;1.3319451104166689;63;0.59375;violin
33.9986271125;0.1652778604166656;79;0.5;violin
34.1652938625;0.1652778604166656;77;0.5;violin
34.3319606125;0.1652778604166656;75;0.5;violin
34.4986273625;0.1652778604166656;74;0.5;violin
34.6652941125;0.1652778604166656;75;0.5;violin
34.8319608625;0.1652778604166727;74;0.5;violin
34.9986276125;0.1652778604166656;72;0.5;violin
35.1652943625;0.1652778604166727;70;0.5;violin
35.3319611125;0.1652778604166727;63;0.5;violin
35.3319611125;2.0000010000000046;69;0.5;violin
35.4986278625;0.1652778604166656;65;0.5;violin
35.665294612500006;0.1652778604166656;66;0.5;violin
35.831961362499996;0.1652778604166727;65;0.5;violin
35.9986281125;0.1652778604166656;63;0.5;violin
36.165294862500005;0.1652778604166656;65;0.5;violin
36.3319616125;0.1652778604166656;66;0.5;violin
36.4986283625;0.1652778604166656;65;0.5;violin
36.665295112500004;0.1652778604166656;66;0.5;violin
36.8319618625;0.1652778604166656;65;0.5;violin
36.9986286125;0.1652778604166656;63;0.5;violin
37.165295362500004;0.1652778604166656;72;0.5;violin
37.3319621125;0.665278110416665;69;0.5;violin
37.4986288625;0.1652778604166656;66;0.5;violin
37.6652956125;0.1652778604166656;65;0.5;violin
37.8319623625;0.1652778604166656;63;0.5;violin
37.9986291125;0.1652778604166656;62;0.5;violin
37.9986291125;0.1652778604166656;70;0.5;violin
38.1652958625;0.08194448541667043;58;0.5;violin
38.3319626125;0.08194448541666333;60;0.5;violin
38.4986293625;0.08194448541667043;62;0.5;violin
38.6652961125;0.08194448541667043;63;0.5;violin
38.831962862500006;0.08194448541665622;65;0.5;violin
38.9986296125;0.08194448541667043;67;0.5;violin
39.1652963625;0.08194448541667043;69;0.5;violin
39.331963112500006;0.08194448541666333;70;0.5;violin
39.498629862499996;0.08194448541667043;72;0.5;violin
39.6652966125;0.08194448541667043;74;0.5;violin
39.831963362500005;0.08194448541666333;75;0.5;violin
39.9986301125;0.08194448541666333;77;0.5;violin
40.1652968625;0.08194448541667043;79;0.5;violin
40.331963612500005;0.08194448541666333;81;0.5;violin
40.4986303625;0.08194448541666333;82;0.5;violin
40.6652971125;0.1652778604166656;75;0.5;violin
40.6652971125;2.0000009999999975;81;0.5;violin
40.831963862500004;0.1652778604166656;77;0.5;violin
40.9986306125;0.1652778604166656;78;0.5;violin
41.1652973625;0.1652778604166656;77;0.5;violin
41.3319641125;0.1652778604166656;75;0.5;violin
41.4986308625;0.1652778604166656;77;0.5;violin
41.6652976125;0.1652778604166656;78;0.5;violin
41.8319643625;0.1652778604166656;77;0.5;violin
41.9986311125;0.1652778604166727;78;0.5;violin
42.1652978625;0.1652778604166656;77;0.5;violin
42.3319646125;0.1652778604166656;75;0.5078125;violin
42.49863136250001;0.1652778604166656;84;0.515625;violin
42.6652981125;0.6652781104166721;81;0.5234375;violin
42.8319648625;0.1652778604166656;78;0.53125;violin
42.998631612500006;0.1652778604166656;77;0.53125;violin
43.165298362499996;0.1652778604166727;75;0.5390625;violin
43.3319651125;0.1652778604166656;74;0.546875;violin
43.3319651125;0.1652778604166656;82;0.546875;violin
43.498631862500005;0.1652778604166656;77;0.5546875;violin
43.498631862500005;0.1652778604166656;86;0.5546875;violin
43.6652986125;0.1652778604166656;72;0.5625;violin
43.6652986125;0.1652778604166656;81;0.5625;violin
43.8319653625;0.1652778604166656;75;0.5625;violin
43.8319653625;0.1652778604166656;84;0.5625;violin
43.998632112500005;0.1652778604166656;70;0.5703125;violin
43.998632112500005;0.1652778604166656;79;0.5703125;violin
44.1652988625;0.1652778604166656;74;0.578125;violin
44.1652988625;0.1652778604166656;82;0.578125;violin
44.3319656125;0.1652778604166656;69;0.5859375;violin
44.3319656125;0.1652778604166656;77;0.5859375;violin
44.498632362500004;0.1652778604166656;72;0.59375;violin
44.498632362500004;0.1652778604166656;81;0.59375;violin
44.6652991125;0.1652778604166656;67;0.59375;violin
44.6652991125;0.1652778604166656;75;0.59375;violin
44.8319658625;0.1652778604166656;70;0.6015625;violin
44.8319658625;0.1652778604166656;79;0.6015625;violin
44.9986326125;0.1652778604166656;65;0.609375;violin
44.9986326125;0.1652778604166656;74;0.609375;violin
45.1652993625;0.1652778604166656;69;0.6171875;violin
45.1652993625;0.1652778604166656;77;0.6171875;violin
45.3319661125;0.1652778604166656;63;0.625;violin
45.3319661125;0.1652778604166656;72;0.625;violin
45.4986328625;0.1652778604166656;67;0.625;violin
45.4986328625;0.1652778604166656;75;0.625;violin
45.6652996125;0.1652778604166727;62;0.6328125;violin
45.6652996125;0.1652778604166727;70;0.6328125;violin
45.8319663625;0.1652778604166656;65;0.640625;violin
45.8319663625;0.1652778604166656;74;0.640625;violin
45.9986331125;0.1652778604166656;63;0.6484375;violin
45.9986331125;0.1652778604166656;70;0.6484375;violin
46.16529986250001;0.1652778604166656;75;0.65625;violin
46.3319666125;0.1652778604166727;72;0.65625;violin
46.4986333625;0.1652778604166656;70;0.6640625;violin
46.665300112500006;0.1652778604166656;64;0.671875;violin
46.665300112500006;0.1652778604166656;70;0.671875;violin
46.831966862499996;0.1652778604166727;73;0.6796875;violin
46.9986336125;0.1652778604166656;72;0.6875;violin
47.165300362500005;0.1652778604166656;70;0.6875;violin
47.3319671125;0.1652778604166656;65;0.6953125;violin
47.3319671125;0.1652778604166656;70;0.6953125;violin
47.4986338625;0.1652778604166656;74;0.703125;violin
47.665300612500005;0.1652778604166656;72;0.7109375;violin
47.8319673625;0.1652778604166656;70;0.71875;violin
47.9986341125;0.1652778604166656;65;0.71875;violin
47.9986341125;0.1652778604166656;69;0.71875;violin
48.165300862500004;0.1652778604166656;75;0.7265625;violin
48.3319676125;0.1652778604166656;72;0.734375;violin
48.4986343625;0.1652778604166656;69;0.7421875;violin
48.6653011125;0.1652778604166656;58;0.75;violin
48.6653011125;0.1652778604166656;62;0.75;violin
48.8319678625;0.08194448541666333;70;0.75;violin
48.8319678625;0.08194448541666333;74;0.75;violin
48.9986346125;0.08194448541667043;72;0.75;violin
48.9986346125;0.08194448541667043;75;0.75;violin
49.1653013625;0.08194448541667043;74;0.75;violin
49.1653013625;0.08194448541667043;77;0.75;violin
49.3319681125;0.08194448541666333;75;0.75;violin
49.3319681125;0.08194448541666333;79;0.75;violin
49.4986348625;0.08194448541667043;77;0.75;violin
49.4986348625;0.08194448541667043;81;0.75;violin
49.6653016125;0.08194448541667043;79;0.75;violin
49.6653016125;0.08194448541667043;82;0.75;violin
49.83196836250001;0.08194448541666333;81;0.75;violin
49.83196836250001;0.08194448541666333;84;0.75;violin
49.9986351125;0.08194448541667043;82;0.75;violin
49.9986351125;0.08194448541667043;86;0.75;violin
50.1653018625;0.08194448541667043;81;0.75;violin
50.1653018625;0.08194448541667043;84;0.75;violin
50.331968612500006;0.08194448541666333;79;0.75;violin
50.331968612500006;0.08194448541666333;82;0.75;violin
50.498635362499996;0.08194448541667043;78;0.75;violin
50.498635362499996;0.08194448541667043;81;0.75;violin
50.6653021125;0.08194448541667043;79;0.75;violin
50.6653021125;0.08194448541667043;82;0.75;violin
50.831968862500005;0.08194448541666333;78;0.75;violin
50.831968862500005;0.08194448541666333;81;0.75;violin
50.9986356125;0.08194448541666333;79;0.75;violin
50.9986356125;0.08194448541666333;82;0.75;violin
51.1653023625;0.08194448541667043;78;0.75;violin
51.1653023625;0.08194448541667043;81;0.75;violin
51.331969112500005;0.08194448541667043;81;0.75;violin
51.331969112500005;0.08194448541667043;84;0.75;violin
51.498635862499995;0.08194448541667043;79;0.75;violin
51.498635862499995;0.08194448541667043;82;0.75;violin
51.6653026125;0.08194448541667043;78;0.75;violin
51.6653026125;0.08194448541667043;81;0.75;violin
51.831969362500004;0.08194448541667043;79;0.75;violin
51.831969362500004;0.08194448541667043;82;0.75;violin
51.99863611250001;0.08194448541665622;77;0.75;violin
51.99863611250001;0.08194448541665622;81;0.75;violin
52.1653028625;0.08194448541667043;75;0.75;violin
52.1653028625;0.08194448541667043;79;0.75;violin
52.331969612500004;0.08194448541667043;74;0.75;violin
52.331969612500004;0.08194448541667043;77;0.75;violin
52.49863636250001;0.08194448541665622;72;0.75;violin
52.49863636250001;0.08194448541665622;75;0.75;violin
52.6653031125;0.08194448541667043;70;0.75;violin
52.6653031125;0.08194448541667043;74;0.75;violin
52.8319698625;0.08194448541667043;72;0.75;violin
52.8319698625;0.08194448541667043;75;0.75;violin
52.99863661250001;0.08194448541665622;73;0.75;violin
52.99863661250001;0.08194448541665622;76;0.75;violin
53.1653033625;0.08194448541667043;74;0.75;violin
53.1653033625;0.08194448541667043;77;0.75;violin
53.3319701125;0.08194448541667043;74;0.75;violin
53.3319701125;0.08194448541667043;77;0.75;violin
53.49863686250001;0.08194448541665622;72;0.75;violin
53.49863686250001;0.08194448541665622;75;0.75;violin
53.6653036125;0.08194448541667043;70;0.75;violin
53.6653036125;0.08194448541667043;74;0.75;violin
53.8319703625;0.08194448541667043;69;0.75;violin
53.8319703625;0.08194448541667043;72;0.75;violin
53.998637112500006;0.1652778604166656;70;0.75;violin
53.998637112500006;0.1652778604166656;74;0.75;violin
54.1653038625;0.1652778604166656;58;0.2578125;violin
54.1653038625;0.1652778604166656;62;0.2578125;violin
54.3319706125;0.1652778604166656;60;0.2578125;violin
54.3319706125;0.1652778604166656;63;0.2578125;violin
54.498637362500006;0.1652778604166656;62;0.2578125;violin
54.498637362500006;0.1652778604166656;65;0.2578125;violin
54.665304112499996;0.1652778604166656;63;0.2578125;violin
54.665304112499996;0.1652778604166656;67;0.2578125;violin
54.8319708625;0.1652778604166656;65;0.2578125;violin
54.8319708625;0.1652778604166656;69;0.2578125;violin
54.998637612500005;0.1652778604166656;67;0.2578125;violin
54.998637612500005;0.1652778604166656;70;0.2578125;violin
55.165304362499995;0.1652778604166798;69;0.2578125;violin
55.165304362499995;0.1652778604166798;72;0.2578125;violin
55.3319711125;0.1652778604166656;70;0.2578125;violin
55.3319711125;0.1652778604166656;74;0.2578125;violin
55.498637862500004;0.1652778604166656;69;0.2578125;violin
55.498637862500004;0.1652778604166656;72;0.2578125;violin
55.66530461250001;0.1652778604166656;67;0.2578125;violin
55.66530461250001;0.1652778604166656;70;0.2578125;violin
55.8319713625;0.1652778604166656;66;0.2578125;violin
55.8319713625;0.1652778604166656;69;0.2578125;violin
55.998638112500004;0.1652778604166656;67;0.2578125;violin
55.998638112500004;0.1652778604166656;70;0.2578125;violin
56.16530486250001;0.1652778604166656;66;0.2578125;violin
56.16530486250001;0.1652778604166656;69;0.2578125;violin
56.3319716125;0.1652778604166656;67;0.2578125;violin
56.3319716125;0.1652778604166656;70;0.2578125;violin
56.4986383625;0.1652778604166656;66;0.2578125;violin
56.4986383625;0.1652778604166656;69;0.2578125;violin
56.66530511250001;0.1652778604166656;69;0.2578125;violin
56.66530511250001;0.1652778604166656;72;0.2578125;violin
56.8319718625;0.1652778604166656;67;0.2578125;violin
56.8319718625;0.1652778604166656;70;0.2578125;violin
56.9986386125;0.1652778604166656;66;0.2578125;violin
56.9986386125;0.1652778604166656;69;0.2578125;violin
57.16530536250001;0.1652778604166656;67;0.2578125;violin
57.16530536250001;0.1652778604166656;70;0.2578125;violin
57.3319721125;0.1652778604166656;65;0.2578125;violin
57.3319721125;0.1652778604166656;69;0.2578125;violin
57.4986388625;0.1652778604166656;63;0.2578125;violin
57.4986388625;0.1652778604166656;67;0.2578125;violin
57.665305612500006;0.1652778604166656;62;0.2578125;violin
57.665305612500006;0.1652778604166656;65;0.2578125;violin
57.8319723625;0.1652778604166656;60;0.2578125;violin
57.8319723625;0.1652778604166656;63;0.2578125;violin
57.9986391125;0.1652778604166656;58;0.2578125;violin
57.9986391125;0.1652778604166656;62;0.2578125;violin
58.165305862500006;0.1652778604166656;60;0.2578125;violin
58.165305862500006;0.1652778604166656;63;0.2578125;violin
58.331972612499996;0.1652778604166656;61;0.2578125;violin
58.331972612499996;0.1652778604166656;64;0.2578125;violin
58.4986393625;0.1652778604166656;62;0.2578125;violin
58.4986393625;0.1652778604166656;65;0.2578125;violin
58.665306112500005;0.1652778604166656;62;0.2578125;violin
58.665306112500005;0.1652778604166656;65;0.2578125;violin
58.831972862499995;0.1652778604166798;60;0.2578125;violin
58.831972862499995;0.1652778604166798;63;0.2578125;violin
58.9986396125;0.1652778604166656;58;0.2578125;violin
58.9986396125;0.1652778604166656;62;0.2578125;violin
59.165306362500004;0.1652778604166656;57;0.2578125;violin
59.165306362500004;0.1652778604166656;63;0.2578125;violin
59.33197311250001;2.6638882229166683;60;0.2578125;violin
59.33197311250001;2.6638882229166683;63;0.2578125;violin
61.99725022500001;0.665278110416665;58;0.2578125;violin
61.99725022500001;0.665278110416665;62;0.2578125;violin
63.99586133750001;1.3319451104166617;63;0.875;violin
63.99586133750001;1.3319451104166617;75;0.9921875;violin
65.32919533750001;0.0805555958333315;59;0.875;violin
65.32919533750001;0.0805555958333315;71;0.9921875;violin
65.41113982291668;0.0805555958333315;60;0.875;violin
65.41113982291668;0.0805555958333315;72;0.9921875;violin
65.49586208750002;0.0805555958333315;59;0.875;violin
65.49586208750002;0.0805555958333315;71;0.9921875;violin
65.57780657291667;0.0805555958333457;60;0.875;violin
65.57780657291667;0.0805555958333457;72;0.9921875;violin
65.6625288375;0.0805555958333457;59;0.875;violin
65.6625288375;0.0805555958333457;71;0.9921875;violin
65.74447332291668;0.0805555958333315;60;0.875;violin
65.74447332291668;0.0805555958333315;72;0.9921875;violin
65.82919558750001;0.0805555958333315;59;0.875;violin
65.82919558750001;0.0805555958333315;71;0.9921875;violin
65.91114007291668;0.0805555958333315;60;0.875;violin
65.91114007291668;0.0805555958333315;72;0.9921875;violin
65.99586233750001;0.0805555958333315;59;0.875;violin
65.99586233750001;0.0805555958333315;71;0.9921875;violin
66.07780682291668;0.0805555958333315;60;0.875;violin
66.07780682291668;0.0805555958333315;72;0.9921875;violin
66.1625290875;0.0805555958333457;59;0.875;violin
66.1625290875;0.0805555958333457;71;0.9921875;violin
66.24447357291668;0.0805555958333315;60;0.875;violin
66.24447357291668;0.0805555958333315;72;0.9921875;violin
66.32919583750001;0.0805555958333315;59;0.875;violin
66.32919583750001;0.0805555958333315;71;0.9921875;violin
66.41114032291668;0.0805555958333315;60;0.875;violin
66.41114032291668;0.0805555958333315;72;0.9921875;violin
66.49586258750001;0.0805555958333315;59;0.875;violin
66.49586258750001;0.0805555958333315;71;0.9921875;violin
66.57780707291668;0.0805555958333315;60;0.875;violin
66.57780707291668;0.0805555958333315;72;0.9921875;violin
66.66252933750002;1.9986121104166585;60;0.875;violin
66.66252933750002;1.9986121104166585;72;0.9921875;violin
69.16253058750002;0.1652778604166656;58;0.875;violin
69.16253058750002;0.1652778604166656;70;0.9921875;violin
69.3291973375;1.3319451104166689;57;0.875;violin
69.3291973375;1.3319451104166689;69;0.9921875;violin
70.66253133750001;0.0805555958333315;56;0.875;violin
70.66253133750001;0.0805555958333315;68;0.9921875;violin
70.74447582291668;0.0805555958333315;58;0.875;violin
70.74447582291668;0.0805555958333315;70;0.9921875;violin
70.82919808750002;0.0805555958333315;56;0.875;violin
70.82919808750002;0.0805555958333315;68;0.9921875;violin
70.91114257291667;0.0805555958333315;58;0.875;violin
70.91114257291667;0.0805555958333315;70;0.9921875;violin
70.99586483750001;0.0805555958333315;56;0.875;violin
70.99586483750001;0.0805555958333315;68;0.9921875;violin
71.07780932291668;0.0805555958333315;58;0.875;violin
71.07780932291668;0.0805555958333315;70;0.9921875;violin
71.16253158750001;0.0805555958333315;56;0.875;violin
71.16253158750001;0.0805555958333315;68;0.9921875;violin
71.24447607291668;0.0805555958333315;58;0.875;violin
71.24447607291668;0.0805555958333315;70;0.9921875;violin
71.32919833750002;0.0805555958333315;56;0.875;violin
71.32919833750002;0.0805555958333315;68;0.9921875;violin
71.41114282291667;0.0805555958333457;58;0.875;violin
71.41114282291667;0.0805555958333457;70;0.9921875;violin
71.49586508750001;0.0805555958333315;56;0.875;violin
71.49586508750001;0.0805555958333315;68;0.9921875;violin
71.57780957291668;0.0805555958333315;58;0.875;violin
71.57780957291668;0.0805555958333315;70;0.9921875;violin
71.66253183750001;0.0805555958333315;56;0.875;violin
71.66253183750001;0.0805555958333315;68;0.9921875;violin
71.74447632291668;0.0805555958333315;58;0.875;violin
71.74447632291668;0.0805555958333315;70;0.9921875;violin
71.82919858750002;0.0805555958333315;56;0.875;violin
71.82919858750002;0.0805555958333315;68;0.9921875;violin
71.91114307291667;0.0805555958333457;58;0.875;violin
71.91114307291667;0.0805555958333457;70;0.9921875;violin
71.9958653375;1.9986121104166727;55;0.9921875;violin
71.9958653375;1.9986121104166727;67;0.9921875;violin
74.66253333750001;0.1652778604166656;56;0.9921875;violin
74.82920008750001;0.1652778604166656;70;0.3828125;violin
74.99586683750002;0.1652778604166656;72;0.3828125;violin
75.16253358750001;0.1652778604166656;74;0.3828125;violin
75.32920033750001;0.1652778604166656;75;0.3828125;violin
75.49586708750002;0.1652778604166656;77;0.3828125;violin
75.6625338375;0.1652778604166656;79;0.3828125;violin
75.82920058750001;0.1652778604166656;80;0.3828125;violin
75.99586733750002;0.1652778604166656;82;0.3828125;violin
76.1625340875;0.1652778604166656;84;0.3828125;violin
76.32920083750001;0.1652778604166656;86;0.3828125;violin
76.49586758750002;0.1652778604166656;87;0.3828125;violin
76.6625343375;0.1652778604166656;89;0.3828125;violin
76.82920108750001;0.1652778604166656;91;0.3828125;violin
76.99586783750001;0.1652778604166656;92;0.3828125;violin
77.1625345875;0.1652778604166656;94;0.3828125;violin
77.32920133750001;0.1652778604166656;55;0.8984375;violin
77.49586808750001;0.1652778604166656;75;0.3828125;violin
77.6625348375;0.1652778604166798;77;0.3828125;violin
77.82920158750001;0.1652778604166656;79;0.3828125;violin
77.99586833750001;0.1652778604166656;80;0.3828125;violin
78.16253508750002;0.1652778604166656;82;0.3828125;violin
78.32920183750001;0.1652778604166656;84;0.3828125;violin
78.49586858750001;0.1652778604166656;86;0.3828125;violin
78.66253533750002;0.1652778604166656;87;0.3828125;violin
78.82920208750001;0.1652778604166656;89;0.3828125;violin
78.99586883750001;0.1652778604166656;91;0.3828125;violin
79.16253558750002;0.1652778604166656;92;0.3828125;violin
79.3292023375;0.1652778604166656;94;0.3828125;violin
79.49586908750001;0.1652778604166656;96;0.3828125;violin
79.66253583750002;0.1652778604166656;98;0.3828125;violin
79.8292025875;0.1652778604166798;99;0.3828125;violin
79.99586933750001;0.665278110416665;56;0.75;violin
79.99586933750001;0.665278110416665;63;0.75;violin
79.99586933750001;0.665278110416665;72;0.75;violin
79.99586933750001;0.665278110416665;80;0.75;violin
81.32920333750002;0.665278110416665;58;0.75;violin
81.32920333750002;0.665278110416665;65;0.75;violin
81.32920333750002;0.665278110416665;74;0.75;violin
81.32920333750002;0.665278110416665;82;0.75;violin
83.32781445000002;0.1652778604166656;63;0.5;violin
83.32781445000002;2.6652791104166624;75;0.5;violin
83.49448120000001;0.1652778604166656;65;0.5;violin
83.66114795000001;0.1652778604166656;67;0.5;violin
83.82781470000002;0.1652778604166656;65;0.5;violin
83.99448145000001;0.1652778604166656;63;0.5;violin
84.16114820000001;0.1652778604166656;65;0.5;violin
84.32781495000002;0.1652778604166656;67;0.5;violin
84.49448170000001;0.1652778604166656;65;0.5;violin
84.66114845000001;0.1652778604166656;63;0.5;violin
84.82781520000002;0.1652778604166656;65;0.5;violin
84.99448195000001;0.1652778604166798;67;0.5;violin
85.16114870000001;0.1652778604166656;65;0.5;violin
85.32781545000002;0.1652778604166656;63;0.5;violin
85.49448220000001;0.1652778604166798;65;0.5;violin
85.66114895000001;0.1652778604166656;67;0.5;violin
85.82781570000002;0.1652778604166656;63;0.5;violin
85.99448245000002;0.1652778604166656;65;0.5;violin
85.99448245000002;2.6652791104166624;74;0.5;violin
86.16114920000001;0.1652778604166656;67;0.5;violin
86.32781595000002;0.1652778604166656;68;0.5;violin
86.49448270000002;0.1652778604166656;67;0.5;violin
86.66114945000001;0.1652778604166656;65;0.5;violin
86.82781620000002;0.1652778604166656;67;0.5;violin
86.99448295000002;0.1652778604166656;68;0.5;violin
87.16114970000001;0.1652778604166656;67;0.5;violin
87.32781645000001;0.1652778604166656;65;0.5;violin
87.49448320000002;0.1652778604166656;67;0.5;violin
87.66114995000001;0.1652778604166656;68;0.5;violin
87.82781670000001;0.1652778604166656;67;0.5;violin
87.99448345000002;0.1652778604166656;65;0.5;violin
88.16115020000001;0.1652778604166656;67;0.5;violin
88.32781695000001;0.1652778604166656;68;0.5;violin
88.49448370000002;0.1652778604166656;65;0.5;violin
88.66115045000001;0.1652778604166656;67;0.5;violin
88.66115045000001;2.6652791104166766;73;0.5;violin
88.82781720000001;0.1652778604166656;68;0.5;violin
88.99448395000002;0.1652778604166656;70;0.5;violin
89.16115070000001;0.1652778604166798;68;0.5;violin
89.32781745000001;0.1652778604166656;67;0.5;violin
89.49448420000002;0.1652778604166656;68;0.5;violin
89.66115095;0.1652778604166798;70;0.5;violin
89.82781770000001;0.1652778604166656;68;0.5;violin
89.99448445000002;0.1652778604166656;67;0.5;violin
90.16115120000002;0.1652778604166656;68;0.5;violin
90.32781795000001;0.1652778604166656;70;0.5;violin
90.49448470000002;0.1652778604166656;68;0.5;violin
90.66115145000002;0.1652778604166656;67;0.5;violin
90.82781820000001;0.1652778604166656;68;0.5;violin
90.99448495000001;0.1652778604166656;70;0.5;violin
91.16115170000002;0.1652778604166656;67;0.5;violin
91.32781845000001;0.1652778604166656;68;0.5;violin
91.32781845000001;0.33333350000000905;72;0.5;violin
91.49448520000001;0.1652778604166656;70;0.5;violin
91.66115195000002;0.6666669999999897;72;0.5;violin
91.82781870000001;0.1652778604166798;70;0.5;violin
91.99448545000001;0.1652778604166656;68;0.5;violin
92.16115220000002;0.1652778604166656;70;0.5;violin
92.32781895000001;0.6666670000000039;72;0.5;violin
92.49448570000001;0.1652778604166656;70;0.5;violin
92.66115245000002;0.1652778604166656;68;0.5;violin
92.82781920000002;0.1652778604166656;70;0.5;violin
92.99448595000001;0.6666670000000039;72;0.5;violin
93.16115270000002;0.1652778604166656;70;0.5;violin
93.32781945000002;0.1652778604166656;68;0.5;violin
93.49448620000001;0.1652778604166656;70;0.5;violin
93.66115295000002;0.3319446104166701;72;0.5;violin
93.82781970000002;0.1652778604166656;68;0.5;violin
93.99448645000001;1.3319451104166689;62;0.59375;violin
93.99448645000001;0.1652778604166656;77;0.5;violin
94.16115320000002;0.1652778604166656;79;0.5;violin
94.32781995000002;0.1652778604166656;80;0.5;violin
94.49448670000001;0.1652778604166656;79;0.5;violin
94.66115345000001;0.1652778604166656;77;0.5;violin
94.82782020000002;0.1652778604166656;79;0.5;violin
94.99448695000001;0.1652778604166656;80;0.5;violin
95.16115370000001;0.1652778604166656;77;0.5;violin
95.32782045000002;1.3319451104166546;63;0.59375;violin
95.32782045000002;0.1652778604166656;79;0.5;violin
95.49448720000001;0.1652778604166656;77;0.5;violin
95.66115395000001;0.1652778604166656;75;0.5;violin
95.82782070000002;0.1652778604166656;74;0.5;violin
95.99448745000001;0.1652778604166656;75;0.5;violin
96.16115420000001;0.1652778604166656;74;0.5;violin
96.32782095000002;0.1652778604166656;72;0.5;violin
96.49448770000001;0.1652778604166656;70;0.5;violin
96.66115445000001;1.3319451104166689;62;0.59375;violin
96.66115445000001;0.1652778604166656;77;0.5;violin
96.82782120000002;0.1652778604166656;79;0.5;violin
96.99448795;0.1652778604166798;80;0.5;violin
97.16115470000001;0.1652778604166656;79;0.5;violin
97.32782145000002;0.1652778604166656;77;0.5;violin
97.49448820000002;0.1652778604166656;79;0.5;violin
97.66115495000001;0.1652778604166656;80;0.5;violin
97.82782170000002;0.1652778604166656;77;0.5;violin
97.99448845000002;1.3319451104166689;63;0.59375;violin
97.99448845000002;0.1652778604166656;79;0.5;violin
98.16115520000001;0.1652778604166656;77;0.5;violin
98.32782195000001;0.1652778604166656;75;0.5;violin
98.49448870000002;0.1652778604166656;74;0.5;violin
98.66115545000001;0.1652778604166656;75;0.5;violin
98.82782220000001;0.1652778604166656;74;0.5;violin
98.99448895000002;0.1652778604166656;72;0.5;violin
99.16115570000001;0.1652778604166798;70;0.5;violin
99.32782245000001;0.1652778604166656;63;0.5;violin
99.32782245000001;2.0000009999999975;69;0.5;violin
99.49448920000002;0.1652778604166656;65;0.5;violin
99.66115595000002;0.1652778604166656;66;0.5;violin
99.82782270000001;0.1652778604166656;65;0.5;violin
99.99448945000002;0.1652778604166656;63;0.5;violin
100.16115620000002;0.1652778604166656;65;0.5;violin
100.32782295000001;0.1652778604166656;66;0.5;violin
100.49448970000002;0.1652778604166656;65;0.5;violin
100.66115645000002;0.1652778604166656;66;0.5;violin
100.82782320000001;0.1652778604166656;65;0.5;violin
100.99448995000002;0.1652778604166656;63;0.5;violin
101.16115670000002;0.1652778604166656;72;0.5;violin
101.32782345000001;0.665278110416665;69;0.5;violin
101.49449020000002;0.1652778604166656;66;0.5;violin
101.66115695000002;0.1652778604166656;65;0.5;violin
101.82782370000001;0.1652778604166656;63;0.5;violin
101.99449045000001;0.1652778604166656;62;0.5;violin
101.99449045000001;0.1652778604166656;70;0.5;violin
102.16115720000002;0.08194448541667043;58;0.5;violin
102.32782395000001;0.08194448541667043;60;0.5;violin
102.49449070000001;0.08194448541667043;62;0.5;violin
102.66115745000002;0.08194448541667043;63;0.5;violin
102.82782420000001;0.08194448541667043;65;0.5;violin
102.99449095000001;0.08194448541667043;67;0.5;violin
103.16115770000002;0.08194448541667043;69;0.5;violin
103.32782445000001;0.08194448541667043;70;0.5;violin
103.49449120000001;0.08194448541667043;72;0.5;violin
103.66115795000002;0.08194448541667043;74;0.5;violin
103.82782470000001;0.08194448541667043;75;0.5;violin
103.99449145000001;0.08194448541667043;77;0.5;violin
104.16115820000002;0.08194448541667043;79;0.5;violin
104.32782495000001;0.08194448541667043;81;0.5;violin
104.49449170000001;0.08194448541667043;82;0.5;violin
104.66115845000002;0.1652778604166656;75;0.5;violin
104.66115845000002;2.0000009999999975;81;0.5;violin
104.8278252;0.1652778604166798;77;0.5;violin
104.99449195000001;0.1652778604166656;78;0.5;violin
105.16115870000002;0.1652778604166656;77;0.5;violin
105.32782545;0.1652778604166798;75;0.5;violin
105.49449220000001;0.1652778604166656;77;0.5;violin
105.66115895000002;0.1652778604166656;78;0.5;violin
105.82782570000002;0.1652778604166656;77;0.5;violin
105.99449245000001;0.1652778604166798;78;0.5;violin
106.16115920000001;0.1652778604166656;77;0.5;violin
106.32782595000002;0.1652778604166656;75;0.5078125;violin
106.49449270000002;0.1652778604166656;84;0.515625;violin
106.66115945000001;0.665278110416665;81;0.5234375;violin
106.82782620000002;0.1652778604166656;78;0.53125;violin
106.99449295000002;0.1652778604166656;77;0.53125;violin
107.16115970000001;0.1652778604166656;75;0.5390625;violin
107.32782645000002;0.1652778604166656;74;0.546875;violin
107.32782645000002;0.1652778604166656;82;0.546875;violin
107.49449320000002;0.1652778604166656;77;0.5546875;violin
107.49449320000002;0.1652778604166656;86;0.5546875;violin
107.66115995000001;0.1652778604166656;72;0.5625;violin
107.66115995000001;0.1652778604166656;81;0.5625;violin
107.82782670000002;0.1652778604166656;75;0.5625;violin
107.82782670000002;0.1652778604166656;84;0.5625;violin
107.99449345000002;0.1652778604166656;70;0.5703125;violin
107.99449345000002;0.1652778604166656;79;0.5703125;violin
108.16116020000001;0.1652778604166656;74;0.578125;violin
108.16116020000001;0.1652778604166656;82;0.578125;violin
108.32782695000002;0.1652778604166656;69;0.5859375;violin
108.32782695000002;0.1652778604166656;77;0.5859375;violin
108.49449370000002;0.1652778604166656;72;0.59375;violin
108.49449370000002;0.1652778604166656;81;0.59375;violin
108.66116045000001;0.1652778604166656;67;0.59375;violin
108.66116045000001;0.1652778604166656;75;0.59375;violin
108.82782720000002;0.1652778604166656;70;0.6015625;violin
108.82782720000002;0.1652778604166656;79;0.6015625;violin
108.99449395000002;0.1652778604166656;65;0.609375;violin
108.99449395000002;0.1652778604166656;74;0.609375;violin
109.16116070000001;0.1652778604166656;69;0.6171875;violin
109.16116070000001;0.1652778604166656;77;0.6171875;violin
109.32782745000002;0.1652778604166656;63;0.625;violin
109.32782745000002;0.1652778604166656;72;0.625;violin
109.49449420000002;0.1652778604166656;67;0.625;violin
109.49449420000002;0.1652778604166656;75;0.625;violin
109.66116095000001;0.1652778604166656;62;0.6328125;violin
109.66116095000001;0.1652778604166656;70;0.6328125;violin
109.82782770000001;0.1652778604166656;65;0.640625;violin
109.82782770000001;0.1652778604166656;74;0.640625;violin
109.99449445000002;0.1652778604166656;63;0.6484375;violin
109.99449445000002;0.1652778604166656;70;0.6484375;violin
110.16116120000001;0.1652778604166656;75;0.65625;violin
110.32782795000001;0.1652778604166656;72;0.65625;violin
110.49449470000002;0.1652778604166656;70;0.6640625;violin
110.66116145000001;0.1652778604166656;64;0.671875;violin
110.66116145000001;0.1652778604166656;70;0.671875;violin
110.82782820000001;0.1652778604166656;73;0.6796875;violin
110.99449495000002;0.1652778604166656;72;0.6875;violin
111.16116170000001;0.1652778604166656;70;0.6875;violin
111.32782845000001;0.1652778604166656;65;0.6953125;violin
111.32782845000001;0.1652778604166656;70;0.6953125;violin
111.49449520000002;0.1652778604166656;74;0.703125;violin
111.66116195000001;0.1652778604166656;72;0.7109375;violin
111.82782870000001;0.1652778604166656;70;0.71875;violin
111.99449545000002;0.1652778604166656;65;0.71875;violin
111.99449545000002;0.1652778604166656;69;0.71875;violin
112.1611622;0.1652778604166798;75;0.7265625;violin
112.32782895000001;0.1652778604166656;72;0.734375;violin
112.49449570000002;0.1652778604166656;69;0.7421875;violin
112.66116245;0.1652778604166798;58;0.75;violin
112.66116245;0.1652778604166798;62;0.75;violin
112.82782920000001;0.08194448541667043;70;0.75;violin
112.82782920000001;0.08194448541667043;74;0.75;violin
112.99449595000002;0.08194448541667043;72;0.75;violin
112.99449595000002;0.08194448541667043;75;0.75;violin
113.16116270000002;0.08194448541665622;74;0.75;violin
113.16116270000002;0.08194448541665622;77;0.75;violin
113.32782945000001;0.08194448541667043;75;0.75;violin
113.32782945000001;0.08194448541667043;79;0.75;violin
113.49449620000001;0.08194448541667043;77;0.75;violin
113.49449620000001;0.08194448541667043;81;0.75;violin
113.66116295000002;0.08194448541665622;79;0.75;violin
113.66116295000002;0.08194448541665622;82;0.75;violin
113.82782970000002;0.08194448541665622;81;0.75;violin
113.82782970000002;0.08194448541665622;84;0.75;violin
113.99449645000001;0.08194448541667043;82;0.75;violin
113.99449645000001;0.08194448541667043;86;0.75;violin
114.16116320000002;0.08194448541665622;81;0.75;violin
114.16116320000002;0.08194448541665622;84;0.75;violin
114.32782995000002;0.08194448541665622;79;0.75;violin
114.32782995000002;0.08194448541665622;82;0.75;violin
114.49449670000001;0.08194448541667043;78;0.75;violin
114.49449670000001;0.08194448541667043;81;0.75;violin
114.66116345000002;0.08194448541665622;79;0.75;violin
114.66116345000002;0.08194448541665622;82;0.75;violin
114.82783020000002;0.08194448541665622;78;0.75;violin
114.82783020000002;0.08194448541665622;81;0.75;violin
114.99449695000001;0.08194448541667043;79;0.75;violin
114.99449695000001;0.08194448541667043;82;0.75;violin
115.16116370000002;0.08194448541665622;78;0.75;violin
115.16116370000002;0.08194448541665622;81;0.75;violin
115.32783045000002;0.08194448541667043;81;0.75;violin
115.32783045000002;0.08194448541667043;84;0.75;violin
115.49449720000001;0.08194448541667043;79;0.75;violin
115.49449720000001;0.08194448541667043;82;0.75;violin
115.66116395000002;0.08194448541665622;78;0.75;violin
115.66116395000002;0.08194448541665622;81;0.75;violin
115.82783070000002;0.08194448541667043;79;0.75;violin
115.82783070000002;0.08194448541667043;82;0.75;violin
115.99449745000001;0.08194448541667043;77;0.75;violin
115.99449745000001;0.08194448541667043;81;0.75;violin
116.16116420000002;0.08194448541665622;75;0.75;violin
116.16116420000002;0.08194448541665622;79;0.75;violin
116.32783095000002;0.08194448541667043;74;0.75;violin
116.32783095000002;0.08194448541667043;77;0.75;violin
116.49449770000001;0.08194448541667043;72;0.75;violin
116.49449770000001;0.08194448541667043;75;0.75;violin
116.66116445000002;0.08194448541665622;70;0.75;violin
116.66116445000002;0.08194448541665622;74;0.75;violin
116.82783120000002;0.08194448541667043;72;0.75;violin
116.82783120000002;0.08194448541667043;75;0.75;violin
116.99449795000001;0.08194448541667043;73;0.75;violin
116.99449795000001;0.08194448541667043;76;0.75;violin
117.16116470000001;0.08194448541667043;74;0.75;violin
117.16116470000001;0.08194448541667043;77;0.75;violin
117.32783145000002;0.08194448541667043;74;0.75;violin
117.32783145000002;0.08194448541667043;77;0.75;violin
117.49449820000001;0.08194448541667043;72;0.75;violin
117.49449820000001;0.08194448541667043;75;0.75;violin
117.66116495000001;0.08194448541667043;70;0.75;violin
117.66116495000001;0.08194448541667043;74;0.75;violin
117.82783170000002;0.08194448541667043;69;0.75;violin
117.82783170000002;0.08194448541667043;72;0.75;violin
117.99449845000001;0.1652778604166656;70;0.75;violin
117.99449845000001;0.1652778604166656;74;0.75;violin
118.16116520000001;0.1652778604166656;58;0.2578125;violin
118.16116520000001;0.1652778604166656;62;0.2578125;violin
118.32783195000002;0.1652778604166656;60;0.2578125;violin
118.32783195000002;0.1652778604166656;63;0.2578125;violin
118.49449870000001;0.1652778604166656;62;0.2578125;violin
118.49449870000001;0.1652778604166656;65;0.2578125;violin
118.66116545000001;0.1652778604166656;63;0.2578125;violin
118.66116545000001;0.1652778604166656;67;0.2578125;violin
118.82783220000002;0.1652778604166656;65;0.2578125;violin
118.82783220000002;0.1652778604166656;69;0.2578125;violin
118.99449895000001;0.1652778604166656;67;0.2578125;violin
118.99449895000001;0.1652778604166656;70;0.2578125;violin
119.16116570000001;0.1652778604166798;69;0.2578125;violin
119.16116570000001;0.1652778604166798;72;0.2578125;violin
119.32783245000002;0.1652778604166656;70;0.2578125;violin
119.32783245000002;0.1652778604166656;74;0.2578125;violin
119.4944992;0.1652778604166656;69;0.2578125;violin
119.4944992;0.1652778604166656;72;0.2578125;violin
119.66116595000003;0.1652778604166656;67;0.2578125;violin
119.66116595000003;0.1652778604166656;70;0.2578125;violin
119.82783270000002;0.1652778604166656;66;0.2578125;violin
119.82783270000002;0.1652778604166656;69;0.2578125;violin
119.99449945;0.1652778604166656;67;0.2578125;violin
119.99449945;0.1652778604166656;70;0.2578125;violin
120.16116620000003;0.1652778604166656;66;0.2578125;violin
120.16116620000003;0.1652778604166656;69;0.2578125;violin
120.32783295000002;0.1652778604166656;67;0.2578125;violin
120.32783295000002;0.1652778604166656;70;0.2578125;violin
120.4944997;0.1652778604166656;66;0.2578125;violin
120.4944997;0.1652778604166656;69;0.2578125;violin
120.66116645000002;0.1652778604166656;69;0.2578125;violin
120.66116645000002;0.1652778604166656;72;0.2578125;violin
120.82783320000001;0.1652778604166656;67;0.2578125;violin
120.82783320000001;0.1652778604166656;70;0.2578125;violin
120.99449995;0.1652778604166798;66;0.2578125;violin
120.99449995;0.1652778604166798;69;0.2578125;violin
121.16116670000002;0.1652778604166656;67;0.2578125;violin
121.16116670000002;0.1652778604166656;70;0.2578125;violin
121.32783345000001;0.1652778604166656;65;0.2578125;violin
121.32783345000001;0.1652778604166656;69;0.2578125;violin
121.49450020000002;0.1652778604166656;63;0.2578125;violin
121.49450020000002;0.1652778604166656;67;0.2578125;violin
121.66116695000002;0.1652778604166656;62;0.2578125;violin
121.66116695000002;0.1652778604166656;65;0.2578125;violin
121.82783370000001;0.1652778604166656;60;0.2578125;violin
121.82783370000001;0.1652778604166656;63;0.2578125;violin
121.99450045000002;0.1652778604166656;58;0.2578125;violin
121.99450045000002;0.1652778604166656;62;0.2578125;violin
122.16116720000002;0.1652778604166656;60;0.2578125;violin
122.16116720000002;0.1652778604166656;63;0.2578125;violin
122.32783395000001;0.1652778604166656;61;0.2578125;violin
122.32783395000001;0.1652778604166656;64;0.2578125;violin
122.49450070000002;0.1652778604166656;62;0.2578125;violin
122.49450070000002;0.1652778604166656;65;0.2578125;violin
122.66116745000002;0.1652778604166656;62;0.2578125;violin
122.66116745000002;0.1652778604166656;65;0.2578125;violin
122.82783420000001;0.1652778604166656;60;0.2578125;violin
122.82783420000001;0.1652778604166656;63;0.2578125;violin
122.99450095000002;0.1652778604166656;58;0.2578125;violin
122.99450095000002;0.1652778604166656;62;0.2578125;violin
123.16116770000002;0.1652778604166656;57;0.2578125;violin
123.16116770000002;0.1652778604166656;63;0.2578125;violin
123.32783445000001;2.6638882229166683;60;0.2578125;violin
123.32783445000001;2.6638882229166683;63;0.2578125;violin
125.99311156250002;0.665278110416665;58;0.2578125;violin
125.99311156250002;0.665278110416665;62;0.2578125;violin
127.99172267500002;1.3319451104166689;70;0.75;violin
127.99172267500002;1.3319451104166689;82;0.8984375;violin
129.325056675;0.0805555958333457;66;0.75;violin
129.325056675;0.0805555958333457;78;0.8984375;violin
129.40700116041668;0.08055559583331728;67;0.75;violin
129.40700116041668;0.08055559583331728;79;0.8984375;violin
129.491723425;0.0805555958333457;66;0.75;violin
129.491723425;0.0805555958333457;78;0.8984375;violin
129.57366791041667;0.0805555958333457;67;0.75;violin
129.57366791041667;0.0805555958333457;79;0.8984375;violin
129.65839017500002;0.08055559583331728;66;0.75;violin
129.65839017500002;0.08055559583331728;78;0.8984375;violin
129.7403346604167;0.08055559583331728;67;0.75;violin
129.7403346604167;0.08055559583331728;79;0.8984375;violin
129.825056925;0.0805555958333457;66;0.75;violin
129.825056925;0.0805555958333457;78;0.8984375;violin
129.90700141041668;0.08055559583331728;67;0.75;violin
129.90700141041668;0.08055559583331728;79;0.8984375;violin
129.991723675;0.0805555958333457;66;0.75;violin
129.991723675;0.0805555958333457;78;0.8984375;violin
130.07366816041667;0.0805555958333457;67;0.75;violin
130.07366816041667;0.0805555958333457;79;0.8984375;violin
130.15839042500002;0.08055559583331728;66;0.75;violin
130.15839042500002;0.08055559583331728;78;0.8984375;violin
130.2403349104167;0.08055559583331728;67;0.75;violin
130.2403349104167;0.08055559583331728;79;0.8984375;violin
130.325057175;0.0805555958333457;66;0.75;violin
130.325057175;0.0805555958333457;78;0.8984375;violin
130.40700166041668;0.0805555958333457;67;0.75;violin
130.40700166041668;0.0805555958333457;79;0.8984375;violin
130.491723925;0.0805555958333457;66;0.75;violin
130.491723925;0.0805555958333457;78;0.8984375;violin
130.57366841041667;0.0805555958333457;67;0.75;violin
130.57366841041667;0.0805555958333457;79;0.8984375;violin
130.65839067500002;1.9986121104166727;67;0.75;violin
130.65839067500002;1.9986121104166727;79;0.8984375;violin
133.15839192500002;0.1652778604166656;65;0.75;violin
133.15839192500002;0.1652778604166656;77;0.8984375;violin
133.325058675;1.331945110416683;64;0.75;violin
133.325058675;1.331945110416683;76;0.8984375;violin
134.65839267500002;0.0805555958333457;63;0.75;violin
134.65839267500002;0.0805555958333457;75;0.8984375;violin
134.7403371604167;0.08055559583331728;65;0.75;violin
134.7403371604167;0.08055559583331728;77;0.8984375;violin
134.825059425;0.0805555958333457;63;0.75;violin
134.825059425;0.0805555958333457;75;0.8984375;violin
134.90700391041668;0.0805555958333457;65;0.75;violin
134.90700391041668;0.0805555958333457;77;0.8984375;violin
134.99172617500003;0.08055559583331728;63;0.75;violin
134.99172617500003;0.08055559583331728;75;0.8984375;violin
135.07367066041667;0.0805555958333457;65;0.75;violin
135.07367066041667;0.0805555958333457;77;0.8984375;violin
135.15839292500002;0.0805555958333457;63;0.75;violin
135.15839292500002;0.0805555958333457;75;0.8984375;violin
135.24033741041669;0.08055559583331728;65;0.75;violin
135.24033741041669;0.08055559583331728;77;0.8984375;violin
135.325059675;0.0805555958333457;63;0.75;violin
135.325059675;0.0805555958333457;75;0.8984375;violin
135.40700416041668;0.0805555958333457;65;0.75;violin
135.40700416041668;0.0805555958333457;77;0.8984375;violin
135.49172642500002;0.08055559583331728;63;0.75;violin
135.49172642500002;0.08055559583331728;75;0.8984375;violin
135.5736709104167;0.08055559583331728;65;0.75;violin
135.5736709104167;0.08055559583331728;77;0.8984375;violin
135.65839317500001;0.0805555958333457;63;0.75;violin
135.65839317500001;0.0805555958333457;75;0.8984375;violin
135.74033766041669;0.08055559583331728;65;0.75;violin
135.74033766041669;0.08055559583331728;77;0.8984375;violin
135.825059925;0.0805555958333457;63;0.75;violin
135.825059925;0.0805555958333457;75;0.8984375;violin
135.90700441041668;0.0805555958333457;65;0.75;violin
135.90700441041668;0.0805555958333457;77;0.8984375;violin
135.99172667500002;1.9986121104166443;56;0.8984375;violin
135.99172667500002;1.9986121104166443;68;0.8984375;violin
138.658394675;0.1652778604166656;68;0.8984375;violin
138.825061425;0.1652778604166656;80;0.3828125;violin
138.99172817500002;0.1652778604166656;82;0.3828125;violin
139.158394925;0.1652778604166656;84;0.3828125;violin
139.32506167500003;0.1652778604166656;85;0.3828125;violin
139.49172842500002;0.1652778604166656;87;0.3828125;violin
139.658395175;0.1652778604166656;89;0.3828125;violin
139.825061925;0.165277860416694;91;0.3828125;violin
139.99172867500002;0.1652778604166656;92;0.3828125;violin
140.158395425;0.1652778604166656;94;0.3828125;violin
140.32506217500003;0.1652778604166656;96;0.3828125;violin
140.49172892500002;0.1652778604166656;97;0.3828125;violin
140.658395675;0.1652778604166656;99;0.3828125;violin
140.82506242500003;0.1652778604166656;101;0.3828125;violin
140.99172917500002;0.1652778604166656;103;0.3828125;violin
141.158395925;0.1652778604166656;104;0.3828125;violin
141.32506267500003;0.1652778604166656;63;0.8984375;violin
141.49172942500002;0.1652778604166656;75;0.3828125;violin
141.658396175;0.1652778604166656;77;0.3828125;violin
141.82506292500003;0.1652778604166656;79;0.3828125;violin
141.99172967500002;0.1652778604166656;80;0.3828125;violin
142.158396425;0.1652778604166656;82;0.3828125;violin
142.32506317500003;0.1652778604166656;84;0.3828125;violin
142.49172992500002;0.1652778604166656;86;0.3828125;violin
142.658396675;0.1652778604166656;87;0.3828125;violin
142.82506342500002;0.1652778604166656;89;0.3828125;violin
142.99173017500001;0.1652778604166656;91;0.3828125;violin
143.158396925;0.1652778604166656;92;0.3828125;violin
143.32506367500002;0.1652778604166656;94;0.3828125;violin
143.49173042500001;0.1652778604166656;96;0.3828125;violin
143.658397175;0.1652778604166656;98;0.3828125;violin
143.82506392500002;0.1652778604166656;99;0.3828125;violin
143.991730675;0.1652778604166656;65;0.8984375;violin
144.158397425;0.1652778604166656;77;0.3828125;violin
144.32506417500002;0.1652778604166656;79;0.3828125;violin
144.491730925;0.1652778604166656;80;0.3828125;violin
144.658397675;0.1652778604166656;82;0.3828125;violin
144.82506442500002;0.1652778604166656;84;0.3828125;violin
144.991731175;0.1652778604166656;86;0.3828125;violin
145.158397925;0.165277860416694;88;0.3828125;violin
145.32506467500002;0.1652778604166656;89;0.3828125;violin
145.491731425;0.1652778604166656;91;0.3828125;violin
145.658398175;0.1652778604166656;92;0.3828125;violin
145.82506492500002;0.1652778604166656;94;0.3828125;violin
145.991731675;0.1652778604166656;96;0.3828125;violin
146.15839842500003;0.1652778604166656;98;0.3828125;violin
146.32506517500002;0.1652778604166656;100;0.3828125;violin
146.491731925;0.1652778604166656;101;0.3828125;violin
146.658398675;0.1652778604166656;60;0.8984375;violin
146.82506542500002;0.1652778604166656;72;0.3828125;violin
146.991732175;0.1652778604166656;74;0.3828125;violin
147.15839892500003;0.1652778604166656;76;0.3828125;violin
147.32506567500002;0.1652778604166656;77;0.3828125;violin
147.491732425;0.1652778604166656;79;0.3828125;violin
147.658399175;0.165277860416694;81;0.3828125;violin
147.82506592500002;0.1652778604166656;83;0.3828125;violin
147.991732675;0.1652778604166656;84;0.3828125;violin
148.15839942500003;0.1652778604166656;86;0.3828125;violin
148.32506617500002;0.1652778604166656;88;0.3828125;violin
148.491732925;0.1652778604166656;89;0.3828125;violin
148.65839967500003;0.1652778604166656;91;0.3828125;violin
148.82506642500002;0.1652778604166656;93;0.3828125;violin
148.991733175;0.1652778604166656;95;0.3828125;violin
149.15839992500003;0.1652778604166656;96;0.3828125;violin
149.32506667500002;0.1652778604166656;61;0.75;violin
149.32506667500002;1.4986118604166734;73;0.75;violin
149.491733425;0.1652778604166656;63;0.75;violin
149.65840017500003;0.1652778604166656;65;0.75;violin
149.82506692500002;0.1652778604166656;63;0.75;violin
149.991733675;0.1652778604166656;61;0.75;violin
150.15840042500002;0.1652778604166656;63;0.75;violin
150.32506717500002;0.1652778604166656;65;0.75;violin
150.491733925;0.1652778604166656;63;0.75;violin
150.65840067500002;0.1652778604166656;61;0.75;violin
150.82506742500001;0.1652778604166656;65;0.3828125;violin
150.82506742500001;0.1652778604166656;68;0.3828125;violin
150.991734175;0.1652778604166656;64;0.3828125;violin
150.991734175;0.1652778604166656;67;0.3828125;violin
151.15840092500002;0.1652778604166656;65;0.3828125;violin
151.15840092500002;0.1652778604166656;68;0.3828125;violin
151.325067675;0.1652778604166656;66;0.3828125;violin
151.325067675;0.1652778604166656;70;0.3828125;violin
151.491734425;0.1652778604166656;65;0.3828125;violin
151.491734425;0.1652778604166656;68;0.3828125;violin
151.65840117500002;0.1652778604166656;63;0.3828125;violin
151.65840117500002;0.1652778604166656;66;0.3828125;violin
151.825067925;0.1652778604166656;61;0.3828125;violin
151.825067925;0.1652778604166656;65;0.3828125;violin
151.991734675;0.1652778604166656;68;0.75;violin
151.991734675;1.4986118604166734;80;0.75;violin
152.15840142500002;0.1652778604166656;70;0.75;violin
152.325068175;0.1652778604166656;72;0.75;violin
152.491734925;0.1652778604166656;70;0.75;violin
152.65840167500002;0.1652778604166656;68;0.75;violin
152.825068425;0.1652778604166656;70;0.75;violin
152.99173517500003;0.1652778604166656;72;0.75;violin
153.15840192500002;0.1652778604166656;70;0.75;violin
153.325068675;0.1652778604166656;68;0.75;violin
153.491735425;0.1652778604166656;72;0.3828125;violin
153.491735425;0.1652778604166656;75;0.3828125;violin
153.65840217500002;0.1652778604166656;71;0.3828125;violin
153.65840217500002;0.1652778604166656;74;0.3828125;violin
153.825068925;0.1652778604166656;72;0.3828125;violin
153.825068925;0.1652778604166656;75;0.3828125;violin
153.99173567500003;0.1652778604166656;74;0.3828125;violin
153.99173567500003;0.1652778604166656;77;0.3828125;violin
154.15840242500002;0.1652778604166656;72;0.3828125;violin
154.15840242500002;0.1652778604166656;75;0.3828125;violin
154.325069175;0.1652778604166656;70;0.3828125;violin
154.325069175;0.1652778604166656;74;0.3828125;violin
154.491735925;0.1652778604166656;68;0.3828125;violin
154.491735925;0.1652778604166656;72;0.3828125;violin
154.65840267500002;0.1652778604166656;63;0.75;violin
154.65840267500002;1.4986118604166734;75;0.75;violin
154.825069425;0.1652778604166656;65;0.75;violin
154.99173617500003;0.1652778604166656;66;0.75;violin
155.15840292500002;0.1652778604166656;65;0.75;violin
155.325069675;0.1652778604166656;63;0.75;violin
155.491736425;0.165277860416694;65;0.75;violin
155.65840317500002;0.1652778604166656;66;0.75;violin
155.825069925;0.1652778604166656;65;0.75;violin
155.99173667500003;0.1652778604166656;63;0.75;violin
156.15840342500002;0.1652778604166656;66;0.3828125;violin
156.15840342500002;0.1652778604166656;70;0.3828125;violin
156.325070175;0.1652778604166656;65;0.3828125;violin
156.325070175;0.1652778604166656;69;0.3828125;violin
156.49173692500003;0.1652778604166656;66;0.3828125;violin
156.49173692500003;0.1652778604166656;70;0.3828125;violin
156.65840367500002;0.1652778604166656;68;0.3828125;violin
156.65840367500002;0.1652778604166656;72;0.3828125;violin
156.825070425;0.1652778604166656;66;0.3828125;violin
156.825070425;0.1652778604166656;70;0.3828125;violin
156.99173717500003;0.1652778604166656;65;0.3828125;violin
156.99173717500003;0.1652778604166656;68;0.3828125;violin
157.15840392500002;0.1652778604166656;63;0.3828125;violin
157.15840392500002;0.1652778604166656;66;0.3828125;violin
157.325070675;0.1652778604166656;70;0.75;violin
157.325070675;1.4986118604166734;82;0.75;violin
157.49173742500003;0.1652778604166656;72;0.75;violin
157.65840417500002;0.1652778604166656;74;0.75;violin
157.825070925;0.1652778604166656;72;0.75;violin
157.99173767500002;0.1652778604166656;70;0.75;violin
158.15840442500001;0.1652778604166656;72;0.75;violin
158.325071175;0.1652778604166656;74;0.75;violin
158.49173792500002;0.1652778604166656;72;0.75;violin
158.658404675;0.1652778604166656;70;0.75;violin
158.825071425;0.1652778604166656;74;0.3828125;violin
158.825071425;0.1652778604166656;77;0.3828125;violin
158.99173817500002;0.1652778604166656;73;0.3828125;violin
158.99173817500002;0.1652778604166656;76;0.3828125;violin
159.158404925;0.1652778604166656;74;0.3828125;violin
159.158404925;0.1652778604166656;77;0.3828125;violin
159.325071675;0.1652778604166656;75;0.3828125;violin
159.325071675;0.1652778604166656;78;0.3828125;violin
159.49173842500002;0.1652778604166656;74;0.3828125;violin
159.49173842500002;0.1652778604166656;77;0.3828125;violin
159.658405175;0.1652778604166656;72;0.3828125;violin
159.658405175;0.1652778604166656;75;0.3828125;violin
159.825071925;0.165277860416694;70;0.3828125;violin
159.825071925;0.165277860416694;74;0.3828125;violin
159.99173867500002;0.1652778604166656;75;0.453125;violin
159.99173867500002;0.1652778604166656;78;0.453125;violin
160.158405425;0.1652778604166656;74;0.3828125;violin
160.158405425;0.1652778604166656;77;0.3828125;violin
160.325072175;0.1652778604166656;75;0.3828125;violin
160.325072175;0.1652778604166656;78;0.3828125;violin
160.49173892500002;0.1652778604166656;74;0.3828125;violin
160.49173892500002;0.1652778604166656;77;0.3828125;violin
160.658405675;0.1652778604166656;75;0.3828125;violin
160.658405675;0.1652778604166656;78;0.3828125;violin
160.82507242500003;0.1652778604166656;74;0.3828125;violin
160.82507242500003;0.1652778604166656;77;0.3828125;violin
160.99173917500002;0.1652778604166656;75;0.3828125;violin
160.99173917500002;0.1652778604166656;78;0.3828125;violin
161.158405925;0.1652778604166656;73;0.3828125;violin
161.158405925;0.1652778604166656;77;0.3828125;violin
161.325072675;0.1652778604166656;71;0.453125;violin
161.325072675;0.1652778604166656;75;0.453125;violin
161.49173942500002;0.1652778604166656;70;0.3828125;violin
161.49173942500002;0.1652778604166656;73;0.3828125;violin
161.658406175;0.1652778604166656;71;0.3828125;violin
161.658406175;0.1652778604166656;75;0.3828125;violin
161.82507292500003;0.1652778604166656;70;0.3828125;violin
161.82507292500003;0.1652778604166656;73;0.3828125;violin
161.99173967500002;0.1652778604166656;71;0.3828125;violin
161.99173967500002;0.1652778604166656;75;0.3828125;violin
162.158406425;0.1652778604166656;70;0.3828125;violin
162.158406425;0.1652778604166656;73;0.3828125;violin
162.325073175;0.1652778604166656;71;0.3828125;violin
162.325073175;0.3319446104166843;75;0.3828125;violin
162.49173992500002;0.1652778604166656;70;0.3828125;violin
162.658406675;1.331945110416683;68;0.3828125;violin
162.658406675;0.1652778604166656;76;0.3828125;violin
162.82507342500003;0.1652778604166656;75;0.3828125;violin
162.99174017500002;0.1652778604166656;76;0.3828125;violin
163.158406925;0.1652778604166656;78;0.3828125;violin
163.325073675;0.1652778604166656;76;0.3828125;violin
163.49174042500002;0.1652778604166656;75;0.3828125;violin
163.658407175;0.1652778604166656;76;0.3828125;violin
163.82507392500003;0.1652778604166656;75;0.3828125;violin
163.99174067500002;0.1652778604166656;70;0.3828125;violin
163.99174067500002;1.3319451104166546;73;0.3828125;violin
164.158407425;0.1652778604166656;68;0.3828125;violin
164.32507417500003;0.1652778604166656;70;0.3828125;violin
164.49174092500002;0.1652778604166656;71;0.3828125;violin
164.658407675;0.1652778604166656;70;0.3828125;violin
164.82507442500003;0.1652778604166656;68;0.3828125;violin
164.99174117500002;0.1652778604166656;70;0.3828125;violin
165.158407925;0.1652778604166656;68;0.3828125;violin
165.32507467500002;1.3319451104166546;67;0.3828125;violin
165.32507467500002;0.1652778604166656;75;0.3828125;violin
165.49174142500001;0.1652778604166656;74;0.3828125;violin
165.658408175;0.165277860416694;75;0.3828125;violin
165.82507492500002;0.1652778604166656;76;0.3828125;violin
165.99174167500001;0.1652778604166656;75;0.3828125;violin
166.158408425;0.1652778604166656;74;0.3828125;violin
166.32507517500002;0.1652778604166656;75;0.3828125;violin
166.491741925;0.1652778604166656;73;0.3828125;violin
166.65840867500003;0.1652778604166656;68;0.3828125;violin
166.65840867500003;1.3319451104166546;71;0.3828125;violin
166.82507542500002;0.1652778604166656;67;0.3828125;violin
166.991742175;0.1652778604166656;68;0.3828125;violin
167.158408925;0.1652778604166656;69;0.3828125;violin
167.32507567500002;0.1652778604166656;68;0.3828125;violin
167.491742425;0.1652778604166656;67;0.3828125;violin
167.65840917500003;0.1652778604166656;68;0.3828125;violin
167.82507592500002;0.1652778604166656;66;0.3828125;violin
167.991742675;0.1652778604166656;64;0.75;violin
167.991742675;1.4986118604166734;76;0.75;violin
168.158409425;0.1652778604166656;66;0.75;violin
168.32507617500002;0.1652778604166656;68;0.75;violin
168.491742925;0.1652778604166656;66;0.75;violin
168.65840967500003;0.1652778604166656;64;0.75;violin
168.82507642500002;0.1652778604166656;66;0.75;violin
168.991743175;0.1652778604166656;68;0.75;violin
169.158409925;0.1652778604166656;66;0.75;violin
169.32507667500002;0.1652778604166656;64;0.75;violin
169.491743425;0.1652778604166656;68;0.3828125;violin
169.491743425;0.1652778604166656;71;0.3828125;violin
169.65841017500003;0.1652778604166656;67;0.3828125;violin
169.65841017500003;0.1652778604166656;70;0.3828125;violin
169.82507692500002;0.1652778604166656;68;0.3828125;violin
169.82507692500002;0.1652778604166656;71;0.3828125;violin
169.991743675;0.1652778604166656;69;0.3828125;violin
169.991743675;0.1652778604166656;73;0.3828125;violin
170.158410425;0.1652778604166656;68;0.3828125;violin
170.158410425;0.1652778604166656;71;0.3828125;violin
170.32507717500002;0.1652778604166656;66;0.3828125;violin
170.32507717500002;0.1652778604166656;69;0.3828125;violin
170.491743925;0.1652778604166656;64;0.3828125;violin
170.491743925;0.1652778604166656;68;0.3828125;violin
170.65841067500003;0.1652778604166656;71;0.75;violin
170.65841067500003;1.498611860416645;83;0.75;violin
170.82507742500002;0.1652778604166656;73;0.75;violin
170.991744175;0.1652778604166656;75;0.75;violin
171.158410925;0.165277860416694;73;0.75;violin
171.32507767500002;0.1652778604166656;71;0.75;violin
171.491744425;0.1652778604166656;73;0.75;violin
171.65841117500003;0.1652778604166656;75;0.75;violin
171.82507792500002;0.1652778604166656;73;0.75;violin
171.991744675;0.1652778604166656;71;0.75;violin
172.15841142500003;0.1652778604166656;75;0.3828125;violin
172.15841142500003;0.1652778604166656;78;0.3828125;violin
172.32507817500002;0.1652778604166656;74;0.3828125;violin
172.32507817500002;0.1652778604166656;77;0.3828125;violin
172.491744925;0.1652778604166656;75;0.3828125;violin
172.491744925;0.1652778604166656;78;0.3828125;violin
172.65841167500002;0.1652778604166656;76;0.3828125;violin
172.65841167500002;0.1652778604166656;80;0.3828125;violin
172.82507842500002;0.1652778604166656;75;0.3828125;violin
172.82507842500002;0.1652778604166656;78;0.3828125;violin
172.991745175;0.1652778604166656;73;0.3828125;violin
172.991745175;0.1652778604166656;76;0.3828125;violin
173.15841192500002;0.1652778604166656;71;0.3828125;violin
173.15841192500002;0.1652778604166656;75;0.3828125;violin
173.32507867500001;0.1652778604166656;66;0.75;violin
173.32507867500001;1.4986118604166734;78;0.75;violin
173.49174542500003;0.1652778604166656;68;0.75;violin
173.65841217500002;0.1652778604166656;69;0.75;violin
173.825078925;0.1652778604166656;68;0.75;violin
173.991745675;0.1652778604166656;66;0.75;violin
174.15841242500002;0.1652778604166656;68;0.75;violin
174.325079175;0.1652778604166656;69;0.75;violin
174.49174592500003;0.1652778604166656;68;0.75;violin
174.65841267500002;0.1652778604166656;66;0.75;violin
174.825079425;0.1652778604166656;69;0.3828125;violin
174.825079425;0.1652778604166656;73;0.3828125;violin
174.991746175;0.1652778604166656;68;0.3828125;violin
174.991746175;0.1652778604166656;72;0.3828125;violin
175.15841292500002;0.1652778604166656;69;0.3828125;violin
175.15841292500002;0.1652778604166656;73;0.3828125;violin
175.325079675;0.1652778604166656;71;0.3828125;violin
175.325079675;0.1652778604166656;75;0.3828125;violin
175.49174642500003;0.1652778604166656;69;0.3828125;violin
175.49174642500003;0.1652778604166656;73;0.3828125;violin
175.65841317500002;0.1652778604166656;68;0.3828125;violin
175.65841317500002;0.1652778604166656;71;0.3828125;violin
175.825079925;0.1652778604166656;66;0.3828125;violin
175.825079925;0.1652778604166656;69;0.3828125;violin
175.991746675;0.1652778604166656;73;0.75;violin
175.991746675;1.4986118604166734;85;0.75;violin
176.15841342500002;0.1652778604166656;75;0.75;violin
176.325080175;0.1652778604166656;77;0.75;violin
176.49174692500003;0.1652778604166656;75;0.75;violin
176.65841367500002;0.1652778604166656;73;0.75;violin
176.825080425;0.1652778604166656;75;0.75;violin
176.991747175;0.1652778604166656;77;0.75;violin
177.15841392500002;0.1652778604166656;75;0.75;violin
177.325080675;0.1652778604166656;73;0.75;violin
177.49174742500003;0.1652778604166656;77;0.3828125;violin
177.49174742500003;0.1652778604166656;80;0.3828125;violin
177.65841417500002;0.1652778604166656;75;0.3828125;violin
177.65841417500002;0.1652778604166656;79;0.3828125;violin
177.825080925;0.1652778604166656;77;0.3828125;violin
177.825080925;0.1652778604166656;80;0.3828125;violin
177.991747675;0.1652778604166656;78;0.3828125;violin
177.991747675;0.1652778604166656;81;0.3828125;violin
178.15841442500002;0.1652778604166656;77;0.3828125;violin
178.15841442500002;0.1652778604166656;80;0.3828125;violin
178.325081175;0.1652778604166656;75;0.3828125;violin
178.325081175;0.1652778604166656;78;0.3828125;violin
178.49174792500003;0.1652778604166656;73;0.3828125;violin
178.49174792500003;0.1652778604166656;77;0.3828125;violin
178.65841467500002;0.1652778604166656;78;0.3828125;violin
178.65841467500002;0.1652778604166656;81;0.3828125;violin
178.825081425;0.1652778604166656;77;0.3828125;violin
178.825081425;0.1652778604166656;80;0.3828125;violin
178.99174817500003;0.1652778604166656;78;0.3828125;violin
178.99174817500003;0.1652778604166656;81;0.3828125;violin
179.15841492500002;0.1652778604166656;77;0.3828125;violin
179.15841492500002;0.1652778604166656;80;0.3828125;violin
179.325081675;0.1652778604166656;78;0.3828125;violin
179.325081675;0.1652778604166656;81;0.3828125;violin
179.49174842500003;0.1652778604166656;77;0.3828125;violin
179.49174842500003;0.1652778604166656;80;0.3828125;violin
179.65841517500002;0.1652778604166656;78;0.3828125;violin
179.65841517500002;0.1652778604166656;81;0.3828125;violin
179.825081925;0.1652778604166656;76;0.3828125;violin
179.825081925;0.1652778604166656;80;0.3828125;violin
179.99174867500003;0.1652778604166656;74;0.3828125;violin
179.99174867500003;0.1652778604166656;78;0.3828125;violin
180.15841542500002;0.1652778604166656;73;0.3828125;violin
180.15841542500002;0.1652778604166656;77;0.3828125;violin
180.325082175;0.165277860416694;74;0.3828125;violin
180.325082175;0.165277860416694;78;0.3828125;violin
180.49174892500002;0.1652778604166656;73;0.3828125;violin
180.49174892500002;0.1652778604166656;77;0.3828125;violin
180.65841567500001;0.1652778604166656;74;0.3828125;violin
180.65841567500001;0.1652778604166656;78;0.3828125;violin
180.825082425;0.1652778604166656;73;0.3828125;violin
180.825082425;0.1652778604166656;77;0.3828125;violin
180.99174917500002;0.1652778604166656;74;0.3828125;violin
180.99174917500002;0.3319446104166559;78;0.3828125;violin
181.158415925;0.1652778604166656;73;0.3828125;violin
181.32508267500003;1.3319451104166546;71;0.3828125;violin
181.32508267500003;0.1652778604166656;79;0.3828125;violin
181.49174942500002;0.1652778604166656;78;0.3828125;violin
181.658416175;0.1652778604166656;79;0.3828125;violin
181.825082925;0.1652778604166656;81;0.3828125;violin
181.99174967500002;0.1652778604166656;79;0.3828125;violin
182.158416425;0.1652778604166656;78;0.3828125;violin
182.32508317500003;0.1652778604166656;79;0.3828125;violin
182.49174992500002;0.1652778604166656;78;0.3828125;violin
182.658416675;0.1652778604166656;73;0.3828125;violin
182.658416675;1.3319451104166546;76;0.3828125;violin
182.825083425;0.1652778604166656;71;0.3828125;violin
182.99175017500002;0.1652778604166656;73;0.3828125;violin
183.158416925;0.1652778604166656;74;0.3828125;violin
183.32508367500003;0.1652778604166656;73;0.3828125;violin
183.49175042500002;0.1652778604166656;71;0.3828125;violin
183.658417175;0.1652778604166656;73;0.3828125;violin
183.825083925;0.1652778604166656;71;0.3828125;violin
183.99175067500002;0.1652778604166656;70;0.453125;violin
183.99175067500002;0.1652778604166656;78;0.453125;violin
184.158417425;0.1652778604166656;79;0.3828125;violin
184.32508417500003;0.1652778604166656;78;0.3828125;violin
184.49175092500002;0.1652778604166656;76;0.3828125;violin
184.658417675;0.1652778604166656;71;0.3828125;violin
184.658417675;0.1652778604166656;74;0.3828125;violin
184.825084425;0.1652778604166656;70;0.3828125;violin
184.99175117500002;0.1652778604166656;71;0.3828125;violin
185.158417925;0.1652778604166656;69;0.3828125;violin
185.32508467500003;0.1652778604166656;68;0.3828125;violin
185.32508467500003;0.1652778604166656;76;0.3828125;violin
185.49175142500002;0.1652778604166656;77;0.3828125;violin
185.658418175;0.1652778604166656;76;0.3828125;violin
185.825084925;0.165277860416694;74;0.3828125;violin
185.99175167500002;0.1652778604166656;69;0.3828125;violin
185.99175167500002;0.1652778604166656;72;0.3828125;violin
186.158418425;0.1652778604166656;68;0.3828125;violin
186.32508517500003;0.1652778604166656;69;0.3828125;violin
186.49175192500002;0.1652778604166656;67;0.3828125;violin
186.658418675;0.1652778604166656;66;0.453125;violin
186.658418675;0.1652778604166656;74;0.453125;violin
186.82508542500003;0.1652778604166656;75;0.3828125;violin
186.99175217500002;0.1652778604166656;74;0.3828125;violin
187.158418925;0.165277860416694;72;0.3828125;violin
187.32508567500003;0.1652778604166656;67;0.3828125;violin
187.32508567500003;0.1652778604166656;70;0.3828125;violin
187.49175242500002;0.1652778604166656;66;0.3828125;violin
187.658419175;0.1652778604166656;67;0.3828125;violin
187.82508592500002;0.1652778604166656;65;0.3828125;violin
187.99175267500001;0.1652778604166656;64;0.3828125;violin
187.99175267500001;0.1652778604166656;72;0.3828125;violin
188.15841942500003;0.1652778604166656;73;0.3828125;violin
188.32508617500002;0.1652778604166656;72;0.3828125;violin
188.49175292500001;0.1652778604166656;70;0.3828125;violin
188.658419675;0.1652778604166656;65;0.3828125;violin
188.658419675;0.1652778604166656;68;0.3828125;violin
188.82508642500002;0.1652778604166656;64;0.3828125;violin
188.991753175;0.1652778604166656;65;0.3828125;violin
189.15841992500003;0.1652778604166656;63;0.3828125;violin
189.32508667500002;0.1652778604166656;62;0.3828125;violin
189.32508667500002;0.1652778604166656;70;0.3828125;violin
189.491753425;0.1652778604166656;72;0.3828125;violin
189.658420175;0.1652778604166656;70;0.3828125;violin
189.82508692500002;0.1652778604166656;68;0.3828125;violin
189.991753675;0.1652778604166656;63;0.3828125;violin
189.991753675;0.1652778604166656;67;0.3828125;violin
190.15842042500003;0.1652778604166656;62;0.3828125;violin
190.32508717500002;0.1652778604166656;63;0.3828125;violin
190.491753925;0.1652778604166656;62;0.3828125;violin
190.658420675;0.1652778604166656;60;0.3828125;violin
190.658420675;0.1652778604166656;68;0.3828125;violin
190.82508742500002;0.1652778604166656;63;0.3828125;violin
190.991754175;0.1652778604166656;58;0.3828125;violin
190.991754175;0.1652778604166656;67;0.3828125;violin
191.15842092500003;0.1652778604166656;62;0.3828125;violin
191.32508767500002;0.1652778604166656;56;0.3828125;violin
191.32508767500002;0.1652778604166656;65;0.3828125;violin
191.491754425;0.1652778604166656;60;0.3828125;violin
191.658421175;0.1652778604166656;57;0.3828125;violin
191.658421175;0.1652778604166656;63;0.3828125;violin
191.82508792500002;0.1652778604166656;60;0.3828125;violin
191.991754675;0.165277860416694;58;0.453125;violin
191.991754675;0.165277860416694;62;0.453125;violin
192.15842142500003;0.1652778604166656;60;0.3828125;violin
192.15842142500003;0.1652778604166656;63;0.3828125;violin
192.32508817500002;0.1652778604166656;62;0.3828125;violin
192.32508817500002;0.1652778604166656;65;0.3828125;violin
192.491754925;0.1652778604166656;60;0.3828125;violin
192.491754925;0.1652778604166656;63;0.3828125;violin
192.658421675;0.1652778604166656;58;0.3828125;violin
192.658421675;0.1652778604166656;62;0.3828125;violin
192.82508842500002;0.08194448541667043;73;0.3828125;violin
192.82508842500002;0.08194448541667043;76;0.3828125;violin
192.99175517500004;0.08194448541664201;74;0.3828125;violin
192.99175517500004;0.08194448541664201;77;0.3828125;violin
193.15842192500003;0.08194448541667043;72;0.3828125;violin
193.15842192500003;0.08194448541667043;75;0.3828125;violin
193.32508867500002;0.08194448541667043;70;0.3828125;violin
193.32508867500002;0.08194448541667043;74;0.3828125;violin
193.491755425;0.08194448541667043;68;0.3828125;violin
193.491755425;0.08194448541667043;72;0.3828125;violin
193.658422175;0.08194448541667043;67;0.3828125;violin
193.658422175;0.08194448541667043;70;0.3828125;violin
193.82508892500002;0.08194448541667043;65;0.3828125;violin
193.82508892500002;0.08194448541667043;68;0.3828125;violin
193.99175567500004;0.08194448541664201;63;0.3828125;violin
193.99175567500004;0.08194448541664201;67;0.3828125;violin
194.15842242500003;0.08194448541667043;62;0.3828125;violin
194.15842242500003;0.08194448541667043;65;0.3828125;violin
194.32508917500002;0.08194448541667043;60;0.3828125;violin
194.32508917500002;0.08194448541667043;63;0.3828125;violin
194.491755925;0.08194448541667043;58;0.3828125;violin
194.491755925;0.08194448541667043;62;0.3828125;violin
194.658422675;0.6652781104166934;57;0.3828125;violin
194.658422675;0.1652778604166656;63;0.3828125;violin
194.82508942500002;0.1652778604166656;65;0.3828125;violin
194.99175617500003;0.1652778604166656;66;0.3828125;violin
195.15842292500002;0.1652778604166656;65;0.3828125;violin
195.32508967500002;0.1652778604166656;57;0.3828125;violin
195.32508967500002;0.665278110416665;63;0.3828125;violin
195.491756425;0.1652778604166656;60;0.3828125;violin
195.658423175;0.165277860416694;59;0.3828125;violin
195.82508992500001;0.1652778604166656;58;0.3828125;violin
195.99175667500003;0.6652781104166365;57;0.3828125;violin
195.99175667500003;0.1652778604166656;63;0.3828125;violin
196.15842342500002;0.1652778604166656;65;0.3828125;violin
196.325090175;0.1652778604166656;66;0.3828125;violin
196.491756925;0.1652778604166656;65;0.3828125;violin
196.65842367500002;0.1652778604166656;57;0.3828125;violin
196.65842367500002;0.665278110416665;63;0.3828125;violin
196.825090425;0.1652778604166656;60;0.3828125;violin
196.99175717500003;0.1652778604166656;58;0.3828125;violin
197.15842392500002;0.1652778604166656;57;0.3828125;violin
197.325090675;0.1652778604166656;58;0.453125;violin
197.325090675;0.1652778604166656;62;0.453125;violin
197.491757425;0.1652778604166656;60;0.3828125;violin
197.491757425;0.1652778604166656;63;0.3828125;violin
197.65842417500002;0.1652778604166656;62;0.3828125;violin
197.65842417500002;0.1652778604166656;65;0.3828125;violin
197.825090925;0.1652778604166656;60;0.3828125;violin
197.825090925;0.1652778604166656;63;0.3828125;violin
197.99175767500003;0.1652778604166656;58;0.3828125;violin
197.99175767500003;0.1652778604166656;62;0.3828125;violin
198.15842442500002;0.08194448541667043;85;0.3828125;violin
198.15842442500002;0.08194448541667043;88;0.3828125;violin
198.325091175;0.08194448541667043;86;0.3828125;violin
198.325091175;0.08194448541667043;89;0.3828125;violin
198.491757925;0.08194448541667043;84;0.3828125;violin
198.491757925;0.08194448541667043;87;0.3828125;violin
198.65842467500002;0.08194448541664201;82;0.3828125;violin
198.65842467500002;0.08194448541664201;86;0.3828125;violin
198.825091425;0.08194448541667043;80;0.3828125;violin
198.825091425;0.08194448541667043;84;0.3828125;violin
198.99175817500003;0.08194448541667043;79;0.3828125;violin
198.99175817500003;0.08194448541667043;82;0.3828125;violin
199.15842492500002;0.08194448541667043;77;0.3828125;violin
199.15842492500002;0.08194448541667043;80;0.3828125;violin
199.325091675;0.08194448541667043;75;0.3828125;violin
199.325091675;0.08194448541667043;79;0.3828125;violin
199.491758425;0.08194448541667043;74;0.3828125;violin
199.491758425;0.08194448541667043;77;0.3828125;violin
199.65842517500002;0.08194448541667043;72;0.3828125;violin
199.65842517500002;0.08194448541667043;75;0.3828125;violin
199.825091925;0.08194448541667043;70;0.3828125;violin
199.825091925;0.08194448541667043;74;0.3828125;violin
199.99175867500003;0.6652781104166365;69;0.3828125;violin
199.99175867500003;0.1652778604166656;75;0.3828125;violin
200.15842542500002;0.1652778604166656;77;0.3828125;violin
200.325092175;0.1652778604166656;78;0.3828125;violin
200.491758925;0.1652778604166656;77;0.3828125;violin
200.65842567500002;0.1652778604166656;69;0.3828125;violin
200.65842567500002;0.665278110416665;75;0.3828125;violin
200.82509242500004;0.1652778604166656;72;0.3828125;violin
200.99175917500003;0.1652778604166656;71;0.3828125;violin
201.15842592500002;0.1652778604166656;70;0.3828125;violin
201.325092675;0.6652781104166934;69;0.3828125;violin
201.325092675;0.1652778604166656;75;0.3828125;violin
201.491759425;0.1652778604166656;77;0.3828125;violin
201.65842617500002;0.1652778604166656;78;0.3828125;violin
201.82509292500004;0.1652778604166656;77;0.3828125;violin
201.99175967500003;0.1652778604166656;69;0.3828125;violin
201.99175967500003;0.6652781104166365;75;0.3828125;violin
202.15842642500002;0.1652778604166656;72;0.3828125;violin
202.325093175;0.1652778604166656;70;0.3828125;violin
202.491759925;0.1652778604166656;69;0.3828125;violin
202.65842667500002;0.1652778604166656;70;0.453125;violin
202.65842667500002;0.1652778604166656;74;0.453125;violin
202.82509342500003;0.08194448541667043;58;0.3828125;violin
202.82509342500003;0.08194448541667043;62;0.3828125;violin
202.99176017500002;0.08194448541667043;62;0.3828125;violin
202.99176017500002;0.08194448541667043;65;0.3828125;violin
203.15842692500001;0.08194448541667043;61;0.3828125;violin
203.15842692500001;0.08194448541667043;64;0.3828125;violin
203.325093675;0.08194448541667043;60;0.3828125;violin
203.325093675;0.08194448541667043;63;0.3828125;violin
203.491760425;0.08194448541667043;58;0.3828125;violin
203.491760425;0.08194448541667043;62;0.3828125;violin
203.658427175;0.08194448541667043;62;0.3828125;violin
203.658427175;0.08194448541667043;65;0.3828125;violin
203.82509392500003;0.08194448541667043;61;0.3828125;violin
203.82509392500003;0.08194448541667043;64;0.3828125;violin
203.99176067500002;0.08194448541667043;60;0.3828125;violin
203.99176067500002;0.08194448541667043;63;0.3828125;violin
204.158427425;0.08194448541667043;58;0.3828125;violin
204.158427425;0.08194448541667043;62;0.3828125;violin
204.325094175;0.08194448541667043;65;0.3828125;violin
204.325094175;0.08194448541667043;68;0.3828125;violin
204.49176092500002;0.08194448541664201;64;0.3828125;violin
204.49176092500002;0.08194448541664201;67;0.3828125;violin
204.658427675;0.08194448541667043;63;0.3828125;violin
204.658427675;0.08194448541667043;67;0.3828125;violin
204.82509442500003;0.08194448541667043;62;0.3828125;violin
204.82509442500003;0.08194448541667043;65;0.3828125;violin
204.99176117500002;0.08194448541667043;65;0.3828125;violin
204.99176117500002;0.08194448541667043;68;0.3828125;violin
205.158427925;0.08194448541667043;64;0.3828125;violin
205.158427925;0.08194448541667043;67;0.3828125;violin
205.325094675;0.08194448541667043;63;0.3828125;violin
205.325094675;0.08194448541667043;67;0.3828125;violin
205.49176142500002;0.08194448541664201;62;0.3828125;violin
205.49176142500002;0.08194448541664201;65;0.3828125;violin
205.658428175;0.08194448541667043;74;0.3828125;violin
205.658428175;0.08194448541667043;77;0.3828125;violin
205.82509492500003;0.08194448541667043;72;0.3828125;violin
205.82509492500003;0.08194448541667043;75;0.3828125;violin
205.99176167500002;0.08194448541667043;70;0.3828125;violin
205.99176167500002;0.08194448541667043;74;0.3828125;violin
206.158428425;0.08194448541667043;74;0.40625;violin
206.158428425;0.08194448541667043;77;0.40625;violin
206.325095175;0.08194448541667043;77;0.4375;violin
206.325095175;0.08194448541667043;80;0.4375;violin
206.49176192500002;0.08194448541667043;75;0.46875;violin
206.49176192500002;0.08194448541667043;79;0.46875;violin
206.658428675;0.08194448541667043;74;0.5;violin
206.658428675;0.08194448541667043;77;0.5;violin
206.82509542500003;0.08194448541667043;72;0.53125;violin
206.82509542500003;0.08194448541667043;75;0.53125;violin
206.99176217500002;0.08194448541667043;70;0.5625;violin
206.99176217500002;0.08194448541667043;74;0.5625;violin
207.158428925;0.08194448541667043;68;0.59375;violin
207.158428925;0.08194448541667043;72;0.59375;violin
207.325095675;0.08194448541667043;67;0.625;violin
207.325095675;0.08194448541667043;70;0.625;violin
207.49176242500002;0.08194448541667043;65;0.65625;violin
207.49176242500002;0.08194448541667043;68;0.65625;violin
207.65842917500004;0.08194448541664201;63;0.6875;violin
207.65842917500004;0.08194448541664201;67;0.6875;violin
207.82509592500003;0.08194448541667043;62;0.71875;violin
207.82509592500003;0.08194448541667043;65;0.71875;violin
207.99176267500002;1.3319451104166546;63;0.75;violin
207.99176267500002;1.3319451104166546;75;0.75;violin
209.325096675;0.0805555958333457;59;0.8984375;violin
209.325096675;0.0805555958333457;71;0.75;violin
209.40704116041667;0.0805555958333457;60;0.8984375;violin
209.40704116041667;0.0805555958333457;72;0.75;violin
209.49176342500002;0.08055559583331728;59;0.8984375;violin
209.49176342500002;0.08055559583331728;71;0.75;violin
209.5737079104167;0.08055559583331728;60;0.8984375;violin
209.5737079104167;0.08055559583331728;72;0.75;violin
209.65843017500003;0.08055559583331728;59;0.8984375;violin
209.65843017500003;0.08055559583331728;71;0.75;violin
209.74037466041668;0.0805555958333457;60;0.8984375;violin
209.74037466041668;0.0805555958333457;72;0.75;violin
209.82509692500003;0.0805555958333457;59;0.8984375;violin
209.82509692500003;0.0805555958333457;71;0.75;violin
209.9070414104167;0.08055559583331728;60;0.8984375;violin
209.9070414104167;0.08055559583331728;72;0.75;violin
209.99176367500002;0.0805555958333457;59;0.8984375;violin
209.99176367500002;0.0805555958333457;71;0.75;violin
210.0737081604167;0.0805555958333457;60;0.8984375;violin
210.0737081604167;0.0805555958333457;72;0.75;violin
210.158430425;0.0805555958333457;59;0.8984375;violin
210.158430425;0.0805555958333457;71;0.75;violin
210.24037491041668;0.0805555958333457;60;0.8984375;violin
210.24037491041668;0.0805555958333457;72;0.75;violin
210.325097175;0.0805555958333457;59;0.8984375;violin
210.325097175;0.0805555958333457;71;0.75;violin
210.40704166041667;0.0805555958333457;60;0.8984375;violin
210.40704166041667;0.0805555958333457;72;0.75;violin
210.49176392500001;0.08055559583331728;59;0.8984375;violin
210.49176392500001;0.08055559583331728;71;0.75;violin
210.57370841041669;0.08055559583331728;60;0.8984375;violin
210.57370841041669;0.08055559583331728;72;0.75;violin
210.65843067500003;0.1652778604166656;60;0.8984375;violin
210.82509742500002;0.08194448541667043;72;0.3828125;violin
210.99176417500001;0.08194448541667043;74;0.3828125;violin
211.158430925;0.08194448541667043;75;0.3828125;violin
211.32509767500002;0.08194448541664201;77;0.3828125;violin
211.491764425;0.08194448541667043;79;0.3828125;violin
211.65843117500003;0.08194448541667043;81;0.3828125;violin
211.82509792500002;0.08194448541667043;83;0.3828125;violin
211.991764675;0.08194448541667043;84;0.3828125;violin
212.158431425;0.08194448541667043;86;0.3828125;violin
212.32509817500002;0.08194448541664201;87;0.3828125;violin
212.491764925;0.08194448541667043;89;0.3828125;violin
212.65843167500003;0.08194448541667043;91;0.3828125;violin
212.82509842500002;0.08194448541667043;93;0.3828125;violin
212.991765175;0.08194448541667043;95;0.3828125;violin
213.158431925;0.08194448541667043;96;0.3828125;violin
213.32509867500002;0.665278110416665;56;0.75;violin
213.32509867500002;0.665278110416665;63;0.75;violin
213.32509867500002;0.665278110416665;72;0.75;violin
213.32509867500002;0.665278110416665;80;0.75;violin
214.65843267500003;0.6652781104166365;58;0.75;violin
214.65843267500003;0.6652781104166365;65;0.75;violin
214.65843267500003;0.6652781104166365;74;0.75;violin
214.65843267500003;0.6652781104166365;82;0.75;violin
216.65704378750002;0.1652778604166656;59;0.2578125;violin
216.65704378750002;2.6652791104166624;71;0.2578125;violin
216.82371053750003;0.1652778604166656;61;0.2578125;violin
216.99037728750002;0.1652778604166656;63;0.2578125;violin
217.15704403750001;0.1652778604166656;61;0.2578125;violin
217.32371078750003;0.1652778604166656;59;0.2578125;violin
217.49037753750002;0.1652778604166656;61;0.2578125;violin
217.6570442875;0.1652778604166656;63;0.2578125;violin
217.82371103750003;0.1652778604166656;61;0.2578125;violin
217.99037778750002;0.1652778604166656;59;0.2578125;violin
218.1570445375;0.1652778604166656;61;0.2578125;violin
218.32371128750003;0.1652778604166656;63;0.2578125;violin
218.49037803750002;0.1652778604166656;61;0.2578125;violin
218.6570447875;0.1652778604166656;59;0.2578125;violin
218.82371153750003;0.1652778604166656;61;0.2578125;violin
218.99037828750002;0.1652778604166656;63;0.2578125;violin
219.1570450375;0.1652778604166656;59;0.2578125;violin
219.32371178750003;0.3319446104166559;57;0.2578125;violin
219.32371178750003;0.3319446104166559;69;0.2578125;violin
219.99037878750002;0.665278110416665;78;0.2578125;violin
219.99037878750002;0.665278110416665;90;0.2578125;violin
220.6570457875;0.3319446104166843;75;0.2578125;violin
220.6570457875;0.3319446104166843;87;0.2578125;violin
221.32371278750003;0.665278110416665;57;0.2578125;violin
221.32371278750003;0.665278110416665;65;0.2578125;violin
221.99037978750002;0.3319446104166843;58;0.2578125;violin
221.99037978750002;0.1652778604166656;70;0.2578125;violin
222.15704653750004;0.4986113604166462;67;0.28125;violin
222.32371328750003;0.1652778604166656;63;0.3125;violin
222.49038003750002;0.1652778604166656;58;0.34375;violin
222.65704678750004;0.3319446104166559;70;0.375;violin
222.65704678750004;0.1652778604166656;82;0.375;violin
222.82371353750003;0.49861136041667464;79;0.40625;violin
222.99038028750002;0.1652778604166656;75;0.4375;violin
223.15704703750004;0.1652778604166656;70;0.46875;violin
223.32371378750003;0.3319446104166559;58;0.5;violin
223.32371378750003;0.1652778604166656;68;0.5;violin
223.49038053750002;0.49861136041667464;65;0.53125;violin
223.65704728750003;0.1652778604166656;62;0.5625;violin
223.82371403750003;0.1652778604166656;58;0.59375;violin
223.99038078750002;0.3319446104166843;70;0.625;violin
223.99038078750002;0.1652778604166656;80;0.625;violin
224.15704753750003;0.4986113604166462;77;0.65625;violin
224.32371428750002;0.1652778604166656;74;0.6875;violin
224.49038103750001;0.1652778604166656;70;0.71875;violin
224.65704778750003;0.1652778604166656;55;0.75;violin
224.65704778750003;0.1652778604166656;63;0.75;violin
224.82371453750002;0.08194448541667043;75;0.75;violin
224.82371453750002;0.08194448541667043;79;0.75;violin
224.9903812875;0.08194448541667043;77;0.75;violin
224.9903812875;0.08194448541667043;80;0.75;violin
225.15704803750003;0.08194448541667043;79;0.75;violin
225.15704803750003;0.08194448541667043;82;0.75;violin
225.32371478750002;0.08194448541667043;80;0.75;violin
225.32371478750002;0.08194448541667043;84;0.75;violin
225.4903815375;0.08194448541667043;82;0.75;violin
225.4903815375;0.08194448541667043;86;0.75;violin
225.65704828750003;0.08194448541667043;84;0.75;violin
225.65704828750003;0.08194448541667043;87;0.75;violin
225.82371503750002;0.08194448541667043;86;0.75;violin
225.82371503750002;0.08194448541667043;89;0.75;violin
225.9903817875;0.08194448541667043;87;0.75;violin
225.9903817875;0.08194448541667043;91;0.75;violin
226.15704853750003;0.08194448541667043;86;0.75;violin
226.15704853750003;0.08194448541667043;89;0.75;violin
226.32371528750002;0.08194448541667043;84;0.75;violin
226.32371528750002;0.08194448541667043;87;0.75;violin
226.4903820375;0.08194448541667043;83;0.75;violin
226.4903820375;0.08194448541667043;86;0.75;violin
226.65704878750003;0.08194448541667043;84;0.75;violin
226.65704878750003;0.08194448541667043;87;0.75;violin
226.82371553750002;0.08194448541667043;83;0.75;violin
226.82371553750002;0.08194448541667043;86;0.75;violin
226.9903822875;0.08194448541667043;84;0.75;violin
226.9903822875;0.08194448541667043;87;0.75;violin
227.15704903750003;0.08194448541667043;83;0.75;violin
227.15704903750003;0.08194448541667043;86;0.75;violin
227.32371578750002;0.08194448541667043;86;0.75;violin
227.32371578750002;0.08194448541667043;89;0.75;violin
227.4903825375;0.08194448541667043;84;0.75;violin
227.4903825375;0.08194448541667043;87;0.75;violin
227.65704928750003;0.08194448541667043;83;0.75;violin
227.65704928750003;0.08194448541667043;86;0.75;violin
227.82371603750002;0.08194448541667043;84;0.75;violin
227.82371603750002;0.08194448541667043;87;0.75;violin
227.99038278750004;0.08194448541664201;82;0.75;violin
227.99038278750004;0.08194448541664201;86;0.75;violin
228.15704953750003;0.08194448541667043;80;0.75;violin
228.15704953750003;0.08194448541667043;84;0.75;violin
228.32371628750002;0.08194448541667043;79;0.75;violin
228.32371628750002;0.08194448541667043;82;0.75;violin
228.4903830375;0.08194448541667043;77;0.75;violin
228.4903830375;0.08194448541667043;80;0.75;violin
228.65704978750003;0.08194448541667043;75;0.75;violin
228.65704978750003;0.08194448541667043;79;0.75;violin
228.82371653750002;0.08194448541667043;77;0.75;violin
228.82371653750002;0.08194448541667043;80;0.75;violin
228.99038328750004;0.08194448541664201;78;0.75;violin
228.99038328750004;0.08194448541664201;81;0.75;violin
229.15705003750003;0.08194448541667043;79;0.75;violin
229.15705003750003;0.08194448541667043;82;0.75;violin
229.32371678750002;0.08194448541667043;79;0.75;violin
229.32371678750002;0.08194448541667043;82;0.75;violin
229.49038353750004;0.08194448541664201;77;0.75;violin
229.49038353750004;0.08194448541664201;80;0.75;violin
229.65705028750003;0.08194448541667043;75;0.75;violin
229.65705028750003;0.08194448541667043;79;0.75;violin
229.82371703750002;0.08194448541667043;74;0.75;violin
229.82371703750002;0.08194448541667043;77;0.75;violin
229.99038378750004;0.1652778604166656;75;0.75;violin
229.99038378750004;0.1652778604166656;79;0.75;violin
230.15705053750003;0.1652778604166656;63;0.3828125;violin
230.15705053750003;0.1652778604166656;67;0.3828125;violin
230.32371728750002;0.1652778604166656;65;0.3828125;violin
230.32371728750002;0.1652778604166656;68;0.3828125;violin
230.49038403750004;0.1652778604166656;67;0.3828125;violin
230.49038403750004;0.1652778604166656;70;0.3828125;violin
230.65705078750003;0.1652778604166656;68;0.3828125;violin
230.65705078750003;0.1652778604166656;72;0.3828125;violin
230.82371753750002;0.1652778604166656;70;0.3828125;violin
230.82371753750002;0.1652778604166656;74;0.3828125;violin
230.99038428750004;0.1652778604166656;72;0.3828125;violin
230.99038428750004;0.1652778604166656;75;0.3828125;violin
231.15705103750003;0.1652778604166656;74;0.3828125;violin
231.15705103750003;0.1652778604166656;77;0.3828125;violin
231.32371778750002;0.1652778604166656;75;0.3828125;violin
231.32371778750002;0.1652778604166656;79;0.3828125;violin
231.49038453750003;0.1652778604166656;74;0.3828125;violin
231.49038453750003;0.1652778604166656;77;0.3828125;violin
231.65705128750002;0.1652778604166656;72;0.3828125;violin
231.65705128750002;0.1652778604166656;75;0.3828125;violin
231.82371803750002;0.1652778604166656;71;0.3828125;violin
231.82371803750002;0.1652778604166656;74;0.3828125;violin
231.99038478750003;0.1652778604166656;72;0.3828125;violin
231.99038478750003;0.1652778604166656;75;0.3828125;violin
232.15705153750002;0.1652778604166656;71;0.3828125;violin
232.15705153750002;0.1652778604166656;74;0.3828125;violin
232.32371828750001;0.1652778604166656;72;0.3828125;violin
232.32371828750001;0.1652778604166656;75;0.3828125;violin
232.49038503750003;0.1652778604166656;71;0.3828125;violin
232.49038503750003;0.1652778604166656;74;0.3828125;violin
232.65705178750002;0.1652778604166656;74;0.3828125;violin
232.65705178750002;0.1652778604166656;77;0.3828125;violin
232.8237185375;0.1652778604166656;72;0.3828125;violin
232.8237185375;0.1652778604166656;75;0.3828125;violin
232.99038528750003;0.1652778604166656;71;0.3828125;violin
232.99038528750003;0.1652778604166656;74;0.3828125;violin
233.15705203750002;0.1652778604166656;72;0.3828125;violin
233.15705203750002;0.1652778604166656;75;0.3828125;violin
233.3237187875;0.1652778604166656;70;0.3828125;violin
233.3237187875;0.1652778604166656;74;0.3828125;violin
233.49038553750003;0.1652778604166656;68;0.3828125;violin
233.49038553750003;0.1652778604166656;72;0.3828125;violin
233.65705228750002;0.1652778604166656;67;0.3828125;violin
233.65705228750002;0.1652778604166656;70;0.3828125;violin
233.8237190375;0.165277860416694;65;0.3828125;violin
233.8237190375;0.165277860416694;68;0.3828125;violin
233.99038578750003;0.1652778604166656;63;0.3828125;violin
233.99038578750003;0.1652778604166656;67;0.3828125;violin
234.15705253750002;0.1652778604166656;65;0.3828125;violin
234.15705253750002;0.1652778604166656;68;0.3828125;violin
234.3237192875;0.1652778604166656;66;0.3828125;violin
234.3237192875;0.1652778604166656;69;0.3828125;violin
234.49038603750003;0.1652778604166656;67;0.3828125;violin
234.49038603750003;0.1652778604166656;70;0.3828125;violin
234.65705278750002;0.1652778604166656;67;0.3828125;violin
234.65705278750002;0.1652778604166656;70;0.3828125;violin
234.82371953750004;0.1652778604166656;65;0.3828125;violin
234.82371953750004;0.1652778604166656;68;0.3828125;violin
234.99038628750003;0.1652778604166656;63;0.3828125;violin
234.99038628750003;0.1652778604166656;67;0.3828125;violin
235.15705303750002;0.1652778604166656;62;0.3828125;violin
235.15705303750002;0.1652778604166656;65;0.3828125;violin
235.3237197875;1.331945110416683;63;0.2578125;violin
235.3237197875;1.331945110416683;67;0.2578125;violin
236.65705378750002;1.331945110416683;58;0.2578125;violin
236.65705378750002;0.0805555958333457;65;0.2578125;violin
236.7389982729167;0.0805555958333457;67;0.2578125;violin
236.82372053750004;0.08055559583331728;65;0.2578125;violin
236.90566502291668;0.0805555958333457;67;0.2578125;violin
236.99038728750003;0.0805555958333457;65;0.2578125;violin
237.0723317729167;0.08055559583331728;67;0.2578125;violin
237.15705403750002;0.0805555958333457;65;0.2578125;violin
237.2389985229167;0.0805555958333457;67;0.2578125;violin
237.32372078750004;0.08055559583331728;65;0.2578125;violin
237.40566527291668;0.0805555958333457;67;0.2578125;violin
237.49038753750003;0.08055559583331728;65;0.2578125;violin
237.5723320229167;0.08055559583331728;67;0.2578125;violin
237.65705428750002;0.0805555958333457;65;0.2578125;violin
237.7389987729167;0.0805555958333457;67;0.2578125;violin
237.82372103750004;0.08055559583331728;65;0.2578125;violin
237.9056655229167;0.08055559583331728;67;0.2578125;violin
237.99038778750003;1.3319451104166546;55;0.2578125;violin
237.99038778750003;1.3319451104166546;63;0.2578125;violin
240.6570557875;1.331945110416683;63;0.75;violin
240.6570557875;1.331945110416683;67;0.75;violin
240.6570557875;1.331945110416683;70;0.75;violin
241.99038978750002;1.3319451104166546;58;0.75;violin
241.99038978750002;1.3319451104166546;65;0.75;violin
241.99038978750002;0.0805555958333457;74;0.75;violin
242.0723342729167;0.0805555958333457;75;0.75;violin
242.1570565375;0.0805555958333457;74;0.75;violin
242.23900102291668;0.0805555958333457;75;0.75;violin
242.32372328750003;0.08055559583331728;74;0.75;violin
242.4056677729167;0.08055559583331728;75;0.75;violin
242.49039003750002;0.0805555958333457;74;0.75;violin
242.5723345229167;0.0805555958333457;75;0.75;violin
242.65705678750004;0.08055559583331728;74;0.75;violin
242.73900127291668;0.0805555958333457;75;0.75;violin
242.82372353750003;0.08055559583331728;74;0.75;violin
242.9056680229167;0.08055559583331728;75;0.75;violin
242.99039028750002;0.0805555958333457;74;0.75;violin
243.0723347729167;0.0805555958333457;75;0.75;violin
243.1570570375;0.0805555958333457;74;0.75;violin
243.23900152291668;0.0805555958333457;75;0.75;violin
243.32372378750003;1.3319451104166546;55;0.75;violin
243.32372378750003;1.3319451104166546;63;0.75;violin
243.32372378750003;1.3319451104166546;75;0.75;violin
245.99039178750002;1.331945110416683;70;0.75;violin
245.99039178750002;1.331945110416683;82;0.8984375;violin
247.32372578750002;0.0805555958333457;66;0.75;violin
247.32372578750002;0.0805555958333457;78;0.8984375;violin
247.4056702729167;0.08055559583331728;67;0.75;violin
247.4056702729167;0.08055559583331728;79;0.8984375;violin
247.49039253750001;0.0805555958333457;66;0.75;violin
247.49039253750001;0.0805555958333457;78;0.8984375;violin
247.57233702291668;0.0805555958333457;67;0.75;violin
247.57233702291668;0.0805555958333457;79;0.8984375;violin
247.65705928750003;0.08055559583331728;66;0.75;violin
247.65705928750003;0.08055559583331728;78;0.8984375;violin
247.7390037729167;0.08055559583331728;67;0.75;violin
247.7390037729167;0.08055559583331728;79;0.8984375;violin
247.82372603750002;0.0805555958333457;66;0.75;violin
247.82372603750002;0.0805555958333457;78;0.8984375;violin
247.9056705229167;0.0805555958333457;67;0.75;violin
247.9056705229167;0.0805555958333457;79;0.8984375;violin
247.9903927875;0.0805555958333457;66;0.75;violin
247.9903927875;0.0805555958333457;78;0.8984375;violin
248.07233727291668;0.0805555958333457;67;0.75;violin
248.07233727291668;0.0805555958333457;79;0.8984375;violin
248.15705953750003;0.08055559583331728;66;0.75;violin
248.15705953750003;0.08055559583331728;78;0.8984375;violin
248.2390040229167;0.08055559583331728;67;0.75;violin
248.2390040229167;0.08055559583331728;79;0.8984375;violin
248.32372628750002;0.0805555958333457;66;0.75;violin
248.32372628750002;0.0805555958333457;78;0.8984375;violin
248.4056707729167;0.08055559583331728;67;0.75;violin
248.4056707729167;0.08055559583331728;79;0.8984375;violin
248.4903930375;0.0805555958333457;66;0.75;violin
248.4903930375;0.0805555958333457;78;0.8984375;violin
248.57233752291668;0.0805555958333457;67;0.75;violin
248.57233752291668;0.0805555958333457;79;0.8984375;violin
248.65705978750003;1.9986121104166727;67;0.75;violin
248.65705978750003;1.9986121104166727;79;0.8984375;violin
251.15706103750003;0.1652778604166656;65;0.75;violin
251.15706103750003;0.1652778604166656;77;0.8984375;violin
251.32372778750002;1.331945110416683;64;0.75;violin
251.32372778750002;1.331945110416683;76;0.8984375;violin
252.65706178750003;0.0805555958333457;63;0.75;violin
252.65706178750003;0.0805555958333457;75;0.8984375;violin
252.7390062729167;0.0805555958333457;65;0.75;violin
252.7390062729167;0.0805555958333457;77;0.8984375;violin
252.82372853750002;0.0805555958333457;63;0.75;violin
252.82372853750002;0.0805555958333457;75;0.8984375;violin
252.9056730229167;0.0805555958333457;65;0.75;violin
252.9056730229167;0.0805555958333457;77;0.8984375;violin
252.99039528750004;0.08055559583331728;63;0.75;violin
252.99039528750004;0.08055559583331728;75;0.8984375;violin
253.07233977291668;0.0805555958333457;65;0.75;violin
253.07233977291668;0.0805555958333457;77;0.8984375;violin
253.15706203750003;0.08055559583331728;63;0.75;violin
253.15706203750003;0.08055559583331728;75;0.8984375;violin
253.2390065229167;0.08055559583331728;65;0.75;violin
253.2390065229167;0.08055559583331728;77;0.8984375;violin
253.32372878750002;0.0805555958333457;63;0.75;violin
253.32372878750002;0.0805555958333457;75;0.8984375;violin
253.4056732729167;0.0805555958333457;65;0.75;violin
253.4056732729167;0.0805555958333457;77;0.8984375;violin
253.49039553750004;0.08055559583331728;63;0.75;violin
253.49039553750004;0.08055559583331728;75;0.8984375;violin
253.5723400229167;0.08055559583331728;65;0.75;violin
253.5723400229167;0.08055559583331728;77;0.8984375;violin
253.65706228750003;0.0805555958333457;63;0.75;violin
253.65706228750003;0.0805555958333457;75;0.8984375;violin
253.7390067729167;0.0805555958333457;65;0.75;violin
253.7390067729167;0.0805555958333457;77;0.8984375;violin
253.82372903750002;0.0805555958333457;63;0.75;violin
253.82372903750002;0.0805555958333457;75;0.8984375;violin
253.9056735229167;0.0805555958333457;65;0.75;violin
253.9056735229167;0.0805555958333457;77;0.8984375;violin
253.99039578750003;1.9986121104166443;56;0.8984375;violin
253.99039578750003;1.9986121104166443;68;0.8984375;violin
256.6570637875;0.1652778604166656;68;0.8984375;violin
256.8237305375;0.1652778604166656;80;0.3828125;violin
256.9903972875;0.1652778604166656;82;0.3828125;violin
257.15706403750005;0.1652778604166656;84;0.3828125;violin
257.32373078750004;0.1652778604166656;85;0.3828125;violin
257.49039753750003;0.1652778604166656;87;0.3828125;violin
257.6570642875;0.1652778604166656;89;0.3828125;violin
257.8237310375;0.1652778604166656;91;0.3828125;violin
257.9903977875;0.16527786041672243;92;0.3828125;violin
258.15706453750005;0.1652778604166656;94;0.3828125;violin
258.32373128750004;0.1652778604166656;96;0.3828125;violin
258.49039803750003;0.1652778604166656;97;0.3828125;violin
258.6570647875;0.1652778604166656;99;0.3828125;violin
258.8237315375;0.1652778604166656;101;0.3828125;violin
258.99039828750006;0.16527786041660875;103;0.3828125;violin
259.15706503750005;0.1652778604166656;104;0.3828125;violin
259.32373178750004;0.1652778604166656;63;0.8984375;violin
259.4903985375;0.1652778604166656;75;0.3828125;violin
259.6570652875;0.1652778604166656;77;0.3828125;violin
259.8237320375;0.1652778604166656;79;0.3828125;violin
259.9903987875;0.16527786041672243;80;0.3828125;violin
260.15706553750005;0.1652778604166656;82;0.3828125;violin
260.32373228750004;0.1652778604166656;84;0.3828125;violin
260.4903990375;0.1652778604166656;86;0.3828125;violin
260.6570657875;0.1652778604166656;87;0.3828125;violin
260.8237325375;0.1652778604166656;89;0.3828125;violin
260.99039928750005;0.16527786041660875;91;0.3828125;violin
261.15706603750004;0.1652778604166656;92;0.3828125;violin
261.32373278750003;0.1652778604166656;94;0.3828125;violin
261.4903995375;0.1652778604166656;96;0.3828125;violin
261.6570662875;0.1652778604166656;98;0.3828125;violin
261.8237330375;0.1652778604166656;99;0.3828125;violin
261.9903997875;0.16527786041672243;65;0.8984375;violin
262.15706653750004;0.1652778604166656;77;0.3828125;violin
262.32373328750003;0.1652778604166656;79;0.3828125;violin
262.4904000375;0.1652778604166656;80;0.3828125;violin
262.6570667875;0.1652778604166656;82;0.3828125;violin
262.8237335375;0.1652778604166656;84;0.3828125;violin
262.99040028750005;0.16527786041660875;86;0.3828125;violin
263.15706703750004;0.1652778604166656;88;0.3828125;violin
263.32373378750003;0.1652778604166656;89;0.3828125;violin
263.4904005375;0.1652778604166656;91;0.3828125;violin
263.6570672875;0.1652778604166656;92;0.3828125;violin
263.8237340375;0.1652778604166656;94;0.3828125;violin
263.99040078750005;0.1652778604166656;96;0.3828125;violin
264.15706753750004;0.1652778604166656;98;0.3828125;violin
264.32373428750003;0.1652778604166656;100;0.3828125;violin
264.4904010375;0.1652778604166656;101;0.3828125;violin
264.6570677875;0.1652778604166656;60;0.8984375;violin
264.8237345375;0.1652778604166656;72;0.3828125;violin
264.99040128750005;0.1652778604166656;74;0.3828125;violin
265.15706803750004;0.1652778604166656;76;0.3828125;violin
265.32373478750003;0.1652778604166656;77;0.3828125;violin
265.4904015375;0.1652778604166656;79;0.3828125;violin
265.6570682875;0.1652778604166656;81;0.3828125;violin
265.8237350375;0.16527786041672243;83;0.3828125;violin
265.99040178750005;0.1652778604166656;84;0.3828125;violin
266.15706853750004;0.1652778604166656;86;0.3828125;violin
266.3237352875;0.1652778604166656;88;0.3828125;violin
266.4904020375;0.1652778604166656;89;0.3828125;violin
266.6570687875;0.1652778604166656;91;0.3828125;violin
266.82373553750006;0.16527786041660875;93;0.3828125;violin
266.99040228750005;0.1652778604166656;95;0.3828125;violin
267.15706903750004;0.1652778604166656;96;0.3828125;violin
267.3237357875;0.1652778604166656;61;0.75;violin
267.3237357875;1.498611860416645;73;0.75;violin
267.4904025375;0.1652778604166656;63;0.75;violin
267.6570692875;0.1652778604166656;65;0.75;violin
267.8237360375;0.16527786041672243;63;0.75;violin
267.99040278750005;0.1652778604166656;61;0.75;violin
268.15706953750004;0.1652778604166656;63;0.75;violin
268.3237362875;0.1652778604166656;65;0.75;violin
268.4904030375;0.1652778604166656;63;0.75;violin
268.6570697875;0.1652778604166656;61;0.75;violin
268.82373653750005;0.16527786041660875;65;0.3828125;violin
268.82373653750005;0.16527786041660875;68;0.3828125;violin
268.99040328750004;0.1652778604166656;64;0.3828125;violin
268.99040328750004;0.1652778604166656;67;0.3828125;violin
269.15707003750003;0.1652778604166656;65;0.3828125;violin
269.15707003750003;0.1652778604166656;68;0.3828125;violin
269.3237367875;0.1652778604166656;66;0.3828125;violin
269.3237367875;0.1652778604166656;70;0.3828125;violin
269.4904035375;0.1652778604166656;65;0.3828125;violin
269.4904035375;0.1652778604166656;68;0.3828125;violin
269.6570702875;0.1652778604166656;63;0.3828125;violin
269.6570702875;0.1652778604166656;66;0.3828125;violin
269.8237370375;0.16527786041672243;61;0.3828125;violin
269.8237370375;0.16527786041672243;65;0.3828125;violin
269.99040378750004;0.1652778604166656;68;0.75;violin
269.99040378750004;1.498611860416645;80;0.75;violin
270.15707053750003;0.1652778604166656;70;0.75;violin
270.3237372875;0.1652778604166656;72;0.75;violin
270.4904040375;0.1652778604166656;70;0.75;violin
270.6570707875;0.1652778604166656;68;0.75;violin
270.82373753750005;0.1652778604166656;70;0.75;violin
270.99040428750004;0.1652778604166656;72;0.75;violin
271.15707103750003;0.1652778604166656;70;0.75;violin
271.3237377875;0.1652778604166656;68;0.75;violin
271.4904045375;0.1652778604166656;72;0.3828125;violin
271.4904045375;0.1652778604166656;75;0.3828125;violin
271.6570712875;0.1652778604166656;71;0.3828125;violin
271.6570712875;0.1652778604166656;74;0.3828125;violin
271.82373803750005;0.1652778604166656;72;0.3828125;violin
271.82373803750005;0.1652778604166656;75;0.3828125;violin
271.99040478750004;0.1652778604166656;74;0.3828125;violin
271.99040478750004;0.1652778604166656;77;0.3828125;violin
272.15707153750003;0.1652778604166656;72;0.3828125;violin
272.15707153750003;0.1652778604166656;75;0.3828125;violin
272.3237382875;0.1652778604166656;70;0.3828125;violin
272.3237382875;0.1652778604166656;74;0.3828125;violin
272.4904050375;0.1652778604166656;68;0.3828125;violin
272.4904050375;0.1652778604166656;72;0.3828125;violin
272.6570717875;0.1652778604166656;63;0.75;violin
272.6570717875;1.4986118604167018;75;0.75;violin
272.82373853750005;0.1652778604166656;65;0.75;violin
272.99040528750004;0.1652778604166656;66;0.75;violin
273.15707203750003;0.1652778604166656;65;0.75;violin
273.3237387875;0.1652778604166656;63;0.75;violin
273.4904055375;0.1652778604166656;65;0.75;violin
273.6570722875;0.16527786041672243;66;0.75;violin
273.82373903750005;0.1652778604166656;65;0.75;violin
273.99040578750004;0.1652778604166656;63;0.75;violin
274.1570725375;0.1652778604166656;66;0.3828125;violin
274.1570725375;0.1652778604166656;70;0.3828125;violin
274.3237392875;0.1652778604166656;65;0.3828125;violin
274.3237392875;0.1652778604166656;69;0.3828125;violin
274.4904060375;0.1652778604166656;66;0.3828125;violin
274.4904060375;0.1652778604166656;70;0.3828125;violin
274.65707278750006;0.16527786041660875;68;0.3828125;violin
274.65707278750006;0.16527786041660875;72;0.3828125;violin
274.82373953750005;0.1652778604166656;66;0.3828125;violin
274.82373953750005;0.1652778604166656;70;0.3828125;violin
274.99040628750004;0.1652778604166656;65;0.3828125;violin
274.99040628750004;0.1652778604166656;68;0.3828125;violin
275.1570730375;0.1652778604166656;63;0.3828125;violin
275.1570730375;0.1652778604166656;66;0.3828125;violin
275.3237397875;0.1652778604166656;70;0.75;violin
275.3237397875;1.498611860416645;82;0.75;violin
275.4904065375;0.1652778604166656;72;0.75;violin
275.6570732875;0.16527786041672243;74;0.75;violin
275.82374003750004;0.1652778604166656;72;0.75;violin
275.99040678750004;0.1652778604166656;70;0.75;violin
276.1570735375;0.1652778604166656;72;0.75;violin
276.3237402875;0.1652778604166656;74;0.75;violin
276.4904070375;0.1652778604166656;72;0.75;violin
276.65707378750005;0.16527786041660875;70;0.75;violin
276.82374053750004;0.1652778604166656;74;0.3828125;violin
276.82374053750004;0.1652778604166656;77;0.3828125;violin
276.99040728750003;0.1652778604166656;73;0.3828125;violin
276.99040728750003;0.1652778604166656;76;0.3828125;violin
277.1570740375;0.1652778604166656;74;0.3828125;violin
277.1570740375;0.1652778604166656;77;0.3828125;violin
277.3237407875;0.1652778604166656;75;0.3828125;violin
277.3237407875;0.1652778604166656;78;0.3828125;violin
277.4904075375;0.1652778604166656;74;0.3828125;violin
277.4904075375;0.1652778604166656;77;0.3828125;violin
277.6570742875;0.16527786041672243;72;0.3828125;violin
277.6570742875;0.16527786041672243;75;0.3828125;violin
277.82374103750004;0.1652778604166656;70;0.3828125;violin
277.82374103750004;0.1652778604166656;74;0.3828125;violin
277.99040778750003;0.1652778604166656;75;0.453125;violin
277.99040778750003;0.1652778604166656;78;0.453125;violin
278.1570745375;0.1652778604166656;74;0.3828125;violin
278.1570745375;0.1652778604166656;77;0.3828125;violin
278.3237412875;0.1652778604166656;75;0.3828125;violin
278.3237412875;0.1652778604166656;78;0.3828125;violin
278.4904080375;0.1652778604166656;74;0.3828125;violin
278.4904080375;0.1652778604166656;77;0.3828125;violin
278.65707478750005;0.1652778604166656;75;0.3828125;violin
278.65707478750005;0.1652778604166656;78;0.3828125;violin
278.82374153750004;0.1652778604166656;74;0.3828125;violin
278.82374153750004;0.1652778604166656;77;0.3828125;violin
278.99040828750003;0.1652778604166656;75;0.3828125;violin
278.99040828750003;0.1652778604166656;78;0.3828125;violin
279.1570750375;0.1652778604166656;73;0.3828125;violin
279.1570750375;0.1652778604166656;77;0.3828125;violin
279.3237417875;0.1652778604166656;71;0.453125;violin
279.3237417875;0.1652778604166656;75;0.453125;violin
279.4904085375;0.16527786041672243;70;0.3828125;violin
279.4904085375;0.16527786041672243;73;0.3828125;violin
279.65707528750005;0.1652778604166656;71;0.3828125;violin
279.65707528750005;0.1652778604166656;75;0.3828125;violin
279.82374203750004;0.1652778604166656;70;0.3828125;violin
279.82374203750004;0.1652778604166656;73;0.3828125;violin
279.99040878750003;0.1652778604166656;71;0.3828125;violin
279.99040878750003;0.1652778604166656;75;0.3828125;violin
280.1570755375;0.1652778604166656;70;0.3828125;violin
280.1570755375;0.1652778604166656;73;0.3828125;violin
280.3237422875;0.1652778604166656;71;0.3828125;violin
280.3237422875;0.3319446104166559;75;0.3828125;violin
280.49040903750006;0.16527786041660875;70;0.3828125;violin
280.65707578750005;1.3319451104166546;68;0.3828125;violin
280.65707578750005;0.1652778604166656;76;0.3828125;violin
280.82374253750004;0.1652778604166656;75;0.3828125;violin
280.99040928750003;0.1652778604166656;76;0.3828125;violin
281.1570760375;0.1652778604166656;78;0.3828125;violin
281.3237427875;0.1652778604166656;76;0.3828125;violin
281.4904095375;0.16527786041672243;75;0.3828125;violin
281.65707628750005;0.1652778604166656;76;0.3828125;violin
281.82374303750004;0.1652778604166656;75;0.3828125;violin
281.9904097875;0.1652778604166656;70;0.3828125;violin
281.9904097875;1.3319451104166546;73;0.3828125;violin
282.1570765375;0.1652778604166656;68;0.3828125;violin
282.3237432875;0.1652778604166656;70;0.3828125;violin
282.49041003750006;0.16527786041660875;71;0.3828125;violin
282.65707678750005;0.1652778604166656;70;0.3828125;violin
282.82374353750004;0.1652778604166656;68;0.3828125;violin
282.9904102875;0.1652778604166656;70;0.3828125;violin
283.1570770375;0.1652778604166656;68;0.3828125;violin
283.3237437875;1.3319451104166546;67;0.3828125;violin
283.3237437875;0.1652778604166656;75;0.3828125;violin
283.4904105375;0.16527786041672243;74;0.3828125;violin
283.65707728750004;0.1652778604166656;75;0.3828125;violin
283.82374403750003;0.1652778604166656;76;0.3828125;violin
283.9904107875;0.1652778604166656;75;0.3828125;violin
284.1570775375;0.1652778604166656;74;0.3828125;violin
284.3237442875;0.1652778604166656;75;0.3828125;violin
284.49041103750005;0.16527786041660875;73;0.3828125;violin
284.65707778750004;0.1652778604166656;68;0.3828125;violin
284.65707778750004;1.3319451104166546;71;0.3828125;violin
284.82374453750003;0.1652778604166656;67;0.3828125;violin
284.9904112875;0.1652778604166656;68;0.3828125;violin
285.1570780375;0.1652778604166656;69;0.3828125;violin
285.3237447875;0.16527786041672243;68;0.3828125;violin
285.4904115375;0.16527786041672243;67;0.3828125;violin
285.65707828750004;0.1652778604166656;68;0.3828125;violin
285.82374503750003;0.1652778604166656;66;0.3828125;violin
285.9904117875;0.1652778604166656;64;0.75;violin
285.9904117875;1.4986118604167018;76;0.75;violin
286.1570785375;0.1652778604166656;66;0.75;violin
286.32374528750006;0.16527786041660875;68;0.75;violin
286.49041203750005;0.16527786041660875;66;0.75;violin
286.65707878750004;0.1652778604166656;64;0.75;violin
286.82374553750003;0.1652778604166656;66;0.75;violin
286.9904122875;0.1652778604166656;68;0.75;violin
287.1570790375;0.1652778604166656;66;0.75;violin
287.3237457875;0.16527786041672243;64;0.75;violin
287.4904125375;0.16527786041672243;68;0.3828125;violin
287.4904125375;0.16527786041672243;71;0.3828125;violin
287.65707928750004;0.1652778604166656;67;0.3828125;violin
287.65707928750004;0.1652778604166656;70;0.3828125;violin
287.82374603750003;0.1652778604166656;68;0.3828125;violin
287.82374603750003;0.1652778604166656;71;0.3828125;violin
287.9904127875;0.1652778604166656;69;0.3828125;violin
287.9904127875;0.1652778604166656;73;0.3828125;violin
288.1570795375;0.1652778604166656;68;0.3828125;violin
288.1570795375;0.1652778604166656;71;0.3828125;violin
288.32374628750006;0.16527786041660875;66;0.3828125;violin
288.32374628750006;0.16527786041660875;69;0.3828125;violin
288.49041303750005;0.1652778604166656;64;0.3828125;violin
288.49041303750005;0.1652778604166656;68;0.3828125;violin
288.65707978750004;0.1652778604166656;71;0.75;violin
288.65707978750004;1.498611860416645;83;0.75;violin
288.8237465375;0.1652778604166656;73;0.75;violin
288.9904132875;0.1652778604166656;75;0.75;violin
289.1570800375;0.1652778604166656;73;0.75;violin
289.3237467875;0.16527786041672243;71;0.75;violin
289.49041353750005;0.1652778604166656;73;0.75;violin
289.65708028750004;0.1652778604166656;75;0.75;violin
289.8237470375;0.1652778604166656;73;0.75;violin
289.9904137875;0.1652778604166656;71;0.75;violin
290.1570805375;0.1652778604166656;75;0.3828125;violin
290.1570805375;0.1652778604166656;78;0.3828125;violin
290.32374728750005;0.16527786041660875;74;0.3828125;violin
290.32374728750005;0.16527786041660875;77;0.3828125;violin
290.49041403750005;0.1652778604166656;75;0.3828125;violin
290.49041403750005;0.1652778604166656;78;0.3828125;violin
290.65708078750004;0.1652778604166656;76;0.3828125;violin
290.65708078750004;0.1652778604166656;80;0.3828125;violin
290.8237475375;0.1652778604166656;75;0.3828125;violin
290.8237475375;0.1652778604166656;78;0.3828125;violin
290.9904142875;0.1652778604166656;73;0.3828125;violin
290.9904142875;0.1652778604166656;76;0.3828125;violin
291.1570810375;0.1652778604166656;71;0.3828125;violin
291.1570810375;0.1652778604166656;75;0.3828125;violin
291.3237477875;0.16527786041672243;66;0.75;violin
291.3237477875;1.4986118604167018;78;0.75;violin
291.49041453750004;0.1652778604166656;68;0.75;violin
291.65708128750003;0.1652778604166656;69;0.75;violin
291.8237480375;0.1652778604166656;68;0.75;violin
291.9904147875;0.1652778604166656;66;0.75;violin
292.1570815375;0.1652778604166656;68;0.75;violin
292.32374828750005;0.16527786041660875;69;0.75;violin
292.49041503750004;0.1652778604166656;68;0.75;violin
292.65708178750003;0.1652778604166656;66;0.75;violin
292.8237485375;0.1652778604166656;69;0.3828125;violin
292.8237485375;0.1652778604166656;73;0.3828125;violin
292.9904152875;0.1652778604166656;68;0.3828125;violin
292.9904152875;0.1652778604166656;72;0.3828125;violin
293.1570820375;0.16527786041672243;69;0.3828125;violin
293.1570820375;0.16527786041672243;73;0.3828125;violin
293.3237487875;0.16527786041672243;71;0.3828125;violin
293.3237487875;0.16527786041672243;75;0.3828125;violin
293.49041553750004;0.1652778604166656;69;0.3828125;violin
293.49041553750004;0.1652778604166656;73;0.3828125;violin
293.65708228750003;0.1652778604166656;68;0.3828125;violin
293.65708228750003;0.1652778604166656;71;0.3828125;violin
293.8237490375;0.1652778604166656;66;0.3828125;violin
293.8237490375;0.1652778604166656;69;0.3828125;violin
293.9904157875;0.1652778604166656;73;0.75;violin
293.9904157875;1.4986118604167018;85;0.75;violin
294.15708253750006;0.16527786041660875;75;0.75;violin
294.32374928750005;0.16527786041660875;77;0.75;violin
294.49041603750004;0.1652778604166656;75;0.75;violin
294.65708278750003;0.1652778604166656;73;0.75;violin
294.8237495375;0.1652778604166656;75;0.75;violin
294.9904162875;0.1652778604166656;77;0.75;violin
295.1570830375;0.16527786041672243;75;0.75;violin
295.3237497875;0.16527786041672243;73;0.75;violin
295.49041653750004;0.1652778604166656;77;0.3828125;violin
295.49041653750004;0.1652778604166656;80;0.3828125;violin
295.65708328750003;0.1652778604166656;75;0.3828125;violin
295.65708328750003;0.1652778604166656;79;0.3828125;violin
295.8237500375;0.1652778604166656;77;0.3828125;violin
295.8237500375;0.1652778604166656;80;0.3828125;violin
295.9904167875;0.1652778604166656;78;0.3828125;violin
295.9904167875;0.1652778604166656;81;0.3828125;violin
296.15708353750006;0.16527786041660875;77;0.3828125;violin
296.15708353750006;0.16527786041660875;80;0.3828125;violin
296.32375028750005;0.1652778604166656;75;0.3828125;violin
296.32375028750005;0.1652778604166656;78;0.3828125;violin
296.49041703750004;0.1652778604166656;73;0.3828125;violin
296.49041703750004;0.1652778604166656;77;0.3828125;violin
296.6570837875;0.1652778604166656;78;0.3828125;violin
296.6570837875;0.1652778604166656;81;0.3828125;violin
296.8237505375;0.1652778604166656;77;0.3828125;violin
296.8237505375;0.1652778604166656;80;0.3828125;violin
296.9904172875;0.1652778604166656;78;0.3828125;violin
296.9904172875;0.1652778604166656;81;0.3828125;violin
297.1570840375;0.16527786041672243;77;0.3828125;violin
297.1570840375;0.16527786041672243;80;0.3828125;violin
297.32375078750005;0.1652778604166656;78;0.3828125;violin
297.32375078750005;0.1652778604166656;81;0.3828125;violin
297.49041753750004;0.1652778604166656;77;0.3828125;violin
297.49041753750004;0.1652778604166656;80;0.3828125;violin
297.6570842875;0.1652778604166656;78;0.3828125;violin
297.6570842875;0.1652778604166656;81;0.3828125;violin
297.8237510375;0.1652778604166656;76;0.3828125;violin
297.8237510375;0.1652778604166656;80;0.3828125;violin
297.9904177875;0.1652778604166656;74;0.3828125;violin
297.9904177875;0.1652778604166656;78;0.3828125;violin
298.15708453750005;0.16527786041660875;73;0.3828125;violin
298.15708453750005;0.16527786041660875;77;0.3828125;violin
298.32375128750004;0.1652778604166656;74;0.3828125;violin
298.32375128750004;0.1652778604166656;78;0.3828125;violin
298.49041803750004;0.1652778604166656;73;0.3828125;violin
298.49041803750004;0.1652778604166656;77;0.3828125;violin
298.6570847875;0.1652778604166656;74;0.3828125;violin
298.6570847875;0.1652778604166656;78;0.3828125;violin
298.8237515375;0.1652778604166656;73;0.3828125;violin
298.8237515375;0.1652778604166656;77;0.3828125;violin
298.9904182875;0.16527786041672243;74;0.3828125;violin
298.9904182875;0.33194461041671275;78;0.3828125;violin
299.1570850375;0.16527786041672243;73;0.3828125;violin
299.32375178750004;1.3319451104166546;71;0.3828125;violin
299.32375178750004;0.1652778604166656;79;0.3828125;violin
299.49041853750003;0.1652778604166656;78;0.3828125;violin
299.6570852875;0.1652778604166656;79;0.3828125;violin
299.8237520375;0.1652778604166656;81;0.3828125;violin
299.99041878750006;0.16527786041660875;79;0.3828125;violin
300.15708553750005;0.16527786041660875;78;0.3828125;violin
300.32375228750004;0.1652778604166656;79;0.3828125;violin
300.49041903750003;0.1652778604166656;78;0.3828125;violin
300.6570857875;0.1652778604166656;73;0.3828125;violin
300.6570857875;1.3319451104166546;76;0.3828125;violin
300.8237525375;0.1652778604166656;71;0.3828125;violin
300.9904192875;0.16527786041672243;73;0.3828125;violin
301.1570860375;0.16527786041672243;74;0.3828125;violin
301.32375278750004;0.1652778604166656;73;0.3828125;violin
301.49041953750003;0.1652778604166656;71;0.3828125;violin
301.6570862875;0.1652778604166656;73;0.3828125;violin
301.8237530375;0.1652778604166656;71;0.3828125;violin
301.99041978750006;0.16527786041660875;70;0.453125;violin
301.99041978750006;0.16527786041660875;78;0.453125;violin
302.15708653750005;0.16527786041660875;79;0.3828125;violin
302.32375328750004;0.1652778604166656;78;0.3828125;violin
302.49042003750003;0.1652778604166656;76;0.3828125;violin
302.6570867875;0.1652778604166656;71;0.3828125;violin
302.6570867875;0.1652778604166656;74;0.3828125;violin
302.8237535375;0.1652778604166656;70;0.3828125;violin
302.9904202875;0.16527786041672243;71;0.3828125;violin
303.15708703750005;0.1652778604166656;69;0.3828125;violin
303.32375378750004;0.1652778604166656;68;0.3828125;violin
303.32375378750004;0.1652778604166656;76;0.3828125;violin
303.49042053750003;0.1652778604166656;77;0.3828125;violin
303.6570872875;0.1652778604166656;76;0.3828125;violin
303.8237540375;0.1652778604166656;74;0.3828125;violin
303.99042078750006;0.16527786041660875;69;0.3828125;violin
303.99042078750006;0.16527786041660875;72;0.3828125;violin
304.15708753750005;0.1652778604166656;68;0.3828125;violin
304.32375428750004;0.1652778604166656;69;0.3828125;violin
304.4904210375;0.1652778604166656;67;0.3828125;violin
304.6570877875;0.1652778604166656;66;0.453125;violin
304.6570877875;0.1652778604166656;74;0.453125;violin
304.8237545375;0.1652778604166656;75;0.3828125;violin
304.9904212875;0.16527786041672243;74;0.3828125;violin
305.15708803750005;0.1652778604166656;72;0.3828125;violin
305.32375478750004;0.1652778604166656;67;0.3828125;violin
305.32375478750004;0.1652778604166656;70;0.3828125;violin
305.4904215375;0.1652778604166656;66;0.3828125;violin
305.6570882875;0.1652778604166656;67;0.3828125;violin
305.8237550375;0.1652778604166656;65;0.3828125;violin
305.99042178750005;0.16527786041660875;64;0.3828125;violin
305.99042178750005;0.16527786041660875;72;0.3828125;violin
306.15708853750004;0.1652778604166656;73;0.3828125;violin
306.32375528750003;0.1652778604166656;72;0.3828125;violin
306.4904220375;0.1652778604166656;70;0.3828125;violin
306.6570887875;0.1652778604166656;65;0.3828125;violin
306.6570887875;0.1652778604166656;68;0.3828125;violin
306.8237555375;0.16527786041672243;64;0.3828125;violin
306.9904222875;0.16527786041672243;65;0.3828125;violin
307.15708903750004;0.1652778604166656;63;0.3828125;violin
307.32375578750003;0.1652778604166656;62;0.3828125;violin
307.32375578750003;0.1652778604166656;70;0.3828125;violin
307.4904225375;0.1652778604166656;72;0.3828125;violin
307.6570892875;0.1652778604166656;70;0.3828125;violin
307.82375603750006;0.16527786041660875;68;0.3828125;violin
307.99042278750005;0.16527786041660875;63;0.3828125;violin
307.99042278750005;0.16527786041660875;67;0.3828125;violin
308.15708953750004;0.1652778604166656;62;0.3828125;violin
308.32375628750003;0.1652778604166656;63;0.3828125;violin
308.4904230375;0.1652778604166656;62;0.3828125;violin
308.6570897875;0.1652778604166656;60;0.3828125;violin
308.6570897875;0.1652778604166656;68;0.3828125;violin
308.8237565375;0.16527786041672243;63;0.3828125;violin
308.9904232875;0.16527786041672243;58;0.3828125;violin
308.9904232875;0.16527786041672243;67;0.3828125;violin
309.15709003750004;0.1652778604166656;62;0.3828125;violin
309.32375678750003;0.1652778604166656;56;0.3828125;violin
309.32375678750003;0.1652778604166656;65;0.3828125;violin
309.4904235375;0.1652778604166656;60;0.3828125;violin
309.6570902875;0.1652778604166656;57;0.3828125;violin
309.6570902875;0.1652778604166656;63;0.3828125;violin
309.82375703750006;0.16527786041660875;60;0.3828125;violin
309.99042378750005;0.1652778604166656;58;0.453125;violin
309.99042378750005;0.1652778604166656;62;0.453125;violin
310.15709053750004;0.1652778604166656;60;0.3828125;violin
310.15709053750004;0.1652778604166656;63;0.3828125;violin
310.32375728750003;0.1652778604166656;62;0.3828125;violin
310.32375728750003;0.1652778604166656;65;0.3828125;violin
310.4904240375;0.1652778604166656;60;0.3828125;violin
310.4904240375;0.1652778604166656;63;0.3828125;violin
310.6570907875;0.1652778604166656;58;0.3828125;violin
310.6570907875;0.1652778604166656;62;0.3828125;violin
310.8237575375;0.08194448541667043;73;0.3828125;violin
310.8237575375;0.08194448541667043;76;0.3828125;violin
310.99042428750005;0.08194448541661359;74;0.3828125;violin
310.99042428750005;0.08194448541661359;77;0.3828125;violin
311.15709103750004;0.08194448541667043;72;0.3828125;violin
311.15709103750004;0.08194448541667043;75;0.3828125;violin
311.3237577875;0.08194448541667043;70;0.3828125;violin
311.3237577875;0.08194448541667043;74;0.3828125;violin
311.4904245375;0.08194448541667043;68;0.3828125;violin
311.4904245375;0.08194448541667043;72;0.3828125;violin
311.6570912875;0.08194448541667043;67;0.3828125;violin
311.6570912875;0.08194448541667043;70;0.3828125;violin
311.82375803750006;0.08194448541667043;65;0.3828125;violin
311.82375803750006;0.08194448541667043;68;0.3828125;violin
311.99042478750005;0.08194448541667043;63;0.3828125;violin
311.99042478750005;0.08194448541667043;67;0.3828125;violin
312.15709153750004;0.08194448541667043;62;0.3828125;violin
312.15709153750004;0.08194448541667043;65;0.3828125;violin
312.3237582875;0.08194448541667043;60;0.3828125;violin
312.3237582875;0.08194448541667043;63;0.3828125;violin
312.4904250375;0.08194448541667043;58;0.3828125;violin
312.4904250375;0.08194448541667043;62;0.3828125;violin
312.6570917875;0.6652781104166934;57;0.3828125;violin
312.6570917875;0.1652778604166656;63;0.3828125;violin
312.8237585375;0.16527786041672243;65;0.3828125;violin
312.99042528750005;0.1652778604166656;66;0.3828125;violin
313.15709203750004;0.1652778604166656;65;0.3828125;violin
313.3237587875;0.1652778604166656;57;0.3828125;violin
313.3237587875;0.6652781104166365;63;0.3828125;violin
313.4904255375;0.1652778604166656;60;0.3828125;violin
313.6570922875;0.1652778604166656;59;0.3828125;violin
313.82375903750005;0.16527786041660875;58;0.3828125;violin
313.99042578750004;0.6652781104166365;57;0.3828125;violin
313.99042578750004;0.1652778604166656;63;0.3828125;violin
314.15709253750003;0.1652778604166656;65;0.3828125;violin
314.3237592875;0.1652778604166656;66;0.3828125;violin
314.4904260375;0.1652778604166656;65;0.3828125;violin
314.6570927875;0.16527786041672243;57;0.3828125;violin
314.6570927875;0.6652781104166934;63;0.3828125;violin
314.8237595375;0.16527786041672243;60;0.3828125;violin
314.99042628750004;0.1652778604166656;58;0.3828125;violin
315.15709303750003;0.1652778604166656;57;0.3828125;violin
315.3237597875;0.1652778604166656;58;0.453125;violin
315.3237597875;0.1652778604166656;62;0.453125;violin
315.4904265375;0.1652778604166656;60;0.3828125;violin
315.4904265375;0.1652778604166656;63;0.3828125;violin
315.65709328750006;0.16527786041660875;62;0.3828125;violin
315.65709328750006;0.16527786041660875;65;0.3828125;violin
315.82376003750005;0.16527786041660875;60;0.3828125;violin
315.82376003750005;0.16527786041660875;63;0.3828125;violin
315.99042678750004;0.1652778604166656;58;0.3828125;violin
315.99042678750004;0.1652778604166656;62;0.3828125;violin
316.15709353750003;0.08194448541667043;85;0.3828125;violin
316.15709353750003;0.08194448541667043;88;0.3828125;violin
316.3237602875;0.08194448541667043;86;0.3828125;violin
316.3237602875;0.08194448541667043;89;0.3828125;violin
316.4904270375;0.08194448541667043;84;0.3828125;violin
316.4904270375;0.08194448541667043;87;0.3828125;violin
316.6570937875;0.08194448541667043;82;0.3828125;violin
316.6570937875;0.08194448541667043;86;0.3828125;violin
316.8237605375;0.08194448541667043;80;0.3828125;violin
316.8237605375;0.08194448541667043;84;0.3828125;violin
316.99042728750004;0.08194448541667043;79;0.3828125;violin
316.99042728750004;0.08194448541667043;82;0.3828125;violin
317.15709403750003;0.08194448541667043;77;0.3828125;violin
317.15709403750003;0.08194448541667043;80;0.3828125;violin
317.3237607875;0.08194448541667043;75;0.3828125;violin
317.3237607875;0.08194448541667043;79;0.3828125;violin
317.4904275375;0.08194448541667043;74;0.3828125;violin
317.4904275375;0.08194448541667043;77;0.3828125;violin
317.65709428750006;0.08194448541667043;72;0.3828125;violin
317.65709428750006;0.08194448541667043;75;0.3828125;violin
317.82376103750005;0.08194448541667043;70;0.3828125;violin
317.82376103750005;0.08194448541667043;74;0.3828125;violin
317.99042778750004;0.6652781104166365;69;0.3828125;violin
317.99042778750004;0.1652778604166656;75;0.3828125;violin
318.15709453750003;0.1652778604166656;77;0.3828125;violin
318.3237612875;0.1652778604166656;78;0.3828125;violin
318.4904280375;0.1652778604166656;77;0.3828125;violin
318.6570947875;0.16527786041672243;69;0.3828125;violin
318.6570947875;0.6652781104166934;75;0.3828125;violin
318.82376153750005;0.1652778604166656;72;0.3828125;violin
318.99042828750004;0.1652778604166656;71;0.3828125;violin
319.1570950375;0.1652778604166656;70;0.3828125;violin
319.3237617875;0.6652781104166934;69;0.3828125;violin
319.3237617875;0.1652778604166656;75;0.3828125;violin
319.4904285375;0.1652778604166656;77;0.3828125;violin
319.65709528750006;0.16527786041660875;78;0.3828125;violin
319.82376203750005;0.1652778604166656;77;0.3828125;violin
319.99042878750004;0.1652778604166656;69;0.3828125;violin
319.99042878750004;0.6652781104166365;75;0.3828125;violin
320.1570955375;0.1652778604166656;72;0.3828125;violin
320.3237622875;0.1652778604166656;70;0.3828125;violin
320.4904290375;0.1652778604166656;69;0.3828125;violin
320.6570957875;0.16527786041672243;70;0.453125;violin
320.6570957875;0.16527786041672243;74;0.453125;violin
320.82376253750004;0.08194448541667043;58;0.3828125;violin
320.82376253750004;0.08194448541667043;62;0.3828125;violin
320.99042928750004;0.08194448541667043;62;0.3828125;violin
320.99042928750004;0.08194448541667043;65;0.3828125;violin
321.1570960375;0.08194448541667043;61;0.3828125;violin
321.1570960375;0.08194448541667043;64;0.3828125;violin
321.3237627875;0.08194448541667043;60;0.3828125;violin
321.3237627875;0.08194448541667043;63;0.3828125;violin
321.49042953750006;0.08194448541661359;58;0.3828125;violin
321.49042953750006;0.08194448541661359;62;0.3828125;violin
321.65709628750005;0.08194448541667043;62;0.3828125;violin
321.65709628750005;0.08194448541667043;65;0.3828125;violin
321.82376303750004;0.08194448541667043;61;0.3828125;violin
321.82376303750004;0.08194448541667043;64;0.3828125;violin
321.99042978750003;0.08194448541667043;60;0.3828125;violin
321.99042978750003;0.08194448541667043;63;0.3828125;violin
322.1570965375;0.08194448541667043;58;0.3828125;violin
322.1570965375;0.08194448541667043;62;0.3828125;violin
322.3237632875;0.08194448541667043;65;0.3828125;violin
322.3237632875;0.08194448541667043;68;0.3828125;violin
322.4904300375;0.08194448541667043;64;0.3828125;violin
322.4904300375;0.08194448541667043;67;0.3828125;violin
322.6570967875;0.08194448541667043;63;0.3828125;violin
322.6570967875;0.08194448541667043;67;0.3828125;violin
322.82376353750004;0.08194448541667043;62;0.3828125;violin
322.82376353750004;0.08194448541667043;65;0.3828125;violin
322.99043028750003;0.08194448541667043;65;0.3828125;violin
322.99043028750003;0.08194448541667043;68;0.3828125;violin
323.1570970375;0.08194448541667043;64;0.3828125;violin
323.1570970375;0.08194448541667043;67;0.3828125;violin
323.3237637875;0.08194448541667043;63;0.3828125;violin
323.3237637875;0.08194448541667043;67;0.3828125;violin
323.49043053750006;0.08194448541661359;62;0.3828125;violin
323.49043053750006;0.08194448541661359;65;0.3828125;violin
323.65709728750005;0.08194448541667043;74;0.3828125;violin
323.65709728750005;0.08194448541667043;77;0.3828125;violin
323.82376403750004;0.08194448541667043;72;0.3828125;violin
323.82376403750004;0.08194448541667043;75;0.3828125;violin
323.99043078750003;0.08194448541667043;70;0.3828125;violin
323.99043078750003;0.08194448541667043;74;0.3828125;violin
324.1570975375;0.08194448541667043;74;0.40625;violin
324.1570975375;0.08194448541667043;77;0.40625;violin
324.3237642875;0.08194448541667043;77;0.4375;violin
324.3237642875;0.08194448541667043;80;0.4375;violin
324.4904310375;0.08194448541667043;75;0.46875;violin
324.4904310375;0.08194448541667043;79;0.46875;violin
324.6570977875;0.08194448541667043;74;0.5;violin
324.6570977875;0.08194448541667043;77;0.5;violin
324.82376453750004;0.08194448541667043;72;0.53125;violin
324.82376453750004;0.08194448541667043;75;0.53125;violin
324.99043128750003;0.08194448541667043;70;0.5625;violin
324.99043128750003;0.08194448541667043;74;0.5625;violin
325.1570980375;0.08194448541667043;68;0.59375;violin
325.1570980375;0.08194448541667043;72;0.59375;violin
325.3237647875;0.08194448541667043;67;0.625;violin
325.3237647875;0.08194448541667043;70;0.625;violin
325.49043153750006;0.08194448541667043;65;0.65625;violin
325.49043153750006;0.08194448541667043;68;0.65625;violin
325.65709828750005;0.08194448541667043;63;0.6875;violin
325.65709828750005;0.08194448541667043;67;0.6875;violin
325.82376503750004;0.08194448541667043;62;0.71875;violin
325.82376503750004;0.08194448541667043;65;0.71875;violin
325.99043178750003;1.3319451104166546;63;0.75;violin
325.99043178750003;1.3319451104166546;75;0.75;violin
327.3237657875;0.0805555958333457;59;0.8984375;violin
327.3237657875;0.0805555958333457;71;0.75;violin
327.4057102729167;0.0805555958333457;60;0.8984375;violin
327.4057102729167;0.0805555958333457;72;0.75;violin
327.49043253750006;0.08055559583328886;59;0.8984375;violin
327.49043253750006;0.08055559583328886;71;0.75;violin
327.5723770229167;0.08055559583328886;60;0.8984375;violin
327.5723770229167;0.08055559583328886;72;0.75;violin
327.65709928750005;0.08055559583328886;59;0.8984375;violin
327.65709928750005;0.08055559583328886;71;0.75;violin
327.7390437729167;0.08055559583328886;60;0.8984375;violin
327.7390437729167;0.08055559583328886;72;0.75;violin
327.82376603750004;0.0805555958333457;59;0.8984375;violin
327.82376603750004;0.0805555958333457;71;0.75;violin
327.9057105229167;0.08055559583328886;60;0.8984375;violin
327.9057105229167;0.08055559583328886;72;0.75;violin
327.9904327875;0.0805555958333457;59;0.8984375;violin
327.9904327875;0.0805555958333457;71;0.75;violin
328.0723772729167;0.0805555958333457;60;0.8984375;violin
328.0723772729167;0.0805555958333457;72;0.75;violin
328.1570995375;0.0805555958333457;59;0.8984375;violin
328.1570995375;0.0805555958333457;71;0.75;violin
328.2390440229167;0.0805555958333457;60;0.8984375;violin
328.2390440229167;0.0805555958333457;72;0.75;violin
328.3237662875;0.0805555958333457;59;0.8984375;violin
328.3237662875;0.0805555958333457;71;0.75;violin
328.4057107729167;0.0805555958333457;60;0.8984375;violin
328.4057107729167;0.0805555958333457;72;0.75;violin
328.4904330375;0.0805555958333457;59;0.8984375;violin
328.4904330375;0.0805555958333457;71;0.75;violin
328.57237752291667;0.0805555958333457;60;0.8984375;violin
328.57237752291667;0.0805555958333457;72;0.75;violin
328.65709978750004;0.1652778604166656;60;0.8984375;violin
328.82376653750003;0.08194448541667043;72;0.3828125;violin
328.9904332875;0.08194448541667043;74;0.3828125;violin
329.1571000375;0.08194448541667043;75;0.3828125;violin
329.32376678750006;0.08194448541661359;77;0.3828125;violin
329.49043353750005;0.08194448541667043;79;0.3828125;violin
329.65710028750004;0.08194448541667043;81;0.3828125;violin
329.82376703750003;0.08194448541667043;83;0.3828125;violin
329.9904337875;0.08194448541667043;84;0.3828125;violin
330.1571005375;0.08194448541667043;86;0.3828125;violin
330.3237672875;0.08194448541667043;87;0.3828125;violin
330.4904340375;0.08194448541667043;89;0.3828125;violin
330.65710078750004;0.08194448541667043;91;0.3828125;violin
330.82376753750003;0.08194448541667043;93;0.3828125;violin
330.9904342875;0.08194448541667043;95;0.3828125;violin
331.1571010375;0.08194448541667043;96;0.3828125;violin
331.32376778750006;0.6652781104166365;56;0.75;violin
331.32376778750006;0.6652781104166365;63;0.75;violin
331.32376778750006;0.6652781104166365;72;0.75;violin
331.32376778750006;0.6652781104166365;80;0.75;violin
332.65710178750004;0.6652781104166365;58;0.75;violin
332.65710178750004;0.6652781104166365;65;0.75;violin
332.65710178750004;0.6652781104166365;74;0.75;violin
332.65710178750004;0.6652781104166365;82;0.75;violin
334.6557129;0.1652778604166656;59;0.2578125;violin
334.6557129;2.665279110416691;71;0.2578125;violin
334.82237965;0.1652778604166656;61;0.2578125;violin
334.9890464;0.16527786041672243;63;0.2578125;violin
335.15571315000005;0.1652778604166656;61;0.2578125;violin
335.32237990000004;0.1652778604166656;59;0.2578125;violin
335.48904665000003;0.1652778604166656;61;0.2578125;violin
335.6557134;0.1652778604166656;63;0.2578125;violin
335.82238015;0.1652778604166656;61;0.2578125;violin
335.98904690000006;0.1652778604166656;59;0.2578125;violin
336.15571365000005;0.1652778604166656;61;0.2578125;violin
336.32238040000004;0.1652778604166656;63;0.2578125;violin
336.48904715000003;0.1652778604166656;61;0.2578125;violin
336.6557139;0.1652778604166656;59;0.2578125;violin
336.82238065;0.1652778604166656;61;0.2578125;violin
336.98904740000006;0.1652778604166656;63;0.2578125;violin
337.15571415000005;0.1652778604166656;59;0.2578125;violin
337.32238090000004;0.3319446104166559;57;0.2578125;violin
337.32238090000004;0.3319446104166559;69;0.2578125;violin
337.98904790000006;0.6652781104166365;78;0.2578125;violin
337.98904790000006;0.6652781104166365;90;0.2578125;violin
338.6557149;0.3319446104166559;75;0.2578125;violin
338.6557149;0.3319446104166559;87;0.2578125;violin
339.32238190000004;0.6652781104166365;57;0.2578125;violin
339.32238190000004;0.6652781104166365;65;0.2578125;violin
339.98904890000006;0.3319446104166559;58;0.2578125;violin
339.98904890000006;0.1652778604166656;70;0.2578125;violin
340.15571565000005;0.4986113604166462;67;0.28125;violin
340.32238240000004;0.1652778604166656;63;0.3125;violin
340.48904915;0.1652778604166656;58;0.34375;violin
340.6557159;0.3319446104166559;70;0.375;violin
340.6557159;0.1652778604166656;82;0.375;violin
340.82238265;0.49861136041670306;79;0.40625;violin
340.98904940000006;0.1652778604166656;75;0.4375;violin
341.15571615000005;0.1652778604166656;70;0.46875;violin
341.32238290000004;0.3319446104166559;58;0.5;violin
341.32238290000004;0.1652778604166656;68;0.5;violin
341.48904965;0.4986113604166462;65;0.53125;violin
341.6557164;0.1652778604166656;62;0.5625;violin
341.82238315;0.1652778604166656;58;0.59375;violin
341.98904990000005;0.3319446104166559;70;0.625;violin
341.98904990000005;0.1652778604166656;80;0.625;violin
342.15571665000004;0.4986113604166462;77;0.65625;violin
342.32238340000004;0.1652778604166656;74;0.6875;violin
342.48905015;0.1652778604166656;70;0.71875;violin
342.6557169;0.1652778604166656;55;0.75;violin
342.6557169;0.1652778604166656;63;0.75;violin
342.82238365;0.08194448541667043;75;0.75;violin
342.82238365;0.08194448541667043;79;0.75;violin
342.98905040000005;0.08194448541667043;77;0.75;violin
342.98905040000005;0.08194448541667043;80;0.75;violin
343.15571715000004;0.08194448541667043;79;0.75;violin
343.15571715000004;0.08194448541667043;82;0.75;violin
343.32238390000003;0.08194448541667043;80;0.75;violin
343.32238390000003;0.08194448541667043;84;0.75;violin
343.48905065;0.08194448541667043;82;0.75;violin
343.48905065;0.08194448541667043;86;0.75;violin
343.6557174;0.08194448541667043;84;0.75;violin
343.6557174;0.08194448541667043;87;0.75;violin
343.82238415000006;0.08194448541661359;86;0.75;violin
343.82238415000006;0.08194448541661359;89;0.75;violin
343.98905090000005;0.08194448541667043;87;0.75;violin
343.98905090000005;0.08194448541667043;91;0.75;violin
344.15571765000004;0.08194448541667043;86;0.75;violin
344.15571765000004;0.08194448541667043;89;0.75;violin
344.32238440000003;0.08194448541667043;84;0.75;violin
344.32238440000003;0.08194448541667043;87;0.75;violin
344.48905115;0.08194448541667043;83;0.75;violin
344.48905115;0.08194448541667043;86;0.75;violin
344.6557179;0.08194448541667043;84;0.75;violin
344.6557179;0.08194448541667043;87;0.75;violin
344.82238465000006;0.08194448541661359;83;0.75;violin
344.82238465000006;0.08194448541661359;86;0.75;violin
344.98905140000005;0.08194448541667043;84;0.75;violin
344.98905140000005;0.08194448541667043;87;0.75;violin
345.15571815000004;0.08194448541667043;83;0.75;violin
345.15571815000004;0.08194448541667043;86;0.75;violin
345.32238490000003;0.08194448541667043;86;0.75;violin
345.32238490000003;0.08194448541667043;89;0.75;violin
345.48905165;0.08194448541667043;84;0.75;violin
345.48905165;0.08194448541667043;87;0.75;violin
345.6557184;0.08194448541667043;83;0.75;violin
345.6557184;0.08194448541667043;86;0.75;violin
345.82238515000006;0.08194448541667043;84;0.75;violin
345.82238515000006;0.08194448541667043;87;0.75;violin
345.98905190000005;0.08194448541667043;82;0.75;violin
345.98905190000005;0.08194448541667043;86;0.75;violin
346.15571865000004;0.08194448541667043;80;0.75;violin
346.15571865000004;0.08194448541667043;84;0.75;violin
346.32238540000003;0.08194448541667043;79;0.75;violin
346.32238540000003;0.08194448541667043;82;0.75;violin
346.48905215;0.08194448541667043;77;0.75;violin
346.48905215;0.08194448541667043;80;0.75;violin
346.6557189;0.08194448541667043;75;0.75;violin
346.6557189;0.08194448541667043;79;0.75;violin
346.82238565000006;0.08194448541667043;77;0.75;violin
346.82238565000006;0.08194448541667043;80;0.75;violin
346.98905240000005;0.08194448541667043;78;0.75;violin
346.98905240000005;0.08194448541667043;81;0.75;violin
347.15571915000004;0.08194448541667043;79;0.75;violin
347.15571915000004;0.08194448541667043;82;0.75;violin
347.32238590000003;0.08194448541667043;79;0.75;violin
347.32238590000003;0.08194448541667043;82;0.75;violin
347.48905265;0.08194448541667043;77;0.75;violin
347.48905265;0.08194448541667043;80;0.75;violin
347.6557194;0.08194448541667043;75;0.75;violin
347.6557194;0.08194448541667043;79;0.75;violin
347.82238615000006;0.08194448541667043;74;0.75;violin
347.82238615000006;0.08194448541667043;77;0.75;violin
347.98905290000005;0.1652778604166656;75;0.75;violin
347.98905290000005;0.1652778604166656;79;0.75;violin
348.15571965000004;0.1652778604166656;63;0.3828125;violin
348.15571965000004;0.1652778604166656;67;0.3828125;violin
348.3223864;0.1652778604166656;65;0.3828125;violin
348.3223864;0.1652778604166656;68;0.3828125;violin
348.48905315;0.1652778604166656;67;0.3828125;violin
348.48905315;0.1652778604166656;70;0.3828125;violin
348.6557199;0.16527786041672243;68;0.3828125;violin
348.6557199;0.16527786041672243;72;0.3828125;violin
348.82238665000006;0.1652778604166656;70;0.3828125;violin
348.82238665000006;0.1652778604166656;74;0.3828125;violin
348.98905340000005;0.1652778604166656;72;0.3828125;violin
348.98905340000005;0.1652778604166656;75;0.3828125;violin
349.15572015000004;0.1652778604166656;74;0.3828125;violin
349.15572015000004;0.1652778604166656;77;0.3828125;violin
349.3223869;0.1652778604166656;75;0.3828125;violin
349.3223869;0.1652778604166656;79;0.3828125;violin
349.48905365;0.1652778604166656;74;0.3828125;violin
349.48905365;0.1652778604166656;77;0.3828125;violin
349.65572040000006;0.16527786041660875;72;0.3828125;violin
349.65572040000006;0.16527786041660875;75;0.3828125;violin
349.82238715000005;0.1652778604166656;71;0.3828125;violin
349.82238715000005;0.1652778604166656;74;0.3828125;violin
349.98905390000004;0.1652778604166656;72;0.3828125;violin
349.98905390000004;0.1652778604166656;75;0.3828125;violin
350.15572065000003;0.1652778604166656;71;0.3828125;violin
350.15572065000003;0.1652778604166656;74;0.3828125;violin
350.3223874;0.1652778604166656;72;0.3828125;violin
350.3223874;0.1652778604166656;75;0.3828125;violin
350.48905415;0.1652778604166656;71;0.3828125;violin
350.48905415;0.1652778604166656;74;0.3828125;violin
350.6557209;0.16527786041672243;74;0.3828125;violin
350.6557209;0.16527786041672243;77;0.3828125;violin
350.82238765000005;0.1652778604166656;72;0.3828125;violin
350.82238765000005;0.1652778604166656;75;0.3828125;violin
350.98905440000004;0.1652778604166656;71;0.3828125;violin
350.98905440000004;0.1652778604166656;74;0.3828125;violin
351.15572115000003;0.1652778604166656;72;0.3828125;violin
351.15572115000003;0.1652778604166656;75;0.3828125;violin
351.3223879;0.1652778604166656;70;0.3828125;violin
351.3223879;0.1652778604166656;74;0.3828125;violin
351.48905465;0.1652778604166656;68;0.3828125;violin
351.48905465;0.1652778604166656;72;0.3828125;violin
351.65572140000006;0.1652778604166656;67;0.3828125;violin
351.65572140000006;0.1652778604166656;70;0.3828125;violin
351.82238815000005;0.1652778604166656;65;0.3828125;violin
351.82238815000005;0.1652778604166656;68;0.3828125;violin
351.98905490000004;0.1652778604166656;63;0.3828125;violin
351.98905490000004;0.1652778604166656;67;0.3828125;violin
352.15572165000003;0.1652778604166656;65;0.3828125;violin
352.15572165000003;0.1652778604166656;68;0.3828125;violin
352.3223884;0.1652778604166656;66;0.3828125;violin
352.3223884;0.1652778604166656;69;0.3828125;violin
352.48905515;0.1652778604166656;67;0.3828125;violin
352.48905515;0.1652778604166656;70;0.3828125;violin
352.65572190000006;0.1652778604166656;67;0.3828125;violin
352.65572190000006;0.1652778604166656;70;0.3828125;violin
352.82238865000005;0.1652778604166656;65;0.3828125;violin
352.82238865000005;0.1652778604166656;68;0.3828125;violin
352.98905540000004;0.1652778604166656;63;0.3828125;violin
352.98905540000004;0.1652778604166656;67;0.3828125;violin
353.15572215000003;0.1652778604166656;62;0.3828125;violin
353.15572215000003;0.1652778604166656;65;0.3828125;violin
353.3223889;1.3319451104166546;63;0.2578125;violin
353.3223889;1.3319451104166546;67;0.2578125;violin
354.65572290000006;1.3319451104166546;58;0.2578125;violin
354.65572290000006;0.08055559583328886;65;0.2578125;violin
354.7376673854167;0.08055559583328886;67;0.2578125;violin
354.82238965000005;0.0805555958333457;65;0.2578125;violin
354.9043341354167;0.0805555958333457;67;0.2578125;violin
354.98905640000004;0.0805555958333457;65;0.2578125;violin
355.0710008854167;0.0805555958333457;67;0.2578125;violin
355.15572315000003;0.0805555958333457;65;0.2578125;violin
355.2376676354167;0.0805555958333457;67;0.2578125;violin
355.3223899;0.0805555958333457;65;0.2578125;violin
355.4043343854167;0.0805555958333457;67;0.2578125;violin
355.48905665;0.0805555958333457;65;0.2578125;violin
355.5710011354167;0.0805555958333457;67;0.2578125;violin
355.65572340000006;0.08055559583328886;65;0.2578125;violin
355.7376678854167;0.08055559583328886;67;0.2578125;violin
355.82239015000005;0.0805555958333457;65;0.2578125;violin
355.9043346354167;0.08055559583328886;67;0.2578125;violin
355.98905690000004;1.3319451104166546;55;0.2578125;violin
355.98905690000004;1.3319451104166546;63;0.2578125;violin
358.65572490000005;1.3319451104166546;63;0.75;violin
358.65572490000005;1.3319451104166546;67;0.75;violin
358.65572490000005;1.3319451104166546;70;0.75;violin
359.98905890000003;1.3319451104166546;58;0.75;violin
359.98905890000003;1.3319451104166546;65;0.75;violin
359.98905890000003;0.0805555958333457;74;0.75;violin
360.0710033854167;0.0805555958333457;75;0.75;violin
360.15572565;0.0805555958333457;74;0.75;violin
360.2376701354167;0.0805555958333457;75;0.75;violin
360.3223924;0.0805555958333457;74;0.75;violin
360.4043368854167;0.0805555958333457;75;0.75;violin
360.48905915000006;0.08055559583328886;74;0.75;violin
360.5710036354167;0.0805555958333457;75;0.75;violin
360.65572590000005;0.0805555958333457;74;0.75;violin
360.7376703854167;0.08055559583328886;75;0.75;violin
360.82239265000004;0.0805555958333457;74;0.75;violin
360.9043371354167;0.0805555958333457;75;0.75;violin
360.98905940000003;0.0805555958333457;74;0.75;violin
361.0710038854167;0.0805555958333457;75;0.75;violin
361.15572615;0.0805555958333457;74;0.75;violin
361.2376706354167;0.0805555958333457;75;0.75;violin
361.3223929;1.3319451104167115;55;0.75;violin
361.3223929;1.3319451104167115;63;0.75;violin
361.3223929;1.3319451104167115;75;0.75;violin
