start;duration;pitch;velocity;instrument
0.0;0.18593799583333334;80;0.3828125;violin
0.0;0.18593799583333334;83;0.3828125;violin
0.18750050000000001;0.1859379958333333;78;0.3828125;violin
0.18750050000000001;0.1859379958333333;81;0.3828125;violin
0.37500100000000003;0.37343849583333333;76;0.3828125;violin
0.37500100000000003;0.37343849583333333;80;0.3828125;violin
0.7500020000000001;0.18593799583333326;76;0.3828125;violin
0.7500020000000001;0.18593799583333326;80;0.3828125;violin
0.9375025;0.18593799583333326;71;0.3828125;violin
0.9375025;0.18593799583333326;78;0.3828125;violin
1.125003;0.37343849583333344;68;0.3828125;violin
1.125003;0.37343849583333344;76;0.3828125;violin
1.5000040000000001;0.18593799583333337;80;0.3828125;violin
1.5000040000000001;0.18593799583333337;83;0.3828125;violin
1.6875045;0.18593799583333337;78;0.3828125;violin
1.6875045;0.18593799583333337;81;0.3828125;violin
1.875005;0.37343849583333344;76;0.3828125;violin
1.875005;0.37343849583333344;80;0.3828125;violin
2.250006;0.1859379958333336;76;0.3828125;violin
2.250006;0.1859379958333336;80;0.3828125;violin
2.4375065;0.1859379958333336;71;0.3828125;violin
2.4375065;0.1859379958333336;78;0.3828125;violin
2.625007;0.3734384958333332;68;0.3828125;violin
2.625007;0.3734384958333332;76;0.3828125;violin
3.0000080000000002;0.18593799583333315;68;0.3828125;violin
3.0000080000000002;0.18593799583333315;76;0.3828125;violin
3.1875085000000003;0.18593799583333315;71;0.3828125;violin
3.1875085000000003;0.18593799583333315;78;0.3828125;violin
3.375009;0.37343849583333366;76;0.3828125;violin
3.375009;0.37343849583333366;80;0.3828125;violin
3.75001;0.1859379958333336;71;0.3828125;violin
3.75001;0.1859379958333336;78;0.3828125;violin
3.9375105;0.18593799583333315;76;0.3828125;violin
3.9375105;0.18593799583333315;80;0.3828125;violin
4.125011;0.37343849583333366;78;0.3828125;violin
4.125011;0.37343849583333366;81;0.3828125;violin
4.500012;0.18593799583333404;71;0.3828125;violin
4.500012;0.18593799583333404;78;0.3828125;violin
4.6875125;0.18593799583333315;78;0.3828125;violin
4.6875125;0.18593799583333315;81;0.3828125;violin
4.875013;0.37343849583333366;80;0.3828125;violin
4.875013;0.37343849583333366;83;0.3828125;violin
5.250014;0.18593799583333315;78;0.3828125;violin
5.250014;0.18593799583333315;81;0.3828125;violin
5.4375145;0.18593799583333404;76;0.3828125;violin
5.4375145;0.18593799583333404;80;0.3828125;violin
5.625015;0.37343849583333366;71;0.3828125;violin
5.625015;0.37343849583333366;78;0.3828125;violin
6.0000160000000005;0.18593799583333315;80;0.3828125;violin
6.0000160000000005;0.18593799583333315;83;0.3828125;violin
6.1875165;0.18593799583333315;78;0.3828125;violin
6.1875165;0.18593799583333315;81;0.3828125;violin
6.375017000000001;0.3734384958333328;76;0.3828125;violin
6.375017000000001;0.3734384958333328;80;0.3828125;violin
6.750018;0.18593799583333404;76;0.3828125;violin
6.750018;0.18593799583333404;80;0.3828125;violin
6.9375185;0.18593799583333315;71;0.3828125;violin
6.9375185;0.18593799583333315;78;0.3828125;violin
7.125019;0.37343849583333366;68;0.3828125;violin
7.125019;0.37343849583333366;76;0.3828125;violin
7.50002;0.18593799583333315;80;0.3828125;violin
7.50002;0.18593799583333315;83;0.3828125;violin
7.687520500000001;0.18593799583333315;78;0.3828125;violin
7.687520500000001;0.18593799583333315;81;0.3828125;violin
7.875021;0.37343849583333366;76;0.3828125;violin
7.875021;0.37343849583333366;80;0.3828125;violin
8.250022;0.18593799583333492;76;0.3828125;violin
8.250022;0.18593799583333492;80;0.3828125;violin
8.4375225;0.18593799583333315;71;0.3828125;violin
8.4375225;0.18593799583333315;78;0.3828125;violin
8.625023;0.37343849583333366;68;0.3828125;violin
8.625023;0.37343849583333366;76;0.3828125;violin
9.000024;0.18593799583333315;68;0.3828125;violin
9.000024;0.18593799583333315;76;0.3828125;violin
9.1875245;0.18593799583333315;71;0.3828125;violin
9.1875245;0.18593799583333315;78;0.3828125;violin
9.375025;0.37343849583333366;76;0.3828125;violin
9.375025;0.37343849583333366;80;0.3828125;violin
9.750026;0.18593799583333315;78;0.3828125;violin
9.750026;0.18593799583333315;81;0.3828125;violin
9.9375265;0.18593799583333315;76;0.3828125;violin
9.9375265;0.18593799583333315;80;0.3828125;violin
10.125027000000001;0.3734384958333319;71;0.3828125;violin
10.125027000000001;0.3734384958333319;78;0.3828125;violin
10.500028;0.18593799583333315;76;0.3828125;violin
10.500028;0.18593799583333315;80;0.3828125;violin
10.6875285;0.18593799583333315;71;0.3828125;violin
10.6875285;0.18593799583333315;78;0.3828125;violin
10.875029;0.7484394958333347;68;0.3828125;violin
10.875029;0.7484394958333347;76;0.3828125;violin
12.000032000000001;0.18593799583333315;56;0.75;violin
12.000032000000001;0.18593799583333315;64;0.75;violin
12.1875325;0.18593799583333492;64;0.75;violin
12.1875325;0.18593799583333492;68;0.75;violin
12.375033;0.37343849583333366;59;0.75;violin
12.375033;0.37343849583333366;66;0.75;violin
12.750034000000001;0.18593799583333315;64;0.75;violin
12.750034000000001;0.18593799583333315;68;0.75;violin
12.9375345;0.18593799583333315;66;0.75;violin
12.9375345;0.18593799583333315;69;0.75;violin
13.125035;0.37343849583333366;68;0.75;violin
13.125035;0.37343849583333366;71;0.75;violin
13.500036;0.18593799583333492;69;0.75;violin
13.500036;0.18593799583333492;73;0.75;violin
13.6875365;0.18593799583333315;68;0.75;violin
13.6875365;0.18593799583333315;71;0.75;violin
13.875037;0.37343849583333366;66;0.75;violin
13.875037;0.37343849583333366;69;0.75;violin
14.250038;0.18593799583333315;64;0.75;violin
14.250038;0.18593799583333315;68;0.75;violin
14.4375385;0.18593799583333315;66;0.75;violin
14.4375385;0.18593799583333315;69;0.75;violin
14.625039000000001;0.37343849583333366;59;0.75;violin
14.625039000000001;0.37343849583333366;66;0.75;violin
15.00004;0.18593799583333315;56;0.75;violin
15.00004;0.18593799583333315;64;0.75;violin
15.1875405;0.18593799583333315;64;0.75;violin
15.1875405;0.18593799583333315;68;0.75;violin
15.375041000000001;0.3734384958333319;59;0.75;violin
15.375041000000001;0.3734384958333319;66;0.75;violin
15.750042;0.18593799583333315;64;0.75;violin
15.750042;0.18593799583333315;68;0.75;violin
15.937542500000001;0.18593799583333315;66;0.75;violin
15.937542500000001;0.18593799583333315;69;0.75;violin
16.125043;0.37343849583333366;68;0.75;violin
16.125043;0.37343849583333366;71;0.75;violin
16.500044;0.18593799583333492;69;0.75;violin
16.500044;0.18593799583333492;73;0.75;violin
16.6875445;0.18593799583333137;68;0.75;violin
16.6875445;0.18593799583333137;71;0.75;violin
16.875045;0.37343849583333366;66;0.75;violin
16.875045;0.37343849583333366;69;0.75;violin
17.250046;0.18593799583333137;64;0.75;violin
17.250046;0.18593799583333137;68;0.75;violin
17.4375465;0.18593799583333492;66;0.75;violin
17.4375465;0.18593799583333492;69;0.75;violin
17.625047000000002;0.37343849583333366;59;0.75;violin
17.625047000000002;0.37343849583333366;66;0.75;violin
18.000048;0.18593799583333492;80;0.3828125;violin
18.000048;0.18593799583333492;83;0.3828125;violin
18.187548500000002;0.18593799583333137;78;0.3828125;violin
18.187548500000002;0.18593799583333137;81;0.3828125;violin
18.375049;0.37343849583333366;76;0.3828125;violin
18.375049;0.37343849583333366;80;0.3828125;violin
18.75005;0.18593799583333137;76;0.3828125;violin
18.75005;0.18593799583333137;80;0.3828125;violin
18.9375505;0.18593799583333492;71;0.3828125;violin
18.9375505;0.18593799583333492;78;0.3828125;violin
19.125051;0.37343849583333366;68;0.3828125;violin
19.125051;0.37343849583333366;76;0.3828125;violin
19.500052;0.18593799583333492;68;0.75;violin
19.500052;0.18593799583333492;71;0.75;violin
19.687552500000002;0.18593799583333137;66;0.75;violin
19.687552500000002;0.18593799583333137;69;0.75;violin
19.875053;0.37343849583333366;64;0.75;violin
19.875053;0.37343849583333366;68;0.75;violin
20.250054000000002;0.18593799583333137;64;0.75;violin
20.250054000000002;0.18593799583333137;68;0.75;violin
20.4375545;0.18593799583333492;59;0.75;violin
20.4375545;0.18593799583333492;66;0.75;violin
20.625055;0.37343849583333366;56;0.75;violin
20.625055;0.37343849583333366;64;0.75;violin
21.000056;0.18593799583333492;68;0.75;violin
21.000056;0.18593799583333492;76;0.75;violin
21.1875565;0.18593799583333492;71;0.75;violin
21.1875565;0.18593799583333492;78;0.75;violin
21.375057;0.37343849583333366;76;0.75;violin
21.375057;0.37343849583333366;80;0.75;violin
21.750058;0.18593799583333492;78;0.75;violin
21.750058;0.18593799583333492;81;0.75;violin
21.9375585;0.18593799583333137;76;0.75;violin
21.9375585;0.18593799583333137;80;0.75;violin
22.125059;0.37343849583333366;71;0.75;violin
22.125059;0.37343849583333366;78;0.75;violin
22.50006;0.18593799583333137;76;0.75;violin
22.50006;0.18593799583333137;80;0.75;violin
22.6875605;0.18593799583333492;71;0.75;violin
22.6875605;0.18593799583333492;78;0.75;violin
22.875061000000002;0.7484394958333311;68;0.75;violin
22.875061000000002;0.7484394958333311;76;0.75;violin
24.000064000000002;0.37343849583333366;83;0.75;violin
24.375065;0.18593799583333492;64;0.75;violin
24.375065;0.18593799583333492;71;0.75;violin
24.375065;0.18593799583333492;83;0.75;violin
24.750066;0.09218774583333555;81;0.75;violin
24.937566500000003;0.092187745833332;79;0.75;violin
25.125067;0.18593799583333137;63;0.75;violin
25.125067;0.18593799583333137;71;0.75;violin
25.125067;0.18593799583333137;81;0.75;violin
25.500068000000002;0.092187745833332;79;0.75;violin
25.6875685;0.092187745833332;78;0.75;violin
25.875069;0.18593799583333492;64;0.75;violin
25.875069;0.18593799583333492;71;0.75;violin
25.875069;0.18593799583333492;79;0.75;violin
26.25007;0.092187745833332;78;0.75;violin
26.4375705;0.09218774583333555;76;0.75;violin
26.625071000000002;0.18593799583333137;60;0.75;violin
26.625071000000002;0.18593799583333137;67;0.75;violin
26.625071000000002;0.18593799583333137;79;0.75;violin
27.000072;0.09218774583333555;78;0.75;violin
27.1875725;0.092187745833332;76;0.75;violin
27.375073;0.18593799583333492;59;0.75;violin
27.375073;0.18593799583333492;67;0.75;violin
27.375073;0.18593799583333492;79;0.75;violin
27.750074;0.092187745833332;78;0.75;violin
27.9375745;0.09218774583333555;76;0.75;violin
28.125075000000002;0.18593799583333137;58;0.75;violin
28.125075000000002;0.18593799583333137;67;0.75;violin
28.125075000000002;0.18593799583333137;76;0.75;violin
28.500076;0.09218774583333555;75;0.75;violin
28.687576500000002;0.092187745833332;76;0.75;violin
28.875077;0.7484394958333347;59;0.75;violin
28.875077;0.7484394958333347;67;0.75;violin
28.875077;0.7484394958333347;79;0.75;violin
29.625079;0.37343849583333366;59;0.75;violin
29.625079;0.37343849583333366;66;0.75;violin
29.625079;0.37343849583333366;78;0.75;violin
30.00008;0.37343849583333366;74;0.75;violin
30.375081;0.37343849583333366;55;0.75;violin
30.375081;0.37343849583333366;62;0.75;violin
30.375081;0.37343849583333366;71;0.75;violin
30.375081;0.37343849583333366;79;0.75;violin
30.750082000000003;0.18593799583333137;78;0.75;violin
30.9375825;0.18593799583333492;79;0.75;violin
31.125083;0.37343849583333366;62;0.75;violin
31.125083;0.37343849583333366;74;0.75;violin
31.125083;0.37343849583333366;81;0.75;violin
31.500084;0.18593799583333492;79;0.75;violin
31.6875845;0.18593799583333492;81;0.75;violin
31.875085000000002;0.3734384958333301;55;0.75;violin
31.875085000000002;0.3734384958333301;67;0.75;violin
31.875085000000002;0.3734384958333301;74;0.75;violin
31.875085000000002;0.3734384958333301;83;0.75;violin
32.250086;0.18593799583333492;81;0.75;violin
32.4375865;0.18593799583333492;83;0.75;violin
32.625087;0.37343849583333366;60;0.75;violin
32.625087;0.37343849583333366;67;0.75;violin
32.625087;0.37343849583333366;76;0.75;violin
32.625087;0.37343849583333366;84;0.75;violin
33.000088;0.18593799583333492;86;0.75;violin
33.187588500000004;0.18593799583332782;88;0.75;violin
33.375089;0.37343849583333366;62;0.75;violin
33.375089;0.37343849583333366;71;0.75;violin
33.375089;0.37343849583333366;79;0.75;violin
33.75009;0.18593799583333492;81;0.75;violin
33.9375905;0.18593799583333492;83;0.75;violin
34.125091000000005;0.37343849583332656;62;0.75;violin
34.125091000000005;0.37343849583332656;72;0.75;violin
34.125091000000005;0.37343849583332656;81;0.75;violin
34.500092;0.18593799583333492;86;0.75;violin
34.6875925;0.18593799583333492;78;0.75;violin
34.875093;0.7484394958333382;55;0.75;violin
34.875093;0.7484394958333382;62;0.75;violin
34.875093;0.7484394958333382;71;0.75;violin
34.875093;0.7484394958333382;79;0.75;violin
36.000096;0.37343849583333366;83;0.75;violin
36.375097000000004;0.37343849583333366;63;0.75;violin
36.375097000000004;0.37343849583333366;71;0.75;violin
36.375097000000004;0.37343849583333366;81;0.75;violin
36.750098;0.18593799583333492;79;0.75;violin
36.9375985;0.18593799583333492;78;0.75;violin
37.125099;0.37343849583333366;64;0.75;violin
37.125099;0.37343849583333366;71;0.75;violin
37.125099;0.37343849583333366;79;0.75;violin
37.5001;0.18593799583333492;78;0.75;violin
37.6876005;0.18593799583333492;76;0.75;violin
37.875101;0.37343849583333366;59;0.75;violin
37.875101;0.37343849583333366;66;0.75;violin
37.875101;0.37343849583333366;75;0.75;violin
38.250102;0.18593799583333492;71;0.75;violin
38.437602500000004;0.18593799583332782;72;0.75;violin
38.625103;0.37343849583333366;71;0.75;violin
39.000104;0.37343849583333366;83;0.75;violin
39.375105000000005;0.37343849583332656;63;0.75;violin
39.375105000000005;0.37343849583332656;71;0.75;violin
39.375105000000005;0.37343849583332656;81;0.75;violin
39.750106;0.18593799583333492;79;0.75;violin
39.9376065;0.18593799583333492;78;0.75;violin
40.125107;0.37343849583333366;64;0.75;violin
40.125107;0.37343849583333366;71;0.75;violin
40.125107;0.37343849583333366;79;0.75;violin
40.500108000000004;0.18593799583332782;78;0.75;violin
40.6876085;0.18593799583333492;76;0.75;violin
40.875109;0.37343849583333366;63;0.75;violin
40.875109;0.37343849583333366;71;0.75;violin
40.875109;0.37343849583333366;83;0.75;violin
41.25011;0.18593799583333492;82;0.75;violin
41.4376105;0.18593799583333492;84;0.75;violin
41.625111000000004;0.37343849583333366;83;0.75;violin
42.000112;0.37343849583333366;83;0.75;violin
42.375113;0.37343849583333366;68;0.75;violin
42.375113;0.37343849583333366;76;0.75;violin
42.375113;0.37343849583333366;88;0.75;violin
42.750114;0.18593799583333492;86;0.75;violin
42.9376145;0.18593799583333492;83;0.75;violin
43.125115;0.37343849583333366;69;0.75;violin
43.125115;0.37343849583333366;76;0.75;violin
43.125115;0.37343849583333366;84;0.75;violin
43.500116;0.18593799583333492;83;0.75;violin
43.687616500000004;0.18593799583332782;81;0.75;violin
43.875117;0.37343849583333366;66;0.75;violin
43.875117;0.37343849583333366;74;0.75;violin
43.875117;0.37343849583333366;86;0.75;violin
44.250118;0.18593799583333492;84;0.75;violin
44.4376185;0.18593799583333492;81;0.75;violin
44.625119000000005;0.37343849583332656;67;0.75;violin
44.625119000000005;0.37343849583332656;74;0.75;violin
44.625119000000005;0.37343849583332656;83;0.75;violin
45.00012;0.18593799583333492;81;0.75;violin
45.1876205;0.18593799583333492;79;0.75;violin
45.375121;0.37343849583333366;64;0.75;violin
45.375121;0.37343849583333366;72;0.75;violin
45.375121;0.37343849583333366;84;0.75;violin
45.750122000000005;0.18593799583332782;83;0.75;violin
45.9376225;0.18593799583333492;79;0.75;violin
46.125123;0.37343849583333366;66;0.75;violin
46.125123;0.37343849583333366;72;0.75;violin
46.125123;0.37343849583333366;81;0.75;violin
46.500124;0.18593799583333492;79;0.75;violin
46.6876245;0.18593799583333492;78;0.75;violin
46.875125000000004;0.37343849583333366;63;0.75;violin
46.875125000000004;0.37343849583333366;71;0.75;violin
46.875125000000004;0.37343849583333366;83;0.75;violin
47.250126;0.18593799583333492;81;0.75;violin
47.4376265;0.18593799583333492;78;0.75;violin
47.625127;0.37343849583333366;64;0.75;violin
47.625127;0.37343849583333366;71;0.75;violin
47.625127;0.37343849583333366;79;0.75;violin
48.000128000000004;0.18593799583333492;78;0.75;violin
48.1876285;0.18593799583333492;76;0.75;violin
48.375129;0.37343849583333366;60;0.75;violin
48.375129;0.37343849583333366;67;0.75;violin
48.375129;0.37343849583333366;79;0.75;violin
48.75013;0.18593799583333492;78;0.75;violin
48.937630500000004;0.18593799583332782;76;0.75;violin
49.125131;0.37343849583333366;58;0.75;violin
49.125131;0.37343849583333366;67;0.75;violin
49.125131;0.37343849583333366;79;0.75;violin
49.500132;0.18593799583333492;78;0.75;violin
49.6876325;0.18593799583333492;76;0.75;violin
49.875133000000005;0.37343849583332656;59;0.75;violin
49.875133000000005;0.37343849583332656;66;0.75;violin
49.875133000000005;0.37343849583332656;75;0.75;violin
50.250134;0.18593799583333492;76;0.75;violin
50.4376345;0.18593799583333492;78;0.75;violin
50.625135;0.37343849583333366;60;0.75;violin
50.625135;0.37343849583333366;67;0.75;violin
50.625135;0.37343849583333366;76;0.75;violin
51.000136000000005;0.18593799583332782;78;0.75;violin
51.1876365;0.18593799583333492;79;0.75;violin
51.375137;0.37343849583333366;57;0.75;violin
51.375137;0.37343849583333366;65;0.75;violin
51.375137;0.37343849583333366;72;0.75;violin
51.750138;0.18593799583333492;81;0.75;violin
51.937638500000006;0.18593799583332782;77;0.75;violin
52.125139000000004;0.37343849583333366;59;0.75;violin
52.125139000000004;0.37343849583333366;71;0.75;violin
52.125139000000004;0.37343849583333366;76;0.75;violin
52.50014;0.18593799583333492;78;0.75;violin
52.6876405;0.18593799583333492;75;0.75;violin
52.875141;0.7484394958333382;64;0.75;violin
52.875141;0.7484394958333382;76;0.75;violin
54.000144;0.18593799583333492;80;0.3828125;violin
54.000144;0.18593799583333492;83;0.3828125;violin
54.187644500000005;0.18593799583332782;78;0.3828125;violin
54.187644500000005;0.18593799583332782;81;0.3828125;violin
54.375145;0.37343849583333366;76;0.3828125;violin
54.375145;0.37343849583333366;80;0.3828125;violin
54.750146;0.18593799583333492;76;0.3828125;violin
54.750146;0.18593799583333492;80;0.3828125;violin
54.9376465;0.18593799583333492;71;0.3828125;violin
54.9376465;0.18593799583333492;78;0.3828125;violin
55.125147000000005;0.37343849583332656;68;0.3828125;violin
55.125147000000005;0.37343849583332656;76;0.3828125;violin
55.500148;0.18593799583333492;80;0.3828125;violin
55.500148;0.18593799583333492;83;0.3828125;violin
55.6876485;0.18593799583333492;78;0.3828125;violin
55.6876485;0.18593799583333492;81;0.3828125;violin
55.875149;0.37343849583333366;76;0.3828125;violin
55.875149;0.37343849583333366;80;0.3828125;violin
56.250150000000005;0.18593799583332782;76;0.3828125;violin
56.250150000000005;0.18593799583332782;80;0.3828125;violin
56.437650500000004;0.18593799583333492;71;0.3828125;violin
56.437650500000004;0.18593799583333492;78;0.3828125;violin
56.625151;0.37343849583333366;68;0.3828125;violin
56.625151;0.37343849583333366;76;0.3828125;violin
57.000152;0.18593799583333492;68;0.3828125;violin
57.000152;0.18593799583333492;76;0.3828125;violin
57.187652500000006;0.18593799583332782;71;0.3828125;violin
57.187652500000006;0.18593799583332782;78;0.3828125;violin
57.375153000000005;0.37343849583333366;76;0.3828125;violin
57.375153000000005;0.37343849583333366;80;0.3828125;violin
57.750154;0.18593799583333492;71;0.3828125;violin
57.750154;0.18593799583333492;78;0.3828125;violin
57.9376545;0.18593799583333492;76;0.3828125;violin
57.9376545;0.18593799583333492;80;0.3828125;violin
58.125155;0.37343849583333366;78;0.3828125;violin
58.125155;0.37343849583333366;81;0.3828125;violin
58.500156000000004;0.18593799583333492;71;0.3828125;violin
58.500156000000004;0.18593799583333492;78;0.3828125;violin
58.6876565;0.18593799583333492;78;0.3828125;violin
58.6876565;0.18593799583333492;81;0.3828125;violin
58.875157;0.37343849583333366;80;0.3828125;violin
58.875157;0.37343849583333366;83;0.3828125;violin
59.250158;0.18593799583333492;78;0.3828125;violin
59.250158;0.18593799583333492;81;0.3828125;violin
59.437658500000005;0.18593799583332782;76;0.3828125;violin
59.437658500000005;0.18593799583332782;80;0.3828125;violin
59.625159000000004;0.37343849583333366;71;0.3828125;violin
59.625159000000004;0.37343849583333366;78;0.3828125;violin
60.00016;0.18593799583333492;80;0.3828125;violin
60.00016;0.18593799583333492;83;0.3828125;violin
60.1876605;0.18593799583333492;78;0.3828125;violin
60.1876605;0.18593799583333492;81;0.3828125;violin
60.375161000000006;0.37343849583333366;76;0.3828125;violin
60.375161000000006;0.37343849583333366;80;0.3828125;violin
60.750162;0.18593799583333492;76;0.3828125;violin
60.750162;0.18593799583333492;80;0.3828125;violin
60.9376625;0.18593799583333492;71;0.3828125;violin
60.9376625;0.18593799583333492;78;0.3828125;violin
61.125163;0.37343849583333366;68;0.3828125;violin
61.125163;0.37343849583333366;76;0.3828125;violin
61.500164000000005;0.18593799583332782;80;0.3828125;violin
61.500164000000005;0.18593799583332782;83;0.3828125;violin
61.687664500000004;0.18593799583333492;78;0.3828125;violin
61.687664500000004;0.18593799583333492;81;0.3828125;violin
61.875165;0.37343849583333366;76;0.3828125;violin
61.875165;0.37343849583333366;80;0.3828125;violin
62.250166;0.18593799583333492;76;0.3828125;violin
62.250166;0.18593799583333492;80;0.3828125;violin
62.437666500000006;0.18593799583332782;71;0.3828125;violin
62.437666500000006;0.18593799583332782;78;0.3828125;violin
62.625167000000005;0.37343849583333366;68;0.3828125;violin
62.625167000000005;0.37343849583333366;76;0.3828125;violin
63.000168;0.18593799583333492;68;0.3828125;violin
63.000168;0.18593799583333492;76;0.3828125;violin
63.1876685;0.18593799583333492;71;0.3828125;violin
63.1876685;0.18593799583333492;78;0.3828125;violin
63.375169;0.37343849583333366;76;0.3828125;violin
63.375169;0.37343849583333366;80;0.3828125;violin
63.750170000000004;0.18593799583333492;78;0.3828125;violin
63.750170000000004;0.18593799583333492;81;0.3828125;violin
63.9376705;0.18593799583333492;76;0.3828125;violin
63.9376705;0.18593799583333492;80;0.3828125;violin
64.12517100000001;0.37343849583332656;71;0.3828125;violin
64.12517100000001;0.37343849583332656;78;0.3828125;violin
64.500172;0.18593799583332782;76;0.3828125;violin
64.500172;0.18593799583332782;80;0.3828125;violin
64.6876725;0.18593799583332782;71;0.3828125;violin
64.6876725;0.18593799583332782;78;0.3828125;violin
64.875173;0.7484394958333382;68;0.3828125;violin
64.875173;0.7484394958333382;76;0.3828125;violin
66.000176;0.18593799583334203;56;0.75;violin
66.000176;0.18593799583334203;64;0.75;violin
66.18767650000001;0.18593799583332782;64;0.75;violin
66.18767650000001;0.18593799583332782;68;0.75;violin
66.37517700000001;0.37343849583332656;59;0.75;violin
66.37517700000001;0.37343849583332656;66;0.75;violin
66.750178;0.18593799583332782;64;0.75;violin
66.750178;0.18593799583332782;68;0.75;violin
66.9376785;0.18593799583332782;66;0.75;violin
66.9376785;0.18593799583332782;69;0.75;violin
67.125179;0.37343849583332656;68;0.75;violin
67.125179;0.37343849583332656;71;0.75;violin
67.50018;0.18593799583334203;69;0.75;violin
67.50018;0.18593799583334203;73;0.75;violin
67.6876805;0.18593799583334203;68;0.75;violin
67.6876805;0.18593799583334203;71;0.75;violin
67.875181;0.37343849583334077;66;0.75;violin
67.875181;0.37343849583334077;69;0.75;violin
68.25018200000001;0.18593799583332782;64;0.75;violin
68.25018200000001;0.18593799583332782;68;0.75;violin
68.43768250000001;0.18593799583332782;66;0.75;violin
68.43768250000001;0.18593799583332782;69;0.75;violin
68.625183;0.37343849583332656;59;0.75;violin
68.625183;0.37343849583332656;66;0.75;violin
69.000184;0.18593799583332782;56;0.75;violin
69.000184;0.18593799583332782;64;0.75;violin
69.1876845;0.18593799583332782;64;0.75;violin
69.1876845;0.18593799583332782;68;0.75;violin
69.375185;0.37343849583334077;59;0.75;violin
69.375185;0.37343849583334077;66;0.75;violin
69.750186;0.18593799583334203;64;0.75;violin
69.750186;0.18593799583334203;68;0.75;violin
69.9376865;0.18593799583334203;66;0.75;violin
69.9376865;0.18593799583334203;69;0.75;violin
70.125187;0.37343849583334077;68;0.75;violin
70.125187;0.37343849583334077;71;0.75;violin
70.50018800000001;0.18593799583332782;69;0.75;violin
70.50018800000001;0.18593799583332782;73;0.75;violin
70.68768850000001;0.18593799583332782;68;0.75;violin
70.68768850000001;0.18593799583332782;71;0.75;violin
70.875189;0.37343849583332656;66;0.75;violin
70.875189;0.37343849583332656;69;0.75;violin
71.25019;0.18593799583332782;64;0.75;violin
71.25019;0.18593799583332782;68;0.75;violin
71.4376905;0.18593799583332782;66;0.75;violin
71.4376905;0.18593799583332782;69;0.75;violin
71.625191;0.37343849583334077;59;0.75;violin
71.625191;0.37343849583334077;66;0.75;violin
72.000192;0.18593799583334203;80;0.3828125;violin
72.000192;0.18593799583334203;83;0.3828125;violin
72.1876925;0.18593799583334203;78;0.3828125;violin
72.1876925;0.18593799583334203;81;0.3828125;violin
72.375193;0.37343849583334077;76;0.3828125;violin
72.375193;0.37343849583334077;80;0.3828125;violin
72.75019400000001;0.18593799583332782;76;0.3828125;violin
72.75019400000001;0.18593799583332782;80;0.3828125;violin
72.9376945;0.18593799583332782;71;0.3828125;violin
72.9376945;0.18593799583332782;78;0.3828125;violin
73.125195;0.37343849583332656;68;0.3828125;violin
73.125195;0.37343849583332656;76;0.3828125;violin
73.500196;0.18593799583332782;68;0.75;violin
73.500196;0.18593799583332782;71;0.75;violin
73.6876965;0.18593799583334203;66;0.75;violin
73.6876965;0.18593799583334203;69;0.75;violin
73.875197;0.37343849583334077;64;0.75;violin
73.875197;0.37343849583334077;68;0.75;violin
74.250198;0.18593799583334203;64;0.75;violin
74.250198;0.18593799583334203;68;0.75;violin
74.4376985;0.18593799583334203;59;0.75;violin
74.4376985;0.18593799583334203;66;0.75;violin
74.62519900000001;0.37343849583332656;56;0.75;violin
74.62519900000001;0.37343849583332656;64;0.75;violin
75.0002;0.18593799583332782;68;0.3828125;violin
75.0002;0.18593799583332782;76;0.3828125;violin
75.1877005;0.18593799583332782;71;0.3828125;violin
75.1877005;0.18593799583332782;78;0.3828125;violin
75.375201;0.37343849583332656;76;0.3828125;violin
75.375201;0.37343849583332656;80;0.3828125;violin
75.750202;0.18593799583332782;78;0.3828125;violin
75.750202;0.18593799583332782;81;0.3828125;violin
75.9377025;0.18593799583334203;76;0.3828125;violin
75.9377025;0.18593799583334203;80;0.3828125;violin
76.125203;0.37343849583334077;71;0.3828125;violin
76.125203;0.37343849583334077;78;0.3828125;violin
76.500204;0.18593799583334203;76;0.3828125;violin
76.500204;0.18593799583334203;80;0.3828125;violin
76.68770450000001;0.18593799583332782;71;0.3828125;violin
76.68770450000001;0.18593799583332782;78;0.3828125;violin
76.87520500000001;0.748439495833324;68;0.3828125;violin
76.87520500000001;0.748439495833324;76;0.3828125;violin
78.000208;0.37343849583334077;64;0.75;violin
78.000208;0.37343849583334077;76;0.75;violin
78.375209;1.1234404958333357;69;0.9921875;violin
78.375209;1.1234404958333357;81;0.9921875;violin
79.500212;0.37343849583332656;64;0.9921875;violin
79.500212;0.37343849583332656;76;0.9921875;violin
79.875213;0.37343849583334077;60;0.9921875;violin
79.875213;0.37343849583334077;72;0.9921875;violin
80.250214;0.37343849583334077;57;0.9921875;violin
80.250214;0.37343849583334077;69;0.9921875;violin
80.71896525;0.09218774583334266;69;0.75;violin
80.81271550000001;0.09218774583332845;71;0.75;violin
80.90646575000001;0.09218774583332845;72;0.75;violin
81.00021600000001;0.09218774583332845;74;0.75;violin
81.09396625000001;0.09218774583332845;76;0.75;violin
81.18771650000001;0.09218774583332845;78;0.75;violin
81.28146675;0.09218774583332845;80;0.75;violin
81.375217;0.18593799583332782;81;0.75;violin
81.5627175;0.09218774583332845;83;0.75;violin
81.65646775;0.09218774583332845;84;0.75;violin
81.750218;0.09218774583332845;86;0.75;violin
81.84396825;0.09218774583332845;88;0.75;violin
81.9377185;0.09218774583332845;90;0.75;violin
82.03146875;0.09218774583332845;92;0.75;violin
82.125219;0.37343849583334077;93;0.75;violin
82.50022;0.09218774583334266;96;0.75;violin
82.6877205;0.09218774583334266;95;0.75;violin
82.875221;0.09218774583334266;93;0.75;violin
82.96897125000001;0.09218774583332845;95;0.75;violin
83.06272150000001;0.09218774583332845;93;0.75;violin
83.15647175000001;0.09218774583332845;95;0.75;violin
83.25022200000001;0.09218774583332845;93;0.75;violin
83.34397225000001;0.09218774583332845;95;0.75;violin
83.4377225;0.09218774583332845;93;0.75;violin
83.53147275;0.09218774583332845;95;0.75;violin
83.625223;0.37343849583332656;92;0.75;violin
84.000224;0.37343849583334077;62;0.75;violin
84.000224;0.37343849583334077;74;0.75;violin
84.375225;1.1234404958333357;65;0.9921875;violin
84.375225;1.1234404958333357;77;0.9921875;violin
85.500228;0.37343849583332656;62;0.9921875;violin
85.500228;0.37343849583332656;74;0.9921875;violin
85.875229;0.37343849583332656;59;0.9921875;violin
85.875229;0.37343849583332656;71;0.9921875;violin
86.25023;0.37343849583334077;56;0.9921875;violin
86.25023;0.37343849583334077;68;0.9921875;violin
86.71898125;0.09218774583334266;71;0.75;violin
86.8127315;0.09218774583334266;72;0.75;violin
86.90648175;0.09218774583334266;74;0.75;violin
87.000232;0.09218774583334266;76;0.75;violin
87.09398225000001;0.09218774583332845;78;0.75;violin
87.18773250000001;0.09218774583332845;80;0.75;violin
87.28148275000001;0.09218774583332845;81;0.75;violin
87.37523300000001;0.18593799583332782;83;0.75;violin
87.56273350000001;0.09218774583332845;84;0.75;violin
87.65648375;0.09218774583332845;86;0.75;violin
87.750234;0.09218774583332845;88;0.75;violin
87.84398425;0.09218774583332845;90;0.75;violin
87.9377345;0.09218774583332845;92;0.75;violin
88.03148475;0.09218774583332845;93;0.75;violin
88.125235;0.37343849583332656;95;0.75;violin
88.500236;0.09218774583334266;98;0.75;violin
88.6877365;0.09218774583334266;96;0.75;violin
88.875237;0.09218774583334266;95;0.75;violin
88.96898725;0.09218774583334266;96;0.75;violin
89.0627375;0.09218774583334266;95;0.75;violin
89.15648775;0.09218774583334266;96;0.75;violin
89.25023800000001;0.09218774583332845;95;0.75;violin
89.34398825000001;0.09218774583332845;96;0.75;violin
89.43773850000001;0.09218774583332845;95;0.75;violin
89.53148875000001;0.09218774583332845;96;0.75;violin
89.62523900000001;0.37343849583332656;93;0.75;violin
90.00024;0.18593799583332782;88;0.75;violin
90.375241;0.18593799583332782;93;0.75;violin
90.750242;0.045312620833342976;64;0.75;violin
90.84399225;0.045312620833342976;62;0.75;violin
90.9377425;0.045312620833342976;61;0.75;violin
91.03149275;0.045312620833342976;59;0.75;violin
91.125243;0.18593799583334203;57;0.75;violin
91.50024400000001;0.045312620833328765;93;0.75;violin
91.59399425000001;0.045312620833328765;91;0.75;violin
91.68774450000001;0.045312620833328765;89;0.75;violin
91.78149475000001;0.045312620833328765;88;0.75;violin
91.875245;0.18593799583332782;89;0.75;violin
92.250246;0.045312620833328765;69;0.75;violin
92.34399625;0.045312620833328765;67;0.75;violin
92.4377465;0.045312620833328765;65;0.75;violin
92.53149675;0.045312620833328765;64;0.75;violin
92.625247;0.18593799583334203;62;0.75;violin
93.000248;0.18593799583334203;89;0.75;violin
93.375249;0.18593799583334203;86;0.75;violin
93.75025000000001;0.045312620833328765;62;0.75;violin
93.84400025000001;0.045312620833328765;60;0.75;violin
93.9377505;0.045312620833328765;59;0.75;violin
94.03150075;0.045312620833328765;57;0.75;violin
94.125251;0.18593799583332782;55;0.75;violin
94.500252;0.045312620833328765;91;0.75;violin
94.59400225;0.045312620833328765;89;0.75;violin
94.6877525;0.045312620833328765;88;0.75;violin
94.78150275;0.045312620833328765;86;0.75;violin
94.875253;0.18593799583334203;88;0.75;violin
95.250254;0.045312620833342976;67;0.75;violin
95.34400425;0.045312620833342976;65;0.75;violin
95.4377545;0.045312620833342976;64;0.75;violin
95.53150475000001;0.045312620833328765;62;0.75;violin
95.62525500000001;0.18593799583332782;60;0.75;violin
96.00025600000001;0.18593799583332782;88;0.75;violin
96.375257;0.18593799583332782;86;0.75;violin
96.750258;0.045312620833328765;74;0.75;violin
96.84400825;0.045312620833328765;72;0.75;violin
96.9377585;0.045312620833342976;71;0.75;violin
97.03150875;0.045312620833342976;69;0.75;violin
97.125259;0.18593799583334203;68;0.75;violin
97.50026;0.18593799583334203;86;0.75;violin
97.87526100000001;0.18593799583332782;84;0.75;violin
98.250262;0.045312620833328765;76;0.75;violin
98.34401225;0.045312620833328765;74;0.75;violin
98.4377625;0.045312620833328765;72;0.75;violin
98.53151275;0.045312620833328765;71;0.75;violin
98.625263;0.18593799583332782;69;0.75;violin
99.000264;0.045312620833342976;72;0.75;violin
99.09401425;0.045312620833342976;71;0.75;violin
99.1877645;0.045312620833342976;69;0.75;violin
99.28151475;0.045312620833342976;67;0.75;violin
99.375265;0.18593799583334203;65;0.75;violin
99.75026600000001;0.045312620833328765;69;0.75;violin
99.84401625000001;0.045312620833328765;67;0.75;violin
99.93776650000001;0.045312620833328765;65;0.75;violin
100.03151675000001;0.045312620833328765;64;0.75;violin
100.12526700000001;0.18593799583332782;63;0.75;violin
100.500268;0.045312620833328765;84;0.75;violin
100.59401825;0.045312620833328765;81;0.75;violin
100.6877685;0.045312620833328765;77;0.75;violin
100.78151875;0.045312620833328765;75;0.75;violin
100.875269;0.18593799583332782;76;0.75;violin
101.25027;0.045312620833342976;76;0.75;violin
101.34402025;0.045312620833342976;71;0.75;violin
101.4377705;0.045312620833342976;68;0.75;violin
101.53152075;0.045312620833342976;71;0.75;violin
101.625271;0.18593799583334203;64;0.75;violin
102.00027200000001;0.37343849583332656;67;0.75;violin
102.00027200000001;0.37343849583332656;79;0.75;violin
102.375273;1.1234404958333357;72;0.9921875;violin
102.375273;1.1234404958333357;84;0.9921875;violin
103.500276;0.37343849583334077;67;0.9921875;violin
103.500276;0.37343849583334077;79;0.9921875;violin
103.87527700000001;0.37343849583332656;64;0.9921875;violin
103.87527700000001;0.37343849583332656;76;0.9921875;violin
104.25027800000001;0.37343849583332656;60;0.9921875;violin
104.25027800000001;0.37343849583332656;72;0.9921875;violin
104.71902925;0.09218774583332845;72;0.75;violin
104.8127795;0.09218774583332845;74;0.75;violin
104.90652975;0.09218774583332845;76;0.75;violin
105.00028;0.09218774583332845;77;0.75;violin
105.09403025;0.09218774583332845;79;0.75;violin
105.1877805;0.09218774583332845;81;0.75;violin
105.28153075;0.09218774583334266;83;0.75;violin
105.375281;0.18593799583334203;84;0.75;violin
105.5627815;0.09218774583334266;86;0.75;violin
105.65653175;0.09218774583334266;88;0.75;violin
105.750282;0.09218774583334266;89;0.75;violin
105.84403225;0.09218774583334266;91;0.75;violin
105.9377825;0.09218774583334266;93;0.75;violin
106.03153275000001;0.09218774583332845;95;0.75;violin
106.12528300000001;0.37343849583332656;96;0.75;violin
106.50028400000001;0.09218774583332845;100;0.75;violin
106.6877845;0.09218774583332845;98;0.75;violin
106.875285;0.09218774583332845;96;0.75;violin
106.96903525;0.09218774583332845;98;0.75;violin
107.0627855;0.09218774583332845;96;0.75;violin
107.15653575;0.09218774583332845;98;0.75;violin
107.250286;0.09218774583332845;96;0.75;violin
107.34403625;0.09218774583332845;98;0.75;violin
107.4377865;0.09218774583334266;96;0.75;violin
107.53153675;0.09218774583334266;98;0.75;violin
107.625287;0.37343849583334077;95;0.75;violin
108.000288;0.37343849583334077;62;0.75;violin
108.000288;0.37343849583334077;74;0.75;violin
108.37528900000001;1.1234404958333215;65;0.9921875;violin
108.37528900000001;1.1234404958333215;77;0.9921875;violin
109.500292;0.37343849583334077;62;0.9921875;violin
109.500292;0.37343849583334077;74;0.9921875;violin
109.875293;0.37343849583334077;59;0.9921875;violin
109.875293;0.37343849583334077;71;0.9921875;violin
110.25029400000001;0.37343849583332656;55;0.9921875;violin
110.25029400000001;0.37343849583332656;67;0.9921875;violin
110.71904525000001;0.09218774583332845;71;0.75;violin
110.81279550000001;0.09218774583332845;72;0.75;violin
110.90654575;0.09218774583332845;74;0.75;violin
111.000296;0.09218774583332845;76;0.75;violin
111.09404625;0.09218774583332845;77;0.75;violin
111.1877965;0.09218774583332845;79;0.75;violin
111.28154675;0.09218774583332845;81;0.75;violin
111.375297;0.18593799583332782;83;0.75;violin
111.5627975;0.09218774583334266;84;0.75;violin
111.65654775;0.09218774583334266;86;0.75;violin
111.750298;0.09218774583334266;88;0.75;violin
111.84404825;0.09218774583334266;89;0.75;violin
111.9377985;0.09218774583334266;91;0.75;violin
112.03154875;0.09218774583334266;93;0.75;violin
112.125299;0.37343849583334077;95;0.75;violin
112.50030000000001;0.09218774583332845;101;0.75;violin
112.68780050000001;0.09218774583332845;100;0.75;violin
112.87530100000001;0.09218774583332845;98;0.75;violin
112.96905125;0.09218774583332845;100;0.75;violin
113.0628015;0.09218774583332845;98;0.75;violin
113.15655175;0.09218774583332845;100;0.75;violin
113.250302;0.09218774583332845;98;0.75;violin
113.34405225;0.09218774583332845;100;0.75;violin
113.4378025;0.09218774583332845;98;0.75;violin
113.53155275;0.09218774583332845;100;0.75;violin
113.625303;0.37343849583334077;96;0.75;violin
114.000304;0.18593799583334203;79;0.75;violin
114.37530500000001;0.18593799583332782;84;0.75;violin
114.75030600000001;0.045312620833328765;67;0.75;violin
114.84405625000001;0.045312620833328765;65;0.75;violin
114.93780650000001;0.045312620833328765;64;0.75;violin
115.03155675000001;0.045312620833328765;62;0.75;violin
115.125307;0.18593799583332782;60;0.75;violin
115.500308;0.045312620833328765;84;0.75;violin
115.59405825;0.045312620833328765;88;0.75;violin
115.6878085;0.045312620833328765;91;0.75;violin
115.78155875;0.045312620833328765;88;0.75;violin
115.875309;0.18593799583334203;89;0.75;violin
116.25031;0.045312620833342976;72;0.75;violin
116.34406025;0.045312620833342976;70;0.75;violin
116.4378105;0.045312620833342976;69;0.75;violin
116.53156075000001;0.045312620833328765;67;0.75;violin
116.62531100000001;0.18593799583332782;65;0.75;violin
117.00031200000001;0.18593799583332782;89;0.75;violin
117.375313;0.18593799583332782;86;0.75;violin
117.750314;0.045312620833328765;69;0.75;violin
117.84406425;0.045312620833328765;67;0.75;violin
117.9378145;0.045312620833342976;66;0.75;violin
118.03156475;0.045312620833342976;64;0.75;violin
118.125315;0.18593799583334203;62;0.75;violin
118.500316;0.045312620833342976;86;0.75;violin
118.59406625000001;0.045312620833328765;90;0.75;violin
118.68781650000001;0.045312620833328765;93;0.75;violin
118.78156675000001;0.045312620833328765;90;0.75;violin
118.87531700000001;0.18593799583332782;91;0.75;violin
119.25031800000001;0.045312620833328765;74;0.75;violin
119.34406825;0.045312620833328765;72;0.75;violin
119.4378185;0.045312620833328765;71;0.75;violin
119.53156875;0.045312620833328765;69;0.75;violin
119.625319;0.18593799583332782;67;0.75;violin
120.00032;0.18593799583334203;91;0.75;violin
120.375321;0.18593799583334203;88;0.75;violin
120.75032200000001;0.045312620833328765;71;0.75;violin
120.84407225000001;0.045312620833328765;69;0.75;violin
120.93782250000001;0.045312620833328765;68;0.75;violin
121.03157275000001;0.045312620833328765;66;0.75;violin
121.12532300000001;0.18593799583332782;64;0.75;violin
121.500324;0.045312620833328765;88;0.75;violin
121.59407425;0.045312620833328765;92;0.75;violin
121.6878245;0.045312620833328765;95;0.75;violin
121.78157475;0.045312620833328765;92;0.75;violin
121.875325;0.18593799583332782;93;0.75;violin
122.250326;0.045312620833342976;76;0.75;violin
122.34407625;0.045312620833342976;74;0.75;violin
122.4378265;0.045312620833342976;72;0.75;violin
122.53157675;0.045312620833342976;71;0.75;violin
122.625327;0.18593799583334203;69;0.75;violin
123.00032800000001;0.045312620833328765;76;0.75;violin
123.09407825000001;0.045312620833328765;72;0.75;violin
123.18782850000001;0.045312620833328765;69;0.75;violin
123.28157875000001;0.045312620833328765;67;0.75;violin
123.37532900000001;0.18593799583332782;65;0.75;violin
123.75033;0.045312620833328765;89;0.75;violin
123.84408025;0.045312620833328765;93;0.75;violin
123.9378305;0.045312620833328765;96;0.75;violin
124.03158075;0.045312620833328765;93;0.75;violin
124.125331;0.18593799583334203;89;0.75;violin
124.500332;0.045312620833342976;77;0.75;violin
124.59408225;0.045312620833342976;72;0.75;violin
124.6878325;0.045312620833342976;69;0.75;violin
124.78158275;0.045312620833342976;65;0.75;violin
124.87533300000001;0.18593799583332782;64;0.75;violin
125.25033400000001;0.045312620833328765;88;0.75;violin
125.34408425000001;0.045312620833328765;93;0.75;violin
125.43783450000001;0.045312620833328765;96;0.75;violin
125.53158475000001;0.045312620833328765;93;0.75;violin
125.625335;0.18593799583332782;88;0.75;violin
126.000336;0.045312620833328765;76;0.75;violin
126.09408625;0.045312620833328765;72;0.75;violin
126.1878365;0.045312620833328765;69;0.75;violin
126.28158675;0.045312620833342976;64;0.75;violin
126.375337;0.18593799583334203;63;0.75;violin
126.750338;0.045312620833342976;87;0.75;violin
126.84408825;0.045312620833342976;93;0.75;violin
126.9378385;0.045312620833342976;96;0.75;violin
127.03158875000001;0.045312620833328765;93;0.75;violin
127.12533900000001;0.18593799583332782;87;0.75;violin
127.50034000000001;0.045312620833328765;75;0.75;violin
127.59409025000001;0.045312620833328765;72;0.75;violin
127.68784050000001;0.045312620833328765;69;0.75;violin
127.78159075;0.045312620833328765;66;0.75;violin
127.875341;0.18593799583332782;64;0.75;violin
128.25034200000002;0.045312620833328765;88;0.75;violin
128.34409225000002;0.045312620833328765;91;0.75;violin
128.43784250000002;0.045312620833328765;95;0.75;violin
128.53159275000002;0.045312620833328765;91;0.75;violin
128.62534300000002;0.1859379958333136;88;0.75;violin
129.000344;0.045312620833328765;71;0.75;violin
129.09409425;0.045312620833328765;67;0.75;violin
129.1878445;0.045312620833328765;64;0.75;violin
129.28159475;0.045312620833328765;62;0.75;violin
129.375345;0.18593799583334203;60;0.75;violin
129.750346;0.045312620833328765;76;0.75;violin
129.84409625;0.045312620833328765;79;0.75;violin
129.9378465;0.045312620833328765;84;0.75;violin
130.03159675;0.045312620833328765;79;0.75;violin
130.125347;0.18593799583334203;76;0.75;violin
130.500348;0.045312620833328765;72;0.75;violin
130.59409825;0.045312620833328765;67;0.75;violin
130.6878485;0.045312620833328765;64;0.75;violin
130.78159875;0.045312620833328765;60;0.75;violin
130.875349;0.18593799583334203;59;0.75;violin
131.25035;0.045312620833328765;76;0.75;violin
131.34410025;0.045312620833328765;79;0.75;violin
131.4378505;0.045312620833328765;83;0.75;violin
131.53160075;0.04531262083335719;79;0.75;violin
131.625351;0.18593799583334203;76;0.75;violin
132.000352;0.04531262083335719;71;0.75;violin
132.09410225;0.04531262083335719;67;0.75;violin
132.1878525;0.04531262083335719;64;0.75;violin
132.28160275000002;0.045312620833328765;59;0.75;violin
132.37535300000002;0.1859379958333136;58;0.75;violin
132.75035400000002;0.045312620833328765;76;0.75;violin
132.84410425000002;0.045312620833328765;79;0.75;violin
132.93785450000001;0.045312620833328765;82;0.75;violin
133.03160475;0.045312620833328765;79;0.75;violin
133.125355;0.1859379958333136;76;0.75;violin
133.500356;0.045312620833328765;70;0.75;violin
133.59410625;0.045312620833328765;67;0.75;violin
133.6878565;0.045312620833328765;64;0.75;violin
133.78160675;0.045312620833328765;61;0.75;violin
133.875357;0.18593799583334203;59;0.75;violin
134.250358;0.045312620833328765;87;0.75;violin
134.34410825;0.045312620833328765;95;0.75;violin
134.4378585;0.045312620833328765;90;0.75;violin
134.53160875;0.045312620833328765;87;0.75;violin
134.625359;0.18593799583334203;83;0.75;violin
135.00036;0.045312620833328765;81;0.75;violin
135.09411025;0.045312620833328765;83;0.75;violin
135.1878605;0.045312620833328765;81;0.75;violin
135.28161075;0.045312620833328765;78;0.75;violin
135.375361;0.18593799583334203;76;0.75;violin
135.750362;0.04531262083335719;76;0.75;violin
135.84411225;0.04531262083335719;79;0.75;violin
135.9378625;0.04531262083335719;76;0.75;violin
136.03161275;0.04531262083335719;74;0.75;violin
136.125363;0.18593799583334203;72;0.75;violin
136.50036400000002;0.045312620833328765;72;0.75;violin
136.59411425000002;0.045312620833328765;76;0.75;violin
136.68786450000002;0.045312620833328765;72;0.75;violin
136.78161475000002;0.045312620833328765;70;0.75;violin
136.87536500000002;0.1859379958333136;71;0.75;violin
137.250366;0.045312620833328765;75;0.75;violin
137.34411625;0.045312620833328765;83;0.75;violin
137.4378665;0.045312620833328765;78;0.75;violin
137.53161675;0.045312620833328765;75;0.75;violin
137.625367;0.1859379958333136;71;0.75;violin
138.000368;0.045312620833328765;69;0.75;violin
138.09411825;0.045312620833328765;71;0.75;violin
138.1878685;0.045312620833328765;69;0.75;violin
138.28161875;0.045312620833328765;66;0.75;violin
138.375369;0.18593799583334203;64;0.75;violin
138.75037;0.045312620833328765;64;0.75;violin
138.84412025;0.045312620833328765;67;0.75;violin
138.9378705;0.045312620833328765;64;0.75;violin
139.03162075;0.045312620833328765;62;0.75;violin
139.125371;0.18593799583334203;60;0.75;violin
139.500372;0.045312620833328765;60;0.75;violin
139.59412225;0.045312620833328765;64;0.75;violin
139.6878725;0.045312620833328765;60;0.75;violin
139.78162275;0.045312620833328765;58;0.75;violin
139.875373;0.18593799583334203;59;0.75;violin
140.250374;0.029687579166676414;59;0.75;violin
140.31287416666666;0.029687579166676414;63;0.75;violin
140.37537433333333;0.029687579166676414;66;0.75;violin
140.4378745;0.029687579166676414;71;0.75;violin
140.50037466666666;0.029687579166676414;75;0.75;violin
140.56287483333332;0.029687579166676414;78;0.75;violin
140.62537500000002;0.37343849583331234;83;0.75;violin
141.00037600000002;0.1859379958333136;80;0.3828125;violin
141.00037600000002;0.1859379958333136;83;0.3828125;violin
141.18787650000002;0.1859379958333136;78;0.3828125;violin
141.18787650000002;0.1859379958333136;81;0.3828125;violin
141.37537700000001;0.37343849583331234;76;0.3828125;violin
141.37537700000001;0.37343849583331234;80;0.3828125;violin
141.750378;0.1859379958333136;76;0.3828125;violin
141.750378;0.1859379958333136;80;0.3828125;violin
141.9378785;0.18593799583334203;71;0.3828125;violin
141.9378785;0.18593799583334203;78;0.3828125;violin
142.125379;0.37343849583334077;68;0.3828125;violin
142.125379;0.37343849583334077;76;0.3828125;violin
142.50038;0.18593799583334203;80;0.3828125;violin
142.50038;0.18593799583334203;83;0.3828125;violin
142.6878805;0.18593799583334203;78;0.3828125;violin
142.6878805;0.18593799583334203;81;0.3828125;violin
142.875381;0.37343849583334077;76;0.3828125;violin
142.875381;0.37343849583334077;80;0.3828125;violin
143.250382;0.18593799583334203;76;0.3828125;violin
143.250382;0.18593799583334203;80;0.3828125;violin
143.4378825;0.18593799583334203;71;0.3828125;violin
143.4378825;0.18593799583334203;78;0.3828125;violin
143.625383;0.37343849583334077;68;0.3828125;violin
143.625383;0.37343849583334077;76;0.3828125;violin
144.000384;0.18593799583334203;68;0.3828125;violin
144.000384;0.18593799583334203;76;0.3828125;violin
144.1878845;0.18593799583334203;71;0.3828125;violin
144.1878845;0.18593799583334203;78;0.3828125;violin
144.375385;0.37343849583334077;76;0.3828125;violin
144.375385;0.37343849583334077;80;0.3828125;violin
144.750386;0.18593799583334203;71;0.3828125;violin
144.750386;0.18593799583334203;78;0.3828125;violin
144.93788650000002;0.1859379958333136;76;0.3828125;violin
144.93788650000002;0.1859379958333136;80;0.3828125;violin
145.12538700000002;0.37343849583331234;78;0.3828125;violin
145.12538700000002;0.37343849583331234;81;0.3828125;violin
145.50038800000002;0.1859379958333136;71;0.3828125;violin
145.50038800000002;0.1859379958333136;78;0.3828125;violin
145.6878885;0.1859379958333136;78;0.3828125;violin
145.6878885;0.1859379958333136;81;0.3828125;violin
145.875389;0.37343849583331234;80;0.3828125;violin
145.875389;0.37343849583331234;83;0.3828125;violin
146.25039;0.18593799583334203;78;0.3828125;violin
146.25039;0.18593799583334203;81;0.3828125;violin
146.4378905;0.18593799583334203;76;0.3828125;violin
146.4378905;0.18593799583334203;80;0.3828125;violin
146.625391;0.37343849583334077;71;0.3828125;violin
146.625391;0.37343849583334077;78;0.3828125;violin
147.000392;0.18593799583334203;80;0.3828125;violin
147.000392;0.18593799583334203;83;0.3828125;violin
147.1878925;0.18593799583334203;78;0.3828125;violin
147.1878925;0.18593799583334203;81;0.3828125;violin
147.375393;0.37343849583334077;76;0.3828125;violin
147.375393;0.37343849583334077;80;0.3828125;violin
147.750394;0.18593799583334203;76;0.3828125;violin
147.750394;0.18593799583334203;80;0.3828125;violin
147.9378945;0.18593799583334203;71;0.3828125;violin
147.9378945;0.18593799583334203;78;0.3828125;violin
148.125395;0.37343849583334077;68;0.3828125;violin
148.125395;0.37343849583334077;76;0.3828125;violin
148.500396;0.18593799583334203;80;0.3828125;violin
148.500396;0.18593799583334203;83;0.3828125;violin
148.6878965;0.18593799583334203;78;0.3828125;violin
148.6878965;0.18593799583334203;81;0.3828125;violin
148.875397;0.37343849583334077;76;0.3828125;violin
148.875397;0.37343849583334077;80;0.3828125;violin
149.25039800000002;0.1859379958333136;76;0.3828125;violin
149.25039800000002;0.1859379958333136;80;0.3828125;violin
149.43789850000002;0.1859379958333136;71;0.3828125;violin
149.43789850000002;0.1859379958333136;78;0.3828125;violin
149.62539900000002;0.37343849583331234;68;0.3828125;violin
149.62539900000002;0.37343849583331234;76;0.3828125;violin
150.0004;0.1859379958333136;68;0.3828125;violin
150.0004;0.1859379958333136;76;0.3828125;violin
150.1879005;0.1859379958333136;71;0.3828125;violin
150.1879005;0.1859379958333136;78;0.3828125;violin
150.375401;0.37343849583334077;76;0.3828125;violin
150.375401;0.37343849583334077;80;0.3828125;violin
150.750402;0.18593799583334203;78;0.3828125;violin
150.750402;0.18593799583334203;81;0.3828125;violin
150.9379025;0.18593799583334203;76;0.3828125;violin
150.9379025;0.18593799583334203;80;0.3828125;violin
151.125403;0.37343849583334077;71;0.3828125;violin
151.125403;0.37343849583334077;78;0.3828125;violin
151.500404;0.18593799583334203;76;0.3828125;violin
151.500404;0.18593799583334203;80;0.3828125;violin
151.6879045;0.18593799583334203;71;0.3828125;violin
151.6879045;0.18593799583334203;78;0.3828125;violin
151.875405;0.7484394958333382;68;0.3828125;violin
151.875405;0.7484394958333382;76;0.3828125;violin
153.000408;0.18593799583334203;56;0.75;violin
153.000408;0.18593799583334203;64;0.75;violin
153.18790850000002;0.1859379958333136;64;0.75;violin
153.18790850000002;0.1859379958333136;68;0.75;violin
153.37540900000002;0.37343849583331234;59;0.75;violin
153.37540900000002;0.37343849583331234;66;0.75;violin
153.75041000000002;0.1859379958333136;64;0.75;violin
153.75041000000002;0.1859379958333136;68;0.75;violin
153.93791050000002;0.1859379958333136;66;0.75;violin
153.93791050000002;0.1859379958333136;69;0.75;violin
154.125411;0.37343849583331234;68;0.75;violin
154.125411;0.37343849583331234;71;0.75;violin
154.500412;0.18593799583334203;69;0.75;violin
154.500412;0.18593799583334203;73;0.75;violin
154.6879125;0.18593799583334203;68;0.75;violin
154.6879125;0.18593799583334203;71;0.75;violin
154.875413;0.37343849583334077;66;0.75;violin
154.875413;0.37343849583334077;69;0.75;violin
155.250414;0.18593799583334203;64;0.75;violin
155.250414;0.18593799583334203;68;0.75;violin
155.4379145;0.18593799583334203;66;0.75;violin
155.4379145;0.18593799583334203;69;0.75;violin
155.625415;0.37343849583334077;59;0.75;violin
155.625415;0.37343849583334077;66;0.75;violin
156.000416;0.18593799583334203;56;0.75;violin
156.000416;0.18593799583334203;64;0.75;violin
156.1879165;0.18593799583334203;64;0.75;violin
156.1879165;0.18593799583334203;68;0.75;violin
156.375417;0.37343849583334077;59;0.75;violin
156.375417;0.37343849583334077;66;0.75;violin
156.750418;0.18593799583334203;64;0.75;violin
156.750418;0.18593799583334203;68;0.75;violin
156.9379185;0.18593799583334203;66;0.75;violin
156.9379185;0.18593799583334203;69;0.75;violin
157.125419;0.37343849583334077;68;0.75;violin
157.125419;0.37343849583334077;71;0.75;violin
157.50042000000002;0.1859379958333136;69;0.75;violin
157.50042000000002;0.1859379958333136;73;0.75;violin
157.68792050000002;0.1859379958333136;68;0.75;violin
157.68792050000002;0.1859379958333136;71;0.75;violin
157.87542100000002;0.37343849583331234;66;0.75;violin
157.87542100000002;0.37343849583331234;69;0.75;violin
158.25042200000001;0.1859379958333136;64;0.75;violin
158.25042200000001;0.1859379958333136;68;0.75;violin
158.4379225;0.1859379958333136;66;0.75;violin
158.4379225;0.1859379958333136;69;0.75;violin
158.625423;0.37343849583334077;59;0.75;violin
158.625423;0.37343849583334077;66;0.75;violin
159.000424;0.18593799583334203;80;0.3828125;violin
159.000424;0.18593799583334203;83;0.3828125;violin
159.1879245;0.18593799583334203;78;0.3828125;violin
159.1879245;0.18593799583334203;81;0.3828125;violin
159.375425;0.37343849583334077;76;0.3828125;violin
159.375425;0.37343849583334077;80;0.3828125;violin
159.750426;0.18593799583334203;76;0.3828125;violin
159.750426;0.18593799583334203;80;0.3828125;violin
159.9379265;0.18593799583334203;71;0.3828125;violin
159.9379265;0.18593799583334203;78;0.3828125;violin
160.125427;0.37343849583334077;68;0.3828125;violin
160.125427;0.37343849583334077;76;0.3828125;violin
160.500428;0.18593799583334203;68;0.75;violin
160.500428;0.18593799583334203;71;0.75;violin
160.6879285;0.18593799583334203;66;0.75;violin
160.6879285;0.18593799583334203;69;0.75;violin
160.875429;0.37343849583334077;64;0.75;violin
160.875429;0.37343849583334077;68;0.75;violin
161.25043;0.18593799583334203;64;0.75;violin
161.25043;0.18593799583334203;68;0.75;violin
161.4379305;0.18593799583334203;59;0.75;violin
161.4379305;0.18593799583334203;66;0.75;violin
161.62543100000002;0.37343849583331234;56;0.75;violin
161.62543100000002;0.37343849583331234;64;0.75;violin
162.00043200000002;0.1859379958333136;68;0.3828125;violin
162.00043200000002;0.1859379958333136;76;0.3828125;violin
162.18793250000002;0.1859379958333136;71;0.3828125;violin
162.18793250000002;0.1859379958333136;78;0.3828125;violin
162.37543300000002;0.37343849583331234;76;0.3828125;violin
162.37543300000002;0.37343849583331234;80;0.3828125;violin
162.750434;0.1859379958333136;78;0.3828125;violin
162.750434;0.1859379958333136;81;0.3828125;violin
162.9379345;0.18593799583334203;76;0.3828125;violin
162.9379345;0.18593799583334203;80;0.3828125;violin
163.125435;0.37343849583334077;71;0.3828125;violin
163.125435;0.37343849583334077;78;0.3828125;violin
163.500436;0.18593799583334203;76;0.3828125;violin
163.500436;0.18593799583334203;80;0.3828125;violin
163.6879365;0.18593799583334203;71;0.3828125;violin
163.6879365;0.18593799583334203;78;0.3828125;violin
163.875437;0.7484394958333382;68;0.3828125;violin
163.875437;0.7484394958333382;76;0.3828125;violin
164.625439;0.37343849583334077;71;0.3828125;violin
164.625439;0.37343849583334077;78;0.3828125;violin
165.00044;0.18593799583334203;76;0.3828125;violin
165.00044;0.18593799583334203;80;0.3828125;violin
165.1879405;0.18593799583334203;71;0.3828125;violin
165.1879405;0.18593799583334203;78;0.3828125;violin
165.375441;0.5609389958333395;68;0.3828125;violin
165.375441;0.5609389958333395;76;0.3828125;violin
165.93794250000002;0.1859379958333136;68;0.3828125;violin
165.93794250000002;0.1859379958333136;76;0.3828125;violin
166.12544300000002;1.4968789916666765;68;0.3828125;violin
166.12544300000002;1.4968789916666765;76;0.3828125;violin
