start;duration;pitch;velocity;instrument
0.0;0.06363653333333334;55;0.75;violin
0.0;0.06363653333333334;62;0.75;violin
0.0;0.06363653333333334;70;0.75;violin
0.0;0.06363653333333334;79;0.75;violin
0.06477290000000001;0.06363653333333334;81;0.75;violin
0.12954580000000002;0.27159163333333336;82;0.75;violin
0.272728;0.06704563333333335;81;0.75;violin
0.409092;0.06704563333333335;79;0.75;violin
0.545456;0.06704563333333335;77;0.75;violin
0.6818200000000001;0.06704563333333324;75;0.75;violin
0.818184;0.06704563333333335;74;0.75;violin
0.9545480000000001;0.06704563333333324;72;0.75;violin
1.090912;0.06704563333333335;70;0.75;violin
1.227276;0.06704563333333335;69;0.75;violin
1.3636400000000002;0.06704563333333313;67;0.75;violin
1.5000040000000001;0.06704563333333335;66;0.75;violin
1.636368;0.13522763333333332;67;0.75;violin
1.9090960000000001;0.06704563333333335;55;0.75;violin
2.0454600000000003;0.06704563333333313;57;0.75;violin
2.181824;0.06704563333333313;58;0.75;violin
2.318188;0.06704563333333313;60;0.75;violin
2.454552;0.03295463333333348;62;0.75;violin
2.488643;0.03295463333333348;63;0.75;violin
2.5227340000000003;0.03295463333333304;62;0.75;violin
2.5568250000000003;0.03295463333333304;63;0.75;violin
2.590916;0.13522763333333332;61;0.75;violin
2.7272800000000004;0.13522763333333332;62;0.75;violin
2.8636440000000003;0.06704563333333313;60;0.75;violin
3.0000080000000002;0.06704563333333313;58;0.75;violin
3.136372;0.06704563333333358;57;0.75;violin
3.272736;0.0636365333333333;55;0.75;violin
3.272736;0.0636365333333333;62;0.75;violin
3.272736;0.0636365333333333;70;0.75;violin
3.272736;0.0636365333333333;79;0.75;violin
3.3375089;0.06363653333333374;81;0.75;violin
3.4022818000000004;0.27159163333333325;82;0.75;violin
3.5454640000000004;0.06704563333333313;81;0.75;violin
3.6818280000000003;0.06704563333333313;79;0.75;violin
3.8181920000000003;0.06704563333333313;77;0.75;violin
3.954556;0.06704563333333358;75;0.75;violin
4.090920000000001;0.06704563333333269;74;0.75;violin
4.227284;0.06704563333333358;72;0.75;violin
4.363648;0.06704563333333358;70;0.75;violin
4.500012;0.06704563333333358;69;0.75;violin
4.636376;0.06704563333333358;67;0.75;violin
4.772740000000001;0.06704563333333269;66;0.75;violin
4.909104;0.13522763333333376;67;0.75;violin
5.181832;0.06704563333333358;55;0.75;violin
5.318196;0.06704563333333358;57;0.75;violin
5.454560000000001;0.06704563333333269;58;0.75;violin
5.590924;0.06704563333333358;60;0.75;violin
5.727288000000001;0.03295463333333348;62;0.75;violin
5.761379000000001;0.032954633333332595;63;0.75;violin
5.79547;0.03295463333333348;62;0.75;violin
5.829561;0.03295463333333348;63;0.75;violin
5.863652;0.13522763333333376;61;0.75;violin
6.0000160000000005;0.13522763333333288;62;0.75;violin
6.13638;0.06704563333333358;60;0.75;violin
6.272744;0.06704563333333358;58;0.75;violin
6.409108000000001;0.06704563333333269;57;0.75;violin
6.545472;0.02613643333333382;55;0.75;violin
6.572744800000001;0.02613643333333293;67;0.75;violin
6.6000176;0.02613643333333382;69;0.75;violin
6.627290400000001;0.02613643333333293;67;0.75;violin
6.6545632;0.02613643333333382;69;0.75;violin
6.6818360000000006;0.13522763333333288;66;0.75;violin
6.8182;0.13522763333333376;67;0.75;violin
6.954564;0.06704563333333358;65;0.75;violin
7.090928000000001;0.06704563333333269;63;0.75;violin
7.227292;0.06704563333333358;62;0.75;violin
7.363656000000001;0.02613643333333293;60;0.75;violin
7.3909288;0.02613643333333382;72;0.75;violin
7.418201600000001;0.02613643333333293;74;0.75;violin
7.4454744;0.02613643333333382;72;0.75;violin
7.472747200000001;0.02613643333333293;74;0.75;violin
7.50002;0.13522763333333376;71;0.75;violin
7.6363840000000005;0.13522763333333288;72;0.75;violin
7.772748000000001;0.06704563333333269;70;0.75;violin
7.909112;0.06704563333333358;69;0.75;violin
8.045476;0.06704563333333269;67;0.75;violin
8.181840000000001;0.02613643333333293;65;0.75;violin
8.2091128;0.026136433333334708;77;0.75;violin
8.2363856;0.02613643333333293;79;0.75;violin
8.2636584;0.02613643333333293;77;0.75;violin
8.290931200000001;0.02613643333333293;79;0.75;violin
8.318204;0.13522763333333465;76;0.75;violin
8.454568;0.13522763333333288;77;0.75;violin
8.590932;0.06704563333333269;75;0.75;violin
8.727296;0.06704563333333269;74;0.75;violin
8.863660000000001;0.06704563333333269;72;0.75;violin
9.000024;0.026136433333334708;70;0.75;violin
9.0272968;0.02613643333333293;82;0.75;violin
9.0545696;0.02613643333333293;84;0.75;violin
9.081842400000001;0.02613643333333293;82;0.75;violin
9.1091152;0.026136433333334708;84;0.75;violin
9.136388;0.13522763333333288;81;0.75;violin
9.272752;0.13522763333333288;82;0.75;violin
9.409116000000001;0.06704563333333269;81;0.75;violin
9.545480000000001;0.06704563333333269;80;0.75;violin
9.681844;0.06704563333333446;79;0.75;violin
9.818208;0.13522763333333288;78;0.75;violin
9.954572;0.13522763333333288;66;0.75;violin
10.090936000000001;0.13522763333333288;77;0.75;violin
10.227300000000001;0.13522763333333288;65;0.75;violin
10.363664;0.13522763333333465;76;0.75;violin
10.500028;0.13522763333333288;64;0.75;violin
10.636392;0.13522763333333288;75;0.75;violin
10.772756000000001;0.13522763333333288;63;0.75;violin
10.909120000000001;0.13522763333333288;74;0.75;violin
11.045484;0.13522763333333465;62;0.75;violin
11.181848;0.13522763333333288;73;0.75;violin
11.318212;0.13522763333333288;61;0.75;violin
11.454576000000001;0.032954633333332595;62;0.75;violin
11.488667000000001;0.032954633333332595;63;0.75;violin
11.522758000000001;0.032954633333332595;62;0.75;violin
11.556849000000001;0.032954633333332595;63;0.75;violin
11.59094;0.13522763333333465;61;0.75;violin
11.727304;0.13522763333333465;62;0.75;violin
11.863668;0.06704563333333269;66;0.75;violin
12.000032000000001;0.06704563333333269;69;0.75;violin
12.136396000000001;0.06704563333333269;74;0.75;violin
12.27276;0.06704563333333446;62;0.75;violin
12.409124;0.06704563333333446;63;0.75;violin
12.545488;0.06704563333333269;62;0.75;violin
12.681852000000001;0.06704563333333269;60;0.75;violin
12.818216000000001;0.06704563333333269;58;0.75;violin
12.95458;0.06704563333333446;57;0.75;violin
13.090944;0.06363653333333374;55;0.75;violin
13.090944;0.06363653333333374;62;0.75;violin
13.090944;0.06363653333333374;70;0.75;violin
13.090944;0.06363653333333374;79;0.75;violin
13.155716900000002;0.06363653333333197;81;0.75;violin
13.220489800000001;0.27159163333333325;82;0.75;violin
13.363672000000001;0.06704563333333269;81;0.75;violin
13.500036000000001;0.06704563333333269;79;0.75;violin
13.6364;0.06704563333333446;77;0.75;violin
13.772764;0.06704563333333446;75;0.75;violin
13.909128;0.06704563333333269;74;0.75;violin
14.045492000000001;0.06704563333333269;72;0.75;violin
14.181856000000002;0.06704563333333269;70;0.75;violin
14.31822;0.06704563333333446;69;0.75;violin
14.454584;0.06704563333333446;67;0.75;violin
14.590948000000001;0.06704563333333269;66;0.75;violin
14.727312000000001;0.13522763333333288;67;0.75;violin
15.00004;0.06704563333333446;55;0.75;violin
15.136404;0.06704563333333269;57;0.75;violin
15.272768000000001;0.06704563333333269;58;0.75;violin
15.409132000000001;0.06704563333333269;60;0.75;violin
15.545496000000002;0.032954633333332595;62;0.75;violin
15.579587;0.03295463333333437;63;0.75;violin
15.613678;0.03295463333333437;62;0.75;violin
15.647769;0.03295463333333437;63;0.75;violin
15.68186;0.13522763333333465;61;0.75;violin
15.818224;0.13522763333333288;62;0.75;violin
15.954588000000001;0.06704563333333269;60;0.75;violin
16.090952;0.06704563333333269;58;0.75;violin
16.227316000000002;0.06704563333333269;57;0.75;violin
16.363680000000002;0.06363653333333374;55;0.75;violin
16.363680000000002;0.06363653333333374;62;0.75;violin
16.363680000000002;0.06363653333333374;70;0.75;violin
16.363680000000002;0.06363653333333374;79;0.75;violin
16.4284529;0.06363653333333374;81;0.75;violin
16.4932258;0.27159163333333325;82;0.75;violin
16.636408;0.06704563333333624;81;0.75;violin
16.772772;0.06704563333333624;79;0.75;violin
16.909136;0.06704563333333269;77;0.75;violin
17.0455;0.06704563333333269;75;0.75;violin
17.181864;0.06704563333333269;74;0.75;violin
17.318228;0.06704563333333269;72;0.75;violin
17.454592;0.06704563333333269;70;0.75;violin
17.590956000000002;0.06704563333333269;69;0.75;violin
17.727320000000002;0.06704563333333269;67;0.75;violin
17.863684000000003;0.06704563333333269;66;0.75;violin
18.000048;0.13522763333333643;67;0.75;violin
18.272776;0.06704563333333269;55;0.75;violin
18.40914;0.06704563333333269;57;0.75;violin
18.545504;0.06704563333333269;58;0.75;violin
18.681868;0.06704563333333269;60;0.75;violin
18.818232000000002;0.032954633333332595;62;0.75;violin
18.852323000000002;0.032954633333332595;63;0.75;violin
18.886414000000002;0.032954633333332595;62;0.75;violin
18.920505000000002;0.032954633333332595;63;0.75;violin
18.954596000000002;0.13522763333333288;61;0.75;violin
19.090960000000003;0.13522763333333288;62;0.75;violin
19.227324;0.06704563333333624;60;0.75;violin
19.363688;0.06704563333333624;58;0.75;violin
19.500052;0.06704563333333269;57;0.75;violin
19.636416;0.026136433333334708;55;0.75;violin
19.663688800000003;0.026136433333331155;67;0.75;violin
19.6909616;0.026136433333334708;69;0.75;violin
19.7182344;0.026136433333334708;67;0.75;violin
19.745507200000002;0.026136433333331155;69;0.75;violin
19.77278;0.13522763333333288;66;0.75;violin
19.909144;0.13522763333333288;67;0.75;violin
20.045508;0.06704563333333269;65;0.75;violin
20.181872000000002;0.06704563333333269;63;0.75;violin
20.318236000000002;0.06704563333333269;62;0.75;violin
20.454600000000003;0.026136433333331155;60;0.75;violin
20.4818728;0.026136433333334708;72;0.75;violin
20.5091456;0.026136433333334708;74;0.75;violin
20.536418400000002;0.026136433333331155;72;0.75;violin
20.5636912;0.026136433333334708;74;0.75;violin
20.590964;0.13522763333333643;71;0.75;violin
20.727328;0.13522763333333288;72;0.75;violin
20.863692;0.06704563333333269;70;0.75;violin
21.000056;0.06704563333333269;69;0.75;violin
21.13642;0.06704563333333269;67;0.75;violin
21.272784;0.026136433333334708;65;0.75;violin
21.3000568;0.026136433333334708;77;0.75;violin
21.327329600000002;0.026136433333331155;79;0.75;violin
21.3546024;0.026136433333334708;77;0.75;violin
21.3818752;0.026136433333334708;79;0.75;violin
21.409148000000002;0.13522763333333288;76;0.75;violin
21.545512000000002;0.13522763333333288;77;0.75;violin
21.681876000000003;0.06704563333333269;75;0.75;violin
21.818240000000003;0.06704563333333269;74;0.75;violin
21.954604;0.06704563333333624;72;0.75;violin
22.090968;0.026136433333334708;70;0.75;violin
22.118240800000002;0.026136433333331155;82;0.75;violin
22.1455136;0.026136433333334708;84;0.75;violin
22.1727864;0.026136433333334708;82;0.75;violin
22.200059200000002;0.026136433333331155;84;0.75;violin
22.227332;0.13522763333333288;81;0.75;violin
22.363696;0.13522763333333288;82;0.75;violin
22.50006;0.06704563333333269;81;0.75;violin
22.636424;0.06704563333333269;80;0.75;violin
22.772788000000002;0.06704563333333269;79;0.75;violin
22.909152000000002;0.13522763333333288;78;0.75;violin
23.045516000000003;0.13522763333333288;66;0.75;violin
23.18188;0.13522763333333643;77;0.75;violin
23.318244;0.13522763333333643;65;0.75;violin
23.454608;0.13522763333333288;76;0.75;violin
23.590972;0.13522763333333288;64;0.75;violin
23.727336;0.13522763333333288;75;0.75;violin
23.8637;0.13522763333333288;63;0.75;violin
24.000064000000002;0.13522763333333288;74;0.75;violin
24.136428000000002;0.13522763333333288;62;0.75;violin
24.272792000000003;0.13522763333333288;73;0.75;violin
24.409156000000003;0.13522763333333288;61;0.75;violin
24.54552;0.13522763333333643;72;0.75;violin
24.681884;0.13522763333333288;60;0.75;violin
24.818248;0.13522763333333288;71;0.75;violin
24.954612;0.13522763333333288;59;0.75;violin
25.090976;0.13522763333333288;70;0.75;violin
25.22734;0.13522763333333288;58;0.75;violin
25.363704000000002;0.13522763333333288;69;0.75;violin
25.500068000000002;0.13522763333333288;57;0.75;violin
25.636432000000003;0.06704563333333269;87;0.75;violin
25.772796000000003;0.06704563333333269;84;0.75;violin
25.90916;0.06704563333333624;81;0.75;violin
26.045524;0.06704563333333624;63;0.75;violin
26.181888;0.06704563333333269;62;0.75;violin
26.25007;0.06704563333333269;63;0.75;violin
26.318252;0.06704563333333269;62;0.75;violin
26.386434;0.06704563333333269;63;0.75;violin
26.454616;0.13522763333333288;63;0.75;violin
26.590980000000002;0.06704563333333269;84;0.75;violin
26.727344000000002;0.06704563333333269;81;0.75;violin
26.863708000000003;0.06704563333333269;63;0.75;violin
27.000072000000003;0.06704563333333269;62;0.75;violin
27.068254000000003;0.06704563333333269;63;0.75;violin
27.136436;0.06704563333333624;62;0.75;violin
27.204618;0.06704563333333624;63;0.75;violin
27.2728;0.13522763333333643;63;0.75;violin
27.409164;0.06704563333333269;84;0.75;violin
27.545528;0.06704563333333269;81;0.75;violin
27.681892;0.06704563333333269;63;0.75;violin
27.818256;0.06704563333333269;62;0.75;violin
27.886438000000002;0.06704563333333269;63;0.75;violin
27.954620000000002;0.06704563333333269;62;0.75;violin
28.022802000000002;0.06704563333333269;63;0.75;violin
28.090984000000002;0.13522763333333288;65;0.75;violin
28.227348000000003;0.06704563333333269;80;0.75;violin
28.363712000000003;0.06704563333333269;79;0.75;violin
28.500076;0.06704563333333624;63;0.75;violin
28.63644;0.06704563333333624;64;0.75;violin
28.704622;0.06704563333333269;65;0.75;violin
28.772804;0.06704563333333269;64;0.75;violin
28.840986;0.06704563333333269;65;0.75;violin
28.909168;0.13522763333333288;67;0.75;violin
29.045532;0.06704563333333269;82;0.75;violin
29.181896000000002;0.06704563333333269;81;0.75;violin
29.318260000000002;0.06704563333333269;65;0.75;violin
29.454624000000003;0.06704563333333269;66;0.75;violin
29.522806000000003;0.06704563333333269;67;0.75;violin
29.590988000000003;0.06704563333333269;66;0.75;violin
29.659170000000003;0.06704563333333269;67;0.75;violin
29.727352000000003;0.13522763333333288;69;0.75;violin
29.863716;0.06704563333333624;84;0.75;violin
30.00008;0.06704563333333624;82;0.75;violin
30.136444;0.06704563333333269;67;0.75;violin
30.272808;0.06704563333333269;69;0.75;violin
30.34099;0.06704563333333269;70;0.75;violin
30.409172;0.06704563333333269;69;0.75;violin
30.477354000000002;0.06704563333333269;70;0.75;violin
30.545536000000002;0.13522763333333288;72;0.75;violin
30.681900000000002;0.06704563333333269;87;0.75;violin
30.818264000000003;0.06704563333333269;86;0.75;violin
30.954628000000003;0.06704563333333269;70;0.75;violin
31.090992000000004;0.13522763333333288;64;0.75;violin
31.227356;0.13522763333333643;82;0.75;violin
31.36372;0.13522763333333288;67;0.75;violin
31.500084;0.13522763333333288;85;0.75;violin
31.636448;0.13522763333333288;70;0.75;violin
31.772812000000002;0.13522763333333288;88;0.75;violin
31.909176000000002;0.13522763333333643;73;0.75;violin
32.04554;0.13522763333332932;91;0.75;violin
32.181904;0.13522763333332932;76;0.75;violin
32.318268;0.13522763333332932;94;0.75;violin
32.454632000000004;0.13522763333332932;79;0.75;violin
32.590996000000004;0.13522763333332932;97;0.75;violin
32.727360000000004;0.06704563333332914;65;0.75;violin
32.795542000000005;0.06704563333332914;67;0.75;violin
32.863724000000005;0.06704563333332914;65;0.75;violin
32.931906000000005;0.06704563333332914;67;0.75;violin
33.000088000000005;0.13522763333332932;77;0.75;violin
33.136452;0.06704563333333624;62;0.75;violin
33.272816;0.06704563333333624;63;0.75;violin
33.40918;0.06704563333333624;60;0.75;violin
33.545544;0.032954633333332595;58;0.75;violin
33.579635;0.032954633333332595;60;0.75;violin
33.613726;0.032954633333332595;58;0.75;violin
33.647817;0.032954633333332595;60;0.75;violin
33.681908;0.13522763333333643;57;0.75;violin
33.818272;0.13522763333333643;58;0.75;violin
33.954636;0.06704563333333624;82;0.3828125;violin
34.091;0.06704563333333624;81;0.3828125;violin
34.227364;0.06704563333333624;80;0.3828125;violin
34.363728;0.032954633333332595;79;0.3828125;violin
34.397819000000005;0.032954633333332595;81;0.3828125;violin
34.43191;0.032954633333332595;79;0.3828125;violin
34.466001;0.0329546333333397;81;0.3828125;violin
34.500092;0.13522763333333643;78;0.3828125;violin
34.636456;0.13522763333332932;79;0.3828125;violin
34.77282;0.06704563333332914;75;0.3828125;violin
34.909184;0.06704563333332914;74;0.3828125;violin
35.045548000000004;0.06704563333332914;73;0.3828125;violin
35.181912000000004;0.032954633333332595;72;0.3828125;violin
35.216003;0.032954633333332595;73;0.3828125;violin
35.250094000000004;0.032954633333332595;72;0.3828125;violin
35.284185;0.032954633333332595;73;0.3828125;violin
35.318276000000004;0.13522763333332932;71;0.3828125;violin
35.454640000000005;0.13522763333332932;72;0.3828125;violin
35.591004000000005;0.06704563333332914;80;0.3828125;violin
35.727368000000006;0.06704563333332914;79;0.3828125;violin
35.863732;0.06704563333333624;78;0.3828125;violin
36.000096;0.0329546333333397;77;0.3828125;violin
36.034187;0.032954633333332595;79;0.3828125;violin
36.068278;0.032954633333332595;77;0.3828125;violin
36.102369;0.032954633333332595;79;0.3828125;violin
36.13646;0.13522763333333643;76;0.3828125;violin
36.272824;0.13522763333333643;77;0.3828125;violin
36.409188;0.06704563333333624;74;0.3828125;violin
36.545552;0.06704563333333624;73;0.3828125;violin
36.681916;0.06704563333333624;72;0.3828125;violin
36.81828;0.032954633333332595;70;0.3828125;violin
36.852371000000005;0.032954633333332595;72;0.3828125;violin
36.886462;0.032954633333332595;70;0.3828125;violin
36.920553000000005;0.032954633333332595;72;0.3828125;violin
36.954644;0.13522763333333643;69;0.3828125;violin
37.091008;0.13522763333333643;70;0.3828125;violin
37.227372;0.06704563333333624;69;0.3828125;violin
37.363736;0.06704563333332914;68;0.3828125;violin
37.5001;0.06704563333332914;66;0.3828125;violin
37.636464000000004;0.13522763333332932;67;0.3828125;violin
37.772828000000004;0.06704563333332914;82;0.40625;violin
37.909192000000004;0.06704563333332914;79;0.4296875;violin
38.045556000000005;0.06704563333332914;76;0.453125;violin
38.181920000000005;0.06704563333332914;73;0.4765625;violin
38.318284000000006;0.06704563333332914;70;0.5;violin
38.454648;0.13522763333333643;65;0.5234375;violin
38.591012;0.13522763333333643;77;0.546875;violin
38.727376;0.13522763333333643;63;0.578125;violin
38.86374;0.13522763333333643;75;0.6015625;violin
39.000104;0.13522763333333643;60;0.625;violin
39.136468;0.13522763333333643;72;0.6484375;violin
39.272832;0.032954633333332595;58;0.671875;violin
39.306923000000005;0.032954633333332595;60;0.6796875;violin
39.341014;0.032954633333332595;58;0.6875;violin
39.375105000000005;0.032954633333332595;60;0.6875;violin
39.409196;0.13522763333333643;57;0.6953125;violin
39.54556;0.13522763333333643;58;0.71875;violin
39.681924;0.06704563333333624;78;0.75;violin
39.818288;0.06704563333333624;77;0.75;violin
39.954652;0.06704563333332914;57;0.75;violin
40.091016;0.032954633333332595;58;0.75;violin
40.125107;0.032954633333332595;60;0.75;violin
40.159198;0.032954633333332595;58;0.75;violin
40.193289;0.032954633333332595;60;0.75;violin
40.227380000000004;0.13522763333332932;57;0.75;violin
40.363744000000004;0.13522763333332932;58;0.75;violin
40.500108000000004;0.06704563333332914;90;0.75;violin
40.636472000000005;0.06704563333332914;89;0.75;violin
40.772836000000005;0.06704563333332914;57;0.75;violin
40.909200000000006;0.032954633333332595;58;0.75;violin
40.943291;0.032954633333332595;60;0.75;violin
40.977382000000006;0.032954633333332595;58;0.75;violin
41.011473;0.032954633333332595;60;0.75;violin
41.045564;0.13522763333333643;57;0.75;violin
41.181928;0.13522763333333643;58;0.75;violin
41.318292;0.06704563333333624;78;0.75;violin
41.454656;0.06704563333333624;77;0.75;violin
41.59102;0.06704563333333624;57;0.75;violin
41.727384;0.032954633333332595;58;0.75;violin
41.761475000000004;0.032954633333332595;60;0.75;violin
41.795566;0.032954633333332595;58;0.75;violin
41.829657000000005;0.032954633333332595;60;0.75;violin
41.863748;0.13522763333333643;57;0.75;violin
42.000112;0.13522763333333643;58;0.75;violin
42.136476;0.06704563333333624;66;0.75;violin
42.27284;0.06704563333333624;65;0.75;violin
42.409204;0.06704563333333624;57;0.75;violin
42.545568;0.032954633333332595;58;0.75;violin
42.579659;0.0329546333333397;60;0.75;violin
42.61375;0.032954633333332595;58;0.75;violin
42.647841;0.032954633333332595;60;0.75;violin
42.681932;0.13522763333332932;57;0.75;violin
42.818296000000004;0.2715916333333297;58;0.75;violin
44.181936;0.0636365333333373;55;0.75;violin
44.181936;0.0636365333333373;62;0.75;violin
44.181936;0.0636365333333373;70;0.75;violin
44.181936;0.0636365333333373;79;0.75;violin
44.2467089;0.0636365333333373;81;0.75;violin
44.3114818;0.2715916333333297;82;0.75;violin
44.454664;0.06704563333333624;81;0.75;violin
44.591028;0.06704563333333624;79;0.75;violin
44.727392;0.06704563333333624;77;0.75;violin
44.863756;0.06704563333333624;75;0.75;violin
45.00012;0.06704563333333624;74;0.75;violin
45.136484;0.06704563333333624;72;0.75;violin
45.272848;0.06704563333332914;70;0.75;violin
45.409212000000004;0.06704563333332914;69;0.75;violin
45.545576000000004;0.06704563333332914;67;0.75;violin
45.681940000000004;0.06704563333332914;66;0.75;violin
45.818304000000005;0.13522763333332932;67;0.75;violin
46.091032000000006;0.06704563333332914;55;0.75;violin
46.227396000000006;0.06704563333332914;57;0.75;violin
46.36376;0.06704563333333624;58;0.75;violin
46.500124;0.06704563333333624;60;0.75;violin
46.636488;0.032954633333332595;62;0.75;violin
46.670579000000004;0.032954633333332595;63;0.75;violin
46.70467;0.032954633333332595;62;0.75;violin
46.738761000000004;0.032954633333332595;63;0.75;violin
46.772852;0.13522763333333643;61;0.75;violin
46.909216;0.13522763333333643;62;0.75;violin
47.04558;0.06704563333333624;60;0.75;violin
47.181944;0.06704563333333624;58;0.75;violin
47.318308;0.06704563333333624;57;0.75;violin
47.454672;0.0636365333333373;55;0.75;violin
47.454672;0.0636365333333373;62;0.75;violin
47.454672;0.0636365333333373;70;0.75;violin
47.454672;0.0636365333333373;79;0.75;violin
47.5194449;0.06363653333333019;81;0.75;violin
47.584217800000005;0.2715916333333297;82;0.75;violin
47.7274;0.06704563333333624;81;0.75;violin
47.863764;0.06704563333333624;79;0.75;violin
48.000128000000004;0.06704563333332914;77;0.75;violin
48.136492000000004;0.06704563333332914;75;0.75;violin
48.272856000000004;0.06704563333332914;74;0.75;violin
48.409220000000005;0.06704563333332914;72;0.75;violin
48.545584000000005;0.06704563333332914;70;0.75;violin
48.681948000000006;0.06704563333332914;69;0.75;violin
48.818312000000006;0.06704563333332914;67;0.75;violin
48.954676000000006;0.06704563333332914;66;0.75;violin
49.09104;0.13522763333333643;67;0.75;violin
49.363768;0.06704563333333624;55;0.75;violin
49.500132;0.06704563333333624;57;0.75;violin
49.636496;0.06704563333333624;58;0.75;violin
49.77286;0.06704563333333624;60;0.75;violin
49.909224;0.032954633333332595;62;0.75;violin
49.943315000000005;0.032954633333332595;63;0.75;violin
49.977406;0.032954633333332595;62;0.75;violin
50.011497000000006;0.032954633333332595;63;0.75;violin
50.045588;0.13522763333333643;61;0.75;violin
50.181952;0.13522763333333643;62;0.75;violin
50.318316;0.06704563333333624;60;0.75;violin
50.45468;0.06704563333333624;58;0.75;violin
50.591044000000004;0.06704563333332914;57;0.75;violin
50.727408000000004;0.026136433333334708;55;0.75;violin
50.7546808;0.026136433333334708;67;0.75;violin
50.7819536;0.026136433333334708;69;0.75;violin
50.8092264;0.026136433333334708;67;0.75;violin
50.836499200000006;0.026136433333327602;69;0.75;violin
50.863772000000004;0.13522763333332932;66;0.75;violin
51.000136000000005;0.13522763333332932;67;0.75;violin
51.136500000000005;0.06704563333332914;65;0.75;violin
51.272864000000006;0.06704563333332914;63;0.75;violin
51.409228000000006;0.06704563333332914;62;0.75;violin
51.545592000000006;0.026136433333327602;60;0.75;violin
51.572864800000005;0.026136433333334708;72;0.75;violin
51.600137600000004;0.026136433333334708;74;0.75;violin
51.6274104;0.026136433333334708;72;0.75;violin
51.6546832;0.026136433333334708;74;0.75;violin
51.681956;0.13522763333333643;71;0.75;violin
51.81832;0.13522763333333643;72;0.75;violin
51.954684;0.06704563333333624;70;0.75;violin
52.091048;0.06704563333333624;69;0.75;violin
52.227412;0.06704563333333624;67;0.75;violin
52.363776;0.026136433333334708;65;0.75;violin
52.3910488;0.026136433333334708;77;0.75;violin
52.418321600000006;0.026136433333327602;79;0.75;violin
52.445594400000004;0.026136433333334708;77;0.75;violin
52.4728672;0.026136433333334708;79;0.75;violin
52.50014;0.13522763333333643;76;0.75;violin
52.636504;0.13522763333333643;77;0.75;violin
52.772868;0.06704563333333624;75;0.75;violin
52.909232;0.06704563333333624;74;0.75;violin
53.045596;0.06704563333333624;72;0.75;violin
53.181960000000004;0.026136433333334708;70;0.75;violin
53.2092328;0.026136433333334708;82;0.75;violin
53.2365056;0.026136433333334708;84;0.75;violin
53.2637784;0.026136433333334708;82;0.75;violin
53.291051200000005;0.026136433333327602;84;0.75;violin
53.318324000000004;0.13522763333332932;81;0.75;violin
53.454688000000004;0.13522763333332932;82;0.75;violin
53.591052000000005;0.06704563333332914;81;0.75;violin
53.727416000000005;0.06704563333332914;80;0.75;violin
53.863780000000006;0.06704563333332914;79;0.75;violin
54.000144000000006;0.13522763333332932;78;0.75;violin
54.136508000000006;0.13522763333332932;66;0.75;violin
54.272872;0.13522763333333643;77;0.75;violin
54.409236;0.13522763333333643;65;0.75;violin
54.5456;0.13522763333333643;76;0.75;violin
54.681964;0.13522763333333643;64;0.75;violin
54.818328;0.13522763333333643;75;0.75;violin
54.954692;0.13522763333333643;63;0.75;violin
55.091056;0.13522763333333643;74;0.75;violin
55.22742;0.13522763333333643;62;0.75;violin
55.363784;0.13522763333333643;73;0.75;violin
55.500148;0.13522763333333643;61;0.75;violin
55.636512;0.032954633333332595;62;0.75;violin
55.670603;0.0329546333333397;63;0.75;violin
55.704694;0.032954633333332595;62;0.75;violin
55.738785;0.0329546333333397;63;0.75;violin
55.772876000000004;0.13522763333332932;61;0.75;violin
55.909240000000004;0.13522763333332932;62;0.75;violin
56.045604000000004;0.06704563333332914;66;0.75;violin
56.181968000000005;0.06704563333332914;69;0.75;violin
56.318332000000005;0.06704563333332914;74;0.75;violin
56.454696000000006;0.06704563333332914;62;0.75;violin
56.591060000000006;0.06704563333332914;63;0.75;violin
56.727424000000006;0.06704563333332914;62;0.75;violin
56.86378800000001;0.06704563333332914;60;0.75;violin
57.000152;0.06704563333333624;58;0.75;violin
57.136516;0.06704563333333624;57;0.75;violin
57.27288;0.0636365333333373;55;0.75;violin
57.27288;0.0636365333333373;62;0.75;violin
57.27288;0.0636365333333373;70;0.75;violin
57.27288;0.0636365333333373;79;0.75;violin
57.3376529;0.0636365333333373;81;0.75;violin
57.4024258;0.2715916333333368;82;0.75;violin
57.545608;0.06704563333333624;81;0.75;violin
57.681972;0.06704563333333624;79;0.75;violin
57.818336;0.06704563333333624;77;0.75;violin
57.9547;0.06704563333333624;75;0.75;violin
58.091064;0.06704563333333624;74;0.75;violin
58.227428;0.06704563333333624;72;0.75;violin
58.363792000000004;0.06704563333333624;70;0.75;violin
58.500156000000004;0.06704563333332914;69;0.75;violin
58.636520000000004;0.06704563333332914;67;0.75;violin
58.772884000000005;0.06704563333332914;66;0.75;violin
58.909248000000005;0.13522763333332932;67;0.75;violin
59.181976000000006;0.06704563333332914;55;0.75;violin
59.318340000000006;0.06704563333332914;57;0.75;violin
59.45470400000001;0.06704563333332914;58;0.75;violin
59.591068;0.06704563333333624;60;0.75;violin
59.727432;0.0329546333333397;62;0.75;violin
59.761523000000004;0.032954633333332595;63;0.75;violin
59.795614;0.0329546333333397;62;0.75;violin
59.829705000000004;0.032954633333332595;63;0.75;violin
59.863796;0.13522763333333643;61;0.75;violin
60.00016;0.13522763333333643;62;0.75;violin
60.136524;0.06704563333333624;60;0.75;violin
60.272888;0.06704563333333624;58;0.75;violin
60.409252;0.06704563333333624;57;0.75;violin
60.545616;0.0636365333333373;55;0.75;violin
60.545616;0.0636365333333373;62;0.75;violin
60.545616;0.0636365333333373;70;0.75;violin
60.545616;0.0636365333333373;79;0.75;violin
60.610388900000004;0.06363653333333019;81;0.75;violin
60.675161800000005;0.2715916333333297;82;0.75;violin
60.818344;0.06704563333333624;81;0.75;violin
60.954708000000004;0.06704563333333624;79;0.75;violin
61.091072000000004;0.06704563333333624;77;0.75;violin
61.227436000000004;0.06704563333332914;75;0.75;violin
61.363800000000005;0.06704563333332914;74;0.75;violin
61.500164000000005;0.06704563333332914;72;0.75;violin
61.636528000000006;0.06704563333332914;70;0.75;violin
61.772892000000006;0.06704563333332914;69;0.75;violin
61.909256000000006;0.06704563333332914;67;0.75;violin
62.04562000000001;0.06704563333332914;66;0.75;violin
62.18198400000001;0.13522763333332932;67;0.75;violin
62.454712;0.06704563333333624;55;0.75;violin
62.591076;0.06704563333333624;57;0.75;violin
62.72744;0.06704563333333624;58;0.75;violin
62.863804;0.06704563333333624;60;0.75;violin
63.000168;0.032954633333332595;62;0.75;violin
63.034259000000006;0.032954633333332595;63;0.75;violin
63.06835;0.032954633333332595;62;0.75;violin
63.102441000000006;0.032954633333332595;63;0.75;violin
63.136532;0.13522763333333643;61;0.75;violin
63.272896;0.13522763333333643;62;0.75;violin
63.40926;0.06704563333333624;60;0.75;violin
63.545624000000004;0.06704563333333624;58;0.75;violin
63.681988000000004;0.06704563333333624;57;0.75;violin
63.818352000000004;0.026136433333334708;55;0.75;violin
63.8456248;0.026136433333334708;67;0.75;violin
63.8728976;0.026136433333334708;69;0.75;violin
63.9001704;0.026136433333334708;67;0.75;violin
63.927443200000006;0.026136433333327602;69;0.75;violin
63.954716000000005;0.13522763333332932;66;0.75;violin
64.09108;0.13522763333332932;67;0.75;violin
64.227444;0.06704563333333624;65;0.75;violin
64.363808;0.06704563333333624;63;0.75;violin
64.500172;0.06704563333333624;62;0.75;violin
64.636536;0.026136433333334708;60;0.75;violin
64.6638088;0.026136433333334708;72;0.75;violin
64.6910816;0.026136433333334708;74;0.75;violin
64.71835440000001;0.026136433333320497;72;0.75;violin
64.7456272;0.026136433333334708;74;0.75;violin
64.7729;0.13522763333332932;71;0.75;violin
64.90926400000001;0.13522763333332932;72;0.75;violin
65.04562800000001;0.06704563333333624;70;0.75;violin
65.18199200000001;0.06704563333332203;69;0.75;violin
65.31835600000001;0.06704563333332203;67;0.75;violin
65.45472000000001;0.026136433333334708;65;0.75;violin
65.4819928;0.026136433333334708;77;0.75;violin
65.5092656;0.026136433333334708;79;0.75;violin
65.5365384;0.026136433333334708;77;0.75;violin
65.5638112;0.026136433333334708;79;0.75;violin
65.59108400000001;0.13522763333332932;76;0.75;violin
65.72744800000001;0.13522763333332932;77;0.75;violin
65.86381200000001;0.06704563333332203;75;0.75;violin
66.00017600000001;0.06704563333332203;74;0.75;violin
66.13654000000001;0.06704563333332203;72;0.75;violin
66.272904;0.026136433333334708;70;0.75;violin
66.3001768;0.026136433333334708;82;0.75;violin
66.32744960000001;0.026136433333334708;84;0.75;violin
66.3547224;0.026136433333334708;82;0.75;violin
66.3819952;0.026136433333334708;84;0.75;violin
66.409268;0.13522763333334353;81;0.75;violin
66.545632;0.13522763333334353;82;0.75;violin
66.681996;0.06704563333333624;81;0.75;violin
66.81836;0.06704563333333624;80;0.75;violin
66.954724;0.06704563333333624;79;0.75;violin
67.091088;0.13522763333334353;78;0.75;violin
67.227452;0.13522763333334353;66;0.75;violin
67.363816;0.13522763333334353;77;0.75;violin
67.50018;0.13522763333334353;65;0.75;violin
67.636544;0.13522763333334353;76;0.75;violin
67.772908;0.13522763333332932;64;0.75;violin
67.909272;0.13522763333332932;75;0.75;violin
68.045636;0.13522763333332932;63;0.75;violin
68.182;0.13522763333332932;74;0.75;violin
68.318364;0.13522763333332932;62;0.75;violin
68.454728;0.13522763333332932;73;0.75;violin
68.591092;0.13522763333332932;61;0.75;violin
68.727456;0.13522763333332932;72;0.75;violin
68.86382;0.13522763333332932;60;0.75;violin
69.000184;0.13522763333332932;71;0.75;violin
69.136548;0.13522763333332932;59;0.75;violin
69.272912;0.13522763333332932;70;0.75;violin
69.409276;0.13522763333332932;58;0.75;violin
69.54564;0.13522763333332932;69;0.75;violin
69.682004;0.13522763333332932;57;0.75;violin
69.818368;0.06704563333333624;87;0.75;violin
69.954732;0.06704563333333624;84;0.75;violin
70.09109600000001;0.06704563333333624;81;0.75;violin
70.22746000000001;0.06704563333333624;63;0.75;violin
70.36382400000001;0.06704563333333624;62;0.75;violin
70.432006;0.06704563333333624;63;0.75;violin
70.50018800000001;0.06704563333332203;62;0.75;violin
70.56837;0.06704563333333624;63;0.75;violin
70.63655200000001;0.13522763333332932;63;0.75;violin
70.77291600000001;0.06704563333332203;84;0.75;violin
70.90928000000001;0.06704563333332203;81;0.75;violin
71.04564400000001;0.06704563333332203;63;0.75;violin
71.18200800000001;0.06704563333332203;62;0.75;violin
71.25019;0.06704563333333624;63;0.75;violin
71.31837200000001;0.06704563333332203;62;0.75;violin
71.386554;0.06704563333333624;63;0.75;violin
71.45473600000001;0.13522763333332932;63;0.75;violin
71.5911;0.06704563333333624;84;0.75;violin
71.727464;0.06704563333333624;81;0.75;violin
71.863828;0.06704563333333624;63;0.75;violin
72.000192;0.06704563333333624;62;0.75;violin
72.068374;0.06704563333333624;63;0.75;violin
72.136556;0.06704563333333624;62;0.75;violin
72.204738;0.06704563333333624;63;0.75;violin
72.27292;0.13522763333334353;65;0.75;violin
72.409284;0.06704563333333624;80;0.75;violin
72.545648;0.06704563333333624;79;0.75;violin
72.682012;0.06704563333333624;63;0.75;violin
72.818376;0.06704563333333624;64;0.75;violin
72.88655800000001;0.06704563333333624;65;0.75;violin
72.95474;0.06704563333333624;64;0.75;violin
73.02292200000001;0.06704563333333624;65;0.75;violin
73.091104;0.13522763333332932;67;0.75;violin
73.227468;0.06704563333333624;82;0.75;violin
73.363832;0.06704563333333624;81;0.75;violin
73.500196;0.06704563333333624;65;0.75;violin
73.63656;0.06704563333333624;66;0.75;violin
73.70474200000001;0.06704563333332203;67;0.75;violin
73.772924;0.06704563333333624;66;0.75;violin
73.84110600000001;0.06704563333332203;67;0.75;violin
73.909288;0.13522763333332932;69;0.75;violin
74.045652;0.06704563333333624;84;0.75;violin
74.182016;0.06704563333333624;82;0.75;violin
74.31838;0.06704563333333624;67;0.75;violin
74.454744;0.06704563333333624;69;0.75;violin
74.522926;0.06704563333333624;70;0.75;violin
74.591108;0.06704563333333624;69;0.75;violin
74.65929;0.06704563333333624;70;0.75;violin
74.727472;0.13522763333332932;72;0.75;violin
74.863836;0.06704563333333624;87;0.75;violin
75.0002;0.06704563333333624;86;0.75;violin
75.136564;0.06704563333333624;70;0.75;violin
75.27292800000001;0.13522763333332932;64;0.75;violin
75.40929200000001;0.13522763333332932;82;0.75;violin
75.54565600000001;0.13522763333332932;67;0.75;violin
75.68202000000001;0.13522763333332932;85;0.75;violin
75.81838400000001;0.13522763333332932;70;0.75;violin
75.95474800000001;0.13522763333332932;88;0.75;violin
76.09111200000001;0.13522763333332932;73;0.75;violin
76.22747600000001;0.13522763333332932;91;0.75;violin
76.36384000000001;0.13522763333332932;76;0.75;violin
76.50020400000001;0.13522763333332932;94;0.75;violin
76.63656800000001;0.13522763333332932;79;0.75;violin
76.772932;0.13522763333334353;97;0.75;violin
76.909296;0.06704563333333624;65;0.75;violin
76.977478;0.06704563333333624;67;0.75;violin
77.04566;0.06704563333333624;65;0.75;violin
77.113842;0.06704563333333624;67;0.75;violin
77.182024;0.13522763333334353;77;0.75;violin
77.318388;0.06704563333333624;62;0.75;violin
77.454752;0.06704563333333624;63;0.75;violin
77.591116;0.06704563333333624;60;0.75;violin
77.72748;0.032954633333332595;58;0.75;violin
77.761571;0.032954633333332595;60;0.75;violin
77.79566200000001;0.032954633333332595;58;0.75;violin
77.82975300000001;0.032954633333332595;60;0.75;violin
77.863844;0.13522763333334353;57;0.75;violin
78.000208;0.13522763333334353;58;0.75;violin
78.136572;0.06704563333333624;82;0.3828125;violin
78.272936;0.06704563333333624;81;0.3828125;violin
78.4093;0.06704563333333624;80;0.3828125;violin
78.545664;0.032954633333332595;79;0.3828125;violin
78.579755;0.032954633333332595;81;0.3828125;violin
78.61384600000001;0.032954633333332595;79;0.3828125;violin
78.647937;0.032954633333332595;81;0.3828125;violin
78.682028;0.13522763333332932;78;0.3828125;violin
78.818392;0.13522763333332932;79;0.3828125;violin
78.954756;0.06704563333333624;75;0.3828125;violin
79.09112;0.06704563333333624;74;0.3828125;violin
79.227484;0.06704563333333624;73;0.3828125;violin
79.363848;0.032954633333332595;72;0.3828125;violin
79.39793900000001;0.032954633333332595;73;0.3828125;violin
79.43203;0.032954633333346806;72;0.3828125;violin
79.466121;0.032954633333332595;73;0.3828125;violin
79.500212;0.13522763333332932;71;0.3828125;violin
79.636576;0.13522763333332932;72;0.3828125;violin
79.77294;0.06704563333333624;80;0.3828125;violin
79.909304;0.06704563333333624;79;0.3828125;violin
80.045668;0.06704563333333624;78;0.3828125;violin
80.182032;0.032954633333332595;77;0.3828125;violin
80.21612300000001;0.032954633333332595;79;0.3828125;violin
80.250214;0.032954633333332595;77;0.3828125;violin
80.284305;0.032954633333332595;79;0.3828125;violin
80.318396;0.13522763333332932;76;0.3828125;violin
80.45476000000001;0.13522763333332932;77;0.3828125;violin
80.59112400000001;0.06704563333333624;74;0.3828125;violin
80.72748800000001;0.06704563333333624;73;0.3828125;violin
80.86385200000001;0.06704563333333624;72;0.3828125;violin
81.00021600000001;0.032954633333332595;70;0.3828125;violin
81.034307;0.032954633333332595;72;0.3828125;violin
81.068398;0.032954633333332595;70;0.3828125;violin
81.102489;0.032954633333332595;72;0.3828125;violin
81.13658000000001;0.13522763333332932;69;0.3828125;violin
81.27294400000001;0.13522763333332932;70;0.3828125;violin
81.40930800000001;0.06704563333332203;69;0.3828125;violin
81.54567200000001;0.06704563333332203;68;0.3828125;violin
81.68203600000001;0.06704563333332203;66;0.3828125;violin
81.81840000000001;0.13522763333332932;67;0.3828125;violin
81.95476400000001;0.06704563333332203;82;0.40625;violin
82.091128;0.06704563333333624;79;0.4296875;violin
82.227492;0.06704563333333624;76;0.453125;violin
82.363856;0.06704563333333624;73;0.4765625;violin
82.50022;0.06704563333333624;70;0.5;violin
82.636584;0.13522763333334353;65;0.5234375;violin
82.772948;0.13522763333334353;77;0.546875;violin
82.909312;0.13522763333334353;63;0.578125;violin
83.045676;0.13522763333334353;75;0.6015625;violin
83.18204;0.13522763333334353;60;0.625;violin
83.318404;0.13522763333334353;72;0.6484375;violin
83.454768;0.032954633333332595;58;0.671875;violin
83.488859;0.032954633333332595;60;0.6796875;violin
83.52295000000001;0.032954633333332595;58;0.6875;violin
83.557041;0.032954633333346806;60;0.6875;violin
83.591132;0.13522763333332932;57;0.6953125;violin
83.727496;0.13522763333332932;58;0.71875;violin
83.86386;0.06704563333333624;78;0.75;violin
84.000224;0.06704563333333624;77;0.75;violin
84.136588;0.06704563333333624;57;0.75;violin
84.272952;0.032954633333332595;58;0.75;violin
84.30704300000001;0.032954633333332595;60;0.75;violin
84.34113400000001;0.032954633333332595;58;0.75;violin
84.375225;0.032954633333332595;60;0.75;violin
84.409316;0.13522763333332932;57;0.75;violin
84.54568;0.13522763333332932;58;0.75;violin
84.682044;0.06704563333333624;90;0.75;violin
84.818408;0.06704563333333624;89;0.75;violin
84.954772;0.06704563333333624;57;0.75;violin
85.091136;0.032954633333332595;58;0.75;violin
85.12522700000001;0.032954633333332595;60;0.75;violin
85.159318;0.032954633333332595;58;0.75;violin
85.193409;0.032954633333332595;60;0.75;violin
85.2275;0.13522763333332932;57;0.75;violin
85.363864;0.13522763333332932;58;0.75;violin
85.500228;0.06704563333333624;78;0.75;violin
85.63659200000001;0.06704563333333624;77;0.75;violin
85.77295600000001;0.06704563333333624;57;0.75;violin
85.90932000000001;0.032954633333332595;58;0.75;violin
85.94341100000001;0.032954633333332595;60;0.75;violin
85.977502;0.032954633333332595;58;0.75;violin
86.011593;0.032954633333332595;60;0.75;violin
86.04568400000001;0.13522763333332932;57;0.75;violin
86.18204800000001;0.13522763333332932;58;0.75;violin
86.31841200000001;0.06704563333332203;66;0.75;violin
86.45477600000001;0.06704563333332203;65;0.75;violin
86.59114000000001;0.06704563333332203;57;0.75;violin
86.72750400000001;0.032954633333332595;58;0.75;violin
86.761595;0.032954633333332595;60;0.75;violin
86.795686;0.032954633333332595;58;0.75;violin
86.829777;0.032954633333332595;60;0.75;violin
86.86386800000001;0.13522763333332932;57;0.75;violin
87.00023200000001;0.2715916333333297;58;0.75;violin
88.363872;0.032954633333332595;80;0.75;violin
88.397963;0.032954633333332595;82;0.75;violin
88.43205400000001;0.032954633333332595;80;0.75;violin
88.46614500000001;0.032954633333332595;82;0.75;violin
88.500236;0.13522763333334353;79;0.75;violin
88.6366;0.13522763333334353;80;0.75;violin
88.772964;0.06704563333333624;89;0.75;violin
88.909328;0.06704563333333624;86;0.75;violin
89.045692;0.06704563333333624;80;0.75;violin
89.182056;0.06704563333333624;77;0.75;violin
89.31842;0.06704563333333624;74;0.75;violin
89.454784;0.06704563333333624;70;0.75;violin
89.591148;0.06704563333333624;68;0.75;violin
89.727512;0.06704563333333624;65;0.75;violin
89.863876;0.06704563333333624;62;0.75;violin
90.00024;0.032954633333332595;79;0.75;violin
90.03433100000001;0.032954633333332595;81;0.75;violin
90.068422;0.032954633333346806;79;0.75;violin
90.102513;0.032954633333332595;81;0.75;violin
90.136604;0.13522763333332932;78;0.75;violin
90.272968;0.13522763333332932;79;0.75;violin
90.409332;0.06704563333333624;91;0.75;violin
90.545696;0.06704563333333624;87;0.75;violin
90.68206;0.06704563333333624;82;0.75;violin
90.81842400000001;0.06704563333333624;79;0.75;violin
90.95478800000001;0.06704563333333624;75;0.75;violin
91.09115200000001;0.06704563333333624;70;0.75;violin
91.22751600000001;0.06704563333333624;67;0.75;violin
91.36388000000001;0.06704563333333624;63;0.75;violin
91.50024400000001;0.06704563333333624;58;0.75;violin
91.63660800000001;0.032954633333332595;77;0.75;violin
91.670699;0.032954633333332595;79;0.75;violin
91.70479;0.032954633333332595;77;0.75;violin
91.738881;0.032954633333332595;79;0.75;violin
91.77297200000001;0.13522763333332932;76;0.75;violin
91.90933600000001;0.13522763333332932;77;0.75;violin
92.04570000000001;0.06704563333332203;86;0.75;violin
92.18206400000001;0.06704563333332203;83;0.75;violin
92.31842800000001;0.06704563333332203;77;0.75;violin
92.45479200000001;0.06704563333332203;74;0.75;violin
92.59115600000001;0.06704563333332203;71;0.75;violin
92.72752;0.06704563333333624;67;0.75;violin
92.863884;0.06704563333333624;65;0.75;violin
93.000248;0.06704563333333624;62;0.75;violin
93.136612;0.06704563333333624;59;0.75;violin
93.272976;0.032954633333332595;75;0.75;violin
93.307067;0.032954633333332595;77;0.75;violin
93.34115800000001;0.032954633333332595;75;0.75;violin
93.37524900000001;0.032954633333332595;77;0.75;violin
93.40934;0.13522763333334353;74;0.75;violin
93.545704;0.13522763333334353;75;0.75;violin
93.682068;0.06704563333333624;87;0.75;violin
93.818432;0.06704563333333624;84;0.75;violin
93.954796;0.06704563333333624;79;0.75;violin
94.09116;0.06704563333333624;75;0.75;violin
94.227524;0.06704563333333624;72;0.75;violin
94.363888;0.06704563333333624;67;0.75;violin
94.500252;0.06704563333333624;63;0.75;violin
94.636616;0.06704563333333624;60;0.75;violin
94.77298;0.06704563333333624;55;0.75;violin
94.909344;0.032954633333332595;56;0.3828125;violin
94.94343500000001;0.032954633333332595;58;0.3828125;violin
94.97752600000001;0.032954633333332595;56;0.3828125;violin
95.011617;0.032954633333332595;58;0.3828125;violin
95.045708;0.13522763333332932;55;0.3828125;violin
95.182072;0.13522763333332932;56;0.3828125;violin
95.318436;0.06704563333333624;75;0.3828125;violin
95.4548;0.06704563333333624;72;0.3828125;violin
95.591164;0.06704563333333624;80;0.3828125;violin
95.727528;0.032954633333332595;58;0.3828125;violin
95.76161900000001;0.032954633333332595;60;0.3828125;violin
95.79571;0.032954633333332595;58;0.3828125;violin
95.829801;0.032954633333332595;60;0.3828125;violin
95.863892;0.13522763333332932;57;0.3828125;violin
96.00025600000001;0.13522763333332932;58;0.3828125;violin
96.13662000000001;0.06704563333333624;73;0.3828125;violin
96.27298400000001;0.06704563333333624;70;0.3828125;violin
96.40934800000001;0.06704563333333624;85;0.3828125;violin
96.54571200000001;0.06704563333333624;55;0.3828125;violin
96.68207600000001;0.06704563333333624;82;0.3828125;violin
96.81844000000001;0.06704563333333624;79;0.3828125;violin
96.95480400000001;0.06704563333332203;75;0.3828125;violin
97.09116800000001;0.06704563333332203;73;0.3828125;violin
97.22753200000001;0.06704563333332203;70;0.3828125;violin
97.36389600000001;0.13522763333332932;67;0.3828125;violin
97.50026000000001;0.13522763333332932;68;0.3828125;violin
97.63662400000001;0.06704563333332203;84;0.3828125;violin
97.77298800000001;0.06704563333332203;70;0.3828125;violin
97.90935200000001;0.06704563333332203;68;0.3828125;violin
98.045716;0.06704563333333624;67;0.3828125;violin
98.18208;0.032954633333346806;65;0.3828125;violin
98.216171;0.032954633333332595;67;0.3828125;violin
98.250262;0.032954633333332595;65;0.3828125;violin
98.28435300000001;0.032954633333332595;67;0.3828125;violin
98.318444;0.13522763333334353;64;0.3828125;violin
98.454808;0.13522763333334353;65;0.3828125;violin
98.591172;0.06704563333333624;84;0.3828125;violin
98.727536;0.06704563333333624;80;0.3828125;violin
98.8639;0.06704563333333624;89;0.3828125;violin
99.000264;0.032954633333332595;67;0.3828125;violin
99.034355;0.032954633333332595;69;0.3828125;violin
99.06844600000001;0.032954633333332595;67;0.3828125;violin
99.10253700000001;0.032954633333332595;69;0.3828125;violin
99.136628;0.13522763333334353;66;0.3828125;violin
99.272992;0.13522763333334353;67;0.3828125;violin
99.409356;0.06704563333333624;85;0.3828125;violin
99.54572;0.06704563333333624;82;0.3828125;violin
99.682084;0.06704563333333624;91;0.3828125;violin
99.818448;0.06704563333333624;64;0.3828125;violin
99.954812;0.06704563333333624;79;0.3828125;violin
100.091176;0.06704563333333624;76;0.3828125;violin
100.22754;0.06704563333333624;73;0.3828125;violin
100.363904;0.06704563333333624;70;0.3828125;violin
100.500268;0.06704563333333624;67;0.3828125;violin
100.636632;0.13522763333332932;64;0.3828125;violin
100.772996;0.13522763333332932;65;0.3828125;violin
100.90936;0.06704563333333624;80;0.3828125;violin
101.045724;0.06704563333333624;66;0.3828125;violin
101.18208800000001;0.06704563333333624;65;0.3828125;violin
101.31845200000001;0.06704563333333624;63;0.3828125;violin
101.45481600000001;0.2715916333333297;61;0.75;violin
101.45481600000001;0.2715916333333297;68;0.75;violin
101.45481600000001;0.2715916333333297;77;0.75;violin
101.45481600000001;0.2715916333333297;89;0.75;violin
101.72754400000001;0.06704563333333624;87;0.75;violin
101.86390800000001;0.06704563333333624;85;0.75;violin
102.00027200000001;0.06704563333333624;84;0.75;violin
102.13663600000001;0.06704563333333624;82;0.75;violin
102.27300000000001;0.06704563333332203;80;0.75;violin
102.40936400000001;0.06704563333332203;66;0.75;violin
102.54572800000001;0.06704563333332203;63;0.75;violin
102.68209200000001;0.06704563333332203;61;0.75;violin
102.81845600000001;0.06704563333332203;60;0.75;violin
102.95482000000001;0.06704563333332203;58;0.75;violin
103.09118400000001;0.2715916333333297;57;0.75;violin
103.09118400000001;0.2715916333333297;66;0.75;violin
103.09118400000001;0.2715916333333297;75;0.75;violin
103.09118400000001;0.2715916333333297;84;0.75;violin
103.363912;0.06704563333333624;81;0.75;violin
103.500276;0.06704563333333624;78;0.75;violin
103.63664;0.06704563333333624;77;0.75;violin
103.773004;0.06704563333333624;75;0.75;violin
103.909368;0.06704563333333624;73;0.75;violin
104.045732;0.06704563333333624;65;0.75;violin
104.182096;0.06704563333333624;63;0.75;violin
104.31846;0.06704563333333624;61;0.75;violin
104.454824;0.06704563333333624;60;0.75;violin
104.591188;0.06704563333333624;58;0.75;violin
104.727552;0.2715916333333297;66;0.75;violin
104.727552;0.2715916333333297;73;0.75;violin
104.727552;0.2715916333333297;82;0.75;violin
105.00028;0.06704563333333624;80;0.75;violin
105.136644;0.06704563333333624;78;0.75;violin
105.273008;0.06704563333333624;77;0.75;violin
105.409372;0.06704563333333624;75;0.75;violin
105.545736;0.2715916333333297;65;0.75;violin
105.545736;0.2715916333333297;74;0.75;violin
105.545736;0.2715916333333297;83;0.75;violin
105.818464;0.06704563333333624;82;0.75;violin
105.954828;0.06704563333333624;80;0.75;violin
106.091192;0.06704563333333624;78;0.75;violin
106.227556;0.06704563333333624;77;0.75;violin
106.36392000000001;0.2715916333333297;63;0.75;violin
106.36392000000001;0.2715916333333297;70;0.75;violin
106.36392000000001;0.2715916333333297;78;0.75;violin
106.63664800000001;0.06704563333333624;77;0.75;violin
106.77301200000001;0.06704563333333624;75;0.75;violin
106.90937600000001;0.06704563333333624;73;0.75;violin
107.04574000000001;0.06704563333333624;71;0.75;violin
107.18210400000001;0.2715916333333297;61;0.75;violin
107.18210400000001;0.2715916333333297;70;0.75;violin
107.18210400000001;0.2715916333333297;80;0.75;violin
107.45483200000001;0.06704563333332203;78;0.75;violin
107.59119600000001;0.06704563333332203;76;0.75;violin
107.72756000000001;0.06704563333332203;75;0.75;violin
107.86392400000001;0.06704563333332203;73;0.75;violin
108.00028800000001;0.2715916333333297;59;0.75;violin
108.00028800000001;0.2715916333333297;66;0.75;violin
108.00028800000001;0.2715916333333297;75;0.75;violin
108.00028800000001;0.2715916333333297;87;0.75;violin
108.27301600000001;0.06704563333332203;85;0.75;violin
108.40938000000001;0.06704563333332203;83;0.75;violin
108.545744;0.06704563333333624;82;0.75;violin
108.682108;0.06704563333333624;80;0.75;violin
108.818472;0.06704563333333624;78;0.75;violin
108.954836;0.06704563333333624;76;0.75;violin
109.0912;0.06704563333333624;75;0.75;violin
109.227564;0.06704563333333624;73;0.75;violin
109.363928;0.06704563333333624;71;0.75;violin
109.500292;0.06704563333333624;70;0.75;violin
109.636656;0.2715916333333439;56;0.75;violin
109.636656;0.2715916333333439;63;0.75;violin
109.636656;0.2715916333333439;71;0.75;violin
109.636656;0.2715916333333439;83;0.75;violin
109.909384;0.06704563333333624;82;0.75;violin
110.045748;0.06704563333333624;80;0.75;violin
110.182112;0.06704563333333624;78;0.75;violin
110.318476;0.06704563333333624;76;0.75;violin
110.45484;0.06704563333333624;75;0.75;violin
110.591204;0.06704563333333624;73;0.75;violin
110.727568;0.06704563333333624;71;0.75;violin
110.863932;0.06704563333333624;69;0.75;violin
111.000296;0.06704563333333624;68;0.75;violin
111.13666;0.06704563333333624;66;0.75;violin
111.273024;0.032954633333332595;64;0.3828125;violin
111.30711500000001;0.032954633333332595;66;0.3828125;violin
111.341206;0.032954633333346806;64;0.3828125;violin
111.375297;0.032954633333332595;66;0.3828125;violin
111.409388;0.13522763333332932;63;0.3828125;violin
111.54575200000001;0.13522763333332932;64;0.3828125;violin
111.68211600000001;0.06704563333333624;83;0.3828125;violin
111.81848000000001;0.06704563333333624;80;0.3828125;violin
111.95484400000001;0.06704563333333624;88;0.3828125;violin
112.09120800000001;0.032954633333332595;66;0.3828125;violin
112.12529900000001;0.032954633333332595;68;0.3828125;violin
112.15939;0.032954633333332595;66;0.3828125;violin
112.193481;0.032954633333332595;68;0.3828125;violin
112.22757200000001;0.13522763333332932;65;0.3828125;violin
112.36393600000001;0.13522763333332932;66;0.3828125;violin
112.50030000000001;0.06704563333333624;81;0.3828125;violin
112.63666400000001;0.06704563333333624;78;0.3828125;violin
112.77302800000001;0.06704563333332203;87;0.3828125;violin
112.90939200000001;0.06704563333332203;63;0.3828125;violin
113.04575600000001;0.06704563333332203;81;0.3828125;violin
113.18212000000001;0.06704563333332203;78;0.3828125;violin
113.31848400000001;0.06704563333332203;75;0.3828125;violin
113.45484800000001;0.06704563333332203;69;0.3828125;violin
113.59121200000001;0.06704563333332203;66;0.3828125;violin
113.72757600000001;0.13522763333332932;63;0.3828125;violin
113.86394;0.13522763333334353;64;0.3828125;violin
114.000304;0.06704563333333624;80;0.3828125;violin
114.136668;0.06704563333333624;66;0.3828125;violin
114.273032;0.06704563333333624;64;0.3828125;violin
114.409396;0.06704563333333624;63;0.3828125;violin
114.54576;0.032954633333332595;61;0.3828125;violin
114.579851;0.032954633333332595;63;0.3828125;violin
114.61394200000001;0.032954633333332595;61;0.3828125;violin
114.64803300000001;0.032954633333332595;63;0.3828125;violin
114.682124;0.13522763333334353;60;0.3828125;violin
114.818488;0.13522763333334353;61;0.3828125;violin
114.954852;0.06704563333333624;80;0.3828125;violin
115.091216;0.06704563333333624;76;0.3828125;violin
115.22758;0.06704563333333624;85;0.3828125;violin
115.363944;0.032954633333332595;63;0.3828125;violin
115.39803500000001;0.032954633333332595;64;0.3828125;violin
115.43212600000001;0.032954633333332595;63;0.3828125;violin
115.466217;0.032954633333332595;64;0.3828125;violin
115.500308;0.13522763333332932;62;0.3828125;violin
115.636672;0.13522763333332932;63;0.3828125;violin
115.773036;0.06704563333333624;81;0.3828125;violin
115.9094;0.06704563333333624;78;0.3828125;violin
116.045764;0.06704563333333624;87;0.3828125;violin
116.182128;0.06704563333333624;60;0.3828125;violin
116.318492;0.06704563333333624;75;0.3828125;violin
116.454856;0.06704563333333624;72;0.3828125;violin
116.59122;0.06704563333333624;69;0.3828125;violin
116.72758400000001;0.06704563333333624;66;0.3828125;violin
116.86394800000001;0.06704563333333624;63;0.3828125;violin
117.00031200000001;0.13522763333332932;60;0.3828125;violin
117.13667600000001;0.13522763333332932;61;0.3828125;violin
117.27304000000001;0.06704563333333624;76;0.3828125;violin
117.40940400000001;0.06704563333333624;62;0.3828125;violin
117.54576800000001;0.06704563333333624;61;0.3828125;violin
117.68213200000001;0.06704563333333624;59;0.3828125;violin
117.81849600000001;0.2715916333333297;57;0.75;violin
117.81849600000001;0.2715916333333297;64;0.75;violin
117.81849600000001;0.2715916333333297;73;0.75;violin
117.81849600000001;0.2715916333333297;85;0.75;violin
118.09122400000001;0.06704563333332203;83;0.75;violin
118.22758800000001;0.06704563333332203;81;0.75;violin
118.36395200000001;0.06704563333332203;80;0.75;violin
118.50031600000001;0.06704563333332203;78;0.75;violin
118.63668000000001;0.06704563333332203;76;0.75;violin
118.77304400000001;0.06704563333332203;74;0.75;violin
118.90940800000001;0.06704563333332203;71;0.75;violin
119.04577200000001;0.06704563333332203;69;0.75;violin
119.182136;0.06704563333333624;68;0.75;violin
119.3185;0.06704563333333624;66;0.75;violin
119.454864;0.2715916333333439;65;0.75;violin
119.454864;0.2715916333333439;74;0.75;violin
119.454864;0.2715916333333439;86;0.75;violin
119.727592;0.06704563333333624;85;0.75;violin
119.863956;0.06704563333333624;83;0.75;violin
120.00032;0.06704563333333624;81;0.75;violin
120.136684;0.06704563333333624;80;0.75;violin
120.273048;0.06704563333333624;78;0.75;violin
120.409412;0.06704563333333624;73;0.75;violin
120.545776;0.06704563333333624;71;0.75;violin
120.68214;0.06704563333333624;69;0.75;violin
120.818504;0.06704563333333624;68;0.75;violin
120.954868;0.06704563333333624;66;0.75;violin
121.091232;0.2715916333333297;62;0.75;violin
121.091232;0.2715916333333297;69;0.75;violin
121.091232;0.2715916333333297;78;0.75;violin
121.36396;0.06704563333333624;76;0.75;violin
121.500324;0.06704563333333624;74;0.75;violin
121.636688;0.06704563333333624;73;0.75;violin
121.773052;0.06704563333333624;71;0.75;violin
121.90941600000001;0.2715916333333297;61;0.75;violin
121.90941600000001;0.2715916333333297;70;0.75;violin
121.90941600000001;0.2715916333333297;79;0.75;violin
122.18214400000001;0.06704563333333624;78;0.75;violin
122.31850800000001;0.06704563333333624;76;0.75;violin
122.45487200000001;0.06704563333333624;74;0.75;violin
122.59123600000001;0.06704563333333624;73;0.75;violin
122.72760000000001;0.2715916333333297;59;0.75;violin
122.72760000000001;0.2715916333333297;66;0.75;violin
122.72760000000001;0.2715916333333297;74;0.75;violin
123.00032800000001;0.06704563333333624;73;0.75;violin
123.13669200000001;0.06704563333333624;71;0.75;violin
123.27305600000001;0.06704563333333624;69;0.75;violin
123.40942000000001;0.06704563333332203;67;0.75;violin
123.54578400000001;0.2715916333333297;57;0.75;violin
123.54578400000001;0.2715916333333297;66;0.75;violin
123.54578400000001;0.2715916333333297;76;0.75;violin
123.81851200000001;0.06704563333332203;74;0.75;violin
123.95487600000001;0.06704563333332203;72;0.75;violin
124.09124000000001;0.06704563333332203;71;0.75;violin
124.22760400000001;0.06704563333332203;69;0.75;violin
124.36396800000001;0.032954633333332595;67;0.3828125;violin
124.398059;0.032954633333332595;69;0.3828125;violin
124.43215000000001;0.032954633333332595;67;0.3828125;violin
124.46624100000001;0.032954633333332595;69;0.3828125;violin
124.500332;0.13522763333334353;66;0.3828125;violin
124.636696;0.13522763333334353;67;0.3828125;violin
124.77306;0.06704563333333624;74;0.3828125;violin
124.909424;0.06704563333333624;71;0.3828125;violin
125.045788;0.06704563333333624;67;0.3828125;violin
125.182152;0.032954633333332595;65;0.3828125;violin
125.216243;0.032954633333332595;67;0.3828125;violin
125.25033400000001;0.032954633333332595;65;0.3828125;violin
125.28442500000001;0.032954633333332595;67;0.3828125;violin
125.318516;0.13522763333334353;64;0.3828125;violin
125.45488;0.13522763333334353;65;0.3828125;violin
125.591244;0.06704563333333624;74;0.3828125;violin
125.727608;0.06704563333333624;71;0.3828125;violin
125.863972;0.06704563333333624;65;0.3828125;violin
126.000336;0.13522763333332932;64;0.3828125;violin
126.1367;0.13522763333332932;62;0.3828125;violin
126.273064;0.13522763333332932;64;0.3828125;violin
126.409428;0.06704563333333624;72;0.3828125;violin
126.545792;0.06704563333333624;67;0.3828125;violin
126.682156;0.06704563333333624;64;0.3828125;violin
126.81852;0.13522763333332932;63;0.3828125;violin
126.954884;0.13522763333332932;62;0.3828125;violin
127.09124800000001;0.13522763333332932;63;0.3828125;violin
127.22761200000001;0.06704563333333624;73;0.3828125;violin
127.36397600000001;0.06704563333333624;67;0.3828125;violin
127.50034000000001;0.06704563333333624;63;0.3828125;violin
127.63670400000001;0.032954633333332595;62;0.3828125;violin
127.67079500000001;0.032954633333332595;64;0.3828125;violin
127.704886;0.032954633333332595;62;0.3828125;violin
127.738977;0.032954633333332595;64;0.3828125;violin
127.77306800000001;0.13522763333332932;61;0.3828125;violin
127.90943200000001;0.13522763333332932;62;0.3828125;violin
128.045796;0.06704563333335045;74;0.3828125;violin
128.18216;0.06704563333332203;69;0.3828125;violin
128.318524;0.06704563333335045;62;0.3828125;violin
128.454888;0.032954633333332595;61;0.3828125;violin
128.488979;0.032954633333332595;62;0.3828125;violin
128.52307000000002;0.032954633333332595;61;0.3828125;violin
128.557161;0.032954633333332595;62;0.3828125;violin
128.591252;0.13522763333332932;60;0.3828125;violin
128.727616;0.13522763333332932;61;0.3828125;violin
128.86398;0.06704563333335045;76;0.3828125;violin
129.000344;0.06704563333332203;67;0.3828125;violin
129.136708;0.06704563333335045;61;0.3828125;violin
129.273072;0.06704563333332203;60;0.3828125;violin
129.409436;0.06704563333335045;78;0.3828125;violin
129.5458;0.06704563333332203;75;0.3828125;violin
129.682164;0.06704563333335045;60;0.3828125;violin
129.81852800000001;0.06704563333332203;57;0.3828125;violin
129.954892;0.06704563333335045;81;0.3828125;violin
130.09125600000002;0.06704563333332203;78;0.3828125;violin
130.22762;0.06704563333335045;63;0.3828125;violin
130.36398400000002;0.06704563333332203;60;0.3828125;violin
130.500348;0.06704563333335045;84;0.3828125;violin
130.63671200000002;0.06704563333332203;81;0.3828125;violin
130.773076;0.06704563333335045;66;0.3828125;violin
130.90944000000002;0.06704563333332203;63;0.3828125;violin
131.045804;0.06704563333335045;87;0.3828125;violin
131.18216800000002;0.06704563333332203;84;0.4140625;violin
131.318532;0.06704563333332203;81;0.4453125;violin
131.45489600000002;0.06704563333332203;78;0.4765625;violin
131.59126;0.06704563333332203;75;0.515625;violin
131.72762400000002;0.06704563333332203;72;0.546875;violin
131.863988;0.06704563333332203;69;0.578125;violin
132.00035200000002;0.06704563333332203;66;0.609375;violin
132.136716;0.06704563333332203;63;0.6484375;violin
132.27308000000002;0.06704563333332203;60;0.6796875;violin
132.409444;0.06704563333332203;57;0.7109375;violin
132.545808;0.06363653333335151;55;0.75;violin
132.545808;0.06363653333335151;62;0.75;violin
132.545808;0.06363653333335151;70;0.75;violin
132.545808;0.06363653333335151;79;0.75;violin
132.6105809;0.06363653333335151;81;0.75;violin
132.6753538;0.2715916333333439;82;0.75;violin
132.818536;0.06704563333335045;81;0.75;violin
132.9549;0.06704563333332203;79;0.75;violin
133.091264;0.06704563333335045;77;0.75;violin
133.227628;0.06704563333332203;75;0.75;violin
133.363992;0.06704563333335045;74;0.75;violin
133.500356;0.06704563333332203;72;0.75;violin
133.63672;0.06704563333335045;70;0.75;violin
133.773084;0.06704563333332203;69;0.75;violin
133.909448;0.06704563333335045;67;0.75;violin
134.045812;0.06704563333332203;66;0.75;violin
134.182176;0.13522763333332932;67;0.75;violin
134.454904;0.06704563333335045;55;0.75;violin
134.591268;0.06704563333332203;57;0.75;violin
134.727632;0.06704563333335045;58;0.75;violin
134.86399600000001;0.06704563333332203;60;0.75;violin
135.00036;0.032954633333332595;62;0.75;violin
135.03445100000002;0.032954633333332595;63;0.75;violin
135.068542;0.032954633333332595;62;0.75;violin
135.102633;0.032954633333332595;63;0.75;violin
135.13672400000002;0.13522763333332932;61;0.75;violin
135.273088;0.13522763333332932;62;0.75;violin
135.40945200000002;0.06704563333332203;60;0.75;violin
135.545816;0.06704563333335045;58;0.75;violin
135.68218000000002;0.06704563333332203;57;0.75;violin
135.818544;0.06363653333335151;55;0.75;violin
135.818544;0.06363653333335151;62;0.75;violin
135.818544;0.06363653333335151;70;0.75;violin
135.818544;0.06363653333335151;79;0.75;violin
135.8833169;0.06363653333332309;81;0.75;violin
135.94808980000002;0.2715916333333155;82;0.75;violin
136.091272;0.06704563333335045;81;0.75;violin
136.22763600000002;0.06704563333332203;79;0.75;violin
136.364;0.06704563333335045;77;0.75;violin
136.50036400000002;0.06704563333332203;75;0.75;violin
136.636728;0.06704563333332203;74;0.75;violin
136.77309200000002;0.06704563333332203;72;0.75;violin
136.909456;0.06704563333332203;70;0.75;violin
137.04582000000002;0.06704563333332203;69;0.75;violin
137.182184;0.06704563333332203;67;0.75;violin
137.31854800000002;0.06704563333332203;66;0.75;violin
137.454912;0.13522763333332932;67;0.75;violin
137.72764;0.06704563333332203;55;0.75;violin
137.864004;0.06704563333335045;57;0.75;violin
138.000368;0.06704563333332203;58;0.75;violin
138.136732;0.06704563333335045;60;0.75;violin
138.273096;0.032954633333332595;62;0.75;violin
138.307187;0.032954633333332595;63;0.75;violin
138.34127800000002;0.032954633333332595;62;0.75;violin
138.375369;0.032954633333332595;63;0.75;violin
138.40946;0.13522763333335774;61;0.75;violin
138.545824;0.13522763333332932;62;0.75;violin
138.682188;0.06704563333335045;60;0.75;violin
138.818552;0.06704563333332203;58;0.75;violin
138.954916;0.06704563333335045;57;0.75;violin
139.09128;0.026136433333334708;55;0.75;violin
139.1185528;0.026136433333334708;67;0.75;violin
139.1458256;0.026136433333334708;69;0.75;violin
139.17309840000001;0.026136433333334708;67;0.75;violin
139.2003712;0.026136433333334708;69;0.75;violin
139.227644;0.13522763333332932;66;0.75;violin
139.364008;0.13522763333332932;67;0.75;violin
139.500372;0.06704563333335045;65;0.75;violin
139.636736;0.06704563333332203;63;0.75;violin
139.7731;0.06704563333335045;62;0.75;violin
139.909464;0.026136433333334708;60;0.75;violin
139.9367368;0.026136433333334708;72;0.75;violin
139.9640096;0.026136433333334708;74;0.75;violin
139.99128240000002;0.026136433333334708;72;0.75;violin
140.0185552;0.026136433333334708;74;0.75;violin
140.045828;0.13522763333332932;71;0.75;violin
140.18219200000001;0.13522763333332932;72;0.75;violin
140.318556;0.06704563333335045;70;0.75;violin
140.45492000000002;0.06704563333332203;69;0.75;violin
140.591284;0.06704563333335045;67;0.75;violin
140.72764800000002;0.026136433333334708;65;0.75;violin
140.7549208;0.026136433333334708;77;0.75;violin
140.7821936;0.026136433333334708;79;0.75;violin
140.80946640000002;0.026136433333334708;77;0.75;violin
140.8367392;0.026136433333334708;79;0.75;violin
140.864012;0.13522763333332932;76;0.75;violin
141.00037600000002;0.13522763333332932;77;0.75;violin
141.13674;0.06704563333335045;75;0.75;violin
141.27310400000002;0.06704563333332203;74;0.75;violin
141.409468;0.06704563333335045;72;0.75;violin
141.54583200000002;0.026136433333334708;70;0.75;violin
141.5731048;0.026136433333334708;82;0.75;violin
141.6003776;0.026136433333334708;84;0.75;violin
141.62765040000002;0.026136433333306286;82;0.75;violin
141.6549232;0.026136433333334708;84;0.75;violin
141.682196;0.13522763333332932;81;0.75;violin
141.81856000000002;0.13522763333332932;82;0.75;violin
141.954924;0.06704563333332203;81;0.75;violin
142.09128800000002;0.06704563333332203;80;0.75;violin
142.227652;0.06704563333332203;79;0.75;violin
142.36401600000002;0.13522763333332932;78;0.75;violin
142.50038;0.13522763333332932;66;0.75;violin
142.63674400000002;0.13522763333332932;77;0.75;violin
142.773108;0.13522763333332932;65;0.75;violin
142.90947200000002;0.13522763333332932;76;0.75;violin
143.045836;0.13522763333332932;64;0.75;violin
143.1822;0.13522763333335774;75;0.75;violin
143.318564;0.13522763333332932;63;0.75;violin
143.454928;0.13522763333335774;74;0.75;violin
143.591292;0.13522763333332932;62;0.75;violin
143.727656;0.13522763333335774;73;0.75;violin
143.86402;0.13522763333332932;61;0.75;violin
144.000384;0.13522763333335774;72;0.75;violin
144.136748;0.13522763333332932;60;0.75;violin
144.273112;0.13522763333335774;71;0.75;violin
144.409476;0.13522763333332932;59;0.75;violin
144.54584;0.13522763333332932;70;0.75;violin
144.682204;0.13522763333332932;58;0.75;violin
144.818568;0.13522763333332932;69;0.75;violin
144.954932;0.13522763333332932;57;0.75;violin
145.091296;0.06704563333335045;87;0.75;violin
145.22766000000001;0.06704563333332203;84;0.75;violin
145.364024;0.06704563333335045;81;0.75;violin
145.50038800000002;0.06704563333332203;78;0.75;violin
145.636752;0.06704563333335045;79;0.75;violin
145.704934;0.06704563333332203;81;0.75;violin
145.77311600000002;0.06704563333332203;79;0.75;violin
145.841298;0.06704563333335045;81;0.75;violin
145.90948;0.13522763333332932;81;0.75;violin
146.04584400000002;0.06704563333332203;87;0.75;violin
146.182208;0.06704563333335045;86;0.75;violin
146.31857200000002;0.06704563333332203;78;0.75;violin
146.454936;0.06704563333335045;79;0.75;violin
146.523118;0.06704563333332203;81;0.75;violin
146.59130000000002;0.06704563333332203;79;0.75;violin
146.659482;0.06704563333335045;81;0.75;violin
146.727664;0.13522763333332932;81;0.75;violin
146.86402800000002;0.06704563333332203;87;0.75;violin
147.000392;0.06704563333335045;86;0.75;violin
147.13675600000002;0.06704563333332203;77;0.75;violin
147.27312;0.06704563333332203;75;0.75;violin
147.341302;0.06704563333332203;77;0.75;violin
147.40948400000002;0.06704563333332203;75;0.75;violin
147.477666;0.06704563333335045;77;0.75;violin
147.545848;0.13522763333332932;77;0.75;violin
147.68221200000002;0.06704563333332203;84;0.75;violin
147.818576;0.06704563333332203;82;0.75;violin
147.95494000000002;0.06704563333332203;74;0.75;violin
148.091304;0.06704563333332203;72;0.75;violin
148.15948600000002;0.06704563333332203;74;0.75;violin
148.22766800000002;0.06704563333332203;72;0.75;violin
148.29585;0.06704563333335045;74;0.75;violin
148.364032;0.13522763333332932;74;0.75;violin
148.500396;0.06704563333335045;81;0.75;violin
148.63676;0.06704563333332203;79;0.75;violin
148.773124;0.06704563333335045;70;0.75;violin
148.909488;0.06704563333332203;68;0.75;violin
148.97767000000002;0.06704563333332203;70;0.75;violin
149.045852;0.06704563333335045;68;0.75;violin
149.114034;0.06704563333335045;70;0.75;violin
149.182216;0.13522763333332932;72;0.75;violin
149.31858;0.06704563333335045;75;0.75;violin
149.454944;0.06704563333332203;80;0.75;violin
149.591308;0.06704563333335045;84;0.75;violin
149.727672;0.06704563333332203;87;0.75;violin
149.864036;0.06704563333335045;92;0.75;violin
150.0004;0.06704563333332203;96;0.75;violin
150.136764;0.06704563333335045;99;0.75;violin
150.273128;0.06704563333332203;96;0.75;violin
150.409492;0.06704563333335045;92;0.75;violin
150.54585600000001;0.06704563333332203;67;0.75;violin
150.61403800000002;0.06704563333332203;69;0.75;violin
150.68222;0.06704563333335045;67;0.75;violin
150.750402;0.06704563333332203;69;0.75;violin
150.81858400000002;0.13522763333332932;70;0.75;violin
150.954948;0.06704563333335045;73;0.75;violin
151.09131200000002;0.06704563333332203;76;0.75;violin
151.227676;0.06704563333335045;79;0.75;violin
151.36404000000002;0.06704563333332203;82;0.75;violin
151.500404;0.06704563333335045;85;0.75;violin
151.63676800000002;0.06704563333332203;88;0.75;violin
151.773132;0.06704563333335045;91;0.75;violin
151.90949600000002;0.06704563333332203;94;0.75;violin
152.04586;0.06704563333335045;85;0.75;violin
152.18222400000002;0.13522763333332932;62;0.75;violin
152.318588;0.06704563333335045;86;0.75;violin
152.45495200000002;0.06704563333332203;85;0.75;violin
152.591316;0.06704563333332203;84;0.75;violin
152.72768000000002;0.06704563333332203;83;0.75;violin
152.864044;0.06704563333332203;82;0.75;violin
153.00040800000002;0.06704563333332203;81;0.75;violin
153.136772;0.06704563333332203;79;0.75;violin
153.27313600000002;0.06704563333332203;78;0.75;violin
153.4095;0.06704563333332203;74;0.75;violin
153.545864;0.06704563333335045;72;0.75;violin
153.682228;0.06704563333332203;69;0.75;violin
153.818592;0.032954633333332595;67;0.3828125;violin
153.852683;0.032954633333332595;69;0.3828125;violin
153.886774;0.032954633333332595;67;0.3828125;violin
153.92086500000002;0.032954633333332595;69;0.3828125;violin
153.954956;0.13522763333332932;66;0.3828125;violin
154.09132;0.13522763333335774;67;0.3828125;violin
154.227684;0.06704563333332203;66;0.3828125;violin
154.364048;0.06704563333335045;65;0.3828125;violin
154.500412;0.06704563333332203;64;0.3828125;violin
154.636776;0.032954633333332595;63;0.3828125;violin
154.67086700000002;0.032954633333332595;65;0.3828125;violin
154.704958;0.032954633333332595;63;0.3828125;violin
154.73904900000002;0.032954633333332595;65;0.3828125;violin
154.77314;0.13522763333332932;62;0.3828125;violin
154.909504;0.13522763333335774;63;0.3828125;violin
155.045868;0.06704563333332203;62;0.3828125;violin
155.182232;0.06704563333335045;60;0.3828125;violin
155.318596;0.06704563333332203;58;0.3828125;violin
155.45496;0.032954633333332595;57;0.3828125;violin
155.48905100000002;0.032954633333332595;58;0.3828125;violin
155.523142;0.032954633333332595;57;0.3828125;violin
155.557233;0.032954633333332595;58;0.3828125;violin
155.59132400000001;0.13522763333332932;55;0.3828125;violin
155.727688;0.13522763333332932;57;0.3828125;violin
155.86405200000002;0.06704563333332203;58;0.3828125;violin
156.000416;0.06704563333335045;60;0.3828125;violin
156.13678000000002;0.06704563333332203;61;0.3828125;violin
156.273144;0.032954633333332595;62;0.3828125;violin
156.30723500000002;0.032954633333332595;63;0.3828125;violin
156.341326;0.032954633333332595;62;0.3828125;violin
156.375417;0.032954633333332595;63;0.3828125;violin
156.40950800000002;0.13522763333332932;61;0.3828125;violin
156.545872;0.13522763333332932;62;0.3828125;violin
156.68223600000002;0.06704563333332203;61;0.3828125;violin
156.8186;0.06704563333335045;60;0.3828125;violin
156.95496400000002;0.06704563333332203;57;0.3828125;violin
157.091328;0.026136433333334708;58;0.3828125;violin
157.091328;0.026136433333334708;62;0.3828125;violin
157.1186008;0.026136433333334708;79;0.3828125;violin
157.14587360000002;0.026136433333334708;81;0.3828125;violin
157.1731464;0.026136433333334708;79;0.3828125;violin
157.2004192;0.026136433333334708;81;0.3828125;violin
157.22769200000002;0.13522763333332932;78;0.3828125;violin
157.364056;0.13522763333332932;79;0.390625;violin
157.50042000000002;0.06704563333332203;78;0.3984375;violin
157.636784;0.06704563333335045;77;0.40625;violin
157.77314800000002;0.06704563333332203;76;0.4140625;violin
157.909512;0.032954633333332595;75;0.421875;violin
157.943603;0.032954633333332595;77;0.4296875;violin
157.977694;0.032954633333332595;75;0.4296875;violin
158.011785;0.032954633333332595;77;0.4296875;violin
158.04587600000002;0.13522763333332932;74;0.4296875;violin
158.18224;0.13522763333332932;75;0.4375;violin
158.31860400000002;0.06704563333332203;74;0.4453125;violin
158.454968;0.06704563333332203;72;0.453125;violin
158.59133200000002;0.06704563333332203;70;0.4609375;violin
158.727696;0.032954633333332595;69;0.46875;violin
158.761787;0.032954633333332595;70;0.46875;violin
158.79587800000002;0.032954633333332595;69;0.4765625;violin
158.829969;0.032954633333332595;70;0.4765625;violin
158.86406;0.13522763333335774;67;0.4765625;violin
159.000424;0.13522763333332932;69;0.484375;violin
159.136788;0.06704563333335045;70;0.4921875;violin
159.273152;0.06704563333332203;72;0.5;violin
159.409516;0.06704563333335045;73;0.5078125;violin
159.54588;0.032954633333332595;74;0.515625;violin
159.579971;0.032954633333332595;75;0.515625;violin
159.61406200000002;0.032954633333332595;74;0.5234375;violin
159.648153;0.032954633333332595;75;0.5234375;violin
159.682244;0.13522763333335774;73;0.5234375;violin
159.818608;0.13522763333332932;74;0.53125;violin
159.954972;0.06704563333335045;73;0.5390625;violin
160.091336;0.06704563333332203;72;0.546875;violin
160.2277;0.06704563333335045;69;0.5546875;violin
160.364064;0.13522763333332932;55;0.5625;violin
160.364064;0.13522763333332932;62;0.5625;violin
160.364064;0.13522763333332932;70;0.5625;violin
160.364064;0.13522763333332932;79;0.5625;violin
160.500428;0.13522763333332932;78;0.5703125;violin
160.636792;0.13522763333332932;79;0.578125;violin
160.773156;0.06704563333335045;62;0.5859375;violin
160.773156;0.06704563333335045;74;0.5859375;violin
160.773156;0.06704563333335045;82;0.5859375;violin
160.90952000000001;0.06704563333332203;62;0.59375;violin
160.90952000000001;0.06704563333332203;72;0.59375;violin
160.90952000000001;0.06704563333332203;81;0.59375;violin
161.045884;0.06704563333335045;62;0.6015625;violin
161.045884;0.06704563333335045;69;0.6015625;violin
161.045884;0.06704563333335045;78;0.6015625;violin
161.18224800000002;0.032954633333332595;67;0.609375;violin
161.216339;0.032954633333332595;69;0.609375;violin
161.25043000000002;0.032954633333332595;67;0.609375;violin
161.284521;0.032954633333332595;69;0.6171875;violin
161.318612;0.13522763333332932;66;0.6171875;violin
161.45497600000002;0.13522763333332932;67;0.625;violin
161.59134;0.06704563333335045;62;0.6328125;violin
161.72770400000002;0.06704563333332203;60;0.640625;violin
161.864068;0.06704563333335045;57;0.6484375;violin
162.00043200000002;0.13522763333332932;55;0.65625;violin
162.00043200000002;0.13522763333332932;62;0.65625;violin
162.00043200000002;0.13522763333332932;70;0.65625;violin
162.00043200000002;0.13522763333332932;79;0.65625;violin
162.136796;0.13522763333332932;78;0.6640625;violin
162.27316000000002;0.13522763333332932;79;0.671875;violin
162.409524;0.06704563333335045;62;0.6796875;violin
162.409524;0.06704563333335045;74;0.6796875;violin
162.409524;0.06704563333335045;82;0.6796875;violin
162.54588800000002;0.06704563333332203;62;0.6875;violin
162.54588800000002;0.06704563333332203;72;0.6875;violin
162.54588800000002;0.06704563333332203;81;0.6875;violin
162.682252;0.06704563333335045;62;0.6953125;violin
162.682252;0.06704563333335045;69;0.6953125;violin
162.682252;0.06704563333335045;78;0.6953125;violin
162.81861600000002;0.032954633333332595;67;0.703125;violin
162.852707;0.032954633333332595;69;0.703125;violin
162.886798;0.032954633333332595;67;0.703125;violin
162.92088900000002;0.032954633333332595;69;0.703125;violin
162.95498;0.13522763333332932;66;0.7109375;violin
163.09134400000002;0.13522763333332932;67;0.71875;violin
163.227708;0.06704563333332203;62;0.7265625;violin
163.36407200000002;0.06704563333332203;60;0.734375;violin
163.500436;0.06704563333332203;57;0.7421875;violin
163.63680000000002;0.13522763333332932;55;0.75;violin
163.63680000000002;0.13522763333332932;62;0.75;violin
163.63680000000002;0.13522763333332932;70;0.75;violin
163.63680000000002;0.13522763333332932;79;0.75;violin
163.773164;0.13522763333332932;78;0.75;violin
163.90952800000002;0.13522763333332932;79;0.75;violin
164.045892;0.06704563333332203;62;0.75;violin
164.045892;0.06704563333332203;74;0.75;violin
164.045892;0.06704563333332203;82;0.75;violin
164.182256;0.06704563333335045;62;0.75;violin
164.182256;0.06704563333335045;72;0.75;violin
164.182256;0.06704563333335045;81;0.75;violin
164.31862;0.06704563333332203;62;0.75;violin
164.31862;0.06704563333332203;69;0.75;violin
164.31862;0.06704563333332203;78;0.75;violin
164.454984;0.13522763333335774;55;0.75;violin
164.454984;0.13522763333335774;62;0.75;violin
164.454984;0.13522763333335774;70;0.75;violin
164.454984;0.13522763333335774;79;0.75;violin
164.591348;0.13522763333332932;78;0.75;violin
164.727712;0.13522763333335774;79;0.75;violin
164.864076;0.06704563333332203;62;0.75;violin
164.864076;0.06704563333332203;74;0.75;violin
164.864076;0.06704563333332203;82;0.75;violin
165.00044;0.06704563333335045;62;0.75;violin
165.00044;0.06704563333335045;72;0.75;violin
165.00044;0.06704563333335045;81;0.75;violin
165.136804;0.06704563333332203;62;0.75;violin
165.136804;0.06704563333332203;69;0.75;violin
165.136804;0.06704563333332203;78;0.75;violin
165.273168;0.8170476333333454;55;0.75;violin
165.273168;0.8170476333333454;62;0.75;violin
165.273168;0.8170476333333454;70;0.75;violin
165.273168;0.8170476333333454;79;0.75;violin
