start;duration;pitch;velocity;instrument
0.0;0.9979166666666667;64;0.625;violin
0.0;0.9979166666666667;72;0.625;violin
0.0;0.9979166666666667;79;0.625;violin
1.0;1.9979166666666668;62;0.625;violin
1.0;1.9979166666666668;71;0.625;violin
1.0;0.49791666666666656;83;0.625;violin
1.5;0.49791666666666656;81;0.625;violin
2.0;0.4979166666666668;79;0.625;violin
2.5;0.4979166666666668;77;0.625;violin
3.0;1.9979166666666668;60;0.625;violin
3.0;1.9979166666666668;67;0.625;violin
3.0;0.9979166666666668;77;0.625;violin
4.0;0.9979166666666668;76;0.625;violin
5.0;0.9979166666666668;59;0.625;violin
5.0;0.9979166666666668;68;0.625;violin
5.0;0.9979166666666668;74;0.625;violin
6.0;0.9979166666666668;57;0.625;violin
6.0;0.9979166666666668;64;0.625;violin
6.0;0.9979166666666668;72;0.625;violin
7.0;1.9979166666666668;56;0.625;violin
7.0;1.9979166666666668;66;0.625;violin
7.0;0.4979166666666668;72;0.625;violin
7.5;0.24791666666666679;74;0.625;violin
7.75;0.24791666666666679;72;0.625;violin
8.0;0.4979166666666668;71;0.625;violin
8.5;0.4979166666666668;72;0.625;violin
9.0;1.9979166666666668;55;0.625;violin
9.0;1.9979166666666668;67;0.625;violin
9.0;0.9979166666666668;76;0.625;violin
10.0;0.9979166666666668;74;0.625;violin
11.0;0.9979166666666668;55;0.625;violin
11.0;0.12291666666666679;64;0.625;violin
11.0;0.9979166666666668;71;0.625;violin
11.125;0.12291666666666679;65;0.625;violin
11.25;0.12291666666666679;67;0.625;violin
11.375;0.12291666666666679;65;0.625;violin
11.5;0.12291666666666679;67;0.625;violin
11.625;0.12291666666666679;65;0.625;violin
11.75;0.24791666666666679;67;0.625;violin
12.0;0.4979166666666668;55;0.625;violin
12.0;0.4979166666666668;64;0.625;violin
12.0;0.4979166666666668;72;0.625;violin
12.0;0.4979166666666668;84;0.625;violin
12.5;0.24791666666666679;83;0.625;violin
12.75;0.24791666666666679;81;0.625;violin
13.0;0.9979166666666668;79;0.625;violin
14.0;0.9979166666666668;55;0.625;violin
14.0;0.12291666666666679;64;0.625;violin
14.0;0.9979166666666668;71;0.625;violin
14.125;0.12291666666666679;65;0.625;violin
14.25;0.12291666666666679;67;0.625;violin
14.375;0.12291666666666679;65;0.625;violin
14.5;0.12291666666666679;67;0.625;violin
14.625;0.12291666666666679;65;0.625;violin
14.75;0.24791666666666679;67;0.625;violin
15.0;0.19791666666666607;55;0.625;violin
15.0;0.19791666666666607;64;0.625;violin
15.0;0.19791666666666607;72;0.625;violin
15.0;0.19791666666666607;84;0.625;violin
15.2;0.19791666666666785;83;0.625;violin
15.4;0.19791666666666607;82;0.625;violin
15.6;0.19791666666666607;81;0.625;violin
15.799999999999999;0.19791666666666785;80;0.625;violin
16.0;0.997916666666665;79;0.625;violin
17.0;0.997916666666665;55;0.625;violin
17.0;0.12291666666666501;64;0.625;violin
17.0;0.997916666666665;71;0.625;violin
17.125;0.12291666666666501;65;0.625;violin
17.25;0.12291666666666501;67;0.625;violin
17.375;0.12291666666666501;65;0.625;violin
17.5;0.12291666666666501;67;0.625;violin
17.625;0.12291666666666501;65;0.625;violin
17.75;0.247916666666665;67;0.625;violin
18.0;0.497916666666665;56;0.625;violin
18.0;0.497916666666665;63;0.625;violin
18.0;0.497916666666665;72;0.625;violin
18.0;0.497916666666665;84;0.625;violin
18.5;0.247916666666665;82;0.625;violin
18.75;0.247916666666665;80;0.625;violin
19.0;0.497916666666665;80;0.9375;violin
19.5;0.497916666666665;79;0.625;violin
20.0;0.497916666666665;79;0.9375;violin
20.5;0.497916666666665;78;0.625;violin
21.0;1.997916666666665;55;0.625;violin
21.0;1.997916666666665;62;0.625;violin
21.0;1.997916666666665;71;0.625;violin
21.0;1.997916666666665;79;0.625;violin
24.0;0.997916666666665;63;0.625;violin
24.0;0.997916666666665;70;0.625;violin
24.0;0.997916666666665;79;0.625;violin
25.0;1.997916666666665;62;0.625;violin
25.0;1.997916666666665;70;0.625;violin
25.0;0.497916666666665;82;0.625;violin
25.5;0.497916666666665;80;0.625;violin
26.0;0.497916666666665;79;0.625;violin
26.5;0.497916666666665;77;0.625;violin
27.0;0.997916666666665;60;0.625;violin
27.0;0.997916666666665;67;0.625;violin
27.0;0.997916666666665;75;0.625;violin
28.0;1.997916666666665;58;0.625;violin
28.0;1.997916666666665;67;0.625;violin
28.0;0.497916666666665;79;0.625;violin
28.5;0.497916666666665;77;0.625;violin
29.0;0.497916666666665;75;0.625;violin
29.5;0.497916666666665;74;0.625;violin
30.0;0.497916666666665;56;0.625;violin
30.0;0.497916666666665;63;0.625;violin
30.0;0.497916666666665;72;0.625;violin
30.5;0.497916666666665;57;0.625;violin
30.5;0.497916666666665;65;0.625;violin
30.5;0.497916666666665;75;0.625;violin
31.0;0.497916666666665;58;0.625;violin
31.0;0.497916666666665;65;0.625;violin
31.0;0.497916666666665;74;0.625;violin
31.5;0.497916666666665;59;0.625;violin
31.5;0.497916666666665;67;0.625;violin
31.5;0.497916666666665;77;0.625;violin
32.0;0.49791666666666856;60;0.625;violin
32.0;0.49791666666666856;68;0.625;violin
32.0;0.49791666666666856;75;0.625;violin
32.5;0.49791666666666856;59;0.625;violin
32.5;0.49791666666666856;69;0.625;violin
32.5;0.49791666666666856;75;0.625;violin
33.0;1.9979166666666686;58;0.625;violin
33.0;1.9979166666666686;70;0.625;violin
33.0;0.9979166666666686;75;0.625;violin
34.0;0.9979166666666686;74;0.625;violin
35.0;0.9979166666666686;56;0.625;violin
35.0;0.9979166666666686;62;0.625;violin
35.0;0.12291666666666856;69;0.625;violin
35.125;0.12291666666666856;70;0.625;violin
35.25;0.12291666666666856;72;0.625;violin
35.375;0.12291666666666856;70;0.625;violin
35.5;0.12291666666666856;72;0.625;violin
35.625;0.12291666666666856;70;0.625;violin
35.75;0.24791666666666856;72;0.625;violin
36.0;0.49791666666666856;55;0.625;violin
36.0;0.49791666666666856;63;0.625;violin
36.0;0.49791666666666856;75;0.625;violin
36.5;0.24791666666666856;74;0.625;violin
36.75;0.24791666666666856;72;0.625;violin
37.0;0.9979166666666686;70;0.625;violin
38.0;0.9979166666666686;56;0.625;violin
38.0;0.9979166666666686;62;0.625;violin
38.0;0.12291666666666856;69;0.625;violin
38.125;0.12291666666666856;70;0.625;violin
38.25;0.12291666666666856;72;0.625;violin
38.375;0.12291666666666856;70;0.625;violin
38.5;0.12291666666666856;72;0.625;violin
38.625;0.12291666666666856;70;0.625;violin
38.75;0.24791666666666856;72;0.625;violin
39.0;0.1979166666666643;55;0.625;violin
39.0;0.1979166666666643;63;0.625;violin
39.0;0.1979166666666643;75;0.625;violin
39.2;0.1979166666666643;74;0.625;violin
39.4;0.1979166666666643;73;0.625;violin
39.6;0.1979166666666643;72;0.625;violin
39.8;0.1979166666666714;71;0.625;violin
40.0;0.9979166666666686;70;0.625;violin
41.0;0.9979166666666686;56;0.625;violin
41.0;0.9979166666666686;62;0.625;violin
41.0;0.12291666666666856;69;0.625;violin
41.125;0.12291666666666856;71;0.625;violin
41.25;0.12291666666666856;72;0.625;violin
41.375;0.12291666666666856;71;0.625;violin
41.5;0.12291666666666856;71;0.625;violin
41.625;0.12291666666666856;71;0.625;violin
41.75;0.24791666666666856;71;0.625;violin
42.0;0.49791666666666856;55;0.625;violin
42.0;0.49791666666666856;63;0.625;violin
42.0;0.49791666666666856;72;0.625;violin
42.5;0.24791666666666856;74;0.625;violin
42.75;0.24791666666666856;75;0.625;violin
43.0;0.49791666666666856;56;0.625;violin
43.0;0.49791666666666856;65;0.625;violin
43.0;0.49791666666666856;75;0.625;violin
43.5;0.24791666666666856;74;0.625;violin
43.75;0.24791666666666856;72;0.625;violin
44.0;0.49791666666666856;56;0.625;violin
44.0;0.49791666666666856;66;0.625;violin
44.0;0.49791666666666856;72;0.625;violin
44.5;0.24791666666666856;71;0.625;violin
44.75;0.24791666666666856;72;0.625;violin
45.0;0.49791666666666856;55;0.625;violin
45.0;0.49791666666666856;67;0.625;violin
45.0;0.49791666666666856;71;0.625;violin
45.5;0.24791666666666856;80;0.625;violin
45.75;0.24791666666666856;79;0.625;violin
46.0;0.49791666666666856;62;0.625;violin
46.0;0.49791666666666856;65;0.625;violin
46.0;0.49791666666666856;71;0.625;violin
46.5;0.24791666666666856;80;0.625;violin
46.75;0.24791666666666856;79;0.625;violin
47.0;0.49791666666666856;63;0.625;violin
47.0;0.49791666666666856;67;0.625;violin
47.0;0.49791666666666856;72;0.625;violin
47.5;0.24791666666666856;79;0.625;violin
47.75;0.24791666666666856;84;0.625;violin
48.0;0.49791666666666856;65;0.625;violin
48.0;0.49791666666666856;68;0.625;violin
48.0;0.49791666666666856;73;0.625;violin
48.5;0.24791666666666856;80;0.625;violin
48.75;0.24791666666666856;77;0.625;violin
49.0;0.49791666666666856;63;0.625;violin
49.0;0.49791666666666856;67;0.625;violin
49.0;0.49791666666666856;72;0.625;violin
49.5;0.24791666666666856;79;0.625;violin
49.75;0.24791666666666856;75;0.625;violin
50.0;0.49791666666666856;62;0.625;violin
50.0;0.49791666666666856;65;0.625;violin
50.0;0.49791666666666856;71;0.625;violin
50.5;0.24791666666666856;77;0.625;violin
50.75;0.24791666666666856;74;0.625;violin
51.25;0.12291666666666856;67;0.625;violin
51.5;0.12291666666666856;69;0.625;violin
51.75;0.12291666666666856;70;0.625;violin
52.0;0.12291666666666856;71;0.625;violin
52.25;0.12291666666666856;72;0.625;violin
52.5;0.12291666666666856;73;0.625;violin
52.75;0.12291666666666856;74;0.625;violin
53.0;0.12291666666666856;75;0.625;violin
53.25;0.12291666666666856;76;0.625;violin
53.5;0.12291666666666856;77;0.625;violin
53.75;0.12291666666666856;78;0.625;violin
54.0;0.9979166666666686;64;0.625;violin
54.0;0.9979166666666686;72;0.625;violin
54.0;0.9979166666666686;79;0.625;violin
55.0;1.9979166666666686;62;0.625;violin
55.0;1.9979166666666686;71;0.625;violin
55.0;0.49791666666666856;83;0.625;violin
55.5;0.49791666666666856;81;0.625;violin
56.0;0.49791666666666856;79;0.625;violin
56.5;0.49791666666666856;77;0.625;violin
57.0;1.9979166666666686;60;0.625;violin
57.0;1.9979166666666686;67;0.625;violin
57.0;0.9979166666666686;77;0.625;violin
58.0;0.9979166666666686;76;0.625;violin
59.0;0.9979166666666686;59;0.625;violin
59.0;0.9979166666666686;68;0.625;violin
59.0;0.9979166666666686;74;0.625;violin
60.0;0.9979166666666686;57;0.625;violin
60.0;0.9979166666666686;64;0.625;violin
60.0;0.9979166666666686;72;0.625;violin
61.0;1.9979166666666686;56;0.625;violin
61.0;1.9979166666666686;66;0.625;violin
61.0;0.49791666666666856;72;0.625;violin
61.5;0.24791666666666856;74;0.625;violin
61.75;0.24791666666666856;72;0.625;violin
62.0;0.49791666666666856;71;0.625;violin
62.5;0.49791666666666856;72;0.625;violin
63.0;1.9979166666666686;55;0.625;violin
63.0;1.9979166666666686;67;0.625;violin
63.0;0.9979166666666686;76;0.625;violin
64.0;0.9979166666666686;74;0.625;violin
65.0;0.9979166666666686;65;0.625;violin
65.0;0.9979166666666686;71;0.625;violin
65.0;0.9979166666666686;79;0.625;violin
66.0;0.9979166666666686;64;0.625;violin
66.0;0.9979166666666686;72;0.625;violin
66.0;0.49791666666666856;79;0.625;violin
66.5;0.24791666666666856;84;0.625;violin
66.75;0.24791666666666856;83;0.625;violin
67.0;0.9979166666666686;65;0.625;violin
67.0;0.9979166666666686;72;0.625;violin
67.0;0.49791666666666856;81;0.625;violin
67.5;0.24791666666666856;83;0.625;violin
67.75;0.24791666666666856;84;0.625;violin
68.0;0.9979166666666686;66;0.625;violin
68.0;0.9979166666666686;74;0.625;violin
68.0;0.49791666666666856;81;0.625;violin
68.5;0.24791666666666856;86;0.625;violin
68.75;0.24791666666666856;84;0.625;violin
69.0;0.9979166666666686;67;0.625;violin
69.0;0.9979166666666686;74;0.625;violin
69.0;0.49791666666666856;83;0.625;violin
69.5;0.24791666666666856;84;0.625;violin
69.75;0.24791666666666856;86;0.625;violin
70.0;0.9979166666666686;68;0.625;violin
70.0;0.9979166666666686;76;0.625;violin
70.0;0.49791666666666856;83;0.625;violin
70.5;0.24791666666666856;88;0.625;violin
70.75;0.24791666666666856;86;0.625;violin
71.0;0.9979166666666686;69;0.625;violin
71.0;0.9979166666666686;76;0.625;violin
71.0;0.49791666666666856;84;0.625;violin
71.5;0.24791666666666856;86;0.625;violin
71.75;0.24791666666666856;88;0.625;violin
72.0;0.9979166666666686;68;0.625;violin
72.0;0.9979166666666686;77;0.625;violin
72.0;0.49791666666666856;89;0.625;violin
72.5;0.49791666666666856;86;0.625;violin
73.0;0.9979166666666686;67;0.625;violin
73.0;0.9979166666666686;76;0.625;violin
73.0;0.49791666666666856;86;0.625;violin
73.5;0.49791666666666856;84;0.625;violin
74.0;0.9979166666666686;67;0.625;violin
74.0;0.9979166666666686;74;0.625;violin
74.0;0.49791666666666856;84;0.625;violin
74.5;0.49791666666666856;83;0.625;violin
75.0;0.49791666666666856;60;0.625;violin
75.0;0.49791666666666856;64;0.625;violin
75.0;0.49791666666666856;72;0.625;violin
75.5;0.24791666666666856;62;0.625;violin
75.5;0.24791666666666856;65;0.625;violin
75.5;0.24791666666666856;72;0.625;violin
75.75;0.24791666666666856;64;0.625;violin
75.75;0.24791666666666856;67;0.625;violin
75.75;0.24791666666666856;72;0.625;violin
76.0;0.49791666666666856;65;0.9375;violin
76.0;0.49791666666666856;69;0.9375;violin
76.0;0.49791666666666856;72;0.9375;violin
76.5;0.49791666666666856;63;0.9375;violin
76.5;0.49791666666666856;69;0.9375;violin
76.5;0.49791666666666856;72;0.9375;violin
77.0;0.49791666666666856;62;0.9375;violin
77.0;0.49791666666666856;66;0.9375;violin
77.0;0.49791666666666856;72;0.9375;violin
77.5;0.49791666666666856;62;0.9375;violin
77.5;0.49791666666666856;67;0.9375;violin
77.5;0.49791666666666856;70;0.9375;violin
78.0;0.49791666666666856;60;0.9375;violin
78.0;0.49791666666666856;64;0.9375;violin
78.0;0.49791666666666856;70;0.9375;violin
78.5;0.49791666666666856;60;0.9375;violin
78.5;0.49791666666666856;65;0.9375;violin
78.5;0.49791666666666856;69;0.9375;violin
79.0;0.9979166666666686;56;0.9375;violin
79.0;0.9979166666666686;65;0.9375;violin
79.0;0.9979166666666686;74;0.9375;violin
80.0;0.49791666666666856;55;0.9375;violin
80.0;0.49791666666666856;64;0.9375;violin
80.0;0.49791666666666856;72;0.9375;violin
80.5;0.49791666666666856;55;0.9375;violin
80.5;0.49791666666666856;62;0.9375;violin
80.5;0.49791666666666856;71;0.9375;violin
81.0;1.9979166666666686;60;0.625;violin
81.0;1.9979166666666686;64;0.625;violin
81.0;1.9979166666666686;72;0.625;violin
81.0;1.9979166666666686;76;0.625;violin
84.99791666666667;0.10595246041665973;84;0.625;violin
85.21220254166667;0.03452383541666393;79;0.625;violin
85.28363116666667;0.10595246041667394;76;0.625;violin
85.49791704166667;0.03452383541666393;72;0.625;violin
85.56934566666666;0.0940476895833342;79;0.625;violin
85.66458383333334;0.0940476895833342;78;0.625;violin
85.759822;0.0940476895833342;81;0.625;violin
85.85506016666668;0.09404768958332;79;0.625;violin
85.95029833333334;0.0940476895833342;77;0.625;violin
86.0455365;0.0940476895833342;74;0.625;violin
86.14077466666667;0.21309539791666054;72;0.625;violin
86.35506054166667;0.07023814791665473;67;0.625;violin
86.42648916666667;0.21309539791666054;64;0.625;violin
86.64077504166667;0.07023814791666894;60;0.625;violin
86.71220366666667;0.0940476895833342;55;0.625;violin
86.80744183333333;0.0940476895833342;59;0.625;violin
86.90268;0.0940476895833342;60;0.625;violin
86.99791816666666;0.0940476895833342;64;0.625;violin
87.09315633333334;0.0940476895833342;67;0.625;violin
87.1883945;0.0940476895833342;71;0.625;violin
87.28363266666666;0.21309539791667476;72;0.625;violin
87.49791854166666;0.07023814791666894;67;0.625;violin
87.56934716666667;0.21309539791666054;88;0.625;violin
87.78363304166668;0.07023814791665473;72;0.625;violin
87.85506166666667;0.21309539791666054;74;0.625;violin
88.06934754166667;0.07023814791666894;67;0.625;violin
88.14077616666667;0.21309539791666054;89;0.625;violin
88.35506204166667;0.07023814791666894;74;0.625;violin
88.42649066666667;0.0940476895833342;76;0.625;violin
88.52172883333334;0.0940476895833342;79;0.625;violin
88.616967;0.0940476895833342;84;0.625;violin
88.71220516666666;0.0940476895833342;88;0.625;violin
88.80744333333334;0.0940476895833342;91;0.625;violin
88.9026815;0.0940476895833342;88;0.625;violin
88.99791966666668;0.21309539791666054;86;0.625;violin
89.21220554166666;0.07023814791666894;62;0.625;violin
89.28363416666667;0.21309539791666054;59;0.625;violin
89.49792004166667;0.07023814791665473;55;0.625;violin
89.56934866666667;0.21309539791666054;83;0.625;violin
89.78363454166667;0.07023814791666894;79;0.625;violin
89.85506316666667;0.21309539791667476;77;0.625;violin
90.06934904166667;0.07023814791666894;74;0.625;violin
90.14077766666666;0.0940476895833342;79;0.625;violin
90.23601583333334;0.0940476895833342;83;0.625;violin
90.331254;0.0940476895833342;84;0.625;violin
90.42649216666666;0.0940476895833342;79;0.625;violin
90.52173033333334;0.0940476895833342;77;0.625;violin
90.6169685;0.0940476895833342;76;0.625;violin
90.71220666666667;0.21309539791666054;74;0.625;violin
90.92649254166668;0.07023814791665473;71;0.625;violin
90.99792116666667;0.21309539791666054;67;0.625;violin
91.21220704166667;0.07023814791666894;62;0.625;violin
91.28363566666667;0.0940476895833342;55;0.625;violin
91.37887383333333;0.0940476895833342;59;0.625;violin
91.474112;0.0940476895833342;62;0.625;violin
91.56935016666667;0.0940476895833342;67;0.625;violin
91.66458833333334;0.0940476895833342;71;0.625;violin
91.7598265;0.0940476895833342;72;0.625;violin
91.85506466666666;0.21309539791667476;74;0.625;violin
92.06935054166667;0.07023814791666894;67;0.625;violin
92.14077916666668;0.21309539791666054;89;0.625;violin
92.35506504166666;0.07023814791666894;74;0.625;violin
92.42649366666667;0.21309539791666054;76;0.625;violin
92.64077954166667;0.07023814791665473;67;0.625;violin
92.71220816666667;0.21309539791666054;91;0.625;violin
92.92649404166667;0.07023814791666894;76;0.625;violin
92.99792266666667;0.0940476895833342;77;0.625;violin
93.09316083333334;0.09404768958332;79;0.625;violin
93.188399;0.0940476895833342;83;0.625;violin
93.28363716666667;0.0940476895833342;86;0.625;violin
93.37887533333334;0.0940476895833342;91;0.625;violin
93.4741135;0.0940476895833342;89;0.625;violin
93.56935166666668;0.21309539791666054;88;0.625;violin
93.78363754166666;0.07023814791666894;67;0.625;violin
93.85506616666667;0.21309539791666054;64;0.625;violin
94.06935204166666;0.07023814791666894;60;0.625;violin
94.14078066666667;0.21309539791666054;88;0.625;violin
94.35506654166667;0.07023814791665473;72;0.625;violin
94.42649516666667;0.21309539791666054;71;0.625;violin
94.64078104166667;0.07023814791666894;86;0.625;violin
94.71220966666667;0.21309539791667476;84;0.625;violin
94.92649554166667;0.07023814791666894;69;0.625;violin
94.99792416666666;0.21309539791667476;68;0.625;violin
95.21221004166667;0.07023814791666894;83;0.625;violin
95.28363866666666;0.21309539791667476;81;0.625;violin
95.49792454166666;0.07023814791666894;65;0.625;violin
95.56935316666667;0.21309539791666054;64;0.625;violin
95.78363904166667;0.07023814791665473;79;0.625;violin
95.85506766666667;0.21309539791666054;77;0.625;violin
96.06935354166667;0.07023814791666894;62;0.625;violin
96.14078216666667;0.21309539791667476;61;0.625;violin
96.35506804166667;0.07023814791666894;76;0.625;violin
96.42649666666667;0.0940476895833342;62;0.625;violin
96.52173483333334;0.0940476895833342;65;0.625;violin
96.616973;0.0940476895833342;69;0.625;violin
96.71221116666666;0.0940476895833342;74;0.625;violin
96.80744933333334;0.0940476895833342;77;0.625;violin
96.9026875;0.0940476895833342;81;0.625;violin
96.99792566666667;0.21309539791666054;63;0.625;violin
97.21221154166668;0.07023814791665473;84;0.625;violin
97.28364016666667;0.21309539791666054;81;0.625;violin
97.49792604166667;0.07023814791666894;75;0.625;violin
97.56935466666667;0.0940476895833342;64;0.625;violin
97.66459283333333;0.0940476895833342;68;0.625;violin
97.759831;0.0940476895833342;71;0.625;violin
97.85506916666667;0.0940476895833342;76;0.625;violin
97.95030733333334;0.0940476895833342;80;0.625;violin
98.0455455;0.0940476895833342;83;0.625;violin
98.14078366666666;0.0940476895833342;88;0.625;violin
98.23602183333334;0.0940476895833342;84;0.625;violin
98.33126;0.0940476895833342;81;0.625;violin
98.42649816666668;0.0940476895833342;76;0.625;violin
98.52173633333334;0.0940476895833342;72;0.625;violin
98.6169745;0.0940476895833342;69;0.625;violin
98.71221266666667;0.0940476895833342;76;0.625;violin
98.80745083333333;0.0940476895833342;80;0.625;violin
98.90268900000001;0.0940476895833342;83;0.625;violin
98.99792716666667;0.0940476895833342;88;0.625;violin
99.09316533333333;0.0940476895833342;92;0.625;violin
99.1884035;0.0940476895833342;95;0.625;violin
99.28364166666667;0.0940476895833342;100;0.625;violin
99.37887983333334;0.0940476895833342;96;0.625;violin
99.474118;0.0940476895833342;93;0.625;violin
99.56935616666667;0.0940476895833342;88;0.625;violin
99.66459433333334;0.0940476895833342;84;0.625;violin
99.7598325;0.0940476895833342;81;0.625;violin
99.85507066666668;0.09404768958332;88;0.625;violin
99.95030883333334;0.0940476895833342;92;0.625;violin
100.045547;0.0940476895833342;95;0.625;violin
100.14078516666667;0.0940476895833342;100;0.625;violin
100.23602333333334;0.0940476895833342;95;0.625;violin
100.33126150000001;0.09404768958332;92;0.625;violin
100.42649966666667;0.0940476895833342;88;0.625;violin
100.52173783333333;0.0940476895833342;83;0.625;violin
100.61697600000001;0.09404768958332;80;0.625;violin
100.71221416666667;0.0940476895833342;76;0.625;violin
100.80745233333333;0.0940476895833342;71;0.625;violin
100.9026905;0.0940476895833342;68;0.625;violin
100.99792866666667;0.570238522916668;64;0.625;violin
102.71102419166665;0.0940476895833342;84;0.625;violin
102.80626235833333;0.0940476895833342;88;0.625;violin
102.90150052499999;0.0940476895833342;91;0.625;violin
102.99673869166666;0.0940476895833342;96;0.625;violin
103.09197685833333;0.0940476895833342;91;0.625;violin
103.18721502499999;0.0940476895833342;88;0.625;violin
103.28245319166666;0.21309539791666054;84;0.625;violin
103.49673906666666;0.07023814791666894;67;0.625;violin
103.56816769166666;0.21309539791666054;64;0.625;violin
103.78245356666666;0.07023814791666894;60;0.625;violin
103.85388219166666;0.0940476895833342;65;0.625;violin
103.94912035833333;0.0940476895833342;69;0.625;violin
104.04435852499999;0.0940476895833342;72;0.625;violin
104.13959669166665;0.0940476895833342;77;0.625;violin
104.23483485833333;0.0940476895833342;81;0.625;violin
104.33007302499999;0.0940476895833342;84;0.625;violin
104.42531119166667;0.21309539791666054;89;0.625;violin
104.63959706666665;0.07023814791666894;93;0.625;violin
104.71102569166666;0.21309539791666054;96;0.625;violin
104.92531156666666;0.07023814791665473;101;0.625;violin
104.99674019166666;0.0940476895833342;81;0.625;violin
105.09197835833332;0.0940476895833342;85;0.625;violin
105.187216525;0.0940476895833342;88;0.625;violin
105.28245469166666;0.0940476895833342;93;0.625;violin
105.37769285833332;0.0940476895833342;88;0.625;violin
105.472931025;0.0940476895833342;85;0.625;violin
105.56816919166666;0.21309539791667476;81;0.625;violin
105.78245506666666;0.07023814791666894;64;0.625;violin
105.85388369166665;0.21309539791667476;61;0.625;violin
106.06816956666665;0.07023814791666894;57;0.625;violin
106.13959819166666;0.0940476895833342;62;0.625;violin
106.23483635833333;0.0940476895833342;65;0.625;violin
106.33007452499999;0.0940476895833342;69;0.625;violin
106.42531269166666;0.0940476895833342;74;0.625;violin
106.52055085833332;0.0940476895833342;77;0.625;violin
106.615789025;0.0940476895833342;81;0.625;violin
106.71102719166666;0.21309539791666054;86;0.625;violin
106.92531306666666;0.07023814791666894;89;0.625;violin
106.99674169166666;0.21309539791667476;93;0.625;violin
107.21102756666666;0.07023814791666894;98;0.625;violin
107.28245619166665;0.21309539791667476;58;0.625;violin
107.49674206666666;0.07023814791666894;62;0.625;violin
107.56817069166667;0.21309539791666054;65;0.625;violin
107.78245656666665;0.07023814791666894;70;0.625;violin
107.85388519166666;0.0940476895833342;65;0.625;violin
107.94912335833332;0.0940476895833342;74;0.625;violin
108.044361525;0.09404768958332;70;0.625;violin
108.13959969166666;0.0940476895833342;77;0.625;violin
108.23483785833332;0.0940476895833342;74;0.625;violin
108.330076025;0.0940476895833342;70;0.625;violin
108.42531419166666;0.21309539791666054;69;0.625;violin
108.63960006666666;0.07023814791666894;75;0.625;violin
108.71102869166666;0.21309539791667476;72;0.625;violin
108.92531456666666;0.07023814791666894;69;0.625;violin
108.99674319166665;0.0940476895833342;66;0.625;violin
109.09198135833333;0.0940476895833342;69;0.625;violin
109.18721952499999;0.0940476895833342;66;0.625;violin
109.28245769166666;0.0940476895833342;63;0.625;violin
109.37769585833333;0.0940476895833342;60;0.625;violin
109.47293402499999;0.0940476895833342;57;0.625;violin
109.56817219166666;0.21309539791666054;55;0.625;violin
109.78245806666666;0.07023814791666894;58;0.625;violin
109.85388669166666;0.21309539791666054;62;0.625;violin
110.06817256666666;0.07023814791666894;67;0.625;violin
110.13960119166666;0.0940476895833342;62;0.625;violin
110.23483935833333;0.09404768958332;70;0.625;violin
110.330077525;0.0940476895833342;67;0.625;violin
110.42531569166665;0.0940476895833342;74;0.625;violin
110.52055385833333;0.0940476895833342;70;0.625;violin
110.61579202499999;0.0940476895833342;67;0.625;violin
110.71103019166665;0.21309539791667476;65;0.625;violin
110.92531606666665;0.07023814791666894;80;0.625;violin
110.99674469166666;0.21309539791666054;77;0.625;violin
111.21103056666666;0.07023814791665473;74;0.625;violin
111.28245919166666;0.0940476895833342;70;0.625;violin
111.37769735833332;0.0940476895833342;77;0.625;violin
111.472935525;0.0940476895833342;74;0.625;violin
111.56817369166666;0.0940476895833342;70;0.625;violin
111.66341185833332;0.0940476895833342;68;0.625;violin
111.758650025;0.0940476895833342;65;0.625;violin
111.85388819166666;0.0940476895833342;63;0.625;violin
111.94912635833333;0.0940476895833342;79;0.625;violin
112.04436452499999;0.0940476895833342;75;0.625;violin
112.13960269166665;0.0940476895833342;70;0.625;violin
112.23484085833333;0.0940476895833342;67;0.625;violin
112.33007902499999;0.0940476895833342;63;0.625;violin
112.42531719166666;0.0940476895833342;62;0.625;violin
112.52055535833333;0.0940476895833342;77;0.625;violin
112.61579352499999;0.0940476895833342;74;0.625;violin
112.71103169166666;0.0940476895833342;71;0.625;violin
112.80626985833332;0.0940476895833342;65;0.625;violin
112.901508025;0.0940476895833342;62;0.625;violin
112.99674619166666;0.0940476895833342;60;0.625;violin
113.09198435833332;0.0940476895833342;75;0.625;violin
113.187222525;0.0940476895833342;72;0.625;violin
113.28246069166666;0.0940476895833342;67;0.625;violin
113.37769885833333;0.0940476895833342;63;0.625;violin
113.472937025;0.0940476895833342;60;0.625;violin
113.56817519166665;0.0940476895833342;58;0.625;violin
113.66341335833333;0.0940476895833342;73;0.625;violin
113.75865152499999;0.0940476895833342;70;0.625;violin
113.85388969166667;0.0940476895833342;65;0.625;violin
113.94912785833333;0.0940476895833342;61;0.625;violin
114.04436602499999;0.0940476895833342;58;0.625;violin
114.13960419166666;0.21309539791666054;56;0.625;violin
114.35389006666666;0.07023814791666894;75;0.625;violin
114.42531869166666;0.21309539791666054;72;0.625;violin
114.63960456666666;0.07023814791666894;80;0.625;violin
114.71103319166666;0.0940476895833342;79;0.625;violin
114.80627135833333;0.0940476895833342;67;0.625;violin
114.901509525;0.0940476895833342;63;0.625;violin
114.99674769166666;0.0940476895833342;61;0.625;violin
115.09198585833333;0.0940476895833342;55;0.625;violin
115.18722402499999;0.0940476895833342;58;0.625;violin
115.28246219166667;0.21309539791666054;56;0.625;violin
115.49674806666665;0.07023814791666894;75;0.625;violin
115.56817669166666;0.21309539791666054;72;0.625;violin
115.78246256666665;0.07023814791666894;80;0.625;violin
115.85389119166666;0.0940476895833342;79;0.625;violin
115.94912935833332;0.0940476895833342;67;0.625;violin
116.044367525;0.09404768958332;64;0.625;violin
116.13960569166666;0.0940476895833342;60;0.625;violin
116.23484385833332;0.0940476895833342;55;0.625;violin
116.330082025;0.0940476895833342;58;0.625;violin
116.42532019166666;0.21309539791667476;56;0.625;violin
116.63960606666666;0.07023814791666894;77;0.625;violin
116.71103469166665;0.21309539791667476;72;0.625;violin
116.92532056666666;0.07023814791666894;80;0.625;violin
116.99674919166665;0.0940476895833342;78;0.625;violin
117.09198735833333;0.0940476895833342;66;0.625;violin
117.18722552499999;0.0940476895833342;63;0.625;violin
117.28246369166666;0.0940476895833342;60;0.625;violin
117.37770185833332;0.0940476895833342;56;0.625;violin
117.47294002499999;0.0940476895833342;60;0.625;violin
117.56817819166666;0.21309539791666054;61;0.625;violin
117.78246406666666;0.07023814791666894;80;0.625;violin
117.85389269166666;0.21309539791667476;77;0.625;violin
118.06817856666666;0.07023814791666894;85;0.625;violin
118.13960719166666;0.21309539791667476;60;0.625;violin
118.35389306666666;0.07023814791666894;81;0.625;violin
118.42532169166665;0.21309539791667476;77;0.625;violin
118.63960756666665;0.07023814791666894;84;0.625;violin
118.71103619166666;0.21309539791666054;58;0.625;violin
118.92532206666667;0.07023814791665473;77;0.625;violin
118.99675069166666;0.21309539791666054;73;0.625;violin
119.21103656666666;0.07023814791666894;82;0.625;violin
119.28246519166666;0.0940476895833342;81;0.625;violin
119.37770335833332;0.0940476895833342;66;0.625;violin
119.472941525;0.0940476895833342;63;0.625;violin
119.56817969166666;0.0940476895833342;60;0.625;violin
119.66341785833333;0.0940476895833342;57;0.625;violin
119.758656025;0.0940476895833342;60;0.625;violin
119.85389419166665;0.21309539791667476;58;0.625;violin
120.06818006666666;0.07023814791666894;73;0.625;violin
120.13960869166667;0.21309539791666054;70;0.625;violin
120.35389456666667;0.07023814791665473;82;0.625;violin
120.42532319166666;0.21309539791666054;65;0.625;violin
120.63960906666667;0.07023814791666894;73;0.625;violin
120.71103769166666;0.21309539791666054;71;0.625;violin
120.92532356666666;0.07023814791666894;68;0.625;violin
120.99675219166666;0.21309539791666054;66;0.625;violin
121.21103806666666;0.07023814791666894;82;0.625;violin
121.28246669166666;0.21309539791667476;78;0.625;violin
121.49675256666666;0.07023814791666894;75;0.625;violin
121.56818119166667;0.21309539791666054;62;0.625;violin
121.78246706666665;0.07023814791666894;80;0.625;violin
121.85389569166666;0.21309539791666054;77;0.625;violin
122.06818156666665;0.07023814791668315;74;0.625;violin
122.13961019166666;0.21309539791666054;63;0.625;violin
122.35389606666666;0.07023814791665473;78;0.625;violin
122.42532469166666;0.21309539791666054;75;0.625;violin
122.63961056666666;0.07023814791666894;71;0.625;violin
122.71103919166666;0.21309539791667476;58;0.625;violin
122.92532506666666;0.07023814791666894;76;0.625;violin
122.99675369166667;0.21309539791666054;73;0.625;violin
123.21103956666666;0.07023814791666894;70;0.625;violin
123.28246819166665;0.0940476895833342;59;0.625;violin
123.37770635833333;0.0940476895833342;63;0.625;violin
123.47294452499999;0.0940476895833342;66;0.625;violin
123.56818269166666;0.0940476895833342;71;0.625;violin
123.66342085833332;0.0940476895833342;75;0.625;violin
123.75865902499999;0.0940476895833342;78;0.625;violin
123.85389719166666;0.21309539791666054;83;0.625;violin
124.06818306666666;0.07023814791666894;87;0.625;violin
124.13961169166666;0.21309539791667476;90;0.625;violin
124.35389756666666;0.07023814791666894;95;0.625;violin
124.42532619166666;0.0940476895833342;57;0.625;violin
124.52056435833333;0.0940476895833342;60;0.625;violin
124.61580252499999;0.0940476895833342;63;0.625;violin
124.71104069166665;0.0940476895833342;66;0.625;violin
124.80627885833333;0.0940476895833342;69;0.625;violin
124.90151702499999;0.0940476895833342;72;0.625;violin
124.99675519166667;0.21309539791666054;75;0.625;violin
125.21104106666667;0.07023814791665473;78;0.625;violin
125.28246969166666;0.21309539791666054;81;0.625;violin
125.49675556666666;0.07023814791666894;84;0.625;violin
125.56818419166666;0.0940476895833342;58;0.625;violin
125.66342235833332;0.0940476895833342;61;0.625;violin
125.758660525;0.0940476895833342;65;0.625;violin
125.85389869166666;0.0940476895833342;70;0.625;violin
125.94913685833333;0.0940476895833342;73;0.625;violin
126.044375025;0.0940476895833342;77;0.625;violin
126.13961319166665;0.21309539791667476;82;0.625;violin
126.35389906666666;0.07023814791666894;85;0.625;violin
126.42532769166667;0.21309539791666054;89;0.625;violin
126.63961356666667;0.07023814791665473;94;0.625;violin
126.71104219166666;0.0940476895833342;55;0.625;violin
126.80628035833332;0.0940476895833342;58;0.625;violin
126.901518525;0.0940476895833342;61;0.625;violin
126.99675669166666;0.0940476895833342;64;0.625;violin
127.09199485833332;0.0940476895833342;67;0.625;violin
127.187233025;0.0940476895833342;70;0.625;violin
127.28247119166666;0.21309539791666054;73;0.625;violin
127.49675706666666;0.07023814791666894;76;0.625;violin
127.56818569166666;0.21309539791667476;79;0.625;violin
127.78247156666666;0.07023814791666894;82;0.625;violin
127.85390019166667;0.0940476895833342;56;0.3828125;violin
127.94913835833333;0.0940476895833342;60;0.3828125;violin
128.044376525;0.0940476895833342;63;0.3828125;violin
128.13961469166665;0.0940476895833342;68;0.3828125;violin
128.23485285833334;0.09404768958330578;56;0.3828125;violin
128.330091025;0.0940476895833342;67;0.3828125;violin
128.42532919166666;0.0940476895833342;65;0.3828125;violin
128.52056735833332;0.0940476895833342;61;0.3828125;violin
128.61580552499998;0.0940476895833342;65;0.3828125;violin
128.71104369166665;0.09404768958336263;70;0.3828125;violin
128.80628185833334;0.0940476895833342;58;0.3828125;violin
128.901520025;0.0940476895833342;68;0.3828125;violin
128.99675819166666;0.0940476895833342;67;0.3828125;violin
129.09199635833332;0.0940476895833342;63;0.3828125;violin
129.187234525;0.09404768958330578;67;0.3828125;violin
129.28247269166667;0.0940476895833342;72;0.3828125;violin
129.37771085833333;0.0940476895833342;60;0.3828125;violin
129.472949025;0.0940476895833342;70;0.3828125;violin
129.56818719166665;0.0940476895833342;68;0.3828125;violin
129.6634253583333;0.09404768958336263;65;0.3828125;violin
129.758663525;0.0940476895833342;68;0.3828125;violin
129.85390169166666;0.0940476895833342;73;0.3828125;violin
129.94913985833333;0.0940476895833342;61;0.3828125;violin
130.044378025;0.0940476895833342;72;0.3828125;violin
130.13961619166668;0.21309539791664633;70;0.3828125;violin
130.35390206666665;0.07023814791668315;61;0.3828125;violin
130.42533069166666;0.21309539791667476;58;0.3828125;violin
130.63961656666666;0.07023814791665473;55;0.3828125;violin
130.71104519166667;0.0940476895833342;82;0.3828125;violin
130.80628335833333;0.0940476895833342;63;0.3828125;violin
130.901521525;0.0940476895833342;67;0.3828125;violin
130.99675969166665;0.0940476895833342;75;0.3828125;violin
131.09199785833334;0.09404768958330578;63;0.3828125;violin
131.187236025;0.0940476895833342;73;0.3828125;violin
131.28247419166667;0.21309539791667476;72;0.3828125;violin
131.49676006666667;0.07023814791665473;75;0.3828125;violin
131.56818869166665;0.21309539791667476;72;0.3828125;violin
131.78247456666665;0.07023814791668315;68;0.3828125;violin
131.85390319166666;0.0940476895833342;87;0.3828125;violin
131.94914135833332;0.0940476895833342;80;0.3828125;violin
132.04437952499998;0.0940476895833342;84;0.3828125;violin
132.13961769166667;0.0940476895833342;92;0.3828125;violin
132.23485585833333;0.0940476895833342;80;0.3828125;violin
132.330094025;0.0940476895833342;90;0.3828125;violin
132.42533219166666;0.0940476895833342;89;0.3828125;violin
132.52057035833332;0.0940476895833342;73;0.3828125;violin
132.615808525;0.0940476895833342;77;0.3828125;violin
132.71104669166667;0.0940476895833342;85;0.3828125;violin
132.80628485833333;0.0940476895833342;73;0.3828125;violin
132.901523025;0.0940476895833342;84;0.3828125;violin
132.99676119166665;0.0940476895833342;82;0.3828125;violin
133.09199935833334;0.09404768958330578;78;0.3828125;violin
133.187237525;0.0940476895833342;82;0.3828125;violin
133.28247569166666;0.0940476895833342;90;0.3828125;violin
133.37771385833332;0.0940476895833342;78;0.3828125;violin
133.47295202499998;0.0940476895833342;89;0.3828125;violin
133.56819019166664;0.09404768958336263;87;0.3828125;violin
133.66342835833333;0.0940476895833342;72;0.3828125;violin
133.758666525;0.0940476895833342;75;0.3828125;violin
133.85390469166666;0.0940476895833342;84;0.3828125;violin
133.94914285833332;0.0940476895833342;72;0.3828125;violin
134.044381025;0.09404768958330578;82;0.3828125;violin
134.13961919166667;0.0940476895833342;81;0.3828125;violin
134.23485735833333;0.0940476895833342;77;0.3828125;violin
134.330095525;0.0940476895833342;81;0.3828125;violin
134.42533369166665;0.0940476895833342;89;0.3828125;violin
134.5205718583333;0.09404768958336263;77;0.3828125;violin
134.615810025;0.0940476895833342;87;0.3828125;violin
134.71104819166666;0.21309539791667476;85;0.3828125;violin
134.92533406666666;0.07023814791665473;73;0.3828125;violin
134.99676269166667;0.21309539791664633;70;0.3828125;violin
135.21104856666665;0.07023814791668315;68;0.3828125;violin
135.28247719166666;0.0940476895833342;66;0.3828125;violin
135.37771535833332;0.0940476895833342;82;0.3828125;violin
135.47295352499998;0.09404768958336263;85;0.3828125;violin
135.56819169166667;0.0940476895833342;90;0.3828125;violin
135.66342985833333;0.0940476895833342;94;0.3828125;violin
135.758668025;0.0940476895833342;66;0.3828125;violin
135.85390619166665;0.21309539791667476;64;0.3828125;violin
136.06819206666665;0.07023814791668315;73;0.3828125;violin
136.13962069166666;0.21309539791667476;70;0.3828125;violin
136.35390656666667;0.07023814791665473;64;0.3828125;violin
136.42533519166665;0.09404768958336263;63;0.3828125;violin
136.52057335833334;0.0940476895833342;85;0.3828125;violin
136.615811525;0.0940476895833342;82;0.3828125;violin
136.71104969166666;0.0940476895833342;79;0.3828125;violin
136.80628785833332;0.0940476895833342;73;0.3828125;violin
136.901526025;0.09404768958330578;70;0.3828125;violin
136.99676419166667;0.21309539791664633;68;0.3828125;violin
137.21105006666664;0.07023814791668315;83;0.3828125;violin
137.28247869166665;0.21309539791667476;80;0.3828125;violin
137.49676456666666;0.07023814791668315;87;0.3828125;violin
137.56819319166667;0.21309539791664633;66;0.3828125;violin
137.78247906666667;0.07023814791665473;83;0.3828125;violin
137.85390769166668;0.21309539791664633;78;0.3828125;violin
138.06819356666665;0.07023814791668315;87;0.3828125;violin
138.13962219166666;0.21309539791667476;64;0.3828125;violin
138.35390806666666;0.07023814791668315;83;0.3828125;violin
138.42533669166664;0.21309539791667476;80;0.3828125;violin
138.63962256666667;0.07023814791665473;88;0.3828125;violin
138.71105119166666;0.0940476895833342;63;0.3828125;violin
138.80628935833334;0.09404768958330578;90;0.3828125;violin
138.901527525;0.09404768958330578;87;0.3828125;violin
138.99676569166667;0.0940476895833342;81;0.3828125;violin
139.09200385833333;0.0940476895833342;78;0.3828125;violin
139.187242025;0.0940476895833342;75;0.3828125;violin
139.28248019166665;0.21309539791667476;61;0.3828125;violin
139.49676606666665;0.07023814791668315;80;0.3828125;violin
139.56819469166666;0.21309539791667476;76;0.3828125;violin
139.78248056666666;0.07023814791665473;85;0.3828125;violin
139.85390919166667;0.09404768958330578;59;0.3828125;violin
139.94914735833333;0.0940476895833342;86;0.3828125;violin
140.044385525;0.0940476895833342;83;0.3828125;violin
140.13962369166666;0.0940476895833342;80;0.3828125;violin
140.23486185833332;0.0940476895833342;74;0.3828125;violin
140.33010002499998;0.09404768958336263;71;0.3828125;violin
140.42533819166667;0.21309539791664633;57;0.3828125;violin
140.63962406666667;0.07023814791665473;76;0.3828125;violin
140.71105269166665;0.21309539791667476;73;0.3828125;violin
140.92533856666665;0.07023814791668315;81;0.3828125;violin
140.99676719166666;0.21309539791667476;57;0.3828125;violin
141.21105306666666;0.07023814791665473;76;0.3828125;violin
141.28248169166665;0.21309539791667476;72;0.3828125;violin
141.49676756666668;0.07023814791665473;81;0.3828125;violin
141.56819619166666;0.0940476895833342;55;0.3828125;violin
141.66343435833332;0.0940476895833342;82;0.3828125;violin
141.758672525;0.09404768958330578;79;0.3828125;violin
141.85391069166667;0.0940476895833342;76;0.3828125;violin
141.94914885833333;0.0940476895833342;72;0.3828125;violin
142.044387025;0.0940476895833342;70;0.3828125;violin
142.13962519166665;0.21309539791667476;69;0.3828125;violin
142.35391106666665;0.07023814791668315;84;0.3828125;violin
142.42533969166666;0.21309539791664633;65;0.3828125;violin
142.63962556666667;0.07023814791665473;81;0.3828125;violin
142.71105419166668;0.09404768958330578;61;0.3828125;violin
142.80629235833334;0.0940476895833342;79;0.3828125;violin
142.901530525;0.0940476895833342;76;0.3828125;violin
142.99676869166666;0.0940476895833342;73;0.3828125;violin
143.09200685833332;0.0940476895833342;69;0.3828125;violin
143.18724502499998;0.09404768958336263;67;0.3828125;violin
143.28248319166667;0.21309539791664633;65;0.3828125;violin
143.49676906666667;0.07023814791665473;81;0.3828125;violin
143.56819769166665;0.21309539791667476;62;0.3828125;violin
143.78248356666666;0.07023814791665473;77;0.3828125;violin
143.85391219166667;0.21309539791667476;60;0.3828125;violin
144.06819806666667;0.07023814791665473;75;0.3828125;violin
144.13962669166665;0.21309539791667476;57;0.3828125;violin
144.35391256666668;0.07023814791665473;72;0.3828125;violin
144.42534119166666;0.21309539791667476;58;0.3828125;violin
144.63962706666666;0.07023814791665473;74;0.3828125;violin
144.71105569166667;0.21309539791664633;59;0.3828125;violin
144.92534156666665;0.07023814791668315;77;0.3828125;violin
144.99677019166666;0.21309539791667476;60;0.3828125;violin
145.21105606666666;0.07023814791668315;76;0.3828125;violin
145.28248469166667;0.21309539791664633;61;0.3828125;violin
145.49677056666667;0.07023814791665473;79;0.3828125;violin
145.56819919166668;0.21309539791664633;62;0.3828125;violin
145.78248506666665;0.07023814791668315;77;0.3828125;violin
145.85391369166666;0.21309539791667476;64;0.3828125;violin
146.06819956666666;0.07023814791665473;82;0.3828125;violin
146.13962819166665;0.21309539791667476;65;0.3828125;violin
146.35391406666668;0.07023814791665473;81;0.3828125;violin
146.42534269166666;0.21309539791667476;64;0.3828125;violin
146.63962856666666;0.07023814791665473;81;0.3828125;violin
146.71105719166667;0.21309539791667476;63;0.3828125;violin
146.92534306666667;0.07023814791665473;81;0.3828125;violin
146.99677169166665;0.21309539791667476;64;0.3828125;violin
147.21105756666665;0.07023814791668315;79;0.3828125;violin
147.28248619166666;0.21309539791667476;61;0.3828125;violin
147.49677206666667;0.07023814791665473;79;0.3828125;violin
147.56820069166668;0.21309539791664633;62;0.3828125;violin
147.78248656666665;0.07023814791668315;77;0.3828125;violin
147.85391519166666;0.21309539791667476;59;0.3828125;violin
148.06820106666666;0.07023814791668315;77;0.3828125;violin
148.13962969166667;0.21309539791664633;60;0.3828125;violin
148.35391556666667;0.07023814791665473;75;0.3828125;violin
148.42534419166665;0.21309539791667476;59;0.3828125;violin
148.63963006666665;0.07023814791668315;74;0.3828125;violin
148.71105869166666;0.21309539791667476;58;0.3828125;violin
148.92534456666667;0.07023814791665473;73;0.3828125;violin
148.99677319166665;0.21309539791667476;57;0.3828125;violin
149.21105906666668;0.07023814791665473;72;0.3828125;violin
149.28248769166666;0.21309539791667476;56;0.3828125;violin
149.49677356666666;0.07023814791665473;78;0.3828125;violin
149.56820219166667;0.0940476895833342;55;0.3828125;violin
149.66344035833333;0.0940476895833342;79;0.3828125;violin
149.758678525;0.0940476895833342;74;0.3828125;violin
149.85391669166665;0.0940476895833342;71;0.3828125;violin
149.94915485833332;0.09404768958336263;67;0.3828125;violin
150.044393025;0.0940476895833342;62;0.3828125;violin
150.13963119166667;0.21309539791664633;59;0.3828125;violin
150.35391706666667;0.07023814791665473;79;0.3828125;violin
150.42534569166668;0.21309539791664633;55;0.3828125;violin
150.63963156666665;0.07023814791668315;83;0.3828125;violin
150.71106019166666;0.0940476895833342;60;0.3828125;violin
150.80629835833332;0.0940476895833342;63;0.3828125;violin
150.90153652499998;0.09404768958336263;67;0.3828125;violin
150.99677469166664;0.09404768958336263;72;0.3828125;violin
151.09201285833333;0.0940476895833342;75;0.3828125;violin
151.187251025;0.0940476895833342;79;0.3828125;violin
151.28248919166666;0.21309539791667476;84;0.3828125;violin
151.49677506666666;0.07023814791665473;87;0.3828125;violin
151.56820369166667;0.21309539791667476;66;0.3828125;violin
151.78248956666667;0.07023814791665473;78;0.3828125;violin
151.85391819166665;0.0940476895833342;67;0.3828125;violin
151.9491563583333;0.09404768958336263;91;0.3828125;violin
152.044394525;0.0940476895833342;86;0.3828125;violin
152.13963269166666;0.0940476895833342;83;0.3828125;violin
152.23487085833332;0.0940476895833342;79;0.3828125;violin
152.330109025;0.09404768958330578;74;0.3828125;violin
152.42534719166667;0.21309539791664633;71;0.3828125;violin
152.63963306666665;0.07023814791668315;91;0.3828125;violin
152.71106169166666;0.21309539791667476;67;0.3828125;violin
152.92534756666666;0.07023814791668315;95;0.3828125;violin
152.99677619166667;0.0940476895833342;72;0.3828125;violin
153.09201435833333;0.0940476895833342;75;0.3828125;violin
153.187252525;0.0940476895833342;79;0.3828125;violin
153.28249069166665;0.0940476895833342;84;0.3828125;violin
153.37772885833334;0.09404768958330578;87;0.3828125;violin
153.472967025;0.0940476895833342;91;0.3828125;violin
153.56820519166666;0.21309539791667476;96;0.3828125;violin
153.78249106666667;0.07023814791665473;99;0.3828125;violin
153.85391969166665;0.21309539791667476;78;0.3828125;violin
154.06820556666668;0.07023814791665473;90;0.3828125;violin
154.13963419166666;0.0940476895833342;79;0.3828125;violin
154.23487235833332;0.0940476895833342;98;0.3828125;violin
154.330110525;0.09404768958330578;95;0.3828125;violin
154.42534869166667;0.0940476895833342;91;0.3828125;violin
154.52058685833333;0.0940476895833342;86;0.3828125;violin
154.615825025;0.0940476895833342;83;0.3828125;violin
154.71106319166665;0.0940476895833342;79;0.3828125;violin
154.80630135833331;0.09404768958336263;95;0.3828125;violin
154.901539525;0.0940476895833342;91;0.3828125;violin
154.99677769166667;0.0940476895833342;86;0.3828125;violin
155.09201585833333;0.0940476895833342;83;0.3828125;violin
155.187254025;0.0940476895833342;79;0.3828125;violin
155.28249219166668;0.09404768958330578;71;0.3828125;violin
155.37773035833334;0.0940476895833342;91;0.3828125;violin
155.472968525;0.0940476895833342;86;0.3828125;violin
155.56820669166666;0.0940476895833342;83;0.3828125;violin
155.66344485833332;0.0940476895833342;79;0.3828125;violin
155.75868302499998;0.09404768958336263;74;0.3828125;violin
155.85392119166667;0.0940476895833342;67;0.3828125;violin
155.94915935833333;0.0940476895833342;86;0.3828125;violin
156.044397525;0.0940476895833342;83;0.3828125;violin
156.13963569166665;0.0940476895833342;79;0.3828125;violin
156.23487385833334;0.09404768958330578;74;0.3828125;violin
156.330112025;0.09404768958330578;71;0.3828125;violin
156.42535019166667;0.0940476895833342;62;0.3828125;violin
156.52058835833333;0.0940476895833342;59;0.3828125;violin
156.615826525;0.0940476895833342;68;0.3828125;violin
156.71106469166665;0.09404768958336263;67;0.3828125;violin
156.80630285833334;0.0940476895833342;57;0.3828125;violin
156.901541025;0.0940476895833342;66;0.3828125;violin
156.99677919166666;0.0940476895833342;62;0.3828125;violin
157.09201735833332;0.0940476895833342;59;0.3828125;violin
157.187255525;0.09404768958330578;68;0.3828125;violin
157.28249369166667;0.09404768958330578;67;0.3828125;violin
157.37773185833333;0.0940476895833342;57;0.3828125;violin
157.472970025;0.0940476895833342;66;0.3828125;violin
157.56820819166666;0.0940476895833342;55;0.3828125;violin
157.66344635833332;0.09404768958336263;66;0.3828125;violin
157.75868452499998;0.09404768958336263;67;0.3828125;violin
157.85392269166667;0.0940476895833342;69;0.3828125;violin
157.94916085833333;0.0940476895833342;71;0.3828125;violin
158.044399025;0.0940476895833342;72;0.3828125;violin
158.13963719166668;0.09404768958330578;73;0.3828125;violin
158.23487535833334;0.09404768958330578;74;0.3828125;violin
158.330113525;0.0940476895833342;75;0.3828125;violin
158.42535169166666;0.0940476895833342;76;0.3828125;violin
158.52058985833332;0.0940476895833342;77;0.3828125;violin
158.61582802499998;0.0940476895833342;78;0.3828125;violin
158.71106619166665;0.9979166666666686;64;0.3828125;violin
158.71106619166665;0.9979166666666686;72;0.3828125;violin
158.71106619166665;0.9979166666666686;79;0.3828125;violin
159.71106619166665;1.9979166666666686;62;0.3828125;violin
159.71106619166665;1.9979166666666686;71;0.3828125;violin
159.71106619166665;0.49791666666666856;83;0.3828125;violin
160.21106619166665;0.49791666666666856;81;0.3828125;violin
160.71106619166665;0.49791666666666856;79;0.3828125;violin
161.21106619166665;0.49791666666666856;77;0.3828125;violin
161.71106619166665;1.9979166666666686;60;0.3828125;violin
161.71106619166665;1.9979166666666686;67;0.3828125;violin
161.71106619166665;0.9979166666666686;77;0.3828125;violin
162.71106619166665;0.9979166666666686;76;0.3828125;violin
163.71106619166665;0.9979166666666686;59;0.3828125;violin
163.71106619166665;0.9979166666666686;68;0.3828125;violin
163.71106619166665;0.9979166666666686;74;0.3828125;violin
164.71106619166665;0.9979166666666686;57;0.3828125;violin
164.71106619166665;0.9979166666666686;64;0.3828125;violin
164.71106619166665;0.9979166666666686;72;0.3828125;violin
165.71106619166665;1.9979166666666686;56;0.3828125;violin
165.71106619166665;1.9979166666666686;66;0.3828125;violin
165.71106619166665;0.49791666666666856;72;0.3828125;violin
166.21106619166665;0.24791666666666856;74;0.3828125;violin
166.46106619166665;0.24791666666666856;72;0.3828125;violin
166.71106619166665;0.49791666666666856;71;0.3828125;violin
167.21106619166665;0.49791666666666856;72;0.3828125;violin
167.71106619166665;1.9979166666666686;55;0.3828125;violin
167.71106619166665;1.9979166666666686;67;0.3828125;violin
167.71106619166665;0.9979166666666686;76;0.3828125;violin
168.71106619166665;0.9979166666666686;74;0.3828125;violin
169.71106619166665;0.9979166666666686;65;0.3828125;violin
169.71106619166665;0.9979166666666686;71;0.3828125;violin
169.71106619166665;0.9979166666666686;79;0.3828125;violin
170.71106619166665;0.9979166666666686;64;0.3828125;violin
170.71106619166665;0.9979166666666686;72;0.3828125;violin
170.71106619166665;0.49791666666666856;79;0.3828125;violin
171.21106619166665;0.24791666666666856;84;0.3828125;violin
171.46106619166665;0.24791666666666856;83;0.3828125;violin
171.71106619166665;0.9979166666666686;65;0.3828125;violin
171.71106619166665;0.9979166666666686;72;0.3828125;violin
171.71106619166665;0.49791666666666856;81;0.3828125;violin
172.21106619166665;0.24791666666666856;83;0.3828125;violin
172.46106619166665;0.24791666666666856;84;0.3828125;violin
172.71106619166665;0.9979166666666686;66;0.3828125;violin
172.71106619166665;0.9979166666666686;74;0.3828125;violin
172.71106619166665;0.49791666666666856;81;0.3828125;violin
173.21106619166665;0.24791666666666856;86;0.3828125;violin
173.46106619166665;0.24791666666666856;84;0.3828125;violin
173.71106619166665;0.9979166666666686;67;0.3828125;violin
173.71106619166665;0.9979166666666686;74;0.3828125;violin
173.71106619166665;0.49791666666666856;83;0.3828125;violin
174.21106619166665;0.24791666666666856;84;0.3828125;violin
174.46106619166665;0.24791666666666856;86;0.3828125;violin
174.71106619166665;0.9979166666666686;68;0.3828125;violin
174.71106619166665;0.9979166666666686;76;0.3828125;violin
174.71106619166665;0.49791666666666856;83;0.3828125;violin
175.21106619166665;0.24791666666666856;88;0.3828125;violin
175.46106619166665;0.24791666666666856;86;0.3828125;violin
175.71106619166665;0.9979166666666686;69;0.3828125;violin
175.71106619166665;0.9979166666666686;76;0.3828125;violin
175.71106619166665;0.49791666666666856;84;0.3828125;violin
176.21106619166665;0.24791666666666856;86;0.3828125;violin
176.46106619166665;0.24791666666666856;88;0.3828125;violin
176.71106619166665;0.9979166666666686;68;0.3828125;violin
176.71106619166665;0.9979166666666686;77;0.3828125;violin
176.71106619166665;0.49791666666666856;89;0.3828125;violin
177.21106619166665;0.49791666666666856;86;0.3828125;violin
177.71106619166665;0.9979166666666686;67;0.3828125;violin
177.71106619166665;0.9979166666666686;76;0.3828125;violin
177.71106619166665;0.49791666666666856;86;0.3828125;violin
178.21106619166665;0.49791666666666856;84;0.3828125;violin
178.71106619166665;0.9979166666666686;67;0.3828125;violin
178.71106619166665;0.9979166666666686;74;0.3828125;violin
178.71106619166665;0.49791666666666856;84;0.3828125;violin
179.21106619166665;0.49791666666666856;83;0.3828125;violin
179.71106619166665;0.49791666666666856;60;0.3828125;violin
179.71106619166665;0.49791666666666856;64;0.3828125;violin
179.71106619166665;0.49791666666666856;72;0.3828125;violin
180.21106619166665;0.24791666666666856;62;0.3828125;violin
180.21106619166665;0.24791666666666856;65;0.3828125;violin
180.21106619166665;0.24791666666666856;72;0.3828125;violin
180.46106619166665;0.24791666666666856;64;0.3828125;violin
180.46106619166665;0.24791666666666856;67;0.3828125;violin
180.46106619166665;0.24791666666666856;72;0.3828125;violin
180.71106619166665;0.49791666666666856;65;0.5703125;violin
180.71106619166665;0.49791666666666856;69;0.5703125;violin
180.71106619166665;0.49791666666666856;72;0.5703125;violin
181.21106619166665;0.49791666666666856;63;0.5703125;violin
181.21106619166665;0.49791666666666856;69;0.5703125;violin
181.21106619166665;0.49791666666666856;72;0.5703125;violin
181.71106619166665;0.49791666666666856;62;0.5703125;violin
181.71106619166665;0.49791666666666856;66;0.5703125;violin
181.71106619166665;0.49791666666666856;72;0.5703125;violin
182.21106619166665;0.49791666666666856;62;0.5703125;violin
182.21106619166665;0.49791666666666856;67;0.5703125;violin
182.21106619166665;0.49791666666666856;70;0.5703125;violin
182.71106619166665;0.49791666666666856;60;0.5703125;violin
182.71106619166665;0.49791666666666856;64;0.5703125;violin
182.71106619166665;0.49791666666666856;70;0.5703125;violin
183.21106619166665;0.49791666666666856;60;0.5703125;violin
183.21106619166665;0.49791666666666856;65;0.5703125;violin
183.21106619166665;0.49791666666666856;69;0.5703125;violin
183.71106619166665;0.9979166666666686;56;0.5703125;violin
183.71106619166665;0.9979166666666686;65;0.5703125;violin
183.71106619166665;0.9979166666666686;74;0.5703125;violin
184.71106619166665;0.49791666666666856;55;0.5703125;violin
184.71106619166665;0.49791666666666856;64;0.5703125;violin
184.71106619166665;0.49791666666666856;72;0.5703125;violin
185.21106619166665;0.49791666666666856;55;0.5703125;violin
185.21106619166665;0.49791666666666856;62;0.5703125;violin
185.21106619166665;0.49791666666666856;71;0.5703125;violin
185.71106619166665;0.49791666666666856;60;0.3828125;violin
185.71106619166665;0.49791666666666856;64;0.3828125;violin
185.71106619166665;0.49791666666666856;72;0.3828125;violin
185.71106619166665;0.49791666666666856;76;0.3828125;violin
186.71106619166665;0.9979166666666686;56;0.5703125;violin
186.71106619166665;0.9979166666666686;65;0.5703125;violin
186.71106619166665;0.9979166666666686;74;0.5703125;violin
187.71106619166665;0.49791666666666856;55;0.5703125;violin
187.71106619166665;0.49791666666666856;64;0.5703125;violin
187.71106619166665;0.49791666666666856;72;0.5703125;violin
188.21106619166665;0.49791666666666856;55;0.5703125;violin
188.21106619166665;0.49791666666666856;62;0.5703125;violin
188.21106619166665;0.49791666666666856;71;0.5703125;violin
188.71106619166665;0.49791666666666856;60;0.3828125;violin
188.71106619166665;0.49791666666666856;67;0.3828125;violin
188.71106619166665;0.49791666666666856;76;0.3828125;violin
188.71106619166665;0.49791666666666856;84;0.3828125;violin
189.71106619166665;0.9979166666666686;56;0.5703125;violin
189.71106619166665;0.9979166666666686;65;0.5703125;violin
189.71106619166665;0.9979166666666686;74;0.5703125;violin
190.71106619166665;0.49791666666666856;55;0.5703125;violin
190.71106619166665;0.49791666666666856;64;0.5703125;violin
190.71106619166665;0.49791666666666856;72;0.5703125;violin
191.21106619166665;0.49791666666666856;55;0.5703125;violin
191.21106619166665;0.49791666666666856;62;0.5703125;violin
191.21106619166665;0.49791666666666856;71;0.5703125;violin
191.71106619166665;0.49791666666666856;60;0.3828125;violin
191.71106619166665;0.49791666666666856;67;0.3828125;violin
191.71106619166665;0.49791666666666856;76;0.3828125;violin
191.71106619166665;0.49791666666666856;88;0.3828125;violin
192.21106619166665;0.24791666666666856;84;0.3828125;violin
192.46106619166665;0.24791666666666856;79;0.3828125;violin
192.71106619166665;0.49791666666666856;60;0.3828125;violin
192.71106619166665;0.49791666666666856;67;0.3828125;violin
192.71106619166665;0.49791666666666856;76;0.3828125;violin
192.71106619166665;0.49791666666666856;84;0.3828125;violin
193.21106619166665;0.24791666666666856;79;0.3828125;violin
193.46106619166665;0.24791666666666856;76;0.3828125;violin
193.71106619166665;0.49791666666666856;60;0.3828125;violin
193.71106619166665;0.49791666666666856;67;0.3828125;violin
193.71106619166665;0.49791666666666856;79;0.3828125;violin
194.21106619166665;0.24791666666666856;76;0.3828125;violin
194.46106619166665;0.24791666666666856;72;0.3828125;violin
194.71106619166665;1.9979166666666686;60;0.3828125;violin
