start;duration;pitch;velocity;instrument
0.0;0.13522763333333335;68;0.3828125;violin
0.136364;0.13522763333333335;56;0.3828125;violin
0.272728;0.13522763333333332;68;0.3828125;violin
0.409092;0.13522763333333332;56;0.3828125;violin
0.545456;0.13522763333333332;68;0.3828125;violin
0.6818200000000001;0.13522763333333332;56;0.3828125;violin
0.818184;0.13522763333333332;68;0.3828125;violin
0.9545480000000001;0.13522763333333343;56;0.3828125;violin
1.090912;0.13522763333333332;68;0.3828125;violin
1.227276;0.13522763333333332;56;0.3828125;violin
1.3636400000000002;0.13522763333333332;67;0.3828125;violin
1.5000040000000001;0.13522763333333332;56;0.3828125;violin
1.636368;0.13522763333333332;65;0.3828125;violin
1.7727320000000002;0.13522763333333332;56;0.3828125;violin
1.9090960000000001;0.13522763333333354;64;0.3828125;violin
2.0454600000000003;0.13522763333333332;56;0.3828125;violin
2.181824;0.13522763333333332;62;0.3828125;violin
2.318188;0.13522763333333332;56;0.3828125;violin
2.454552;0.13522763333333332;63;0.3828125;violin
2.590916;0.13522763333333332;56;0.3828125;violin
2.7272800000000004;0.13522763333333332;72;0.3828125;violin
2.8636440000000003;0.13522763333333332;56;0.3828125;violin
3.0000080000000002;0.13522763333333332;70;0.3828125;violin
3.136372;0.13522763333333332;56;0.3828125;violin
3.272736;0.13522763333333332;68;0.3828125;violin
3.4091;0.13522763333333332;56;0.3828125;violin
3.5454640000000004;0.13522763333333332;67;0.3828125;violin
3.6818280000000003;0.13522763333333332;56;0.3828125;violin
3.8181920000000003;0.13522763333333332;65;0.3828125;violin
3.954556;0.13522763333333376;56;0.3828125;violin
4.090920000000001;0.13522763333333288;63;0.3828125;violin
4.227284;0.13522763333333376;56;0.3828125;violin
4.363648;0.13522763333333288;65;0.3828125;violin
4.500012;0.13522763333333376;55;0.3828125;violin
4.636376;0.13522763333333376;63;0.3828125;violin
4.772740000000001;0.13522763333333288;55;0.3828125;violin
4.909104;0.13522763333333376;64;0.5703125;violin
5.0454680000000005;0.13522763333333288;55;0.3828125;violin
5.181832;0.13522763333333376;63;0.3828125;violin
5.318196;0.13522763333333288;55;0.3828125;violin
5.454560000000001;0.13522763333333288;65;0.3828125;violin
5.590924;0.13522763333333376;55;0.3828125;violin
5.727288000000001;0.13522763333333288;63;0.3828125;violin
5.863652;0.13522763333333376;55;0.3828125;violin
6.0000160000000005;0.13522763333333288;64;0.5703125;violin
6.13638;0.13522763333333376;55;0.3828125;violin
6.272744;0.13522763333333376;63;0.3828125;violin
6.409108000000001;0.13522763333333288;55;0.3828125;violin
6.545472;0.13522763333333376;60;0.5703125;violin
6.6818360000000006;0.13522763333333288;72;0.3828125;violin
6.8182;0.13522763333333376;62;0.3828125;violin
6.954564;0.13522763333333376;63;0.3828125;violin
7.090928000000001;0.13522763333333288;58;0.5703125;violin
7.227292;0.13522763333333376;67;0.3828125;violin
7.363656000000001;0.13522763333333288;62;0.3828125;violin
7.50002;0.13522763333333376;63;0.3828125;violin
7.6363840000000005;0.13522763333333288;56;0.5703125;violin
7.772748000000001;0.13522763333333288;75;0.3828125;violin
7.909112;0.13522763333333288;71;0.3828125;violin
8.045476;0.13522763333333288;72;0.3828125;violin
8.181840000000001;0.13522763333333288;67;0.3828125;violin
8.318204;0.13522763333333465;68;0.3828125;violin
8.454568;0.13522763333333288;63;0.3828125;violin
8.590932;0.13522763333333288;60;0.3828125;violin
8.727296;0.13522763333333288;68;0.3828125;violin
8.863660000000001;0.13522763333333288;56;0.3828125;violin
9.000024;0.13522763333333465;68;0.3828125;violin
9.136388;0.13522763333333288;56;0.3828125;violin
9.272752;0.13522763333333288;68;0.3828125;violin
9.409116000000001;0.13522763333333288;56;0.3828125;violin
9.545480000000001;0.13522763333333288;68;0.3828125;violin
9.681844;0.13522763333333465;56;0.3828125;violin
9.818208;0.13522763333333288;68;0.3828125;violin
9.954572;0.13522763333333288;56;0.3828125;violin
10.090936000000001;0.13522763333333288;67;0.3828125;violin
10.227300000000001;0.13522763333333288;56;0.3828125;violin
10.363664;0.13522763333333465;65;0.3828125;violin
10.500028;0.13522763333333288;56;0.3828125;violin
10.636392;0.13522763333333288;64;0.3828125;violin
10.772756000000001;0.13522763333333288;56;0.3828125;violin
10.909120000000001;0.13522763333333288;62;0.3828125;violin
11.045484;0.13522763333333465;56;0.3828125;violin
11.181848;0.13522763333333288;63;0.3828125;violin
11.318212;0.13522763333333288;56;0.3828125;violin
11.454576000000001;0.13522763333333288;72;0.3828125;violin
11.59094;0.13522763333333465;56;0.3828125;violin
11.727304;0.13522763333333465;70;0.3828125;violin
11.863668;0.13522763333333288;56;0.3828125;violin
12.000032000000001;0.13522763333333288;68;0.3828125;violin
12.136396000000001;0.13522763333333288;56;0.3828125;violin
12.27276;0.13522763333333465;67;0.3828125;violin
12.409124;0.13522763333333465;56;0.3828125;violin
12.545488;0.13522763333333288;65;0.3828125;violin
12.681852000000001;0.13522763333333288;56;0.3828125;violin
12.818216000000001;0.13522763333333288;63;0.3828125;violin
12.95458;0.13522763333333465;56;0.3828125;violin
13.090944;0.13522763333333288;64;0.5703125;violin
13.227308;0.13522763333333288;55;0.3828125;violin
13.363672000000001;0.13522763333333288;61;0.3828125;violin
13.500036000000001;0.13522763333333288;55;0.3828125;violin
13.6364;0.13522763333333465;64;0.3828125;violin
13.772764;0.13522763333333288;55;0.3828125;violin
13.909128;0.13522763333333288;60;0.3828125;violin
14.045492000000001;0.13522763333333288;55;0.3828125;violin
14.181856000000002;0.13522763333333288;64;0.5703125;violin
14.31822;0.13522763333333465;55;0.3828125;violin
14.454584;0.13522763333333288;61;0.3828125;violin
14.590948000000001;0.13522763333333288;55;0.3828125;violin
14.727312000000001;0.13522763333333288;64;0.3828125;violin
14.863676000000002;0.13522763333333288;55;0.3828125;violin
15.00004;0.13522763333333465;60;0.3828125;violin
15.136404;0.13522763333333288;55;0.3828125;violin
15.272768000000001;0.13522763333333288;56;0.5703125;violin
15.409132000000001;0.13522763333333288;72;0.3828125;violin
15.545496000000002;0.13522763333333288;67;0.3828125;violin
15.68186;0.13522763333333465;68;0.3828125;violin
15.818224;0.13522763333333288;55;0.5703125;violin
15.954588000000001;0.13522763333333288;72;0.3828125;violin
16.090952;0.13522763333333288;66;0.3828125;violin
16.227316000000002;0.13522763333333288;67;0.3828125;violin
16.363680000000002;0.13522763333333288;65;0.5703125;violin
16.500044000000003;0.13522763333333288;56;0.3828125;violin
16.636408;0.13522763333333643;60;0.3828125;violin
16.772772;0.13522763333333288;64;0.3828125;violin
16.909136;0.13522763333333288;65;0.3828125;violin
17.0455;0.13522763333333288;68;0.3828125;violin
17.181864;0.13522763333333288;72;0.3828125;violin
17.318228;0.13522763333333288;77;0.3828125;violin
17.454592;0.13522763333333288;70;0.5703125;violin
17.590956000000002;0.13522763333333288;58;0.3828125;violin
17.727320000000002;0.13522763333333288;70;0.5703125;violin
17.863684000000003;0.13522763333333288;58;0.3828125;violin
18.000048;0.13522763333333643;70;0.5703125;violin
18.136412;0.13522763333333288;58;0.3828125;violin
18.272776;0.13522763333333288;82;0.3828125;violin
18.40914;0.13522763333333288;70;0.3828125;violin
18.545504;0.13522763333333288;81;0.3828125;violin
18.681868;0.13522763333333288;70;0.3828125;violin
18.818232000000002;0.13522763333333288;80;0.3828125;violin
18.954596000000002;0.13522763333333288;70;0.3828125;violin
19.090960000000003;0.13522763333333288;79;0.3828125;violin
19.227324;0.13522763333333643;70;0.3828125;violin
19.363688;0.13522763333333643;74;0.3828125;violin
19.500052;0.13522763333333288;68;0.3828125;violin
19.636416;0.13522763333333288;75;0.3828125;violin
19.77278;0.13522763333333288;67;0.3828125;violin
19.909144;0.13522763333333288;77;0.3828125;violin
20.045508;0.13522763333333288;65;0.3828125;violin
20.181872000000002;0.13522763333333288;79;0.3828125;violin
20.318236000000002;0.13522763333333288;63;0.3828125;violin
20.454600000000003;0.13522763333333288;80;0.3828125;violin
20.590964;0.13522763333333643;62;0.3828125;violin
20.727328;0.13522763333333288;79;0.3828125;violin
20.863692;0.13522763333333288;63;0.3828125;violin
21.000056;0.13522763333333288;77;0.3828125;violin
21.13642;0.13522763333333288;65;0.3828125;violin
21.272784;0.13522763333333288;75;0.3828125;violin
21.409148000000002;0.13522763333333288;67;0.3828125;violin
21.545512000000002;0.13522763333333288;73;0.3828125;violin
21.681876000000003;0.13522763333333288;65;0.3828125;violin
21.818240000000003;0.13522763333333288;72;0.5703125;violin
21.954604;0.13522763333333643;63;0.3828125;violin
22.090968;0.13522763333333288;72;0.5703125;violin
22.227332;0.13522763333333288;63;0.3828125;violin
22.363696;0.13522763333333288;72;0.5703125;violin
22.50006;0.13522763333333288;63;0.3828125;violin
22.636424;0.13522763333333288;70;0.3828125;violin
22.772788000000002;0.13522763333333288;63;0.3828125;violin
22.909152000000002;0.13522763333333288;69;0.3828125;violin
23.045516000000003;0.13522763333333288;63;0.3828125;violin
23.18188;0.13522763333333643;72;0.3828125;violin
23.318244;0.13522763333333643;66;0.3828125;violin
23.454608;0.13522763333333288;69;0.3828125;violin
23.590972;0.13522763333333288;66;0.3828125;violin
23.727336;0.13522763333333288;69;0.3828125;violin
23.8637;0.13522763333333288;63;0.3828125;violin
24.000064000000002;0.13522763333333288;70;0.3828125;violin
24.136428000000002;0.13522763333333288;62;0.3828125;violin
24.272792000000003;0.13522763333333288;81;0.3828125;violin
24.409156000000003;0.13522763333333288;75;0.3828125;violin
24.54552;0.13522763333333643;82;0.3828125;violin
24.681884;0.13522763333333288;74;0.3828125;violin
24.818248;0.13522763333333288;84;0.3828125;violin
24.954612;0.13522763333333288;69;0.3828125;violin
25.090976;0.13522763333333288;86;0.3828125;violin
25.22734;0.13522763333333288;70;0.3828125;violin
25.363704000000002;0.13522763333333288;70;0.3828125;violin
25.500068000000002;0.13522763333333288;58;0.3828125;violin
25.636432000000003;0.13522763333333288;69;0.3828125;violin
25.772796000000003;0.13522763333333288;60;0.3828125;violin
25.90916;0.13522763333333643;68;0.3828125;violin
26.045524;0.13522763333333288;62;0.3828125;violin
26.181888;0.13522763333333288;67;0.5703125;violin
26.318252;0.13522763333333288;63;0.3828125;violin
26.454616;0.13522763333333288;67;0.5703125;violin
26.590980000000002;0.13522763333333288;63;0.3828125;violin
26.727344000000002;0.13522763333333288;67;0.5703125;violin
26.863708000000003;0.13522763333333288;63;0.3828125;violin
27.000072000000003;0.13522763333333288;67;0.3828125;violin
27.136436;0.13522763333333643;62;0.3828125;violin
27.2728;0.13522763333333643;69;0.3828125;violin
27.409164;0.13522763333333288;60;0.3828125;violin
27.545528;0.13522763333333288;70;0.3828125;violin
27.681892;0.13522763333333288;58;0.3828125;violin
27.818256;0.13522763333333288;72;0.3828125;violin
27.954620000000002;0.13522763333333288;57;0.3828125;violin
28.090984000000002;0.13522763333333288;69;0.3828125;violin
28.227348000000003;0.13522763333333288;60;0.3828125;violin
28.363712000000003;0.13522763333333288;70;0.3828125;violin
28.500076;0.13522763333333643;58;0.3828125;violin
28.63644;0.13522763333333288;72;0.3828125;violin
28.772804;0.13522763333333288;57;0.3828125;violin
28.909168;0.13522763333333288;74;0.3828125;violin
29.045532;0.13522763333333288;58;0.3828125;violin
29.181896000000002;0.13522763333333288;75;0.3828125;violin
29.318260000000002;0.13522763333333288;60;0.3828125;violin
29.454624000000003;0.13522763333333288;77;0.3828125;violin
29.590988000000003;0.13522763333333288;62;0.3828125;violin
29.727352000000003;0.13522763333333288;79;0.3828125;violin
29.863716;0.13522763333333643;63;0.3828125;violin
30.00008;0.13522763333333288;80;0.3828125;violin
30.136444;0.13522763333333288;65;0.3828125;violin
30.272808;0.13522763333333288;77;0.3828125;violin
30.409172;0.13522763333333288;62;0.3828125;violin
30.545536000000002;0.13522763333333288;75;0.3828125;violin
30.681900000000002;0.13522763333333288;63;0.3828125;violin
30.818264000000003;0.13522763333333288;74;0.3828125;violin
30.954628000000003;0.13522763333333288;63;0.3828125;violin
31.090992000000004;0.13522763333333288;73;0.3828125;violin
31.227356;0.13522763333333643;63;0.3828125;violin
31.36372;0.13522763333333288;72;0.3828125;violin
31.500084;0.13522763333333288;63;0.3828125;violin
31.636448;0.13522763333333288;71;0.3828125;violin
31.772812000000002;0.13522763333333288;63;0.3828125;violin
31.909176000000002;0.13522763333333643;70;0.3828125;violin
32.04554;0.13522763333332932;63;0.3828125;violin
32.181904;0.13522763333332932;80;0.5703125;violin
32.318268;0.13522763333332932;62;0.3828125;violin
32.454632000000004;0.13522763333332932;79;0.5703125;violin
32.590996000000004;0.13522763333332932;63;0.3828125;violin
32.727360000000004;0.13522763333332932;72;0.3828125;violin
32.863724000000005;0.13522763333332932;60;0.3828125;violin
33.000088000000005;0.13522763333332932;71;0.3828125;violin
33.136452;0.13522763333333643;60;0.3828125;violin
33.272816;0.13522763333333643;70;0.3828125;violin
33.40918;0.13522763333333643;60;0.3828125;violin
33.545544;0.13522763333333643;69;0.3828125;violin
33.681908;0.13522763333333643;60;0.3828125;violin
33.818272;0.13522763333333643;68;0.3828125;violin
33.954636;0.13522763333333643;60;0.3828125;violin
34.091;0.13522763333333643;67;0.3828125;violin
34.227364;0.13522763333333643;60;0.3828125;violin
34.363728;0.13522763333333643;77;0.5703125;violin
34.500092;0.13522763333333643;59;0.3828125;violin
34.636456;0.13522763333332932;75;0.5703125;violin
34.77282;0.13522763333332932;60;0.3828125;violin
34.909184;0.13522763333332932;56;0.5703125;violin
35.045548000000004;0.13522763333332932;72;0.3828125;violin
35.181912000000004;0.13522763333332932;57;0.3828125;violin
35.318276000000004;0.13522763333332932;72;0.3828125;violin
35.454640000000005;0.13522763333332932;58;0.5703125;violin
35.591004000000005;0.13522763333332932;74;0.3828125;violin
35.727368000000006;0.13522763333332932;59;0.3828125;violin
35.863732;0.13522763333333643;74;0.3828125;violin
36.000096;0.13522763333333643;60;0.5703125;violin
36.13646;0.13522763333333643;75;0.3828125;violin
36.272824;0.13522763333333643;62;0.3828125;violin
36.409188;0.13522763333333643;77;0.3828125;violin
36.545552;0.13522763333333643;63;0.3828125;violin
36.681916;0.13522763333333643;79;0.3828125;violin
36.81828;0.13522763333333643;65;0.3828125;violin
36.954644;0.13522763333333643;80;0.3828125;violin
37.091008;0.13522763333333643;67;0.5703125;violin
37.227372;0.13522763333333643;82;0.3828125;violin
37.363736;0.13522763333332932;68;0.3828125;violin
37.5001;0.13522763333332932;84;0.3828125;violin
37.636464000000004;0.13522763333332932;66;0.5703125;violin
37.772828000000004;0.13522763333332932;81;0.3828125;violin
37.909192000000004;0.13522763333332932;67;0.3828125;violin
38.045556000000005;0.13522763333332932;82;0.3828125;violin
38.181920000000005;0.13522763333332932;64;0.5703125;violin
38.318284000000006;0.13522763333332932;79;0.3828125;violin
38.454648;0.13522763333333643;65;0.3828125;violin
38.591012;0.13522763333333643;80;0.3828125;violin
38.727376;0.13522763333333643;62;0.5703125;violin
38.86374;0.13522763333333643;77;0.3828125;violin
39.000104;0.13522763333333643;63;0.3828125;violin
39.136468;0.13522763333333643;78;0.3828125;violin
39.272832;0.13522763333333643;66;0.3828125;violin
39.409196;0.13522763333333643;57;0.3828125;violin
39.54556;0.13522763333333643;63;0.3828125;violin
39.681924;0.13522763333333643;57;0.3828125;violin
39.818288;0.13522763333333643;75;0.3828125;violin
39.954652;0.13522763333332932;66;0.3828125;violin
40.091016;0.13522763333332932;72;0.3828125;violin
40.227380000000004;0.13522763333332932;66;0.3828125;violin
40.363744000000004;0.13522763333332932;69;0.3828125;violin
40.500108000000004;0.13522763333332932;66;0.3828125;violin
40.636472000000005;0.13522763333332932;57;0.3828125;violin
40.772836000000005;0.13522763333332932;63;0.3828125;violin
40.909200000000006;0.13522763333332932;57;0.3828125;violin
41.045564;0.13522763333333643;66;0.3828125;violin
41.181928;0.13522763333333643;57;0.3828125;violin
41.318292;0.13522763333333643;63;0.3828125;violin
41.454656;0.13522763333333643;58;0.3828125;violin
41.59102;0.13522763333333643;67;0.3828125;violin
41.727384;0.13522763333333643;58;0.3828125;violin
41.863748;0.13522763333333643;75;0.5703125;violin
42.000112;0.13522763333333643;58;0.3828125;violin
42.136476;0.13522763333333643;74;0.3828125;violin
42.27284;0.13522763333333643;58;0.3828125;violin
42.409204;0.13522763333333643;73;0.3828125;violin
42.545568;0.13522763333332932;58;0.3828125;violin
42.681932;0.13522763333332932;72;0.3828125;violin
42.818296000000004;0.13522763333332932;58;0.3828125;violin
42.954660000000004;0.13522763333332932;71;0.3828125;violin
43.091024000000004;0.13522763333332932;58;0.3828125;violin
43.227388000000005;0.13522763333332932;70;0.3828125;violin
43.363752000000005;0.13522763333332932;58;0.3828125;violin
43.500116000000006;0.13522763333332932;67;0.3828125;violin
43.636480000000006;0.13522763333332932;58;0.3828125;violin
43.772844;0.13522763333333643;65;0.3828125;violin
43.909208;0.13522763333333643;58;0.3828125;violin
44.045572;0.13522763333333643;74;0.5703125;violin
44.181936;0.13522763333333643;58;0.3828125;violin
44.3183;0.13522763333333643;73;0.3828125;violin
44.454664;0.13522763333333643;58;0.3828125;violin
44.591028;0.13522763333333643;72;0.3828125;violin
44.727392;0.13522763333333643;58;0.3828125;violin
44.863756;0.13522763333333643;71;0.3828125;violin
45.00012;0.13522763333333643;58;0.3828125;violin
45.136484;0.13522763333333643;70;0.3828125;violin
45.272848;0.13522763333332932;58;0.3828125;violin
45.409212000000004;0.13522763333332932;68;0.3828125;violin
45.545576000000004;0.13522763333332932;58;0.3828125;violin
45.681940000000004;0.13522763333332932;65;0.3828125;violin
45.818304000000005;0.13522763333332932;55;0.3828125;violin
45.954668000000005;0.13522763333332932;63;0.3828125;violin
46.091032000000006;0.13522763333332932;58;0.3828125;violin
46.227396000000006;0.13522763333332932;67;0.3828125;violin
46.36376;0.13522763333333643;59;0.5703125;violin
46.500124;0.13522763333333643;65;0.3828125;violin
46.636488;0.13522763333333643;59;0.3828125;violin
46.772852;0.13522763333333643;62;0.3828125;violin
46.909216;0.13522763333333643;58;0.3828125;violin
47.04558;0.13522763333333643;63;0.3828125;violin
47.181944;0.13522763333333643;55;0.3828125;violin
47.318308;0.13522763333333643;70;0.3828125;violin
47.454672;0.13522763333333643;56;0.3828125;violin
47.591036;0.13522763333333643;68;0.3828125;violin
47.7274;0.13522763333333643;58;0.3828125;violin
47.863764;0.13522763333332932;65;0.3828125;violin
48.000128000000004;0.13522763333332932;55;0.3828125;violin
48.136492000000004;0.13522763333332932;63;0.3828125;violin
48.272856000000004;0.13522763333332932;58;0.3828125;violin
48.409220000000005;0.13522763333332932;67;0.3828125;violin
48.545584000000005;0.13522763333332932;59;0.5703125;violin
48.681948000000006;0.13522763333332932;65;0.3828125;violin
48.818312000000006;0.13522763333332932;59;0.3828125;violin
48.954676000000006;0.13522763333332932;62;0.3828125;violin
49.09104;0.13522763333333643;58;0.3828125;violin
49.227404;0.13522763333333643;63;0.3828125;violin
49.363768;0.13522763333333643;55;0.3828125;violin
49.500132;0.13522763333333643;70;0.3828125;violin
49.636496;0.13522763333333643;56;0.3828125;violin
49.77286;0.13522763333333643;68;0.3828125;violin
49.909224;0.13522763333333643;58;0.3828125;violin
50.045588;0.13522763333333643;65;0.3828125;violin
50.181952;0.13522763333333643;55;0.3828125;violin
50.318316;0.13522763333333643;63;0.3828125;violin
50.45468;0.13522763333333643;82;0.5703125;violin
50.591044000000004;0.13522763333332932;70;0.390625;violin
50.727408000000004;0.13522763333332932;80;0.40625;violin
50.863772000000004;0.13522763333332932;74;0.4140625;violin
51.000136000000005;0.13522763333332932;79;0.640625;violin
51.136500000000005;0.13522763333332932;75;0.4375;violin
51.272864000000006;0.13522763333332932;77;0.453125;violin
51.409228000000006;0.13522763333332932;71;0.4609375;violin
51.545592000000006;0.13522763333332932;75;0.7109375;violin
51.681956;0.13522763333333643;72;0.4921875;violin
51.81832;0.13522763333333643;73;0.5;violin
51.954684;0.13522763333333643;67;0.515625;violin
52.091048;0.13522763333333643;72;0.78125;violin
52.227412;0.13522763333333643;68;0.5390625;violin
52.363776;0.13522763333333643;70;0.546875;violin
52.50014;0.13522763333333643;64;0.5625;violin
52.636504;0.13522763333333643;68;0.8671875;violin
52.772868;0.13522763333333643;65;0.5859375;violin
52.909232;0.13522763333333643;59;0.6015625;violin
53.045596;0.13522763333333643;68;0.609375;violin
53.181960000000004;0.13522763333332932;60;0.9375;violin
53.318324000000004;0.13522763333332932;67;0.6328125;violin
53.454688000000004;0.13522763333332932;56;0.96875;violin
53.591052000000005;0.13522763333332932;65;0.6640625;violin
53.727416000000005;0.13522763333332932;57;0.9921875;violin
53.863780000000006;0.13522763333332932;66;0.6875;violin
54.000144000000006;0.13522763333332932;58;0.6953125;violin
54.136508000000006;0.13522763333332932;67;0.7109375;violin
54.272872;0.13522763333333643;58;0.71875;violin
54.409236;0.13522763333333643;65;0.734375;violin
54.5456;0.8170476333333383;55;0.75;violin
54.5456;0.8170476333333383;63;0.75;violin
54.5456;0.8170476333333383;75;0.75;violin
56.727424000000006;0.13522763333332932;68;0.3828125;violin
56.86378800000001;0.13522763333332932;56;0.3828125;violin
57.000152;0.13522763333333643;68;0.3828125;violin
57.136516;0.13522763333333643;56;0.3828125;violin
57.27288;0.13522763333333643;68;0.3828125;violin
57.409244;0.13522763333333643;56;0.3828125;violin
57.545608;0.13522763333333643;68;0.3828125;violin
57.681972;0.13522763333333643;56;0.3828125;violin
57.818336;0.13522763333333643;68;0.3828125;violin
57.9547;0.13522763333333643;56;0.3828125;violin
58.091064;0.13522763333333643;67;0.3828125;violin
58.227428;0.13522763333333643;56;0.3828125;violin
58.363792000000004;0.13522763333333643;65;0.3828125;violin
58.500156000000004;0.13522763333332932;56;0.3828125;violin
58.636520000000004;0.13522763333332932;64;0.3828125;violin
58.772884000000005;0.13522763333332932;56;0.3828125;violin
58.909248000000005;0.13522763333332932;62;0.3828125;violin
59.045612000000006;0.13522763333332932;56;0.3828125;violin
59.181976000000006;0.13522763333332932;63;0.3828125;violin
59.318340000000006;0.13522763333332932;56;0.3828125;violin
59.45470400000001;0.13522763333332932;72;0.3828125;violin
59.591068;0.13522763333333643;56;0.3828125;violin
59.727432;0.13522763333333643;70;0.3828125;violin
59.863796;0.13522763333333643;56;0.3828125;violin
60.00016;0.13522763333333643;68;0.3828125;violin
60.136524;0.13522763333333643;56;0.3828125;violin
60.272888;0.13522763333333643;67;0.3828125;violin
60.409252;0.13522763333333643;56;0.3828125;violin
60.545616;0.13522763333333643;65;0.3828125;violin
60.68198;0.13522763333333643;56;0.3828125;violin
60.818344;0.13522763333333643;63;0.3828125;violin
60.954708000000004;0.13522763333333643;56;0.3828125;violin
61.091072000000004;0.13522763333332932;65;0.3828125;violin
61.227436000000004;0.13522763333332932;55;0.3828125;violin
61.363800000000005;0.13522763333332932;63;0.3828125;violin
61.500164000000005;0.13522763333332932;55;0.3828125;violin
61.636528000000006;0.13522763333332932;64;0.5703125;violin
61.772892000000006;0.13522763333332932;55;0.3828125;violin
61.909256000000006;0.13522763333332932;63;0.3828125;violin
62.04562000000001;0.13522763333332932;55;0.3828125;violin
62.18198400000001;0.13522763333332932;65;0.3828125;violin
62.318348;0.13522763333333643;55;0.3828125;violin
62.454712;0.13522763333333643;63;0.3828125;violin
62.591076;0.13522763333333643;55;0.3828125;violin
62.72744;0.13522763333333643;64;0.5703125;violin
62.863804;0.13522763333333643;55;0.3828125;violin
63.000168;0.13522763333333643;63;0.3828125;violin
63.136532;0.13522763333333643;55;0.3828125;violin
63.272896;0.13522763333333643;60;0.5703125;violin
63.40926;0.13522763333333643;72;0.3828125;violin
63.545624000000004;0.13522763333333643;62;0.3828125;violin
63.681988000000004;0.13522763333333643;63;0.3828125;violin
63.818352000000004;0.13522763333332932;58;0.5703125;violin
63.954716000000005;0.13522763333332932;67;0.3828125;violin
64.09108;0.13522763333332932;62;0.3828125;violin
64.227444;0.13522763333332932;63;0.3828125;violin
64.363808;0.13522763333332932;56;0.5703125;violin
64.500172;0.13522763333332932;75;0.3828125;violin
64.636536;0.13522763333332932;71;0.3828125;violin
64.7729;0.13522763333332932;72;0.3828125;violin
64.90926400000001;0.13522763333332932;67;0.3828125;violin
65.04562800000001;0.13522763333332932;68;0.3828125;violin
65.18199200000001;0.13522763333332932;63;0.3828125;violin
65.31835600000001;0.13522763333332932;60;0.3828125;violin
65.45472000000001;0.13522763333332932;68;0.3828125;violin
65.59108400000001;0.13522763333332932;56;0.3828125;violin
65.72744800000001;0.13522763333332932;68;0.3828125;violin
65.86381200000001;0.13522763333332932;56;0.3828125;violin
66.00017600000001;0.13522763333332932;68;0.3828125;violin
66.13654000000001;0.13522763333332932;56;0.3828125;violin
66.272904;0.13522763333334353;68;0.3828125;violin
66.409268;0.13522763333334353;56;0.3828125;violin
66.545632;0.13522763333334353;68;0.3828125;violin
66.681996;0.13522763333334353;56;0.3828125;violin
66.81836;0.13522763333334353;67;0.3828125;violin
66.954724;0.13522763333334353;56;0.3828125;violin
67.091088;0.13522763333334353;65;0.3828125;violin
67.227452;0.13522763333334353;56;0.3828125;violin
67.363816;0.13522763333334353;64;0.3828125;violin
67.50018;0.13522763333334353;56;0.3828125;violin
67.636544;0.13522763333334353;62;0.3828125;violin
67.772908;0.13522763333332932;56;0.3828125;violin
67.909272;0.13522763333332932;63;0.3828125;violin
68.045636;0.13522763333332932;56;0.3828125;violin
68.182;0.13522763333332932;72;0.3828125;violin
68.318364;0.13522763333332932;56;0.3828125;violin
68.454728;0.13522763333332932;70;0.3828125;violin
68.591092;0.13522763333332932;56;0.3828125;violin
68.727456;0.13522763333332932;68;0.3828125;violin
68.86382;0.13522763333332932;56;0.3828125;violin
69.000184;0.13522763333332932;67;0.3828125;violin
69.136548;0.13522763333332932;56;0.3828125;violin
69.272912;0.13522763333332932;65;0.3828125;violin
69.409276;0.13522763333332932;56;0.3828125;violin
69.54564;0.13522763333332932;63;0.3828125;violin
69.682004;0.13522763333332932;56;0.3828125;violin
69.818368;0.13522763333332932;64;0.5703125;violin
69.954732;0.13522763333332932;55;0.3828125;violin
70.09109600000001;0.13522763333332932;61;0.3828125;violin
70.22746000000001;0.13522763333332932;55;0.3828125;violin
70.36382400000001;0.13522763333332932;64;0.3828125;violin
70.50018800000001;0.13522763333332932;55;0.3828125;violin
70.63655200000001;0.13522763333332932;60;0.3828125;violin
70.77291600000001;0.13522763333332932;55;0.3828125;violin
70.90928000000001;0.13522763333332932;64;0.5703125;violin
71.04564400000001;0.13522763333332932;55;0.3828125;violin
71.18200800000001;0.13522763333332932;61;0.3828125;violin
71.31837200000001;0.13522763333332932;55;0.3828125;violin
71.45473600000001;0.13522763333332932;64;0.3828125;violin
71.5911;0.13522763333334353;55;0.3828125;violin
71.727464;0.13522763333334353;60;0.3828125;violin
71.863828;0.13522763333334353;55;0.3828125;violin
72.000192;0.13522763333334353;56;0.5703125;violin
72.136556;0.13522763333334353;72;0.3828125;violin
72.27292;0.13522763333334353;67;0.3828125;violin
72.409284;0.13522763333334353;68;0.3828125;violin
72.545648;0.13522763333334353;55;0.5703125;violin
72.682012;0.13522763333334353;72;0.3828125;violin
72.818376;0.13522763333334353;66;0.3828125;violin
72.95474;0.13522763333334353;67;0.3828125;violin
73.091104;0.13522763333332932;65;0.5703125;violin
73.227468;0.13522763333332932;56;0.3828125;violin
73.363832;0.13522763333332932;60;0.3828125;violin
73.500196;0.13522763333332932;64;0.3828125;violin
73.63656;0.13522763333332932;65;0.3828125;violin
73.772924;0.13522763333332932;68;0.3828125;violin
73.909288;0.13522763333332932;72;0.3828125;violin
74.045652;0.13522763333332932;77;0.3828125;violin
74.182016;0.13522763333332932;70;0.5703125;violin
74.31838;0.13522763333332932;58;0.3828125;violin
74.454744;0.13522763333332932;70;0.5703125;violin
74.591108;0.13522763333332932;58;0.3828125;violin
74.727472;0.13522763333332932;70;0.5703125;violin
74.863836;0.13522763333332932;58;0.3828125;violin
75.0002;0.13522763333332932;82;0.3828125;violin
75.136564;0.13522763333332932;70;0.3828125;violin
75.27292800000001;0.13522763333332932;81;0.3828125;violin
75.40929200000001;0.13522763333332932;70;0.3828125;violin
75.54565600000001;0.13522763333332932;80;0.3828125;violin
75.68202000000001;0.13522763333332932;70;0.3828125;violin
75.81838400000001;0.13522763333332932;79;0.3828125;violin
75.95474800000001;0.13522763333332932;70;0.3828125;violin
76.09111200000001;0.13522763333332932;74;0.3828125;violin
76.22747600000001;0.13522763333332932;68;0.3828125;violin
76.36384000000001;0.13522763333332932;75;0.3828125;violin
76.50020400000001;0.13522763333332932;67;0.3828125;violin
76.63656800000001;0.13522763333332932;77;0.3828125;violin
76.772932;0.13522763333334353;65;0.3828125;violin
76.909296;0.13522763333334353;79;0.3828125;violin
77.04566;0.13522763333334353;63;0.3828125;violin
77.182024;0.13522763333334353;80;0.3828125;violin
77.318388;0.13522763333334353;62;0.3828125;violin
77.454752;0.13522763333334353;79;0.3828125;violin
77.591116;0.13522763333334353;63;0.3828125;violin
77.72748;0.13522763333334353;77;0.3828125;violin
77.863844;0.13522763333334353;65;0.3828125;violin
78.000208;0.13522763333334353;75;0.3828125;violin
78.136572;0.13522763333334353;67;0.3828125;violin
78.272936;0.13522763333332932;73;0.3828125;violin
78.4093;0.13522763333332932;65;0.3828125;violin
78.545664;0.13522763333332932;72;0.5703125;violin
78.682028;0.13522763333332932;63;0.3828125;violin
78.818392;0.13522763333332932;72;0.5703125;violin
78.954756;0.13522763333332932;63;0.3828125;violin
79.09112;0.13522763333332932;72;0.5703125;violin
79.227484;0.13522763333332932;63;0.3828125;violin
79.363848;0.13522763333332932;70;0.3828125;violin
79.500212;0.13522763333332932;63;0.3828125;violin
79.636576;0.13522763333332932;69;0.3828125;violin
79.77294;0.13522763333332932;63;0.3828125;violin
79.909304;0.13522763333332932;72;0.3828125;violin
80.045668;0.13522763333332932;66;0.3828125;violin
80.182032;0.13522763333332932;69;0.3828125;violin
80.318396;0.13522763333332932;66;0.3828125;violin
80.45476000000001;0.13522763333332932;69;0.3828125;violin
80.59112400000001;0.13522763333332932;63;0.3828125;violin
80.72748800000001;0.13522763333332932;70;0.3828125;violin
80.86385200000001;0.13522763333332932;62;0.3828125;violin
81.00021600000001;0.13522763333332932;81;0.3828125;violin
81.13658000000001;0.13522763333332932;75;0.3828125;violin
81.27294400000001;0.13522763333332932;82;0.3828125;violin
81.40930800000001;0.13522763333332932;74;0.3828125;violin
81.54567200000001;0.13522763333332932;84;0.3828125;violin
81.68203600000001;0.13522763333332932;69;0.3828125;violin
81.81840000000001;0.13522763333332932;86;0.3828125;violin
81.95476400000001;0.13522763333332932;70;0.3828125;violin
82.091128;0.13522763333334353;70;0.3828125;violin
82.227492;0.13522763333334353;58;0.3828125;violin
82.363856;0.13522763333334353;69;0.3828125;violin
82.50022;0.13522763333334353;60;0.3828125;violin
82.636584;0.13522763333334353;68;0.3828125;violin
82.772948;0.13522763333334353;62;0.3828125;violin
82.909312;0.13522763333334353;67;0.5703125;violin
83.045676;0.13522763333334353;63;0.3828125;violin
83.18204;0.13522763333334353;67;0.5703125;violin
83.318404;0.13522763333334353;63;0.3828125;violin
83.454768;0.13522763333334353;67;0.5703125;violin
83.591132;0.13522763333332932;63;0.3828125;violin
83.727496;0.13522763333332932;67;0.3828125;violin
83.86386;0.13522763333332932;62;0.3828125;violin
84.000224;0.13522763333332932;69;0.3828125;violin
84.136588;0.13522763333332932;60;0.3828125;violin
84.272952;0.13522763333332932;70;0.3828125;violin
84.409316;0.13522763333332932;58;0.3828125;violin
84.54568;0.13522763333332932;72;0.3828125;violin
84.682044;0.13522763333332932;57;0.3828125;violin
84.818408;0.13522763333332932;69;0.3828125;violin
84.954772;0.13522763333332932;60;0.3828125;violin
85.091136;0.13522763333332932;70;0.3828125;violin
85.2275;0.13522763333332932;58;0.3828125;violin
85.363864;0.13522763333332932;72;0.3828125;violin
85.500228;0.13522763333332932;57;0.3828125;violin
85.63659200000001;0.13522763333332932;74;0.3828125;violin
85.77295600000001;0.13522763333332932;58;0.3828125;violin
85.90932000000001;0.13522763333332932;75;0.3828125;violin
86.04568400000001;0.13522763333332932;60;0.3828125;violin
86.18204800000001;0.13522763333332932;77;0.3828125;violin
86.31841200000001;0.13522763333332932;62;0.3828125;violin
86.45477600000001;0.13522763333332932;79;0.3828125;violin
86.59114000000001;0.13522763333332932;63;0.3828125;violin
86.72750400000001;0.13522763333332932;80;0.3828125;violin
86.86386800000001;0.13522763333332932;65;0.3828125;violin
87.00023200000001;0.13522763333332932;77;0.3828125;violin
87.13659600000001;0.13522763333332932;62;0.3828125;violin
87.27296000000001;0.13522763333332932;75;0.3828125;violin
87.409324;0.13522763333334353;63;0.3828125;violin
87.545688;0.13522763333334353;74;0.3828125;violin
87.682052;0.13522763333334353;63;0.3828125;violin
87.818416;0.13522763333334353;73;0.3828125;violin
87.95478;0.13522763333334353;63;0.3828125;violin
88.091144;0.13522763333334353;72;0.3828125;violin
88.227508;0.13522763333334353;63;0.3828125;violin
88.363872;0.13522763333334353;71;0.3828125;violin
88.500236;0.13522763333334353;63;0.3828125;violin
88.6366;0.13522763333334353;70;0.3828125;violin
88.772964;0.13522763333334353;63;0.3828125;violin
88.909328;0.13522763333332932;80;0.5703125;violin
89.045692;0.13522763333332932;62;0.3828125;violin
89.182056;0.13522763333332932;79;0.5703125;violin
89.31842;0.13522763333332932;63;0.3828125;violin
89.454784;0.13522763333332932;72;0.3828125;violin
89.591148;0.13522763333332932;60;0.3828125;violin
89.727512;0.13522763333332932;71;0.3828125;violin
89.863876;0.13522763333332932;60;0.3828125;violin
90.00024;0.13522763333332932;70;0.3828125;violin
90.136604;0.13522763333332932;60;0.3828125;violin
90.272968;0.13522763333332932;69;0.3828125;violin
90.409332;0.13522763333332932;60;0.3828125;violin
90.545696;0.13522763333332932;68;0.3828125;violin
90.68206;0.13522763333332932;60;0.3828125;violin
90.81842400000001;0.13522763333332932;67;0.3828125;violin
90.95478800000001;0.13522763333332932;60;0.3828125;violin
91.09115200000001;0.13522763333332932;77;0.5703125;violin
91.22751600000001;0.13522763333332932;59;0.3828125;violin
91.36388000000001;0.13522763333332932;75;0.5703125;violin
91.50024400000001;0.13522763333332932;60;0.3828125;violin
91.63660800000001;0.13522763333332932;56;0.5703125;violin
91.77297200000001;0.13522763333332932;72;0.3828125;violin
91.90933600000001;0.13522763333332932;57;0.3828125;violin
92.04570000000001;0.13522763333332932;72;0.3828125;violin
92.18206400000001;0.13522763333332932;58;0.5703125;violin
92.31842800000001;0.13522763333332932;74;0.3828125;violin
92.45479200000001;0.13522763333332932;59;0.3828125;violin
92.59115600000001;0.13522763333332932;74;0.3828125;violin
92.72752;0.13522763333334353;60;0.5703125;violin
92.863884;0.13522763333334353;75;0.3828125;violin
93.000248;0.13522763333334353;62;0.3828125;violin
93.136612;0.13522763333334353;77;0.3828125;violin
93.272976;0.13522763333334353;63;0.3828125;violin
93.40934;0.13522763333334353;79;0.3828125;violin
93.545704;0.13522763333334353;65;0.3828125;violin
93.682068;0.13522763333334353;80;0.3828125;violin
93.818432;0.13522763333334353;67;0.5703125;violin
93.954796;0.13522763333334353;82;0.3828125;violin
94.09116;0.13522763333334353;68;0.3828125;violin
94.227524;0.13522763333332932;84;0.3828125;violin
94.363888;0.13522763333332932;66;0.5703125;violin
94.500252;0.13522763333332932;81;0.3828125;violin
94.636616;0.13522763333332932;67;0.3828125;violin
94.77298;0.13522763333332932;82;0.3828125;violin
94.909344;0.13522763333332932;64;0.5703125;violin
95.045708;0.13522763333332932;79;0.3828125;violin
95.182072;0.13522763333332932;65;0.3828125;violin
95.318436;0.13522763333332932;80;0.3828125;violin
95.4548;0.13522763333332932;62;0.5703125;violin
95.591164;0.13522763333332932;77;0.3828125;violin
95.727528;0.13522763333332932;63;0.3828125;violin
95.863892;0.13522763333332932;78;0.3828125;violin
96.00025600000001;0.13522763333332932;66;0.3828125;violin
96.13662000000001;0.13522763333332932;57;0.3828125;violin
96.27298400000001;0.13522763333332932;63;0.3828125;violin
96.40934800000001;0.13522763333332932;57;0.3828125;violin
96.54571200000001;0.13522763333332932;75;0.3828125;violin
96.68207600000001;0.13522763333332932;66;0.3828125;violin
96.81844000000001;0.13522763333332932;72;0.3828125;violin
96.95480400000001;0.13522763333332932;66;0.3828125;violin
97.09116800000001;0.13522763333332932;69;0.3828125;violin
97.22753200000001;0.13522763333332932;66;0.3828125;violin
97.36389600000001;0.13522763333332932;57;0.3828125;violin
97.50026000000001;0.13522763333332932;63;0.3828125;violin
97.63662400000001;0.13522763333332932;57;0.3828125;violin
97.77298800000001;0.13522763333332932;66;0.3828125;violin
97.90935200000001;0.13522763333332932;57;0.3828125;violin
98.045716;0.13522763333334353;63;0.3828125;violin
98.18208;0.13522763333334353;58;0.3828125;violin
98.318444;0.13522763333334353;67;0.3828125;violin
98.454808;0.13522763333334353;58;0.3828125;violin
98.591172;0.13522763333334353;75;0.5703125;violin
98.727536;0.13522763333334353;58;0.3828125;violin
98.8639;0.13522763333334353;74;0.3828125;violin
99.000264;0.13522763333334353;58;0.3828125;violin
99.136628;0.13522763333334353;73;0.3828125;violin
99.272992;0.13522763333334353;58;0.3828125;violin
99.409356;0.13522763333334353;72;0.3828125;violin
99.54572;0.13522763333332932;58;0.3828125;violin
99.682084;0.13522763333332932;71;0.3828125;violin
99.818448;0.13522763333332932;58;0.3828125;violin
99.954812;0.13522763333332932;70;0.3828125;violin
100.091176;0.13522763333332932;58;0.3828125;violin
100.22754;0.13522763333332932;67;0.3828125;violin
100.363904;0.13522763333332932;58;0.3828125;violin
100.500268;0.13522763333332932;65;0.3828125;violin
100.636632;0.13522763333332932;58;0.3828125;violin
100.772996;0.13522763333332932;74;0.5703125;violin
100.90936;0.13522763333332932;58;0.3828125;violin
101.045724;0.13522763333332932;73;0.3828125;violin
101.18208800000001;0.13522763333332932;58;0.3828125;violin
101.31845200000001;0.13522763333332932;72;0.3828125;violin
101.45481600000001;0.13522763333332932;58;0.3828125;violin
101.59118000000001;0.13522763333332932;71;0.3828125;violin
101.72754400000001;0.13522763333332932;58;0.3828125;violin
101.86390800000001;0.13522763333332932;70;0.3828125;violin
102.00027200000001;0.13522763333332932;58;0.3828125;violin
102.13663600000001;0.13522763333332932;68;0.3828125;violin
102.27300000000001;0.13522763333332932;58;0.3828125;violin
102.40936400000001;0.13522763333332932;65;0.3828125;violin
102.54572800000001;0.13522763333332932;55;0.3828125;violin
102.68209200000001;0.13522763333332932;63;0.3828125;violin
102.81845600000001;0.13522763333332932;58;0.3828125;violin
102.95482000000001;0.13522763333332932;67;0.3828125;violin
103.09118400000001;0.13522763333332932;59;0.5703125;violin
103.22754800000001;0.13522763333332932;65;0.3828125;violin
103.363912;0.13522763333334353;59;0.3828125;violin
103.500276;0.13522763333334353;62;0.3828125;violin
103.63664;0.13522763333334353;58;0.3828125;violin
103.773004;0.13522763333334353;63;0.3828125;violin
103.909368;0.13522763333334353;55;0.3828125;violin
104.045732;0.13522763333334353;70;0.3828125;violin
104.182096;0.13522763333334353;56;0.3828125;violin
104.31846;0.13522763333334353;68;0.3828125;violin
104.454824;0.13522763333334353;58;0.3828125;violin
104.591188;0.13522763333334353;65;0.3828125;violin
104.727552;0.13522763333334353;55;0.3828125;violin
104.863916;0.13522763333332932;63;0.3828125;violin
105.00028;0.13522763333332932;58;0.3828125;violin
105.136644;0.13522763333332932;67;0.3828125;violin
105.273008;0.13522763333332932;59;0.5703125;violin
105.409372;0.13522763333332932;65;0.3828125;violin
105.545736;0.13522763333332932;59;0.3828125;violin
105.6821;0.13522763333332932;62;0.3828125;violin
105.818464;0.13522763333332932;58;0.3828125;violin
105.954828;0.13522763333332932;63;0.3828125;violin
106.091192;0.13522763333332932;55;0.3828125;violin
106.227556;0.13522763333332932;70;0.3828125;violin
106.36392000000001;0.13522763333332932;56;0.3828125;violin
106.50028400000001;0.13522763333332932;68;0.3828125;violin
106.63664800000001;0.13522763333332932;58;0.3828125;violin
106.77301200000001;0.13522763333332932;65;0.3828125;violin
106.90937600000001;0.13522763333332932;55;0.3828125;violin
107.04574000000001;0.13522763333332932;63;0.3828125;violin
107.18210400000001;0.13522763333332932;82;0.5703125;violin
107.31846800000001;0.13522763333332932;70;0.390625;violin
107.45483200000001;0.13522763333332932;80;0.40625;violin
107.59119600000001;0.13522763333332932;74;0.4140625;violin
107.72756000000001;0.13522763333332932;79;0.640625;violin
107.86392400000001;0.13522763333332932;75;0.4375;violin
108.00028800000001;0.13522763333332932;77;0.453125;violin
108.13665200000001;0.13522763333332932;71;0.4609375;violin
108.27301600000001;0.13522763333332932;75;0.7109375;violin
108.40938000000001;0.13522763333332932;72;0.4921875;violin
108.545744;0.13522763333334353;73;0.5;violin
108.682108;0.13522763333334353;67;0.515625;violin
108.818472;0.13522763333334353;72;0.78125;violin
108.954836;0.13522763333334353;68;0.5390625;violin
109.0912;0.13522763333334353;70;0.546875;violin
109.227564;0.13522763333334353;64;0.5625;violin
109.363928;0.13522763333334353;68;0.8671875;violin
109.500292;0.13522763333334353;65;0.5859375;violin
109.636656;0.13522763333334353;59;0.6015625;violin
109.77302;0.13522763333334353;68;0.609375;violin
109.909384;0.13522763333334353;60;0.9375;violin
110.045748;0.13522763333332932;67;0.6328125;violin
110.182112;0.13522763333332932;56;0.96875;violin
110.318476;0.13522763333332932;65;0.6640625;violin
110.45484;0.13522763333332932;57;0.9921875;violin
110.591204;0.13522763333332932;66;0.6875;violin
110.727568;0.13522763333332932;58;0.6953125;violin
110.863932;0.13522763333332932;67;0.7109375;violin
111.000296;0.13522763333332932;58;0.71875;violin
111.13666;0.13522763333332932;65;0.734375;violin
111.273024;0.8170476333333312;55;0.75;violin
111.273024;0.8170476333333312;63;0.75;violin
111.273024;0.8170476333333312;75;0.75;violin
113.45484800000001;0.13522763333332932;87;0.3828125;violin
113.59121200000001;0.13522763333332932;75;0.3828125;violin
113.72757600000001;0.13522763333332932;87;0.3828125;violin
113.86394;0.13522763333334353;75;0.3828125;violin
114.000304;0.13522763333334353;87;0.3828125;violin
114.136668;0.13522763333334353;75;0.3828125;violin
114.273032;0.13522763333334353;87;0.3828125;violin
114.409396;0.13522763333334353;75;0.3828125;violin
114.54576;0.13522763333334353;87;0.3828125;violin
114.682124;0.13522763333334353;75;0.3828125;violin
114.818488;0.13522763333334353;86;0.3828125;violin
114.954852;0.13522763333334353;75;0.3828125;violin
115.091216;0.13522763333334353;84;0.3828125;violin
115.22758;0.13522763333334353;75;0.3828125;violin
115.363944;0.13522763333332932;83;0.3828125;violin
115.500308;0.13522763333332932;75;0.3828125;violin
115.636672;0.13522763333332932;81;0.3828125;violin
115.773036;0.13522763333332932;75;0.3828125;violin
115.9094;0.13522763333332932;82;0.3828125;violin
116.045764;0.13522763333332932;75;0.3828125;violin
116.182128;0.13522763333332932;91;0.3828125;violin
116.318492;0.13522763333332932;75;0.3828125;violin
116.454856;0.13522763333332932;89;0.3828125;violin
116.59122;0.13522763333332932;75;0.3828125;violin
116.72758400000001;0.13522763333332932;87;0.3828125;violin
116.86394800000001;0.13522763333332932;75;0.3828125;violin
117.00031200000001;0.13522763333332932;86;0.3828125;violin
117.13667600000001;0.13522763333332932;75;0.3828125;violin
117.27304000000001;0.13522763333332932;84;0.3828125;violin
117.40940400000001;0.13522763333332932;75;0.3828125;violin
117.54576800000001;0.13522763333332932;82;0.3828125;violin
117.68213200000001;0.13522763333332932;75;0.3828125;violin
117.81849600000001;0.13522763333332932;84;0.3828125;violin
117.95486000000001;0.13522763333332932;74;0.3828125;violin
118.09122400000001;0.13522763333332932;82;0.3828125;violin
118.22758800000001;0.13522763333332932;74;0.3828125;violin
118.36395200000001;0.13522763333332932;83;0.5703125;violin
118.50031600000001;0.13522763333332932;74;0.3828125;violin
118.63668000000001;0.13522763333332932;82;0.3828125;violin
118.77304400000001;0.13522763333332932;74;0.3828125;violin
118.90940800000001;0.13522763333332932;84;0.3828125;violin
119.04577200000001;0.13522763333332932;74;0.3828125;violin
119.182136;0.13522763333334353;82;0.3828125;violin
119.3185;0.13522763333334353;74;0.3828125;violin
119.454864;0.13522763333334353;83;0.5703125;violin
119.591228;0.13522763333334353;74;0.3828125;violin
119.727592;0.13522763333334353;82;0.3828125;violin
119.863956;0.13522763333334353;74;0.3828125;violin
120.00032;0.13522763333334353;79;0.5703125;violin
120.136684;0.13522763333334353;87;0.3828125;violin
120.273048;0.13522763333334353;81;0.3828125;violin
120.409412;0.13522763333334353;82;0.3828125;violin
120.545776;0.13522763333334353;77;0.5703125;violin
120.68214;0.13522763333332932;86;0.3828125;violin
120.818504;0.13522763333332932;81;0.3828125;violin
120.954868;0.13522763333332932;82;0.3828125;violin
121.091232;0.13522763333332932;75;0.5703125;violin
121.227596;0.13522763333332932;94;0.3828125;violin
121.36396;0.13522763333332932;90;0.3828125;violin
121.500324;0.13522763333332932;91;0.3828125;violin
121.636688;0.13522763333332932;86;0.3828125;violin
121.773052;0.13522763333332932;87;0.3828125;violin
121.90941600000001;0.13522763333332932;82;0.3828125;violin
122.04578000000001;0.13522763333332932;79;0.3828125;violin
122.18214400000001;0.13522763333332932;88;0.3828125;violin
122.31850800000001;0.13522763333332932;76;0.3828125;violin
122.45487200000001;0.13522763333332932;88;0.3828125;violin
122.59123600000001;0.13522763333332932;76;0.3828125;violin
122.72760000000001;0.13522763333332932;88;0.3828125;violin
122.86396400000001;0.13522763333332932;76;0.3828125;violin
123.00032800000001;0.13522763333332932;88;0.3828125;violin
123.13669200000001;0.13522763333332932;76;0.3828125;violin
123.27305600000001;0.13522763333332932;88;0.3828125;violin
123.40942000000001;0.13522763333332932;76;0.3828125;violin
123.54578400000001;0.13522763333332932;85;0.3828125;violin
123.68214800000001;0.13522763333332932;76;0.3828125;violin
123.81851200000001;0.13522763333332932;84;0.3828125;violin
123.95487600000001;0.13522763333332932;76;0.3828125;violin
124.09124000000001;0.13522763333332932;82;0.3828125;violin
124.22760400000001;0.13522763333332932;76;0.3828125;violin
124.36396800000001;0.13522763333332932;80;0.3828125;violin
124.500332;0.13522763333334353;77;0.3828125;violin
124.636696;0.13522763333334353;79;0.5703125;violin
124.77306;0.13522763333334353;72;0.3828125;violin
124.909424;0.13522763333334353;77;0.3828125;violin
125.045788;0.13522763333334353;73;0.3828125;violin
125.182152;0.13522763333334353;75;0.5703125;violin
125.318516;0.13522763333334353;69;0.3828125;violin
125.45488;0.13522763333334353;73;0.3828125;violin
125.591244;0.13522763333334353;70;0.3828125;violin
125.727608;0.13522763333334353;72;0.5703125;violin
125.863972;0.13522763333334353;65;0.3828125;violin
126.000336;0.13522763333332932;70;0.3828125;violin
126.1367;0.13522763333332932;66;0.3828125;violin
126.273064;0.13522763333332932;73;0.5703125;violin
126.409428;0.13522763333332932;65;0.3828125;violin
126.545792;0.13522763333332932;72;0.3828125;violin
126.682156;0.13522763333332932;64;0.3828125;violin
126.81852;0.13522763333332932;70;0.5703125;violin
126.954884;0.13522763333332932;64;0.3828125;violin
127.09124800000001;0.13522763333332932;68;0.3828125;violin
127.22761200000001;0.13522763333332932;65;0.3828125;violin
127.36397600000001;0.13522763333332932;71;0.5703125;violin
127.50034000000001;0.13522763333332932;63;0.3828125;violin
127.63670400000001;0.13522763333332932;70;0.3828125;violin
127.77306800000001;0.13522763333332932;62;0.3828125;violin
127.90943200000001;0.13522763333332932;68;0.5703125;violin
128.045796;0.13522763333335774;62;0.3828125;violin
128.18216;0.13522763333332932;66;0.3828125;violin
128.318524;0.13522763333335774;63;0.3828125;violin
128.454888;0.13522763333332932;70;0.5703125;violin
128.591252;0.13522763333332932;61;0.3828125;violin
128.727616;0.13522763333332932;71;0.5703125;violin
128.86398;0.13522763333332932;59;0.3828125;violin
129.000344;0.13522763333332932;70;0.3828125;violin
129.136708;0.13522763333332932;59;0.3828125;violin
129.273072;0.13522763333332932;69;0.3828125;violin
129.409436;0.13522763333332932;59;0.3828125;violin
129.5458;0.13522763333332932;68;0.3828125;violin
129.682164;0.13522763333332932;59;0.3828125;violin
129.81852800000001;0.13522763333332932;67;0.3828125;violin
129.954892;0.13522763333332932;59;0.3828125;violin
130.09125600000002;0.13522763333332932;66;0.3828125;violin
130.22762;0.13522763333332932;59;0.3828125;violin
130.36398400000002;0.13522763333332932;76;0.5703125;violin
130.500348;0.13522763333332932;58;0.3828125;violin
130.63671200000002;0.13522763333332932;75;0.5703125;violin
130.773076;0.13522763333332932;59;0.3828125;violin
130.90944000000002;0.13522763333332932;68;0.5703125;violin
131.045804;0.13522763333332932;56;0.3828125;violin
131.18216800000002;0.13522763333332932;67;0.3828125;violin
131.318532;0.13522763333332932;56;0.3828125;violin
131.45489600000002;0.13522763333332932;66;0.3828125;violin
131.59126;0.13522763333332932;56;0.3828125;violin
131.72762400000002;0.13522763333332932;65;0.3828125;violin
131.863988;0.13522763333332932;56;0.3828125;violin
132.00035200000002;0.13522763333332932;64;0.3828125;violin
132.136716;0.13522763333332932;56;0.3828125;violin
132.27308000000002;0.13522763333332932;63;0.3828125;violin
132.409444;0.13522763333332932;56;0.3828125;violin
132.545808;0.13522763333335774;73;0.5703125;violin
132.682172;0.13522763333332932;55;0.3828125;violin
132.818536;0.13522763333335774;71;0.5703125;violin
132.9549;0.13522763333332932;56;0.3828125;violin
133.091264;0.13522763333335774;76;0.5703125;violin
133.227628;0.13522763333332932;64;0.3828125;violin
133.363992;0.13522763333335774;76;0.3828125;violin
133.500356;0.13522763333332932;64;0.3828125;violin
133.63672;0.13522763333335774;76;0.3828125;violin
133.773084;0.13522763333332932;64;0.3828125;violin
133.909448;0.13522763333332932;75;0.3828125;violin
134.045812;0.13522763333332932;71;0.3828125;violin
134.182176;0.13522763333332932;73;0.3828125;violin
134.31854;0.13522763333332932;69;0.3828125;violin
134.454904;0.13522763333332932;71;0.3828125;violin
134.591268;0.13522763333332932;68;0.3828125;violin
134.727632;0.13522763333332932;69;0.3828125;violin
134.86399600000001;0.13522763333332932;66;0.3828125;violin
135.00036;0.13522763333332932;68;0.3828125;violin
135.13672400000002;0.13522763333332932;64;0.3828125;violin
135.273088;0.13522763333332932;66;0.3828125;violin
135.40945200000002;0.13522763333332932;63;0.3828125;violin
135.545816;0.13522763333332932;64;0.3828125;violin
135.68218000000002;0.13522763333332932;61;0.3828125;violin
135.818544;0.13522763333332932;63;0.3828125;violin
135.95490800000002;0.13522763333332932;59;0.3828125;violin
136.091272;0.13522763333332932;61;0.3828125;violin
136.22763600000002;0.13522763333332932;58;0.3828125;violin
136.364;0.13522763333332932;83;0.3828125;violin
136.50036400000002;0.13522763333332932;71;0.3828125;violin
136.636728;0.13522763333332932;83;0.3828125;violin
136.77309200000002;0.13522763333332932;71;0.3828125;violin
136.909456;0.13522763333332932;83;0.3828125;violin
137.04582000000002;0.13522763333332932;71;0.3828125;violin
137.182184;0.13522763333332932;59;0.3828125;violin
137.31854800000002;0.13522763333332932;63;0.3828125;violin
137.454912;0.13522763333332932;61;0.3828125;violin
137.59127600000002;0.13522763333332932;64;0.3828125;violin
137.72764;0.13522763333332932;63;0.3828125;violin
137.864004;0.13522763333335774;66;0.3828125;violin
138.000368;0.13522763333332932;64;0.3828125;violin
138.136732;0.13522763333335774;68;0.3828125;violin
138.273096;0.13522763333332932;83;0.3828125;violin
138.40946;0.13522763333335774;71;0.3828125;violin
138.545824;0.13522763333332932;84;0.3828125;violin
138.682188;0.13522763333335774;72;0.3828125;violin
138.818552;0.13522763333332932;84;0.3828125;violin
138.954916;0.13522763333335774;72;0.3828125;violin
139.09128;0.13522763333332932;84;0.3828125;violin
139.227644;0.13522763333332932;72;0.3828125;violin
139.364008;0.13522763333332932;60;0.3828125;violin
139.500372;0.13522763333332932;64;0.3828125;violin
139.636736;0.13522763333332932;62;0.3828125;violin
139.7731;0.13522763333332932;65;0.3828125;violin
139.909464;0.13522763333332932;64;0.3828125;violin
140.045828;0.13522763333332932;67;0.3828125;violin
140.18219200000001;0.13522763333332932;65;0.3828125;violin
140.318556;0.13522763333332932;68;0.3828125;violin
140.45492000000002;0.13522763333332932;84;0.3828125;violin
140.591284;0.13522763333332932;72;0.3828125;violin
140.72764800000002;0.13522763333332932;85;0.3828125;violin
140.864012;0.13522763333332932;73;0.3828125;violin
141.00037600000002;0.13522763333332932;85;0.3828125;violin
141.13674;0.13522763333332932;73;0.3828125;violin
141.27310400000002;0.13522763333332932;85;0.3828125;violin
141.409468;0.13522763333332932;73;0.3828125;violin
141.54583200000002;0.13522763333332932;61;0.3828125;violin
141.682196;0.13522763333332932;65;0.3828125;violin
141.81856000000002;0.13522763333332932;63;0.3828125;violin
141.954924;0.13522763333332932;66;0.3828125;violin
142.09128800000002;0.13522763333332932;65;0.3828125;violin
142.227652;0.13522763333332932;68;0.3828125;violin
142.36401600000002;0.13522763333332932;66;0.3828125;violin
142.50038;0.13522763333332932;69;0.3828125;violin
142.63674400000002;0.13522763333332932;85;0.3828125;violin
142.773108;0.13522763333332932;73;0.3828125;violin
142.90947200000002;0.13522763333332932;86;0.3828125;violin
143.045836;0.13522763333332932;74;0.3828125;violin
143.1822;0.13522763333335774;86;0.3828125;violin
143.318564;0.13522763333332932;74;0.3828125;violin
143.454928;0.13522763333335774;86;0.3828125;violin
143.591292;0.13522763333332932;74;0.3828125;violin
143.727656;0.13522763333335774;86;0.3828125;violin
143.86402;0.13522763333332932;74;0.3828125;violin
144.000384;0.13522763333335774;87;0.3828125;violin
144.136748;0.13522763333332932;75;0.3828125;violin
144.273112;0.13522763333335774;87;0.3828125;violin
144.409476;0.13522763333332932;75;0.3828125;violin
144.54584;0.13522763333332932;87;0.3828125;violin
144.682204;0.13522763333332932;75;0.3828125;violin
144.818568;0.13522763333332932;87;0.3828125;violin
144.954932;0.13522763333332932;75;0.3828125;violin
145.091296;0.13522763333332932;87;0.3828125;violin
145.22766000000001;0.13522763333332932;75;0.3828125;violin
145.364024;0.13522763333332932;84;0.3828125;violin
145.50038800000002;0.13522763333332932;75;0.3828125;violin
145.636752;0.13522763333332932;83;0.3828125;violin
145.77311600000002;0.13522763333332932;75;0.3828125;violin
145.90948;0.13522763333332932;81;0.3828125;violin
146.04584400000002;0.13522763333332932;75;0.3828125;violin
146.182208;0.13522763333332932;79;0.3828125;violin
146.31857200000002;0.13522763333332932;76;0.3828125;violin
146.454936;0.13522763333332932;78;0.3828125;violin
146.59130000000002;0.13522763333332932;71;0.3828125;violin
146.727664;0.13522763333332932;76;0.3828125;violin
146.86402800000002;0.13522763333332932;72;0.3828125;violin
147.000392;0.13522763333332932;74;0.3828125;violin
147.13675600000002;0.13522763333332932;68;0.3828125;violin
147.27312;0.13522763333332932;72;0.3828125;violin
147.40948400000002;0.13522763333332932;69;0.3828125;violin
147.545848;0.13522763333332932;71;0.3828125;violin
147.68221200000002;0.13522763333332932;64;0.3828125;violin
147.818576;0.13522763333332932;69;0.3828125;violin
147.95494000000002;0.13522763333332932;65;0.3828125;violin
148.091304;0.13522763333332932;72;0.3828125;violin
148.22766800000002;0.13522763333332932;64;0.3828125;violin
148.364032;0.13522763333332932;71;0.3828125;violin
148.500396;0.13522763333335774;63;0.3828125;violin
148.63676;0.13522763333332932;69;0.3828125;violin
148.773124;0.13522763333335774;63;0.3828125;violin
148.909488;0.13522763333332932;67;0.3828125;violin
149.045852;0.13522763333335774;64;0.3828125;violin
149.182216;0.13522763333332932;70;0.3828125;violin
149.31858;0.13522763333335774;62;0.3828125;violin
149.454944;0.13522763333332932;69;0.3828125;violin
149.591308;0.13522763333335774;61;0.3828125;violin
149.727672;0.13522763333332932;67;0.3828125;violin
149.864036;0.13522763333332932;61;0.3828125;violin
150.0004;0.13522763333332932;65;0.3828125;violin
150.136764;0.13522763333332932;62;0.3828125;violin
150.273128;0.13522763333332932;69;0.3828125;violin
150.409492;0.13522763333332932;60;0.3828125;violin
150.54585600000001;0.13522763333332932;70;0.3828125;violin
150.68222;0.13522763333332932;58;0.3828125;violin
150.81858400000002;0.13522763333332932;69;0.3828125;violin
150.954948;0.13522763333332932;58;0.3828125;violin
151.09131200000002;0.13522763333332932;68;0.3828125;violin
151.227676;0.13522763333332932;58;0.3828125;violin
151.36404000000002;0.13522763333332932;67;0.3828125;violin
151.500404;0.13522763333332932;58;0.3828125;violin
151.63676800000002;0.13522763333332932;66;0.3828125;violin
151.773132;0.13522763333332932;58;0.3828125;violin
151.90949600000002;0.13522763333332932;65;0.3828125;violin
152.04586;0.13522763333332932;58;0.3828125;violin
152.18222400000002;0.13522763333332932;75;0.5703125;violin
152.318588;0.13522763333332932;57;0.3828125;violin
152.45495200000002;0.13522763333332932;74;0.5703125;violin
152.591316;0.13522763333332932;58;0.3828125;violin
152.72768000000002;0.13522763333332932;79;0.3828125;violin
152.864044;0.13522763333332932;67;0.3828125;violin
153.00040800000002;0.13522763333332932;78;0.3828125;violin
153.136772;0.13522763333332932;67;0.3828125;violin
153.27313600000002;0.13522763333332932;77;0.3828125;violin
153.4095;0.13522763333332932;67;0.3828125;violin
153.545864;0.13522763333335774;76;0.3828125;violin
153.682228;0.13522763333332932;67;0.3828125;violin
153.818592;0.13522763333335774;75;0.3828125;violin
153.954956;0.13522763333332932;67;0.3828125;violin
154.09132;0.13522763333335774;74;0.3828125;violin
154.227684;0.13522763333332932;67;0.3828125;violin
154.364048;0.13522763333335774;84;0.5703125;violin
154.500412;0.13522763333332932;66;0.3828125;violin
154.636776;0.13522763333335774;82;0.5703125;violin
154.77314;0.13522763333332932;67;0.3828125;violin
154.909504;0.13522763333335774;75;0.3828125;violin
155.045868;0.13522763333332932;63;0.3828125;violin
155.182232;0.13522763333332932;75;0.3828125;violin
155.318596;0.13522763333332932;63;0.3828125;violin
155.45496;0.13522763333332932;75;0.3828125;violin
155.59132400000001;0.13522763333332932;63;0.3828125;violin
155.727688;0.13522763333332932;74;0.3828125;violin
155.86405200000002;0.13522763333332932;70;0.3828125;violin
156.000416;0.13522763333332932;72;0.3828125;violin
156.13678000000002;0.13522763333332932;68;0.3828125;violin
156.273144;0.13522763333332932;70;0.3828125;violin
156.40950800000002;0.13522763333332932;67;0.3828125;violin
156.545872;0.13522763333332932;68;0.3828125;violin
156.68223600000002;0.13522763333332932;65;0.3828125;violin
156.8186;0.13522763333332932;67;0.3828125;violin
156.95496400000002;0.13522763333332932;63;0.3828125;violin
157.091328;0.13522763333332932;65;0.3828125;violin
157.22769200000002;0.13522763333332932;62;0.3828125;violin
157.364056;0.13522763333332932;63;0.3828125;violin
157.50042000000002;0.13522763333332932;60;0.3828125;violin
157.636784;0.13522763333332932;62;0.3828125;violin
157.77314800000002;0.13522763333332932;58;0.3828125;violin
157.909512;0.13522763333332932;60;0.3828125;violin
158.04587600000002;0.13522763333332932;57;0.3828125;violin
158.18224;0.13522763333332932;82;0.3828125;violin
158.31860400000002;0.13522763333332932;70;0.3828125;violin
158.454968;0.13522763333332932;82;0.3828125;violin
158.59133200000002;0.13522763333332932;70;0.3828125;violin
158.727696;0.13522763333332932;82;0.3828125;violin
158.86406;0.13522763333335774;70;0.3828125;violin
159.000424;0.13522763333332932;58;0.3828125;violin
159.136788;0.13522763333335774;62;0.3828125;violin
159.273152;0.13522763333332932;60;0.3828125;violin
159.409516;0.13522763333335774;63;0.3828125;violin
159.54588;0.13522763333332932;62;0.3828125;violin
159.682244;0.13522763333335774;65;0.3828125;violin
159.818608;0.13522763333332932;63;0.3828125;violin
159.954972;0.13522763333335774;66;0.3828125;violin
160.091336;0.13522763333332932;82;0.3828125;violin
160.2277;0.13522763333335774;70;0.3828125;violin
160.364064;0.13522763333332932;83;0.3828125;violin
160.500428;0.13522763333332932;71;0.3828125;violin
160.636792;0.13522763333332932;83;0.3828125;violin
160.773156;0.13522763333332932;71;0.3828125;violin
160.90952000000001;0.13522763333332932;83;0.3828125;violin
161.045884;0.13522763333332932;71;0.3828125;violin
161.18224800000002;0.13522763333332932;59;0.3828125;violin
161.318612;0.13522763333332932;63;0.3828125;violin
161.45497600000002;0.13522763333332932;61;0.3828125;violin
161.59134;0.13522763333332932;64;0.3828125;violin
161.72770400000002;0.13522763333332932;63;0.3828125;violin
161.864068;0.13522763333332932;66;0.3828125;violin
162.00043200000002;0.13522763333332932;64;0.3828125;violin
162.136796;0.13522763333332932;67;0.3828125;violin
162.27316000000002;0.13522763333332932;83;0.3828125;violin
162.409524;0.13522763333332932;71;0.3828125;violin
162.54588800000002;0.13522763333332932;84;0.3828125;violin
162.682252;0.13522763333332932;72;0.3828125;violin
162.81861600000002;0.13522763333332932;84;0.3828125;violin
162.95498;0.13522763333332932;72;0.3828125;violin
163.09134400000002;0.13522763333332932;84;0.3828125;violin
163.227708;0.13522763333332932;72;0.3828125;violin
163.36407200000002;0.13522763333332932;60;0.3828125;violin
163.500436;0.13522763333332932;64;0.3828125;violin
163.63680000000002;0.13522763333332932;62;0.3828125;violin
163.773164;0.13522763333332932;65;0.3828125;violin
163.90952800000002;0.13522763333332932;64;0.3828125;violin
164.045892;0.13522763333332932;67;0.3828125;violin
164.182256;0.13522763333335774;65;0.3828125;violin
164.31862;0.13522763333332932;68;0.3828125;violin
164.454984;0.13522763333335774;84;0.3828125;violin
164.591348;0.13522763333332932;72;0.3828125;violin
164.727712;0.13522763333335774;85;0.3828125;violin
164.864076;0.13522763333332932;73;0.3828125;violin
165.00044;0.13522763333335774;85;0.3828125;violin
165.136804;0.13522763333332932;73;0.3828125;violin
165.273168;0.13522763333335774;85;0.3828125;violin
165.409532;0.13522763333332932;73;0.3828125;violin
165.545896;0.13522763333335774;85;0.3828125;violin
165.68226;0.13522763333332932;73;0.3828125;violin
165.818624;0.13522763333332932;86;0.3828125;violin
165.95498800000001;0.13522763333332932;74;0.3828125;violin
166.091352;0.13522763333332932;86;0.3828125;violin
166.22771600000002;0.13522763333332932;74;0.3828125;violin
166.36408;0.13522763333332932;86;0.3828125;violin
166.50044400000002;0.13522763333332932;74;0.3828125;violin
166.636808;0.13522763333332932;86;0.3828125;violin
166.77317200000002;0.13522763333332932;74;0.3828125;violin
166.909536;0.13522763333332932;86;0.3828125;violin
167.04590000000002;0.13522763333332932;74;0.3828125;violin
167.182264;0.13522763333332932;83;0.3828125;violin
167.31862800000002;0.13522763333332932;74;0.3828125;violin
167.454992;0.13522763333332932;82;0.3828125;violin
167.59135600000002;0.13522763333332932;74;0.3828125;violin
167.72772;0.13522763333332932;80;0.3828125;violin
167.86408400000002;0.13522763333332932;74;0.3828125;violin
168.000448;0.13522763333332932;78;0.3828125;violin
168.13681200000002;0.13522763333332932;75;0.3828125;violin
168.273176;0.13522763333332932;77;0.3828125;violin
168.40954000000002;0.13522763333332932;70;0.3828125;violin
168.545904;0.13522763333332932;75;0.3828125;violin
168.68226800000002;0.13522763333332932;71;0.3828125;violin
168.818632;0.13522763333332932;73;0.3828125;violin
168.95499600000002;0.13522763333332932;66;0.3828125;violin
169.09136;0.13522763333332932;71;0.3828125;violin
169.22772400000002;0.13522763333332932;68;0.3828125;violin
169.364088;0.13522763333332932;70;0.3828125;violin
169.500452;0.13522763333335774;63;0.3828125;violin
169.636816;0.13522763333332932;68;0.3828125;violin
169.77318;0.13522763333335774;65;0.3828125;violin
169.909544;0.13522763333332932;71;0.3828125;violin
170.045908;0.13522763333335774;63;0.3828125;violin
170.182272;0.13522763333332932;70;0.3828125;violin
170.318636;0.13522763333335774;62;0.3828125;violin
170.455;0.13522763333332932;68;0.3828125;violin
170.591364;0.13522763333335774;62;0.3828125;violin
170.727728;0.13522763333332932;66;0.3828125;violin
170.864092;0.13522763333335774;63;0.3828125;violin
171.000456;0.13522763333332932;69;0.3828125;violin
171.13682;0.13522763333332932;61;0.3828125;violin
171.27318400000001;0.13522763333332932;68;0.3828125;violin
171.409548;0.13522763333332932;60;0.3828125;violin
171.54591200000002;0.13522763333332932;66;0.3828125;violin
171.682276;0.13522763333332932;60;0.3828125;violin
171.81864000000002;0.13522763333332932;64;0.3828125;violin
171.955004;0.13522763333332932;61;0.3828125;violin
172.09136800000002;0.13522763333332932;68;0.3828125;violin
172.227732;0.13522763333332932;59;0.3828125;violin
172.36409600000002;0.13522763333332932;69;0.3828125;violin
172.50046;0.13522763333332932;57;0.3828125;violin
172.63682400000002;0.13522763333332932;68;0.3828125;violin
172.773188;0.13522763333332932;57;0.3828125;violin
172.90955200000002;0.13522763333332932;67;0.3828125;violin
173.045916;0.13522763333332932;57;0.3828125;violin
173.18228000000002;0.13522763333332932;66;0.3828125;violin
173.318644;0.13522763333332932;57;0.3828125;violin
173.45500800000002;0.13522763333332932;65;0.3828125;violin
173.591372;0.13522763333332932;56;0.3828125;violin
173.72773600000002;0.13522763333332932;64;0.3828125;violin
173.8641;0.13522763333332932;56;0.3828125;violin
174.00046400000002;0.13522763333332932;66;0.5703125;violin
174.136828;0.13522763333332932;57;0.3828125;violin
174.27319200000002;0.13522763333332932;64;0.5703125;violin
174.409556;0.13522763333332932;57;0.3828125;violin
174.54592000000002;0.13522763333332932;67;0.3828125;violin
174.682284;0.13522763333332932;58;0.3828125;violin
174.818648;0.13522763333335774;66;0.3828125;violin
174.955012;0.13522763333332932;58;0.3828125;violin
175.091376;0.13522763333335774;67;0.3828125;violin
175.22774;0.13522763333332932;59;0.3828125;violin
175.364104;0.13522763333335774;66;0.3828125;violin
175.500468;0.13522763333332932;59;0.3828125;violin
175.636832;0.13522763333335774;68;0.3828125;violin
175.773196;0.13522763333332932;59;0.3828125;violin
175.90956;0.13522763333335774;67;0.3828125;violin
176.045924;0.13522763333332932;59;0.3828125;violin
176.182288;0.13522763333335774;68;0.3828125;violin
176.31865200000001;0.13522763333332932;60;0.3828125;violin
176.455016;0.13522763333332932;65;0.3828125;violin
176.59138000000002;0.13522763333332932;62;0.3828125;violin
176.727744;0.13522763333332932;67;0.3828125;violin
176.86410800000002;0.13522763333332932;63;0.3828125;violin
177.000472;0.13522763333332932;67;0.3828125;violin
177.13683600000002;0.13522763333332932;61;0.3828125;violin
177.2732;0.13522763333332932;70;0.3828125;violin
177.40956400000002;0.13522763333332932;58;0.3828125;violin
177.545928;0.13522763333332932;73;0.3828125;violin
177.68229200000002;0.13522763333332932;55;0.3828125;violin
177.818656;0.13522763333332932;72;0.3828125;violin
177.95502000000002;0.13522763333332932;56;0.3828125;violin
178.091384;0.13522763333332932;70;0.3828125;violin
178.22774800000002;0.13522763333332932;58;0.3828125;violin
178.364112;0.13522763333332932;68;0.3828125;violin
178.50047600000002;0.13522763333332932;60;0.3828125;violin
178.63684;0.13522763333332932;65;0.3828125;violin
178.77320400000002;0.13522763333332932;62;0.3828125;violin
178.909568;0.13522763333332932;67;0.3828125;violin
179.04593200000002;0.13522763333332932;63;0.3828125;violin
179.182296;0.13522763333332932;77;0.3828125;violin
179.31866000000002;0.13522763333332932;62;0.3828125;violin
179.455024;0.13522763333332932;79;0.3828125;violin
179.59138800000002;0.13522763333332932;63;0.3828125;violin
179.727752;0.13522763333332932;80;0.3828125;violin
179.86411600000002;0.13522763333332932;65;0.3828125;violin
180.00048;0.13522763333332932;82;0.3828125;violin
180.136844;0.13522763333335774;67;0.3828125;violin
180.273208;0.13522763333332932;84;0.3828125;violin
180.409572;0.13522763333335774;68;0.3828125;violin
180.545936;0.13522763333332932;85;0.3828125;violin
180.6823;0.13522763333335774;70;0.3828125;violin
180.818664;0.13522763333332932;82;0.3828125;violin
180.955028;0.13522763333335774;67;0.3828125;violin
181.091392;0.13522763333332932;80;0.3828125;violin
181.227756;0.13522763333335774;68;0.3828125;violin
181.36412;0.13522763333332932;79;0.3828125;violin
181.500484;0.13522763333335774;68;0.3828125;violin
181.63684800000001;0.13522763333332932;78;0.3828125;violin
181.773212;0.13522763333332932;68;0.3828125;violin
181.90957600000002;0.13522763333332932;77;0.3828125;violin
182.04594;0.13522763333332932;68;0.3828125;violin
182.18230400000002;0.13522763333332932;76;0.3828125;violin
182.318668;0.13522763333332932;68;0.3828125;violin
182.45503200000002;0.13522763333332932;75;0.3828125;violin
182.591396;0.13522763333332932;68;0.3828125;violin
182.72776000000002;0.13522763333332932;85;0.5703125;violin
182.864124;0.13522763333332932;67;0.3828125;violin
183.00048800000002;0.13522763333332932;84;0.5703125;violin
183.136852;0.13522763333332932;68;0.3828125;violin
183.27321600000002;0.13522763333332932;77;0.3828125;violin
183.40958;0.13522763333332932;65;0.3828125;violin
183.54594400000002;0.13522763333332932;76;0.3828125;violin
183.682308;0.13522763333332932;65;0.3828125;violin
183.81867200000002;0.13522763333332932;75;0.3828125;violin
183.955036;0.13522763333332932;65;0.3828125;violin
184.09140000000002;0.13522763333332932;74;0.3828125;violin
184.227764;0.13522763333332932;65;0.3828125;violin
184.36412800000002;0.13522763333332932;73;0.3828125;violin
184.500492;0.13522763333332932;65;0.3828125;violin
184.63685600000002;0.13522763333332932;72;0.3828125;violin
184.77322;0.13522763333332932;65;0.3828125;violin
184.90958400000002;0.13522763333332932;82;0.5703125;violin
185.045948;0.13522763333332932;64;0.3828125;violin
185.18231200000002;0.13522763333332932;80;0.5703125;violin
185.318676;0.13522763333332932;65;0.3828125;violin
185.45504;0.13522763333335774;61;0.5703125;violin
185.591404;0.13522763333332932;77;0.3828125;violin
185.727768;0.13522763333335774;62;0.3828125;violin
185.864132;0.13522763333332932;77;0.3828125;violin
186.000496;0.13522763333335774;63;0.5703125;violin
186.13686;0.13522763333332932;79;0.3828125;violin
186.273224;0.13522763333335774;64;0.3828125;violin
186.409588;0.13522763333332932;79;0.3828125;violin
186.545952;0.13522763333335774;65;0.5703125;violin
186.68231600000001;0.13522763333332932;80;0.3828125;violin
186.81868;0.13522763333332932;67;0.3828125;violin
186.95504400000002;0.13522763333332932;82;0.3828125;violin
187.091408;0.13522763333332932;68;0.3828125;violin
187.22777200000002;0.13522763333332932;84;0.3828125;violin
187.364136;0.13522763333332932;70;0.3828125;violin
187.50050000000002;0.13522763333332932;85;0.3828125;violin
187.636864;0.13522763333332932;72;0.5703125;violin
187.77322800000002;0.13522763333332932;87;0.3828125;violin
187.909592;0.13522763333332932;73;0.3828125;violin
188.04595600000002;0.13522763333332932;89;0.3828125;violin
188.18232;0.13522763333332932;71;0.5703125;violin
188.31868400000002;0.13522763333332932;86;0.3828125;violin
188.455048;0.13522763333332932;72;0.3828125;violin
188.59141200000002;0.13522763333332932;87;0.3828125;violin
188.727776;0.13522763333332932;69;0.5703125;violin
188.86414000000002;0.13522763333332932;84;0.3828125;violin
189.000504;0.13522763333332932;70;0.3828125;violin
189.13686800000002;0.13522763333332932;85;0.3828125;violin
189.273232;0.13522763333332932;67;0.5703125;violin
189.40959600000002;0.13522763333332932;83;0.3828125;violin
189.54596;0.13522763333332932;68;0.3828125;violin
189.68232400000002;0.13522763333332932;84;0.3828125;violin
189.818688;0.13522763333332932;71;0.5703125;violin
189.95505200000002;0.13522763333332932;62;0.3828125;violin
190.091416;0.13522763333332932;68;0.3828125;violin
190.22778000000002;0.13522763333332932;62;0.3828125;violin
190.364144;0.13522763333332932;80;0.3828125;violin
190.50050800000002;0.13522763333332932;71;0.3828125;violin
190.636872;0.13522763333332932;77;0.3828125;violin
190.773236;0.13522763333335774;71;0.3828125;violin
190.9096;0.13522763333332932;74;0.3828125;violin
191.045964;0.13522763333335774;71;0.3828125;violin
191.182328;0.13522763333332932;62;0.3828125;violin
191.318692;0.13522763333335774;68;0.3828125;violin
191.455056;0.13522763333332932;62;0.3828125;violin
191.59142;0.13522763333335774;71;0.3828125;violin
191.727784;0.13522763333332932;62;0.3828125;violin
191.864148;0.13522763333335774;68;0.3828125;violin
192.00051200000001;0.13522763333332932;63;0.3828125;violin
192.136876;0.13522763333332932;72;0.3828125;violin
192.27324000000002;0.13522763333332932;63;0.3828125;violin
192.409604;0.13522763333332932;80;0.5703125;violin
192.54596800000002;0.13522763333332932;63;0.3828125;violin
192.682332;0.13522763333332932;79;0.3828125;violin
192.81869600000002;0.13522763333332932;63;0.3828125;violin
192.95506;0.13522763333332932;78;0.3828125;violin
193.09142400000002;0.13522763333332932;63;0.3828125;violin
193.227788;0.13522763333332932;77;0.3828125;violin
193.36415200000002;0.13522763333332932;63;0.3828125;violin
193.500516;0.13522763333332932;76;0.3828125;violin
193.63688000000002;0.13522763333332932;63;0.3828125;violin
193.773244;0.13522763333332932;75;0.3828125;violin
193.90960800000002;0.13522763333332932;63;0.3828125;violin
194.045972;0.13522763333332932;72;0.3828125;violin
194.18233600000002;0.13522763333332932;63;0.3828125;violin
194.3187;0.13522763333332932;70;0.3828125;violin
194.45506400000002;0.13522763333332932;63;0.3828125;violin
194.591428;0.13522763333332932;79;0.5703125;violin
194.72779200000002;0.13522763333332932;63;0.3828125;violin
194.864156;0.13522763333332932;78;0.3828125;violin
195.00052000000002;0.13522763333332932;63;0.3828125;violin
195.136884;0.13522763333332932;77;0.3828125;violin
195.27324800000002;0.13522763333332932;63;0.3828125;violin
195.409612;0.13522763333332932;76;0.3828125;violin
195.54597600000002;0.13522763333332932;63;0.3828125;violin
195.68234;0.13522763333332932;75;0.3828125;violin
195.81870400000003;0.13522763333332932;63;0.3828125;violin
195.955068;0.13522763333332932;73;0.3828125;violin
196.091432;0.13522763333335774;63;0.3828125;violin
196.227796;0.13522763333332932;70;0.3828125;violin
196.36416;0.13522763333335774;56;0.3828125;violin
196.500524;0.13522763333332932;68;0.3828125;violin
196.636888;0.13522763333335774;60;0.3828125;violin
196.773252;0.13522763333332932;63;0.3828125;violin
196.909616;0.13522763333335774;61;0.3828125;violin
197.04598000000001;0.13522763333332932;65;0.3828125;violin
197.182344;0.13522763333335774;61;0.3828125;violin
197.31870800000002;0.13522763333332932;64;0.3828125;violin
197.455072;0.13522763333332932;60;0.3828125;violin
197.59143600000002;0.13522763333332932;63;0.3828125;violin
197.7278;0.13522763333332932;56;0.3828125;violin
197.86416400000002;0.13522763333332932;68;0.3828125;violin
198.000528;0.13522763333332932;61;0.3828125;violin
198.13689200000002;0.13522763333332932;65;0.3828125;violin
198.273256;0.13522763333332932;55;0.3828125;violin
198.40962000000002;0.13522763333332932;64;0.3828125;violin
198.545984;0.13522763333332932;56;0.3828125;violin
198.68234800000002;0.13522763333332932;63;0.3828125;violin
198.818712;0.13522763333332932;60;0.3828125;violin
198.95507600000002;0.13522763333332932;63;0.3828125;violin
199.09144;0.13522763333332932;61;0.3828125;violin
199.22780400000002;0.13522763333332932;65;0.3828125;violin
199.364168;0.13522763333332932;61;0.3828125;violin
199.50053200000002;0.13522763333332932;64;0.3828125;violin
199.636896;0.13522763333332932;60;0.3828125;violin
199.77326000000002;0.13522763333332932;63;0.3828125;violin
199.909624;0.13522763333332932;56;0.3828125;violin
200.04598800000002;0.13522763333332932;68;0.3828125;violin
200.182352;0.13522763333332932;61;0.3828125;violin
200.31871600000002;0.13522763333332932;65;0.3828125;violin
200.45508;0.13522763333332932;55;0.3828125;violin
200.59144400000002;0.13522763333332932;64;0.3828125;violin
200.727808;0.13522763333332932;56;0.3828125;violin
200.86417200000002;0.13522763333332932;63;0.3828125;violin
201.000536;0.13522763333332932;87;0.5703125;violin
201.13690000000003;0.13522763333332932;75;0.390625;violin
201.273264;0.13522763333332932;85;0.40625;violin
201.409628;0.13522763333335774;79;0.4140625;violin
201.545992;0.13522763333332932;84;0.640625;violin
201.682356;0.13522763333335774;80;0.4375;violin
201.81872;0.13522763333332932;82;0.453125;violin
201.955084;0.13522763333335774;76;0.4609375;violin
202.091448;0.13522763333332932;80;0.7109375;violin
202.227812;0.13522763333335774;77;0.4921875;violin
202.36417600000001;0.13522763333332932;78;0.5;violin
202.50054;0.13522763333335774;72;0.515625;violin
202.63690400000002;0.13522763333332932;77;0.78125;violin
202.773268;0.13522763333332932;73;0.5390625;violin
202.90963200000002;0.13522763333332932;75;0.546875;violin
203.045996;0.13522763333332932;69;0.5625;violin
203.18236000000002;0.13522763333332932;73;0.8671875;violin
203.318724;0.13522763333332932;70;0.5859375;violin
203.45508800000002;0.13522763333332932;64;0.8984375;violin
203.591452;0.13522763333332932;73;0.609375;violin
203.72781600000002;0.13522763333332932;65;0.9375;violin
203.86418;0.13522763333332932;72;0.6328125;violin
204.00054400000002;0.13522763333332932;61;0.96875;violin
204.136908;0.13522763333332932;70;0.6640625;violin
204.27327200000002;0.13522763333332932;62;0.9921875;violin
204.409636;0.13522763333332932;71;0.6875;violin
204.54600000000002;0.13522763333332932;64;0.9921875;violin
204.682364;0.13522763333332932;72;0.7109375;violin
204.81872800000002;0.13522763333332932;64;0.9921875;violin
204.955092;0.13522763333332932;70;0.734375;violin
205.09145600000002;0.5443196333333162;56;0.75;violin
205.09145600000002;0.5443196333333162;63;0.75;violin
205.09145600000002;0.5443196333333162;72;0.75;violin
205.09145600000002;0.5443196333333162;80;0.75;violin
207.27328;0.13522763333335774;87;0.3828125;violin
207.40964400000001;0.13522763333332932;75;0.3828125;violin
207.546008;0.13522763333335774;87;0.3828125;violin
207.68237200000002;0.13522763333332932;75;0.3828125;violin
207.818736;0.13522763333335774;87;0.3828125;violin
207.95510000000002;0.13522763333332932;75;0.3828125;violin
208.091464;0.13522763333332932;87;0.3828125;violin
208.22782800000002;0.13522763333332932;75;0.3828125;violin
208.364192;0.13522763333332932;87;0.3828125;violin
208.50055600000002;0.13522763333332932;75;0.3828125;violin
208.63692;0.13522763333332932;86;0.3828125;violin
208.77328400000002;0.13522763333332932;75;0.3828125;violin
208.909648;0.13522763333332932;84;0.3828125;violin
209.04601200000002;0.13522763333332932;75;0.3828125;violin
209.182376;0.13522763333332932;83;0.3828125;violin
209.31874000000002;0.13522763333332932;75;0.3828125;violin
209.455104;0.13522763333332932;81;0.3828125;violin
209.59146800000002;0.13522763333332932;75;0.3828125;violin
209.727832;0.13522763333332932;82;0.3828125;violin
209.86419600000002;0.13522763333332932;75;0.3828125;violin
210.00056;0.13522763333332932;91;0.3828125;violin
210.13692400000002;0.13522763333332932;75;0.3828125;violin
210.273288;0.13522763333332932;89;0.3828125;violin
210.40965200000002;0.13522763333332932;75;0.3828125;violin
210.546016;0.13522763333332932;87;0.3828125;violin
210.68238000000002;0.13522763333332932;75;0.3828125;violin
210.818744;0.13522763333332932;86;0.3828125;violin
210.95510800000002;0.13522763333332932;75;0.3828125;violin
211.091472;0.13522763333332932;84;0.3828125;violin
211.22783600000002;0.13522763333332932;75;0.3828125;violin
211.3642;0.13522763333332932;82;0.3828125;violin
211.50056400000003;0.13522763333332932;75;0.3828125;violin
211.636928;0.13522763333332932;84;0.3828125;violin
211.773292;0.13522763333335774;74;0.3828125;violin
211.909656;0.13522763333332932;82;0.3828125;violin
212.04602;0.13522763333335774;74;0.3828125;violin
212.182384;0.13522763333332932;83;0.5703125;violin
212.318748;0.13522763333335774;74;0.3828125;violin
212.455112;0.13522763333332932;82;0.3828125;violin
212.591476;0.13522763333335774;74;0.3828125;violin
212.72784000000001;0.13522763333332932;84;0.3828125;violin
212.864204;0.13522763333335774;74;0.3828125;violin
213.00056800000002;0.13522763333332932;82;0.3828125;violin
213.136932;0.13522763333335774;74;0.3828125;violin
213.27329600000002;0.13522763333332932;83;0.5703125;violin
213.40966;0.13522763333332932;74;0.3828125;violin
213.54602400000002;0.13522763333332932;82;0.3828125;violin
213.682388;0.13522763333332932;74;0.3828125;violin
213.81875200000002;0.13522763333332932;79;0.5703125;violin
213.955116;0.13522763333332932;87;0.3828125;violin
214.09148000000002;0.13522763333332932;81;0.3828125;violin
214.227844;0.13522763333332932;82;0.3828125;violin
214.36420800000002;0.13522763333332932;77;0.5703125;violin
214.500572;0.13522763333332932;86;0.3828125;violin
214.63693600000002;0.13522763333332932;81;0.3828125;violin
214.7733;0.13522763333332932;82;0.3828125;violin
214.90966400000002;0.13522763333332932;75;0.5703125;violin
215.046028;0.13522763333332932;94;0.3828125;violin
215.18239200000002;0.13522763333332932;90;0.3828125;violin
215.318756;0.13522763333332932;91;0.3828125;violin
215.45512000000002;0.13522763333332932;86;0.3828125;violin
215.591484;0.13522763333332932;87;0.3828125;violin
215.72784800000002;0.13522763333332932;82;0.3828125;violin
215.864212;0.13522763333332932;79;0.3828125;violin
216.00057600000002;0.13522763333332932;88;0.3828125;violin
216.13694;0.13522763333332932;76;0.3828125;violin
216.27330400000002;0.13522763333332932;88;0.3828125;violin
216.409668;0.13522763333332932;76;0.3828125;violin
216.54603200000003;0.13522763333332932;88;0.3828125;violin
216.682396;0.13522763333332932;76;0.3828125;violin
216.81876000000003;0.13522763333332932;88;0.3828125;violin
216.955124;0.13522763333332932;76;0.3828125;violin
217.091488;0.13522763333335774;88;0.3828125;violin
217.227852;0.13522763333332932;76;0.3828125;violin
217.364216;0.13522763333335774;85;0.3828125;violin
217.50058;0.13522763333332932;76;0.3828125;violin
217.636944;0.13522763333335774;84;0.3828125;violin
217.77330800000001;0.13522763333332932;76;0.3828125;violin
217.909672;0.13522763333335774;82;0.3828125;violin
218.04603600000002;0.13522763333332932;76;0.3828125;violin
218.1824;0.13522763333335774;80;0.3828125;violin
218.31876400000002;0.13522763333332932;77;0.3828125;violin
218.455128;0.13522763333335774;79;0.5703125;violin
218.59149200000002;0.13522763333332932;72;0.3828125;violin
218.727856;0.13522763333332932;77;0.3828125;violin
218.86422000000002;0.13522763333332932;73;0.3828125;violin
219.000584;0.13522763333332932;75;0.5703125;violin
219.13694800000002;0.13522763333332932;69;0.3828125;violin
219.273312;0.13522763333332932;73;0.3828125;violin
219.40967600000002;0.13522763333332932;70;0.3828125;violin
219.54604;0.13522763333332932;72;0.5703125;violin
219.68240400000002;0.13522763333332932;65;0.3828125;violin
219.818768;0.13522763333332932;70;0.3828125;violin
219.95513200000002;0.13522763333332932;66;0.3828125;violin
220.091496;0.13522763333332932;73;0.5703125;violin
220.22786000000002;0.13522763333332932;65;0.3828125;violin
220.364224;0.13522763333332932;72;0.3828125;violin
220.50058800000002;0.13522763333332932;64;0.3828125;violin
220.636952;0.13522763333332932;70;0.5703125;violin
220.77331600000002;0.13522763333332932;64;0.3828125;violin
220.90968;0.13522763333332932;68;0.3828125;violin
221.04604400000002;0.13522763333332932;65;0.3828125;violin
221.182408;0.13522763333332932;71;0.5703125;violin
221.31877200000002;0.13522763333332932;63;0.3828125;violin
221.455136;0.13522763333332932;70;0.3828125;violin
221.59150000000002;0.13522763333332932;62;0.3828125;violin
221.727864;0.13522763333332932;68;0.5703125;violin
221.86422800000003;0.13522763333332932;62;0.3828125;violin
222.000592;0.13522763333332932;66;0.3828125;violin
222.13695600000003;0.13522763333332932;63;0.3828125;violin
222.27332;0.13522763333332932;70;0.5703125;violin
222.409684;0.13522763333335774;61;0.3828125;violin
222.546048;0.13522763333332932;71;0.5703125;violin
222.682412;0.13522763333335774;59;0.3828125;violin
222.818776;0.13522763333332932;70;0.3828125;violin
222.95514;0.13522763333335774;59;0.3828125;violin
223.09150400000001;0.13522763333332932;69;0.3828125;violin
223.227868;0.13522763333335774;59;0.3828125;violin
223.36423200000002;0.13522763333332932;68;0.3828125;violin
223.500596;0.13522763333335774;59;0.3828125;violin
223.63696000000002;0.13522763333332932;67;0.3828125;violin
223.773324;0.13522763333335774;59;0.3828125;violin
223.90968800000002;0.13522763333332932;66;0.3828125;violin
224.046052;0.13522763333332932;59;0.3828125;violin
224.18241600000002;0.13522763333332932;76;0.5703125;violin
224.31878;0.13522763333332932;58;0.3828125;violin
224.45514400000002;0.13522763333332932;75;0.5703125;violin
224.591508;0.13522763333332932;59;0.3828125;violin
224.72787200000002;0.13522763333332932;68;0.5703125;violin
224.864236;0.13522763333332932;56;0.3828125;violin
225.00060000000002;0.13522763333332932;67;0.3828125;violin
225.136964;0.13522763333332932;56;0.3828125;violin
225.27332800000002;0.13522763333332932;66;0.3828125;violin
225.409692;0.13522763333332932;56;0.3828125;violin
225.54605600000002;0.13522763333332932;65;0.3828125;violin
225.68242;0.13522763333332932;56;0.3828125;violin
225.81878400000002;0.13522763333332932;64;0.3828125;violin
225.955148;0.13522763333332932;56;0.3828125;violin
226.09151200000002;0.13522763333332932;63;0.3828125;violin
226.227876;0.13522763333332932;56;0.3828125;violin
226.36424000000002;0.13522763333332932;73;0.5703125;violin
226.500604;0.13522763333332932;55;0.3828125;violin
226.63696800000002;0.13522763333332932;71;0.5703125;violin
226.773332;0.13522763333332932;56;0.3828125;violin
226.90969600000003;0.13522763333332932;76;0.5703125;violin
227.04606;0.13522763333332932;64;0.3828125;violin
227.18242400000003;0.13522763333332932;76;0.3828125;violin
227.318788;0.13522763333332932;64;0.3828125;violin
227.45515200000003;0.13522763333332932;76;0.3828125;violin
227.591516;0.13522763333332932;64;0.3828125;violin
227.72788;0.13522763333335774;75;0.3828125;violin
227.864244;0.13522763333332932;71;0.3828125;violin
228.000608;0.13522763333335774;73;0.3828125;violin
228.13697200000001;0.13522763333332932;69;0.3828125;violin
228.273336;0.13522763333335774;71;0.3828125;violin
228.40970000000002;0.13522763333332932;68;0.3828125;violin
228.546064;0.13522763333335774;69;0.3828125;violin
228.68242800000002;0.13522763333332932;66;0.3828125;violin
228.818792;0.13522763333335774;68;0.3828125;violin
228.95515600000002;0.13522763333332932;64;0.3828125;violin
229.09152;0.13522763333335774;66;0.3828125;violin
229.22788400000002;0.13522763333332932;63;0.3828125;violin
229.364248;0.13522763333332932;64;0.3828125;violin
229.50061200000002;0.13522763333332932;61;0.3828125;violin
229.636976;0.13522763333332932;63;0.3828125;violin
229.77334000000002;0.13522763333332932;59;0.3828125;violin
229.909704;0.13522763333332932;61;0.3828125;violin
230.04606800000002;0.13522763333332932;58;0.3828125;violin
230.182432;0.13522763333332932;83;0.3828125;violin
230.31879600000002;0.13522763333332932;71;0.3828125;violin
230.45516;0.13522763333332932;83;0.3828125;violin
230.59152400000002;0.13522763333332932;71;0.3828125;violin
230.727888;0.13522763333332932;83;0.3828125;violin
230.86425200000002;0.13522763333332932;71;0.3828125;violin
231.000616;0.13522763333332932;59;0.3828125;violin
231.13698000000002;0.13522763333332932;63;0.3828125;violin
231.273344;0.13522763333332932;61;0.3828125;violin
231.40970800000002;0.13522763333332932;64;0.3828125;violin
231.546072;0.13522763333332932;63;0.3828125;violin
231.68243600000002;0.13522763333332932;66;0.3828125;violin
231.8188;0.13522763333332932;64;0.3828125;violin
231.95516400000002;0.13522763333332932;68;0.3828125;violin
232.091528;0.13522763333332932;83;0.3828125;violin
232.22789200000003;0.13522763333332932;71;0.3828125;violin
232.364256;0.13522763333332932;84;0.3828125;violin
232.50062000000003;0.13522763333332932;72;0.3828125;violin
232.636984;0.13522763333332932;84;0.3828125;violin
232.77334800000003;0.13522763333332932;72;0.3828125;violin
232.909712;0.13522763333332932;84;0.3828125;violin
233.046076;0.13522763333335774;72;0.3828125;violin
233.18244;0.13522763333332932;60;0.3828125;violin
233.318804;0.13522763333335774;64;0.3828125;violin
233.45516800000001;0.13522763333332932;62;0.3828125;violin
233.591532;0.13522763333335774;65;0.3828125;violin
233.72789600000002;0.13522763333332932;64;0.3828125;violin
233.86426;0.13522763333335774;67;0.3828125;violin
234.00062400000002;0.13522763333332932;65;0.3828125;violin
234.136988;0.13522763333335774;68;0.3828125;violin
234.27335200000002;0.13522763333332932;84;0.3828125;violin
234.409716;0.13522763333335774;72;0.3828125;violin
234.54608000000002;0.13522763333332932;85;0.3828125;violin
234.682444;0.13522763333332932;73;0.3828125;violin
234.81880800000002;0.13522763333332932;85;0.3828125;violin
234.955172;0.13522763333332932;73;0.3828125;violin
235.09153600000002;0.13522763333332932;85;0.3828125;violin
235.2279;0.13522763333332932;73;0.3828125;violin
235.36426400000002;0.13522763333332932;61;0.3828125;violin
235.500628;0.13522763333332932;65;0.3828125;violin
235.63699200000002;0.13522763333332932;63;0.3828125;violin
235.773356;0.13522763333332932;66;0.3828125;violin
235.90972000000002;0.13522763333332932;65;0.3828125;violin
236.046084;0.13522763333332932;68;0.3828125;violin
236.18244800000002;0.13522763333332932;66;0.3828125;violin
236.318812;0.13522763333332932;69;0.3828125;violin
236.45517600000002;0.13522763333332932;85;0.3828125;violin
236.59154;0.13522763333332932;73;0.3828125;violin
236.72790400000002;0.13522763333332932;86;0.3828125;violin
236.864268;0.13522763333332932;74;0.3828125;violin
237.00063200000002;0.13522763333332932;86;0.3828125;violin
237.136996;0.13522763333332932;74;0.3828125;violin
237.27336000000003;0.13522763333332932;86;0.3828125;violin
237.409724;0.13522763333332932;74;0.3828125;violin
237.54608800000003;0.13522763333332932;86;0.3828125;violin
237.682452;0.13522763333332932;74;0.3828125;violin
237.81881600000003;0.13522763333332932;87;0.3828125;violin
237.95518;0.13522763333332932;75;0.3828125;violin
238.09154400000003;0.13522763333332932;87;0.3828125;violin
238.227908;0.13522763333332932;75;0.3828125;violin
238.364272;0.13522763333335774;87;0.3828125;violin
238.50063600000001;0.13522763333332932;75;0.3828125;violin
238.637;0.13522763333335774;87;0.3828125;violin
238.77336400000002;0.13522763333332932;75;0.3828125;violin
238.909728;0.13522763333335774;87;0.3828125;violin
239.04609200000002;0.13522763333332932;75;0.3828125;violin
239.182456;0.13522763333335774;84;0.3828125;violin
239.31882000000002;0.13522763333332932;75;0.3828125;violin
239.455184;0.13522763333335774;83;0.3828125;violin
239.59154800000002;0.13522763333332932;75;0.3828125;violin
239.727912;0.13522763333335774;81;0.3828125;violin
239.86427600000002;0.13522763333332932;75;0.3828125;violin
240.00064;0.13522763333332932;79;0.3828125;violin
240.13700400000002;0.13522763333332932;76;0.3828125;violin
240.273368;0.13522763333332932;78;0.3828125;violin
240.40973200000002;0.13522763333332932;71;0.3828125;violin
240.546096;0.13522763333332932;76;0.3828125;violin
240.68246000000002;0.13522763333332932;72;0.3828125;violin
240.818824;0.13522763333332932;74;0.3828125;violin
240.95518800000002;0.13522763333332932;68;0.3828125;violin
241.091552;0.13522763333332932;72;0.3828125;violin
241.22791600000002;0.13522763333332932;69;0.3828125;violin
241.36428;0.13522763333332932;71;0.3828125;violin
241.50064400000002;0.13522763333332932;64;0.3828125;violin
241.637008;0.13522763333332932;69;0.3828125;violin
241.77337200000002;0.13522763333332932;65;0.3828125;violin
241.909736;0.13522763333332932;72;0.3828125;violin
242.04610000000002;0.13522763333332932;64;0.3828125;violin
242.182464;0.13522763333332932;71;0.3828125;violin
242.31882800000002;0.13522763333332932;63;0.3828125;violin
242.455192;0.13522763333332932;69;0.3828125;violin
242.59155600000003;0.13522763333332932;63;0.3828125;violin
242.72792;0.13522763333332932;67;0.3828125;violin
242.86428400000003;0.13522763333332932;64;0.3828125;violin
243.000648;0.13522763333332932;70;0.3828125;violin
243.13701200000003;0.13522763333332932;62;0.3828125;violin
243.273376;0.13522763333332932;69;0.3828125;violin
243.40974000000003;0.13522763333332932;61;0.3828125;violin
243.546104;0.13522763333332932;67;0.3828125;violin
243.682468;0.13522763333335774;61;0.3828125;violin
243.81883200000001;0.13522763333332932;65;0.3828125;violin
243.955196;0.13522763333335774;62;0.3828125;violin
244.09156000000002;0.13522763333332932;69;0.3828125;violin
244.227924;0.13522763333335774;60;0.3828125;violin
244.36428800000002;0.13522763333332932;70;0.3828125;violin
244.500652;0.13522763333335774;58;0.3828125;violin
244.63701600000002;0.13522763333332932;69;0.3828125;violin
244.77338;0.13522763333335774;58;0.3828125;violin
244.90974400000002;0.13522763333332932;68;0.3828125;violin
245.046108;0.13522763333332932;58;0.3828125;violin
245.18247200000002;0.13522763333332932;67;0.3828125;violin
245.318836;0.13522763333332932;58;0.3828125;violin
245.45520000000002;0.13522763333332932;66;0.3828125;violin
245.591564;0.13522763333332932;58;0.3828125;violin
245.72792800000002;0.13522763333332932;65;0.3828125;violin
245.864292;0.13522763333332932;58;0.3828125;violin
246.00065600000002;0.13522763333332932;75;0.5703125;violin
246.13702;0.13522763333332932;57;0.3828125;violin
246.27338400000002;0.13522763333332932;74;0.5703125;violin
246.409748;0.13522763333332932;58;0.3828125;violin
246.54611200000002;0.13522763333332932;79;0.3828125;violin
246.682476;0.13522763333332932;67;0.3828125;violin
246.81884000000002;0.13522763333332932;78;0.3828125;violin
246.955204;0.13522763333332932;67;0.3828125;violin
247.09156800000002;0.13522763333332932;77;0.3828125;violin
247.227932;0.13522763333332932;67;0.3828125;violin
247.36429600000002;0.13522763333332932;76;0.3828125;violin
247.50066;0.13522763333332932;67;0.3828125;violin
247.63702400000003;0.13522763333332932;75;0.3828125;violin
247.773388;0.13522763333332932;67;0.3828125;violin
247.90975200000003;0.13522763333332932;74;0.3828125;violin
248.046116;0.13522763333332932;67;0.3828125;violin
248.18248000000003;0.13522763333332932;84;0.5703125;violin
248.318844;0.13522763333332932;66;0.3828125;violin
248.45520800000003;0.13522763333332932;82;0.5703125;violin
248.591572;0.13522763333332932;67;0.3828125;violin
248.72793600000003;0.13522763333332932;75;0.3828125;violin
248.86430000000001;0.13522763333332932;63;0.3828125;violin
249.000664;0.13522763333335774;75;0.3828125;violin
249.13702800000002;0.13522763333332932;63;0.3828125;violin
249.273392;0.13522763333335774;75;0.3828125;violin
249.40975600000002;0.13522763333332932;63;0.3828125;violin
249.54612;0.13522763333335774;74;0.3828125;violin
249.68248400000002;0.13522763333332932;70;0.3828125;violin
249.818848;0.13522763333335774;72;0.3828125;violin
249.95521200000002;0.13522763333332932;68;0.3828125;violin
250.091576;0.13522763333335774;70;0.3828125;violin
250.22794000000002;0.13522763333332932;67;0.3828125;violin
250.364304;0.13522763333332932;68;0.3828125;violin
250.50066800000002;0.13522763333332932;65;0.3828125;violin
250.637032;0.13522763333332932;67;0.3828125;violin
250.77339600000002;0.13522763333332932;63;0.3828125;violin
250.90976;0.13522763333332932;65;0.3828125;violin
251.04612400000002;0.13522763333332932;62;0.3828125;violin
251.182488;0.13522763333332932;63;0.3828125;violin
251.31885200000002;0.13522763333332932;60;0.3828125;violin
251.455216;0.13522763333332932;62;0.3828125;violin
251.59158000000002;0.13522763333332932;58;0.3828125;violin
251.727944;0.13522763333332932;60;0.3828125;violin
251.86430800000002;0.13522763333332932;57;0.3828125;violin
252.000672;0.13522763333332932;82;0.3828125;violin
252.13703600000002;0.13522763333332932;70;0.3828125;violin
252.2734;0.13522763333332932;82;0.3828125;violin
252.40976400000002;0.13522763333332932;70;0.3828125;violin
252.546128;0.13522763333332932;82;0.3828125;violin
252.68249200000002;0.13522763333332932;70;0.3828125;violin
252.818856;0.13522763333332932;58;0.3828125;violin
252.95522000000003;0.13522763333332932;62;0.3828125;violin
253.091584;0.13522763333332932;60;0.3828125;violin
253.22794800000003;0.13522763333332932;63;0.3828125;violin
253.364312;0.13522763333332932;62;0.3828125;violin
253.50067600000003;0.13522763333332932;65;0.3828125;violin
253.63704;0.13522763333332932;63;0.3828125;violin
253.77340400000003;0.13522763333332932;66;0.3828125;violin
253.909768;0.13522763333332932;82;0.3828125;violin
254.04613200000003;0.13522763333332932;70;0.3828125;violin
254.18249600000001;0.13522763333332932;83;0.3828125;violin
254.31886;0.13522763333335774;71;0.3828125;violin
254.45522400000002;0.13522763333332932;83;0.3828125;violin
254.591588;0.13522763333335774;71;0.3828125;violin
254.72795200000002;0.13522763333332932;83;0.3828125;violin
254.864316;0.13522763333335774;71;0.3828125;violin
255.00068000000002;0.13522763333332932;59;0.3828125;violin
255.137044;0.13522763333335774;63;0.3828125;violin
255.27340800000002;0.13522763333332932;61;0.3828125;violin
255.409772;0.13522763333335774;64;0.3828125;violin
255.54613600000002;0.13522763333332932;63;0.3828125;violin
255.6825;0.13522763333332932;66;0.3828125;violin
255.81886400000002;0.13522763333332932;64;0.3828125;violin
255.955228;0.13522763333335774;67;0.3828125;violin
256.091592;0.13522763333332932;83;0.3828125;violin
256.227956;0.13522763333332932;71;0.3828125;violin
256.36432;0.13522763333332932;84;0.3828125;violin
256.50068400000004;0.13522763333332932;72;0.3828125;violin
256.637048;0.13522763333332932;84;0.3828125;violin
256.773412;0.13522763333332932;72;0.3828125;violin
256.909776;0.13522763333332932;84;0.3828125;violin
257.04614000000004;0.13522763333332932;72;0.3828125;violin
257.182504;0.13522763333332932;60;0.3828125;violin
257.318868;0.13522763333332932;64;0.3828125;violin
257.455232;0.13522763333332932;62;0.3828125;violin
257.59159600000004;0.13522763333332932;65;0.3828125;violin
257.72796;0.13522763333332932;64;0.3828125;violin
257.864324;0.13522763333332932;67;0.3828125;violin
258.000688;0.13522763333332932;65;0.3828125;violin
258.13705200000004;0.13522763333332932;68;0.3828125;violin
258.273416;0.13522763333332932;84;0.3828125;violin
258.40978;0.13522763333332932;72;0.3828125;violin
258.546144;0.13522763333332932;85;0.3828125;violin
258.68250800000004;0.13522763333332932;73;0.3828125;violin
258.818872;0.13522763333332932;85;0.3828125;violin
258.955236;0.13522763333332932;73;0.3828125;violin
259.0916;0.13522763333332932;85;0.3828125;violin
259.22796400000004;0.13522763333332932;73;0.3828125;violin
259.364328;0.13522763333332932;85;0.3828125;violin
259.500692;0.13522763333332932;73;0.3828125;violin
259.63705600000003;0.13522763333332932;86;0.3828125;violin
259.77342;0.13522763333338617;74;0.3828125;violin
259.909784;0.13522763333332932;86;0.3828125;violin
260.046148;0.13522763333332932;74;0.3828125;violin
260.18251200000003;0.13522763333332932;86;0.3828125;violin
260.318876;0.13522763333338617;74;0.3828125;violin
260.45524;0.13522763333332932;86;0.3828125;violin
260.591604;0.13522763333332932;74;0.3828125;violin
260.72796800000003;0.13522763333332932;86;0.3828125;violin
260.864332;0.13522763333338617;74;0.3828125;violin
261.000696;0.13522763333332932;83;0.3828125;violin
261.13706;0.13522763333332932;74;0.3828125;violin
261.27342400000003;0.13522763333332932;82;0.3828125;violin
261.409788;0.13522763333332932;74;0.3828125;violin
261.546152;0.13522763333332932;80;0.3828125;violin
261.682516;0.13522763333332932;74;0.3828125;violin
261.81888000000004;0.13522763333332932;78;0.3828125;violin
261.955244;0.13522763333332932;75;0.3828125;violin
262.091608;0.13522763333332932;77;0.3828125;violin
262.227972;0.13522763333332932;70;0.3828125;violin
262.36433600000004;0.13522763333332932;75;0.3828125;violin
262.5007;0.13522763333332932;71;0.3828125;violin
262.637064;0.13522763333332932;73;0.3828125;violin
262.773428;0.13522763333332932;66;0.3828125;violin
262.90979200000004;0.13522763333332932;71;0.3828125;violin
263.046156;0.13522763333332932;68;0.3828125;violin
263.18252;0.13522763333332932;70;0.3828125;violin
263.318884;0.13522763333332932;63;0.3828125;violin
263.45524800000004;0.13522763333332932;68;0.3828125;violin
263.591612;0.13522763333332932;65;0.3828125;violin
263.727976;0.13522763333332932;71;0.3828125;violin
263.86434;0.13522763333332932;63;0.3828125;violin
264.00070400000004;0.13522763333332932;70;0.3828125;violin
264.137068;0.13522763333332932;62;0.3828125;violin
264.273432;0.13522763333332932;68;0.3828125;violin
264.40979600000003;0.13522763333332932;62;0.3828125;violin
264.54616000000004;0.13522763333332932;66;0.3828125;violin
264.682524;0.13522763333332932;63;0.3828125;violin
264.818888;0.13522763333332932;69;0.3828125;violin
264.95525200000003;0.13522763333332932;61;0.3828125;violin
265.091616;0.13522763333338617;68;0.3828125;violin
265.22798;0.13522763333332932;60;0.3828125;violin
265.364344;0.13522763333332932;66;0.3828125;violin
265.50070800000003;0.13522763333332932;60;0.3828125;violin
265.637072;0.13522763333338617;64;0.3828125;violin
265.773436;0.13522763333332932;61;0.3828125;violin
265.9098;0.13522763333332932;68;0.3828125;violin
266.04616400000003;0.13522763333332932;59;0.3828125;violin
266.182528;0.13522763333338617;69;0.3828125;violin
266.318892;0.13522763333332932;57;0.3828125;violin
266.455256;0.13522763333332932;68;0.3828125;violin
266.59162000000003;0.13522763333332932;57;0.3828125;violin
266.727984;0.13522763333332932;67;0.3828125;violin
266.864348;0.13522763333332932;57;0.3828125;violin
267.000712;0.13522763333332932;66;0.3828125;violin
267.13707600000004;0.13522763333332932;57;0.3828125;violin
267.27344;0.13522763333332932;65;0.3828125;violin
267.409804;0.13522763333332932;56;0.3828125;violin
267.546168;0.13522763333332932;64;0.3828125;violin
267.68253200000004;0.13522763333332932;56;0.3828125;violin
267.818896;0.13522763333332932;66;0.5703125;violin
267.95526;0.13522763333332932;57;0.3828125;violin
268.091624;0.13522763333332932;64;0.5703125;violin
268.22798800000004;0.13522763333332932;57;0.3828125;violin
268.364352;0.13522763333332932;67;0.3828125;violin
268.500716;0.13522763333332932;58;0.3828125;violin
268.63708;0.13522763333332932;66;0.3828125;violin
268.77344400000004;0.13522763333332932;58;0.3828125;violin
268.909808;0.13522763333332932;67;0.3828125;violin
269.046172;0.13522763333332932;59;0.3828125;violin
269.182536;0.13522763333332932;66;0.3828125;violin
269.31890000000004;0.13522763333332932;59;0.3828125;violin
269.455264;0.13522763333332932;68;0.3828125;violin
269.591628;0.13522763333332932;59;0.3828125;violin
269.72799200000003;0.13522763333332932;67;0.3828125;violin
269.86435600000004;0.13522763333332932;59;0.3828125;violin
270.00072;0.13522763333332932;68;0.3828125;violin
270.137084;0.13522763333332932;60;0.3828125;violin
270.27344800000003;0.13522763333332932;65;0.3828125;violin
270.409812;0.13522763333338617;62;0.3828125;violin
270.546176;0.13522763333332932;67;0.3828125;violin
270.68254;0.13522763333332932;63;0.3828125;violin
270.81890400000003;0.13522763333332932;67;0.3828125;violin
270.955268;0.13522763333338617;61;0.3828125;violin
271.091632;0.13522763333332932;70;0.3828125;violin
271.227996;0.13522763333332932;58;0.3828125;violin
271.36436000000003;0.13522763333332932;73;0.3828125;violin
271.500724;0.13522763333338617;55;0.3828125;violin
271.637088;0.13522763333332932;72;0.3828125;violin
271.773452;0.13522763333332932;56;0.3828125;violin
271.90981600000003;0.13522763333332932;70;0.3828125;violin
272.04618;0.13522763333332932;58;0.3828125;violin
272.182544;0.13522763333332932;68;0.3828125;violin
272.318908;0.13522763333332932;60;0.3828125;violin
272.45527200000004;0.13522763333332932;65;0.3828125;violin
272.591636;0.13522763333332932;62;0.3828125;violin
272.728;0.13522763333332932;67;0.3828125;violin
272.864364;0.13522763333332932;63;0.3828125;violin
273.00072800000004;0.13522763333332932;77;0.3828125;violin
273.137092;0.13522763333332932;62;0.3828125;violin
273.273456;0.13522763333332932;79;0.3828125;violin
273.40982;0.13522763333332932;63;0.3828125;violin
273.54618400000004;0.13522763333332932;80;0.3828125;violin
273.682548;0.13522763333332932;65;0.3828125;violin
273.818912;0.13522763333332932;82;0.3828125;violin
273.955276;0.13522763333332932;67;0.3828125;violin
274.09164000000004;0.13522763333332932;84;0.3828125;violin
274.228004;0.13522763333332932;68;0.3828125;violin
274.364368;0.13522763333332932;85;0.3828125;violin
274.500732;0.13522763333332932;70;0.3828125;violin
274.63709600000004;0.13522763333332932;82;0.3828125;violin
274.77346;0.13522763333332932;67;0.3828125;violin
274.909824;0.13522763333332932;80;0.3828125;violin
275.04618800000003;0.13522763333332932;68;0.3828125;violin
275.18255200000004;0.13522763333332932;79;0.3828125;violin
275.318916;0.13522763333332932;68;0.3828125;violin
275.45528;0.13522763333332932;78;0.3828125;violin
275.59164400000003;0.13522763333332932;68;0.3828125;violin
275.728008;0.13522763333338617;77;0.3828125;violin
275.864372;0.13522763333332932;68;0.3828125;violin
276.000736;0.13522763333332932;76;0.3828125;violin
276.13710000000003;0.13522763333332932;68;0.3828125;violin
276.273464;0.13522763333338617;75;0.3828125;violin
276.409828;0.13522763333332932;68;0.3828125;violin
276.546192;0.13522763333332932;85;0.5703125;violin
276.68255600000003;0.13522763333332932;67;0.3828125;violin
276.81892;0.13522763333332932;84;0.5703125;violin
276.955284;0.13522763333332932;68;0.3828125;violin
277.091648;0.13522763333332932;77;0.3828125;violin
277.22801200000004;0.13522763333332932;65;0.3828125;violin
277.364376;0.13522763333332932;76;0.3828125;violin
277.50074;0.13522763333332932;65;0.3828125;violin
277.637104;0.13522763333332932;75;0.3828125;violin
277.77346800000004;0.13522763333332932;65;0.3828125;violin
277.909832;0.13522763333332932;74;0.3828125;violin
278.046196;0.13522763333332932;65;0.3828125;violin
278.18256;0.13522763333332932;73;0.3828125;violin
278.31892400000004;0.13522763333332932;65;0.3828125;violin
278.455288;0.13522763333332932;72;0.3828125;violin
278.591652;0.13522763333332932;65;0.3828125;violin
278.728016;0.13522763333332932;82;0.5703125;violin
278.86438000000004;0.13522763333332932;64;0.3828125;violin
279.000744;0.13522763333332932;80;0.5703125;violin
279.137108;0.13522763333332932;65;0.3828125;violin
279.273472;0.13522763333332932;61;0.5703125;violin
279.40983600000004;0.13522763333332932;77;0.3828125;violin
279.5462;0.13522763333332932;62;0.3828125;violin
279.682564;0.13522763333332932;77;0.3828125;violin
279.818928;0.13522763333332932;63;0.5703125;violin
279.95529200000004;0.13522763333332932;79;0.3828125;violin
280.091656;0.13522763333332932;64;0.3828125;violin
280.22802;0.13522763333332932;79;0.3828125;violin
280.36438400000003;0.13522763333332932;65;0.5703125;violin
280.50074800000004;0.13522763333332932;80;0.3828125;violin
280.637112;0.13522763333332932;67;0.3828125;violin
280.773476;0.13522763333332932;82;0.3828125;violin
280.90984000000003;0.13522763333332932;68;0.3828125;violin
281.046204;0.13522763333338617;84;0.3828125;violin
281.182568;0.13522763333332932;70;0.3828125;violin
281.318932;0.13522763333332932;85;0.3828125;violin
281.45529600000003;0.13522763333332932;72;0.5703125;violin
281.59166;0.13522763333338617;87;0.3828125;violin
281.728024;0.13522763333332932;73;0.3828125;violin
281.864388;0.13522763333332932;89;0.3828125;violin
282.00075200000003;0.13522763333332932;71;0.5703125;violin
282.137116;0.13522763333332932;86;0.3828125;violin
282.27348;0.13522763333332932;72;0.3828125;violin
282.409844;0.13522763333332932;87;0.3828125;violin
282.54620800000004;0.13522763333332932;69;0.5703125;violin
282.682572;0.13522763333332932;84;0.3828125;violin
282.818936;0.13522763333332932;70;0.3828125;violin
282.9553;0.13522763333332932;85;0.3828125;violin
283.09166400000004;0.13522763333332932;67;0.5703125;violin
283.228028;0.13522763333332932;83;0.3828125;violin
283.364392;0.13522763333332932;68;0.3828125;violin
283.500756;0.13522763333332932;84;0.3828125;violin
283.63712000000004;0.13522763333332932;71;0.5703125;violin
283.773484;0.13522763333332932;62;0.3828125;violin
283.909848;0.13522763333332932;68;0.3828125;violin
284.046212;0.13522763333332932;62;0.3828125;violin
284.18257600000004;0.13522763333332932;80;0.3828125;violin
284.31894;0.13522763333332932;71;0.3828125;violin
284.455304;0.13522763333332932;77;0.3828125;violin
284.591668;0.13522763333332932;71;0.3828125;violin
284.72803200000004;0.13522763333332932;74;0.3828125;violin
284.864396;0.13522763333332932;71;0.3828125;violin
285.00076;0.13522763333332932;62;0.3828125;violin
285.13712400000003;0.13522763333332932;68;0.3828125;violin
285.27348800000004;0.13522763333332932;62;0.3828125;violin
285.409852;0.13522763333332932;71;0.3828125;violin
285.546216;0.13522763333332932;62;0.3828125;violin
285.68258000000003;0.13522763333332932;68;0.3828125;violin
285.81894400000004;0.13522763333332932;63;0.3828125;violin
285.955308;0.13522763333332932;72;0.3828125;violin
286.091672;0.13522763333332932;63;0.3828125;violin
286.22803600000003;0.13522763333332932;80;0.5703125;violin
286.3644;0.13522763333338617;63;0.3828125;violin
286.500764;0.13522763333332932;79;0.3828125;violin
286.637128;0.13522763333332932;63;0.3828125;violin
286.77349200000003;0.13522763333332932;78;0.3828125;violin
286.909856;0.13522763333338617;63;0.3828125;violin
287.04622;0.13522763333332932;77;0.3828125;violin
287.182584;0.13522763333332932;63;0.3828125;violin
287.31894800000003;0.13522763333332932;76;0.3828125;violin
287.455312;0.13522763333332932;63;0.3828125;violin
287.591676;0.13522763333332932;75;0.3828125;violin
287.72804;0.13522763333332932;63;0.3828125;violin
287.86440400000004;0.13522763333332932;72;0.3828125;violin
288.000768;0.13522763333332932;63;0.3828125;violin
288.137132;0.13522763333332932;70;0.3828125;violin
288.273496;0.13522763333332932;63;0.3828125;violin
288.40986000000004;0.13522763333332932;79;0.5703125;violin
288.546224;0.13522763333332932;63;0.3828125;violin
288.682588;0.13522763333332932;78;0.3828125;violin
288.818952;0.13522763333332932;63;0.3828125;violin
288.95531600000004;0.13522763333332932;77;0.3828125;violin
289.09168;0.13522763333332932;63;0.3828125;violin
289.228044;0.13522763333332932;76;0.3828125;violin
289.364408;0.13522763333332932;63;0.3828125;violin
289.50077200000004;0.13522763333332932;75;0.3828125;violin
289.637136;0.13522763333332932;63;0.3828125;violin
289.7735;0.13522763333332932;73;0.3828125;violin
289.909864;0.13522763333332932;63;0.3828125;violin
290.04622800000004;0.13522763333332932;70;0.3828125;violin
290.182592;0.13522763333332932;56;0.3828125;violin
290.318956;0.13522763333332932;68;0.3828125;violin
290.45532000000003;0.13522763333332932;60;0.3828125;violin
290.59168400000004;0.13522763333332932;63;0.3828125;violin
290.728048;0.13522763333332932;61;0.3828125;violin
290.864412;0.13522763333332932;65;0.3828125;violin
291.00077600000003;0.13522763333332932;61;0.3828125;violin
291.13714000000004;0.13522763333332932;64;0.3828125;violin
291.273504;0.13522763333332932;60;0.3828125;violin
291.409868;0.13522763333332932;63;0.3828125;violin
291.54623200000003;0.13522763333332932;56;0.3828125;violin
291.682596;0.13522763333338617;68;0.3828125;violin
291.81896;0.13522763333332932;61;0.3828125;violin
291.955324;0.13522763333332932;65;0.3828125;violin
292.09168800000003;0.13522763333332932;55;0.3828125;violin
292.228052;0.13522763333338617;64;0.3828125;violin
292.364416;0.13522763333332932;56;0.3828125;violin
292.50078;0.13522763333332932;63;0.3828125;violin
292.63714400000003;0.13522763333332932;60;0.3828125;violin
292.773508;0.13522763333332932;63;0.3828125;violin
292.909872;0.13522763333332932;61;0.3828125;violin
293.046236;0.13522763333332932;65;0.3828125;violin
293.18260000000004;0.13522763333332932;61;0.3828125;violin
293.318964;0.13522763333332932;64;0.3828125;violin
293.455328;0.13522763333332932;60;0.3828125;violin
293.591692;0.13522763333332932;63;0.3828125;violin
293.72805600000004;0.13522763333332932;56;0.3828125;violin
293.86442;0.13522763333332932;68;0.3828125;violin
294.000784;0.13522763333332932;61;0.3828125;violin
294.137148;0.13522763333332932;65;0.3828125;violin
294.27351200000004;0.13522763333332932;55;0.3828125;violin
294.409876;0.13522763333332932;64;0.3828125;violin
294.54624;0.13522763333332932;56;0.3828125;violin
294.682604;0.13522763333332932;63;0.3828125;violin
294.81896800000004;0.13522763333332932;87;0.5703125;violin
294.955332;0.13522763333332932;75;0.390625;violin
295.091696;0.13522763333332932;85;0.40625;violin
295.22806;0.13522763333332932;79;0.4140625;violin
295.36442400000004;0.13522763333332932;84;0.640625;violin
295.500788;0.13522763333332932;80;0.4375;violin
295.637152;0.13522763333332932;82;0.453125;violin
295.77351600000003;0.13522763333332932;76;0.4609375;violin
295.90988000000004;0.13522763333332932;80;0.7109375;violin
296.046244;0.13522763333332932;77;0.4921875;violin
296.182608;0.13522763333332932;78;0.5;violin
296.31897200000003;0.13522763333332932;72;0.515625;violin
296.45533600000005;0.13522763333332932;77;0.78125;violin
296.5917;0.13522763333332932;73;0.5390625;violin
296.728064;0.13522763333332932;75;0.546875;violin
296.86442800000003;0.13522763333332932;69;0.5625;violin
297.000792;0.13522763333338617;73;0.8671875;violin
297.137156;0.13522763333332932;70;0.5859375;violin
297.27352;0.13522763333332932;64;0.8984375;violin
297.40988400000003;0.13522763333332932;73;0.609375;violin
297.546248;0.13522763333338617;65;0.9375;violin
297.682612;0.13522763333332932;72;0.6328125;violin
297.818976;0.13522763333332932;61;0.96875;violin
297.95534000000004;0.13522763333332932;70;0.6640625;violin
298.091704;0.13522763333332932;62;0.9921875;violin
298.228068;0.13522763333332932;71;0.6875;violin
298.364432;0.13522763333332932;64;0.9921875;violin
298.50079600000004;0.13522763333332932;72;0.7109375;violin
298.63716;0.13522763333332932;64;0.9921875;violin
298.773524;0.13522763333332932;70;0.734375;violin
298.909888;0.5443196333333162;56;0.75;violin
298.909888;0.5443196333333162;63;0.75;violin
298.909888;0.5443196333333162;72;0.75;violin
298.909888;0.5443196333333162;80;0.75;violin
