start;duration;pitch;velocity;instrument
0.0;0.24895833333333334;74;0.625;violin
0.0;0.24895833333333334;77;0.625;violin
0.25;0.24895833333333334;75;0.625;violin
0.25;0.24895833333333334;79;0.625;violin
0.5;0.24895833333333328;74;0.625;violin
0.5;0.24895833333333328;77;0.625;violin
0.75;0.24895833333333328;82;0.625;violin
0.75;0.24895833333333328;86;0.625;violin
1.0;0.12395833333333339;81;0.625;violin
1.0;0.12395833333333339;85;0.625;violin
1.25;0.12395833333333339;81;0.625;violin
1.25;0.12395833333333339;84;0.625;violin
1.5;0.12395833333333339;80;0.625;violin
1.5;0.12395833333333339;83;0.625;violin
1.75;0.12395833333333339;79;0.625;violin
1.75;0.12395833333333339;82;0.625;violin
2.0;0.12395833333333339;78;0.625;violin
2.0;0.12395833333333339;81;0.625;violin
2.25;0.12395833333333339;77;0.625;violin
2.25;0.12395833333333339;80;0.625;violin
2.5;0.12395833333333339;76;0.625;violin
2.5;0.12395833333333339;79;0.625;violin
2.75;0.12395833333333339;75;0.625;violin
2.75;0.12395833333333339;78;0.625;violin
3.0;0.12395833333333339;74;0.625;violin
3.0;0.12395833333333339;77;0.625;violin
3.25;0.12395833333333339;72;0.625;violin
3.25;0.12395833333333339;75;0.625;violin
3.5;0.2489583333333334;70;0.625;violin
3.5;0.2489583333333334;74;0.625;violin
4.0;0.2489583333333334;65;0.625;violin
4.0;0.2489583333333334;72;0.625;violin
4.25;0.2489583333333334;62;0.625;violin
4.25;0.2489583333333334;70;0.625;violin
4.75;0.2489583333333334;65;0.625;violin
4.75;0.2489583333333334;72;0.625;violin
5.0;0.7489583333333334;70;0.75;violin
5.0;0.7489583333333334;74;0.75;violin
5.75;0.2489583333333334;62;0.625;violin
5.75;0.2489583333333334;70;0.625;violin
6.0;0.2489583333333334;74;0.625;violin
6.0;0.2489583333333334;77;0.625;violin
6.25;0.2489583333333334;75;0.625;violin
6.25;0.2489583333333334;79;0.625;violin
6.5;0.2489583333333334;74;0.625;violin
6.5;0.2489583333333334;77;0.625;violin
6.75;0.2489583333333334;82;0.625;violin
6.75;0.2489583333333334;86;0.625;violin
7.0;0.12395833333333339;81;0.625;violin
7.0;0.12395833333333339;85;0.625;violin
7.25;0.12395833333333339;81;0.625;violin
7.25;0.12395833333333339;84;0.625;violin
7.5;0.12395833333333339;80;0.625;violin
7.5;0.12395833333333339;83;0.625;violin
7.75;0.12395833333333339;79;0.625;violin
7.75;0.12395833333333339;82;0.625;violin
8.0;0.1239583333333325;78;0.625;violin
8.0;0.1239583333333325;81;0.625;violin
8.25;0.1239583333333325;77;0.625;violin
8.25;0.1239583333333325;80;0.625;violin
8.5;0.1239583333333325;76;0.625;violin
8.5;0.1239583333333325;79;0.625;violin
8.75;0.1239583333333325;75;0.625;violin
8.75;0.1239583333333325;78;0.625;violin
9.0;0.1239583333333325;74;0.625;violin
9.0;0.1239583333333325;77;0.625;violin
9.25;0.1239583333333325;72;0.625;violin
9.25;0.1239583333333325;75;0.625;violin
9.5;0.2489583333333325;70;0.625;violin
9.5;0.2489583333333325;74;0.625;violin
10.0;0.2489583333333325;65;0.625;violin
10.0;0.2489583333333325;72;0.625;violin
10.25;0.2489583333333325;62;0.625;violin
10.25;0.2489583333333325;70;0.625;violin
10.75;0.2489583333333325;60;0.625;violin
10.75;0.2489583333333325;65;0.625;violin
10.75;0.2489583333333325;69;0.625;violin
11.0;0.7489583333333325;58;0.625;violin
11.0;0.7489583333333325;62;0.625;violin
11.0;0.7489583333333325;70;0.625;violin
12.0;0.2489583333333325;74;0.625;violin
12.0;0.2489583333333325;77;0.625;violin
12.25;0.2489583333333325;75;0.625;violin
12.25;0.2489583333333325;79;0.625;violin
12.5;0.2489583333333325;74;0.625;violin
12.5;0.2489583333333325;77;0.625;violin
12.75;0.2489583333333325;82;0.625;violin
12.75;0.2489583333333325;86;0.625;violin
13.0;0.1239583333333325;81;0.625;violin
13.0;0.1239583333333325;85;0.625;violin
13.25;0.1239583333333325;81;0.625;violin
13.25;0.1239583333333325;84;0.625;violin
13.5;0.1239583333333325;80;0.625;violin
13.5;0.1239583333333325;83;0.625;violin
13.75;0.1239583333333325;79;0.625;violin
13.75;0.1239583333333325;82;0.625;violin
14.0;0.1239583333333325;78;0.625;violin
14.0;0.1239583333333325;81;0.625;violin
14.25;0.1239583333333325;77;0.625;violin
14.25;0.1239583333333325;80;0.625;violin
14.5;0.1239583333333325;76;0.625;violin
14.5;0.1239583333333325;79;0.625;violin
14.75;0.1239583333333325;75;0.625;violin
14.75;0.1239583333333325;78;0.625;violin
15.0;0.1239583333333325;74;0.625;violin
15.0;0.1239583333333325;77;0.625;violin
15.25;0.1239583333333325;72;0.625;violin
15.25;0.1239583333333325;75;0.625;violin
15.5;0.2489583333333325;70;0.625;violin
15.5;0.2489583333333325;74;0.625;violin
16.0;0.24895833333333428;65;0.625;violin
16.0;0.24895833333333428;72;0.625;violin
16.25;0.24895833333333428;62;0.625;violin
16.25;0.24895833333333428;70;0.625;violin
16.75;0.24895833333333428;65;0.625;violin
16.75;0.24895833333333428;72;0.625;violin
17.0;0.7489583333333343;70;0.75;violin
17.0;0.7489583333333343;74;0.75;violin
17.75;0.24895833333333428;62;0.625;violin
17.75;0.24895833333333428;70;0.625;violin
18.0;0.24895833333333428;74;0.625;violin
18.0;0.24895833333333428;77;0.625;violin
18.25;0.24895833333333428;75;0.625;violin
18.25;0.24895833333333428;79;0.625;violin
18.5;0.24895833333333428;74;0.625;violin
18.5;0.24895833333333428;77;0.625;violin
18.75;0.24895833333333428;82;0.625;violin
18.75;0.24895833333333428;86;0.625;violin
19.0;0.12395833333333428;81;0.625;violin
19.0;0.12395833333333428;85;0.625;violin
19.25;0.12395833333333428;81;0.625;violin
19.25;0.12395833333333428;84;0.625;violin
19.5;0.12395833333333428;80;0.625;violin
19.5;0.12395833333333428;83;0.625;violin
19.75;0.12395833333333428;79;0.625;violin
19.75;0.12395833333333428;82;0.625;violin
20.0;0.12395833333333428;78;0.625;violin
20.0;0.12395833333333428;81;0.625;violin
20.25;0.12395833333333428;77;0.625;violin
20.25;0.12395833333333428;80;0.625;violin
20.5;0.12395833333333428;76;0.625;violin
20.5;0.12395833333333428;79;0.625;violin
20.75;0.12395833333333428;75;0.625;violin
20.75;0.12395833333333428;78;0.625;violin
21.0;0.12395833333333428;74;0.625;violin
21.0;0.12395833333333428;77;0.625;violin
21.25;0.12395833333333428;72;0.625;violin
21.25;0.12395833333333428;75;0.625;violin
21.5;0.24895833333333428;70;0.625;violin
21.5;0.24895833333333428;74;0.625;violin
22.0;0.24895833333333428;65;0.625;violin
22.0;0.24895833333333428;72;0.625;violin
22.25;0.24895833333333428;62;0.625;violin
22.25;0.24895833333333428;70;0.625;violin
22.75;0.24895833333333428;60;0.625;violin
22.75;0.24895833333333428;65;0.625;violin
22.75;0.24895833333333428;69;0.625;violin
23.0;0.7489583333333343;58;0.625;violin
23.0;0.7489583333333343;62;0.625;violin
23.0;0.7489583333333343;70;0.625;violin
24.0;0.12395833333333428;65;0.625;violin
24.0;0.12395833333333428;69;0.625;violin
24.25;0.12395833333333428;67;0.625;violin
24.25;0.12395833333333428;70;0.625;violin
24.5;0.12395833333333428;65;0.625;violin
24.5;0.12395833333333428;69;0.625;violin
24.75;0.24895833333333428;82;0.75;violin
24.75;0.24895833333333428;86;0.75;violin
25.0;0.24895833333333428;81;0.625;violin
25.0;0.24895833333333428;84;0.625;violin
25.25;0.12395833333333428;65;0.625;violin
25.25;0.12395833333333428;69;0.625;violin
25.5;0.12395833333333428;67;0.625;violin
25.5;0.12395833333333428;70;0.625;violin
25.75;0.12395833333333428;65;0.625;violin
25.75;0.12395833333333428;69;0.625;violin
26.0;0.24895833333333428;79;0.75;violin
26.0;0.24895833333333428;82;0.75;violin
26.25;0.24895833333333428;77;0.625;violin
26.25;0.24895833333333428;81;0.625;violin
26.5;0.12395833333333428;65;0.625;violin
26.5;0.12395833333333428;69;0.625;violin
26.75;0.12395833333333428;67;0.625;violin
26.75;0.12395833333333428;70;0.625;violin
27.0;0.12395833333333428;65;0.625;violin
27.0;0.12395833333333428;69;0.625;violin
27.25;0.24895833333333428;82;0.75;violin
27.25;0.24895833333333428;86;0.75;violin
27.5;0.24895833333333428;81;0.625;violin
27.5;0.24895833333333428;84;0.625;violin
27.75;0.12395833333333428;65;0.625;violin
27.75;0.12395833333333428;69;0.625;violin
28.0;0.12395833333333428;67;0.625;violin
28.0;0.12395833333333428;70;0.625;violin
28.25;0.12395833333333428;65;0.625;violin
28.25;0.12395833333333428;69;0.625;violin
28.5;0.24895833333333428;79;0.75;violin
28.5;0.24895833333333428;82;0.75;violin
28.75;0.24895833333333428;77;0.625;violin
28.75;0.24895833333333428;81;0.625;violin
29.0;0.12395833333333428;65;0.625;violin
29.0;0.12395833333333428;69;0.625;violin
29.25;0.12395833333333428;67;0.625;violin
29.25;0.12395833333333428;70;0.625;violin
29.5;0.12395833333333428;65;0.625;violin
29.5;0.12395833333333428;69;0.625;violin
29.75;0.24895833333333428;81;0.75;violin
29.75;0.24895833333333428;89;0.75;violin
30.0;0.12395833333333428;74;0.625;violin
30.0;0.12395833333333428;77;0.625;violin
30.25;0.12395833333333428;75;0.625;violin
30.25;0.12395833333333428;79;0.625;violin
30.5;0.24895833333333428;74;0.625;violin
30.5;0.24895833333333428;77;0.625;violin
30.75;0.24895833333333428;82;0.625;violin
30.75;0.24895833333333428;86;0.625;violin
31.0;0.12395833333333428;81;0.625;violin
31.0;0.12395833333333428;85;0.625;violin
31.25;0.12395833333333428;81;0.625;violin
31.25;0.12395833333333428;84;0.625;violin
31.5;0.12395833333333428;80;0.625;violin
31.5;0.12395833333333428;83;0.625;violin
31.75;0.12395833333333428;79;0.625;violin
31.75;0.12395833333333428;82;0.625;violin
32.0;0.12395833333333428;78;0.625;violin
32.0;0.12395833333333428;81;0.625;violin
32.25;0.12395833333333428;77;0.625;violin
32.25;0.12395833333333428;80;0.625;violin
32.5;0.12395833333333428;76;0.625;violin
32.5;0.12395833333333428;79;0.625;violin
32.75;0.12395833333333428;75;0.625;violin
32.75;0.12395833333333428;78;0.625;violin
33.0;0.12395833333333428;74;0.625;violin
33.0;0.12395833333333428;77;0.625;violin
33.25;0.12395833333333428;72;0.625;violin
33.25;0.12395833333333428;75;0.625;violin
33.5;0.24895833333333428;70;0.625;violin
33.5;0.24895833333333428;74;0.625;violin
34.0;0.24895833333333428;65;0.625;violin
34.0;0.24895833333333428;72;0.625;violin
34.25;0.24895833333333428;62;0.625;violin
34.25;0.24895833333333428;70;0.625;violin
34.75;0.24895833333333428;60;0.625;violin
34.75;0.24895833333333428;65;0.625;violin
34.75;0.24895833333333428;69;0.625;violin
35.0;0.7489583333333343;58;0.625;violin
35.0;0.7489583333333343;62;0.625;violin
35.0;0.7489583333333343;70;0.625;violin
36.0;0.12395833333333428;65;0.625;violin
36.0;0.12395833333333428;69;0.625;violin
36.25;0.12395833333333428;67;0.625;violin
36.25;0.12395833333333428;70;0.625;violin
36.5;0.12395833333333428;65;0.625;violin
36.5;0.12395833333333428;69;0.625;violin
36.75;0.24895833333333428;82;0.75;violin
36.75;0.24895833333333428;86;0.75;violin
37.0;0.24895833333333428;81;0.625;violin
37.0;0.24895833333333428;84;0.625;violin
37.25;0.12395833333333428;65;0.625;violin
37.25;0.12395833333333428;69;0.625;violin
37.5;0.12395833333333428;67;0.625;violin
37.5;0.12395833333333428;70;0.625;violin
37.75;0.12395833333333428;65;0.625;violin
37.75;0.12395833333333428;69;0.625;violin
38.0;0.24895833333333428;79;0.75;violin
38.0;0.24895833333333428;82;0.75;violin
38.25;0.24895833333333428;77;0.625;violin
38.25;0.24895833333333428;81;0.625;violin
38.5;0.12395833333333428;65;0.625;violin
38.5;0.12395833333333428;69;0.625;violin
38.75;0.12395833333333428;67;0.625;violin
38.75;0.12395833333333428;70;0.625;violin
39.0;0.12395833333333428;65;0.625;violin
39.0;0.12395833333333428;69;0.625;violin
39.25;0.24895833333333428;82;0.75;violin
39.25;0.24895833333333428;86;0.75;violin
39.5;0.24895833333333428;81;0.625;violin
39.5;0.24895833333333428;84;0.625;violin
39.75;0.12395833333333428;65;0.625;violin
39.75;0.12395833333333428;69;0.625;violin
40.0;0.12395833333333428;67;0.625;violin
40.0;0.12395833333333428;70;0.625;violin
40.25;0.12395833333333428;65;0.625;violin
40.25;0.12395833333333428;69;0.625;violin
40.5;0.24895833333333428;79;0.75;violin
40.5;0.24895833333333428;82;0.75;violin
40.75;0.24895833333333428;77;0.625;violin
40.75;0.24895833333333428;81;0.625;violin
41.0;0.12395833333333428;65;0.625;violin
41.0;0.12395833333333428;69;0.625;violin
41.25;0.12395833333333428;67;0.625;violin
41.25;0.12395833333333428;70;0.625;violin
41.5;0.12395833333333428;65;0.625;violin
41.5;0.12395833333333428;69;0.625;violin
41.75;0.24895833333333428;81;0.75;violin
41.75;0.24895833333333428;89;0.75;violin
42.0;0.12395833333333428;74;0.625;violin
42.0;0.12395833333333428;77;0.625;violin
42.25;0.12395833333333428;75;0.625;violin
42.25;0.12395833333333428;79;0.625;violin
42.5;0.24895833333333428;74;0.625;violin
42.5;0.24895833333333428;77;0.625;violin
42.75;0.24895833333333428;82;0.625;violin
42.75;0.24895833333333428;86;0.625;violin
43.0;0.12395833333333428;81;0.625;violin
43.0;0.12395833333333428;85;0.625;violin
43.25;0.12395833333333428;81;0.625;violin
43.25;0.12395833333333428;84;0.625;violin
43.5;0.12395833333333428;80;0.625;violin
43.5;0.12395833333333428;83;0.625;violin
43.75;0.12395833333333428;79;0.625;violin
43.75;0.12395833333333428;82;0.625;violin
44.0;0.12395833333333428;78;0.625;violin
44.0;0.12395833333333428;81;0.625;violin
44.25;0.12395833333333428;77;0.625;violin
44.25;0.12395833333333428;80;0.625;violin
44.5;0.12395833333333428;76;0.625;violin
44.5;0.12395833333333428;79;0.625;violin
44.75;0.12395833333333428;75;0.625;violin
44.75;0.12395833333333428;78;0.625;violin
45.0;0.12395833333333428;74;0.625;violin
45.0;0.12395833333333428;77;0.625;violin
45.25;0.12395833333333428;72;0.625;violin
45.25;0.12395833333333428;75;0.625;violin
45.5;0.24895833333333428;70;0.625;violin
45.5;0.24895833333333428;74;0.625;violin
46.0;0.24895833333333428;65;0.625;violin
46.0;0.24895833333333428;72;0.625;violin
46.25;0.24895833333333428;62;0.625;violin
46.25;0.24895833333333428;70;0.625;violin
46.75;0.24895833333333428;60;0.625;violin
46.75;0.24895833333333428;65;0.625;violin
46.75;0.24895833333333428;69;0.625;violin
47.0;0.7489583333333343;58;0.625;violin
47.0;0.7489583333333343;62;0.625;violin
47.0;0.7489583333333343;70;0.625;violin
48.0;0.2298074624999984;62;0.75;violin
48.230769;0.2298074624999984;62;0.75;violin
48.461538;0.11442296250000084;67;0.8984375;violin
48.5769225;0.11442296250000084;66;0.75;violin
48.692307;0.11442296250000084;67;0.75;violin
48.8076915;0.05673071250000561;55;0.75;violin
48.923076;0.056730712499998504;74;0.75;violin
49.0384605;0.056730712499998504;62;0.75;violin
49.153845;0.11442296250000084;67;0.8984375;violin
49.2692295;0.11442296250000084;66;0.75;violin
49.384614;0.11442296250000084;67;0.75;violin
49.4999985;0.05673071250000561;55;0.75;violin
49.615383;0.056730712499998504;74;0.75;violin
49.7307675;0.056730712499998504;62;0.75;violin
49.846152;0.11442296250000084;67;0.8984375;violin
49.9615365;0.11442296250000084;66;0.75;violin
50.076921;0.11442296250000084;67;0.75;violin
50.1923055;0.056730712499998504;55;0.75;violin
50.30769;0.056730712499998504;79;0.75;violin
50.4230745;0.056730712499998504;67;0.75;violin
50.538459;0.056730712499998504;78;0.75;violin
50.6538435;0.056730712499998504;66;0.75;violin
50.769228;0.056730712499998504;77;0.75;violin
50.8846125;0.056730712499998504;65;0.75;violin
50.999997;0.056730712499998504;76;0.75;violin
51.1153815;0.056730712499998504;64;0.75;violin
51.230766;0.056730712499998504;75;0.75;violin
51.3461505;0.056730712499998504;63;0.75;violin
51.461535;0.056730712499998504;74;0.75;violin
51.5769195;0.056730712499998504;62;0.75;violin
51.692304;0.056730712499998504;73;0.75;violin
51.8076885;0.056730712499998504;61;0.75;violin
51.923073;0.056730712499998504;72;0.75;violin
52.0384575;0.056730712499998504;60;0.75;violin
52.153842;0.056730712499998504;70;0.75;violin
52.2692265;0.056730712499998504;58;0.75;violin
52.384611;0.056730712499998504;69;0.75;violin
52.4999955;0.056730712499998504;57;0.75;violin
52.61538;0.6913454624999957;55;0.75;violin
52.61538;0.6913454624999957;67;0.75;violin
53.307687;0.2298074624999984;62;0.75;violin
53.307687;0.2298074624999984;66;0.75;violin
53.538456;0.2298074625000055;62;0.75;violin
53.769225;0.2298074624999984;62;0.75;violin
53.999994;0.11442296250000084;67;0.75;violin
54.1153785;0.11442296250000084;66;0.75;violin
54.230762999999996;0.11442296250000084;67;0.75;violin
54.3461475;0.056730712499998504;55;0.75;violin
54.461532;0.056730712499998504;74;0.75;violin
54.576916499999996;0.05673071250000561;62;0.75;violin
54.692301;0.11442296250000084;67;0.75;violin
54.8076855;0.11442296250000084;66;0.75;violin
54.923069999999996;0.11442296250000084;67;0.75;violin
55.0384545;0.056730712499998504;55;0.75;violin
55.153839;0.056730712499998504;74;0.75;violin
55.269223499999995;0.05673071250000561;62;0.75;violin
55.384608;0.11442296250000084;67;0.75;violin
55.4999925;0.11442296250000084;66;0.75;violin
55.615376999999995;0.11442296250000084;67;0.75;violin
55.7307615;0.056730712499998504;55;0.75;violin
55.846146;0.05673071250000561;79;0.75;violin
55.9615305;0.056730712499998504;67;0.75;violin
56.076915;0.056730712499998504;78;0.75;violin
56.1922995;0.05673071250000561;66;0.75;violin
56.307683999999995;0.05673071250000561;77;0.75;violin
56.4230685;0.056730712499998504;65;0.75;violin
56.538453;0.05673071250000561;76;0.75;violin
56.6538375;0.056730712499998504;64;0.75;violin
56.769222;0.056730712499998504;75;0.75;violin
56.8846065;0.05673071250000561;63;0.75;violin
56.999991;0.056730712499998504;74;0.75;violin
57.1153755;0.056730712499998504;62;0.75;violin
57.23076;0.05673071250000561;73;0.75;violin
57.3461445;0.056730712499998504;61;0.75;violin
57.461529;0.056730712499998504;72;0.75;violin
57.576913499999996;0.05673071250000561;60;0.75;violin
57.692298;0.056730712499998504;70;0.75;violin
57.8076825;0.056730712499998504;58;0.75;violin
57.923067;0.056730712499998504;69;0.75;violin
58.0384515;0.056730712499998504;57;0.75;violin
58.153836;0.6913454625000028;55;0.75;violin
58.153836;0.6913454625000028;67;0.75;violin
59.076912;0.2298074624999984;62;0.75;violin
59.307681;0.2298074624999984;62;0.75;violin
59.53845;0.11442296250000084;67;0.8984375;violin
59.6538345;0.11442296250000084;66;0.75;violin
59.769219;0.11442296250000084;67;0.75;violin
59.8846035;0.056730712499998504;55;0.75;violin
59.999988;0.056730712499998504;74;0.75;violin
60.1153725;0.056730712499998504;62;0.75;violin
60.230757;0.11442296250000084;67;0.8984375;violin
60.3461415;0.11442296250000084;66;0.75;violin
60.461526;0.11442296250000084;67;0.75;violin
60.5769105;0.056730712499998504;55;0.75;violin
60.692295;0.056730712499998504;74;0.75;violin
60.8076795;0.056730712499998504;62;0.75;violin
60.923064;0.11442296250000084;67;0.8984375;violin
61.0384485;0.11442296250000084;66;0.75;violin
61.153833;0.11442296250000084;67;0.75;violin
61.269217499999996;0.056730712499998504;55;0.75;violin
61.384602;0.056730712499998504;79;0.75;violin
61.4999865;0.056730712499998504;67;0.75;violin
61.615370999999996;0.056730712499998504;78;0.75;violin
61.7307555;0.056730712499998504;66;0.75;violin
61.84614;0.056730712499998504;77;0.75;violin
61.961524499999996;0.056730712499998504;65;0.75;violin
62.076909;0.056730712499998504;76;0.75;violin
62.1922935;0.056730712499998504;64;0.75;violin
62.307677999999996;0.056730712499998504;75;0.75;violin
62.4230625;0.056730712499998504;63;0.75;violin
62.538447;0.056730712499998504;74;0.75;violin
62.653831499999995;0.056730712499998504;62;0.75;violin
62.769216;0.056730712499998504;73;0.75;violin
62.8846005;0.056730712499998504;61;0.75;violin
62.999984999999995;0.05673071250000561;72;0.75;violin
63.1153695;0.056730712499998504;60;0.75;violin
63.230754;0.056730712499998504;70;0.75;violin
63.346138499999995;0.05673071250000561;58;0.75;violin
63.461523;0.056730712499998504;69;0.75;violin
63.5769075;0.056730712499998504;57;0.75;violin
63.692291999999995;0.6913454624999957;55;0.75;violin
63.692291999999995;0.6913454624999957;67;0.75;violin
64.384599;0.2298074625000055;62;0.75;violin
64.384599;0.2298074625000055;66;0.75;violin
64.61536799999999;0.2298074625000055;62;0.75;violin
64.846137;0.2298074624999913;62;0.75;violin
65.076906;0.11442296250000084;67;0.75;violin
65.1922905;0.11442296250000084;66;0.75;violin
65.307675;0.11442296250000084;67;0.75;violin
65.4230595;0.056730712500012714;55;0.75;violin
65.538444;0.056730712499998504;74;0.75;violin
65.6538285;0.056730712499998504;62;0.75;violin
65.769213;0.11442296250000084;67;0.75;violin
65.8845975;0.11442296250000084;66;0.75;violin
65.999982;0.11442296250000084;67;0.75;violin
66.1153665;0.056730712500012714;55;0.75;violin
66.230751;0.056730712499998504;74;0.75;violin
66.3461355;0.056730712499998504;62;0.75;violin
66.46152;0.11442296250000084;67;0.75;violin
66.5769045;0.11442296250000084;66;0.75;violin
66.692289;0.11442296250000084;67;0.75;violin
66.80767349999999;0.056730712500012714;55;0.75;violin
66.923058;0.056730712499998504;79;0.75;violin
67.0384425;0.056730712499998504;67;0.75;violin
67.15382699999999;0.056730712499998504;78;0.75;violin
67.2692115;0.056730712499998504;66;0.75;violin
67.384596;0.056730712499998504;77;0.75;violin
67.49998049999999;0.056730712500012714;65;0.75;violin
67.615365;0.056730712499998504;76;0.75;violin
67.7307495;0.056730712499998504;64;0.75;violin
67.846134;0.05673071249998429;75;0.75;violin
67.9615185;0.056730712499998504;63;0.75;violin
68.076903;0.056730712499998504;74;0.75;violin
68.19228749999999;0.056730712500012714;62;0.75;violin
68.307672;0.056730712499998504;73;0.75;violin
68.4230565;0.056730712499998504;61;0.75;violin
68.538441;0.05673071249998429;72;0.75;violin
68.6538255;0.056730712499998504;60;0.75;violin
68.76921;0.056730712499998504;70;0.75;violin
68.88459449999999;0.056730712500012714;58;0.75;violin
68.999979;0.056730712499998504;69;0.75;violin
69.1153635;0.056730712499998504;57;0.75;violin
69.230748;0.6913454624999957;55;0.75;violin
69.230748;0.6913454624999957;67;0.75;violin
70.153824;0.2298074625000055;86;0.75;violin
70.384593;0.2298074625000055;86;0.75;violin
70.615362;0.11442296249998662;91;0.75;violin
70.7307465;0.11442296250000084;90;0.75;violin
70.846131;0.11442296250000084;91;0.75;violin
70.96151549999999;0.11442296250001505;79;0.75;violin
71.0769;0.11442296250000084;83;0.75;violin
71.0769;0.11442296250000084;86;0.75;violin
71.1922845;0.11442296250000084;79;0.75;violin
71.307669;0.11442296249998662;84;0.75;violin
71.4230535;0.11442296250000084;83;0.75;violin
71.538438;0.11442296250000084;84;0.75;violin
71.65382249999999;0.11442296250001505;72;0.75;violin
71.769207;0.11442296250000084;75;0.75;violin
71.769207;0.11442296250000084;79;0.75;violin
71.8845915;0.11442296250000084;72;0.75;violin
71.999976;0.11442296249998662;89;0.75;violin
72.1153605;0.11442296250000084;88;0.75;violin
72.230745;0.11442296250000084;89;0.75;violin
72.34612949999999;0.11442296250001505;77;0.75;violin
72.461514;0.11442296250000084;81;0.75;violin
72.461514;0.11442296250000084;84;0.75;violin
72.5768985;0.11442296250000084;77;0.8984375;violin
72.692283;0.11442296249998662;82;0.75;violin
72.8076675;0.11442296250000084;81;0.75;violin
72.923052;0.11442296250000084;82;0.75;violin
73.03843649999999;0.056730712500012714;70;0.75;violin
73.153821;0.056730712499998504;74;0.75;violin
73.153821;0.056730712499998504;77;0.75;violin
73.2692055;0.056730712499998504;70;0.75;violin
73.38459;0.11442296249998662;87;0.75;violin
73.4999745;0.11442296250000084;86;0.75;violin
73.615359;0.11442296250000084;87;0.75;violin
73.73074349999999;0.11442296250001505;75;0.75;violin
73.846128;0.11442296250000084;79;0.75;violin
73.846128;0.11442296250000084;82;0.75;violin
73.9615125;0.11442296250000084;75;0.8984375;violin
74.076897;0.11442296249998662;81;0.75;violin
74.19228149999999;0.11442296250000084;80;0.75;violin
74.307666;0.11442296250000084;81;0.75;violin
74.4230505;0.056730712499998504;69;0.75;violin
74.53843499999999;0.056730712500012714;78;0.75;violin
74.53843499999999;0.056730712500012714;86;0.75;violin
74.6538195;0.056730712499998504;74;0.75;violin
74.769204;0.11442296249998662;79;0.75;violin
74.769204;0.11442296249998662;82;0.75;violin
74.88458849999999;0.11442296250000084;67;0.75;violin
74.999973;0.11442296250000084;79;0.75;violin
74.999973;0.11442296250000084;82;0.75;violin
75.1153575;0.11442296250000084;63;0.75;violin
75.23074199999999;0.11442296250000084;79;0.75;violin
75.23074199999999;0.11442296250000084;82;0.75;violin
75.3461265;0.11442296250000084;61;0.75;violin
75.461511;0.2298074624999913;62;0.75;violin
75.69228;0.2298074625000055;78;0.75;violin
75.69228;0.2298074625000055;86;0.75;violin
75.92304899999999;0.2298074625000055;62;0.75;violin
76.153818;0.11442296250000084;67;0.8984375;violin
76.26920249999999;0.11442296250000084;66;0.75;violin
76.384587;0.11442296250000084;67;0.75;violin
76.4999715;0.056730712499998504;55;0.75;violin
76.61535599999999;0.056730712500012714;74;0.75;violin
76.7307405;0.056730712499998504;62;0.75;violin
76.846125;0.11442296250000084;67;0.8984375;violin
76.9615095;0.11442296249998662;66;0.75;violin
77.076894;0.11442296250000084;67;0.75;violin
77.1922785;0.056730712499998504;55;0.75;violin
77.30766299999999;0.056730712500012714;74;0.75;violin
77.4230475;0.056730712499998504;62;0.75;violin
77.538432;0.11442296250000084;67;0.8984375;violin
77.6538165;0.11442296249998662;66;0.75;violin
77.769201;0.11442296250000084;67;0.75;violin
77.8845855;0.056730712499998504;55;0.75;violin
77.99996999999999;0.11442296250000084;79;0.8984375;violin
78.1153545;0.056730712499998504;67;0.75;violin
78.230739;0.11442296250000084;77;0.75;violin
78.3461235;0.11442296249998662;65;0.75;violin
78.461508;0.11442296250000084;75;0.75;violin
78.5768925;0.11442296250000084;63;0.75;violin
78.69227699999999;0.11442296250001505;81;0.8984375;violin
78.8076615;0.11442296250000084;69;0.75;violin
78.923046;0.11442296250000084;79;0.75;violin
79.0384305;0.11442296249998662;67;0.75;violin
79.153815;0.11442296250000084;78;0.75;violin
79.2691995;0.11442296250000084;66;0.75;violin
79.38458399999999;0.11442296250001505;82;0.8984375;violin
79.4999685;0.11442296250000084;70;0.75;violin
79.615353;0.11442296250000084;81;0.75;violin
79.7307375;0.11442296249998662;69;0.75;violin
79.846122;0.11442296250000084;79;0.75;violin
79.9615065;0.11442296250000084;67;0.75;violin
80.07689099999999;0.11442296250001505;84;0.8984375;violin
80.1922755;0.11442296250000084;72;0.75;violin
80.30766;0.11442296250000084;82;0.75;violin
80.4230445;0.11442296249998662;70;0.75;violin
80.538429;0.11442296250000084;81;0.75;violin
80.6538135;0.11442296250000084;69;0.75;violin
80.76919799999999;0.11442296250001505;87;0.8984375;violin
80.8845825;0.11442296250000084;75;0.75;violin
80.999967;0.11442296250000084;85;0.75;violin
81.1153515;0.11442296249998662;73;0.75;violin
81.230736;0.11442296250000084;86;0.75;violin
81.3461205;0.11442296250000084;74;0.75;violin
81.46150499999999;0.11442296250001505;87;0.8984375;violin
81.5768895;0.11442296250000084;75;0.75;violin
81.692274;0.11442296250000084;85;0.75;violin
81.8076585;0.11442296249998662;73;0.75;violin
81.92304299999999;0.11442296250000084;86;0.75;violin
82.0384275;0.11442296250000084;74;0.75;violin
82.15381199999999;0.11442296250001505;87;0.8984375;violin
82.26919649999999;0.11442296250000084;75;0.75;violin
82.384581;0.11442296250000084;85;0.75;violin
82.4999655;0.11442296249998662;73;0.75;violin
82.61535;0.11442296249998662;86;0.75;violin
82.7307345;0.11442296250000084;74;0.75;violin
82.84611899999999;0.11442296250001505;84;0.75;violin
82.96150349999999;0.11442296250000084;72;0.75;violin
83.076888;0.11442296250000084;82;0.75;violin
83.1922725;0.11442296249998662;70;0.75;violin
83.307657;0.11442296249998662;81;0.75;violin
83.4230415;0.11442296250000084;69;0.75;violin
83.53842599999999;0.11442296250001505;79;0.75;violin
83.65381049999999;0.11442296250000084;67;0.75;violin
83.769195;0.11442296250000084;68;0.75;violin
83.8845795;0.11442296249998662;67;0.75;violin
83.999964;0.11442296249998662;68;0.75;violin
84.1153485;0.11442296250000084;56;0.75;violin
84.23073299999999;0.11442296250001505;75;0.75;violin
84.34611749999999;0.11442296250001505;63;0.75;violin
84.461502;0.11442296250000084;68;0.75;violin
84.5768865;0.11442296249998662;67;0.75;violin
84.692271;0.11442296249998662;68;0.75;violin
84.8076555;0.11442296250000084;56;0.75;violin
84.92303999999999;0.11442296250001505;75;0.75;violin
85.03842449999999;0.11442296250001505;63;0.75;violin
85.153809;0.11442296250000084;68;0.75;violin
85.2691935;0.11442296249998662;67;0.75;violin
85.384578;0.11442296249998662;68;0.75;violin
85.4999625;0.11442296250000084;56;0.75;violin
85.61534699999999;0.11442296250001505;72;0.75;violin
85.73073149999999;0.11442296250001505;56;0.75;violin
85.846116;0.11442296250000084;75;0.75;violin
85.9615005;0.11442296249998662;56;0.75;violin
86.076885;0.11442296249998662;80;0.75;violin
86.1922695;0.11442296250000084;56;0.75;violin
86.30765399999999;0.11442296250001505;84;0.75;violin
86.42303849999999;0.11442296250001505;56;0.75;violin
86.538423;0.11442296250000084;66;0.75;violin
86.6538075;0.11442296249998662;65;0.75;violin
86.769192;0.11442296249998662;66;0.75;violin
86.8845765;0.11442296250000084;81;0.75;violin
86.999961;0.11442296250000084;67;0.75;violin
87.11534549999999;0.11442296250001505;82;0.75;violin
87.23073;0.11442296250000084;69;0.75;violin
87.3461145;0.11442296249998662;84;0.75;violin
87.461499;0.11442296249998662;70;0.75;violin
87.5768835;0.11442296250000084;86;0.75;violin
87.692268;0.11442296250000084;72;0.75;violin
87.80765249999999;0.11442296250001505;87;0.75;violin
87.923037;0.11442296250000084;74;0.75;violin
88.0384215;0.11442296249998662;73;0.75;violin
88.153806;0.11442296249998662;74;0.75;violin
88.2691905;0.11442296250000084;91;0.75;violin
88.384575;0.11442296250000084;62;0.75;violin
88.49995949999999;0.11442296250001505;90;0.75;violin
88.615344;0.11442296250000084;91;0.75;violin
88.7307285;0.11442296250000084;90;0.75;violin
88.846113;0.11442296249998662;91;0.75;violin
88.9614975;0.11442296250000084;79;0.75;violin
89.076882;0.11442296250000084;86;0.75;violin
89.19226649999999;0.11442296250001505;74;0.75;violin
89.30765099999999;0.11442296250000084;79;0.75;violin
89.4230355;0.11442296250000084;78;0.75;violin
89.53842;0.11442296249998662;79;0.75;violin
89.65380449999999;0.11442296250000084;67;0.75;violin
89.769189;0.11442296250000084;74;0.75;violin
89.88457349999999;0.11442296250001505;62;0.75;violin
89.99995799999999;0.11442296250000084;67;0.75;violin
90.1153425;0.11442296250000084;66;0.75;violin
90.230727;0.11442296249998662;67;0.75;violin
90.34611149999999;0.11442296250000084;55;0.75;violin
90.461496;0.11442296250000084;74;0.75;violin
90.57688049999999;0.11442296250001505;62;0.75;violin
90.69226499999999;0.11442296250000084;67;0.75;violin
90.8076495;0.11442296250000084;66;0.75;violin
90.923034;0.11442296249998662;67;0.75;violin
91.03841849999999;0.11442296250000084;55;0.75;violin
91.153803;0.11442296250000084;74;0.75;violin
91.26918749999999;0.11442296250001505;62;0.75;violin
91.38457199999999;0.2298074625000055;67;0.75;violin
91.615341;0.4605764625000006;55;0.75;violin
92.307648;0.2298074624999913;86;0.75;violin
92.538417;0.2298074625000055;86;0.75;violin
92.76918599999999;0.11442296250000084;91;0.75;violin
92.8845705;0.11442296250000084;90;0.75;violin
92.999955;0.11442296249998662;91;0.75;violin
93.1153395;0.11442296249998662;79;0.75;violin
93.230724;0.11442296250000084;83;0.75;violin
93.230724;0.11442296250000084;86;0.75;violin
93.34610849999999;0.11442296250001505;79;0.75;violin
93.46149299999999;0.11442296250001505;84;0.75;violin
93.5768775;0.11442296250000084;83;0.75;violin
93.692262;0.11442296249998662;84;0.75;violin
93.8076465;0.11442296249998662;72;0.75;violin
93.923031;0.11442296250000084;75;0.75;violin
93.923031;0.11442296250000084;79;0.75;violin
94.03841549999999;0.11442296250001505;72;0.75;violin
94.15379999999999;0.11442296250001505;89;0.75;violin
94.2691845;0.11442296250000084;88;0.75;violin
94.384569;0.11442296249998662;89;0.75;violin
94.4999535;0.11442296249998662;77;0.75;violin
94.615338;0.11442296250000084;81;0.75;violin
94.615338;0.11442296250000084;84;0.75;violin
94.73072249999998;0.11442296250001505;77;0.8984375;violin
94.84610699999999;0.11442296250001505;82;0.75;violin
94.9614915;0.11442296250000084;81;0.75;violin
95.076876;0.11442296249998662;82;0.75;violin
95.1922605;0.05673071249998429;70;0.75;violin
95.307645;0.056730712499998504;74;0.75;violin
95.307645;0.056730712499998504;77;0.75;violin
95.42302949999998;0.056730712500012714;70;0.75;violin
95.53841399999999;0.11442296250001505;87;0.75;violin
95.6537985;0.11442296250000084;86;0.75;violin
95.769183;0.11442296249998662;87;0.75;violin
95.8845675;0.11442296249998662;75;0.75;violin
95.999952;0.11442296250000084;79;0.75;violin
95.999952;0.11442296250000084;82;0.75;violin
96.1153365;0.11442296250000084;75;0.8984375;violin
96.23072099999999;0.11442296250001505;81;0.75;violin
96.3461055;0.11442296250000084;80;0.75;violin
96.46149;0.11442296249998662;81;0.75;violin
96.5768745;0.05673071249998429;69;0.75;violin
96.69225899999999;0.056730712499998504;78;0.75;violin
96.69225899999999;0.056730712499998504;86;0.75;violin
96.8076435;0.056730712499998504;74;0.75;violin
96.92302799999999;0.11442296250001505;79;0.75;violin
96.92302799999999;0.11442296250001505;82;0.75;violin
97.03841249999999;0.11442296250000084;67;0.75;violin
97.153797;0.11442296249998662;79;0.75;violin
97.153797;0.11442296249998662;82;0.75;violin
97.2691815;0.11442296249998662;63;0.75;violin
97.38456599999999;0.11442296250000084;79;0.75;violin
97.38456599999999;0.11442296250000084;82;0.75;violin
97.4999505;0.11442296250000084;61;0.75;violin
97.61533499999999;0.2298074625000055;62;0.75;violin
97.846104;0.2298074624999913;78;0.75;violin
97.846104;0.2298074624999913;86;0.75;violin
98.07687299999999;0.2298074625000055;62;0.75;violin
98.30764199999999;0.11442296250001505;67;0.8984375;violin
98.42302649999999;0.11442296250000084;66;0.75;violin
98.538411;0.11442296250000084;67;0.75;violin
98.6537955;0.05673071249998429;55;0.75;violin
98.76917999999999;0.056730712499998504;74;0.75;violin
98.8845645;0.056730712499998504;62;0.75;violin
98.99994899999999;0.11442296250001505;67;0.8984375;violin
99.11533349999999;0.11442296250000084;66;0.75;violin
99.230718;0.11442296250000084;67;0.75;violin
99.3461025;0.05673071249998429;55;0.75;violin
99.46148699999999;0.056730712499998504;74;0.75;violin
99.5768715;0.056730712499998504;62;0.75;violin
99.69225599999999;0.11442296250001505;67;0.8984375;violin
99.80764049999999;0.11442296250000084;66;0.75;violin
99.923025;0.11442296250000084;67;0.75;violin
100.0384095;0.05673071249998429;55;0.75;violin
100.15379399999999;0.11442296250000084;79;0.8984375;violin
100.2691785;0.056730712499998504;67;0.75;violin
100.38456299999999;0.11442296250001505;77;0.75;violin
100.49994749999999;0.11442296250000084;65;0.75;violin
100.615332;0.11442296250000084;75;0.75;violin
100.7307165;0.11442296249998662;63;0.75;violin
100.846101;0.11442296249998662;81;0.8984375;violin
100.9614855;0.11442296250000084;69;0.75;violin
101.07686999999999;0.11442296250001505;79;0.75;violin
101.19225449999999;0.11442296250000084;67;0.75;violin
101.307639;0.11442296250000084;78;0.75;violin
101.4230235;0.11442296249998662;66;0.75;violin
101.538408;0.11442296249998662;82;0.8984375;violin
101.6537925;0.11442296250000084;70;0.75;violin
101.76917699999998;0.11442296250001505;81;0.75;violin
101.88456149999999;0.11442296250000084;69;0.75;violin
101.999946;0.11442296250000084;79;0.75;violin
102.1153305;0.11442296249998662;67;0.75;violin
102.230715;0.11442296249998662;84;0.8984375;violin
102.3460995;0.11442296250000084;72;0.75;violin
102.46148399999998;0.11442296250001505;82;0.75;violin
102.57686849999999;0.11442296250001505;70;0.75;violin
102.692253;0.11442296250000084;81;0.75;violin
102.8076375;0.11442296249998662;69;0.75;violin
102.923022;0.11442296249998662;87;0.8984375;violin
103.0384065;0.11442296250000084;75;0.75;violin
103.15379099999998;0.11442296250001505;85;0.75;violin
103.26917549999999;0.11442296250001505;73;0.75;violin
103.38456;0.11442296250000084;86;0.75;violin
103.4999445;0.11442296249998662;74;0.75;violin
103.615329;0.11442296249998662;87;0.8984375;violin
103.7307135;0.11442296250000084;75;0.75;violin
103.84609799999998;0.11442296250001505;85;0.75;violin
103.96148249999999;0.11442296250001505;73;0.75;violin
104.076867;0.11442296250000084;86;0.75;violin
104.1922515;0.11442296249998662;74;0.75;violin
104.307636;0.11442296249998662;87;0.8984375;violin
104.42302049999999;0.11442296250000084;75;0.75;violin
104.53840499999998;0.11442296250001505;85;0.75;violin
104.65378949999999;0.11442296250001505;73;0.75;violin
104.76917399999999;0.11442296250000084;86;0.75;violin
104.8845585;0.11442296249998662;74;0.75;violin
104.999943;0.11442296249998662;84;0.75;violin
105.11532749999999;0.11442296250000084;72;0.75;violin
105.230712;0.11442296250000084;82;0.75;violin
105.34609649999999;0.11442296250001505;70;0.75;violin
105.46148099999999;0.11442296250000084;81;0.75;violin
105.5768655;0.11442296249998662;69;0.75;violin
105.69225;0.11442296249998662;79;0.75;violin
105.80763449999999;0.11442296250000084;67;0.75;violin
105.923019;0.11442296250000084;68;0.75;violin
106.03840349999999;0.11442296250001505;67;0.75;violin
106.15378799999999;0.11442296250000084;68;0.75;violin
106.2691725;0.11442296249998662;56;0.75;violin
106.384557;0.11442296249998662;75;0.75;violin
106.49994149999999;0.11442296250000084;63;0.75;violin
106.615326;0.11442296250000084;68;0.75;violin
106.73071049999999;0.11442296250001505;67;0.75;violin
106.84609499999999;0.11442296250000084;68;0.75;violin
106.9614795;0.11442296250000084;56;0.75;violin
107.076864;0.11442296249998662;75;0.75;violin
107.19224849999999;0.11442296250000084;63;0.75;violin
107.307633;0.11442296250000084;68;0.75;violin
107.42301749999999;0.11442296250001505;67;0.75;violin
107.53840199999999;0.11442296250000084;68;0.75;violin
107.6537865;0.11442296250000084;56;0.75;violin
107.769171;0.11442296249998662;72;0.75;violin
107.88455549999999;0.11442296250000084;56;0.75;violin
107.99994;0.11442296250000084;75;0.75;violin
108.11532449999999;0.11442296250001505;56;0.75;violin
108.23070899999999;0.11442296250000084;80;0.75;violin
108.3460935;0.11442296250000084;56;0.75;violin
108.461478;0.11442296249998662;84;0.75;violin
108.57686249999999;0.11442296250000084;56;0.75;violin
108.692247;0.11442296250000084;66;0.75;violin
108.80763149999999;0.11442296250001505;65;0.75;violin
108.92301599999999;0.11442296250000084;66;0.75;violin
109.0384005;0.11442296250000084;81;0.75;violin
109.153785;0.11442296249998662;67;0.75;violin
109.26916949999999;0.11442296250000084;82;0.75;violin
109.384554;0.11442296250000084;69;0.75;violin
109.49993849999998;0.11442296250001505;84;0.75;violin
109.61532299999999;0.11442296250000084;70;0.75;violin
109.7307075;0.11442296250000084;86;0.75;violin
109.846092;0.11442296249998662;72;0.75;violin
109.9614765;0.11442296249998662;87;0.75;violin
110.076861;0.11442296250000084;74;0.75;violin
110.19224549999998;0.11442296250001505;73;0.75;violin
110.30762999999999;0.11442296250000084;74;0.75;violin
110.4230145;0.11442296250000084;91;0.75;violin
110.538399;0.11442296249998662;62;0.75;violin
110.6537835;0.11442296249998662;90;0.75;violin
110.769168;0.11442296250000084;91;0.75;violin
110.88455249999998;0.11442296250001505;90;0.75;violin
110.99993699999999;0.11442296250001505;91;0.75;violin
111.1153215;0.11442296250000084;79;0.75;violin
111.230706;0.11442296249998662;86;0.75;violin
111.3460905;0.11442296249998662;74;0.75;violin
111.461475;0.11442296250000084;79;0.75;violin
111.57685949999998;0.11442296250001505;78;0.75;violin
111.69224399999999;0.11442296250001505;79;0.75;violin
111.80762849999999;0.11442296250000084;67;0.75;violin
111.923013;0.11442296250000084;74;0.75;violin
112.03839749999999;0.11442296250000084;62;0.75;violin
112.15378199999999;0.11442296250000084;67;0.75;violin
112.2691665;0.11442296250000084;66;0.75;violin
112.38455099999999;0.11442296250000084;67;0.75;violin
112.49993549999999;0.11442296250000084;55;0.75;violin
112.61532;0.11442296250000084;74;0.75;violin
112.73070449999999;0.11442296250000084;62;0.75;violin
112.84608899999999;0.11442296250000084;67;0.75;violin
112.9614735;0.11442296250000084;66;0.75;violin
113.07685799999999;0.11442296250000084;67;0.75;violin
113.19224249999999;0.11442296250000084;55;0.75;violin
113.307627;0.11442296250000084;74;0.75;violin
113.42301149999999;0.11442296250000084;62;0.75;violin
113.53839599999999;0.2298074625000055;67;0.75;violin
113.76916499999999;0.4605764625000006;55;0.75;violin
114.46147199999999;0.24895833333333428;74;0.625;violin
114.46147199999999;0.24895833333333428;77;0.625;violin
114.71147199999999;0.24895833333333428;75;0.625;violin
114.71147199999999;0.24895833333333428;79;0.625;violin
114.96147199999999;0.24895833333333428;74;0.625;violin
114.96147199999999;0.24895833333333428;77;0.625;violin
115.21147199999999;0.24895833333333428;82;0.625;violin
115.21147199999999;0.24895833333333428;86;0.625;violin
115.46147199999999;0.12395833333333428;81;0.625;violin
115.46147199999999;0.12395833333333428;85;0.625;violin
115.71147199999999;0.12395833333333428;81;0.625;violin
115.71147199999999;0.12395833333333428;84;0.625;violin
115.96147199999999;0.12395833333333428;80;0.625;violin
115.96147199999999;0.12395833333333428;83;0.625;violin
116.21147199999999;0.12395833333333428;79;0.625;violin
116.21147199999999;0.12395833333333428;82;0.625;violin
116.46147199999999;0.12395833333333428;78;0.625;violin
116.46147199999999;0.12395833333333428;81;0.625;violin
116.71147199999999;0.12395833333333428;77;0.625;violin
116.71147199999999;0.12395833333333428;80;0.625;violin
116.96147199999999;0.12395833333333428;76;0.625;violin
116.96147199999999;0.12395833333333428;79;0.625;violin
117.21147199999999;0.12395833333333428;75;0.625;violin
117.21147199999999;0.12395833333333428;78;0.625;violin
117.46147199999999;0.12395833333333428;74;0.625;violin
117.46147199999999;0.12395833333333428;77;0.625;violin
117.71147199999999;0.12395833333333428;72;0.625;violin
117.71147199999999;0.12395833333333428;75;0.625;violin
117.96147199999999;0.24895833333333428;70;0.625;violin
117.96147199999999;0.24895833333333428;74;0.625;violin
118.46147199999999;0.24895833333333428;65;0.625;violin
118.46147199999999;0.24895833333333428;72;0.625;violin
118.71147199999999;0.24895833333333428;62;0.625;violin
118.71147199999999;0.24895833333333428;70;0.625;violin
119.21147199999999;0.24895833333333428;65;0.625;violin
119.21147199999999;0.24895833333333428;72;0.625;violin
119.46147199999999;0.7489583333333343;70;0.75;violin
119.46147199999999;0.7489583333333343;74;0.75;violin
120.21147199999999;0.24895833333333428;62;0.625;violin
120.21147199999999;0.24895833333333428;70;0.625;violin
120.46147199999999;0.24895833333333428;74;0.625;violin
120.46147199999999;0.24895833333333428;77;0.625;violin
120.71147199999999;0.24895833333333428;75;0.625;violin
120.71147199999999;0.24895833333333428;79;0.625;violin
120.96147199999999;0.24895833333333428;74;0.625;violin
120.96147199999999;0.24895833333333428;77;0.625;violin
121.21147199999999;0.24895833333333428;82;0.625;violin
121.21147199999999;0.24895833333333428;86;0.625;violin
121.46147199999999;0.12395833333333428;81;0.625;violin
121.46147199999999;0.12395833333333428;85;0.625;violin
121.71147199999999;0.12395833333333428;81;0.625;violin
121.71147199999999;0.12395833333333428;84;0.625;violin
121.96147199999999;0.12395833333333428;80;0.625;violin
121.96147199999999;0.12395833333333428;83;0.625;violin
122.21147199999999;0.12395833333333428;79;0.625;violin
122.21147199999999;0.12395833333333428;82;0.625;violin
122.46147199999999;0.12395833333333428;78;0.625;violin
122.46147199999999;0.12395833333333428;81;0.625;violin
122.71147199999999;0.12395833333333428;77;0.625;violin
122.71147199999999;0.12395833333333428;80;0.625;violin
122.96147199999999;0.12395833333333428;76;0.625;violin
122.96147199999999;0.12395833333333428;79;0.625;violin
123.21147199999999;0.12395833333333428;75;0.625;violin
123.21147199999999;0.12395833333333428;78;0.625;violin
123.46147199999999;0.12395833333333428;74;0.625;violin
123.46147199999999;0.12395833333333428;77;0.625;violin
123.71147199999999;0.12395833333333428;72;0.625;violin
123.71147199999999;0.12395833333333428;75;0.625;violin
123.96147199999999;0.24895833333333428;70;0.625;violin
123.96147199999999;0.24895833333333428;74;0.625;violin
124.46147199999999;0.24895833333333428;65;0.625;violin
124.46147199999999;0.24895833333333428;72;0.625;violin
124.71147199999999;0.24895833333333428;62;0.625;violin
124.71147199999999;0.24895833333333428;70;0.625;violin
125.21147199999999;0.24895833333333428;60;0.625;violin
125.21147199999999;0.24895833333333428;65;0.625;violin
125.21147199999999;0.24895833333333428;69;0.625;violin
125.46147199999999;0.7489583333333343;58;0.625;violin
125.46147199999999;0.7489583333333343;62;0.625;violin
125.46147199999999;0.7489583333333343;70;0.625;violin
126.46147199999999;0.12395833333333428;65;0.625;violin
126.46147199999999;0.12395833333333428;69;0.625;violin
126.71147199999999;0.12395833333333428;67;0.625;violin
126.71147199999999;0.12395833333333428;70;0.625;violin
126.96147199999999;0.12395833333333428;65;0.625;violin
126.96147199999999;0.12395833333333428;69;0.625;violin
127.21147199999999;0.24895833333333428;82;0.75;violin
127.21147199999999;0.24895833333333428;86;0.75;violin
127.46147199999999;0.24895833333333428;81;0.625;violin
127.46147199999999;0.24895833333333428;84;0.625;violin
127.71147199999999;0.12395833333333428;65;0.625;violin
127.71147199999999;0.12395833333333428;69;0.625;violin
127.96147199999999;0.12395833333332007;67;0.625;violin
127.96147199999999;0.12395833333332007;70;0.625;violin
128.211472;0.12395833333332007;65;0.625;violin
128.211472;0.12395833333332007;69;0.625;violin
128.461472;0.24895833333332007;79;0.75;violin
128.461472;0.24895833333332007;82;0.75;violin
128.711472;0.24895833333332007;77;0.625;violin
128.711472;0.24895833333332007;81;0.625;violin
128.961472;0.12395833333332007;65;0.625;violin
128.961472;0.12395833333332007;69;0.625;violin
129.211472;0.12395833333332007;67;0.625;violin
129.211472;0.12395833333332007;70;0.625;violin
129.461472;0.12395833333332007;65;0.625;violin
129.461472;0.12395833333332007;69;0.625;violin
129.711472;0.24895833333332007;82;0.75;violin
129.711472;0.24895833333332007;86;0.75;violin
129.961472;0.24895833333332007;81;0.625;violin
129.961472;0.24895833333332007;84;0.625;violin
130.211472;0.12395833333332007;65;0.625;violin
130.211472;0.12395833333332007;69;0.625;violin
130.461472;0.12395833333332007;67;0.625;violin
130.461472;0.12395833333332007;70;0.625;violin
130.711472;0.12395833333332007;65;0.625;violin
130.711472;0.12395833333332007;69;0.625;violin
130.961472;0.24895833333332007;79;0.75;violin
130.961472;0.24895833333332007;82;0.75;violin
131.211472;0.24895833333332007;77;0.625;violin
131.211472;0.24895833333332007;81;0.625;violin
131.461472;0.12395833333332007;65;0.625;violin
131.461472;0.12395833333332007;69;0.625;violin
131.711472;0.12395833333332007;67;0.625;violin
131.711472;0.12395833333332007;70;0.625;violin
131.961472;0.12395833333332007;65;0.625;violin
131.961472;0.12395833333332007;69;0.625;violin
132.211472;0.24895833333332007;81;0.75;violin
132.211472;0.24895833333332007;89;0.75;violin
132.461472;0.12395833333332007;74;0.625;violin
132.461472;0.12395833333332007;77;0.625;violin
132.711472;0.12395833333332007;75;0.625;violin
132.711472;0.12395833333332007;79;0.625;violin
132.961472;0.24895833333332007;74;0.625;violin
132.961472;0.24895833333332007;77;0.625;violin
133.211472;0.24895833333332007;82;0.625;violin
133.211472;0.24895833333332007;86;0.625;violin
133.461472;0.12395833333332007;81;0.625;violin
133.461472;0.12395833333332007;85;0.625;violin
133.711472;0.12395833333332007;81;0.625;violin
133.711472;0.12395833333332007;84;0.625;violin
133.961472;0.12395833333332007;80;0.625;violin
133.961472;0.12395833333332007;83;0.625;violin
134.211472;0.12395833333332007;79;0.625;violin
134.211472;0.12395833333332007;82;0.625;violin
134.461472;0.12395833333332007;78;0.625;violin
134.461472;0.12395833333332007;81;0.625;violin
134.711472;0.12395833333332007;77;0.625;violin
134.711472;0.12395833333332007;80;0.625;violin
134.961472;0.12395833333332007;76;0.625;violin
134.961472;0.12395833333332007;79;0.625;violin
135.211472;0.12395833333332007;75;0.625;violin
135.211472;0.12395833333332007;78;0.625;violin
135.461472;0.12395833333332007;74;0.625;violin
135.461472;0.12395833333332007;77;0.625;violin
135.711472;0.12395833333332007;72;0.625;violin
135.711472;0.12395833333332007;75;0.625;violin
135.961472;0.24895833333332007;70;0.625;violin
135.961472;0.24895833333332007;74;0.625;violin
136.461472;0.24895833333332007;65;0.625;violin
136.461472;0.24895833333332007;72;0.625;violin
136.711472;0.24895833333332007;62;0.625;violin
136.711472;0.24895833333332007;70;0.625;violin
137.211472;0.24895833333332007;60;0.625;violin
137.211472;0.24895833333332007;65;0.625;violin
137.211472;0.24895833333332007;69;0.625;violin
137.461472;0.7489583333333201;58;0.625;violin
137.461472;0.7489583333333201;62;0.625;violin
137.461472;0.7489583333333201;70;0.625;violin
