start;duration;pitch;velocity;instrument
0.0;0.29874950208333334;63;0.625;violin
0.0;0.29874950208333334;67;0.625;violin
0.29999950000000003;0.1487497520833333;63;0.625;violin
0.29999950000000003;0.1487497520833333;67;0.625;violin
0.44999925;0.14874975208333335;63;0.625;violin
0.44999925;0.14874975208333335;67;0.625;violin
0.5999990000000001;0.2987495020833333;63;0.625;violin
0.5999990000000001;0.2987495020833333;67;0.625;violin
0.8999985;0.2987495020833334;63;0.625;violin
0.8999985;0.2987495020833334;67;0.625;violin
1.1999980000000001;0.2987495020833333;63;0.625;violin
1.1999980000000001;0.2987495020833333;67;0.625;violin
1.4999975;0.2987495020833333;58;0.625;violin
1.4999975;0.2987495020833333;65;0.625;violin
1.799997;0.5987490020833335;55;0.625;violin
1.799997;0.5987490020833335;63;0.625;violin
2.3999960000000002;0.29874950208333306;63;0.625;violin
2.3999960000000002;0.29874950208333306;67;0.625;violin
2.3999960000000002;0.29874950208333306;70;0.625;violin
2.6999955;0.1487497520833334;63;0.625;violin
2.6999955;0.1487497520833334;67;0.625;violin
2.6999955;0.1487497520833334;70;0.625;violin
2.84999525;0.1487497520833334;63;0.625;violin
2.84999525;0.1487497520833334;67;0.625;violin
2.84999525;0.1487497520833334;70;0.625;violin
2.999995;0.29874950208333306;63;0.625;violin
2.999995;0.29874950208333306;67;0.625;violin
2.999995;0.29874950208333306;70;0.625;violin
3.2999945;0.2987495020833335;63;0.625;violin
3.2999945;0.2987495020833335;67;0.625;violin
3.2999945;0.2987495020833335;70;0.625;violin
3.599994;0.2987495020833335;63;0.625;violin
3.599994;0.2987495020833335;67;0.625;violin
3.599994;0.2987495020833335;70;0.625;violin
3.8999935000000003;0.2987495020833335;58;0.625;violin
3.8999935000000003;0.2987495020833335;65;0.625;violin
3.8999935000000003;0.2987495020833335;74;0.625;violin
4.199993;0.5987490020833333;55;0.625;violin
4.199993;0.5987490020833333;63;0.625;violin
4.199993;0.5987490020833333;75;0.625;violin
4.7999920000000005;0.29874950208333306;63;0.625;violin
4.7999920000000005;0.29874950208333306;70;0.625;violin
4.7999920000000005;0.29874950208333306;79;0.625;violin
5.0999915;0.14874975208333385;63;0.625;violin
5.0999915;0.14874975208333385;70;0.625;violin
5.0999915;0.14874975208333385;79;0.625;violin
5.24999125;0.14874975208333385;63;0.625;violin
5.24999125;0.14874975208333385;70;0.625;violin
5.24999125;0.14874975208333385;79;0.625;violin
5.399991;0.29874950208333395;67;0.625;violin
5.399991;0.29874950208333395;70;0.625;violin
5.399991;0.29874950208333395;82;0.625;violin
5.6999905;0.29874950208333306;63;0.625;violin
5.6999905;0.29874950208333306;70;0.625;violin
5.6999905;0.29874950208333306;79;0.625;violin
5.99999;0.29874950208333306;62;0.625;violin
5.99999;0.29874950208333306;70;0.625;violin
5.99999;0.29874950208333306;77;0.625;violin
6.299989500000001;0.29874950208333306;66;0.625;violin
6.299989500000001;0.29874950208333306;75;0.625;violin
6.299989500000001;0.29874950208333306;81;0.625;violin
6.599989;0.5987490020833333;67;0.625;violin
6.599989;0.5987490020833333;74;0.625;violin
6.599989;0.5987490020833333;82;0.625;violin
7.199988;0.29874950208333306;63;0.625;violin
7.199988;0.29874950208333306;72;0.625;violin
7.199988;0.29874950208333306;82;0.625;violin
7.4999875000000005;0.14874975208333296;81;0.625;violin
7.649987250000001;0.14874975208333296;79;0.625;violin
7.799987000000001;0.14874975208333296;63;0.625;violin
7.799987000000001;0.14874975208333296;69;0.625;violin
7.799987000000001;0.14874975208333296;77;0.625;violin
7.94998675;0.14874975208333385;79;0.625;violin
8.0999865;0.14874975208333296;81;0.625;violin
8.249986250000001;0.14874975208333296;77;0.625;violin
8.399986;0.5987490020833341;62;0.625;violin
8.399986;0.5987490020833341;70;0.625;violin
8.399986;0.5987490020833341;82;0.625;violin
8.999985;0.2987495020833322;58;0.625;violin
9.599984000000001;0.2987495020833322;63;0.625;violin
9.599984000000001;0.2987495020833322;67;0.625;violin
9.899983500000001;0.14874975208333296;63;0.625;violin
9.899983500000001;0.14874975208333296;67;0.625;violin
10.04998325;0.14874975208333296;63;0.625;violin
10.04998325;0.14874975208333296;67;0.625;violin
10.199983;0.29874950208333395;63;0.625;violin
10.199983;0.29874950208333395;67;0.625;violin
10.4999825;0.29874950208333395;63;0.625;violin
10.4999825;0.29874950208333395;67;0.625;violin
10.799982;0.29874950208333395;63;0.625;violin
10.799982;0.29874950208333395;67;0.625;violin
11.0999815;0.29874950208333395;58;0.625;violin
11.0999815;0.29874950208333395;65;0.625;violin
11.399981;0.5987490020833341;55;0.625;violin
11.399981;0.5987490020833341;63;0.625;violin
11.99998;0.2987495020833322;63;0.625;violin
11.99998;0.2987495020833322;67;0.625;violin
11.99998;0.2987495020833322;70;0.625;violin
12.299979500000001;0.14874975208333296;63;0.625;violin
12.299979500000001;0.14874975208333296;67;0.625;violin
12.299979500000001;0.14874975208333296;70;0.625;violin
12.44997925;0.14874975208333296;63;0.625;violin
12.44997925;0.14874975208333296;67;0.625;violin
12.44997925;0.14874975208333296;70;0.625;violin
12.599979000000001;0.2987495020833322;63;0.625;violin
12.599979000000001;0.2987495020833322;67;0.625;violin
12.599979000000001;0.2987495020833322;70;0.625;violin
12.8999785;0.29874950208333395;63;0.625;violin
12.8999785;0.29874950208333395;67;0.625;violin
12.8999785;0.29874950208333395;70;0.625;violin
13.199978;0.29874950208333395;63;0.625;violin
13.199978;0.29874950208333395;67;0.625;violin
13.199978;0.29874950208333395;70;0.625;violin
13.4999775;0.29874950208333395;58;0.625;violin
13.4999775;0.29874950208333395;65;0.625;violin
13.4999775;0.29874950208333395;74;0.625;violin
13.799977;0.5987490020833341;55;0.625;violin
13.799977;0.5987490020833341;63;0.625;violin
13.799977;0.5987490020833341;75;0.625;violin
14.399976;0.29874950208333395;63;0.625;violin
14.399976;0.29874950208333395;70;0.625;violin
14.399976;0.29874950208333395;79;0.625;violin
14.6999755;0.14874975208333296;63;0.625;violin
14.6999755;0.14874975208333296;70;0.625;violin
14.6999755;0.14874975208333296;79;0.625;violin
14.84997525;0.14874975208333296;63;0.625;violin
14.84997525;0.14874975208333296;70;0.625;violin
14.84997525;0.14874975208333296;79;0.625;violin
14.999975000000001;0.2987495020833322;67;0.625;violin
14.999975000000001;0.2987495020833322;70;0.625;violin
14.999975000000001;0.2987495020833322;82;0.625;violin
15.299974500000001;0.2987495020833322;63;0.625;violin
15.299974500000001;0.2987495020833322;70;0.625;violin
15.299974500000001;0.2987495020833322;79;0.625;violin
15.599974000000001;0.2987495020833322;62;0.625;violin
15.599974000000001;0.2987495020833322;70;0.625;violin
15.599974000000001;0.2987495020833322;77;0.625;violin
15.8999735;0.29874950208333395;66;0.625;violin
15.8999735;0.29874950208333395;75;0.625;violin
15.8999735;0.29874950208333395;81;0.625;violin
16.199973;0.5987490020833341;67;0.625;violin
16.199973;0.5987490020833341;74;0.625;violin
16.199973;0.5987490020833341;82;0.625;violin
16.799972;0.2987495020833322;63;0.625;violin
16.799972;0.2987495020833322;72;0.625;violin
16.799972;0.2987495020833322;82;0.625;violin
17.0999715;0.14874975208333652;81;0.625;violin
17.24997125;0.14874975208333296;79;0.625;violin
17.399971;0.14874975208333296;63;0.625;violin
17.399971;0.14874975208333296;69;0.625;violin
17.399971;0.14874975208333296;77;0.625;violin
17.54997075;0.14874975208333296;79;0.625;violin
17.6999705;0.14874975208333296;81;0.625;violin
17.849970250000002;0.14874975208333296;77;0.625;violin
17.99997;0.5987490020833341;62;0.625;violin
17.99997;0.5987490020833341;70;0.625;violin
17.99997;0.5987490020833341;82;0.625;violin
18.599969;0.2987495020833322;58;0.625;violin
19.199968000000002;0.2987495020833322;70;0.625;violin
19.4999675;0.14874975208333296;70;0.625;violin
19.64996725;0.14874975208333296;70;0.625;violin
19.799967000000002;0.2987495020833322;70;0.625;violin
20.0999665;0.2987495020833322;70;0.625;violin
20.399966;0.2987495020833357;70;0.625;violin
20.399966;0.2987495020833357;74;0.625;violin
20.6999655;0.14874975208333296;70;0.625;violin
20.6999655;0.14874975208333296;74;0.625;violin
20.84996525;0.14874975208333296;70;0.625;violin
20.84996525;0.14874975208333296;74;0.625;violin
20.999965;0.2987495020833357;70;0.625;violin
20.999965;0.2987495020833357;74;0.625;violin
21.2999645;0.2987495020833322;70;0.625;violin
21.2999645;0.2987495020833322;74;0.625;violin
21.599964;0.2987495020833357;70;0.625;violin
21.599964;0.2987495020833357;74;0.625;violin
21.599964;0.2987495020833357;77;0.625;violin
21.899963500000002;0.14874975208333296;70;0.625;violin
21.899963500000002;0.14874975208333296;74;0.625;violin
21.899963500000002;0.14874975208333296;77;0.625;violin
22.04996325;0.14874975208333296;70;0.625;violin
22.04996325;0.14874975208333296;74;0.625;violin
22.04996325;0.14874975208333296;77;0.625;violin
22.199963;0.2987495020833322;70;0.625;violin
22.199963;0.2987495020833322;74;0.625;violin
22.199963;0.2987495020833322;77;0.625;violin
22.499962500000002;0.2987495020833322;70;0.625;violin
22.499962500000002;0.2987495020833322;74;0.625;violin
22.499962500000002;0.2987495020833322;77;0.625;violin
22.799962;0.2987495020833322;68;0.625;violin
22.799962;0.2987495020833322;72;0.625;violin
22.799962;0.2987495020833322;78;0.625;violin
23.0999615;0.14874975208333652;68;0.625;violin
23.0999615;0.14874975208333652;72;0.625;violin
23.0999615;0.14874975208333652;78;0.625;violin
23.249961250000002;0.14874975208333296;68;0.625;violin
23.249961250000002;0.14874975208333296;72;0.625;violin
23.249961250000002;0.14874975208333296;78;0.625;violin
23.399961;0.2987495020833322;68;0.625;violin
23.399961;0.2987495020833322;72;0.625;violin
23.399961;0.2987495020833322;78;0.625;violin
23.6999605;0.2987495020833357;68;0.625;violin
23.6999605;0.2987495020833357;72;0.625;violin
23.6999605;0.2987495020833357;78;0.625;violin
23.99996;0.2987495020833322;67;0.625;violin
23.99996;0.2987495020833322;71;0.625;violin
23.99996;0.2987495020833322;79;0.625;violin
24.2999595;0.2987495020833357;79;0.625;violin
24.599959000000002;0.14874975208333296;65;0.625;violin
24.599959000000002;0.14874975208333296;71;0.625;violin
24.599959000000002;0.14874975208333296;78;0.625;violin
24.74995875;0.14874975208333296;79;0.625;violin
24.8999585;0.14874975208333296;80;0.625;violin
25.04995825;0.14874975208333296;79;0.625;violin
25.199958000000002;0.2987495020833322;63;0.625;violin
25.199958000000002;0.2987495020833322;72;0.625;violin
25.199958000000002;0.2987495020833322;79;0.625;violin
25.4999575;0.2987495020833322;84;0.625;violin
25.799957;0.14874975208333652;63;0.625;violin
25.799957;0.14874975208333652;69;0.625;violin
25.799957;0.14874975208333652;76;0.625;violin
25.949956750000002;0.14874975208333296;77;0.625;violin
26.0999565;0.14874975208333296;78;0.625;violin
26.24995625;0.14874975208333296;77;0.625;violin
26.399956;0.2987495020833357;62;0.625;violin
26.399956;0.2987495020833357;70;0.625;violin
26.399956;0.2987495020833357;77;0.625;violin
26.6999555;0.2987495020833322;82;0.625;violin
26.999955;0.14874975208333296;61;0.625;violin
26.999955;0.14874975208333296;67;0.625;violin
26.999955;0.14874975208333296;74;0.625;violin
27.14995475;0.14874975208333652;75;0.625;violin
27.299954500000002;0.14874975208333296;76;0.625;violin
27.44995425;0.14874975208333296;75;0.625;violin
27.599954;0.2987495020833322;60;0.625;violin
27.599954;0.2987495020833322;68;0.625;violin
27.599954;0.2987495020833322;75;0.625;violin
27.899953500000002;0.2987495020833322;80;0.625;violin
28.199953;0.14874975208333296;60;0.625;violin
28.199953;0.14874975208333296;65;0.625;violin
28.199953;0.14874975208333296;73;0.625;violin
28.34995275;0.14874975208333296;74;0.625;violin
28.4999525;0.14874975208333652;75;0.625;violin
28.649952250000002;0.14874975208333296;74;0.625;violin
28.799952;0.2987495020833322;59;0.625;violin
28.799952;0.2987495020833322;67;0.625;violin
28.799952;0.2987495020833322;74;0.625;violin
29.0999515;0.2987495020833357;79;0.625;violin
29.399951;0.14874975208333296;58;0.625;violin
29.399951;0.14874975208333296;64;0.625;violin
29.399951;0.14874975208333296;71;0.625;violin
29.54995075;0.14874975208333296;72;0.625;violin
29.6999505;0.14874975208333296;73;0.625;violin
29.849950250000003;0.14874975208333296;72;0.625;violin
29.999950000000002;0.2987495020833322;56;0.625;violin
29.999950000000002;0.2987495020833322;65;0.625;violin
29.999950000000002;0.2987495020833322;72;0.625;violin
30.2999495;0.2987495020833357;77;0.625;violin
30.599949000000002;0.2987495020833322;57;0.625;violin
30.599949000000002;0.2987495020833322;65;0.625;violin
30.599949000000002;0.2987495020833322;77;0.625;violin
30.8999485;0.2987495020833322;75;0.625;violin
31.199948000000003;0.2987495020833322;58;0.625;violin
31.199948000000003;0.2987495020833322;65;0.625;violin
31.199948000000003;0.2987495020833322;74;0.625;violin
31.4999475;0.14874975208333296;58;0.625;violin
31.64994725;0.14874975208333296;58;0.625;violin
31.799947;0.2987495020833357;59;0.625;violin
31.799947;0.2987495020833357;63;0.625;violin
31.799947;0.2987495020833357;69;0.625;violin
32.0999465;0.2987495020833322;59;0.625;violin
32.0999465;0.2987495020833322;63;0.625;violin
32.0999465;0.2987495020833322;69;0.625;violin
32.399946;0.2987495020833322;58;0.625;violin
32.399946;0.2987495020833322;62;0.625;violin
32.399946;0.2987495020833322;70;0.625;violin
32.6999455;0.14874975208333296;77;0.625;violin
32.84994525;0.14874975208334007;77;0.625;violin
32.999945000000004;0.2987495020833322;63;0.625;violin
32.999945000000004;0.2987495020833322;69;0.625;violin
32.999945000000004;0.2987495020833322;78;0.625;violin
33.2999445;0.2987495020833322;63;0.625;violin
33.2999445;0.2987495020833322;69;0.625;violin
33.2999445;0.2987495020833322;78;0.625;violin
33.599944;0.2987495020833322;62;0.625;violin
33.599944;0.2987495020833322;70;0.625;violin
33.599944;0.2987495020833322;77;0.625;violin
33.8999435;0.14874975208333296;70;0.625;violin
34.04994325;0.14874975208333296;70;0.625;violin
34.199943;0.2987495020833393;71;0.625;violin
34.199943;0.2987495020833393;75;0.625;violin
34.199943;0.2987495020833393;81;0.625;violin
34.4999425;0.2987495020833322;71;0.625;violin
34.4999425;0.2987495020833322;75;0.625;violin
34.4999425;0.2987495020833322;81;0.625;violin
34.799942;0.2987495020833322;70;0.625;violin
34.799942;0.2987495020833322;74;0.625;violin
34.799942;0.2987495020833322;82;0.625;violin
35.0999415;0.14874975208333296;89;0.625;violin
35.24994125;0.14874975208333296;89;0.625;violin
35.399941;0.2987495020833393;75;0.625;violin
35.399941;0.2987495020833393;81;0.625;violin
35.399941;0.2987495020833393;90;0.625;violin
35.699940500000004;0.2987495020833322;75;0.625;violin
35.699940500000004;0.2987495020833322;81;0.625;violin
35.699940500000004;0.2987495020833322;90;0.625;violin
35.99994;0.2987495020833322;74;0.625;violin
35.99994;0.2987495020833322;82;0.625;violin
35.99994;0.2987495020833322;89;0.625;violin
36.2999395;0.14874975208333296;89;0.3828125;violin
36.44993925;0.14874975208333296;89;0.3828125;violin
36.599939;0.2987495020833322;89;0.3828125;violin
36.899938500000005;0.2987495020833322;89;0.3828125;violin
37.199938;0.2987495020833322;89;0.3828125;violin
37.4999375;0.14874975208333296;80;0.3828125;violin
37.4999375;0.14874975208333296;89;0.3828125;violin
37.64993725;0.14874975208333296;80;0.3828125;violin
37.64993725;0.14874975208333296;89;0.3828125;violin
37.799937;0.2987495020833322;80;0.3828125;violin
37.799937;0.2987495020833322;89;0.3828125;violin
38.0999365;0.2987495020833393;80;0.4609375;violin
38.0999365;0.2987495020833393;89;0.4609375;violin
38.399936000000004;0.2987495020833322;80;0.546875;violin
38.399936000000004;0.2987495020833322;89;0.546875;violin
38.6999355;0.14874975208333296;71;0.625;violin
38.6999355;0.14874975208333296;80;0.625;violin
38.6999355;0.14874975208333296;89;0.625;violin
38.84993525;0.14874975208333296;71;0.6640625;violin
38.84993525;0.14874975208333296;80;0.6640625;violin
38.84993525;0.14874975208333296;89;0.6640625;violin
38.999935;0.2987495020833322;71;0.7109375;violin
38.999935;0.2987495020833322;80;0.7109375;violin
38.999935;0.2987495020833322;89;0.7109375;violin
39.2999345;0.2987495020833322;71;0.7890625;violin
39.2999345;0.2987495020833322;80;0.7890625;violin
39.2999345;0.2987495020833322;89;0.7890625;violin
39.599934000000005;0.2987495020833322;70;0.875;violin
39.599934000000005;0.2987495020833322;80;0.875;violin
39.599934000000005;0.2987495020833322;89;0.875;violin
39.8999335;0.14874975208333296;56;0.875;violin
39.8999335;0.14874975208333296;62;0.875;violin
39.8999335;0.14874975208333296;71;0.875;violin
40.04993325;0.14874975208333296;56;0.875;violin
40.04993325;0.14874975208333296;62;0.875;violin
40.04993325;0.14874975208333296;71;0.875;violin
40.199933;0.2987495020833322;56;0.875;violin
40.199933;0.2987495020833322;62;0.875;violin
40.199933;0.2987495020833322;71;0.875;violin
40.4999325;0.2987495020833322;56;0.875;violin
40.4999325;0.2987495020833322;62;0.875;violin
40.4999325;0.2987495020833322;71;0.875;violin
40.799932;1.1974980041666683;56;0.875;violin
40.799932;1.1974980041666683;62;0.875;violin
40.799932;1.1974980041666683;70;0.875;violin
43.19742800416667;0.2987495020833322;63;0.3828125;violin
43.497427504166666;0.14874975208333296;63;0.3828125;violin
43.647427254166665;0.14874975208333296;63;0.3828125;violin
43.797427004166664;0.2987495020833393;63;0.3828125;violin
44.09742650416667;0.2987495020833322;63;0.3828125;violin
44.39742600416667;0.2987495020833322;63;0.3828125;violin
44.39742600416667;0.2987495020833322;66;0.3828125;violin
44.69742550416667;0.14874975208333296;63;0.3828125;violin
44.69742550416667;0.14874975208333296;66;0.3828125;violin
44.847425254166666;0.14874975208333296;63;0.3828125;violin
44.847425254166666;0.14874975208333296;66;0.3828125;violin
44.997425004166665;0.2987495020833393;63;0.3828125;violin
44.997425004166665;0.2987495020833393;66;0.3828125;violin
45.29742450416667;0.2987495020833322;63;0.4296875;violin
45.29742450416667;0.2987495020833322;66;0.4296875;violin
45.59742400416667;0.2987495020833322;63;0.4765625;violin
45.59742400416667;0.2987495020833322;66;0.4765625;violin
45.59742400416667;0.2987495020833322;71;0.4765625;violin
45.89742350416667;0.14874975208333296;63;0.5234375;violin
45.89742350416667;0.14874975208333296;66;0.5234375;violin
45.89742350416667;0.14874975208333296;71;0.5234375;violin
46.04742325416667;0.14874975208333296;63;0.5546875;violin
46.04742325416667;0.14874975208333296;66;0.5546875;violin
46.04742325416667;0.14874975208333296;71;0.5546875;violin
46.197423004166666;0.2987495020833322;63;0.578125;violin
46.197423004166666;0.2987495020833322;66;0.578125;violin
46.197423004166666;0.2987495020833322;71;0.578125;violin
46.497422504166664;0.2987495020833393;63;0.625;violin
46.497422504166664;0.2987495020833393;66;0.625;violin
46.497422504166664;0.2987495020833393;71;0.625;violin
46.79742200416667;0.2987495020833322;59;0.671875;violin
46.79742200416667;0.2987495020833322;66;0.671875;violin
46.79742200416667;0.2987495020833322;75;0.671875;violin
47.09742150416667;0.14874975208333296;59;0.7265625;violin
47.09742150416667;0.14874975208333296;66;0.7265625;violin
47.09742150416667;0.14874975208333296;75;0.7265625;violin
47.24742125416667;0.14874975208333296;59;0.75;violin
47.24742125416667;0.14874975208333296;66;0.75;violin
47.24742125416667;0.14874975208333296;75;0.75;violin
47.39742100416667;0.2987495020833322;59;0.7734375;violin
47.39742100416667;0.2987495020833322;66;0.7734375;violin
47.39742100416667;0.2987495020833322;75;0.7734375;violin
47.697420504166665;0.2987495020833393;59;0.8203125;violin
47.697420504166665;0.2987495020833393;66;0.8203125;violin
47.697420504166665;0.2987495020833393;75;0.8203125;violin
47.99742000416667;0.2987495020833322;57;0.875;violin
47.99742000416667;0.2987495020833322;66;0.875;violin
47.99742000416667;0.2987495020833322;75;0.875;violin
47.99742000416667;0.2987495020833322;84;0.875;violin
48.29741950416667;0.14874975208333296;57;0.875;violin
48.29741950416667;0.14874975208333296;66;0.875;violin
48.29741950416667;0.14874975208333296;75;0.875;violin
48.29741950416667;0.14874975208333296;84;0.875;violin
48.44741925416667;0.14874975208333296;57;0.875;violin
48.44741925416667;0.14874975208333296;66;0.875;violin
48.44741925416667;0.14874975208333296;75;0.875;violin
48.44741925416667;0.14874975208333296;84;0.875;violin
48.59741900416667;0.2987495020833322;57;0.875;violin
48.59741900416667;0.2987495020833322;66;0.875;violin
48.59741900416667;0.2987495020833322;75;0.875;violin
48.59741900416667;0.2987495020833322;84;0.875;violin
48.897418504166666;0.2987495020833393;57;0.875;violin
48.897418504166666;0.2987495020833393;66;0.875;violin
48.897418504166666;0.2987495020833393;75;0.875;violin
48.897418504166666;0.2987495020833393;84;0.875;violin
49.197418004166664;0.2987495020833393;58;0.875;violin
49.197418004166664;0.2987495020833393;67;0.875;violin
49.197418004166664;0.2987495020833393;75;0.875;violin
49.197418004166664;0.2987495020833393;82;0.875;violin
49.49741750416667;0.14874975208333296;82;0.875;violin
49.49741750416667;0.14874975208333296;91;0.875;violin
49.64741725416667;0.14874975208333296;82;0.875;violin
49.64741725416667;0.14874975208333296;91;0.875;violin
49.79741700416667;0.2987495020833322;79;0.875;violin
49.79741700416667;0.2987495020833322;87;0.875;violin
50.09741650416667;0.2987495020833322;82;0.875;violin
50.09741650416667;0.2987495020833322;91;0.875;violin
50.397416004166665;0.2987495020833393;58;0.875;violin
50.397416004166665;0.2987495020833393;65;0.875;violin
50.397416004166665;0.2987495020833393;74;0.875;violin
50.397416004166665;0.2987495020833393;82;0.875;violin
50.69741550416667;0.14874975208333296;80;0.875;violin
50.69741550416667;0.14874975208333296;89;0.875;violin
50.84741525416667;0.14874975208333296;80;0.875;violin
50.84741525416667;0.14874975208333296;89;0.875;violin
50.99741500416667;0.2987495020833322;77;0.875;violin
50.99741500416667;0.2987495020833322;86;0.875;violin
51.29741450416667;0.2987495020833322;80;0.875;violin
51.29741450416667;0.2987495020833322;89;0.875;violin
51.597414004166666;0.2987495020833393;63;0.875;violin
51.597414004166666;0.2987495020833393;70;0.875;violin
51.597414004166666;0.2987495020833393;79;0.875;violin
51.597414004166666;0.2987495020833393;87;0.875;violin
51.897413504166664;0.14874975208333296;84;0.875;violin
52.04741325416667;0.14874975208333296;82;0.875;violin
52.19741300416667;0.14874975208333296;68;0.875;violin
52.19741300416667;0.14874975208333296;74;0.875;violin
52.19741300416667;0.14874975208333296;81;0.875;violin
52.34741275416667;0.14874975208333296;82;0.875;violin
52.49741250416667;0.14874975208333296;84;0.875;violin
52.64741225416667;0.14874975208333296;82;0.875;violin
52.79741200416667;0.2987495020833322;67;0.875;violin
52.79741200416667;0.2987495020833322;75;0.875;violin
52.79741200416667;0.2987495020833322;82;0.875;violin
53.09741150416667;0.29874950208332507;79;0.875;violin
53.39741100416667;0.14874975208333296;65;0.875;violin
53.39741100416667;0.14874975208333296;71;0.875;violin
53.39741100416667;0.14874975208333296;78;0.875;violin
53.54741075416667;0.14874975208333296;79;0.875;violin
53.69741050416667;0.14874975208333296;80;0.875;violin
53.84741025416667;0.14874975208333296;79;0.875;violin
53.99741000416667;0.2987495020833322;63;0.875;violin
53.99741000416667;0.2987495020833322;70;0.875;violin
53.99741000416667;0.2987495020833322;79;0.875;violin
54.297409504166666;0.2987495020833393;75;0.875;violin
54.597409004166664;0.14874975208333296;61;0.875;violin
54.597409004166664;0.14874975208333296;67;0.875;violin
54.597409004166664;0.14874975208333296;74;0.875;violin
54.74740875416667;0.14874975208333296;75;0.875;violin
54.89740850416667;0.14874975208333296;76;0.875;violin
55.04740825416667;0.14874975208333296;75;0.875;violin
55.19740800416667;0.2987495020833322;60;0.875;violin
55.19740800416667;0.2987495020833322;68;0.875;violin
55.19740800416667;0.2987495020833322;75;0.875;violin
55.49740750416667;0.2987495020833322;59;0.875;violin
55.49740750416667;0.2987495020833322;69;0.875;violin
55.49740750416667;0.2987495020833322;75;0.875;violin
55.79740700416667;0.29874950208332507;58;0.875;violin
55.79740700416667;0.29874950208332507;70;0.875;violin
55.79740700416667;0.29874950208332507;75;0.875;violin
56.09740650416667;0.2987495020833322;58;0.875;violin
56.09740650416667;0.2987495020833322;68;0.875;violin
56.09740650416667;0.2987495020833322;74;0.875;violin
56.39740600416667;0.2987495020833322;63;0.875;violin
56.39740600416667;0.2987495020833322;67;0.875;violin
56.39740600416667;0.2987495020833322;75;0.875;violin
56.69740550416667;0.2987495020833322;70;0.875;violin
56.997405004166666;0.14874975208333296;56;0.875;violin
56.997405004166666;0.14874975208333296;62;0.875;violin
56.997405004166666;0.14874975208333296;69;0.875;violin
57.14740475416667;0.14874975208333296;70;0.875;violin
57.297404504166664;0.14874975208333296;71;0.875;violin
57.44740425416667;0.14874975208333296;70;0.875;violin
57.59740400416667;0.2987495020833322;55;0.875;violin
57.59740400416667;0.2987495020833322;63;0.875;violin
57.59740400416667;0.2987495020833322;70;0.875;violin
57.89740350416667;0.2987495020833322;75;0.875;violin
58.19740300416667;0.14874975208333296;62;0.875;violin
58.19740300416667;0.14874975208333296;70;0.875;violin
58.19740300416667;0.14874975208333296;77;0.875;violin
58.347402754166666;0.14874975208333296;79;0.875;violin
58.49740250416667;0.14874975208333296;80;0.875;violin
58.647402254166664;0.14874975208334007;82;0.875;violin
58.79740200416667;0.2987495020833322;63;0.875;violin
58.79740200416667;0.2987495020833322;70;0.875;violin
58.79740200416667;0.2987495020833322;79;0.875;violin
59.09740150416667;0.2987495020833322;82;0.875;violin
59.39740100416667;0.14874975208333296;68;0.875;violin
59.39740100416667;0.14874975208333296;74;0.875;violin
59.39740100416667;0.14874975208333296;81;0.875;violin
59.54740075416667;0.14874975208334007;82;0.875;violin
59.697400504166666;0.14874975208333296;83;0.875;violin
59.84740025416667;0.14874975208333296;82;0.875;violin
59.997400004166664;0.2987495020833393;67;0.875;violin
59.997400004166664;0.2987495020833393;75;0.875;violin
59.997400004166664;0.2987495020833393;82;0.875;violin
60.29739950416667;0.2987495020833322;87;0.875;violin
60.59739900416667;0.14874975208333296;62;0.875;violin
60.59739900416667;0.14874975208333296;70;0.875;violin
60.59739900416667;0.14874975208333296;81;0.875;violin
60.74739875416667;0.14874975208333296;82;0.875;violin
60.897398504166674;0.14874975208333296;80;0.875;violin
61.047398254166666;0.14874975208333296;77;0.875;violin
61.19739800416667;0.29874950208332507;55;0.875;violin
61.19739800416667;0.29874950208332507;63;0.875;violin
61.19739800416667;0.29874950208332507;75;0.875;violin
61.49739750416667;0.2987495020833322;58;0.875;violin
61.49739750416667;0.2987495020833322;65;0.875;violin
61.49739750416667;0.2987495020833322;74;0.875;violin
61.79739700416667;0.2987495020833322;55;0.875;violin
61.79739700416667;0.2987495020833322;63;0.875;violin
61.79739700416667;0.2987495020833322;75;0.875;violin
62.09739650416667;0.2987495020833393;58;0.875;violin
62.09739650416667;0.2987495020833393;65;0.875;violin
62.09739650416667;0.2987495020833393;74;0.875;violin
62.397396004166666;0.2987495020833393;55;0.875;violin
62.397396004166666;0.2987495020833393;63;0.875;violin
62.397396004166666;0.2987495020833393;75;0.875;violin
62.697395504166664;0.14874975208333296;55;0.875;violin
62.697395504166664;0.14874975208333296;63;0.875;violin
62.84739525416667;0.14874975208333296;55;0.875;violin
62.84739525416667;0.14874975208333296;63;0.875;violin
62.99739500416667;0.2987495020833322;55;0.875;violin
62.99739500416667;0.2987495020833322;63;0.875;violin
63.29739450416667;0.2987495020833322;55;0.875;violin
63.29739450416667;0.2987495020833322;63;0.875;violin
63.597394004166674;0.5987490020833235;55;0.875;violin
63.597394004166674;0.5987490020833235;63;0.875;violin
64.79739200416667;0.2987495020833393;70;0.625;violin
65.09739150416667;0.14874975208333296;70;0.625;violin
65.24739125416667;0.14874975208333296;70;0.625;violin
65.39739100416666;0.2987495020833393;70;0.625;violin
65.69739050416666;0.2987495020833393;70;0.625;violin
65.99739000416668;0.29874950208332507;70;0.625;violin
65.99739000416668;0.29874950208332507;74;0.625;violin
66.29738950416667;0.14874975208333296;70;0.625;violin
66.29738950416667;0.14874975208333296;74;0.625;violin
66.44738925416667;0.14874975208333296;70;0.625;violin
66.44738925416667;0.14874975208333296;74;0.625;violin
66.59738900416667;0.29874950208332507;70;0.625;violin
66.59738900416667;0.29874950208332507;74;0.625;violin
66.89738850416667;0.2987495020833393;70;0.625;violin
66.89738850416667;0.2987495020833393;74;0.625;violin
67.19738800416667;0.29874950208332507;70;0.625;violin
67.19738800416667;0.29874950208332507;74;0.625;violin
67.19738800416667;0.29874950208332507;77;0.625;violin
67.49738750416667;0.14874975208333296;70;0.625;violin
67.49738750416667;0.14874975208333296;74;0.625;violin
67.49738750416667;0.14874975208333296;77;0.625;violin
67.64738725416667;0.14874975208333296;70;0.625;violin
67.64738725416667;0.14874975208333296;74;0.625;violin
67.64738725416667;0.14874975208333296;77;0.625;violin
67.79738700416667;0.2987495020833393;70;0.625;violin
67.79738700416667;0.2987495020833393;74;0.625;violin
67.79738700416667;0.2987495020833393;77;0.625;violin
68.09738650416666;0.2987495020833393;70;0.625;violin
68.09738650416666;0.2987495020833393;74;0.625;violin
68.09738650416666;0.2987495020833393;77;0.625;violin
68.39738600416666;0.2987495020833393;68;0.625;violin
68.39738600416666;0.2987495020833393;72;0.625;violin
68.39738600416666;0.2987495020833393;78;0.625;violin
68.69738550416668;0.14874975208331875;68;0.625;violin
68.69738550416668;0.14874975208331875;72;0.625;violin
68.69738550416668;0.14874975208331875;78;0.625;violin
68.84738525416667;0.14874975208333296;68;0.625;violin
68.84738525416667;0.14874975208333296;72;0.625;violin
68.84738525416667;0.14874975208333296;78;0.625;violin
68.99738500416667;0.29874950208332507;68;0.625;violin
68.99738500416667;0.29874950208332507;72;0.625;violin
68.99738500416667;0.29874950208332507;78;0.625;violin
69.29738450416667;0.29874950208332507;68;0.625;violin
69.29738450416667;0.29874950208332507;72;0.625;violin
69.29738450416667;0.29874950208332507;78;0.625;violin
69.59738400416667;0.2987495020833393;67;0.625;violin
69.59738400416667;0.2987495020833393;71;0.625;violin
69.59738400416667;0.2987495020833393;79;0.625;violin
69.89738350416667;0.29874950208332507;79;0.625;violin
70.19738300416667;0.14874975208333296;65;0.625;violin
70.19738300416667;0.14874975208333296;71;0.625;violin
70.19738300416667;0.14874975208333296;78;0.625;violin
70.34738275416667;0.14874975208333296;79;0.625;violin
70.49738250416667;0.14874975208333296;80;0.625;violin
70.64738225416667;0.14874975208333296;79;0.625;violin
70.79738200416666;0.2987495020833393;63;0.625;violin
70.79738200416666;0.2987495020833393;72;0.625;violin
70.79738200416666;0.2987495020833393;79;0.625;violin
71.09738150416666;0.2987495020833393;84;0.625;violin
71.39738100416668;0.14874975208331875;63;0.625;violin
71.39738100416668;0.14874975208331875;69;0.625;violin
71.39738100416668;0.14874975208331875;76;0.625;violin
71.54738075416667;0.14874975208333296;77;0.625;violin
71.69738050416667;0.14874975208333296;78;0.625;violin
71.84738025416667;0.14874975208333296;77;0.625;violin
71.99738000416667;0.29874950208332507;62;0.625;violin
71.99738000416667;0.29874950208332507;70;0.625;violin
71.99738000416667;0.29874950208332507;77;0.625;violin
72.29737950416667;0.2987495020833393;82;0.625;violin
72.59737900416667;0.14874975208333296;61;0.625;violin
72.59737900416667;0.14874975208333296;67;0.625;violin
72.59737900416667;0.14874975208333296;74;0.625;violin
72.74737875416668;0.14874975208331875;75;0.625;violin
72.89737850416667;0.14874975208333296;76;0.625;violin
73.04737825416667;0.14874975208333296;75;0.625;violin
73.19737800416667;0.2987495020833393;60;0.625;violin
73.19737800416667;0.2987495020833393;68;0.625;violin
73.19737800416667;0.2987495020833393;75;0.625;violin
73.49737750416666;0.2987495020833393;80;0.625;violin
73.79737700416666;0.14874975208334718;60;0.625;violin
73.79737700416666;0.14874975208334718;65;0.625;violin
73.79737700416666;0.14874975208334718;73;0.625;violin
73.94737675416667;0.14874975208333296;74;0.625;violin
74.09737650416668;0.14874975208331875;75;0.625;violin
74.24737625416667;0.14874975208333296;74;0.625;violin
74.39737600416667;0.29874950208332507;59;0.625;violin
74.39737600416667;0.29874950208332507;67;0.625;violin
74.39737600416667;0.29874950208332507;74;0.625;violin
74.69737550416667;0.29874950208332507;79;0.625;violin
74.99737500416667;0.14874975208333296;58;0.625;violin
74.99737500416667;0.14874975208333296;64;0.625;violin
74.99737500416667;0.14874975208333296;71;0.625;violin
75.14737475416666;0.14874975208334718;72;0.625;violin
75.29737450416667;0.14874975208333296;73;0.625;violin
75.44737425416668;0.14874975208331875;72;0.625;violin
75.59737400416667;0.2987495020833393;56;0.625;violin
75.59737400416667;0.2987495020833393;65;0.625;violin
75.59737400416667;0.2987495020833393;72;0.625;violin
75.89737350416667;0.2987495020833393;77;0.625;violin
76.19737300416668;0.29874950208332507;57;0.625;violin
76.19737300416668;0.29874950208332507;65;0.625;violin
76.19737300416668;0.29874950208332507;77;0.625;violin
76.49737250416666;0.2987495020833393;75;0.625;violin
76.79737200416668;0.29874950208332507;58;0.625;violin
76.79737200416668;0.29874950208332507;65;0.625;violin
76.79737200416668;0.29874950208332507;74;0.625;violin
77.09737150416666;0.14874975208334718;58;0.625;violin
77.24737125416667;0.14874975208333296;58;0.625;violin
77.39737100416667;0.29874950208332507;59;0.625;violin
77.39737100416667;0.29874950208332507;63;0.625;violin
77.39737100416667;0.29874950208332507;69;0.625;violin
77.69737050416667;0.2987495020833393;59;0.625;violin
77.69737050416667;0.2987495020833393;63;0.625;violin
77.69737050416667;0.2987495020833393;69;0.625;violin
77.99737000416667;0.29874950208332507;58;0.625;violin
77.99737000416667;0.29874950208332507;62;0.625;violin
77.99737000416667;0.29874950208332507;70;0.625;violin
78.29736950416667;0.14874975208333296;77;0.625;violin
78.44736925416666;0.14874975208334718;77;0.625;violin
78.59736900416667;0.2987495020833393;63;0.625;violin
78.59736900416667;0.2987495020833393;69;0.625;violin
78.59736900416667;0.2987495020833393;78;0.625;violin
78.89736850416668;0.29874950208332507;63;0.625;violin
78.89736850416668;0.29874950208332507;69;0.625;violin
78.89736850416668;0.29874950208332507;78;0.625;violin
79.19736800416666;0.2987495020833393;62;0.625;violin
79.19736800416666;0.2987495020833393;70;0.625;violin
79.19736800416666;0.2987495020833393;77;0.625;violin
79.49736750416668;0.14874975208331875;70;0.625;violin
79.64736725416667;0.14874975208333296;70;0.625;violin
79.79736700416666;0.2987495020833535;71;0.625;violin
79.79736700416666;0.2987495020833535;75;0.625;violin
79.79736700416666;0.2987495020833535;81;0.625;violin
80.09736650416667;0.29874950208332507;71;0.625;violin
80.09736650416667;0.29874950208332507;75;0.625;violin
80.09736650416667;0.29874950208332507;81;0.625;violin
80.39736600416667;0.2987495020833393;70;0.625;violin
80.39736600416667;0.2987495020833393;74;0.625;violin
80.39736600416667;0.2987495020833393;82;0.625;violin
80.69736550416667;0.14874975208333296;89;0.625;violin
80.84736525416668;0.14874975208331875;89;0.625;violin
80.99736500416667;0.2987495020833393;75;0.625;violin
80.99736500416667;0.2987495020833393;81;0.625;violin
80.99736500416667;0.2987495020833393;90;0.625;violin
81.29736450416667;0.2987495020833393;75;0.625;violin
81.29736450416667;0.2987495020833393;81;0.625;violin
81.29736450416667;0.2987495020833393;90;0.625;violin
81.59736400416668;0.29874950208332507;74;0.625;violin
81.59736400416668;0.29874950208332507;82;0.625;violin
81.59736400416668;0.29874950208332507;89;0.625;violin
81.89736350416666;0.14874975208334718;89;0.3828125;violin
82.04736325416667;0.14874975208333296;89;0.3828125;violin
82.19736300416668;0.29874950208332507;89;0.3828125;violin
82.49736250416666;0.2987495020833535;89;0.3828125;violin
82.79736200416667;0.29874950208332507;89;0.3828125;violin
83.09736150416667;0.14874975208333296;80;0.3828125;violin
83.09736150416667;0.14874975208333296;89;0.3828125;violin
83.24736125416666;0.14874975208334718;80;0.3828125;violin
83.24736125416666;0.14874975208334718;89;0.3828125;violin
83.39736100416667;0.29874950208332507;80;0.3828125;violin
83.39736100416667;0.29874950208332507;89;0.3828125;violin
83.69736050416667;0.2987495020833393;80;0.4609375;violin
83.69736050416667;0.2987495020833393;89;0.4609375;violin
83.99736000416667;0.2987495020833393;80;0.546875;violin
83.99736000416667;0.2987495020833393;89;0.546875;violin
84.29735950416668;0.14874975208331875;71;0.625;violin
84.29735950416668;0.14874975208331875;80;0.625;violin
84.29735950416668;0.14874975208331875;89;0.625;violin
84.44735925416667;0.14874975208333296;71;0.6640625;violin
84.44735925416667;0.14874975208333296;80;0.6640625;violin
84.44735925416667;0.14874975208333296;89;0.6640625;violin
84.59735900416666;0.2987495020833393;71;0.7109375;violin
84.59735900416666;0.2987495020833393;80;0.7109375;violin
84.59735900416666;0.2987495020833393;89;0.7109375;violin
84.89735850416668;0.29874950208332507;71;0.7890625;violin
84.89735850416668;0.29874950208332507;80;0.7890625;violin
84.89735850416668;0.29874950208332507;89;0.7890625;violin
85.19735800416666;0.2987495020833535;70;0.875;violin
85.19735800416666;0.2987495020833535;80;0.875;violin
85.19735800416666;0.2987495020833535;89;0.875;violin
85.49735750416667;0.14874975208333296;56;0.875;violin
85.49735750416667;0.14874975208333296;62;0.875;violin
85.49735750416667;0.14874975208333296;71;0.875;violin
85.64735725416668;0.14874975208331875;56;0.875;violin
85.64735725416668;0.14874975208331875;62;0.875;violin
85.64735725416668;0.14874975208331875;71;0.875;violin
85.79735700416667;0.2987495020833393;56;0.875;violin
85.79735700416667;0.2987495020833393;62;0.875;violin
85.79735700416667;0.2987495020833393;71;0.875;violin
86.09735650416667;0.29874950208332507;56;0.875;violin
86.09735650416667;0.29874950208332507;62;0.875;violin
86.09735650416667;0.29874950208332507;71;0.875;violin
86.39735600416667;1.1974980041666612;56;0.875;violin
86.39735600416667;1.1974980041666612;62;0.875;violin
86.39735600416667;1.1974980041666612;70;0.875;violin
88.79485200833334;0.29874950208332507;63;0.3828125;violin
89.09485150833333;0.14874975208333296;63;0.3828125;violin
89.24485125833333;0.14874975208333296;63;0.3828125;violin
89.39485100833333;0.29874950208332507;63;0.3828125;violin
89.69485050833333;0.29874950208332507;63;0.3828125;violin
89.99485000833333;0.2987495020833393;63;0.3828125;violin
89.99485000833333;0.2987495020833393;66;0.3828125;violin
90.29484950833333;0.14874975208333296;63;0.3828125;violin
90.29484950833333;0.14874975208333296;66;0.3828125;violin
90.44484925833333;0.14874975208333296;63;0.3828125;violin
90.44484925833333;0.14874975208333296;66;0.3828125;violin
90.59484900833333;0.2987495020833393;63;0.3828125;violin
90.59484900833333;0.2987495020833393;66;0.3828125;violin
90.89484850833333;0.2987495020833393;63;0.4296875;violin
90.89484850833333;0.2987495020833393;66;0.4296875;violin
91.19484800833332;0.2987495020833393;63;0.4765625;violin
91.19484800833332;0.2987495020833393;66;0.4765625;violin
91.19484800833332;0.2987495020833393;71;0.4765625;violin
91.49484750833334;0.14874975208333296;63;0.5234375;violin
91.49484750833334;0.14874975208333296;66;0.5234375;violin
91.49484750833334;0.14874975208333296;71;0.5234375;violin
91.64484725833333;0.14874975208333296;63;0.5546875;violin
91.64484725833333;0.14874975208333296;66;0.5546875;violin
91.64484725833333;0.14874975208333296;71;0.5546875;violin
91.79484700833333;0.29874950208332507;63;0.578125;violin
91.79484700833333;0.29874950208332507;66;0.578125;violin
91.79484700833333;0.29874950208332507;71;0.578125;violin
92.09484650833333;0.29874950208332507;63;0.625;violin
92.09484650833333;0.29874950208332507;66;0.625;violin
92.09484650833333;0.29874950208332507;71;0.625;violin
92.39484600833333;0.29874950208332507;59;0.671875;violin
92.39484600833333;0.29874950208332507;66;0.671875;violin
92.39484600833333;0.29874950208332507;75;0.671875;violin
92.69484550833333;0.14874975208333296;59;0.7265625;violin
92.69484550833333;0.14874975208333296;66;0.7265625;violin
92.69484550833333;0.14874975208333296;75;0.7265625;violin
92.84484525833334;0.14874975208333296;59;0.75;violin
92.84484525833334;0.14874975208333296;66;0.75;violin
92.84484525833334;0.14874975208333296;75;0.75;violin
92.99484500833333;0.2987495020833393;59;0.7734375;violin
92.99484500833333;0.2987495020833393;66;0.7734375;violin
92.99484500833333;0.2987495020833393;75;0.7734375;violin
93.29484450833333;0.2987495020833393;59;0.8203125;violin
93.29484450833333;0.2987495020833393;66;0.8203125;violin
93.29484450833333;0.2987495020833393;75;0.8203125;violin
93.59484400833333;0.2987495020833393;57;0.875;violin
93.59484400833333;0.2987495020833393;66;0.875;violin
93.59484400833333;0.2987495020833393;75;0.875;violin
93.59484400833333;0.2987495020833393;84;0.875;violin
93.89484350833332;0.14874975208333296;57;0.875;violin
93.89484350833332;0.14874975208333296;66;0.875;violin
93.89484350833332;0.14874975208333296;75;0.875;violin
93.89484350833332;0.14874975208333296;84;0.875;violin
94.04484325833333;0.14874975208333296;57;0.875;violin
94.04484325833333;0.14874975208333296;66;0.875;violin
94.04484325833333;0.14874975208333296;75;0.875;violin
94.04484325833333;0.14874975208333296;84;0.875;violin
94.19484300833334;0.29874950208332507;57;0.875;violin
94.19484300833334;0.29874950208332507;66;0.875;violin
94.19484300833334;0.29874950208332507;75;0.875;violin
94.19484300833334;0.29874950208332507;84;0.875;violin
94.49484250833333;0.29874950208332507;57;0.875;violin
94.49484250833333;0.29874950208332507;66;0.875;violin
94.49484250833333;0.29874950208332507;75;0.875;violin
94.49484250833333;0.29874950208332507;84;0.875;violin
94.79484200833333;0.29874950208332507;58;0.875;violin
94.79484200833333;0.29874950208332507;67;0.875;violin
94.79484200833333;0.29874950208332507;75;0.875;violin
94.79484200833333;0.29874950208332507;82;0.875;violin
95.09484150833333;0.14874975208333296;82;0.875;violin
95.09484150833333;0.14874975208333296;91;0.875;violin
95.24484125833332;0.14874975208333296;82;0.875;violin
95.24484125833332;0.14874975208333296;91;0.875;violin
95.39484100833333;0.2987495020833393;79;0.875;violin
95.39484100833333;0.2987495020833393;87;0.875;violin
95.69484050833333;0.2987495020833393;82;0.875;violin
95.69484050833333;0.2987495020833393;91;0.875;violin
95.99484000833333;0.2987495020833393;58;0.875;violin
95.99484000833333;0.2987495020833393;65;0.875;violin
95.99484000833333;0.2987495020833393;74;0.875;violin
95.99484000833333;0.2987495020833393;82;0.875;violin
96.29483950833333;0.14874975208333296;80;0.875;violin
96.29483950833333;0.14874975208333296;89;0.875;violin
96.44483925833333;0.14874975208333296;80;0.875;violin
96.44483925833333;0.14874975208333296;89;0.875;violin
96.59483900833332;0.2987495020833393;77;0.875;violin
96.59483900833332;0.2987495020833393;86;0.875;violin
96.89483850833332;0.2987495020833393;80;0.875;violin
96.89483850833332;0.2987495020833393;89;0.875;violin
97.19483800833333;0.29874950208332507;63;0.875;violin
97.19483800833333;0.29874950208332507;70;0.875;violin
97.19483800833333;0.29874950208332507;79;0.875;violin
97.19483800833333;0.29874950208332507;87;0.875;violin
97.49483750833333;0.14874975208333296;84;0.875;violin
97.64483725833333;0.14874975208333296;82;0.875;violin
97.79483700833333;0.14874975208333296;68;0.875;violin
97.79483700833333;0.14874975208333296;74;0.875;violin
97.79483700833333;0.14874975208333296;81;0.875;violin
97.94483675833334;0.14874975208331875;82;0.875;violin
98.09483650833333;0.14874975208333296;84;0.875;violin
98.24483625833332;0.14874975208334718;82;0.875;violin
98.39483600833333;0.2987495020833393;67;0.875;violin
98.39483600833333;0.2987495020833393;75;0.875;violin
98.39483600833333;0.2987495020833393;82;0.875;violin
98.69483550833333;0.2987495020833393;79;0.875;violin
98.99483500833333;0.14874975208333296;65;0.875;violin
98.99483500833333;0.14874975208333296;71;0.875;violin
98.99483500833333;0.14874975208333296;78;0.875;violin
99.14483475833333;0.14874975208333296;79;0.875;violin
99.29483450833334;0.14874975208331875;80;0.875;violin
99.44483425833333;0.14874975208333296;79;0.875;violin
99.59483400833332;0.2987495020833393;63;0.875;violin
99.59483400833332;0.2987495020833393;70;0.875;violin
99.59483400833332;0.2987495020833393;79;0.875;violin
99.89483350833333;0.29874950208332507;75;0.875;violin
100.19483300833333;0.14874975208333296;61;0.875;violin
100.19483300833333;0.14874975208333296;67;0.875;violin
100.19483300833333;0.14874975208333296;74;0.875;violin
100.34483275833333;0.14874975208333296;75;0.875;violin
100.49483250833333;0.14874975208333296;76;0.875;violin
100.64483225833334;0.14874975208331875;75;0.875;violin
100.79483200833333;0.2987495020833393;60;0.875;violin
100.79483200833333;0.2987495020833393;68;0.875;violin
100.79483200833333;0.2987495020833393;75;0.875;violin
101.09483150833333;0.2987495020833393;59;0.875;violin
101.09483150833333;0.2987495020833393;69;0.875;violin
101.09483150833333;0.2987495020833393;75;0.875;violin
101.39483100833333;0.2987495020833393;58;0.875;violin
101.39483100833333;0.2987495020833393;70;0.875;violin
101.39483100833333;0.2987495020833393;75;0.875;violin
101.69483050833333;0.2987495020833393;58;0.875;violin
101.69483050833333;0.2987495020833393;68;0.875;violin
101.69483050833333;0.2987495020833393;74;0.875;violin
101.99483000833334;0.29874950208332507;63;0.875;violin
101.99483000833334;0.29874950208332507;67;0.875;violin
101.99483000833334;0.29874950208332507;75;0.875;violin
102.29482950833332;0.2987495020833393;70;0.875;violin
102.59482900833333;0.14874975208333296;56;0.875;violin
102.59482900833333;0.14874975208333296;62;0.875;violin
102.59482900833333;0.14874975208333296;69;0.875;violin
102.74482875833333;0.14874975208333296;70;0.875;violin
102.89482850833333;0.14874975208333296;71;0.875;violin
103.04482825833333;0.14874975208333296;70;0.875;violin
103.19482800833333;0.29874950208332507;55;0.875;violin
103.19482800833333;0.29874950208332507;63;0.875;violin
103.19482800833333;0.29874950208332507;70;0.875;violin
103.49482750833333;0.2987495020833393;75;0.875;violin
103.79482700833333;0.14874975208333296;62;0.875;violin
103.79482700833333;0.14874975208333296;70;0.875;violin
103.79482700833333;0.14874975208333296;77;0.875;violin
103.94482675833333;0.14874975208333296;79;0.875;violin
104.09482650833333;0.14874975208333296;80;0.875;violin
104.24482625833333;0.14874975208333296;82;0.875;violin
104.39482600833333;0.2987495020833393;63;0.875;violin
104.39482600833333;0.2987495020833393;70;0.875;violin
104.39482600833333;0.2987495020833393;79;0.875;violin
104.69482550833334;0.29874950208332507;82;0.875;violin
104.99482500833332;0.14874975208334718;68;0.875;violin
104.99482500833332;0.14874975208334718;74;0.875;violin
104.99482500833332;0.14874975208334718;81;0.875;violin
105.14482475833333;0.14874975208333296;82;0.875;violin
105.29482450833333;0.14874975208333296;83;0.875;violin
105.44482425833333;0.14874975208333296;82;0.875;violin
105.59482400833333;0.29874950208332507;67;0.875;violin
105.59482400833333;0.29874950208332507;75;0.875;violin
105.59482400833333;0.29874950208332507;82;0.875;violin
105.89482350833333;0.29874950208332507;87;0.875;violin
106.19482300833333;0.14874975208333296;62;0.875;violin
106.19482300833333;0.14874975208333296;70;0.875;violin
106.19482300833333;0.14874975208333296;81;0.875;violin
106.34482275833332;0.14874975208334718;82;0.875;violin
106.49482250833333;0.14874975208333296;80;0.875;violin
106.64482225833333;0.14874975208333296;77;0.875;violin
106.79482200833333;0.2987495020833393;55;0.875;violin
106.79482200833333;0.2987495020833393;63;0.875;violin
106.79482200833333;0.2987495020833393;75;0.875;violin
107.09482150833333;0.2987495020833393;58;0.875;violin
107.09482150833333;0.2987495020833393;65;0.875;violin
107.09482150833333;0.2987495020833393;74;0.875;violin
107.39482100833334;0.29874950208332507;55;0.875;violin
107.39482100833334;0.29874950208332507;63;0.875;violin
107.39482100833334;0.29874950208332507;75;0.875;violin
107.69482050833332;0.2987495020833393;58;0.875;violin
107.69482050833332;0.2987495020833393;65;0.875;violin
107.69482050833332;0.2987495020833393;74;0.875;violin
107.99482000833333;0.29874950208332507;55;0.875;violin
107.99482000833333;0.29874950208332507;63;0.875;violin
107.99482000833333;0.29874950208332507;75;0.875;violin
108.29481950833333;0.14874975208333296;55;0.875;violin
108.29481950833333;0.14874975208333296;63;0.875;violin
108.44481925833333;0.14874975208334718;55;0.875;violin
108.44481925833333;0.14874975208334718;63;0.875;violin
108.59481900833333;0.29874950208332507;55;0.875;violin
108.59481900833333;0.29874950208332507;63;0.875;violin
108.89481850833333;0.2987495020833393;55;0.875;violin
108.89481850833333;0.2987495020833393;63;0.875;violin
109.19481800833333;0.5987490020833377;55;0.875;violin
109.19481800833333;0.5987490020833377;63;0.875;violin
