start;duration;pitch;velocity;instrument
0.0;0.22884617291666667;64;0.3828125;violin
0.0;0.22884617291666667;76;0.3828125;violin
0.4615385;0.2288461729166666;66;0.3828125;violin
0.4615385;0.2288461729166666;78;0.3828125;violin
0.923077;0.34423079791666666;67;0.3828125;violin
0.923077;0.34423079791666666;79;0.3828125;violin
1.61538475;0.11346154791666652;71;0.3828125;violin
1.61538475;0.11346154791666652;83;0.3828125;violin
1.846154;0.22884617291666642;69;0.3828125;violin
1.846154;0.22884617291666642;81;0.3828125;violin
2.3076925;0.22884617291666665;67;0.3828125;violin
2.3076925;0.22884617291666665;79;0.3828125;violin
2.769231;0.22884617291666665;63;0.3828125;violin
2.769231;0.22884617291666665;75;0.3828125;violin
3.2307695;0.22884617291666665;64;0.3828125;violin
3.2307695;0.22884617291666665;76;0.3828125;violin
3.692308;0.22884617291666665;66;0.3828125;violin
3.692308;0.22884617291666665;78;0.3828125;violin
4.1538465;0.45961542291666646;58;0.75;violin
4.1538465;0.45961542291666646;70;0.75;violin
4.615385;0.45961542291666646;59;0.75;violin
4.615385;0.45961542291666646;71;0.75;violin
5.538462;0.22884617291666665;66;0.3828125;violin
5.538462;0.22884617291666665;78;0.3828125;violin
6.0000005;0.22884617291666665;67;0.3828125;violin
6.0000005;0.22884617291666665;79;0.3828125;violin
6.461539;0.34423079791666655;69;0.3828125;violin
6.461539;0.34423079791666655;81;0.3828125;violin
7.15384675;0.11346154791666674;72;0.3828125;violin
7.15384675;0.11346154791666674;84;0.3828125;violin
7.384616;0.22884617291666665;71;0.3828125;violin
7.384616;0.22884617291666665;83;0.3828125;violin
7.8461545;0.22884617291666753;69;0.3828125;violin
7.8461545;0.22884617291666753;81;0.3828125;violin
8.307693;0.22884617291666665;65;0.3828125;violin
8.307693;0.22884617291666665;77;0.3828125;violin
8.7692315;0.22884617291666665;66;0.3828125;violin
8.7692315;0.22884617291666665;78;0.3828125;violin
9.23077;0.22884617291666665;71;0.3828125;violin
9.23077;0.22884617291666665;83;0.3828125;violin
9.6923085;0.45961542291666646;63;0.75;violin
9.6923085;0.45961542291666646;75;0.75;violin
10.153847;0.45961542291666646;64;0.75;violin
10.153847;0.45961542291666646;76;0.75;violin
11.076924;0.45961542291666646;76;0.3828125;violin
11.076924;0.45961542291666646;88;0.3828125;violin
11.5384625;0.45961542291666646;74;0.3828125;violin
11.5384625;0.45961542291666646;86;0.3828125;violin
12.000001;0.690384672916668;72;0.3828125;violin
12.000001;0.690384672916668;84;0.3828125;violin
12.69230875;0.22884617291666665;68;0.75;violin
12.69230875;0.22884617291666665;80;0.75;violin
12.923078;0.45961542291666646;69;0.75;violin
12.923078;0.45961542291666646;81;0.75;violin
13.3846165;0.45961542291666646;66;0.75;violin
13.3846165;0.45961542291666646;78;0.75;violin
13.846155;0.45961542291666646;74;0.3828125;violin
13.846155;0.45961542291666646;86;0.3828125;violin
14.3076935;0.45961542291666824;72;0.3828125;violin
14.3076935;0.45961542291666824;84;0.3828125;violin
14.769232;0.6903846729166663;71;0.3828125;violin
14.769232;0.6903846729166663;83;0.3828125;violin
15.46153975;0.22884617291666665;66;0.75;violin
15.46153975;0.22884617291666665;78;0.75;violin
15.692309;0.45961542291666824;67;0.75;violin
15.692309;0.45961542291666824;79;0.75;violin
16.1538475;0.45961542291666646;64;0.75;violin
16.1538475;0.45961542291666646;76;0.75;violin
16.615386;0.45961542291666646;72;0.75;violin
16.615386;0.45961542291666646;84;0.75;violin
17.0769245;0.45961542291666646;71;0.75;violin
17.0769245;0.45961542291666646;83;0.75;violin
17.538463;0.690384672916668;70;0.75;violin
17.538463;0.690384672916668;82;0.75;violin
18.23077075;0.22884617291666487;67;0.75;violin
18.23077075;0.22884617291666487;79;0.75;violin
18.46154;0.45961542291666646;66;0.75;violin
18.46154;0.45961542291666646;78;0.75;violin
18.9230785;0.45961542291666646;64;0.75;violin
18.9230785;0.45961542291666646;76;0.75;violin
19.384617;0.45961542291666646;60;0.75;violin
19.384617;0.45961542291666646;72;0.75;violin
19.8461555;0.45961542291667;58;0.75;violin
19.8461555;0.45961542291667;70;0.75;violin
20.307694;0.45961542291666646;59;0.75;violin
20.307694;0.45961542291666646;71;0.75;violin
20.7692325;0.45961542291666646;70;0.75;violin
20.7692325;0.45961542291666646;82;0.75;violin
21.230771;0.45961542291666646;71;0.75;violin
21.230771;0.45961542291666646;83;0.75;violin
22.153848;0.11346154791666763;76;0.3828125;violin
22.269232625;0.11346154791666407;79;0.3828125;violin
22.38461725;0.11346154791666407;83;0.3828125;violin
22.500001875;0.055769235416669005;88;0.3828125;violin
22.6153865;0.11346154791666763;78;0.3828125;violin
22.730771125;0.11346154791666763;81;0.3828125;violin
22.84615575;0.11346154791666407;87;0.3828125;violin
22.961540375;0.055769235416669005;90;0.3828125;violin
23.076925;0.11346154791666763;79;0.3828125;violin
23.192309625;0.11346154791666763;83;0.3828125;violin
23.30769425;0.11346154791666407;88;0.3828125;violin
23.423078875;0.05576923541666545;91;0.3828125;violin
23.5384635;0.11346154791666763;83;0.3828125;violin
23.653848125;0.11346154791666763;88;0.3828125;violin
23.76923275;0.11346154791666763;91;0.3828125;violin
23.884617375;0.05576923541666545;95;0.3828125;violin
24.000002;0.11346154791666763;81;0.3828125;violin
24.115386625;0.11346154791666763;87;0.3828125;violin
24.23077125;0.11346154791666763;90;0.3828125;violin
24.346155875;0.05576923541666545;93;0.3828125;violin
24.461540499999998;0.11346154791666763;79;0.3828125;violin
24.576925125;0.11346154791666763;83;0.3828125;violin
24.69230975;0.11346154791666763;88;0.3828125;violin
24.807694375;0.05576923541666545;91;0.3828125;violin
24.923079;0.11346154791666407;75;0.3828125;violin
25.038463625;0.11346154791666763;78;0.3828125;violin
25.15384825;0.11346154791666763;83;0.3828125;violin
25.269232875;0.05576923541666545;87;0.3828125;violin
25.3846175;0.11346154791666407;76;0.3828125;violin
25.500002124999998;0.11346154791666763;79;0.3828125;violin
25.61538675;0.11346154791666763;83;0.3828125;violin
25.730771375;0.05576923541666545;88;0.3828125;violin
25.846156;0.11346154791666763;78;0.3828125;violin
25.961540625;0.11346154791666407;83;0.3828125;violin
26.07692525;0.11346154791666763;87;0.3828125;violin
26.192309875;0.05576923541666545;90;0.3828125;violin
26.3076945;0.45961542291666646;70;0.75;violin
26.3076945;0.45961542291666646;82;0.75;violin
26.769233;0.45961542291666646;71;0.75;violin
26.769233;0.45961542291666646;83;0.75;violin
27.69231;0.11346154791666763;78;0.3828125;violin
27.807694625;0.11346154791666763;83;0.3828125;violin
27.92307925;0.11346154791666407;87;0.3828125;violin
28.038463875;0.05576923541666545;90;0.3828125;violin
28.1538485;0.11346154791666763;79;0.3828125;violin
28.269233125;0.11346154791666763;83;0.3828125;violin
28.38461775;0.11346154791666763;88;0.3828125;violin
28.500002375;0.05576923541666545;91;0.3828125;violin
28.615387;0.11346154791666763;81;0.3828125;violin
28.730771625;0.11346154791666763;84;0.3828125;violin
28.84615625;0.11346154791666763;90;0.3828125;violin
28.961540875;0.05576923541666545;93;0.3828125;violin
29.0769255;0.11346154791666407;84;0.3828125;violin
29.192310125;0.11346154791666763;90;0.3828125;violin
29.30769475;0.11346154791666763;93;0.3828125;violin
29.423079375;0.05576923541666545;96;0.3828125;violin
29.538464;0.11346154791666407;83;0.3828125;violin
29.653848625;0.11346154791666763;88;0.3828125;violin
29.76923325;0.11346154791666763;91;0.3828125;violin
29.884617875;0.05576923541666545;95;0.3828125;violin
30.0000025;0.11346154791666407;81;0.3828125;violin
30.115387125;0.11346154791666407;84;0.3828125;violin
30.23077175;0.11346154791666763;90;0.3828125;violin
30.346156375;0.05576923541666545;93;0.3828125;violin
30.461541;0.11346154791666763;77;0.3828125;violin
30.576925625;0.11346154791666407;80;0.3828125;violin
30.69231025;0.11346154791666763;83;0.3828125;violin
30.807694875;0.055769235416669005;89;0.3828125;violin
30.9230795;0.11346154791666763;78;0.3828125;violin
31.038464125;0.11346154791666407;81;0.3828125;violin
31.153848749999998;0.11346154791666763;87;0.3828125;violin
31.269233375;0.055769235416669005;90;0.3828125;violin
31.384618;0.11346154791666763;83;0.3828125;violin
31.500002625;0.11346154791666763;88;0.3828125;violin
31.61538725;0.11346154791666407;91;0.3828125;violin
31.730771875;0.055769235416669005;95;0.3828125;violin
31.8461565;0.45961542291667;75;0.75;violin
31.8461565;0.45961542291667;87;0.75;violin
32.307695;0.4596154229166629;76;0.75;violin
32.307695;0.4596154229166629;88;0.75;violin
33.230772;0.11346154791666407;88;0.3828125;violin
33.346156625;0.11346154791666407;91;0.3828125;violin
33.46154125;0.11346154791666407;95;0.3828125;violin
33.576925875;0.055769235416669005;100;0.3828125;violin
33.6923105;0.11346154791667118;86;0.3828125;violin
33.807695125;0.11346154791666407;92;0.3828125;violin
33.92307975;0.11346154791666407;95;0.3828125;violin
34.038464375;0.055769235416669005;98;0.3828125;violin
34.153849;0.11346154791666407;84;0.3828125;violin
34.269233625;0.11346154791667118;88;0.3828125;violin
34.38461825;0.11346154791666407;93;0.3828125;violin
34.500002875;0.055769235416669005;96;0.3828125;violin
34.6153875;0.11346154791667118;80;0.75;violin
34.730772125;0.11346154791666407;83;0.75;violin
34.84615675;0.11346154791667118;88;0.75;violin
34.961541375;0.0557692354166619;92;0.75;violin
35.076926;0.11346154791666407;81;0.75;violin
35.192310625;0.11346154791667118;84;0.75;violin
35.30769525;0.11346154791666407;88;0.75;violin
35.423079875;0.055769235416669005;93;0.75;violin
35.538464499999996;0.11346154791667118;78;0.75;violin
35.653849125;0.11346154791666407;81;0.75;violin
35.76923375;0.11346154791667118;86;0.75;violin
35.884618375;0.0557692354166619;90;0.75;violin
36.000003;0.11346154791666407;86;0.3828125;violin
36.115387625;0.11346154791667118;90;0.3828125;violin
36.23077225;0.11346154791666407;93;0.3828125;violin
36.346156875;0.055769235416669005;98;0.3828125;violin
36.4615415;0.11346154791666407;84;0.3828125;violin
36.576926125;0.11346154791666407;90;0.3828125;violin
36.69231075;0.11346154791667118;93;0.3828125;violin
36.807695375;0.11346154791666407;96;0.3828125;violin
36.92308;0.11346154791667118;83;0.3828125;violin
37.038464625;0.11346154791666407;86;0.3828125;violin
37.15384925;0.11346154791666407;91;0.3828125;violin
37.269233875;0.055769235416669005;95;0.3828125;violin
37.3846185;0.11346154791666407;78;0.75;violin
37.500003125;0.11346154791666407;81;0.75;violin
37.61538775;0.11346154791667118;86;0.75;violin
37.730772375;0.055769235416669005;90;0.75;violin
37.846157;0.11346154791667118;79;0.75;violin
37.961541625;0.11346154791666407;83;0.75;violin
38.07692625;0.11346154791666407;86;0.75;violin
38.192310875;0.055769235416669005;91;0.75;violin
38.3076955;0.11346154791666407;76;0.75;violin
38.423080125;0.11346154791667118;79;0.75;violin
38.53846475;0.11346154791666407;84;0.75;violin
38.653849375;0.055769235416669005;88;0.75;violin
38.769234;0.11346154791667118;84;0.3828125;violin
38.884618625;0.11346154791666407;88;0.3828125;violin
39.00000325;0.11346154791666407;91;0.3828125;violin
39.115387875;0.0557692354166619;96;0.3828125;violin
39.2307725;0.11346154791666407;83;0.3828125;violin
39.346157125;0.11346154791667118;88;0.3828125;violin
39.46154175;0.11346154791666407;91;0.3828125;violin
39.576926375;0.055769235416669005;95;0.3828125;violin
39.692311;0.11346154791667118;81;0.3828125;violin
39.807695625;0.11346154791666407;84;0.3828125;violin
39.92308025;0.11346154791667118;90;0.3828125;violin
40.038464875;0.0557692354166619;93;0.3828125;violin
40.1538495;0.11346154791666407;57;0.75;violin
40.269234125;0.11346154791667118;60;0.75;violin
40.38461875;0.11346154791666407;64;0.75;violin
40.500003375;0.055769235416669005;69;0.75;violin
40.615388;0.11346154791666407;58;0.75;violin
40.730772625;0.11346154791666407;61;0.75;violin
40.84615725;0.11346154791667118;64;0.75;violin
40.961541875;0.0557692354166619;67;0.75;violin
41.0769265;0.11346154791666407;59;0.75;violin
41.192311124999996;0.11346154791667118;64;0.75;violin
41.30769575;0.11346154791666407;67;0.75;violin
41.423080375;0.055769235416669005;71;0.75;violin
41.538465;0.11346154791666407;83;0.75;violin
41.653849625;0.11346154791666407;88;0.75;violin
41.76923425;0.11346154791667118;91;0.75;violin
41.884618875;0.0557692354166619;95;0.75;violin
42.0000035;0.11346154791667118;59;0.75;violin
42.115388125;0.11346154791666407;63;0.75;violin
42.23077275;0.11346154791666407;66;0.75;violin
42.346157375;0.055769235416669005;71;0.75;violin
42.461542;0.11346154791666407;64;0.75;violin
42.576926625;0.11346154791667118;95;0.75;violin
42.69231125;0.11346154791666407;91;0.75;violin
42.807695875;0.11346154791666407;88;0.75;violin
42.9230805;0.11346154791667118;83;0.75;violin
43.038465125;0.11346154791666407;88;0.75;violin
43.15384975;0.11346154791666407;83;0.75;violin
43.269234374999996;0.11346154791667118;79;0.75;violin
43.384619;0.11346154791666407;76;0.75;violin
43.500003625;0.11346154791667118;83;0.75;violin
43.61538825;0.11346154791666407;79;0.75;violin
43.730772875;0.11346154791666407;76;0.75;violin
43.8461575;0.45961542291667;71;0.75;violin
44.307696;0.4596154229166629;82;0.75;violin
44.307696;0.4596154229166629;94;0.75;violin
44.7692345;0.4596154229166629;83;0.75;violin
44.7692345;0.4596154229166629;95;0.75;violin
45.230773;0.11346154791666407;64;0.75;violin
45.346157625;0.11346154791667118;83;0.75;violin
45.46154225;0.11346154791666407;79;0.75;violin
45.576926875;0.11346154791667118;75;0.75;violin
45.6923115;0.11346154791666407;76;0.75;violin
45.807696125;0.11346154791666407;83;0.75;violin
45.92308075;0.11346154791667118;79;0.75;violin
46.038465375;0.11346154791666407;88;0.75;violin
46.15385;0.11346154791667118;83;0.75;violin
46.269234625;0.11346154791666407;91;0.75;violin
46.38461925;0.11346154791666407;87;0.75;violin
46.500003875;0.11346154791667118;88;0.75;violin
46.6153885;0.4596154229166629;95;0.75;violin
47.076927;0.45961542291667;58;0.75;violin
47.076927;0.45961542291667;70;0.75;violin
47.5384655;0.4596154229166629;59;0.75;violin
47.5384655;0.4596154229166629;71;0.75;violin
48.000004;0.45961542291667;64;0.75;violin
48.000004;0.45961542291667;71;0.75;violin
48.000004;0.45961542291667;76;0.75;violin
48.4615425;0.4596154229166629;64;0.75;violin
48.4615425;0.4596154229166629;71;0.75;violin
48.4615425;0.4596154229166629;79;0.75;violin
48.923080999999996;0.45961542291667;64;0.75;violin
48.923080999999996;0.45961542291667;71;0.75;violin
48.923080999999996;0.45961542291667;83;0.75;violin
49.3846195;0.9211539229166661;64;0.75;violin
49.3846195;0.9211539229166661;71;0.75;violin
49.3846195;0.9211539229166661;76;0.75;violin
50.769235;0.4596154229166629;55;0.75;violin
50.769235;0.4596154229166629;62;0.75;violin
50.769235;0.4596154229166629;71;0.75;violin
50.769235;0.6903846729166645;79;0.75;violin
51.46154275;0.055769235416669005;83;0.75;violin
51.576927375;0.055769235416669005;81;0.75;violin
51.692312;0.0557692354166619;79;0.75;violin
51.807696625;0.055769235416669005;78;0.75;violin
51.92308125;0.0557692354166619;76;0.75;violin
52.038465875;0.055769235416669005;74;0.75;violin
52.1538505;0.055769235416669005;72;0.75;violin
52.269235125;0.0557692354166619;71;0.75;violin
52.38461975;0.055769235416669005;69;0.75;violin
52.500004375;0.0557692354166619;67;0.75;violin
52.615389;0.055769235416669005;66;0.75;violin
52.730773625;0.055769235416669005;64;0.75;violin
52.84615825;0.0557692354166619;62;0.75;violin
52.961542875;0.055769235416669005;60;0.75;violin
53.0769275;0.055769235416669005;59;0.75;violin
53.192312125;0.055769235416669005;62;0.75;violin
53.30769675;0.055769235416669005;60;0.75;violin
53.423081375;0.0557692354166619;57;0.75;violin
53.538466;0.11346154791666407;55;0.75;violin
53.653850625;0.11346154791667118;67;0.75;violin
53.76923525;0.0557692354166619;69;0.75;violin
53.884619875;0.055769235416669005;71;0.75;violin
54.0000045;0.0557692354166619;72;0.75;violin
54.115389125;0.055769235416669005;74;0.75;violin
54.23077375;0.055769235416669005;76;0.75;violin
54.346158375;0.0557692354166619;78;0.75;violin
54.461543;0.055769235416669005;79;0.75;violin
54.576927624999996;0.055769235416669005;74;0.75;violin
54.69231225;0.055769235416669005;83;0.75;violin
54.807696875;0.055769235416669005;79;0.75;violin
54.9230815;0.0557692354166619;86;0.75;violin
55.038466125;0.055769235416669005;83;0.75;violin
55.15385075;0.055769235416669005;91;0.75;violin
55.269235375;0.0557692354166619;86;0.75;violin
55.38462;0.055769235416669005;95;0.75;violin
55.500004625;0.0557692354166619;91;0.75;violin
55.61538925;0.055769235416669005;98;0.75;violin
55.730773875;0.055769235416669005;95;0.75;violin
55.8461585;0.22884617291666842;103;0.75;violin
56.07692775;0.22884617291666132;55;0.75;violin
56.307697;0.6903846729166716;62;0.75;violin
56.307697;0.6903846729166716;78;0.75;violin
56.307697;0.6903846729166716;86;0.75;violin
57.00000475;0.0557692354166619;90;0.75;violin
57.115389375;0.055769235416669005;88;0.75;violin
57.230774;0.055769235416669005;86;0.75;violin
57.346158625;0.0557692354166619;85;0.75;violin
57.46154325;0.055769235416669005;83;0.75;violin
57.576927875;0.0557692354166619;81;0.75;violin
57.6923125;0.055769235416669005;79;0.75;violin
57.807697125;0.055769235416669005;78;0.75;violin
57.92308175;0.0557692354166619;76;0.75;violin
58.038466375;0.055769235416669005;74;0.75;violin
58.153851;0.0557692354166619;73;0.75;violin
58.269235625;0.055769235416669005;71;0.75;violin
58.38462025;0.055769235416669005;69;0.75;violin
58.500004875;0.0557692354166619;67;0.75;violin
58.6153895;0.055769235416669005;66;0.75;violin
58.730774124999996;0.055769235416669005;69;0.75;violin
58.84615875;0.055769235416669005;67;0.75;violin
58.961543375;0.055769235416669005;64;0.75;violin
59.076928;0.22884617291666132;62;0.75;violin
59.30769725;0.055769235416669005;64;0.75;violin
59.423081875;0.0557692354166619;66;0.75;violin
59.5384665;0.055769235416669005;67;0.75;violin
59.653851125;0.0557692354166619;69;0.75;violin
59.76923575;0.055769235416669005;71;0.75;violin
59.884620375;0.055769235416669005;73;0.75;violin
60.000005;0.0557692354166619;74;0.75;violin
60.115389625;0.055769235416669005;69;0.75;violin
60.23077425;0.0557692354166619;78;0.75;violin
60.346158875;0.055769235416669005;74;0.75;violin
60.4615435;0.055769235416669005;81;0.75;violin
60.576928125;0.0557692354166619;78;0.75;violin
60.69231275;0.055769235416669005;86;0.75;violin
60.807697375;0.055769235416669005;81;0.75;violin
60.923082;0.055769235416669005;90;0.75;violin
61.038466625;0.055769235416669005;86;0.75;violin
61.15385125;0.0557692354166619;93;0.75;violin
61.269235875;0.055769235416669005;90;0.75;violin
61.3846205;0.22884617291666842;98;0.75;violin
61.61538975;0.22884617291666842;62;0.75;violin
61.846159;0.22884617291666842;71;0.75;violin
61.846159;0.22884617291666842;79;0.75;violin
62.07692825;0.0557692354166619;59;0.75;violin
62.192312875;0.055769235416669005;60;0.75;violin
62.307697499999996;0.055769235416669005;62;0.75;violin
62.423082125;0.055769235416669005;59;0.75;violin
62.53846675;0.055769235416669005;60;0.75;violin
62.653851375;0.0557692354166619;57;0.75;violin
62.769236;0.11346154791666407;55;0.75;violin
63.00000525;0.11346154791666407;83;0.75;violin
63.00000525;0.11346154791666407;86;0.75;violin
63.2307745;0.11346154791666407;81;0.75;violin
63.2307745;0.11346154791666407;84;0.75;violin
63.46154375;0.055769235416669005;66;0.75;violin
63.576928375;0.0557692354166619;67;0.75;violin
63.692313;0.055769235416669005;69;0.75;violin
63.807697625;0.0557692354166619;66;0.75;violin
63.92308225;0.055769235416669005;67;0.75;violin
64.038466875;0.0557692354166619;64;0.75;violin
64.1538515;0.11346154791667118;62;0.75;violin
64.38462075;0.11346154791667118;81;0.75;violin
64.38462075;0.11346154791667118;84;0.75;violin
64.61539;0.11346154791665697;79;0.75;violin
64.61539;0.11346154791665697;83;0.75;violin
64.84615925;0.0557692354166619;59;0.75;violin
64.961543875;0.0557692354166619;60;0.75;violin
65.0769285;0.05576923541667611;62;0.75;violin
65.192313125;0.0557692354166619;59;0.75;violin
65.30769775;0.0557692354166619;60;0.75;violin
65.42308237499999;0.05576923541667611;57;0.75;violin
65.538467;0.11346154791667118;55;0.75;violin
65.76923625;0.11346154791665697;79;0.75;violin
65.76923625;0.11346154791665697;83;0.75;violin
66.0000055;0.11346154791667118;76;0.75;violin
66.0000055;0.11346154791667118;85;0.75;violin
66.23077475;0.05576923541667611;61;0.75;violin
66.346159375;0.0557692354166619;62;0.75;violin
66.461544;0.0557692354166619;64;0.75;violin
66.576928625;0.05576923541667611;61;0.75;violin
66.69231325;0.0557692354166619;62;0.75;violin
66.807697875;0.0557692354166619;59;0.75;violin
66.9230825;0.11346154791665697;57;0.75;violin
67.15385175;0.22884617291666132;81;0.75;violin
67.15385175;0.22884617291666132;88;0.75;violin
67.384621;0.22884617291667553;81;0.75;violin
67.384621;0.22884617291667553;90;0.75;violin
67.61539025;0.22884617291666132;62;0.75;violin
67.8461595;0.22884617291666132;79;0.75;violin
67.8461595;0.22884617291666132;88;0.75;violin
68.07692875;0.22884617291667553;58;0.75;violin
68.307698;0.22884617291666132;78;0.75;violin
68.307698;0.22884617291666132;86;0.75;violin
68.53846725;0.22884617291667553;59;0.75;violin
68.7692365;0.22884617291666132;55;0.75;violin
69.00000575;0.22884617291666132;79;0.75;violin
69.00000575;0.22884617291666132;83;0.75;violin
69.230775;0.22884617291667553;57;0.75;violin
69.46154425;0.22884617291666132;78;0.75;violin
69.46154425;0.22884617291666132;81;0.75;violin
69.6923135;0.22884617291667553;57;0.75;violin
69.92308275;0.22884617291666132;76;0.75;violin
69.92308275;0.22884617291666132;85;0.75;violin
70.153852;0.22884617291666132;62;0.75;violin
70.153852;0.22884617291666132;74;0.75;violin
70.153852;0.22884617291666132;90;0.75;violin
70.38462125;0.11346154791667118;86;0.75;violin
70.500005875;0.11346154791667118;81;0.75;violin
70.6153905;0.11346154791665697;78;0.75;violin
70.730775125;0.11346154791667118;81;0.75;violin
70.84615975;0.11346154791667118;74;0.75;violin
70.961544375;0.11346154791665697;78;0.75;violin
71.07692899999999;0.11346154791667118;69;0.75;violin
71.192313625;0.11346154791667118;74;0.75;violin
71.30769825;0.11346154791667118;66;0.75;violin
71.423082875;0.11346154791665697;69;0.75;violin
71.5384675;0.45961542291667;62;0.75;violin
72.923083;0.6903846729166645;62;0.75;violin
72.923083;0.6903846729166645;72;0.75;violin
72.923083;0.6903846729166645;81;0.75;violin
73.61539075;0.0557692354166619;84;0.75;violin
73.730775375;0.05576923541667611;83;0.75;violin
73.84616;0.0557692354166619;81;0.75;violin
73.961544625;0.0557692354166619;79;0.75;violin
74.07692925;0.0557692354166619;78;0.75;violin
74.192313875;0.05576923541667611;76;0.75;violin
74.3076985;0.0557692354166619;73;0.75;violin
74.423083125;0.0557692354166619;74;0.75;violin
74.53846775;0.05576923541667611;76;0.75;violin
74.653852375;0.0557692354166619;74;0.75;violin
74.769237;0.0557692354166619;72;0.75;violin
74.884621625;0.05576923541667611;68;0.75;violin
75.00000625;0.0557692354166619;69;0.75;violin
75.115390875;0.0557692354166619;65;0.75;violin
75.2307755;0.05576923541667611;66;0.75;violin
75.346160125;0.0557692354166619;61;0.75;violin
75.46154475;0.0557692354166619;62;0.75;violin
75.576929375;0.0557692354166619;60;0.75;violin
75.692314;0.22884617291667553;59;0.75;violin
75.92308325;0.11346154791665697;62;0.75;violin
76.038467875;0.11346154791667118;59;0.75;violin
76.1538525;0.11346154791667118;67;0.75;violin
76.269237125;0.11346154791665697;62;0.75;violin
76.38462175;0.11346154791667118;71;0.75;violin
76.500006375;0.11346154791667118;67;0.75;violin
76.615391;0.11346154791665697;74;0.75;violin
76.73077562499999;0.11346154791667118;71;0.75;violin
76.84616025;0.11346154791667118;79;0.75;violin
76.961544875;0.11346154791667118;74;0.75;violin
77.0769295;0.11346154791665697;83;0.75;violin
77.192314125;0.11346154791667118;79;0.75;violin
77.30769875;0.11346154791667118;86;0.75;violin
77.423083375;0.11346154791665697;83;0.75;violin
77.538468;0.11346154791667118;91;0.75;violin
77.653852625;0.11346154791667118;86;0.75;violin
77.76923725;0.11346154791665697;95;0.75;violin
77.884621875;0.11346154791667118;91;0.75;violin
78.0000065;0.11346154791667118;86;0.75;violin
78.115391125;0.11346154791665697;83;0.75;violin
78.23077575;0.11346154791665697;79;0.75;violin
78.346160375;0.11346154791667118;74;0.75;violin
78.461545;0.6903846729166645;62;0.75;violin
78.461545;0.6903846729166645;72;0.75;violin
78.461545;0.6903846729166645;81;0.75;violin
79.15385275;0.0557692354166619;84;0.75;violin
79.269237375;0.0557692354166619;83;0.75;violin
79.384622;0.05576923541667611;81;0.75;violin
79.500006625;0.0557692354166619;79;0.75;violin
79.61539125;0.0557692354166619;78;0.75;violin
79.730775875;0.0557692354166619;76;0.75;violin
79.8461605;0.05576923541667611;73;0.75;violin
79.961545125;0.0557692354166619;74;0.75;violin
80.07692975;0.0557692354166619;76;0.75;violin
80.192314375;0.05576923541667611;74;0.75;violin
80.307699;0.0557692354166619;72;0.75;violin
80.423083625;0.0557692354166619;68;0.75;violin
80.53846825;0.05576923541667611;69;0.75;violin
80.653852875;0.0557692354166619;65;0.75;violin
80.7692375;0.0557692354166619;66;0.75;violin
80.88462212499999;0.05576923541667611;61;0.75;violin
81.00000675;0.05576923541667611;62;0.75;violin
81.115391375;0.0557692354166619;60;0.75;violin
81.230776;0.22884617291666132;59;0.75;violin
81.46154525;0.11346154791667118;62;0.75;violin
81.576929875;0.11346154791665697;59;0.75;violin
81.6923145;0.11346154791667118;67;0.75;violin
81.807699125;0.11346154791667118;62;0.75;violin
81.92308375;0.11346154791665697;71;0.75;violin
82.038468375;0.11346154791667118;67;0.75;violin
82.153853;0.11346154791667118;74;0.75;violin
82.269237625;0.11346154791665697;71;0.75;violin
82.38462224999999;0.11346154791667118;79;0.75;violin
82.500006875;0.11346154791667118;74;0.75;violin
82.6153915;0.11346154791667118;83;0.75;violin
82.730776125;0.11346154791665697;79;0.75;violin
82.84616075;0.11346154791667118;86;0.75;violin
82.961545375;0.11346154791667118;83;0.75;violin
83.07693;0.11346154791665697;91;0.75;violin
83.192314625;0.11346154791667118;86;0.75;violin
83.30769925;0.11346154791667118;95;0.75;violin
83.423083875;0.11346154791665697;91;0.75;violin
83.5384685;0.11346154791667118;86;0.75;violin
83.653853125;0.11346154791667118;83;0.75;violin
83.76923775;0.11346154791667118;79;0.75;violin
83.884622375;0.11346154791665697;74;0.75;violin
84.000007;0.22884617291667553;76;0.75;violin
84.000007;0.22884617291667553;84;0.75;violin
84.23077625;0.0557692354166619;64;0.75;violin
84.346160875;0.05576923541667611;66;0.75;violin
84.4615455;0.0557692354166619;67;0.75;violin
84.576930125;0.0557692354166619;64;0.75;violin
84.69231475;0.05576923541667611;66;0.75;violin
84.807699375;0.0557692354166619;62;0.75;violin
84.923084;0.11346154791665697;60;0.75;violin
85.15385325;0.11346154791667118;76;0.75;violin
85.15385325;0.11346154791667118;84;0.75;violin
85.3846225;0.11346154791665697;78;0.75;violin
85.3846225;0.11346154791665697;81;0.75;violin
85.61539175;0.0557692354166619;66;0.75;violin
85.730776375;0.0557692354166619;67;0.75;violin
85.846161;0.05576923541667611;69;0.75;violin
85.961545625;0.0557692354166619;66;0.75;violin
86.07693025;0.0557692354166619;67;0.75;violin
86.192314875;0.05576923541667611;64;0.75;violin
86.3076995;0.11346154791667118;62;0.75;violin
86.53846874999999;0.11346154791667118;78;0.75;violin
86.53846874999999;0.11346154791667118;86;0.75;violin
86.769238;0.11346154791667118;79;0.75;violin
86.769238;0.11346154791667118;83;0.75;violin
87.00000725;0.05576923541667611;67;0.75;violin
87.115391875;0.0557692354166619;69;0.75;violin
87.2307765;0.0557692354166619;71;0.75;violin
87.346161125;0.05576923541667611;67;0.75;violin
87.46154575;0.0557692354166619;69;0.75;violin
87.576930375;0.0557692354166619;66;0.75;violin
87.692315;0.11346154791667118;64;0.75;violin
87.92308425;0.11346154791665697;79;0.75;violin
87.92308425;0.11346154791665697;88;0.75;violin
88.1538535;0.11346154791667118;81;0.75;violin
88.1538535;0.11346154791667118;84;0.75;violin
88.38462275;0.0557692354166619;69;0.75;violin
88.500007375;0.05576923541667611;71;0.75;violin
88.615392;0.0557692354166619;72;0.75;violin
88.730776625;0.0557692354166619;69;0.75;violin
88.84616125;0.05576923541667611;71;0.75;violin
88.961545875;0.0557692354166619;67;0.75;violin
89.0769305;0.11346154791665697;66;0.75;violin
89.30769975;0.22884617291667553;81;0.75;violin
89.30769975;0.22884617291667553;90;0.75;violin
89.538469;0.22884617291666132;83;0.75;violin
89.538469;0.22884617291666132;91;0.75;violin
89.76923825;0.22884617291666132;67;0.75;violin
90.0000075;0.22884617291667553;79;0.75;violin
90.0000075;0.22884617291667553;88;0.75;violin
90.23077675;0.22884617291666132;64;0.75;violin
90.461546;0.22884617291666132;76;0.75;violin
90.461546;0.22884617291666132;84;0.75;violin
90.69231525;0.22884617291667553;60;0.75;violin
90.9230845;0.22884617291666132;72;0.75;violin
90.9230845;0.22884617291666132;81;0.75;violin
91.15385375;0.22884617291667553;57;0.75;violin
91.384623;0.22884617291666132;69;0.75;violin
91.384623;0.22884617291666132;78;0.75;violin
91.61539225;0.22884617291666132;62;0.75;violin
91.8461615;0.22884617291667553;78;0.75;violin
91.8461615;0.22884617291667553;86;0.75;violin
92.07693075;0.22884617291666132;66;0.75;violin
92.3077;0.45961542291667;55;0.75;violin
92.7692385;0.45961542291667;73;0.75;violin
92.7692385;0.45961542291667;85;0.75;violin
93.230777;0.4596154229166558;74;0.75;violin
93.230777;0.4596154229166558;86;0.75;violin
93.6923155;0.22884617291666132;62;0.75;violin
93.92308475;0.22884617291666132;84;0.3828125;violin
93.92308475;0.22884617291666132;90;0.3828125;violin
94.153854;0.22884617291667553;84;0.3828125;violin
94.153854;0.22884617291667553;93;0.3828125;violin
94.38462325;0.22884617291666132;62;0.3828125;violin
94.6153925;0.22884617291666132;81;0.3828125;violin
94.6153925;0.22884617291666132;90;0.3828125;violin
94.84616175;0.22884617291667553;62;0.3828125;violin
95.076931;0.45961542291667;55;0.3828125;violin
95.5384695;0.4596154229166558;73;0.75;violin
95.5384695;0.4596154229166558;85;0.75;violin
96.000008;0.45961542291667;74;0.75;violin
96.000008;0.45961542291667;86;0.75;violin
96.4615465;0.22884617291667553;62;0.75;violin
96.69231575;0.22884617291666132;84;0.3828125;violin
96.69231575;0.22884617291666132;90;0.3828125;violin
96.923085;0.22884617291666132;84;0.3828125;violin
96.923085;0.22884617291666132;93;0.3828125;violin
97.15385425;0.22884617291667553;62;0.3828125;violin
97.3846235;0.22884617291666132;81;0.3828125;violin
97.3846235;0.22884617291666132;90;0.3828125;violin
97.61539275;0.22884617291666132;62;0.3828125;violin
97.84616199999999;0.45961542291667;55;0.3828125;violin
98.3077005;0.45961542291667;66;0.75;violin
98.3077005;0.45961542291667;78;0.75;violin
98.769239;0.22884617291666132;67;0.75;violin
98.769239;0.22884617291666132;79;0.75;violin
99.2307775;0.45961542291667;55;0.75;violin
99.692316;0.22884617291666132;64;0.3828125;violin
99.692316;0.22884617291666132;76;0.3828125;violin
100.1538545;0.22884617291667553;66;0.3828125;violin
100.1538545;0.22884617291667553;78;0.3828125;violin
100.615393;0.34423079791666567;67;0.3828125;violin
100.615393;0.34423079791666567;79;0.3828125;violin
101.30770075;0.11346154791667118;71;0.3828125;violin
101.30770075;0.11346154791667118;83;0.3828125;violin
101.53847;0.22884617291666132;69;0.3828125;violin
101.53847;0.22884617291666132;81;0.3828125;violin
102.00000849999999;0.22884617291667553;67;0.3828125;violin
102.00000849999999;0.22884617291667553;79;0.3828125;violin
102.461547;0.22884617291667553;63;0.3828125;violin
102.461547;0.22884617291667553;75;0.3828125;violin
102.9230855;0.22884617291666132;64;0.3828125;violin
102.9230855;0.22884617291666132;76;0.3828125;violin
103.384624;0.22884617291666132;66;0.3828125;violin
103.384624;0.22884617291666132;78;0.3828125;violin
103.8461625;0.4596154229166558;58;0.75;violin
103.8461625;0.4596154229166558;70;0.75;violin
104.307701;0.45961542291667;59;0.75;violin
104.307701;0.45961542291667;71;0.75;violin
105.230778;0.22884617291666132;66;0.3828125;violin
105.230778;0.22884617291666132;78;0.3828125;violin
105.6923165;0.22884617291666132;67;0.3828125;violin
105.6923165;0.22884617291666132;79;0.3828125;violin
106.153855;0.3442307979166799;69;0.3828125;violin
106.153855;0.3442307979166799;81;0.3828125;violin
106.84616275;0.11346154791665697;72;0.3828125;violin
106.84616275;0.11346154791665697;84;0.3828125;violin
107.076932;0.22884617291666132;71;0.3828125;violin
107.076932;0.22884617291666132;83;0.3828125;violin
107.5384705;0.22884617291666132;69;0.3828125;violin
107.5384705;0.22884617291666132;81;0.3828125;violin
108.000009;0.22884617291666132;65;0.3828125;violin
108.000009;0.22884617291666132;77;0.3828125;violin
108.4615475;0.22884617291667553;66;0.3828125;violin
108.4615475;0.22884617291667553;78;0.3828125;violin
108.923086;0.22884617291666132;71;0.3828125;violin
108.923086;0.22884617291666132;83;0.3828125;violin
109.3846245;0.45961542291667;63;0.75;violin
109.3846245;0.45961542291667;75;0.75;violin
109.846163;0.4596154229166558;64;0.75;violin
109.846163;0.4596154229166558;76;0.75;violin
110.76924;0.45961542291667;76;0.3828125;violin
110.76924;0.45961542291667;88;0.3828125;violin
111.2307785;0.45961542291667;74;0.3828125;violin
111.2307785;0.45961542291667;86;0.3828125;violin
111.692317;0.6903846729166645;72;0.3828125;violin
111.692317;0.6903846729166645;84;0.3828125;violin
112.38462475;0.22884617291666132;68;0.75;violin
112.38462475;0.22884617291666132;80;0.75;violin
112.615394;0.45961542291667;69;0.75;violin
112.615394;0.45961542291667;81;0.75;violin
113.0769325;0.45961542291667;66;0.75;violin
113.0769325;0.45961542291667;78;0.75;violin
113.538471;0.45961542291667;74;0.3828125;violin
113.538471;0.45961542291667;86;0.3828125;violin
114.0000095;0.4596154229166558;72;0.3828125;violin
114.0000095;0.4596154229166558;84;0.3828125;violin
114.461548;0.6903846729166787;71;0.3828125;violin
114.461548;0.6903846729166787;83;0.3828125;violin
115.15385575;0.22884617291666132;66;0.75;violin
115.15385575;0.22884617291666132;78;0.75;violin
115.384625;0.45961542291667;67;0.75;violin
115.384625;0.45961542291667;79;0.75;violin
115.8461635;0.45961542291667;64;0.75;violin
115.8461635;0.45961542291667;76;0.75;violin
116.307702;0.4596154229166558;72;0.75;violin
116.307702;0.4596154229166558;84;0.75;violin
116.7692405;0.45961542291667;71;0.75;violin
116.7692405;0.45961542291667;83;0.75;violin
117.230779;0.6903846729166645;70;0.75;violin
117.230779;0.6903846729166645;82;0.75;violin
117.92308675;0.22884617291667553;67;0.75;violin
117.92308675;0.22884617291667553;79;0.75;violin
118.153856;0.4596154229166558;66;0.75;violin
118.153856;0.4596154229166558;78;0.75;violin
118.6153945;0.45961542291667;64;0.75;violin
118.6153945;0.45961542291667;76;0.75;violin
119.076933;0.45961542291667;60;0.75;violin
119.076933;0.45961542291667;72;0.75;violin
119.5384715;0.45961542291667;58;0.75;violin
119.5384715;0.45961542291667;70;0.75;violin
120.00001;0.4596154229166558;59;0.75;violin
120.00001;0.4596154229166558;71;0.75;violin
120.4615485;0.4596154229166558;70;0.75;violin
120.4615485;0.4596154229166558;82;0.75;violin
120.923087;0.45961542291667;71;0.75;violin
120.923087;0.45961542291667;83;0.75;violin
121.846164;0.11346154791667118;76;0.3828125;violin
121.961548625;0.11346154791665697;79;0.3828125;violin
122.07693325;0.11346154791667118;83;0.3828125;violin
122.192317875;0.0557692354166619;88;0.3828125;violin
122.3077025;0.11346154791665697;78;0.3828125;violin
122.423087125;0.11346154791667118;81;0.3828125;violin
122.53847175;0.11346154791667118;87;0.3828125;violin
122.653856375;0.0557692354166619;90;0.3828125;violin
122.769241;0.11346154791667118;79;0.3828125;violin
122.884625625;0.11346154791667118;83;0.3828125;violin
123.00001025;0.11346154791665697;88;0.3828125;violin
123.11539487499999;0.05576923541667611;91;0.3828125;violin
123.2307795;0.11346154791667118;83;0.3828125;violin
123.346164125;0.11346154791667118;88;0.3828125;violin
123.46154875;0.11346154791665697;91;0.3828125;violin
123.576933375;0.05576923541667611;95;0.3828125;violin
123.692318;0.11346154791667118;81;0.3828125;violin
123.807702625;0.11346154791665697;87;0.3828125;violin
123.92308725;0.11346154791667118;90;0.3828125;violin
124.038471875;0.0557692354166619;93;0.3828125;violin
124.1538565;0.11346154791665697;79;0.3828125;violin
124.269241125;0.11346154791667118;83;0.3828125;violin
124.38462575;0.11346154791667118;88;0.3828125;violin
124.500010375;0.0557692354166619;91;0.3828125;violin
124.61539499999999;0.11346154791667118;75;0.3828125;violin
124.730779625;0.11346154791667118;78;0.3828125;violin
124.84616425;0.11346154791667118;83;0.3828125;violin
124.961548875;0.0557692354166619;87;0.3828125;violin
125.0769335;0.11346154791667118;76;0.3828125;violin
125.192318125;0.11346154791667118;79;0.3828125;violin
125.30770275;0.11346154791665697;83;0.3828125;violin
125.423087375;0.05576923541667611;88;0.3828125;violin
125.538472;0.11346154791667118;78;0.3828125;violin
125.653856625;0.11346154791665697;83;0.3828125;violin
125.76924125;0.11346154791667118;87;0.3828125;violin
125.884625875;0.0557692354166619;90;0.3828125;violin
126.0000105;0.45961542291667;70;0.75;violin
126.0000105;0.45961542291667;82;0.75;violin
126.461549;0.4596154229166558;71;0.75;violin
126.461549;0.4596154229166558;83;0.75;violin
127.384626;0.11346154791667118;78;0.3828125;violin
127.500010625;0.11346154791667118;83;0.3828125;violin
127.61539525;0.11346154791665697;87;0.3828125;violin
127.730779875;0.05576923541667611;90;0.3828125;violin
127.8461645;0.11346154791667118;79;0.3828125;violin
127.961549125;0.11346154791667118;83;0.3828125;violin
128.07693375;0.11346154791667118;88;0.3828125;violin
128.192318375;0.05576923541664769;91;0.3828125;violin
128.307703;0.11346154791667118;81;0.3828125;violin
128.423087625;0.11346154791667118;84;0.3828125;violin
128.53847225;0.11346154791664276;90;0.3828125;violin
128.653856875;0.05576923541667611;93;0.3828125;violin
128.7692415;0.11346154791667118;84;0.3828125;violin
128.884626125;0.11346154791664276;90;0.3828125;violin
129.00001075;0.11346154791667118;93;0.3828125;violin
129.115395375;0.05576923541667611;96;0.3828125;violin
129.23078;0.11346154791664276;83;0.3828125;violin
129.346164625;0.11346154791667118;88;0.3828125;violin
129.46154925;0.11346154791667118;91;0.3828125;violin
129.576933875;0.05576923541664769;95;0.3828125;violin
129.6923185;0.11346154791667118;81;0.3828125;violin
129.807703125;0.11346154791667118;84;0.3828125;violin
129.92308775;0.11346154791667118;90;0.3828125;violin
130.038472375;0.05576923541667611;93;0.3828125;violin
130.153857;0.11346154791667118;77;0.3828125;violin
130.269241625;0.11346154791667118;80;0.3828125;violin
130.38462625;0.11346154791667118;83;0.3828125;violin
130.500010875;0.05576923541667611;89;0.3828125;violin
130.6153955;0.11346154791667118;78;0.3828125;violin
130.730780125;0.11346154791667118;81;0.3828125;violin
130.84616474999999;0.11346154791667118;87;0.3828125;violin
130.961549375;0.05576923541664769;90;0.3828125;violin
131.076934;0.11346154791667118;83;0.3828125;violin
131.192318625;0.11346154791664276;88;0.3828125;violin
131.30770325;0.11346154791667118;91;0.3828125;violin
131.423087875;0.05576923541667611;95;0.3828125;violin
131.5384725;0.4596154229166416;75;0.75;violin
131.5384725;0.4596154229166416;87;0.75;violin
132.000011;0.45961542291667;76;0.75;violin
132.000011;0.45961542291667;88;0.75;violin
132.923088;0.11346154791667118;88;0.3828125;violin
133.038472625;0.11346154791667118;91;0.3828125;violin
133.15385725;0.11346154791667118;95;0.3828125;violin
133.269241875;0.05576923541664769;100;0.3828125;violin
133.3846265;0.11346154791667118;86;0.3828125;violin
133.500011125;0.11346154791667118;92;0.3828125;violin
133.61539575;0.11346154791667118;95;0.3828125;violin
133.730780375;0.05576923541667611;98;0.3828125;violin
133.846165;0.11346154791664276;84;0.3828125;violin
133.961549625;0.11346154791667118;88;0.3828125;violin
134.07693425;0.11346154791667118;93;0.3828125;violin
134.192318875;0.05576923541664769;96;0.3828125;violin
134.3077035;0.11346154791667118;80;0.75;violin
134.423088125;0.11346154791667118;83;0.75;violin
134.53847275;0.11346154791664276;88;0.75;violin
134.653857375;0.05576923541667611;92;0.75;violin
134.769242;0.11346154791667118;81;0.75;violin
134.884626625;0.11346154791664276;84;0.75;violin
135.00001125;0.11346154791667118;88;0.75;violin
135.115395875;0.05576923541667611;93;0.75;violin
135.2307805;0.11346154791667118;78;0.75;violin
135.346165125;0.11346154791667118;81;0.75;violin
135.46154975;0.11346154791667118;86;0.75;violin
135.576934375;0.05576923541664769;90;0.75;violin
135.692319;0.11346154791667118;86;0.3828125;violin
135.807703625;0.11346154791667118;90;0.3828125;violin
135.92308825;0.11346154791667118;93;0.3828125;violin
136.038472875;0.05576923541667611;98;0.3828125;violin
136.1538575;0.11346154791667118;84;0.3828125;violin
136.269242125;0.11346154791667118;90;0.3828125;violin
136.38462675;0.11346154791667118;93;0.3828125;violin
136.50001137499999;0.11346154791667118;96;0.3828125;violin
136.615396;0.11346154791667118;83;0.3828125;violin
136.730780625;0.11346154791667118;86;0.3828125;violin
136.84616525;0.11346154791664276;91;0.3828125;violin
136.961549875;0.05576923541667611;95;0.3828125;violin
137.0769345;0.11346154791667118;78;0.75;violin
137.192319125;0.11346154791664276;81;0.75;violin
137.30770375;0.11346154791667118;86;0.75;violin
137.423088375;0.05576923541667611;90;0.75;violin
137.538473;0.11346154791664276;79;0.75;violin
137.653857625;0.11346154791667118;83;0.75;violin
137.76924225;0.11346154791667118;86;0.75;violin
137.884626875;0.05576923541664769;91;0.75;violin
138.0000115;0.11346154791667118;76;0.75;violin
138.115396125;0.11346154791667118;79;0.75;violin
138.23078075;0.11346154791667118;84;0.75;violin
138.346165375;0.05576923541667611;88;0.75;violin
138.46155;0.11346154791667118;84;0.3828125;violin
138.576934625;0.11346154791667118;88;0.3828125;violin
138.69231925;0.11346154791667118;91;0.3828125;violin
138.807703875;0.05576923541667611;96;0.3828125;violin
138.9230885;0.11346154791667118;83;0.3828125;violin
139.038473125;0.11346154791667118;88;0.3828125;violin
139.15385775;0.11346154791667118;91;0.3828125;violin
139.269242375;0.05576923541664769;95;0.3828125;violin
139.384627;0.11346154791667118;81;0.3828125;violin
139.500011625;0.11346154791664276;84;0.3828125;violin
139.61539625;0.11346154791667118;90;0.3828125;violin
139.730780875;0.05576923541667611;93;0.3828125;violin
139.8461655;0.11346154791664276;57;0.75;violin
139.961550125;0.11346154791667118;60;0.75;violin
140.07693475;0.11346154791667118;64;0.75;violin
140.192319375;0.05576923541664769;69;0.75;violin
140.307704;0.11346154791667118;58;0.75;violin
140.423088625;0.11346154791667118;61;0.75;violin
140.53847325;0.11346154791664276;64;0.75;violin
140.653857875;0.05576923541667611;67;0.75;violin
140.7692425;0.11346154791667118;59;0.75;violin
140.884627125;0.11346154791667118;64;0.75;violin
141.00001175;0.11346154791667118;67;0.75;violin
141.115396375;0.05576923541667611;71;0.75;violin
141.230781;0.11346154791667118;83;0.75;violin
141.346165625;0.11346154791667118;88;0.75;violin
141.46155025;0.11346154791667118;91;0.75;violin
141.576934875;0.05576923541664769;95;0.75;violin
141.6923195;0.11346154791667118;59;0.75;violin
141.807704125;0.11346154791667118;63;0.75;violin
141.92308875;0.11346154791667118;66;0.75;violin
142.038473375;0.05576923541667611;71;0.75;violin
142.15385799999999;0.11346154791667118;64;0.75;violin
142.269242625;0.11346154791667118;95;0.75;violin
142.38462725;0.11346154791667118;91;0.75;violin
142.500011875;0.11346154791664276;88;0.75;violin
142.6153965;0.11346154791667118;83;0.75;violin
142.730781125;0.11346154791667118;88;0.75;violin
142.84616575;0.11346154791664276;83;0.75;violin
142.961550375;0.11346154791667118;79;0.75;violin
143.076935;0.11346154791667118;76;0.75;violin
143.192319625;0.11346154791664276;83;0.75;violin
143.30770425;0.11346154791667118;79;0.75;violin
143.423088875;0.11346154791667118;76;0.75;violin
143.5384735;0.45961542291667;71;0.75;violin
144.000012;0.45961542291667;82;0.75;violin
144.000012;0.45961542291667;94;0.75;violin
144.4615505;0.45961542291667;83;0.75;violin
144.4615505;0.45961542291667;95;0.75;violin
144.923089;0.11346154791667118;64;0.75;violin
145.038473625;0.11346154791667118;83;0.75;violin
145.15385825;0.11346154791664276;79;0.75;violin
145.269242875;0.11346154791667118;75;0.75;violin
145.3846275;0.11346154791667118;76;0.75;violin
145.500012125;0.11346154791664276;83;0.75;violin
145.61539675;0.11346154791667118;79;0.75;violin
145.730781375;0.11346154791667118;88;0.75;violin
145.846166;0.11346154791664276;83;0.75;violin
145.961550625;0.11346154791667118;91;0.75;violin
146.07693525;0.11346154791667118;87;0.75;violin
146.192319875;0.11346154791664276;88;0.75;violin
146.3077045;0.45961542291667;95;0.75;violin
146.769243;0.45961542291667;58;0.75;violin
146.769243;0.45961542291667;70;0.75;violin
147.2307815;0.45961542291667;59;0.75;violin
147.2307815;0.45961542291667;71;0.75;violin
147.69232;0.45961542291667;64;0.75;violin
147.69232;0.45961542291667;71;0.75;violin
147.69232;0.45961542291667;76;0.75;violin
148.1538585;0.4596154229166416;64;0.75;violin
148.1538585;0.4596154229166416;71;0.75;violin
148.1538585;0.4596154229166416;79;0.75;violin
148.615397;0.45961542291667;64;0.75;violin
148.615397;0.45961542291667;71;0.75;violin
148.615397;0.45961542291667;83;0.75;violin
149.0769355;0.9211539229166874;64;0.75;violin
149.0769355;0.9211539229166874;71;0.75;violin
149.0769355;0.9211539229166874;76;0.75;violin
