start;duration;pitch;velocity;instrument
0.0;0.12395833333333334;63;0.625;violin
0.125;1.9979166666666668;63;0.625;violin
3.372916666666667;0.12395833333333339;63;0.625;violin
3.372916666666667;0.12395833333333339;66;0.625;violin
3.497916666666667;1.9979166666666668;63;0.625;violin
3.497916666666667;1.9979166666666668;66;0.625;violin
6.745833333333334;0.12395833333333339;63;0.625;violin
6.745833333333334;0.12395833333333339;66;0.625;violin
6.745833333333334;0.12395833333333339;69;0.625;violin
6.870833333333334;0.4989583333333334;63;0.625;violin
6.870833333333334;0.4989583333333334;66;0.625;violin
6.870833333333334;0.4989583333333334;69;0.625;violin
7.370833333333334;0.4989583333333334;63;0.625;violin
7.370833333333334;0.4989583333333334;66;0.625;violin
7.370833333333334;0.4989583333333334;69;0.625;violin
7.870833333333334;0.4989583333333343;63;0.625;violin
7.870833333333334;0.4989583333333343;65;0.625;violin
7.870833333333334;0.4989583333333343;69;0.625;violin
8.370833333333334;0.4989583333333343;60;0.625;violin
8.370833333333334;0.4989583333333343;65;0.625;violin
8.370833333333334;0.4989583333333343;69;0.625;violin
8.870833333333334;1.9979166666666668;58;0.625;violin
8.870833333333334;1.9979166666666668;62;0.625;violin
8.870833333333334;1.9979166666666668;70;0.625;violin
10.869791666666668;0.2489583333333325;74;0.9375;violin
11.119791666666668;0.2489583333333325;70;0.625;violin
11.369791666666668;0.2489583333333325;77;0.9375;violin
11.619791666666668;0.2489583333333325;74;0.625;violin
11.869791666666668;0.2489583333333325;82;0.9375;violin
12.119791666666668;0.2489583333333325;77;0.625;violin
12.369791666666668;0.2489583333333325;86;0.9375;violin
12.619791666666668;0.2489583333333325;82;0.625;violin
12.869791666666668;1.9979166666666668;89;0.625;violin
14.868750000000002;0.07375000000000043;86;0.625;violin
14.943750000000001;0.07375000000000043;84;0.625;violin
15.018750000000002;0.07375000000000043;87;0.625;violin
15.093750000000002;0.07375000000000043;86;0.625;violin
15.168750000000003;0.07374999999999865;82;0.625;violin
15.243750000000002;0.07375000000000043;81;0.625;violin
15.318750000000001;0.07375000000000043;84;0.625;violin
15.393750000000002;0.07375000000000043;82;0.625;violin
15.468750000000002;0.07375000000000043;79;0.625;violin
15.543750000000003;0.07374999999999865;77;0.625;violin
15.618750000000002;0.07375000000000043;81;0.625;violin
15.693750000000001;0.07375000000000043;79;0.625;violin
15.768750000000002;0.07375000000000043;75;0.625;violin
15.843750000000002;0.07375000000000043;74;0.625;violin
15.918750000000003;0.07374999999999865;77;0.625;violin
15.993750000000002;0.07375000000000043;75;0.625;violin
16.06875;0.05874999999999986;72;0.625;violin
16.128750000000004;0.05874999999999986;70;0.625;violin
16.188750000000002;0.05874999999999986;74;0.625;violin
16.24875;0.05874999999999986;72;0.625;violin
16.308750000000003;0.05874999999999986;69;0.625;violin
16.368750000000002;0.07000000000000028;70;0.625;violin
16.441250000000004;0.06999999999999673;72;0.625;violin
16.516250000000003;0.07000000000000028;70;0.625;violin
16.591250000000002;0.07000000000000028;72;0.625;violin
16.668750000000003;0.07000000000000028;70;0.625;violin
16.74125;0.07000000000000028;72;0.625;violin
16.816250000000004;0.06999999999999673;70;0.625;violin
16.891250000000003;0.07000000000000028;72;0.625;violin
16.968750000000004;0.07000000000000028;70;0.625;violin
17.04125;0.07000000000000028;72;0.625;violin
17.11625;0.07000000000000028;70;0.625;violin
17.191250000000004;0.07000000000000028;72;0.625;violin
17.26875;0.07000000000000028;70;0.625;violin
17.341250000000002;0.07000000000000028;72;0.625;violin
17.41625;0.07000000000000028;70;0.625;violin
17.49125;0.07000000000000028;72;0.625;violin
17.56875;0.07000000000000028;70;0.625;violin
17.641250000000003;0.07000000000000028;72;0.625;violin
17.716250000000002;0.07000000000000028;70;0.625;violin
17.79125;0.07000000000000028;72;0.625;violin
17.868750000000002;0.07000000000000028;70;0.625;violin
17.941250000000004;0.07000000000000028;72;0.625;violin
18.016250000000003;0.07000000000000028;70;0.625;violin
18.091250000000002;0.07000000000000028;72;0.625;violin
18.168750000000003;0.07000000000000028;70;0.625;violin
18.24125;0.07000000000000028;72;0.625;violin
18.316250000000004;0.07000000000000028;70;0.625;violin
18.391250000000003;0.07000000000000028;72;0.625;violin
18.468750000000004;0.06999999999999673;70;0.625;violin
18.54125;0.07000000000000028;72;0.625;violin
18.61625;0.07000000000000028;69;0.625;violin
18.691250000000004;0.07000000000000028;70;0.625;violin
18.767500000000002;0.14874999999999972;82;0.625;violin
19.067500000000003;0.14874999999999972;94;0.625;violin
19.367500000000003;1.1987500000000004;58;0.625;violin
24.16625;0.08143940208333333;81;0.9375;violin
24.249583341666668;0.08143940208333333;82;0.625;violin
24.33102274375;0.08143940208333333;87;0.625;violin
24.414356085416667;0.08143940208333333;84;0.625;violin
24.497689427083333;0.08143940208333333;82;0.625;violin
24.579128829166667;0.08143940208333333;80;0.625;violin
24.662462170833336;0.08143940208333333;79;0.625;violin
24.74390157291667;0.08143940208333333;77;0.625;violin
24.827234914583336;0.08143940208333333;75;0.625;violin
24.910568256250002;0.08143940208333333;74;0.625;violin
24.992007658333335;0.08143940208333333;72;0.625;violin
25.075341;0.22537881041666807;70;0.625;violin
25.5298865;0.22537881041666807;55;0.625;violin
25.5298865;0.22537881041666807;63;0.625;violin
25.984432;0.22537881041666807;56;0.625;violin
25.984432;0.22537881041666807;65;0.625;violin
26.4389775;0.22537881041666807;57;0.625;violin
26.4389775;0.22537881041666807;66;0.625;violin
26.893523000000002;0.45265156041666543;58;0.9375;violin
26.893523000000002;0.45265156041666543;67;0.9375;violin
27.3480685;0.452651560416669;55;0.625;violin
27.3480685;0.452651560416669;63;0.625;violin
27.802614000000002;0.06818182499999992;82;0.9375;violin
27.872689764583335;0.06818182499999992;91;0.625;violin
27.942765529166667;0.06818182499999992;89;0.625;violin
28.01284129375;0.06818182499999992;87;0.625;violin
28.082917058333337;0.06818182499999992;86;0.625;violin
28.15299282291667;0.06818182499999992;84;0.625;violin
28.223068587500002;0.06818182499999992;82;0.625;violin
28.291250412500002;0.06818182499999992;80;0.625;violin
28.361326177083335;0.06818182499999992;79;0.625;violin
28.431401941666667;0.06818182499999992;77;0.625;violin
28.50147770625;0.06818182500000347;75;0.625;violin
28.571553470833337;0.06818182499999637;74;0.625;violin
28.64162923541667;0.06818182499999992;72;0.625;violin
28.711705000000002;0.22537881041666452;70;0.625;violin
29.1662505;0.22537881041666807;55;0.625;violin
29.1662505;0.22537881041666807;63;0.625;violin
29.620796000000002;0.22537881041666807;56;0.625;violin
29.620796000000002;0.22537881041666807;65;0.625;violin
30.0753415;0.22537881041666807;58;0.625;violin
30.0753415;0.22537881041666807;67;0.625;violin
30.529887000000002;0.9071970604166673;55;0.625;violin
30.529887000000002;0.9071970604166673;63;0.625;violin
31.438978000000002;0.08143940208333333;81;0.9375;violin
31.52231134166667;0.08143940208333333;82;0.625;violin
31.603750743750002;0.08143940208333333;87;0.625;violin
31.687084085416668;0.08143940208333333;84;0.625;violin
31.770417427083334;0.08143940208333333;82;0.625;violin
31.851856829166667;0.08143940208333333;80;0.625;violin
31.935190170833334;0.08143940208333689;79;0.625;violin
32.01662957291667;0.08143940208333333;77;0.625;violin
32.09996291458334;0.08143940208333333;75;0.625;violin
32.18329625625;0.08143940208333333;74;0.625;violin
32.264735658333336;0.08143940208333333;72;0.625;violin
32.348069;0.22537881041666452;70;0.625;violin
32.802614500000004;0.22537881041666452;55;0.625;violin
32.802614500000004;0.22537881041666452;63;0.625;violin
33.25716;0.22537881041667163;56;0.625;violin
33.25716;0.22537881041667163;65;0.625;violin
33.7117055;0.22537881041666452;57;0.625;violin
33.7117055;0.22537881041666452;66;0.625;violin
34.166251;0.452651560416669;58;0.9375;violin
34.166251;0.452651560416669;67;0.9375;violin
34.6207965;0.452651560416669;55;0.625;violin
34.6207965;0.452651560416669;63;0.625;violin
35.075342;0.06818182500000347;82;0.9375;violin
35.145417764583335;0.06818182500000347;91;0.625;violin
35.215493529166665;0.06818182500000347;89;0.625;violin
35.28556929375;0.06818182499999637;87;0.625;violin
35.35564505833334;0.06818182499999637;86;0.625;violin
35.42572082291667;0.06818182500000347;84;0.625;violin
35.4957965875;0.06818182499999637;82;0.625;violin
35.5639784125;0.06818182500000347;80;0.625;violin
35.634054177083335;0.06818182500000347;79;0.625;violin
35.704129941666665;0.06818182500000347;77;0.625;violin
35.77420570625;0.06818182499999637;75;0.625;violin
35.84428147083334;0.06818182499999637;74;0.625;violin
35.91435723541667;0.06818182500000347;72;0.625;violin
35.984433;0.22537881041666452;70;0.625;violin
36.438978500000005;0.22537881041666452;55;0.625;violin
36.438978500000005;0.22537881041666452;63;0.625;violin
36.893524;0.22537881041667163;56;0.625;violin
36.893524;0.22537881041667163;65;0.625;violin
37.3480695;0.22537881041666452;58;0.625;violin
37.3480695;0.22537881041666452;67;0.625;violin
37.802615;0.9071970604166637;55;0.625;violin
37.802615;0.9071970604166637;63;0.625;violin
38.711706;0.07386364375000198;82;0.9375;violin
38.787463583333334;0.07386364375000198;81;0.625;violin
38.86322116666667;0.07386364374999488;80;0.625;violin
38.938978750000004;0.07386364374999488;79;0.625;violin
39.01473633333333;0.07386364375000198;78;0.625;violin
39.09049391666667;0.07386364375000198;77;0.625;violin
39.1662515;0.07386364375000198;76;0.625;violin
39.242009083333336;0.07386364374999488;75;0.625;violin
39.31776666666667;0.07386364374999488;74;0.625;violin
39.39352425;0.07386364375000198;73;0.625;violin
39.46928183333333;0.07386364375000198;72;0.625;violin
39.54503941666667;0.07386364375000198;71;0.625;violin
39.620797;0.22537881041666452;70;0.625;violin
40.075342500000005;0.22537881041666452;58;0.625;violin
40.075342500000005;0.22537881041666452;62;0.625;violin
40.529888;0.22537881041667163;60;0.625;violin
40.529888;0.22537881041667163;63;0.625;violin
40.9844335;0.22537881041666452;61;0.625;violin
40.9844335;0.22537881041666452;64;0.625;violin
41.438979;0.452651560416669;62;0.9375;violin
41.438979;0.452651560416669;65;0.9375;violin
41.8935245;0.452651560416669;58;0.625;violin
41.8935245;0.452651560416669;62;0.625;violin
42.34807;0.06818182500000347;70;0.9375;violin
42.418145764583336;0.06818182500000347;72;0.625;violin
42.488221529166665;0.06818182500000347;74;0.625;violin
42.55829729375;0.06818182499999637;75;0.625;violin
42.62837305833334;0.06818182499999637;77;0.625;violin
42.69844882291667;0.06818182500000347;79;0.625;violin
42.768524587499996;0.06818182500000347;81;0.625;violin
42.8367064125;0.06818182500000347;82;0.625;violin
42.906782177083336;0.06818182500000347;84;0.625;violin
42.976857941666665;0.06818182500000347;86;0.625;violin
43.04693370625;0.06818182499999637;87;0.625;violin
43.11700947083334;0.06818182499999637;89;0.625;violin
43.18708523541667;0.06818182500000347;91;0.625;violin
43.257160999999996;0.22537881041667163;89;0.625;violin
43.711706500000005;0.22537881041666452;58;0.625;violin
43.711706500000005;0.22537881041666452;62;0.625;violin
44.166252;0.22537881041667163;60;0.625;violin
44.166252;0.22537881041667163;63;0.625;violin
44.6207975;0.22537881041666452;62;0.625;violin
44.6207975;0.22537881041666452;65;0.625;violin
45.075343000000004;0.9071970604166637;58;0.9375;violin
45.075343000000004;0.9071970604166637;62;0.9375;violin
45.984434;0.07386364375000198;82;0.9375;violin
46.060191583333335;0.07386364375000198;81;0.625;violin
46.13594916666667;0.07386364374999488;80;0.625;violin
46.211706750000005;0.07386364375000198;79;0.625;violin
46.28746433333333;0.07386364375000198;78;0.625;violin
46.36322191666667;0.07386364375000198;77;0.625;violin
46.4389795;0.07386364375000198;76;0.625;violin
46.51473708333333;0.07386364375000198;75;0.625;violin
46.59049466666667;0.07386364374999488;74;0.625;violin
46.66625225;0.07386364375000198;73;0.625;violin
46.742009833333334;0.07386364375000198;72;0.625;violin
46.81776741666667;0.07386364375000198;71;0.625;violin
46.893525;0.22537881041667163;70;0.625;violin
47.348070500000006;0.22537881041665742;58;0.625;violin
47.348070500000006;0.22537881041665742;62;0.625;violin
47.802616;0.22537881041667163;60;0.625;violin
47.802616;0.22537881041667163;63;0.625;violin
48.2571615;0.22537881041666452;61;0.625;violin
48.2571615;0.22537881041666452;64;0.625;violin
48.711707000000004;0.452651560416669;62;0.9375;violin
48.711707000000004;0.452651560416669;65;0.9375;violin
49.1662525;0.452651560416669;58;0.625;violin
49.1662525;0.452651560416669;62;0.625;violin
49.620798;0.06818182500000347;70;0.9375;violin
49.69087376458333;0.06818182500000347;72;0.625;violin
49.760949529166666;0.06818182500000347;74;0.625;violin
49.83102529375;0.06818182499999637;75;0.625;violin
49.90110105833334;0.06818182499999637;77;0.625;violin
49.97117682291667;0.06818182500000347;79;0.625;violin
50.0412525875;0.06818182500000347;81;0.625;violin
50.1094344125;0.06818182500000347;82;0.625;violin
50.17951017708333;0.06818182500000347;84;0.625;violin
50.249585941666666;0.06818182500000347;86;0.625;violin
50.31966170625;0.06818182499999637;87;0.625;violin
50.38973747083334;0.06818182499999637;89;0.625;violin
50.45981323541667;0.06818182500000347;91;0.625;violin
50.529889;0.22537881041667163;89;0.625;violin
50.984434500000006;0.22537881041665742;58;0.625;violin
50.984434500000006;0.22537881041665742;62;0.625;violin
51.43898;0.22537881041667163;60;0.625;violin
51.43898;0.22537881041667163;63;0.625;violin
51.8935255;0.22537881041666452;62;0.625;violin
51.8935255;0.22537881041666452;65;0.625;violin
52.348071000000004;0.9071970604166637;58;0.9375;violin
52.348071000000004;0.9071970604166637;62;0.9375;violin
53.257162;0.08901516041667179;82;0.9375;violin
53.3480711;0.08901516041666468;81;0.625;violin
53.4389802;0.08901516041666468;80;0.625;violin
53.5298893;0.08901516041667179;79;0.625;violin
53.6207984;0.08901516041666468;78;0.625;violin
53.7117075;0.08901516041666468;77;0.625;violin
53.8026166;0.08901516041667179;76;0.625;violin
53.8935257;0.08901516041667179;75;0.625;violin
53.9844348;0.08901516041666468;74;0.625;violin
54.0753439;0.08901516041667179;73;0.625;violin
54.166253;0.22537881041667163;72;0.625;violin
54.62079850000001;0.22537881041665742;60;0.625;violin
54.62079850000001;0.22537881041665742;64;0.625;violin
55.075344;0.22537881041667163;61;0.625;violin
55.075344;0.22537881041667163;65;0.625;violin
55.5298895;0.22537881041666452;59;0.625;violin
55.5298895;0.22537881041666452;68;0.625;violin
55.984435000000005;0.452651560416669;60;0.9375;violin
55.984435000000005;0.452651560416669;67;0.9375;violin
56.4389805;0.452651560416669;64;0.625;violin
56.89352600000001;0.08901516041666468;82;0.9375;violin
56.9844351;0.08901516041666468;81;0.625;violin
57.0753442;0.08901516041666468;80;0.625;violin
57.16625330000001;0.08901516041666468;79;0.625;violin
57.2571624;0.08901516041666468;78;0.625;violin
57.3480715;0.08901516041666468;77;0.625;violin
57.43898060000001;0.08901516041666468;76;0.625;violin
57.5298897;0.08901516041666468;75;0.625;violin
57.6207988;0.08901516041666468;74;0.625;violin
57.71170790000001;0.08901516041666468;73;0.625;violin
57.802617;0.22537881041667163;72;0.625;violin
58.25716250000001;0.22537881041665742;60;0.625;violin
58.25716250000001;0.22537881041665742;64;0.625;violin
58.711708;0.22537881041667163;61;0.625;violin
58.711708;0.22537881041667163;65;0.625;violin
59.166253499999996;0.22537881041667163;59;0.625;violin
59.166253499999996;0.22537881041667163;68;0.625;violin
59.620799000000005;0.452651560416669;60;0.9375;violin
59.620799000000005;0.452651560416669;67;0.9375;violin
60.0753445;0.452651560416669;64;0.625;violin
60.529889999999995;0.0890151604166789;80;0.625;violin
60.6207991;0.08901516041666468;79;0.625;violin
60.711708200000004;0.08901516041666468;78;0.625;violin
60.802617299999994;0.0890151604166789;77;0.625;violin
60.8935264;0.08901516041666468;76;0.625;violin
60.984435500000004;0.08901516041666468;75;0.625;violin
61.07534460000001;0.08901516041666468;74;0.625;violin
61.1662537;0.08901516041666468;73;0.625;violin
61.2571628;0.08901516041666468;72;0.625;violin
61.34807190000001;0.08901516041666468;71;0.625;violin
61.438981;0.22537881041667163;70;0.625;violin
61.89352650000001;0.22537881041665742;58;0.625;violin
61.89352650000001;0.22537881041665742;62;0.625;violin
62.348072;0.22537881041667163;59;0.625;violin
62.348072;0.22537881041667163;63;0.625;violin
62.8026175;0.22537881041667163;57;0.625;violin
62.8026175;0.22537881041667163;66;0.625;violin
63.257163000000006;0.452651560416669;58;0.9375;violin
63.257163000000006;0.452651560416669;65;0.9375;violin
63.7117085;0.452651560416669;62;0.625;violin
64.166254;0.0890151604166789;80;0.625;violin
64.2571631;0.08901516041666468;79;0.625;violin
64.3480722;0.08901516041666468;78;0.625;violin
64.4389813;0.0890151604166789;77;0.625;violin
64.5298904;0.08901516041666468;76;0.625;violin
64.6207995;0.08901516041666468;75;0.625;violin
64.7117086;0.0890151604166789;74;0.625;violin
64.8026177;0.08901516041666468;73;0.625;violin
64.8935268;0.08901516041666468;72;0.625;violin
64.98443590000001;0.08901516041666468;71;0.625;violin
65.075345;0.22537881041667163;70;0.625;violin
65.52989050000001;0.22537881041665742;58;0.625;violin
65.52989050000001;0.22537881041665742;62;0.625;violin
65.984436;0.22537881041667163;59;0.625;violin
65.984436;0.22537881041667163;63;0.625;violin
66.4389815;0.22537881041667163;57;0.625;violin
66.4389815;0.22537881041667163;66;0.625;violin
66.893527;0.452651560416669;58;0.9375;violin
66.893527;0.452651560416669;65;0.9375;violin
67.3480725;0.452651560416669;62;0.625;violin
67.802618;0.11174243541667295;75;0.9375;violin
67.91625437500001;0.11174243541665874;74;0.625;violin
68.02989075;0.11174243541665874;73;0.625;violin
68.143527125;0.11174243541665874;72;0.625;violin
68.2571635;0.11174243541665874;71;0.625;violin
68.370799875;0.11174243541665874;70;0.625;violin
68.48443625;0.11174243541667295;67;0.625;violin
68.598072625;0.11174243541667295;63;0.625;violin
68.711709;0.11174243541667295;75;0.9375;violin
68.825345375;0.11174243541667295;74;0.625;violin
68.93898175;0.11174243541667295;73;0.625;violin
69.052618125;0.11174243541667295;72;0.625;violin
69.16625450000001;0.11174243541665874;71;0.625;violin
69.279890875;0.11174243541665874;70;0.625;violin
69.39352725;0.11174243541665874;68;0.625;violin
69.507163625;0.11174243541665874;65;0.625;violin
69.6208;0.11174243541665874;75;0.9375;violin
69.734436375;0.11174243541667295;74;0.625;violin
69.84807275;0.11174243541667295;73;0.625;violin
69.961709125;0.11174243541667295;72;0.625;violin
70.0753455;0.11174243541667295;71;0.625;violin
70.188981875;0.11174243541667295;70;0.625;violin
70.30261825;0.11174243541667295;68;0.625;violin
70.41625462500001;0.11174243541665874;67;0.625;violin
70.529891;0.11174243541665874;75;0.625;violin
70.643527375;0.11174243541665874;74;0.625;violin
70.75716375;0.11174243541665874;73;0.625;violin
70.870800125;0.11174243541665874;72;0.625;violin
70.9844365;0.11174243541667295;71;0.625;violin
71.098072875;0.11174243541667295;70;0.625;violin
71.21170925;0.11174243541667295;69;0.625;violin
71.325345625;0.11174243541667295;68;0.625;violin
71.438982;0.11174243541667295;75;0.625;violin
71.552618375;0.11174243541667295;74;0.625;violin
71.66625475000001;0.11174243541665874;73;0.625;violin
71.779891125;0.11174243541665874;72;0.625;violin
71.8935275;0.11174243541665874;71;0.625;violin
72.007163875;0.11174243541665874;70;0.625;violin
72.12080025;0.11174243541667295;69;0.625;violin
72.234436625;0.11174243541667295;72;0.625;violin
72.348073;0.11174243541667295;75;0.625;violin
72.461709375;0.11174243541667295;77;0.625;violin
72.57534575;0.11174243541667295;81;0.625;violin
72.688982125;0.11174243541667295;84;0.625;violin
72.80261850000001;0.11174243541665874;81;0.625;violin
72.916254875;0.11174243541665874;87;0.625;violin
73.02989125;0.11174243541665874;84;0.625;violin
73.143527625;0.11174243541665874;90;0.625;violin
73.257164;0.11174243541665874;87;0.625;violin
73.370800375;0.11174243541667295;84;0.625;violin
73.48443675;0.11174243541667295;81;0.625;violin
73.598073125;0.11174243541667295;78;0.625;violin
73.7117095;0.11174243541667295;75;0.625;violin
73.825345875;0.11174243541667295;72;0.625;violin
73.93898225;0.11174243541667295;69;0.625;violin
74.05261862500001;0.11174243541665874;72;0.625;violin
74.166255;0.22537881041665742;70;0.625;violin
74.6208005;0.22537881041667163;58;0.625;violin
74.6208005;0.22537881041667163;70;0.625;violin
75.075346;0.07386364375000198;82;0.625;violin
75.15110358333334;0.07386364375000198;81;0.625;violin
75.22686116666667;0.07386364375000198;80;0.625;violin
75.30261875000001;0.07386364374998777;79;0.625;violin
75.37837633333334;0.07386364375000198;78;0.625;violin
75.45413391666666;0.07386364375000198;77;0.625;violin
75.5298915;0.07386364375000198;76;0.625;violin
75.60564908333333;0.07386364375000198;75;0.625;violin
75.68140666666667;0.07386364374998777;74;0.625;violin
75.75716425;0.07386364375000198;73;0.625;violin
75.83292183333333;0.07386364375000198;72;0.625;violin
75.90867941666667;0.07386364375000198;71;0.625;violin
75.984437;0.22537881041667163;70;0.625;violin
76.4389825;0.22537881041667163;58;0.625;violin
76.4389825;0.22537881041667163;70;0.625;violin
76.893528;0.07386364375000198;86;0.625;violin
76.96928558333333;0.07386364375000198;85;0.625;violin
77.04504316666667;0.07386364375000198;84;0.625;violin
77.12080075;0.07386364375000198;83;0.625;violin
77.19655833333333;0.07386364375000198;82;0.625;violin
77.27231591666667;0.07386364375000198;81;0.625;violin
77.3480735;0.07386364375000198;80;0.625;violin
77.42383108333334;0.07386364374998777;79;0.625;violin
77.49958866666667;0.07386364375000198;78;0.625;violin
77.57534625;0.07386364375000198;77;0.625;violin
77.65110383333334;0.07386364375000198;76;0.625;violin
77.72686141666667;0.07386364375000198;75;0.625;violin
77.802619;0.22537881041665742;74;0.625;violin
78.2571645;0.22537881041667163;58;0.625;violin
78.2571645;0.22537881041667163;70;0.625;violin
78.71171;0.07196970416667625;89;0.625;violin
78.78557364375;0.07196970416667625;88;0.625;violin
78.8594372875;0.07196970416666204;87;0.625;violin
78.93330093125;0.07196970416666204;86;0.625;violin
79.007164575;0.07196970416666204;85;0.625;violin
79.08102821875;0.07196970416666204;84;0.625;violin
79.15489186250001;0.07196970416666204;83;0.625;violin
79.22686156666667;0.07196970416666204;82;0.625;violin
79.30072521041667;0.07196970416666204;81;0.625;violin
79.37458885416667;0.07196970416666204;80;0.625;violin
79.44845249791666;0.07196970416667625;79;0.625;violin
79.52231614166666;0.07196970416667625;78;0.625;violin
79.59617978541667;0.07196970416666204;77;0.625;violin
79.67004342916667;0.07196970416666204;76;0.625;violin
79.74390707291667;0.07196970416666204;75;0.625;violin
79.81777071666667;0.07196970416666204;74;0.625;violin
79.89163436041667;0.07196970416666204;73;0.625;violin
79.96549800416666;0.07196970416667625;72;0.625;violin
80.03936164791666;0.07196970416667625;71;0.625;violin
80.11133135208334;0.07196970416666204;70;0.625;violin
80.18519499583333;0.07196970416667625;69;0.625;violin
80.25905863958333;0.07196970416667625;68;0.625;violin
80.33292228333333;0.07196970416667625;67;0.625;violin
80.40678592708333;0.07196970416666204;66;0.625;violin
80.48064957083334;0.07196970416666204;65;0.625;violin
80.55451321458334;0.07196970416666204;64;0.625;violin
80.62837685833334;0.07196970416666204;63;0.625;violin
80.70224050208334;0.07196970416666204;62;0.625;violin
80.77610414583333;0.07196970416667625;61;0.625;violin
80.84996778958333;0.07196970416667625;60;0.625;violin
80.92383143333333;0.07196970416666204;59;0.625;violin
80.9958011375;0.07196970416667625;58;0.625;violin
81.06966478125;0.07196970416667625;57;0.625;violin
81.143528425;0.07196970416666204;60;0.625;violin
81.21739206875;0.07196970416666204;63;0.625;violin
81.2912557125;0.07196970416666204;66;0.625;violin
81.36511935625;0.07196970416666204;57;0.625;violin
81.43898300000001;0.08901516041666468;58;0.625;violin
81.5298921;0.08901516041666468;62;0.625;violin
81.6208012;0.08901516041666468;65;0.625;violin
81.71171030000001;0.08901516041666468;68;0.625;violin
81.8026194;0.08901516041666468;69;0.625;violin
81.8935285;0.08901516041666468;70;0.625;violin
81.9844376;0.08901516041666468;74;0.625;violin
82.0753467;0.08901516041666468;77;0.625;violin
82.1662558;0.08901516041666468;80;0.625;violin
82.2571649;0.08901516041666468;81;0.625;violin
82.348074;0.08901516041666468;82;0.625;violin
82.4389831;0.08901516041666468;87;0.625;violin
82.5298922;0.08901516041666468;84;0.625;violin
82.6208013;0.08901516041666468;82;0.625;violin
82.7117104;0.08901516041666468;80;0.625;violin
82.8026195;0.08901516041666468;79;0.625;violin
82.8935286;0.08901516041666468;77;0.625;violin
82.9844377;0.08901516041666468;75;0.625;violin
83.0753468;0.08901516041666468;74;0.625;violin
83.1662559;0.0890151604166789;72;0.625;violin
83.257165;0.22537881041667163;70;0.625;violin
83.7117105;0.22537881041667163;55;0.625;violin
83.7117105;0.22537881041667163;63;0.625;violin
84.166256;0.22537881041665742;56;0.625;violin
84.166256;0.22537881041665742;65;0.625;violin
84.6208015;0.22537881041667163;57;0.625;violin
84.6208015;0.22537881041667163;66;0.625;violin
85.07534700000001;0.4526515604166548;58;0.9375;violin
85.07534700000001;0.4526515604166548;67;0.9375;violin
85.5298925;0.452651560416669;55;0.625;violin
85.5298925;0.452651560416669;63;0.625;violin
85.984438;0.06818182500001058;82;0.9375;violin
86.05451376458333;0.06818182499999637;91;0.625;violin
86.12458952916667;0.06818182499999637;89;0.625;violin
86.19466529375;0.06818182499999637;87;0.625;violin
86.26474105833333;0.06818182500001058;86;0.625;violin
86.33481682291666;0.06818182499999637;84;0.625;violin
86.4048925875;0.06818182499999637;82;0.625;violin
86.4730744125;0.06818182500001058;80;0.625;violin
86.54315017708333;0.06818182499999637;79;0.625;violin
86.61322594166667;0.06818182499999637;77;0.625;violin
86.68330170625;0.06818182499999637;75;0.625;violin
86.75337747083333;0.06818182500001058;74;0.625;violin
86.82345323541666;0.06818182499999637;72;0.625;violin
86.893529;0.22537881041667163;70;0.625;violin
87.3480745;0.22537881041667163;55;0.625;violin
87.3480745;0.22537881041667163;63;0.625;violin
87.80262;0.22537881041665742;56;0.625;violin
87.80262;0.22537881041665742;65;0.625;violin
88.2571655;0.22537881041667163;58;0.625;violin
88.2571655;0.22537881041667163;67;0.625;violin
88.71171100000001;0.9071970604166637;55;0.9375;violin
88.71171100000001;0.9071970604166637;63;0.9375;violin
89.62080200000001;0.08143940208333333;81;0.9375;violin
89.70413534166667;0.08143940208333333;82;0.625;violin
89.78557474375;0.08143940208333333;87;0.625;violin
89.86890808541668;0.08143940208333333;84;0.625;violin
89.95224142708334;0.08143940208333333;82;0.625;violin
90.03368082916667;0.08143940208333333;80;0.625;violin
90.11701417083334;0.08143940208333333;79;0.625;violin
90.19845357291668;0.08143940208333333;77;0.625;violin
90.28178691458334;0.08143940208333333;75;0.625;violin
90.36512025625001;0.08143940208333333;74;0.625;violin
90.44655965833334;0.08143940208333333;72;0.625;violin
90.529893;0.22537881041667163;70;0.625;violin
90.98443850000001;0.22537881041665742;55;0.625;violin
90.98443850000001;0.22537881041665742;63;0.625;violin
91.438984;0.22537881041667163;56;0.625;violin
91.438984;0.22537881041667163;65;0.625;violin
91.8935295;0.22537881041667163;57;0.625;violin
91.8935295;0.22537881041667163;66;0.625;violin
92.34807500000001;0.452651560416669;58;0.9375;violin
92.34807500000001;0.452651560416669;67;0.9375;violin
92.8026205;0.452651560416669;55;0.625;violin
92.8026205;0.452651560416669;63;0.625;violin
93.257166;0.06818182500001058;82;0.9375;violin
93.32724176458333;0.06818182500001058;91;0.625;violin
93.39731752916667;0.06818182499999637;89;0.625;violin
93.46739329375;0.06818182499999637;87;0.625;violin
93.53746905833334;0.06818182499999637;86;0.625;violin
93.60754482291667;0.06818182500001058;84;0.625;violin
93.6776205875;0.06818182499999637;82;0.625;violin
93.7458024125;0.06818182500001058;80;0.625;violin
93.81587817708333;0.06818182500001058;79;0.625;violin
93.88595394166667;0.06818182499999637;77;0.625;violin
93.95602970625;0.06818182499999637;75;0.625;violin
94.02610547083334;0.06818182499999637;74;0.625;violin
94.09618123541667;0.06818182500001058;72;0.625;violin
94.166257;0.22537881041667163;70;0.625;violin
94.62080250000001;0.22537881041665742;55;0.625;violin
94.62080250000001;0.22537881041665742;63;0.625;violin
95.075348;0.22537881041667163;56;0.625;violin
95.075348;0.22537881041667163;65;0.625;violin
95.5298935;0.22537881041667163;58;0.625;violin
95.5298935;0.22537881041667163;65;0.625;violin
95.5298935;0.22537881041667163;74;0.625;violin
95.98443900000001;0.9071970604166637;55;0.625;violin
95.98443900000001;0.9071970604166637;63;0.625;violin
95.98443900000001;0.9071970604166637;75;0.625;violin
96.89353;0.49861136041666043;67;0.625;violin
96.89353;0.49861136041666043;79;0.625;violin
97.39353025;0.1652778604166656;63;0.625;violin
97.39353025;0.1652778604166656;75;0.625;violin
97.560197;0.1652778604166656;60;0.625;violin
97.560197;0.1652778604166656;72;0.625;violin
97.72686374999999;0.1652778604166656;59;0.625;violin
97.72686374999999;0.1652778604166656;71;0.625;violin
97.8935305;0.08194448541667043;60;0.625;violin
97.8935305;0.08194448541667043;72;0.625;violin
98.06019725;0.08194448541667043;62;0.625;violin
98.06019725;0.08194448541667043;74;0.625;violin
98.22686399999999;0.1652778604166798;63;0.625;violin
98.22686399999999;0.1652778604166798;75;0.625;violin
98.39353075;0.1652778604166656;62;0.625;violin
98.39353075;0.1652778604166656;74;0.625;violin
98.5601975;0.08194448541667043;63;0.625;violin
98.5601975;0.08194448541667043;75;0.625;violin
98.72686425;0.08194448541665622;65;0.625;violin
98.72686425;0.08194448541665622;77;0.625;violin
98.893531;0.1652778604166656;67;0.625;violin
98.893531;0.1652778604166656;79;0.625;violin
99.06019775;0.1652778604166656;66;0.625;violin
99.06019775;0.1652778604166656;78;0.625;violin
99.2268645;0.08194448541665622;67;0.625;violin
99.2268645;0.08194448541665622;79;0.625;violin
99.39353125;0.08194448541667043;69;0.625;violin
99.39353125;0.08194448541667043;81;0.625;violin
99.560198;0.1652778604166656;71;0.625;violin
99.560198;0.1652778604166656;83;0.625;violin
99.72686475;0.1652778604166656;69;0.625;violin
99.72686475;0.1652778604166656;81;0.625;violin
99.8935315;0.08194448541667043;71;0.625;violin
99.8935315;0.08194448541667043;83;0.625;violin
100.06019825;0.08194448541667043;67;0.625;violin
100.06019825;0.08194448541667043;79;0.625;violin
100.226865;0.1652778604166656;72;0.625;violin
100.226865;0.1652778604166656;84;0.625;violin
100.39353175;0.1652778604166656;71;0.625;violin
100.39353175;0.1652778604166656;83;0.625;violin
100.5601985;0.08194448541667043;72;0.625;violin
100.5601985;0.08194448541667043;84;0.625;violin
100.72686525;0.08194448541665622;74;0.625;violin
100.72686525;0.08194448541665622;86;0.625;violin
100.893532;0.1652778604166656;75;0.625;violin
100.893532;0.1652778604166656;87;0.625;violin
101.06019875;0.1652778604166656;74;0.625;violin
101.06019875;0.1652778604166656;86;0.625;violin
101.2268655;0.08194448541665622;75;0.625;violin
101.2268655;0.08194448541665622;87;0.625;violin
101.39353224999999;0.08194448541667043;77;0.625;violin
101.39353224999999;0.08194448541667043;89;0.625;violin
101.560199;0.3319446104166701;79;0.625;violin
101.560199;0.3319446104166701;91;0.625;violin
101.89353249999999;0.3319446104166701;55;0.625;violin
101.89353249999999;0.3319446104166701;67;0.625;violin
102.226866;0.49861136041666043;79;0.625;violin
102.226866;0.49861136041666043;91;0.625;violin
102.72686625;0.1652778604166656;79;0.625;violin
102.72686625;0.1652778604166656;91;0.625;violin
102.893533;0.1652778604166656;80;0.625;violin
102.893533;0.1652778604166656;92;0.625;violin
103.06019975;0.1652778604166656;79;0.625;violin
103.06019975;0.1652778604166656;91;0.625;violin
103.2268665;0.08194448541667043;80;0.625;violin
103.2268665;0.08194448541667043;92;0.625;violin
103.39353325;0.08194448541665622;74;0.625;violin
103.39353325;0.08194448541665622;86;0.625;violin
103.5602;0.1652778604166656;79;0.625;violin
103.5602;0.1652778604166656;91;0.625;violin
103.72686675;0.1652778604166656;78;0.625;violin
103.72686675;0.1652778604166656;90;0.625;violin
103.8935335;0.08194448541665622;79;0.625;violin
103.8935335;0.08194448541665622;91;0.625;violin
104.06020025;0.08194448541667043;72;0.625;violin
104.06020025;0.08194448541667043;84;0.625;violin
104.226867;0.1652778604166656;77;0.625;violin
104.226867;0.1652778604166656;89;0.625;violin
104.39353375;0.1652778604166656;76;0.625;violin
104.39353375;0.1652778604166656;88;0.625;violin
104.5602005;0.1652778604166656;77;0.625;violin
104.5602005;0.1652778604166656;89;0.625;violin
104.72686725;0.08194448541667043;71;0.625;violin
104.72686725;0.08194448541667043;83;0.625;violin
104.893534;0.1652778604166656;75;0.625;violin
104.893534;0.1652778604166656;87;0.625;violin
105.06020074999999;0.1652778604166798;74;0.625;violin
105.06020074999999;0.1652778604166798;86;0.625;violin
105.2268675;0.1652778604166656;75;0.625;violin
105.2268675;0.1652778604166656;87;0.625;violin
105.39353425;0.08194448541665622;72;0.625;violin
105.39353425;0.08194448541665622;84;0.625;violin
105.560201;0.1652778604166656;72;0.625;violin
105.560201;0.1652778604166656;84;0.625;violin
105.72686775;0.1652778604166656;70;0.625;violin
105.72686775;0.1652778604166656;82;0.625;violin
105.8935345;0.1652778604166656;70;0.625;violin
105.8935345;0.1652778604166656;82;0.625;violin
106.06020125;0.1652778604166656;68;0.625;violin
106.06020125;0.1652778604166656;80;0.625;violin
106.226868;0.1652778604166656;68;0.625;violin
106.226868;0.1652778604166656;80;0.625;violin
106.39353475;0.1652778604166656;67;0.625;violin
106.39353475;0.1652778604166656;79;0.625;violin
106.5602015;0.1652778604166656;67;0.625;violin
106.5602015;0.1652778604166656;79;0.625;violin
106.72686825;0.1652778604166656;66;0.625;violin
106.72686825;0.1652778604166656;78;0.625;violin
106.893535;0.1652778604166656;66;0.625;violin
106.893535;0.1652778604166656;78;0.625;violin
107.06020175;0.1652778604166656;67;0.625;violin
107.06020175;0.1652778604166656;79;0.625;violin
107.2268685;0.3319446104166701;79;0.625;violin
107.2268685;0.3319446104166701;91;0.625;violin
107.560202;0.49861136041666043;67;0.625;violin
107.560202;0.49861136041666043;79;0.625;violin
108.06020225;0.1652778604166656;63;0.625;violin
108.06020225;0.1652778604166656;75;0.625;violin
108.226869;0.1652778604166656;60;0.625;violin
108.226869;0.1652778604166656;72;0.625;violin
108.39353575;0.1652778604166656;59;0.625;violin
108.39353575;0.1652778604166656;71;0.625;violin
108.5602025;0.08194448541667043;60;0.625;violin
108.5602025;0.08194448541667043;72;0.625;violin
108.72686925;0.08194448541667043;62;0.625;violin
108.72686925;0.08194448541667043;74;0.625;violin
108.893536;0.1652778604166656;63;0.625;violin
108.893536;0.1652778604166656;75;0.625;violin
109.06020275;0.1652778604166656;62;0.625;violin
109.06020275;0.1652778604166656;74;0.625;violin
109.22686949999999;0.08194448541667043;63;0.625;violin
109.22686949999999;0.08194448541667043;75;0.625;violin
109.39353625;0.08194448541667043;65;0.625;violin
109.39353625;0.08194448541667043;77;0.625;violin
109.560203;0.1652778604166656;67;0.625;violin
109.560203;0.1652778604166656;79;0.625;violin
109.72686974999999;0.1652778604166798;66;0.625;violin
109.72686974999999;0.1652778604166798;78;0.625;violin
109.8935365;0.08194448541667043;67;0.625;violin
109.8935365;0.08194448541667043;79;0.625;violin
110.06020325;0.08194448541667043;69;0.625;violin
110.06020325;0.08194448541667043;81;0.625;violin
110.22686999999999;0.1652778604166798;71;0.625;violin
110.22686999999999;0.1652778604166798;83;0.625;violin
110.39353675;0.1652778604166656;69;0.625;violin
110.39353675;0.1652778604166656;81;0.625;violin
110.5602035;0.08194448541667043;71;0.625;violin
110.5602035;0.08194448541667043;83;0.625;violin
110.72687025;0.08194448541665622;67;0.625;violin
110.72687025;0.08194448541665622;79;0.625;violin
110.893537;0.1652778604166656;72;0.625;violin
110.893537;0.1652778604166656;84;0.625;violin
111.06020375;0.1652778604166656;71;0.625;violin
111.06020375;0.1652778604166656;83;0.625;violin
111.2268705;0.08194448541665622;72;0.625;violin
111.2268705;0.08194448541665622;84;0.625;violin
111.39353725;0.08194448541667043;74;0.625;violin
111.39353725;0.08194448541667043;86;0.625;violin
111.560204;0.1652778604166656;75;0.625;violin
111.560204;0.1652778604166656;87;0.625;violin
111.72687075;0.1652778604166656;74;0.625;violin
111.72687075;0.1652778604166656;86;0.625;violin
111.8935375;0.08194448541667043;75;0.625;violin
111.8935375;0.08194448541667043;87;0.625;violin
112.06020425;0.08194448541667043;77;0.625;violin
112.06020425;0.08194448541667043;89;0.625;violin
112.226871;0.3319446104166701;79;0.625;violin
112.226871;0.3319446104166701;91;0.625;violin
112.5602045;0.3319446104166701;55;0.625;violin
112.5602045;0.3319446104166701;67;0.625;violin
112.893538;0.49861136041666043;79;0.625;violin
112.893538;0.49861136041666043;91;0.625;violin
113.39353825;0.1652778604166656;79;0.625;violin
113.39353825;0.1652778604166656;91;0.625;violin
113.560205;0.1652778604166656;80;0.625;violin
113.560205;0.1652778604166656;92;0.625;violin
113.72687175;0.1652778604166656;79;0.625;violin
113.72687175;0.1652778604166656;91;0.625;violin
113.8935385;0.1652778604166656;80;0.625;violin
113.8935385;0.1652778604166656;92;0.625;violin
114.06020525;0.08194448541667043;74;0.625;violin
114.06020525;0.08194448541667043;86;0.625;violin
114.226872;0.1652778604166656;79;0.625;violin
114.226872;0.1652778604166656;91;0.625;violin
114.39353875;0.1652778604166656;78;0.625;violin
114.39353875;0.1652778604166656;90;0.625;violin
114.5602055;0.1652778604166656;79;0.625;violin
114.5602055;0.1652778604166656;91;0.625;violin
114.72687225;0.08194448541667043;72;0.625;violin
114.72687225;0.08194448541667043;84;0.625;violin
114.893539;0.1652778604166656;77;0.625;violin
114.893539;0.1652778604166656;89;0.625;violin
115.06020575;0.1652778604166656;76;0.625;violin
115.06020575;0.1652778604166656;88;0.625;violin
115.2268725;0.1652778604166656;77;0.625;violin
115.2268725;0.1652778604166656;89;0.625;violin
115.39353925;0.08194448541667043;71;0.625;violin
115.39353925;0.08194448541667043;83;0.625;violin
115.560206;0.1652778604166656;75;0.625;violin
115.560206;0.1652778604166656;87;0.625;violin
115.72687275;0.1652778604166656;74;0.625;violin
115.72687275;0.1652778604166656;86;0.625;violin
115.8935395;0.08194448541667043;75;0.625;violin
115.8935395;0.08194448541667043;87;0.625;violin
116.06020625;0.08194448541667043;72;0.625;violin
116.06020625;0.08194448541667043;84;0.625;violin
116.226873;0.1652778604166656;70;0.625;violin
116.226873;0.1652778604166656;82;0.625;violin
116.39353975;0.1652778604166656;68;0.625;violin
116.39353975;0.1652778604166656;80;0.625;violin
116.56020649999999;0.1652778604166656;67;0.625;violin
116.56020649999999;0.1652778604166656;79;0.625;violin
116.72687325;0.1652778604166656;65;0.625;violin
116.72687325;0.1652778604166656;77;0.625;violin
116.89354;0.1652778604166656;63;0.625;violin
116.89354;0.1652778604166656;75;0.625;violin
117.06020674999999;0.1652778604166656;67;0.625;violin
117.06020674999999;0.1652778604166656;79;0.625;violin
117.2268735;0.1652778604166656;65;0.625;violin
117.2268735;0.1652778604166656;77;0.625;violin
117.39354025;0.1652778604166656;62;0.625;violin
117.39354025;0.1652778604166656;74;0.625;violin
117.56020699999999;0.1652778604166798;59;0.625;violin
117.56020699999999;0.1652778604166798;71;0.625;violin
117.72687375;0.1652778604166656;60;0.625;violin
117.72687375;0.1652778604166656;72;0.625;violin
117.8935405;0.3319446104166701;72;0.625;violin
117.8935405;0.3319446104166701;84;0.625;violin
118.226874;0.49861136041667464;58;0.625;violin
118.226874;0.49861136041667464;70;0.625;violin
118.72687425;0.1652778604166798;58;0.625;violin
118.72687425;0.1652778604166798;70;0.625;violin
118.893541;0.1652778604166656;58;0.625;violin
118.893541;0.1652778604166656;70;0.625;violin
119.06020775;0.1652778604166656;57;0.625;violin
119.06020775;0.1652778604166656;69;0.625;violin
119.2268745;0.1652778604166798;58;0.625;violin
119.2268745;0.1652778604166798;70;0.625;violin
119.39354125;0.1652778604166656;62;0.625;violin
119.39354125;0.1652778604166656;74;0.625;violin
119.560208;0.1652778604166656;65;0.625;violin
119.560208;0.1652778604166656;77;0.625;violin
119.72687475000001;0.1652778604166656;70;0.625;violin
119.72687475000001;0.1652778604166656;82;0.625;violin
119.8935415;0.1652778604166656;74;0.625;violin
119.8935415;0.1652778604166656;86;0.625;violin
120.06020825;0.1652778604166656;77;0.625;violin
120.06020825;0.1652778604166656;89;0.625;violin
120.226875;0.1652778604166656;80;0.625;violin
120.226875;0.1652778604166656;92;0.625;violin
120.39354175;0.1652778604166656;77;0.625;violin
120.39354175;0.1652778604166656;89;0.625;violin
120.5602085;0.1652778604166656;74;0.625;violin
120.5602085;0.1652778604166656;86;0.625;violin
120.893542;0.49861136041667464;58;0.625;violin
120.893542;0.49861136041667464;70;0.625;violin
121.39354225;0.1652778604166656;58;0.625;violin
121.39354225;0.1652778604166656;70;0.625;violin
121.560209;0.1652778604166656;58;0.625;violin
121.560209;0.1652778604166656;70;0.625;violin
121.72687575;0.1652778604166656;57;0.625;violin
121.72687575;0.1652778604166656;69;0.625;violin
121.8935425;0.1652778604166656;58;0.625;violin
121.8935425;0.1652778604166656;70;0.625;violin
122.06020925;0.1652778604166656;62;0.625;violin
122.06020925;0.1652778604166656;74;0.625;violin
122.226876;0.1652778604166656;65;0.625;violin
122.226876;0.1652778604166656;77;0.625;violin
122.39354275;0.1652778604166656;70;0.625;violin
122.39354275;0.1652778604166656;82;0.625;violin
122.5602095;0.1652778604166656;74;0.625;violin
122.5602095;0.1652778604166656;86;0.625;violin
122.72687625;0.1652778604166656;77;0.625;violin
122.72687625;0.1652778604166656;89;0.625;violin
122.893543;0.1652778604166656;80;0.625;violin
122.893543;0.1652778604166656;92;0.625;violin
123.06020975;0.1652778604166656;77;0.625;violin
123.06020975;0.1652778604166656;89;0.625;violin
123.2268765;0.1652778604166656;72;0.625;violin
123.2268765;0.1652778604166656;84;0.625;violin
123.56021;0.49861136041666043;60;0.625;violin
123.56021;0.49861136041666043;72;0.625;violin
124.06021025;0.1652778604166656;60;0.625;violin
124.06021025;0.1652778604166656;72;0.625;violin
124.226877;0.1652778604166656;60;0.625;violin
124.226877;0.1652778604166656;72;0.625;violin
124.39354374999999;0.1652778604166656;59;0.625;violin
124.39354374999999;0.1652778604166656;71;0.625;violin
124.5602105;0.08194448541667043;60;0.625;violin
124.5602105;0.08194448541667043;72;0.625;violin
124.72687725;0.08194448541667043;62;0.625;violin
124.72687725;0.08194448541667043;74;0.625;violin
124.89354399999999;0.1652778604166798;63;0.625;violin
124.89354399999999;0.1652778604166798;75;0.625;violin
125.06021075;0.1652778604166656;62;0.625;violin
125.06021075;0.1652778604166656;74;0.625;violin
125.2268775;0.08194448541667043;63;0.625;violin
125.2268775;0.08194448541667043;75;0.625;violin
125.39354424999999;0.08194448541667043;65;0.625;violin
125.39354424999999;0.08194448541667043;77;0.625;violin
125.560211;0.1652778604166656;67;0.625;violin
125.560211;0.1652778604166656;79;0.625;violin
125.72687775;0.1652778604166656;66;0.625;violin
125.72687775;0.1652778604166656;78;0.625;violin
125.8935445;0.08194448541665622;67;0.625;violin
125.8935445;0.08194448541665622;79;0.625;violin
126.06021125;0.08194448541667043;69;0.625;violin
126.06021125;0.08194448541667043;81;0.625;violin
126.226878;0.1652778604166656;71;0.625;violin
126.226878;0.1652778604166656;83;0.625;violin
126.39354475;0.1652778604166656;69;0.625;violin
126.39354475;0.1652778604166656;81;0.625;violin
126.56021150000001;0.08194448541665622;71;0.625;violin
126.56021150000001;0.08194448541665622;83;0.625;violin
126.72687825;0.08194448541667043;67;0.625;violin
126.72687825;0.08194448541667043;79;0.625;violin
126.893545;0.1652778604166656;72;0.625;violin
126.893545;0.1652778604166656;84;0.625;violin
127.06021175000001;0.1652778604166656;74;0.625;violin
127.06021175000001;0.1652778604166656;86;0.625;violin
127.2268785;0.1652778604166656;75;0.625;violin
127.2268785;0.1652778604166656;87;0.625;violin
127.39354525;0.1652778604166656;77;0.625;violin
127.39354525;0.1652778604166656;89;0.625;violin
127.560212;0.3319446104166559;79;0.625;violin
127.560212;0.3319446104166559;91;0.625;violin
127.8935455;0.3319446104166701;67;0.625;violin
127.8935455;0.3319446104166701;79;0.625;violin
128.226879;0.1652778604166656;71;0.625;violin
128.226879;0.1652778604166656;83;0.625;violin
128.39354575;0.1652778604166656;72;0.625;violin
128.39354575;0.1652778604166656;84;0.625;violin
128.5602125;0.3319446104166559;60;0.625;violin
128.5602125;0.3319446104166559;72;0.625;violin
128.89354600000001;0.4986113604166462;58;0.625;violin
128.89354600000001;0.4986113604166462;70;0.625;violin
129.39354624999999;0.1652778604166656;58;0.625;violin
129.39354624999999;0.1652778604166656;70;0.625;violin
129.560213;0.1652778604166656;58;0.625;violin
129.560213;0.1652778604166656;70;0.625;violin
129.72687975;0.1652778604166656;57;0.625;violin
129.72687975;0.1652778604166656;69;0.625;violin
129.8935465;0.1652778604166656;58;0.625;violin
129.8935465;0.1652778604166656;70;0.625;violin
130.06021325;0.1652778604166656;62;0.625;violin
130.06021325;0.1652778604166656;74;0.625;violin
130.22688;0.1652778604166656;65;0.625;violin
130.22688;0.1652778604166656;77;0.625;violin
130.39354674999998;0.1652778604166656;70;0.625;violin
130.39354674999998;0.1652778604166656;82;0.625;violin
130.5602135;0.1652778604166656;74;0.625;violin
130.5602135;0.1652778604166656;86;0.625;violin
130.72688025;0.1652778604166656;77;0.625;violin
130.72688025;0.1652778604166656;89;0.625;violin
130.893547;0.1652778604166656;80;0.625;violin
130.893547;0.1652778604166656;92;0.625;violin
131.06021375;0.1652778604166656;77;0.625;violin
131.06021375;0.1652778604166656;89;0.625;violin
131.2268805;0.1652778604166656;74;0.625;violin
131.2268805;0.1652778604166656;86;0.625;violin
131.560214;0.49861136041667464;58;0.625;violin
131.560214;0.49861136041667464;70;0.625;violin
132.06021425;0.1652778604166656;58;0.625;violin
132.06021425;0.1652778604166656;70;0.625;violin
132.226881;0.1652778604166656;58;0.625;violin
132.226881;0.1652778604166656;70;0.625;violin
132.39354774999998;0.165277860416694;57;0.625;violin
132.39354774999998;0.165277860416694;69;0.625;violin
132.5602145;0.1652778604166656;58;0.625;violin
132.5602145;0.1652778604166656;70;0.625;violin
132.72688125;0.1652778604166656;62;0.625;violin
132.72688125;0.1652778604166656;74;0.625;violin
132.893548;0.1652778604166656;65;0.625;violin
132.893548;0.1652778604166656;77;0.625;violin
133.06021475;0.1652778604166656;70;0.625;violin
133.06021475;0.1652778604166656;82;0.625;violin
133.2268815;0.1652778604166656;74;0.625;violin
133.2268815;0.1652778604166656;86;0.625;violin
133.39354825;0.1652778604166656;77;0.625;violin
133.39354825;0.1652778604166656;89;0.625;violin
133.560215;0.1652778604166656;80;0.625;violin
133.560215;0.1652778604166656;92;0.625;violin
133.72688175;0.165277860416694;77;0.625;violin
133.72688175;0.165277860416694;89;0.625;violin
133.8935485;0.1652778604166656;72;0.625;violin
133.8935485;0.1652778604166656;84;0.625;violin
134.226882;0.49861136041667464;60;0.625;violin
134.226882;0.49861136041667464;72;0.625;violin
134.72688225000002;0.1652778604166656;60;0.625;violin
134.72688225000002;0.1652778604166656;72;0.625;violin
134.893549;0.1652778604166656;60;0.625;violin
134.893549;0.1652778604166656;72;0.625;violin
135.06021575;0.1652778604166656;59;0.625;violin
135.06021575;0.1652778604166656;71;0.625;violin
135.2268825;0.08194448541667043;60;0.625;violin
135.2268825;0.08194448541667043;72;0.625;violin
135.39354925;0.08194448541667043;62;0.625;violin
135.39354925;0.08194448541667043;74;0.625;violin
135.560216;0.1652778604166656;63;0.625;violin
135.560216;0.1652778604166656;75;0.625;violin
135.72688275000002;0.1652778604166656;62;0.625;violin
135.72688275000002;0.1652778604166656;74;0.625;violin
135.8935495;0.08194448541667043;63;0.625;violin
135.8935495;0.08194448541667043;75;0.625;violin
136.06021625;0.08194448541667043;65;0.625;violin
136.06021625;0.08194448541667043;77;0.625;violin
136.226883;0.1652778604166656;67;0.625;violin
136.226883;0.1652778604166656;79;0.625;violin
136.39354975;0.1652778604166656;66;0.625;violin
136.39354975;0.1652778604166656;78;0.625;violin
136.5602165;0.08194448541667043;67;0.625;violin
136.5602165;0.08194448541667043;79;0.625;violin
136.72688325000001;0.08194448541664201;69;0.625;violin
136.72688325000001;0.08194448541664201;81;0.625;violin
136.89355;0.1652778604166656;71;0.625;violin
136.89355;0.1652778604166656;83;0.625;violin
137.06021675;0.1652778604166656;69;0.625;violin
137.06021675;0.1652778604166656;81;0.625;violin
137.22688349999999;0.08194448541667043;71;0.625;violin
137.22688349999999;0.08194448541667043;83;0.625;violin
137.39355025;0.08194448541667043;67;0.625;violin
137.39355025;0.08194448541667043;79;0.625;violin
137.560217;0.1652778604166656;72;0.625;violin
137.560217;0.1652778604166656;84;0.625;violin
137.72688375;0.1652778604166656;74;0.625;violin
137.72688375;0.1652778604166656;86;0.625;violin
137.8935505;0.1652778604166656;75;0.625;violin
137.8935505;0.1652778604166656;87;0.625;violin
138.06021725;0.1652778604166656;77;0.625;violin
138.06021725;0.1652778604166656;89;0.625;violin
138.22688399999998;0.3319446104166843;79;0.625;violin
138.22688399999998;0.3319446104166843;91;0.625;violin
138.5602175;0.3319446104166843;67;0.625;violin
138.5602175;0.3319446104166843;79;0.625;violin
138.893551;0.1652778604166656;71;0.625;violin
138.893551;0.1652778604166656;83;0.625;violin
139.06021775;0.1652778604166656;72;0.625;violin
139.06021775;0.1652778604166656;84;0.625;violin
139.22688449999998;0.3319446104166843;60;0.625;violin
139.22688449999998;0.3319446104166843;72;0.625;violin
139.560218;0.08143940208333333;81;0.9375;violin
139.64355134166667;0.08143940208333333;82;0.625;violin
139.72499074375;0.08143940208333333;87;0.625;violin
139.80832408541667;0.08143940208333333;84;0.625;violin
139.89165742708332;0.08143940208333333;82;0.625;violin
139.97309682916665;0.08143940208333333;80;0.625;violin
140.05643017083332;0.08143940208333333;79;0.625;violin
140.13786957291666;0.08143940208333333;77;0.625;violin
140.22120291458333;0.08143940208333333;75;0.625;violin
140.30453625625;0.08143940208333333;74;0.625;violin
140.38597565833334;0.08143940208333333;72;0.625;violin
140.46930899999998;0.22537881041668584;70;0.625;violin
140.9238545;0.22537881041665742;55;0.625;violin
140.9238545;0.22537881041665742;63;0.625;violin
141.3784;0.22537881041665742;56;0.625;violin
141.3784;0.22537881041665742;65;0.625;violin
141.8329455;0.22537881041665742;57;0.625;violin
141.8329455;0.22537881041665742;66;0.625;violin
142.287491;0.4526515604166832;58;0.9375;violin
142.287491;0.4526515604166832;67;0.9375;violin
142.74203649999998;0.4526515604166832;55;0.625;violin
142.74203649999998;0.4526515604166832;63;0.625;violin
143.19658199999998;0.06818182500001058;82;0.9375;violin
143.26665776458333;0.06818182500001058;91;0.625;violin
143.33673352916665;0.06818182500001058;89;0.625;violin
143.40680929375;0.06818182499998215;87;0.625;violin
143.47688505833332;0.06818182500001058;86;0.625;violin
143.54696082291665;0.06818182500001058;84;0.625;violin
143.6170365875;0.06818182499998215;82;0.625;violin
143.68521841249998;0.06818182500001058;80;0.625;violin
143.75529417708333;0.06818182500001058;79;0.625;violin
143.82536994166665;0.06818182500001058;77;0.625;violin
143.89544570625;0.06818182499998215;75;0.625;violin
143.96552147083332;0.06818182500001058;74;0.625;violin
144.03559723541665;0.06818182500001058;72;0.625;violin
144.105673;0.22537881041665742;70;0.625;violin
144.5602185;0.22537881041665742;55;0.625;violin
144.5602185;0.22537881041665742;63;0.625;violin
145.01476399999999;0.22537881041668584;56;0.625;violin
145.01476399999999;0.22537881041668584;65;0.625;violin
145.46930949999998;0.22537881041668584;58;0.625;violin
145.46930949999998;0.22537881041668584;67;0.625;violin
145.923855;0.9071970604166495;55;0.625;violin
145.923855;0.9071970604166495;63;0.625;violin
146.832946;0.08143940208333333;81;0.9375;violin
146.91627934166667;0.08143940208333333;82;0.625;violin
146.99771874375;0.08143940208333333;87;0.625;violin
147.08105208541667;0.08143940208333333;84;0.625;violin
147.16438542708332;0.08143940208333333;82;0.625;violin
147.24582482916665;0.08143940208333333;80;0.625;violin
147.32915817083332;0.08143940208333333;79;0.625;violin
147.41059757291666;0.08143940208333333;77;0.625;violin
147.49393091458333;0.08143940208333333;75;0.625;violin
147.57726425625;0.08143940208333333;74;0.625;violin
147.65870365833334;0.08143940208333333;72;0.625;violin
147.74203699999998;0.22537881041668584;70;0.625;violin
148.19658249999998;0.22537881041668584;55;0.625;violin
148.19658249999998;0.22537881041668584;63;0.625;violin
148.651128;0.22537881041665742;56;0.625;violin
148.651128;0.22537881041665742;65;0.625;violin
149.1056735;0.22537881041665742;57;0.625;violin
149.1056735;0.22537881041665742;66;0.625;violin
149.560219;0.4526515604166832;58;0.9375;violin
149.560219;0.4526515604166832;67;0.9375;violin
150.01476449999998;0.4526515604166832;55;0.625;violin
150.01476449999998;0.4526515604166832;63;0.625;violin
150.46930999999998;0.06818182500001058;82;0.9375;violin
150.53938576458333;0.06818182499998215;91;0.625;violin
150.60946152916665;0.06818182500001058;89;0.625;violin
150.67953729375;0.06818182499998215;87;0.625;violin
150.74961305833332;0.06818182500001058;86;0.625;violin
150.81968882291665;0.06818182500001058;84;0.625;violin
150.8897645875;0.06818182499998215;82;0.625;violin
150.95794641249998;0.06818182500001058;80;0.625;violin
151.02802217708333;0.06818182499998215;79;0.625;violin
151.09809794166665;0.06818182500001058;77;0.625;violin
151.16817370625;0.06818182499998215;75;0.625;violin
151.23824947083332;0.06818182500001058;74;0.625;violin
151.30832523541665;0.06818182500001058;72;0.625;violin
151.378401;0.22537881041665742;70;0.625;violin
151.8329465;0.22537881041665742;55;0.625;violin
151.8329465;0.22537881041665742;63;0.625;violin
152.287492;0.22537881041665742;56;0.625;violin
152.287492;0.22537881041665742;65;0.625;violin
152.74203749999998;0.22537881041668584;58;0.625;violin
152.74203749999998;0.22537881041668584;67;0.625;violin
153.196583;0.9071970604166495;55;0.625;violin
153.196583;0.9071970604166495;63;0.625;violin
154.105674;0.07386364375000198;82;0.9375;violin
154.18143158333334;0.07386364375000198;81;0.625;violin
154.25718916666665;0.07386364375000198;80;0.625;violin
154.33294675;0.07386364375000198;79;0.625;violin
154.40870433333333;0.07386364375000198;78;0.625;violin
154.48446191666665;0.07386364375000198;77;0.625;violin
154.5602195;0.07386364375000198;76;0.625;violin
154.63597708333333;0.07386364375000198;75;0.625;violin
154.71173466666664;0.07386364375000198;74;0.625;violin
154.78749224999999;0.07386364375000198;73;0.625;violin
154.86324983333333;0.07386364375000198;72;0.625;violin
154.93900741666667;0.07386364375000198;71;0.625;violin
155.01476499999998;0.22537881041668584;70;0.625;violin
155.4693105;0.22537881041665742;58;0.625;violin
155.4693105;0.22537881041665742;62;0.625;violin
155.923856;0.22537881041665742;60;0.625;violin
155.923856;0.22537881041665742;63;0.625;violin
156.3784015;0.22537881041665742;61;0.625;violin
156.3784015;0.22537881041665742;64;0.625;violin
156.832947;0.4526515604166548;62;0.9375;violin
156.832947;0.4526515604166548;65;0.9375;violin
157.28749249999998;0.4526515604166832;58;0.625;violin
157.28749249999998;0.4526515604166832;62;0.625;violin
157.74203799999998;0.06818182500001058;70;0.9375;violin
157.81211376458333;0.06818182500001058;72;0.625;violin
157.88218952916665;0.06818182500001058;74;0.625;violin
157.95226529375;0.06818182499998215;75;0.625;violin
158.02234105833332;0.06818182500001058;77;0.625;violin
158.09241682291665;0.06818182500001058;79;0.625;violin
158.1624925875;0.06818182499998215;81;0.625;violin
158.23067441249998;0.06818182500001058;82;0.625;violin
158.30075017708333;0.06818182500001058;84;0.625;violin
158.37082594166665;0.06818182500001058;86;0.625;violin
158.44090170625;0.06818182499998215;87;0.625;violin
158.51097747083332;0.06818182500001058;89;0.625;violin
158.58105323541665;0.06818182500001058;91;0.625;violin
158.651129;0.22537881041665742;89;0.625;violin
159.1056745;0.22537881041665742;58;0.625;violin
159.1056745;0.22537881041665742;62;0.625;violin
159.56022;0.22537881041668584;60;0.625;violin
159.56022;0.22537881041668584;63;0.625;violin
160.01476549999998;0.22537881041668584;62;0.625;violin
160.01476549999998;0.22537881041668584;65;0.625;violin
160.469311;0.9071970604166495;58;0.9375;violin
160.469311;0.9071970604166495;62;0.9375;violin
161.378402;0.07386364375000198;82;0.9375;violin
161.45415958333334;0.07386364375000198;81;0.625;violin
161.52991716666665;0.07386364375000198;80;0.625;violin
161.60567475;0.07386364375000198;79;0.625;violin
161.68143233333333;0.07386364375000198;78;0.625;violin
161.75718991666665;0.07386364375000198;77;0.625;violin
161.8329475;0.07386364375000198;76;0.625;violin
161.90870508333333;0.07386364375000198;75;0.625;violin
161.98446266666667;0.07386364374997356;74;0.625;violin
162.06022025;0.07386364375000198;73;0.625;violin
162.13597783333333;0.07386364375000198;72;0.625;violin
162.21173541666667;0.07386364374997356;71;0.625;violin
162.28749299999998;0.22537881041668584;70;0.625;violin
162.74203849999998;0.22537881041668584;58;0.625;violin
162.74203849999998;0.22537881041668584;62;0.625;violin
163.196584;0.22537881041665742;60;0.625;violin
163.196584;0.22537881041665742;63;0.625;violin
163.6511295;0.22537881041665742;61;0.625;violin
163.6511295;0.22537881041665742;64;0.625;violin
164.105675;0.4526515604166832;62;0.9375;violin
164.105675;0.4526515604166832;65;0.9375;violin
164.56022049999999;0.4526515604166832;58;0.625;violin
164.56022049999999;0.4526515604166832;62;0.625;violin
165.01476599999998;0.06818182500001058;70;0.9375;violin
165.08484176458333;0.06818182499998215;72;0.625;violin
165.15491752916665;0.06818182500001058;74;0.625;violin
165.22499329375;0.06818182499998215;75;0.625;violin
165.29506905833333;0.06818182500001058;77;0.625;violin
165.36514482291665;0.06818182500001058;79;0.625;violin
165.4352205875;0.06818182499998215;81;0.625;violin
165.50340241249998;0.06818182500001058;82;0.625;violin
165.57347817708333;0.06818182499998215;84;0.625;violin
165.64355394166665;0.06818182500001058;86;0.625;violin
165.71362970625;0.06818182499998215;87;0.625;violin
165.78370547083333;0.06818182500001058;89;0.625;violin
165.85378123541665;0.06818182500001058;91;0.625;violin
165.923857;0.22537881041665742;89;0.625;violin
166.3784025;0.22537881041665742;58;0.625;violin
166.3784025;0.22537881041665742;62;0.625;violin
166.832948;0.22537881041665742;60;0.625;violin
166.832948;0.22537881041665742;63;0.625;violin
167.28749349999998;0.22537881041668584;62;0.625;violin
167.28749349999998;0.22537881041668584;65;0.625;violin
167.74203899999998;0.9071970604166779;58;0.9375;violin
167.74203899999998;0.9071970604166779;62;0.9375;violin
168.65113;0.08901516041666468;82;0.9375;violin
168.7420391;0.08901516041666468;81;0.625;violin
168.8329482;0.08901516041666468;80;0.625;violin
168.92385729999998;0.08901516041666468;79;0.625;violin
169.01476639999998;0.08901516041666468;78;0.625;violin
169.1056755;0.08901516041666468;77;0.625;violin
169.1965846;0.08901516041666468;76;0.625;violin
169.2874937;0.08901516041666468;75;0.625;violin
169.3784028;0.08901516041666468;74;0.625;violin
169.46931189999998;0.0890151604166931;73;0.625;violin
169.56022099999998;0.22537881041668584;72;0.625;violin
170.0147665;0.22537881041665742;60;0.625;violin
170.0147665;0.22537881041665742;64;0.625;violin
170.469312;0.22537881041665742;61;0.625;violin
170.469312;0.22537881041665742;65;0.625;violin
170.9238575;0.22537881041665742;59;0.625;violin
170.9238575;0.22537881041665742;68;0.625;violin
171.378403;0.4526515604166548;60;0.9375;violin
171.378403;0.4526515604166548;67;0.9375;violin
171.8329485;0.4526515604166548;64;0.625;violin
172.28749399999998;0.0890151604166931;82;0.9375;violin
172.37840309999999;0.08901516041666468;81;0.625;violin
172.4693122;0.08901516041666468;80;0.625;violin
172.5602213;0.08901516041666468;79;0.625;violin
172.6511304;0.08901516041666468;78;0.625;violin
172.74203949999998;0.0890151604166931;77;0.625;violin
172.8329486;0.08901516041663626;76;0.625;violin
172.92385769999999;0.08901516041666468;75;0.625;violin
173.0147668;0.08901516041666468;74;0.625;violin
173.1056759;0.08901516041666468;73;0.625;violin
173.196585;0.22537881041665742;72;0.625;violin
173.6511305;0.22537881041665742;60;0.625;violin
173.6511305;0.22537881041665742;64;0.625;violin
174.105676;0.22537881041668584;61;0.625;violin
174.105676;0.22537881041668584;65;0.625;violin
174.56022149999998;0.22537881041668584;59;0.625;violin
174.56022149999998;0.22537881041668584;68;0.625;violin
175.014767;0.4526515604166548;60;0.9375;violin
175.014767;0.4526515604166548;67;0.9375;violin
175.4693125;0.4526515604166548;64;0.625;violin
175.923858;0.08901516041666468;80;0.625;violin
176.0147671;0.08901516041666468;79;0.625;violin
176.1056762;0.08901516041663626;78;0.625;violin
176.19658529999998;0.0890151604166931;77;0.625;violin
176.28749439999999;0.08901516041666468;76;0.625;violin
176.3784035;0.08901516041666468;75;0.625;violin
176.4693126;0.08901516041666468;74;0.625;violin
176.5602217;0.08901516041666468;73;0.625;violin
176.65113079999998;0.0890151604166931;72;0.625;violin
176.7420399;0.08901516041663626;71;0.625;violin
176.83294899999999;0.22537881041665742;70;0.625;violin
177.28749449999998;0.22537881041668584;58;0.625;violin
177.28749449999998;0.22537881041668584;62;0.625;violin
177.74203999999997;0.22537881041668584;59;0.625;violin
177.74203999999997;0.22537881041668584;63;0.625;violin
178.1965855;0.22537881041665742;57;0.625;violin
178.1965855;0.22537881041665742;66;0.625;violin
178.651131;0.4526515604166832;58;0.9375;violin
178.651131;0.4526515604166832;65;0.9375;violin
179.1056765;0.4526515604166832;62;0.625;violin
179.56022199999998;0.08901516041666468;80;0.625;violin
179.6511311;0.08901516041666468;79;0.625;violin
179.7420402;0.08901516041666468;78;0.625;violin
179.8329493;0.08901516041666468;77;0.625;violin
179.9238584;0.08901516041666468;76;0.625;violin
180.0147675;0.08901516041663626;75;0.625;violin
180.10567659999998;0.0890151604166931;74;0.625;violin
180.19658569999999;0.08901516041666468;73;0.625;violin
180.2874948;0.08901516041666468;72;0.625;violin
180.3784039;0.08901516041666468;71;0.625;violin
180.469313;0.22537881041665742;70;0.625;violin
180.9238585;0.22537881041665742;58;0.625;violin
180.9238585;0.22537881041665742;62;0.625;violin
181.378404;0.22537881041665742;59;0.625;violin
181.378404;0.22537881041665742;63;0.625;violin
181.83294949999998;0.22537881041665742;57;0.625;violin
181.83294949999998;0.22537881041665742;66;0.625;violin
182.28749499999998;0.4526515604166832;58;0.9375;violin
182.28749499999998;0.4526515604166832;65;0.9375;violin
182.7420405;0.4526515604166548;62;0.625;violin
183.196586;0.11174243541665874;75;0.9375;violin
183.310222375;0.11174243541665874;74;0.625;violin
183.42385875;0.11174243541665874;73;0.625;violin
183.537495125;0.11174243541665874;72;0.625;violin
183.6511315;0.11174243541665874;71;0.625;violin
183.764767875;0.11174243541665874;70;0.625;violin
183.87840425;0.11174243541668716;67;0.625;violin
183.992040625;0.11174243541668716;63;0.625;violin
184.105677;0.11174243541668716;75;0.9375;violin
184.21931337499998;0.11174243541668716;74;0.625;violin
184.33294974999998;0.11174243541668716;73;0.625;violin
184.44658612499998;0.11174243541668716;72;0.625;violin
184.5602225;0.11174243541665874;71;0.625;violin
184.673858875;0.11174243541665874;70;0.625;violin
184.78749525;0.11174243541665874;68;0.625;violin
184.901131625;0.11174243541665874;65;0.625;violin
185.014768;0.11174243541665874;75;0.9375;violin
185.128404375;0.11174243541665874;74;0.625;violin
185.24204075;0.11174243541665874;73;0.625;violin
185.355677125;0.11174243541665874;72;0.625;violin
185.4693135;0.11174243541665874;71;0.625;violin
185.582949875;0.11174243541665874;70;0.625;violin
185.69658625;0.11174243541665874;68;0.625;violin
185.810222625;0.11174243541665874;67;0.625;violin
185.923859;0.11174243541665874;75;0.625;violin
186.037495375;0.11174243541665874;74;0.625;violin
186.15113175;0.11174243541665874;73;0.625;violin
186.264768125;0.11174243541665874;72;0.625;violin
186.3784045;0.11174243541665874;71;0.625;violin
186.492040875;0.11174243541665874;70;0.625;violin
186.60567724999999;0.11174243541665874;69;0.625;violin
186.71931362499998;0.11174243541665874;68;0.625;violin
186.83294999999998;0.11174243541665874;75;0.625;violin
186.94658637499998;0.11174243541668716;74;0.625;violin
187.06022274999998;0.11174243541668716;73;0.625;violin
187.17385912499998;0.11174243541668716;72;0.625;violin
187.28749549999998;0.11174243541668716;71;0.625;violin
187.40113187499998;0.11174243541668716;70;0.625;violin
187.51476824999997;0.11174243541668716;69;0.625;violin
187.628404625;0.11174243541665874;72;0.625;violin
187.742041;0.11174243541665874;75;0.625;violin
187.855677375;0.11174243541665874;77;0.625;violin
187.96931375;0.11174243541665874;81;0.625;violin
188.082950125;0.11174243541665874;84;0.625;violin
188.1965865;0.11174243541665874;81;0.625;violin
188.310222875;0.11174243541665874;87;0.625;violin
188.42385925;0.11174243541665874;84;0.625;violin
188.537495625;0.11174243541665874;90;0.625;violin
188.651132;0.11174243541665874;87;0.625;violin
188.764768375;0.11174243541668716;84;0.625;violin
188.87840475;0.11174243541668716;81;0.625;violin
188.992041125;0.11174243541668716;78;0.625;violin
189.10567749999998;0.11174243541668716;75;0.625;violin
189.21931387499998;0.11174243541668716;72;0.625;violin
189.33295024999998;0.11174243541668716;69;0.625;violin
189.446586625;0.11174243541665874;72;0.625;violin
189.560223;0.22537881041665742;70;0.625;violin
190.0147685;0.22537881041665742;58;0.625;violin
190.0147685;0.22537881041665742;70;0.625;violin
190.469314;0.07386364375000198;82;0.625;violin
190.5450715833333;0.0738636437500304;81;0.625;violin
190.62082916666665;0.07386364375000198;80;0.625;violin
190.69658675;0.07386364375000198;79;0.625;violin
190.7723443333333;0.0738636437500304;78;0.625;violin
190.84810191666665;0.07386364375000198;77;0.625;violin
190.9238595;0.07386364375000198;76;0.625;violin
190.99961708333333;0.07386364375000198;75;0.625;violin
191.07537466666668;0.07386364374997356;74;0.625;violin
191.15113225;0.07386364375000198;73;0.625;violin
191.22688983333333;0.07386364375000198;72;0.625;violin
191.30264741666667;0.07386364374997356;71;0.625;violin
191.378405;0.22537881041665742;70;0.625;violin
191.83295049999998;0.22537881041668584;58;0.625;violin
191.83295049999998;0.22537881041668584;70;0.625;violin
192.28749599999998;0.0738636437500304;86;0.625;violin
192.36325358333332;0.07386364375000198;85;0.625;violin
192.43901116666666;0.07386364375000198;84;0.625;violin
192.51476875;0.07386364375000198;83;0.625;violin
192.59052633333332;0.07386364375000198;82;0.625;violin
192.66628391666666;0.07386364375000198;81;0.625;violin
192.7420415;0.07386364375000198;80;0.625;violin
192.81779908333334;0.07386364374997356;79;0.625;violin
192.89355666666665;0.07386364375000198;78;0.625;violin
192.96931425;0.07386364375000198;77;0.625;violin
193.04507183333334;0.07386364374997356;76;0.625;violin
193.12082941666665;0.07386364375000198;75;0.625;violin
193.196587;0.22537881041665742;74;0.625;violin
193.6511325;0.22537881041668584;58;0.625;violin
193.6511325;0.22537881041668584;70;0.625;violin
194.10567799999998;0.07196970416666204;89;0.625;violin
194.17954164374999;0.07196970416669046;88;0.625;violin
194.2534052875;0.07196970416666204;87;0.625;violin
194.32726893125;0.07196970416666204;86;0.625;violin
194.401132575;0.07196970416666204;85;0.625;violin
194.47499621875;0.07196970416666204;84;0.625;violin
194.5488598625;0.07196970416666204;83;0.625;violin
194.62082956666666;0.07196970416666204;82;0.625;violin
194.69469321041666;0.07196970416666204;81;0.625;violin
194.76855685416666;0.07196970416666204;80;0.625;violin
194.84242049791666;0.07196970416666204;79;0.625;violin
194.91628414166667;0.07196970416666204;78;0.625;violin
194.99014778541667;0.07196970416666204;77;0.625;violin
195.06401142916667;0.07196970416666204;76;0.625;violin
195.13787507291664;0.07196970416669046;75;0.625;violin
195.21173871666667;0.07196970416666204;74;0.625;violin
195.28560236041665;0.07196970416669046;73;0.625;violin
195.35946600416665;0.07196970416666204;72;0.625;violin
195.43332964791665;0.07196970416669046;71;0.625;violin
195.50529935208334;0.07196970416663362;70;0.625;violin
195.57916299583331;0.07196970416669046;69;0.625;violin
195.65302663958332;0.07196970416666204;68;0.625;violin
195.72689028333332;0.07196970416669046;67;0.625;violin
195.80075392708332;0.07196970416666204;66;0.625;violin
195.87461757083332;0.07196970416666204;65;0.625;violin
195.94848121458332;0.07196970416666204;64;0.625;violin
196.02234485833333;0.07196970416666204;63;0.625;violin
196.09620850208333;0.07196970416666204;62;0.625;violin
196.17007214583333;0.07196970416666204;61;0.625;violin
196.24393578958333;0.07196970416666204;60;0.625;violin
196.31779943333333;0.07196970416666204;59;0.625;violin
196.3897691375;0.07196970416666204;58;0.625;violin
196.46363278125;0.07196970416666204;57;0.625;violin
196.537496425;0.07196970416666204;60;0.625;violin
196.61136006875;0.07196970416666204;63;0.625;violin
196.68522371249998;0.07196970416669046;66;0.625;violin
196.75908735625;0.07196970416666204;57;0.625;violin
196.83295099999998;0.0890151604166931;58;0.625;violin
196.92386009999998;0.08901516041666468;62;0.625;violin
197.0147692;0.08901516041666468;65;0.625;violin
197.1056783;0.08901516041666468;68;0.625;violin
197.1965874;0.08901516041666468;69;0.625;violin
197.28749649999997;0.0890151604166931;70;0.625;violin
197.3784056;0.08901516041663626;74;0.625;violin
197.46931469999998;0.08901516041666468;77;0.625;violin
197.5602238;0.08901516041666468;80;0.625;violin
197.6511329;0.08901516041666468;81;0.625;violin
197.742042;0.08901516041666468;82;0.625;violin
197.8329511;0.08901516041666468;87;0.625;violin
197.92386019999998;0.0890151604166931;84;0.625;violin
198.01476929999998;0.08901516041666468;82;0.625;violin
198.1056784;0.08901516041666468;80;0.625;violin
198.1965875;0.08901516041666468;79;0.625;violin
198.2874966;0.08901516041666468;77;0.625;violin
198.3784057;0.08901516041666468;75;0.625;violin
198.4693148;0.08901516041663626;74;0.625;violin
198.56022389999998;0.0890151604166931;72;0.625;violin
198.651133;0.22537881041668584;70;0.625;violin
199.10567849999998;0.22537881041668584;55;0.625;violin
199.10567849999998;0.22537881041668584;63;0.625;violin
199.560224;0.22537881041665742;56;0.625;violin
199.560224;0.22537881041665742;65;0.625;violin
200.0147695;0.22537881041665742;57;0.625;violin
200.0147695;0.22537881041665742;66;0.625;violin
200.469315;0.4526515604166548;58;0.9375;violin
200.469315;0.4526515604166548;67;0.9375;violin
200.9238605;0.4526515604166548;55;0.625;violin
200.9238605;0.4526515604166548;63;0.625;violin
201.37840599999998;0.06818182500001058;82;0.9375;violin
201.44848176458333;0.06818182499998215;91;0.625;violin
201.51855752916666;0.06818182500001058;89;0.625;violin
201.58863329374998;0.06818182500001058;87;0.625;violin
201.65870905833333;0.06818182500001058;86;0.625;violin
201.72878482291665;0.06818182500001058;84;0.625;violin
201.7988605875;0.06818182499998215;82;0.625;violin
201.86704241249998;0.06818182500001058;80;0.625;violin
201.93711817708333;0.06818182499998215;79;0.625;violin
202.00719394166666;0.06818182500001058;77;0.625;violin
202.07726970624998;0.06818182500001058;75;0.625;violin
202.14734547083333;0.06818182500001058;74;0.625;violin
202.21742123541665;0.06818182500001058;72;0.625;violin
202.287497;0.22537881041665742;70;0.625;violin
202.7420425;0.22537881041665742;55;0.625;violin
202.7420425;0.22537881041665742;63;0.625;violin
203.196588;0.22537881041665742;56;0.625;violin
203.196588;0.22537881041665742;65;0.625;violin
203.6511335;0.22537881041668584;58;0.625;violin
203.6511335;0.22537881041668584;67;0.625;violin
204.105679;0.9071970604166495;55;0.9375;violin
204.105679;0.9071970604166495;63;0.9375;violin
205.01477;0.08143940208333333;81;0.9375;violin
205.09810334166667;0.08143940208333333;82;0.625;violin
205.17954274375;0.08143940208333333;87;0.625;violin
205.26287608541668;0.08143940208333333;84;0.625;violin
205.34620942708332;0.08143940208333333;82;0.625;violin
205.42764882916666;0.08143940208333333;80;0.625;violin
205.51098217083333;0.08143940208333333;79;0.625;violin
205.59242157291666;0.08143940208333333;77;0.625;violin
205.6757549145833;0.08143940208333333;75;0.625;violin
205.75908825624998;0.08143940208333333;74;0.625;violin
205.84052765833331;0.08143940208333333;72;0.625;violin
205.923861;0.22537881041665742;70;0.625;violin
206.37840649999998;0.22537881041665742;55;0.625;violin
206.37840649999998;0.22537881041665742;63;0.625;violin
206.83295199999998;0.22537881041668584;56;0.625;violin
206.83295199999998;0.22537881041668584;65;0.625;violin
207.28749749999997;0.22537881041668584;57;0.625;violin
207.28749749999997;0.22537881041668584;66;0.625;violin
207.742043;0.4526515604166832;58;0.9375;violin
207.742043;0.4526515604166832;67;0.9375;violin
208.1965885;0.4526515604166832;55;0.625;violin
208.1965885;0.4526515604166832;63;0.625;violin
208.65113399999998;0.06818182500001058;82;0.9375;violin
208.7212097645833;0.06818182500001058;91;0.625;violin
208.79128552916666;0.06818182500001058;89;0.625;violin
208.86136129375;0.06818182499998215;87;0.625;violin
208.93143705833333;0.06818182499998215;86;0.625;violin
209.00151282291665;0.06818182500001058;84;0.625;violin
209.0715885875;0.06818182499998215;82;0.625;violin
209.13977041249998;0.06818182500001058;80;0.625;violin
209.2098461770833;0.06818182500001058;79;0.625;violin
209.27992194166666;0.06818182500001058;77;0.625;violin
209.34999770625;0.06818182499998215;75;0.625;violin
209.42007347083333;0.06818182499998215;74;0.625;violin
209.49014923541665;0.06818182500001058;72;0.625;violin
209.560225;0.22537881041665742;70;0.625;violin
210.0147705;0.22537881041665742;55;0.625;violin
210.0147705;0.22537881041665742;63;0.625;violin
210.469316;0.22537881041665742;56;0.625;violin
210.469316;0.22537881041665742;65;0.625;violin
210.9238615;0.22537881041665742;58;0.625;violin
210.9238615;0.22537881041665742;65;0.625;violin
210.9238615;0.22537881041665742;74;0.625;violin
211.37840699999998;0.9071970604166779;55;0.625;violin
211.37840699999998;0.9071970604166779;63;0.625;violin
211.37840699999998;0.9071970604166779;75;0.625;violin
