start;duration;pitch;velocity;instrument
0.0;0.06363641666666665;60;0.9375;violin
0.06477278125;0.06363641666666667;64;0.9375;violin
0.1295455625;0.5443186354166667;67;0.9375;violin
0.5454549999999999;0.2715911354166667;55;0.9375;violin
0.8181824999999999;0.2715911354166666;60;0.9375;violin
1.0909099999999998;0.2715911354166667;64;0.9375;violin
1.3636374999999998;0.2715911354166667;67;0.9375;violin
1.6363649999999998;0.2715911354166667;64;0.9375;violin
1.9090924999999999;0.2715911354166667;60;0.9375;violin
2.1818199999999996;0.2715911354166667;67;0.9375;violin
2.4545475;0.5443186354166665;55;0.9375;violin
3.2727299999999997;0.06363641666666675;60;0.9375;violin
3.3375027812499996;0.06363641666666675;64;0.9375;violin
3.4022755624999994;0.5443186354166669;67;0.9375;violin
3.8181849999999997;0.27159113541666624;55;0.9375;violin
4.090912499999999;0.27159113541666713;60;0.9375;violin
4.363639999999999;0.27159113541666713;64;0.9375;violin
4.6363674999999995;0.27159113541666624;67;0.9375;violin
4.909095;0.27159113541666624;64;0.9375;violin
5.181822499999999;0.27159113541666713;60;0.9375;violin
5.454549999999999;0.27159113541666624;67;0.9375;violin
5.7272775;0.5443186354166665;55;0.9375;violin
6.545459999999999;0.0636364166666663;60;0.9375;violin
6.610232781249999;0.0636364166666672;64;0.9375;violin
6.675005562499999;0.5443186354166665;67;0.9375;violin
7.090914999999999;0.135227385416667;55;0.625;violin
7.363642499999999;0.13522738541666612;60;0.625;violin
7.636369999999999;0.13522738541666612;64;0.625;violin
7.909097499999999;0.135227385416667;67;0.625;violin
8.181824999999998;0.27159113541666713;72;0.75;violin
8.454552499999998;0.27159113541666713;67;0.75;violin
8.727279999999999;0.27159113541666713;76;0.75;violin
9.000007499999999;0.27159113541666713;72;0.75;violin
9.272734999999999;0.27159113541666713;67;0.75;violin
9.5454625;0.27159113541666535;76;0.75;violin
9.81819;0.27159113541666535;72;0.75;violin
10.090917499999998;0.27159113541666713;67;0.75;violin
10.363644999999998;0.27159113541666713;64;0.75;violin
10.636372499999998;0.27159113541666713;67;0.75;violin
10.909099999999999;0.27159113541666713;64;0.75;violin
11.181827499999999;0.27159113541666713;60;0.75;violin
11.454555;0.0625000520833332;55;0.75;violin
11.518191416666665;0.879546072916666;67;0.75;violin
13.907964637499997;0.0636364166666663;60;0.9921875;violin
13.972737418749997;0.06363641666666808;64;0.9921875;violin
14.037510199999998;0.5443186354166656;67;0.9921875;violin
14.453419637499998;0.27159113541666713;55;0.9921875;violin
14.726147137499998;0.27159113541666535;60;0.9921875;violin
14.998874637499998;0.27159113541666535;64;0.9921875;violin
15.271602137499997;0.27159113541666713;67;0.9921875;violin
15.544329637499997;0.27159113541666713;64;0.9921875;violin
15.817057137499997;0.27159113541666713;60;0.9921875;violin
16.089784637499996;0.27159113541666713;67;0.9921875;violin
16.362512137499998;0.5443186354166656;55;0.9921875;violin
17.180694637499997;0.06363641666666808;60;0.9921875;violin
17.245467418749996;0.06363641666666808;64;0.9921875;violin
17.310240199999996;0.5443186354166691;67;0.9921875;violin
17.726149637499997;0.27159113541666713;55;0.9921875;violin
17.998877137499996;0.27159113541666713;60;0.9921875;violin
18.271604637499998;0.27159113541666713;64;0.9921875;violin
18.544332137499996;0.27159113541666713;67;0.9921875;violin
18.817059637499998;0.27159113541666713;64;0.9921875;violin
19.089787137499997;0.27159113541666713;60;0.9921875;violin
19.3625146375;0.2715911354166636;67;0.9921875;violin
19.635242137499997;0.5443186354166656;55;0.9921875;violin
20.453424637499996;0.06363641666666808;60;0.9921875;violin
20.51819741875;0.06363641666666453;64;0.9921875;violin
20.5829702;0.5443186354166656;67;0.9921875;violin
20.998879637499996;0.13522738541666612;55;0.75;violin
21.2716071375;0.13522738541666612;60;0.75;violin
21.544334637499997;0.13522738541666612;64;0.75;violin
21.817062137499995;0.13522738541666968;67;0.75;violin
22.089789637499997;0.2715911354166636;72;0.75;violin
22.362517137499996;0.27159113541666713;67;0.75;violin
22.635244637499994;0.2715911354166707;76;0.75;violin
22.907972137499996;0.27159113541666713;72;0.75;violin
23.1806996375;0.2715911354166636;67;0.75;violin
23.453427137499997;0.27159113541666713;76;0.75;violin
23.726154637499995;0.27159113541666713;72;0.75;violin
23.998882137499997;0.2715911354166636;67;0.75;violin
24.271609637499996;0.27159113541666713;64;0.75;violin
24.544337137499994;0.2715911354166707;60;0.75;violin
24.817064637499996;0.27159113541666713;67;0.75;violin
25.089792137499998;0.2715911354166636;55;0.75;violin
25.362519637499997;0.0625000520833332;60;0.75;violin
25.42615605416666;0.8795460729166678;72;0.75;violin
27.815929275;0.1416667729166683;72;0.3828125;violin
27.958786524999997;0.1416667729166683;84;0.3828125;violin
28.101643775;0.07023814791666538;83;0.3828125;violin
28.244501024999998;0.07023814791666538;81;0.3828125;violin
28.387358274999997;0.07023814791666894;79;0.3828125;violin
28.530215525;0.07023814791666538;77;0.3828125;violin
28.673072774999998;0.07023814791666894;76;0.3828125;violin
28.815930025;0.07023814791666538;74;0.3828125;violin
28.958787275;0.14166677291666474;72;0.3828125;violin
28.958787275;0.14166677291666474;76;0.3828125;violin
29.101644524999998;0.1416667729166683;84;0.3828125;violin
29.101644524999998;0.1416667729166683;88;0.3828125;violin
29.244501775;0.07023814791666538;83;0.3828125;violin
29.244501775;0.07023814791666538;86;0.3828125;violin
29.387359025;0.07023814791666538;81;0.3828125;violin
29.387359025;0.07023814791666538;84;0.3828125;violin
29.530216274999997;0.07023814791666894;79;0.3828125;violin
29.530216274999997;0.07023814791666894;83;0.3828125;violin
29.673073525;0.07023814791666538;77;0.3828125;violin
29.673073525;0.07023814791666538;81;0.3828125;violin
29.815930774999998;0.07023814791666894;76;0.3828125;violin
29.815930774999998;0.07023814791666894;79;0.3828125;violin
29.958788024999997;0.07023814791666894;74;0.3828125;violin
29.958788024999997;0.07023814791666894;77;0.3828125;violin
30.101645275;0.07023814791666538;72;0.3828125;violin
30.101645275;0.07023814791666538;76;0.3828125;violin
30.244502524999998;0.07023814791666538;71;0.3828125;violin
30.244502524999998;0.07023814791666538;74;0.3828125;violin
30.387359775;0.07023814791666538;69;0.3828125;violin
30.387359775;0.07023814791666538;72;0.3828125;violin
30.530217025;0.07023814791666538;67;0.3828125;violin
30.530217025;0.07023814791666538;71;0.3828125;violin
30.673074274999998;0.07023814791666894;65;0.3828125;violin
30.673074274999998;0.07023814791666894;69;0.3828125;violin
30.815931525;0.07023814791666538;64;0.3828125;violin
30.815931525;0.07023814791666538;67;0.3828125;violin
30.958788775;0.07023814791666538;62;0.3828125;violin
30.958788775;0.07023814791666538;65;0.3828125;violin
31.101646024999997;0.07023814791666894;60;0.3828125;violin
31.101646024999997;0.07023814791666894;64;0.3828125;violin
31.244503275;0.5702385229166644;60;0.5703125;violin
31.244503275;0.5702385229166644;64;0.5703125;violin
31.815932274999998;0.284524022916667;59;0.3828125;violin
31.815932274999998;0.284524022916667;62;0.3828125;violin
32.387361274999996;0.14166677291667185;74;0.3828125;violin
32.530218524999995;0.14166677291667185;86;0.3828125;violin
32.673075775;0.07023814791666183;84;0.3828125;violin
32.815933025;0.07023814791666183;83;0.3828125;violin
32.958790275;0.07023814791666894;81;0.3828125;violin
33.101647525;0.07023814791666894;79;0.3828125;violin
33.244504774999996;0.07023814791666894;77;0.3828125;violin
33.387362025;0.07023814791666183;76;0.3828125;violin
33.530219275;0.14166677291666474;74;0.3828125;violin
33.530219275;0.14166677291666474;77;0.3828125;violin
33.673076525;0.14166677291666474;86;0.3828125;violin
33.673076525;0.14166677291666474;89;0.3828125;violin
33.815933775;0.07023814791666894;84;0.3828125;violin
33.815933775;0.07023814791666894;88;0.3828125;violin
33.958791025;0.07023814791666894;83;0.3828125;violin
33.958791025;0.07023814791666894;86;0.3828125;violin
34.101648275;0.07023814791666183;81;0.3828125;violin
34.101648275;0.07023814791666183;84;0.3828125;violin
34.244505525;0.07023814791666183;79;0.3828125;violin
34.244505525;0.07023814791666183;83;0.3828125;violin
34.387362775;0.07023814791666894;77;0.3828125;violin
34.387362775;0.07023814791666894;81;0.3828125;violin
34.530220025;0.07023814791666894;76;0.3828125;violin
34.530220025;0.07023814791666894;79;0.3828125;violin
34.673077275;0.07023814791666894;74;0.3828125;violin
34.673077275;0.07023814791666894;77;0.3828125;violin
34.815934524999996;0.07023814791666894;72;0.3828125;violin
34.815934524999996;0.07023814791666894;76;0.3828125;violin
34.958791775;0.07023814791666183;71;0.3828125;violin
34.958791775;0.07023814791666183;74;0.3828125;violin
35.101649025;0.07023814791666894;69;0.3828125;violin
35.101649025;0.07023814791666894;72;0.3828125;violin
35.244506275;0.07023814791666894;67;0.3828125;violin
35.244506275;0.07023814791666894;71;0.3828125;violin
35.387363525;0.07023814791666894;65;0.3828125;violin
35.387363525;0.07023814791666894;69;0.3828125;violin
35.530220775;0.07023814791666894;64;0.3828125;violin
35.530220775;0.07023814791666894;67;0.3828125;violin
35.673078024999995;0.07023814791666894;62;0.3828125;violin
35.673078024999995;0.07023814791666894;65;0.3828125;violin
35.815935275;0.570238522916668;62;0.5703125;violin
35.815935275;0.570238522916668;65;0.5703125;violin
36.387364274999996;0.28452402291667056;60;0.3828125;violin
36.387364274999996;0.28452402291667056;64;0.3828125;violin
36.958793275;0.14166677291667185;76;0.3828125;violin
36.958793275;0.14166677291667185;79;0.3828125;violin
37.101650525;0.14166677291666474;72;0.3828125;violin
37.101650525;0.14166677291666474;76;0.3828125;violin
37.244507775;0.07023814791666183;74;0.3828125;violin
37.244507775;0.07023814791666183;77;0.3828125;violin
37.387365025;0.07023814791666183;75;0.3828125;violin
37.387365025;0.07023814791666183;78;0.3828125;violin
37.530222275;0.07023814791666894;76;0.3828125;violin
37.530222275;0.07023814791666894;79;0.3828125;violin
37.673079525;0.07023814791666894;81;0.3828125;violin
37.673079525;0.07023814791666894;84;0.3828125;violin
37.815936775;0.07023814791666894;81;0.3828125;violin
37.815936775;0.07023814791666894;84;0.3828125;violin
37.958794025;0.07023814791666183;79;0.3828125;violin
37.958794025;0.07023814791666183;83;0.3828125;violin
38.101651274999995;0.07023814791666894;79;0.3828125;violin
38.101651274999995;0.07023814791666894;83;0.3828125;violin
38.244508525;0.07023814791666894;77;0.3828125;violin
38.244508525;0.07023814791666894;81;0.3828125;violin
38.387365775;0.07023814791666894;76;0.3828125;violin
38.387365775;0.07023814791666894;79;0.3828125;violin
38.530223025;0.07023814791666894;75;0.3828125;violin
38.530223025;0.07023814791666894;78;0.3828125;violin
38.673080275;0.28452402291667056;75;0.3828125;violin
38.673080275;0.28452402291667056;78;0.3828125;violin
38.958794775;0.28452402291666345;76;0.3828125;violin
38.958794775;0.28452402291666345;79;0.3828125;violin
39.244509275;0.14166677291666474;76;0.3828125;violin
39.244509275;0.14166677291666474;79;0.3828125;violin
39.387366525;0.14166677291667185;72;0.3828125;violin
39.387366525;0.14166677291667185;76;0.3828125;violin
39.530223774999996;0.07023814791666894;74;0.3828125;violin
39.530223774999996;0.07023814791666894;77;0.3828125;violin
39.673081025;0.07023814791666183;75;0.3828125;violin
39.673081025;0.07023814791666183;78;0.3828125;violin
39.815938275;0.07023814791666183;76;0.3828125;violin
39.815938275;0.07023814791666183;79;0.3828125;violin
39.958795525;0.07023814791666894;81;0.3828125;violin
39.958795525;0.07023814791666894;84;0.3828125;violin
40.101652775;0.07023814791666894;81;0.3828125;violin
40.101652775;0.07023814791666894;84;0.3828125;violin
40.244510025;0.07023814791666894;79;0.3828125;violin
40.244510025;0.07023814791666894;83;0.3828125;violin
40.387367275;0.07023814791666183;79;0.3828125;violin
40.387367275;0.07023814791666183;83;0.3828125;violin
40.530224525;0.07023814791666183;77;0.3828125;violin
40.530224525;0.07023814791666183;81;0.3828125;violin
40.673081775;0.07023814791666894;76;0.3828125;violin
40.673081775;0.07023814791666894;79;0.3828125;violin
40.815939025;0.07023814791666894;75;0.3828125;violin
40.815939025;0.07023814791666894;78;0.3828125;violin
40.958796275;0.28452402291667056;75;0.3828125;violin
40.958796275;0.28452402291667056;78;0.3828125;violin
41.244510774999995;0.28452402291667056;76;0.3828125;violin
41.244510774999995;0.28452402291667056;79;0.3828125;violin
41.530225275;0.14166677291666474;64;0.3828125;violin
41.530225275;0.14166677291666474;67;0.3828125;violin
41.673082525;0.14166677291666474;60;0.3828125;violin
41.673082525;0.14166677291666474;64;0.3828125;violin
41.815939775;0.07023814791666894;62;0.3828125;violin
41.815939775;0.07023814791666894;65;0.3828125;violin
41.958797024999996;0.07023814791666894;63;0.3828125;violin
41.958797024999996;0.07023814791666894;66;0.3828125;violin
42.101654275;0.07023814791666894;64;0.3828125;violin
42.101654275;0.07023814791666894;67;0.3828125;violin
42.244511525;0.07023814791666183;65;0.3828125;violin
42.244511525;0.07023814791666183;69;0.3828125;violin
42.387368775;0.07023814791666894;67;0.3828125;violin
42.387368775;0.07023814791666894;71;0.3828125;violin
42.530226025;0.07023814791666894;69;0.3828125;violin
42.530226025;0.07023814791666894;72;0.3828125;violin
42.673083274999996;0.07023814791666894;71;0.3828125;violin
42.673083274999996;0.07023814791666894;74;0.3828125;violin
42.815940525;0.07023814791666183;72;0.3984375;violin
42.815940525;0.07023814791666183;76;0.3984375;violin
42.958797775;0.07023814791666183;74;0.421875;violin
42.958797775;0.07023814791666183;77;0.421875;violin
43.101655025;0.07023814791666894;76;0.4453125;violin
43.101655025;0.07023814791666894;79;0.4453125;violin
43.244512275;0.07023814791666894;77;0.46875;violin
43.244512275;0.07023814791666894;81;0.46875;violin
43.387369525;0.07023814791666894;79;0.4921875;violin
43.387369525;0.07023814791666894;83;0.4921875;violin
43.530226775;0.07023814791666183;81;0.515625;violin
43.530226775;0.07023814791666183;84;0.515625;violin
43.673084025;0.07023814791666183;83;0.5390625;violin
43.673084025;0.07023814791666183;86;0.5390625;violin
43.815941275;0.28452402291667056;84;0.5625;violin
43.815941275;0.28452402291667056;88;0.5625;violin
44.387370274999995;0.0630952854166722;62;0.65625;violin
44.4516560375;0.28452402291666345;81;0.6640625;violin
44.4516560375;0.28452402291666345;90;0.6640625;violin
44.958799275000004;0.06309528541666509;55;0.75;violin
44.958799275000004;0.06309528541666509;62;0.75;violin
45.023085037499996;0.570238522916668;79;0.75;violin
45.023085037499996;0.570238522916668;91;0.75;violin
46.101657275;0.14166677291666474;67;0.3828125;violin
46.244514525;0.14166677291666474;79;0.3828125;violin
46.387371775;0.07023814791666894;78;0.3828125;violin
46.530229025;0.07023814791666894;76;0.3828125;violin
46.673086275;0.07023814791666183;74;0.3828125;violin
46.815943524999994;0.07023814791666894;72;0.3828125;violin
46.958800775;0.07023814791666894;71;0.3828125;violin
47.101658025;0.07023814791666894;69;0.3828125;violin
47.244515275;0.14166677291666474;67;0.3828125;violin
47.244515275;0.14166677291666474;71;0.3828125;violin
47.387372525;0.14166677291666474;79;0.3828125;violin
47.387372525;0.14166677291666474;83;0.3828125;violin
47.530229774999995;0.07023814791666894;78;0.3828125;violin
47.530229774999995;0.07023814791666894;81;0.3828125;violin
47.673087025;0.07023814791666894;76;0.3828125;violin
47.673087025;0.07023814791666894;79;0.3828125;violin
47.815944275;0.07023814791666183;74;0.3828125;violin
47.815944275;0.07023814791666183;78;0.3828125;violin
47.958801525;0.07023814791666894;72;0.3828125;violin
47.958801525;0.07023814791666894;76;0.3828125;violin
48.101658775000004;0.07023814791666183;71;0.3828125;violin
48.101658775000004;0.07023814791666183;74;0.3828125;violin
48.244516024999996;0.07023814791666894;69;0.3828125;violin
48.244516024999996;0.07023814791666894;72;0.3828125;violin
48.387373275;0.14166677291666474;67;0.3828125;violin
48.387373275;0.14166677291666474;71;0.3828125;violin
48.530230525;0.14166677291666474;83;0.3828125;violin
48.530230525;0.14166677291666474;86;0.3828125;violin
48.673087775;0.14166677291666474;59;0.3828125;violin
48.673087775;0.14166677291666474;62;0.3828125;violin
48.815945025000005;0.14166677291666474;60;0.3828125;violin
48.815945025000005;0.14166677291666474;64;0.3828125;violin
48.958802275;0.14166677291666474;62;0.3828125;violin
48.958802275;0.14166677291666474;65;0.3828125;violin
49.101659525;0.14166677291666474;64;0.3828125;violin
49.101659525;0.14166677291666474;67;0.3828125;violin
49.244516775;0.14166677291666474;65;0.3828125;violin
49.244516775;0.14166677291666474;69;0.3828125;violin
49.387374025;0.14166677291666474;64;0.3828125;violin
49.387374025;0.14166677291666474;67;0.3828125;violin
49.530231275;0.14166677291667185;64;0.3828125;violin
49.530231275;0.14166677291667185;67;0.3828125;violin
49.673088525;0.14166677291666474;62;0.3828125;violin
49.673088525;0.14166677291666474;65;0.3828125;violin
49.815945775;0.14166677291666474;62;0.3828125;violin
49.815945775;0.14166677291666474;65;0.3828125;violin
49.958803024999995;0.14166677291667185;60;0.3828125;violin
49.958803024999995;0.14166677291667185;64;0.3828125;violin
50.101660275;0.28452402291667056;60;0.3828125;violin
50.101660275;0.28452402291667056;64;0.3828125;violin
50.387374775;0.28452402291667056;59;0.3828125;violin
50.387374775;0.28452402291667056;62;0.3828125;violin
50.673089274999995;0.14166677291667185;67;0.3828125;violin
50.815946525;0.14166677291666474;79;0.3828125;violin
50.958803775;0.07023814791666183;78;0.3828125;violin
51.101661025;0.07023814791666894;76;0.3828125;violin
51.244518275000004;0.07023814791666183;74;0.3828125;violin
51.387375524999996;0.07023814791666894;72;0.3828125;violin
51.530232775;0.07023814791666894;71;0.3828125;violin
51.673090025;0.07023814791666183;69;0.3828125;violin
51.815947275;0.14166677291666474;67;0.3828125;violin
51.815947275;0.14166677291666474;71;0.3828125;violin
51.958804525000005;0.14166677291666474;79;0.3828125;violin
51.958804525000005;0.14166677291666474;83;0.3828125;violin
52.101661775;0.07023814791666894;78;0.3828125;violin
52.101661775;0.07023814791666894;81;0.3828125;violin
52.244519025;0.07023814791666894;76;0.3828125;violin
52.244519025;0.07023814791666894;79;0.3828125;violin
52.387376275;0.07023814791666183;74;0.3828125;violin
52.387376275;0.07023814791666183;78;0.3828125;violin
52.530233525;0.07023814791666894;72;0.3828125;violin
52.530233525;0.07023814791666894;76;0.3828125;violin
52.673090775;0.07023814791666894;71;0.3828125;violin
52.673090775;0.07023814791666894;74;0.3828125;violin
52.815948025;0.07023814791666894;69;0.3828125;violin
52.815948025;0.07023814791666894;72;0.3828125;violin
52.958805275;0.14166677291666474;67;0.3828125;violin
52.958805275;0.14166677291666474;71;0.3828125;violin
53.101662524999995;0.14166677291667185;83;0.3828125;violin
53.101662524999995;0.14166677291667185;86;0.3828125;violin
53.244519775;0.14166677291666474;59;0.3828125;violin
53.244519775;0.14166677291666474;62;0.3828125;violin
53.387377025;0.14166677291667185;60;0.3828125;violin
53.387377025;0.14166677291667185;64;0.3828125;violin
53.530234275;0.14166677291666474;62;0.3828125;violin
53.530234275;0.14166677291666474;65;0.3828125;violin
53.673091525000004;0.14166677291666474;64;0.3828125;violin
53.673091525000004;0.14166677291666474;67;0.3828125;violin
53.815948774999995;0.14166677291667185;65;0.3828125;violin
53.815948774999995;0.14166677291667185;69;0.3828125;violin
53.958806025;0.14166677291666474;64;0.3828125;violin
53.958806025;0.14166677291666474;67;0.3828125;violin
54.101663275;0.14166677291667185;64;0.3828125;violin
54.101663275;0.14166677291667185;67;0.3828125;violin
54.244520525;0.14166677291666474;62;0.3828125;violin
54.244520525;0.14166677291666474;65;0.3828125;violin
54.387377775000004;0.14166677291666474;62;0.3828125;violin
54.387377775000004;0.14166677291666474;65;0.3828125;violin
54.530235024999996;0.14166677291667185;60;0.3828125;violin
54.530235024999996;0.14166677291667185;64;0.3828125;violin
54.673092275;0.28452402291666345;60;0.3828125;violin
54.673092275;0.28452402291666345;64;0.3828125;violin
54.958806775;0.28452402291667056;59;0.3828125;violin
54.958806775;0.28452402291667056;62;0.3828125;violin
55.244521275;0.14166677291666474;72;0.3828125;violin
55.387378525;0.14166677291666474;84;0.3828125;violin
55.530235775;0.07023814791666183;83;0.3828125;violin
55.673093025;0.07023814791666894;81;0.3828125;violin
55.815950275;0.07023814791666894;79;0.3828125;violin
55.958807525;0.07023814791666894;77;0.3828125;violin
56.101664775;0.07023814791666183;76;0.3828125;violin
56.244522024999995;0.07023814791666894;74;0.3828125;violin
56.387379275;0.14166677291666474;72;0.3828125;violin
56.387379275;0.14166677291666474;76;0.3828125;violin
56.530236525;0.14166677291667185;84;0.3828125;violin
56.530236525;0.14166677291667185;88;0.3828125;violin
56.673093775;0.07023814791666894;83;0.3828125;violin
56.673093775;0.07023814791666894;86;0.3828125;violin
56.815951025000004;0.07023814791666183;81;0.3828125;violin
56.815951025000004;0.07023814791666183;84;0.3828125;violin
56.958808274999996;0.07023814791666894;79;0.3828125;violin
56.958808274999996;0.07023814791666894;83;0.3828125;violin
57.101665525;0.07023814791666894;77;0.3828125;violin
57.101665525;0.07023814791666894;81;0.3828125;violin
57.244522775;0.07023814791666183;76;0.3828125;violin
57.244522775;0.07023814791666183;79;0.3828125;violin
57.387380025;0.07023814791666894;74;0.3828125;violin
57.387380025;0.07023814791666894;77;0.3828125;violin
57.530237275000005;0.14166677291666474;72;0.3828125;violin
57.530237275000005;0.14166677291666474;76;0.3828125;violin
57.673094524999996;0.14166677291667185;88;0.3828125;violin
57.673094524999996;0.14166677291667185;91;0.3828125;violin
57.815951775;0.07023814791666894;86;0.3828125;violin
57.815951775;0.07023814791666894;89;0.3828125;violin
57.958809025;0.07023814791666183;84;0.3828125;violin
57.958809025;0.07023814791666183;88;0.3828125;violin
58.101666275;0.07023814791666894;83;0.3828125;violin
58.101666275;0.07023814791666894;86;0.3828125;violin
58.244523525000005;0.07023814791666183;81;0.3828125;violin
58.244523525000005;0.07023814791666183;84;0.3828125;violin
58.387380775;0.07023814791666894;79;0.3828125;violin
58.387380775;0.07023814791666894;83;0.3828125;violin
58.530238025;0.07023814791666894;77;0.3828125;violin
58.530238025;0.07023814791666894;81;0.3828125;violin
58.673095275;0.28452402291666345;76;0.3828125;violin
58.673095275;0.28452402291666345;79;0.3828125;violin
58.958809775;0.14166677291667185;72;0.3828125;violin
58.958809775;0.14166677291667185;76;0.3828125;violin
59.101667025;0.14166677291666474;74;0.3828125;violin
59.101667025;0.14166677291666474;77;0.3828125;violin
59.244524275;0.14166677291666474;76;0.3828125;violin
59.244524275;0.14166677291666474;79;0.3828125;violin
59.387381525;0.14166677291666474;81;0.3828125;violin
59.387381525;0.14166677291666474;84;0.3828125;violin
59.530238775;0.14166677291666474;79;0.3828125;violin
59.530238775;0.14166677291666474;83;0.3828125;violin
59.673096025;0.14166677291667185;77;0.3828125;violin
59.673096025;0.14166677291667185;81;0.3828125;violin
59.815953275;0.14166677291666474;77;0.3828125;violin
59.815953275;0.14166677291666474;81;0.3828125;violin
59.958810525000004;0.14166677291666474;76;0.3828125;violin
59.958810525000004;0.14166677291666474;79;0.3828125;violin
60.101667774999996;0.14166677291666474;72;0.3828125;violin
60.101667774999996;0.14166677291666474;76;0.3828125;violin
60.244525025;0.14166677291666474;74;0.3828125;violin
60.244525025;0.14166677291666474;77;0.3828125;violin
60.38738227500001;0.14166677291666474;76;0.3828125;violin
60.38738227500001;0.14166677291666474;79;0.3828125;violin
60.530239525;0.14166677291666474;76;0.3828125;violin
60.530239525;0.14166677291666474;80;0.3828125;violin
60.673096775000005;0.14166677291666474;77;0.3828125;violin
60.673096775000005;0.14166677291666474;81;0.3828125;violin
60.815954024999996;0.14166677291666474;75;0.3828125;violin
60.815954024999996;0.14166677291666474;78;0.3828125;violin
60.958811275;0.14166677291666474;76;0.3828125;violin
60.958811275;0.14166677291666474;79;0.3828125;violin
61.101668524999994;0.14166677291667895;74;0.40625;violin
61.101668524999994;0.14166677291667895;77;0.40625;violin
61.244525775;0.14166677291666474;72;0.4375;violin
61.244525775;0.14166677291666474;76;0.4375;violin
61.387383025000005;0.14166677291666474;71;0.46875;violin
61.387383025000005;0.14166677291666474;74;0.46875;violin
61.530240275;0.14166677291666474;69;0.5;violin
61.530240275;0.14166677291666474;72;0.5;violin
61.673097525;0.14166677291666474;67;0.53125;violin
61.673097525;0.14166677291666474;71;0.53125;violin
61.815954774999994;0.14166677291667895;65;0.5625;violin
61.815954774999994;0.14166677291667895;69;0.5625;violin
61.958812025;0.14166677291666474;64;0.59375;violin
61.958812025;0.14166677291666474;67;0.59375;violin
62.101669275000006;0.28452402291665635;65;0.625;violin
62.101669275000006;0.28452402291665635;69;0.625;violin
62.673098275;0.28452402291667056;55;0.75;violin
62.673098275;0.28452402291667056;67;0.75;violin
62.673098275;0.28452402291667056;77;0.75;violin
62.673098275;0.28452402291667056;83;0.75;violin
63.244527274999996;0.570238522916668;60;0.75;violin
63.244527274999996;0.570238522916668;67;0.75;violin
63.244527274999996;0.570238522916668;76;0.75;violin
63.244527274999996;0.570238522916668;84;0.75;violin
64.387385275;0.14166677291666474;69;0.3828125;violin
64.530242525;0.14166677291666474;81;0.3828125;violin
64.673099775;0.07023814791666894;79;0.3828125;violin
64.815957025;0.07023814791666894;77;0.3828125;violin
64.958814275;0.07023814791666894;76;0.3828125;violin
65.101671525;0.07023814791666894;74;0.3828125;violin
65.244528775;0.07023814791665473;72;0.3828125;violin
65.387386025;0.07023814791666894;71;0.3828125;violin
65.530243275;0.14166677291666474;69;0.3828125;violin
65.530243275;0.14166677291666474;72;0.3828125;violin
65.673100525;0.14166677291667895;81;0.3828125;violin
65.673100525;0.14166677291667895;84;0.3828125;violin
65.815957775;0.07023814791666894;79;0.3828125;violin
65.815957775;0.07023814791666894;83;0.3828125;violin
65.958815025;0.07023814791665473;77;0.3828125;violin
65.958815025;0.07023814791665473;81;0.3828125;violin
66.101672275;0.07023814791666894;76;0.3828125;violin
66.101672275;0.07023814791666894;79;0.3828125;violin
66.244529525;0.07023814791666894;74;0.3828125;violin
66.244529525;0.07023814791666894;77;0.3828125;violin
66.387386775;0.07023814791666894;72;0.3828125;violin
66.387386775;0.07023814791666894;76;0.3828125;violin
66.530244025;0.07023814791666894;71;0.3828125;violin
66.530244025;0.07023814791666894;74;0.3828125;violin
66.67310127500001;0.28452402291665635;69;0.3828125;violin
66.67310127500001;0.28452402291665635;72;0.3828125;violin
66.958815775;0.14166677291666474;71;0.3828125;violin
66.958815775;0.14166677291666474;74;0.3828125;violin
67.101673025;0.14166677291666474;71;0.3828125;violin
67.101673025;0.14166677291666474;75;0.3828125;violin
67.244530275;0.14166677291666474;72;0.3828125;violin
67.244530275;0.14166677291666474;76;0.3828125;violin
67.387387525;0.14166677291667895;72;0.3828125;violin
67.387387525;0.14166677291667895;81;0.3828125;violin
67.530244775;0.14166677291666474;72;0.3828125;violin
67.530244775;0.14166677291666474;76;0.3828125;violin
67.673102025;0.14166677291666474;74;0.3828125;violin
67.673102025;0.14166677291666474;77;0.3828125;violin
67.815959275;0.14166677291666474;74;0.3828125;violin
67.815959275;0.14166677291666474;77;0.3828125;violin
67.958816525;0.14166677291666474;72;0.3828125;violin
67.958816525;0.14166677291666474;76;0.3828125;violin
68.101673775;0.14166677291667895;69;0.3828125;violin
68.101673775;0.14166677291667895;72;0.3828125;violin
68.244531025;0.14166677291666474;71;0.3828125;violin
68.244531025;0.14166677291666474;74;0.3828125;violin
68.387388275;0.14166677291666474;72;0.3828125;violin
68.387388275;0.14166677291666474;76;0.3828125;violin
68.530245525;0.14166677291666474;72;0.3828125;violin
68.530245525;0.14166677291666474;81;0.3828125;violin
68.673102775;0.14166677291666474;72;0.3828125;violin
68.673102775;0.14166677291666474;76;0.3828125;violin
68.815960025;0.14166677291667895;74;0.3828125;violin
68.815960025;0.14166677291667895;77;0.3828125;violin
68.958817275;0.14166677291666474;74;0.3828125;violin
68.958817275;0.14166677291666474;77;0.3828125;violin
69.101674525;0.14166677291666474;72;0.3828125;violin
69.101674525;0.14166677291666474;76;0.3828125;violin
69.244531775;0.14166677291666474;72;0.3828125;violin
69.244531775;0.14166677291666474;81;0.3828125;violin
69.387389025;0.14166677291666474;72;0.3828125;violin
69.387389025;0.14166677291666474;76;0.3828125;violin
69.530246275;0.14166677291666474;72;0.3828125;violin
69.530246275;0.14166677291666474;76;0.3828125;violin
69.673103525;0.14166677291666474;71;0.3828125;violin
69.673103525;0.14166677291666474;74;0.3828125;violin
69.81596077500001;0.14166677291666474;74;0.3828125;violin
69.81596077500001;0.14166677291666474;77;0.3828125;violin
69.958818025;0.14166677291666474;72;0.3828125;violin
69.958818025;0.14166677291666474;76;0.3828125;violin
70.101675275;0.14166677291666474;71;0.3828125;violin
70.101675275;0.14166677291666474;74;0.3828125;violin
70.244532525;0.14166677291666474;69;0.3984375;violin
70.244532525;0.14166677291666474;72;0.3984375;violin
70.387389775;0.07023814791666894;69;0.421875;violin
70.387389775;0.07023814791666894;72;0.421875;violin
70.530247025;0.07023814791666894;67;0.4453125;violin
70.530247025;0.07023814791666894;72;0.4453125;violin
70.673104275;0.14166677291666474;67;0.46875;violin
70.673104275;0.14166677291666474;72;0.46875;violin
70.815961525;0.14166677291666474;65;0.4921875;violin
70.815961525;0.14166677291666474;72;0.4921875;violin
70.958818775;0.07023814791666894;65;0.515625;violin
70.958818775;0.07023814791666894;72;0.515625;violin
71.101676025;0.07023814791666894;64;0.5390625;violin
71.101676025;0.07023814791666894;72;0.5390625;violin
71.244533275;0.07023814791666894;64;0.5625;violin
71.244533275;0.07023814791666894;72;0.5625;violin
71.387390525;0.07023814791666894;63;0.5859375;violin
71.387390525;0.07023814791666894;72;0.5859375;violin
71.530247775;0.07023814791665473;63;0.609375;violin
71.530247775;0.07023814791665473;72;0.609375;violin
71.673105025;0.07023814791666894;63;0.6328125;violin
71.673105025;0.07023814791666894;71;0.6328125;violin
71.815962275;0.07023814791666894;63;0.65625;violin
71.815962275;0.07023814791666894;71;0.65625;violin
71.958819525;0.07023814791666894;63;0.6796875;violin
71.958819525;0.07023814791666894;69;0.6796875;violin
72.101676775;0.07023814791666894;63;0.703125;violin
72.101676775;0.07023814791666894;72;0.703125;violin
72.24453402500001;0.07023814791665473;63;0.7265625;violin
72.24453402500001;0.07023814791665473;69;0.7265625;violin
72.387391275;0.42738127291666217;64;0.75;violin
72.815963025;0.07023814791666894;68;0.75;violin
72.88739165;0.07023814791666894;71;0.75;violin
72.95882027500001;0.28452402291665635;76;0.75;violin
73.530249275;0.14166677291666474;69;0.3828125;violin
73.673106525;0.14166677291667895;81;0.3828125;violin
73.815963775;0.07023814791666894;79;0.3828125;violin
73.958821025;0.07023814791666894;77;0.3828125;violin
74.101678275;0.07023814791666894;76;0.3828125;violin
74.244535525;0.07023814791666894;74;0.3828125;violin
74.387392775;0.07023814791666894;72;0.3828125;violin
74.530250025;0.07023814791666894;71;0.3828125;violin
74.673107275;0.14166677291666474;69;0.3828125;violin
74.673107275;0.14166677291666474;72;0.3828125;violin
74.815964525;0.14166677291666474;81;0.3828125;violin
74.815964525;0.14166677291666474;84;0.3828125;violin
74.958821775;0.07023814791666894;79;0.3828125;violin
74.958821775;0.07023814791666894;83;0.3828125;violin
75.101679025;0.07023814791666894;77;0.3828125;violin
75.101679025;0.07023814791666894;81;0.3828125;violin
75.244536275;0.07023814791666894;76;0.3828125;violin
75.244536275;0.07023814791666894;79;0.3828125;violin
75.38739352500001;0.07023814791665473;74;0.3828125;violin
75.38739352500001;0.07023814791665473;77;0.3828125;violin
75.530250775;0.07023814791666894;72;0.3828125;violin
75.530250775;0.07023814791666894;76;0.3828125;violin
75.673108025;0.07023814791666894;71;0.3828125;violin
75.673108025;0.07023814791666894;74;0.3828125;violin
75.815965275;0.28452402291667056;69;0.3828125;violin
75.815965275;0.28452402291667056;72;0.3828125;violin
76.10167977500001;0.14166677291666474;71;0.3828125;violin
76.10167977500001;0.14166677291666474;74;0.3828125;violin
76.244537025;0.14166677291666474;71;0.3828125;violin
76.244537025;0.14166677291666474;75;0.3828125;violin
76.387394275;0.14166677291666474;72;0.3828125;violin
76.387394275;0.14166677291666474;76;0.3828125;violin
76.530251525;0.14166677291666474;72;0.3828125;violin
76.530251525;0.14166677291666474;81;0.3828125;violin
76.673108775;0.14166677291666474;72;0.3828125;violin
76.673108775;0.14166677291666474;76;0.3828125;violin
76.815966025;0.14166677291667895;74;0.3828125;violin
76.815966025;0.14166677291667895;77;0.3828125;violin
76.958823275;0.14166677291666474;74;0.3828125;violin
76.958823275;0.14166677291666474;77;0.3828125;violin
77.101680525;0.14166677291666474;72;0.3828125;violin
77.101680525;0.14166677291666474;76;0.3828125;violin
77.244537775;0.14166677291666474;69;0.3828125;violin
77.244537775;0.14166677291666474;72;0.3828125;violin
77.387395025;0.14166677291666474;71;0.3828125;violin
77.387395025;0.14166677291666474;74;0.3828125;violin
77.530252275;0.14166677291667895;72;0.3828125;violin
77.530252275;0.14166677291667895;76;0.3828125;violin
77.673109525;0.14166677291666474;72;0.3828125;violin
77.673109525;0.14166677291666474;81;0.3828125;violin
77.815966775;0.14166677291666474;72;0.3828125;violin
77.815966775;0.14166677291666474;76;0.3828125;violin
77.958824025;0.14166677291666474;74;0.3828125;violin
77.958824025;0.14166677291666474;77;0.3828125;violin
78.101681275;0.14166677291666474;74;0.3828125;violin
78.101681275;0.14166677291666474;77;0.3828125;violin
78.244538525;0.14166677291667895;72;0.3828125;violin
78.244538525;0.14166677291667895;76;0.3828125;violin
78.387395775;0.14166677291666474;72;0.3828125;violin
78.387395775;0.14166677291666474;81;0.3828125;violin
78.53025302500001;0.14166677291666474;72;0.3828125;violin
78.53025302500001;0.14166677291666474;76;0.3828125;violin
78.673110275;0.14166677291666474;72;0.3828125;violin
78.673110275;0.14166677291666474;76;0.3828125;violin
78.815967525;0.14166677291666474;71;0.3828125;violin
78.815967525;0.14166677291666474;74;0.3828125;violin
78.958824775;0.14166677291666474;74;0.3828125;violin
78.958824775;0.14166677291666474;77;0.3828125;violin
79.101682025;0.14166677291666474;72;0.3828125;violin
79.101682025;0.14166677291666474;76;0.3828125;violin
79.24453927500001;0.14166677291666474;71;0.3828125;violin
79.24453927500001;0.14166677291666474;74;0.3828125;violin
79.387396525;0.14166677291666474;69;0.3984375;violin
79.387396525;0.14166677291666474;72;0.3984375;violin
79.530253775;0.07023814791666894;69;0.421875;violin
79.530253775;0.07023814791666894;72;0.421875;violin
79.673111025;0.07023814791666894;67;0.4453125;violin
79.673111025;0.07023814791666894;72;0.4453125;violin
79.815968275;0.14166677291666474;67;0.46875;violin
79.815968275;0.14166677291666474;72;0.46875;violin
79.958825525;0.14166677291667895;65;0.4921875;violin
79.958825525;0.14166677291667895;72;0.4921875;violin
80.101682775;0.07023814791666894;65;0.515625;violin
80.101682775;0.07023814791666894;72;0.515625;violin
80.244540025;0.07023814791666894;64;0.5390625;violin
80.244540025;0.07023814791666894;72;0.5390625;violin
80.387397275;0.07023814791666894;64;0.5625;violin
80.387397275;0.07023814791666894;72;0.5625;violin
80.530254525;0.07023814791666894;63;0.5859375;violin
80.530254525;0.07023814791666894;72;0.5859375;violin
80.673111775;0.07023814791666894;63;0.609375;violin
80.673111775;0.07023814791666894;72;0.609375;violin
80.815969025;0.07023814791666894;63;0.6328125;violin
80.815969025;0.07023814791666894;71;0.6328125;violin
80.958826275;0.07023814791665473;63;0.65625;violin
80.958826275;0.07023814791665473;71;0.65625;violin
81.101683525;0.07023814791666894;63;0.6796875;violin
81.101683525;0.07023814791666894;69;0.6796875;violin
81.244540775;0.07023814791666894;63;0.703125;violin
81.244540775;0.07023814791666894;72;0.703125;violin
81.387398025;0.07023814791666894;63;0.7265625;violin
81.387398025;0.07023814791666894;69;0.7265625;violin
81.530255275;0.42738127291666217;64;0.75;violin
81.958827025;0.07023814791666894;68;0.75;violin
82.03025565;0.07023814791666894;71;0.75;violin
82.101684275;0.28452402291667056;76;0.75;violin
82.673113275;0.14166677291666474;60;0.3828125;violin
82.815970525;0.14166677291666474;72;0.3828125;violin
82.958827775;0.07023814791666894;71;0.3828125;violin
83.101685025;0.07023814791666894;69;0.3828125;violin
83.244542275;0.07023814791666894;67;0.3828125;violin
83.387399525;0.07023814791666894;65;0.3828125;violin
83.530256775;0.07023814791666894;64;0.3828125;violin
83.673114025;0.07023814791666894;62;0.3828125;violin
83.815971275;0.14166677291667895;60;0.3828125;violin
83.815971275;0.14166677291667895;64;0.3828125;violin
83.958828525;0.14166677291666474;79;0.3828125;violin
83.958828525;0.14166677291666474;82;0.3828125;violin
84.101685775;0.07023814791665473;77;0.3828125;violin
84.101685775;0.07023814791665473;81;0.3828125;violin
84.244543025;0.07023814791666894;76;0.3828125;violin
84.244543025;0.07023814791666894;79;0.3828125;violin
84.387400275;0.07023814791666894;74;0.3828125;violin
84.387400275;0.07023814791666894;77;0.3828125;violin
84.530257525;0.07023814791666894;72;0.3828125;violin
84.530257525;0.07023814791666894;76;0.3828125;violin
84.673114775;0.07023814791666894;76;0.3828125;violin
84.673114775;0.07023814791666894;79;0.3828125;violin
84.81597202500001;0.07023814791665473;74;0.3828125;violin
84.81597202500001;0.07023814791665473;77;0.3828125;violin
84.958829275;0.07023814791666894;72;0.3828125;violin
84.958829275;0.07023814791666894;76;0.3828125;violin
85.101686525;0.07023814791666894;71;0.3828125;violin
85.101686525;0.07023814791666894;74;0.3828125;violin
85.244543775;0.07023814791666894;69;0.3828125;violin
85.244543775;0.07023814791666894;72;0.3828125;violin
85.387401025;0.07023814791666894;67;0.3828125;violin
85.387401025;0.07023814791666894;71;0.3828125;violin
85.53025827500001;0.07023814791665473;65;0.3828125;violin
85.53025827500001;0.07023814791665473;69;0.3828125;violin
85.673115525;0.07023814791666894;64;0.3828125;violin
85.673115525;0.07023814791666894;67;0.3828125;violin
85.815972775;0.07023814791666894;62;0.3828125;violin
85.815972775;0.07023814791666894;65;0.3828125;violin
85.958830025;0.07023814791666894;60;0.3828125;violin
85.958830025;0.07023814791666894;64;0.3828125;violin
86.101687275;0.570238522916668;58;0.5703125;violin
86.101687275;0.570238522916668;64;0.5703125;violin
86.673116275;0.28452402291667056;57;0.3828125;violin
86.673116275;0.28452402291667056;65;0.3828125;violin
87.24454527500001;0.14166677291666474;62;0.3828125;violin
87.387402525;0.14166677291666474;74;0.3828125;violin
87.530259775;0.07023814791666894;72;0.3828125;violin
87.673117025;0.07023814791666894;71;0.3828125;violin
87.815974275;0.07023814791666894;69;0.3828125;violin
87.95883152500001;0.07023814791665473;67;0.3828125;violin
88.101688775;0.07023814791666894;66;0.3828125;violin
88.244546025;0.07023814791666894;64;0.3828125;violin
88.387403275;0.14166677291666474;62;0.3828125;violin
88.387403275;0.14166677291666474;66;0.3828125;violin
88.530260525;0.14166677291666474;81;0.3828125;violin
88.530260525;0.14166677291666474;84;0.3828125;violin
88.67311777500001;0.07023814791665473;79;0.3828125;violin
88.67311777500001;0.07023814791665473;83;0.3828125;violin
88.815975025;0.07023814791666894;78;0.3828125;violin
88.815975025;0.07023814791666894;81;0.3828125;violin
88.958832275;0.07023814791666894;76;0.3828125;violin
88.958832275;0.07023814791666894;79;0.3828125;violin
89.101689525;0.07023814791666894;74;0.3828125;violin
89.101689525;0.07023814791666894;78;0.3828125;violin
89.244546775;0.07023814791666894;78;0.3828125;violin
89.244546775;0.07023814791666894;81;0.3828125;violin
89.387404025;0.07023814791666894;76;0.3828125;violin
89.387404025;0.07023814791666894;79;0.3828125;violin
89.530261275;0.07023814791666894;74;0.3828125;violin
89.530261275;0.07023814791666894;78;0.3828125;violin
89.673118525;0.07023814791666894;72;0.3828125;violin
89.673118525;0.07023814791666894;76;0.3828125;violin
89.815975775;0.07023814791666894;71;0.3828125;violin
89.815975775;0.07023814791666894;74;0.3828125;violin
89.958833025;0.07023814791666894;69;0.3828125;violin
89.958833025;0.07023814791666894;72;0.3828125;violin
90.101690275;0.07023814791666894;67;0.3828125;violin
90.101690275;0.07023814791666894;71;0.3828125;violin
90.244547525;0.07023814791666894;66;0.3828125;violin
90.244547525;0.07023814791666894;69;0.3828125;violin
90.38740477500001;0.07023814791665473;64;0.3828125;violin
90.38740477500001;0.07023814791665473;67;0.3828125;violin
90.530262025;0.07023814791666894;62;0.3828125;violin
90.530262025;0.07023814791666894;66;0.3828125;violin
90.673119275;0.570238522916668;60;0.5703125;violin
90.673119275;0.570238522916668;66;0.5703125;violin
91.244548275;0.28452402291667056;59;0.3828125;violin
91.244548275;0.28452402291667056;67;0.3828125;violin
91.81597727500001;0.14166677291666474;55;0.3828125;violin
91.81597727500001;0.14166677291666474;65;0.3828125;violin
91.958834525;0.14166677291667895;74;0.3828125;violin
91.958834525;0.14166677291667895;77;0.3828125;violin
92.101691775;0.07023814791666894;72;0.3828125;violin
92.101691775;0.07023814791666894;76;0.3828125;violin
92.24454902500001;0.07023814791665473;71;0.3828125;violin
92.24454902500001;0.07023814791665473;74;0.3828125;violin
92.387406275;0.07023814791666894;69;0.3828125;violin
92.387406275;0.07023814791666894;72;0.3828125;violin
92.53026352500001;0.07023814791666894;67;0.3828125;violin
92.53026352500001;0.07023814791666894;71;0.3828125;violin
92.673120775;0.07023814791666894;65;0.3828125;violin
92.673120775;0.07023814791666894;69;0.3828125;violin
92.815978025;0.07023814791666894;64;0.3828125;violin
92.815978025;0.07023814791666894;67;0.3828125;violin
92.95883527500001;0.07023814791665473;62;0.3828125;violin
92.95883527500001;0.07023814791665473;65;0.3828125;violin
93.101692525;0.07023814791666894;60;0.3828125;violin
93.101692525;0.07023814791666894;64;0.3828125;violin
93.24454977500001;0.07023814791666894;59;0.3828125;violin
93.24454977500001;0.07023814791666894;62;0.3828125;violin
93.387407025;0.07023814791666894;62;0.3828125;violin
93.387407025;0.07023814791666894;65;0.3828125;violin
93.53026427500001;0.28452402291667056;60;0.3828125;violin
93.53026427500001;0.28452402291667056;64;0.3828125;violin
93.815978775;0.28452402291667056;64;0.3828125;violin
93.815978775;0.28452402291667056;67;0.3828125;violin
94.101693275;0.14166677291666474;55;0.3828125;violin
94.101693275;0.14166677291666474;65;0.3828125;violin
94.24455052500001;0.14166677291666474;74;0.3828125;violin
94.24455052500001;0.14166677291666474;77;0.3828125;violin
94.387407775;0.07023814791666894;72;0.3828125;violin
94.387407775;0.07023814791666894;76;0.3828125;violin
94.530265025;0.07023814791666894;71;0.3828125;violin
94.530265025;0.07023814791666894;74;0.3828125;violin
94.67312227500001;0.07023814791665473;69;0.3828125;violin
94.67312227500001;0.07023814791665473;72;0.3828125;violin
94.815979525;0.07023814791666894;67;0.3828125;violin
94.815979525;0.07023814791666894;71;0.3828125;violin
94.95883677500001;0.07023814791666894;65;0.3828125;violin
94.95883677500001;0.07023814791666894;69;0.3828125;violin
95.101694025;0.07023814791666894;64;0.3828125;violin
95.101694025;0.07023814791666894;67;0.3828125;violin
95.244551275;0.07023814791666894;62;0.3828125;violin
95.244551275;0.07023814791666894;65;0.3828125;violin
95.38740852500001;0.07023814791665473;60;0.3828125;violin
95.38740852500001;0.07023814791665473;64;0.3828125;violin
95.530265775;0.07023814791666894;59;0.3828125;violin
95.530265775;0.07023814791666894;62;0.3828125;violin
95.67312302500001;0.07023814791666894;62;0.3828125;violin
95.67312302500001;0.07023814791666894;65;0.3828125;violin
95.815980275;0.28452402291667056;60;0.3828125;violin
95.815980275;0.28452402291667056;64;0.3828125;violin
96.10169477500001;0.28452402291665635;64;0.3828125;violin
96.10169477500001;0.28452402291665635;67;0.3828125;violin
96.38740927500001;0.14166677291666474;65;0.3828125;violin
96.38740927500001;0.14166677291666474;69;0.3828125;violin
96.530266525;0.14166677291666474;69;0.3828125;violin
96.530266525;0.14166677291666474;72;0.3828125;violin
96.67312377500001;0.07023814791666894;67;0.3828125;violin
96.67312377500001;0.07023814791666894;71;0.3828125;violin
96.815981025;0.07023814791666894;66;0.3828125;violin
96.815981025;0.07023814791666894;69;0.3828125;violin
96.958838275;0.14166677291666474;67;0.3828125;violin
96.958838275;0.14166677291666474;71;0.3828125;violin
97.10169552500001;0.14166677291666474;71;0.3828125;violin
97.10169552500001;0.14166677291666474;74;0.3828125;violin
97.244552775;0.07023814791666894;69;0.3828125;violin
97.244552775;0.07023814791666894;72;0.3828125;violin
97.38741002500001;0.07023814791666894;68;0.3828125;violin
97.38741002500001;0.07023814791666894;71;0.3828125;violin
97.530267275;0.14166677291667895;69;0.3828125;violin
97.530267275;0.14166677291667895;72;0.3828125;violin
97.673124525;0.14166677291666474;72;0.3828125;violin
97.673124525;0.14166677291666474;76;0.3828125;violin
97.81598177500001;0.07023814791665473;71;0.3828125;violin
97.81598177500001;0.07023814791665473;74;0.3828125;violin
97.958839025;0.07023814791666894;69;0.3828125;violin
97.958839025;0.07023814791666894;72;0.3828125;violin
98.10169627500001;0.07023814791666894;71;0.3828125;violin
98.10169627500001;0.07023814791666894;74;0.3828125;violin
98.244553525;0.07023814791666894;74;0.3828125;violin
98.244553525;0.07023814791666894;77;0.3828125;violin
98.387410775;0.07023814791666894;72;0.3828125;violin
98.387410775;0.07023814791666894;76;0.3828125;violin
98.53026802500001;0.07023814791665473;71;0.3828125;violin
98.53026802500001;0.07023814791665473;74;0.3828125;violin
98.673125275;0.07023814791666894;72;0.3828125;violin
98.673125275;0.07023814791666894;76;0.3828125;violin
98.81598252500001;0.07023814791666894;71;0.3828125;violin
98.81598252500001;0.07023814791666894;74;0.3828125;violin
98.958839775;0.07023814791666894;69;0.3828125;violin
98.958839775;0.07023814791666894;72;0.3828125;violin
99.101697025;0.07023814791666894;68;0.3828125;violin
99.101697025;0.07023814791666894;71;0.3828125;violin
99.24455427500001;0.07023814791665473;69;0.3828125;violin
99.24455427500001;0.07023814791665473;72;0.3828125;violin
99.387411525;0.07023814791666894;65;0.3828125;violin
99.387411525;0.07023814791666894;69;0.3828125;violin
99.53026877500001;0.07023814791666894;64;0.3828125;violin
99.53026877500001;0.07023814791666894;69;0.3828125;violin
99.673126025;0.07023814791666894;63;0.3828125;violin
99.673126025;0.07023814791666894;69;0.3828125;violin
99.81598327500001;0.570238522916668;64;0.5703125;violin
99.81598327500001;0.570238522916668;69;0.5703125;violin
100.387412275;0.28452402291667056;64;0.3828125;violin
100.387412275;0.28452402291667056;68;0.3828125;violin
100.95884127500001;0.14166677291666474;69;0.3828125;violin
101.101698525;0.14166677291666474;81;0.3828125;violin
101.24455577500001;0.07023814791666894;79;0.3828125;violin
101.387413025;0.07023814791666894;77;0.3828125;violin
101.530270275;0.07023814791666894;76;0.3828125;violin
101.67312752500001;0.07023814791665473;74;0.3828125;violin
101.815984775;0.07023814791666894;72;0.3828125;violin
101.95884202500001;0.07023814791666894;71;0.3828125;violin
102.101699275;0.14166677291666474;69;0.3828125;violin
102.101699275;0.14166677291666474;72;0.3828125;violin
102.24455652500001;0.14166677291666474;81;0.3828125;violin
102.24455652500001;0.14166677291666474;84;0.3828125;violin
102.38741377500001;0.07023814791665473;79;0.3828125;violin
102.38741377500001;0.07023814791665473;83;0.3828125;violin
102.530271025;0.07023814791666894;77;0.3828125;violin
102.530271025;0.07023814791666894;81;0.3828125;violin
102.67312827500001;0.07023814791666894;76;0.3828125;violin
102.67312827500001;0.07023814791666894;79;0.3828125;violin
102.815985525;0.07023814791666894;74;0.3828125;violin
102.815985525;0.07023814791666894;77;0.3828125;violin
102.95884277500001;0.07023814791666894;72;0.3828125;violin
102.95884277500001;0.07023814791666894;76;0.3828125;violin
103.101700025;0.07023814791666894;71;0.3828125;violin
103.101700025;0.07023814791666894;74;0.3828125;violin
103.244557275;0.14166677291666474;69;0.3828125;violin
103.244557275;0.14166677291666474;72;0.3828125;violin
103.38741452500001;0.14166677291666474;84;0.3828125;violin
103.38741452500001;0.14166677291666474;88;0.3828125;violin
103.530271775;0.07023814791666894;83;0.3828125;violin
103.530271775;0.07023814791666894;86;0.3828125;violin
103.67312902500001;0.07023814791666894;81;0.3828125;violin
103.67312902500001;0.07023814791666894;84;0.3828125;violin
103.815986275;0.07023814791666894;79;0.3828125;violin
103.815986275;0.07023814791666894;83;0.3828125;violin
103.958843525;0.07023814791666894;77;0.3828125;violin
103.958843525;0.07023814791666894;81;0.3828125;violin
104.10170077500001;0.07023814791665473;76;0.3828125;violin
104.10170077500001;0.07023814791665473;79;0.3828125;violin
104.244558025;0.07023814791666894;74;0.3828125;violin
104.244558025;0.07023814791666894;77;0.3828125;violin
104.38741527500001;0.28452402291667056;72;0.3828125;violin
104.38741527500001;0.28452402291667056;76;0.3828125;violin
104.673129775;0.14166677291666474;69;0.3828125;violin
104.673129775;0.14166677291666474;72;0.3828125;violin
104.81598702500001;0.14166677291666474;71;0.3828125;violin
104.81598702500001;0.14166677291666474;74;0.3828125;violin
104.958844275;0.14166677291666474;72;0.3828125;violin
104.958844275;0.14166677291666474;76;0.3828125;violin
105.10170152500001;0.14166677291666474;72;0.3828125;violin
105.10170152500001;0.14166677291666474;81;0.3828125;violin
105.244558775;0.14166677291666474;72;0.3828125;violin
105.244558775;0.14166677291666474;76;0.3828125;violin
105.38741602500001;0.14166677291666474;74;0.3828125;violin
105.38741602500001;0.14166677291666474;77;0.3828125;violin
105.53027327500001;0.14166677291666474;74;0.3828125;violin
105.53027327500001;0.14166677291666474;77;0.3828125;violin
105.673130525;0.14166677291666474;72;0.3828125;violin
105.673130525;0.14166677291666474;76;0.3828125;violin
105.81598777500001;0.14166677291666474;72;0.3828125;violin
105.81598777500001;0.14166677291666474;81;0.3828125;violin
105.958845025;0.14166677291666474;72;0.3828125;violin
105.958845025;0.14166677291666474;76;0.3828125;violin
106.10170227500001;0.14166677291666474;72;0.3828125;violin
106.10170227500001;0.14166677291666474;76;0.3828125;violin
106.244559525;0.14166677291667895;71;0.3828125;violin
106.244559525;0.14166677291667895;74;0.3828125;violin
106.387416775;0.14166677291666474;74;0.3828125;violin
106.387416775;0.14166677291666474;77;0.3828125;violin
106.53027402500001;0.14166677291666474;72;0.3828125;violin
106.53027402500001;0.14166677291666474;76;0.3828125;violin
106.673131275;0.14166677291666474;71;0.3828125;violin
106.673131275;0.14166677291666474;74;0.3828125;violin
106.81598852500001;0.14166677291666474;69;0.3984375;violin
106.81598852500001;0.14166677291666474;72;0.3984375;violin
106.958845775;0.07023814791666894;69;0.421875;violin
106.958845775;0.07023814791666894;72;0.421875;violin
107.101703025;0.07023814791666894;69;0.4453125;violin
107.101703025;0.07023814791666894;72;0.4453125;violin
107.24456027500001;0.14166677291666474;67;0.46875;violin
107.24456027500001;0.14166677291666474;72;0.46875;violin
107.387417525;0.14166677291666474;65;0.4921875;violin
107.387417525;0.14166677291666474;72;0.4921875;violin
107.53027477500001;0.07023814791666894;65;0.515625;violin
107.53027477500001;0.07023814791666894;72;0.515625;violin
107.673132025;0.07023814791666894;64;0.5390625;violin
107.673132025;0.07023814791666894;72;0.5390625;violin
107.815989275;0.07023814791666894;64;0.5625;violin
107.815989275;0.07023814791666894;72;0.5625;violin
107.95884652500001;0.07023814791665473;63;0.5859375;violin
107.95884652500001;0.07023814791665473;72;0.5859375;violin
108.101703775;0.07023814791666894;63;0.609375;violin
108.101703775;0.07023814791666894;71;0.609375;violin
108.24456102500001;0.07023814791666894;63;0.6328125;violin
108.24456102500001;0.07023814791666894;69;0.6328125;violin
108.387418275;0.07023814791666894;64;0.65625;violin
108.387418275;0.07023814791666894;72;0.65625;violin
108.53027552500001;0.07023814791666894;69;0.6796875;violin
108.67313277500001;0.07023814791665473;64;0.703125;violin
108.67313277500001;0.07023814791665473;71;0.703125;violin
108.815990025;0.07023814791666894;68;0.7265625;violin
108.95884727500001;0.42738127291666217;57;0.75;violin
109.387419025;0.07023814791666894;64;0.75;violin
109.45884765000001;0.07023814791666894;72;0.75;violin
109.530276275;0.28452402291667056;81;0.75;violin
110.101705275;0.06363641666666808;60;0.9375;violin
110.16647805625;0.06363641666666808;64;0.9375;violin
110.2312508375;0.5443186354166727;67;0.9375;violin
110.647160275;0.27159113541665647;55;0.9375;violin
110.919887775;0.27159113541665647;60;0.9375;violin
111.192615275;0.2715911354166707;64;0.9375;violin
111.465342775;0.2715911354166707;67;0.9375;violin
111.738070275;0.2715911354166707;64;0.9375;violin
112.010797775;0.2715911354166707;60;0.9375;violin
112.283525275;0.2715911354166707;67;0.9375;violin
112.556252775;0.5443186354166585;55;0.9375;violin
113.374435275;0.06363641666666808;60;0.9375;violin
113.43920805625;0.06363641666666808;64;0.9375;violin
113.5039808375;0.5443186354166727;67;0.9375;violin
113.919890275;0.2715911354166707;55;0.9375;violin
114.192617775;0.2715911354166707;60;0.9375;violin
114.465345275;0.27159113541665647;64;0.9375;violin
114.738072775;0.27159113541665647;67;0.9375;violin
115.010800275;0.2715911354166707;64;0.9375;violin
115.283527775;0.2715911354166707;60;0.9375;violin
115.556255275;0.2715911354166707;67;0.9375;violin
115.828982775;0.5443186354166727;55;0.9375;violin
116.647165275;0.06363641666665387;60;0.9375;violin
116.71193805625;0.06363641666666808;64;0.9375;violin
116.7767108375;0.5443186354166585;67;0.9375;violin
117.192620275;0.13522738541666968;55;0.625;violin
117.465347775;0.13522738541666968;60;0.625;violin
117.738075275;0.13522738541666968;64;0.625;violin
118.010802775;0.13522738541666968;67;0.625;violin
118.283530275;0.27159113541665647;72;0.75;violin
118.556257775;0.27159113541665647;67;0.75;violin
118.828985275;0.2715911354166707;76;0.75;violin
119.101712775;0.2715911354166707;72;0.75;violin
119.374440275;0.2715911354166707;67;0.75;violin
119.647167775;0.2715911354166707;76;0.75;violin
119.919895275;0.2715911354166707;72;0.75;violin
120.192622775;0.27159113541665647;67;0.75;violin
120.46535027499999;0.2715911354166707;64;0.75;violin
120.738077775;0.2715911354166707;67;0.75;violin
121.010805275;0.2715911354166707;64;0.75;violin
121.283532775;0.2715911354166707;60;0.75;violin
121.556260275;0.06250005208333675;55;0.75;violin
121.61989669166667;0.8795460729166678;67;0.75;violin
124.0096699125;0.06363641666666808;60;0.9921875;violin
124.07444269375;0.06363641666666808;64;0.9921875;violin
124.139215475;0.5443186354166727;67;0.9921875;violin
124.5551249125;0.2715911354166707;55;0.9921875;violin
124.82785241250001;0.27159113541665647;60;0.9921875;violin
125.10057991250001;0.27159113541665647;64;0.9921875;violin
125.3733074125;0.2715911354166707;67;0.9921875;violin
125.6460349125;0.2715911354166707;64;0.9921875;violin
125.9187624125;0.2715911354166707;60;0.9921875;violin
126.1914899125;0.2715911354166707;67;0.9921875;violin
126.4642174125;0.5443186354166585;55;0.9921875;violin
127.2823999125;0.06363641666666808;60;0.9921875;violin
127.34717269375;0.06363641666666808;64;0.9921875;violin
127.41194547500001;0.5443186354166585;67;0.9921875;violin
127.8278549125;0.2715911354166707;55;0.9921875;violin
128.1005824125;0.2715911354166849;60;0.9921875;violin
128.3733099125;0.2715911354166849;64;0.9921875;violin
128.6460374125;0.2715911354166849;67;0.9921875;violin
128.9187649125;0.2715911354166849;64;0.9921875;violin
129.1914924125;0.2715911354166849;60;0.9921875;violin
129.4642199125;0.2715911354166849;67;0.9921875;violin
129.7369474125;0.5443186354166585;55;0.9921875;violin
130.5551299125;0.06363641666666808;60;0.9921875;violin
130.61990269375;0.06363641666666808;64;0.9921875;violin
130.684675475;0.5443186354166585;67;0.9921875;violin
131.1005849125;0.13522738541666968;55;0.75;violin
131.3733124125;0.13522738541666968;60;0.75;violin
131.64603991250002;0.13522738541664125;64;0.75;violin
131.91876741250002;0.13522738541664125;67;0.75;violin
132.1914949125;0.2715911354166849;72;0.75;violin
132.4642224125;0.2715911354166849;67;0.75;violin
132.7369499125;0.2715911354166849;76;0.75;violin
133.0096774125;0.2715911354166849;72;0.75;violin
133.2824049125;0.27159113541665647;67;0.75;violin
133.5551324125;0.27159113541665647;76;0.75;violin
133.8278599125;0.27159113541665647;72;0.75;violin
134.1005874125;0.27159113541665647;67;0.75;violin
134.3733149125;0.27159113541665647;64;0.75;violin
134.6460424125;0.27159113541665647;60;0.75;violin
134.9187699125;0.27159113541665647;67;0.75;violin
135.1914974125;0.27159113541665647;55;0.75;violin
135.46422491250001;0.06250005208332254;60;0.75;violin
135.52786132916668;0.8795460729166393;72;0.75;violin
