start;duration;pitch;velocity;instrument
0.0;1.7125002854166667;82;0.3828125;violin
0.0;1.7125002854166667;94;0.3828125;violin
1.714286;0.8553572854166669;79;0.3828125;violin
1.714286;0.8553572854166669;91;0.3828125;violin
2.571429;0.8553572854166664;75;0.3828125;violin
2.571429;0.8553572854166664;87;0.3828125;violin
3.428572;0.06071429583333332;82;0.3828125;violin
3.428572;0.06071429583333332;94;0.3828125;violin
3.4910720104166666;1.7125002854166667;70;0.3828125;violin
3.4910720104166666;1.7125002854166667;82;0.3828125;violin
6.857144;1.7125002854166667;70;0.2578125;violin
6.857144;1.7125002854166667;82;0.2578125;violin
8.57143;0.8553572854166678;67;0.2578125;violin
8.57143;0.8553572854166678;79;0.2578125;violin
9.428573;0.855357285416666;63;0.2578125;violin
9.428573;0.855357285416666;75;0.2578125;violin
10.285716;0.06071429583333199;70;0.2578125;violin
10.285716;0.06071429583333199;82;0.2578125;violin
10.348216010416667;1.7732145812500004;58;0.2578125;violin
10.348216010416667;1.7732145812500004;70;0.2578125;violin
15.825954952083332;0.09916666666666707;82;0.3828125;violin
16.02595495208333;0.09916666666666885;82;0.3828125;violin
16.225954952083335;0.09916666666666529;82;0.3828125;violin
16.425954952083334;0.06416666666666515;84;0.3828125;violin
16.49095495208333;0.09916666666666885;82;0.3828125;violin
16.625954952083333;0.09916666666666529;81;0.3828125;violin
16.825954952083332;0.09916666666666885;82;0.3828125;violin
17.02595495208333;0.09916666666666885;58;0.75;violin
17.02595495208333;0.09916666666666885;67;0.75;violin
17.225954952083335;0.09916666666666529;55;0.75;violin
17.225954952083335;0.09916666666666529;63;0.75;violin
17.425954952083334;0.09916666666666529;82;0.3828125;violin
17.625954952083333;0.09916666666666529;82;0.3828125;violin
17.825954952083332;0.09916666666666885;82;0.3828125;violin
18.02595495208333;0.0641666666666687;84;0.3828125;violin
18.090954952083333;0.09916666666666529;82;0.3828125;violin
18.225954952083335;0.09916666666666529;81;0.3828125;violin
18.425954952083334;0.09916666666666529;82;0.3828125;violin
18.625954952083333;0.09916666666666885;58;0.75;violin
18.625954952083333;0.09916666666666885;67;0.75;violin
18.825954952083332;0.09916666666666885;56;0.75;violin
18.825954952083332;0.09916666666666885;65;0.75;violin
19.02595495208333;0.09916666666666885;82;0.3828125;violin
19.225954952083335;0.09916666666666529;82;0.3828125;violin
19.425954952083334;0.09916666666666529;82;0.3828125;violin
19.625954952083333;0.06416666666666515;84;0.3828125;violin
19.690954952083334;0.09916666666666529;82;0.3828125;violin
19.825954952083332;0.09916666666666885;81;0.3828125;violin
20.02595495208333;0.09916666666666885;82;0.3828125;violin
20.225954952083335;0.09916666666666529;58;0.75;violin
20.225954952083335;0.09916666666666529;65;0.75;violin
20.425954952083334;0.09916666666666529;56;0.75;violin
20.425954952083334;0.09916666666666529;62;0.75;violin
20.625954952083333;0.09916666666666885;82;0.3828125;violin
20.825954952083332;0.09916666666666885;82;0.3828125;violin
21.02595495208333;0.09916666666666885;82;0.3828125;violin
21.225954952083335;0.06416666666666515;84;0.3828125;violin
21.290954952083332;0.09916666666666885;82;0.3828125;violin
21.425954952083334;0.09916666666666529;81;0.3828125;violin
21.625954952083333;0.09916666666666885;82;0.3828125;violin
21.825954952083332;0.09916666666666885;58;0.75;violin
21.825954952083332;0.09916666666666885;65;0.75;violin
22.02595495208333;0.09916666666666885;55;0.75;violin
22.02595495208333;0.09916666666666885;63;0.75;violin
22.225954952083335;0.09916666666666529;87;0.3828125;violin
22.425954952083334;0.09916666666666529;87;0.3828125;violin
22.625954952083333;0.09916666666666885;87;0.3828125;violin
22.825954952083332;0.0641666666666687;89;0.3828125;violin
22.890954952083334;0.09916666666666529;87;0.3828125;violin
23.02595495208333;0.09916666666666885;86;0.3828125;violin
23.225954952083335;0.09916666666666529;87;0.3828125;violin
23.425954952083334;0.09916666666666529;58;0.75;violin
23.425954952083334;0.09916666666666529;67;0.75;violin
23.625954952083333;0.09916666666666885;60;0.75;violin
23.625954952083333;0.09916666666666885;68;0.75;violin
23.825954952083336;0.09916666666666174;87;0.3828125;violin
24.02595495208333;0.09916666666666885;87;0.3828125;violin
24.225954952083335;0.09916666666666529;87;0.3828125;violin
24.425954952083334;0.0641666666666687;89;0.3828125;violin
24.490954952083335;0.09916666666666529;87;0.3828125;violin
24.625954952083333;0.09916666666666885;86;0.3828125;violin
24.825954952083336;0.09916666666666529;87;0.3828125;violin
25.02595495208333;0.09916666666666885;60;0.75;violin
25.02595495208333;0.09916666666666885;68;0.75;violin
25.225954952083335;0.09916666666666529;58;0.75;violin
25.225954952083335;0.09916666666666529;67;0.75;violin
25.425954952083334;0.09916666666666529;87;0.3828125;violin
25.625954952083333;0.09916666666666885;87;0.3828125;violin
25.825954952083336;0.09916666666666529;87;0.3828125;violin
26.02595495208333;0.0641666666666687;89;0.3828125;violin
26.090954952083333;0.09916666666666529;87;0.3828125;violin
26.225954952083335;0.09916666666666529;86;0.3828125;violin
26.425954952083334;0.09916666666666529;87;0.3828125;violin
26.625954952083333;0.09916666666666885;58;0.75;violin
26.625954952083333;0.09916666666666885;67;0.75;violin
26.825954952083336;0.09916666666666529;57;0.75;violin
26.825954952083336;0.09916666666666529;66;0.75;violin
27.02595495208333;0.09916666666666885;87;0.3828125;violin
27.225954952083335;0.09916666666666529;87;0.3828125;violin
27.425954952083334;0.09916666666666529;87;0.3828125;violin
27.625954952083333;0.06416666666666515;89;0.3828125;violin
27.690954952083334;0.09916666666666529;87;0.3828125;violin
27.825954952083336;0.09916666666666529;86;0.3828125;violin
28.02595495208333;0.09916666666666885;87;0.3828125;violin
28.225954952083335;0.09916666666666529;57;0.75;violin
28.225954952083335;0.09916666666666529;66;0.75;violin
28.425954952083334;0.061666666666667425;58;0.75;violin
28.425954952083334;0.061666666666667425;65;0.75;violin
28.489288285416666;0.735833333333332;86;0.75;violin
29.22512161875;0.06333333333333258;86;0.75;violin
29.289288285416667;0.2991666666666646;84;0.75;violin
29.52512161875;0.09916666666666529;82;0.75;violin
29.62512161875;0.061666666666667425;79;0.75;violin
29.688454952083333;0.061666666666667425;81;0.75;violin
29.753454952083334;0.061666666666667425;82;0.75;violin
29.818454952083336;0.06166666666666387;84;0.75;violin
29.885121618750002;0.7974999999999959;82;0.75;violin
31.622621618749996;0.09916666666666885;82;0.3828125;violin
31.822621618749995;0.09916666666666885;82;0.3828125;violin
32.022621618749994;0.09916666666666885;82;0.3828125;violin
32.22262161875;0.06416666666666515;84;0.3828125;violin
32.287621618749995;0.09916666666666885;82;0.3828125;violin
32.42262161875;0.09916666666666174;81;0.3828125;violin
32.622621618749996;0.09916666666666885;82;0.3828125;violin
32.82262161875;0.09916666666666174;58;0.75;violin
32.82262161875;0.09916666666666174;67;0.75;violin
33.022621618749994;0.09916666666666885;55;0.75;violin
33.022621618749994;0.09916666666666885;63;0.75;violin
33.22262161875;0.09916666666666885;82;0.3828125;violin
33.42262161875;0.09916666666666174;82;0.3828125;violin
33.622621618749996;0.09916666666666885;82;0.3828125;violin
33.82262161875;0.06416666666666515;84;0.3828125;violin
33.887621618749996;0.09916666666666885;82;0.3828125;violin
34.022621618749994;0.09916666666666885;81;0.3828125;violin
34.22262161875;0.09916666666666885;82;0.3828125;violin
34.42262161875;0.09916666666666174;58;0.75;violin
34.42262161875;0.09916666666666174;67;0.75;violin
34.622621618749996;0.09916666666666885;56;0.75;violin
34.622621618749996;0.09916666666666885;65;0.75;violin
34.82262161875;0.09916666666666174;82;0.3828125;violin
35.022621618749994;0.09916666666666885;82;0.3828125;violin
35.22262161875;0.09916666666666885;82;0.3828125;violin
35.42262161875;0.06416666666666515;84;0.3828125;violin
35.48762161875;0.09916666666666885;82;0.3828125;violin
35.622621618749996;0.09916666666666885;81;0.3828125;violin
35.82262161875;0.09916666666666885;82;0.3828125;violin
36.022621618749994;0.09916666666666885;58;0.75;violin
36.022621618749994;0.09916666666666885;65;0.75;violin
36.22262161875;0.09916666666666885;56;0.75;violin
36.22262161875;0.09916666666666885;62;0.75;violin
36.42262161875;0.09916666666666174;82;0.3828125;violin
36.622621618749996;0.09916666666666885;82;0.3828125;violin
36.82262161875;0.09916666666666885;82;0.3828125;violin
37.022621618749994;0.06416666666667226;84;0.3828125;violin
37.08762161875;0.09916666666666174;82;0.3828125;violin
37.22262161875;0.09916666666666885;81;0.3828125;violin
37.42262161875;0.09916666666666174;82;0.3828125;violin
37.622621618749996;0.09916666666666885;58;0.75;violin
37.622621618749996;0.09916666666666885;65;0.75;violin
37.82262161875;0.09916666666666885;55;0.75;violin
37.82262161875;0.09916666666666885;63;0.75;violin
38.022621618749994;0.09916666666666885;87;0.3828125;violin
38.22262161875;0.09916666666666885;87;0.3828125;violin
38.42262161875;0.09916666666666174;87;0.3828125;violin
38.622621618749996;0.06416666666666515;89;0.3828125;violin
38.68762161875;0.09916666666666174;87;0.3828125;violin
38.82262161875;0.09916666666666885;86;0.3828125;violin
39.022621618749994;0.09916666666666885;87;0.3828125;violin
39.22262161875;0.09916666666666885;58;0.75;violin
39.22262161875;0.09916666666666885;67;0.75;violin
39.42262161875;0.09916666666666174;60;0.75;violin
39.42262161875;0.09916666666666174;68;0.75;violin
39.622621618749996;0.09916666666666885;87;0.3828125;violin
39.82262161875;0.09916666666666885;87;0.3828125;violin
40.022621618749994;0.09916666666666885;87;0.3828125;violin
40.22262161875;0.06416666666666515;89;0.3828125;violin
40.287621618749995;0.09916666666666885;87;0.3828125;violin
40.42262161875;0.09916666666666174;86;0.3828125;violin
40.622621618749996;0.09916666666666885;87;0.3828125;violin
40.82262161875;0.09916666666666885;60;0.75;violin
40.82262161875;0.09916666666666885;68;0.75;violin
41.022621618749994;0.09916666666666885;58;0.75;violin
41.022621618749994;0.09916666666666885;67;0.75;violin
41.22262161875;0.09916666666666885;87;0.3828125;violin
41.42262161875;0.09916666666666174;87;0.3828125;violin
41.622621618749996;0.09916666666666885;87;0.3828125;violin
41.82262161875;0.06416666666666515;89;0.3828125;violin
41.887621618749996;0.09916666666666885;87;0.3828125;violin
42.022621618749994;0.09916666666666885;86;0.3828125;violin
42.22262161875;0.09916666666666885;87;0.3828125;violin
42.42262161875;0.09916666666666174;58;0.75;violin
42.42262161875;0.09916666666666174;67;0.75;violin
42.622621618749996;0.09916666666666885;57;0.75;violin
42.622621618749996;0.09916666666666885;66;0.75;violin
42.82262161875;0.09916666666666885;87;0.3828125;violin
43.022621618749994;0.09916666666666885;87;0.3828125;violin
43.22262161875;0.09916666666666885;87;0.3828125;violin
43.42262161875;0.06416666666666515;89;0.3828125;violin
43.48762161875;0.09916666666666885;87;0.3828125;violin
43.622621618749996;0.09916666666666885;86;0.3828125;violin
43.82262161875;0.09916666666666885;87;0.3828125;violin
44.022621618749994;0.09916666666666885;57;0.75;violin
44.022621618749994;0.09916666666666885;66;0.75;violin
44.22262161875;0.061666666666667425;58;0.75;violin
44.22262161875;0.061666666666667425;65;0.75;violin
44.28595495208333;0.735833333333332;86;0.75;violin
45.02178828541666;0.06333333333333258;86;0.75;violin
45.08595495208333;0.2991666666666717;84;0.75;violin
45.321788285416666;0.09916666666666174;82;0.75;violin
45.42178828541666;0.061666666666667425;79;0.75;violin
45.48512161874999;0.061666666666667425;81;0.75;violin
45.55012161874999;0.061666666666667425;82;0.75;violin
45.615121618749995;0.061666666666667425;84;0.75;violin
45.68178828541666;0.7974999999999994;82;0.75;violin
47.419288285416656;0.09916666666666885;82;0.3828125;violin
47.61928828541666;0.09916666666666174;82;0.3828125;violin
47.819288285416654;0.09916666666666885;82;0.3828125;violin
48.01928828541666;0.06416666666666515;84;0.3828125;violin
48.084288285416655;0.09916666666666885;82;0.3828125;violin
48.21928828541666;0.09916666666666174;81;0.3828125;violin
48.419288285416656;0.09916666666666885;82;0.3828125;violin
48.61928828541666;0.09916666666666174;67;0.75;violin
48.61928828541666;0.09916666666666174;70;0.75;violin
48.819288285416654;0.09916666666666885;65;0.75;violin
48.819288285416654;0.09916666666666885;68;0.75;violin
49.01928828541666;0.09916666666666885;82;0.3828125;violin
49.21928828541666;0.09916666666666174;82;0.3828125;violin
49.419288285416656;0.09916666666666885;82;0.3828125;violin
49.61928828541666;0.06416666666666515;84;0.3828125;violin
49.684288285416656;0.09916666666666885;82;0.3828125;violin
49.819288285416654;0.09916666666666885;81;0.3828125;violin
50.01928828541666;0.09916666666666885;82;0.3828125;violin
50.21928828541666;0.09916666666666174;65;0.75;violin
50.21928828541666;0.09916666666666174;68;0.75;violin
50.419288285416656;0.09916666666666885;63;0.75;violin
50.419288285416656;0.09916666666666885;67;0.75;violin
50.61928828541666;0.09916666666666174;70;0.3828125;violin
50.819288285416654;0.09916666666666885;70;0.3828125;violin
51.01928828541666;0.09916666666666885;70;0.3828125;violin
51.21928828541666;0.06416666666666515;72;0.3828125;violin
51.28428828541666;0.09916666666666885;70;0.3828125;violin
51.419288285416656;0.09916666666666885;69;0.3828125;violin
51.61928828541666;0.09916666666666174;70;0.3828125;violin
51.819288285416654;0.09916666666666885;58;0.75;violin
51.819288285416654;0.09916666666666885;67;0.75;violin
52.01928828541666;0.09916666666666885;56;0.75;violin
52.01928828541666;0.09916666666666885;65;0.75;violin
52.21928828541665;0.09916666666666885;70;0.3828125;violin
52.419288285416656;0.09916666666666885;70;0.3828125;violin
52.61928828541666;0.09916666666666174;70;0.3828125;violin
52.819288285416654;0.06416666666667226;72;0.3828125;violin
52.88428828541666;0.09916666666666174;70;0.3828125;violin
53.01928828541666;0.09916666666666885;69;0.3828125;violin
53.21928828541665;0.09916666666666885;70;0.3828125;violin
53.419288285416656;0.09916666666666885;56;0.75;violin
53.419288285416656;0.09916666666666885;65;0.75;violin
53.61928828541666;0.09916666666666174;55;0.75;violin
53.61928828541666;0.09916666666666174;63;0.75;violin
53.819288285416654;0.09916666666666885;87;0.3828125;violin
54.01928828541666;0.09916666666666885;87;0.3828125;violin
54.21928828541666;0.09916666666666174;87;0.3828125;violin
54.419288285416656;0.06416666666666515;89;0.3828125;violin
54.48428828541665;0.09916666666666885;87;0.3828125;violin
54.61928828541666;0.09916666666666174;86;0.3828125;violin
54.819288285416654;0.09916666666666885;87;0.3828125;violin
55.01928828541666;0.09916666666666885;58;0.75;violin
55.01928828541666;0.09916666666666885;67;0.75;violin
55.21928828541666;0.09916666666666174;60;0.75;violin
55.21928828541666;0.09916666666666174;68;0.75;violin
55.419288285416656;0.09916666666666885;87;0.3828125;violin
55.61928828541666;0.06416666666666515;89;0.3828125;violin
55.684288285416656;0.09916666666666885;87;0.3828125;violin
55.81928828541666;0.09916666666666174;60;0.75;violin
55.81928828541666;0.09916666666666174;68;0.75;violin
56.01928828541666;0.09916666666666885;58;0.75;violin
56.01928828541666;0.09916666666666885;67;0.75;violin
56.21928828541665;0.09916666666666885;87;0.3828125;violin
56.419288285416656;0.06416666666666515;89;0.3828125;violin
56.48428828541665;0.09916666666666885;87;0.3828125;violin
56.61928828541666;0.09916666666666174;58;0.75;violin
56.61928828541666;0.09916666666666174;67;0.75;violin
56.81928828541666;0.09916666666666174;57;0.75;violin
56.81928828541666;0.09916666666666174;66;0.75;violin
57.01928828541666;0.09916666666666885;87;0.3828125;violin
57.21928828541665;0.06416666666667226;89;0.3828125;violin
57.28428828541666;0.09916666666666885;87;0.3828125;violin
57.419288285416656;0.09916666666666885;57;0.75;violin
57.419288285416656;0.09916666666666885;66;0.75;violin
57.61928828541666;0.09916666666666174;56;0.75;violin
57.61928828541666;0.09916666666666174;65;0.75;violin
57.81928828541666;0.09916666666666174;87;0.3828125;violin
58.01928828541666;0.06416666666666515;89;0.3828125;violin
58.084288285416655;0.09916666666666885;87;0.3828125;violin
58.21928828541665;0.09916666666666885;56;0.75;violin
58.21928828541665;0.09916666666666885;65;0.75;violin
58.419288285416656;0.19916666666667027;55;0.75;violin
58.419288285416656;0.19916666666667027;63;0.75;violin
58.61928828541666;0.19916666666666316;87;0.75;violin
58.81928828541666;0.19916666666666316;56;0.75;violin
58.81928828541666;0.19916666666666316;65;0.75;violin
59.01928828541666;0.19916666666666316;84;0.75;violin
59.21928828541665;0.19916666666667027;58;0.75;violin
59.21928828541665;0.19916666666667027;67;0.75;violin
59.419288285416656;0.19916666666667027;82;0.75;violin
59.61928828541666;0.19916666666666316;58;0.75;violin
59.61928828541666;0.19916666666666316;65;0.75;violin
59.81928828541666;0.19916666666666316;74;0.75;violin
60.01928828541666;0.09916666666666885;55;0.75;violin
60.01928828541666;0.09916666666666885;63;0.75;violin
60.21928828541665;0.09916666666666885;82;0.3828125;violin
60.419288285416656;0.09916666666666885;82;0.3828125;violin
60.61928828541666;0.09916666666666174;82;0.3828125;violin
60.81928828541666;0.06416666666666515;84;0.3828125;violin
60.88428828541666;0.09916666666666174;82;0.3828125;violin
61.01928828541666;0.09916666666666885;81;0.3828125;violin
61.21928828541666;0.09916666666666174;82;0.3828125;violin
61.419288285416656;0.09916666666666885;58;0.75;violin
61.419288285416656;0.09916666666666885;65;0.75;violin
61.61928828541666;0.09916666666666174;55;0.75;violin
61.61928828541666;0.09916666666666174;63;0.75;violin
61.81928828541666;0.09916666666666174;87;0.3828125;violin
62.01928828541666;0.09916666666666885;87;0.3828125;violin
62.21928828541666;0.09916666666666174;87;0.3828125;violin
62.419288285416656;0.06416666666666515;89;0.3828125;violin
62.48428828541665;0.09916666666666885;87;0.3828125;violin
62.61928828541666;0.09916666666666174;86;0.3828125;violin
62.81928828541666;0.09916666666666174;87;0.3828125;violin
63.01928828541666;0.09916666666666885;58;0.75;violin
63.01928828541666;0.09916666666666885;65;0.75;violin
63.21928828541666;0.09916666666666174;55;0.75;violin
63.21928828541666;0.09916666666666174;63;0.75;violin
63.419288285416656;0.09916666666666885;91;0.3828125;violin
63.61928828541666;0.09916666666666174;91;0.3828125;violin
63.81928828541666;0.09916666666666174;91;0.3828125;violin
64.01928828541665;0.06416666666667936;92;0.3828125;violin
64.08428828541666;0.09916666666666174;91;0.3828125;violin
64.21928828541665;0.09916666666667595;89;0.3828125;violin
64.41928828541666;0.09916666666666174;91;0.3828125;violin
64.61928828541666;0.09916666666666174;58;0.75;violin
64.61928828541666;0.09916666666666174;65;0.75;violin
64.81928828541666;0.09916666666666174;55;0.75;violin
64.81928828541666;0.09916666666666174;63;0.75;violin
65.01928828541665;0.09916666666667595;94;0.3828125;violin
65.21928828541665;0.09916666666667595;94;0.3828125;violin
65.41928828541666;0.09916666666666174;94;0.3828125;violin
65.61928828541666;0.06416666666666515;96;0.3828125;violin
65.68428828541666;0.09916666666667595;94;0.3828125;violin
65.81928828541666;0.09916666666666174;93;0.3828125;violin
66.01928828541665;0.09916666666667595;94;0.3828125;violin
66.21928828541665;0.09916666666667595;58;0.75;violin
66.21928828541665;0.09916666666667595;65;0.75;violin
66.41928828541666;0.09916666666666174;55;0.75;violin
66.41928828541666;0.09916666666666174;63;0.75;violin
66.61928828541666;0.09916666666666174;79;0.75;violin
66.81928828541666;0.09916666666666174;79;0.75;violin
67.01928828541665;0.09916666666667595;79;0.75;violin
67.21928828541665;0.06416666666667936;80;0.75;violin
67.28428828541666;0.09916666666666174;79;0.75;violin
67.41928828541666;0.09916666666666174;77;0.75;violin
67.61928828541666;0.09916666666666174;75;0.75;violin
67.81928828541666;0.09916666666666174;74;0.75;violin
68.01928828541665;0.09916666666667595;60;0.75;violin
68.11928828541666;0.09916666666666174;55;0.75;violin
68.21928828541665;0.09916666666667595;63;0.75;violin
68.31928828541666;0.04916666666666458;62;0.75;violin
68.41928828541666;0.09916666666666174;60;0.75;violin
68.51928828541665;0.09916666666667595;62;0.75;violin
68.61928828541666;0.09916666666666174;63;0.75;violin
68.71928828541665;0.04916666666666458;60;0.75;violin
68.81928828541666;0.09916666666666174;62;0.75;violin
68.91928828541666;0.09916666666666174;55;0.75;violin
69.01928828541665;0.09916666666667595;65;0.75;violin
69.11928828541666;0.04916666666666458;63;0.75;violin
69.21928828541665;0.09916666666667595;62;0.75;violin
69.31928828541666;0.09916666666666174;63;0.75;violin
69.41928828541666;0.09916666666666174;65;0.75;violin
69.51928828541665;0.04916666666667879;62;0.75;violin
69.61928828541666;0.09916666666666174;63;0.75;violin
69.71928828541665;0.09916666666667595;62;0.75;violin
69.81928828541666;0.09916666666666174;60;0.75;violin
69.91928828541666;0.04916666666666458;67;0.75;violin
70.01928828541665;0.09916666666667595;63;0.75;violin
70.11928828541666;0.09916666666666174;62;0.75;violin
70.21928828541665;0.09916666666667595;60;0.75;violin
70.31928828541666;0.04916666666666458;72;0.75;violin
70.41928828541666;0.09916666666666174;63;0.75;violin
70.51928828541665;0.09916666666667595;62;0.75;violin
70.61928828541666;0.09916666666666174;60;0.75;violin
70.71928828541665;0.04916666666666458;75;0.75;violin
70.81928828541666;0.09916666666666174;63;0.75;violin
70.91928828541666;0.09916666666666174;62;0.75;violin
71.01928828541665;0.09916666666667595;60;0.75;violin
71.11928828541666;0.04916666666666458;79;0.75;violin
71.21928828541665;0.09916666666667595;59;0.75;violin
71.31928828541666;0.09916666666666174;55;0.75;violin
71.41928828541666;0.04916666666666458;62;0.75;violin
71.51928828541665;0.04916666666667879;60;0.75;violin
71.61928828541666;0.04916666666666458;59;0.75;violin
71.71928828541665;0.04916666666666458;65;0.75;violin
71.81928828541666;0.04916666666666458;63;0.75;violin
71.91928828541666;0.04916666666666458;62;0.75;violin
72.01928828541665;0.09916666666667595;63;0.75;violin
72.11928828541666;0.09916666666666174;62;0.75;violin
72.21928828541665;0.04916666666666458;60;0.75;violin
72.31928828541666;0.04916666666666458;59;0.75;violin
72.41928828541666;0.04916666666666458;60;0.75;violin
72.51928828541665;0.04916666666667879;62;0.75;violin
72.61928828541666;0.04916666666666458;63;0.75;violin
72.71928828541665;0.04916666666666458;66;0.75;violin
72.81928828541666;0.09916666666666174;67;0.75;violin
72.91928828541666;0.09916666666666174;55;0.75;violin
73.01928828541665;0.09916666666667595;57;0.75;violin
73.11928828541666;0.09916666666666174;59;0.75;violin
73.21928828541665;0.09916666666667595;60;0.75;violin
73.31928828541666;0.09916666666666174;62;0.75;violin
73.41928828541666;0.09916666666666174;64;0.75;violin
73.51928828541665;0.09916666666667595;66;0.75;violin
73.61928828541666;0.09916666666666174;67;0.75;violin
73.71928828541665;0.09916666666667595;69;0.75;violin
73.81928828541666;0.09916666666666174;71;0.75;violin
73.91928828541666;0.09916666666666174;72;0.75;violin
74.01928828541665;0.09916666666667595;74;0.75;violin
74.11928828541666;0.09916666666666174;76;0.75;violin
74.21928828541665;0.09916666666667595;78;0.75;violin
74.31928828541666;0.09916666666666174;79;0.75;violin
74.41928828541666;0.09916666666666174;60;0.75;violin
74.51928828541665;0.09916666666667595;55;0.75;violin
74.61928828541666;0.09916666666666174;63;0.75;violin
74.71928828541667;0.04916666666665037;62;0.75;violin
74.81928828541666;0.09916666666666174;60;0.75;violin
74.91928828541666;0.09916666666666174;62;0.75;violin
75.01928828541665;0.09916666666667595;63;0.75;violin
75.11928828541666;0.04916666666666458;60;0.75;violin
75.21928828541667;0.09916666666666174;62;0.75;violin
75.31928828541666;0.09916666666666174;55;0.75;violin
75.41928828541666;0.09916666666666174;65;0.75;violin
75.51928828541665;0.04916666666667879;63;0.75;violin
75.61928828541666;0.09916666666666174;62;0.75;violin
75.71928828541667;0.09916666666666174;63;0.75;violin
75.81928828541666;0.09916666666666174;65;0.75;violin
75.91928828541666;0.04916666666666458;62;0.75;violin
76.01928828541665;0.09916666666667595;63;0.75;violin
76.11928828541666;0.09916666666666174;62;0.75;violin
76.21928828541667;0.09916666666666174;60;0.75;violin
76.31928828541666;0.04916666666666458;67;0.75;violin
76.41928828541666;0.09916666666666174;63;0.75;violin
76.51928828541665;0.09916666666667595;62;0.75;violin
76.61928828541666;0.09916666666666174;60;0.75;violin
76.71928828541667;0.04916666666665037;72;0.75;violin
76.81928828541666;0.09916666666666174;63;0.75;violin
76.91928828541666;0.09916666666666174;62;0.75;violin
77.01928828541665;0.09916666666667595;60;0.75;violin
77.11928828541666;0.04916666666666458;75;0.75;violin
77.21928828541667;0.09916666666666174;63;0.75;violin
77.31928828541666;0.09916666666666174;62;0.75;violin
77.41928828541666;0.09916666666666174;60;0.75;violin
77.51928828541665;0.04916666666667879;79;0.75;violin
77.61928828541666;0.09916666666666174;55;0.75;violin
77.71928828541667;0.09916666666666174;56;0.75;violin
77.81928828541666;0.09916666666666174;55;0.75;violin
77.91928828541666;0.04916666666666458;60;0.75;violin
78.01928828541665;0.09916666666667595;55;0.75;violin
78.11928828541666;0.09916666666666174;56;0.75;violin
78.21928828541667;0.09916666666666174;55;0.75;violin
78.31928828541666;0.04916666666666458;63;0.75;violin
78.41928828541666;0.09916666666666174;55;0.75;violin
78.51928828541665;0.09916666666667595;56;0.75;violin
78.61928828541666;0.09916666666666174;55;0.75;violin
78.71928828541667;0.04916666666665037;67;0.75;violin
78.81928828541666;0.04916666666666458;67;0.75;violin
78.91928828541666;0.04916666666666458;65;0.75;violin
79.01928828541665;0.04916666666667879;63;0.75;violin
79.11928828541666;0.04916666666666458;62;0.75;violin
79.21928828541667;0.19916666666665606;60;0.75;violin
79.41928828541666;0.09916666666666174;62;0.75;violin
79.51928828541665;0.09916666666667595;63;0.75;violin
79.61928828541666;0.09916666666667595;65;0.75;violin
79.71928828541667;0.09916666666666174;67;0.75;violin
79.81928828541666;0.09916666666666174;69;0.75;violin
79.91928828541666;0.09916666666666174;71;0.75;violin
80.01928828541665;0.3991666666666731;72;0.75;violin
80.81928828541666;0.09916666666666174;60;0.75;violin
80.91928828541666;0.09916666666666174;55;0.75;violin
81.01928828541665;0.09916666666667595;63;0.75;violin
81.11928828541666;0.04916666666666458;62;0.75;violin
81.21928828541667;0.09916666666666174;60;0.75;violin
81.31928828541666;0.09916666666666174;62;0.75;violin
81.41928828541666;0.09916666666666174;63;0.75;violin
81.51928828541665;0.04916666666667879;60;0.75;violin
81.61928828541666;0.09916666666667595;62;0.75;violin
81.71928828541667;0.09916666666666174;55;0.75;violin
81.81928828541666;0.09916666666666174;65;0.75;violin
81.91928828541666;0.04916666666667879;63;0.75;violin
82.01928828541665;0.09916666666667595;62;0.75;violin
82.11928828541666;0.09916666666667595;63;0.75;violin
82.21928828541667;0.09916666666666174;65;0.75;violin
82.31928828541666;0.04916666666666458;62;0.75;violin
82.41928828541666;0.09916666666666174;63;0.75;violin
82.51928828541665;0.09916666666667595;62;0.75;violin
82.61928828541666;0.09916666666667595;60;0.75;violin
82.71928828541667;0.04916666666665037;67;0.75;violin
82.81928828541666;0.09916666666666174;63;0.75;violin
82.91928828541666;0.09916666666666174;62;0.75;violin
83.01928828541665;0.09916666666667595;60;0.75;violin
83.11928828541666;0.04916666666666458;72;0.75;violin
83.21928828541667;0.09916666666666174;63;0.75;violin
83.31928828541666;0.09916666666666174;62;0.75;violin
83.41928828541666;0.09916666666666174;60;0.75;violin
83.51928828541665;0.04916666666667879;75;0.75;violin
83.61928828541666;0.09916666666667595;63;0.75;violin
83.71928828541667;0.09916666666666174;62;0.75;violin
83.81928828541666;0.09916666666666174;60;0.75;violin
83.91928828541666;0.04916666666667879;79;0.75;violin
84.01928828541665;0.09916666666667595;59;0.75;violin
84.11928828541666;0.09916666666667595;55;0.75;violin
84.21928828541667;0.04916666666665037;62;0.75;violin
84.31928828541666;0.04916666666666458;60;0.75;violin
84.41928828541666;0.04916666666667879;59;0.75;violin
84.51928828541665;0.04916666666667879;65;0.75;violin
84.61928828541666;0.04916666666666458;63;0.75;violin
84.71928828541667;0.04916666666665037;62;0.75;violin
84.81928828541666;0.09916666666666174;63;0.75;violin
84.91928828541666;0.09916666666666174;62;0.75;violin
85.01928828541665;0.04916666666667879;60;0.75;violin
85.11928828541666;0.04916666666666458;59;0.75;violin
85.21928828541667;0.04916666666665037;60;0.75;violin
85.31928828541666;0.04916666666666458;62;0.75;violin
85.41928828541666;0.04916666666667879;63;0.75;violin
85.51928828541665;0.04916666666667879;66;0.75;violin
85.61928828541666;0.09916666666667595;67;0.75;violin
85.71928828541667;0.09916666666666174;55;0.75;violin
85.81928828541666;0.09916666666666174;57;0.75;violin
85.91928828541666;0.09916666666666174;59;0.75;violin
86.01928828541665;0.09916666666667595;60;0.75;violin
86.11928828541666;0.09916666666667595;62;0.75;violin
86.21928828541667;0.09916666666666174;64;0.75;violin
86.31928828541666;0.09916666666666174;66;0.75;violin
86.41928828541666;0.09916666666666174;67;0.75;violin
86.51928828541665;0.09916666666667595;69;0.75;violin
86.61928828541666;0.09916666666667595;71;0.75;violin
86.71928828541667;0.09916666666666174;72;0.75;violin
86.81928828541666;0.09916666666666174;74;0.75;violin
86.91928828541666;0.09916666666666174;76;0.75;violin
87.01928828541665;0.09916666666667595;78;0.75;violin
87.11928828541666;0.09916666666667595;79;0.75;violin
87.21928828541667;0.09916666666666174;60;0.75;violin
87.31928828541666;0.09916666666666174;55;0.75;violin
87.41928828541666;0.09916666666666174;63;0.75;violin
87.51928828541665;0.04916666666667879;62;0.75;violin
87.61928828541666;0.09916666666667595;60;0.75;violin
87.71928828541667;0.09916666666666174;62;0.75;violin
87.81928828541666;0.09916666666666174;63;0.75;violin
87.91928828541666;0.04916666666667879;60;0.75;violin
88.01928828541665;0.09916666666667595;62;0.75;violin
88.11928828541666;0.09916666666667595;55;0.75;violin
88.21928828541667;0.09916666666666174;65;0.75;violin
88.31928828541666;0.04916666666666458;63;0.75;violin
88.41928828541666;0.09916666666666174;62;0.75;violin
88.51928828541665;0.09916666666667595;63;0.75;violin
88.61928828541666;0.09916666666667595;65;0.75;violin
88.71928828541667;0.04916666666665037;62;0.75;violin
88.81928828541666;0.09916666666666174;63;0.75;violin
88.91928828541666;0.09916666666666174;62;0.75;violin
89.01928828541665;0.09916666666667595;60;0.75;violin
89.11928828541666;0.04916666666666458;67;0.75;violin
89.21928828541667;0.09916666666666174;63;0.75;violin
89.31928828541666;0.09916666666666174;62;0.75;violin
89.41928828541666;0.09916666666666174;60;0.75;violin
89.51928828541665;0.04916666666667879;72;0.75;violin
89.61928828541666;0.09916666666667595;63;0.75;violin
89.71928828541667;0.09916666666666174;62;0.75;violin
89.81928828541666;0.09916666666666174;60;0.75;violin
89.91928828541666;0.04916666666667879;75;0.75;violin
90.01928828541665;0.09916666666667595;63;0.75;violin
90.11928828541666;0.09916666666667595;62;0.75;violin
90.21928828541667;0.09916666666666174;60;0.75;violin
90.31928828541666;0.04916666666666458;79;0.75;violin
90.41928828541666;0.09916666666666174;55;0.75;violin
90.51928828541665;0.09916666666667595;56;0.75;violin
90.61928828541666;0.09916666666667595;55;0.75;violin
90.71928828541667;0.04916666666665037;60;0.75;violin
90.81928828541666;0.09916666666666174;55;0.75;violin
90.91928828541666;0.09916666666666174;56;0.75;violin
91.01928828541665;0.09916666666667595;55;0.75;violin
91.11928828541666;0.04916666666666458;63;0.75;violin
91.21928828541667;0.09916666666666174;55;0.75;violin
91.31928828541666;0.09916666666666174;56;0.75;violin
91.41928828541666;0.09916666666666174;55;0.75;violin
91.51928828541665;0.04916666666667879;67;0.75;violin
91.61928828541666;0.04916666666666458;67;0.75;violin
91.71928828541667;0.04916666666665037;65;0.75;violin
91.81928828541666;0.04916666666666458;63;0.75;violin
91.91928828541666;0.04916666666667879;62;0.75;violin
92.01928828541665;0.19916666666668448;60;0.75;violin
92.21928828541667;0.09916666666666174;62;0.75;violin
92.31928828541666;0.09916666666666174;63;0.75;violin
92.41928828541666;0.09916666666666174;65;0.75;violin
92.51928828541665;0.09916666666667595;67;0.75;violin
92.61928828541666;0.09916666666667595;69;0.75;violin
92.71928828541667;0.09916666666666174;71;0.75;violin
92.81928828541666;0.3991666666666731;72;0.75;violin
93.61928828541666;0.09916666666667595;58;0.75;violin
93.71928828541667;0.09916666666666174;60;0.75;violin
93.81928828541666;0.09916666666666174;58;0.75;violin
93.91928828541666;0.04916666666667879;62;0.75;violin
94.01928828541665;0.09916666666667595;58;0.75;violin
94.11928828541666;0.09916666666667595;60;0.75;violin
94.21928828541667;0.09916666666666174;58;0.75;violin
94.31928828541666;0.04916666666666458;65;0.75;violin
94.41928828541666;0.09916666666666174;58;0.75;violin
94.51928828541665;0.09916666666667595;60;0.75;violin
94.61928828541666;0.09916666666667595;58;0.75;violin
94.71928828541667;0.04916666666665037;67;0.75;violin
94.81928828541666;0.09916666666666174;58;0.75;violin
94.91928828541666;0.09916666666666174;60;0.75;violin
95.01928828541665;0.09916666666667595;58;0.75;violin
95.11928828541666;0.04916666666666458;69;0.75;violin
95.21928828541667;0.09916666666666174;70;0.75;violin
95.31928828541666;0.09916666666666174;58;0.75;violin
95.41928828541666;0.09916666666666174;60;0.75;violin
95.51928828541665;0.09916666666667595;62;0.75;violin
95.61928828541666;0.09916666666667595;63;0.75;violin
95.71928828541667;0.09916666666666174;65;0.75;violin
95.81928828541666;0.09916666666666174;67;0.75;violin
95.91928828541666;0.09916666666666174;69;0.75;violin
96.01928828541665;0.09916666666667595;70;0.75;violin
96.11928828541666;0.09916666666667595;72;0.75;violin
96.21928828541667;0.09916666666666174;74;0.75;violin
96.31928828541666;0.09916666666666174;75;0.75;violin
96.41928828541666;0.09916666666666174;77;0.75;violin
96.51928828541665;0.09916666666667595;79;0.75;violin
96.61928828541666;0.09916666666667595;81;0.75;violin
96.71928828541667;0.09916666666666174;82;0.75;violin
96.81928828541666;0.09916666666666174;58;0.75;violin
96.91928828541666;0.09916666666666174;60;0.75;violin
97.01928828541665;0.09916666666667595;58;0.75;violin
97.11928828541666;0.04916666666666458;62;0.75;violin
97.21928828541667;0.09916666666666174;58;0.75;violin
97.31928828541666;0.09916666666666174;60;0.75;violin
97.41928828541666;0.09916666666666174;58;0.75;violin
97.51928828541665;0.04916666666667879;65;0.75;violin
97.61928828541666;0.09916666666667595;58;0.75;violin
97.71928828541667;0.09916666666666174;60;0.75;violin
97.81928828541666;0.09916666666666174;58;0.75;violin
97.91928828541666;0.04916666666667879;67;0.75;violin
98.01928828541665;0.09916666666667595;58;0.75;violin
98.11928828541666;0.09916666666667595;60;0.75;violin
98.21928828541667;0.09916666666666174;58;0.75;violin
98.31928828541666;0.04916666666666458;69;0.75;violin
98.41928828541666;0.09916666666666174;58;0.75;violin
98.51928828541665;0.09916666666667595;70;0.75;violin
98.61928828541666;0.04916666666666458;69;0.75;violin
98.71928828541667;0.04916666666665037;67;0.75;violin
98.81928828541666;0.04916666666666458;65;0.75;violin
98.91928828541666;0.04916666666667879;63;0.75;violin
99.01928828541665;0.04916666666667879;62;0.75;violin
99.11928828541666;0.04916666666666458;60;0.75;violin
99.21928828541667;0.09916666666666174;58;0.75;violin
99.31928828541666;0.09916666666666174;68;0.75;violin
99.41928828541666;0.04916666666667879;67;0.75;violin
99.51928828541665;0.04916666666667879;65;0.75;violin
99.61928828541666;0.04916666666666458;63;0.75;violin
99.71928828541667;0.04916666666665037;62;0.75;violin
99.81928828541666;0.04916666666666458;60;0.75;violin
99.91928828541666;0.04916666666667879;59;0.75;violin
100.01928828541665;0.09916666666667595;60;0.75;violin
100.11928828541666;0.09916666666667595;55;0.75;violin
100.21928828541667;0.09916666666666174;63;0.75;violin
100.31928828541666;0.04916666666666458;62;0.75;violin
100.41928828541666;0.09916666666666174;60;0.75;violin
100.51928828541665;0.09916666666667595;62;0.75;violin
100.61928828541666;0.09916666666667595;63;0.75;violin
100.71928828541667;0.04916666666665037;60;0.75;violin
100.81928828541666;0.09916666666666174;62;0.75;violin
100.91928828541666;0.09916666666666174;55;0.75;violin
101.01928828541665;0.09916666666667595;65;0.75;violin
101.11928828541666;0.04916666666666458;63;0.75;violin
101.21928828541667;0.09916666666666174;62;0.75;violin
101.31928828541666;0.09916666666666174;63;0.75;violin
101.41928828541666;0.09916666666666174;65;0.75;violin
101.51928828541665;0.04916666666667879;62;0.75;violin
101.61928828541666;0.09916666666667595;63;0.75;violin
101.71928828541667;0.09916666666666174;62;0.75;violin
101.81928828541666;0.09916666666666174;60;0.75;violin
101.91928828541666;0.04916666666667879;67;0.75;violin
102.01928828541665;0.09916666666667595;63;0.75;violin
102.11928828541666;0.09916666666667595;62;0.75;violin
102.21928828541667;0.09916666666666174;60;0.75;violin
102.31928828541666;0.04916666666666458;72;0.75;violin
102.41928828541666;0.09916666666666174;63;0.75;violin
102.51928828541665;0.09916666666667595;62;0.75;violin
102.61928828541666;0.09916666666667595;60;0.75;violin
102.71928828541667;0.04916666666665037;75;0.75;violin
102.81928828541666;0.09916666666666174;63;0.75;violin
102.91928828541666;0.09916666666666174;62;0.75;violin
103.01928828541665;0.09916666666667595;60;0.75;violin
103.11928828541666;0.04916666666666458;79;0.75;violin
103.21928828541667;0.09916666666666174;55;0.75;violin
103.31928828541666;0.09916666666666174;56;0.75;violin
103.41928828541666;0.09916666666666174;55;0.75;violin
103.51928828541665;0.04916666666667879;60;0.75;violin
103.61928828541666;0.09916666666667595;55;0.75;violin
103.71928828541667;0.09916666666666174;56;0.75;violin
103.81928828541666;0.09916666666666174;55;0.75;violin
103.91928828541666;0.04916666666667879;63;0.75;violin
104.01928828541665;0.09916666666667595;55;0.75;violin
104.11928828541666;0.09916666666667595;56;0.75;violin
104.21928828541667;0.09916666666666174;55;0.75;violin
104.31928828541666;0.04916666666666458;67;0.75;violin
104.41928828541666;0.04916666666667879;67;0.75;violin
104.51928828541665;0.04916666666667879;65;0.75;violin
104.61928828541666;0.04916666666666458;63;0.75;violin
104.71928828541667;0.04916666666665037;62;0.75;violin
104.81928828541666;0.19916666666665606;60;0.75;violin
105.01928828541665;0.09916666666667595;62;0.75;violin
105.11928828541666;0.09916666666667595;63;0.75;violin
105.21928828541667;0.09916666666666174;65;0.75;violin
105.31928828541666;0.09916666666666174;67;0.75;violin
105.41928828541666;0.09916666666666174;69;0.75;violin
105.51928828541665;0.09916666666667595;71;0.75;violin
105.61928828541666;0.3991666666666589;72;0.75;violin
106.41928828541666;0.09916666666666174;58;0.75;violin
106.51928828541665;0.09916666666667595;60;0.75;violin
106.61928828541666;0.09916666666667595;58;0.75;violin
106.71928828541667;0.04916666666665037;62;0.75;violin
106.81928828541666;0.09916666666666174;58;0.75;violin
106.91928828541666;0.09916666666666174;60;0.75;violin
107.01928828541665;0.09916666666667595;58;0.75;violin
107.11928828541666;0.04916666666666458;65;0.75;violin
107.21928828541667;0.09916666666666174;58;0.75;violin
107.31928828541666;0.09916666666666174;60;0.75;violin
107.41928828541666;0.09916666666666174;58;0.75;violin
107.51928828541665;0.04916666666667879;67;0.75;violin
107.61928828541666;0.09916666666667595;58;0.75;violin
107.71928828541667;0.09916666666666174;60;0.75;violin
107.81928828541666;0.09916666666666174;58;0.75;violin
107.91928828541666;0.04916666666667879;69;0.75;violin
108.01928828541665;0.09916666666667595;70;0.75;violin
108.11928828541666;0.09916666666667595;58;0.75;violin
108.21928828541667;0.09916666666666174;60;0.75;violin
108.31928828541666;0.09916666666666174;62;0.75;violin
108.41928828541666;0.09916666666666174;63;0.75;violin
108.51928828541665;0.09916666666667595;65;0.75;violin
108.61928828541666;0.09916666666667595;67;0.75;violin
108.71928828541667;0.09916666666666174;69;0.75;violin
108.81928828541666;0.09916666666666174;70;0.75;violin
108.91928828541666;0.09916666666666174;72;0.75;violin
109.01928828541665;0.09916666666667595;74;0.75;violin
109.11928828541666;0.09916666666667595;75;0.75;violin
109.21928828541667;0.09916666666666174;77;0.75;violin
109.31928828541666;0.09916666666666174;79;0.75;violin
109.41928828541666;0.09916666666666174;81;0.75;violin
109.51928828541665;0.09916666666667595;82;0.75;violin
109.61928828541666;0.09916666666667595;58;0.75;violin
109.71928828541667;0.09916666666666174;60;0.75;violin
109.81928828541666;0.09916666666666174;58;0.75;violin
109.91928828541666;0.04916666666667879;62;0.75;violin
110.01928828541665;0.09916666666667595;58;0.75;violin
110.11928828541666;0.09916666666667595;60;0.75;violin
110.21928828541667;0.09916666666666174;58;0.75;violin
110.31928828541666;0.04916666666666458;65;0.75;violin
110.41928828541666;0.09916666666666174;58;0.75;violin
110.51928828541665;0.09916666666667595;60;0.75;violin
110.61928828541666;0.09916666666667595;58;0.75;violin
110.71928828541667;0.04916666666665037;67;0.75;violin
110.81928828541666;0.09916666666666174;58;0.75;violin
110.91928828541666;0.09916666666666174;60;0.75;violin
111.01928828541665;0.09916666666667595;58;0.75;violin
111.11928828541666;0.04916666666666458;69;0.75;violin
111.21928828541667;0.09916666666666174;58;0.75;violin
111.31928828541666;0.09916666666666174;70;0.75;violin
111.41928828541666;0.04916666666666458;69;0.75;violin
111.51928828541666;0.04916666666666458;67;0.75;violin
111.61928828541666;0.04916666666666458;65;0.75;violin
111.71928828541667;0.04916666666666458;63;0.75;violin
111.81928828541666;0.04916666666666458;62;0.75;violin
111.91928828541666;0.04916666666666458;60;0.75;violin
112.01928828541666;0.09916666666666174;58;0.75;violin
112.11928828541666;0.09916666666666174;68;0.75;violin
112.21928828541667;0.04916666666666458;67;0.75;violin
112.31928828541666;0.04916666666666458;65;0.75;violin
112.41928828541666;0.04916666666666458;63;0.75;violin
112.51928828541666;0.04916666666666458;62;0.75;violin
112.61928828541666;0.04916666666666458;60;0.75;violin
112.71928828541667;0.04916666666666458;59;0.75;violin
112.81928828541666;0.09916666666666174;60;0.75;violin
112.91928828541666;0.09916666666667595;55;0.75;violin
113.01928828541666;0.09916666666666174;63;0.75;violin
113.11928828541666;0.04916666666666458;62;0.75;violin
113.21928828541667;0.09916666666666174;60;0.75;violin
113.31928828541666;0.09916666666666174;62;0.75;violin
113.41928828541666;0.09916666666667595;63;0.75;violin
113.51928828541666;0.04916666666666458;60;0.75;violin
113.61928828541666;0.09916666666666174;62;0.75;violin
113.71928828541667;0.09916666666666174;55;0.75;violin
113.81928828541666;0.09916666666666174;65;0.75;violin
113.91928828541666;0.04916666666667879;63;0.75;violin
114.01928828541666;0.09916666666666174;62;0.75;violin
114.11928828541666;0.09916666666667595;63;0.75;violin
114.21928828541667;0.09916666666666174;65;0.75;violin
114.31928828541666;0.04916666666666458;62;0.75;violin
114.41928828541666;0.09916666666667595;63;0.75;violin
114.51928828541666;0.09916666666666174;62;0.75;violin
114.61928828541666;0.09916666666667595;60;0.75;violin
114.71928828541667;0.04916666666666458;67;0.75;violin
114.81928828541666;0.09916666666666174;63;0.75;violin
114.91928828541666;0.09916666666667595;62;0.75;violin
115.01928828541666;0.09916666666666174;60;0.75;violin
115.11928828541666;0.04916666666666458;72;0.75;violin
115.21928828541667;0.09916666666666174;63;0.75;violin
115.31928828541666;0.09916666666666174;62;0.75;violin
115.41928828541666;0.09916666666667595;60;0.75;violin
115.51928828541666;0.04916666666666458;75;0.75;violin
115.61928828541666;0.09916666666667595;63;0.75;violin
115.71928828541667;0.09916666666666174;62;0.75;violin
115.81928828541666;0.09916666666666174;60;0.75;violin
115.91928828541666;0.04916666666667879;79;0.75;violin
116.01928828541666;0.09916666666666174;55;0.75;violin
116.11928828541666;0.09916666666667595;56;0.75;violin
116.21928828541667;0.09916666666666174;55;0.75;violin
116.31928828541666;0.04916666666666458;60;0.75;violin
116.41928828541666;0.09916666666667595;55;0.75;violin
116.51928828541666;0.09916666666666174;56;0.75;violin
116.61928828541666;0.09916666666667595;55;0.75;violin
116.71928828541667;0.04916666666666458;63;0.75;violin
116.81928828541666;0.09916666666666174;55;0.75;violin
116.91928828541666;0.09916666666667595;56;0.75;violin
117.01928828541666;0.09916666666666174;55;0.75;violin
117.11928828541666;0.04916666666666458;67;0.75;violin
117.21928828541667;0.04916666666666458;67;0.75;violin
117.31928828541666;0.04916666666666458;65;0.75;violin
117.41928828541666;0.04916666666667879;63;0.75;violin
117.51928828541666;0.04916666666666458;62;0.75;violin
117.61928828541666;0.19916666666667027;60;0.75;violin
117.81928828541666;0.09916666666666174;84;0.75;violin
118.01928828541666;0.09916666666666174;84;0.75;violin
118.21928828541667;0.09916666666666174;84;0.75;violin
118.41928828541666;0.06416666666666515;86;0.75;violin
118.48428828541667;0.09916666666666174;84;0.75;violin
118.61928828541666;0.09916666666667595;83;0.75;violin
118.81928828541666;0.09916666666666174;82;0.75;violin
119.01928828541666;0.09916666666666174;58;0.75;violin
119.01928828541666;0.09916666666666174;67;0.75;violin
119.21928828541667;0.09916666666666174;55;0.75;violin
119.21928828541667;0.09916666666666174;63;0.75;violin
119.41928828541666;0.09916666666667595;82;0.3828125;violin
119.61928828541666;0.09916666666667595;82;0.3828125;violin
119.81928828541666;0.09916666666666174;82;0.3828125;violin
120.01928828541666;0.06416666666666515;84;0.3828125;violin
120.08428828541666;0.09916666666666174;82;0.3828125;violin
120.21928828541667;0.09916666666666174;81;0.3828125;violin
120.41928828541666;0.09916666666667595;82;0.3828125;violin
120.61928828541666;0.09916666666667595;58;0.75;violin
120.61928828541666;0.09916666666667595;67;0.75;violin
120.81928828541666;0.09916666666666174;56;0.75;violin
120.81928828541666;0.09916666666666174;65;0.75;violin
121.01928828541666;0.09916666666666174;82;0.3828125;violin
121.21928828541667;0.09916666666666174;82;0.3828125;violin
121.41928828541666;0.09916666666667595;82;0.3828125;violin
121.61928828541666;0.06416666666666515;84;0.3828125;violin
121.68428828541666;0.09916666666667595;82;0.3828125;violin
121.81928828541666;0.09916666666666174;81;0.3828125;violin
122.01928828541666;0.09916666666666174;82;0.3828125;violin
122.21928828541667;0.09916666666666174;58;0.75;violin
122.21928828541667;0.09916666666666174;65;0.75;violin
122.41928828541666;0.09916666666667595;56;0.75;violin
122.41928828541666;0.09916666666667595;62;0.75;violin
122.61928828541666;0.09916666666667595;82;0.3828125;violin
122.81928828541666;0.09916666666666174;82;0.3828125;violin
123.01928828541666;0.09916666666666174;82;0.3828125;violin
123.21928828541667;0.06416666666666515;84;0.3828125;violin
123.28428828541666;0.09916666666666174;82;0.3828125;violin
123.41928828541666;0.09916666666667595;81;0.3828125;violin
123.61928828541666;0.09916666666667595;82;0.3828125;violin
123.81928828541666;0.09916666666666174;58;0.75;violin
123.81928828541666;0.09916666666666174;65;0.75;violin
124.01928828541666;0.09916666666666174;55;0.75;violin
124.01928828541666;0.09916666666666174;63;0.75;violin
124.21928828541667;0.09916666666666174;87;0.3828125;violin
124.41928828541666;0.09916666666667595;87;0.3828125;violin
124.61928828541666;0.09916666666667595;87;0.3828125;violin
124.81928828541666;0.06416666666666515;89;0.3828125;violin
124.88428828541666;0.09916666666667595;87;0.3828125;violin
125.01928828541666;0.09916666666666174;86;0.3828125;violin
125.21928828541667;0.09916666666666174;87;0.3828125;violin
125.41928828541666;0.09916666666667595;58;0.75;violin
125.41928828541666;0.09916666666667595;67;0.75;violin
125.61928828541666;0.09916666666667595;60;0.75;violin
125.61928828541666;0.09916666666667595;68;0.75;violin
125.81928828541666;0.09916666666666174;87;0.3828125;violin
126.01928828541666;0.09916666666666174;87;0.3828125;violin
126.21928828541667;0.09916666666666174;87;0.3828125;violin
126.41928828541666;0.06416666666667936;89;0.3828125;violin
126.48428828541667;0.09916666666666174;87;0.3828125;violin
126.61928828541666;0.09916666666667595;86;0.3828125;violin
126.81928828541666;0.09916666666666174;87;0.3828125;violin
127.01928828541666;0.09916666666666174;60;0.75;violin
127.01928828541666;0.09916666666666174;68;0.75;violin
127.21928828541667;0.09916666666666174;58;0.75;violin
127.21928828541667;0.09916666666666174;67;0.75;violin
127.41928828541666;0.09916666666667595;87;0.3828125;violin
127.61928828541666;0.09916666666667595;87;0.3828125;violin
127.81928828541666;0.09916666666666174;87;0.3828125;violin
128.01928828541668;0.06416666666666515;89;0.3828125;violin
128.08428828541668;0.09916666666663332;87;0.3828125;violin
128.21928828541667;0.09916666666666174;86;0.3828125;violin
128.41928828541666;0.09916666666669016;87;0.3828125;violin
128.61928828541664;0.09916666666669016;58;0.75;violin
128.61928828541664;0.09916666666669016;67;0.75;violin
128.81928828541666;0.09916666666666174;57;0.75;violin
128.81928828541666;0.09916666666666174;66;0.75;violin
129.01928828541668;0.09916666666663332;87;0.3828125;violin
129.21928828541667;0.09916666666666174;87;0.3828125;violin
129.41928828541666;0.09916666666669016;87;0.3828125;violin
129.61928828541664;0.06416666666666515;89;0.3828125;violin
129.68428828541664;0.09916666666669016;87;0.3828125;violin
129.81928828541666;0.09916666666666174;86;0.3828125;violin
130.01928828541668;0.09916666666663332;87;0.3828125;violin
130.21928828541667;0.09916666666666174;57;0.75;violin
130.21928828541667;0.09916666666666174;66;0.75;violin
130.41928828541666;0.061666666666667425;58;0.75;violin
130.41928828541666;0.061666666666667425;65;0.75;violin
130.48262161875;0.7358333333333462;86;0.75;violin
131.21845495208333;0.06333333333333258;86;0.75;violin
131.28262161875;0.2991666666666788;84;0.75;violin
131.51845495208335;0.09916666666666174;82;0.75;violin
131.61845495208334;0.061666666666667425;79;0.75;violin
131.68178828541667;0.061666666666667425;81;0.75;violin
131.74678828541667;0.061666666666667425;82;0.75;violin
131.81178828541667;0.061666666666667425;84;0.75;violin
131.87845495208333;0.7975000000000136;82;0.75;violin
133.61595495208337;0.09916666666666174;82;0.3828125;violin
133.81595495208336;0.09916666666669016;82;0.3828125;violin
134.01595495208338;0.09916666666666174;82;0.3828125;violin
134.21595495208337;0.06416666666666515;84;0.3828125;violin
134.28095495208336;0.09916666666666174;82;0.3828125;violin
134.41595495208338;0.09916666666666174;81;0.3828125;violin
134.61595495208337;0.09916666666666174;82;0.3828125;violin
134.81595495208336;0.09916666666669016;67;0.75;violin
134.81595495208336;0.09916666666669016;70;0.75;violin
135.01595495208338;0.09916666666666174;65;0.75;violin
135.01595495208338;0.09916666666666174;68;0.75;violin
135.21595495208337;0.09916666666666174;82;0.3828125;violin
135.41595495208338;0.09916666666666174;82;0.3828125;violin
135.61595495208337;0.09916666666666174;82;0.3828125;violin
135.81595495208336;0.06416666666666515;84;0.3828125;violin
135.88095495208339;0.09916666666666174;82;0.3828125;violin
136.01595495208338;0.09916666666666174;81;0.3828125;violin
136.21595495208337;0.09916666666666174;82;0.3828125;violin
136.41595495208338;0.09916666666666174;65;0.75;violin
136.41595495208338;0.09916666666666174;68;0.75;violin
136.61595495208337;0.09916666666666174;63;0.75;violin
136.61595495208337;0.09916666666666174;67;0.75;violin
136.81595495208336;0.09916666666669016;70;0.3828125;violin
137.01595495208338;0.09916666666666174;70;0.3828125;violin
137.21595495208337;0.09916666666666174;70;0.3828125;violin
137.41595495208338;0.06416666666666515;72;0.3828125;violin
137.48095495208338;0.09916666666666174;70;0.3828125;violin
137.61595495208337;0.09916666666666174;69;0.3828125;violin
137.81595495208336;0.09916666666669016;70;0.3828125;violin
138.01595495208338;0.09916666666666174;58;0.75;violin
138.01595495208338;0.09916666666666174;67;0.75;violin
138.21595495208337;0.09916666666666174;56;0.75;violin
138.21595495208337;0.09916666666666174;65;0.75;violin
138.41595495208338;0.09916666666666174;70;0.3828125;violin
138.61595495208337;0.09916666666666174;70;0.3828125;violin
138.81595495208336;0.09916666666669016;70;0.3828125;violin
139.01595495208338;0.06416666666666515;72;0.3828125;violin
139.08095495208337;0.09916666666666174;70;0.3828125;violin
139.21595495208337;0.09916666666666174;69;0.3828125;violin
139.41595495208338;0.09916666666666174;70;0.3828125;violin
139.61595495208337;0.09916666666666174;56;0.75;violin
139.61595495208337;0.09916666666666174;65;0.75;violin
139.81595495208336;0.09916666666669016;55;0.75;violin
139.81595495208336;0.09916666666669016;63;0.75;violin
140.01595495208338;0.09916666666666174;87;0.3828125;violin
140.21595495208337;0.09916666666666174;87;0.3828125;violin
140.41595495208338;0.09916666666666174;87;0.3828125;violin
140.61595495208337;0.06416666666666515;89;0.3828125;violin
140.68095495208337;0.09916666666666174;87;0.3828125;violin
140.81595495208336;0.09916666666669016;86;0.3828125;violin
141.01595495208338;0.09916666666666174;87;0.3828125;violin
141.21595495208337;0.09916666666666174;58;0.75;violin
141.21595495208337;0.09916666666666174;67;0.75;violin
141.41595495208338;0.09916666666666174;60;0.75;violin
141.41595495208338;0.09916666666666174;68;0.75;violin
141.61595495208337;0.09916666666666174;87;0.3828125;violin
141.81595495208336;0.06416666666666515;89;0.3828125;violin
141.88095495208336;0.09916666666669016;87;0.3828125;violin
142.01595495208338;0.09916666666666174;60;0.75;violin
142.01595495208338;0.09916666666666174;68;0.75;violin
142.21595495208337;0.09916666666666174;58;0.75;violin
142.21595495208337;0.09916666666666174;67;0.75;violin
142.41595495208338;0.09916666666666174;87;0.3828125;violin
142.61595495208337;0.06416666666666515;89;0.3828125;violin
142.68095495208337;0.09916666666666174;87;0.3828125;violin
142.81595495208336;0.09916666666669016;58;0.75;violin
142.81595495208336;0.09916666666669016;67;0.75;violin
143.01595495208338;0.09916666666666174;57;0.75;violin
143.01595495208338;0.09916666666666174;66;0.75;violin
143.21595495208337;0.09916666666666174;87;0.3828125;violin
143.41595495208338;0.06416666666666515;89;0.3828125;violin
143.48095495208338;0.09916666666666174;87;0.3828125;violin
143.61595495208337;0.09916666666666174;57;0.75;violin
143.61595495208337;0.09916666666666174;66;0.75;violin
143.81595495208336;0.09916666666669016;56;0.75;violin
143.81595495208336;0.09916666666669016;65;0.75;violin
144.01595495208338;0.09916666666666174;87;0.3828125;violin
144.21595495208337;0.06416666666666515;89;0.3828125;violin
144.28095495208336;0.09916666666666174;87;0.3828125;violin
144.41595495208338;0.09916666666666174;56;0.75;violin
144.41595495208338;0.09916666666666174;65;0.75;violin
144.61595495208337;0.19916666666665606;55;0.75;violin
144.61595495208337;0.19916666666665606;63;0.75;violin
144.81595495208336;0.19916666666668448;87;0.75;violin
145.01595495208338;0.19916666666665606;56;0.75;violin
145.01595495208338;0.19916666666665606;65;0.75;violin
145.21595495208337;0.19916666666668448;84;0.75;violin
145.41595495208338;0.19916666666665606;58;0.75;violin
145.41595495208338;0.19916666666665606;67;0.75;violin
145.61595495208337;0.19916666666665606;82;0.75;violin
145.81595495208336;0.19916666666668448;58;0.75;violin
145.81595495208336;0.19916666666668448;65;0.75;violin
146.01595495208338;0.19916666666665606;74;0.75;violin
146.21595495208337;0.09916666666666174;55;0.75;violin
146.21595495208337;0.09916666666666174;63;0.75;violin
146.41595495208338;0.09916666666666174;82;0.3828125;violin
146.61595495208337;0.09916666666666174;82;0.3828125;violin
146.81595495208336;0.09916666666669016;82;0.3828125;violin
147.01595495208338;0.06416666666666515;84;0.3828125;violin
147.08095495208337;0.09916666666666174;82;0.3828125;violin
147.21595495208337;0.09916666666666174;81;0.3828125;violin
147.41595495208338;0.09916666666666174;82;0.3828125;violin
147.61595495208337;0.09916666666666174;58;0.75;violin
147.61595495208337;0.09916666666666174;65;0.75;violin
147.81595495208336;0.09916666666669016;55;0.75;violin
147.81595495208336;0.09916666666669016;63;0.75;violin
148.01595495208338;0.09916666666666174;87;0.3828125;violin
148.21595495208337;0.09916666666666174;87;0.3828125;violin
148.41595495208338;0.09916666666666174;87;0.3828125;violin
148.61595495208337;0.06416666666666515;89;0.3828125;violin
148.68095495208337;0.09916666666666174;87;0.3828125;violin
148.81595495208336;0.09916666666669016;86;0.3828125;violin
149.01595495208338;0.09916666666666174;87;0.3828125;violin
149.21595495208337;0.09916666666666174;58;0.75;violin
149.21595495208337;0.09916666666666174;65;0.75;violin
149.41595495208338;0.09916666666666174;55;0.75;violin
149.41595495208338;0.09916666666666174;63;0.75;violin
149.61595495208337;0.09916666666666174;91;0.3828125;violin
149.81595495208336;0.09916666666669016;91;0.3828125;violin
150.01595495208338;0.09916666666666174;91;0.3828125;violin
150.21595495208337;0.06416666666666515;92;0.3828125;violin
150.28095495208336;0.09916666666666174;91;0.3828125;violin
150.41595495208338;0.09916666666666174;89;0.3828125;violin
150.61595495208337;0.09916666666666174;91;0.3828125;violin
150.81595495208336;0.09916666666669016;58;0.75;violin
150.81595495208336;0.09916666666669016;65;0.75;violin
151.01595495208338;0.09916666666666174;55;0.75;violin
151.01595495208338;0.09916666666666174;63;0.75;violin
151.21595495208337;0.09916666666666174;94;0.3828125;violin
151.41595495208338;0.09916666666666174;94;0.3828125;violin
151.61595495208337;0.09916666666666174;94;0.3828125;violin
151.81595495208336;0.06416666666666515;96;0.3828125;violin
151.88095495208336;0.09916666666669016;94;0.3828125;violin
152.01595495208338;0.09916666666666174;93;0.3828125;violin
152.21595495208337;0.09916666666666174;94;0.3828125;violin
152.41595495208338;0.09916666666666174;58;0.75;violin
152.41595495208338;0.09916666666666174;65;0.75;violin
152.61595495208337;0.09916666666666174;55;0.75;violin
152.61595495208337;0.09916666666666174;63;0.75;violin
152.81595495208336;0.09916666666669016;99;0.5;violin
153.01595495208338;0.09916666666666174;99;0.5;violin
153.21595495208337;0.09916666666666174;99;0.5;violin
153.41595495208338;0.06416666666666515;101;0.5;violin
153.48095495208338;0.09916666666666174;99;0.5;violin
153.61595495208337;0.09916666666666174;98;0.5;violin
153.81595495208336;0.06416666666666515;101;0.5;violin
153.88095495208336;0.09916666666669016;99;0.5;violin
154.01595495208338;0.09916666666666174;98;0.5;violin
154.21595495208337;0.19916666666668448;99;0.5;violin
154.41595495208338;0.19916666666665606;58;0.75;violin
154.41595495208338;0.19916666666665606;65;0.75;violin
154.61595495208337;0.19916666666665606;63;0.75;violin
154.61595495208337;0.19916666666665606;67;0.75;violin
154.81595495208336;0.19916666666668448;58;0.75;violin
154.81595495208336;0.19916666666668448;65;0.75;violin
155.01595495208338;0.19916666666665606;63;0.75;violin
155.01595495208338;0.19916666666665606;67;0.75;violin
155.21595495208337;0.19916666666668448;58;0.75;violin
155.21595495208337;0.19916666666668448;65;0.75;violin
155.21595495208337;0.19916666666668448;74;0.75;violin
155.41595495208338;0.19916666666665606;55;0.75;violin
155.41595495208338;0.19916666666665606;63;0.75;violin
155.41595495208338;0.19916666666665606;75;0.75;violin
155.61595495208337;0.19916666666665606;58;0.75;violin
155.61595495208337;0.19916666666665606;65;0.75;violin
155.61595495208337;0.19916666666665606;74;0.75;violin
155.81595495208336;0.7991666666666788;55;0.75;violin
155.81595495208336;0.7991666666666788;63;0.75;violin
155.81595495208336;0.7991666666666788;75;0.75;violin
