start;duration;pitch;velocity;instrument
0.0;1.9341389145833332;62;0.3828125;violin
0.0;0.9663974145833333;78;0.3828125;violin
0.9677414999999999;0.3212364145833332;79;0.3828125;violin
1.2903219999999997;0.3212364145833335;76;0.3828125;violin
1.6129025;0.3212364145833333;78;0.3828125;violin
1.9354829999999998;1.9341389145833332;62;0.3828125;violin
1.9354829999999998;0.9663974145833334;74;0.3828125;violin
2.9032245;0.3212364145833333;69;0.3828125;violin
3.225805;0.3212364145833333;81;0.3828125;violin
3.5483854999999997;0.3212364145833333;79;0.3828125;violin
3.8709659999999997;1.934138914583333;62;0.3828125;violin
3.8709659999999997;0.9663974145833332;78;0.3828125;violin
4.838707499999999;0.32123641458333374;79;0.3828125;violin
5.161287999999999;0.32123641458333374;76;0.3828125;violin
5.4838685;0.32123641458333285;78;0.3828125;violin
5.806449;1.9341389145833325;62;0.3828125;violin
5.806449;0.9663974145833327;74;0.3828125;violin
6.7741905;0.32123641458333285;69;0.3828125;violin
7.0967709999999995;0.32123641458333285;78;0.3828125;violin
7.419351499999999;0.32123641458333285;79;0.3828125;violin
7.741931999999999;1.9341389145833334;62;0.3828125;violin
7.741931999999999;0.9663974145833327;81;0.3828125;violin
8.7096735;0.32123641458333374;83;0.3828125;violin
9.032253999999998;0.32123641458333374;81;0.3828125;violin
9.354834499999999;0.32123641458333374;80;0.3828125;violin
9.677414999999998;1.9341389145833343;62;0.3828125;violin
9.677414999999998;0.9663974145833336;81;0.3828125;violin
10.645156499999999;0.32123641458333374;78;0.3828125;violin
10.967737;0.32123641458333196;81;0.3828125;violin
11.290317499999999;0.32123641458333374;79;0.3828125;violin
11.612898;0.9663974145833318;67;0.3828125;violin
11.612898;0.6438169145833328;78;0.3828125;violin
12.258059;0.32123641458333196;76;0.3828125;violin
12.580639499999998;0.9663974145833336;68;0.3828125;violin
12.580639499999998;0.32123641458333374;76;0.3828125;violin
12.90322;0.32123641458333196;78;0.3828125;violin
13.225800499999998;0.32123641458333374;76;0.3828125;violin
13.548381;0.9663974145833318;69;0.3828125;violin
13.548381;0.9663974145833318;76;0.3828125;violin
14.516122499999998;0.32123641458333374;81;0.3828125;violin
14.838702999999999;0.32123641458333196;80;0.3828125;violin
15.161283499999998;0.32123641458333374;79;0.3828125;violin
15.483863999999999;1.9341389145833343;62;0.3828125;violin
15.483863999999999;0.9663974145833318;78;0.3828125;violin
16.4516055;0.32123641458333196;79;0.3828125;violin
16.774185999999997;0.3212364145833355;76;0.3828125;violin
17.096766499999998;0.3212364145833355;78;0.3828125;violin
17.419347;1.9341389145833325;62;0.3828125;violin
17.419347;0.9663974145833336;74;0.3828125;violin
18.387088499999997;0.3212364145833355;69;0.3828125;violin
18.709668999999998;0.32123641458333196;81;0.3828125;violin
19.0322495;0.32123641458333196;79;0.3828125;violin
19.354829999999996;1.934138914583336;62;0.3828125;violin
19.354829999999996;0.9663974145833336;78;0.3828125;violin
20.3225715;0.32123641458333196;79;0.3828125;violin
20.645151999999996;0.3212364145833355;76;0.3828125;violin
20.967732499999997;0.3212364145833355;78;0.3828125;violin
21.290312999999998;1.9341389145833325;62;0.3828125;violin
21.290312999999998;0.9663974145833336;74;0.3828125;violin
22.258054499999997;0.3212364145833355;69;0.3828125;violin
22.580634999999997;0.32123641458333196;78;0.3828125;violin
22.903215499999998;0.32123641458333196;79;0.3828125;violin
23.225796;1.9341389145833325;62;0.3828125;violin
23.225796;0.9663974145833301;81;0.3828125;violin
24.193537499999998;0.32123641458333196;83;0.3828125;violin
24.516118;0.32123641458333196;81;0.3828125;violin
24.838698499999996;0.3212364145833355;80;0.3828125;violin
25.161278999999997;0.9663974145833336;62;0.3828125;violin
25.161278999999997;0.6438169145833328;81;0.3828125;violin
25.80644;0.32123641458333196;78;0.3828125;violin
26.129020499999996;0.9663974145833336;67;0.3828125;violin
26.129020499999996;0.6438169145833363;78;0.3828125;violin
26.774181499999997;0.32123641458333196;76;0.3828125;violin
27.096762;0.9663974145833336;69;0.3828125;violin
27.096762;0.9663974145833336;74;0.3828125;violin
28.064503499999997;0.32123641458333196;69;0.3828125;violin
28.064503499999997;0.32123641458333196;73;0.3828125;violin
28.387083999999998;0.32123641458333196;74;0.3828125;violin
28.709664499999995;0.3212364145833355;76;0.3828125;violin
29.032244999999996;1.9341389145833325;62;0.3828125;violin
29.032244999999996;1.9341389145833325;74;0.3828125;violin
30.967727999999997;1.9341389145833325;62;0.75;violin
30.967727999999997;0.9663974145833336;81;0.75;violin
30.967727999999997;0.9663974145833336;90;0.75;violin
31.935469499999996;0.32123641458333196;78;0.75;violin
31.935469499999996;0.32123641458333196;86;0.75;violin
32.25805;0.32123641458333196;79;0.75;violin
32.25805;0.32123641458333196;88;0.75;violin
32.5806305;0.32123641458333196;80;0.75;violin
32.5806305;0.32123641458333196;89;0.75;violin
32.903211;1.934138914583329;62;0.75;violin
32.903211;0.9663974145833336;81;0.75;violin
32.903211;0.9663974145833336;90;0.75;violin
33.870952499999994;0.32123641458333196;78;0.75;violin
33.870952499999994;0.32123641458333196;86;0.75;violin
34.193532999999995;0.32123641458333196;79;0.75;violin
34.193532999999995;0.32123641458333196;88;0.75;violin
34.516113499999996;0.32123641458333196;80;0.75;violin
34.516113499999996;0.32123641458333196;89;0.75;violin
34.838694;1.934138914583336;62;0.75;violin
34.838694;0.9663974145833336;81;0.75;violin
34.838694;0.9663974145833336;90;0.75;violin
35.8064355;0.32123641458333196;83;0.75;violin
35.8064355;0.32123641458333196;91;0.75;violin
36.12901599999999;0.32123641458333907;81;0.75;violin
36.12901599999999;0.32123641458333907;90;0.75;violin
36.451596499999994;0.32123641458333907;80;0.75;violin
36.451596499999994;0.32123641458333907;89;0.75;violin
36.774176999999995;1.934138914583336;62;0.75;violin
36.774176999999995;0.9663974145833336;81;0.75;violin
36.774176999999995;0.9663974145833336;90;0.75;violin
37.7419185;0.9663974145833336;78;0.75;violin
37.7419185;0.9663974145833336;86;0.75;violin
38.70965999999999;1.934138914583336;62;0.75;violin
38.70965999999999;0.9663974145833336;66;0.75;violin
38.70965999999999;0.9663974145833336;81;0.75;violin
39.677401499999995;0.32123641458333196;67;0.75;violin
39.677401499999995;0.32123641458333196;83;0.75;violin
39.999981999999996;0.32123641458333196;66;0.75;violin
39.999981999999996;0.32123641458333196;81;0.75;violin
40.3225625;0.32123641458333196;65;0.75;violin
40.3225625;0.32123641458333196;80;0.75;violin
40.645143;0.9677414999999954;62;0.75;violin
40.645143;0.9663974145833336;66;0.75;violin
40.645143;0.9663974145833336;81;0.75;violin
41.61288449999999;0.9663974145833336;62;0.75;violin
41.61288449999999;0.32123641458333907;78;0.75;violin
41.93546499999999;0.32123641458333196;61;0.75;violin
41.93546499999999;0.32123641458333196;76;0.75;violin
42.258045499999994;0.32123641458333196;59;0.75;violin
42.258045499999994;0.32123641458333196;74;0.75;violin
42.580625999999995;1.934138914583336;57;0.75;violin
42.580625999999995;0.9663974145833336;66;0.75;violin
42.580625999999995;0.9663974145833336;74;0.75;violin
43.5483675;0.32123641458333196;67;0.75;violin
43.5483675;0.32123641458333196;73;0.75;violin
43.870948;0.32123641458333196;67;0.75;violin
43.870948;0.32123641458333196;74;0.75;violin
44.19352849999999;0.32123641458333907;67;0.75;violin
44.19352849999999;0.32123641458333907;76;0.75;violin
44.51610899999999;0.32123641458333196;62;0.75;violin
44.51610899999999;0.32123641458333196;66;0.75;violin
44.51610899999999;0.32123641458333196;74;0.75;violin
44.838689499999994;0.32123641458333196;62;0.75;violin
44.838689499999994;0.32123641458333196;66;0.75;violin
44.838689499999994;0.32123641458333196;74;0.75;violin
45.161269999999995;0.32123641458333196;62;0.75;violin
45.161269999999995;0.32123641458333196;66;0.75;violin
45.161269999999995;0.32123641458333196;74;0.75;violin
45.483850499999996;0.6438169145833328;62;0.75;violin
45.483850499999996;0.6438169145833328;66;0.75;violin
45.483850499999996;0.6438169145833328;74;0.75;violin
46.451592;0.03020833333333428;59;0.75;violin
46.482842;0.03020833333333428;61;0.75;violin
46.514092;0.03020833333333428;59;0.75;violin
46.545342;0.03020833333333428;61;0.75;violin
46.576592;0.12395833333333428;58;0.75;violin
46.701592;0.12395833333333428;59;0.75;violin
46.826592;0.06145833333333428;61;0.75;violin
46.951592;0.06145833333333428;62;0.75;violin
47.076592;0.06145833333333428;61;0.75;violin
47.201592;0.03020833333333428;59;0.75;violin
47.232842;0.03020833333333428;61;0.75;violin
47.264092;0.03020833333333428;59;0.75;violin
47.295342;0.03020833333333428;61;0.75;violin
47.326592;0.12395833333333428;58;0.75;violin
47.451592;0.12395833333333428;59;0.75;violin
47.576592;0.06145833333333428;61;0.75;violin
47.701592;0.06145833333333428;62;0.75;violin
47.826592;0.06145833333333428;61;0.75;violin
47.951592;0.03020833333333428;59;0.75;violin
47.982842;0.03020833333333428;61;0.75;violin
48.014092;0.03020833333333428;59;0.75;violin
48.045342;0.03020833333333428;61;0.75;violin
48.076592;0.12395833333333428;58;0.75;violin
48.201592;0.12395833333333428;59;0.75;violin
48.326592;0.06145833333333428;61;0.75;violin
48.451592;0.06145833333333428;62;0.75;violin
48.576592;0.06145833333333428;64;0.75;violin
48.701592;0.03020833333333428;66;0.75;violin
48.732842;0.03020833333333428;67;0.75;violin
48.764092;0.03020833333333428;66;0.75;violin
48.795342;0.03020833333333428;67;0.75;violin
48.826592;0.12395833333333428;65;0.75;violin
48.951592;0.12395833333333428;66;0.75;violin
49.076592;0.06145833333333428;68;0.75;violin
49.201592;0.06145833333333428;70;0.75;violin
49.326592;0.06145833333333428;66;0.75;violin
49.451592;0.03020833333333428;71;0.75;violin
49.482842;0.03020833333333428;73;0.75;violin
49.514092;0.03020833333333428;71;0.75;violin
49.545342;0.03020833333333428;73;0.75;violin
49.576592;0.12395833333333428;70;0.75;violin
49.701592;0.12395833333333428;71;0.75;violin
49.826592;0.06145833333333428;73;0.75;violin
49.951592;0.06145833333333428;74;0.75;violin
50.076592;0.06145833333333428;76;0.75;violin
50.201592;0.03020833333333428;78;0.75;violin
50.232842;0.03020833333333428;79;0.75;violin
50.264092;0.03020833333333428;78;0.75;violin
50.295342;0.03020833333333428;79;0.75;violin
50.326592;0.12395833333333428;77;0.75;violin
50.451592;0.12395833333333428;78;0.75;violin
50.576592;0.06145833333333428;86;0.75;violin
50.701592;0.06145833333333428;85;0.75;violin
50.826592;0.06145833333333428;83;0.75;violin
50.951592;0.12395833333333428;82;0.75;violin
51.076592;0.12395833333333428;85;0.75;violin
51.201592;0.12395833333333428;90;0.75;violin
51.326592;0.06145833333333428;94;0.75;violin
51.451592;0.06145833333333428;97;0.75;violin
51.576592;0.06145833333333428;102;0.75;violin
51.701592;0.24895833333333428;66;0.75;violin
51.701592;0.24895833333333428;78;0.75;violin
51.951592;0.24895833333333428;66;0.75;violin
51.951592;0.24895833333333428;78;0.75;violin
52.201592;0.24895833333333428;66;0.75;violin
52.201592;0.24895833333333428;78;0.75;violin
52.451592;0.03020833333333428;59;0.75;violin
52.482842;0.03020833333333428;61;0.75;violin
52.514092;0.03020833333333428;59;0.75;violin
52.545342;0.03020833333333428;61;0.75;violin
52.576592;0.12395833333333428;58;0.75;violin
52.701592;0.12395833333333428;59;0.75;violin
52.826592;0.06145833333333428;61;0.75;violin
52.951592;0.06145833333333428;62;0.75;violin
53.076592;0.06145833333333428;61;0.75;violin
53.201592;0.03020833333333428;59;0.75;violin
53.232842;0.03020833333333428;61;0.75;violin
53.264092;0.03020833333333428;59;0.75;violin
53.295342;0.03020833333333428;61;0.75;violin
53.326592;0.12395833333333428;58;0.75;violin
53.451592;0.12395833333333428;59;0.75;violin
53.576592;0.06145833333333428;61;0.75;violin
53.701592;0.06145833333333428;62;0.75;violin
53.826592;0.06145833333333428;61;0.75;violin
53.951592;0.03020833333333428;59;0.75;violin
53.982842;0.03020833333333428;61;0.75;violin
54.014092;0.03020833333333428;59;0.75;violin
54.045342;0.03020833333333428;61;0.75;violin
54.076592;0.12395833333333428;58;0.75;violin
54.201592;0.12395833333333428;59;0.75;violin
54.326592;0.06145833333333428;61;0.75;violin
54.451592;0.06145833333333428;62;0.75;violin
54.576592;0.06145833333333428;64;0.75;violin
54.701592;0.03020833333333428;66;0.75;violin
54.732842;0.03020833333333428;67;0.75;violin
54.764092;0.03020833333333428;66;0.75;violin
54.795342;0.03020833333333428;67;0.75;violin
54.826592;0.12395833333333428;65;0.75;violin
54.951592;0.12395833333333428;66;0.75;violin
55.076592;0.06145833333333428;68;0.75;violin
55.201592;0.06145833333333428;70;0.75;violin
55.326592;0.06145833333333428;66;0.75;violin
55.451592;0.03020833333333428;71;0.75;violin
55.482842;0.03020833333333428;73;0.75;violin
55.514092;0.03020833333333428;71;0.75;violin
55.545342;0.03020833333333428;73;0.75;violin
55.576592;0.12395833333333428;70;0.75;violin
55.701592;0.12395833333333428;71;0.75;violin
55.826592;0.06145833333333428;73;0.75;violin
55.951592;0.06145833333333428;74;0.75;violin
56.076592;0.06145833333333428;76;0.75;violin
56.201592;0.03020833333333428;78;0.75;violin
56.232842;0.03020833333333428;79;0.75;violin
56.264092;0.03020833333333428;78;0.75;violin
56.295342;0.03020833333333428;79;0.75;violin
56.326592;0.12395833333333428;77;0.75;violin
56.451592;0.12395833333333428;78;0.75;violin
56.576592;0.06145833333333428;86;0.75;violin
56.701592;0.06145833333333428;85;0.75;violin
56.826592;0.06145833333333428;82;0.75;violin
56.951592;0.03020833333333428;83;0.75;violin
56.982842;0.03020833333333428;85;0.75;violin
57.014092;0.03020833333333428;83;0.75;violin
57.045342;0.03020833333333428;85;0.75;violin
57.076592;0.12395833333333428;82;0.75;violin
57.201592;0.12395833333333428;83;0.75;violin
57.326592;0.06145833333333428;86;0.75;violin
57.451592;0.06145833333333428;90;0.75;violin
57.576592;0.06145833333333428;95;0.75;violin
57.701592;0.24895833333333428;71;0.75;violin
57.701592;0.24895833333333428;83;0.75;violin
57.951592;0.24895833333333428;71;0.75;violin
57.951592;0.24895833333333428;83;0.75;violin
58.201592;0.24895833333333428;71;0.75;violin
58.201592;0.24895833333333428;83;0.75;violin
58.451592;0.03020833333333428;59;0.75;violin
58.482842;0.03020833333333428;61;0.75;violin
58.514092;0.03020833333333428;59;0.75;violin
58.545342;0.03020833333333428;61;0.75;violin
58.576592;0.12395833333333428;58;0.75;violin
58.701592;0.12395833333333428;59;0.75;violin
58.826592;0.06145833333333428;61;0.75;violin
58.951592;0.06145833333333428;62;0.75;violin
59.076592;0.06145833333333428;61;0.75;violin
59.201592;0.03020833333333428;59;0.75;violin
59.232842;0.03020833333333428;61;0.75;violin
59.264092;0.03020833333333428;59;0.75;violin
59.295342;0.03020833333333428;61;0.75;violin
59.326592;0.12395833333333428;58;0.75;violin
59.451592;0.12395833333333428;59;0.75;violin
59.576592;0.06145833333333428;61;0.75;violin
59.701592;0.06145833333333428;62;0.75;violin
59.826592;0.06145833333333428;61;0.75;violin
59.951592;0.03020833333333428;59;0.75;violin
59.982842;0.03020833333333428;61;0.75;violin
60.014092;0.03020833333333428;59;0.75;violin
60.045342;0.03020833333333428;61;0.75;violin
60.076592;0.12395833333333428;58;0.75;violin
60.201592;0.12395833333333428;59;0.75;violin
60.326592;0.06145833333333428;61;0.75;violin
60.451592;0.06145833333333428;62;0.75;violin
60.576592;0.06145833333333428;64;0.75;violin
60.701592;0.03020833333333428;66;0.75;violin
60.732842;0.03020833333333428;67;0.75;violin
60.764092;0.03020833333333428;66;0.75;violin
60.795342;0.03020833333333428;67;0.75;violin
60.826592;0.12395833333333428;65;0.75;violin
60.951592;0.12395833333333428;66;0.75;violin
61.076592;0.06145833333333428;68;0.75;violin
61.201592;0.06145833333333428;70;0.75;violin
61.326592;0.06145833333333428;66;0.75;violin
61.451592;0.03020833333333428;71;0.75;violin
61.482842;0.03020833333333428;73;0.75;violin
61.514092;0.03020833333333428;71;0.75;violin
61.545342;0.03020833333333428;73;0.75;violin
61.576592;0.12395833333333428;70;0.75;violin
61.701592;0.12395833333333428;71;0.75;violin
61.826592;0.06145833333333428;73;0.75;violin
61.951592;0.06145833333333428;74;0.75;violin
62.076592;0.06145833333333428;76;0.75;violin
62.201592;0.03020833333333428;78;0.75;violin
62.232842;0.03020833333333428;79;0.75;violin
62.264092;0.03020833333333428;78;0.75;violin
62.295342;0.03020833333333428;79;0.75;violin
62.326592;0.12395833333333428;77;0.75;violin
62.451592;0.12395833333333428;78;0.75;violin
62.576592;0.06145833333333428;86;0.75;violin
62.701592;0.06145833333333428;85;0.75;violin
62.826592;0.06145833333333428;83;0.75;violin
62.951592;0.12395833333333428;82;0.75;violin
63.076592;0.12395833333333428;85;0.75;violin
63.201592;0.12395833333333428;90;0.75;violin
63.326592;0.06145833333333428;94;0.75;violin
63.451592;0.06145833333333428;97;0.75;violin
63.576592;0.06145833333333428;102;0.75;violin
63.701592;0.24895833333333428;66;0.75;violin
63.701592;0.24895833333333428;78;0.75;violin
63.951592;0.24895833333332718;66;0.75;violin
63.951592;0.24895833333332718;78;0.75;violin
64.201592;0.24895833333332007;66;0.75;violin
64.201592;0.24895833333332007;78;0.75;violin
64.451592;0.03020833333332007;59;0.75;violin
64.482842;0.03020833333332007;61;0.75;violin
64.514092;0.03020833333332007;59;0.75;violin
64.545342;0.03020833333332007;61;0.75;violin
64.576592;0.12395833333332007;58;0.75;violin
64.701592;0.12395833333332007;59;0.75;violin
64.826592;0.06145833333332007;61;0.75;violin
64.951592;0.06145833333332007;62;0.75;violin
65.076592;0.06145833333332007;61;0.75;violin
65.201592;0.03020833333332007;59;0.75;violin
65.232842;0.03020833333332007;61;0.75;violin
65.264092;0.03020833333332007;59;0.75;violin
65.295342;0.03020833333332007;61;0.75;violin
65.326592;0.12395833333332007;58;0.75;violin
65.451592;0.12395833333332007;59;0.75;violin
65.576592;0.06145833333332007;61;0.75;violin
65.701592;0.06145833333332007;62;0.75;violin
65.826592;0.06145833333332007;61;0.75;violin
65.951592;0.03020833333332007;59;0.75;violin
65.982842;0.03020833333332007;61;0.75;violin
66.014092;0.03020833333332007;59;0.75;violin
66.045342;0.03020833333332007;61;0.75;violin
66.076592;0.12395833333332007;58;0.75;violin
66.201592;0.12395833333332007;59;0.75;violin
66.326592;0.06145833333332007;61;0.75;violin
66.451592;0.06145833333332007;62;0.75;violin
66.576592;0.06145833333332007;64;0.75;violin
66.701592;0.03020833333332007;66;0.75;violin
66.732842;0.03020833333332007;67;0.75;violin
66.764092;0.03020833333332007;66;0.75;violin
66.795342;0.03020833333332007;67;0.75;violin
66.826592;0.12395833333332007;65;0.75;violin
66.951592;0.12395833333332007;66;0.75;violin
67.076592;0.06145833333332007;68;0.75;violin
67.201592;0.06145833333332007;70;0.75;violin
67.326592;0.06145833333332007;66;0.75;violin
67.451592;0.03020833333332007;71;0.75;violin
67.482842;0.03020833333332007;73;0.75;violin
67.514092;0.03020833333332007;71;0.75;violin
67.545342;0.03020833333332007;73;0.75;violin
67.576592;0.12395833333332007;70;0.75;violin
67.701592;0.12395833333332007;71;0.75;violin
67.826592;0.06145833333332007;73;0.75;violin
67.951592;0.06145833333332007;74;0.75;violin
68.076592;0.06145833333332007;76;0.75;violin
68.201592;0.03020833333332007;78;0.75;violin
68.232842;0.03020833333332007;79;0.75;violin
68.264092;0.03020833333332007;78;0.75;violin
68.295342;0.03020833333332007;79;0.75;violin
68.326592;0.12395833333332007;77;0.75;violin
68.451592;0.12395833333332007;78;0.75;violin
68.576592;0.06145833333332007;86;0.75;violin
68.701592;0.06145833333332007;85;0.75;violin
68.826592;0.06145833333332007;82;0.75;violin
68.951592;0.03020833333332007;83;0.75;violin
68.982842;0.03020833333332007;85;0.75;violin
69.014092;0.03020833333332007;83;0.75;violin
69.045342;0.03020833333332007;85;0.75;violin
69.076592;0.12395833333332007;82;0.75;violin
69.201592;0.12395833333332007;83;0.75;violin
69.326592;0.06145833333332007;86;0.75;violin
69.451592;0.06145833333332007;90;0.75;violin
69.576592;0.06145833333332007;95;0.75;violin
69.701592;0.24895833333332007;71;0.75;violin
69.701592;0.24895833333332007;83;0.75;violin
69.951592;0.24895833333332007;71;0.75;violin
69.951592;0.24895833333332007;83;0.75;violin
70.201592;0.24895833333332007;71;0.75;violin
70.201592;0.24895833333332007;83;0.75;violin
70.451592;0.03020833333332007;81;0.75;violin
70.482842;0.03020833333332007;83;0.75;violin
70.514092;0.03020833333332007;81;0.75;violin
70.545342;0.03020833333332007;83;0.75;violin
70.576592;0.12395833333332007;80;0.75;violin
70.701592;0.12395833333332007;81;0.75;violin
70.826592;0.12395833333332007;78;0.75;violin
70.951592;0.12395833333332007;75;0.75;violin
71.076592;0.12395833333332007;71;0.75;violin
71.201592;0.12395833333332007;69;0.75;violin
71.326592;0.12395833333332007;66;0.75;violin
71.451592;0.12395833333332007;63;0.75;violin
71.576592;0.12395833333332007;59;0.75;violin
71.701592;0.12395833333332007;63;0.75;violin
71.826592;0.12395833333332007;66;0.75;violin
71.951592;0.03020833333332007;67;0.75;violin
71.982842;0.03020833333332007;69;0.75;violin
72.014092;0.03020833333332007;67;0.75;violin
72.045342;0.03020833333332007;69;0.75;violin
72.076592;0.12395833333332007;66;0.75;violin
72.201592;0.12395833333332007;67;0.75;violin
72.326592;0.12395833333332007;64;0.75;violin
72.451592;0.12395833333332007;67;0.75;violin
72.576592;0.12395833333332007;71;0.75;violin
72.701592;0.24895833333332007;76;0.75;violin
72.701592;0.24895833333332007;88;0.75;violin
72.951592;0.24895833333332007;76;0.75;violin
72.951592;0.24895833333332007;88;0.75;violin
73.201592;0.24895833333332007;76;0.75;violin
73.201592;0.24895833333332007;88;0.75;violin
73.451592;0.03020833333332007;79;0.75;violin
73.482842;0.03020833333332007;81;0.75;violin
73.514092;0.03020833333332007;79;0.75;violin
73.545342;0.03020833333332007;81;0.75;violin
73.576592;0.12395833333332007;78;0.75;violin
73.701592;0.12395833333332007;79;0.75;violin
73.826592;0.12395833333332007;76;0.75;violin
73.951592;0.12395833333332007;73;0.75;violin
74.076592;0.12395833333332007;69;0.75;violin
74.201592;0.12395833333332007;67;0.75;violin
74.326592;0.12395833333332007;64;0.75;violin
74.451592;0.12395833333332007;61;0.75;violin
74.576592;0.12395833333332007;57;0.75;violin
74.701592;0.12395833333332007;64;0.75;violin
74.826592;0.12395833333332007;67;0.75;violin
74.951592;0.03020833333332007;66;0.75;violin
74.982842;0.03020833333332007;67;0.75;violin
75.014092;0.03020833333332007;66;0.75;violin
75.045342;0.03020833333332007;67;0.75;violin
75.076592;0.12395833333332007;64;0.75;violin
75.201592;0.12395833333332007;66;0.75;violin
75.326592;0.12395833333332007;62;0.75;violin
75.451592;0.12395833333332007;66;0.75;violin
75.576592;0.12395833333332007;69;0.75;violin
75.701592;0.24895833333332007;74;0.75;violin
75.701592;0.24895833333332007;86;0.75;violin
75.951592;0.24895833333332007;74;0.75;violin
75.951592;0.24895833333332007;86;0.75;violin
76.201592;0.24895833333332007;74;0.75;violin
76.201592;0.24895833333332007;86;0.75;violin
76.451592;0.03020833333332007;83;0.75;violin
76.482842;0.03020833333332007;85;0.75;violin
76.514092;0.03020833333332007;83;0.75;violin
76.545342;0.03020833333332007;85;0.75;violin
76.576592;0.12395833333332007;82;0.75;violin
76.701592;0.12395833333332007;83;0.75;violin
76.826592;0.06145833333332007;67;0.75;violin
76.951592;0.06145833333332007;91;0.75;violin
77.076592;0.06145833333332007;83;0.75;violin
77.201592;0.03020833333332007;81;0.75;violin
77.232842;0.03020833333332007;83;0.75;violin
77.264092;0.03020833333332007;81;0.75;violin
77.295342;0.03020833333332007;83;0.75;violin
77.326592;0.12395833333332007;80;0.75;violin
77.451592;0.12395833333332007;81;0.75;violin
77.576592;0.06145833333332007;66;0.75;violin
77.701592;0.06145833333332007;90;0.75;violin
77.826592;0.06145833333332007;81;0.75;violin
77.951592;0.03020833333332007;79;0.75;violin
77.982842;0.03020833333332007;81;0.75;violin
78.014092;0.03020833333332007;79;0.75;violin
78.045342;0.03020833333332007;81;0.75;violin
78.076592;0.12395833333332007;78;0.75;violin
78.201592;0.12395833333332007;79;0.75;violin
78.326592;0.06145833333332007;64;0.75;violin
78.451592;0.06145833333332007;88;0.75;violin
78.576592;0.06145833333332007;79;0.75;violin
78.701592;0.03020833333332007;78;0.75;violin
78.732842;0.03020833333332007;79;0.75;violin
78.764092;0.03020833333332007;78;0.75;violin
78.795342;0.03020833333332007;79;0.75;violin
78.826592;0.12395833333332007;76;0.75;violin
78.951592;0.12395833333332007;78;0.75;violin
79.076592;0.06145833333332007;62;0.75;violin
79.201592;0.06145833333332007;86;0.75;violin
79.326592;0.06145833333332007;78;0.75;violin
79.451592;0.03020833333332007;76;0.75;violin
79.482842;0.03020833333332007;78;0.75;violin
79.514092;0.03020833333332007;76;0.75;violin
79.545342;0.03020833333332007;78;0.75;violin
79.576592;0.12395833333332007;75;0.75;violin
79.701592;0.12395833333332007;76;0.75;violin
79.826592;0.06145833333332007;55;0.75;violin
79.951592;0.06145833333332007;79;0.75;violin
80.076592;0.06145833333332007;78;0.75;violin
80.201592;0.03020833333332007;76;0.75;violin
80.232842;0.03020833333332007;78;0.75;violin
80.264092;0.03020833333332007;76;0.75;violin
80.295342;0.03020833333332007;78;0.75;violin
80.326592;0.12395833333332007;75;0.75;violin
80.451592;0.12395833333332007;76;0.75;violin
80.576592;0.06145833333332007;56;0.75;violin
80.701592;0.06145833333332007;76;0.75;violin
80.826592;0.06145833333332007;74;0.75;violin
80.951592;0.03020833333332007;73;0.75;violin
80.982842;0.03020833333332007;74;0.75;violin
81.014092;0.03020833333332007;73;0.75;violin
81.045342;0.03020833333332007;74;0.75;violin
81.076592;0.12395833333332007;71;0.75;violin
81.201592;0.12395833333332007;73;0.75;violin
81.326592;0.06145833333332007;57;0.75;violin
81.451592;0.06145833333332007;61;0.75;violin
81.576592;0.06145833333332007;64;0.75;violin
81.701592;0.24895833333332007;81;0.3828125;violin
81.701592;0.24895833333332007;93;0.3828125;violin
81.951592;0.24895833333332007;81;0.3828125;violin
81.951592;0.24895833333332007;93;0.3828125;violin
82.201592;0.24895833333332007;81;0.3828125;violin
82.201592;0.24895833333332007;93;0.3828125;violin
82.451592;0.03020833333332007;74;0.75;violin
82.482842;0.03020833333332007;76;0.75;violin
82.514092;0.03020833333332007;74;0.75;violin
82.545342;0.03020833333332007;76;0.75;violin
82.576592;0.12395833333332007;73;0.75;violin
82.701592;0.12395833333332007;74;0.75;violin
82.826592;0.06145833333332007;58;0.75;violin
82.951592;0.06145833333332007;62;0.75;violin
83.076592;0.06145833333332007;65;0.75;violin
83.201592;0.24895833333332007;80;0.3828125;violin
83.201592;0.24895833333332007;92;0.3828125;violin
83.451592;0.24895833333332007;80;0.3828125;violin
83.451592;0.24895833333332007;92;0.3828125;violin
83.701592;0.24895833333332007;80;0.3828125;violin
83.701592;0.24895833333332007;92;0.3828125;violin
83.951592;0.03020833333332007;73;0.75;violin
83.982842;0.03020833333332007;74;0.75;violin
84.014092;0.03020833333332007;73;0.75;violin
84.045342;0.03020833333332007;74;0.75;violin
84.076592;0.12395833333332007;71;0.75;violin
84.201592;0.12395833333332007;73;0.75;violin
84.326592;0.06145833333332007;57;0.75;violin
84.451592;0.06145833333332007;61;0.75;violin
84.576592;0.06145833333332007;64;0.75;violin
84.701592;0.24895833333332007;81;0.3828125;violin
84.701592;0.24895833333332007;93;0.3828125;violin
84.951592;0.24895833333332007;81;0.3828125;violin
84.951592;0.24895833333332007;93;0.3828125;violin
85.201592;0.24895833333332007;81;0.3828125;violin
85.201592;0.24895833333332007;93;0.3828125;violin
85.451592;0.03020833333332007;74;0.75;violin
85.482842;0.03020833333332007;76;0.75;violin
85.514092;0.03020833333332007;74;0.75;violin
85.545342;0.03020833333332007;76;0.75;violin
85.576592;0.12395833333332007;73;0.75;violin
85.701592;0.12395833333332007;74;0.75;violin
85.826592;0.06145833333332007;58;0.75;violin
85.951592;0.06145833333332007;62;0.75;violin
86.076592;0.06145833333332007;65;0.75;violin
86.201592;0.24895833333332007;80;0.3828125;violin
86.201592;0.24895833333332007;92;0.3828125;violin
86.451592;0.24895833333332007;80;0.3828125;violin
86.451592;0.24895833333332007;92;0.3828125;violin
86.701592;0.24895833333332007;80;0.3828125;violin
86.701592;0.24895833333332007;92;0.3828125;violin
86.951592;0.03020833333332007;73;0.3828125;violin
86.982842;0.03020833333332007;74;0.3828125;violin
87.014092;0.03020833333332007;73;0.3828125;violin
87.045342;0.03020833333332007;74;0.3828125;violin
87.076592;0.12395833333332007;71;0.3828125;violin
87.201592;0.12395833333332007;73;0.3828125;violin
87.326592;0.06145833333332007;69;0.3828125;violin
87.451592;0.06145833333332007;64;0.3828125;violin
87.576592;0.06145833333332007;61;0.3828125;violin
87.701592;0.03020833333332007;69;0.3828125;violin
87.732842;0.03020833333332007;71;0.3828125;violin
87.764092;0.03020833333332007;69;0.3828125;violin
87.795342;0.03020833333332007;71;0.3828125;violin
87.826592;0.12395833333332007;68;0.3828125;violin
87.951592;0.12395833333332007;69;0.3828125;violin
88.076592;0.06145833333332007;64;0.3828125;violin
88.201592;0.06145833333332007;61;0.3828125;violin
88.326592;0.06145833333332007;57;0.3828125;violin
88.451592;0.03020833333332007;73;0.3828125;violin
88.482842;0.03020833333332007;74;0.3828125;violin
88.514092;0.03020833333332007;73;0.3828125;violin
88.545342;0.03020833333332007;74;0.3828125;violin
88.576592;0.12395833333332007;71;0.3828125;violin
88.701592;0.12395833333332007;73;0.3828125;violin
88.826592;0.06145833333332007;69;0.3828125;violin
88.951592;0.06145833333332007;64;0.3828125;violin
89.076592;0.06145833333332007;61;0.3828125;violin
89.201592;0.03020833333332007;69;0.3828125;violin
89.232842;0.03020833333332007;71;0.390625;violin
89.264092;0.03020833333332007;69;0.40625;violin
89.295342;0.03020833333332007;71;0.421875;violin
89.326592;0.12395833333332007;68;0.4375;violin
89.451592;0.12395833333332007;69;0.5;violin
89.576592;0.06145833333332007;64;0.5625;violin
89.701592;0.06145833333332007;61;0.625;violin
89.826592;0.06145833333332007;57;0.6875;violin
89.951592;0.24895833333332007;58;0.75;violin
89.951592;0.24895833333332007;70;0.75;violin
90.201592;0.24895833333332007;58;0.75;violin
90.201592;0.24895833333332007;70;0.75;violin
90.451592;0.24895833333332007;58;0.75;violin
90.451592;0.24895833333332007;70;0.75;violin
90.701592;0.24895833333332007;62;0.75;violin
90.701592;0.24895833333332007;74;0.75;violin
90.951592;0.24895833333332007;62;0.75;violin
90.951592;0.24895833333332007;74;0.75;violin
91.201592;0.24895833333332007;62;0.75;violin
91.201592;0.24895833333332007;74;0.75;violin
91.451592;0.24895833333332007;65;0.75;violin
91.451592;0.24895833333332007;77;0.75;violin
91.701592;0.24895833333332007;65;0.75;violin
91.701592;0.24895833333332007;77;0.75;violin
91.951592;0.24895833333332007;65;0.75;violin
91.951592;0.24895833333332007;77;0.75;violin
92.201592;0.24895833333332007;70;0.75;violin
92.201592;0.24895833333332007;82;0.75;violin
92.451592;0.12395833333332007;77;0.75;violin
92.576592;0.12395833333332007;74;0.75;violin
92.701592;0.12395833333332007;70;0.75;violin
92.826592;0.12395833333332007;69;0.75;violin
92.951592;0.12395833333332007;68;0.75;violin
93.076592;0.12395833333332007;71;0.75;violin
93.201592;0.06145833333332007;74;0.75;violin
93.326592;0.06145833333332007;77;0.75;violin
93.451592;0.12395833333332007;69;0.75;violin
93.576592;0.12395833333332007;73;0.75;violin
93.701592;0.06145833333332007;76;0.75;violin
93.826592;0.06145833333332007;81;0.75;violin
93.951592;0.06145833333332007;76;0.75;violin
94.076592;0.06145833333332007;72;0.75;violin
94.201592;0.06145833333332007;69;0.75;violin
94.326592;0.06145833333332007;67;0.75;violin
94.451592;0.12395833333332007;66;0.75;violin
94.576592;0.12395833333332007;69;0.75;violin
94.701592;0.06145833333332007;74;0.75;violin
94.826592;0.06145833333332007;78;0.75;violin
94.951592;0.12395833333332007;67;0.75;violin
95.076592;0.12395833333332007;71;0.75;violin
95.201592;0.06145833333332007;74;0.75;violin
95.326592;0.06145833333332007;79;0.75;violin
95.451592;0.06145833333332007;74;0.75;violin
95.576592;0.06145833333332007;71;0.75;violin
95.701592;0.06145833333332007;67;0.75;violin
95.826592;0.06145833333332007;66;0.75;violin
95.951592;0.12395833333332007;65;0.75;violin
96.076592;0.12395833333332007;68;0.75;violin
96.201592;0.06145833333332007;71;0.75;violin
96.326592;0.06145833333332007;74;0.75;violin
96.451592;0.12395833333332007;66;0.75;violin
96.576592;0.12395833333332007;70;0.75;violin
96.701592;0.06145833333332007;73;0.75;violin
96.826592;0.06145833333332007;78;0.75;violin
96.951592;0.12395833333332007;64;0.75;violin
97.076592;0.12395833333332007;70;0.75;violin
97.201592;0.06145833333332007;73;0.75;violin
97.326592;0.06145833333332007;78;0.75;violin
97.451592;0.12395833333332007;62;0.75;violin
97.576592;0.12395833333332007;66;0.75;violin
97.701592;0.06145833333332007;71;0.75;violin
97.826592;0.06145833333332007;74;0.75;violin
97.951592;0.12395833333332007;64;0.75;violin
98.076592;0.12395833333332007;67;0.75;violin
98.201592;0.06145833333332007;71;0.75;violin
98.326592;0.06145833333332007;76;0.75;violin
98.451592;0.12395833333332007;65;0.75;violin
98.576592;0.12395833333332007;68;0.75;violin
98.701592;0.06145833333332007;71;0.75;violin
98.826592;0.06145833333332007;74;0.75;violin
98.951592;0.12395833333332007;66;0.75;violin
99.076592;0.12395833333332007;71;0.75;violin
99.201592;0.06145833333332007;74;0.75;violin
99.326592;0.06145833333332007;78;0.75;violin
99.451592;0.12395833333332007;83;0.75;violin
99.701592;0.12395833333332007;66;0.75;violin
99.826592;0.12395833333332007;70;0.75;violin
99.951592;0.06145833333332007;73;0.75;violin
100.076592;0.06145833333332007;78;0.75;violin
100.201592;0.12395833333332007;82;0.75;violin
101.201592;0.03020833333332007;59;0.75;violin
101.232842;0.03020833333332007;61;0.75;violin
101.264092;0.03020833333332007;59;0.75;violin
101.295342;0.03020833333332007;61;0.75;violin
101.326592;0.12395833333332007;58;0.75;violin
101.451592;0.12395833333332007;59;0.75;violin
101.576592;0.06145833333332007;61;0.75;violin
101.701592;0.06145833333332007;62;0.75;violin
101.826592;0.06145833333332007;61;0.75;violin
101.951592;0.03020833333332007;59;0.75;violin
101.982842;0.03020833333332007;61;0.75;violin
102.014092;0.03020833333332007;59;0.75;violin
102.045342;0.03020833333332007;61;0.75;violin
102.076592;0.12395833333332007;58;0.75;violin
102.201592;0.12395833333332007;59;0.75;violin
102.326592;0.06145833333332007;61;0.75;violin
102.451592;0.06145833333332007;62;0.75;violin
102.576592;0.06145833333332007;64;0.75;violin
102.701592;0.03020833333332007;66;0.75;violin
102.732842;0.03020833333332007;67;0.75;violin
102.764092;0.03020833333332007;66;0.75;violin
102.795342;0.03020833333332007;67;0.75;violin
102.826592;0.12395833333332007;65;0.75;violin
102.951592;0.12395833333332007;66;0.75;violin
103.076592;0.06145833333332007;68;0.75;violin
103.201592;0.06145833333332007;70;0.75;violin
103.326592;0.06145833333332007;66;0.75;violin
103.451592;0.03020833333332007;71;0.75;violin
103.482842;0.03020833333332007;73;0.75;violin
103.514092;0.03020833333332007;71;0.75;violin
103.545342;0.03020833333332007;73;0.75;violin
103.576592;0.12395833333332007;70;0.75;violin
103.701592;0.12395833333332007;71;0.75;violin
103.826592;0.06145833333332007;73;0.75;violin
103.951592;0.06145833333332007;74;0.75;violin
104.076592;0.06145833333332007;76;0.75;violin
104.201592;0.03020833333332007;78;0.75;violin
104.232842;0.03020833333332007;79;0.75;violin
104.264092;0.03020833333332007;78;0.75;violin
104.295342;0.03020833333332007;79;0.75;violin
104.326592;0.12395833333332007;77;0.75;violin
104.451592;0.12395833333332007;78;0.75;violin
104.576592;0.06145833333332007;80;0.75;violin
104.701592;0.06145833333332007;82;0.75;violin
104.826592;0.06145833333332007;78;0.75;violin
104.951592;0.03020833333332007;83;0.75;violin
104.982842;0.03020833333332007;85;0.75;violin
105.014092;0.03020833333332007;83;0.75;violin
105.045342;0.03020833333332007;85;0.75;violin
105.076592;0.12395833333332007;82;0.75;violin
105.201592;0.12395833333332007;83;0.75;violin
105.326592;0.06145833333332007;85;0.75;violin
105.451592;0.06145833333332007;86;0.75;violin
105.576592;0.06145833333332007;88;0.75;violin
105.701592;0.24895833333332007;78;0.75;violin
105.701592;0.24895833333332007;90;0.75;violin
105.951592;0.24895833333332007;78;0.75;violin
105.951592;0.24895833333332007;90;0.75;violin
106.201592;0.24895833333332007;78;0.75;violin
106.201592;0.24895833333332007;90;0.75;violin
106.451592;0.24895833333332007;71;0.75;violin
106.451592;0.24895833333332007;83;0.75;violin
106.701592;0.49895833333332007;59;0.75;violin
107.951592;0.03020833333332007;81;0.75;violin
107.982842;0.03020833333332007;83;0.75;violin
108.014092;0.03020833333332007;81;0.75;violin
108.045342;0.03020833333332007;83;0.75;violin
108.076592;0.12395833333332007;80;0.75;violin
108.201592;0.12395833333332007;81;0.75;violin
108.326592;0.12395833333332007;78;0.75;violin
108.451592;0.12395833333332007;75;0.75;violin
108.576592;0.12395833333332007;71;0.75;violin
108.701592;0.12395833333332007;69;0.75;violin
108.826592;0.12395833333332007;66;0.75;violin
108.951592;0.12395833333332007;63;0.75;violin
109.076592;0.12395833333332007;59;0.75;violin
109.201592;0.12395833333332007;63;0.75;violin
109.326592;0.12395833333332007;66;0.75;violin
109.451592;0.03020833333332007;67;0.75;violin
109.482842;0.03020833333332007;69;0.75;violin
109.514092;0.03020833333332007;67;0.75;violin
109.545342;0.03020833333332007;69;0.75;violin
109.576592;0.12395833333332007;66;0.75;violin
109.701592;0.12395833333332007;67;0.75;violin
109.826592;0.12395833333332007;64;0.75;violin
109.951592;0.12395833333332007;67;0.75;violin
110.076592;0.12395833333332007;71;0.75;violin
110.201592;0.24895833333332007;76;0.75;violin
110.201592;0.24895833333332007;88;0.75;violin
110.451592;0.24895833333332007;76;0.75;violin
110.451592;0.24895833333332007;88;0.75;violin
110.701592;0.24895833333332007;76;0.75;violin
110.701592;0.24895833333332007;88;0.75;violin
110.951592;0.03020833333332007;79;0.75;violin
110.982842;0.03020833333332007;81;0.75;violin
111.014092;0.03020833333332007;79;0.75;violin
111.045342;0.03020833333332007;81;0.75;violin
111.076592;0.12395833333332007;78;0.75;violin
111.201592;0.12395833333332007;79;0.75;violin
111.326592;0.12395833333332007;76;0.75;violin
111.451592;0.12395833333332007;73;0.75;violin
111.576592;0.12395833333332007;69;0.75;violin
111.701592;0.12395833333332007;67;0.75;violin
111.826592;0.12395833333332007;64;0.75;violin
111.951592;0.12395833333332007;61;0.75;violin
112.076592;0.12395833333332007;57;0.75;violin
112.201592;0.12395833333332007;64;0.75;violin
112.326592;0.12395833333332007;67;0.75;violin
112.451592;0.03020833333332007;66;0.75;violin
112.482842;0.03020833333332007;67;0.75;violin
112.514092;0.03020833333332007;66;0.75;violin
112.545342;0.03020833333332007;67;0.75;violin
112.576592;0.12395833333332007;64;0.75;violin
112.701592;0.12395833333332007;66;0.75;violin
112.826592;0.12395833333332007;62;0.75;violin
112.951592;0.12395833333332007;66;0.75;violin
113.076592;0.12395833333332007;69;0.75;violin
113.201592;0.24895833333332007;74;0.75;violin
113.201592;0.24895833333332007;86;0.75;violin
113.451592;0.24895833333332007;74;0.75;violin
113.451592;0.24895833333332007;86;0.75;violin
113.701592;0.24895833333332007;74;0.75;violin
113.701592;0.24895833333332007;86;0.75;violin
113.951592;0.03020833333332007;83;0.75;violin
113.982842;0.03020833333332007;85;0.75;violin
114.014092;0.03020833333332007;83;0.75;violin
114.045342;0.03020833333332007;85;0.75;violin
114.076592;0.12395833333332007;82;0.75;violin
114.201592;0.12395833333332007;83;0.75;violin
114.326592;0.06145833333332007;67;0.75;violin
114.451592;0.06145833333332007;91;0.75;violin
114.576592;0.06145833333332007;83;0.75;violin
114.701592;0.03020833333332007;81;0.75;violin
114.732842;0.03020833333332007;83;0.75;violin
114.764092;0.03020833333332007;81;0.75;violin
114.795342;0.03020833333332007;83;0.75;violin
114.826592;0.12395833333332007;80;0.75;violin
114.951592;0.12395833333332007;81;0.75;violin
115.076592;0.06145833333332007;66;0.75;violin
115.201592;0.06145833333332007;90;0.75;violin
115.326592;0.06145833333332007;81;0.75;violin
115.451592;0.03020833333332007;79;0.75;violin
115.482842;0.03020833333332007;81;0.75;violin
115.514092;0.03020833333332007;79;0.75;violin
115.545342;0.03020833333332007;81;0.75;violin
115.576592;0.12395833333332007;78;0.75;violin
115.701592;0.12395833333332007;79;0.75;violin
115.826592;0.06145833333332007;64;0.75;violin
115.951592;0.06145833333332007;88;0.75;violin
116.076592;0.06145833333332007;79;0.75;violin
116.201592;0.03020833333332007;78;0.75;violin
116.232842;0.03020833333332007;79;0.75;violin
116.264092;0.03020833333332007;78;0.75;violin
116.295342;0.03020833333332007;79;0.75;violin
116.326592;0.12395833333332007;76;0.75;violin
116.451592;0.12395833333332007;78;0.75;violin
116.576592;0.06145833333332007;62;0.75;violin
116.701592;0.06145833333332007;86;0.75;violin
116.826592;0.06145833333332007;78;0.75;violin
116.951592;0.03020833333332007;76;0.75;violin
116.982842;0.03020833333332007;78;0.75;violin
117.014092;0.03020833333332007;76;0.75;violin
117.045342;0.03020833333332007;78;0.75;violin
117.076592;0.12395833333332007;75;0.75;violin
117.201592;0.12395833333332007;76;0.75;violin
117.326592;0.06145833333332007;55;0.75;violin
117.451592;0.06145833333332007;79;0.75;violin
117.576592;0.06145833333332007;78;0.75;violin
117.701592;0.03020833333332007;76;0.75;violin
117.732842;0.03020833333332007;78;0.75;violin
117.764092;0.03020833333332007;76;0.75;violin
117.795342;0.03020833333332007;78;0.75;violin
117.826592;0.12395833333332007;75;0.75;violin
117.951592;0.12395833333332007;76;0.75;violin
118.076592;0.06145833333332007;56;0.75;violin
118.201592;0.06145833333332007;76;0.75;violin
118.326592;0.06145833333332007;74;0.75;violin
118.451592;0.03020833333332007;73;0.75;violin
118.482842;0.03020833333332007;74;0.75;violin
118.514092;0.03020833333332007;73;0.75;violin
118.545342;0.03020833333332007;74;0.75;violin
118.576592;0.12395833333332007;71;0.75;violin
118.701592;0.12395833333332007;73;0.75;violin
118.826592;0.06145833333332007;57;0.75;violin
118.951592;0.06145833333332007;61;0.75;violin
119.076592;0.06145833333332007;64;0.75;violin
119.201592;0.24895833333332007;81;0.3828125;violin
119.201592;0.24895833333332007;93;0.3828125;violin
119.451592;0.24895833333332007;81;0.3828125;violin
119.451592;0.24895833333332007;93;0.3828125;violin
119.701592;0.24895833333332007;81;0.3828125;violin
119.701592;0.24895833333332007;93;0.3828125;violin
119.951592;0.03020833333332007;74;0.75;violin
119.982842;0.03020833333332007;76;0.75;violin
120.014092;0.03020833333332007;74;0.75;violin
120.045342;0.03020833333332007;76;0.75;violin
120.076592;0.12395833333332007;73;0.75;violin
120.201592;0.12395833333332007;74;0.75;violin
120.326592;0.06145833333332007;58;0.75;violin
120.451592;0.06145833333332007;62;0.75;violin
120.576592;0.06145833333332007;65;0.75;violin
120.701592;0.24895833333332007;80;0.3828125;violin
120.701592;0.24895833333332007;92;0.3828125;violin
120.951592;0.24895833333332007;80;0.3828125;violin
120.951592;0.24895833333332007;92;0.3828125;violin
121.201592;0.24895833333332007;80;0.3828125;violin
121.201592;0.24895833333332007;92;0.3828125;violin
121.451592;0.03020833333332007;73;0.75;violin
121.482842;0.03020833333332007;74;0.75;violin
121.514092;0.03020833333332007;73;0.75;violin
121.545342;0.03020833333332007;74;0.75;violin
121.576592;0.12395833333332007;71;0.75;violin
121.701592;0.12395833333332007;73;0.75;violin
121.826592;0.06145833333332007;57;0.75;violin
121.951592;0.06145833333332007;61;0.75;violin
122.076592;0.06145833333332007;64;0.75;violin
122.201592;0.24895833333332007;81;0.3828125;violin
122.201592;0.24895833333332007;93;0.3828125;violin
122.451592;0.24895833333332007;81;0.3828125;violin
122.451592;0.24895833333332007;93;0.3828125;violin
122.701592;0.24895833333332007;81;0.3828125;violin
122.701592;0.24895833333332007;93;0.3828125;violin
122.951592;0.03020833333332007;74;0.75;violin
122.982842;0.03020833333332007;76;0.75;violin
123.014092;0.03020833333332007;74;0.75;violin
123.045342;0.03020833333332007;76;0.75;violin
123.076592;0.12395833333332007;73;0.75;violin
123.201592;0.12395833333332007;74;0.75;violin
123.326592;0.06145833333332007;58;0.75;violin
123.451592;0.06145833333332007;62;0.75;violin
123.576592;0.06145833333332007;65;0.75;violin
123.701592;0.24895833333332007;80;0.3828125;violin
123.701592;0.24895833333332007;92;0.3828125;violin
123.951592;0.24895833333332007;80;0.3828125;violin
123.951592;0.24895833333332007;92;0.3828125;violin
124.201592;0.24895833333332007;80;0.3828125;violin
124.201592;0.24895833333332007;92;0.3828125;violin
124.451592;0.03020833333332007;73;0.3828125;violin
124.482842;0.03020833333332007;74;0.3828125;violin
124.514092;0.03020833333332007;73;0.3828125;violin
124.545342;0.03020833333332007;74;0.3828125;violin
124.576592;0.12395833333332007;71;0.3828125;violin
124.701592;0.12395833333332007;73;0.3828125;violin
124.826592;0.06145833333332007;69;0.3828125;violin
124.951592;0.06145833333332007;64;0.3828125;violin
125.076592;0.06145833333332007;61;0.3828125;violin
125.201592;0.03020833333332007;69;0.3828125;violin
125.232842;0.03020833333332007;71;0.3828125;violin
125.264092;0.03020833333332007;69;0.3828125;violin
125.295342;0.03020833333332007;71;0.3828125;violin
125.326592;0.12395833333332007;68;0.3828125;violin
125.451592;0.12395833333332007;69;0.3828125;violin
125.576592;0.06145833333332007;64;0.3828125;violin
125.701592;0.06145833333332007;61;0.3828125;violin
125.826592;0.06145833333332007;57;0.3828125;violin
125.951592;0.03020833333332007;73;0.3828125;violin
125.982842;0.03020833333332007;74;0.3828125;violin
126.014092;0.03020833333332007;73;0.3828125;violin
126.045342;0.03020833333332007;74;0.3828125;violin
126.076592;0.12395833333332007;71;0.3828125;violin
126.201592;0.12395833333332007;73;0.3828125;violin
126.326592;0.06145833333332007;69;0.3828125;violin
126.451592;0.06145833333332007;64;0.3828125;violin
126.576592;0.06145833333332007;61;0.3828125;violin
126.701592;0.03020833333332007;69;0.3828125;violin
126.732842;0.03020833333332007;71;0.390625;violin
126.764092;0.03020833333332007;69;0.40625;violin
126.795342;0.03020833333332007;71;0.421875;violin
126.826592;0.12395833333332007;68;0.4375;violin
126.951592;0.12395833333332007;69;0.5;violin
127.076592;0.06145833333332007;64;0.5625;violin
127.201592;0.06145833333332007;61;0.625;violin
127.326592;0.06145833333332007;57;0.6875;violin
127.451592;0.24895833333332007;58;0.75;violin
127.451592;0.24895833333332007;70;0.75;violin
127.701592;0.24895833333332007;58;0.75;violin
127.701592;0.24895833333332007;70;0.75;violin
127.951592;0.24895833333332007;58;0.75;violin
127.951592;0.24895833333332007;70;0.75;violin
128.201592;0.24895833333332007;62;0.75;violin
128.201592;0.24895833333332007;74;0.75;violin
128.451592;0.24895833333332007;62;0.75;violin
128.451592;0.24895833333332007;74;0.75;violin
128.701592;0.24895833333332007;62;0.75;violin
128.701592;0.24895833333332007;74;0.75;violin
128.951592;0.24895833333332007;65;0.75;violin
128.951592;0.24895833333332007;77;0.75;violin
129.201592;0.24895833333332007;65;0.75;violin
129.201592;0.24895833333332007;77;0.75;violin
129.451592;0.24895833333332007;65;0.75;violin
129.451592;0.24895833333332007;77;0.75;violin
129.701592;0.24895833333332007;70;0.75;violin
129.701592;0.24895833333332007;82;0.75;violin
129.951592;0.12395833333332007;77;0.75;violin
130.076592;0.12395833333332007;74;0.75;violin
130.201592;0.12395833333332007;70;0.75;violin
130.326592;0.12395833333332007;69;0.75;violin
130.451592;0.12395833333332007;68;0.75;violin
130.576592;0.12395833333332007;71;0.75;violin
130.701592;0.06145833333332007;74;0.75;violin
130.826592;0.06145833333332007;77;0.75;violin
130.951592;0.12395833333332007;69;0.75;violin
131.076592;0.12395833333332007;73;0.75;violin
131.201592;0.06145833333332007;76;0.75;violin
131.326592;0.06145833333332007;81;0.75;violin
131.451592;0.06145833333332007;76;0.75;violin
131.576592;0.06145833333332007;72;0.75;violin
131.701592;0.06145833333332007;69;0.75;violin
131.826592;0.06145833333332007;67;0.75;violin
131.951592;0.12395833333332007;66;0.75;violin
132.076592;0.12395833333332007;69;0.75;violin
132.201592;0.06145833333332007;74;0.75;violin
132.326592;0.06145833333332007;78;0.75;violin
132.451592;0.12395833333332007;67;0.75;violin
132.576592;0.12395833333332007;71;0.75;violin
132.701592;0.06145833333332007;74;0.75;violin
132.826592;0.06145833333332007;79;0.75;violin
132.951592;0.06145833333332007;74;0.75;violin
133.076592;0.06145833333332007;71;0.75;violin
133.201592;0.06145833333332007;67;0.75;violin
133.326592;0.06145833333332007;66;0.75;violin
133.451592;0.12395833333332007;65;0.75;violin
133.576592;0.12395833333332007;68;0.75;violin
133.701592;0.06145833333332007;71;0.75;violin
133.826592;0.06145833333332007;74;0.75;violin
133.951592;0.12395833333332007;66;0.75;violin
134.076592;0.12395833333332007;70;0.75;violin
134.201592;0.06145833333332007;73;0.75;violin
134.326592;0.06145833333332007;78;0.75;violin
134.451592;0.12395833333332007;64;0.75;violin
134.576592;0.12395833333332007;70;0.75;violin
134.701592;0.06145833333332007;73;0.75;violin
134.826592;0.06145833333332007;78;0.75;violin
134.951592;0.12395833333332007;62;0.75;violin
135.076592;0.12395833333332007;66;0.75;violin
135.201592;0.06145833333332007;71;0.75;violin
135.326592;0.06145833333332007;74;0.75;violin
135.451592;0.12395833333332007;64;0.75;violin
135.576592;0.12395833333332007;67;0.75;violin
135.701592;0.06145833333332007;71;0.75;violin
135.826592;0.06145833333332007;76;0.75;violin
135.951592;0.12395833333332007;65;0.75;violin
136.076592;0.12395833333332007;68;0.75;violin
136.201592;0.06145833333332007;71;0.75;violin
136.326592;0.06145833333332007;74;0.75;violin
136.451592;0.12395833333332007;66;0.75;violin
136.576592;0.12395833333332007;71;0.75;violin
136.701592;0.06145833333332007;74;0.75;violin
136.826592;0.06145833333332007;78;0.75;violin
136.951592;0.12395833333332007;83;0.75;violin
137.201592;0.12395833333332007;66;0.75;violin
137.326592;0.12395833333332007;70;0.75;violin
137.451592;0.06145833333332007;73;0.75;violin
137.576592;0.06145833333332007;78;0.75;violin
137.701592;0.12395833333332007;82;0.75;violin
138.701592;0.03020833333332007;59;0.75;violin
138.732842;0.03020833333332007;61;0.75;violin
138.764092;0.03020833333332007;59;0.75;violin
138.795342;0.03020833333332007;61;0.75;violin
138.826592;0.12395833333332007;58;0.75;violin
138.951592;0.12395833333332007;59;0.75;violin
139.076592;0.06145833333332007;61;0.75;violin
139.201592;0.06145833333332007;62;0.75;violin
139.326592;0.06145833333332007;61;0.75;violin
139.451592;0.03020833333332007;59;0.75;violin
139.482842;0.03020833333332007;61;0.75;violin
139.514092;0.03020833333332007;59;0.75;violin
139.545342;0.03020833333332007;61;0.75;violin
139.576592;0.12395833333332007;58;0.75;violin
139.701592;0.12395833333332007;59;0.75;violin
139.826592;0.06145833333332007;61;0.75;violin
139.951592;0.06145833333332007;62;0.75;violin
140.076592;0.06145833333332007;64;0.75;violin
140.201592;0.03020833333332007;66;0.75;violin
140.232842;0.03020833333332007;67;0.75;violin
140.264092;0.03020833333332007;66;0.75;violin
140.295342;0.03020833333332007;67;0.75;violin
140.326592;0.12395833333332007;65;0.75;violin
140.451592;0.12395833333332007;66;0.75;violin
140.576592;0.06145833333332007;68;0.75;violin
140.701592;0.06145833333332007;70;0.75;violin
140.826592;0.06145833333332007;66;0.75;violin
140.951592;0.03020833333332007;71;0.75;violin
140.982842;0.03020833333332007;73;0.75;violin
141.014092;0.03020833333332007;71;0.75;violin
141.045342;0.03020833333332007;73;0.75;violin
141.076592;0.12395833333332007;70;0.75;violin
141.201592;0.12395833333332007;71;0.75;violin
141.326592;0.06145833333332007;73;0.75;violin
141.451592;0.06145833333332007;74;0.75;violin
141.576592;0.06145833333332007;76;0.75;violin
141.701592;0.03020833333332007;78;0.75;violin
141.732842;0.03020833333332007;79;0.75;violin
141.764092;0.03020833333332007;78;0.75;violin
141.795342;0.03020833333332007;79;0.75;violin
141.826592;0.12395833333332007;77;0.75;violin
141.951592;0.12395833333332007;78;0.75;violin
142.076592;0.06145833333332007;80;0.75;violin
142.201592;0.06145833333332007;82;0.75;violin
142.326592;0.06145833333332007;78;0.75;violin
142.451592;0.03020833333332007;83;0.75;violin
142.482842;0.03020833333332007;85;0.75;violin
142.514092;0.03020833333332007;83;0.75;violin
142.545342;0.03020833333332007;85;0.75;violin
142.576592;0.12395833333332007;82;0.75;violin
142.701592;0.12395833333332007;83;0.75;violin
142.826592;0.06145833333332007;85;0.75;violin
142.951592;0.06145833333332007;86;0.75;violin
143.076592;0.06145833333332007;88;0.75;violin
143.201592;0.24895833333332007;78;0.75;violin
143.201592;0.24895833333332007;90;0.75;violin
143.451592;0.24895833333332007;78;0.75;violin
143.451592;0.24895833333332007;90;0.75;violin
143.701592;0.24895833333332007;78;0.75;violin
143.701592;0.24895833333332007;90;0.75;violin
143.951592;0.24895833333332007;71;0.75;violin
143.951592;0.24895833333332007;83;0.75;violin
144.201592;0.49895833333332007;59;0.75;violin
145.451592;1.9341389145833432;62;0.3828125;violin
145.451592;0.9663974145833265;78;0.3828125;violin
146.4193335;0.3212364145833533;79;0.3828125;violin
146.741914;0.32123641458332486;76;0.3828125;violin
147.0644945;0.3212364145833533;78;0.3828125;violin
147.387075;1.9341389145833148;62;0.3828125;violin
147.387075;0.9663974145833265;74;0.3828125;violin
148.3548165;0.3212364145833533;69;0.3828125;violin
148.677397;0.32123641458332486;81;0.3828125;violin
148.9999775;0.32123641458332486;79;0.3828125;violin
149.32255800000001;1.9341389145833148;62;0.3828125;violin
149.32255800000001;0.9663974145833265;78;0.3828125;violin
150.2902995;0.32123641458332486;79;0.3828125;violin
150.61288000000002;0.32123641458332486;76;0.3828125;violin
150.9354605;0.32123641458332486;78;0.3828125;violin
151.258041;1.9341389145833432;62;0.3828125;violin
151.258041;0.9663974145833549;74;0.3828125;violin
152.2257825;0.32123641458332486;69;0.3828125;violin
152.548363;0.3212364145833533;78;0.3828125;violin
152.8709435;0.32123641458332486;79;0.3828125;violin
153.193524;1.9341389145833432;62;0.3828125;violin
153.193524;0.9663974145833265;81;0.3828125;violin
154.1612655;0.32123641458332486;83;0.3828125;violin
154.483846;0.32123641458332486;81;0.3828125;violin
154.80642650000001;0.32123641458332486;80;0.3828125;violin
155.129007;1.9341389145833432;62;0.3828125;violin
155.129007;0.9663974145833265;81;0.3828125;violin
156.0967485;0.3212364145833533;78;0.3828125;violin
156.419329;0.32123641458332486;81;0.3828125;violin
156.7419095;0.3212364145833533;79;0.3828125;violin
157.06449;0.9663974145833265;67;0.3828125;violin
157.06449;0.6438169145833399;78;0.3828125;violin
157.709651;0.32123641458332486;76;0.3828125;violin
158.0322315;0.9663974145833549;68;0.3828125;violin
158.0322315;0.3212364145833533;76;0.3828125;violin
158.354812;0.32123641458332486;78;0.3828125;violin
158.6773925;0.3212364145833533;76;0.3828125;violin
158.999973;0.9663974145833265;69;0.3828125;violin
158.999973;0.9663974145833265;76;0.3828125;violin
159.9677145;0.32123641458332486;81;0.3828125;violin
160.29029500000001;0.32123641458332486;80;0.3828125;violin
160.6128755;0.32123641458332486;79;0.3828125;violin
160.93545600000002;1.9341389145833148;62;0.3828125;violin
160.93545600000002;0.9663974145833265;78;0.3828125;violin
161.9031975;0.32123641458332486;79;0.3828125;violin
162.225778;0.3212364145833533;76;0.3828125;violin
162.5483585;0.32123641458332486;78;0.3828125;violin
162.870939;1.9341389145833432;62;0.3828125;violin
162.870939;0.9663974145833549;74;0.3828125;violin
163.8386805;0.32123641458332486;69;0.3828125;violin
164.161261;0.3212364145833533;81;0.3828125;violin
164.4838415;0.32123641458332486;79;0.3828125;violin
164.806422;1.9341389145833432;62;0.3828125;violin
164.806422;0.9663974145833265;78;0.3828125;violin
165.77416350000001;0.32123641458332486;79;0.3828125;violin
166.096744;0.32123641458332486;76;0.3828125;violin
166.41932450000002;0.32123641458332486;78;0.3828125;violin
166.741905;1.9341389145833432;62;0.3828125;violin
166.741905;0.9663974145833265;74;0.3828125;violin
167.7096465;0.3212364145833533;69;0.3828125;violin
168.032227;0.32123641458332486;78;0.3828125;violin
168.3548075;0.3212364145833533;79;0.3828125;violin
168.677388;1.9341389145833432;62;0.3828125;violin
168.677388;0.9663974145833265;81;0.3828125;violin
169.6451295;0.32123641458332486;83;0.3828125;violin
169.96771;0.32123641458332486;81;0.3828125;violin
170.2902905;0.3212364145833533;80;0.3828125;violin
170.612871;0.9663974145833265;62;0.3828125;violin
170.612871;0.6438169145833115;81;0.3828125;violin
171.25803200000001;0.32123641458332486;78;0.3828125;violin
171.5806125;0.9663974145833265;67;0.3828125;violin
171.5806125;0.6438169145833399;78;0.3828125;violin
172.2257735;0.32123641458332486;76;0.3828125;violin
172.54835400000002;0.9663974145833265;69;0.3828125;violin
172.54835400000002;0.9663974145833265;74;0.3828125;violin
173.5160955;0.32123641458332486;69;0.3828125;violin
173.5160955;0.32123641458332486;73;0.3828125;violin
173.838676;0.3212364145833533;74;0.3828125;violin
174.1612565;0.32123641458332486;76;0.3828125;violin
174.483837;1.9341389145833432;62;0.3828125;violin
174.483837;1.9341389145833432;74;0.3828125;violin
176.41932;1.9341389145833432;62;0.75;violin
176.41932;0.9663974145833265;81;0.75;violin
176.41932;0.9663974145833265;90;0.75;violin
177.38706150000002;0.32123641458332486;78;0.75;violin
177.38706150000002;0.32123641458332486;86;0.75;violin
177.709642;0.32123641458332486;79;0.75;violin
177.709642;0.32123641458332486;88;0.75;violin
178.0322225;0.3212364145833533;80;0.75;violin
178.0322225;0.3212364145833533;89;0.75;violin
178.354803;1.9341389145833432;62;0.75;violin
178.354803;0.9663974145833265;81;0.75;violin
178.354803;0.9663974145833265;90;0.75;violin
179.3225445;0.32123641458332486;78;0.75;violin
179.3225445;0.32123641458332486;86;0.75;violin
179.645125;0.32123641458332486;79;0.75;violin
179.645125;0.32123641458332486;88;0.75;violin
179.9677055;0.3212364145833533;80;0.75;violin
179.9677055;0.3212364145833533;89;0.75;violin
180.290286;1.9341389145833148;62;0.75;violin
180.290286;0.9663974145833265;81;0.75;violin
180.290286;0.9663974145833265;90;0.75;violin
181.2580275;0.3212364145833533;83;0.75;violin
181.2580275;0.3212364145833533;91;0.75;violin
181.58060799999998;0.3212364145833533;81;0.75;violin
181.58060799999998;0.3212364145833533;90;0.75;violin
181.9031885;0.32123641458332486;80;0.75;violin
181.9031885;0.32123641458332486;89;0.75;violin
182.225769;1.9341389145833148;62;0.75;violin
182.225769;0.9663974145833265;81;0.75;violin
182.225769;0.9663974145833265;90;0.75;violin
183.1935105;0.9663974145833265;78;0.75;violin
183.1935105;0.9663974145833265;86;0.75;violin
184.161252;1.9341389145833432;62;0.75;violin
184.161252;0.9663974145833549;66;0.75;violin
184.161252;0.9663974145833549;81;0.75;violin
185.1289935;0.32123641458332486;67;0.75;violin
185.1289935;0.32123641458332486;83;0.75;violin
185.451574;0.32123641458332486;66;0.75;violin
185.451574;0.32123641458332486;81;0.75;violin
185.7741545;0.32123641458332486;65;0.75;violin
185.7741545;0.32123641458332486;80;0.75;violin
186.096735;0.9677415000000167;62;0.75;violin
186.096735;0.9663974145833265;66;0.75;violin
186.096735;0.9663974145833265;81;0.75;violin
187.0644765;0.9663974145833265;62;0.75;violin
187.0644765;0.32123641458332486;78;0.75;violin
187.387057;0.32123641458332486;61;0.75;violin
187.387057;0.32123641458332486;76;0.75;violin
187.70963749999999;0.3212364145833533;59;0.75;violin
187.70963749999999;0.3212364145833533;74;0.75;violin
188.032218;1.9341389145833432;57;0.75;violin
188.032218;0.9663974145833265;66;0.75;violin
188.032218;0.9663974145833265;74;0.75;violin
188.9999595;0.3212364145833533;67;0.75;violin
188.9999595;0.3212364145833533;73;0.75;violin
189.32254;0.32123641458332486;67;0.75;violin
189.32254;0.32123641458332486;74;0.75;violin
189.6451205;0.3212364145833533;67;0.75;violin
189.6451205;0.3212364145833533;76;0.75;violin
189.967701;0.32123641458332486;62;0.75;violin
189.967701;0.32123641458332486;66;0.75;violin
189.967701;0.32123641458332486;74;0.75;violin
190.2902815;0.32123641458332486;62;0.75;violin
190.2902815;0.32123641458332486;66;0.75;violin
190.2902815;0.32123641458332486;74;0.75;violin
190.612862;0.32123641458332486;62;0.75;violin
190.612862;0.32123641458332486;66;0.75;violin
190.612862;0.32123641458332486;74;0.75;violin
190.9354425;0.6438169145833399;62;0.75;violin
190.9354425;0.6438169145833399;66;0.75;violin
190.9354425;0.6438169145833399;74;0.75;violin
