start;duration;pitch;velocity;instrument
0.0;0.1859375;57;0.625;violin
0.1875;2.9984375;57;0.625;violin
3.1875;0.09218750000000009;64;0.625;violin
3.28125;0.09218750000000009;73;0.625;violin
3.375;0.3734375000000001;81;0.625;violin
6.3734375000000005;0.7479166666666668;64;0.625;violin
6.3734375000000005;0.7479166666666668;73;0.625;violin
7.1234375000000005;0.24791666666666679;62;0.625;violin
7.1234375000000005;0.24791666666666679;71;0.625;violin
7.3734375000000005;0.9979166666666659;62;0.625;violin
7.3734375000000005;0.9979166666666659;71;0.625;violin
8.373437500000001;1.497916666666665;61;0.625;violin
8.373437500000001;1.497916666666665;69;0.625;violin
9.873437500000001;0.497916666666665;61;0.625;violin
9.873437500000001;0.497916666666665;69;0.625;violin
10.373437500000001;0.497916666666665;66;0.625;violin
10.373437500000001;0.497916666666665;74;0.625;violin
10.873437500000001;0.497916666666665;64;0.625;violin
10.873437500000001;0.497916666666665;73;0.625;violin
11.373437500000001;0.997916666666665;61;0.625;violin
11.373437500000001;0.997916666666665;70;0.625;violin
12.373437500000001;1.997916666666665;62;0.625;violin
12.373437500000001;1.997916666666665;71;0.625;violin
14.373437500000001;0.3312500000000007;64;0.625;violin
14.373437500000001;0.3312500000000007;73;0.625;violin
14.706770833333334;0.3312500000000007;62;0.625;violin
14.706770833333334;0.3312500000000007;71;0.625;violin
15.040104166666666;0.3312500000000007;61;0.625;violin
15.040104166666666;0.3312500000000007;69;0.625;violin
15.373437500000001;0.997916666666665;61;0.625;violin
15.373437500000001;0.997916666666665;69;0.625;violin
16.3734375;1.497916666666665;59;0.625;violin
16.3734375;1.497916666666665;68;0.625;violin
17.8734375;0.497916666666665;66;0.625;violin
17.8734375;0.497916666666665;74;0.625;violin
18.3734375;0.497916666666665;64;0.625;violin
18.3734375;0.497916666666665;73;0.625;violin
18.8734375;0.497916666666665;62;0.625;violin
18.8734375;0.497916666666665;71;0.625;violin
19.3734375;0.997916666666665;60;0.625;violin
19.3734375;0.997916666666665;68;0.625;violin
20.3734375;1.997916666666665;61;0.625;violin
20.3734375;1.997916666666665;69;0.625;violin
22.3734375;0.747916666666665;64;0.625;violin
22.3734375;0.747916666666665;73;0.625;violin
23.1234375;0.247916666666665;68;0.625;violin
23.1234375;0.247916666666665;76;0.625;violin
23.3734375;0.997916666666665;68;0.625;violin
23.3734375;0.997916666666665;76;0.625;violin
24.3734375;0.497916666666665;66;0.625;violin
24.3734375;0.497916666666665;74;0.625;violin
25.1234375;0.247916666666665;66;0.625;violin
25.1234375;0.247916666666665;74;0.625;violin
25.3734375;0.997916666666665;66;0.625;violin
25.3734375;0.997916666666665;74;0.625;violin
26.3734375;0.497916666666665;64;0.625;violin
26.3734375;0.497916666666665;73;0.625;violin
27.1234375;0.247916666666665;64;0.625;violin
27.1234375;0.247916666666665;73;0.625;violin
27.3734375;0.497916666666665;64;0.625;violin
27.3734375;0.497916666666665;73;0.625;violin
27.8734375;0.497916666666665;63;0.625;violin
27.8734375;0.497916666666665;72;0.625;violin
28.3734375;1.497916666666665;62;0.9375;violin
28.3734375;1.497916666666665;71;0.9375;violin
29.8734375;0.497916666666665;59;0.625;violin
29.8734375;0.497916666666665;68;0.625;violin
30.3734375;0.497916666666665;64;0.625;violin
30.3734375;0.497916666666665;73;0.625;violin
30.8734375;0.497916666666665;62;0.625;violin
30.8734375;0.497916666666665;71;0.625;violin
31.3734375;0.12291666666666501;61;0.625;violin
31.3734375;0.12291666666666501;69;0.625;violin
31.6234375;0.12291666666666501;62;0.625;violin
31.6234375;0.12291666666666501;71;0.625;violin
31.8734375;0.12291666666666501;64;0.625;violin
31.8734375;0.12291666666666501;73;0.625;violin
32.1234375;0.12291666666666146;66;0.625;violin
32.1234375;0.12291666666666146;74;0.625;violin
32.3734375;0.12291666666666146;68;0.625;violin
32.3734375;0.12291666666666146;76;0.625;violin
32.6234375;0.12291666666666146;69;0.625;violin
32.6234375;0.12291666666666146;78;0.625;violin
32.8734375;0.12291666666666146;71;0.625;violin
32.8734375;0.12291666666666146;80;0.625;violin
33.1234375;0.12291666666666146;73;0.625;violin
33.1234375;0.12291666666666146;81;0.625;violin
33.3734375;0.9979166666666615;64;0.625;violin
33.3734375;0.9979166666666615;68;0.625;violin
34.3734375;0.9979166666666615;59;0.625;violin
34.3734375;0.12291666666666146;66;0.625;violin
34.4984375;0.12291666666666146;68;0.625;violin
34.6234375;0.12291666666666146;66;0.625;violin
34.7484375;0.12291666666666146;68;0.625;violin
34.8734375;0.12291666666666146;66;0.625;violin
34.9984375;0.12291666666666146;68;0.625;violin
35.1234375;0.12291666666666146;66;0.625;violin
35.2484375;0.12291666666666146;68;0.625;violin
35.3734375;0.49791666666666146;64;0.625;violin
35.8734375;0.06874999999999432;66;0.625;violin
35.944270833333334;0.06875000000000142;68;0.625;violin
36.0171875;0.06875000000000142;69;0.625;violin
36.08802083333333;0.06875000000000142;71;0.625;violin
36.158854166666664;0.06875000000000142;73;0.625;violin
36.2296875;0.06875000000000142;75;0.625;violin
36.30260416666667;0.06874999999999432;76;0.625;violin
36.3734375;0.06874999999999432;78;0.625;violin
36.444270833333334;0.06875000000000142;80;0.625;violin
36.5171875;0.06875000000000142;81;0.625;violin
36.58802083333333;0.06875000000000142;83;0.625;violin
36.658854166666664;0.06875000000000142;85;0.625;violin
36.7296875;0.06875000000000142;87;0.625;violin
36.80260416666667;0.06874999999999432;88;0.625;violin
36.8734375;0.06874999999999432;90;0.625;violin
36.944270833333334;0.06875000000000142;92;0.625;violin
37.0171875;0.06875000000000142;93;0.625;violin
37.08802083333333;0.06875000000000142;95;0.625;violin
37.158854166666664;0.06875000000000142;97;0.625;violin
37.2296875;0.06875000000000142;99;0.625;violin
37.30260416666667;0.06874999999999432;100;0.625;violin
37.3734375;0.49791666666666146;64;0.625;violin
38.3734375;0.7479166666666686;76;0.625;violin
38.3734375;0.7479166666666686;85;0.625;violin
39.1234375;0.24791666666666856;74;0.625;violin
39.1234375;0.24791666666666856;83;0.625;violin
39.3734375;0.9979166666666686;74;0.625;violin
39.3734375;0.9979166666666686;83;0.625;violin
40.3734375;1.4979166666666686;73;0.625;violin
40.3734375;1.4979166666666686;81;0.625;violin
41.8734375;0.49791666666666856;73;0.625;violin
41.8734375;0.49791666666666856;81;0.625;violin
42.3734375;0.49791666666666856;78;0.625;violin
42.3734375;0.49791666666666856;86;0.625;violin
42.8734375;0.49791666666666856;76;0.625;violin
42.8734375;0.49791666666666856;85;0.625;violin
43.3734375;0.9979166666666686;73;0.625;violin
43.3734375;0.9979166666666686;82;0.625;violin
44.3734375;1.9979166666666686;74;0.625;violin
44.3734375;1.9979166666666686;83;0.625;violin
46.3734375;0.33124999999999716;76;0.625;violin
46.3734375;0.33124999999999716;85;0.625;violin
46.70677083333334;0.33124999999999716;74;0.625;violin
46.70677083333334;0.33124999999999716;83;0.625;violin
47.040104166666666;0.33125000000000426;73;0.625;violin
47.040104166666666;0.33125000000000426;81;0.625;violin
47.3734375;0.9979166666666686;73;0.625;violin
47.3734375;0.9979166666666686;81;0.625;violin
48.3734375;1.4979166666666686;71;0.625;violin
48.3734375;1.4979166666666686;80;0.625;violin
49.8734375;0.49791666666666856;78;0.625;violin
49.8734375;0.49791666666666856;86;0.625;violin
50.3734375;0.49791666666666856;76;0.625;violin
50.3734375;0.49791666666666856;85;0.625;violin
50.8734375;0.49791666666666856;74;0.625;violin
50.8734375;0.49791666666666856;83;0.625;violin
51.3734375;0.9979166666666686;72;0.625;violin
51.3734375;0.9979166666666686;80;0.625;violin
52.3734375;1.9979166666666686;73;0.625;violin
52.3734375;1.9979166666666686;81;0.625;violin
54.3734375;0.7479166666666686;76;0.625;violin
54.3734375;0.7479166666666686;85;0.625;violin
55.1234375;0.24791666666666856;80;0.625;violin
55.1234375;0.24791666666666856;88;0.625;violin
55.3734375;0.9979166666666686;80;0.625;violin
55.3734375;0.9979166666666686;88;0.625;violin
56.3734375;0.49791666666666856;78;0.625;violin
56.3734375;0.49791666666666856;86;0.625;violin
57.1234375;0.24791666666666856;78;0.625;violin
57.1234375;0.24791666666666856;86;0.625;violin
57.3734375;0.9979166666666686;78;0.625;violin
57.3734375;0.9979166666666686;86;0.625;violin
58.3734375;0.49791666666666856;76;0.625;violin
58.3734375;0.49791666666666856;85;0.625;violin
59.1234375;0.24791666666666856;76;0.625;violin
59.1234375;0.24791666666666856;85;0.625;violin
59.3734375;0.49791666666666856;76;0.625;violin
59.3734375;0.49791666666666856;85;0.625;violin
59.8734375;0.49791666666666856;75;0.625;violin
59.8734375;0.49791666666666856;84;0.625;violin
60.3734375;1.4979166666666686;74;0.625;violin
60.3734375;1.4979166666666686;83;0.625;violin
61.8734375;0.49791666666666856;71;0.625;violin
61.8734375;0.49791666666666856;80;0.625;violin
62.3734375;0.49791666666666856;76;0.625;violin
62.3734375;0.49791666666666856;85;0.625;violin
62.8734375;0.49791666666666856;74;0.625;violin
62.8734375;0.49791666666666856;83;0.625;violin
63.3734375;0.12291666666666856;73;0.625;violin
63.3734375;0.12291666666666856;81;0.625;violin
63.6234375;0.12291666666666856;74;0.625;violin
63.6234375;0.12291666666666856;83;0.625;violin
63.8734375;0.12291666666666856;76;0.625;violin
63.8734375;0.12291666666666856;85;0.625;violin
64.1234375;0.12291666666666856;78;0.625;violin
64.1234375;0.12291666666666856;86;0.625;violin
64.3734375;0.12291666666666856;80;0.625;violin
64.3734375;0.12291666666666856;88;0.625;violin
64.6234375;0.12291666666666856;81;0.625;violin
64.6234375;0.12291666666666856;90;0.625;violin
64.8734375;0.12291666666666856;83;0.625;violin
64.8734375;0.12291666666666856;92;0.625;violin
65.1234375;0.12291666666666856;85;0.625;violin
65.1234375;0.12291666666666856;93;0.625;violin
65.3734375;0.9979166666666686;76;0.625;violin
65.3734375;0.9979166666666686;80;0.625;violin
66.3734375;0.9979166666666686;71;0.625;violin
66.3734375;0.12291666666666856;78;0.625;violin
66.4984375;0.12291666666666856;80;0.625;violin
66.6234375;0.12291666666666856;78;0.625;violin
66.7484375;0.12291666666666856;80;0.625;violin
66.8734375;0.12291666666666856;78;0.625;violin
66.9984375;0.12291666666666856;80;0.625;violin
67.1234375;0.12291666666666856;78;0.625;violin
67.2484375;0.12291666666666856;80;0.625;violin
67.3734375;0.28333333333333144;76;0.625;violin
67.65885416666666;0.06875000000000853;88;0.625;violin
67.7296875;0.06874999999999432;87;0.625;violin
67.80260416666667;0.06874999999999432;86;0.625;violin
67.8734375;0.06875000000000853;85;0.625;violin
67.94427083333333;0.06874999999999432;84;0.625;violin
68.01718749999999;0.06875000000000853;83;0.625;violin
68.08802083333333;0.06874999999999432;82;0.625;violin
68.15885416666666;0.06875000000000853;81;0.625;violin
68.2296875;0.06874999999999432;80;0.625;violin
68.30260416666667;0.06874999999999432;79;0.625;violin
68.3734375;0.06875000000000853;78;0.625;violin
68.44427083333333;0.06874999999999432;77;0.625;violin
68.51718749999999;0.06875000000000853;76;0.625;violin
68.58802083333333;0.06874999999999432;75;0.625;violin
68.65885416666666;0.06875000000000853;74;0.625;violin
68.7296875;0.06874999999999432;73;0.625;violin
68.80260416666667;0.06874999999999432;72;0.625;violin
68.8734375;0.06875000000000853;71;0.625;violin
68.94427083333333;0.06874999999999432;70;0.625;violin
69.01718749999999;0.06875000000000853;69;0.625;violin
69.08802083333333;0.06874999999999432;68;0.625;violin
69.15885416666666;0.06875000000000853;67;0.625;violin
69.2296875;0.06874999999999432;66;0.625;violin
69.30260416666667;0.06874999999999432;65;0.625;violin
69.3734375;0.49791666666666856;64;0.625;violin
70.3734375;0.7479166666666686;64;0.625;violin
70.3734375;0.7479166666666686;73;0.625;violin
71.1234375;0.24791666666666856;62;0.625;violin
71.1234375;0.24791666666666856;71;0.625;violin
71.3734375;0.9979166666666686;62;0.625;violin
71.3734375;0.9979166666666686;71;0.625;violin
72.3734375;1.4979166666666686;61;0.625;violin
72.3734375;1.4979166666666686;70;0.625;violin
73.8734375;0.24791666666666856;67;0.625;violin
73.8734375;0.24791666666666856;76;0.625;violin
74.1234375;0.24791666666666856;66;0.625;violin
74.1234375;0.24791666666666856;74;0.625;violin
74.3734375;0.24791666666666856;66;0.625;violin
74.3734375;0.24791666666666856;74;0.625;violin
74.6234375;0.24791666666666856;64;0.625;violin
74.6234375;0.24791666666666856;73;0.625;violin
74.8734375;0.24791666666666856;64;0.625;violin
74.8734375;0.24791666666666856;73;0.625;violin
75.1234375;0.24791666666666856;61;0.625;violin
75.1234375;0.24791666666666856;70;0.625;violin
75.3734375;0.33124999999999716;61;0.625;violin
75.3734375;0.33124999999999716;70;0.625;violin
75.70677083333332;0.33124999999999716;64;0.625;violin
75.70677083333332;0.33124999999999716;73;0.625;violin
76.04010416666667;0.33124999999999716;63;0.625;violin
76.04010416666667;0.33124999999999716;72;0.625;violin
76.3734375;1.3312499999999972;62;0.625;violin
76.3734375;1.3312499999999972;71;0.625;violin
77.70677083333332;0.33124999999999716;66;0.625;violin
77.70677083333332;0.33124999999999716;74;0.625;violin
78.04010416666667;0.16458333333332575;64;0.625;violin
78.04010416666667;0.16458333333332575;73;0.625;violin
78.3734375;0.16458333333332575;63;0.625;violin
78.3734375;0.16458333333332575;72;0.625;violin
78.70677083333332;0.16458333333333997;62;0.625;violin
78.70677083333332;0.16458333333333997;71;0.625;violin
79.04010416666667;0.16458333333332575;61;0.625;violin
79.04010416666667;0.16458333333332575;69;0.625;violin
79.3734375;0.9979166666666686;61;0.625;violin
79.3734375;0.9979166666666686;69;0.625;violin
80.3734375;1.4979166666666686;59;0.625;violin
80.3734375;1.4979166666666686;68;0.625;violin
81.8734375;0.49791666666666856;66;0.625;violin
81.8734375;0.49791666666666856;74;0.625;violin
82.3734375;0.49791666666666856;64;0.625;violin
82.3734375;0.49791666666666856;73;0.625;violin
82.8734375;0.49791666666666856;62;0.625;violin
82.8734375;0.49791666666666856;71;0.625;violin
83.3734375;0.33124999999999716;62;0.625;violin
83.3734375;0.33124999999999716;71;0.625;violin
83.70677083333332;0.33124999999999716;60;0.625;violin
83.70677083333332;0.33124999999999716;68;0.625;violin
84.04010416666667;0.33124999999999716;61;0.625;violin
84.04010416666667;0.33124999999999716;69;0.625;violin
84.3734375;1.9979166666666686;61;0.625;violin
84.3734375;1.9979166666666686;69;0.625;violin
86.3734375;0.49791666666666856;64;0.625;violin
86.3734375;0.49791666666666856;73;0.625;violin
86.8734375;0.49791666666666856;68;0.625;violin
86.8734375;0.49791666666666856;76;0.625;violin
87.3734375;0.49791666666666856;68;0.625;violin
87.3734375;0.49791666666666856;76;0.625;violin
87.8734375;0.24791666666666856;66;0.625;violin
87.8734375;0.24791666666666856;74;0.625;violin
88.3734375;0.49791666666666856;66;0.625;violin
88.3734375;0.49791666666666856;74;0.625;violin
88.8734375;0.24791666666666856;64;0.625;violin
88.8734375;0.24791666666666856;73;0.625;violin
89.3734375;0.49791666666666856;64;0.625;violin
89.3734375;0.49791666666666856;73;0.625;violin
89.8734375;0.24791666666666856;63;0.625;violin
89.8734375;0.24791666666666856;72;0.625;violin
90.3734375;0.49791666666666856;63;0.625;violin
90.3734375;0.49791666666666856;72;0.625;violin
90.8734375;0.24791666666666856;64;0.625;violin
90.8734375;0.24791666666666856;73;0.625;violin
91.3734375;0.49791666666666856;64;0.625;violin
91.3734375;0.49791666666666856;73;0.625;violin
91.8734375;0.49791666666666856;63;0.625;violin
91.8734375;0.49791666666666856;72;0.625;violin
92.3734375;1.4979166666666686;62;0.9375;violin
92.3734375;1.4979166666666686;71;0.9375;violin
93.8734375;0.49791666666666856;59;0.625;violin
93.8734375;0.49791666666666856;68;0.625;violin
94.3734375;0.49791666666666856;61;0.625;violin
94.3734375;0.49791666666666856;69;0.625;violin
94.8734375;0.49791666666666856;61;0.625;violin
94.8734375;0.49791666666666856;65;0.625;violin
95.3734375;0.12291666666666856;62;0.625;violin
95.3734375;0.12291666666666856;66;0.625;violin
95.6234375;0.12291666666666856;64;0.625;violin
95.6234375;0.12291666666666856;68;0.625;violin
95.8734375;0.12291666666666856;66;0.625;violin
95.8734375;0.12291666666666856;69;0.625;violin
96.1234375;0.12291666666666856;68;0.625;violin
96.1234375;0.12291666666666856;71;0.625;violin
96.3734375;0.12291666666666856;69;0.625;violin
96.3734375;0.12291666666666856;73;0.625;violin
96.6234375;0.12291666666666856;71;0.625;violin
96.6234375;0.12291666666666856;74;0.625;violin
96.8734375;0.12291666666666856;73;0.625;violin
96.8734375;0.12291666666666856;76;0.625;violin
97.1234375;0.12291666666666856;74;0.625;violin
97.1234375;0.12291666666666856;78;0.625;violin
97.3734375;0.9979166666666686;64;0.625;violin
97.3734375;0.9979166666666686;69;0.625;violin
98.3734375;0.9979166666666686;64;0.625;violin
98.3734375;0.12291666666666856;68;0.625;violin
98.4984375;0.12291666666666856;69;0.625;violin
98.6234375;0.12291666666666856;68;0.625;violin
98.7484375;0.12291666666666856;69;0.625;violin
98.8734375;0.12291666666666856;68;0.625;violin
98.9984375;0.12291666666666856;69;0.625;violin
99.1234375;0.12291666666666856;68;0.625;violin
99.2484375;0.12291666666666856;69;0.625;violin
99.3734375;0.24791666666666856;57;0.625;violin
99.6234375;0.06041666666666856;59;0.625;violin
99.6859375;0.06041666666666856;61;0.625;violin
99.7484375;0.06041666666666856;62;0.625;violin
99.8109375;0.06041666666666856;64;0.625;violin
99.8734375;0.06041666666666856;66;0.625;violin
99.9359375;0.06041666666666856;68;0.625;violin
99.9984375;0.06041666666666856;69;0.625;violin
100.0609375;0.06041666666666856;71;0.625;violin
100.1234375;0.06041666666666856;73;0.625;violin
100.1859375;0.06041666666666856;74;0.625;violin
100.2484375;0.06041666666666856;76;0.625;violin
100.3109375;0.06041666666666856;78;0.625;violin
100.3734375;0.06041666666666856;80;0.625;violin
100.4359375;0.06041666666666856;81;0.625;violin
100.4984375;0.06041666666666856;83;0.625;violin
100.5609375;0.06041666666666856;85;0.625;violin
100.6234375;0.06041666666666856;86;0.625;violin
100.6859375;0.06041666666666856;88;0.625;violin
100.7484375;0.06041666666666856;90;0.625;violin
100.8109375;0.06041666666666856;92;0.625;violin
100.8734375;0.06041666666666856;93;0.625;violin
100.9359375;0.06041666666666856;95;0.625;violin
100.9984375;0.06041666666666856;97;0.625;violin
101.0609375;0.06041666666666856;98;0.625;violin
101.1234375;0.06041666666666856;100;0.625;violin
101.1859375;0.06041666666666856;102;0.625;violin
101.2484375;0.06041666666666856;104;0.625;violin
101.3109375;0.06041666666666856;105;0.625;violin
101.3734375;0.49791666666666856;57;0.625;violin
102.3734375;0.7479166666666686;76;0.625;violin
102.3734375;0.7479166666666686;85;0.625;violin
103.1234375;0.24791666666666856;74;0.625;violin
103.1234375;0.24791666666666856;83;0.625;violin
103.3734375;0.9979166666666686;74;0.625;violin
103.3734375;0.9979166666666686;83;0.625;violin
104.3734375;1.4979166666666686;73;0.625;violin
104.3734375;1.4979166666666686;82;0.625;violin
105.8734375;0.24791666666666856;79;0.625;violin
105.8734375;0.24791666666666856;88;0.625;violin
106.1234375;0.24791666666666856;78;0.625;violin
106.1234375;0.24791666666666856;86;0.625;violin
106.3734375;0.24791666666666856;78;0.625;violin
106.3734375;0.24791666666666856;86;0.625;violin
106.6234375;0.24791666666666856;76;0.625;violin
106.6234375;0.24791666666666856;85;0.625;violin
106.8734375;0.24791666666666856;76;0.625;violin
106.8734375;0.24791666666666856;85;0.625;violin
107.1234375;0.24791666666666856;73;0.625;violin
107.1234375;0.24791666666666856;82;0.625;violin
107.3734375;0.33124999999999716;73;0.625;violin
107.3734375;0.33124999999999716;82;0.625;violin
107.70677083333332;0.33124999999999716;76;0.625;violin
107.70677083333332;0.33124999999999716;85;0.625;violin
108.04010416666667;0.33124999999999716;75;0.625;violin
108.04010416666667;0.33124999999999716;84;0.625;violin
108.3734375;1.3312499999999972;74;0.625;violin
108.3734375;1.3312499999999972;83;0.625;violin
109.70677083333332;0.16458333333333997;78;0.625;violin
109.70677083333332;0.16458333333333997;86;0.625;violin
110.04010416666667;0.16458333333332575;76;0.625;violin
110.04010416666667;0.16458333333332575;85;0.625;violin
110.3734375;0.16458333333332575;75;0.625;violin
110.3734375;0.16458333333332575;84;0.625;violin
110.70677083333332;0.16458333333333997;74;0.625;violin
110.70677083333332;0.16458333333333997;83;0.625;violin
111.04010416666667;0.16458333333332575;73;0.625;violin
111.04010416666667;0.16458333333332575;81;0.625;violin
111.3734375;0.9979166666666686;73;0.625;violin
111.3734375;0.9979166666666686;81;0.625;violin
112.3734375;1.4979166666666686;71;0.625;violin
112.3734375;1.4979166666666686;80;0.625;violin
113.8734375;0.49791666666666856;78;0.625;violin
113.8734375;0.49791666666666856;86;0.625;violin
114.3734375;0.49791666666666856;76;0.625;violin
114.3734375;0.49791666666666856;85;0.625;violin
114.8734375;0.49791666666666856;74;0.625;violin
114.8734375;0.49791666666666856;83;0.625;violin
115.3734375;0.33124999999999716;74;0.625;violin
115.3734375;0.33124999999999716;83;0.625;violin
115.70677083333332;0.33124999999999716;72;0.625;violin
115.70677083333332;0.33124999999999716;80;0.625;violin
116.04010416666667;0.33124999999999716;73;0.625;violin
116.04010416666667;0.33124999999999716;81;0.625;violin
116.3734375;1.9979166666666686;73;0.625;violin
116.3734375;1.9979166666666686;81;0.625;violin
118.3734375;0.49791666666666856;76;0.625;violin
118.3734375;0.49791666666666856;85;0.625;violin
118.8734375;0.49791666666666856;80;0.625;violin
118.8734375;0.49791666666666856;88;0.625;violin
119.3734375;0.49791666666666856;80;0.625;violin
119.3734375;0.49791666666666856;88;0.625;violin
119.8734375;0.24791666666666856;78;0.625;violin
119.8734375;0.24791666666666856;86;0.625;violin
120.3734375;0.49791666666666856;78;0.625;violin
120.3734375;0.49791666666666856;86;0.625;violin
120.8734375;0.24791666666666856;76;0.625;violin
120.8734375;0.24791666666666856;85;0.625;violin
121.3734375;0.49791666666666856;76;0.625;violin
121.3734375;0.49791666666666856;85;0.625;violin
121.8734375;0.24791666666666856;75;0.625;violin
121.8734375;0.24791666666666856;84;0.625;violin
122.3734375;0.49791666666666856;75;0.625;violin
122.3734375;0.49791666666666856;84;0.625;violin
122.8734375;0.24791666666666856;76;0.625;violin
122.8734375;0.24791666666666856;85;0.625;violin
123.3734375;0.49791666666666856;76;0.625;violin
123.3734375;0.49791666666666856;85;0.625;violin
123.8734375;0.49791666666666856;75;0.625;violin
123.8734375;0.49791666666666856;84;0.625;violin
124.3734375;1.4979166666666686;74;0.9375;violin
124.3734375;1.4979166666666686;83;0.9375;violin
125.8734375;0.49791666666666856;71;0.625;violin
125.8734375;0.49791666666666856;80;0.625;violin
126.3734375;0.49791666666666856;73;0.625;violin
126.3734375;0.49791666666666856;81;0.625;violin
126.8734375;0.49791666666666856;73;0.625;violin
126.8734375;0.49791666666666856;77;0.625;violin
127.3734375;0.12291666666666856;74;0.625;violin
127.3734375;0.12291666666666856;78;0.625;violin
127.6234375;0.12291666666666856;76;0.625;violin
127.6234375;0.12291666666666856;80;0.625;violin
127.8734375;0.12291666666666856;78;0.625;violin
127.8734375;0.12291666666666856;81;0.625;violin
128.1234375;0.12291666666666856;80;0.625;violin
128.1234375;0.12291666666666856;83;0.625;violin
128.3734375;0.12291666666666856;81;0.625;violin
128.3734375;0.12291666666666856;85;0.625;violin
128.6234375;0.12291666666666856;83;0.625;violin
128.6234375;0.12291666666666856;86;0.625;violin
128.8734375;0.12291666666666856;85;0.625;violin
128.8734375;0.12291666666666856;88;0.625;violin
129.1234375;0.12291666666666856;86;0.625;violin
129.1234375;0.12291666666666856;90;0.625;violin
129.3734375;0.9979166666666686;76;0.625;violin
129.3734375;0.9979166666666686;81;0.625;violin
130.3734375;0.9979166666666686;76;0.625;violin
130.3734375;0.12291666666666856;80;0.625;violin
130.4984375;0.12291666666666856;81;0.625;violin
130.6234375;0.12291666666666856;80;0.625;violin
130.7484375;0.12291666666666856;81;0.625;violin
130.8734375;0.12291666666666856;80;0.625;violin
130.9984375;0.12291666666666856;81;0.625;violin
131.1234375;0.12291666666666856;80;0.625;violin
131.2484375;0.12291666666666856;81;0.625;violin
131.3734375;0.056730712500012714;57;0.625;violin
131.488822;0.05673071249998429;81;0.625;violin
131.6042065;0.05673071249998429;80;0.625;violin
131.719591;0.05673071249998429;78;0.625;violin
131.83497549999998;0.056730712500012714;76;0.625;violin
131.95036;0.056730712500012714;74;0.625;violin
132.0657445;0.056730712500012714;73;0.625;violin
132.181129;0.05673071249998429;71;0.625;violin
132.2965135;0.05673071249998429;69;0.625;violin
132.411898;0.05673071249998429;68;0.625;violin
132.52728249999998;0.056730712500012714;66;0.625;violin
132.642667;0.056730712500012714;64;0.625;violin
132.7580515;0.056730712500012714;62;0.625;violin
132.873436;0.05673071249998429;61;0.625;violin
132.9888205;0.05673071249998429;59;0.625;violin
133.104205;0.05673071249998429;57;0.625;violin
133.21958949999998;0.056730712500012714;61;0.625;violin
133.334974;0.056730712500012714;85;0.625;violin
133.4503585;0.056730712500012714;83;0.625;violin
133.565743;0.05673071249998429;81;0.625;violin
133.6811275;0.05673071249998429;80;0.625;violin
133.796512;0.05673071249998429;78;0.625;violin
133.91189649999998;0.056730712500012714;76;0.625;violin
134.027281;0.056730712500012714;74;0.625;violin
134.1426655;0.056730712500012714;73;0.625;violin
134.25805;0.05673071249998429;71;0.625;violin
134.3734345;0.05673071249998429;69;0.625;violin
134.488819;0.05673071249998429;68;0.625;violin
134.60420349999998;0.056730712500012714;66;0.625;violin
134.719588;0.056730712500012714;64;0.625;violin
134.8349725;0.056730712500012714;62;0.625;violin
134.950357;0.05673071249998429;61;0.625;violin
135.0657415;0.05673071249998429;64;0.625;violin
135.181126;0.05673071249998429;88;0.625;violin
135.29651049999998;0.056730712500012714;86;0.625;violin
135.411895;0.056730712500012714;85;0.625;violin
135.5272795;0.056730712500012714;83;0.625;violin
135.642664;0.05673071249998429;81;0.625;violin
135.7580485;0.05673071249998429;80;0.625;violin
135.873433;0.05673071249998429;78;0.625;violin
135.98881749999998;0.056730712500012714;76;0.625;violin
136.104202;0.056730712500012714;74;0.625;violin
136.2195865;0.056730712500012714;73;0.625;violin
136.334971;0.05673071249998429;71;0.625;violin
136.4503555;0.05673071249998429;69;0.625;violin
136.56574;0.05673071249998429;68;0.625;violin
136.68112449999998;0.056730712500012714;66;0.625;violin
136.796509;0.056730712500012714;64;0.625;violin
136.9118935;0.2298074624999913;69;0.625;violin
137.1426625;0.05673071249998429;93;0.625;violin
137.258047;0.05673071249998429;92;0.625;violin
137.37343149999998;0.056730712500012714;90;0.625;violin
137.48881599999999;0.056730712500012714;88;0.625;violin
137.6042005;0.056730712500012714;86;0.625;violin
137.719585;0.05673071249998429;85;0.625;violin
137.8349695;0.05673071249998429;83;0.625;violin
137.950354;0.05673071249998429;81;0.625;violin
138.06573849999998;0.056730712500012714;80;0.625;violin
138.18112299999999;0.056730712500012714;78;0.625;violin
138.2965075;0.056730712500012714;76;0.625;violin
138.411892;0.056730712500012714;74;0.625;violin
138.5272765;0.05673071249998429;73;0.625;violin
138.642661;0.05673071249998429;71;0.625;violin
138.75804549999998;0.11442296250001505;69;0.625;violin
138.87342999999998;0.11442296250001505;73;0.625;violin
138.9888145;0.11442296250001505;76;0.625;violin
139.104199;0.056730712500012714;81;0.625;violin
139.2195835;0.05673071249998429;85;0.625;violin
139.334968;0.05673071249998429;88;0.625;violin
139.4503525;0.05673071249998429;93;0.625;violin
139.56573699999998;0.056730712500012714;97;0.625;violin
139.6811215;0.11442296250001505;68;0.625;violin
139.796506;0.11442296249998662;71;0.625;violin
139.9118905;0.11442296249998662;76;0.625;violin
140.027275;0.05673071249998429;80;0.625;violin
140.14265949999998;0.056730712500012714;83;0.625;violin
140.25804399999998;0.056730712500012714;88;0.625;violin
140.3734285;0.056730712500012714;92;0.625;violin
140.488813;0.056730712500012714;95;0.625;violin
140.6041975;0.11442296249998662;66;0.625;violin
140.719582;0.11442296249998662;69;0.625;violin
140.8349665;0.11442296249998662;75;0.625;violin
140.95035099999998;0.056730712500012714;78;0.625;violin
141.0657355;0.056730712500012714;81;0.625;violin
141.18112;0.056730712500012714;87;0.625;violin
141.2965045;0.05673071249998429;90;0.625;violin
141.411889;0.05673071249998429;93;0.625;violin
141.52727349999998;0.11442296250001505;64;0.625;violin
141.64265799999998;0.11442296250001505;68;0.625;violin
141.7580425;0.11442296250001505;71;0.625;violin
141.873427;0.056730712500012714;76;0.625;violin
141.9888115;0.05673071249998429;80;0.625;violin
142.104196;0.05673071249998429;83;0.625;violin
142.2195805;0.05673071249998429;88;0.625;violin
142.33496499999998;0.056730712500012714;92;0.625;violin
142.4503495;0.056730712500012714;57;0.625;violin
142.565734;0.056730712500012714;85;0.625;violin
142.6811185;0.05673071249998429;81;0.625;violin
142.796503;0.05673071249998429;76;0.625;violin
142.9118875;0.05673071249998429;73;0.625;violin
143.02727199999998;0.056730712500012714;69;0.625;violin
143.1426565;0.056730712500012714;64;0.625;violin
143.258041;0.056730712500012714;61;0.625;violin
143.3734255;0.05673071249998429;59;0.625;violin
143.48881;0.11442296249998662;71;0.625;violin
143.6041945;0.11442296249998662;68;0.625;violin
143.71957899999998;0.11442296250001505;64;0.625;violin
143.8349635;0.056730712500012714;59;0.625;violin
143.950348;0.11442296250001505;69;0.625;violin
144.0657325;0.11442296249998662;66;0.625;violin
144.181117;0.11442296249998662;63;0.625;violin
144.2965015;0.11442296249998662;64;0.625;violin
144.41188599999998;0.11442296250001505;76;0.625;violin
144.5272705;0.11442296250001505;78;0.625;violin
144.642655;0.11442296250001505;80;0.625;violin
144.7580395;0.11442296249998662;81;0.625;violin
144.873424;0.11442296249998662;83;0.625;violin
144.9888085;0.11442296249998662;85;0.625;violin
145.10419299999998;0.11442296250001505;87;0.625;violin
145.21957749999999;0.11442296250001505;88;0.625;violin
145.334962;0.11442296250001505;90;0.625;violin
145.4503465;0.11442296249998662;92;0.625;violin
145.565731;0.11442296249998662;93;0.625;violin
145.6811155;0.11442296249998662;95;0.625;violin
145.79649999999998;0.11442296250001505;97;0.625;violin
145.91188449999999;0.11442296250001505;99;0.625;violin
146.027269;0.11442296250001505;100;0.625;violin
146.1426535;0.11442296249998662;76;0.625;violin
146.258038;0.11442296249998662;85;0.625;violin
146.3734225;0.11442296249998662;82;0.625;violin
146.48880699999998;0.056730712500012714;79;0.625;violin
146.60419149999998;0.11442296250001505;76;0.625;violin
146.719576;0.11442296250001505;79;0.625;violin
146.8349605;0.11442296249998662;76;0.625;violin
146.950345;0.05673071249998429;73;0.625;violin
147.0657295;0.11442296249998662;70;0.625;violin
147.18111399999998;0.11442296250001505;73;0.625;violin
147.29649849999998;0.11442296250001505;70;0.625;violin
147.411883;0.056730712500012714;67;0.625;violin
147.5272675;0.11442296249998662;64;0.625;violin
147.642652;0.11442296249998662;67;0.625;violin
147.7580365;0.11442296249998662;64;0.625;violin
147.873421;0.05673071249998429;61;0.625;violin
147.98880549999998;0.11442296250001505;62;0.625;violin
148.10419;0.056730712500012714;83;0.625;violin
148.2195745;0.056730712500012714;81;0.625;violin
148.334959;0.05673071249998429;79;0.625;violin
148.4503435;0.05673071249998429;78;0.625;violin
148.56572799999998;0.056730712500012714;76;0.625;violin
148.68111249999998;0.056730712500012714;74;0.625;violin
148.796497;0.056730712500012714;73;0.625;violin
148.9118815;0.05673071249998429;71;0.625;violin
149.027266;0.05673071249998429;69;0.625;violin
149.1426505;0.05673071249998429;67;0.625;violin
149.258035;0.05673071249998429;66;0.625;violin
149.37341949999998;0.056730712500012714;64;0.625;violin
149.488804;0.056730712500012714;62;0.625;violin
149.6041885;0.056730712500012714;61;0.625;violin
149.719573;0.05673071249998429;59;0.625;violin
149.8349575;0.11442296249998662;74;0.625;violin
149.95034199999998;0.11442296250001505;83;0.625;violin
150.06572649999998;0.11442296250001505;80;0.625;violin
150.181111;0.056730712500012714;77;0.625;violin
150.2964955;0.11442296249998662;74;0.625;violin
150.41188;0.11442296249998662;77;0.625;violin
150.5272645;0.11442296249998662;74;0.625;violin
150.642649;0.05673071249998429;71;0.625;violin
150.75803349999998;0.11442296250001505;68;0.625;violin
150.873418;0.11442296250001505;71;0.625;violin
150.9888025;0.11442296250001505;68;0.625;violin
151.104187;0.05673071249998429;65;0.625;violin
151.2195715;0.11442296249998662;62;0.625;violin
151.33495599999998;0.11442296250001505;65;0.625;violin
151.45034049999998;0.11442296250001505;62;0.625;violin
151.565725;0.056730712500012714;59;0.625;violin
151.6811095;0.11442296249998662;61;0.625;violin
151.796494;0.05673071249998429;81;0.625;violin
151.9118785;0.05673071249998429;80;0.625;violin
152.027263;0.05673071249998429;78;0.625;violin
152.14264749999998;0.056730712500012714;76;0.625;violin
152.258032;0.056730712500012714;74;0.625;violin
152.3734165;0.056730712500012714;73;0.625;violin
152.488801;0.056730712500012714;71;0.625;violin
152.6041855;0.05673071249998429;69;0.625;violin
152.71956999999998;0.056730712500012714;68;0.625;violin
152.83495449999998;0.056730712500012714;66;0.625;violin
152.95033899999999;0.056730712500012714;64;0.625;violin
153.0657235;0.056730712500012714;62;0.625;violin
153.181108;0.05673071249998429;61;0.625;violin
153.2964925;0.05673071249998429;59;0.625;violin
153.411877;0.05673071249998429;57;0.625;violin
153.52726149999998;0.11442296250001505;62;0.625;violin
153.64264599999998;0.11442296250001505;66;0.625;violin
153.7580305;0.11442296250001505;69;0.625;violin
153.873415;0.056730712500012714;66;0.625;violin
153.9887995;0.11442296249998662;63;0.625;violin
154.104184;0.11442296249998662;66;0.625;violin
154.21956849999998;0.11442296250001505;71;0.625;violin
154.33495299999998;0.056730712500012714;66;0.625;violin
154.4503375;0.11442296249998662;64;0.625;violin
154.565722;0.11442296249998662;68;0.625;violin
154.6811065;0.11442296249998662;71;0.625;violin
154.796491;0.05673071249998429;68;0.625;violin
154.91187549999998;0.11442296250001505;65;0.625;violin
155.02725999999998;0.11442296250001505;68;0.625;violin
155.1426445;0.11442296250001505;73;0.625;violin
155.258029;0.056730712500012714;68;0.625;violin
155.3734135;0.11442296249998662;66;0.625;violin
155.488798;0.11442296249998662;69;0.625;violin
155.60418249999998;0.11442296250001505;74;0.625;violin
155.71956699999998;0.056730712500012714;69;0.625;violin
155.8349515;0.11442296250001505;68;0.625;violin
155.950336;0.11442296249998662;71;0.625;violin
156.0657205;0.11442296249998662;76;0.625;violin
156.181105;0.05673071249998429;71;0.625;violin
156.2964895;0.11442296249998662;69;0.625;violin
156.41187399999998;0.11442296250001505;73;0.625;violin
156.5272585;0.11442296250001505;78;0.625;violin
156.642643;0.056730712500012714;73;0.625;violin
156.7580275;0.11442296249998662;69;0.625;violin
156.873412;0.11442296249998662;72;0.625;violin
156.98879649999998;0.11442296250001505;75;0.625;violin
157.10418099999998;0.11442296250001505;78;0.625;violin
157.2195655;0.11442296250001505;68;0.625;violin
157.33495;0.11442296249998662;71;0.625;violin
157.4503345;0.11442296249998662;76;0.625;violin
157.565719;0.05673071249998429;80;0.625;violin
157.6811035;0.11442296249998662;67;0.625;violin
157.79648799999998;0.11442296250001505;70;0.625;violin
157.9118725;0.11442296250001505;73;0.625;violin
158.027257;0.056730712500012714;76;0.625;violin
158.1426415;0.11442296249998662;66;0.625;violin
158.258026;0.11442296249998662;69;0.625;violin
158.37341049999998;0.11442296250001505;74;0.625;violin
158.48879499999998;0.056730712500012714;78;0.625;violin
158.6041795;0.11442296250001505;66;0.625;violin
158.719564;0.11442296249998662;69;0.625;violin
158.8349485;0.11442296249998662;72;0.625;violin
158.950333;0.05673071249998429;75;0.625;violin
159.0657175;0.11442296249998662;65;0.625;violin
159.18110199999998;0.11442296250001505;68;0.625;violin
159.2964865;0.11442296250001505;73;0.625;violin
159.411871;0.056730712500012714;76;0.625;violin
159.5272555;0.11442296249998662;64;0.625;violin
159.64264;0.11442296249998662;67;0.625;violin
159.75802449999998;0.11442296250001505;70;0.625;violin
159.87340899999998;0.056730712500012714;73;0.625;violin
159.98879349999999;0.11442296250001505;63;0.625;violin
160.104178;0.11442296249998662;66;0.625;violin
160.2195625;0.11442296249998662;71;0.625;violin
160.334947;0.05673071249998429;75;0.625;violin
160.4503315;0.11442296249998662;62;0.625;violin
160.56571599999998;0.11442296250001505;68;0.625;violin
160.68110049999999;0.11442296250001505;71;0.625;violin
160.796485;0.056730712500012714;74;0.625;violin
160.9118695;0.11442296249998662;61;0.625;violin
161.027254;0.11442296249998662;64;0.625;violin
161.14263849999998;0.11442296250001505;69;0.625;violin
161.25802299999998;0.056730712500012714;73;0.625;violin
161.37340749999998;0.11442296250001505;62;0.625;violin
161.488792;0.11442296249998662;66;0.625;violin
161.6041765;0.11442296249998662;71;0.625;violin
161.719561;0.05673071249998429;74;0.625;violin
161.8349455;0.11442296249998662;64;0.625;violin
161.95032999999998;0.11442296250001505;69;0.625;violin
162.06571449999998;0.11442296250001505;73;0.625;violin
162.181099;0.056730712500012714;76;0.625;violin
162.2964835;0.11442296249998662;64;0.625;violin
162.411868;0.11442296249998662;68;0.625;violin
162.5272525;0.11442296249998662;71;0.625;violin
162.64263699999998;0.056730712500012714;76;0.625;violin
162.75802149999998;0.056730712500012714;57;0.625;violin
162.873406;0.056730712500012714;81;0.625;violin
162.9887905;0.05673071249998429;80;0.625;violin
163.104175;0.05673071249998429;78;0.625;violin
163.2195595;0.05673071249998429;76;0.625;violin
163.33494399999998;0.056730712500012714;74;0.625;violin
163.45032849999998;0.056730712500012714;73;0.625;violin
163.565713;0.056730712500012714;71;0.625;violin
163.6810975;0.056730712500012714;69;0.625;violin
163.796482;0.05673071249998429;68;0.625;violin
163.91186649999997;0.056730712500012714;66;0.625;violin
164.02725099999998;0.056730712500012714;64;0.625;violin
164.14263549999998;0.056730712500012714;62;0.625;violin
164.25802;0.056730712500012714;61;0.625;violin
164.3734045;0.05673071249998429;59;0.625;violin
164.488789;0.05673071249998429;57;0.625;violin
164.6041735;0.05673071249998429;61;0.625;violin
164.719558;0.05673071249998429;85;0.625;violin
164.83494249999998;0.056730712500012714;83;0.625;violin
164.950327;0.056730712500012714;81;0.625;violin
165.0657115;0.056730712500012714;80;0.625;violin
165.181096;0.05673071249998429;78;0.625;violin
165.29648049999997;0.056730712500012714;76;0.625;violin
165.41186499999998;0.056730712500012714;74;0.625;violin
165.52724949999998;0.056730712500012714;73;0.625;violin
165.642634;0.056730712500012714;71;0.625;violin
165.7580185;0.05673071249998429;69;0.625;violin
165.873403;0.05673071249998429;68;0.625;violin
165.9887875;0.05673071249998429;66;0.625;violin
166.104172;0.05673071249998429;64;0.625;violin
166.21955649999998;0.056730712500012714;62;0.625;violin
166.334941;0.056730712500012714;61;0.625;violin
166.4503255;0.056730712500012714;64;0.625;violin
166.56571;0.05673071249998429;88;0.625;violin
166.6810945;0.05673071249998429;86;0.625;violin
166.79647899999998;0.056730712500012714;85;0.625;violin
166.91186349999998;0.056730712500012714;83;0.625;violin
167.027248;0.056730712500012714;81;0.625;violin
167.1426325;0.05673071249998429;80;0.625;violin
167.258017;0.05673071249998429;78;0.625;violin
167.3734015;0.05673071249998429;76;0.625;violin
167.488786;0.05673071249998429;74;0.625;violin
167.60417049999998;0.056730712500012714;73;0.625;violin
167.71955499999999;0.056730712500012714;71;0.625;violin
167.8349395;0.056730712500012714;69;0.625;violin
167.950324;0.056730712500012714;68;0.625;violin
168.0657085;0.05673071249998429;66;0.625;violin
168.18109299999998;0.056730712500012714;64;0.625;violin
168.29647749999998;0.11442296250001505;69;0.625;violin
168.41186199999999;0.11442296250001505;81;0.625;violin
168.5272465;0.11442296249998662;83;0.625;violin
168.642631;0.11442296249998662;85;0.625;violin
168.7580155;0.11442296249998662;86;0.625;violin
168.8734;0.11442296249998662;88;0.625;violin
168.98878449999998;0.11442296250001505;90;0.625;violin
169.10416899999998;0.11442296250001505;92;0.625;violin
169.2195535;0.11442296250001505;93;0.625;violin
169.334938;0.11442296249998662;85;0.625;violin
169.4503225;0.11442296249998662;86;0.625;violin
169.56570699999997;0.11442296250001505;88;0.625;violin
169.68109149999998;0.11442296250001505;90;0.625;violin
169.79647599999998;0.11442296250001505;92;0.625;violin
169.9118605;0.11442296249998662;93;0.625;violin
170.027245;0.11442296249998662;95;0.625;violin
170.1426295;0.11442296249998662;97;0.625;violin
170.258014;0.11442296249998662;88;0.625;violin
170.3733985;0.11442296249998662;90;0.625;violin
170.48878299999998;0.11442296250001505;92;0.625;violin
170.6041675;0.11442296250001505;93;0.625;violin
170.719552;0.11442296249998662;95;0.625;violin
170.8349365;0.11442296249998662;97;0.625;violin
170.95032099999997;0.11442296250001505;98;0.625;violin
171.06570549999998;0.2298074625000197;100;0.625;violin
171.5272435;0.2298074624999913;64;0.625;violin
171.5272435;0.2298074624999913;71;0.625;violin
171.5272435;0.2298074624999913;80;0.625;violin
171.9887815;0.2298074625000197;57;0.625;violin
171.9887815;0.2298074625000197;64;0.625;violin
171.9887815;0.2298074625000197;73;0.625;violin
171.9887815;0.2298074625000197;81;0.625;violin
172.45031949999998;0.2298074625000197;57;0.625;violin
172.45031949999998;0.2298074625000197;64;0.625;violin
172.45031949999998;0.2298074625000197;73;0.625;violin
172.45031949999998;0.2298074625000197;81;0.625;violin
172.9118575;0.2298074624999913;57;0.625;violin
172.9118575;0.2298074624999913;64;0.625;violin
172.9118575;0.2298074624999913;73;0.625;violin
172.9118575;0.2298074624999913;81;0.625;violin
