start;duration;pitch;velocity;instrument
0.0;0.8170461354166666;81;0.75;violin
0.0;0.8170461354166666;89;0.75;violin
0.8181824999999999;0.8170461354166666;79;0.75;violin
0.8181824999999999;0.8170461354166666;88;0.75;violin
1.6363649999999998;0.8170461354166665;81;0.75;violin
1.6363649999999998;0.8170461354166665;89;0.75;violin
2.4545475;0.8170461354166663;65;0.75;violin
3.2727299999999997;0.13522738541666657;65;0.75;violin
3.2727299999999997;0.13522738541666657;69;0.75;violin
3.5454574999999995;0.13522738541666657;67;0.75;violin
3.5454574999999995;0.13522738541666657;70;0.75;violin
3.8181849999999997;0.13522738541666657;69;0.75;violin
3.8181849999999997;0.13522738541666657;72;0.75;violin
4.090912499999999;0.135227385416667;70;0.75;violin
4.090912499999999;0.135227385416667;74;0.75;violin
4.363639999999999;0.135227385416667;72;0.75;violin
4.363639999999999;0.135227385416667;76;0.75;violin
4.6363674999999995;0.13522738541666612;74;0.75;violin
4.6363674999999995;0.13522738541666612;77;0.75;violin
4.909095;0.27159113541666624;69;0.75;violin
4.909095;0.27159113541666624;72;0.75;violin
5.454549999999999;0.135227385416667;67;0.75;violin
5.454549999999999;0.135227385416667;70;0.75;violin
5.7272775;0.5443186354166665;65;0.75;violin
5.7272775;0.5443186354166665;69;0.75;violin
6.545459999999999;0.8170461354166667;81;0.75;violin
6.545459999999999;0.8170461354166667;89;0.75;violin
7.363642499999999;0.8170461354166658;79;0.75;violin
7.363642499999999;0.8170461354166658;88;0.75;violin
8.181824999999998;0.8170461354166676;81;0.75;violin
8.181824999999998;0.8170461354166676;89;0.75;violin
9.000007499999999;0.8170461354166658;65;0.75;violin
9.81819;0.27159113541666535;65;0.75;violin
10.090917499999998;0.1352273854166679;77;0.75;violin
10.090917499999998;0.1352273854166679;81;0.75;violin
10.363644999999998;0.1352273854166679;76;0.75;violin
10.363644999999998;0.1352273854166679;79;0.75;violin
10.636372499999998;0.13522738541666612;74;0.75;violin
10.636372499999998;0.13522738541666612;77;0.75;violin
10.909099999999999;0.13522738541666612;72;0.75;violin
10.909099999999999;0.13522738541666612;76;0.75;violin
11.181827499999999;0.13522738541666612;71;0.75;violin
11.181827499999999;0.13522738541666612;74;0.75;violin
11.454555;0.5443186354166656;72;0.75;violin
11.454555;0.5443186354166656;76;0.75;violin
12.000009999999998;0.27159113541666713;67;0.75;violin
12.272737499999998;0.27159113541666713;60;0.75;violin
13.090919999999999;0.13522738541666612;69;0.3828125;violin
13.090919999999999;0.13522738541666612;72;0.3828125;violin
13.363647499999999;0.13522738541666612;67;0.3828125;violin
13.363647499999999;0.13522738541666612;70;0.3828125;violin
13.636374999999997;0.1352273854166679;65;0.3828125;violin
13.636374999999997;0.1352273854166679;69;0.3828125;violin
13.909102499999998;0.1352273854166679;77;0.3828125;violin
13.909102499999998;0.1352273854166679;93;0.3828125;violin
14.181829999999998;0.13522738541666612;79;0.3828125;violin
14.181829999999998;0.13522738541666612;94;0.3828125;violin
14.454557499999998;0.13522738541666612;81;0.3828125;violin
14.454557499999998;0.13522738541666612;96;0.3828125;violin
14.727284999999998;0.13522738541666612;62;0.3828125;violin
14.727284999999998;0.13522738541666612;65;0.3828125;violin
15.000012499999999;0.13522738541666612;60;0.3828125;violin
15.000012499999999;0.13522738541666612;63;0.3828125;violin
15.272739999999999;0.13522738541666612;58;0.3828125;violin
15.272739999999999;0.13522738541666612;62;0.3828125;violin
15.545467499999997;0.1352273854166679;70;0.3828125;violin
15.545467499999997;0.1352273854166679;86;0.3828125;violin
15.818194999999998;0.1352273854166679;72;0.3828125;violin
15.818194999999998;0.1352273854166679;88;0.3828125;violin
16.090922499999998;0.13522738541666612;74;0.3828125;violin
16.090922499999998;0.13522738541666612;89;0.3828125;violin
16.363649999999996;0.13522738541666968;71;0.3828125;violin
16.363649999999996;0.13522738541666968;74;0.3828125;violin
16.6363775;0.13522738541666612;69;0.3828125;violin
16.6363775;0.13522738541666612;72;0.3828125;violin
16.909104999999997;0.13522738541666612;67;0.3828125;violin
16.909104999999997;0.13522738541666612;71;0.3828125;violin
17.1818325;0.13522738541666612;79;0.3828125;violin
17.1818325;0.13522738541666612;95;0.3828125;violin
17.454559999999997;0.13522738541666612;81;0.3828125;violin
17.454559999999997;0.13522738541666612;96;0.3828125;violin
17.7272875;0.13522738541666612;83;0.3828125;violin
17.7272875;0.13522738541666612;98;0.3828125;violin
18.000014999999998;0.13522738541666612;64;0.3828125;violin
18.000014999999998;0.13522738541666612;67;0.3828125;violin
18.272742499999996;0.13522738541666968;62;0.3828125;violin
18.272742499999996;0.13522738541666968;65;0.3828125;violin
18.545469999999998;0.13522738541666612;60;0.3828125;violin
18.545469999999998;0.13522738541666612;64;0.3828125;violin
18.818197499999997;0.13522738541666612;72;0.3828125;violin
18.818197499999997;0.13522738541666612;88;0.3828125;violin
19.090925;0.13522738541666612;74;0.3828125;violin
19.090925;0.13522738541666612;89;0.3828125;violin
19.363652499999997;0.13522738541666612;76;0.3828125;violin
19.363652499999997;0.13522738541666612;91;0.3828125;violin
19.63638;0.2715911354166636;77;0.75;violin
19.63638;0.2715911354166636;93;0.75;violin
19.909107499999998;0.27159113541666713;79;0.75;violin
19.909107499999998;0.27159113541666713;94;0.75;violin
20.181834999999996;0.27159113541666713;81;0.75;violin
20.181834999999996;0.27159113541666713;96;0.75;violin
20.454562499999998;0.27159113541666713;82;0.75;violin
20.454562499999998;0.27159113541666713;98;0.75;violin
20.727289999999996;0.27159113541666713;81;0.75;violin
20.727289999999996;0.27159113541666713;96;0.75;violin
21.0000175;0.27159113541666713;80;0.75;violin
21.0000175;0.27159113541666713;95;0.75;violin
21.272744999999997;0.8170461354166676;81;0.75;violin
21.272744999999997;0.8170461354166676;96;0.75;violin
22.090927499999996;0.8170461354166676;77;0.75;violin
22.090927499999996;0.8170461354166676;93;0.75;violin
22.90911;0.27159113541666713;69;0.75;violin
22.90911;0.27159113541666713;77;0.75;violin
23.181837499999997;0.27159113541666713;70;0.75;violin
23.181837499999997;0.27159113541666713;79;0.75;violin
23.454565;0.2715911354166636;72;0.75;violin
23.454565;0.2715911354166636;81;0.75;violin
23.727292499999997;0.27159113541666713;70;0.75;violin
23.727292499999997;0.27159113541666713;79;0.75;violin
24.000019999999996;0.27159113541666713;69;0.75;violin
24.000019999999996;0.27159113541666713;77;0.75;violin
24.272747499999998;0.27159113541666713;67;0.75;violin
24.272747499999998;0.27159113541666713;76;0.75;violin
24.545474999999996;0.8170461354166676;65;0.75;violin
24.545474999999996;0.8170461354166676;69;0.75;violin
25.3636575;0.2715911354166636;77;0.75;violin
26.181839999999998;0.13522738541666612;69;0.75;violin
26.181839999999998;0.13522738541666612;72;0.75;violin
26.454567499999996;0.13522738541666612;67;0.75;violin
26.454567499999996;0.13522738541666612;70;0.75;violin
26.727294999999998;0.13522738541666612;65;0.75;violin
26.727294999999998;0.13522738541666612;69;0.75;violin
27.000022499999996;0.13522738541666612;65;0.75;violin
27.000022499999996;0.13522738541666612;69;0.75;violin
27.000022499999996;0.13522738541666612;77;0.75;violin
27.272749999999995;0.13522738541666968;67;0.75;violin
27.272749999999995;0.13522738541666968;70;0.75;violin
27.272749999999995;0.13522738541666968;77;0.75;violin
27.545477499999997;0.13522738541666612;69;0.75;violin
27.545477499999997;0.13522738541666612;72;0.75;violin
27.545477499999997;0.13522738541666612;77;0.75;violin
27.818204999999995;0.13522738541666612;62;0.75;violin
27.818204999999995;0.13522738541666612;65;0.75;violin
28.090932499999997;0.13522738541666612;60;0.75;violin
28.090932499999997;0.13522738541666612;63;0.75;violin
28.363659999999996;0.13522738541666612;58;0.75;violin
28.363659999999996;0.13522738541666612;62;0.75;violin
28.636387499999998;0.13522738541666612;58;0.75;violin
28.636387499999998;0.13522738541666612;62;0.75;violin
28.636387499999998;0.13522738541666612;70;0.75;violin
28.909114999999996;0.13522738541666612;60;0.75;violin
28.909114999999996;0.13522738541666612;63;0.75;violin
28.909114999999996;0.13522738541666612;70;0.75;violin
29.181842499999995;0.13522738541666968;62;0.75;violin
29.181842499999995;0.13522738541666968;65;0.75;violin
29.181842499999995;0.13522738541666968;70;0.75;violin
29.454569999999997;0.13522738541666612;71;0.75;violin
29.454569999999997;0.13522738541666612;74;0.75;violin
29.727297499999995;0.13522738541666612;69;0.75;violin
29.727297499999995;0.13522738541666612;72;0.75;violin
30.000024999999997;0.13522738541666612;67;0.75;violin
30.000024999999997;0.13522738541666612;71;0.75;violin
30.272752499999996;0.13522738541666612;67;0.75;violin
30.272752499999996;0.13522738541666612;71;0.75;violin
30.272752499999996;0.13522738541666612;79;0.75;violin
30.545479999999998;0.13522738541666612;69;0.75;violin
30.545479999999998;0.13522738541666612;72;0.75;violin
30.545479999999998;0.13522738541666612;79;0.75;violin
30.818207499999996;0.13522738541666612;71;0.75;violin
30.818207499999996;0.13522738541666612;74;0.75;violin
30.818207499999996;0.13522738541666612;79;0.75;violin
31.090934999999995;0.13522738541666968;64;0.75;violin
31.090934999999995;0.13522738541666968;67;0.75;violin
31.363662499999997;0.13522738541666612;62;0.75;violin
31.363662499999997;0.13522738541666612;65;0.75;violin
31.636389999999995;0.13522738541666612;60;0.75;violin
31.636389999999995;0.13522738541666612;64;0.75;violin
31.909117499999997;0.13522738541666612;60;0.75;violin
31.909117499999997;0.13522738541666612;64;0.75;violin
31.909117499999997;0.13522738541666612;72;0.75;violin
32.181844999999996;0.13522738541666968;62;0.75;violin
32.181844999999996;0.13522738541666968;65;0.75;violin
32.181844999999996;0.13522738541666968;72;0.75;violin
32.4545725;0.13522738541666257;64;0.75;violin
32.4545725;0.13522738541666257;67;0.75;violin
32.4545725;0.13522738541666257;72;0.75;violin
32.72729999999999;0.2715911354166707;65;0.75;violin
32.72729999999999;0.2715911354166707;69;0.75;violin
32.72729999999999;0.2715911354166707;77;0.75;violin
33.000027499999995;0.2715911354166707;67;0.75;violin
33.000027499999995;0.2715911354166707;70;0.75;violin
33.000027499999995;0.2715911354166707;77;0.75;violin
33.272755;0.2715911354166636;69;0.75;violin
33.272755;0.2715911354166636;72;0.75;violin
33.272755;0.2715911354166636;77;0.75;violin
33.5454825;0.2715911354166636;70;0.75;violin
33.5454825;0.2715911354166636;74;0.75;violin
33.5454825;0.2715911354166636;77;0.75;violin
33.81820999999999;0.2715911354166707;69;0.75;violin
33.81820999999999;0.2715911354166707;72;0.75;violin
33.81820999999999;0.2715911354166707;77;0.75;violin
34.090937499999995;0.2715911354166636;68;0.75;violin
34.090937499999995;0.2715911354166636;71;0.75;violin
34.090937499999995;0.2715911354166636;77;0.75;violin
34.363665;0.8170461354166676;69;0.75;violin
34.363665;0.8170461354166676;72;0.75;violin
34.363665;0.8170461354166676;77;0.75;violin
35.181847499999996;0.8170461354166676;65;0.75;violin
35.181847499999996;0.8170461354166676;69;0.75;violin
35.181847499999996;0.8170461354166676;77;0.75;violin
36.000029999999995;0.2715911354166636;57;0.3828125;violin
36.000029999999995;0.2715911354166636;65;0.3828125;violin
36.2727575;0.2715911354166636;58;0.3828125;violin
36.2727575;0.2715911354166636;67;0.3828125;violin
36.54548499999999;0.2715911354166707;60;0.3828125;violin
36.54548499999999;0.2715911354166707;69;0.3828125;violin
36.818212499999994;0.2715911354166707;58;0.3828125;violin
36.818212499999994;0.2715911354166707;67;0.3828125;violin
37.090939999999996;0.2715911354166636;57;0.3828125;violin
37.090939999999996;0.2715911354166636;65;0.3828125;violin
37.3636675;0.2715911354166636;55;0.3828125;violin
37.3636675;0.2715911354166636;64;0.3828125;violin
37.63639499999999;0.8170461354166676;57;0.3828125;violin
37.63639499999999;0.8170461354166676;65;0.3828125;violin
39.27276;0.13522738541666257;62;0.75;violin
39.40912374999999;0.06704551041666917;81;0.75;violin
39.54548749999999;0.06704551041666917;79;0.75;violin
39.681851249999994;0.06704551041666917;77;0.75;violin
39.818214999999995;0.06704551041666917;76;0.75;violin
39.954578749999996;0.06704551041666917;74;0.75;violin
40.0909425;0.06704551041666207;73;0.75;violin
40.22730625;0.06704551041666207;70;0.75;violin
40.36366999999999;0.06704551041666917;69;0.75;violin
40.50003374999999;0.06704551041666917;67;0.75;violin
40.636397499999994;0.06704551041666917;65;0.75;violin
40.772761249999995;0.06704551041666917;64;0.75;violin
40.909124999999996;0.03295457291666537;62;0.75;violin
40.94321593749999;0.032954572916672475;64;0.75;violin
40.977306875;0.03295457291666537;62;0.75;violin
41.01139781249999;0.03295457291666537;64;0.75;violin
41.04548875;0.13522738541666257;61;0.75;violin
41.1818525;0.13522738541666257;62;0.75;violin
41.31821624999999;0.06704551041666917;65;0.75;violin
41.45457999999999;0.06704551041666917;69;0.75;violin
41.590943749999994;0.06704551041666917;74;0.75;violin
41.727307499999995;0.13522738541666968;77;0.75;violin
41.863671249999996;0.13522738541666257;81;0.75;violin
42.000035;0.13522738541666257;86;0.75;violin
42.13639875;0.13522738541666257;89;0.75;violin
42.27276249999999;0.13522738541666968;88;0.75;violin
42.40912624999999;0.13522738541666968;86;0.75;violin
42.545489999999994;0.13522738541666968;91;0.75;violin
42.681853749999995;0.13522738541666968;88;0.75;violin
42.818217499999996;0.13522738541666257;85;0.75;violin
42.95458125;0.13522738541666257;81;0.75;violin
43.090945;0.13522738541666257;79;0.75;violin
43.22730874999999;0.13522738541666968;76;0.75;violin
43.36367249999999;0.13522738541666968;89;0.75;violin
43.500036249999994;0.13522738541666968;86;0.75;violin
43.636399999999995;0.13522738541666968;81;0.75;violin
43.772763749999996;0.13522738541666257;77;0.75;violin
43.9091275;0.13522738541666257;76;0.75;violin
44.04549125;0.13522738541666257;74;0.75;violin
44.18185499999999;0.13522738541666968;73;0.75;violin
44.31821874999999;0.13522738541666968;81;0.75;violin
44.454582499999994;0.13522738541666968;76;0.75;violin
44.590946249999995;0.13522738541666968;73;0.75;violin
44.727309999999996;0.13522738541666257;69;0.75;violin
44.86367375;0.13522738541666257;64;0.75;violin
45.0000375;0.13522738541666257;61;0.75;violin
45.13640124999999;0.13522738541666968;57;0.75;violin
45.27276499999999;0.13522738541666968;56;0.75;violin
45.409128749999994;0.13522738541666968;57;0.75;violin
45.545492499999995;0.13522738541666968;59;0.75;violin
45.681856249999996;0.13522738541666257;61;0.75;violin
45.81822;0.13522738541666257;62;0.75;violin
45.95458375;0.06704551041666207;81;0.75;violin
46.09094749999999;0.06704551041666917;79;0.75;violin
46.22731124999999;0.06704551041666917;77;0.75;violin
46.36367499999999;0.06704551041666917;76;0.75;violin
46.500038749999995;0.06704551041666917;74;0.75;violin
46.636402499999996;0.06704551041666207;73;0.75;violin
46.77276625;0.06704551041666207;70;0.75;violin
46.90913;0.06704551041666207;69;0.75;violin
47.04549374999999;0.06704551041666917;67;0.75;violin
47.18185749999999;0.06704551041666917;65;0.75;violin
47.31822124999999;0.06704551041666917;64;0.75;violin
47.454584999999994;0.03295457291666537;62;0.75;violin
47.48867593749999;0.032954572916672475;64;0.75;violin
47.522766874999995;0.03295457291666537;62;0.75;violin
47.55685781249999;0.032954572916672475;64;0.75;violin
47.590948749999995;0.13522738541666257;61;0.75;violin
47.7273125;0.13522738541666257;62;0.75;violin
47.86367625;0.06704551041666207;65;0.75;violin
48.00003999999999;0.06704551041666917;69;0.75;violin
48.13640374999999;0.06704551041666917;74;0.75;violin
48.27276749999999;0.13522738541666968;77;0.75;violin
48.409131249999994;0.13522738541666968;81;0.75;violin
48.545494999999995;0.13522738541666257;86;0.75;violin
48.681858749999996;0.13522738541666257;89;0.75;violin
48.8182225;0.13522738541666257;88;0.75;violin
48.95458624999999;0.13522738541666968;86;0.75;violin
49.09094999999999;0.13522738541666968;82;0.75;violin
49.22731374999999;0.13522738541666968;79;0.75;violin
49.363677499999994;0.13522738541666968;76;0.75;violin
49.500041249999995;0.13522738541666257;82;0.75;violin
49.636404999999996;0.13522738541666257;81;0.75;violin
49.77276875;0.13522738541666257;79;0.75;violin
49.90913249999999;0.13522738541666968;77;0.75;violin
50.04549624999999;0.13522738541666968;76;0.75;violin
50.18185999999999;0.13522738541666968;74;0.75;violin
50.318223749999994;0.13522738541666968;81;0.75;violin
50.454587499999995;0.13522738541666257;69;0.75;violin
50.590951249999996;0.13522738541666257;73;0.75;violin
50.727315;0.13522738541666257;74;0.75;violin
50.86367874999999;0.13522738541666968;73;0.75;violin
51.00004249999999;0.13522738541666968;74;0.75;violin
51.13640624999999;0.13522738541666968;69;0.75;violin
51.272769999999994;0.13522738541666968;68;0.75;violin
51.409133749999995;0.13522738541666257;67;0.75;violin
51.545497499999996;0.13522738541666257;66;0.75;violin
51.68186125;0.13522738541666257;65;0.75;violin
51.81822499999999;0.13522738541666968;64;0.75;violin
51.95458874999999;0.13522738541666968;67;0.75;violin
52.09095249999999;0.13522738541666968;65;0.75;violin
52.227316249999994;0.13522738541666257;64;0.75;violin
52.363679999999995;0.13522738541666257;62;0.75;violin
52.500043749999996;0.06704551041666207;81;0.75;violin
52.63640749999999;0.06704551041666917;79;0.75;violin
52.77277124999999;0.06704551041666917;77;0.75;violin
52.90913499999999;0.06704551041666917;76;0.75;violin
53.04549874999999;0.06704551041666917;74;0.75;violin
53.181862499999994;0.06704551041666917;73;0.75;violin
53.318226249999995;0.06704551041666207;70;0.75;violin
53.454589999999996;0.06704551041666207;69;0.75;violin
53.59095374999999;0.06704551041666917;67;0.75;violin
53.72731749999999;0.06704551041666917;65;0.75;violin
53.86368124999999;0.06704551041666917;64;0.75;violin
54.00004499999999;0.03295457291666537;62;0.75;violin
54.0341359375;0.03295457291666537;64;0.75;violin
54.06822687499999;0.03295457291666537;62;0.75;violin
54.10231781249999;0.032954572916672475;64;0.75;violin
54.136408749999994;0.13522738541666257;61;0.75;violin
54.272772499999995;0.13522738541666257;62;0.75;violin
54.409136249999996;0.06704551041666207;65;0.75;violin
54.54549999999999;0.06704551041666917;69;0.75;violin
54.68186374999999;0.06704551041666917;74;0.75;violin
54.81822749999999;0.13522738541666968;77;0.75;violin
54.95459124999999;0.13522738541666968;81;0.75;violin
55.090954999999994;0.13522738541666257;86;0.75;violin
55.227318749999995;0.13522738541666257;89;0.75;violin
55.363682499999996;0.13522738541666257;88;0.75;violin
55.50004624999999;0.13522738541666968;86;0.75;violin
55.63640999999999;0.13522738541666968;91;0.75;violin
55.77277374999999;0.13522738541666968;88;0.75;violin
55.90913749999999;0.13522738541666968;85;0.75;violin
56.045501249999994;0.13522738541666257;81;0.75;violin
56.181864999999995;0.13522738541666257;79;0.75;violin
56.318228749999996;0.13522738541666257;76;0.75;violin
56.45459249999999;0.13522738541666968;89;0.75;violin
56.59095624999999;0.13522738541666968;86;0.75;violin
56.72731999999999;0.13522738541666968;81;0.75;violin
56.86368374999999;0.13522738541666968;77;0.75;violin
57.000047499999994;0.13522738541666257;76;0.75;violin
57.136411249999995;0.13522738541666257;74;0.75;violin
57.272774999999996;0.13522738541666257;73;0.75;violin
57.40913874999999;0.13522738541666968;81;0.75;violin
57.54550249999999;0.13522738541666968;76;0.75;violin
57.68186624999999;0.13522738541666968;73;0.75;violin
57.81822999999999;0.13522738541666968;69;0.75;violin
57.954593749999994;0.13522738541666257;64;0.75;violin
58.090957499999995;0.13522738541666257;61;0.75;violin
58.227321249999996;0.13522738541666257;57;0.75;violin
58.36368499999999;0.13522738541666968;56;0.75;violin
58.50004874999999;0.13522738541666968;57;0.75;violin
58.63641249999999;0.13522738541666968;59;0.75;violin
58.77277624999999;0.13522738541666968;61;0.75;violin
58.909139999999994;0.13522738541666257;62;0.75;violin
59.045503749999995;0.06704551041666207;81;0.75;violin
59.181867499999996;0.06704551041666207;79;0.75;violin
59.31823124999999;0.06704551041666917;77;0.75;violin
59.45459499999999;0.06704551041666917;76;0.75;violin
59.59095874999999;0.06704551041666917;74;0.75;violin
59.72732249999999;0.06704551041666917;73;0.75;violin
59.86368624999999;0.06704551041666917;70;0.75;violin
60.000049999999995;0.06704551041666207;69;0.75;violin
60.136413749999996;0.06704551041666207;67;0.75;violin
60.27277749999999;0.06704551041666917;65;0.75;violin
60.40914124999999;0.06704551041666917;64;0.75;violin
60.54550499999999;0.03295457291666537;62;0.75;violin
60.579595937499995;0.03295457291666537;64;0.75;violin
60.61368687499999;0.03295457291666537;62;0.75;violin
60.647777812499996;0.03295457291666537;64;0.75;violin
60.68186874999999;0.13522738541666968;61;0.75;violin
60.81823249999999;0.13522738541666257;62;0.75;violin
60.954596249999994;0.06704551041666207;65;0.75;violin
61.090959999999995;0.06704551041666207;69;0.75;violin
61.22732374999999;0.06704551041666917;74;0.75;violin
61.36368749999999;0.13522738541666968;77;0.75;violin
61.50005124999999;0.13522738541666968;81;0.75;violin
61.63641499999999;0.13522738541666968;86;0.75;violin
61.77277874999999;0.13522738541666257;89;0.75;violin
61.909142499999994;0.13522738541666257;88;0.75;violin
62.045506249999995;0.13522738541666257;86;0.75;violin
62.18186999999999;0.13522738541666968;82;0.75;violin
62.31823374999999;0.13522738541666968;79;0.75;violin
62.45459749999999;0.13522738541666968;76;0.75;violin
62.59096124999999;0.13522738541666968;82;0.75;violin
62.72732499999999;0.13522738541666257;81;0.75;violin
62.863688749999994;0.13522738541666257;79;0.75;violin
63.000052499999995;0.13522738541666257;77;0.75;violin
63.13641624999999;0.13522738541666968;76;0.75;violin
63.27277999999999;0.13522738541666968;74;0.75;violin
63.40914374999999;0.13522738541666968;81;0.75;violin
63.54550749999999;0.13522738541666968;69;0.75;violin
63.68187124999999;0.13522738541666257;73;0.75;violin
63.818234999999994;0.13522738541666257;74;0.75;violin
63.954598749999995;0.13522738541666257;73;0.75;violin
64.09096249999999;0.13522738541666968;74;0.75;violin
64.22732624999999;0.13522738541666968;69;0.75;violin
64.36368999999999;0.13522738541666968;68;0.75;violin
64.50005374999999;0.13522738541666968;67;0.75;violin
64.6364175;0.13522738541666968;66;0.75;violin
64.77278125;0.13522738541666968;65;0.75;violin
64.909145;0.13522738541666968;64;0.75;violin
65.04550875;0.13522738541665547;67;0.75;violin
65.1818725;0.13522738541665547;65;0.75;violin
65.31823625;0.13522738541665547;64;0.75;violin
65.45459999999999;0.13522738541666968;62;0.75;violin
65.59096374999999;0.13522738541666968;74;0.75;violin
65.72732749999999;0.13522738541666968;62;0.75;violin
65.86369124999999;0.13522738541666968;78;0.75;violin
66.00005499999999;0.13522738541666968;62;0.75;violin
66.13641874999999;0.13522738541666968;81;0.75;violin
66.27278249999999;0.13522738541666968;62;0.75;violin
66.40914624999999;0.13522738541666968;86;0.75;violin
66.54551;0.13522738541666968;62;0.75;violin
66.68187375;0.13522738541666968;90;0.75;violin
66.8182375;0.13522738541666968;62;0.75;violin
66.95460125;0.13522738541665547;93;0.75;violin
67.090965;0.03295457291666537;67;0.75;violin
67.1250559375;0.03295457291666537;69;0.75;violin
67.15914687499999;0.03295457291666537;67;0.75;violin
67.19323781249999;0.03295457291666537;69;0.75;violin
67.22732875;0.13522738541665547;66;0.75;violin
67.36369249999998;0.13522738541666968;67;0.75;violin
67.50005624999999;0.13522738541666968;86;0.75;violin
67.63641999999999;0.13522738541666968;82;0.75;violin
67.77278374999999;0.13522738541666968;78;0.75;violin
67.90914749999999;0.03295457291666537;79;0.75;violin
67.94323843749999;0.03295457291667958;81;0.75;violin
67.977329375;0.03295457291666537;79;0.75;violin
68.0114203125;0.03295457291666537;81;0.75;violin
68.04551124999999;0.13522738541666968;78;0.75;violin
68.18187499999999;0.13522738541666968;79;0.75;violin
68.31823874999999;0.13522738541666968;74;0.75;violin
68.4546025;0.13522738541666968;70;0.75;violin
68.59096625;0.13522738541666968;67;0.75;violin
68.72733;0.13522738541666968;60;0.75;violin
68.86369375;0.13522738541665547;72;0.75;violin
69.0000575;0.13522738541665547;60;0.75;violin
69.13642125;0.13522738541665547;76;0.75;violin
69.27278499999998;0.13522738541666968;60;0.75;violin
69.40914874999999;0.13522738541666968;79;0.75;violin
69.54551249999999;0.13522738541666968;60;0.75;violin
69.68187624999999;0.13522738541666968;84;0.75;violin
69.81823999999999;0.13522738541666968;60;0.75;violin
69.95460374999999;0.13522738541666968;88;0.75;violin
70.09096749999999;0.13522738541666968;60;0.75;violin
70.22733124999999;0.13522738541666968;91;0.75;violin
70.36369499999999;0.03295457291666537;65;0.75;violin
70.39778593749999;0.03295457291666537;67;0.75;violin
70.43187687499999;0.03295457291666537;65;0.75;violin
70.4659678125;0.03295457291666537;67;0.75;violin
70.50005875;0.13522738541666968;64;0.75;violin
70.6364225;0.13522738541666968;65;0.75;violin
70.77278625;0.13522738541665547;84;0.75;violin
70.90915;0.13522738541665547;81;0.75;violin
71.04551375;0.13522738541665547;76;0.75;violin
71.18187749999998;0.03295457291667958;77;0.75;violin
71.2159684375;0.03295457291666537;79;0.75;violin
71.25005937499999;0.03295457291666537;77;0.75;violin
71.28415031249999;0.03295457291666537;79;0.75;violin
71.31824124999999;0.13522738541666968;76;0.75;violin
71.45460499999999;0.13522738541666968;77;0.75;violin
71.59096874999999;0.13522738541666968;72;0.75;violin
71.72733249999999;0.13522738541666968;69;0.75;violin
71.86369624999999;0.13522738541666968;65;0.75;violin
72.00005999999999;0.13522738541666968;55;0.75;violin
72.13642374999999;0.13522738541666968;63;0.75;violin
72.27278749999999;0.13522738541666968;55;0.75;violin
72.40915125;0.13522738541666968;67;0.75;violin
72.545515;0.13522738541666968;55;0.75;violin
72.68187875;0.13522738541665547;70;0.75;violin
72.8182425;0.13522738541665547;55;0.75;violin
72.95460625;0.13522738541665547;75;0.75;violin
73.09096999999998;0.13522738541666968;55;0.75;violin
73.22733374999999;0.13522738541666968;79;0.75;violin
73.36369749999999;0.13522738541666968;55;0.75;violin
73.50006124999999;0.13522738541666968;82;0.75;violin
73.63642499999999;0.13522738541666968;56;0.75;violin
73.77278874999999;0.13522738541666968;62;0.75;violin
73.90915249999999;0.13522738541666968;56;0.75;violin
74.04551624999999;0.13522738541666968;65;0.75;violin
74.18187999999999;0.13522738541666968;56;0.75;violin
74.31824375;0.13522738541666968;68;0.75;violin
74.4546075;0.13522738541666968;56;0.75;violin
74.59097125;0.13522738541665547;71;0.75;violin
74.727335;0.13522738541665547;56;0.75;violin
74.86369875;0.13522738541665547;74;0.75;violin
75.00006249999998;0.13522738541666968;56;0.75;violin
75.13642624999999;0.13522738541666968;80;0.75;violin
75.27278999999999;0.03295457291666537;57;0.75;violin
75.3068809375;0.03295457291666537;58;0.75;violin
75.340971875;0.03295457291666537;57;0.75;violin
75.37506281249999;0.03295457291666537;58;0.75;violin
75.40915374999999;0.13522738541666968;56;0.75;violin
75.54551749999999;0.13522738541666968;57;0.75;violin
75.68188124999999;0.13522738541666968;81;0.75;violin
75.81824499999999;0.13522738541666968;76;0.75;violin
75.95460874999999;0.13522738541666968;72;0.75;violin
76.09097249999999;0.03295457291666537;69;0.75;violin
76.12506343749999;0.03295457291666537;70;0.75;violin
76.15915437499999;0.03295457291666537;69;0.75;violin
76.1932453125;0.03295457291666537;70;0.75;violin
76.22733625;0.13522738541666968;68;0.75;violin
76.3637;0.13522738541666968;69;0.75;violin
76.50006375;0.13522738541665547;64;0.75;violin
76.6364275;0.13522738541665547;60;0.75;violin
76.77279125;0.13522738541665547;64;0.75;violin
76.90915499999998;0.03295457291667958;57;0.75;violin
76.9432459375;0.03295457291666537;58;0.75;violin
76.97733687499999;0.03295457291666537;57;0.75;violin
77.01142781249999;0.03295457291666537;58;0.75;violin
77.04551874999999;0.13522738541666968;56;0.75;violin
77.18188249999999;0.13522738541666968;57;0.75;violin
77.31824624999999;0.06704551041667628;56;0.75;violin
77.45460999999999;0.06704551041666207;57;0.75;violin
77.59097374999999;0.06704551041666207;56;0.75;violin
77.72733749999999;0.03295457291666537;57;0.75;violin
77.76142843749999;0.03295457291666537;58;0.75;violin
77.79551937499998;0.03295457291667958;57;0.75;violin
77.8296103125;0.03295457291666537;58;0.75;violin
77.86370124999999;0.13522738541666968;56;0.75;violin
78.00006499999999;0.13522738541666968;57;0.75;violin
78.13642875;0.06704551041666207;56;0.75;violin
78.2727925;0.06704551041666207;57;0.75;violin
78.40915625;0.06704551041666207;57;0.75;violin
78.54552;0.03295457291666537;58;0.75;violin
78.5796109375;0.03295457291666537;60;0.75;violin
78.61370187499999;0.03295457291666537;58;0.75;violin
78.64779281249999;0.03295457291666537;60;0.75;violin
78.68188375;0.13522738541665547;57;0.75;violin
78.81824749999998;0.13522738541666968;58;0.75;violin
78.95461124999999;0.06704551041667628;57;0.75;violin
79.09097499999999;0.06704551041667628;58;0.75;violin
79.22733874999999;0.06704551041667628;57;0.75;violin
79.36370249999999;0.03295457291666537;58;0.75;violin
79.39779343749998;0.03295457291666537;60;0.75;violin
79.431884375;0.03295457291666537;58;0.75;violin
79.46597531249999;0.03295457291666537;60;0.75;violin
79.50006624999999;0.13522738541666968;57;0.75;violin
79.63642999999999;0.13522738541666968;58;0.75;violin
79.77279374999999;0.06704551041666207;57;0.75;violin
79.90915749999999;0.06704551041666207;58;0.75;violin
80.04552125;0.06704551041666207;57;0.75;violin
80.181885;0.13522738541666968;58;0.75;violin
80.31824875;0.13522738541665547;62;0.75;violin
80.4546125;0.13522738541665547;58;0.75;violin
80.59097625;0.13522738541665547;65;0.75;violin
80.72733999999998;0.13522738541666968;58;0.75;violin
80.86370374999998;0.13522738541666968;70;0.75;violin
81.00006749999999;0.13522738541666968;58;0.75;violin
81.13643124999999;0.13522738541666968;74;0.75;violin
81.27279499999999;0.13522738541666968;58;0.75;violin
81.40915874999999;0.13522738541666968;77;0.75;violin
81.54552249999999;0.13522738541666968;58;0.75;violin
81.68188624999999;0.13522738541666968;82;0.75;violin
81.81824999999999;0.03295457291666537;79;0.75;violin
81.85234093749999;0.03295457291666537;81;0.75;violin
81.88643187499999;0.03295457291666537;79;0.75;violin
81.9205228125;0.03295457291666537;81;0.75;violin
81.95461375;0.13522738541666968;78;0.75;violin
82.0909775;0.13522738541666968;79;0.75;violin
82.22734125;0.13522738541665547;64;0.75;violin
82.363705;0.13522738541665547;77;0.75;violin
82.50006875;0.13522738541665547;62;0.75;violin
82.63643249999998;0.03295457291667958;75;0.75;violin
82.6705234375;0.03295457291666537;77;0.75;violin
82.70461437499999;0.03295457291666537;75;0.75;violin
82.73870531249999;0.03295457291666537;77;0.75;violin
82.77279624999998;0.13522738541666968;74;0.75;violin
82.90915999999999;0.13522738541666968;75;0.75;violin
83.04552374999999;0.13522738541666968;60;0.75;violin
83.18188749999999;0.13522738541666968;74;0.75;violin
83.31825124999999;0.13522738541666968;58;0.75;violin
83.45461499999999;0.03295457291666537;74;0.75;violin
83.48870593749999;0.03295457291666537;76;0.75;violin
83.52279687499998;0.03295457291667958;74;0.75;violin
83.5568878125;0.03295457291666537;76;0.75;violin
83.59097874999999;0.13522738541666968;73;0.75;violin
83.72734249999999;0.13522738541666968;74;0.75;violin
83.86370624999999;0.13522738541666968;57;0.75;violin
84.00007;0.13522738541665547;74;0.75;violin
84.13643375;0.13522738541665547;56;0.75;violin
84.2727975;0.03295457291666537;74;0.75;violin
84.30688843749999;0.03295457291666537;76;0.75;violin
84.34097937499999;0.03295457291666537;74;0.75;violin
84.37507031249999;0.03295457291666537;76;0.75;violin
84.40916124999998;0.13522738541666968;73;0.75;violin
84.54552499999998;0.13522738541666968;74;0.75;violin
84.68188874999998;0.13522738541666968;57;0.75;violin
84.81825249999999;0.13522738541666968;74;0.75;violin
84.95461624999999;0.13522738541666968;56;0.75;violin
85.09097999999999;0.03295457291666537;57;0.75;violin
85.12507093749998;0.03295457291666537;58;0.75;violin
85.159161875;0.03295457291666537;57;0.75;violin
85.19325281249999;0.03295457291666537;58;0.75;violin
85.22734374999999;0.13522738541666968;56;0.75;violin
85.36370749999999;0.13522738541666968;57;0.75;violin
85.50007124999999;0.13522738541666968;74;0.75;violin
85.63643499999999;0.13522738541666968;57;0.75;violin
85.77279874999999;0.13522738541666968;77;0.75;violin
85.9091625;0.03295457291666537;57;0.75;violin
85.94325343749999;0.03295457291666537;58;0.75;violin
85.97734437499999;0.03295457291666537;57;0.75;violin
86.01143531249998;0.03295457291666537;58;0.75;violin
86.04552625;0.13522738541665547;56;0.75;violin
86.18189;0.13522738541665547;57;0.75;violin
86.31825374999998;0.13522738541666968;73;0.75;violin
86.45461749999998;0.13522738541666968;57;0.75;violin
86.59098124999998;0.13522738541666968;76;0.75;violin
86.72734499999999;0.03295457291666537;62;0.75;violin
86.7614359375;0.03295457291666537;64;0.75;violin
86.795526875;0.03295457291666537;62;0.75;violin
86.82961781249999;0.03295457291666537;64;0.75;violin
86.86370874999999;0.13522738541666968;61;0.75;violin
87.00007249999999;0.13522738541666968;62;0.75;violin
87.13643624999999;0.13522738541666968;74;0.75;violin
87.27279999999999;0.13522738541666968;62;0.75;violin
87.40916374999999;0.13522738541666968;77;0.75;violin
87.54552749999999;0.13522738541666968;62;0.75;violin
87.68189124999999;0.13522738541666968;81;0.75;violin
87.818255;0.13522738541665547;62;0.75;violin
87.95461875;0.13522738541665547;86;0.75;violin
88.0909825;0.13522738541665547;62;0.75;violin
88.22734624999998;0.13522738541666968;89;0.75;violin
88.36370999999998;0.03295457291667958;62;0.75;violin
88.3978009375;0.03295457291666537;64;0.75;violin
88.43189187499999;0.03295457291666537;62;0.75;violin
88.46598281249999;0.03295457291666537;64;0.75;violin
88.50007374999998;0.13522738541666968;61;0.75;violin
88.63643749999999;0.13522738541666968;62;0.75;violin
88.77280124999999;0.13522738541666968;81;0.75;violin
88.90916499999999;0.13522738541666968;62;0.75;violin
89.04552874999999;0.13522738541666968;86;0.75;violin
89.18189249999999;0.13522738541666968;62;0.75;violin
89.31825624999999;0.13522738541666968;89;0.75;violin
89.45461999999999;0.13522738541666968;62;0.75;violin
89.59098374999999;0.13522738541666968;93;0.75;violin
89.7273475;0.13522738541665547;62;0.75;violin
89.86371125;0.13522738541665547;98;0.75;violin
90.000075;0.03295457291666537;62;0.75;violin
90.03416593749999;0.03295457291666537;64;0.75;violin
90.06825687499999;0.03295457291666537;62;0.75;violin
90.10234781249999;0.03295457291666537;64;0.75;violin
90.13643874999998;0.13522738541666968;61;0.75;violin
90.27280249999998;0.13522738541666968;62;0.75;violin
90.40916624999998;0.06704551041667628;61;0.75;violin
90.54552999999999;0.06704551041667628;62;0.75;violin
90.68189374999999;0.06704551041667628;61;0.75;violin
90.81825749999999;0.03295457291666537;62;0.75;violin
90.85234843749998;0.03295457291666537;64;0.75;violin
90.886439375;0.03295457291666537;62;0.75;violin
90.92053031249999;0.03295457291666537;64;0.75;violin
90.95462124999999;0.13522738541666968;61;0.75;violin
91.09098499999999;0.13522738541666968;62;0.75;violin
91.22734874999999;0.06704551041666207;61;0.75;violin
91.36371249999999;0.06704551041666207;62;0.75;violin
91.50007624999999;0.06704551041666207;61;0.75;violin
91.63644;0.13522738541665547;62;0.75;violin
91.77280375;0.06704551041666207;81;0.75;violin
91.9091675;0.06704551041666207;79;0.75;violin
92.04553124999998;0.06704551041667628;77;0.75;violin
92.18189499999998;0.06704551041667628;76;0.75;violin
92.31825874999998;0.06704551041667628;74;0.75;violin
92.45462249999999;0.06704551041667628;73;0.75;violin
92.59098624999999;0.06704551041667628;70;0.75;violin
92.72734999999999;0.06704551041666207;69;0.75;violin
92.86371374999999;0.06704551041666207;67;0.75;violin
93.00007749999999;0.06704551041666207;65;0.75;violin
93.13644124999999;0.06704551041666207;64;0.75;violin
93.27280499999999;0.13522738541666968;62;0.75;violin
93.40916874999999;0.13522738541666968;74;0.75;violin
93.5455325;0.13522738541665547;62;0.75;violin
93.68189625;0.13522738541665547;78;0.75;violin
93.81826;0.13522738541665547;62;0.75;violin
93.95462374999998;0.13522738541666968;81;0.75;violin
94.09098749999998;0.13522738541666968;62;0.75;violin
94.22735124999998;0.13522738541666968;86;0.75;violin
94.36371499999998;0.13522738541666968;62;0.75;violin
94.50007874999999;0.13522738541666968;90;0.75;violin
94.63644249999999;0.13522738541666968;62;0.75;violin
94.77280624999999;0.13522738541666968;93;0.75;violin
94.90916999999999;0.03295457291666537;67;0.75;violin
94.94326093749999;0.03295457291666537;69;0.75;violin
94.97735187499998;0.03295457291667958;67;0.75;violin
95.0114428125;0.03295457291666537;69;0.75;violin
95.04553374999999;0.13522738541666968;66;0.75;violin
95.18189749999999;0.13522738541666968;67;0.75;violin
95.31826124999999;0.13522738541666968;86;0.75;violin
95.454625;0.13522738541665547;82;0.75;violin
95.59098875;0.13522738541665547;78;0.75;violin
95.7273525;0.03295457291666537;79;0.75;violin
95.76144343749999;0.03295457291666537;81;0.75;violin
95.79553437499999;0.03295457291666537;79;0.75;violin
95.82962531249999;0.03295457291666537;81;0.75;violin
95.86371624999998;0.13522738541666968;78;0.75;violin
96.00007999999998;0.13522738541666968;79;0.75;violin
96.13644374999998;0.13522738541666968;74;0.75;violin
96.27280749999998;0.13522738541666968;70;0.75;violin
96.40917124999999;0.13522738541666968;67;0.75;violin
96.54553499999999;0.13522738541666968;60;0.75;violin
96.68189874999999;0.13522738541666968;72;0.75;violin
96.81826249999999;0.13522738541666968;60;0.75;violin
96.95462624999999;0.13522738541666968;76;0.75;violin
97.09098999999999;0.13522738541666968;60;0.75;violin
97.22735374999999;0.13522738541666968;79;0.75;violin
97.36371749999999;0.13522738541665547;60;0.75;violin
97.50008125;0.13522738541665547;84;0.75;violin
97.636445;0.13522738541665547;60;0.75;violin
97.77280874999998;0.13522738541666968;88;0.75;violin
97.90917249999998;0.13522738541666968;60;0.75;violin
98.04553624999998;0.13522738541666968;91;0.75;violin
98.18189999999998;0.03295457291666537;65;0.75;violin
98.21599093749998;0.03295457291667958;67;0.75;violin
98.25008187499999;0.03295457291666537;65;0.75;violin
98.28417281249999;0.03295457291666537;67;0.75;violin
98.31826374999999;0.13522738541666968;64;0.75;violin
98.45462749999999;0.13522738541666968;65;0.75;violin
98.59099124999999;0.13522738541666968;84;0.75;violin
98.72735499999999;0.13522738541666968;81;0.75;violin
98.86371874999999;0.13522738541666968;76;0.75;violin
99.00008249999999;0.03295457291666537;77;0.75;violin
99.03417343749999;0.03295457291666537;79;0.75;violin
99.06826437499998;0.03295457291666537;77;0.75;violin
99.10235531249998;0.03295457291667958;79;0.75;violin
99.13644624999999;0.13522738541666968;76;0.75;violin
99.27280999999999;0.13522738541665547;77;0.75;violin
99.40917375;0.13522738541665547;72;0.75;violin
99.5455375;0.13522738541665547;69;0.75;violin
99.68190124999998;0.13522738541666968;65;0.75;violin
99.81826499999998;0.13522738541666968;55;0.75;violin
99.95462874999998;0.13522738541666968;63;0.75;violin
100.09099249999998;0.13522738541666968;55;0.75;violin
100.22735624999999;0.13522738541666968;67;0.75;violin
100.36371999999999;0.13522738541666968;55;0.75;violin
100.50008374999999;0.13522738541666968;70;0.75;violin
100.63644749999999;0.13522738541666968;55;0.75;violin
100.77281124999999;0.13522738541666968;75;0.75;violin
100.90917499999999;0.13522738541666968;55;0.75;violin
101.04553874999999;0.13522738541666968;79;0.75;violin
101.18190249999999;0.13522738541665547;55;0.75;violin
101.31826625;0.13522738541665547;82;0.75;violin
101.45463;0.13522738541665547;56;0.75;violin
101.59099374999998;0.13522738541666968;62;0.75;violin
101.72735749999998;0.13522738541666968;56;0.75;violin
101.86372124999998;0.13522738541666968;65;0.75;violin
102.00008499999998;0.13522738541666968;56;0.75;violin
102.13644874999999;0.13522738541666968;68;0.75;violin
102.27281249999999;0.13522738541666968;56;0.75;violin
102.40917624999999;0.13522738541666968;71;0.75;violin
102.54553999999999;0.13522738541666968;56;0.75;violin
102.68190374999999;0.13522738541666968;74;0.75;violin
102.81826749999999;0.13522738541666968;56;0.75;violin
102.95463124999999;0.13522738541666968;80;0.75;violin
103.09099499999999;0.03295457291666537;57;0.75;violin
103.12508593749999;0.03295457291666537;58;0.75;violin
103.15917687499999;0.03295457291666537;57;0.75;violin
103.19326781249998;0.03295457291666537;58;0.75;violin
103.22735875;0.13522738541665547;56;0.75;violin
103.3637225;0.13522738541665547;57;0.75;violin
103.50008624999998;0.13522738541666968;81;0.75;violin
103.63644999999998;0.13522738541666968;76;0.75;violin
103.77281374999998;0.13522738541666968;72;0.75;violin
103.90917749999998;0.03295457291666537;69;0.75;violin
103.94326843749998;0.03295457291667958;70;0.75;violin
103.97735937499999;0.03295457291666537;69;0.75;violin
104.01145031249999;0.03295457291666537;70;0.75;violin
104.04554124999999;0.13522738541666968;68;0.75;violin
104.18190499999999;0.13522738541666968;69;0.75;violin
104.31826874999999;0.13522738541666968;64;0.75;violin
104.45463249999999;0.13522738541666968;60;0.75;violin
104.59099624999999;0.13522738541666968;64;0.75;violin
104.72735999999999;0.03295457291666537;57;0.75;violin
104.76145093749999;0.03295457291666537;58;0.75;violin
104.79554187499998;0.03295457291666537;57;0.75;violin
104.82963281249998;0.03295457291667958;58;0.75;violin
104.86372374999999;0.13522738541665547;56;0.75;violin
105.00008749999999;0.13522738541665547;57;0.75;violin
105.13645125;0.06704551041666207;56;0.75;violin
105.27281499999998;0.06704551041667628;57;0.75;violin
105.40917874999998;0.06704551041667628;56;0.75;violin
105.54554249999998;0.03295457291666537;57;0.75;violin
105.5796334375;0.03295457291666537;58;0.75;violin
105.61372437499999;0.03295457291666537;57;0.75;violin
105.64781531249999;0.03295457291666537;58;0.75;violin
105.68190624999998;0.13522738541666968;56;0.75;violin
105.81826999999998;0.13522738541666968;57;0.75;violin
105.95463374999999;0.06704551041666207;56;0.75;violin
106.09099749999999;0.06704551041666207;57;0.75;violin
106.22736124999999;0.06704551041666207;57;0.75;violin
106.36372499999999;0.03295457291666537;58;0.75;violin
106.39781593749998;0.03295457291666537;60;0.75;violin
106.43190687499998;0.03295457291666537;58;0.75;violin
106.46599781249999;0.03295457291666537;60;0.75;violin
106.50008874999999;0.13522738541666968;57;0.75;violin
106.63645249999999;0.13522738541666968;58;0.75;violin
106.77281624999999;0.06704551041666207;57;0.75;violin
106.90917999999999;0.06704551041666207;58;0.75;violin
107.04554375;0.06704551041666207;57;0.75;violin
107.18190749999998;0.03295457291667958;58;0.75;violin
107.21599843749999;0.03295457291666537;60;0.75;violin
107.25008937499999;0.03295457291666537;58;0.75;violin
107.28418031249998;0.03295457291666537;60;0.75;violin
107.31827124999998;0.13522738541666968;57;0.75;violin
107.45463499999998;0.13522738541666968;58;0.75;violin
107.59099874999998;0.06704551041667628;57;0.75;violin
107.72736249999998;0.06704551041667628;58;0.75;violin
107.86372624999998;0.06704551041666207;57;0.75;violin
108.00008999999999;0.13522738541666968;58;0.75;violin
108.13645374999999;0.13522738541666968;62;0.75;violin
108.27281749999999;0.13522738541666968;58;0.75;violin
108.40918124999999;0.13522738541666968;65;0.75;violin
108.54554499999999;0.13522738541666968;58;0.75;violin
108.68190874999999;0.13522738541665547;70;0.75;violin
108.81827249999999;0.13522738541665547;58;0.75;violin
108.95463625;0.13522738541665547;74;0.75;violin
109.09099999999998;0.13522738541666968;58;0.75;violin
109.22736374999998;0.13522738541666968;77;0.75;violin
109.36372749999998;0.13522738541666968;58;0.75;violin
109.50009124999998;0.13522738541666968;82;0.75;violin
109.63645499999998;0.03295457291666537;79;0.75;violin
109.67054593749998;0.03295457291667958;81;0.75;violin
109.70463687499999;0.03295457291666537;79;0.75;violin
109.73872781249999;0.03295457291666537;81;0.75;violin
109.77281874999998;0.13522738541666968;78;0.75;violin
109.90918249999999;0.13522738541666968;79;0.75;violin
110.04554624999999;0.13522738541666968;64;0.75;violin
110.18190999999999;0.13522738541666968;77;0.75;violin
110.31827374999999;0.13522738541666968;62;0.75;violin
110.45463749999999;0.03295457291666537;75;0.75;violin
110.48872843749999;0.03295457291666537;77;0.75;violin
110.52281937499998;0.03295457291666537;75;0.75;violin
110.55691031249998;0.03295457291667958;77;0.75;violin
110.59100124999999;0.13522738541665547;74;0.75;violin
110.72736499999999;0.13522738541665547;75;0.75;violin
110.86372874999999;0.13522738541665547;60;0.75;violin
111.00009249999998;0.13522738541666968;74;0.75;violin
111.13645624999998;0.13522738541666968;58;0.75;violin
111.27281999999998;0.03295457291666537;74;0.75;violin
111.30691093749999;0.03295457291666537;76;0.75;violin
111.34100187499999;0.03295457291666537;74;0.75;violin
111.37509281249999;0.03295457291666537;76;0.75;violin
111.40918374999998;0.13522738541666968;73;0.75;violin
111.54554749999998;0.13522738541666968;74;0.75;violin
111.68191124999998;0.13522738541666968;57;0.75;violin
111.81827499999999;0.13522738541666968;74;0.75;violin
111.95463874999999;0.13522738541666968;56;0.75;violin
112.09100249999999;0.03295457291666537;74;0.75;violin
112.12509343749998;0.03295457291666537;76;0.75;violin
112.15918437499998;0.03295457291666537;74;0.75;violin
112.19327531249999;0.03295457291666537;76;0.75;violin
112.22736624999999;0.13522738541666968;73;0.75;violin
112.36372999999999;0.13522738541666968;74;0.75;violin
112.50009374999999;0.13522738541665547;57;0.75;violin
112.63645749999999;0.13522738541665547;74;0.75;violin
112.77282124999999;0.13522738541665547;56;0.75;violin
112.90918499999998;0.03295457291667958;57;0.75;violin
112.94327593749999;0.03295457291666537;58;0.75;violin
112.97736687499999;0.03295457291666537;57;0.75;violin
113.01145781249998;0.03295457291666537;58;0.75;violin
113.04554874999998;0.13522738541666968;56;0.75;violin
113.18191249999998;0.13522738541666968;57;0.75;violin
113.31827624999998;0.13522738541666968;74;0.75;violin
113.45463999999998;0.13522738541666968;57;0.75;violin
113.59100374999998;0.13522738541666968;77;0.75;violin
113.72736749999999;0.03295457291666537;57;0.75;violin
113.76145843749998;0.03295457291666537;58;0.75;violin
113.79554937499998;0.03295457291667958;57;0.75;violin
113.82964031249999;0.03295457291666537;58;0.75;violin
113.86373124999999;0.13522738541666968;56;0.75;violin
114.00009499999999;0.13522738541666968;57;0.75;violin
114.13645874999999;0.13522738541666968;73;0.75;violin
114.27282249999999;0.13522738541666968;57;0.75;violin
114.40918624999999;0.13522738541665547;76;0.75;violin
114.54554999999999;0.03295457291666537;62;0.75;violin
114.57964093749999;0.03295457291666537;64;0.75;violin
114.61373187499998;0.03295457291666537;62;0.75;violin
114.64782281249998;0.03295457291666537;64;0.75;violin
114.68191374999999;0.13522738541665547;61;0.75;violin
114.81827749999998;0.13522738541666968;62;0.75;violin
114.95464124999998;0.13522738541666968;74;0.75;violin
115.09100499999998;0.13522738541666968;62;0.75;violin
115.22736874999998;0.13522738541666968;77;0.75;violin
115.36373249999998;0.13522738541666968;62;0.75;violin
115.50009624999998;0.13522738541666968;81;0.75;violin
115.63645999999999;0.13522738541666968;62;0.75;violin
115.77282374999999;0.13522738541666968;86;0.75;violin
115.90918749999999;0.13522738541666968;62;0.75;violin
116.04555124999999;0.13522738541666968;89;0.75;violin
116.18191499999999;0.03295457291666537;62;0.75;violin
116.21600593749999;0.03295457291666537;64;0.75;violin
116.25009687499998;0.03295457291666537;62;0.75;violin
116.28418781249998;0.03295457291667958;64;0.75;violin
116.31827874999999;0.13522738541665547;61;0.75;violin
116.45464249999999;0.13522738541665547;62;0.75;violin
116.59100624999999;0.13522738541665547;81;0.75;violin
116.72736999999998;0.13522738541666968;62;0.75;violin
116.86373374999998;0.13522738541666968;86;0.75;violin
117.00009749999998;0.13522738541666968;62;0.75;violin
117.13646124999998;0.13522738541666968;89;0.75;violin
117.27282499999998;0.13522738541666968;62;0.75;violin
117.40918874999998;0.13522738541666968;93;0.75;violin
117.54555249999999;0.13522738541666968;62;0.75;violin
117.68191624999999;0.13522738541666968;98;0.75;violin
117.81827999999999;0.03295457291666537;62;0.75;violin
117.85237093749998;0.03295457291666537;64;0.75;violin
117.88646187499998;0.03295457291666537;62;0.75;violin
117.92055281249999;0.03295457291666537;64;0.75;violin
117.95464374999999;0.13522738541666968;61;0.75;violin
118.09100749999999;0.13522738541666968;62;0.75;violin
118.22737124999999;0.06704551041666207;61;0.75;violin
118.36373499999999;0.06704551041666207;62;0.75;violin
118.50009874999999;0.06704551041666207;61;0.75;violin
118.63646249999998;0.03295457291667958;62;0.75;violin
118.67055343749999;0.03295457291666537;64;0.75;violin
118.70464437499999;0.03295457291666537;62;0.75;violin
118.73873531249998;0.03295457291666537;64;0.75;violin
118.77282624999998;0.13522738541666968;61;0.75;violin
118.90918999999998;0.13522738541666968;62;0.75;violin
119.04555374999998;0.06704551041667628;61;0.75;violin
119.18191749999998;0.06704551041666207;62;0.75;violin
119.31828124999998;0.06704551041666207;61;0.75;violin
119.45464499999999;0.8170461354166605;62;0.75;violin
121.09100999999998;0.8170461354166747;81;0.75;violin
121.09100999999998;0.8170461354166747;89;0.75;violin
121.90919249999999;0.8170461354166605;79;0.75;violin
121.90919249999999;0.8170461354166605;88;0.75;violin
122.72737499999998;0.8170461354166747;81;0.75;violin
122.72737499999998;0.8170461354166747;89;0.75;violin
123.54555749999999;0.8170461354166605;65;0.75;violin
124.36373999999998;0.13522738541666968;65;0.75;violin
124.36373999999998;0.13522738541666968;69;0.75;violin
124.63646749999998;0.13522738541666968;67;0.75;violin
124.63646749999998;0.13522738541666968;70;0.75;violin
124.90919499999998;0.13522738541666968;69;0.75;violin
124.90919499999998;0.13522738541666968;72;0.75;violin
125.18192249999998;0.13522738541666968;70;0.75;violin
125.18192249999998;0.13522738541666968;74;0.75;violin
125.45464999999999;0.13522738541666968;72;0.75;violin
125.45464999999999;0.13522738541666968;76;0.75;violin
125.72737749999999;0.13522738541665547;74;0.75;violin
125.72737749999999;0.13522738541665547;77;0.75;violin
126.00010499999999;0.27159113541665647;69;0.75;violin
126.00010499999999;0.27159113541665647;72;0.75;violin
126.54555999999998;0.13522738541666968;67;0.75;violin
126.54555999999998;0.13522738541666968;70;0.75;violin
126.81828749999998;0.5443186354166727;65;0.75;violin
126.81828749999998;0.5443186354166727;69;0.75;violin
127.63646999999999;0.8170461354166747;81;0.75;violin
127.63646999999999;0.8170461354166747;89;0.75;violin
128.45465249999998;0.8170461354166605;79;0.75;violin
128.45465249999998;0.8170461354166605;88;0.75;violin
129.272835;0.8170461354166605;81;0.75;violin
129.272835;0.8170461354166605;89;0.75;violin
130.0910175;0.8170461354166605;65;0.75;violin
130.90919999999997;0.2715911354166849;65;0.75;violin
131.18192749999997;0.13522738541666968;77;0.75;violin
131.18192749999997;0.13522738541666968;81;0.75;violin
131.45465499999997;0.13522738541666968;76;0.75;violin
131.45465499999997;0.13522738541666968;79;0.75;violin
131.72738249999998;0.13522738541666968;74;0.75;violin
131.72738249999998;0.13522738541666968;77;0.75;violin
132.00010999999998;0.13522738541666968;72;0.75;violin
132.00010999999998;0.13522738541666968;76;0.75;violin
132.27283749999998;0.13522738541666968;71;0.75;violin
132.27283749999998;0.13522738541666968;74;0.75;violin
132.54556499999998;0.5443186354166585;72;0.75;violin
132.54556499999998;0.5443186354166585;76;0.75;violin
133.09102;0.27159113541665647;67;0.75;violin
133.3637475;0.27159113541665647;60;0.75;violin
134.18193;0.13522738541666968;69;0.3828125;violin
134.18193;0.13522738541666968;72;0.3828125;violin
134.4546575;0.13522738541664125;67;0.3828125;violin
134.4546575;0.13522738541664125;70;0.3828125;violin
134.72738499999997;0.13522738541666968;65;0.3828125;violin
134.72738499999997;0.13522738541666968;69;0.3828125;violin
135.00011249999997;0.13522738541666968;77;0.3828125;violin
135.00011249999997;0.13522738541666968;93;0.3828125;violin
135.27283999999997;0.13522738541666968;79;0.3828125;violin
135.27283999999997;0.13522738541666968;94;0.3828125;violin
135.54556749999998;0.13522738541666968;81;0.3828125;violin
135.54556749999998;0.13522738541666968;96;0.3828125;violin
135.81829499999998;0.13522738541666968;62;0.3828125;violin
135.81829499999998;0.13522738541666968;65;0.3828125;violin
136.09102249999998;0.13522738541666968;60;0.3828125;violin
136.09102249999998;0.13522738541666968;63;0.3828125;violin
136.36374999999998;0.13522738541666968;58;0.3828125;violin
136.36374999999998;0.13522738541666968;62;0.3828125;violin
136.63647749999998;0.13522738541666968;70;0.3828125;violin
136.63647749999998;0.13522738541666968;86;0.3828125;violin
136.909205;0.13522738541666968;72;0.3828125;violin
136.909205;0.13522738541666968;88;0.3828125;violin
137.1819325;0.13522738541666968;74;0.3828125;violin
137.1819325;0.13522738541666968;89;0.3828125;violin
137.45466;0.13522738541666968;71;0.3828125;violin
137.45466;0.13522738541666968;74;0.3828125;violin
137.7273875;0.13522738541666968;69;0.3828125;violin
137.7273875;0.13522738541666968;72;0.3828125;violin
138.000115;0.13522738541666968;67;0.3828125;violin
138.000115;0.13522738541666968;71;0.3828125;violin
138.2728425;0.13522738541664125;79;0.3828125;violin
138.2728425;0.13522738541664125;95;0.3828125;violin
138.54556999999997;0.13522738541666968;81;0.3828125;violin
138.54556999999997;0.13522738541666968;96;0.3828125;violin
138.81829749999997;0.13522738541666968;83;0.3828125;violin
138.81829749999997;0.13522738541666968;98;0.3828125;violin
139.09102499999997;0.13522738541666968;64;0.3828125;violin
139.09102499999997;0.13522738541666968;67;0.3828125;violin
139.36375249999998;0.13522738541666968;62;0.3828125;violin
139.36375249999998;0.13522738541666968;65;0.3828125;violin
139.63647999999998;0.13522738541666968;60;0.3828125;violin
139.63647999999998;0.13522738541666968;64;0.3828125;violin
139.90920749999998;0.13522738541666968;72;0.3828125;violin
139.90920749999998;0.13522738541666968;88;0.3828125;violin
140.18193499999998;0.13522738541666968;74;0.3828125;violin
140.18193499999998;0.13522738541666968;89;0.3828125;violin
140.45466249999998;0.13522738541666968;76;0.3828125;violin
140.45466249999998;0.13522738541666968;91;0.3828125;violin
140.72738999999999;0.27159113541665647;77;0.75;violin
140.72738999999999;0.27159113541665647;93;0.75;violin
141.0001175;0.27159113541665647;79;0.75;violin
141.0001175;0.27159113541665647;94;0.75;violin
141.272845;0.27159113541665647;81;0.75;violin
141.272845;0.27159113541665647;96;0.75;violin
141.5455725;0.27159113541665647;82;0.75;violin
141.5455725;0.27159113541665647;98;0.75;violin
141.8183;0.27159113541665647;81;0.75;violin
141.8183;0.27159113541665647;96;0.75;violin
142.0910275;0.27159113541665647;80;0.75;violin
142.0910275;0.27159113541665647;95;0.75;violin
142.36375499999997;0.8170461354166889;81;0.75;violin
142.36375499999997;0.8170461354166889;96;0.75;violin
143.18193749999998;0.8170461354166605;77;0.75;violin
143.18193749999998;0.8170461354166605;93;0.75;violin
144.00011999999998;0.27159113541665647;69;0.75;violin
144.00011999999998;0.27159113541665647;77;0.75;violin
144.27284749999998;0.27159113541665647;70;0.75;violin
144.27284749999998;0.27159113541665647;79;0.75;violin
144.54557499999999;0.27159113541665647;72;0.75;violin
144.54557499999999;0.27159113541665647;81;0.75;violin
144.8183025;0.27159113541665647;70;0.75;violin
144.8183025;0.27159113541665647;79;0.75;violin
145.09103;0.27159113541665647;69;0.75;violin
145.09103;0.27159113541665647;77;0.75;violin
145.3637575;0.27159113541665647;67;0.75;violin
145.3637575;0.27159113541665647;76;0.75;violin
145.636485;0.8170461354166605;65;0.75;violin
145.636485;0.8170461354166605;69;0.75;violin
146.45466749999997;0.2715911354166849;77;0.75;violin
147.27284999999998;0.13522738541666968;69;0.75;violin
147.27284999999998;0.13522738541666968;72;0.75;violin
147.54557749999998;0.13522738541666968;67;0.75;violin
147.54557749999998;0.13522738541666968;70;0.75;violin
147.81830499999998;0.13522738541666968;65;0.75;violin
147.81830499999998;0.13522738541666968;69;0.75;violin
148.09103249999998;0.13522738541666968;65;0.75;violin
148.09103249999998;0.13522738541666968;69;0.75;violin
148.09103249999998;0.13522738541666968;77;0.75;violin
148.36375999999998;0.13522738541666968;67;0.75;violin
148.36375999999998;0.13522738541666968;70;0.75;violin
148.36375999999998;0.13522738541666968;77;0.75;violin
148.6364875;0.13522738541666968;69;0.75;violin
148.6364875;0.13522738541666968;72;0.75;violin
148.6364875;0.13522738541666968;77;0.75;violin
148.909215;0.13522738541666968;62;0.75;violin
148.909215;0.13522738541666968;65;0.75;violin
149.1819425;0.13522738541666968;60;0.75;violin
149.1819425;0.13522738541666968;63;0.75;violin
149.45467;0.13522738541664125;58;0.75;violin
149.45467;0.13522738541664125;62;0.75;violin
149.7273975;0.13522738541664125;58;0.75;violin
149.7273975;0.13522738541664125;62;0.75;violin
149.7273975;0.13522738541664125;70;0.75;violin
150.00012499999997;0.13522738541666968;60;0.75;violin
150.00012499999997;0.13522738541666968;63;0.75;violin
150.00012499999997;0.13522738541666968;70;0.75;violin
150.27285249999997;0.13522738541666968;62;0.75;violin
150.27285249999997;0.13522738541666968;65;0.75;violin
150.27285249999997;0.13522738541666968;70;0.75;violin
150.54557999999997;0.13522738541666968;71;0.75;violin
150.54557999999997;0.13522738541666968;74;0.75;violin
150.81830749999997;0.13522738541666968;69;0.75;violin
150.81830749999997;0.13522738541666968;72;0.75;violin
151.09103499999998;0.13522738541666968;67;0.75;violin
151.09103499999998;0.13522738541666968;71;0.75;violin
151.36376249999998;0.13522738541666968;67;0.75;violin
151.36376249999998;0.13522738541666968;71;0.75;violin
151.36376249999998;0.13522738541666968;79;0.75;violin
151.63648999999998;0.13522738541666968;69;0.75;violin
151.63648999999998;0.13522738541666968;72;0.75;violin
151.63648999999998;0.13522738541666968;79;0.75;violin
151.90921749999998;0.13522738541666968;71;0.75;violin
151.90921749999998;0.13522738541666968;74;0.75;violin
151.90921749999998;0.13522738541666968;79;0.75;violin
152.18194499999998;0.13522738541666968;64;0.75;violin
152.18194499999998;0.13522738541666968;67;0.75;violin
152.4546725;0.13522738541666968;62;0.75;violin
152.4546725;0.13522738541666968;65;0.75;violin
152.7274;0.13522738541666968;60;0.75;violin
152.7274;0.13522738541666968;64;0.75;violin
153.0001275;0.13522738541666968;60;0.75;violin
153.0001275;0.13522738541666968;64;0.75;violin
153.0001275;0.13522738541666968;72;0.75;violin
153.272855;0.13522738541664125;62;0.75;violin
153.272855;0.13522738541664125;65;0.75;violin
153.272855;0.13522738541664125;72;0.75;violin
153.5455825;0.13522738541664125;64;0.75;violin
153.5455825;0.13522738541664125;67;0.75;violin
153.5455825;0.13522738541664125;72;0.75;violin
153.81830999999997;0.2715911354166849;65;0.75;violin
153.81830999999997;0.2715911354166849;69;0.75;violin
153.81830999999997;0.2715911354166849;77;0.75;violin
154.09103749999997;0.2715911354166849;67;0.75;violin
154.09103749999997;0.2715911354166849;70;0.75;violin
154.09103749999997;0.2715911354166849;77;0.75;violin
154.36376499999997;0.2715911354166849;69;0.75;violin
154.36376499999997;0.2715911354166849;72;0.75;violin
154.36376499999997;0.2715911354166849;77;0.75;violin
154.63649249999997;0.2715911354166849;70;0.75;violin
154.63649249999997;0.2715911354166849;74;0.75;violin
154.63649249999997;0.2715911354166849;77;0.75;violin
154.90921999999998;0.2715911354166849;69;0.75;violin
154.90921999999998;0.2715911354166849;72;0.75;violin
154.90921999999998;0.2715911354166849;77;0.75;violin
155.18194749999998;0.27159113541665647;68;0.75;violin
155.18194749999998;0.27159113541665647;71;0.75;violin
155.18194749999998;0.27159113541665647;77;0.75;violin
155.45467499999998;0.8170461354166605;69;0.75;violin
155.45467499999998;0.8170461354166605;72;0.75;violin
155.45467499999998;0.8170461354166605;77;0.75;violin
156.2728575;0.8170461354166605;65;0.75;violin
156.2728575;0.8170461354166605;69;0.75;violin
156.2728575;0.8170461354166605;77;0.75;violin
157.09104;0.27159113541665647;57;0.3828125;violin
157.09104;0.27159113541665647;65;0.3828125;violin
157.3637675;0.27159113541665647;58;0.3828125;violin
157.3637675;0.27159113541665647;67;0.3828125;violin
157.63649499999997;0.2715911354166849;60;0.3828125;violin
157.63649499999997;0.2715911354166849;69;0.3828125;violin
157.90922249999997;0.2715911354166849;58;0.3828125;violin
157.90922249999997;0.2715911354166849;67;0.3828125;violin
158.18194999999997;0.2715911354166849;57;0.3828125;violin
158.18194999999997;0.2715911354166849;65;0.3828125;violin
158.45467749999997;0.2715911354166849;55;0.3828125;violin
158.45467749999997;0.2715911354166849;64;0.3828125;violin
158.72740499999998;0.8170461354166605;57;0.3828125;violin
158.72740499999998;0.8170461354166605;65;0.3828125;violin
