start;duration;pitch;velocity;instrument
0.0;0.5975;70;0.625;violin
0.0;0.5975;82;0.625;violin
0.6;1.1975000000000002;75;0.625;violin
0.6;1.1975000000000002;87;0.625;violin
1.8;0.2975000000000001;58;0.625;violin
2.1;0.14749999999999996;60;0.625;violin
2.25;0.14749999999999996;62;0.625;violin
2.4;1.1975000000000002;63;0.625;violin
3.6;0.5974999999999997;70;0.625;violin
3.6;0.5974999999999997;82;0.625;violin
4.2;1.1974999999999998;75;0.625;violin
4.2;1.1974999999999998;87;0.625;violin
5.4;0.29749999999999943;58;0.625;violin
5.7;0.14749999999999996;60;0.625;violin
5.8500000000000005;0.14749999999999996;62;0.625;violin
6.0;1.1974999999999998;63;0.625;violin
7.2;0.5975000000000001;70;0.625;violin
7.2;0.5975000000000001;82;0.625;violin
7.8;1.1975000000000007;75;0.625;violin
7.8;1.1975000000000007;87;0.625;violin
9.0;0.5975000000000001;77;0.625;violin
9.0;0.5975000000000001;89;0.625;violin
9.6;0.2975000000000012;79;0.625;violin
9.6;0.2975000000000012;91;0.625;violin
9.9;0.14749999999999908;80;0.625;violin
9.9;0.14749999999999908;92;0.625;violin
10.05;0.14749999999999908;79;0.625;violin
10.05;0.14749999999999908;91;0.625;violin
10.200000000000001;0.5974999999999984;77;0.625;violin
10.200000000000001;0.5974999999999984;89;0.625;violin
10.8;0.5975000000000001;75;0.625;violin
10.8;0.5975000000000001;87;0.625;violin
11.4;0.0600000000000005;77;0.625;violin
11.4;0.0600000000000005;89;0.625;violin
11.4625;1.7974999999999994;70;0.625;violin
11.4625;1.7974999999999994;82;0.625;violin
14.4;0.5975000000000001;70;0.625;violin
14.4;0.5975000000000001;82;0.625;violin
15.0;1.1975000000000016;75;0.625;violin
15.0;1.1975000000000016;87;0.625;violin
16.2;0.29749999999999943;58;0.625;violin
16.5;0.14750000000000085;60;0.625;violin
16.65;0.14750000000000085;62;0.625;violin
16.8;1.197499999999998;63;0.625;violin
18.0;0.5975000000000001;70;0.625;violin
18.0;0.5975000000000001;82;0.625;violin
18.6;1.197499999999998;75;0.625;violin
18.6;1.197499999999998;87;0.625;violin
19.8;0.29749999999999943;58;0.625;violin
20.1;0.1474999999999973;60;0.625;violin
20.25;0.14750000000000085;62;0.625;violin
20.400000000000002;1.197499999999998;63;0.625;violin
21.6;0.5975000000000001;70;0.625;violin
21.6;0.5975000000000001;82;0.625;violin
22.2;1.1975000000000016;75;0.625;violin
22.2;1.1975000000000016;87;0.625;violin
23.400000000000002;0.5975000000000001;77;0.625;violin
23.400000000000002;0.5975000000000001;89;0.625;violin
24.0;0.29749999999999943;79;0.625;violin
24.0;0.29749999999999943;91;0.625;violin
24.3;0.14750000000000085;80;0.625;violin
24.3;0.14750000000000085;92;0.625;violin
24.45;0.14750000000000085;79;0.625;violin
24.45;0.14750000000000085;91;0.625;violin
24.6;0.5975000000000001;77;0.625;violin
24.6;0.5975000000000001;89;0.625;violin
25.2;0.5975000000000001;75;0.625;violin
25.2;0.5975000000000001;87;0.625;violin
25.8;0.05999999999999872;77;0.625;violin
25.8;0.05999999999999872;89;0.625;violin
25.8625;1.7974999999999994;70;0.625;violin
25.8625;1.7974999999999994;82;0.625;violin
28.8;0.29749999999999943;70;0.625;violin
28.8;0.29749999999999943;82;0.625;violin
29.1;0.29749999999999943;82;0.625;violin
29.1;0.29749999999999943;94;0.625;violin
29.400000000000002;0.5975000000000001;82;0.625;violin
29.400000000000002;0.5975000000000001;94;0.625;violin
30.0;0.11749999999999972;82;0.625;violin
30.0;0.11749999999999972;94;0.625;violin
30.12;0.11749999999999972;81;0.625;violin
30.12;0.11749999999999972;93;0.625;violin
30.240000000000002;0.11749999999999972;80;0.625;violin
30.240000000000002;0.11749999999999972;92;0.625;violin
30.36;0.11749999999999972;79;0.625;violin
30.36;0.11749999999999972;91;0.625;violin
30.48;0.11749999999999972;78;0.625;violin
30.48;0.11749999999999972;90;0.625;violin
30.6;0.11749999999999972;77;0.625;violin
30.6;0.11749999999999972;89;0.625;violin
30.72;0.11750000000000327;76;0.625;violin
30.72;0.11750000000000327;88;0.625;violin
30.84;0.11749999999999972;75;0.625;violin
30.84;0.11749999999999972;87;0.625;violin
30.96;0.11749999999999972;74;0.625;violin
30.96;0.11749999999999972;86;0.625;violin
31.080000000000002;0.11749999999999972;73;0.625;violin
31.080000000000002;0.11749999999999972;85;0.625;violin
31.2;0.297500000000003;72;0.625;violin
31.2;0.297500000000003;84;0.625;violin
31.8;0.297500000000003;60;0.625;violin
31.8;0.297500000000003;72;0.625;violin
32.4;0.29749999999999943;58;0.625;violin
32.4;0.29749999999999943;70;0.625;violin
33.0;0.29749999999999943;56;0.625;violin
33.0;0.29749999999999943;68;0.625;violin
33.6;0.29749999999999943;80;0.625;violin
33.6;0.29749999999999943;92;0.625;violin
33.9;0.29749999999999943;79;0.625;violin
33.9;0.29749999999999943;91;0.625;violin
34.2;0.197499999999998;79;0.625;violin
34.2;0.197499999999998;91;0.625;violin
34.4;0.19750000000000512;77;0.625;violin
34.4;0.19750000000000512;89;0.625;violin
34.6;0.197499999999998;76;0.625;violin
34.6;0.197499999999998;88;0.625;violin
34.800000000000004;0.5974999999999966;77;0.625;violin
34.800000000000004;0.5974999999999966;89;0.625;violin
35.4;0.5975000000000037;65;0.625;violin
35.4;0.5975000000000037;77;0.625;violin
36.0;0.29749999999999943;77;0.625;violin
36.0;0.29749999999999943;89;0.625;violin
36.300000000000004;0.29749999999999943;80;0.625;violin
36.300000000000004;0.29749999999999943;92;0.625;violin
36.6;0.5974999999999966;80;0.625;violin
36.6;0.5974999999999966;92;0.625;violin
37.2;0.11749999999999972;80;0.625;violin
37.2;0.11749999999999972;92;0.625;violin
37.32;0.11749999999999972;79;0.625;violin
37.32;0.11749999999999972;91;0.625;violin
37.44;0.11749999999999972;78;0.625;violin
37.44;0.11749999999999972;90;0.625;violin
37.56;0.11749999999999972;77;0.625;violin
37.56;0.11749999999999972;89;0.625;violin
37.68;0.11749999999999972;76;0.625;violin
37.68;0.11749999999999972;88;0.625;violin
37.800000000000004;0.11749999999999972;75;0.625;violin
37.800000000000004;0.11749999999999972;87;0.625;violin
37.92;0.11749999999999972;74;0.625;violin
37.92;0.11749999999999972;86;0.625;violin
38.04;0.11749999999999972;73;0.625;violin
38.04;0.11749999999999972;85;0.625;violin
38.160000000000004;0.11749999999999972;72;0.625;violin
38.160000000000004;0.11749999999999972;84;0.625;violin
38.28;0.11749999999999972;71;0.625;violin
38.28;0.11749999999999972;83;0.625;violin
38.4;0.29749999999999943;70;0.625;violin
38.4;0.29749999999999943;82;0.625;violin
39.0;0.29749999999999943;58;0.625;violin
39.0;0.29749999999999943;70;0.625;violin
39.6;0.29749999999999943;56;0.625;violin
39.6;0.29749999999999943;68;0.625;violin
40.2;0.5974999999999966;55;0.625;violin
40.2;0.5974999999999966;67;0.625;violin
40.800000000000004;0.29749999999999943;79;0.625;violin
40.800000000000004;0.29749999999999943;91;0.625;violin
41.1;0.29749999999999943;77;0.625;violin
41.1;0.29749999999999943;89;0.625;violin
41.4;0.19750000000000512;77;0.625;violin
41.4;0.19750000000000512;89;0.625;violin
41.6;0.197499999999998;75;0.625;violin
41.6;0.197499999999998;87;0.625;violin
41.800000000000004;0.197499999999998;74;0.625;violin
41.800000000000004;0.197499999999998;86;0.625;violin
42.0;0.29749999999999943;75;0.625;violin
42.0;0.29749999999999943;87;0.625;violin
42.6;0.29749999999999943;63;0.625;violin
42.6;0.29749999999999943;75;0.625;violin
43.2;0.29749999999999943;75;0.625;violin
43.2;0.29749999999999943;87;0.625;violin
43.5;0.29749999999999943;78;0.625;violin
43.5;0.29749999999999943;90;0.625;violin
43.800000000000004;0.8974999999999937;78;0.9375;violin
43.800000000000004;0.8974999999999937;90;0.9375;violin
44.7;0.14750000000000085;77;0.625;violin
44.7;0.14750000000000085;89;0.625;violin
44.85;0.14750000000000085;76;0.625;violin
44.85;0.14750000000000085;88;0.625;violin
45.0;0.14750000000000085;75;0.625;violin
45.0;0.14750000000000085;87;0.625;violin
45.15;0.14750000000000085;74;0.625;violin
45.15;0.14750000000000085;86;0.625;violin
45.300000000000004;0.14749999999999375;73;0.625;violin
45.300000000000004;0.14749999999999375;85;0.625;violin
45.45;0.14750000000000085;72;0.625;violin
45.45;0.14750000000000085;84;0.625;violin
45.6;0.29749999999999943;71;0.625;violin
45.6;0.29749999999999943;83;0.625;violin
46.2;0.29749999999999943;59;0.625;violin
46.2;0.29749999999999943;71;0.625;violin
46.800000000000004;0.29749999999999943;75;0.625;violin
46.800000000000004;0.29749999999999943;87;0.625;violin
47.1;0.29749999999999943;78;0.625;violin
47.1;0.29749999999999943;90;0.625;violin
47.4;0.8975000000000009;78;0.9375;violin
47.4;0.8975000000000009;90;0.9375;violin
48.300000000000004;0.14749999999999375;77;0.625;violin
48.300000000000004;0.14749999999999375;89;0.625;violin
48.45;0.14750000000000085;76;0.625;violin
48.45;0.14750000000000085;88;0.625;violin
48.6;0.11749999999999972;75;0.625;violin
48.6;0.11749999999999972;87;0.625;violin
48.72;0.11749999999999972;74;0.625;violin
48.72;0.11749999999999972;86;0.625;violin
48.84;0.11749999999999972;73;0.625;violin
48.84;0.11749999999999972;85;0.625;violin
48.96;0.11749999999999972;72;0.625;violin
48.96;0.11749999999999972;84;0.625;violin
49.08;0.11749999999999972;71;0.625;violin
49.08;0.11749999999999972;83;0.625;violin
49.2;0.29749999999999943;70;0.625;violin
49.2;0.29749999999999943;82;0.625;violin
49.800000000000004;0.29749999999999943;58;0.625;violin
49.800000000000004;0.29749999999999943;70;0.625;violin
50.4;0.29749999999999943;75;0.625;violin
50.4;0.29749999999999943;87;0.625;violin
50.7;0.29749999999999943;78;0.625;violin
50.7;0.29749999999999943;90;0.625;violin
51.0;0.8975000000000009;78;0.9375;violin
51.0;0.8975000000000009;90;0.9375;violin
51.9;0.14750000000000085;77;0.625;violin
51.9;0.14750000000000085;89;0.625;violin
52.050000000000004;0.14749999999999375;76;0.625;violin
52.050000000000004;0.14749999999999375;88;0.625;violin
52.2;0.09749999999999659;75;0.625;violin
52.2;0.09749999999999659;87;0.625;violin
52.300000000000004;0.09749999999999659;74;0.625;violin
52.300000000000004;0.09749999999999659;86;0.625;violin
52.4;0.0975000000000037;73;0.625;violin
52.4;0.0975000000000037;85;0.625;violin
52.5;0.0975000000000037;72;0.625;violin
52.5;0.0975000000000037;84;0.625;violin
52.6;0.09749999999999659;71;0.625;violin
52.6;0.09749999999999659;83;0.625;violin
52.7;0.09749999999999659;70;0.625;violin
52.7;0.09749999999999659;82;0.625;violin
52.800000000000004;0.29749999999999943;69;0.625;violin
52.800000000000004;0.29749999999999943;81;0.625;violin
53.4;0.29749999999999943;57;0.625;violin
53.4;0.29749999999999943;69;0.625;violin
54.0;0.29749999999999943;78;0.625;violin
54.0;0.29749999999999943;90;0.625;violin
54.300000000000004;0.29749999999999943;75;0.625;violin
54.300000000000004;0.29749999999999943;87;0.625;violin
54.6;0.29749999999999943;74;0.625;violin
54.6;0.29749999999999943;86;0.625;violin
54.9;0.14750000000000085;58;0.625;violin
54.9;0.14750000000000085;70;0.625;violin
55.2;0.14750000000000085;62;0.625;violin
55.2;0.14750000000000085;74;0.625;violin
55.5;0.14750000000000085;65;0.625;violin
55.5;0.14750000000000085;77;0.625;violin
55.800000000000004;0.14749999999999375;70;0.625;violin
55.800000000000004;0.14749999999999375;82;0.625;violin
56.1;0.14750000000000085;74;0.625;violin
56.1;0.14750000000000085;86;0.625;violin
56.4;0.14750000000000085;77;0.625;violin
56.4;0.14750000000000085;89;0.625;violin
56.7;0.14750000000000085;82;0.625;violin
56.7;0.14750000000000085;94;0.625;violin
57.0;0.29749999999999943;58;0.625;violin
57.0;0.29749999999999943;70;0.625;violin
57.6;0.5974999999999966;70;0.625;violin
57.6;0.5974999999999966;82;0.625;violin
58.2;1.197499999999998;75;0.625;violin
58.2;1.197499999999998;87;0.625;violin
59.4;0.29749999999999943;58;0.625;violin
59.7;0.14750000000000085;60;0.625;violin
59.85;0.14750000000000085;62;0.625;violin
60.0;1.197499999999998;63;0.625;violin
61.2;0.5974999999999966;70;0.625;violin
61.2;0.5974999999999966;82;0.625;violin
61.800000000000004;1.197499999999998;79;0.625;violin
61.800000000000004;1.197499999999998;91;0.625;violin
63.0;0.11749999999999972;58;0.625;violin
63.120000000000005;0.11749999999999972;60;0.625;violin
63.24;0.11749999999999972;62;0.625;violin
63.36;0.11749999999999972;63;0.625;violin
63.480000000000004;0.11749999999999972;65;0.625;violin
63.6;1.197499999999998;67;0.625;violin
64.8;0.29749999999999943;82;0.625;violin
64.8;0.29749999999999943;94;0.625;violin
65.4;1.197499999999991;55;0.625;violin
65.4;1.197499999999991;70;0.625;violin
66.6;0.5975000000000108;56;0.625;violin
66.6;0.5975000000000108;68;0.625;violin
67.2;1.7974999999999994;58;0.625;violin
67.2;1.1975000000000051;67;0.625;violin
68.4;0.0724999999999909;65;0.625;violin
68.47500000000001;0.0724999999999909;67;0.625;violin
68.55;0.07250000000000512;65;0.625;violin
68.625;0.07250000000000512;67;0.625;violin
68.7;0.07250000000000512;65;0.625;violin
68.775;0.0724999999999909;67;0.625;violin
68.85000000000001;0.0724999999999909;65;0.625;violin
68.925;0.07250000000000512;67;0.625;violin
69.0;1.7974999999999994;55;0.625;violin
69.0;1.7974999999999994;63;0.625;violin
69.0;1.7974999999999994;75;0.625;violin
72.0;0.29749999999999943;70;0.625;violin
72.0;0.29749999999999943;82;0.625;violin
72.3;0.29749999999999943;82;0.625;violin
72.3;0.29749999999999943;94;0.625;violin
72.60000000000001;0.5974999999999966;82;0.625;violin
72.60000000000001;0.5974999999999966;94;0.625;violin
73.2;0.11749999999999261;82;0.625;violin
73.2;0.11749999999999261;94;0.625;violin
73.32000000000001;0.11749999999999261;81;0.625;violin
73.32000000000001;0.11749999999999261;93;0.625;violin
73.44;0.11750000000000682;80;0.625;violin
73.44;0.11750000000000682;92;0.625;violin
73.56;0.11749999999999261;79;0.625;violin
73.56;0.11749999999999261;91;0.625;violin
73.68;0.11749999999999261;78;0.625;violin
73.68;0.11749999999999261;90;0.625;violin
73.8;0.11750000000000682;77;0.625;violin
73.8;0.11750000000000682;89;0.625;violin
73.92;0.11750000000000682;76;0.625;violin
73.92;0.11750000000000682;88;0.625;violin
74.04;0.11749999999999261;75;0.625;violin
74.04;0.11749999999999261;87;0.625;violin
74.16;0.11750000000000682;74;0.625;violin
74.16;0.11750000000000682;86;0.625;violin
74.28;0.11750000000000682;73;0.625;violin
74.28;0.11750000000000682;85;0.625;violin
74.4;0.29749999999999943;72;0.625;violin
74.4;0.29749999999999943;84;0.625;violin
75.0;0.29749999999999943;60;0.625;violin
75.0;0.29749999999999943;72;0.625;violin
75.60000000000001;0.29749999999999943;58;0.625;violin
75.60000000000001;0.29749999999999943;70;0.625;violin
76.2;0.29749999999999943;56;0.625;violin
76.2;0.29749999999999943;68;0.625;violin
76.8;0.29749999999999943;80;0.625;violin
76.8;0.29749999999999943;92;0.625;violin
77.10000000000001;0.29749999999999943;79;0.625;violin
77.10000000000001;0.29749999999999943;91;0.625;violin
77.4;0.1974999999999909;79;0.625;violin
77.4;0.1974999999999909;91;0.625;violin
77.60000000000001;0.1974999999999909;77;0.625;violin
77.60000000000001;0.1974999999999909;89;0.625;violin
77.8;0.19750000000000512;76;0.625;violin
77.8;0.19750000000000512;88;0.625;violin
78.0;0.5974999999999966;77;0.625;violin
78.0;0.5974999999999966;89;0.625;violin
78.60000000000001;0.5974999999999966;65;0.625;violin
78.60000000000001;0.5974999999999966;77;0.625;violin
79.2;0.29749999999999943;77;0.625;violin
79.2;0.29749999999999943;89;0.625;violin
79.5;0.29749999999999943;80;0.625;violin
79.5;0.29749999999999943;92;0.625;violin
79.8;0.5975000000000108;80;0.625;violin
79.8;0.5975000000000108;92;0.625;violin
80.4;0.11749999999999261;80;0.625;violin
80.4;0.11749999999999261;92;0.625;violin
80.52;0.11750000000000682;79;0.625;violin
80.52;0.11750000000000682;91;0.625;violin
80.64;0.11750000000000682;78;0.625;violin
80.64;0.11750000000000682;90;0.625;violin
80.76;0.11749999999999261;77;0.625;violin
80.76;0.11749999999999261;89;0.625;violin
80.88;0.11750000000000682;76;0.625;violin
80.88;0.11750000000000682;88;0.625;violin
81.0;0.11750000000000682;75;0.625;violin
81.0;0.11750000000000682;87;0.625;violin
81.12;0.11749999999999261;74;0.625;violin
81.12;0.11749999999999261;86;0.625;violin
81.24;0.11750000000000682;73;0.625;violin
81.24;0.11750000000000682;85;0.625;violin
81.36;0.11750000000000682;72;0.625;violin
81.36;0.11750000000000682;84;0.625;violin
81.48;0.11749999999999261;71;0.625;violin
81.48;0.11749999999999261;83;0.625;violin
81.60000000000001;0.29749999999999943;70;0.625;violin
81.60000000000001;0.29749999999999943;82;0.625;violin
82.2;0.29749999999999943;58;0.625;violin
82.2;0.29749999999999943;70;0.625;violin
82.8;0.29749999999999943;56;0.625;violin
82.8;0.29749999999999943;68;0.625;violin
83.4;0.5974999999999966;55;0.625;violin
83.4;0.5974999999999966;67;0.625;violin
84.0;0.29749999999999943;79;0.625;violin
84.0;0.29749999999999943;91;0.625;violin
84.3;0.29749999999999943;77;0.625;violin
84.3;0.29749999999999943;89;0.625;violin
84.60000000000001;0.1974999999999909;77;0.625;violin
84.60000000000001;0.1974999999999909;89;0.625;violin
84.8;0.19750000000000512;75;0.625;violin
84.8;0.19750000000000512;87;0.625;violin
85.0;0.19750000000000512;74;0.625;violin
85.0;0.19750000000000512;86;0.625;violin
85.2;0.29749999999999943;75;0.625;violin
85.2;0.29749999999999943;87;0.625;violin
85.8;0.29749999999999943;63;0.625;violin
85.8;0.29749999999999943;75;0.625;violin
86.4;0.29749999999999943;75;0.625;violin
86.4;0.29749999999999943;87;0.625;violin
86.7;0.29749999999999943;78;0.625;violin
86.7;0.29749999999999943;90;0.625;violin
87.0;0.897500000000008;78;0.9375;violin
87.0;0.897500000000008;90;0.9375;violin
87.9;0.14749999999999375;77;0.625;violin
87.9;0.14749999999999375;89;0.625;violin
88.05;0.14750000000000796;76;0.625;violin
88.05;0.14750000000000796;88;0.625;violin
88.2;0.14749999999999375;75;0.625;violin
88.2;0.14749999999999375;87;0.625;violin
88.35000000000001;0.14749999999999375;74;0.625;violin
88.35000000000001;0.14749999999999375;86;0.625;violin
88.5;0.14750000000000796;73;0.625;violin
88.5;0.14750000000000796;85;0.625;violin
88.65;0.14749999999999375;72;0.625;violin
88.65;0.14749999999999375;84;0.625;violin
88.8;0.29749999999999943;71;0.625;violin
88.8;0.29749999999999943;83;0.625;violin
89.4;0.29749999999999943;59;0.625;violin
89.4;0.29749999999999943;71;0.625;violin
90.0;0.29749999999999943;75;0.625;violin
90.0;0.29749999999999943;87;0.625;violin
90.3;0.29749999999999943;78;0.625;violin
90.3;0.29749999999999943;90;0.625;violin
90.60000000000001;0.8974999999999937;78;0.9375;violin
90.60000000000001;0.8974999999999937;90;0.9375;violin
91.5;0.14750000000000796;77;0.625;violin
91.5;0.14750000000000796;89;0.625;violin
91.65;0.14749999999999375;76;0.625;violin
91.65;0.14749999999999375;88;0.625;violin
91.8;0.11750000000000682;75;0.625;violin
91.8;0.11750000000000682;87;0.625;violin
91.92;0.11750000000000682;74;0.625;violin
91.92;0.11750000000000682;86;0.625;violin
92.04;0.11749999999999261;73;0.625;violin
92.04;0.11749999999999261;85;0.625;violin
92.16;0.11750000000000682;72;0.625;violin
92.16;0.11750000000000682;84;0.625;violin
92.28;0.11750000000000682;71;0.625;violin
92.28;0.11750000000000682;83;0.625;violin
92.4;0.29749999999999943;70;0.625;violin
92.4;0.29749999999999943;82;0.625;violin
93.0;0.29749999999999943;58;0.625;violin
93.0;0.29749999999999943;70;0.625;violin
93.60000000000001;0.29749999999999943;75;0.625;violin
93.60000000000001;0.29749999999999943;87;0.625;violin
93.9;0.29749999999999943;78;0.625;violin
93.9;0.29749999999999943;90;0.625;violin
94.2;0.8974999999999937;78;0.9375;violin
94.2;0.8974999999999937;90;0.9375;violin
95.10000000000001;0.14749999999999375;77;0.625;violin
95.10000000000001;0.14749999999999375;89;0.625;violin
95.25;0.14750000000000796;76;0.625;violin
95.25;0.14750000000000796;88;0.625;violin
95.4;0.09749999999999659;75;0.625;violin
95.4;0.09749999999999659;87;0.625;violin
95.5;0.09749999999999659;74;0.625;violin
95.5;0.09749999999999659;86;0.625;violin
95.60000000000001;0.09749999999999659;73;0.625;violin
95.60000000000001;0.09749999999999659;85;0.625;violin
95.7;0.09749999999999659;72;0.625;violin
95.7;0.09749999999999659;84;0.625;violin
95.8;0.0975000000000108;71;0.625;violin
95.8;0.0975000000000108;83;0.625;violin
95.9;0.09749999999999659;70;0.625;violin
95.9;0.09749999999999659;82;0.625;violin
96.0;0.29749999999999943;69;0.625;violin
96.0;0.29749999999999943;81;0.625;violin
96.60000000000001;0.29749999999999943;57;0.625;violin
96.60000000000001;0.29749999999999943;69;0.625;violin
97.2;0.29749999999999943;78;0.625;violin
97.2;0.29749999999999943;90;0.625;violin
97.5;0.29749999999999943;75;0.625;violin
97.5;0.29749999999999943;87;0.625;violin
97.8;0.29749999999999943;74;0.625;violin
97.8;0.29749999999999943;86;0.625;violin
98.10000000000001;0.14749999999999375;58;0.625;violin
98.10000000000001;0.14749999999999375;70;0.625;violin
98.4;0.14749999999999375;62;0.625;violin
98.4;0.14749999999999375;74;0.625;violin
98.7;0.14749999999999375;65;0.625;violin
98.7;0.14749999999999375;77;0.625;violin
99.0;0.14750000000000796;70;0.625;violin
99.0;0.14750000000000796;82;0.625;violin
99.3;0.14750000000000796;74;0.625;violin
99.3;0.14750000000000796;86;0.625;violin
99.60000000000001;0.14749999999999375;77;0.625;violin
99.60000000000001;0.14749999999999375;89;0.625;violin
99.9;0.14749999999999375;82;0.625;violin
99.9;0.14749999999999375;94;0.625;violin
100.2;0.29749999999999943;58;0.625;violin
100.2;0.29749999999999943;70;0.625;violin
100.8;0.5975000000000108;70;0.625;violin
100.8;0.5975000000000108;82;0.625;violin
101.4;1.197499999999991;75;0.625;violin
101.4;1.197499999999991;87;0.625;violin
102.60000000000001;0.29749999999999943;58;0.625;violin
102.9;0.14749999999999375;60;0.625;violin
103.05;0.14750000000000796;62;0.625;violin
103.2;1.1975000000000051;63;0.625;violin
104.4;0.5974999999999966;70;0.625;violin
104.4;0.5974999999999966;82;0.625;violin
105.0;1.1975000000000051;79;0.625;violin
105.0;1.1975000000000051;91;0.625;violin
106.2;0.11749999999999261;58;0.625;violin
106.32000000000001;0.11749999999999261;60;0.625;violin
106.44;0.11750000000000682;62;0.625;violin
106.56;0.11750000000000682;63;0.625;violin
106.68;0.11749999999999261;65;0.625;violin
106.8;1.1975000000000051;67;0.625;violin
108.0;0.29749999999999943;82;0.625;violin
108.0;0.29749999999999943;94;0.625;violin
108.60000000000001;1.197499999999991;55;0.625;violin
108.60000000000001;1.197499999999991;70;0.625;violin
109.8;0.5975000000000108;56;0.625;violin
109.8;0.5975000000000108;68;0.625;violin
110.4;1.7974999999999994;58;0.625;violin
110.4;1.197499999999991;67;0.625;violin
111.60000000000001;0.0724999999999909;65;0.625;violin
111.675;0.07250000000000512;67;0.625;violin
111.75;0.07250000000000512;65;0.625;violin
111.825;0.07250000000000512;67;0.625;violin
111.9;0.0724999999999909;65;0.625;violin
111.97500000000001;0.0724999999999909;67;0.625;violin
112.05;0.07250000000000512;65;0.625;violin
112.125;0.07250000000000512;67;0.625;violin
112.2;1.7974999999999994;55;0.625;violin
112.2;1.7974999999999994;63;0.625;violin
112.2;1.7974999999999994;75;0.625;violin
115.2;0.5974999999999966;67;0.625;violin
115.8;0.29749999999999943;55;0.625;violin
115.8;0.29749999999999943;63;0.625;violin
115.8;0.29749999999999943;72;0.625;violin
116.10000000000001;0.0724999999999909;67;0.625;violin
116.175;0.07250000000000512;65;0.625;violin
116.25;0.07250000000000512;63;0.625;violin
116.325;0.07250000000000512;62;0.625;violin
116.4;0.29749999999999943;60;0.625;violin
116.7;0.29749999999999943;55;0.625;violin
116.7;0.29749999999999943;63;0.625;violin
116.7;0.29749999999999943;75;0.625;violin
117.0;0.14750000000000796;67;0.625;violin
117.3;0.07250000000000512;67;0.625;violin
117.375;0.07250000000000512;65;0.625;violin
117.45;0.07250000000000512;63;0.625;violin
117.525;0.0724999999999909;62;0.625;violin
117.60000000000001;0.29749999999999943;60;0.625;violin
117.9;0.29749999999999943;55;0.625;violin
117.9;0.29749999999999943;63;0.625;violin
117.9;0.29749999999999943;72;0.625;violin
117.9;0.29749999999999943;79;0.625;violin
118.2;0.14749999999999375;67;0.625;violin
118.35000000000001;0.14749999999999375;66;0.625;violin
118.5;0.14750000000000796;68;0.625;violin
118.65;0.14749999999999375;67;0.625;violin
118.8;0.14750000000000796;65;0.625;violin
118.95;0.14749999999999375;63;0.625;violin
119.10000000000001;0.14749999999999375;62;0.625;violin
119.25;0.14750000000000796;60;0.625;violin
119.4;0.29749999999999943;55;0.625;violin
119.4;0.29749999999999943;62;0.625;violin
119.4;0.29749999999999943;71;0.625;violin
119.7;0.07250000000000512;62;0.625;violin
119.775;0.0724999999999909;60;0.625;violin
119.85000000000001;0.0724999999999909;59;0.625;violin
119.925;0.07250000000000512;57;0.625;violin
120.0;0.29749999999999943;55;0.625;violin
120.3;0.29749999999999943;55;0.625;violin
120.3;0.29749999999999943;62;0.625;violin
120.3;0.29749999999999943;71;0.625;violin
120.3;0.29749999999999943;79;0.625;violin
120.60000000000001;0.14749999999999375;62;0.625;violin
120.9;0.0724999999999909;62;0.625;violin
120.97500000000001;0.0724999999999909;60;0.625;violin
121.05;0.07250000000000512;59;0.625;violin
121.125;0.07250000000000512;57;0.625;violin
121.2;0.29749999999999943;55;0.625;violin
121.5;0.29749999999999943;55;0.625;violin
121.5;0.29749999999999943;62;0.625;violin
121.5;0.29749999999999943;71;0.625;violin
121.5;0.29749999999999943;86;0.625;violin
121.8;0.14750000000000796;59;0.625;violin
121.95;0.14749999999999375;60;0.625;violin
122.10000000000001;0.14749999999999375;62;0.625;violin
122.25;0.14750000000000796;63;0.625;violin
122.4;0.14749999999999375;65;0.625;violin
122.55;0.07250000000000512;68;0.625;violin
122.7;0.07250000000000512;67;0.625;violin
122.85000000000001;0.0724999999999909;65;0.625;violin
123.0;0.14750000000000796;63;0.625;violin
123.15;0.14749999999999375;62;0.625;violin
123.3;0.14750000000000796;60;0.625;violin
123.45;0.07250000000000512;87;0.625;violin
123.60000000000001;0.14749999999999375;63;0.625;violin
123.75;0.14750000000000796;62;0.625;violin
123.9;0.14749999999999375;60;0.625;violin
124.05;0.07250000000000512;87;0.625;violin
124.2;0.14749999999999375;62;0.625;violin
124.35000000000001;0.14749999999999375;59;0.625;violin
124.5;0.14750000000000796;55;0.625;violin
124.65;0.0724999999999909;86;0.625;violin
124.8;0.14750000000000796;63;0.625;violin
124.95;0.14749999999999375;62;0.625;violin
125.10000000000001;0.14749999999999375;60;0.625;violin
125.25;0.07250000000000512;87;0.625;violin
125.4;0.14749999999999375;63;0.625;violin
125.55;0.14750000000000796;62;0.625;violin
125.7;0.14749999999999375;60;0.625;violin
125.85000000000001;0.0724999999999909;87;0.625;violin
126.0;0.14750000000000796;62;0.625;violin
126.15;0.14749999999999375;59;0.625;violin
126.3;0.14750000000000796;55;0.625;violin
126.45;0.07250000000000512;86;0.625;violin
126.60000000000001;0.14749999999999375;63;0.625;violin
126.75;0.14750000000000796;62;0.625;violin
126.9;0.14749999999999375;60;0.625;violin
127.05;0.07250000000000512;87;0.625;violin
127.2;0.14749999999999375;60;0.625;violin
127.35000000000001;0.14749999999999375;58;0.625;violin
127.5;0.14750000000000796;56;0.625;violin
127.65;0.0724999999999909;84;0.625;violin
127.8;0.14750000000000796;60;0.625;violin
127.95;0.14749999999999375;58;0.625;violin
128.1;0.14750000000000796;56;0.625;violin
128.25;0.0724999999999909;78;0.625;violin
128.4;0.5974999999999966;55;0.625;violin
128.4;0.5974999999999966;62;0.625;violin
128.4;0.5974999999999966;71;0.625;violin
128.4;0.5974999999999966;79;0.625;violin
129.6;0.5974999999999966;67;0.625;violin
130.2;0.29750000000001364;55;0.625;violin
130.2;0.29750000000001364;63;0.625;violin
130.2;0.29750000000001364;72;0.625;violin
130.5;0.0724999999999909;67;0.625;violin
130.575;0.07250000000001933;65;0.625;violin
130.65;0.0724999999999909;63;0.625;violin
130.725;0.07250000000001933;62;0.625;violin
130.8;0.2974999999999852;60;0.625;violin
131.1;0.29750000000001364;55;0.625;violin
131.1;0.29750000000001364;63;0.625;violin
131.1;0.29750000000001364;75;0.625;violin
131.4;0.14750000000000796;67;0.625;violin
131.7;0.07250000000001933;67;0.625;violin
131.775;0.0724999999999909;65;0.625;violin
131.85;0.07250000000001933;63;0.625;violin
131.925;0.0724999999999909;62;0.625;violin
132.0;0.29750000000001364;60;0.625;violin
132.3;0.2974999999999852;55;0.625;violin
132.3;0.2974999999999852;63;0.625;violin
132.3;0.2974999999999852;72;0.625;violin
132.3;0.2974999999999852;79;0.625;violin
132.6;0.14750000000000796;67;0.625;violin
132.75;0.14750000000000796;66;0.625;violin
132.9;0.14750000000000796;68;0.625;violin
133.05;0.14749999999997954;67;0.625;violin
133.2;0.14750000000000796;65;0.625;violin
133.35;0.14750000000000796;63;0.625;violin
133.5;0.14750000000000796;62;0.625;violin
133.65;0.14750000000000796;60;0.625;violin
133.8;0.2974999999999852;55;0.625;violin
133.8;0.2974999999999852;62;0.625;violin
133.8;0.2974999999999852;71;0.625;violin
134.1;0.07250000000001933;62;0.625;violin
134.175;0.0724999999999909;60;0.625;violin
134.25;0.0724999999999909;59;0.625;violin
134.325;0.07250000000001933;57;0.625;violin
134.4;0.2974999999999852;55;0.625;violin
134.7;0.29750000000001364;55;0.625;violin
134.7;0.29750000000001364;62;0.625;violin
134.7;0.29750000000001364;71;0.625;violin
134.7;0.29750000000001364;79;0.625;violin
135.0;0.14750000000000796;62;0.625;violin
135.3;0.0724999999999909;62;0.625;violin
135.375;0.0724999999999909;60;0.625;violin
135.45;0.07250000000001933;59;0.625;violin
135.525;0.0724999999999909;57;0.625;violin
135.6;0.29750000000001364;55;0.625;violin
135.9;0.2974999999999852;55;0.625;violin
135.9;0.2974999999999852;62;0.625;violin
135.9;0.2974999999999852;71;0.625;violin
135.9;0.2974999999999852;86;0.625;violin
136.2;0.14750000000000796;59;0.625;violin
136.35;0.14750000000000796;60;0.625;violin
136.5;0.14750000000000796;62;0.625;violin
136.65;0.14750000000000796;63;0.625;violin
136.8;0.14749999999997954;65;0.625;violin
136.95000000000002;0.0724999999999909;68;0.625;violin
137.1;0.07250000000001933;67;0.625;violin
137.25;0.0724999999999909;65;0.625;violin
137.4;0.14750000000000796;63;0.625;violin
137.55;0.14749999999997954;62;0.625;violin
137.70000000000002;0.14749999999997954;60;0.625;violin
137.85;0.07250000000001933;87;0.625;violin
138.0;0.14750000000000796;63;0.625;violin
138.15;0.14750000000000796;62;0.625;violin
138.3;0.14749999999997954;60;0.625;violin
138.45000000000002;0.0724999999999909;87;0.625;violin
138.6;0.14750000000000796;62;0.625;violin
138.75;0.14750000000000796;59;0.625;violin
138.9;0.14750000000000796;55;0.625;violin
139.05;0.0724999999999909;86;0.625;violin
139.20000000000002;0.14749999999997954;63;0.625;violin
139.35;0.14750000000000796;62;0.625;violin
139.5;0.14750000000000796;60;0.625;violin
139.65;0.0724999999999909;87;0.625;violin
139.8;0.14749999999997954;63;0.625;violin
139.95000000000002;0.14749999999997954;62;0.625;violin
140.1;0.14750000000000796;60;0.625;violin
140.25;0.0724999999999909;87;0.625;violin
140.4;0.14750000000000796;62;0.625;violin
140.55;0.14749999999997954;59;0.625;violin
140.70000000000002;0.14749999999997954;55;0.625;violin
140.85;0.07250000000001933;86;0.625;violin
141.0;0.14750000000000796;63;0.625;violin
141.15;0.14750000000000796;62;0.625;violin
141.3;0.14749999999997954;60;0.625;violin
141.45000000000002;0.0724999999999909;87;0.625;violin
141.6;0.14750000000000796;60;0.625;violin
141.75;0.14750000000000796;58;0.625;violin
141.9;0.14750000000000796;56;0.625;violin
142.05;0.0724999999999909;84;0.625;violin
142.20000000000002;0.14749999999997954;60;0.625;violin
142.35;0.14750000000000796;58;0.625;violin
142.5;0.14750000000000796;56;0.625;violin
142.65;0.0724999999999909;78;0.625;violin
142.8;0.5974999999999966;55;0.625;violin
142.8;0.5974999999999966;62;0.625;violin
142.8;0.5974999999999966;71;0.625;violin
142.8;0.5974999999999966;79;0.625;violin
144.0;0.5974999999999966;79;0.625;violin
144.6;0.29750000000001364;67;0.625;violin
144.6;0.29750000000001364;76;0.625;violin
144.6;0.29750000000001364;84;0.625;violin
144.9;0.0724999999999909;67;0.625;violin
144.975;0.07250000000001933;65;0.625;violin
145.05;0.0724999999999909;64;0.625;violin
145.125;0.0724999999999909;62;0.625;violin
145.20000000000002;0.2974999999999852;60;0.625;violin
145.5;0.29750000000001364;70;0.625;violin
145.5;0.29750000000001364;79;0.625;violin
145.5;0.29750000000001364;88;0.625;violin
145.8;0.0724999999999909;67;0.625;violin
145.875;0.0724999999999909;65;0.625;violin
145.95000000000002;0.0724999999999909;64;0.625;violin
146.025;0.0724999999999909;62;0.625;violin
146.1;0.29750000000001364;60;0.625;violin
146.4;0.2974999999999852;68;0.625;violin
146.4;0.2974999999999852;77;0.625;violin
146.4;0.2974999999999852;89;0.625;violin
146.70000000000002;0.0724999999999909;72;0.625;violin
146.775;0.0724999999999909;70;0.625;violin
146.85;0.07250000000001933;68;0.625;violin
146.925;0.0724999999999909;67;0.625;violin
147.0;0.29750000000001364;65;0.625;violin
147.3;0.14749999999997954;80;0.625;violin
147.45000000000002;0.14749999999997954;79;0.625;violin
147.6;0.14750000000000796;77;0.625;violin
147.75;0.14750000000000796;75;0.625;violin
147.9;0.14750000000000796;74;0.625;violin
148.05;0.14749999999997954;72;0.625;violin
148.20000000000002;0.2974999999999852;62;0.625;violin
148.20000000000002;0.2974999999999852;70;0.625;violin
148.20000000000002;0.2974999999999852;82;0.625;violin
148.5;0.0724999999999909;65;0.625;violin
148.57500000000002;0.0724999999999909;63;0.625;violin
148.65;0.0724999999999909;62;0.625;violin
148.725;0.07250000000001933;60;0.625;violin
148.8;0.2974999999999852;58;0.625;violin
149.1;0.29750000000001364;68;0.625;violin
149.1;0.29750000000001364;77;0.625;violin
149.1;0.29750000000001364;86;0.625;violin
149.4;0.0724999999999909;65;0.625;violin
149.475;0.07250000000001933;63;0.625;violin
149.55;0.0724999999999909;62;0.625;violin
149.625;0.0724999999999909;60;0.625;violin
149.70000000000002;0.2974999999999852;58;0.625;violin
150.0;0.29750000000001364;67;0.625;violin
150.0;0.29750000000001364;75;0.625;violin
150.0;0.29750000000001364;87;0.625;violin
150.3;0.0724999999999909;70;0.625;violin
150.375;0.0724999999999909;68;0.625;violin
150.45000000000002;0.0724999999999909;67;0.625;violin
150.525;0.0724999999999909;65;0.625;violin
150.6;0.29750000000001364;63;0.625;violin
150.9;0.14750000000000796;79;0.625;violin
151.05;0.14749999999997954;77;0.625;violin
151.20000000000002;0.14749999999997954;75;0.625;violin
151.35;0.14750000000000796;74;0.625;violin
151.5;0.14750000000000796;72;0.625;violin
151.65;0.14750000000000796;70;0.625;violin
151.8;0.5974999999999966;60;0.625;violin
151.8;0.14749999999997954;68;0.625;violin
151.95000000000002;0.14749999999997954;63;0.625;violin
152.1;0.14750000000000796;68;0.625;violin
152.25;0.14750000000000796;63;0.625;violin
152.4;0.2974999999999852;58;0.625;violin
152.4;0.2974999999999852;67;0.625;violin
152.70000000000002;0.14749999999997954;79;0.625;violin
152.85;0.14750000000000796;77;0.625;violin
153.0;0.14750000000000796;75;0.625;violin
153.15;0.14750000000000796;74;0.625;violin
153.3;0.14749999999997954;72;0.625;violin
153.45000000000002;0.14749999999997954;70;0.625;violin
153.6;0.5974999999999966;60;0.625;violin
153.6;0.14750000000000796;68;0.625;violin
153.75;0.14750000000000796;63;0.625;violin
153.9;0.14750000000000796;68;0.625;violin
154.05;0.14749999999997954;63;0.625;violin
154.20000000000002;0.2974999999999852;58;0.625;violin
154.20000000000002;0.2974999999999852;67;0.625;violin
154.5;0.14750000000000796;79;0.625;violin
154.65;0.14750000000000796;77;0.625;violin
154.8;0.14749999999997954;75;0.625;violin
154.95000000000002;0.14749999999997954;74;0.625;violin
155.1;0.14750000000000796;72;0.625;violin
155.25;0.14750000000000796;70;0.625;violin
155.4;0.5974999999999966;60;0.625;violin
155.4;0.14750000000000796;68;0.625;violin
155.55;0.14749999999997954;63;0.625;violin
155.70000000000002;0.14749999999997954;68;0.625;violin
155.85;0.14750000000000796;63;0.625;violin
156.0;0.5974999999999966;58;0.625;violin
156.0;0.14750000000000796;67;0.625;violin
156.15;0.14750000000000796;63;0.625;violin
156.3;0.14749999999997954;67;0.625;violin
156.45000000000002;0.14749999999997954;63;0.625;violin
156.6;0.5974999999999966;57;0.625;violin
156.6;0.14750000000000796;66;0.625;violin
156.75;0.14750000000000796;63;0.625;violin
156.9;0.14750000000000796;66;0.625;violin
157.05;0.14749999999997954;63;0.625;violin
157.20000000000002;0.14749999999997954;58;0.625;violin
157.20000000000002;0.14749999999997954;62;0.625;violin
157.5;0.0724999999999909;77;0.625;violin
157.57500000000002;0.0724999999999909;75;0.625;violin
157.65;0.0724999999999909;74;0.625;violin
157.725;0.07250000000001933;72;0.625;violin
157.8;0.2974999999999852;70;0.625;violin
158.1;0.07250000000001933;89;0.625;violin
158.175;0.0724999999999909;87;0.625;violin
158.25;0.0724999999999909;86;0.625;violin
158.32500000000002;0.0724999999999909;84;0.625;violin
158.4;0.2974999999999852;82;0.625;violin
158.70000000000002;0.14749999999997954;57;0.625;violin
158.70000000000002;0.14749999999997954;62;0.625;violin
159.0;0.14750000000000796;55;0.625;violin
159.0;0.14750000000000796;63;0.625;violin
159.3;0.0724999999999909;70;0.625;violin
159.375;0.0724999999999909;68;0.625;violin
159.45000000000002;0.0724999999999909;67;0.625;violin
159.525;0.0724999999999909;65;0.625;violin
159.6;0.29750000000001364;63;0.625;violin
159.9;0.0724999999999909;75;0.625;violin
159.975;0.07250000000001933;74;0.625;violin
160.05;0.0724999999999909;72;0.625;violin
160.125;0.0724999999999909;70;0.625;violin
160.20000000000002;0.2974999999999852;69;0.625;violin
160.5;0.14750000000000796;60;0.625;violin
160.5;0.14750000000000796;63;0.625;violin
160.8;0.14749999999997954;58;0.625;violin
160.8;0.14749999999997954;62;0.625;violin
161.1;0.07250000000001933;77;0.625;violin
161.175;0.0724999999999909;75;0.625;violin
161.25;0.0724999999999909;74;0.625;violin
161.32500000000002;0.0724999999999909;72;0.625;violin
161.4;0.2974999999999852;70;0.625;violin
161.70000000000002;0.0724999999999909;89;0.625;violin
161.775;0.0724999999999909;87;0.625;violin
161.85;0.07250000000001933;86;0.625;violin
161.925;0.0724999999999909;84;0.625;violin
162.0;0.29750000000001364;82;0.625;violin
162.3;0.14749999999997954;56;0.625;violin
162.3;0.14749999999997954;62;0.625;violin
162.6;0.14750000000000796;55;0.625;violin
162.6;0.14750000000000796;63;0.625;violin
162.9;0.0724999999999909;70;0.625;violin
162.975;0.07250000000001933;68;0.625;violin
163.05;0.0724999999999909;67;0.625;violin
163.125;0.0724999999999909;65;0.625;violin
163.20000000000002;0.2974999999999852;63;0.625;violin
163.5;0.0724999999999909;75;0.625;violin
163.57500000000002;0.0724999999999909;74;0.625;violin
163.65;0.0724999999999909;72;0.625;violin
163.725;0.07250000000001933;70;0.625;violin
163.8;0.2974999999999852;69;0.625;violin
164.1;0.14750000000000796;60;0.625;violin
164.1;0.14750000000000796;63;0.625;violin
164.4;0.14750000000000796;58;0.625;violin
164.4;0.14750000000000796;62;0.625;violin
164.70000000000002;0.0724999999999909;77;0.625;violin
164.775;0.0724999999999909;75;0.625;violin
164.85;0.07250000000001933;74;0.625;violin
164.925;0.0724999999999909;72;0.625;violin
165.0;0.29750000000001364;70;0.625;violin
165.3;0.0724999999999909;89;0.625;violin
165.375;0.0724999999999909;87;0.625;violin
165.45000000000002;0.0724999999999909;86;0.625;violin
165.525;0.0724999999999909;84;0.625;violin
165.6;0.29750000000001364;82;0.625;violin
165.9;0.0724999999999909;77;0.625;violin
165.975;0.07250000000001933;75;0.625;violin
166.05;0.0724999999999909;74;0.625;violin
166.125;0.0724999999999909;72;0.625;violin
166.20000000000002;0.2974999999999852;70;0.625;violin
166.5;0.0724999999999909;65;0.625;violin
166.57500000000002;0.0724999999999909;63;0.625;violin
166.65;0.0724999999999909;62;0.625;violin
166.725;0.07250000000001933;60;0.625;violin
166.8;0.2974999999999852;58;0.625;violin
167.1;0.07250000000001933;77;0.625;violin
167.175;0.0724999999999909;75;0.625;violin
167.25;0.0724999999999909;74;0.625;violin
167.32500000000002;0.0724999999999909;72;0.625;violin
167.4;0.2974999999999852;70;0.625;violin
167.70000000000002;0.0724999999999909;65;0.625;violin
167.775;0.0724999999999909;63;0.625;violin
167.85;0.07250000000001933;62;0.625;violin
167.925;0.0724999999999909;60;0.625;violin
168.0;0.29750000000001364;59;0.625;violin
168.3;0.0724999999999909;89;0.625;violin
168.375;0.0724999999999909;87;0.625;violin
168.45000000000002;0.0724999999999909;86;0.625;violin
168.525;0.0724999999999909;84;0.625;violin
168.6;0.29750000000001364;83;0.625;violin
168.9;0.0724999999999909;77;0.625;violin
168.975;0.07250000000001933;75;0.625;violin
169.05;0.0724999999999909;74;0.625;violin
169.125;0.0724999999999909;72;0.625;violin
169.20000000000002;0.2974999999999852;71;0.625;violin
169.5;0.0724999999999909;68;0.625;violin
169.57500000000002;0.0724999999999909;65;0.625;violin
169.65;0.0724999999999909;63;0.625;violin
169.725;0.07250000000001933;62;0.625;violin
169.8;0.2974999999999852;60;0.625;violin
170.1;0.07250000000001933;91;0.625;violin
170.175;0.0724999999999909;89;0.625;violin
170.25;0.0724999999999909;87;0.625;violin
170.32500000000002;0.0724999999999909;86;0.625;violin
170.4;0.2974999999999852;84;0.625;violin
170.70000000000002;0.0724999999999909;79;0.625;violin
170.775;0.0724999999999909;77;0.625;violin
170.85;0.07250000000001933;75;0.625;violin
170.925;0.0724999999999909;74;0.625;violin
171.0;0.29750000000001364;72;0.625;violin
171.3;0.0724999999999909;67;0.625;violin
171.375;0.0724999999999909;63;0.625;violin
171.45000000000002;0.0724999999999909;60;0.625;violin
171.525;0.0724999999999909;58;0.625;violin
171.6;0.29750000000001364;56;0.625;violin
171.9;0.0724999999999909;84;0.625;violin
171.975;0.07250000000001933;80;0.625;violin
172.05;0.0724999999999909;78;0.625;violin
172.125;0.0724999999999909;75;0.625;violin
172.20000000000002;0.2974999999999852;72;0.625;violin
172.5;0.0724999999999909;78;0.625;violin
172.57500000000002;0.0724999999999909;75;0.625;violin
172.65;0.0724999999999909;72;0.625;violin
172.725;0.07250000000001933;68;0.625;violin
172.8;0.2974999999999852;66;0.625;violin
173.1;0.07250000000001933;66;0.625;violin
173.175;0.0724999999999909;63;0.625;violin
173.25;0.0724999999999909;60;0.625;violin
173.32500000000002;0.0724999999999909;56;0.625;violin
173.4;0.2974999999999852;55;0.625;violin
173.70000000000002;0.0724999999999909;79;0.625;violin
173.775;0.0724999999999909;80;0.625;violin
173.85;0.07250000000001933;78;0.625;violin
173.925;0.0724999999999909;80;0.625;violin
174.0;0.29750000000001364;79;0.625;violin
174.3;0.0724999999999909;83;0.625;violin
174.375;0.0724999999999909;84;0.625;violin
174.45000000000002;0.0724999999999909;81;0.625;violin
174.525;0.0724999999999909;84;0.625;violin
174.6;0.29750000000001364;83;0.625;violin
174.9;0.0724999999999909;59;0.625;violin
174.975;0.07250000000001933;62;0.625;violin
175.05;0.0724999999999909;59;0.625;violin
175.125;0.0724999999999909;56;0.625;violin
175.20000000000002;0.2974999999999852;55;0.625;violin
175.5;0.0724999999999909;83;0.625;violin
175.57500000000002;0.0724999999999909;84;0.625;violin
175.65;0.0724999999999909;81;0.625;violin
175.725;0.07250000000001933;84;0.625;violin
175.8;0.2974999999999852;83;0.625;violin
176.1;0.07250000000001933;86;0.625;violin
176.175;0.0724999999999909;87;0.625;violin
176.25;0.0724999999999909;84;0.625;violin
176.32500000000002;0.0724999999999909;87;0.625;violin
176.4;0.2974999999999852;86;0.625;violin
176.70000000000002;0.0724999999999909;62;0.625;violin
176.775;0.0724999999999909;65;0.625;violin
176.85;0.07250000000001933;62;0.625;violin
176.925;0.0724999999999909;60;0.625;violin
177.0;0.29750000000001364;59;0.625;violin
177.3;0.0724999999999909;86;0.625;violin
177.375;0.0724999999999909;87;0.625;violin
177.45000000000002;0.0724999999999909;84;0.625;violin
177.525;0.0724999999999909;87;0.625;violin
177.6;0.29750000000001364;86;0.625;violin
177.9;0.0724999999999909;89;0.625;violin
177.975;0.07250000000001933;91;0.625;violin
178.05;0.0724999999999909;88;0.625;violin
178.125;0.0724999999999909;91;0.625;violin
178.20000000000002;0.2974999999999852;89;0.625;violin
178.5;0.0724999999999909;86;0.9375;violin
178.57500000000002;0.0724999999999909;84;0.625;violin
178.65;0.0724999999999909;83;0.625;violin
178.725;0.07250000000001933;80;0.625;violin
178.8;0.0724999999999909;79;0.625;violin
178.875;0.0724999999999909;77;0.625;violin
178.95000000000002;0.0724999999999909;75;0.625;violin
179.025;0.0724999999999909;74;0.625;violin
179.1;0.07250000000001933;83;0.9375;violin
179.175;0.0724999999999909;80;0.625;violin
179.25;0.0724999999999909;79;0.625;violin
179.32500000000002;0.0724999999999909;77;0.625;violin
179.4;0.0724999999999909;75;0.625;violin
179.475;0.07250000000001933;74;0.625;violin
179.55;0.0724999999999909;72;0.625;violin
179.625;0.0724999999999909;71;0.625;violin
179.70000000000002;0.0724999999999909;80;0.9375;violin
179.775;0.0724999999999909;79;0.625;violin
179.85;0.07250000000001933;77;0.625;violin
179.925;0.0724999999999909;75;0.625;violin
180.0;0.0724999999999909;74;0.625;violin
180.07500000000002;0.0724999999999909;72;0.625;violin
180.15;0.0724999999999909;71;0.625;violin
180.225;0.07250000000001933;68;0.625;violin
180.3;0.0724999999999909;67;0.625;violin
180.375;0.0724999999999909;65;0.625;violin
180.45000000000002;0.0724999999999909;63;0.625;violin
180.525;0.0724999999999909;62;0.625;violin
180.6;0.29750000000001364;64;0.625;violin
180.6;0.29750000000001364;72;0.625;violin
180.6;0.29750000000001364;84;0.625;violin
180.9;0.0724999999999909;67;0.625;violin
180.975;0.07250000000001933;65;0.625;violin
181.05;0.0724999999999909;64;0.625;violin
181.125;0.0724999999999909;62;0.625;violin
181.20000000000002;0.2974999999999852;60;0.625;violin
181.5;0.29750000000001364;70;0.625;violin
181.5;0.29750000000001364;79;0.625;violin
181.5;0.29750000000001364;88;0.625;violin
181.8;0.0724999999999909;67;0.625;violin
181.875;0.0724999999999909;65;0.625;violin
181.95000000000002;0.0724999999999909;64;0.625;violin
182.025;0.0724999999999909;62;0.625;violin
182.1;0.29750000000001364;60;0.625;violin
182.4;0.2974999999999852;68;0.625;violin
182.4;0.2974999999999852;77;0.625;violin
182.4;0.2974999999999852;89;0.625;violin
182.70000000000002;0.0724999999999909;72;0.625;violin
182.775;0.0724999999999909;70;0.625;violin
182.85;0.07250000000001933;68;0.625;violin
182.925;0.0724999999999909;67;0.625;violin
183.0;0.29750000000001364;65;0.625;violin
183.3;0.14749999999997954;80;0.625;violin
183.45000000000002;0.14749999999997954;79;0.625;violin
183.6;0.14750000000000796;82;0.625;violin
183.75;0.14750000000000796;80;0.625;violin
183.9;0.14750000000000796;79;0.625;violin
184.05;0.14749999999997954;77;0.625;violin
184.20000000000002;0.0724999999999909;63;0.625;violin
184.35;0.14750000000000796;79;0.625;violin
184.5;0.14750000000000796;75;0.625;violin
184.65;0.14750000000000796;72;0.625;violin
184.8;0.0724999999999909;68;0.625;violin
184.95000000000002;0.14749999999997954;80;0.625;violin
185.1;0.14750000000000796;77;0.625;violin
185.25;0.14750000000000796;74;0.625;violin
185.4;0.0724999999999909;55;0.625;violin
185.55;0.14749999999997954;77;0.625;violin
185.70000000000002;0.14749999999997954;74;0.625;violin
185.85;0.14750000000000796;71;0.625;violin
186.0;0.14750000000000796;63;0.625;violin
186.15;0.14750000000000796;62;0.625;violin
186.3;0.14749999999997954;60;0.625;violin
186.45000000000002;0.0724999999999909;87;0.625;violin
186.6;0.14750000000000796;63;0.625;violin
186.75;0.14750000000000796;62;0.625;violin
186.9;0.14750000000000796;60;0.625;violin
187.05;0.0724999999999909;87;0.625;violin
187.20000000000002;0.14749999999997954;62;0.625;violin
187.35;0.14750000000000796;59;0.625;violin
187.5;0.14750000000000796;55;0.625;violin
187.65;0.0724999999999909;86;0.625;violin
187.8;0.14749999999997954;63;0.625;violin
187.95000000000002;0.14749999999997954;62;0.625;violin
188.1;0.14750000000000796;60;0.625;violin
188.25;0.0724999999999909;87;0.625;violin
188.4;0.14750000000000796;63;0.625;violin
188.55;0.14749999999997954;62;0.625;violin
188.70000000000002;0.14749999999997954;60;0.625;violin
188.85;0.07250000000001933;87;0.625;violin
189.0;0.14750000000000796;62;0.625;violin
189.15;0.14750000000000796;59;0.625;violin
189.3;0.14749999999997954;55;0.625;violin
189.45000000000002;0.0724999999999909;86;0.625;violin
189.6;0.14750000000000796;63;0.625;violin
189.75;0.14750000000000796;62;0.625;violin
189.9;0.14750000000000796;60;0.625;violin
190.05;0.0724999999999909;87;0.625;violin
190.20000000000002;0.14749999999997954;65;0.625;violin
190.35;0.14750000000000796;63;0.625;violin
190.5;0.14750000000000796;62;0.625;violin
190.65;0.0724999999999909;89;0.625;violin
190.8;0.14749999999997954;67;0.625;violin
190.95000000000002;0.14749999999997954;65;0.625;violin
191.1;0.14750000000000796;63;0.625;violin
191.25;0.0724999999999909;91;0.625;violin
191.4;0.14750000000000796;68;0.625;violin
191.55;0.14749999999997954;67;0.625;violin
191.70000000000002;0.14749999999997954;65;0.625;violin
191.85;0.07250000000001933;92;0.625;violin
192.6;0.29750000000001364;55;0.625;violin
192.6;0.29750000000001364;62;0.625;violin
192.6;0.29750000000001364;71;0.625;violin
192.6;0.29750000000001364;79;0.625;violin
193.20000000000002;1.197499999999991;60;0.625;violin
194.4;0.5974999999999966;79;0.625;violin
195.0;0.29750000000001364;67;0.625;violin
195.0;0.29750000000001364;76;0.625;violin
195.0;0.29750000000001364;84;0.625;violin
195.3;0.0724999999999909;67;0.625;violin
195.375;0.0724999999999909;65;0.625;violin
195.45000000000002;0.0724999999999909;64;0.625;violin
195.525;0.0724999999999909;62;0.625;violin
195.6;0.29750000000001364;60;0.625;violin
195.9;0.2974999999999852;70;0.625;violin
195.9;0.2974999999999852;79;0.625;violin
195.9;0.2974999999999852;88;0.625;violin
196.20000000000002;0.0724999999999909;67;0.625;violin
196.275;0.0724999999999909;65;0.625;violin
196.35;0.07250000000001933;64;0.625;violin
196.425;0.0724999999999909;62;0.625;violin
196.5;0.29750000000001364;60;0.625;violin
196.8;0.2974999999999852;68;0.625;violin
196.8;0.2974999999999852;77;0.625;violin
196.8;0.2974999999999852;89;0.625;violin
197.1;0.07250000000001933;72;0.625;violin
197.175;0.0724999999999909;70;0.625;violin
197.25;0.0724999999999909;68;0.625;violin
197.32500000000002;0.0724999999999909;67;0.625;violin
197.4;0.2974999999999852;65;0.625;violin
197.70000000000002;0.14749999999997954;80;0.625;violin
197.85;0.14750000000000796;79;0.625;violin
198.0;0.14750000000000796;77;0.625;violin
198.15;0.14750000000000796;75;0.625;violin
198.3;0.14749999999997954;74;0.625;violin
198.45000000000002;0.14749999999997954;72;0.625;violin
198.6;0.29750000000001364;62;0.625;violin
198.6;0.29750000000001364;70;0.625;violin
198.6;0.29750000000001364;82;0.625;violin
198.9;0.0724999999999909;65;0.625;violin
198.975;0.07250000000001933;63;0.625;violin
199.05;0.0724999999999909;62;0.625;violin
199.125;0.0724999999999909;60;0.625;violin
199.20000000000002;0.2974999999999852;58;0.625;violin
199.5;0.29750000000001364;68;0.625;violin
199.5;0.29750000000001364;77;0.625;violin
199.5;0.29750000000001364;86;0.625;violin
199.8;0.0724999999999909;65;0.625;violin
199.875;0.0724999999999909;63;0.625;violin
199.95000000000002;0.0724999999999909;62;0.625;violin
200.025;0.0724999999999909;60;0.625;violin
200.1;0.29750000000001364;58;0.625;violin
200.4;0.2974999999999852;67;0.625;violin
200.4;0.2974999999999852;75;0.625;violin
200.4;0.2974999999999852;87;0.625;violin
200.70000000000002;0.0724999999999909;70;0.625;violin
200.775;0.0724999999999909;68;0.625;violin
200.85;0.07250000000001933;67;0.625;violin
200.925;0.0724999999999909;65;0.625;violin
201.0;0.29750000000001364;63;0.625;violin
201.3;0.14749999999997954;79;0.625;violin
201.45000000000002;0.14749999999997954;77;0.625;violin
201.6;0.14750000000000796;75;0.625;violin
201.75;0.14750000000000796;74;0.625;violin
201.9;0.14750000000000796;72;0.625;violin
202.05;0.14749999999997954;70;0.625;violin
202.20000000000002;0.5974999999999966;60;0.625;violin
202.20000000000002;0.14749999999997954;68;0.625;violin
202.35;0.14750000000000796;63;0.625;violin
202.5;0.14750000000000796;68;0.625;violin
202.65;0.14750000000000796;63;0.625;violin
202.8;0.2974999999999852;58;0.625;violin
202.8;0.2974999999999852;67;0.625;violin
203.1;0.14750000000000796;79;0.625;violin
203.25;0.14750000000000796;77;0.625;violin
203.4;0.14750000000000796;75;0.625;violin
203.55;0.14749999999997954;74;0.625;violin
203.70000000000002;0.14749999999997954;72;0.625;violin
203.85;0.14750000000000796;70;0.625;violin
204.0;0.5974999999999966;60;0.625;violin
204.0;0.14750000000000796;68;0.625;violin
204.15;0.14750000000000796;63;0.625;violin
204.3;0.14749999999997954;68;0.625;violin
204.45000000000002;0.14749999999997954;63;0.625;violin
204.6;0.29750000000001364;58;0.625;violin
204.6;0.29750000000001364;67;0.625;violin
204.9;0.14750000000000796;79;0.625;violin
205.05;0.14749999999997954;77;0.625;violin
205.20000000000002;0.14749999999997954;75;0.625;violin
205.35;0.14750000000000796;74;0.625;violin
205.5;0.14750000000000796;72;0.625;violin
205.65;0.14750000000000796;70;0.625;violin
205.8;0.5974999999999966;60;0.625;violin
205.8;0.14749999999997954;68;0.625;violin
205.95000000000002;0.14749999999997954;63;0.625;violin
206.1;0.14750000000000796;68;0.625;violin
206.25;0.14750000000000796;63;0.625;violin
206.4;0.5974999999999966;58;0.625;violin
206.4;0.14750000000000796;67;0.625;violin
206.55;0.14749999999997954;63;0.625;violin
206.70000000000002;0.14749999999997954;67;0.625;violin
206.85;0.14750000000000796;63;0.625;violin
207.0;0.5974999999999966;57;0.625;violin
207.0;0.14750000000000796;66;0.625;violin
207.15;0.14750000000000796;63;0.625;violin
207.3;0.14749999999997954;66;0.625;violin
207.45000000000002;0.14749999999997954;63;0.625;violin
207.6;0.14750000000000796;58;0.625;violin
207.6;0.14750000000000796;62;0.625;violin
207.9;0.0724999999999909;77;0.625;violin
207.975;0.07250000000001933;75;0.625;violin
208.05;0.0724999999999909;74;0.625;violin
208.125;0.0724999999999909;72;0.625;violin
208.20000000000002;0.2974999999999852;70;0.625;violin
208.5;0.0724999999999909;89;0.625;violin
208.57500000000002;0.0724999999999909;87;0.625;violin
208.65;0.0724999999999909;86;0.625;violin
208.725;0.07250000000001933;84;0.625;violin
208.8;0.2974999999999852;82;0.625;violin
209.1;0.14750000000000796;57;0.625;violin
209.1;0.14750000000000796;62;0.625;violin
209.4;0.14750000000000796;55;0.625;violin
209.4;0.14750000000000796;63;0.625;violin
209.70000000000002;0.0724999999999909;70;0.625;violin
209.775;0.0724999999999909;68;0.625;violin
209.85;0.07250000000001933;67;0.625;violin
209.925;0.0724999999999909;65;0.625;violin
210.0;0.29750000000001364;63;0.625;violin
210.3;0.0724999999999909;75;0.625;violin
210.375;0.0724999999999909;74;0.625;violin
210.45000000000002;0.0724999999999909;72;0.625;violin
210.525;0.0724999999999909;70;0.625;violin
210.6;0.29750000000001364;69;0.625;violin
210.9;0.14750000000000796;60;0.625;violin
210.9;0.14750000000000796;63;0.625;violin
211.20000000000002;0.14749999999997954;58;0.625;violin
211.20000000000002;0.14749999999997954;62;0.625;violin
211.5;0.0724999999999909;77;0.625;violin
211.57500000000002;0.0724999999999909;75;0.625;violin
211.65;0.0724999999999909;74;0.625;violin
211.725;0.07250000000001933;72;0.625;violin
211.8;0.2974999999999852;70;0.625;violin
212.1;0.07250000000001933;89;0.625;violin
212.175;0.0724999999999909;87;0.625;violin
212.25;0.0724999999999909;86;0.625;violin
212.32500000000002;0.0724999999999909;84;0.625;violin
212.4;0.2974999999999852;82;0.625;violin
212.70000000000002;0.14749999999997954;56;0.625;violin
212.70000000000002;0.14749999999997954;62;0.625;violin
213.0;0.14750000000000796;55;0.625;violin
213.0;0.14750000000000796;63;0.625;violin
213.3;0.0724999999999909;70;0.625;violin
213.375;0.0724999999999909;68;0.625;violin
213.45000000000002;0.0724999999999909;67;0.625;violin
213.525;0.0724999999999909;65;0.625;violin
213.6;0.29750000000001364;63;0.625;violin
213.9;0.0724999999999909;75;0.625;violin
213.975;0.07250000000001933;74;0.625;violin
214.05;0.0724999999999909;72;0.625;violin
214.125;0.0724999999999909;70;0.625;violin
214.20000000000002;0.2974999999999852;69;0.625;violin
214.5;0.14750000000000796;60;0.625;violin
214.5;0.14750000000000796;63;0.625;violin
214.8;0.14749999999997954;58;0.625;violin
214.8;0.14749999999997954;62;0.625;violin
215.1;0.07250000000001933;77;0.625;violin
215.175;0.0724999999999909;75;0.625;violin
215.25;0.0724999999999909;74;0.625;violin
215.32500000000002;0.0724999999999909;72;0.625;violin
215.4;0.2974999999999852;70;0.625;violin
215.70000000000002;0.0724999999999909;89;0.625;violin
215.775;0.0724999999999909;87;0.625;violin
215.85;0.07250000000001933;86;0.625;violin
215.925;0.0724999999999909;84;0.625;violin
216.0;0.29750000000001364;82;0.625;violin
216.3;0.0724999999999909;77;0.625;violin
216.375;0.0724999999999909;75;0.625;violin
216.45000000000002;0.0724999999999909;74;0.625;violin
216.525;0.0724999999999909;72;0.625;violin
216.6;0.29750000000001364;70;0.625;violin
216.9;0.0724999999999909;65;0.625;violin
216.975;0.07250000000001933;63;0.625;violin
217.05;0.0724999999999909;62;0.625;violin
217.125;0.0724999999999909;60;0.625;violin
217.20000000000002;0.2974999999999852;58;0.625;violin
217.5;0.0724999999999909;77;0.625;violin
217.57500000000002;0.0724999999999909;75;0.625;violin
217.65;0.0724999999999909;74;0.625;violin
217.725;0.07250000000001933;72;0.625;violin
217.8;0.2974999999999852;70;0.625;violin
218.1;0.07250000000001933;65;0.625;violin
218.175;0.0724999999999909;63;0.625;violin
218.25;0.0724999999999909;62;0.625;violin
218.32500000000002;0.0724999999999909;60;0.625;violin
218.4;0.2974999999999852;59;0.625;violin
218.70000000000002;0.0724999999999909;89;0.625;violin
218.775;0.0724999999999909;87;0.625;violin
218.85;0.07250000000001933;86;0.625;violin
218.925;0.0724999999999909;84;0.625;violin
219.0;0.29750000000001364;83;0.625;violin
219.3;0.0724999999999909;77;0.625;violin
219.375;0.0724999999999909;75;0.625;violin
219.45000000000002;0.0724999999999909;74;0.625;violin
219.525;0.0724999999999909;72;0.625;violin
219.6;0.29750000000001364;71;0.625;violin
219.9;0.0724999999999909;68;0.625;violin
219.975;0.07250000000001933;65;0.625;violin
220.05;0.0724999999999909;63;0.625;violin
220.125;0.0724999999999909;62;0.625;violin
220.20000000000002;0.2974999999999852;60;0.625;violin
220.5;0.0724999999999909;91;0.625;violin
220.57500000000002;0.0724999999999909;89;0.625;violin
220.65;0.0724999999999909;87;0.625;violin
220.725;0.07250000000001933;86;0.625;violin
220.8;0.2974999999999852;84;0.625;violin
221.1;0.07250000000001933;79;0.625;violin
221.175;0.0724999999999909;77;0.625;violin
221.25;0.0724999999999909;75;0.625;violin
221.32500000000002;0.0724999999999909;74;0.625;violin
221.4;0.2974999999999852;72;0.625;violin
221.70000000000002;0.0724999999999909;67;0.625;violin
221.775;0.0724999999999909;63;0.625;violin
221.85;0.07250000000001933;60;0.625;violin
221.925;0.0724999999999909;58;0.625;violin
222.0;0.29750000000001364;56;0.625;violin
222.3;0.0724999999999909;84;0.625;violin
222.375;0.0724999999999909;80;0.625;violin
222.45000000000002;0.0724999999999909;78;0.625;violin
222.525;0.0724999999999909;75;0.625;violin
222.6;0.29750000000001364;72;0.625;violin
222.9;0.0724999999999909;78;0.625;violin
222.975;0.07250000000001933;75;0.625;violin
223.05;0.0724999999999909;72;0.625;violin
223.125;0.0724999999999909;68;0.625;violin
223.20000000000002;0.2974999999999852;66;0.625;violin
223.5;0.0724999999999909;66;0.625;violin
223.57500000000002;0.0724999999999909;63;0.625;violin
223.65;0.0724999999999909;60;0.625;violin
223.725;0.07250000000001933;56;0.625;violin
223.8;0.2974999999999852;55;0.625;violin
224.1;0.07250000000001933;79;0.625;violin
224.175;0.0724999999999909;80;0.625;violin
224.25;0.0724999999999909;78;0.625;violin
224.32500000000002;0.0724999999999909;80;0.625;violin
224.4;0.2974999999999852;79;0.625;violin
224.70000000000002;0.0724999999999909;83;0.625;violin
224.775;0.0724999999999909;84;0.625;violin
224.85;0.07250000000001933;81;0.625;violin
224.925;0.0724999999999909;84;0.625;violin
225.0;0.29750000000001364;83;0.625;violin
225.3;0.0724999999999909;59;0.625;violin
225.375;0.0724999999999909;62;0.625;violin
225.45000000000002;0.0724999999999909;59;0.625;violin
225.525;0.0724999999999909;56;0.625;violin
225.6;0.29750000000001364;55;0.625;violin
225.9;0.0724999999999909;83;0.625;violin
225.975;0.07250000000001933;84;0.625;violin
226.05;0.0724999999999909;81;0.625;violin
226.125;0.0724999999999909;84;0.625;violin
226.20000000000002;0.2974999999999852;83;0.625;violin
226.5;0.0724999999999909;86;0.625;violin
226.57500000000002;0.0724999999999909;87;0.625;violin
226.65;0.0724999999999909;84;0.625;violin
226.725;0.07250000000001933;87;0.625;violin
226.8;0.2974999999999852;86;0.625;violin
227.1;0.07250000000001933;62;0.625;violin
227.175;0.0724999999999909;65;0.625;violin
227.25;0.0724999999999909;62;0.625;violin
227.32500000000002;0.0724999999999909;60;0.625;violin
227.4;0.2974999999999852;59;0.625;violin
227.70000000000002;0.0724999999999909;86;0.625;violin
227.775;0.0724999999999909;87;0.625;violin
227.85;0.07250000000001933;84;0.625;violin
227.925;0.0724999999999909;87;0.625;violin
228.0;0.29750000000001364;86;0.625;violin
228.3;0.0724999999999909;89;0.625;violin
228.375;0.0724999999999909;91;0.625;violin
228.45000000000002;0.0724999999999909;88;0.625;violin
228.525;0.0724999999999909;91;0.625;violin
228.6;0.29750000000001364;89;0.625;violin
228.9;0.0724999999999909;86;0.9375;violin
228.975;0.07250000000001933;84;0.625;violin
229.05;0.0724999999999909;83;0.625;violin
229.125;0.0724999999999909;80;0.625;violin
229.20000000000002;0.0724999999999909;79;0.625;violin
229.275;0.0724999999999909;77;0.625;violin
229.35;0.07250000000001933;75;0.625;violin
229.425;0.0724999999999909;74;0.625;violin
229.5;0.0724999999999909;83;0.9375;violin
229.57500000000002;0.0724999999999909;80;0.625;violin
229.65;0.0724999999999909;79;0.625;violin
229.725;0.07250000000001933;77;0.625;violin
229.8;0.0724999999999909;75;0.625;violin
229.875;0.0724999999999909;74;0.625;violin
229.95000000000002;0.0724999999999909;72;0.625;violin
230.025;0.0724999999999909;71;0.625;violin
230.1;0.07250000000001933;80;0.9375;violin
230.175;0.0724999999999909;79;0.625;violin
230.25;0.0724999999999909;77;0.625;violin
230.32500000000002;0.0724999999999909;75;0.625;violin
230.4;0.0724999999999909;74;0.625;violin
230.475;0.07250000000001933;72;0.625;violin
230.55;0.0724999999999909;71;0.625;violin
230.625;0.0724999999999909;68;0.625;violin
230.70000000000002;0.0724999999999909;67;0.625;violin
230.775;0.0724999999999909;65;0.625;violin
230.85;0.07250000000001933;63;0.625;violin
230.925;0.0724999999999909;62;0.625;violin
231.0;0.29750000000001364;64;0.625;violin
231.0;0.29750000000001364;72;0.625;violin
231.0;0.29750000000001364;84;0.625;violin
231.3;0.0724999999999909;67;0.625;violin
231.375;0.0724999999999909;65;0.625;violin
231.45000000000002;0.0724999999999909;64;0.625;violin
231.525;0.0724999999999909;62;0.625;violin
231.6;0.29750000000001364;60;0.625;violin
231.9;0.2974999999999852;70;0.625;violin
231.9;0.2974999999999852;79;0.625;violin
231.9;0.2974999999999852;88;0.625;violin
232.20000000000002;0.0724999999999909;67;0.625;violin
232.275;0.0724999999999909;65;0.625;violin
232.35;0.07250000000001933;64;0.625;violin
232.425;0.0724999999999909;62;0.625;violin
232.5;0.29750000000001364;60;0.625;violin
232.8;0.2974999999999852;68;0.625;violin
232.8;0.2974999999999852;77;0.625;violin
232.8;0.2974999999999852;89;0.625;violin
233.1;0.07250000000001933;72;0.625;violin
233.175;0.0724999999999909;70;0.625;violin
233.25;0.0724999999999909;68;0.625;violin
233.32500000000002;0.0724999999999909;67;0.625;violin
233.4;0.2974999999999852;65;0.625;violin
233.70000000000002;0.14749999999997954;80;0.625;violin
233.85;0.14750000000000796;79;0.625;violin
234.0;0.14750000000000796;82;0.625;violin
234.15;0.14750000000000796;80;0.625;violin
234.3;0.14749999999997954;79;0.625;violin
234.45000000000002;0.14749999999997954;77;0.625;violin
234.6;0.07250000000001933;63;0.625;violin
234.75;0.14750000000000796;79;0.625;violin
234.9;0.14750000000000796;75;0.625;violin
235.05;0.14749999999997954;72;0.625;violin
235.20000000000002;0.0724999999999909;68;0.625;violin
235.35;0.14750000000000796;80;0.625;violin
235.5;0.14750000000000796;77;0.625;violin
235.65;0.14750000000000796;74;0.625;violin
235.8;0.0724999999999909;55;0.625;violin
235.95000000000002;0.14749999999997954;77;0.625;violin
236.1;0.14750000000000796;74;0.625;violin
236.25;0.14750000000000796;71;0.625;violin
236.4;0.14750000000000796;63;0.625;violin
236.55;0.14749999999997954;62;0.625;violin
236.70000000000002;0.14749999999997954;60;0.625;violin
236.85;0.07250000000001933;87;0.625;violin
237.0;0.14750000000000796;63;0.625;violin
237.15;0.14750000000000796;62;0.625;violin
237.3;0.14749999999997954;60;0.625;violin
237.45000000000002;0.0724999999999909;87;0.625;violin
237.6;0.14750000000000796;62;0.625;violin
237.75;0.14750000000000796;59;0.625;violin
237.9;0.14750000000000796;55;0.625;violin
238.05;0.0724999999999909;86;0.625;violin
238.20000000000002;0.14749999999997954;63;0.625;violin
238.35;0.14750000000000796;62;0.625;violin
238.5;0.14750000000000796;60;0.625;violin
238.65;0.0724999999999909;87;0.625;violin
238.8;0.14749999999997954;63;0.625;violin
238.95000000000002;0.14749999999997954;62;0.625;violin
239.1;0.14750000000000796;60;0.625;violin
239.25;0.0724999999999909;87;0.625;violin
239.4;0.14750000000000796;62;0.625;violin
239.55;0.14749999999997954;59;0.625;violin
239.70000000000002;0.14749999999997954;55;0.625;violin
239.85;0.07250000000001933;86;0.625;violin
240.0;0.14750000000000796;63;0.625;violin
240.15;0.14750000000000796;62;0.625;violin
240.3;0.14749999999997954;60;0.625;violin
240.45000000000002;0.0724999999999909;87;0.625;violin
240.6;0.14750000000000796;65;0.625;violin
240.75;0.14750000000000796;63;0.625;violin
240.9;0.14750000000000796;62;0.625;violin
241.05;0.0724999999999909;89;0.625;violin
241.20000000000002;0.14749999999997954;67;0.625;violin
241.35;0.14750000000000796;65;0.625;violin
241.5;0.14750000000000796;63;0.625;violin
241.65;0.0724999999999909;91;0.625;violin
241.8;0.14749999999997954;68;0.625;violin
241.95000000000002;0.14749999999997954;67;0.625;violin
242.1;0.14750000000000796;65;0.625;violin
242.25;0.0724999999999909;92;0.625;violin
243.0;0.29750000000001364;55;0.625;violin
243.0;0.29750000000001364;62;0.625;violin
243.0;0.29750000000001364;71;0.625;violin
243.0;0.29750000000001364;79;0.625;violin
243.6;1.1975000000000193;60;0.625;violin
244.8;0.5974999999999966;70;0.625;violin
244.8;0.5974999999999966;82;0.625;violin
245.4;1.197499999999991;75;0.625;violin
245.4;1.197499999999991;87;0.625;violin
246.6;0.29750000000001364;58;0.625;violin
246.9;0.14750000000000796;60;0.625;violin
247.05;0.14750000000000796;62;0.625;violin
247.20000000000002;1.197499999999991;63;0.625;violin
248.4;0.5974999999999966;70;0.625;violin
248.4;0.5974999999999966;82;0.625;violin
249.0;1.1975000000000193;75;0.625;violin
249.0;1.1975000000000193;87;0.625;violin
250.20000000000002;0.2974999999999852;58;0.625;violin
250.5;0.14750000000000796;60;0.625;violin
250.65;0.14750000000000796;62;0.625;violin
250.8;1.197499999999991;63;0.625;violin
252.0;0.5974999999999966;70;0.625;violin
252.0;0.5974999999999966;82;0.625;violin
252.6;1.1975000000000193;75;0.625;violin
252.6;1.1975000000000193;87;0.625;violin
253.8;0.5974999999999966;77;0.625;violin
253.8;0.5974999999999966;89;0.625;violin
254.4;0.29750000000001364;79;0.625;violin
254.4;0.29750000000001364;91;0.625;violin
254.70000000000002;0.14749999999997954;80;0.625;violin
254.70000000000002;0.14749999999997954;92;0.625;violin
254.85;0.14750000000000796;79;0.625;violin
254.85;0.14750000000000796;91;0.625;violin
255.0;0.5974999999999966;77;0.625;violin
255.0;0.5974999999999966;89;0.625;violin
255.6;0.5974999999999966;75;0.625;violin
255.6;0.5974999999999966;87;0.625;violin
256.2;0.060000000000002274;77;0.625;violin
256.2;0.060000000000002274;89;0.625;violin
256.2625;1.7975000000000136;70;0.625;violin
256.2625;1.7975000000000136;82;0.625;violin
259.2;0.29750000000001364;70;0.625;violin
259.2;0.29750000000001364;82;0.625;violin
259.5;0.29750000000001364;82;0.625;violin
259.5;0.29750000000001364;94;0.625;violin
259.8;0.5974999999999682;82;0.625;violin
259.8;0.5974999999999682;94;0.625;violin
260.4;0.11750000000000682;82;0.625;violin
260.4;0.11750000000000682;94;0.625;violin
260.52;0.11750000000000682;81;0.625;violin
260.52;0.11750000000000682;93;0.625;violin
260.64;0.11750000000000682;80;0.625;violin
260.64;0.11750000000000682;92;0.625;violin
260.76;0.11750000000000682;79;0.625;violin
260.76;0.11750000000000682;91;0.625;violin
260.88;0.11750000000000682;78;0.625;violin
260.88;0.11750000000000682;90;0.625;violin
261.0;0.11750000000000682;77;0.625;violin
261.0;0.11750000000000682;89;0.625;violin
261.12;0.11750000000000682;76;0.625;violin
261.12;0.11750000000000682;88;0.625;violin
261.24;0.11750000000000682;75;0.625;violin
261.24;0.11750000000000682;87;0.625;violin
261.36;0.11750000000000682;74;0.625;violin
261.36;0.11750000000000682;86;0.625;violin
261.48;0.11750000000000682;73;0.625;violin
261.48;0.11750000000000682;85;0.625;violin
261.6;0.2974999999999568;72;0.625;violin
261.6;0.2974999999999568;84;0.625;violin
262.2;0.29750000000001364;60;0.625;violin
262.2;0.29750000000001364;72;0.625;violin
262.8;0.29750000000001364;58;0.625;violin
262.8;0.29750000000001364;70;0.625;violin
263.4;0.29750000000001364;56;0.625;violin
263.4;0.29750000000001364;68;0.625;violin
264.0;0.29750000000001364;80;0.625;violin
264.0;0.29750000000001364;92;0.625;violin
264.3;0.29750000000001364;79;0.625;violin
264.3;0.29750000000001364;91;0.625;violin
264.6;0.1974999999999909;79;0.625;violin
264.6;0.1974999999999909;91;0.625;violin
264.8;0.1974999999999909;77;0.625;violin
264.8;0.1974999999999909;89;0.625;violin
265.0;0.1974999999999909;76;0.625;violin
265.0;0.1974999999999909;88;0.625;violin
265.2;0.597500000000025;77;0.625;violin
265.2;0.597500000000025;89;0.625;violin
265.8;0.5974999999999682;65;0.625;violin
265.8;0.5974999999999682;77;0.625;violin
266.4;0.29750000000001364;77;0.625;violin
266.4;0.29750000000001364;89;0.625;violin
266.7;0.29750000000001364;80;0.625;violin
266.7;0.29750000000001364;92;0.625;violin
267.0;0.597500000000025;80;0.625;violin
267.0;0.597500000000025;92;0.625;violin
267.6;0.11750000000000682;80;0.625;violin
267.6;0.11750000000000682;92;0.625;violin
267.72;0.11749999999994998;79;0.625;violin
267.72;0.11749999999994998;91;0.625;violin
267.84000000000003;0.11749999999994998;78;0.625;violin
267.84000000000003;0.11749999999994998;90;0.625;violin
267.96;0.11750000000000682;77;0.625;violin
267.96;0.11750000000000682;89;0.625;violin
268.08;0.11750000000000682;76;0.625;violin
268.08;0.11750000000000682;88;0.625;violin
268.2;0.11750000000000682;75;0.625;violin
268.2;0.11750000000000682;87;0.625;violin
268.32;0.11750000000000682;74;0.625;violin
268.32;0.11750000000000682;86;0.625;violin
268.44;0.11750000000000682;73;0.625;violin
268.44;0.11750000000000682;85;0.625;violin
268.56;0.11750000000000682;72;0.625;violin
268.56;0.11750000000000682;84;0.625;violin
268.68;0.11750000000000682;71;0.625;violin
268.68;0.11750000000000682;83;0.625;violin
268.8;0.29750000000001364;70;0.625;violin
268.8;0.29750000000001364;82;0.625;violin
269.4;0.29750000000001364;58;0.625;violin
269.4;0.29750000000001364;70;0.625;violin
270.0;0.29750000000001364;56;0.625;violin
270.0;0.29750000000001364;68;0.625;violin
270.6;0.5974999999999682;55;0.625;violin
270.6;0.5974999999999682;67;0.625;violin
271.2;0.29750000000001364;79;0.625;violin
271.2;0.29750000000001364;91;0.625;violin
271.5;0.29750000000001364;77;0.625;violin
271.5;0.29750000000001364;89;0.625;violin
271.8;0.1974999999999909;77;0.625;violin
271.8;0.1974999999999909;89;0.625;violin
272.0;0.1974999999999909;75;0.625;violin
272.0;0.1974999999999909;87;0.625;violin
272.2;0.1974999999999909;74;0.625;violin
272.2;0.1974999999999909;86;0.625;violin
272.4;0.29750000000001364;75;0.625;violin
272.4;0.29750000000001364;87;0.625;violin
273.0;0.29750000000001364;63;0.625;violin
273.0;0.29750000000001364;75;0.625;violin
273.6;0.2974999999999568;75;0.625;violin
273.6;0.2974999999999568;87;0.625;violin
273.90000000000003;0.2974999999999568;78;0.625;violin
273.90000000000003;0.2974999999999568;90;0.625;violin
274.2;0.8975000000000364;78;0.9375;violin
274.2;0.8975000000000364;90;0.9375;violin
275.1;0.14749999999997954;77;0.625;violin
275.1;0.14749999999997954;89;0.625;violin
275.25;0.14749999999997954;76;0.625;violin
275.25;0.14749999999997954;88;0.625;violin
275.40000000000003;0.14749999999997954;75;0.625;violin
275.40000000000003;0.14749999999997954;87;0.625;violin
275.55;0.14749999999997954;74;0.625;violin
275.55;0.14749999999997954;86;0.625;violin
275.7;0.14750000000003638;73;0.625;violin
275.7;0.14750000000003638;85;0.625;violin
275.85;0.14749999999997954;72;0.625;violin
275.85;0.14749999999997954;84;0.625;violin
276.0;0.29750000000001364;71;0.625;violin
276.0;0.29750000000001364;83;0.625;violin
276.6;0.2974999999999568;59;0.625;violin
276.6;0.2974999999999568;71;0.625;violin
277.2;0.29750000000001364;75;0.625;violin
277.2;0.29750000000001364;87;0.625;violin
277.5;0.29750000000001364;78;0.625;violin
277.5;0.29750000000001364;90;0.625;violin
277.8;0.8974999999999795;78;0.9375;violin
277.8;0.8974999999999795;90;0.9375;violin
278.7;0.14750000000003638;77;0.625;violin
278.7;0.14750000000003638;89;0.625;violin
278.85;0.14749999999997954;76;0.625;violin
278.85;0.14749999999997954;88;0.625;violin
279.0;0.11750000000000682;75;0.625;violin
279.0;0.11750000000000682;87;0.625;violin
279.12;0.11750000000000682;74;0.625;violin
279.12;0.11750000000000682;86;0.625;violin
279.24;0.11750000000000682;73;0.625;violin
279.24;0.11750000000000682;85;0.625;violin
279.36;0.11750000000000682;72;0.625;violin
279.36;0.11750000000000682;84;0.625;violin
279.48;0.11750000000000682;71;0.625;violin
279.48;0.11750000000000682;83;0.625;violin
279.6;0.2974999999999568;70;0.625;violin
279.6;0.2974999999999568;82;0.625;violin
280.2;0.29750000000001364;58;0.625;violin
280.2;0.29750000000001364;70;0.625;violin
280.8;0.29750000000001364;75;0.625;violin
280.8;0.29750000000001364;87;0.625;violin
281.1;0.2974999999999568;78;0.625;violin
281.1;0.2974999999999568;90;0.625;violin
281.40000000000003;0.8974999999999795;78;0.9375;violin
281.40000000000003;0.8974999999999795;90;0.9375;violin
282.3;0.14749999999997954;77;0.625;violin
282.3;0.14749999999997954;89;0.625;violin
282.45;0.14750000000003638;76;0.625;violin
282.45;0.14750000000003638;88;0.625;violin
282.6;0.09749999999996817;75;0.625;violin
282.6;0.09749999999996817;87;0.625;violin
282.7;0.09750000000002501;74;0.625;violin
282.7;0.09750000000002501;86;0.625;violin
282.8;0.09749999999996817;73;0.625;violin
282.8;0.09749999999996817;85;0.625;violin
282.90000000000003;0.09749999999996817;72;0.625;violin
282.90000000000003;0.09749999999996817;84;0.625;violin
283.0;0.09750000000002501;71;0.625;violin
283.0;0.09750000000002501;83;0.625;violin
283.1;0.09749999999996817;70;0.625;violin
283.1;0.09749999999996817;82;0.625;violin
283.2;0.29750000000001364;69;0.625;violin
283.2;0.29750000000001364;81;0.625;violin
283.8;0.29750000000001364;57;0.625;violin
283.8;0.29750000000001364;69;0.625;violin
284.40000000000003;0.2974999999999568;78;0.625;violin
284.40000000000003;0.2974999999999568;90;0.625;violin
284.7;0.29750000000001364;75;0.625;violin
284.7;0.29750000000001364;87;0.625;violin
285.0;0.29750000000001364;74;0.625;violin
285.0;0.29750000000001364;86;0.625;violin
285.3;0.14749999999997954;58;0.625;violin
285.3;0.14749999999997954;70;0.625;violin
285.6;0.14749999999997954;62;0.625;violin
285.6;0.14749999999997954;74;0.625;violin
285.90000000000003;0.14749999999997954;65;0.625;violin
285.90000000000003;0.14749999999997954;77;0.625;violin
286.2;0.14750000000003638;70;0.625;violin
286.2;0.14750000000003638;82;0.625;violin
286.5;0.14749999999997954;74;0.625;violin
286.5;0.14749999999997954;86;0.625;violin
286.8;0.14749999999997954;77;0.625;violin
286.8;0.14749999999997954;89;0.625;violin
287.1;0.14749999999997954;82;0.625;violin
287.1;0.14749999999997954;94;0.625;violin
287.40000000000003;0.2974999999999568;58;0.625;violin
287.40000000000003;0.2974999999999568;70;0.625;violin
288.0;0.597500000000025;70;0.625;violin
288.0;0.597500000000025;82;0.625;violin
288.6;1.197499999999991;75;0.625;violin
288.6;1.197499999999991;87;0.625;violin
289.8;0.29750000000001364;58;0.625;violin
290.1;0.14749999999997954;60;0.625;violin
290.25;0.14749999999997954;62;0.625;violin
290.40000000000003;1.197499999999991;63;0.625;violin
291.6;0.5974999999999682;70;0.625;violin
291.6;0.5974999999999682;82;0.625;violin
292.2;1.197499999999991;79;0.625;violin
292.2;1.197499999999991;91;0.625;violin
293.40000000000003;0.11749999999994998;58;0.625;violin
293.52;0.11750000000000682;60;0.625;violin
293.64;0.11750000000000682;62;0.625;violin
293.76;0.11750000000000682;63;0.625;violin
293.88;0.11750000000000682;65;0.625;violin
294.0;1.197499999999991;67;0.625;violin
295.2;0.29750000000001364;82;0.625;violin
295.2;0.29750000000001364;94;0.625;violin
295.8;1.197499999999991;55;0.625;violin
295.8;1.197499999999991;70;0.625;violin
297.0;0.597500000000025;56;0.625;violin
297.0;0.597500000000025;68;0.625;violin
297.6;1.7974999999999568;58;0.625;violin
297.6;1.197499999999991;67;0.625;violin
298.8;0.0724999999999909;65;0.625;violin
298.875;0.0724999999999909;67;0.625;violin
298.95;0.0724999999999909;65;0.625;violin
299.02500000000003;0.0724999999999909;67;0.625;violin
299.1;0.0724999999999909;65;0.625;violin
299.175;0.0724999999999909;67;0.625;violin
299.25;0.0724999999999909;65;0.625;violin
299.325;0.0724999999999909;67;0.625;violin
299.40000000000003;1.7974999999999568;55;0.625;violin
299.40000000000003;1.7974999999999568;63;0.625;violin
299.40000000000003;1.7974999999999568;75;0.625;violin
