start;duration;pitch;velocity;instrument
0.0;0.27159113541666663;69;0.3828125;violin
0.40909124999999996;0.13522738541666662;69;0.3828125;violin
0.5454549999999999;0.13522738541666668;69;0.3828125;violin
0.6818187499999999;0.13522738541666668;72;0.3828125;violin
0.8181824999999999;0.13522738541666668;71;0.3828125;violin
0.9545462499999999;0.13522738541666657;69;0.3828125;violin
1.0909099999999998;0.2715911354166667;76;0.3828125;violin
1.5000012499999997;0.1352273854166668;64;0.3828125;violin
1.6363649999999998;0.13522738541666657;64;0.3828125;violin
1.7727287499999997;0.1352273854166668;68;0.3828125;violin
1.9090924999999999;0.13522738541666657;66;0.3828125;violin
2.0454562499999995;0.135227385416667;64;0.3828125;violin
2.1818199999999996;0.2715911354166667;69;0.3828125;violin
2.5909112499999996;0.13522738541666657;69;0.3828125;violin
2.7272749999999997;0.13522738541666657;69;0.3828125;violin
2.86363875;0.13522738541666657;72;0.3828125;violin
3.0000024999999995;0.135227385416667;71;0.3828125;violin
3.1363662499999996;0.13522738541666657;69;0.3828125;violin
3.2727299999999997;0.5443186354166665;76;0.5703125;violin
3.8181849999999997;0.27159113541666624;64;0.3828125;violin
4.363639999999999;0.27159113541666713;69;0.3828125;violin
4.77273125;0.13522738541666612;69;0.3828125;violin
4.909095;0.13522738541666612;69;0.3828125;violin
5.045458749999999;0.135227385416667;72;0.3828125;violin
5.181822499999999;0.135227385416667;71;0.3828125;violin
5.318186249999999;0.135227385416667;69;0.3828125;violin
5.454549999999999;0.27159113541666624;76;0.3828125;violin
5.86364125;0.13522738541666612;64;0.3828125;violin
6.000004999999999;0.135227385416667;64;0.3828125;violin
6.136368749999999;0.135227385416667;68;0.3828125;violin
6.272732499999999;0.135227385416667;66;0.3828125;violin
6.409096249999999;0.135227385416667;64;0.3828125;violin
6.545459999999999;0.27159113541666624;69;0.3828125;violin
6.954551249999999;0.135227385416667;69;0.3828125;violin
7.090914999999999;0.135227385416667;69;0.3828125;violin
7.227278749999999;0.135227385416667;72;0.3828125;violin
7.363642499999999;0.13522738541666612;71;0.3828125;violin
7.500006249999999;0.13522738541666612;69;0.3828125;violin
7.636369999999999;0.5443186354166656;76;0.5703125;violin
8.181824999999998;0.27159113541666713;64;0.3828125;violin
8.727279999999999;0.27159113541666713;81;0.3828125;violin
9.136371249999998;0.1352273854166679;81;0.3828125;violin
9.272734999999999;0.13522738541666612;81;0.3828125;violin
9.409098749999998;0.1352273854166679;82;0.3828125;violin
9.5454625;0.13522738541666612;81;0.3828125;violin
9.681826249999999;0.13522738541666612;79;0.3828125;violin
9.81819;0.27159113541666535;77;0.3828125;violin
10.227281249999999;0.13522738541666612;74;0.3828125;violin
10.363644999999998;0.1352273854166679;74;0.3828125;violin
10.50000875;0.13522738541666612;77;0.3828125;violin
10.636372499999998;0.13522738541666612;76;0.3828125;violin
10.77273625;0.13522738541666612;74;0.3828125;violin
10.909099999999999;0.27159113541666713;79;0.3828125;violin
11.318191249999998;0.1352273854166679;79;0.3828125;violin
11.454555;0.13522738541666612;79;0.3828125;violin
11.590918749999998;0.13522738541666612;81;0.3828125;violin
11.7272825;0.13522738541666612;79;0.3828125;violin
11.863646249999999;0.13522738541666612;77;0.3828125;violin
12.000009999999998;0.27159113541666713;76;0.3828125;violin
12.409101249999999;0.13522738541666612;72;0.3828125;violin
12.545464999999998;0.13522738541666612;72;0.3828125;violin
12.68182875;0.13522738541666612;76;0.3828125;violin
12.818192499999999;0.13522738541666612;74;0.3828125;violin
12.954556249999998;0.1352273854166679;72;0.3828125;violin
13.090919999999999;0.27159113541666713;77;0.3828125;violin
13.500011249999998;0.13522738541666612;71;0.3828125;violin
13.636374999999997;0.1352273854166679;71;0.3828125;violin
13.772738749999998;0.13522738541666612;74;0.3828125;violin
13.909102499999998;0.1352273854166679;72;0.3828125;violin
14.045466249999999;0.13522738541666612;71;0.3828125;violin
14.181829999999998;0.27159113541666713;76;0.3828125;violin
14.590921249999997;0.1352273854166679;69;0.3828125;violin
14.727284999999998;0.13522738541666612;69;0.3828125;violin
14.863648749999998;0.1352273854166679;72;0.3828125;violin
15.000012499999999;0.13522738541666612;71;0.3828125;violin
15.136376249999998;0.13522738541666612;69;0.3828125;violin
15.272739999999999;0.27159113541666535;65;0.3828125;violin
15.681831249999998;0.13522738541666612;75;0.3828125;violin
15.818194999999998;0.1352273854166679;64;0.3828125;violin
15.954558749999999;0.13522738541666435;76;0.3828125;violin
16.090922499999998;0.13522738541666612;74;0.3828125;violin
16.22728625;0.13522738541666612;71;0.3828125;violin
16.363649999999996;0.5443186354166691;69;0.5703125;violin
16.909104999999997;0.27159113541666713;57;0.3828125;violin
18.454559999999997;0.04431821874999997;81;0.9921875;violin
18.500014583333332;0.04431821874999997;84;0.9921875;violin
18.545469166666663;0.18068196875000098;88;0.9921875;violin
18.63637833333333;0.08977280208333482;84;0.75;violin
18.818196666666665;0.08977280208333127;81;0.75;violin
19.000014999999998;0.08977280208333127;76;0.75;violin
19.18183333333333;0.08977280208333482;72;0.75;violin
19.363651666666662;0.08977280208333482;69;0.75;violin
19.545469999999998;0.04431821874999997;76;0.9921875;violin
19.59092458333333;0.04431821874999997;80;0.9921875;violin
19.636379166666664;0.18068196875000098;83;0.9921875;violin
19.72728833333333;0.08977280208333482;80;0.75;violin
19.909106666666663;0.08977280208333482;76;0.75;violin
20.090925;0.08977280208333127;71;0.75;violin
20.27274333333333;0.08977280208333127;68;0.75;violin
20.454561666666663;0.08977280208333482;64;0.75;violin
20.636379999999996;0.04431821874999997;81;0.9921875;violin
20.68183458333333;0.04431821874999997;84;0.9921875;violin
20.727289166666665;0.18068196874999742;88;0.9921875;violin
20.81819833333333;0.08977280208333127;84;0.75;violin
21.000016666666664;0.08977280208333482;81;0.75;violin
21.181834999999996;0.08977280208333482;76;0.75;violin
21.363653333333332;0.08977280208333127;72;0.75;violin
21.545471666666664;0.08977280208333127;69;0.75;violin
21.727289999999996;0.5443186354166656;76;0.9921875;violin
22.272744999999997;0.27159113541666713;64;0.75;violin
22.818199999999997;0.04431821874999997;81;0.9921875;violin
22.86365458333333;0.04431821874999997;84;0.9921875;violin
22.909109166666664;0.18068196875000098;88;0.9921875;violin
23.00001833333333;0.08977280208333482;84;0.75;violin
23.181836666666662;0.08977280208333482;81;0.75;violin
23.363654999999998;0.08977280208333127;76;0.75;violin
23.54547333333333;0.08977280208333482;72;0.75;violin
23.727291666666662;0.08977280208333482;69;0.75;violin
23.90911;0.04431821874999997;76;0.9921875;violin
23.95456458333333;0.04431821874999997;80;0.9921875;violin
24.000019166666664;0.18068196874999742;83;0.9921875;violin
24.09092833333333;0.08977280208333127;80;0.75;violin
24.272746666666663;0.08977280208333482;76;0.75;violin
24.454564999999995;0.08977280208333482;71;0.75;violin
24.63638333333333;0.08977280208333127;68;0.75;violin
24.818201666666663;0.08977280208333482;64;0.75;violin
25.000019999999996;0.04431821874999997;81;0.9921875;violin
25.04547458333333;0.04431821874999997;84;0.9921875;violin
25.090929166666662;0.18068196875000098;88;0.9921875;violin
25.18183833333333;0.08977280208333127;84;0.75;violin
25.363656666666664;0.08977280208333127;81;0.75;violin
25.545474999999996;0.08977280208333127;76;0.75;violin
25.72729333333333;0.08977280208333482;72;0.75;violin
25.90911166666666;0.08977280208333482;69;0.75;violin
26.090929999999997;0.5443186354166656;76;0.9921875;violin
26.636384999999997;0.2715911354166636;64;0.75;violin
27.181839999999994;0.04431821874999997;85;0.75;violin
27.22729458333333;0.04431821874999997;88;0.75;violin
27.272749166666664;0.18068196875000098;93;0.75;violin
27.36365833333333;0.08977280208333482;88;0.75;violin
27.545476666666662;0.08977280208333482;85;0.75;violin
27.727294999999998;0.08977280208333127;81;0.75;violin
27.90911333333333;0.08977280208333127;76;0.75;violin
28.090931666666663;0.08977280208333127;73;0.75;violin
28.272749999999995;0.04431821874999997;62;0.75;violin
28.31820458333333;0.04431821874999997;65;0.75;violin
28.363659166666665;0.18068196874999742;69;0.75;violin
28.454568333333327;0.08977280208333482;74;0.75;violin
28.636386666666663;0.08977280208333482;77;0.75;violin
28.818204999999995;0.08977280208333482;81;0.75;violin
29.00002333333333;0.08977280208333127;86;0.75;violin
29.181841666666664;0.08977280208333127;89;0.75;violin
29.363659999999996;0.04431821874999997;83;0.75;violin
29.409114583333327;0.04431821874999997;86;0.75;violin
29.454569166666662;0.18068196875000098;91;0.75;violin
29.545478333333328;0.08977280208333482;86;0.75;violin
29.72729666666666;0.08977280208333482;83;0.75;violin
29.909114999999996;0.08977280208333482;79;0.75;violin
30.09093333333333;0.08977280208333482;74;0.75;violin
30.272751666666665;0.08977280208333127;71;0.75;violin
30.454569999999997;0.04431821874999997;60;0.75;violin
30.500024583333328;0.04431821874999997;64;0.75;violin
30.545479166666663;0.18068196874999742;67;0.75;violin
30.63638833333333;0.08977280208333127;72;0.75;violin
30.81820666666666;0.08977280208333482;76;0.75;violin
31.000024999999994;0.08977280208333482;79;0.75;violin
31.18184333333333;0.08977280208333482;84;0.75;violin
31.363661666666662;0.08977280208333482;88;0.75;violin
31.545479999999998;0.04431821874999997;89;0.75;violin
31.59093458333333;0.04431821874999997;86;0.75;violin
31.63638916666666;0.18068196875000098;83;0.75;violin
31.72729833333333;0.08977280208333127;80;0.75;violin
31.909116666666662;0.08977280208333127;77;0.75;violin
32.090934999999995;0.08977280208333838;74;0.75;violin
32.27275333333333;0.08977280208333127;71;0.75;violin
32.454571666666666;0.08977280208333127;68;0.75;violin
32.63638999999999;0.04431821875000708;88;0.75;violin
32.68184458333333;0.04431821874999997;84;0.75;violin
32.72729916666666;0.18068196875000098;81;0.75;violin
32.81820833333333;0.08977280208333127;76;0.75;violin
33.00002666666666;0.08977280208333127;72;0.75;violin
33.181844999999996;0.08977280208333127;69;0.75;violin
33.36366333333333;0.08977280208333838;64;0.75;violin
33.54548166666666;0.08977280208333127;60;0.75;violin
33.7273;0.044318218749992866;62;0.75;violin
33.77275458333333;0.04431821874999997;65;0.75;violin
33.81820916666666;0.18068196875000098;71;0.75;violin
33.909118333333325;0.18068196875000808;74;0.75;violin
34.090936666666664;0.18068196874999387;77;0.75;violin
34.272755;0.18068196875000098;64;0.75;violin
34.45457333333333;0.18068196875000098;76;0.75;violin
34.63639166666666;0.18068196875000098;68;0.75;violin
34.81820999999999;0.5443186354166727;69;0.9921875;violin
35.363665;0.2715911354166636;57;0.75;violin
36.909119999999994;0.13522738541666968;69;0.3828125;violin
37.045483749999995;0.13522738541666257;68;0.3828125;violin
37.181847499999996;0.13522738541666257;69;0.3828125;violin
37.31821125;0.13522738541666257;68;0.3828125;violin
37.45457499999999;0.06363641666666808;70;0.5703125;violin
37.51934778124999;0.13522738541666968;69;0.5703125;violin
37.59093874999999;0.13522738541666968;71;0.3828125;violin
37.72730249999999;0.13522738541666968;72;0.3828125;violin
37.863666249999994;0.13522738541666968;74;0.3828125;violin
38.000029999999995;0.13522738541666257;76;0.3828125;violin
38.136393749999996;0.13522738541666257;75;0.3828125;violin
38.2727575;0.13522738541666257;76;0.3828125;violin
38.40912124999999;0.13522738541666968;75;0.3828125;violin
38.54548499999999;0.06363641666666808;77;0.5703125;violin
38.61025778124999;0.13522738541666968;76;0.5703125;violin
38.68184874999999;0.13522738541666968;74;0.3828125;violin
38.818212499999994;0.13522738541666968;72;0.3828125;violin
38.954576249999995;0.13522738541666257;71;0.3828125;violin
39.090939999999996;0.13522738541666257;69;0.3828125;violin
39.22730375;0.13522738541666257;68;0.3828125;violin
39.36366749999999;0.13522738541666968;69;0.3828125;violin
39.50003124999999;0.13522738541666968;68;0.3828125;violin
39.63639499999999;0.06363641666666808;70;0.5703125;violin
39.70116778124999;0.13522738541666968;69;0.5703125;violin
39.772758749999994;0.13522738541666968;71;0.3828125;violin
39.909122499999995;0.13522738541666257;72;0.3828125;violin
40.045486249999996;0.13522738541666257;74;0.3828125;violin
40.18185;0.13522738541666257;76;0.3828125;violin
40.31821374999999;0.13522738541666968;75;0.3828125;violin
40.45457749999999;0.13522738541666968;76;0.3828125;violin
40.59094124999999;0.13522738541666968;75;0.3828125;violin
40.727304999999994;0.06363641666666808;77;0.3828125;violin
40.79207778124999;0.2715911354166636;76;0.3828125;violin
41.000032499999996;0.2715911354166636;64;0.3828125;violin
41.27275999999999;0.13522738541666968;69;0.3828125;violin
41.40912374999999;0.13522738541666968;68;0.3828125;violin
41.54548749999999;0.13522738541666968;69;0.3828125;violin
41.681851249999994;0.13522738541666968;68;0.3828125;violin
41.818214999999995;0.06363641666666808;70;0.5703125;violin
41.882987781249994;0.13522738541666968;69;0.5703125;violin
41.954578749999996;0.13522738541666257;71;0.3828125;violin
42.0909425;0.13522738541666257;72;0.3828125;violin
42.22730624999999;0.13522738541666968;74;0.3828125;violin
42.36366999999999;0.13522738541666968;76;0.3828125;violin
42.50003374999999;0.13522738541666968;75;0.3828125;violin
42.636397499999994;0.13522738541666257;76;0.3828125;violin
42.772761249999995;0.13522738541666257;75;0.3828125;violin
42.909124999999996;0.06363641666666098;77;0.5703125;violin
42.973897781249995;0.13522738541666257;76;0.5703125;violin
43.04548874999999;0.13522738541666968;74;0.3828125;violin
43.18185249999999;0.13522738541666968;72;0.3828125;violin
43.31821624999999;0.13522738541666968;71;0.3828125;violin
43.45457999999999;0.13522738541666968;69;0.3828125;violin
43.590943749999994;0.13522738541666968;68;0.3828125;violin
43.727307499999995;0.13522738541666257;69;0.3828125;violin
43.863671249999996;0.13522738541666257;68;0.3828125;violin
44.000035;0.06363641666666098;70;0.5703125;violin
44.064807781249996;0.13522738541666257;69;0.5703125;violin
44.13639874999999;0.13522738541666968;71;0.3828125;violin
44.27276249999999;0.13522738541666968;72;0.3828125;violin
44.40912624999999;0.13522738541666968;74;0.3828125;violin
44.545489999999994;0.13522738541666257;76;0.3828125;violin
44.681853749999995;0.13522738541666257;75;0.3828125;violin
44.818217499999996;0.13522738541666257;76;0.3828125;violin
44.95458124999999;0.13522738541666968;75;0.3828125;violin
45.09094499999999;0.06363641666666808;77;0.3828125;violin
45.15571778124999;0.2715911354166707;76;0.3828125;violin
45.36367249999999;0.2715911354166707;64;0.3828125;violin
45.636399999999995;0.13522738541666257;81;0.3828125;violin
45.772763749999996;0.13522738541666257;80;0.3828125;violin
45.9091275;0.13522738541666257;81;0.3828125;violin
46.04549124999999;0.13522738541666968;80;0.3828125;violin
46.18185499999999;0.06363641666666808;82;0.3828125;violin
46.24662778124999;0.13522738541666968;81;0.3828125;violin
46.31821874999999;0.13522738541666968;79;0.3828125;violin
46.454582499999994;0.13522738541666257;77;0.3828125;violin
46.590946249999995;0.13522738541666257;76;0.3828125;violin
46.727309999999996;0.13522738541666257;74;0.3828125;violin
46.86367374999999;0.13522738541666968;73;0.3828125;violin
47.00003749999999;0.13522738541666968;74;0.3828125;violin
47.13640124999999;0.13522738541666968;73;0.3828125;violin
47.27276499999999;0.06363641666666808;75;0.3828125;violin
47.33753778124999;0.13522738541666968;74;0.3828125;violin
47.409128749999994;0.13522738541666968;76;0.3828125;violin
47.545492499999995;0.13522738541666257;77;0.3828125;violin
47.681856249999996;0.13522738541666257;74;0.3828125;violin
47.81822;0.13522738541666257;79;0.3828125;violin
47.95458374999999;0.13522738541666968;78;0.3828125;violin
48.09094749999999;0.13522738541666968;79;0.3828125;violin
48.22731124999999;0.13522738541666968;78;0.3828125;violin
48.36367499999999;0.06363641666666808;80;0.3828125;violin
48.42844778124999;0.13522738541666257;79;0.3828125;violin
48.500038749999995;0.13522738541666257;77;0.3828125;violin
48.636402499999996;0.13522738541666257;76;0.3828125;violin
48.77276624999999;0.13522738541666968;74;0.3828125;violin
48.90912999999999;0.13522738541666968;72;0.3828125;violin
49.04549374999999;0.13522738541666968;71;0.3828125;violin
49.18185749999999;0.13522738541666968;72;0.3828125;violin
49.31822124999999;0.13522738541666968;71;0.3828125;violin
49.454584999999994;0.06363641666666808;73;0.3828125;violin
49.519357781249994;0.13522738541666968;72;0.3828125;violin
49.590948749999995;0.13522738541666257;74;0.3828125;violin
49.7273125;0.13522738541666257;76;0.3828125;violin
49.86367624999999;0.13522738541666968;72;0.3828125;violin
50.00003999999999;0.13522738541666968;77;0.3828125;violin
50.13640374999999;0.13522738541666968;76;0.3828125;violin
50.27276749999999;0.13522738541666257;77;0.3828125;violin
50.409131249999994;0.13522738541666257;76;0.3828125;violin
50.54549499999999;0.06363641666666808;79;0.3828125;violin
50.610267781249995;0.13522738541666257;77;0.3828125;violin
50.68185874999999;0.13522738541666968;74;0.3828125;violin
50.81822249999999;0.13522738541666968;72;0.3828125;violin
50.95458624999999;0.13522738541666968;71;0.3828125;violin
51.09094999999999;0.13522738541666968;76;0.3828125;violin
51.22731374999999;0.13522738541666968;75;0.3828125;violin
51.363677499999994;0.13522738541666257;76;0.3828125;violin
51.500041249999995;0.13522738541666257;75;0.3828125;violin
51.636404999999996;0.06363641666666098;77;0.3828125;violin
51.701177781249996;0.13522738541666257;76;0.3828125;violin
51.77276874999999;0.13522738541666968;72;0.3828125;violin
51.90913249999999;0.13522738541666968;71;0.3828125;violin
52.04549624999999;0.13522738541666257;69;0.3828125;violin
52.18185999999999;0.13522738541666257;71;0.3828125;violin
52.318223749999994;0.13522738541666257;70;0.3828125;violin
52.45458749999999;0.13522738541666968;71;0.3828125;violin
52.59095124999999;0.13522738541666968;70;0.3828125;violin
52.72731499999999;0.06363641666666808;72;0.3828125;violin
52.79208778124999;0.13522738541666968;71;0.3828125;violin
52.86367874999999;0.13522738541666968;77;0.3828125;violin
53.00004249999999;0.13522738541666968;76;0.3828125;violin
53.13640624999999;0.13522738541666968;68;0.3828125;violin
53.272769999999994;0.13522738541666968;69;0.3828125;violin
53.409133749999995;0.13522738541666257;68;0.3828125;violin
53.545497499999996;0.13522738541666257;69;0.3828125;violin
53.68186125;0.13522738541666257;68;0.3828125;violin
53.81822499999999;0.06363641666666808;71;0.3828125;violin
53.88299778125;0.27159113541665647;69;0.3828125;violin
55.36367999999999;0.9986116104166669;60;0.75;violin
55.36367999999999;0.9986116104166669;72;0.75;violin
56.36368049999999;0.3319446104166701;57;0.75;violin
56.36368049999999;0.3319446104166701;69;0.75;violin
56.69701399999999;0.331944610416663;56;0.9921875;violin
56.69701399999999;0.331944610416663;68;0.9921875;violin
57.03034749999999;0.331944610416663;59;0.75;violin
57.03034749999999;0.331944610416663;71;0.75;violin
57.363680999999985;0.6652781104166721;64;0.75;violin
57.363680999999985;0.6652781104166721;76;0.75;violin
58.03034799999999;0.9986116104166669;60;0.75;violin
58.03034799999999;0.9986116104166669;72;0.75;violin
59.03034849999999;0.3319446104166701;57;0.75;violin
59.03034849999999;0.3319446104166701;69;0.75;violin
59.36368199999999;0.331944610416663;59;0.9921875;violin
59.36368199999999;0.331944610416663;71;0.9921875;violin
59.69701549999999;0.331944610416663;63;0.9921875;violin
59.69701549999999;0.331944610416663;75;0.9921875;violin
60.03034899999999;0.3319446104166701;65;0.9921875;violin
60.03034899999999;0.3319446104166701;77;0.9921875;violin
60.36368249999999;0.331944610416663;64;0.9921875;violin
60.36368249999999;0.331944610416663;76;0.9921875;violin
60.69701599999999;0.9986116104166669;60;0.75;violin
60.69701599999999;0.9986116104166669;72;0.75;violin
61.69701649999999;0.331944610416663;57;0.75;violin
61.69701649999999;0.331944610416663;69;0.75;violin
62.030349999999984;0.3319446104166701;56;0.9921875;violin
62.030349999999984;0.3319446104166701;68;0.9921875;violin
62.363683499999986;0.3319446104166701;59;0.75;violin
62.363683499999986;0.3319446104166701;71;0.75;violin
62.69701699999999;0.665278110416665;64;0.75;violin
62.69701699999999;0.665278110416665;76;0.75;violin
63.36368399999999;0.9986116104166598;60;0.75;violin
63.36368399999999;0.9986116104166598;72;0.75;violin
64.36368449999999;0.3319446104166701;57;0.75;violin
64.36368449999999;0.3319446104166701;69;0.75;violin
64.69701799999999;0.3319446104166701;59;0.9921875;violin
64.69701799999999;0.3319446104166701;71;0.9921875;violin
65.0303515;0.3319446104166559;63;0.9921875;violin
65.0303515;0.3319446104166559;75;0.9921875;violin
65.36368499999999;0.3319446104166701;65;0.9921875;violin
65.36368499999999;0.3319446104166701;77;0.9921875;violin
65.69701849999998;0.3319446104166701;64;0.9921875;violin
65.69701849999998;0.3319446104166701;76;0.9921875;violin
66.030352;0.9986116104166598;69;0.75;violin
66.030352;0.9986116104166598;81;0.75;violin
67.03035249999999;0.3319446104166559;61;0.75;violin
67.03035249999999;0.3319446104166559;73;0.75;violin
67.36368599999999;0.3319446104166701;62;0.9921875;violin
67.36368599999999;0.3319446104166701;74;0.9921875;violin
67.69701949999998;0.3319446104166701;64;0.9921875;violin
67.69701949999998;0.3319446104166701;76;0.9921875;violin
68.03035299999999;0.3319446104166701;65;0.9921875;violin
68.03035299999999;0.3319446104166701;77;0.9921875;violin
68.36368649999999;0.3319446104166701;66;0.9921875;violin
68.36368649999999;0.3319446104166701;78;0.9921875;violin
68.69701999999998;0.998611610416674;67;0.75;violin
68.69701999999998;0.998611610416674;79;0.75;violin
69.6970205;0.3319446104166559;59;0.75;violin
69.6970205;0.3319446104166559;71;0.75;violin
70.03035399999999;0.3319446104166701;60;0.9921875;violin
70.03035399999999;0.3319446104166701;72;0.9921875;violin
70.36368749999998;0.3319446104166701;62;0.9921875;violin
70.36368749999998;0.3319446104166701;74;0.9921875;violin
70.69702099999999;0.3319446104166701;63;0.9921875;violin
70.69702099999999;0.3319446104166701;75;0.9921875;violin
71.03035449999999;0.3319446104166701;64;0.9921875;violin
71.03035449999999;0.3319446104166701;76;0.9921875;violin
71.363688;0.9986116104166598;65;0.75;violin
71.363688;0.9986116104166598;77;0.75;violin
72.3636885;0.3319446104166559;59;0.75;violin
72.3636885;0.3319446104166559;71;0.75;violin
72.69702199999999;0.9986116104166598;64;0.75;violin
72.69702199999999;0.9986116104166598;76;0.75;violin
73.69702249999999;0.3319446104166701;57;0.75;violin
73.69702249999999;0.3319446104166701;69;0.75;violin
74.03035599999998;0.3319446104166701;59;0.75;violin
74.03035599999998;0.3319446104166701;71;0.75;violin
74.36368949999999;0.3319446104166559;65;0.75;violin
74.36368949999999;0.3319446104166559;77;0.75;violin
74.69702299999999;0.3319446104166701;64;0.75;violin
74.69702299999999;0.3319446104166701;76;0.75;violin
75.03035649999998;0.3319446104166701;56;0.75;violin
75.03035649999998;0.3319446104166701;68;0.75;violin
75.36368999999999;0.665278110416665;59;0.75;violin
75.36368999999999;0.665278110416665;71;0.75;violin
76.03035699999998;0.3319446104166701;57;0.75;violin
76.03035699999998;0.3319446104166701;69;0.75;violin
77.69702399999998;0.11442296250000084;81;0.3828125;violin
77.81240849999999;0.11442296250000084;93;0.3828125;violin
77.92779299999998;0.11442296250000084;92;0.3828125;violin
78.04317749999998;0.11442296250000084;91;0.3828125;violin
78.15856199999999;0.11442296250000084;90;0.3828125;violin
78.27394649999998;0.11442296250000084;89;0.3828125;violin
78.38933099999998;0.11442296250000084;88;0.3828125;violin
78.50471549999999;0.11442296250000084;87;0.3828125;violin
78.62009999999998;0.11442296250000084;89;0.3828125;violin
78.73548449999998;0.11442296250000084;88;0.3828125;violin
78.85086899999999;0.11442296250000084;87;0.3828125;violin
78.96625349999998;0.11442296250000084;89;0.3828125;violin
79.08163799999998;0.11442296250000084;88;0.3828125;violin
79.19702249999999;0.11442296250000084;83;0.3828125;violin
79.31240699999998;0.11442296250000084;80;0.3828125;violin
79.42779149999998;0.11442296250000084;76;0.3828125;violin
79.54317599999999;0.11442296250000084;81;0.3828125;violin
79.65856049999998;0.11442296250000084;93;0.3828125;violin
79.77394499999998;0.11442296250000084;92;0.3828125;violin
79.88932949999999;0.11442296250000084;91;0.3828125;violin
80.00471399999998;0.11442296250000084;90;0.3828125;violin
80.12009849999998;0.11442296250000084;89;0.3828125;violin
80.23548299999999;0.11442296250000084;88;0.3828125;violin
80.35086749999998;0.11442296250000084;87;0.3828125;violin
80.46625199999998;0.11442296250000084;89;0.3828125;violin
80.58163649999999;0.11442296250000084;88;0.3828125;violin
80.69702099999998;0.11442296250000084;87;0.3828125;violin
80.81240549999998;0.11442296250000084;89;0.3828125;violin
80.92778999999999;0.2298074624999913;88;0.3828125;violin
81.15855899999998;0.2298074625000055;76;0.3828125;violin
81.38932799999998;0.11442296250000084;81;0.3828125;violin
81.50471249999998;0.11442296250000084;93;0.3828125;violin
81.62009699999999;0.11442296250000084;92;0.3828125;violin
81.73548149999999;0.11442296249998662;91;0.3828125;violin
81.85086599999998;0.11442296250000084;90;0.3828125;violin
81.96625049999999;0.11442296250000084;89;0.3828125;violin
82.08163499999998;0.11442296250000084;88;0.3828125;violin
82.19701949999998;0.11442296250000084;87;0.3828125;violin
82.31240399999999;0.11442296250000084;89;0.3828125;violin
82.42778849999999;0.11442296249998662;88;0.3828125;violin
82.54317299999998;0.11442296250000084;87;0.3828125;violin
82.65855749999999;0.11442296250000084;89;0.3828125;violin
82.77394199999998;0.11442296250000084;88;0.3828125;violin
82.88932649999998;0.11442296250000084;83;0.3828125;violin
83.00471099999999;0.11442296250000084;80;0.3828125;violin
83.12009549999999;0.11442296249998662;76;0.3828125;violin
83.23547999999998;0.11442296250000084;81;0.3828125;violin
83.35086449999999;0.11442296250000084;93;0.3828125;violin
83.46624899999999;0.11442296250000084;92;0.3828125;violin
83.58163349999998;0.11442296250000084;91;0.3828125;violin
83.69701799999999;0.11442296250000084;90;0.3828125;violin
83.81240249999999;0.11442296249998662;89;0.3828125;violin
83.92778699999998;0.11442296250000084;88;0.3828125;violin
84.04317149999999;0.11442296250000084;87;0.3828125;violin
84.15855599999999;0.11442296250000084;89;0.3828125;violin
84.27394049999998;0.11442296250000084;88;0.3828125;violin
84.38932499999999;0.11442296250000084;87;0.3828125;violin
84.50470949999999;0.11442296249998662;89;0.3828125;violin
84.62009399999998;0.2298074625000055;88;0.3828125;violin
84.85086299999999;0.2298074624999913;76;0.3828125;violin
85.08163199999998;0.11442296250000084;81;0.3828125;violin
85.19701649999999;0.11442296250000084;93;0.3828125;violin
85.31240099999998;0.11442296250000084;92;0.3828125;violin
85.42778549999998;0.11442296250000084;91;0.3828125;violin
85.54316999999999;0.11442296250000084;90;0.3828125;violin
85.65855449999998;0.11442296250000084;89;0.3828125;violin
85.77393899999998;0.11442296250000084;88;0.3828125;violin
85.88932349999999;0.11442296250000084;86;0.3828125;violin
86.00470799999998;0.11442296250000084;85;0.3828125;violin
86.12009249999998;0.11442296250000084;88;0.3828125;violin
86.23547699999999;0.11442296250000084;81;0.3828125;violin
86.35086149999998;0.11442296250000084;85;0.3828125;violin
86.46624599999998;0.11442296250000084;86;0.3828125;violin
86.58163049999999;0.11442296250000084;81;0.3828125;violin
86.69701499999998;0.11442296250000084;77;0.3828125;violin
86.81239949999998;0.11442296250000084;74;0.3828125;violin
86.92778399999999;0.11442296250000084;79;0.3828125;violin
87.04316849999998;0.11442296250000084;91;0.3828125;violin
87.15855299999998;0.11442296250000084;90;0.3828125;violin
87.27393749999999;0.11442296250000084;89;0.3828125;violin
87.38932199999998;0.11442296250000084;88;0.3828125;violin
87.50470649999998;0.11442296250000084;87;0.3828125;violin
87.62009099999999;0.11442296250000084;86;0.3828125;violin
87.73547549999998;0.11442296250000084;84;0.3828125;violin
87.85085999999998;0.11442296250000084;83;0.3828125;violin
87.96624449999999;0.11442296250000084;86;0.3828125;violin
88.08162899999998;0.11442296250000084;79;0.3828125;violin
88.19701349999998;0.11442296250000084;83;0.3828125;violin
88.31239799999999;0.11442296250000084;84;0.3828125;violin
88.42778249999998;0.11442296250000084;79;0.3828125;violin
88.54316699999998;0.11442296250000084;76;0.3828125;violin
88.65855149999999;0.11442296250000084;72;0.3828125;violin
88.77393599999998;0.11442296250000084;77;0.3828125;violin
88.88932049999998;0.11442296250000084;89;0.3828125;violin
89.00470499999999;0.11442296250000084;88;0.3828125;violin
89.12008949999998;0.11442296250000084;87;0.3828125;violin
89.23547399999998;0.11442296250000084;86;0.3828125;violin
89.35085849999999;0.11442296250000084;85;0.3828125;violin
89.46624299999998;0.11442296250000084;84;0.3828125;violin
89.58162749999998;0.11442296250000084;83;0.3828125;violin
89.69701199999999;0.11442296250000084;76;0.3828125;violin
89.81239649999998;0.11442296250000084;88;0.3828125;violin
89.92778099999998;0.11442296250000084;87;0.3828125;violin
90.04316549999999;0.11442296250000084;86;0.3828125;violin
90.15854999999999;0.11442296249998662;85;0.3828125;violin
90.27393449999998;0.11442296250000084;84;0.3828125;violin
90.38931899999999;0.11442296250000084;83;0.3828125;violin
90.50470349999998;0.11442296250000084;81;0.3828125;violin
90.62008799999998;0.11442296250000084;77;0.3828125;violin
90.73547249999999;0.11442296250000084;76;0.3828125;violin
90.85085699999999;0.11442296249998662;75;0.3828125;violin
90.96624149999998;0.11442296250000084;74;0.3828125;violin
91.08162599999999;0.11442296250000084;73;0.3828125;violin
91.19701049999998;0.11442296250000084;72;0.3828125;violin
91.31239499999998;0.11442296250000084;71;0.3828125;violin
91.42777949999999;0.11442296250000084;68;0.3828125;violin
91.54316399999999;0.11442296249998662;69;0.3828125;violin
91.65854849999998;0.11442296250000084;93;0.3828125;violin
91.77393299999999;0.11442296250000084;88;0.3828125;violin
91.88931749999998;0.11442296250001505;84;0.3828125;violin
92.00470199999998;0.11442296250000084;81;0.3828125;violin
92.12008649999999;0.11442296250000084;76;0.3828125;violin
92.23547099999999;0.11442296249998662;72;0.3828125;violin
92.35085549999998;0.11442296250000084;69;0.3828125;violin
92.46623999999998;0.2298074625000055;57;0.9921875;violin
92.69700899999998;0.11442296250000084;77;0.75;violin
92.81239349999998;0.11442296250000084;65;0.75;violin
92.92777799999999;0.11442296249998662;76;0.75;violin
93.04316249999998;0.11442296250000084;64;0.75;violin
93.15854699999998;0.2298074625000055;57;0.9921875;violin
93.38931599999998;0.2298074625000055;56;0.75;violin
93.62008499999999;0.11442296249998662;87;0.75;violin
93.73546949999998;0.11442296250000084;75;0.75;violin
93.85085399999998;0.11442296250000084;88;0.75;violin
93.96623849999997;0.11442296250001505;76;0.75;violin
94.08162299999998;0.2298074625000055;56;0.9921875;violin
94.31239199999999;0.2298074624999913;57;0.75;violin
94.54316099999998;0.11442296250000084;77;0.75;violin
94.65854549999997;0.11442296250001505;65;0.75;violin
94.77392999999998;0.11442296250000084;76;0.75;violin
94.88931449999998;0.11442296250000084;64;0.75;violin
95.00469899999999;0.2298074624999913;57;0.9921875;violin
95.23546799999998;0.2298074625000055;56;0.75;violin
95.46623699999998;0.11442296250000084;87;0.75;violin
95.58162149999998;0.11442296250000084;75;0.75;violin
95.69700599999999;0.11442296249998662;88;0.75;violin
95.81239049999998;0.11442296250000084;76;0.75;violin
96.15854399999998;0.2298074625000055;57;0.9921875;violin
96.38931299999999;0.11442296250000084;77;0.75;violin
96.50469749999998;0.11442296250000084;65;0.75;violin
96.62008199999998;0.11442296250000084;76;0.75;violin
96.73546649999999;0.11442296250000084;64;0.75;violin
96.85085099999998;0.2298074625000055;57;0.9921875;violin
97.08161999999999;0.2298074624999913;56;0.75;violin
97.31238899999998;0.11442296250000084;87;0.75;violin
97.42777349999999;0.11442296250000084;75;0.75;violin
97.54315799999998;0.11442296250000084;88;0.75;violin
97.65854249999998;0.11442296250000084;76;0.75;violin
97.77392699999999;0.2298074624999913;56;0.9921875;violin
98.00469599999998;0.2298074625000055;57;0.75;violin
98.23546499999998;0.11442296250000084;77;0.75;violin
98.35084949999998;0.11442296250000084;65;0.75;violin
98.46623399999999;0.11442296250000084;76;0.75;violin
98.58161849999999;0.11442296249998662;64;0.75;violin
98.69700299999998;0.2298074625000055;57;0.9921875;violin
98.92777199999998;0.2298074625000055;56;0.75;violin
99.15854099999999;0.11442296250000084;87;0.75;violin
99.27392549999999;0.11442296249998662;75;0.75;violin
99.38930999999998;0.11442296250000084;88;0.75;violin
99.50469449999999;0.11442296250000084;76;0.75;violin
99.85084799999998;0.2298074624999913;61;0.9921875;violin
100.08161699999998;0.11442296250000084;94;0.75;violin
100.19700149999998;0.11442296250000084;82;0.75;violin
100.31238599999998;0.11442296250001505;93;0.75;violin
100.42777049999998;0.11442296250000084;81;0.75;violin
100.54315499999998;0.2298074624999913;61;0.9921875;violin
100.77392399999998;0.2298074625000055;62;0.75;violin
101.00469299999997;0.11442296250001505;76;0.75;violin
101.12007749999998;0.11442296250000084;64;0.75;violin
101.23546199999998;0.11442296250000084;77;0.75;violin
101.35084649999999;0.11442296249998662;65;0.75;violin
101.46623099999998;0.2298074625000055;60;0.9921875;violin
101.69699999999997;0.2298074625000055;59;0.75;violin
101.92776899999998;0.11442296250000084;92;0.75;violin
102.04315349999999;0.11442296249998662;80;0.75;violin
102.15853799999998;0.11442296250000084;91;0.75;violin
102.27392249999998;0.11442296250000084;79;0.75;violin
102.38930699999997;0.2298074625000055;59;0.9921875;violin
102.62007599999998;0.2298074624999913;60;0.75;violin
102.85084499999998;0.11442296250000084;75;0.75;violin
102.96622949999998;0.11442296250000084;63;0.75;violin
103.08161399999997;0.11442296250001505;76;0.75;violin
103.19699849999998;0.11442296250000084;64;0.75;violin
103.31238299999998;0.2298074624999913;60;0.9921875;violin
103.54315199999998;0.2298074625000055;62;0.75;violin
103.77392099999997;0.11442296250001505;83;0.75;violin
103.88930549999998;0.11442296250000084;71;0.75;violin
104.00468999999998;0.11442296250000084;82;0.75;violin
104.12007449999999;0.11442296249998662;70;0.75;violin
104.23545899999998;0.2298074625000055;62;0.9921875;violin
104.46622799999999;0.2298074624999913;64;0.75;violin
104.69699699999998;0.11442296250000084;80;0.75;violin
104.81238149999999;0.11442296249998662;68;0.75;violin
104.92776599999998;0.11442296250000084;81;0.75;violin
105.04315049999998;0.11442296250000084;69;0.75;violin
105.15853499999999;0.2298074624999913;65;0.9921875;violin
105.38930399999998;0.2298074625000055;62;0.75;violin
105.62007299999998;0.11442296250000084;89;0.75;violin
105.73545749999998;0.11442296250000084;77;0.75;violin
105.85084199999999;0.11442296250000084;88;0.75;violin
105.96622649999998;0.11442296250000084;76;0.75;violin
106.08161099999998;0.2298074625000055;64;0.9921875;violin
106.31237999999999;0.2298074624999913;57;0.75;violin
106.54314899999999;0.11442296250000084;84;0.75;violin
106.65853349999998;0.11442296250000084;72;0.75;violin
106.77391799999998;0.11442296250000084;81;0.75;violin
106.88930249999999;0.11442296250000084;69;0.75;violin
108.23545599999999;0.6913454624999957;84;0.75;violin
108.23545599999999;0.6913454624999957;88;0.75;violin
108.92776299999998;0.11442296250000084;83;0.75;violin
108.92776299999998;0.11442296250000084;86;0.75;violin
109.04314749999999;0.11442296250000084;81;0.75;violin
109.04314749999999;0.11442296250000084;84;0.75;violin
109.15853199999998;0.11442296250000084;80;0.75;violin
109.15853199999998;0.11442296250000084;83;0.75;violin
109.27391649999998;0.11442296250000084;77;0.75;violin
109.27391649999998;0.11442296250000084;81;0.75;violin
109.38930099999999;0.11442296250000084;76;0.75;violin
109.38930099999999;0.11442296250000084;80;0.75;violin
109.50468549999998;0.11442296250000084;74;0.75;violin
109.50468549999998;0.11442296250000084;77;0.75;violin
109.62006999999998;0.11442296250000084;72;0.75;violin
109.62006999999998;0.11442296250000084;76;0.75;violin
109.73545449999999;0.11442296250000084;71;0.75;violin
109.73545449999999;0.11442296250000084;74;0.75;violin
109.85083899999998;0.11442296250000084;69;0.75;violin
109.85083899999998;0.11442296250000084;72;0.75;violin
109.96622349999998;0.11442296250000084;68;0.75;violin
109.96622349999998;0.11442296250000084;71;0.75;violin
110.08160799999999;0.6913454624999957;69;0.75;violin
110.08160799999999;0.6913454624999957;72;0.75;violin
110.77391499999999;0.11442296250000084;71;0.75;violin
110.77391499999999;0.11442296250000084;74;0.75;violin
110.88929949999998;0.11442296250000084;72;0.75;violin
110.88929949999998;0.11442296250000084;76;0.75;violin
111.00468399999998;0.11442296250000084;71;0.75;violin
111.00468399999998;0.11442296250000084;74;0.75;violin
111.12006849999999;0.11442296250000084;69;0.75;violin
111.12006849999999;0.11442296250000084;72;0.75;violin
111.23545299999998;0.11442296250000084;68;0.75;violin
111.23545299999998;0.11442296250000084;71;0.75;violin
111.35083749999998;0.11442296250000084;65;0.75;violin
111.35083749999998;0.11442296250000084;69;0.75;violin
111.46622199999999;0.4605764625000006;64;0.75;violin
111.46622199999999;0.4605764625000006;68;0.75;violin
111.92775999999998;0.6913454625000099;84;0.75;violin
111.92775999999998;0.6913454625000099;88;0.75;violin
112.62006699999998;0.11442296250000084;83;0.75;violin
112.62006699999998;0.11442296250000084;86;0.75;violin
112.73545149999998;0.11442296250000084;81;0.75;violin
112.73545149999998;0.11442296250000084;84;0.75;violin
112.85083599999999;0.11442296250000084;80;0.75;violin
112.85083599999999;0.11442296250000084;83;0.75;violin
112.96622049999999;0.11442296249998662;77;0.75;violin
112.96622049999999;0.11442296249998662;81;0.75;violin
113.08160499999998;0.11442296250000084;76;0.75;violin
113.08160499999998;0.11442296250000084;80;0.75;violin
113.19698949999999;0.11442296250000084;74;0.75;violin
113.19698949999999;0.11442296250000084;77;0.75;violin
113.31237399999998;0.11442296250000084;72;0.75;violin
113.31237399999998;0.11442296250000084;76;0.75;violin
113.42775849999998;0.11442296250000084;71;0.75;violin
113.42775849999998;0.11442296250000084;74;0.75;violin
113.54314299999999;0.11442296250000084;69;0.75;violin
113.54314299999999;0.11442296250000084;72;0.75;violin
113.65852749999999;0.11442296249998662;68;0.75;violin
113.65852749999999;0.11442296249998662;71;0.75;violin
113.77391199999998;0.6913454624999957;69;0.75;violin
113.77391199999998;0.6913454624999957;72;0.75;violin
114.46621899999998;0.11442296250000084;71;0.75;violin
114.46621899999998;0.11442296250000084;74;0.75;violin
114.58160349999999;0.11442296250000084;72;0.75;violin
114.58160349999999;0.11442296250000084;76;0.75;violin
114.69698799999999;0.11442296250000084;71;0.75;violin
114.69698799999999;0.11442296250000084;74;0.75;violin
114.81237249999998;0.11442296250000084;69;0.75;violin
114.81237249999998;0.11442296250000084;72;0.75;violin
114.92775699999999;0.11442296250000084;68;0.75;violin
114.92775699999999;0.11442296250000084;71;0.75;violin
115.04314149999999;0.11442296249998662;65;0.75;violin
115.04314149999999;0.11442296249998662;69;0.75;violin
115.15852599999998;0.4605764625000006;64;0.75;violin
115.15852599999998;0.4605764625000006;68;0.75;violin
115.62006399999999;0.6913454624999957;69;0.75;violin
115.62006399999999;0.6913454624999957;85;0.75;violin
116.31237099999998;0.11442296250000084;71;0.75;violin
116.31237099999998;0.11442296250000084;86;0.75;violin
116.42775549999999;0.11442296250000084;72;0.75;violin
116.42775549999999;0.11442296250000084;88;0.75;violin
116.54313999999998;0.11442296250000084;74;0.75;violin
116.54313999999998;0.11442296250000084;89;0.75;violin
116.65852449999998;0.11442296250000084;76;0.75;violin
116.65852449999998;0.11442296250000084;91;0.75;violin
116.77390899999999;0.11442296250000084;77;0.75;violin
116.77390899999999;0.11442296250000084;93;0.75;violin
116.88929349999998;0.11442296250000084;79;0.75;violin
116.88929349999998;0.11442296250000084;95;0.75;violin
117.00467799999998;0.11442296250000084;81;0.75;violin
117.00467799999998;0.11442296250000084;97;0.75;violin
117.12006249999999;0.11442296250000084;83;0.75;violin
117.12006249999999;0.11442296250000084;98;0.75;violin
117.23544699999998;0.11442296250000084;85;0.75;violin
117.23544699999998;0.11442296250000084;100;0.75;violin
117.35083149999998;0.11442296250000084;86;0.75;violin
117.35083149999998;0.11442296250000084;101;0.75;violin
117.46621599999999;0.6913454624999957;55;0.75;violin
117.46621599999999;0.6913454624999957;71;0.75;violin
118.15852299999999;0.11442296250000084;57;0.75;violin
118.15852299999999;0.11442296250000084;72;0.75;violin
118.27390749999998;0.11442296250000084;59;0.75;violin
118.27390749999998;0.11442296250000084;74;0.75;violin
118.38929199999998;0.11442296250000084;60;0.75;violin
118.38929199999998;0.11442296250000084;76;0.75;violin
118.50467649999999;0.11442296250000084;62;0.75;violin
118.50467649999999;0.11442296250000084;77;0.75;violin
118.62006099999998;0.11442296250000084;64;0.75;violin
118.62006099999998;0.11442296250000084;79;0.75;violin
118.73544549999998;0.11442296250000084;65;0.75;violin
118.73544549999998;0.11442296250000084;81;0.75;violin
118.85082999999999;0.11442296250000084;67;0.75;violin
118.85082999999999;0.11442296250000084;83;0.75;violin
118.96621449999998;0.11442296250000084;69;0.75;violin
118.96621449999998;0.11442296250000084;84;0.75;violin
119.08159899999998;0.11442296250000084;71;0.75;violin
119.08159899999998;0.11442296250000084;86;0.75;violin
119.19698349999999;0.11442296250000084;72;0.75;violin
119.19698349999999;0.11442296250000084;88;0.75;violin
119.31236799999998;0.6913454625000099;74;0.75;violin
119.31236799999998;0.6913454625000099;89;0.75;violin
120.00467499999998;0.11442296250000084;72;0.75;violin
120.00467499999998;0.11442296250000084;88;0.75;violin
120.12005949999998;0.11442296250000084;71;0.75;violin
120.12005949999998;0.11442296250000084;86;0.75;violin
120.23544399999999;0.6913454624999957;72;0.75;violin
120.23544399999999;0.6913454624999957;88;0.75;violin
120.92775099999999;0.11442296250000084;71;0.75;violin
120.92775099999999;0.11442296250000084;86;0.75;violin
121.04313549999998;0.11442296250000084;69;0.75;violin
121.04313549999998;0.11442296250000084;84;0.75;violin
121.15851999999998;0.2298074625000055;62;0.75;violin
121.15851999999998;0.2298074625000055;77;0.75;violin
121.38928899999999;0.11442296249998662;64;0.75;violin
121.38928899999999;0.11442296249998662;76;0.75;violin
121.50467349999998;0.11442296250000084;65;0.75;violin
121.50467349999998;0.11442296250000084;74;0.75;violin
121.62005799999999;0.11442296250000084;64;0.75;violin
121.62005799999999;0.11442296250000084;72;0.75;violin
121.73544249999998;0.11442296250000084;69;0.75;violin
121.73544249999998;0.11442296250000084;72;0.75;violin
121.85082699999998;0.11442296250000084;64;0.75;violin
121.85082699999998;0.11442296250000084;71;0.75;violin
121.96621149999999;0.11442296250000084;68;0.75;violin
121.96621149999999;0.11442296250000084;71;0.75;violin
122.08159599999999;0.4605764625000006;69;0.75;violin
122.54313399999998;0.2298074625000055;57;0.75;violin
124.00467199999999;0.07596146250000402;88;0.75;violin
124.08159499999998;0.07596146250000402;89;0.75;violin
124.15851799999999;0.07596146250000402;88;0.75;violin
124.23544099999998;0.4605764625000006;84;0.9921875;violin
124.69697899999998;0.07596146250000402;81;0.75;violin
124.77390199999998;0.07596146250000402;83;0.75;violin
124.85082499999999;0.07596146250000402;81;0.75;violin
124.92774799999998;0.07596146250000402;83;0.75;violin
125.00467099999999;0.07596146250000402;84;0.75;violin
125.08159399999998;0.07596146250000402;83;0.75;violin
125.15851699999999;0.0759614624999898;80;0.75;violin
125.23543999999998;0.07596146250000402;81;0.75;violin
125.31236299999999;0.0759614624999898;80;0.75;violin
125.38928599999998;0.07596146250000402;76;0.75;violin
125.46620899999999;0.0759614624999898;77;0.75;violin
125.54313199999999;0.07596146250000402;76;0.75;violin
125.62005499999998;0.2298074625000055;64;0.75;violin
125.85082399999999;0.0759614624999898;88;0.75;violin
125.92774699999998;0.07596146250000402;89;0.75;violin
126.00466999999999;0.0759614624999898;88;0.75;violin
126.08159299999998;0.4605764625000006;84;0.9921875;violin
126.54313099999999;0.0759614624999898;57;0.75;violin
126.62005399999998;0.07596146250000402;59;0.75;violin
126.69697699999999;0.0759614624999898;57;0.75;violin
126.77389999999998;0.07596146250000402;59;0.75;violin
126.85082299999999;0.0759614624999898;60;0.75;violin
126.92774599999998;0.07596146250000402;59;0.75;violin
127.00466899999998;0.07596146250000402;64;0.75;violin
127.08159199999999;0.07596146250000402;65;0.75;violin
127.15851499999998;0.07596146250000402;64;0.75;violin
127.23543799999999;0.07596146250000402;68;0.75;violin
127.31236099999998;0.07596146250000402;69;0.75;violin
127.38928399999999;0.0759614624999898;68;0.75;violin
127.46620699999998;0.2298074625000055;64;0.75;violin
127.69697599999998;0.07596146250000402;88;0.75;violin
127.77389899999999;0.07596146250000402;89;0.75;violin
127.85082199999998;0.07596146250000402;88;0.75;violin
127.92774499999999;0.4605764625000006;84;0.9921875;violin
128.38928299999998;0.07596146250000402;81;0.75;violin
128.46620599999997;0.07596146250000402;83;0.75;violin
128.543129;0.07596146250000402;81;0.75;violin
128.620052;0.07596146250000402;83;0.75;violin
128.69697499999998;0.07596146250000402;84;0.75;violin
128.77389799999997;0.07596146250000402;83;0.75;violin
128.850821;0.0759614624999756;80;0.75;violin
128.927744;0.07596146250000402;81;0.75;violin
129.00466699999998;0.07596146250000402;80;0.75;violin
129.08158999999998;0.07596146250000402;76;0.75;violin
129.15851299999997;0.07596146250000402;77;0.75;violin
129.235436;0.07596146250000402;76;0.75;violin
129.312359;0.2298074624999913;64;0.75;violin
129.543128;0.0759614624999756;88;0.75;violin
129.620051;0.07596146250000402;89;0.75;violin
129.69697399999998;0.07596146250000402;88;0.75;violin
129.77389699999998;0.4605764625000006;84;0.9921875;violin
130.235435;0.0759614624999756;57;0.75;violin
130.312358;0.07596146250000402;59;0.75;violin
130.38928099999998;0.07596146250000402;57;0.75;violin
130.46620399999998;0.07596146250000402;59;0.75;violin
130.54312699999997;0.07596146250000402;60;0.75;violin
130.62005;0.07596146250000402;59;0.75;violin
130.69697299999999;0.07596146250000402;64;0.75;violin
130.77389599999998;0.07596146250000402;65;0.75;violin
130.85081899999997;0.07596146250000402;64;0.75;violin
130.927742;0.0759614624999756;68;0.75;violin
131.004665;0.07596146250000402;69;0.75;violin
131.08158799999998;0.07596146250000402;68;0.75;violin
131.15851099999998;0.2298074625000197;64;0.75;violin
131.38927999999999;0.07596146250000402;88;0.75;violin
131.46620299999998;0.07596146250000402;89;0.75;violin
131.54312599999997;0.07596146250000402;88;0.75;violin
131.620049;0.4605764625000006;85;0.9921875;violin
132.08158699999998;0.07596146250000402;81;0.75;violin
132.15850999999998;0.07596146250000402;83;0.75;violin
132.23543299999997;0.07596146250000402;81;0.75;violin
132.312356;0.0759614624999756;86;0.75;violin
132.389279;0.07596146250000402;88;0.75;violin
132.46620199999998;0.07596146250000402;86;0.75;violin
132.54312499999997;0.07596146250000402;69;0.75;violin
132.620048;0.0759614624999756;70;0.75;violin
132.696971;0.07596146250000402;69;0.75;violin
132.77389399999998;0.07596146250000402;65;0.75;violin
132.85081699999998;0.07596146250000402;67;0.75;violin
132.92773999999997;0.07596146250000402;65;0.75;violin
133.004663;0.07596146250000402;62;0.75;violin
133.081586;0.07596146250000402;64;0.75;violin
133.15850899999998;0.07596146250000402;62;0.75;violin
133.23543199999997;0.07596146250000402;86;0.75;violin
133.312355;0.0759614624999756;88;0.75;violin
133.389278;0.07596146250000402;86;0.75;violin
133.46620099999998;0.4605764625000006;83;0.9921875;violin
133.92773899999997;0.07596146250000402;79;0.75;violin
134.004662;0.0759614624999756;81;0.75;violin
134.081585;0.07596146250000402;79;0.75;violin
134.15850799999998;0.07596146250000402;84;0.75;violin
134.23543099999998;0.07596146250000402;86;0.75;violin
134.31235399999997;0.07596146250000402;84;0.75;violin
134.389277;0.07596146250000402;67;0.75;violin
134.4662;0.07596146250000402;69;0.75;violin
134.54312299999998;0.07596146250000402;67;0.75;violin
134.62004599999997;0.07596146250000402;64;0.75;violin
134.696969;0.0759614624999756;65;0.75;violin
134.773892;0.07596146250000402;64;0.75;violin
134.85081499999998;0.07596146250000402;60;0.75;violin
134.92773799999998;0.07596146250000402;62;0.75;violin
135.004661;0.0759614624999756;60;0.75;violin
135.081584;0.07596146250000402;86;0.75;violin
135.158507;0.07596146250000402;88;0.75;violin
135.23542999999998;0.07596146250000402;86;0.75;violin
135.31235299999997;0.4605764625000006;89;0.9921875;violin
135.773891;0.07596146250000402;62;0.75;violin
135.85081399999999;0.07596146250000402;64;0.75;violin
135.92773699999998;0.07596146250000402;62;0.75;violin
136.00465999999997;0.07596146250000402;84;0.75;violin
136.081583;0.0759614624999756;86;0.75;violin
136.158506;0.07596146250000402;84;0.75;violin
136.23542899999998;0.4605764625000006;88;0.9921875;violin
136.69696699999997;0.07596146250000402;60;0.75;violin
136.77389;0.07596146250000402;62;0.75;violin
136.850813;0.07596146250000402;60;0.75;violin
136.92773599999998;0.07596146250000402;86;0.75;violin
137.00465899999998;0.07596146250000402;88;0.75;violin
137.08158199999997;0.07596146250000402;86;0.75;violin
137.158505;0.07596146250000402;59;0.75;violin
137.23542799999998;0.07596146250000402;60;0.75;violin
137.31235099999998;0.07596146250000402;59;0.75;violin
137.38927399999997;0.07596146250000402;83;0.75;violin
137.466197;0.0759614624999756;84;0.75;violin
137.54312;0.07596146250000402;83;0.75;violin
137.62004299999998;0.07596146250000402;56;0.75;violin
137.69696599999997;0.07596146250000402;57;0.75;violin
137.773889;0.0759614624999756;56;0.75;violin
137.850812;0.07596146250000402;57;0.75;violin
137.92773499999998;0.07596146250000402;59;0.75;violin
138.00465799999998;0.07596146250000402;57;0.75;violin
138.08158099999997;0.07596146250000402;81;0.75;violin
138.158504;0.07596146250000402;83;0.75;violin
138.235427;0.07596146250000402;81;0.75;violin
138.31234999999998;0.2298074624999913;57;0.75;violin
139.77388799999997;0.2298074624999913;69;0.75;violin
139.77388799999997;0.2298074624999913;72;0.75;violin
139.77388799999997;0.2298074624999913;76;0.75;violin
140.00465699999998;0.2298074624999913;72;0.75;violin
140.00465699999998;0.2298074624999913;76;0.75;violin
140.23542599999996;0.2298074625000197;71;0.75;violin
140.23542599999996;0.2298074625000197;74;0.75;violin
140.23542599999996;0.2298074625000197;76;0.75;violin
140.46619499999997;0.2298074624999913;69;0.75;violin
140.46619499999997;0.2298074624999913;72;0.75;violin
140.46619499999997;0.2298074624999913;76;0.75;violin
140.69696399999998;0.2298074624999913;68;0.75;violin
140.69696399999998;0.2298074624999913;71;0.75;violin
140.69696399999998;0.2298074624999913;76;0.75;violin
140.92773299999996;0.2298074625000197;64;0.75;violin
140.92773299999996;0.2298074625000197;71;0.75;violin
140.92773299999996;0.2298074625000197;83;0.75;violin
141.15850199999997;0.2298074624999913;66;0.75;violin
141.15850199999997;0.2298074624999913;69;0.75;violin
141.15850199999997;0.2298074624999913;83;0.75;violin
141.38927099999998;0.2298074624999913;68;0.75;violin
141.38927099999998;0.2298074624999913;71;0.75;violin
141.38927099999998;0.2298074624999913;76;0.75;violin
141.62003999999996;0.2298074625000197;69;0.75;violin
141.62003999999996;0.2298074625000197;72;0.75;violin
141.62003999999996;0.2298074625000197;76;0.75;violin
141.85080899999997;0.2298074624999913;72;0.75;violin
141.85080899999997;0.2298074624999913;76;0.75;violin
142.08157799999998;0.2298074624999913;71;0.75;violin
142.08157799999998;0.2298074624999913;74;0.75;violin
142.08157799999998;0.2298074624999913;76;0.75;violin
142.31234699999996;0.2298074625000197;69;0.75;violin
142.31234699999996;0.2298074625000197;72;0.75;violin
142.31234699999996;0.2298074625000197;76;0.75;violin
142.54311599999997;0.2298074624999913;68;0.75;violin
142.54311599999997;0.2298074624999913;71;0.75;violin
142.54311599999997;0.2298074624999913;76;0.75;violin
142.77388499999998;0.2298074624999913;65;0.75;violin
142.77388499999998;0.2298074624999913;75;0.75;violin
142.77388499999998;0.2298074624999913;81;0.75;violin
143.00465399999996;0.2298074625000197;64;0.75;violin
143.00465399999996;0.2298074625000197;76;0.75;violin
143.00465399999996;0.2298074625000197;80;0.75;violin
143.23542299999997;0.2298074624999913;64;0.75;violin
143.23542299999997;0.2298074624999913;71;0.75;violin
143.23542299999997;0.2298074624999913;76;0.75;violin
143.46619199999998;0.2298074624999913;69;0.75;violin
143.46619199999998;0.2298074624999913;72;0.75;violin
143.46619199999998;0.2298074624999913;76;0.75;violin
143.69696099999996;0.2298074625000197;72;0.75;violin
143.69696099999996;0.2298074625000197;76;0.75;violin
143.92772999999997;0.2298074624999913;71;0.75;violin
143.92772999999997;0.2298074624999913;74;0.75;violin
143.92772999999997;0.2298074624999913;76;0.75;violin
144.15849899999998;0.2298074624999913;69;0.75;violin
144.15849899999998;0.2298074624999913;72;0.75;violin
144.15849899999998;0.2298074624999913;76;0.75;violin
144.38926799999996;0.2298074625000197;68;0.75;violin
144.38926799999996;0.2298074625000197;71;0.75;violin
144.38926799999996;0.2298074625000197;76;0.75;violin
144.62003699999997;0.2298074624999913;64;0.75;violin
144.62003699999997;0.2298074624999913;71;0.75;violin
144.62003699999997;0.2298074624999913;83;0.75;violin
144.85080599999998;0.2298074624999913;66;0.75;violin
144.85080599999998;0.2298074624999913;69;0.75;violin
144.85080599999998;0.2298074624999913;83;0.75;violin
145.08157499999996;0.2298074625000197;68;0.75;violin
145.08157499999996;0.2298074625000197;71;0.75;violin
145.08157499999996;0.2298074625000197;76;0.75;violin
145.31234399999997;0.2298074624999913;69;0.75;violin
145.31234399999997;0.2298074624999913;72;0.75;violin
145.31234399999997;0.2298074624999913;76;0.75;violin
145.54311299999998;0.2298074624999913;72;0.75;violin
145.54311299999998;0.2298074624999913;76;0.75;violin
145.77388199999996;0.2298074625000197;71;0.75;violin
145.77388199999996;0.2298074625000197;74;0.75;violin
145.77388199999996;0.2298074625000197;76;0.75;violin
146.00465099999997;0.2298074624999913;69;0.75;violin
146.00465099999997;0.2298074624999913;72;0.75;violin
146.00465099999997;0.2298074624999913;76;0.75;violin
146.23541999999998;0.2298074624999913;68;0.75;violin
146.23541999999998;0.2298074624999913;71;0.75;violin
146.23541999999998;0.2298074624999913;76;0.75;violin
146.46618899999996;0.2298074625000197;65;0.75;violin
146.46618899999996;0.2298074625000197;75;0.75;violin
146.46618899999996;0.2298074625000197;81;0.75;violin
146.69695799999997;0.2298074624999913;64;0.75;violin
146.69695799999997;0.2298074624999913;76;0.75;violin
146.69695799999997;0.2298074624999913;80;0.75;violin
146.92772699999998;0.2298074624999913;64;0.75;violin
146.92772699999998;0.2298074624999913;71;0.75;violin
146.92772699999998;0.2298074624999913;76;0.75;violin
147.15849599999996;0.2298074625000197;69;0.75;violin
147.15849599999996;0.2298074625000197;73;0.75;violin
147.15849599999996;0.2298074625000197;76;0.75;violin
147.38926499999997;0.2298074624999913;71;0.75;violin
147.38926499999997;0.2298074624999913;74;0.75;violin
147.38926499999997;0.2298074624999913;76;0.75;violin
147.62003399999998;0.2298074624999913;73;0.75;violin
147.62003399999998;0.2298074624999913;76;0.75;violin
147.85080299999998;0.2298074624999913;69;0.75;violin
147.85080299999998;0.2298074624999913;73;0.75;violin
147.85080299999998;0.2298074624999913;76;0.75;violin
148.08157199999997;0.2298074624999913;62;0.75;violin
148.08157199999997;0.2298074624999913;77;0.75;violin
148.08157199999997;0.2298074624999913;86;0.75;violin
148.31234099999998;0.2298074624999913;62;0.75;violin
148.31234099999998;0.2298074624999913;79;0.75;violin
148.31234099999998;0.2298074624999913;88;0.75;violin
148.54310999999996;0.2298074625000197;62;0.75;violin
148.54310999999996;0.2298074625000197;81;0.75;violin
148.54310999999996;0.2298074625000197;89;0.75;violin
148.77387899999997;0.2298074624999913;62;0.75;violin
148.77387899999997;0.2298074624999913;77;0.75;violin
148.77387899999997;0.2298074624999913;86;0.75;violin
149.00464799999997;0.2298074624999913;55;0.75;violin
149.00464799999997;0.2298074624999913;62;0.75;violin
149.00464799999997;0.2298074624999913;71;0.75;violin
149.23541699999998;0.2298074624999913;55;0.75;violin
149.23541699999998;0.2298074624999913;64;0.75;violin
149.23541699999998;0.2298074624999913;72;0.75;violin
149.46618599999996;0.2298074625000197;55;0.75;violin
149.46618599999996;0.2298074625000197;65;0.75;violin
149.46618599999996;0.2298074625000197;74;0.75;violin
149.69695499999997;0.2298074624999913;55;0.75;violin
149.69695499999997;0.2298074624999913;62;0.75;violin
149.69695499999997;0.2298074624999913;71;0.75;violin
149.92772399999996;0.2298074625000197;60;0.75;violin
149.92772399999996;0.2298074625000197;67;0.75;violin
149.92772399999996;0.2298074625000197;76;0.75;violin
150.15849299999996;0.2298074624999913;62;0.75;violin
150.15849299999996;0.2298074624999913;67;0.75;violin
150.15849299999996;0.2298074624999913;77;0.75;violin
150.38926199999997;0.2298074624999913;64;0.75;violin
150.38926199999997;0.2298074624999913;67;0.75;violin
150.38926199999997;0.2298074624999913;79;0.75;violin
150.62003099999998;0.2298074624999913;60;0.75;violin
150.62003099999998;0.2298074624999913;67;0.75;violin
150.62003099999998;0.2298074624999913;76;0.75;violin
150.85079999999996;0.2298074625000197;62;0.75;violin
150.85079999999996;0.2298074625000197;71;0.75;violin
150.85079999999996;0.2298074625000197;77;0.75;violin
151.08156899999997;0.2298074624999913;62;0.75;violin
151.08156899999997;0.2298074624999913;71;0.75;violin
151.08156899999997;0.2298074624999913;74;0.75;violin
151.31233799999998;0.2298074624999913;62;0.75;violin
151.31233799999998;0.2298074624999913;71;0.75;violin
151.31233799999998;0.2298074624999913;76;0.75;violin
151.54310699999996;0.2298074624999913;62;0.75;violin
151.54310699999996;0.2298074624999913;71;0.75;violin
151.54310699999996;0.2298074624999913;77;0.75;violin
151.77387599999997;0.2298074624999913;60;0.75;violin
151.77387599999997;0.2298074624999913;72;0.75;violin
151.77387599999997;0.2298074624999913;76;0.75;violin
152.00464499999998;0.2298074624999913;59;0.75;violin
152.00464499999998;0.2298074624999913;71;0.75;violin
152.00464499999998;0.2298074624999913;74;0.75;violin
152.23541399999996;0.2298074625000197;57;0.75;violin
152.23541399999996;0.2298074625000197;69;0.75;violin
152.23541399999996;0.2298074625000197;72;0.75;violin
152.46618299999997;0.2298074624999913;57;0.75;violin
152.46618299999997;0.2298074624999913;67;0.75;violin
152.46618299999997;0.2298074624999913;73;0.75;violin
152.69695199999998;0.2298074624999913;62;0.75;violin
152.69695199999998;0.2298074624999913;65;0.75;violin
152.69695199999998;0.2298074624999913;74;0.75;violin
152.92772099999996;0.2298074625000197;63;0.75;violin
152.92772099999996;0.2298074625000197;72;0.75;violin
152.92772099999996;0.2298074625000197;81;0.75;violin
153.15848999999997;0.2298074624999913;64;0.75;violin
153.15848999999997;0.2298074624999913;72;0.75;violin
153.15848999999997;0.2298074624999913;81;0.75;violin
153.38925899999998;0.2298074624999913;64;0.75;violin
153.38925899999998;0.2298074624999913;71;0.75;violin
153.38925899999998;0.2298074624999913;80;0.75;violin
153.62002799999996;0.4605764625000006;69;0.75;violin
153.62002799999996;0.4605764625000006;72;0.75;violin
153.62002799999996;0.4605764625000006;81;0.75;violin
154.08156599999998;0.2298074624999913;57;0.75;violin
155.54310399999997;0.11442296249998662;84;0.75;violin
155.65848849999998;0.11442296249998662;81;0.75;violin
155.77387299999998;0.11442296249998662;76;0.75;violin
155.88925749999999;0.11442296249998662;72;0.75;violin
156.00464199999996;0.11442296250001505;69;0.75;violin
156.12002649999997;0.11442296250001505;76;0.75;violin
156.23541099999997;0.11442296249998662;72;0.75;violin
156.35079549999998;0.11442296249998662;69;0.75;violin
156.46617999999998;0.11442296249998662;83;0.75;violin
156.58156449999998;0.11442296249998662;80;0.75;violin
156.69694899999996;0.11442296250001505;76;0.75;violin
156.81233349999997;0.11442296250001505;86;0.75;violin
156.92771799999997;0.11442296249998662;83;0.75;violin
157.04310249999997;0.11442296249998662;76;0.75;violin
157.15848699999998;0.11442296249998662;80;0.75;violin
157.27387149999998;0.11442296249998662;76;0.75;violin
157.38925599999996;0.11442296250001505;84;0.75;violin
157.50464049999997;0.11442296250001505;81;0.75;violin
157.62002499999997;0.11442296250001505;76;0.75;violin
157.73540949999997;0.11442296249998662;72;0.75;violin
157.85079399999998;0.11442296249998662;69;0.75;violin
157.96617849999998;0.11442296249998662;76;0.75;violin
158.08156299999996;0.11442296250001505;72;0.75;violin
158.19694749999996;0.11442296250001505;69;0.75;violin
158.31233199999997;0.11442296250001505;83;0.75;violin
158.42771649999997;0.11442296249998662;80;0.75;violin
158.54310099999998;0.11442296249998662;76;0.75;violin
158.65848549999998;0.11442296249998662;76;0.75;violin
158.77386999999996;0.11442296250001505;71;0.75;violin
158.88925449999996;0.11442296250001505;68;0.75;violin
159.00463899999997;0.2298074624999913;64;0.75;violin
159.23540799999998;0.11442296249998662;84;0.75;violin
159.35079249999998;0.11442296249998662;81;0.75;violin
159.46617699999996;0.11442296250001505;76;0.75;violin
159.58156149999996;0.11442296250001505;72;0.75;violin
159.69694599999997;0.11442296250001505;69;0.75;violin
159.81233049999997;0.11442296249998662;76;0.75;violin
159.92771499999998;0.11442296249998662;72;0.75;violin
160.04309949999998;0.11442296249998662;69;0.75;violin
160.15848399999996;0.11442296250001505;83;0.75;violin
160.27386849999996;0.11442296250001505;80;0.75;violin
160.38925299999997;0.11442296250001505;76;0.75;violin
160.50463749999997;0.11442296249998662;86;0.75;violin
160.62002199999998;0.11442296249998662;83;0.75;violin
160.73540649999998;0.11442296249998662;76;0.75;violin
160.85079099999996;0.11442296250001505;80;0.75;violin
160.96617549999996;0.11442296250001505;76;0.75;violin
161.08155999999997;0.11442296250001505;84;0.75;violin
161.19694449999997;0.11442296249998662;81;0.75;violin
161.31232899999998;0.11442296249998662;76;0.75;violin
161.42771349999998;0.11442296249998662;72;0.75;violin
161.54309799999996;0.11442296250001505;69;0.75;violin
161.65848249999996;0.11442296250001505;76;0.75;violin
161.77386699999997;0.11442296250001505;72;0.75;violin
161.88925149999997;0.11442296249998662;69;0.75;violin
162.00463599999998;0.11442296249998662;83;0.75;violin
162.12002049999998;0.11442296249998662;80;0.75;violin
162.23540499999996;0.11442296250001505;76;0.75;violin
162.35078949999996;0.11442296250001505;76;0.75;violin
162.46617399999997;0.11442296250001505;71;0.75;violin
162.58155849999997;0.11442296249998662;68;0.75;violin
162.69694299999998;0.2298074624999913;64;0.75;violin
162.92771199999996;0.11442296250001505;88;0.75;violin
163.04309649999996;0.11442296250001505;85;0.75;violin
163.15848099999997;0.11442296250001505;81;0.75;violin
163.27386549999997;0.11442296249998662;76;0.75;violin
163.38924999999998;0.11442296249998662;73;0.75;violin
163.50463449999998;0.11442296249998662;69;0.75;violin
163.62001899999996;0.11442296250001505;67;0.75;violin
163.73540349999996;0.11442296250001505;64;0.75;violin
163.85078799999997;0.11442296250001505;65;0.75;violin
163.96617249999997;0.11442296249998662;62;0.75;violin
164.08155699999998;0.11442296249998662;86;0.75;violin
164.19694149999998;0.11442296249998662;81;0.75;violin
164.31232599999998;0.11442296249998662;77;0.75;violin
164.42771049999996;0.11442296250001505;74;0.75;violin
164.54309499999997;0.11442296250001505;65;0.75;violin
164.65847949999997;0.11442296250001505;62;0.75;violin
164.77386399999997;0.11442296249998662;86;0.75;violin
164.88924849999998;0.11442296249998662;83;0.75;violin
165.00463299999996;0.11442296250001505;79;0.75;violin
165.12001749999996;0.11442296250001505;77;0.75;violin
165.23540199999997;0.11442296250001505;74;0.75;violin
165.35078649999997;0.11442296249998662;71;0.75;violin
165.46617099999997;0.11442296249998662;65;0.75;violin
165.58155549999998;0.11442296249998662;62;0.75;violin
165.69693999999998;0.11442296249998662;64;0.75;violin
165.81232449999996;0.11442296250001505;60;0.75;violin
165.92770899999996;0.11442296250001505;84;0.75;violin
166.04309349999997;0.11442296250001505;79;0.75;violin
166.15847799999997;0.11442296249998662;76;0.75;violin
166.27386249999998;0.11442296249998662;72;0.75;violin
166.38924699999998;0.11442296249998662;64;0.75;violin
166.50463149999996;0.11442296250001505;60;0.75;violin
166.62001599999996;0.11442296250001505;83;0.75;violin
166.73540049999997;0.11442296249998662;81;0.75;violin
166.85078499999997;0.11442296249998662;80;0.75;violin
166.96616949999998;0.11442296249998662;77;0.75;violin
167.08155399999998;0.11442296249998662;76;0.75;violin
167.19693849999996;0.11442296250001505;74;0.75;violin
167.31232299999996;0.11442296250001505;72;0.75;violin
167.42770749999997;0.11442296250001505;71;0.75;violin
167.54309199999997;0.11442296249998662;69;0.75;violin
167.65847649999998;0.11442296249998662;67;0.75;violin
167.77386099999998;0.11442296249998662;65;0.75;violin
167.88924549999996;0.11442296250001505;64;0.75;violin
168.00462999999996;0.11442296250001505;62;0.75;violin
168.12001449999997;0.11442296250001505;60;0.75;violin
168.23539899999997;0.11442296249998662;59;0.75;violin
168.35078349999998;0.11442296249998662;57;0.75;violin
168.46616799999998;0.11442296249998662;65;0.75;violin
168.58155249999996;0.11442296250001505;62;0.75;violin
168.69693699999996;0.11442296250001505;81;0.75;violin
168.81232149999997;0.11442296250001505;77;0.75;violin
168.92770599999997;0.11442296249998662;68;0.75;violin
169.04309049999998;0.11442296249998662;64;0.75;violin
169.15847499999998;0.11442296249998662;83;0.75;violin
169.27385949999996;0.11442296250001505;80;0.75;violin
169.38924399999996;0.11442296250001505;81;0.75;violin
169.50462849999997;0.11442296250001505;76;0.75;violin
169.62001299999997;0.11442296249998662;72;0.75;violin
169.73539749999998;0.11442296249998662;69;0.75;violin
169.85078199999998;0.2298074624999913;57;0.75;violin
171.31231999999997;0.8987500000000068;93;0.3828125;violin
172.21231999999998;0.14875000000000682;88;0.3828125;violin
172.36231999999998;0.1487499999999784;96;0.3828125;violin
172.51231999999996;0.14875000000000682;95;0.3828125;violin
172.66231999999997;0.14875000000000682;93;0.3828125;violin
172.81231999999997;0.14875000000000682;92;0.3828125;violin
172.96231999999998;0.14875000000000682;90;0.3828125;violin
173.11231999999998;0.1487499999999784;88;0.3828125;violin
173.26231999999996;0.14875000000000682;90;0.3828125;violin
173.41231999999997;0.14875000000000682;92;0.3828125;violin
173.56231999999997;0.14875000000000682;88;0.3828125;violin
173.71231999999998;0.7487500000000011;93;0.3828125;violin
174.46231999999998;0.14875000000000682;95;0.3828125;violin
174.61231999999998;0.1487499999999784;96;0.3828125;violin
174.76231999999996;0.14875000000000682;98;0.3828125;violin
174.91231999999997;0.4487500000000182;99;0.3828125;violin
175.36231999999998;0.1487499999999784;100;0.3828125;violin
175.51231999999996;0.5987500000000239;88;0.3828125;violin
176.11231999999998;0.8987499999999784;93;0.3828125;violin
177.01231999999996;0.14875000000000682;88;0.3828125;violin
177.16231999999997;0.14875000000000682;96;0.3828125;violin
177.31231999999997;0.14875000000000682;95;0.3828125;violin
177.46231999999998;0.14875000000000682;93;0.3828125;violin
177.61231999999998;0.1487499999999784;92;0.3828125;violin
177.76231999999996;0.14875000000000682;90;0.3828125;violin
177.91231999999997;0.14875000000000682;88;0.3828125;violin
178.06231999999997;0.14875000000000682;90;0.3828125;violin
178.21231999999998;0.14875000000000682;92;0.3828125;violin
178.36231999999998;0.1487499999999784;88;0.3828125;violin
178.51231999999996;0.7487500000000011;93;0.3828125;violin
179.26231999999996;0.14875000000000682;95;0.3828125;violin
179.41231999999997;0.14875000000000682;96;0.3828125;violin
179.56231999999997;0.14875000000000682;98;0.3828125;violin
179.71231999999998;0.44874999999998977;99;0.3828125;violin
180.16231999999997;0.14875000000000682;100;0.3828125;violin
180.31231999999997;0.5987499999999955;88;0.3828125;violin
180.91231999999997;0.7487500000000011;93;0.3828125;violin
181.66231999999997;0.14875000000000682;100;0.3828125;violin
181.81231999999997;0.14875000000000682;97;0.3828125;violin
181.96231999999998;0.14875000000000682;93;0.3828125;violin
182.11231999999998;0.1487499999999784;91;0.3828125;violin
182.26231999999996;0.14875000000000682;88;0.3828125;violin
182.41231999999997;0.14875000000000682;85;0.3828125;violin
182.56231999999997;0.14875000000000682;81;0.3828125;violin
182.71231999999998;0.14875000000000682;79;0.3828125;violin
182.86231999999998;0.1487499999999784;77;0.3828125;violin
183.01231999999996;0.14875000000000682;76;0.3828125;violin
183.16231999999997;0.14875000000000682;74;0.3828125;violin
183.31231999999997;0.7487500000000011;91;0.3828125;violin
184.06231999999997;0.14875000000000682;98;0.3828125;violin
184.21231999999998;0.14875000000000682;95;0.3828125;violin
184.36231999999998;0.1487499999999784;91;0.3828125;violin
184.51231999999996;0.14875000000000682;89;0.3828125;violin
184.66231999999997;0.14875000000000682;86;0.3828125;violin
184.81231999999997;0.14875000000000682;83;0.3828125;violin
184.96231999999998;0.14875000000000682;79;0.3828125;violin
185.11231999999998;0.1487499999999784;77;0.3828125;violin
185.26231999999996;0.14875000000000682;76;0.3828125;violin
185.41231999999997;0.14875000000000682;74;0.3828125;violin
185.56231999999997;0.14875000000000682;72;0.3828125;violin
185.71231999999998;0.7487500000000011;89;0.3828125;violin
186.46231999999998;0.14875000000000682;86;0.3828125;violin
186.61231999999998;0.1487499999999784;83;0.3828125;violin
186.76231999999996;0.14875000000000682;81;0.3828125;violin
186.91231999999997;0.14875000000000682;80;0.3828125;violin
187.06231999999997;0.14875000000000682;76;0.3828125;violin
187.21231999999998;0.14875000000000682;74;0.3828125;violin
187.36231999999998;0.1487499999999784;71;0.3828125;violin
187.51231999999996;0.14875000000000682;72;0.3828125;violin
187.66231999999997;0.14875000000000682;76;0.3828125;violin
187.81231999999997;0.14875000000000682;81;0.3828125;violin
187.96231999999998;0.14875000000000682;79;0.3828125;violin
188.11231999999998;0.1487499999999784;77;0.3828125;violin
188.26231999999996;0.14875000000000682;86;0.3828125;violin
188.41231999999997;0.14875000000000682;83;0.3828125;violin
188.56231999999997;0.14875000000000682;81;0.3828125;violin
188.71231999999998;0.14875000000000682;80;0.3828125;violin
188.86231999999998;0.1487499999999784;95;0.3828125;violin
189.01231999999996;0.14875000000000682;92;0.3828125;violin
189.16231999999997;0.14875000000000682;88;0.3828125;violin
189.31231999999997;0.0625;92;0.3828125;violin
189.37606999999997;0.5987499999999955;93;0.3828125;violin
189.91231999999997;0.2987500000000125;81;0.3828125;violin
191.51231999999996;0.14875000000000682;60;0.75;violin
191.51231999999996;0.14875000000000682;64;0.75;violin
191.66231999999997;0.14875000000000682;69;0.75;violin
191.66231999999997;0.14875000000000682;76;0.75;violin
191.81231999999997;0.1487499999999784;60;0.75;violin
191.81231999999997;0.1487499999999784;64;0.75;violin
191.96231999999995;0.14875000000000682;69;0.75;violin
191.96231999999995;0.14875000000000682;76;0.75;violin
192.11231999999995;0.14875000000000682;59;0.75;violin
192.11231999999995;0.14875000000000682;68;0.75;violin
192.26231999999996;0.14875000000000682;71;0.75;violin
192.26231999999996;0.14875000000000682;76;0.75;violin
192.41231999999997;0.14875000000000682;57;0.75;violin
192.41231999999997;0.14875000000000682;64;0.75;violin
192.56231999999997;0.1487499999999784;72;0.75;violin
192.56231999999997;0.1487499999999784;76;0.75;violin
192.71231999999995;0.07375000000001819;56;0.75;violin
192.78731999999997;0.07374999999998977;59;0.75;violin
192.86231999999995;0.07375000000001819;64;0.75;violin
192.93731999999997;0.07374999999998977;68;0.75;violin
193.01231999999996;0.07374999999998977;71;0.75;violin
193.08731999999995;0.07375000000001819;76;0.75;violin
193.16231999999997;0.07374999999998977;80;0.75;violin
193.23731999999995;0.07375000000001819;83;0.75;violin
193.31231999999997;0.1487499999999784;88;0.75;violin
193.46231999999995;0.14875000000000682;92;0.75;violin
193.61231999999995;0.14875000000000682;95;0.75;violin
193.76231999999996;0.14875000000000682;100;0.75;violin
193.91231999999997;0.14875000000000682;60;0.75;violin
193.91231999999997;0.14875000000000682;64;0.75;violin
194.06231999999997;0.1487499999999784;69;0.75;violin
194.06231999999997;0.1487499999999784;76;0.75;violin
194.21231999999995;0.14875000000000682;60;0.75;violin
194.21231999999995;0.14875000000000682;64;0.75;violin
194.36231999999995;0.14875000000000682;69;0.75;violin
194.36231999999995;0.14875000000000682;76;0.75;violin
194.51231999999996;0.14875000000000682;59;0.75;violin
194.51231999999996;0.14875000000000682;68;0.75;violin
194.66231999999997;0.14875000000000682;76;0.75;violin
194.66231999999997;0.14875000000000682;83;0.75;violin
194.81231999999997;0.1487499999999784;57;0.75;violin
194.81231999999997;0.1487499999999784;64;0.75;violin
194.96231999999995;0.14875000000000682;72;0.75;violin
194.96231999999995;0.14875000000000682;81;0.75;violin
195.11231999999995;0.14875000000000682;56;0.75;violin
195.11231999999995;0.14875000000000682;64;0.75;violin
195.26231999999996;0.14875000000000682;88;0.75;violin
195.41231999999997;0.14875000000000682;83;0.75;violin
195.56231999999997;0.1487499999999784;80;0.75;violin
195.71231999999995;0.14875000000000682;76;0.75;violin
195.86231999999995;0.14875000000000682;71;0.75;violin
196.01231999999996;0.14875000000000682;68;0.75;violin
196.16231999999997;0.14875000000000682;64;0.75;violin
196.31231999999997;0.1487499999999784;60;0.75;violin
196.31231999999997;0.1487499999999784;64;0.75;violin
196.46231999999995;0.14875000000000682;69;0.75;violin
196.46231999999995;0.14875000000000682;76;0.75;violin
196.61231999999995;0.14875000000000682;60;0.75;violin
196.61231999999995;0.14875000000000682;64;0.75;violin
196.76231999999996;0.14875000000000682;69;0.75;violin
196.76231999999996;0.14875000000000682;76;0.75;violin
196.91231999999997;0.14875000000000682;59;0.75;violin
196.91231999999997;0.14875000000000682;68;0.75;violin
197.06231999999997;0.1487499999999784;71;0.75;violin
197.06231999999997;0.1487499999999784;76;0.75;violin
197.21231999999995;0.14875000000000682;57;0.75;violin
197.21231999999995;0.14875000000000682;64;0.75;violin
197.36231999999995;0.14875000000000682;72;0.75;violin
197.36231999999995;0.14875000000000682;76;0.75;violin
197.51231999999996;0.07374999999998977;56;0.75;violin
197.58731999999995;0.07375000000001819;59;0.75;violin
197.66231999999997;0.07374999999998977;64;0.75;violin
197.73731999999995;0.07375000000001819;68;0.75;violin
197.81231999999997;0.07374999999998977;71;0.75;violin
197.88731999999996;0.07374999999998977;76;0.75;violin
197.96231999999995;0.07375000000001819;80;0.75;violin
198.03731999999997;0.07374999999998977;83;0.75;violin
198.11231999999995;0.14875000000000682;88;0.75;violin
198.26231999999996;0.14875000000000682;92;0.75;violin
198.41231999999997;0.14875000000000682;95;0.75;violin
198.56231999999997;0.1487499999999784;100;0.75;violin
198.71231999999995;0.14875000000000682;60;0.75;violin
198.71231999999995;0.14875000000000682;64;0.75;violin
198.86231999999995;0.14875000000000682;69;0.75;violin
198.86231999999995;0.14875000000000682;76;0.75;violin
199.01231999999996;0.14875000000000682;60;0.75;violin
199.01231999999996;0.14875000000000682;64;0.75;violin
199.16231999999997;0.14875000000000682;69;0.75;violin
199.16231999999997;0.14875000000000682;76;0.75;violin
199.31231999999997;0.1487499999999784;59;0.75;violin
199.31231999999997;0.1487499999999784;68;0.75;violin
199.46231999999995;0.14875000000000682;76;0.75;violin
199.46231999999995;0.14875000000000682;83;0.75;violin
199.61231999999995;0.14875000000000682;57;0.75;violin
199.61231999999995;0.14875000000000682;64;0.75;violin
199.76231999999996;0.14875000000000682;72;0.75;violin
199.76231999999996;0.14875000000000682;81;0.75;violin
199.91231999999997;0.14875000000000682;56;0.75;violin
199.91231999999997;0.14875000000000682;64;0.75;violin
200.06231999999997;0.1487499999999784;88;0.75;violin
200.21231999999995;0.14875000000000682;83;0.75;violin
200.36231999999995;0.14875000000000682;80;0.75;violin
200.51231999999996;0.14875000000000682;76;0.75;violin
200.66231999999997;0.14875000000000682;71;0.75;violin
200.81231999999997;0.1487499999999784;68;0.75;violin
200.96231999999995;0.14875000000000682;64;0.75;violin
201.11231999999995;0.14875000000000682;61;0.75;violin
201.11231999999995;0.14875000000000682;69;0.75;violin
201.26231999999996;0.14875000000000682;76;0.75;violin
201.26231999999996;0.14875000000000682;85;0.75;violin
201.41231999999997;0.14875000000000682;61;0.75;violin
201.41231999999997;0.14875000000000682;69;0.75;violin
201.56231999999997;0.1487499999999784;76;0.75;violin
201.56231999999997;0.1487499999999784;85;0.75;violin
201.71231999999995;0.14875000000000682;62;0.75;violin
201.71231999999995;0.14875000000000682;69;0.75;violin
201.86231999999995;0.14875000000000682;77;0.75;violin
201.86231999999995;0.14875000000000682;86;0.75;violin
202.01231999999996;0.14875000000000682;64;0.75;violin
202.01231999999996;0.14875000000000682;73;0.75;violin
202.16231999999997;0.14875000000000682;81;0.75;violin
202.16231999999997;0.14875000000000682;88;0.75;violin
202.31231999999997;0.08499999999997954;65;0.75;violin
202.39856999999995;0.08500000000000796;62;0.75;violin
202.48356999999996;0.08500000000000796;65;0.75;violin
202.56981999999996;0.08500000000000796;69;0.75;violin
202.65481999999997;0.08499999999997954;74;0.75;violin
202.74106999999995;0.08500000000000796;77;0.75;violin
202.82606999999996;0.08500000000000796;81;0.75;violin
202.91231999999997;0.14875000000000682;86;0.75;violin
203.06231999999997;0.1487499999999784;89;0.75;violin
203.21231999999995;0.14875000000000682;93;0.75;violin
203.36231999999995;0.14875000000000682;98;0.75;violin
203.51231999999996;0.14875000000000682;59;0.75;violin
203.51231999999996;0.14875000000000682;67;0.75;violin
203.66231999999997;0.14875000000000682;74;0.75;violin
203.66231999999997;0.14875000000000682;83;0.75;violin
203.81231999999997;0.1487499999999784;59;0.75;violin
203.81231999999997;0.1487499999999784;67;0.75;violin
203.96231999999995;0.14875000000000682;74;0.75;violin
203.96231999999995;0.14875000000000682;83;0.75;violin
204.11231999999995;0.14875000000000682;60;0.75;violin
204.11231999999995;0.14875000000000682;67;0.75;violin
204.26231999999996;0.14875000000000682;76;0.75;violin
204.26231999999996;0.14875000000000682;84;0.75;violin
204.41231999999997;0.14875000000000682;62;0.75;violin
204.41231999999997;0.14875000000000682;71;0.75;violin
204.56231999999997;0.1487499999999784;79;0.75;violin
204.56231999999997;0.1487499999999784;86;0.75;violin
204.71231999999995;0.08500000000000796;64;0.75;violin
204.79856999999996;0.08500000000000796;60;0.75;violin
204.88356999999996;0.08500000000000796;64;0.75;violin
204.96981999999997;0.08499999999997954;67;0.75;violin
205.05481999999995;0.08500000000000796;72;0.75;violin
205.14106999999996;0.08500000000000796;76;0.75;violin
205.22606999999996;0.08500000000000796;79;0.75;violin
205.31231999999997;0.1487499999999784;84;0.75;violin
205.46231999999995;0.14875000000000682;88;0.75;violin
205.61231999999995;0.14875000000000682;91;0.75;violin
205.76231999999996;0.14875000000000682;96;0.75;violin
205.91231999999997;0.14875000000000682;62;0.75;violin
205.91231999999997;0.14875000000000682;71;0.75;violin
206.06231999999997;0.1487499999999784;77;0.75;violin
206.06231999999997;0.1487499999999784;86;0.75;violin
206.21231999999995;0.14875000000000682;62;0.75;violin
206.21231999999995;0.14875000000000682;71;0.75;violin
206.36231999999995;0.14875000000000682;77;0.75;violin
206.36231999999995;0.14875000000000682;86;0.75;violin
206.51231999999996;0.14875000000000682;60;0.75;violin
206.51231999999996;0.14875000000000682;69;0.75;violin
206.66231999999997;0.14875000000000682;76;0.75;violin
206.66231999999997;0.14875000000000682;84;0.75;violin
206.81231999999997;0.1487499999999784;59;0.75;violin
206.81231999999997;0.1487499999999784;68;0.75;violin
206.96231999999995;0.14875000000000682;76;0.75;violin
206.96231999999995;0.14875000000000682;83;0.75;violin
207.11231999999995;0.14875000000000682;57;0.75;violin
207.11231999999995;0.14875000000000682;64;0.75;violin
207.26231999999996;0.14875000000000682;72;0.75;violin
207.26231999999996;0.14875000000000682;81;0.75;violin
207.41231999999997;0.14875000000000682;59;0.75;violin
207.41231999999997;0.14875000000000682;68;0.75;violin
207.56231999999997;0.1487499999999784;76;0.75;violin
207.56231999999997;0.1487499999999784;83;0.75;violin
207.71231999999995;0.14875000000000682;60;0.75;violin
207.71231999999995;0.14875000000000682;69;0.75;violin
207.86231999999995;0.14875000000000682;76;0.75;violin
207.86231999999995;0.14875000000000682;84;0.75;violin
208.01231999999996;0.14875000000000682;63;0.75;violin
208.01231999999996;0.14875000000000682;72;0.75;violin
208.16231999999997;0.14875000000000682;81;0.75;violin
208.16231999999997;0.14875000000000682;90;0.75;violin
208.31231999999997;0.09874999999999545;64;0.75;violin
208.41231999999997;0.09874999999999545;69;0.75;violin
208.51231999999996;0.09874999999999545;72;0.75;violin
208.61231999999995;0.09874999999999545;76;0.75;violin
208.71231999999995;0.09875000000002387;81;0.75;violin
208.81231999999997;0.09874999999999545;84;0.75;violin
208.91231999999997;0.09874999999999545;64;0.75;violin
209.01231999999996;0.09874999999999545;68;0.75;violin
209.11231999999995;0.09874999999999545;71;0.75;violin
209.21231999999995;0.09875000000002387;76;0.75;violin
209.31231999999997;0.09874999999999545;80;0.75;violin
209.41231999999997;0.09874999999999545;83;0.75;violin
209.51231999999996;0.09874999999999545;57;0.3828125;violin
209.61231999999995;0.09874999999999545;60;0.3828125;violin
209.71231999999995;0.09875000000002387;64;0.3828125;violin
209.81231999999997;0.09874999999999545;69;0.3828125;violin
209.91231999999997;0.09874999999999545;72;0.3828125;violin
210.01231999999996;0.09874999999999545;76;0.3828125;violin
210.11231999999995;0.09874999999999545;81;0.3828125;violin
210.21231999999995;0.09875000000002387;76;0.3828125;violin
210.31231999999997;0.09874999999999545;72;0.3828125;violin
210.41231999999997;0.09874999999999545;69;0.3828125;violin
210.51231999999996;0.09874999999999545;64;0.3828125;violin
210.61231999999995;0.09874999999999545;60;0.3828125;violin
210.71231999999995;0.09875000000002387;57;0.3828125;violin
210.81231999999997;0.09874999999999545;61;0.3828125;violin
210.91231999999997;0.09874999999999545;64;0.3828125;violin
211.01231999999996;0.09874999999999545;69;0.3828125;violin
211.11231999999995;0.09874999999999545;73;0.3828125;violin
211.21231999999995;0.09875000000002387;76;0.3828125;violin
211.31231999999997;0.09874999999999545;81;0.3828125;violin
211.41231999999997;0.09874999999999545;76;0.3828125;violin
211.51231999999996;0.09874999999999545;73;0.3828125;violin
211.61231999999995;0.09874999999999545;69;0.3828125;violin
211.71231999999995;0.09875000000002387;64;0.3828125;violin
211.81231999999997;0.09874999999999545;61;0.3828125;violin
211.91231999999997;0.09874999999999545;62;0.3828125;violin
212.01231999999996;0.09874999999999545;65;0.3828125;violin
212.11231999999995;0.09874999999999545;69;0.3828125;violin
212.21231999999995;0.09875000000002387;74;0.3828125;violin
212.31231999999997;0.09874999999999545;77;0.3828125;violin
212.41231999999997;0.09874999999999545;81;0.3828125;violin
212.51231999999996;0.14875000000000682;86;0.3828125;violin
212.66231999999997;0.14875000000000682;89;0.3828125;violin
212.81231999999997;0.1487499999999784;93;0.3828125;violin
212.96231999999995;0.14875000000000682;98;0.3828125;violin
213.11231999999995;0.14875000000000682;56;0.75;violin
213.11231999999995;0.14875000000000682;65;0.75;violin
213.26231999999996;0.14875000000000682;74;0.75;violin
213.26231999999996;0.14875000000000682;83;0.75;violin
213.41231999999997;0.14875000000000682;59;0.75;violin
213.41231999999997;0.14875000000000682;68;0.75;violin
213.56231999999997;0.1487499999999784;77;0.75;violin
213.56231999999997;0.1487499999999784;86;0.75;violin
213.71231999999995;0.14875000000000682;62;0.75;violin
213.71231999999995;0.14875000000000682;71;0.75;violin
213.86231999999995;0.14875000000000682;80;0.75;violin
213.86231999999995;0.14875000000000682;89;0.75;violin
214.01231999999996;0.14875000000000682;56;0.75;violin
214.01231999999996;0.14875000000000682;65;0.75;violin
214.16231999999997;0.14875000000000682;74;0.75;violin
214.16231999999997;0.14875000000000682;83;0.75;violin
214.31231999999997;0.09874999999999545;57;0.3828125;violin
214.41231999999997;0.09874999999999545;60;0.3828125;violin
214.51231999999996;0.09874999999999545;64;0.3828125;violin
214.61231999999995;0.09874999999999545;69;0.3828125;violin
214.71231999999995;0.09875000000002387;72;0.3828125;violin
214.81231999999997;0.09874999999999545;76;0.3828125;violin
214.91231999999997;0.09874999999999545;81;0.3828125;violin
215.01231999999996;0.09874999999999545;76;0.3828125;violin
215.11231999999995;0.09874999999999545;72;0.3828125;violin
215.21231999999995;0.09875000000002387;69;0.3828125;violin
215.31231999999997;0.09874999999999545;64;0.3828125;violin
215.41231999999997;0.09874999999999545;60;0.3828125;violin
215.51231999999996;0.09874999999999545;57;0.3828125;violin
215.61231999999995;0.09874999999999545;61;0.3828125;violin
215.71231999999995;0.09875000000002387;64;0.3828125;violin
215.81231999999997;0.09874999999999545;69;0.3828125;violin
215.91231999999997;0.09874999999999545;73;0.3828125;violin
216.01231999999996;0.09874999999999545;76;0.3828125;violin
216.11231999999995;0.09874999999999545;81;0.3828125;violin
216.21231999999995;0.09875000000002387;76;0.3828125;violin
216.31231999999997;0.09874999999999545;73;0.3828125;violin
216.41231999999997;0.09874999999999545;69;0.3828125;violin
216.51231999999996;0.09874999999999545;64;0.3828125;violin
216.61231999999995;0.09874999999999545;61;0.3828125;violin
216.71231999999995;0.09875000000002387;62;0.3828125;violin
216.81231999999997;0.09874999999999545;65;0.3828125;violin
216.91231999999997;0.09874999999999545;69;0.3828125;violin
217.01231999999996;0.09874999999999545;74;0.3828125;violin
217.11231999999995;0.09874999999999545;77;0.3828125;violin
217.21231999999995;0.09875000000002387;81;0.3828125;violin
217.31231999999997;0.1487499999999784;86;0.3828125;violin
217.46231999999995;0.14875000000000682;89;0.3828125;violin
217.61231999999995;0.14875000000000682;93;0.3828125;violin
217.76231999999996;0.14875000000000682;98;0.3828125;violin
217.91231999999997;0.14875000000000682;56;0.75;violin
217.91231999999997;0.14875000000000682;65;0.75;violin
218.06231999999997;0.1487499999999784;74;0.75;violin
218.06231999999997;0.1487499999999784;83;0.75;violin
218.21231999999995;0.14875000000000682;59;0.75;violin
218.21231999999995;0.14875000000000682;68;0.75;violin
218.36231999999995;0.14875000000000682;77;0.75;violin
218.36231999999995;0.14875000000000682;86;0.75;violin
218.51231999999996;0.14875000000000682;62;0.75;violin
218.51231999999996;0.14875000000000682;71;0.75;violin
218.66231999999997;0.14875000000000682;80;0.75;violin
218.66231999999997;0.14875000000000682;89;0.75;violin
218.81231999999997;0.1487499999999784;56;0.75;violin
218.81231999999997;0.1487499999999784;65;0.75;violin
218.96231999999995;0.14875000000000682;74;0.75;violin
218.96231999999995;0.14875000000000682;83;0.75;violin
219.11231999999995;0.09874999999999545;57;0.3828125;violin
219.21231999999995;0.09875000000002387;61;0.3828125;violin
219.31231999999997;0.09874999999999545;64;0.390625;violin
219.41231999999997;0.09874999999999545;69;0.3984375;violin
219.51231999999996;0.09874999999999545;73;0.40625;violin
219.61231999999995;0.09874999999999545;76;0.4140625;violin
219.71231999999995;0.09875000000002387;81;0.421875;violin
219.81231999999997;0.09874999999999545;76;0.4296875;violin
219.91231999999997;0.09874999999999545;73;0.4375;violin
220.01231999999996;0.09874999999999545;69;0.4375;violin
220.11231999999995;0.09874999999999545;64;0.4453125;violin
220.21231999999995;0.09875000000002387;61;0.453125;violin
220.31231999999997;0.08499999999997954;57;0.4609375;violin
220.39856999999995;0.08500000000000796;61;0.46875;violin
220.48356999999996;0.08500000000000796;64;0.46875;violin
220.56981999999996;0.08500000000000796;69;0.4765625;violin
220.65481999999997;0.08499999999997954;73;0.484375;violin
220.74106999999995;0.08500000000000796;76;0.4921875;violin
220.82606999999996;0.08500000000000796;81;0.4921875;violin
220.91231999999997;0.08499999999997954;85;0.5;violin
220.99856999999997;0.08499999999997954;81;0.5078125;violin
221.08356999999995;0.08500000000000796;76;0.515625;violin
221.16981999999996;0.08500000000000796;73;0.5234375;violin
221.25481999999997;0.08500000000000796;69;0.5234375;violin
221.34106999999995;0.08500000000000796;64;0.53125;violin
221.42606999999995;0.08500000000000796;61;0.5390625;violin
221.51231999999996;0.07374999999998977;57;0.546875;violin
221.58731999999995;0.07375000000001819;61;0.546875;violin
221.66231999999997;0.07374999999998977;64;0.5546875;violin
221.73731999999995;0.07375000000001819;69;0.5546875;violin
221.81231999999997;0.07374999999998977;73;0.5625;violin
221.88731999999996;0.07374999999998977;76;0.5703125;violin
221.96231999999995;0.07375000000001819;81;0.5703125;violin
222.03731999999997;0.07374999999998977;85;0.578125;violin
222.11231999999995;0.07375000000001819;88;0.5859375;violin
222.18731999999997;0.07374999999998977;85;0.5859375;violin
222.26231999999996;0.07374999999998977;81;0.59375;violin
222.33731999999995;0.07375000000001819;76;0.6015625;violin
222.41231999999997;0.07374999999998977;73;0.6015625;violin
222.48731999999995;0.07375000000001819;69;0.609375;violin
222.56231999999997;0.07374999999998977;64;0.6171875;violin
222.63731999999996;0.07374999999998977;61;0.6171875;violin
222.71231999999995;0.06500000000002615;57;0.625;violin
222.77856999999995;0.06500000000002615;61;0.6328125;violin
222.84606999999997;0.06499999999999773;64;0.6328125;violin
222.91231999999997;0.06499999999999773;69;0.640625;violin
222.97856999999996;0.06499999999999773;73;0.640625;violin
223.04606999999996;0.06499999999999773;76;0.6484375;violin
223.11231999999995;0.06499999999999773;81;0.65625;violin
223.17856999999995;0.06499999999999773;85;0.65625;violin
223.24606999999997;0.06499999999999773;88;0.6640625;violin
223.31231999999997;0.06499999999999773;93;0.6640625;violin
223.37856999999997;0.06499999999999773;88;0.671875;violin
223.44606999999996;0.06499999999999773;85;0.671875;violin
223.51231999999996;0.06499999999999773;81;0.6796875;violin
223.57856999999996;0.06499999999999773;76;0.6875;violin
223.64606999999995;0.06499999999999773;73;0.6875;violin
223.71231999999998;0.06499999999999773;69;0.6953125;violin
223.77856999999995;0.06499999999999773;64;0.6953125;violin
223.84606999999997;0.06499999999999773;61;0.703125;violin
223.91231999999997;0.0724999999999909;57;0.7109375;violin
223.98606999999996;0.07250000000001933;59;0.7109375;violin
224.06231999999994;0.07250000000001933;57;0.71875;violin
224.13606999999996;0.0724999999999909;59;0.71875;violin
224.21231999999998;0.0724999999999909;57;0.7265625;violin
224.28606999999997;0.0724999999999909;59;0.734375;violin
224.36231999999995;0.0724999999999909;57;0.734375;violin
224.43606999999997;0.0724999999999909;59;0.7421875;violin
224.51231999999996;0.0724999999999909;57;0.75;violin
224.58606999999995;0.07250000000001933;59;0.75;violin
224.66231999999997;0.0724999999999909;57;0.7578125;violin
224.73606999999996;0.07250000000001933;59;0.765625;violin
224.81231999999994;0.07250000000001933;57;0.765625;violin
224.88606999999996;0.0724999999999909;59;0.7734375;violin
224.96231999999998;0.0724999999999909;57;0.78125;violin
225.03606999999997;0.0724999999999909;59;0.78125;violin
225.11231999999995;0.0724999999999909;57;0.7890625;violin
225.18606999999997;0.0724999999999909;59;0.796875;violin
225.26231999999996;0.0724999999999909;57;0.796875;violin
225.33606999999995;0.07250000000001933;59;0.8046875;violin
225.41231999999997;0.0724999999999909;57;0.8125;violin
225.48606999999996;0.07250000000001933;59;0.8125;violin
225.56231999999994;0.07250000000001933;57;0.8203125;violin
225.63606999999996;0.0724999999999909;59;0.828125;violin
225.71231999999998;0.0724999999999909;57;0.828125;violin
225.78606999999997;0.0724999999999909;59;0.8359375;violin
225.86231999999995;0.0724999999999909;57;0.84375;violin
225.93606999999997;0.0724999999999909;59;0.84375;violin
226.01231999999996;0.0724999999999909;57;0.8515625;violin
226.08606999999995;0.07250000000001933;59;0.859375;violin
226.16231999999997;0.0724999999999909;57;0.859375;violin
226.23606999999996;0.07250000000001933;59;0.8671875;violin
226.31231999999997;0.2987499999999841;57;0.875;violin
226.31231999999997;0.2987499999999841;64;0.875;violin
226.31231999999997;0.2987499999999841;73;0.875;violin
226.31231999999997;0.2987499999999841;81;0.875;violin
