start;duration;pitch;velocity;instrument
0.0;0.121951;79;0.7890625;violin
0.243902;0.09146325;81;0.6328125;violin
0.36585300000000004;0.09146325;79;0.6328125;violin
0.487804;0.09146325;77;0.6328125;violin
0.609755;0.12195100000000003;76;0.6328125;violin
0.7317060000000001;0.09146325;74;0.6328125;violin
0.8536570000000001;0.09146325;72;0.6328125;violin
0.975608;0.12195100000000014;71;0.7890625;violin
1.21951;0.09146325000000011;74;0.6328125;violin
1.341461;0.09146325000000011;72;0.6328125;violin
1.4634120000000002;0.09146324999999988;71;0.6328125;violin
1.585363;0.12195100000000014;69;0.6328125;violin
1.7073140000000002;0.09146324999999988;67;0.6328125;violin
1.8292650000000001;0.09146325000000011;65;0.6328125;violin
1.951216;0.12195100000000014;64;0.7890625;violin
2.1951180000000003;0.09146324999999988;60;0.6328125;violin
2.317069;0.09146325000000033;62;0.6328125;violin
2.43902;0.09146324999999988;64;0.6328125;violin
2.5609710000000003;0.09146324999999988;65;0.6328125;violin
2.682922;0.09146325000000033;67;0.6328125;violin
2.804873;0.09146324999999988;69;0.6328125;violin
2.9268240000000003;0.12195100000000014;67;0.7890625;violin
3.170726;0.09146325000000033;76;0.6328125;violin
3.2926770000000003;0.09146324999999988;74;0.6328125;violin
3.4146280000000004;0.09146324999999988;72;0.6328125;violin
3.536579;0.09146325000000033;71;0.6328125;violin
3.6585300000000003;0.12195100000000014;69;0.6328125;violin
3.7804810000000004;0.09146324999999988;67;0.6328125;violin
3.902432;0.12195100000000014;65;0.7890625;violin
4.146334;0.09146325000000033;74;0.6328125;violin
4.2682850000000006;0.09146324999999944;72;0.6328125;violin
4.390236000000001;0.09146324999999944;71;0.6328125;violin
4.512187000000001;0.12195099999999925;69;0.6328125;violin
4.634138;0.09146325000000033;67;0.6328125;violin
4.756089;0.09146325000000033;65;0.6328125;violin
4.87804;0.12195100000000014;64;0.7890625;violin
5.121942000000001;0.09146324999999944;72;0.6328125;violin
5.243893000000001;0.09146324999999944;71;0.6328125;violin
5.365844;0.09146325000000033;69;0.6328125;violin
5.487795;0.09146325000000033;67;0.6328125;violin
5.609746;0.09146325000000033;65;0.6328125;violin
5.7316970000000005;0.09146325000000033;64;0.6328125;violin
5.853648000000001;0.12195100000000014;62;0.7890625;violin
6.097550000000001;0.09146324999999944;55;0.7890625;violin
6.219501;0.09146325000000033;59;0.7890625;violin
6.341452;0.09146325000000033;62;0.7890625;violin
6.4634030000000005;0.09146325000000033;67;0.7890625;violin
6.585354000000001;0.09146325000000033;71;0.7890625;violin
6.707305000000001;0.09146324999999944;74;0.7890625;violin
6.829256000000001;0.12195100000000014;79;0.6328125;violin
7.073158;0.09146325000000033;67;0.6328125;violin
7.195109;0.09146325000000033;69;0.6328125;violin
7.317060000000001;0.09146325000000033;71;0.6328125;violin
7.439011000000001;0.09146325000000033;72;0.6328125;violin
7.560962000000001;0.09146324999999944;74;0.6328125;violin
7.682913000000001;0.09146324999999944;76;0.6328125;violin
7.804864;0.12195100000000014;77;0.6328125;violin
8.048766;0.12195100000000103;86;0.6328125;violin
8.170717000000002;0.09146324999999855;84;0.6328125;violin
8.292668;0.09146325000000033;83;0.6328125;violin
8.414619;0.09146325000000033;81;0.6328125;violin
8.536570000000001;0.12195099999999925;79;0.6328125;violin
8.658521;0.12195100000000103;77;0.6328125;violin
8.780472000000001;0.24390200000000029;76;0.6328125;violin
9.024374000000002;0.09146324999999855;84;0.6328125;violin
9.146325000000001;0.09146325000000033;83;0.6328125;violin
9.268276;0.09146325000000033;81;0.6328125;violin
9.390227000000001;0.09146325000000033;79;0.6328125;violin
9.512178;0.09146325000000033;77;0.6328125;violin
9.634129000000001;0.09146324999999855;76;0.6328125;violin
9.75608;0.12195099999999925;74;0.6328125;violin
9.999982000000001;0.09146325000000033;83;0.6328125;violin
10.121933;0.09146325000000033;81;0.6328125;violin
10.243884000000001;0.12195099999999925;80;0.6328125;violin
10.365835;0.12195100000000103;77;0.6328125;violin
10.487786000000002;0.12195099999999925;76;0.6328125;violin
10.609737;0.09146325000000033;74;0.6328125;violin
10.731688;0.12195100000000103;72;0.6328125;violin
10.97559;0.09146325000000033;76;0.6328125;violin
11.097541000000001;0.09146325000000033;74;0.6328125;violin
11.219492;0.09146325000000033;72;0.6328125;violin
11.341443000000002;0.09146324999999855;71;0.6328125;violin
11.463394000000001;0.09146325000000033;69;0.6328125;violin
11.585345;0.09146325000000033;67;0.6328125;violin
11.707296000000001;0.12195099999999925;65;0.6328125;violin
11.951198000000002;0.09146325000000033;81;0.6328125;violin
12.073149;0.09146325000000033;79;0.6328125;violin
12.195100000000002;0.09146324999999855;77;0.6328125;violin
12.317051000000001;0.09146325000000033;76;0.6328125;violin
12.439002;0.09146325000000033;74;0.6328125;violin
12.560953000000001;0.09146325000000033;72;0.6328125;violin
12.682904;0.12195100000000103;71;0.6328125;violin
12.926806000000001;0.09146325000000033;79;0.6328125;violin
13.048757000000002;0.09146324999999855;77;0.6328125;violin
13.170708000000001;0.09146325000000033;76;0.6328125;violin
13.292659;0.09146325000000033;74;0.6328125;violin
13.414610000000001;0.09146325000000033;72;0.6328125;violin
13.536561;0.09146325000000033;71;0.6328125;violin
13.658512000000002;0.12195099999999925;72;0.7890625;violin
13.902414000000002;0.12195099999999925;84;0.7890625;violin
14.024365000000001;0.12195099999999925;79;0.7890625;violin
14.146316;0.09146325000000033;76;0.7890625;violin
14.268267000000002;0.09146325000000033;72;0.7890625;violin
14.390218;0.09146325000000033;67;0.7890625;violin
14.512169000000002;0.09146324999999855;64;0.7890625;violin
14.634120000000001;0.42682850000000094;60;0.7890625;violin
15.609728;0.12195100000000103;69;0.7890625;violin
15.85363;0.09146325000000033;69;0.6328125;violin
15.975581000000002;0.09146325000000033;71;0.6328125;violin
16.097532;0.09146325000000033;72;0.6328125;violin
16.219483;0.09146325000000033;74;0.6328125;violin
16.341434000000003;0.09146324999999678;76;0.640625;violin
16.463385000000002;0.09146325000000033;77;0.6484375;violin
16.585336;0.12195099999999925;76;0.8046875;violin
16.829238;0.09146325000000033;69;0.6484375;violin
16.951189000000003;0.09146325000000033;71;0.6484375;violin
17.073140000000002;0.09146325000000033;72;0.6484375;violin
17.195091;0.09146325000000033;74;0.6484375;violin
17.317042;0.09146325000000033;76;0.65625;violin
17.438993;0.09146325000000033;77;0.65625;violin
17.560944000000003;0.12195099999999925;76;0.8125;violin
17.804846;0.09146325000000033;69;0.65625;violin
17.926797;0.09146325000000033;71;0.65625;violin
18.048748000000003;0.09146324999999678;72;0.65625;violin
18.170699000000003;0.09146325000000033;74;0.65625;violin
18.292650000000002;0.09146325000000033;76;0.65625;violin
18.414601;0.09146325000000033;77;0.65625;violin
18.536552;0.12195100000000281;76;0.8125;violin
18.780454000000002;0.12195099999999925;84;0.65625;violin
18.902405;0.12195099999999925;83;0.65625;violin
19.024356;0.09146325000000033;81;0.65625;violin
19.146307;0.09146325000000033;79;0.65625;violin
19.268258000000003;0.09146325000000033;77;0.65625;violin
19.390209000000002;0.09146325000000033;76;0.65625;violin
19.51216;0.12195099999999925;74;0.65625;violin
19.756062;0.09146325000000033;71;0.65625;violin
19.878013000000003;0.09146325000000033;72;0.65625;violin
19.999964000000002;0.09146325000000033;74;0.65625;violin
20.121915;0.09146325000000033;76;0.65625;violin
20.243866;0.09146325000000033;77;0.65625;violin
20.365817000000003;0.09146324999999678;79;0.65625;violin
20.487768000000003;0.12195099999999925;77;0.65625;violin
20.73167;0.09146325000000033;71;0.65625;violin
20.853621;0.09146325000000033;72;0.65625;violin
20.975572000000003;0.09146325000000033;74;0.65625;violin
21.097523000000002;0.09146325000000033;76;0.65625;violin
21.219474;0.09146325000000033;77;0.65625;violin
21.341425;0.09146325000000033;79;0.65625;violin
21.463376;0.12195100000000281;77;0.65625;violin
21.707278000000002;0.09146325000000033;71;0.65625;violin
21.829229;0.09146325000000033;72;0.65625;violin
21.95118;0.09146325000000033;74;0.65625;violin
22.073131000000004;0.09146324999999678;76;0.65625;violin
22.195082000000003;0.09146325000000033;77;0.65625;violin
22.317033000000002;0.09146325000000033;79;0.65625;violin
22.438984;0.12195099999999925;77;0.65625;violin
22.682886000000003;0.09146325000000033;76;0.65625;violin
22.804837000000003;0.09146325000000033;74;0.65625;violin
22.926788000000002;0.09146325000000033;72;0.65625;violin
23.048739;0.09146325000000033;71;0.65625;violin
23.17069;0.09146325000000033;76;0.65625;violin
23.292641000000003;0.09146325000000033;74;0.65625;violin
23.414592000000003;0.12195099999999925;73;0.65625;violin
23.658494;0.09146325000000033;69;0.65625;violin
23.780445000000004;0.09146324999999678;71;0.65625;violin
23.902396000000003;0.09146325000000033;72;0.65625;violin
24.024347000000002;0.09146325000000033;74;0.6640625;violin
24.146298;0.09146325000000033;76;0.671875;violin
24.268249;0.09146325000000033;77;0.671875;violin
24.390200000000004;0.12195099999999925;79;0.6796875;violin
24.634102000000002;0.09146325000000033;82;0.6875;violin
24.756053;0.09146325000000033;81;0.6953125;violin
24.878004;0.09146325000000033;79;0.6953125;violin
24.999955000000003;0.09146325000000033;77;0.703125;violin
25.121906000000003;0.09146325000000033;76;0.703125;violin
25.243857000000002;0.09146325000000033;79;0.7109375;violin
25.365808;0.12195099999999925;77;0.71875;violin
25.609710000000003;0.09146325000000033;74;0.7265625;violin
25.731661000000003;0.09146325000000033;76;0.7265625;violin
25.853612000000002;0.09146325000000033;77;0.734375;violin
25.975563;0.09146325000000033;79;0.7421875;violin
26.097514000000004;0.12195099999999925;81;0.7421875;violin
26.219465000000003;0.09146325000000033;82;0.75;violin
26.341416000000002;0.12195099999999925;81;0.75;violin
26.585318;0.12195100000000281;89;0.765625;violin
26.707269000000004;0.12195099999999925;88;0.765625;violin
26.829220000000003;0.12195099999999925;86;0.7734375;violin
26.951171000000002;0.12195099999999925;84;0.7734375;violin
27.073122;0.12195099999999925;83;0.78125;violin
27.195073;0.12195100000000281;81;0.7890625;violin
27.317024000000004;0.12195099999999925;82;0.7890625;violin
27.560926000000002;0.09146325000000033;86;0.7890625;violin
27.682877;0.09146325000000033;85;0.7890625;violin
27.804828000000004;0.09146324999999678;86;0.7890625;violin
27.926779000000003;0.09146325000000033;82;0.7890625;violin
28.048730000000003;0.09146325000000033;77;0.7890625;violin
28.170681000000002;0.09146325000000033;75;0.7890625;violin
28.292632;0.12195100000000281;74;0.7890625;violin
28.536534000000003;0.12195099999999925;82;0.7890625;violin
28.658485000000002;0.09146325000000033;81;0.7890625;violin
28.780436;0.09146325000000033;82;0.7890625;violin
28.902387;0.09146325000000033;77;0.7890625;violin
29.024338000000004;0.09146325000000033;74;0.7890625;violin
29.146289000000003;0.09146325000000033;70;0.7890625;violin
29.268240000000002;0.12195099999999925;69;0.7890625;violin
29.512142000000004;0.09146324999999678;81;0.75;violin
29.634093000000004;0.09146325000000033;80;0.7265625;violin
29.756044000000003;0.09146325000000033;81;0.7109375;violin
29.877995000000002;0.09146325000000033;76;0.6875;violin
29.999946;0.09146325000000033;72;0.671875;violin
30.121897000000004;0.09146324999999678;69;0.6484375;violin
30.243848000000003;0.12195099999999925;68;0.6328125;violin
30.487750000000002;0.09146325000000033;76;0.6328125;violin
30.609701;0.09146325000000033;75;0.6328125;violin
30.731652000000004;0.12195099999999925;76;0.6328125;violin
30.853603000000003;0.09146325000000033;78;0.6328125;violin
30.975554000000002;0.09146325000000033;80;0.6328125;violin
31.097505;0.09146325000000033;81;0.6328125;violin
31.219456;0.21341425000000314;83;0.6328125;violin
31.463358000000003;0.12195099999999925;76;0.6328125;violin
31.585309000000002;0.10670712499999979;75;0.6328125;violin
31.70726;0.12195100000000281;76;0.6328125;violin
31.829211000000004;0.10670712499999979;78;0.6328125;violin
31.951162000000004;0.10670712499999979;79;0.6328125;violin
32.073113;0.1067071250000069;81;0.6328125;violin
32.195064;0.21341424999999958;82;0.6328125;violin
32.438966;0.12195100000000281;76;0.6328125;violin
32.560917;0.10670712499999979;75;0.6328125;violin
32.682868000000006;0.10670712499999979;76;0.6328125;violin
32.804819;0.10670712499999979;77;0.6328125;violin
32.926770000000005;0.10670712499999979;79;0.6328125;violin
33.048721;0.10670712499999979;82;0.6328125;violin
33.170672;0.21341424999999958;81;0.6328125;violin
33.414574;0.10670712499999979;74;0.6328125;violin
33.536525000000005;0.10670712499999979;73;0.6328125;violin
33.658476;0.10670712499999979;74;0.6328125;violin
33.780427;0.12195100000000281;76;0.6328125;violin
33.902378000000006;0.10670712499999979;77;0.6328125;violin
34.024329;0.10670712499999979;79;0.6328125;violin
34.146280000000004;0.21341424999999958;80;0.6328125;violin
34.390182;0.12195100000000281;74;0.6328125;violin
34.512133000000006;0.10670712499999979;73;0.6328125;violin
34.634084;0.10670712499999979;74;0.6328125;violin
34.756035000000004;0.10670712499999979;75;0.6328125;violin
34.877986;0.10670712499999979;77;0.6328125;violin
34.999937;0.10670712499999979;80;0.6328125;violin
35.121888000000006;0.21341424999999958;79;0.6328125;violin
35.365790000000004;0.10670712499999979;72;0.6328125;violin
35.487741;0.1067071250000069;71;0.640625;violin
35.609692;0.10670712499999979;72;0.65625;violin
35.731643000000005;0.10670712499999979;74;0.6640625;violin
35.853594;0.10670712499999979;75;0.6796875;violin
35.975545000000004;0.10670712499999979;74;0.6875;violin
36.09749600000001;0.21341424999999958;72;0.6953125;violin
36.341398000000005;0.1219509999999957;84;0.71875;violin
36.463349;0.12195100000000281;83;0.734375;violin
36.585300000000004;0.12195100000000281;84;0.7421875;violin
36.70725100000001;0.10670712499999979;86;0.7578125;violin
36.829202;0.10670712499999979;87;0.765625;violin
36.951153000000005;0.10670712499999979;86;0.78125;violin
37.073104;0.21341424999999958;84;0.7890625;violin
37.317006000000006;0.1219509999999957;72;0.7890625;violin
37.438957;0.10670712499999979;71;0.7890625;violin
37.560908000000005;0.10670712499999979;72;0.7890625;violin
37.682859;0.10670712499999979;74;0.7890625;violin
37.80481;0.10670712499999979;75;0.7890625;violin
37.926761000000006;0.10670712499999979;74;0.7890625;violin
38.048712;0.21341424999999958;72;0.7890625;violin
38.292614;0.10670712499999979;60;0.7890625;violin
38.414565;0.10670712499999979;59;0.7890625;violin
38.536516000000006;0.1219509999999957;60;0.7890625;violin
38.658467;0.12195100000000281;63;0.7890625;violin
38.780418000000004;0.1219509999999957;62;0.7890625;violin
38.902369;0.12195100000000281;60;0.7890625;violin
39.02432;0.2439019999999985;59;0.7890625;violin
39.268222;0.10670712499999979;67;0.6328125;violin
39.390173000000004;0.10670712499999979;66;0.6328125;violin
39.512124;0.1067071250000069;67;0.6328125;violin
39.634075;0.10670712499999979;69;0.6328125;violin
39.756026000000006;0.10670712499999979;71;0.6328125;violin
39.877977;0.10670712499999979;72;0.6328125;violin
39.999928000000004;0.21341424999999958;74;0.6328125;violin
40.24383;0.10670712499999979;71;0.6328125;violin
40.365781000000005;0.10670712499999979;70;0.6328125;violin
40.487732;0.10670712499999979;71;0.6328125;violin
40.609683000000004;0.10670712499999979;72;0.640625;violin
40.73163400000001;0.10670712499999979;74;0.65625;violin
40.853585;0.10670712499999979;76;0.671875;violin
40.975536000000005;0.21341424999999958;77;0.6796875;violin
41.219438000000004;0.10670712499999979;74;0.7109375;violin
41.34138900000001;0.10670712499999979;73;0.71875;violin
41.46334;0.10670712499999979;74;0.734375;violin
41.585291000000005;0.1219509999999957;76;0.7421875;violin
41.707242;0.10670712499999979;77;0.7578125;violin
41.829193000000004;0.10670712499999979;79;0.7734375;violin
41.951144000000006;0.21341424999999958;81;0.78125;violin
42.195046000000005;0.10670712499999979;80;0.8125;violin
42.316997;0.10670712499999979;80;0.78125;violin
42.438948;0.10670712499999979;79;0.75;violin
42.560899000000006;0.10670712499999979;79;0.71875;violin
42.68285;0.10670712499999979;78;0.6875;violin
42.804801000000005;0.10670712499999979;78;0.6640625;violin
42.926752;0.2134142500000067;79;0.6328125;violin
43.170654000000006;0.10670712499999979;81;0.6328125;violin
43.292605;0.10670712499999979;79;0.6328125;violin
43.414556000000005;0.10670712499999979;77;0.6328125;violin
43.53650700000001;0.1219509999999957;76;0.6328125;violin
43.658458;0.10670712499999979;74;0.6328125;violin
43.780409000000006;0.10670712499999979;72;0.6328125;violin
43.90236;0.21341424999999958;71;0.6328125;violin
44.14626200000001;0.10670712499999979;74;0.6328125;violin
44.268213;0.10670712499999979;72;0.6328125;violin
44.390164000000006;0.10670712499999979;71;0.6328125;violin
44.512115;0.12195100000000281;69;0.6328125;violin
44.634066000000004;0.10670712499999979;67;0.6328125;violin
44.75601700000001;0.10670712499999979;65;0.6328125;violin
44.877968;0.21341424999999958;64;0.6328125;violin
45.12187;0.10670712499999979;60;0.6328125;violin
45.243821000000004;0.10670712499999979;62;0.6328125;violin
45.36577200000001;0.10670712499999979;64;0.6328125;violin
45.487723;0.10670712499999979;65;0.6328125;violin
45.609674000000005;0.10670712499999979;67;0.6328125;violin
45.731625;0.10670712499999979;69;0.6328125;violin
45.853576000000004;0.21341424999999958;67;0.6328125;violin
46.097478;0.10670712499999979;76;0.6328125;violin
46.219429000000005;0.10670712499999979;74;0.6328125;violin
46.34138;0.10670712499999979;72;0.6328125;violin
46.463331000000004;0.10670712499999979;71;0.6328125;violin
46.58528200000001;0.10670712499999979;69;0.6328125;violin
46.707233;0.10670712499999979;67;0.6328125;violin
46.829184000000005;0.21341424999999958;65;0.6328125;violin
47.073086;0.10670712499999979;74;0.6328125;violin
47.195037000000006;0.10670712499999979;72;0.6328125;violin
47.316988;0.10670712499999979;71;0.6328125;violin
47.438939000000005;0.10670712499999979;69;0.6328125;violin
47.56089000000001;0.10670712499999979;67;0.6328125;violin
47.682841;0.10670712499999979;65;0.6328125;violin
47.804792000000006;0.21341424999999958;64;0.6328125;violin
48.048694000000005;0.10670712499999979;72;0.6328125;violin
48.17064500000001;0.10670712499999979;71;0.6328125;violin
48.292596;0.10670712499999979;69;0.6328125;violin
48.414547000000006;0.10670712499999979;67;0.6328125;violin
48.536498;0.10670712499999979;65;0.6328125;violin
48.658449000000005;0.10670712499999979;64;0.6328125;violin
48.78040000000001;0.21341424999999958;62;0.7890625;violin
49.024302000000006;0.10670712499999979;55;0.7890625;violin
49.146253;0.10670712499999979;59;0.7890625;violin
49.268204000000004;0.10670712499999979;62;0.7890625;violin
49.39015500000001;0.10670712499999979;67;0.7890625;violin
49.512106;0.10670712499999979;71;0.7890625;violin
49.634057000000006;0.10670712499999979;74;0.7890625;violin
49.756008;0.21341424999999958;79;0.7890625;violin
49.99991000000001;0.10670712499999979;67;0.6328125;violin
50.121861;0.10670712499999979;69;0.6328125;violin
50.243812000000005;0.10670712499999979;71;0.6328125;violin
50.365763;0.10670712499999979;72;0.6328125;violin
50.487714000000004;0.10670712499999979;74;0.6328125;violin
50.60966500000001;0.10670712499999979;76;0.6328125;violin
50.731616;0.21341424999999958;77;0.6328125;violin
50.975518;0.1067071250000069;86;0.6328125;violin
51.097469000000004;0.10670712499999979;84;0.6328125;violin
51.21942000000001;0.10670712499999979;83;0.6328125;violin
51.341371;0.10670712499999979;81;0.6328125;violin
51.463322000000005;0.10670712499999979;79;0.6328125;violin
51.58527300000001;0.10670712499999979;77;0.6328125;violin
51.707224000000004;0.21341424999999958;76;0.6328125;violin
51.951126;0.10670712499999979;84;0.6328125;violin
52.073077000000005;0.10670712499999979;83;0.6328125;violin
52.19502800000001;0.10670712499999979;81;0.6328125;violin
52.316979;0.10670712499999979;79;0.6328125;violin
52.438930000000006;0.10670712499999979;77;0.6328125;violin
52.560881;0.10670712499999979;76;0.6328125;violin
52.682832000000005;0.21341424999999958;74;0.6328125;violin
52.926734;0.10670712499999979;83;0.6328125;violin
53.048685000000006;0.10670712499999979;81;0.6328125;violin
53.170636;0.12195100000000281;80;0.6328125;violin
53.292587000000005;0.12195100000000281;77;0.640625;violin
53.41453800000001;0.1219509999999957;76;0.640625;violin
53.536489;0.10670712499999979;74;0.6484375;violin
53.658440000000006;0.21341424999999958;72;0.65625;violin
53.902342000000004;0.12195100000000281;76;0.671875;violin
54.02429300000001;0.10670712499999979;74;0.671875;violin
54.146244;0.10670712499999979;72;0.6796875;violin
54.268195000000006;0.10670712499999979;71;0.6875;violin
54.390146;0.12195100000000281;69;0.6953125;violin
54.512097000000004;0.10670712499999979;67;0.703125;violin
54.63404800000001;0.21341424999999958;65;0.703125;violin
54.877950000000006;0.10670712499999979;81;0.703125;violin
54.99990100000001;0.10670712499999979;79;0.703125;violin
55.121852000000004;0.10670712499999979;77;0.703125;violin
55.24380300000001;0.1219509999999957;76;0.703125;violin
55.365754;0.10670712499999979;74;0.703125;violin
55.487705000000005;0.10670712499999979;72;0.703125;violin
55.60965600000001;0.21341424999999958;71;0.703125;violin
55.85355800000001;0.10670712499999979;79;0.703125;violin
55.975509;0.10670712499999979;77;0.703125;violin
56.097460000000005;0.12195100000000281;76;0.703125;violin
56.21941100000001;0.10670712499999979;74;0.703125;violin
56.341362000000004;0.10670712499999979;72;0.703125;violin
56.46331300000001;0.10670712499999979;71;0.703125;violin
56.585264;0.21341424999999958;72;0.703125;violin
56.82916600000001;0.10670712499999979;84;0.703125;violin
56.951117;0.10670712499999979;79;0.703125;violin
57.073068000000006;0.10670712499999979;76;0.703125;violin
57.195019;0.10670712499999979;72;0.703125;violin
57.316970000000005;0.10670712499999979;67;0.703125;violin
57.43892100000001;0.10670712499999979;64;0.703125;violin
57.560872;0.42682849999999917;60;0.703125;violin
58.536480000000005;0.21341424999999958;72;0.703125;violin
58.780382;0.10670712499999979;84;0.703125;violin
58.902333000000006;0.10670712499999979;81;0.703125;violin
59.02428400000001;0.10670712499999979;78;0.703125;violin
59.146235000000004;0.12195100000000281;75;0.703125;violin
59.26818600000001;0.10670712499999979;72;0.703125;violin
59.390137;0.12195100000000281;69;0.703125;violin
59.512088000000006;0.42682849999999917;66;0.703125;violin
60.48769600000001;0.21341424999999958;67;0.703125;violin
60.731598000000005;0.10670712499999979;81;0.703125;violin
60.85354900000001;0.10670712499999979;79;0.703125;violin
60.975500000000004;0.10670712499999979;76;0.703125;violin
61.09745100000001;0.10670712499999979;72;0.703125;violin
61.219402;0.10670712499999979;67;0.703125;violin
61.341353000000005;0.10670712499999979;64;0.703125;violin
61.46330400000001;0.42682849999999917;60;0.703125;violin
62.438912;0.2134142500000067;55;0.703125;violin
62.68281400000001;0.1219509999999957;77;0.703125;violin
62.804765;0.12195100000000281;74;0.7109375;violin
62.926716000000006;0.10670712499999979;71;0.7109375;violin
63.04866700000001;0.10670712499999979;67;0.71875;violin
63.170618000000005;0.10670712499999979;65;0.7265625;violin
63.29256900000001;0.10670712499999979;62;0.734375;violin
63.41452;0.42682849999999917;59;0.7421875;violin
64.390128;0.21341424999999958;60;0.7890625;violin
64.63403000000001;0.10670712499999979;60;0.7890625;violin
64.755981;0.10670712499999979;64;0.7890625;violin
64.877932;0.10670712499999979;67;0.7890625;violin
64.99988300000001;0.10670712499999979;72;0.7890625;violin
65.121834;0.10670712499999979;76;0.7890625;violin
65.243785;0.10670712499999979;79;0.7890625;violin
65.36573600000001;0.42682849999999917;84;0.7890625;violin
66.341344;0.21341424999999958;72;0.6328125;violin
66.58524600000001;0.10670712499999979;84;0.6328125;violin
66.70719700000001;0.10670712499999979;81;0.6328125;violin
66.829148;0.10670712499999979;78;0.6328125;violin
66.951099;0.12195100000000991;75;0.6328125;violin
67.07305000000001;0.10670712499999979;72;0.6328125;violin
67.195001;0.1219509999999957;69;0.6328125;violin
67.316952;0.42682849999999917;66;0.6328125;violin
68.29256000000001;0.21341424999999958;58;0.6328125;violin
68.536462;0.10670712499999979;82;0.6328125;violin
68.65841300000001;0.10670712499999979;79;0.6328125;violin
68.780364;0.10670712499999979;75;0.6328125;violin
68.902315;0.10670712499999979;70;0.6328125;violin
69.02426600000001;0.10670712499999979;67;0.6328125;violin
69.14621700000001;0.10670712499999979;63;0.6328125;violin
69.268168;0.42682849999999917;58;0.6328125;violin
70.24377600000001;0.21341424999999958;59;0.6328125;violin
70.487678;0.10670712499999979;80;0.6328125;violin
70.60962900000001;0.10670712499999979;77;0.6328125;violin
70.73158000000001;0.10670712499999979;74;0.6328125;violin
70.853531;0.10670712499999979;71;0.6328125;violin
70.975482;0.10670712499999979;68;0.6328125;violin
71.09743300000001;0.10670712499999979;65;0.6328125;violin
71.219384;0.42682849999999917;62;0.6328125;violin
72.19499200000001;0.21341424999999958;60;0.6328125;violin
72.438894;0.10670712499999979;79;0.6328125;violin
72.560845;0.10670712499999979;74;0.6328125;violin
72.68279600000001;0.10670712499999979;75;0.6328125;violin
72.804747;0.10670712499999979;72;0.6328125;violin
72.926698;0.10670712499999979;67;0.6328125;violin
73.04864900000001;0.10670712499999979;63;0.6328125;violin
73.17060000000001;0.42682849999999917;60;0.6328125;violin
74.146208;0.21341424999999958;56;0.7890625;violin
74.146208;0.21341424999999958;63;0.7890625;violin
74.39011;0.10670712499999979;70;0.7890625;violin
74.512061;0.10670712499999979;70;0.7890625;violin
74.63401200000001;0.10670712499999979;72;0.7890625;violin
74.75596300000001;0.10670712499999979;72;0.7890625;violin
74.877914;0.10670712499999979;74;0.7890625;violin
74.999865;0.10670712499999979;74;0.7890625;violin
75.12181600000001;0.42682849999999917;75;0.7890625;violin
76.097424;0.21341424999999958;55;0.7890625;violin
76.097424;0.21341424999999958;64;0.7890625;violin
76.097424;0.21341424999999958;72;0.7890625;violin
76.34132600000001;0.10670712499999979;76;0.7890625;violin
76.463277;0.10670712499999979;76;0.7890625;violin
76.585228;0.10670712499999979;77;0.7890625;violin
76.70717900000001;0.10670712499999979;77;0.7890625;violin
76.82913;0.10670712499999979;78;0.7890625;violin
76.951081;0.10670712499999979;78;0.7890625;violin
77.07303200000001;0.42682849999999917;79;0.7890625;violin
78.04864;0.21341424999999958;55;0.828125;violin
78.04864;0.21341424999999958;65;0.828125;violin
78.04864;0.21341424999999958;71;0.828125;violin
78.29254200000001;0.10670712499999979;81;0.828125;violin
78.41449300000001;0.10670712499999979;79;0.828125;violin
78.536444;0.10670712499999979;77;0.828125;violin
78.65839500000001;0.10670712499999979;76;0.828125;violin
78.78034600000001;0.10670712499999979;74;0.828125;violin
78.902297;0.10670712499999979;72;0.828125;violin
79.024248;0.2134142500000138;71;0.828125;violin
79.26815;0.10670712499999979;76;0.828125;violin
79.390101;0.10670712499999979;74;0.828125;violin
79.51205200000001;0.10670712499999979;72;0.8203125;violin
79.634003;0.10670712499999979;71;0.8125;violin
79.755954;0.10670712499999979;69;0.8125;violin
79.87790500000001;0.10670712499999979;67;0.8046875;violin
79.99985600000001;0.21341424999999958;72;0.796875;violin
80.24375800000001;0.10670712499999979;60;0.7890625;violin
80.36570900000001;0.10670712499999979;64;0.7890625;violin
80.48766;0.10670712499999979;67;0.7890625;violin
80.609611;0.10670712499999979;72;0.7890625;violin
80.73156200000001;0.10670712499999979;76;0.7890625;violin
80.853513;0.10670712499999979;79;0.7890625;violin
80.975464;0.42682849999999917;84;0.7890625;violin
81.95107200000001;0.42682849999999917;60;0.7890625;violin
81.95107200000001;0.8536569999999983;64;0.7890625;violin
81.95107200000001;0.8536569999999983;72;0.7890625;violin
82.92668;0.8536569999999983;63;0.8828125;violin
82.92668;0.8536569999999983;72;0.8828125;violin
83.90228800000001;1.2804854999999975;64;0.96875;violin
83.90228800000001;1.2804854999999975;72;0.96875;violin
