start;duration;pitch;velocity;instrument
0.0;0.519801625;65;0.6328125;violin
0.594059;1.1881180000000002;77;0.6328125;violin
1.7821770000000001;0.1980196666666667;79;0.59375;violin
1.9801966666666668;0.19801966666666648;77;0.59375;violin
2.1782163333333333;0.1732672083333333;74;0.5859375;violin
2.376236;0.5940590000000001;72;0.5859375;violin
2.970295;0.4455442500000002;75;0.5859375;violin
3.5643540000000002;1.386137666666667;69;0.5859375;violin
4.950491666666667;0.19801966666666626;70;0.546875;violin
5.148511333333333;0.17326720833333376;72;0.5390625;violin
5.346531000000001;0.4455442499999993;70;0.5390625;violin
5.94059;0.4455442500000002;65;0.5390625;violin
6.534649;1.1881180000000002;77;0.5390625;violin
7.722767;0.19801966666666715;79;0.5078125;violin
7.920786666666667;0.19801966666666626;77;0.5;violin
8.118806333333334;0.17326720833333376;74;0.5;violin
8.316826;0.5940589999999997;72;0.5;violin
8.910885;0.4455442499999993;75;0.5;violin
9.504944;1.3861376666666665;69;0.5;violin
10.891081666666667;0.19801966666666715;70;0.4609375;violin
11.089101333333334;0.17326720833333376;72;0.453125;violin
11.287121;0.4455442499999993;70;0.453125;violin
11.88118;0.5940589999999997;74;0.734375;violin
12.475239;1.1881180000000011;86;0.734375;violin
13.663357000000001;0.19801966666666537;84;0.71875;violin
13.861376666666667;0.19801966666666715;82;0.7109375;violin
14.059396333333334;0.17326720833333376;81;0.7109375;violin
14.257416000000001;0.4455442499999993;82;0.7109375;violin
14.851475;0.5940589999999997;79;0.7109375;violin
15.445534;1.1881180000000011;81;0.7109375;violin
16.633652;0.19801966666666715;79;0.6875;violin
16.83167166666667;0.19801966666666715;77;0.6875;violin
17.029691333333336;0.17326720833333198;76;0.6796875;violin
17.227711;0.4455442500000011;77;0.6796875;violin
17.82177;0.4455442500000011;74;0.6796875;violin
18.415829000000002;1.1881179999999993;86;0.6796875;violin
19.603947;0.19801966666666715;84;0.6640625;violin
19.80196666666667;0.19801966666666715;82;0.65625;violin
19.999986333333336;0.17326720833333198;81;0.65625;violin
20.198006;0.4455442500000011;82;0.65625;violin
20.792065;0.4455442500000011;79;0.65625;violin
21.386124000000002;1.1881179999999993;81;0.65625;violin
22.574242;0.19801966666666715;79;0.640625;violin
22.77226166666667;0.19801966666666715;77;0.6328125;violin
22.970281333333336;0.17326720833333198;76;0.6328125;violin
23.168301;0.4455442500000011;74;0.6328125;violin
23.76236;0.5940590000000014;65;0.6328125;violin
24.356419000000002;1.1881179999999993;77;0.6328125;violin
25.544537000000002;0.19801966666666715;79;0.5859375;violin
25.74255666666667;0.19801966666666715;77;0.578125;violin
25.940576333333336;0.17326720833333198;74;0.5703125;violin
26.138596;0.5940590000000014;72;0.5703125;violin
26.732655;0.4455442500000011;75;0.5703125;violin
27.326714000000003;1.3861376666666665;69;0.5703125;violin
28.71285166666667;0.19801966666666715;70;0.515625;violin
28.910871333333336;0.17326720833333198;72;0.515625;violin
29.108891;0.4455442500000011;70;0.515625;violin
29.70295;0.4455442500000011;65;0.515625;violin
30.297009000000003;1.1881179999999993;77;0.515625;violin
31.485127000000002;0.19801966666666715;79;0.46875;violin
31.68314666666667;0.19801966666666715;77;0.4609375;violin
31.881166333333336;0.17326720833333198;74;0.453125;violin
32.079186;0.5940590000000014;72;0.453125;violin
32.673245;0.5940590000000014;79;0.7578125;violin
33.267304;1.386137666666663;65;0.6328125;violin
34.653441666666666;0.19801966666666715;67;0.4765625;violin
34.85146133333333;0.17326720833333553;69;0.453125;violin
35.049481;0.44554425000000464;70;0.453125;violin
35.64354;0.44554424999999753;74;0.7890625;violin
36.237599;0.09900983333333357;82;0.7890625;violin
36.43561866666667;0.09900983333333357;81;0.7890625;violin
36.63363833333334;0.09900983333333357;79;0.7890625;violin
36.831658000000004;0.09900983333333357;78;0.7890625;violin
37.02967766666667;0.09900983333333357;79;0.7890625;violin
37.22769733333334;0.09900983333332647;81;0.7890625;violin
37.425717;0.09900983333333357;79;0.7890625;violin
37.82175633333333;0.09900983333333357;74;0.7890625;violin
38.019776;0.2970295000000007;75;0.7890625;violin
38.613835;0.2970295000000007;72;0.7890625;violin
39.207894;0.09900983333333357;74;0.7890625;violin
39.40591366666667;0.09900983333333357;72;0.7890625;violin
39.60393333333334;0.09900983333333357;70;0.7890625;violin
39.801953000000005;0.09900983333333357;69;0.7890625;violin
39.99997266666667;0.09900983333333357;70;0.7890625;violin
40.19799233333334;0.09900983333332647;72;0.7890625;violin
40.396012;0.09900983333333357;70;0.7890625;violin
40.79205133333333;0.09900983333333357;67;0.7890625;violin
40.990071;0.2970295000000007;69;0.7890625;violin
41.58413;0.2970295000000007;74;0.7890625;violin
42.178189;0.09900983333333357;82;0.7890625;violin
42.37620866666667;0.09900983333333357;81;0.7890625;violin
42.57422833333334;0.09900983333333357;79;0.7890625;violin
42.772248000000005;0.09900983333333357;78;0.7890625;violin
42.97026766666667;0.09900983333333357;79;0.7890625;violin
43.16828733333334;0.09900983333332647;81;0.7890625;violin
43.366307;0.09900983333333357;79;0.7890625;violin
43.76234633333333;0.09900983333333357;74;0.7890625;violin
43.960366;0.2970295000000007;75;0.7890625;violin
44.554425;0.2970295000000007;72;0.7890625;violin
45.148484;0.09900983333333357;74;0.7890625;violin
45.34650366666667;0.09900983333333357;72;0.7890625;violin
45.54452333333334;0.09900983333333357;70;0.7890625;violin
45.742543000000005;0.09900983333333357;69;0.7890625;violin
45.94056266666667;0.09900983333333357;70;0.7890625;violin
46.13858233333334;0.09900983333332647;72;0.7890625;violin
46.336602;0.14851475000000391;70;0.7890625;violin
46.73264133333333;0.14851475000000391;69;0.7890625;violin
46.930661;0.5940590000000014;67;0.7890625;violin
47.52472;0.5198016249999995;65;0.6328125;violin
48.118779;1.1881179999999958;77;0.6328125;violin
49.306897;0.19801966666666715;79;0.5859375;violin
49.50491666666667;0.19801966666666715;77;0.578125;violin
49.702936333333334;0.17326720833333553;74;0.5703125;violin
49.900956;0.5940590000000014;72;0.5703125;violin
50.495015;0.44554424999999753;75;0.5703125;violin
51.089074000000004;1.386137666666663;69;0.5703125;violin
52.47521166666667;0.19801966666666715;70;0.515625;violin
52.673231333333334;0.17326720833333553;72;0.515625;violin
52.871251;0.44554425000000464;70;0.515625;violin
53.46531;0.44554424999999753;65;0.515625;violin
54.059369000000004;1.1881179999999958;77;0.515625;violin
55.247487;0.19801966666666715;79;0.46875;violin
55.44550666666667;0.19801966666666715;77;0.4609375;violin
55.643526333333334;0.17326720833333553;74;0.453125;violin
55.841546;0.5940590000000014;72;0.453125;violin
56.435605;0.5940590000000014;79;0.7578125;violin
57.029664000000004;1.386137666666663;65;0.6328125;violin
58.41580166666667;0.19801966666666715;67;0.4765625;violin
58.613821333333334;0.17326720833333553;69;0.453125;violin
58.811841;0.44554425000000464;70;0.453125;violin
59.7029295;0.22277212499999877;70;0.7890625;violin
59.999959000000004;0.09900983333333357;67;0.7890625;violin
60.19797866666667;0.09900983333333357;65;0.7890625;violin
60.39599833333334;0.09900983333333357;67;0.7890625;violin
60.594018000000005;0.09900983333333357;68;0.7890625;violin
60.79203766666667;0.09900983333333357;67;0.7890625;violin
60.99005733333334;0.09900983333333357;68;0.7890625;violin
61.188077;0.17326720833333553;70;0.7890625;violin
61.584116333333334;0.17326720833333553;79;0.7890625;violin
61.782136;0.2970295000000007;77;0.7890625;violin
62.376195;0.14851475000000391;75;0.7890625;violin
62.77223433333334;0.1485147499999968;70;0.7890625;violin
62.970254000000004;0.09900983333333357;67;0.7890625;violin
63.16827366666667;0.09900983333333357;65;0.7890625;violin
63.36629333333334;0.09900983333333357;67;0.7890625;violin
63.564313000000006;0.09900983333333357;68;0.7890625;violin
63.76233266666667;0.09900983333333357;67;0.7890625;violin
63.96035233333334;0.09900983333333357;68;0.7890625;violin
64.158372;0.17326720833334264;70;0.7890625;violin
64.55441133333333;0.17326720833334264;79;0.7890625;violin
64.752431;0.29702950000000783;81;0.7890625;violin
65.34649;0.14851475000000391;74;0.7890625;violin
65.74252933333334;0.14851475000000391;74;0.7890625;violin
65.940549;0.09900983333332647;82;0.7890625;violin
66.13856866666667;0.09900983333332647;81;0.7890625;violin
66.33658833333334;0.09900983333332647;79;0.7890625;violin
66.534608;0.09900983333332647;78;0.7890625;violin
66.73262766666667;0.09900983333332647;79;0.7890625;violin
66.93064733333334;0.09900983333332647;81;0.7890625;violin
67.12866700000001;0.09900983333332647;79;0.7890625;violin
67.52470633333334;0.09900983333332647;74;0.7890625;violin
67.72272600000001;0.44554424999999753;75;0.7890625;violin
68.31678500000001;0.44554424999999753;72;0.7890625;violin
68.910844;0.09900983333334068;74;0.7890625;violin
69.10886366666666;0.09900983333334068;72;0.7890625;violin
69.30688333333333;0.09900983333334068;70;0.7890625;violin
69.504903;0.09900983333334068;69;0.7890625;violin
69.70292266666667;0.09900983333334068;70;0.7890625;violin
69.90094233333333;0.09900983333334068;72;0.7890625;violin
70.098962;0.09900983333334068;70;0.7890625;violin
70.49500133333333;0.09900983333334068;67;0.7890625;violin
70.693021;0.5940590000000014;67;0.7890625;violin
71.28708;0.5198016249999995;65;0.6328125;violin
71.881139;1.188118000000003;77;0.6328125;violin
73.06925700000001;0.19801966666666715;79;0.6328125;violin
73.26727666666667;0.19801966666666715;77;0.6328125;violin
73.46529633333334;0.17326720833332843;74;0.6328125;violin
73.66331600000001;0.5940590000000014;72;0.6328125;violin
74.25737500000001;0.44554424999999753;75;0.6328125;violin
74.851434;1.38613766666667;69;0.6328125;violin
76.23757166666667;0.19801966666666715;70;0.6328125;violin
76.43559133333333;0.17326720833334264;72;0.6328125;violin
76.633611;0.44554424999999753;70;0.6328125;violin
77.22767;0.44554424999999753;65;0.6328125;violin
77.821729;1.188118000000003;77;0.6328125;violin
79.00984700000001;0.19801966666666715;79;0.6328125;violin
79.20786666666667;0.19801966666666715;77;0.640625;violin
79.40588633333334;0.17326720833332843;74;0.6484375;violin
79.60390600000001;0.5940590000000014;73;0.65625;violin
80.19796500000001;0.44554424999999753;69;0.6796875;violin
80.792024;1.188118000000003;81;0.6953125;violin
81.980142;0.19801966666666715;79;0.7421875;violin
82.17816166666667;0.19801966666666715;77;0.75;violin
82.37618133333334;0.17326720833334264;76;0.7578125;violin
82.574201;0.44554424999999753;77;0.765625;violin
83.16826;0.44554424999999753;74;0.7890625;violin
83.762319;1.188118000000003;86;0.7890625;violin
84.95043700000001;0.19801966666666715;84;0.765625;violin
85.14845666666668;0.19801966666666715;82;0.7578125;violin
85.34647633333334;0.17326720833332843;81;0.75;violin
85.54449600000001;0.44554424999999753;82;0.75;violin
86.13855500000001;0.44554424999999753;79;0.75;violin
86.732614;1.188118000000003;81;0.75;violin
87.920732;0.19801966666666715;79;0.7265625;violin
88.11875166666667;0.19801966666666715;77;0.71875;violin
88.31677133333334;0.17326720833334264;76;0.71875;violin
88.514791;0.44554424999999753;77;0.71875;violin
89.10885;0.44554424999999753;62;0.71875;violin
89.702909;1.38613766666667;77;0.71875;violin
91.08904666666668;0.19801966666666715;76;0.6875;violin
91.28706633333334;0.17326720833332843;74;0.6796875;violin
91.48508600000001;0.5940590000000014;72;0.6796875;violin
92.07914500000001;0.44554424999999753;69;0.6640625;violin
92.673204;1.38613766666667;70;0.6640625;violin
94.05934166666667;0.19801966666666715;69;0.6328125;violin
94.25736133333334;0.17326720833334264;67;0.6328125;violin
94.455381;0.44554424999999753;65;0.6328125;violin
95.04944;0.44554424999999753;65;0.6328125;violin
95.643499;1.188118000000003;77;0.6328125;violin
96.83161700000001;0.19801966666666715;79;0.5859375;violin
97.02963666666668;0.19801966666666715;77;0.578125;violin
97.22765633333334;0.17326720833332843;74;0.5703125;violin
97.42567600000001;0.5940590000000014;72;0.5703125;violin
98.01973500000001;0.44554424999999753;75;0.5703125;violin
98.613794;1.38613766666667;69;0.5703125;violin
99.99993166666667;0.19801966666666715;70;0.515625;violin
100.19795133333334;0.17326720833334264;72;0.515625;violin
100.395971;0.44554424999999753;70;0.515625;violin
100.99003;0.44554424999999753;65;0.515625;violin
101.584089;1.188118000000003;77;0.515625;violin
102.77220700000001;0.19801966666666715;79;0.46875;violin
102.97022666666668;0.19801966666666715;77;0.4609375;violin
103.16824633333334;0.17326720833332843;74;0.453125;violin
103.36626600000001;0.5940590000000014;72;0.453125;violin
103.96032500000001;0.5940589999999872;79;0.7578125;violin
104.554384;1.38613766666667;65;0.6328125;violin
105.94052166666667;0.19801966666666715;67;0.4765625;violin
106.13854133333334;0.17326720833334264;69;0.453125;violin
106.336561;0.44554424999999753;70;0.453125;violin
107.22764950000001;0.22277212499999166;72;0.7890625;violin
107.524679;0.19801966666666715;69;0.734375;violin
107.72269866666667;0.09900983333332647;67;0.734375;violin
107.92071833333334;0.19801966666666715;69;0.734375;violin
108.11873800000001;0.09900983333332647;70;0.734375;violin
108.31675766666667;0.09900983333332647;72;0.734375;violin
108.51477733333334;0.09900983333332647;74;0.734375;violin
108.71279700000001;0.09900983333332647;72;0.734375;violin
108.91081666666668;0.09900983333332647;77;0.734375;violin
109.10883633333334;0.09900983333332647;81;0.734375;violin
109.30685600000001;0.19801966666666715;78;0.734375;violin
109.50487566666668;0.19801966666666715;79;0.6953125;violin
109.70289533333334;0.19801966666666715;81;0.6640625;violin
109.90091500000001;0.17326720833332843;79;0.625;violin
110.09893466666668;0.09900983333332647;76;0.59375;violin
110.29695433333335;0.09900983333332647;72;0.5546875;violin
110.494974;0.19801966666666715;69;0.734375;violin
110.69299366666667;0.09900983333334068;67;0.734375;violin
110.89101333333333;0.19801966666666715;69;0.734375;violin
111.089033;0.09900983333334068;70;0.734375;violin
111.28705266666667;0.09900983333334068;72;0.734375;violin
111.48507233333333;0.09900983333334068;74;0.734375;violin
111.683092;0.09900983333334068;72;0.734375;violin
111.88111166666667;0.09900983333334068;77;0.734375;violin
112.07913133333334;0.09900983333334068;81;0.734375;violin
112.277151;0.19801966666666715;78;0.734375;violin
112.47517066666667;0.19801966666666715;79;0.7109375;violin
112.67319033333334;0.19801966666666715;84;0.6953125;violin
112.87121;0.19801966666666715;82;0.671875;violin
113.06922966666667;0.19801966666666715;79;0.671875;violin
113.26724933333334;0.09900983333332647;76;0.671875;violin
113.465269;0.09900983333332647;77;0.671875;violin
113.66328866666667;0.09900983333332647;81;0.671875;violin
113.86130833333334;0.09900983333332647;79;0.671875;violin
114.05932800000001;0.09900983333332647;77;0.671875;violin
114.25734766666667;0.19801966666666715;76;0.671875;violin
114.45536733333334;0.09900983333332647;74;0.671875;violin
114.65338700000001;0.09900983333332647;79;0.671875;violin
114.85140666666668;0.19801966666666715;76;0.671875;violin
115.04942633333334;0.09900983333332647;74;0.671875;violin
115.24744600000001;0.19801966666666715;71;0.671875;violin
115.44546566666668;0.19801966666666715;69;0.6484375;violin
115.64348533333335;0.19801966666666715;71;0.6328125;violin
115.84150500000001;0.17326720833332843;72;0.609375;violin
116.03952466666668;0.09900983333332647;76;0.609375;violin
116.23754433333335;0.09900983333332647;79;0.609375;violin
116.435564;0.19801966666666715;80;0.765625;violin
116.63358366666667;0.17326720833334264;81;0.609375;violin
116.83160333333333;0.09900983333334068;77;0.609375;violin
117.029623;0.19801966666666715;78;0.765625;violin
117.22764266666667;0.17326720833334264;80;0.609375;violin
117.42566233333334;0.09900983333334068;76;0.609375;violin
117.623682;0.19801966666666715;76;0.765625;violin
117.82170166666667;0.17326720833334264;77;0.609375;violin
118.01972133333334;0.17326720833334264;71;0.609375;violin
118.217741;0.5198016249999995;72;0.609375;violin
119.10882950000001;0.25990081249999264;72;0.609375;violin
119.405859;0.09900983333332647;82;0.765625;violin
119.60387866666667;0.09900983333332647;81;0.609375;violin
119.80189833333334;0.09900983333332647;79;0.609375;violin
119.99991800000001;0.09900983333332647;78;0.609375;violin
120.19793766666668;0.09900983333332647;79;0.609375;violin
120.39595733333334;0.09900983333332647;81;0.609375;violin
120.59397700000001;0.09900983333332647;79;0.609375;violin
120.79199666666668;0.09900983333332647;76;0.609375;violin
120.99001633333334;0.09900983333332647;72;0.609375;violin
121.18803600000001;0.19801966666666715;73;0.609375;violin
121.38605566666668;0.19801966666666715;75;0.609375;violin
121.58407533333335;0.19801966666666715;73;0.609375;violin
121.78209500000001;0.17326720833332843;72;0.609375;violin
121.98011466666668;0.09900983333332647;76;0.609375;violin
122.17813433333335;0.09900983333332647;79;0.609375;violin
122.376154;0.09900983333334068;82;0.765625;violin
122.57417366666667;0.09900983333334068;81;0.609375;violin
122.77219333333333;0.09900983333334068;79;0.609375;violin
122.970213;0.09900983333334068;78;0.609375;violin
123.16823266666667;0.09900983333334068;79;0.609375;violin
123.36625233333334;0.09900983333334068;81;0.609375;violin
123.564272;0.09900983333334068;79;0.609375;violin
123.76229166666667;0.09900983333334068;76;0.609375;violin
123.96031133333334;0.09900983333334068;72;0.609375;violin
124.158331;0.19801966666666715;73;0.765625;violin
124.35635066666667;0.19801966666666715;75;0.609375;violin
124.55437033333334;0.19801966666666715;73;0.609375;violin
124.75239;0.17326720833332843;72;0.609375;violin
124.95040966666667;0.09900983333334068;67;0.609375;violin
125.14842933333334;0.09900983333332647;64;0.609375;violin
125.346449;0.09900983333332647;65;0.609375;violin
125.54446866666667;0.09900983333332647;67;0.609375;violin
125.74248833333334;0.09900983333332647;69;0.609375;violin
125.94050800000001;0.09900983333332647;70;0.609375;violin
126.13852766666668;0.09900983333332647;72;0.625;violin
126.33654733333334;0.09900983333332647;74;0.640625;violin
126.53456700000001;0.09900983333332647;72;0.65625;violin
126.73258666666668;0.09900983333332647;77;0.671875;violin
126.93060633333334;0.09900983333332647;75;0.6875;violin
127.12862600000001;0.19801966666666715;73;0.859375;violin
127.32664566666668;0.19801966666666715;74;0.71875;violin
127.52466533333335;0.19801966666666715;79;0.7265625;violin
127.72268500000001;0.17326720833332843;82;0.7421875;violin
127.92070466666668;0.09900983333334068;81;0.7578125;violin
128.11872433333335;0.09900983333332647;79;0.7734375;violin
128.316744;0.19801966666668136;77;0.7890625;violin
128.51476366666668;0.17326720833332843;81;0.7890625;violin
128.71278333333333;0.19801966666668136;72;0.7890625;violin
128.91080300000002;0.19801966666665294;77;0.7890625;violin
129.10882266666667;0.19801966666668136;69;0.7890625;violin
129.30684233333335;0.17326720833332843;74;0.7890625;violin
129.504862;0.19801966666668136;72;0.7890625;violin
129.70288166666668;0.17326720833332843;70;0.7890625;violin
129.90090133333334;0.09900983333332647;67;0.7890625;violin
130.09892100000002;0.4455442499999833;65;0.7890625;violin
130.69298;0.44554425000001174;65;0.78125;violin
131.287039;1.188118000000003;77;0.78125;violin
132.475157;0.19801966666668136;79;0.7734375;violin
132.67317666666668;0.19801966666665294;77;0.7734375;violin
132.87119633333333;0.17326720833335685;74;0.7734375;violin
133.069216;0.5940589999999872;72;0.7734375;violin
133.663275;0.44554425000001174;75;0.7734375;violin
134.25733400000001;1.3861376666666558;69;0.7734375;violin
135.64347166666667;0.19801966666668136;70;0.7578125;violin
135.84149133333335;0.17326720833332843;72;0.7578125;violin
136.039511;0.44554425000001174;70;0.7578125;violin
136.63357000000002;0.4455442499999833;65;0.7578125;violin
137.227629;1.188118000000003;77;0.7578125;violin
138.415747;0.19801966666665294;79;0.75;violin
138.61376666666666;0.19801966666668136;77;0.75;violin
138.81178633333334;0.17326720833332843;74;0.75;violin
139.009806;0.5940590000000157;72;0.75;violin
139.603865;0.4455442499999833;75;0.75;violin
140.197924;1.3861376666666843;69;0.75;violin
141.58406166666668;0.19801966666665294;70;0.734375;violin
141.78208133333334;0.17326720833332843;72;0.734375;violin
141.98010100000002;0.4455442499999833;70;0.734375;violin
142.57416;0.5940589999999872;74;0.734375;violin
143.168219;1.188118000000003;86;0.734375;violin
144.356337;0.19801966666668136;84;0.71875;violin
144.55435666666668;0.19801966666665294;82;0.7109375;violin
144.75237633333333;0.17326720833335685;81;0.7109375;violin
144.950396;0.4455442499999833;82;0.7109375;violin
145.544455;0.5940590000000157;79;0.7109375;violin
146.13851400000001;1.188118000000003;81;0.7109375;violin
147.32663200000002;0.19801966666665294;79;0.6875;violin
147.52465166666667;0.19801966666668136;77;0.6875;violin
147.72267133333335;0.17326720833332843;76;0.6796875;violin
147.920691;0.44554425000001174;77;0.6796875;violin
148.51475000000002;0.4455442499999833;74;0.6796875;violin
149.108809;1.188118000000003;86;0.6796875;violin
150.296927;0.19801966666665294;84;0.6640625;violin
150.49494666666666;0.19801966666668136;82;0.6640625;violin
150.69296633333335;0.17326720833332843;81;0.65625;violin
150.890986;0.44554425000001174;82;0.65625;violin
151.485045;0.4455442499999833;79;0.65625;violin
152.079104;1.188118000000003;81;0.65625;violin
153.267222;0.19801966666668136;79;0.640625;violin
153.46524166666669;0.19801966666665294;77;0.6328125;violin
153.66326133333334;0.17326720833332843;76;0.6328125;violin
153.86128100000002;0.4455442499999833;74;0.6328125;violin
154.45534;0.5940590000000157;65;0.6328125;violin
155.04939900000002;1.1881179999999745;77;0.6328125;violin
156.237517;0.19801966666668136;79;0.609375;violin
156.43553666666668;0.19801966666665294;77;0.609375;violin
156.63355633333333;0.17326720833335685;74;0.609375;violin
156.831576;0.5940589999999872;72;0.609375;violin
157.425635;0.44554425000001174;75;0.609375;violin
158.01969400000002;1.3861376666666558;69;0.609375;violin
159.40583166666667;0.19801966666668136;70;0.5859375;violin
159.60385133333335;0.17326720833332843;72;0.578125;violin
159.801871;0.44554425000001174;70;0.578125;violin
160.39593000000002;0.4455442499999833;65;0.578125;violin
160.989989;1.188118000000003;77;0.578125;violin
162.178107;0.19801966666665294;79;0.5625;violin
162.37612666666666;0.19801966666668136;77;0.5625;violin
162.57414633333335;0.17326720833332843;74;0.5546875;violin
162.772166;0.5940590000000157;72;0.5546875;violin
163.36622500000001;0.5940589999999872;79;0.7578125;violin
165.148402;0.44554425000001174;79;0.5859375;violin
166.33652;0.44554425000001174;79;0.7578125;violin
166.93057900000002;1.3861376666666558;65;0.7578125;violin
168.31671666666668;0.19801966666665294;67;0.578125;violin
168.51473633333333;0.17326720833335685;69;0.578125;violin
168.712756;0.5198016249999853;70;0.578125;violin
169.6038445;0.25990081250000685;77;0.578125;violin
169.90087400000002;0.19801966666665294;87;0.7890625;violin
170.09889366666667;0.09900983333332647;86;0.7890625;violin
170.29691333333335;0.09900983333332647;84;0.7890625;violin
170.494933;0.09900983333332647;83;0.7890625;violin
170.69295266666668;0.09900983333332647;84;0.7890625;violin
170.89097233333334;0.09900983333332647;86;0.7890625;violin
171.08899200000002;0.09900983333332647;84;0.7890625;violin
171.28701166666667;0.09900983333332647;81;0.7890625;violin
171.48503133333335;0.19801966666665294;77;0.7890625;violin
171.683051;0.19801966666668136;78;0.7578125;violin
171.8810706666667;0.19801966666665294;80;0.7578125;violin
172.07909033333334;0.19801966666668136;78;0.7578125;violin
172.27711000000002;0.17326720833332843;77;0.7578125;violin
172.47512966666667;0.09900983333332647;81;0.7578125;violin
172.67314933333336;0.09900983333332647;84;0.7578125;violin
172.871169;0.19801966666665294;87;0.7578125;violin
173.06918866666666;0.09900983333335489;86;0.7578125;violin
173.26720833333334;0.09900983333332647;84;0.7578125;violin
173.465228;0.09900983333335489;83;0.7578125;violin
173.66324766666668;0.09900983333332647;84;0.7578125;violin
173.86126733333333;0.09900983333335489;86;0.7578125;violin
174.059287;0.09900983333332647;84;0.7578125;violin
174.25730666666666;0.09900983333335489;81;0.7578125;violin
174.45532633333335;0.19801966666665294;77;0.7578125;violin
174.653346;0.19801966666668136;78;0.7578125;violin
174.85136566666668;0.19801966666665294;80;0.7578125;violin
175.04938533333333;0.19801966666668136;78;0.7578125;violin
175.24740500000001;0.17326720833332843;77;0.7578125;violin
175.44542466666667;0.09900983333335489;72;0.7578125;violin
175.64344433333335;0.09900983333332647;69;0.7578125;violin
175.841464;0.17326720833332843;70;0.7578125;violin
176.03948366666668;0.17326720833332843;72;0.7578125;violin
176.23750333333334;0.17326720833332843;74;0.7578125;violin
176.43552300000002;0.17326720833332843;75;0.7578125;violin
176.63354266666667;0.17326720833332843;77;0.7578125;violin
176.83156233333335;0.17326720833332843;79;0.7578125;violin
177.029582;0.17326720833332843;77;0.7578125;violin
177.2276016666667;0.17326720833332843;82;0.7578125;violin
177.42562133333334;0.17326720833332843;80;0.7578125;violin
177.62364100000002;0.19801966666665294;78;0.7578125;violin
177.82166066666667;0.19801966666668136;79;0.7578125;violin
178.01968033333335;0.19801966666665294;84;0.7578125;violin
178.2177;0.19801966666668136;88;0.7578125;violin
178.4157196666667;0.19801966666665294;86;0.7578125;violin
178.61373933333334;0.09900983333332647;84;0.7578125;violin
178.81175900000002;0.19801966666665294;82;0.7578125;violin
179.00977866666668;0.17326720833332843;86;0.7578125;violin
179.20779833333333;0.09900983333335489;84;0.7578125;violin
179.405818;0.09900983333332647;82;0.7578125;violin
179.60383766666666;0.09900983333335489;81;0.7578125;violin
179.80185733333334;0.09900983333332647;79;0.7578125;violin
179.999877;0.09900983333335489;77;0.7578125;violin
180.19789666666668;0.09900983333332647;75;0.7578125;violin
180.39591633333333;0.09900983333335489;74;0.7578125;violin
180.593936;0.09900983333332647;75;0.7578125;violin
180.79195566666667;0.09900983333335489;72;0.7578125;violin
180.98997533333335;0.09900983333332647;69;0.7578125;violin
181.187995;0.09900983333335489;65;0.7578125;violin
181.38601466666668;0.09900983333332647;67;0.7578125;violin
181.58403433333334;0.09900983333335489;69;0.7578125;violin
181.78205400000002;0.5198016249999853;70;0.7578125;violin
182.97017200000002;0.5198016249999853;62;0.7890625;violin
182.97017200000002;0.5198016249999853;70;0.7890625;violin
182.97017200000002;0.5198016249999853;82;0.7890625;violin
183.564231;0.5198016250000137;62;0.7890625;violin
183.564231;0.5198016250000137;70;0.7890625;violin
