start;duration;pitch;velocity;instrument
0.0;1.082315125;82;0.7578125;violin
1.0975590000000002;0.12195099999999992;79;0.6640625;violin
1.21951;0.12195099999999992;80;0.6640625;violin
1.341461;0.10670712500000001;82;0.6640625;violin
1.4634120000000002;0.06097550000000007;82;0.6640625;violin
1.585363;0.12195100000000014;82;0.6640625;violin
1.7073140000000002;0.12195099999999992;80;0.6640625;violin
1.8292650000000001;0.10670712500000001;79;0.6640625;violin
1.951216;1.082315125;80;0.6640625;violin
3.0487750000000005;0.1219509999999997;77;0.578125;violin
3.170726;0.12195100000000014;79;0.578125;violin
3.2926770000000003;0.10670712499999979;80;0.578125;violin
3.4146280000000004;0.06097550000000007;80;0.578125;violin
3.536579;0.12195100000000014;80;0.578125;violin
3.6585300000000003;0.12195100000000014;79;0.578125;violin
3.7804810000000004;0.10670712499999979;77;0.578125;violin
3.902432;0.06097550000000007;79;0.578125;violin
4.024383;0.12195100000000014;75;0.578125;violin
4.146334;0.12195100000000014;77;0.578125;violin
4.2682850000000006;0.10670712499999979;79;0.578125;violin
4.390236000000001;0.06097549999999963;79;0.578125;violin
4.512187000000001;0.12195099999999925;79;0.578125;violin
4.634138;0.12195100000000014;77;0.578125;violin
4.756089;0.10670712499999979;75;0.578125;violin
4.87804;0.06097549999999963;75;0.578125;violin
4.9999910000000005;0.12195100000000014;75;0.578125;violin
5.121942000000001;0.12195100000000014;74;0.578125;violin
5.243893000000001;0.10670712499999979;72;0.578125;violin
5.365844;0.060975500000000515;72;0.578125;violin
5.487795;0.12195100000000014;72;0.578125;violin
5.609746;0.12195100000000014;70;0.578125;violin
5.7316970000000005;0.10670712499999979;69;0.578125;violin
5.853648000000001;0.06097549999999963;70;0.578125;violin
5.975599000000001;0.12195100000000014;69;0.578125;violin
6.097550000000001;0.12195099999999925;70;0.578125;violin
6.219501;0.10670712500000068;72;0.578125;violin
6.341452;0.060975500000000515;74;0.578125;violin
6.4634030000000005;0.12195100000000014;70;0.578125;violin
6.585354000000001;0.12195100000000014;72;0.578125;violin
6.707305000000001;0.10670712499999979;74;0.578125;violin
6.829256000000001;0.06097549999999963;75;0.578125;violin
6.951207000000001;0.12195099999999925;72;0.6015625;violin
7.073158;0.12195100000000014;74;0.6328125;violin
7.195109;0.10670712499999979;75;0.65625;violin
7.317060000000001;0.060975500000000515;77;0.6796875;violin
7.439011000000001;0.12195100000000014;74;0.703125;violin
7.560962000000001;0.12195100000000014;75;0.734375;violin
7.682913000000001;0.10670712499999979;77;0.7578125;violin
7.804864;1.082315125000001;79;0.7578125;violin
8.902423;0.12195100000000103;75;0.71875;violin
9.024374000000002;0.12195099999999925;77;0.71875;violin
9.146325000000001;0.10670712499999979;79;0.71875;violin
9.268276;0.060975500000001404;79;0.71875;violin
9.390227000000001;0.12195099999999925;79;0.71875;violin
9.512178;0.12195100000000103;77;0.71875;violin
9.634129000000001;0.10670712499999979;75;0.71875;violin
9.75608;1.082315125000001;77;0.71875;violin
10.853639000000001;0.12195099999999925;74;0.6875;violin
10.97559;0.12195100000000103;75;0.6875;violin
11.097541000000001;0.10670712499999979;77;0.6875;violin
11.219492;0.06097549999999963;77;0.6875;violin
11.341443000000002;0.12195099999999925;77;0.6875;violin
11.463394000000001;0.12195099999999925;75;0.6875;violin
11.585345;0.10670712500000157;74;0.6875;violin
11.707296000000001;0.06097549999999963;75;0.6875;violin
11.829247;0.12195100000000103;72;0.6875;violin
11.951198000000002;0.12195099999999925;74;0.6875;violin
12.073149;0.10670712499999979;75;0.6875;violin
12.195100000000002;0.06097549999999963;75;0.6875;violin
12.317051000000001;0.12195099999999925;75;0.6796875;violin
12.439002;0.12195100000000103;74;0.6796875;violin
12.560953000000001;0.10670712499999979;72;0.671875;violin
12.682904;0.06097549999999963;72;0.6640625;violin
12.804855000000002;0.12195099999999925;72;0.6640625;violin
12.926806000000001;0.12195100000000103;70;0.65625;violin
13.048757000000002;0.10670712499999979;68;0.65625;violin
13.170708000000001;0.06097549999999963;68;0.6484375;violin
13.292659;0.12195100000000103;68;0.6484375;violin
13.414610000000001;0.12195099999999925;67;0.640625;violin
13.536561;0.10670712499999979;66;0.6328125;violin
13.658512000000002;0.06097549999999963;67;0.6328125;violin
13.780463000000001;0.12195100000000103;67;0.6328125;violin
13.902414000000002;0.12195099999999925;66;0.6328125;violin
14.024365000000001;0.10670712499999979;67;0.6328125;violin
14.146316;0.060975500000001404;55;0.6328125;violin
14.268267000000002;0.12195099999999925;67;0.6328125;violin
14.390218;0.12195100000000103;66;0.6328125;violin
14.512169000000002;0.10670712499999979;67;0.6328125;violin
14.634120000000001;0.06097549999999963;70;0.6328125;violin
14.756071000000002;0.12195099999999925;70;0.6328125;violin
14.878022000000001;0.12195099999999925;69;0.6328125;violin
14.999973;0.10670712499999979;70;0.6328125;violin
15.121924000000002;0.06097549999999963;73;0.6328125;violin
15.243875000000001;0.12195100000000103;73;0.6328125;violin
15.365826000000002;0.12195099999999925;72;0.6328125;violin
15.487777000000001;0.10670712499999979;70;0.6328125;violin
15.609728;0.060975500000001404;68;0.6328125;violin
15.731679000000002;0.12195099999999925;68;0.6328125;violin
15.85363;0.12195100000000103;67;0.6328125;violin
15.975581000000002;0.10670712499999979;68;0.6328125;violin
16.097532;0.060975500000001404;65;0.6328125;violin
16.219483;0.12195100000000281;65;0.6328125;violin
16.341434000000003;0.12195099999999925;64;0.6328125;violin
16.463385000000002;0.10670712499999979;65;0.6328125;violin
16.585336;0.12195099999999925;68;0.6328125;violin
16.707287;0.12195099999999925;68;0.6328125;violin
16.829238;0.12195100000000281;67;0.6328125;violin
16.951189000000003;0.10670712499999979;68;0.6328125;violin
17.073140000000002;0.06097549999999785;71;0.6328125;violin
17.195091;0.12195099999999925;71;0.6328125;violin
17.317042;0.12195099999999925;70;0.6328125;violin
17.438993;0.10670712500000334;68;0.6328125;violin
17.560944000000003;0.12195099999999925;66;0.6328125;violin
17.682895000000002;0.12195099999999925;66;0.6328125;violin
17.804846;0.12195099999999925;65;0.6328125;violin
17.926797;0.12195100000000281;66;0.6328125;violin
18.048748000000003;0.06097549999999785;63;0.6328125;violin
18.170699000000003;0.12195099999999925;63;0.6328125;violin
18.292650000000002;0.12195099999999925;62;0.6328125;violin
18.414601;0.10670712499999979;63;0.6328125;violin
18.536552;0.060975500000001404;75;0.6328125;violin
18.658503000000003;0.12195099999999925;75;0.640625;violin
18.780454000000002;0.12195099999999925;74;0.6484375;violin
18.902405;0.10670712499999979;75;0.6640625;violin
19.024356;0.060975500000001404;73;0.671875;violin
19.146307;0.12195100000000281;73;0.6796875;violin
19.268258000000003;0.12195099999999925;72;0.6875;violin
19.390209000000002;0.10670712499999979;73;0.703125;violin
19.51216;0.060975500000001404;71;0.7109375;violin
19.634111;0.12195099999999925;71;0.71875;violin
19.756062;0.12195100000000281;70;0.7265625;violin
19.878013000000003;0.10670712499999979;71;0.7421875;violin
19.999964000000002;0.060975500000001404;70;0.75;violin
20.121915;0.12195099999999925;70;0.7578125;violin
20.243866;0.12195100000000281;69;0.7734375;violin
20.365817000000003;0.10670712499999979;70;0.78125;violin
20.487768000000003;0.06097549999999785;69;0.7890625;violin
20.609719000000002;0.12195099999999925;69;0.7890625;violin
20.73167;0.12195099999999925;70;0.7890625;violin
20.853621;0.10670712499999979;69;0.7890625;violin
20.975572000000003;0.06097549999999785;78;0.7890625;violin
21.097523000000002;0.12195099999999925;78;0.7890625;violin
21.219474;0.12195099999999925;77;0.7890625;violin
21.341425;0.10670712499999979;75;0.7890625;violin
21.463376;0.060975500000001404;74;0.7890625;violin
21.585327000000003;0.12195099999999925;70;0.6328125;violin
21.707278000000002;0.12195099999999925;72;0.6328125;violin
21.829229;0.10670712499999979;74;0.6328125;violin
21.95118;0.060975500000001404;75;0.6328125;violin
22.073131000000004;0.12195099999999925;72;0.6328125;violin
22.195082000000003;0.12195099999999925;74;0.6328125;violin
22.317033000000002;0.10670712499999979;75;0.6328125;violin
22.438984;0.060975500000001404;77;0.6328125;violin
22.560935;0.12195100000000281;74;0.6328125;violin
22.682886000000003;0.12195099999999925;75;0.6328125;violin
22.804837000000003;0.10670712499999979;77;0.6328125;violin
22.926788000000002;0.060975500000001404;79;0.6328125;violin
23.048739;0.12195099999999925;75;0.6328125;violin
23.17069;0.12195100000000281;77;0.6328125;violin
23.292641000000003;0.10670712499999979;79;0.6328125;violin
23.414592000000003;1.082315125000001;80;0.7890625;violin
24.512151000000003;0.12195099999999925;76;0.609375;violin
24.634102000000002;0.12195099999999925;77;0.640625;violin
24.756053;0.10670712499999979;79;0.671875;violin
24.878004;0.060975500000001404;80;0.703125;violin
24.999955000000003;0.12195099999999925;76;0.7265625;violin
25.121906000000003;0.12195099999999925;77;0.7578125;violin
25.243857000000002;0.10670712499999979;79;0.7890625;violin
25.365808;1.082315125000001;80;0.7890625;violin
26.463367;0.12195099999999925;76;0.609375;violin
26.585318;0.12195100000000281;77;0.609375;violin
26.707269000000004;0.10670712499999979;79;0.609375;violin
26.829220000000003;0.06097549999999785;80;0.609375;violin
26.951171000000002;0.12195099999999925;76;0.671875;violin
27.073122;0.12195099999999925;77;0.7265625;violin
27.195073;0.10670712500000334;79;0.7890625;violin
27.317024000000004;0.06097549999999785;80;0.7890625;violin
27.438975000000003;0.12195099999999925;80;0.7890625;violin
27.560926000000002;0.12195099999999925;82;0.7890625;violin
27.682877;0.10670712499999979;80;0.7890625;violin
27.804828000000004;0.06097549999999785;79;0.7890625;violin
27.926779000000003;0.12195099999999925;79;0.78125;violin
28.048730000000003;0.12195099999999925;80;0.7734375;violin
28.170681000000002;0.10670712499999979;79;0.7734375;violin
28.292632;0.060975500000001404;77;0.765625;violin
28.414583000000004;0.12195099999999925;77;0.7578125;violin
28.536534000000003;0.12195099999999925;79;0.75;violin
28.658485000000002;0.10670712499999979;77;0.7421875;violin
28.780436;0.12195099999999925;75;0.734375;violin
28.902387;0.12195100000000281;75;0.7265625;violin
29.024338000000004;0.12195099999999925;77;0.7265625;violin
29.146289000000003;0.10670712499999979;75;0.71875;violin
29.268240000000002;0.060975500000001404;74;0.7109375;violin
29.390191;0.12195100000000281;74;0.703125;violin
29.512142000000004;0.12195099999999925;75;0.6953125;violin
29.634093000000004;0.10670712499999979;74;0.6875;violin
29.756044000000003;0.12195099999999925;72;0.6875;violin
29.877995000000002;0.12195099999999925;72;0.6796875;violin
29.999946;0.12195100000000281;74;0.671875;violin
30.121897000000004;0.10670712499999979;72;0.6640625;violin
30.243848000000003;0.06097549999999785;70;0.65625;violin
30.365799000000003;0.12195099999999925;70;0.6484375;violin
30.487750000000002;0.12195099999999925;72;0.640625;violin
30.609701;0.10670712499999979;70;0.640625;violin
30.731652000000004;0.12195099999999925;68;0.6328125;violin
30.853603000000003;0.12195099999999925;68;0.625;violin
30.975554000000002;0.12195099999999925;70;0.6171875;violin
31.097505;0.10670712499999979;68;0.609375;violin
31.219456;0.12195100000000281;67;0.609375;violin
31.341407000000004;0.12195099999999925;67;0.609375;violin
31.463358000000003;0.12195099999999925;65;0.609375;violin
31.585309000000002;0.10670712499999979;63;0.609375;violin
31.70726;0.060975500000001404;63;0.609375;violin
31.829211000000004;0.12195099999999925;63;0.609375;violin
31.951162000000004;0.1219509999999957;62;0.609375;violin
32.073113;0.1067071250000069;60;0.609375;violin
32.195064;0.06097549999999785;58;0.609375;violin
32.317015000000005;0.1219509999999957;58;0.609375;violin
32.438966;0.12195100000000281;60;0.609375;violin
32.560917;0.10670712499999979;58;0.609375;violin
32.682868000000006;0.06097549999999785;55;0.609375;violin
32.804819;0.12195100000000281;55;0.609375;violin
32.926770000000005;0.1219509999999957;56;0.609375;violin
33.048721;0.10670712499999979;55;0.609375;violin
33.170672;0.06097549999999785;67;0.609375;violin
33.292623000000006;0.1219509999999957;67;0.609375;violin
33.414574;0.12195100000000281;65;0.609375;violin
33.536525000000005;0.10670712499999979;63;0.609375;violin
33.658476;0.060975500000004956;63;0.609375;violin
33.780427;0.12195100000000281;63;0.609375;violin
33.902378000000006;0.1219509999999957;62;0.609375;violin
34.024329;0.10670712499999979;60;0.609375;violin
34.146280000000004;0.06097549999999785;58;0.609375;violin
34.268231;0.12195100000000281;58;0.609375;violin
34.390182;0.12195100000000281;60;0.609375;violin
34.512133000000006;0.10670712499999979;58;0.609375;violin
34.634084;0.060975500000004956;55;0.609375;violin
34.756035000000004;0.1219509999999957;55;0.609375;violin
34.877986;0.12195100000000281;56;0.609375;violin
34.999937;0.10670712499999979;55;0.609375;violin
35.121888000000006;0.06097549999999785;62;0.609375;violin
35.243839;0.12195100000000281;62;0.609375;violin
35.365790000000004;0.1219509999999957;63;0.609375;violin
35.487741;0.1067071250000069;65;0.609375;violin
35.609692;0.06097549999999785;65;0.609375;violin
35.731643000000005;0.1219509999999957;65;0.609375;violin
35.853594;0.12195100000000281;67;0.609375;violin
35.975545000000004;0.10670712499999979;68;0.609375;violin
36.09749600000001;0.06097549999999785;67;0.609375;violin
36.219447;0.12195100000000281;67;0.609375;violin
36.341398000000005;0.1219509999999957;65;0.609375;violin
36.463349;0.10670712499999979;63;0.609375;violin
36.585300000000004;0.06097549999999785;63;0.609375;violin
36.70725100000001;0.1219509999999957;63;0.609375;violin
36.829202;0.12195100000000281;62;0.609375;violin
36.951153000000005;0.10670712499999979;63;0.609375;violin
37.073104;0.060975500000004956;75;0.609375;violin
37.195055;0.12195100000000281;75;0.609375;violin
37.317006000000006;0.1219509999999957;74;0.609375;violin
37.438957;0.10670712499999979;72;0.609375;violin
37.560908000000005;0.06097549999999785;72;0.609375;violin
37.682859;0.12195100000000281;72;0.6171875;violin
37.80481;0.12195100000000281;70;0.625;violin
37.926761000000006;0.10670712499999979;69;0.6328125;violin
38.048712;0.060975500000004956;69;0.640625;violin
38.170663000000005;0.1219509999999957;69;0.6484375;violin
38.292614;0.12195100000000281;70;0.6484375;violin
38.414565;0.10670712499999979;72;0.65625;violin
38.536516000000006;0.06097549999999785;70;0.6640625;violin
38.658467;0.12195100000000281;82;0.671875;violin
38.780418000000004;0.1219509999999957;81;0.6796875;violin
38.902369;0.10670712499999979;82;0.6875;violin
39.02432;0.12195100000000281;79;0.6875;violin
39.146271000000006;0.1219509999999957;79;0.6875;violin
39.268222;0.12195100000000281;77;0.6875;violin
39.390173000000004;0.10670712499999979;75;0.6875;violin
39.512124;0.060975500000004956;75;0.6875;violin
39.634075;0.12195100000000281;75;0.6875;violin
39.756026000000006;0.1219509999999957;74;0.6875;violin
39.877977;0.10670712499999979;72;0.6875;violin
39.999928000000004;0.06097549999999785;70;0.6875;violin
40.12187900000001;0.1219509999999957;70;0.6875;violin
40.24383;0.12195100000000281;72;0.6875;violin
40.365781000000005;0.10670712499999979;70;0.6875;violin
40.487732;0.060975500000004956;67;0.6875;violin
40.609683000000004;0.12195100000000281;67;0.6875;violin
40.73163400000001;0.1219509999999957;68;0.6875;violin
40.853585;0.10670712499999979;67;0.6875;violin
40.975536000000005;0.06097549999999785;79;0.6875;violin
41.097487;0.12195100000000281;79;0.6875;violin
41.219438000000004;0.12195100000000281;77;0.6875;violin
41.34138900000001;0.10670712499999979;75;0.6875;violin
41.46334;0.06097549999999785;75;0.6875;violin
41.585291000000005;0.1219509999999957;75;0.6875;violin
41.707242;0.12195100000000281;74;0.6875;violin
41.829193000000004;0.10670712499999979;72;0.6875;violin
41.951144000000006;0.06097549999999785;70;0.6875;violin
42.073095;0.12195100000000281;70;0.6875;violin
42.195046000000005;0.1219509999999957;72;0.6875;violin
42.316997;0.10670712499999979;70;0.6875;violin
42.438948;0.06097549999999785;67;0.6875;violin
42.560899000000006;0.1219509999999957;67;0.6875;violin
42.68285;0.12195100000000281;68;0.6875;violin
42.804801000000005;0.10670712499999979;67;0.6875;violin
42.926752;0.060975500000004956;74;0.6875;violin
43.048703;0.12195100000000281;74;0.6875;violin
43.170654000000006;0.1219509999999957;75;0.6875;violin
43.292605;0.10670712499999979;77;0.6875;violin
43.414556000000005;0.12195100000000281;77;0.6875;violin
43.53650700000001;0.1219509999999957;77;0.6875;violin
43.658458;0.12195100000000281;79;0.6875;violin
43.780409000000006;0.10670712499999979;80;0.6875;violin
43.90236;0.060975500000004956;79;0.6875;violin
44.024311000000004;0.12195100000000281;79;0.6875;violin
44.14626200000001;0.1219509999999957;77;0.6875;violin
44.268213;0.10670712499999979;75;0.6875;violin
44.390164000000006;0.06097549999999785;75;0.6875;violin
44.512115;0.12195100000000281;75;0.6875;violin
44.634066000000004;0.12195100000000281;74;0.6875;violin
44.75601700000001;0.10670712499999979;72;0.6875;violin
44.877968;0.12195100000000281;87;0.6875;violin
44.999919000000006;0.1219509999999957;87;0.6875;violin
45.12187;0.12195100000000281;86;0.6875;violin
45.243821000000004;0.12195100000000281;84;0.6875;violin
45.36577200000001;0.06097549999999785;84;0.6875;violin
45.487723;0.12195100000000281;84;0.6953125;violin
45.609674000000005;0.1219509999999957;82;0.703125;violin
45.731625;0.10670712499999979;81;0.703125;violin
45.853576000000004;0.06097549999999785;81;0.7109375;violin
45.97552700000001;0.1219509999999957;81;0.71875;violin
46.097478;0.12195100000000281;82;0.7265625;violin
46.219429000000005;0.10670712499999979;84;0.734375;violin
46.34138;0.060975500000004956;82;0.734375;violin
46.463331000000004;0.12195100000000281;70;0.734375;violin
46.58528200000001;0.1219509999999957;69;0.734375;violin
46.707233;0.10670712499999979;70;0.734375;violin
46.829184000000005;0.06097549999999785;80;0.734375;violin
46.951135;0.12195100000000281;80;0.734375;violin
47.073086;0.12195100000000281;79;0.734375;violin
47.195037000000006;0.10670712499999979;77;0.734375;violin
47.316988;0.060975500000004956;76;0.734375;violin
47.438939000000005;0.12195100000000281;76;0.734375;violin
47.56089000000001;0.1219509999999957;77;0.734375;violin
47.682841;0.10670712499999979;79;0.734375;violin
47.804792000000006;0.06097549999999785;77;0.734375;violin
47.926743;0.12195100000000281;77;0.734375;violin
48.048694000000005;0.12195100000000281;79;0.734375;violin
48.17064500000001;0.10670712499999979;77;0.734375;violin
48.292596;0.06097549999999785;74;0.734375;violin
48.414547000000006;0.1219509999999957;74;0.734375;violin
48.536498;0.12195100000000281;76;0.734375;violin
48.658449000000005;0.10670712499999979;74;0.734375;violin
48.78040000000001;0.06097549999999785;82;0.734375;violin
48.902351;0.12195100000000281;82;0.734375;violin
49.024302000000006;0.1219509999999957;80;0.734375;violin
49.146253;0.10670712499999979;79;0.734375;violin
49.268204000000004;0.06097549999999785;78;0.734375;violin
49.39015500000001;0.1219509999999957;78;0.734375;violin
49.512106;0.12195100000000281;79;0.734375;violin
49.634057000000006;0.10670712499999979;80;0.734375;violin
49.756008;0.060975500000004956;79;0.734375;violin
49.877959000000004;0.12195100000000281;79;0.734375;violin
49.99991000000001;0.1219509999999957;80;0.734375;violin
50.121861;0.10670712499999979;79;0.734375;violin
50.243812000000005;0.06097549999999785;70;0.734375;violin
50.365763;0.12195100000000281;70;0.734375;violin
50.487714000000004;0.12195100000000281;72;0.734375;violin
50.60966500000001;0.10670712499999979;70;0.734375;violin
50.731616;0.12195100000000281;84;0.890625;violin
50.853567000000005;0.1219509999999957;84;0.734375;violin
50.975518;0.12195100000000281;82;0.734375;violin
51.097469000000004;0.10670712499999979;80;0.734375;violin
51.21942000000001;0.1219509999999957;80;0.890625;violin
51.341371;0.12195100000000281;80;0.734375;violin
51.463322000000005;0.12195100000000281;79;0.734375;violin
51.58527300000001;0.10670712499999979;77;0.734375;violin
51.707224000000004;0.06097549999999785;82;0.890625;violin
51.829175000000006;0.1219509999999957;82;0.734375;violin
51.951126;0.12195100000000281;80;0.734375;violin
52.073077000000005;0.10670712499999979;79;0.734375;violin
52.19502800000001;0.06097549999999785;79;0.890625;violin
52.316979;0.12195100000000281;79;0.734375;violin
52.438930000000006;0.1219509999999957;77;0.734375;violin
52.560881;0.10670712499999979;75;0.734375;violin
52.682832000000005;0.06097549999999785;75;0.890625;violin
52.80478300000001;0.1219509999999957;75;0.734375;violin
52.926734;0.12195100000000281;74;0.734375;violin
53.048685000000006;0.10670712499999979;72;0.734375;violin
53.170636;0.060975500000004956;72;0.890625;violin
53.292587000000005;0.12195100000000281;72;0.734375;violin
53.41453800000001;0.1219509999999957;70;0.734375;violin
53.536489;0.10670712499999979;69;0.734375;violin
53.658440000000006;0.06097549999999785;69;0.890625;violin
53.780391;0.12195100000000281;69;0.734375;violin
53.902342000000004;0.12195100000000281;70;0.734375;violin
54.02429300000001;0.10670712499999979;72;0.734375;violin
54.146244;0.060975500000004956;70;0.734375;violin
54.268195000000006;0.1219509999999957;74;0.734375;violin
54.390146;0.12195100000000281;77;0.734375;violin
54.512097000000004;0.10670712499999979;79;0.734375;violin
54.63404800000001;0.06097549999999785;80;0.6328125;violin
54.755999;0.12195100000000281;80;0.6328125;violin
54.877950000000006;0.12195100000000281;79;0.6328125;violin
54.99990100000001;0.10670712499999979;77;0.6328125;violin
55.121852000000004;0.06097549999999785;76;0.6328125;violin
55.24380300000001;0.1219509999999957;76;0.6328125;violin
55.365754;0.12195100000000281;77;0.6328125;violin
55.487705000000005;0.10670712499999979;79;0.6328125;violin
55.60965600000001;0.06097549999999785;77;0.6328125;violin
55.731607000000004;0.12195100000000281;77;0.6328125;violin
55.85355800000001;0.1219509999999957;79;0.6328125;violin
55.975509;0.10670712499999979;77;0.6328125;violin
56.097460000000005;0.06097549999999785;74;0.6328125;violin
56.21941100000001;0.1219509999999957;74;0.640625;violin
56.341362000000004;0.12195100000000281;75;0.6484375;violin
56.46331300000001;0.10670712499999979;74;0.6640625;violin
56.585264;0.060975500000004956;82;0.671875;violin
56.707215000000005;0.12195100000000281;82;0.6875;violin
56.82916600000001;0.1219509999999957;80;0.6953125;violin
56.951117;0.10670712499999979;79;0.703125;violin
57.073068000000006;0.06097549999999785;78;0.71875;violin
57.195019;0.12195100000000281;78;0.7265625;violin
57.316970000000005;0.12195100000000281;79;0.734375;violin
57.43892100000001;0.10670712499999979;80;0.75;violin
57.560872;0.060975500000004956;79;0.7578125;violin
57.682823000000006;0.1219509999999957;79;0.765625;violin
57.804774;0.12195100000000281;80;0.78125;violin
57.926725000000005;0.10670712499999979;79;0.7890625;violin
58.04867600000001;0.06097549999999785;70;0.7890625;violin
58.170627;0.12195100000000281;70;0.7890625;violin
58.292578000000006;0.1219509999999957;72;0.7890625;violin
58.414529;0.1067071250000069;70;0.7890625;violin
58.536480000000005;0.12195100000000281;84;0.9453125;violin
58.65843100000001;0.1219509999999957;84;0.7890625;violin
58.780382;0.12195100000000281;82;0.7890625;violin
58.902333000000006;0.10670712499999979;80;0.7890625;violin
59.02428400000001;0.1219509999999957;80;0.9453125;violin
59.146235000000004;0.12195100000000281;80;0.7890625;violin
59.26818600000001;0.1219509999999957;79;0.7890625;violin
59.390137;0.10670712499999979;77;0.7890625;violin
59.512088000000006;0.06097549999999785;82;0.9453125;violin
59.63403900000001;0.1219509999999957;82;0.7890625;violin
59.755990000000004;0.12195100000000281;80;0.7890625;violin
59.87794100000001;0.10670712499999979;79;0.7890625;violin
59.999892;0.060975500000004956;79;0.9453125;violin
60.121843000000005;0.12195100000000281;79;0.7890625;violin
60.24379400000001;0.1219509999999957;77;0.7890625;violin
60.365745000000004;0.10670712499999979;75;0.7890625;violin
60.48769600000001;0.06097549999999785;75;0.7890625;violin
60.609647;0.12195100000000281;75;0.7890625;violin
60.731598000000005;0.12195100000000281;74;0.7890625;violin
60.85354900000001;0.10670712499999979;72;0.7890625;violin
60.975500000000004;0.060975500000004956;78;0.7890625;violin
61.09745100000001;0.1219509999999957;75;0.7890625;violin
61.219402;0.12195100000000281;74;0.7890625;violin
61.341353000000005;0.10670712499999979;72;0.7890625;violin
61.46330400000001;0.06097549999999785;71;0.7890625;violin
61.585255000000004;0.12195100000000281;74;0.7890625;violin
61.707206000000006;0.1219509999999957;73;0.7890625;violin
61.829157;0.10670712499999979;74;0.7890625;violin
61.951108000000005;0.06097549999999785;79;0.7890625;violin
62.07305900000001;0.1219509999999957;83;0.7890625;violin
62.19501;0.12195100000000281;82;0.6328125;violin
62.316961000000006;0.10670712499999979;83;0.6328125;violin
62.438912;0.060975500000004956;74;0.6328125;violin
62.560863000000005;0.12195100000000281;83;0.6328125;violin
62.68281400000001;0.1219509999999957;82;0.6328125;violin
62.804765;0.10670712499999979;83;0.6328125;violin
62.926716000000006;0.06097549999999785;72;0.6328125;violin
63.04866700000001;0.1219509999999957;81;0.6328125;violin
63.170618000000005;0.12195100000000281;80;0.6328125;violin
63.29256900000001;0.10670712499999979;81;0.6328125;violin
63.41452;0.060975500000004956;71;0.6328125;violin
63.536471000000006;0.12195100000000281;74;0.6328125;violin
63.65842200000001;0.1219509999999957;73;0.6328125;violin
63.780373000000004;0.10670712499999979;74;0.6328125;violin
63.90232400000001;0.06097549999999785;79;0.6328125;violin
64.024275;0.1219509999999957;83;0.6328125;violin
64.146226;0.12195100000000991;82;0.6328125;violin
64.26817700000001;0.10670712499999979;83;0.6328125;violin
64.390128;0.06097549999999785;74;0.6328125;violin
64.512079;0.12195100000000991;83;0.5859375;violin
64.63403000000001;0.1219509999999957;82;0.5859375;violin
64.755981;0.10670712499999979;83;0.5859375;violin
64.877932;0.06097549999999785;72;0.5859375;violin
64.99988300000001;0.1219509999999957;81;0.5859375;violin
65.121834;0.1219509999999957;80;0.5859375;violin
65.243785;0.10670712499999979;81;0.5859375;violin
65.36573600000001;0.06097549999999785;71;0.5859375;violin
65.48768700000001;0.1219509999999957;74;0.5859375;violin
65.609638;0.1219509999999957;73;0.5859375;violin
65.731589;0.10670712499999979;74;0.5859375;violin
65.85354000000001;0.06097549999999785;79;0.5859375;violin
65.975491;0.1219509999999957;83;0.5859375;violin
66.097442;0.12195100000000991;82;0.5859375;violin
66.21939300000001;0.10670712499999979;83;0.5859375;violin
66.341344;0.06097549999999785;75;0.5859375;violin
66.463295;0.12195100000000991;83;0.609375;violin
66.58524600000001;0.1219509999999957;82;0.6328125;violin
66.70719700000001;0.10670712499999979;83;0.6640625;violin
66.829148;0.1219509999999957;76;0.6875;violin
66.951099;0.12195100000000991;79;0.7109375;violin
67.07305000000001;0.1219509999999957;78;0.734375;violin
67.195001;0.10670712499999979;79;0.765625;violin
67.316952;0.12195100000000991;70;0.7890625;violin
67.43890300000001;0.1219509999999957;76;0.7890625;violin
67.560854;0.1219509999999957;78;0.7890625;violin
67.682805;0.12195100000000991;76;0.7890625;violin
67.80475600000001;0.1219509999999957;75;0.7890625;violin
67.92670700000001;0.1219509999999957;71;0.7890625;violin
68.048658;0.12195100000000991;72;0.7890625;violin
68.17060900000001;0.10670712499999979;71;0.7890625;violin
68.29256000000001;0.06097549999999785;81;0.7890625;violin
68.414511;0.1219509999999957;71;0.7890625;violin
68.536462;0.12195100000000991;72;0.7890625;violin
68.65841300000001;0.10670712499999979;71;0.7890625;violin
68.780364;0.06097549999999785;79;0.7890625;violin
68.902315;0.12195100000000991;71;0.7890625;violin
69.02426600000001;0.1219509999999957;72;0.7890625;violin
69.14621700000001;0.10670712499999979;71;0.7890625;violin
69.268168;0.06097549999999785;76;0.7890625;violin
69.39011900000001;0.1219509999999957;72;0.7890625;violin
69.51207000000001;0.1219509999999957;74;0.7890625;violin
69.634021;0.10670712499999979;72;0.7890625;violin
69.755972;0.06097550000001206;71;0.7890625;violin
69.87792300000001;0.1219509999999957;71;0.7890625;violin
69.999874;0.1219509999999957;72;0.7890625;violin
70.121825;0.10670712499999979;71;0.7890625;violin
70.24377600000001;1.0823151249999938;83;0.7578125;violin
71.341335;0.12195100000000991;79;0.578125;violin
71.46328600000001;0.1219509999999957;81;0.578125;violin
71.585237;0.10670712499999979;83;0.578125;violin
71.707188;0.06097549999999785;83;0.578125;violin
71.82913900000001;0.1219509999999957;83;0.578125;violin
71.95109000000001;0.1219509999999957;81;0.578125;violin
72.073041;0.10670712499999979;79;0.578125;violin
72.19499200000001;1.0823151249999938;81;0.7578125;violin
73.292551;0.12195100000000991;78;0.578125;violin
73.41450200000001;0.1219509999999957;79;0.578125;violin
73.53645300000001;0.10670712499999979;81;0.578125;violin
73.658404;0.06097549999999785;81;0.578125;violin
73.780355;0.12195100000000991;81;0.578125;violin
73.90230600000001;0.1219509999999957;79;0.578125;violin
74.024257;0.10670712499999979;78;0.578125;violin
74.146208;0.06097550000001206;79;0.578125;violin
74.26815900000001;0.1219509999999957;76;0.578125;violin
74.39011;0.1219509999999957;78;0.578125;violin
74.512061;0.10670712499999979;79;0.578125;violin
74.63401200000001;0.06097549999999785;79;0.578125;violin
74.75596300000001;0.1219509999999957;79;0.578125;violin
74.877914;0.1219509999999957;78;0.578125;violin
74.999865;0.10670712499999979;76;0.578125;violin
75.12181600000001;0.06097549999999785;76;0.578125;violin
75.243767;0.1219509999999957;76;0.578125;violin
75.365718;0.12195100000000991;74;0.578125;violin
75.48766900000001;0.10670712499999979;72;0.578125;violin
75.60962;0.06097549999999785;72;0.578125;violin
75.731571;0.12195100000000991;72;0.578125;violin
75.85352200000001;0.1219509999999957;71;0.578125;violin
75.97547300000001;0.1219509999999957;70;0.578125;violin
76.097424;0.12195100000000991;71;0.578125;violin
76.21937500000001;0.1219509999999957;70;0.578125;violin
76.34132600000001;0.1219509999999957;71;0.578125;violin
76.463277;0.1219509999999957;73;0.578125;violin
76.585228;0.06097550000001206;75;0.578125;violin
76.70717900000001;0.1219509999999957;71;0.59375;violin
76.82913;0.1219509999999957;73;0.609375;violin
76.951081;0.10670712499999979;75;0.625;violin
77.07303200000001;0.06097549999999785;76;0.640625;violin
77.19498300000001;0.1219509999999957;73;0.65625;violin
77.316934;0.12195100000000991;75;0.6796875;violin
77.43888500000001;0.10670712499999979;76;0.6953125;violin
77.56083600000001;0.06097549999999785;78;0.7109375;violin
77.682787;0.1219509999999957;75;0.7265625;violin
77.804738;0.12195100000000991;76;0.7421875;violin
77.92668900000001;0.10670712499999979;78;0.7578125;violin
78.04864;1.082315125000008;79;0.7578125;violin
79.14619900000001;0.1219509999999957;76;0.578125;violin
79.26815;0.1219509999999957;77;0.578125;violin
79.390101;0.10670712499999979;79;0.578125;violin
79.51205200000001;0.06097549999999785;79;0.578125;violin
79.634003;0.1219509999999957;79;0.578125;violin
79.755954;0.12195100000000991;77;0.578125;violin
79.87790500000001;0.10670712499999979;76;0.578125;violin
79.99985600000001;1.0823151249999938;77;0.7578125;violin
81.09741500000001;0.1219509999999957;74;0.6640625;violin
81.21936600000001;0.1219509999999957;76;0.6640625;violin
81.341317;0.10670712499999979;77;0.6640625;violin
81.46326800000001;0.06097549999999785;77;0.6640625;violin
81.58521900000001;0.1219509999999957;77;0.6640625;violin
81.70717;0.1219509999999957;76;0.6640625;violin
81.829121;0.10670712499999979;74;0.6640625;violin
81.95107200000001;0.1219509999999957;76;0.6640625;violin
82.073023;0.1219509999999957;72;0.6640625;violin
82.194974;0.12195100000000991;74;0.6640625;violin
82.31692500000001;0.10670712499999979;76;0.6640625;violin
82.43887600000001;0.06097549999999785;76;0.6640625;violin
82.560827;0.12195100000000991;76;0.6640625;violin
82.68277800000001;0.1219509999999957;74;0.6640625;violin
82.80472900000001;0.10670712499999979;72;0.6640625;violin
82.92668;0.06097549999999785;72;0.6640625;violin
83.048631;0.12195100000000991;72;0.6484375;violin
83.17058200000001;0.1219509999999957;71;0.640625;violin
83.292533;0.1219509999999957;69;0.625;violin
83.414484;0.12195100000000991;69;0.6171875;violin
83.53643500000001;0.1219509999999957;69;0.6015625;violin
83.65838600000001;0.1219509999999957;67;0.59375;violin
83.780337;0.10670712499999979;66;0.578125;violin
83.90228800000001;0.06097549999999785;67;0.578125;violin
84.02423900000001;0.1219509999999957;67;0.578125;violin
84.14619;0.12195100000000991;66;0.578125;violin
84.26814100000001;0.10670712499999979;67;0.578125;violin
84.39009200000001;0.06097549999999785;55;0.578125;violin
84.512043;0.1219509999999957;55;0.5859375;violin
84.633994;0.12195100000000991;56;0.5859375;violin
84.75594500000001;0.10670712499999979;55;0.59375;violin
84.877896;0.06097549999999785;59;0.59375;violin
84.999847;0.12195100000000991;59;0.6015625;violin
85.12179800000001;0.1219509999999957;60;0.609375;violin
85.24374900000001;0.10670712499999979;59;0.609375;violin
85.3657;0.12195100000000991;62;0.6171875;violin
85.48765100000001;0.1219509999999957;62;0.625;violin
85.60960200000001;0.1219509999999957;63;0.625;violin
85.731553;0.10670712499999979;62;0.6328125;violin
85.853504;0.06097550000001206;65;0.6328125;violin
85.97545500000001;0.1219509999999957;65;0.6328125;violin
86.097406;0.1219509999999957;67;0.6328125;violin
86.219357;0.10670712499999979;68;0.6328125;violin
86.34130800000001;0.06097549999999785;62;0.6328125;violin
86.46325900000001;0.1219509999999957;62;0.6328125;violin
86.58521;0.12195100000000991;63;0.6328125;violin
86.70716100000001;0.10670712499999979;65;0.6328125;violin
86.82911200000001;0.06097549999999785;58;0.6328125;violin
86.951063;0.12195100000000991;58;0.6328125;violin
87.07301400000001;0.1219509999999957;60;0.6328125;violin
87.19496500000001;0.1219509999999957;62;0.6328125;violin
87.316916;0.1219509999999957;63;0.6328125;violin
87.438867;0.12195100000000991;63;0.6328125;violin
87.56081800000001;0.1219509999999957;65;0.71875;violin
87.68276900000001;0.1219509999999957;67;0.8125;violin
87.80472;0.12195100000000991;68;0.8125;violin
87.92667100000001;0.1219509999999957;68;0.8125;violin
88.04862200000001;0.1219509999999957;70;0.8125;violin
88.170573;0.10670712499999979;72;0.8125;violin
88.29252400000001;0.1219509999999957;65;0.6328125;violin
88.41447500000001;0.1219509999999957;65;0.6328125;violin
88.536426;0.1219509999999957;67;0.6328125;violin
88.658377;0.10670712499999979;68;0.6328125;violin
88.78032800000001;0.06097549999999785;62;0.6328125;violin
88.90227900000001;0.1219509999999957;62;0.6328125;violin
89.02423;0.12195100000000991;63;0.6328125;violin
89.14618100000001;0.10670712499999979;65;0.6328125;violin
89.26813200000001;0.06097549999999785;67;0.6328125;violin
89.390083;0.12195100000000991;67;0.640625;violin
89.51203400000001;0.1219509999999957;68;0.6484375;violin
89.63398500000001;0.10670712499999979;70;0.65625;violin
89.755936;0.06097549999999785;72;0.65625;violin
89.877887;0.12195100000000991;72;0.65625;violin
89.99983800000001;0.1219509999999957;74;0.65625;violin
90.121789;0.10670712499999979;75;0.65625;violin
90.24374;0.12195100000000991;68;0.65625;violin
90.36569100000001;0.1219509999999957;68;0.65625;violin
90.48764200000001;0.1219509999999957;70;0.65625;violin
90.609593;0.10670712499999979;72;0.65625;violin
90.73154400000001;0.1219509999999957;65;0.65625;violin
90.85349500000001;0.1219509999999957;65;0.6640625;violin
90.975446;0.12195100000000991;67;0.671875;violin
91.09739700000002;0.10670712499999979;68;0.6796875;violin
91.21934800000001;0.06097549999999785;62;0.6875;violin
91.341299;0.1219509999999957;62;0.6953125;violin
91.46325;0.12195100000000991;63;0.703125;violin
91.58520100000001;0.10670712499999979;65;0.7109375;violin
91.70715200000001;0.06097549999999785;58;0.7109375;violin
91.829103;0.12195100000000991;58;0.7109375;violin
91.95105400000001;0.1219509999999957;62;0.7109375;violin
92.07300500000001;0.10670712499999979;65;0.7109375;violin
92.194956;0.06097549999999785;70;0.7109375;violin
92.31690700000001;0.1219509999999957;69;0.7109375;violin
92.43885800000001;0.1219509999999957;70;0.7109375;violin
92.560809;0.10670712499999979;72;0.7109375;violin
92.68276;0.06097550000001206;74;0.7109375;violin
92.80471100000001;0.1219509999999957;73;0.7109375;violin
92.92666200000001;0.1219509999999957;74;0.71875;violin
93.048613;0.10670712499999979;75;0.7265625;violin
93.17056400000001;0.06097549999999785;77;0.734375;violin
93.29251500000001;0.1219509999999957;76;0.7421875;violin
93.414466;0.12195100000000991;77;0.75;violin
93.53641700000001;0.10670712499999979;79;0.7578125;violin
93.65836800000001;1.0823151249999938;80;0.7578125;violin
94.75592700000001;0.1219509999999957;76;0.578125;violin
94.87787800000001;0.1219509999999957;77;0.578125;violin
94.999829;0.10670712499999979;79;0.578125;violin
95.12178000000002;0.06097549999999785;80;0.578125;violin
95.24373100000001;0.1219509999999957;76;0.640625;violin
95.365682;0.1219509999999957;77;0.6953125;violin
95.487633;0.10670712499999979;79;0.7578125;violin
95.60958400000001;1.0823151249999938;80;0.7578125;violin
96.707143;0.12195100000000991;76;0.578125;violin
96.82909400000001;0.1219509999999957;77;0.578125;violin
96.95104500000001;0.10670712499999979;79;0.578125;violin
97.072996;0.06097550000001206;80;0.578125;violin
97.19494700000001;0.1219509999999957;76;0.640625;violin
97.31689800000001;0.1219509999999957;77;0.6953125;violin
97.438849;0.10670712499999979;79;0.7578125;violin
97.56080000000001;0.06097549999999785;80;0.7578125;violin
97.68275100000001;0.1219509999999957;80;0.7578125;violin
97.804702;0.1219509999999957;82;0.7578125;violin
97.926653;0.106707125000014;80;0.7578125;violin
98.04860400000001;0.06097549999999785;79;0.7578125;violin
98.17055500000001;0.1219509999999957;79;0.7578125;violin
98.292506;0.12195100000000991;80;0.7578125;violin
98.41445700000001;0.10670712499999979;79;0.7578125;violin
98.53640800000001;0.06097549999999785;77;0.75;violin
98.658359;0.12195100000000991;77;0.75;violin
98.78031000000001;0.1219509999999957;79;0.7421875;violin
98.90226100000001;0.10670712499999979;77;0.734375;violin
99.024212;0.12195100000000991;75;0.734375;violin
99.14616300000002;0.1219509999999957;75;0.7265625;violin
99.26811400000001;0.1219509999999957;77;0.71875;violin
99.390065;0.10670712499999979;75;0.71875;violin
99.512016;0.06097550000001206;74;0.7109375;violin
99.63396700000001;0.1219509999999957;74;0.703125;violin
99.75591800000001;0.1219509999999957;75;0.703125;violin
99.877869;0.10670712499999979;74;0.6953125;violin
99.99982000000001;0.1219509999999957;72;0.6953125;violin
100.12177100000001;0.1219509999999957;72;0.6875;violin
100.243722;0.12195100000000991;74;0.6796875;violin
100.36567300000002;0.10670712499999979;72;0.6796875;violin
100.48762400000001;0.06097549999999785;70;0.671875;violin
100.609575;0.1219509999999957;70;0.6640625;violin
100.731526;0.12195100000000991;72;0.6640625;violin
100.85347700000001;0.10670712499999979;70;0.65625;violin
100.97542800000001;0.1219509999999957;68;0.6484375;violin
101.097379;0.12195100000000991;68;0.6484375;violin
101.21933000000001;0.1219509999999957;70;0.640625;violin
101.34128100000001;0.10670712499999979;68;0.6328125;violin
101.463232;0.12195100000000991;67;0.6328125;violin
101.58518300000001;0.1219509999999957;67;0.6328125;violin
101.70713400000001;0.1219509999999957;65;0.6328125;violin
101.829085;0.10670712499999979;63;0.6328125;violin
101.951036;0.06097550000001206;63;0.6328125;violin
102.07298700000001;0.1219509999999957;63;0.6328125;violin
102.19493800000001;0.1219509999999957;62;0.6328125;violin
102.316889;0.10670712499999979;60;0.6328125;violin
102.43884000000001;0.06097549999999785;58;0.6328125;violin
102.56079100000001;0.1219509999999957;58;0.6328125;violin
102.682742;0.12195100000000991;60;0.6328125;violin
102.80469300000001;0.10670712499999979;58;0.6328125;violin
102.92664400000001;0.06097549999999785;55;0.6328125;violin
103.048595;0.12195100000000991;55;0.6328125;violin
103.17054600000002;0.1219509999999957;56;0.6328125;violin
103.29249700000001;0.10670712499999979;55;0.6328125;violin
103.41444800000001;0.06097549999999785;67;0.6328125;violin
103.536399;0.12195100000000991;67;0.6328125;violin
103.65835000000001;0.1219509999999957;65;0.6328125;violin
103.78030100000001;0.10670712499999979;63;0.6328125;violin
103.902252;0.06097549999999785;63;0.6328125;violin
104.02420300000001;0.1219509999999957;63;0.6328125;violin
104.14615400000001;0.1219509999999957;62;0.6328125;violin
104.268105;0.10670712499999979;60;0.6328125;violin
104.39005600000002;0.06097549999999785;58;0.6328125;violin
104.51200700000001;0.1219509999999957;58;0.6328125;violin
104.633958;0.1219509999999957;60;0.6328125;violin
104.755909;0.10670712499999979;58;0.6328125;violin
104.87786000000001;0.06097549999999785;55;0.6328125;violin
104.99981100000001;0.1219509999999957;55;0.6328125;violin
105.121762;0.12195100000000991;56;0.6328125;violin
105.24371300000001;0.10670712499999979;55;0.6328125;violin
105.36566400000001;0.06097549999999785;62;0.6328125;violin
105.487615;0.12195100000000991;62;0.6328125;violin
105.60956600000002;0.1219509999999957;63;0.6328125;violin
105.73151700000001;0.10670712499999979;65;0.6328125;violin
105.853468;0.06097549999999785;65;0.6328125;violin
105.97541900000002;0.1219509999999957;65;0.6328125;violin
106.09737000000001;0.1219509999999957;67;0.6328125;violin
106.21932100000001;0.10670712499999979;68;0.6328125;violin
106.341272;0.06097550000001206;67;0.6328125;violin
106.46322300000001;0.1219509999999957;67;0.6328125;violin
106.58517400000001;0.1219509999999957;65;0.6328125;violin
106.707125;0.10670712499999979;63;0.6328125;violin
106.82907600000001;0.06097549999999785;63;0.6328125;violin
106.95102700000001;0.1219509999999957;63;0.6328125;violin
107.072978;0.12195100000000991;62;0.6328125;violin
107.19492900000002;0.10670712499999979;63;0.6328125;violin
107.31688000000001;0.06097549999999785;75;0.6328125;violin
107.43883100000001;0.1219509999999957;75;0.6328125;violin
107.560782;0.12195100000000991;74;0.6328125;violin
107.68273300000001;0.10670712499999979;72;0.6328125;violin
107.80468400000001;0.06097549999999785;72;0.6328125;violin
107.926635;0.12195100000000991;72;0.6484375;violin
108.04858600000001;0.1219509999999957;70;0.6640625;violin
108.17053700000001;0.10670712499999979;69;0.6796875;violin
108.292488;0.06097549999999785;69;0.6953125;violin
108.41443900000002;0.1219509999999957;69;0.7109375;violin
108.53639000000001;0.1219509999999957;70;0.7265625;violin
108.65834100000001;0.10670712499999979;72;0.7421875;violin
108.780292;0.06097550000001206;70;0.7578125;violin
108.90224300000001;0.1219509999999957;82;0.7734375;violin
109.02419400000001;0.1219509999999957;81;0.796875;violin
109.146145;0.10670712499999979;82;0.8125;violin
109.26809600000001;0.1219509999999957;79;0.6328125;violin
109.39004700000001;0.1219509999999957;79;0.6328125;violin
109.511998;0.12195100000000991;77;0.6328125;violin
109.63394900000002;0.10670712499999979;75;0.6328125;violin
109.75590000000001;0.06097549999999785;75;0.6328125;violin
109.877851;0.12195100000000991;75;0.6328125;violin
109.99980200000002;0.1219509999999957;74;0.6328125;violin
110.12175300000001;0.10670712499999979;72;0.6328125;violin
110.24370400000001;0.06097549999999785;70;0.6328125;violin
110.365655;0.12195100000000991;70;0.6328125;violin
110.48760600000001;0.1219509999999957;72;0.6328125;violin
110.60955700000001;0.10670712499999979;70;0.6328125;violin
110.731508;0.06097549999999785;67;0.6328125;violin
110.85345900000002;0.1219509999999957;67;0.6328125;violin
110.97541000000001;0.1219509999999957;68;0.6328125;violin
111.097361;0.10670712499999979;67;0.6328125;violin
111.21931200000002;0.06097549999999785;79;0.6328125;violin
111.34126300000001;0.1219509999999957;79;0.6328125;violin
111.46321400000001;0.1219509999999957;77;0.6328125;violin
111.585165;0.10670712499999979;75;0.6328125;violin
111.70711600000001;0.06097549999999785;75;0.6328125;violin
111.82906700000001;0.1219509999999957;75;0.6328125;violin
111.951018;0.12195100000000991;74;0.6328125;violin
112.07296900000001;0.10670712499999979;72;0.6328125;violin
112.19492000000001;0.06097549999999785;70;0.6328125;violin
112.316871;0.12195100000000991;70;0.6328125;violin
112.43882200000002;0.1219509999999957;72;0.6328125;violin
112.56077300000001;0.10670712499999979;70;0.6328125;violin
112.68272400000001;0.06097549999999785;67;0.6328125;violin
112.804675;0.12195100000000991;67;0.6328125;violin
112.92662600000001;0.1219509999999957;68;0.6328125;violin
113.04857700000001;0.10670712499999979;67;0.6328125;violin
113.170528;0.06097550000001206;74;0.6328125;violin
113.29247900000001;0.1219509999999957;74;0.6328125;violin
113.41443000000001;0.1219509999999957;75;0.6328125;violin
113.536381;0.10670712499999979;77;0.6328125;violin
113.65833200000002;0.06097549999999785;77;0.6328125;violin
113.78028300000001;0.1219509999999957;77;0.6328125;violin
113.902234;0.12195100000000991;79;0.6328125;violin
114.02418500000002;0.10670712499999979;80;0.6328125;violin
114.14613600000001;0.06097549999999785;79;0.6328125;violin
114.26808700000001;0.1219509999999957;79;0.6328125;violin
114.390038;0.12195100000000991;77;0.6328125;violin
114.51198900000001;0.10670712499999979;75;0.6328125;violin
114.63394000000001;0.06097549999999785;75;0.6328125;violin
114.755891;0.12195100000000991;75;0.6328125;violin
114.87784200000002;0.1219509999999957;74;0.6328125;violin
114.99979300000001;0.10670712499999979;72;0.6328125;violin
115.121744;0.12195100000000991;87;0.6328125;violin
115.24369500000002;0.1219509999999957;87;0.640625;violin
115.36564600000001;0.1219509999999957;86;0.6484375;violin
115.48759700000001;0.1219509999999957;84;0.65625;violin
115.609548;0.06097550000001206;84;0.6640625;violin
115.73149900000001;0.1219509999999957;84;0.671875;violin
115.85345000000001;0.1219509999999957;82;0.6796875;violin
115.975401;0.10670712499999979;81;0.6875;violin
116.09735200000001;0.06097549999999785;81;0.6953125;violin
116.21930300000001;0.1219509999999957;81;0.703125;violin
116.341254;0.12195100000000991;82;0.71875;violin
116.46320500000002;0.10670712499999979;84;0.7265625;violin
116.58515600000001;0.06097549999999785;82;0.734375;violin
116.70710700000001;0.1219509999999957;82;0.7421875;violin
116.829058;0.12195100000000991;81;0.75;violin
116.95100900000001;0.10670712499999979;82;0.7578125;violin
117.07296000000001;1.082315125000008;82;0.7578125;violin
118.17051900000001;0.1219509999999957;79;0.703125;violin
118.29247000000001;0.1219509999999957;80;0.703125;violin
118.414421;0.10670712499999979;82;0.703125;violin
118.53637200000001;0.06097549999999785;82;0.703125;violin
118.65832300000001;0.1219509999999957;82;0.703125;violin
118.780274;0.12195100000000991;80;0.703125;violin
118.90222500000002;0.10670712499999979;79;0.703125;violin
119.02417600000001;1.0823151249999938;80;0.703125;violin
120.12173500000002;0.1219509999999957;77;0.6484375;violin
120.24368600000001;0.1219509999999957;79;0.6484375;violin
120.365637;0.10670712499999979;80;0.6484375;violin
120.48758800000002;0.06097549999999785;80;0.6484375;violin
120.60953900000001;0.1219509999999957;80;0.6484375;violin
120.73149000000001;0.1219509999999957;79;0.6484375;violin
120.853441;0.106707125000014;77;0.6484375;violin
120.97539200000001;0.06097549999999785;79;0.6484375;violin
121.09734300000001;0.1219509999999957;75;0.6484375;violin
121.219294;0.12195100000000991;77;0.6484375;violin
121.34124500000001;0.10670712499999979;79;0.6484375;violin
121.46319600000001;0.06097549999999785;79;0.6484375;violin
121.585147;0.12195100000000991;79;0.6484375;violin
121.70709800000002;0.1219509999999957;77;0.640625;violin
121.82904900000001;0.10670712499999979;75;0.6328125;violin
121.95100000000001;0.06097549999999785;75;0.625;violin
122.07295100000002;0.1219509999999957;75;0.6171875;violin
122.19490200000001;0.1219509999999957;74;0.609375;violin
122.31685300000001;0.10670712499999979;72;0.6015625;violin
122.438804;0.06097550000001206;72;0.6015625;violin
122.56075500000001;0.1219509999999957;72;0.59375;violin
122.68270600000001;0.1219509999999957;70;0.5859375;violin
122.804657;0.10670712499999979;69;0.578125;violin
122.92660800000002;0.06097549999999785;70;0.578125;violin
123.04855900000001;0.1219509999999957;69;0.578125;violin
123.17051000000001;0.12195100000000991;70;0.578125;violin
123.29246100000002;0.10670712499999979;72;0.578125;violin
123.41441200000001;0.06097549999999785;74;0.578125;violin
123.53636300000001;0.1219509999999957;70;0.578125;violin
123.658314;0.12195100000000991;72;0.578125;violin
123.78026500000001;0.10670712499999979;74;0.578125;violin
123.90221600000001;0.06097549999999785;75;0.578125;violin
124.024167;0.12195100000000991;72;0.578125;violin
124.14611800000002;0.1219509999999957;74;0.609375;violin
124.26806900000001;0.10670712499999979;75;0.640625;violin
124.39002;0.06097549999999785;77;0.6640625;violin
124.51197100000002;0.1219509999999957;74;0.6953125;violin
124.63392200000001;0.1219509999999957;75;0.7265625;violin
124.75587300000001;0.10670712499999979;77;0.7578125;violin
124.877824;1.082315125000008;79;0.7578125;violin
125.97538300000001;0.12195100000000991;75;0.6875;violin
126.09733400000002;0.1219509999999957;77;0.6875;violin
126.21928500000001;0.10670712499999979;79;0.6875;violin
126.34123600000001;0.06097549999999785;79;0.6875;violin
126.463187;0.12195100000000991;79;0.6875;violin
126.58513800000001;0.1219509999999957;77;0.6875;violin
126.70708900000001;0.10670712499999979;75;0.6875;violin
126.82904;1.082315125000008;77;0.6875;violin
127.92659900000001;0.1219509999999957;74;0.609375;violin
128.04855;0.1219509999999957;75;0.609375;violin
128.170501;0.106707125000014;77;0.609375;violin
128.292452;0.06097550000001206;77;0.609375;violin
128.41440300000002;0.1219509999999957;77;0.609375;violin
128.53635400000002;0.1219509999999957;75;0.609375;violin
128.658305;0.10670712499998558;74;0.609375;violin
128.780256;0.06097550000001206;75;0.609375;violin
128.902207;0.1219509999999957;72;0.609375;violin
129.024158;0.12195100000002412;74;0.609375;violin
129.14610900000002;0.10670712499998558;75;0.609375;violin
129.26806000000002;0.06097549999998364;75;0.609375;violin
129.39001100000002;0.1219509999999957;75;0.609375;violin
129.511962;0.1219509999999957;74;0.609375;violin
129.633913;0.106707125000014;72;0.609375;violin
129.755864;0.06097550000001206;72;0.609375;violin
129.877815;0.12195100000002412;72;0.609375;violin
129.99976600000002;0.1219509999999957;70;0.609375;violin
130.12171700000002;0.10670712499998558;68;0.609375;violin
130.243668;0.06097549999998364;68;0.609375;violin
130.365619;0.1219509999999957;68;0.609375;violin
130.48757;0.1219509999999957;67;0.609375;violin
130.609521;0.106707125000014;66;0.609375;violin
130.73147200000002;0.06097549999998364;67;0.609375;violin
130.85342300000002;0.1219509999999957;67;0.609375;violin
130.97537400000002;0.1219509999999957;66;0.609375;violin
131.097325;0.10670712499998558;67;0.609375;violin
131.219276;0.06097550000001206;55;0.609375;violin
131.341227;0.1219509999999957;67;0.609375;violin
131.463178;0.12195100000002412;66;0.609375;violin
131.58512900000002;0.10670712499998558;67;0.609375;violin
131.70708000000002;0.06097549999998364;70;0.609375;violin
131.82903100000001;0.1219509999999957;70;0.609375;violin
131.950982;0.1219509999999957;69;0.609375;violin
132.072933;0.106707125000014;70;0.609375;violin
132.194884;0.06097550000001206;73;0.609375;violin
132.316835;0.12195100000002412;73;0.609375;violin
132.43878600000002;0.1219509999999957;72;0.609375;violin
132.56073700000002;0.10670712499998558;70;0.609375;violin
132.682688;0.06097550000001206;68;0.609375;violin
132.804639;0.1219509999999957;68;0.609375;violin
132.92659;0.1219509999999957;67;0.609375;violin
133.048541;0.106707125000014;68;0.609375;violin
133.17049200000002;0.06097549999998364;65;0.609375;violin
133.29244300000002;0.1219509999999957;65;0.609375;violin
133.41439400000002;0.1219509999999957;64;0.609375;violin
133.536345;0.106707125000014;65;0.609375;violin
133.658296;0.1219509999999957;68;0.609375;violin
133.780247;0.1219509999999957;68;0.609375;violin
133.902198;0.12195100000002412;67;0.609375;violin
134.02414900000002;0.10670712499998558;68;0.609375;violin
134.14610000000002;0.06097549999998364;71;0.609375;violin
134.268051;0.1219509999999957;71;0.609375;violin
134.390002;0.1219509999999957;70;0.609375;violin
134.511953;0.106707125000014;68;0.609375;violin
134.633904;0.12195100000002412;66;0.609375;violin
134.75585500000003;0.1219509999999957;66;0.609375;violin
134.87780600000002;0.1219509999999957;65;0.609375;violin
134.99975700000002;0.10670712499998558;66;0.609375;violin
135.121708;0.06097550000001206;63;0.609375;violin
135.243659;0.1219509999999957;63;0.609375;violin
135.36561;0.1219509999999957;62;0.609375;violin
135.487561;0.106707125000014;63;0.609375;violin
135.60951200000002;0.06097549999998364;75;0.609375;violin
135.73146300000002;0.1219509999999957;75;0.625;violin
135.85341400000001;0.1219509999999957;74;0.6328125;violin
135.975365;0.106707125000014;75;0.6484375;violin
136.097316;0.06097550000001206;73;0.65625;violin
136.219267;0.12195100000002412;73;0.6640625;violin
136.34121800000003;0.1219509999999957;72;0.6796875;violin
136.46316900000002;0.10670712499998558;73;0.6875;violin
136.58512000000002;0.06097549999998364;71;0.703125;violin
136.707071;0.1219509999999957;71;0.7109375;violin
136.829022;0.1219509999999957;70;0.7265625;violin
136.950973;0.106707125000014;71;0.734375;violin
137.072924;0.06097550000001206;70;0.7421875;violin
137.19487500000002;0.1219509999999957;70;0.7578125;violin
137.31682600000002;0.1219509999999957;69;0.765625;violin
137.43877700000002;0.10670712499998558;70;0.78125;violin
137.560728;0.06097550000001206;69;0.7890625;violin
137.682679;0.1219509999999957;69;0.7890625;violin
137.80463;0.1219509999999957;70;0.7890625;violin
137.926581;0.106707125000014;69;0.7890625;violin
138.04853200000002;0.06097549999998364;78;0.7890625;violin
138.17048300000002;0.1219509999999957;78;0.7890625;violin
138.29243400000001;0.1219509999999957;77;0.7890625;violin
138.414385;0.106707125000014;75;0.7890625;violin
138.536336;0.06097550000001206;74;0.7890625;violin
138.658287;0.12195100000002412;70;0.6328125;violin
138.78023800000003;0.1219509999999957;72;0.6328125;violin
138.90218900000002;0.10670712499998558;74;0.6328125;violin
139.02414000000002;0.06097549999998364;75;0.6328125;violin
139.146091;0.1219509999999957;72;0.640625;violin
139.268042;0.1219509999999957;74;0.65625;violin
139.389993;0.106707125000014;75;0.671875;violin
139.511944;0.06097550000001206;77;0.6875;violin
139.63389500000002;0.1219509999999957;74;0.6953125;violin
139.75584600000002;0.1219509999999957;75;0.7109375;violin
139.87779700000002;0.10670712499998558;77;0.7265625;violin
139.999748;0.06097550000001206;79;0.734375;violin
140.121699;0.1219509999999957;75;0.75;violin
140.24365;0.12195100000002412;77;0.765625;violin
140.36560100000003;0.10670712499998558;79;0.7734375;violin
140.48755200000002;1.0823151249999796;80;0.7890625;violin
141.585111;0.1219509999999957;76;0.609375;violin
141.707062;0.1219509999999957;77;0.640625;violin
141.829013;0.106707125000014;79;0.671875;violin
141.950964;0.06097550000001206;80;0.703125;violin
142.07291500000002;0.1219509999999957;76;0.7265625;violin
142.19486600000002;0.1219509999999957;77;0.7578125;violin
142.31681700000001;0.10670712499998558;79;0.7890625;violin
142.438768;1.082315125000008;80;0.7890625;violin
143.536327;0.12195100000002412;76;0.609375;violin
143.65827800000002;0.1219509999999957;77;0.609375;violin
143.78022900000002;0.10670712499998558;79;0.609375;violin
143.90218000000002;0.06097549999998364;80;0.609375;violin
144.024131;0.1219509999999957;76;0.671875;violin
144.146082;0.1219509999999957;77;0.7265625;violin
144.268033;0.106707125000014;79;0.7890625;violin
144.38998400000003;0.06097549999998364;80;0.7890625;violin
144.51193500000002;0.1219509999999957;80;0.7890625;violin
144.63388600000002;0.1219509999999957;82;0.7890625;violin
144.755837;0.10670712499998558;80;0.7890625;violin
144.877788;0.06097550000001206;79;0.7890625;violin
144.999739;0.1219509999999957;79;0.7890625;violin
145.12169;0.12195100000002412;80;0.7890625;violin
145.24364100000003;0.10670712499998558;79;0.78125;violin
145.36559200000002;0.06097549999998364;77;0.7734375;violin
145.48754300000002;0.1219509999999957;77;0.765625;violin
145.609494;0.1219509999999957;79;0.7578125;violin
145.731445;0.106707125000014;77;0.7578125;violin
145.853396;0.1219509999999957;75;0.75;violin
145.975347;0.12195100000002412;75;0.7421875;violin
146.09729800000002;0.1219509999999957;77;0.734375;violin
146.21924900000002;0.10670712499998558;75;0.7265625;violin
146.34120000000001;0.06097550000001206;74;0.71875;violin
146.463151;0.1219509999999957;74;0.7109375;violin
146.585102;0.1219509999999957;75;0.703125;violin
146.707053;0.106707125000014;74;0.6953125;violin
146.82900400000003;0.1219509999999957;72;0.6875;violin
146.95095500000002;0.1219509999999957;72;0.6796875;violin
147.07290600000002;0.1219509999999957;74;0.671875;violin
147.194857;0.106707125000014;72;0.671875;violin
147.316808;0.06097550000001206;70;0.6640625;violin
147.438759;0.1219509999999957;70;0.65625;violin
147.56071;0.12195100000002412;72;0.6484375;violin
147.68266100000002;0.10670712499998558;70;0.640625;violin
147.80461200000002;0.1219509999999957;68;0.6328125;violin
147.92656300000002;0.1219509999999957;68;0.625;violin
148.048514;0.1219509999999957;70;0.6171875;violin
148.170465;0.106707125000014;68;0.609375;violin
148.292416;0.12195100000002412;67;0.609375;violin
148.41436700000003;0.1219509999999957;67;0.609375;violin
148.53631800000002;0.1219509999999957;66;0.609375;violin
148.65826900000002;0.10670712499998558;67;0.609375;violin
148.78022;0.06097550000001206;70;0.609375;violin
148.902171;0.1219509999999957;70;0.625;violin
149.024122;0.1219509999999957;69;0.640625;violin
149.146073;0.106707125000014;70;0.65625;violin
149.26802400000003;0.06097549999998364;75;0.671875;violin
149.38997500000002;0.1219509999999957;75;0.6875;violin
149.51192600000002;0.1219509999999957;74;0.703125;violin
149.633877;0.106707125000014;75;0.71875;violin
149.755828;0.06097550000001206;79;0.7265625;violin
149.877779;0.1219509999999957;79;0.7421875;violin
149.99973;0.12195100000002412;78;0.7578125;violin
150.12168100000002;0.10670712499998558;79;0.7734375;violin
150.24363200000002;0.06097549999998364;79;0.7890625;violin
150.36558300000002;0.1219509999999957;79;0.7890625;violin
150.487534;0.1219509999999957;78;0.7890625;violin
150.609485;0.106707125000014;79;0.7890625;violin
150.731436;0.06097550000001206;77;0.7890625;violin
150.85338700000003;0.1219509999999957;77;0.7890625;violin
150.97533800000002;0.1219509999999957;76;0.78125;violin
151.09728900000002;0.10670712499998558;77;0.78125;violin
151.21924;0.06097550000001206;75;0.78125;violin
151.341191;0.1219509999999957;75;0.7734375;violin
151.463142;0.1219509999999957;74;0.7734375;violin
151.585093;0.106707125000014;75;0.765625;violin
151.70704400000002;0.06097549999998364;72;0.765625;violin
151.82899500000002;0.1219509999999957;72;0.765625;violin
151.95094600000002;0.1219509999999957;71;0.7578125;violin
152.072897;0.106707125000014;72;0.7578125;violin
152.194848;0.06097550000001206;72;0.7578125;violin
152.316799;0.12195100000002412;72;0.7578125;violin
152.43875000000003;0.1219509999999957;71;0.7578125;violin
152.56070100000002;0.10670712499998558;72;0.7578125;violin
152.68265200000002;0.06097549999998364;70;0.7578125;violin
152.80460300000001;0.1219509999999957;70;0.75;violin
152.926554;0.1219509999999957;69;0.7421875;violin
153.048505;0.106707125000014;70;0.734375;violin
153.170456;0.06097550000001206;67;0.7265625;violin
153.29240700000003;0.1219509999999957;67;0.71875;violin
153.41435800000002;0.1219509999999957;66;0.7109375;violin
153.53630900000002;0.10670712499998558;67;0.703125;violin
153.65826;0.06097550000001206;63;0.6953125;violin
153.780211;0.1219509999999957;63;0.6875;violin
153.902162;0.1219509999999957;62;0.6796875;violin
154.024113;0.106707125000014;63;0.6640625;violin
154.14606400000002;0.06097549999998364;72;0.8203125;violin
154.26801500000002;0.1219509999999957;72;0.6640625;violin
154.38996600000002;0.1219509999999957;71;0.6640625;violin
154.511917;0.106707125000014;72;0.6640625;violin
154.633868;0.06097550000001206;70;0.6640625;violin
154.755819;0.12195100000002412;70;0.65625;violin
154.87777000000003;0.1219509999999957;69;0.6484375;violin
154.99972100000002;0.10670712499998558;70;0.640625;violin
155.12167200000002;0.06097549999998364;68;0.6328125;violin
155.243623;0.1219509999999957;68;0.625;violin
155.365574;0.1219509999999957;67;0.6171875;violin
155.487525;0.106707125000014;68;0.609375;violin
155.609476;0.06097550000001206;65;0.6015625;violin
155.73142700000002;0.1219509999999957;65;0.59375;violin
155.85337800000002;0.1219509999999957;64;0.5859375;violin
155.97532900000002;0.10670712499998558;65;0.578125;violin
156.09728;0.06097550000001206;63;0.7890625;violin
156.219231;0.1219509999999957;63;0.7890625;violin
156.341182;0.12195100000002412;62;0.7890625;violin
156.46313300000003;0.10670712499998558;63;0.7890625;violin
156.58508400000002;0.06097549999998364;67;0.7890625;violin
156.70703500000002;0.1219509999999957;67;0.7890625;violin
156.82898600000001;0.1219509999999957;66;0.7890625;violin
156.950937;0.106707125000014;67;0.7890625;violin
157.072888;0.06097550000001206;70;0.7890625;violin
157.194839;0.12195100000002412;70;0.7890625;violin
157.31679000000003;0.1219509999999957;69;0.7890625;violin
157.43874100000002;0.10670712499998558;70;0.7890625;violin
157.56069200000002;0.06097549999998364;74;0.7890625;violin
157.682643;0.1219509999999957;74;0.7890625;violin
157.804594;0.1219509999999957;73;0.796875;violin
157.926545;0.106707125000014;74;0.796875;violin
158.048496;0.06097550000001206;75;0.796875;violin
158.17044700000002;0.1219509999999957;75;0.796875;violin
158.29239800000002;0.1219509999999957;74;0.8046875;violin
158.41434900000002;0.10670712499998558;75;0.8046875;violin
158.5363;0.06097550000001206;79;0.8046875;violin
158.658251;0.1219509999999957;79;0.8046875;violin
158.780202;0.12195100000002412;78;0.8125;violin
158.90215300000003;0.10670712499998558;79;0.8125;violin
159.02410400000002;0.06097549999998364;82;0.8125;violin
159.14605500000002;0.1219509999999957;82;0.8125;violin
159.268006;0.1219509999999957;81;0.8203125;violin
159.389957;0.106707125000014;82;0.8203125;violin
159.511908;0.06097550000001206;74;0.8203125;violin
159.633859;0.12195100000002412;74;0.8203125;violin
159.75581000000003;0.1219509999999957;73;0.828125;violin
159.87776100000002;0.10670712499998558;74;0.828125;violin
159.99971200000002;0.06097549999998364;75;0.828125;violin
160.121663;0.1219509999999957;79;0.828125;violin
160.243614;0.1219509999999957;77;0.828125;violin
160.365565;0.106707125000014;75;0.828125;violin
160.48751600000003;0.06097549999998364;74;0.828125;violin
160.60946700000002;0.1219509999999957;70;0.828125;violin
160.73141800000002;0.1219509999999957;72;0.828125;violin
160.85336900000001;0.10670712499998558;74;0.828125;violin
160.97532;0.06097550000001206;75;0.828125;violin
161.097271;0.1219509999999957;70;0.828125;violin
161.219222;0.12195100000002412;67;0.828125;violin
161.34117300000003;0.10670712499998558;63;0.828125;violin
161.46312400000002;0.06097549999998364;62;0.828125;violin
161.58507500000002;0.1219509999999957;65;0.828125;violin
161.707026;0.1219509999999957;68;0.828125;violin
161.828977;0.106707125000014;62;0.828125;violin
161.950928;0.06097550000001206;63;0.828125;violin
162.072879;0.12195100000002412;67;0.828125;violin
162.19483000000002;0.1219509999999957;65;0.828125;violin
162.31678100000002;0.10670712499998558;63;0.828125;violin
162.43873200000002;0.06097550000001206;62;0.828125;violin
162.560683;0.1219509999999957;65;0.828125;violin
162.682634;0.1219509999999957;70;0.828125;violin
162.804585;0.12195100000002412;74;0.828125;violin
162.92653600000003;0.1219509999999957;75;0.828125;violin
163.04848700000002;0.1219509999999957;79;0.828125;violin
163.17043800000002;0.1219509999999957;77;0.828125;violin
163.29238900000001;0.106707125000014;75;0.828125;violin
163.41434;0.06097550000001206;82;0.828125;violin
163.536291;0.1219509999999957;86;0.828125;violin
163.658242;0.12195100000002412;84;0.828125;violin
163.78019300000003;0.10670712499998558;82;0.828125;violin
163.90214400000002;0.2439019999999914;87;0.828125;violin
164.389948;0.24390200000001983;62;0.828125;violin
164.389948;0.24390200000001983;70;0.828125;violin
164.389948;0.24390200000001983;77;0.828125;violin
164.87775200000002;0.2439019999999914;63;0.828125;violin
164.87775200000002;0.2439019999999914;70;0.828125;violin
164.87775200000002;0.2439019999999914;79;0.828125;violin
165.36555600000003;0.2439019999999914;62;0.828125;violin
165.36555600000003;0.2439019999999914;70;0.828125;violin
165.36555600000003;0.2439019999999914;82;0.828125;violin
165.85336;0.2439019999999914;63;0.828125;violin
165.85336;0.2439019999999914;70;0.828125;violin
165.85336;0.2439019999999914;79;0.828125;violin
166.34116400000002;0.2439019999999914;58;0.828125;violin
166.34116400000002;0.2439019999999914;68;0.828125;violin
166.34116400000002;0.2439019999999914;74;0.828125;violin
166.828968;0.24390200000001983;58;0.828125;violin
166.828968;0.24390200000001983;67;0.828125;violin
166.828968;0.24390200000001983;75;0.828125;violin
167.31677200000001;0.2439019999999914;58;0.828125;violin
167.31677200000001;0.2439019999999914;62;0.828125;violin
167.31677200000001;0.2439019999999914;70;0.828125;violin
167.80457600000003;0.42682849999999917;58;0.828125;violin
167.80457600000003;0.42682849999999917;67;0.828125;violin
168.78018400000002;0.42682849999999917;58;0.5859375;violin
168.78018400000002;0.42682849999999917;65;0.5859375;violin
169.755792;0.42682849999999917;63;0.5859375;violin
169.755792;0.42682849999999917;67;0.5859375;violin
170.7314;0.42682849999999917;58;0.5859375;violin
170.7314;0.42682849999999917;65;0.5859375;violin
171.585057;0.106707125000014;55;0.828125;violin
171.585057;0.106707125000014;63;0.828125;violin
171.707008;2.3780445000000157;55;0.828125;violin
171.707008;2.3780445000000157;63;0.828125;violin
