start;duration;pitch;velocity;instrument
0.0;0.121951;67;0.6328125;violin
0.0;0.121951;71;0.6328125;violin
0.243902;0.12195100000000003;66;0.6328125;violin
0.487804;0.12195100000000003;67;0.6328125;violin
0.487804;0.12195100000000003;71;0.6328125;violin
0.7317060000000001;0.12195100000000003;62;0.6328125;violin
0.975608;0.21341425000000003;69;0.6328125;violin
0.975608;0.21341425000000003;72;0.6328125;violin
1.21951;0.21341425000000003;71;0.6328125;violin
1.4634120000000002;0.21341425000000003;66;0.6328125;violin
1.4634120000000002;0.21341425000000003;69;0.6328125;violin
1.7073140000000002;0.21341425000000003;62;0.6328125;violin
1.951216;0.21341425000000003;71;0.6328125;violin
1.951216;0.21341425000000003;74;0.6328125;violin
2.1951180000000003;0.24390199999999984;79;0.6328125;violin
2.43902;0.21341425000000003;72;0.6328125;violin
2.43902;0.21341425000000003;76;0.6328125;violin
2.682922;0.24390200000000029;69;0.6328125;violin
2.9268240000000003;0.21341425000000003;62;0.6328125;violin
2.9268240000000003;0.21341425000000003;71;0.6328125;violin
3.170726;0.21341425000000003;74;0.6328125;violin
3.4146280000000004;0.21341425000000003;66;0.6328125;violin
3.4146280000000004;0.21341425000000003;69;0.6328125;violin
3.6585300000000003;0.21341425000000003;72;0.6328125;violin
3.902432;0.21341425000000047;67;0.6328125;violin
3.902432;0.21341425000000047;71;0.6328125;violin
4.146334;0.21341424999999958;66;0.6328125;violin
4.390236000000001;0.21341424999999958;67;0.6328125;violin
4.390236000000001;0.21341424999999958;71;0.6328125;violin
4.634138;0.21341425000000047;62;0.6328125;violin
4.87804;0.21341425000000047;67;0.6328125;violin
4.87804;0.21341425000000047;73;0.6328125;violin
5.121942000000001;0.2439019999999994;76;0.6328125;violin
5.365844;0.21341425000000047;73;0.6875;violin
5.365844;0.21341425000000047;81;0.6875;violin
5.609746;0.21341425000000047;79;0.734375;violin
5.853648000000001;0.21341424999999958;74;0.7890625;violin
5.853648000000001;0.21341424999999958;78;0.7890625;violin
6.097550000000001;0.21341424999999958;69;0.7890625;violin
6.341452;0.21341425000000047;67;0.765625;violin
6.341452;0.21341425000000047;76;0.765625;violin
6.585354000000001;0.21341424999999958;73;0.7421875;violin
6.829256000000001;0.21341424999999958;66;0.71875;violin
6.829256000000001;0.21341424999999958;74;0.71875;violin
7.073158;0.24390200000000029;69;0.6953125;violin
7.317060000000001;0.24390200000000029;62;0.6796875;violin
7.560962000000001;0.21341424999999958;72;0.65625;violin
7.804864;0.21341424999999958;67;0.6328125;violin
7.804864;0.21341424999999958;71;0.6328125;violin
8.048766;0.21341424999999958;66;0.6328125;violin
8.292668;0.21341424999999958;67;0.6328125;violin
8.292668;0.21341424999999958;71;0.6328125;violin
8.536570000000001;0.21341424999999958;62;0.6328125;violin
8.780472000000001;0.21341424999999958;69;0.6328125;violin
8.780472000000001;0.21341424999999958;72;0.6328125;violin
9.024374000000002;0.21341424999999958;71;0.6328125;violin
9.268276;0.21341425000000136;66;0.6328125;violin
9.268276;0.21341425000000136;69;0.6328125;violin
9.512178;0.21341424999999958;62;0.6328125;violin
9.75608;0.21341424999999958;71;0.6328125;violin
9.75608;0.21341424999999958;74;0.6328125;violin
9.999982000000001;0.24390200000000029;79;0.6328125;violin
10.243884000000001;0.21341424999999958;72;0.6328125;violin
10.243884000000001;0.21341424999999958;76;0.6328125;violin
10.487786000000002;0.2439019999999985;69;0.6328125;violin
10.731688;0.21341425000000136;62;0.6328125;violin
10.731688;0.21341425000000136;71;0.6328125;violin
10.97559;0.21341425000000136;74;0.6328125;violin
11.219492;0.21341424999999958;66;0.6328125;violin
11.219492;0.21341424999999958;69;0.6328125;violin
11.463394000000001;0.21341424999999958;72;0.6328125;violin
11.707296000000001;0.21341424999999958;67;0.6328125;violin
11.707296000000001;0.21341424999999958;71;0.6328125;violin
11.951198000000002;0.21341424999999958;66;0.671875;violin
12.195100000000002;0.21341424999999958;67;0.7109375;violin
12.195100000000002;0.21341424999999958;71;0.7109375;violin
12.439002;0.21341425000000136;74;0.75;violin
12.682904;0.21341425000000136;70;0.7890625;violin
12.682904;0.21341425000000136;73;0.7890625;violin
12.926806000000001;0.21341424999999958;78;0.7890625;violin
13.170708000000001;0.21341424999999958;66;0.7890625;violin
13.170708000000001;0.21341424999999958;74;0.7890625;violin
13.414610000000001;0.21341424999999958;71;0.7890625;violin
13.658512000000002;0.21341424999999958;64;0.7890625;violin
13.658512000000002;0.21341424999999958;73;0.7890625;violin
13.902414000000002;0.21341424999999958;76;0.78125;violin
14.146316;0.21341425000000136;66;0.7734375;violin
14.146316;0.21341425000000136;74;0.7734375;violin
14.390218;0.21341424999999958;73;0.765625;violin
14.634120000000001;0.12195100000000103;62;0.765625;violin
14.634120000000001;0.12195100000000103;71;0.765625;violin
14.878022000000001;0.12195099999999925;66;0.7578125;violin
15.121924000000002;0.12195099999999925;59;0.75;violin
15.365826000000002;0.21341424999999958;74;0.7421875;violin
15.609728;0.21341425000000136;69;0.734375;violin
15.609728;0.21341425000000136;72;0.734375;violin
15.85363;0.21341425000000136;71;0.734375;violin
16.097532;0.21341424999999958;62;0.734375;violin
16.097532;0.21341424999999958;72;0.734375;violin
16.341434000000003;0.2439019999999985;69;0.734375;violin
16.585336;0.21341424999999958;67;0.734375;violin
16.585336;0.21341424999999958;71;0.734375;violin
16.829238;0.21341425000000314;74;0.734375;violin
17.073140000000002;0.21341424999999958;71;0.734375;violin
17.073140000000002;0.21341424999999958;79;0.734375;violin
17.317042;0.21341424999999958;83;0.7734375;violin
17.560944000000003;0.21341424999999958;72;0.8046875;violin
17.560944000000003;0.21341424999999958;83;0.8046875;violin
17.804846;0.21341424999999958;81;0.84375;violin
18.048748000000003;0.21341424999999958;73;0.875;violin
18.048748000000003;0.21341424999999958;81;0.875;violin
18.292650000000002;0.21341424999999958;79;0.9140625;violin
18.536552;0.21341424999999958;74;0.9140625;violin
18.536552;0.21341424999999958;79;0.9140625;violin
18.780454000000002;0.21341424999999958;78;0.9140625;violin
19.024356;0.21341424999999958;81;0.9140625;violin
19.268258000000003;0.21341424999999958;74;0.6328125;violin
19.51216;0.21341424999999958;69;0.6328125;violin
19.51216;0.21341424999999958;72;0.6328125;violin
19.756062;0.21341425000000314;71;0.6328125;violin
19.999964000000002;0.21341424999999958;62;0.6328125;violin
19.999964000000002;0.21341424999999958;72;0.6328125;violin
20.243866;0.21341424999999958;69;0.6328125;violin
20.487768000000003;0.21341424999999958;67;0.6328125;violin
20.487768000000003;0.21341424999999958;71;0.6328125;violin
20.73167;0.21341424999999958;74;0.6328125;violin
20.975572000000003;0.21341424999999958;71;0.6328125;violin
20.975572000000003;0.21341424999999958;79;0.6328125;violin
21.219474;0.21341424999999958;78;0.6796875;violin
21.463376;0.21341425000000314;74;0.734375;violin
21.463376;0.21341425000000314;78;0.734375;violin
21.707278000000002;0.21341424999999958;76;0.734375;violin
21.95118;0.21341424999999958;64;0.671875;violin
21.95118;0.21341424999999958;74;0.671875;violin
22.195082000000003;0.21341424999999958;72;0.6171875;violin
22.438984;0.21341424999999958;62;0.5546875;violin
22.438984;0.21341424999999958;71;0.5546875;violin
22.682886000000003;0.21341424999999958;74;0.578125;violin
22.926788000000002;0.21341424999999958;66;0.609375;violin
22.926788000000002;0.21341424999999958;69;0.609375;violin
23.17069;0.21341425000000314;70;0.6328125;violin
23.414592000000003;0.21341424999999958;67;0.6328125;violin
23.414592000000003;0.21341424999999958;71;0.6328125;violin
23.658494;0.21341424999999958;66;0.6328125;violin
23.902396000000003;0.21341424999999958;67;0.6328125;violin
23.902396000000003;0.21341424999999958;71;0.6328125;violin
24.146298;0.21341424999999958;62;0.6328125;violin
24.390200000000004;0.21341424999999958;69;0.6328125;violin
24.390200000000004;0.21341424999999958;72;0.6328125;violin
24.634102000000002;0.21341424999999958;71;0.6328125;violin
24.878004;0.21341425000000314;66;0.6328125;violin
24.878004;0.21341425000000314;69;0.6328125;violin
25.121906000000003;0.21341424999999958;62;0.6328125;violin
25.365808;0.21341424999999958;71;0.6328125;violin
25.365808;0.21341424999999958;74;0.6328125;violin
25.609710000000003;0.2439019999999985;79;0.6328125;violin
25.853612000000002;0.21341424999999958;72;0.6328125;violin
25.853612000000002;0.21341424999999958;76;0.6328125;violin
26.097514000000004;0.2439019999999985;69;0.6328125;violin
26.341416000000002;0.21341424999999958;62;0.6328125;violin
26.341416000000002;0.21341424999999958;71;0.6328125;violin
26.585318;0.21341425000000314;74;0.6328125;violin
26.829220000000003;0.21341424999999958;66;0.6328125;violin
26.829220000000003;0.21341424999999958;69;0.6328125;violin
27.073122;0.21341424999999958;72;0.6328125;violin
27.317024000000004;0.21341424999999958;67;0.6328125;violin
27.317024000000004;0.21341424999999958;71;0.6328125;violin
27.560926000000002;0.21341424999999958;66;0.671875;violin
27.804828000000004;0.21341424999999958;67;0.7109375;violin
27.804828000000004;0.21341424999999958;71;0.7109375;violin
28.048730000000003;0.21341424999999958;65;0.75;violin
28.048730000000003;0.21341424999999958;74;0.75;violin
28.292632;0.21341425000000314;64;0.7890625;violin
28.292632;0.21341425000000314;72;0.7890625;violin
28.536534000000003;0.21341424999999958;71;0.7890625;violin
28.780436;0.21341424999999958;69;0.7890625;violin
29.024338000000004;0.21341424999999958;70;0.7890625;violin
29.268240000000002;0.21341424999999958;71;0.7890625;violin
29.512142000000004;0.21341424999999958;67;0.75;violin
29.756044000000003;0.21341424999999958;66;0.7109375;violin
29.756044000000003;0.21341424999999958;69;0.7109375;violin
29.999946;0.21341424999999958;62;0.671875;violin
30.243848000000003;0.21341424999999958;59;0.6328125;violin
30.243848000000003;0.21341424999999958;67;0.6328125;violin
30.487750000000002;0.24390200000000206;62;0.6328125;violin
30.731652000000004;0.2439019999999985;55;0.6328125;violin
31.219456;0.4268285000000027;67;0.7890625;violin
31.219456;0.4268285000000027;71;0.7890625;violin
31.219456;0.4268285000000027;76;0.7890625;violin
31.70726;0.4268285000000027;63;0.7890625;violin
31.70726;0.4268285000000027;71;0.7890625;violin
31.70726;0.4268285000000027;78;0.7890625;violin
32.195064;0.12195100000000281;64;0.7890625;violin
32.195064;0.12195100000000281;71;0.7890625;violin
32.195064;0.12195100000000281;79;0.7890625;violin
32.438966;0.12195100000000281;78;0.7890625;violin
32.682868000000006;0.1219509999999957;76;0.7890625;violin
32.926770000000005;0.1219509999999957;88;0.7890625;violin
33.170672;0.12195100000000281;86;0.7890625;violin
33.414574;0.12195100000000281;84;0.7578125;violin
33.658476;0.12195100000000281;83;0.71875;violin
33.902378000000006;0.2439019999999985;81;0.6796875;violin
34.146280000000004;0.487803999999997;71;0.6796875;violin
34.146280000000004;0.487803999999997;79;0.6796875;violin
34.634084;0.21341424999999958;71;0.609375;violin
34.634084;0.21341424999999958;78;0.609375;violin
35.121888000000006;0.42682849999999917;64;0.7890625;violin
35.121888000000006;0.42682849999999917;71;0.7890625;violin
35.121888000000006;0.42682849999999917;79;0.7890625;violin
35.609692;0.42682849999999917;74;0.7890625;violin
35.609692;0.42682849999999917;80;0.7890625;violin
36.09749600000001;0.21341424999999958;72;0.7890625;violin
36.09749600000001;0.21341424999999958;81;0.7890625;violin
36.341398000000005;0.21341424999999958;83;0.7890625;violin
36.585300000000004;0.21341424999999958;69;0.7890625;violin
36.585300000000004;0.21341424999999958;84;0.7890625;violin
36.829202;0.2439019999999985;81;0.7890625;violin
37.073104;0.21341424999999958;71;0.7890625;violin
37.073104;0.21341424999999958;79;0.7890625;violin
37.317006000000006;0.21341424999999958;83;0.7265625;violin
37.560908000000005;0.21341424999999958;71;0.671875;violin
37.560908000000005;0.21341424999999958;78;0.671875;violin
37.80481;0.21341424999999958;83;0.609375;violin
38.048712;0.4878040000000041;73;0.7890625;violin
38.048712;0.4878040000000041;82;0.7890625;violin
38.536516000000006;0.42682849999999917;75;0.6328125;violin
38.536516000000006;0.42682849999999917;81;0.6328125;violin
39.02432;0.2439019999999985;76;0.6328125;violin
39.02432;0.2439019999999985;81;0.6328125;violin
39.268222;0.21341424999999958;79;0.6328125;violin
39.756026000000006;0.21341424999999958;67;0.6328125;violin
39.756026000000006;0.21341424999999958;76;0.6328125;violin
40.24383;0.21341424999999958;69;0.6328125;violin
40.24383;0.21341424999999958;77;0.6328125;violin
40.73163400000001;0.21341424999999958;71;0.6328125;violin
40.73163400000001;0.21341424999999958;75;0.6328125;violin
40.975536000000005;0.21341424999999958;76;0.6328125;violin
41.46334;0.21341424999999958;59;0.6328125;violin
41.46334;0.21341424999999958;66;0.6328125;violin
41.46334;0.21341424999999958;71;0.6328125;violin
41.951144000000006;0.42682849999999917;55;0.6328125;violin
41.951144000000006;0.42682849999999917;64;0.6328125;violin
42.68285;0.2439019999999985;76;0.6328125;violin
42.926752;0.24390200000000561;68;0.734375;violin
42.926752;0.24390200000000561;76;0.734375;violin
43.170654000000006;0.2439019999999985;77;0.734375;violin
43.414556000000005;0.2439019999999985;76;0.734375;violin
43.658458;0.2439019999999985;71;0.6484375;violin
43.90236;0.24390200000000561;64;0.8046875;violin
43.90236;0.24390200000000561;74;0.8046875;violin
44.14626200000001;0.21341424999999958;72;0.6484375;violin
44.390164000000006;0.1219509999999957;72;0.6484375;violin
44.634066000000004;0.12195100000000281;71;0.6484375;violin
44.877968;0.2439019999999985;71;0.6484375;violin
45.12187;0.21341424999999958;69;0.5546875;violin
45.36577200000001;0.1219509999999957;71;0.5546875;violin
45.609674000000005;0.1219509999999957;67;0.5546875;violin
45.853576000000004;0.487803999999997;62;0.7890625;violin
45.853576000000004;0.487803999999997;71;0.7890625;violin
46.34138;0.2134142500000067;62;0.609375;violin
46.34138;0.2134142500000067;69;0.609375;violin
46.829184000000005;0.42682849999999917;55;0.9453125;violin
46.829184000000005;0.42682849999999917;62;0.9453125;violin
46.829184000000005;0.42682849999999917;71;0.9453125;violin
46.829184000000005;0.42682849999999917;79;0.9453125;violin
47.316988;0.42682849999999917;62;0.9453125;violin
47.316988;0.42682849999999917;78;0.9453125;violin
47.316988;0.42682849999999917;81;0.9453125;violin
47.804792000000006;0.21341424999999958;79;0.7890625;violin
47.804792000000006;0.21341424999999958;83;0.7890625;violin
48.048694000000005;0.12195100000000281;81;0.7890625;violin
48.292596;0.12195100000000281;79;0.7890625;violin
48.536498;0.12195100000000281;78;0.7890625;violin
48.536498;0.12195100000000281;86;0.7890625;violin
48.78040000000001;0.2439019999999985;76;0.7890625;violin
48.78040000000001;0.2439019999999985;86;0.7890625;violin
49.024302000000006;0.21341424999999958;84;0.609375;violin
49.268204000000004;0.12195100000000281;83;0.609375;violin
49.512106;0.2439019999999985;81;0.609375;violin
49.756008;0.4878040000000041;71;0.7890625;violin
49.756008;0.4878040000000041;79;0.7890625;violin
50.243812000000005;0.21341424999999958;69;0.71875;violin
50.243812000000005;0.21341424999999958;78;0.71875;violin
50.731616;0.42682849999999917;67;0.875;violin
50.731616;0.42682849999999917;71;0.875;violin
50.731616;0.42682849999999917;79;0.875;violin
51.21942000000001;0.42682849999999917;64;0.875;violin
51.21942000000001;0.42682849999999917;74;0.875;violin
51.21942000000001;0.42682849999999917;80;0.875;violin
51.707224000000004;0.21341424999999958;72;0.71875;violin
51.707224000000004;0.21341424999999958;81;0.71875;violin
51.951126;0.21341424999999958;83;0.71875;violin
52.19502800000001;0.21341424999999958;69;0.71875;violin
52.19502800000001;0.21341424999999958;84;0.71875;violin
52.438930000000006;0.2439019999999985;81;0.71875;violin
52.682832000000005;0.21341424999999958;71;0.71875;violin
52.682832000000005;0.21341424999999958;79;0.71875;violin
52.926734;0.21341424999999958;83;0.6796875;violin
53.170636;0.21341424999999958;71;0.6484375;violin
53.170636;0.21341424999999958;78;0.6484375;violin
53.41453800000001;0.21341424999999958;83;0.609375;violin
53.658440000000006;0.487803999999997;73;0.7890625;violin
53.658440000000006;0.487803999999997;82;0.7890625;violin
54.146244;0.42682849999999917;75;0.7421875;violin
54.146244;0.42682849999999917;81;0.7421875;violin
54.63404800000001;0.2439019999999985;76;0.7421875;violin
54.63404800000001;0.2439019999999985;81;0.7421875;violin
54.877950000000006;0.21341424999999958;80;0.71875;violin
55.365754;0.21341424999999958;76;0.6796875;violin
55.365754;0.21341424999999958;79;0.6796875;violin
55.85355800000001;0.21341424999999958;69;0.6328125;violin
55.85355800000001;0.21341424999999958;77;0.6328125;violin
56.341362000000004;0.21341424999999958;70;0.6328125;violin
56.341362000000004;0.21341424999999958;76;0.6328125;violin
56.585264;0.21341424999999958;71;0.6640625;violin
56.585264;0.21341424999999958;79;0.6640625;violin
57.073068000000006;0.21341424999999958;71;0.7265625;violin
57.073068000000006;0.21341424999999958;78;0.7265625;violin
57.560872;0.42682849999999917;61;0.7890625;violin
57.560872;0.42682849999999917;67;0.7890625;violin
57.560872;0.42682849999999917;70;0.7890625;violin
57.560872;0.42682849999999917;76;0.7890625;violin
58.292578000000006;0.21341424999999958;76;0.6328125;violin
58.536480000000005;0.18292650000000066;76;0.6328125;violin
58.780382;0.18292650000000066;71;0.6328125;violin
59.02428400000001;0.7317059999999955;83;0.734375;violin
59.755990000000004;0.4878040000000041;84;0.9453125;violin
60.24379400000001;0.21341424999999958;75;0.7890625;violin
60.48769600000001;0.2439019999999985;68;0.734375;violin
60.48769600000001;0.2439019999999985;76;0.734375;violin
60.731598000000005;0.2439019999999985;77;0.7109375;violin
60.975500000000004;0.2439019999999985;76;0.6796875;violin
61.219402;0.24390200000000561;71;0.65625;violin
61.46330400000001;0.2439019999999985;64;0.65625;violin
61.46330400000001;0.2439019999999985;74;0.65625;violin
61.707206000000006;0.21341424999999958;72;0.6328125;violin
61.951108000000005;0.12195100000000281;72;0.6328125;violin
62.19501;0.12195100000000281;71;0.6328125;violin
62.438912;0.24390200000000561;71;0.6328125;violin
62.68281400000001;0.21341424999999958;69;0.609375;violin
62.926716000000006;0.12195100000000281;71;0.609375;violin
63.170618000000005;0.12195100000000281;69;0.609375;violin
63.41452;0.4878040000000041;62;0.609375;violin
63.41452;0.4878040000000041;71;0.609375;violin
63.90232400000001;0.21341424999999958;62;0.5546875;violin
63.90232400000001;0.21341424999999958;69;0.5546875;violin
64.390128;0.42682849999999917;55;0.9453125;violin
64.390128;0.42682849999999917;62;0.9453125;violin
64.390128;0.42682849999999917;71;0.9453125;violin
64.390128;0.42682849999999917;79;0.9453125;violin
64.877932;0.42682849999999917;62;0.9453125;violin
64.877932;0.42682849999999917;78;0.9453125;violin
64.877932;0.42682849999999917;81;0.9453125;violin
65.36573600000001;0.1219509999999957;83;0.7890625;violin
65.609638;0.1219509999999957;81;0.7890625;violin
65.85354000000001;0.1219509999999957;79;0.7890625;violin
66.097442;0.12195100000000991;78;0.7890625;violin
66.097442;0.12195100000000991;86;0.7890625;violin
66.341344;0.24390200000000561;76;0.7890625;violin
66.341344;0.24390200000000561;86;0.7890625;violin
66.58524600000001;0.21341424999999958;85;0.7890625;violin
66.829148;0.18292650000000776;83;0.7890625;violin
67.07305000000001;0.2439019999999914;85;0.7890625;violin
67.316952;0.48780400000001123;88;0.7890625;violin
67.80475600000001;0.21341424999999958;86;0.6875;violin
68.048658;0.21341424999999958;62;0.6328125;violin
68.29256000000001;0.21341424999999958;67;0.6328125;violin
68.29256000000001;0.21341424999999958;71;0.6328125;violin
68.536462;0.21341424999999958;66;0.6328125;violin
68.780364;0.21341424999999958;67;0.6328125;violin
68.780364;0.21341424999999958;71;0.6328125;violin
69.02426600000001;0.21341424999999958;62;0.6328125;violin
69.268168;0.21341424999999958;69;0.6328125;violin
69.268168;0.21341424999999958;72;0.6328125;violin
69.51207000000001;0.21341424999999958;71;0.6328125;violin
69.755972;0.21341424999999958;66;0.6328125;violin
69.755972;0.21341424999999958;69;0.6328125;violin
69.999874;0.21341424999999958;62;0.6328125;violin
70.24377600000001;0.21341424999999958;71;0.6328125;violin
70.24377600000001;0.21341424999999958;74;0.6328125;violin
70.487678;0.21341424999999958;79;0.6328125;violin
70.73158000000001;0.21341424999999958;72;0.6328125;violin
70.73158000000001;0.21341424999999958;76;0.6328125;violin
70.975482;0.24390200000000561;69;0.6328125;violin
71.219384;0.21341424999999958;62;0.6328125;violin
71.219384;0.21341424999999958;71;0.6328125;violin
71.46328600000001;0.21341424999999958;74;0.6328125;violin
71.707188;0.21341424999999958;66;0.6328125;violin
71.707188;0.21341424999999958;69;0.6328125;violin
71.95109000000001;0.21341424999999958;72;0.6328125;violin
72.19499200000001;0.21341424999999958;67;0.6328125;violin
72.19499200000001;0.21341424999999958;71;0.6328125;violin
72.438894;0.21341424999999958;66;0.6328125;violin
72.68279600000001;0.21341424999999958;67;0.65625;violin
72.68279600000001;0.21341424999999958;71;0.65625;violin
72.926698;0.21341424999999958;74;0.6796875;violin
73.17060000000001;0.21341424999999958;64;0.6953125;violin
73.17060000000001;0.21341424999999958;72;0.6953125;violin
73.41450200000001;0.1219509999999957;71;0.71875;violin
73.658404;0.18292650000000776;69;0.7421875;violin
73.90230600000001;0.18292649999999355;70;0.765625;violin
74.146208;0.24390200000000561;62;0.7890625;violin
74.146208;0.24390200000000561;71;0.7890625;violin
74.39011;0.21341424999999958;79;0.7890625;violin
74.63401200000001;0.1219509999999957;62;0.7890625;violin
74.63401200000001;0.1219509999999957;69;0.7890625;violin
74.75596300000001;0.10670712499999979;69;0.7890625;violin
74.75596300000001;0.10670712499999979;79;0.7890625;violin
74.877914;0.1219509999999957;62;0.7890625;violin
74.877914;0.1219509999999957;69;0.7890625;violin
74.999865;0.10670712499999979;69;0.7890625;violin
74.999865;0.10670712499999979;79;0.7890625;violin
75.12181600000001;0.487803999999997;62;0.7890625;violin
75.12181600000001;0.487803999999997;72;0.7890625;violin
75.12181600000001;0.487803999999997;81;0.7890625;violin
75.60962;0.21341424999999958;71;0.7265625;violin
75.60962;0.21341424999999958;79;0.7265625;violin
75.85352200000001;0.2439019999999914;62;0.7265625;violin
76.097424;0.24390200000000561;55;0.7265625;violin
76.34132600000001;0.2439019999999914;74;0.7265625;violin
76.34132600000001;0.2439019999999914;83;0.7265625;violin
76.585228;0.21341424999999958;71;0.7265625;violin
76.585228;0.21341424999999958;79;0.7265625;violin
76.82913;0.24390200000000561;62;0.7265625;violin
77.07303200000001;0.2439019999999914;55;0.703125;violin
77.316934;0.24390200000000561;74;0.671875;violin
77.316934;0.24390200000000561;83;0.671875;violin
77.56083600000001;0.21341424999999958;71;0.640625;violin
77.56083600000001;0.21341424999999958;79;0.640625;violin
77.804738;0.24390200000000561;62;0.609375;violin
78.04864;0.24390200000000561;55;0.7578125;violin
78.29254200000001;0.21341424999999958;67;0.609375;violin
78.29254200000001;0.21341424999999958;71;0.609375;violin
78.536444;0.24390200000000561;55;0.7578125;violin
78.78034600000001;0.21341424999999958;62;0.609375;violin
78.78034600000001;0.21341424999999958;71;0.609375;violin
79.024248;0.24390200000000561;55;0.7578125;violin
79.26815;0.21341424999999958;59;0.609375;violin
79.26815;0.21341424999999958;67;0.609375;violin
79.51205200000001;0.2439019999999914;55;0.7578125;violin
79.755954;0.21341424999999958;59;0.609375;violin
79.755954;0.21341424999999958;62;0.609375;violin
79.99985600000001;0.21341424999999958;55;0.7578125;violin
79.99985600000001;1.8292649999999924;62;0.609375;violin
79.99985600000001;1.8292649999999924;71;0.609375;violin
80.975464;0.21341424999999958;55;0.7578125;violin
81.46326800000001;0.21341424999999958;55;0.7578125;violin
81.95107200000001;0.21341424999999958;55;0.7578125;violin
81.95107200000001;0.8536569999999983;62;0.609375;violin
81.95107200000001;0.8536569999999983;71;0.609375;violin
82.92668;0.21341424999999958;55;0.828125;violin
82.92668;0.21341424999999958;62;0.828125;violin
82.92668;0.21341424999999958;71;0.828125;violin
82.92668;0.21341424999999958;79;0.828125;violin
