start;duration;pitch;velocity;instrument
0.0;0.044642812500000004;72;0.7578125;violin
0.044642812500000004;0.044642812500000004;70;0.7578125;violin
0.09131484375000001;0.04464281249999999;72;0.7578125;violin
0.13595765625;0.04464281250000002;70;0.7578125;violin
0.18262968750000003;0.04464281249999999;72;0.7578125;violin
0.22727250000000002;0.04464281249999999;70;0.7578125;violin
0.27394453125;0.04464281250000002;72;0.7578125;violin
0.31858734375000003;0.04464281250000002;70;0.7578125;violin
0.36525937500000005;0.04464281249999996;72;0.7578125;violin
0.4099021875;0.04464281250000002;70;0.7578125;violin
0.45657421875000004;0.04464281250000002;72;0.7578125;violin
0.5012170312500001;0.04464281250000002;70;0.7578125;violin
0.5478890625;0.04464281250000002;72;0.7578125;violin
0.592531875;0.04464281250000002;70;0.7578125;violin
0.6392039062500001;0.044642812499999907;72;0.7578125;violin
0.68384671875;0.04464281250000002;70;0.7578125;violin
0.7305187500000001;0.02435062499999996;69;0.7578125;violin
0.7548693750000001;0.02435062499999996;70;0.7578125;violin
0.77922;0.38961;75;0.7578125;violin
1.55844;0.04464281250000002;72;0.7578125;violin
1.6030828125;0.04464281250000002;70;0.7578125;violin
1.6497548437500003;0.04464281250000002;72;0.7578125;violin
1.6943976562500003;0.044642812499999796;70;0.7578125;violin
1.7410696875000002;0.04464281250000002;72;0.7578125;violin
1.7857125000000003;0.04464281250000002;70;0.7578125;violin
1.8323845312500002;0.04464281250000002;72;0.7578125;violin
1.8770273437500002;0.04464281250000002;70;0.7578125;violin
1.9236993750000002;0.04464281250000002;72;0.7578125;violin
1.9683421875000002;0.044642812499999796;70;0.7578125;violin
2.01501421875;0.044642812499999796;72;0.7578125;violin
2.05965703125;0.04464281250000024;70;0.7578125;violin
2.1063290625000004;0.044642812499999796;72;0.7578125;violin
2.150971875;0.04464281250000024;70;0.7578125;violin
2.19764390625;0.04464281250000024;72;0.7578125;violin
2.2422867187500004;0.044642812499999796;70;0.7578125;violin
2.2889587500000004;0.024350624999999848;69;0.7578125;violin
2.3133093750000002;0.024350624999999848;70;0.7578125;violin
2.33766;0.38961000000000023;79;0.7578125;violin
3.11688;0.04464281250000024;84;0.7578125;violin
3.1615228125000003;0.044642812499999796;82;0.7578125;violin
3.2081948437500003;0.04464281250000024;84;0.7578125;violin
3.2528376562500005;0.044642812499999796;82;0.7578125;violin
3.2995096875000005;0.044642812499999796;84;0.7578125;violin
3.3441525000000003;0.04464281250000024;82;0.7578125;violin
3.3908245312500003;0.04464281250000024;84;0.7578125;violin
3.4354673437500005;0.044642812499999796;82;0.7578125;violin
3.4821393750000005;0.044642812499999796;84;0.7578125;violin
3.5267821875000003;0.04464281250000024;82;0.7578125;violin
3.5734542187500002;0.04464281250000024;84;0.7578125;violin
3.6180970312500005;0.044642812499999796;82;0.7578125;violin
3.6647690625000005;0.044642812499999796;84;0.7578125;violin
3.7094118750000002;0.04464281250000024;82;0.7578125;violin
3.75608390625;0.04464281250000024;84;0.7578125;violin
3.8007267187500005;0.044642812499999796;82;0.7578125;violin
3.8473987500000004;0.024350624999999848;81;0.7578125;violin
3.8717493750000003;0.024350625000000292;82;0.7578125;violin
3.8961000000000006;0.38961000000000023;74;0.7578125;violin
4.67532;0.04464281250000024;77;0.7578125;violin
4.7199628125;0.04464281250000024;75;0.7578125;violin
4.76663484375;0.04464281250000024;77;0.7578125;violin
4.811277656250001;0.04464281250000024;75;0.7578125;violin
4.857949687500001;0.04464281250000024;77;0.7578125;violin
4.902592500000001;0.04464281249999935;75;0.7578125;violin
4.949264531250001;0.04464281249999935;77;0.7578125;violin
4.99390734375;0.04464281250000024;75;0.7578125;violin
5.040579375;0.04464281250000024;77;0.7578125;violin
5.0852221875;0.04464281250000024;75;0.7578125;violin
5.13189421875;0.04464281250000024;77;0.7578125;violin
5.1765370312500005;0.04464281250000024;75;0.7578125;violin
5.2232090625000005;0.04464281250000024;77;0.7578125;violin
5.267851875000001;0.04464281250000024;75;0.7578125;violin
5.314523906250001;0.04464281250000024;77;0.7578125;violin
5.359166718750001;0.04464281249999935;75;0.7578125;violin
5.405838750000001;0.024350624999999404;74;0.7578125;violin
5.430189375;0.024350625000000292;75;0.7578125;violin
5.454540000000001;0.38961000000000023;77;0.7578125;violin
6.23376;0.04464281250000024;72;0.7578125;violin
6.2784028125;0.04464281250000024;70;0.7578125;violin
6.32507484375;0.04464281250000024;72;0.7578125;violin
6.369717656250001;0.04464281250000024;70;0.7578125;violin
6.416389687500001;0.04464281250000024;72;0.7578125;violin
6.461032500000001;0.04464281250000024;70;0.7578125;violin
6.507704531250001;0.04464281250000024;72;0.7578125;violin
6.552347343750001;0.04464281249999935;70;0.7578125;violin
6.599019375000001;0.04464281249999935;72;0.7578125;violin
6.6436621875;0.04464281250000024;70;0.7578125;violin
6.69033421875;0.04464281250000024;72;0.7578125;violin
6.734977031250001;0.04464281250000024;70;0.7578125;violin
6.7816490625000005;0.04464281250000024;72;0.7578125;violin
6.826291875000001;0.04464281250000024;70;0.7578125;violin
6.872963906250001;0.04464281250000024;72;0.7578125;violin
6.917606718750001;0.04464281249999935;70;0.7578125;violin
6.964278750000001;0.024350624999999404;69;0.7578125;violin
6.988629375;0.024350625000000292;70;0.7578125;violin
7.012980000000001;0.38961000000000023;75;0.7578125;violin
7.792200000000001;0.7305187499999999;79;0.7578125;violin
8.522718750000001;0.024350625000000292;78;0.734375;violin
8.547069375000001;0.024350625000000292;79;0.734375;violin
8.571420000000002;0.6818174999999993;69;0.734375;violin
9.35064;0.04464281250000113;79;0.734375;violin
9.395282812500001;0.04464281249999935;77;0.734375;violin
9.44195484375;0.04464281250000113;79;0.734375;violin
9.486597656250002;0.04464281249999935;77;0.734375;violin
9.5332696875;0.04464281250000113;79;0.734375;violin
9.577912500000002;0.04464281249999935;77;0.734375;violin
9.624584531250001;0.04464281249999935;79;0.734375;violin
9.66922734375;0.04464281250000113;77;0.734375;violin
9.715899375000001;0.04464281249999935;79;0.734375;violin
9.7605421875;0.04464281250000113;77;0.734375;violin
9.807214218750001;0.04464281249999935;79;0.734375;violin
9.85185703125;0.04464281250000113;77;0.734375;violin
9.898529062500002;0.04464281249999935;79;0.734375;violin
9.943171875;0.04464281249999935;77;0.734375;violin
9.989843906250002;0.04464281249999935;79;0.734375;violin
10.034486718750001;0.04464281249999935;77;0.734375;violin
10.08115875;0.024350625000000292;76;0.734375;violin
10.105509375;0.024350625000000292;77;0.734375;violin
10.12986;0.5844149999999999;81;0.734375;violin
10.714275;0.14610374999999998;82;0.71875;violin
10.909080000000001;0.43831124999999993;84;0.71875;violin
11.493495000000001;0.14610374999999998;86;0.703125;violin
11.688300000000002;0.38960999999999935;82;0.6953125;violin
12.46752;0.04464281250000113;72;0.6953125;violin
12.512162812500002;0.04464281249999935;70;0.6953125;violin
12.55883484375;0.04464281250000113;72;0.6953125;violin
12.603477656250002;0.04464281249999935;70;0.6953125;violin
12.6501496875;0.04464281250000113;72;0.6953125;violin
12.694792500000002;0.04464281249999935;70;0.6953125;violin
12.741464531250001;0.04464281250000113;72;0.6953125;violin
12.786107343750002;0.04464281249999935;70;0.6953125;violin
12.832779375000001;0.04464281249999935;72;0.6953125;violin
12.8774221875;0.04464281250000113;70;0.6953125;violin
12.924094218750001;0.04464281249999935;72;0.6953125;violin
12.96873703125;0.04464281250000113;70;0.6953125;violin
13.015409062500002;0.04464281249999935;72;0.6953125;violin
13.060051875000001;0.04464281250000113;70;0.6953125;violin
13.106723906250002;0.04464281249999935;72;0.6953125;violin
13.151366718750001;0.04464281249999935;70;0.6953125;violin
13.198038750000002;0.024350624999998516;69;0.6953125;violin
13.222389375;0.024350625000000292;70;0.6953125;violin
13.24674;0.3896100000000011;75;0.6953125;violin
14.025960000000001;0.04464281249999935;72;0.6953125;violin
14.0706028125;0.04464281250000113;70;0.6953125;violin
14.117274843750002;0.04464281249999935;72;0.6953125;violin
14.16191765625;0.04464281250000113;70;0.6953125;violin
14.208589687500002;0.04464281249999935;72;0.6953125;violin
14.253232500000001;0.04464281250000113;70;0.6953125;violin
14.299904531250002;0.04464281249999935;72;0.6953125;violin
14.344547343750001;0.04464281249999935;70;0.6953125;violin
14.391219375000002;0.04464281249999935;72;0.6953125;violin
14.435862187500001;0.04464281249999935;70;0.6953125;violin
14.482534218750002;0.04464281249999935;72;0.6953125;violin
14.527177031250002;0.04464281249999935;70;0.6953125;violin
14.5738490625;0.04464281250000113;72;0.6953125;violin
14.618491875000002;0.04464281249999935;70;0.6953125;violin
14.665163906250001;0.04464281250000113;72;0.6953125;violin
14.709806718750002;0.04464281249999935;70;0.6953125;violin
14.756478750000001;0.024350625000000292;69;0.6953125;violin
14.780829375000001;0.024350625000000292;70;0.6953125;violin
14.805180000000002;0.38960999999999935;79;0.6953125;violin
15.584400000000002;0.04464281249999935;84;0.6953125;violin
15.629042812500002;0.04464281249999935;82;0.6953125;violin
15.675714843750002;0.04464281249999935;84;0.6953125;violin
15.720357656250002;0.04464281249999935;82;0.6953125;violin
15.767029687500001;0.04464281250000113;84;0.6953125;violin
15.811672500000002;0.04464281249999935;82;0.6953125;violin
15.858344531250001;0.04464281250000113;84;0.6953125;violin
15.902987343750002;0.04464281249999935;82;0.6953125;violin
15.949659375000001;0.04464281250000113;84;0.6953125;violin
15.994302187500002;0.04464281249999935;82;0.6953125;violin
16.04097421875;0.04464281250000113;84;0.6953125;violin
16.085617031250003;0.044642812499997575;82;0.6953125;violin
16.1322890625;0.04464281250000113;84;0.6953125;violin
16.176931875;0.04464281250000113;82;0.6953125;violin
16.223603906250002;0.04464281250000113;84;0.6953125;violin
16.268246718750003;0.044642812499997575;82;0.6953125;violin
16.31491875;0.024350625000000292;81;0.6953125;violin
16.339269375;0.024350625000000292;82;0.6953125;violin
16.36362;0.3896100000000011;74;0.6953125;violin
17.142840000000003;0.044642812499997575;77;0.6953125;violin
17.1874828125;0.04464281250000113;75;0.6953125;violin
17.23415484375;0.04464281250000113;77;0.6953125;violin
17.278797656250003;0.044642812499997575;75;0.6953125;violin
17.3254696875;0.04464281250000113;77;0.6953125;violin
17.3701125;0.04464281250000113;75;0.6953125;violin
17.416784531250002;0.04464281250000113;77;0.6953125;violin
17.461427343750003;0.044642812499997575;75;0.6953125;violin
17.508099375;0.04464281250000113;77;0.6953125;violin
17.5527421875;0.04464281250000113;75;0.6953125;violin
17.599414218750002;0.044642812499997575;77;0.6953125;violin
17.64405703125;0.04464281250000113;75;0.6953125;violin
17.6907290625;0.04464281250000113;77;0.6953125;violin
17.735371875000002;0.04464281250000113;75;0.6953125;violin
17.782043906250003;0.044642812499997575;77;0.6953125;violin
17.82668671875;0.04464281250000113;75;0.6953125;violin
17.87335875;0.024350625000000292;74;0.6953125;violin
17.897709375;0.024350625000000292;75;0.6953125;violin
17.922060000000002;0.3896100000000011;77;0.6953125;violin
18.70128;0.04464281250000113;72;0.6953125;violin
18.7459228125;0.04464281250000113;70;0.6953125;violin
18.792594843750003;0.04464281250000113;72;0.6953125;violin
18.837237656250004;0.044642812499997575;70;0.6953125;violin
18.8839096875;0.04464281250000113;72;0.6953125;violin
18.928552500000002;0.04464281250000113;70;0.6953125;violin
18.975224531250003;0.044642812499997575;72;0.6953125;violin
19.01986734375;0.04464281250000113;70;0.6953125;violin
19.066539375;0.04464281250000113;72;0.6953125;violin
19.111182187500003;0.04464281250000113;70;0.6953125;violin
19.157854218750003;0.044642812499997575;72;0.6953125;violin
19.20249703125;0.04464281250000113;70;0.6953125;violin
19.249169062500002;0.04464281250000113;72;0.6953125;violin
19.293811875000003;0.044642812499997575;70;0.6953125;violin
19.34048390625;0.04464281250000113;72;0.6953125;violin
19.38512671875;0.04464281250000113;70;0.6953125;violin
19.431798750000002;0.024350625000000292;69;0.6953125;violin
19.456149375000003;0.024350625000000292;70;0.6953125;violin
19.480500000000003;0.38960999999999757;75;0.6953125;violin
20.25972;0.7305187500000017;79;0.6953125;violin
20.990238750000003;0.024350625000000292;78;0.671875;violin
21.014589375000003;0.024350625000000292;79;0.671875;violin
21.038940000000004;0.6818174999999975;69;0.671875;violin
21.818160000000002;0.04464281250000113;79;0.671875;violin
21.862802812500004;0.044642812499997575;77;0.671875;violin
21.90947484375;0.04464281250000113;79;0.671875;violin
21.954117656250002;0.04464281250000113;77;0.671875;violin
22.000789687500003;0.04464281250000113;79;0.671875;violin
22.045432500000004;0.044642812499997575;77;0.671875;violin
22.09210453125;0.04464281250000113;79;0.671875;violin
22.136747343750002;0.04464281250000113;77;0.671875;violin
22.183419375000003;0.044642812499997575;79;0.671875;violin
22.2280621875;0.04464281250000113;77;0.671875;violin
22.27473421875;0.04464281250000113;79;0.671875;violin
22.319377031250003;0.04464281250000113;77;0.671875;violin
22.366049062500004;0.044642812499997575;79;0.671875;violin
22.410691875;0.04464281250000113;77;0.671875;violin
22.457363906250002;0.04464281250000113;79;0.671875;violin
22.502006718750003;0.044642812499997575;77;0.671875;violin
22.54867875;0.024350625000000292;76;0.671875;violin
22.573029375;0.024350625000000292;77;0.671875;violin
22.59738;0.5844149999999999;81;0.671875;violin
23.181795;0.14610375000000175;82;0.65625;violin
23.376600000000003;0.43831124999999815;84;0.6484375;violin
23.961015000000003;0.1461037499999982;86;0.6328125;violin
24.155820000000002;0.3896100000000011;82;0.6328125;violin
24.93504;0.04464281250000113;84;0.6328125;violin
24.979682812500002;0.04464281250000113;82;0.6328125;violin
25.026354843750003;0.04464281250000113;84;0.6328125;violin
25.070997656250004;0.044642812499997575;82;0.6328125;violin
25.1176696875;0.04464281250000113;84;0.6328125;violin
25.162312500000002;0.04464281250000113;82;0.6328125;violin
25.208984531250003;0.04464281250000113;84;0.6328125;violin
25.253627343750004;0.044642812499997575;82;0.6328125;violin
25.300299375;0.04464281250000113;84;0.6328125;violin
25.344942187500003;0.04464281250000113;82;0.6328125;violin
25.391614218750004;0.044642812499997575;84;0.6328125;violin
25.43625703125;0.04464281250000113;82;0.6328125;violin
25.482929062500002;0.04464281250000113;84;0.6328125;violin
25.527571875000003;0.04464281250000113;82;0.6328125;violin
25.574243906250004;0.044642812499997575;84;0.6328125;violin
25.61888671875;0.04464281250000113;82;0.6328125;violin
25.665558750000002;0.024350625000000292;81;0.6328125;violin
25.689909375000003;0.024350625000000292;82;0.6328125;violin
25.714260000000003;0.3896100000000011;74;0.6328125;violin
26.49348;0.04464281250000113;84;0.6328125;violin
26.538122812500003;0.04464281250000113;82;0.6328125;violin
26.584794843750004;0.044642812499997575;84;0.6328125;violin
26.62943765625;0.04464281250000113;82;0.6328125;violin
26.676109687500002;0.04464281250000113;84;0.6328125;violin
26.720752500000003;0.04464281250000113;82;0.6328125;violin
26.767424531250004;0.044642812499997575;84;0.6328125;violin
26.81206734375;0.04464281250000113;82;0.6328125;violin
26.858739375000003;0.04464281250000113;84;0.6328125;violin
26.903382187500004;0.044642812499997575;82;0.6328125;violin
26.950054218750005;0.044642812499997575;84;0.6328125;violin
26.994697031250002;0.04464281250000113;82;0.6328125;violin
27.041369062500003;0.04464281250000113;84;0.6328125;violin
27.086011875000004;0.044642812499997575;82;0.6328125;violin
27.13268390625;0.04464281250000113;84;0.6328125;violin
27.177326718750002;0.04464281250000113;82;0.6328125;violin
27.223998750000003;0.024350625000000292;81;0.6328125;violin
27.248349375000004;0.024350625000000292;82;0.6328125;violin
27.272700000000004;0.38960999999999757;75;0.6328125;violin
28.051920000000003;0.04464281250000113;84;0.6328125;violin
28.096562812500004;0.044642812499997575;82;0.6328125;violin
28.143234843750005;0.044642812499997575;84;0.6328125;violin
28.187877656250002;0.04464281250000113;82;0.6328125;violin
28.234549687500003;0.04464281250000113;84;0.6328125;violin
28.279192500000004;0.044642812499997575;82;0.6328125;violin
28.32586453125;0.04464281250000113;84;0.6328125;violin
28.370507343750003;0.04464281250000113;82;0.6328125;violin
28.417179375000003;0.04464281250000113;84;0.6328125;violin
28.461822187500005;0.044642812499997575;82;0.6328125;violin
28.508494218750002;0.04464281250000113;84;0.6328125;violin
28.553137031250003;0.04464281250000113;82;0.6328125;violin
28.599809062500004;0.044642812499997575;84;0.6328125;violin
28.644451875;0.04464281250000113;82;0.6328125;violin
28.691123906250002;0.04464281250000113;84;0.6328125;violin
28.735766718750003;0.04464281250000113;82;0.6328125;violin
28.782438750000004;0.024350625000000292;81;0.6328125;violin
28.806789375000005;0.02435062499999674;82;0.6328125;violin
28.83114;0.5844149999999999;76;0.6328125;violin
29.415555;0.19480500000000234;77;0.6328125;violin
29.610360000000004;0.43831124999999815;79;0.6328125;violin
30.194775000000003;0.1461037499999982;82;0.6328125;violin
30.389580000000002;0.3896100000000011;80;0.6328125;violin
31.168800000000005;0.044642812499997575;79;0.6328125;violin
31.213442812500002;0.04464281250000113;77;0.6328125;violin
31.260114843750003;0.04464281250000113;79;0.6328125;violin
31.304757656250004;0.044642812499997575;77;0.6328125;violin
31.351429687500005;0.044642812499997575;79;0.6328125;violin
31.396072500000002;0.04464281250000113;77;0.6328125;violin
31.442744531250003;0.04464281250000113;79;0.6328125;violin
31.487387343750004;0.044642812499997575;77;0.6328125;violin
31.534059375000002;0.04464281250000113;79;0.6328125;violin
31.578702187500003;0.04464281250000113;77;0.6328125;violin
31.625374218750004;0.04464281250000113;79;0.6328125;violin
31.670017031250005;0.044642812499997575;77;0.6328125;violin
31.716689062500002;0.04464281250000113;79;0.6328125;violin
31.761331875000003;0.04464281250000113;77;0.6328125;violin
31.808003906250004;0.044642812499997575;79;0.6328125;violin
31.85264671875;0.04464281250000113;77;0.6328125;violin
31.899318750000003;0.024350625000000292;76;0.6328125;violin
31.923669375000003;0.024350625000000292;77;0.6328125;violin
31.948020000000003;0.3896100000000011;79;0.6328125;violin
32.72724;0.04464281250000113;77;0.6328125;violin
32.7718828125;0.04464281250000113;75;0.6328125;violin
32.81855484375;0.04464281250000113;77;0.6328125;violin
32.86319765625;0.04464281250000113;75;0.6328125;violin
32.909869687500006;0.04464281249999402;77;0.6328125;violin
32.9545125;0.04464281250000113;75;0.6328125;violin
33.001184531250004;0.04464281250000113;77;0.6328125;violin
33.045827343750005;0.04464281250000113;75;0.6328125;violin
33.092499375;0.04464281250000113;77;0.6328125;violin
33.137142187500004;0.04464281250000113;75;0.6328125;violin
33.18381421875;0.04464281250000113;77;0.6328125;violin
33.22845703125;0.04464281250000113;75;0.6328125;violin
33.27512906250001;0.04464281249999402;77;0.6328125;violin
33.319771875;0.04464281250000113;75;0.6328125;violin
33.366443906250005;0.04464281250000113;77;0.6328125;violin
33.411086718750006;0.04464281249999402;75;0.6328125;violin
33.45775875;0.02435062499999674;74;0.6328125;violin
33.482109375;0.024350625000003845;75;0.6328125;violin
33.506460000000004;0.7792200000000022;72;0.6328125;violin
34.285680000000006;0.04464281249999402;70;0.6328125;violin
34.3303228125;0.04464281250000113;69;0.6328125;violin
34.376994843750005;0.04464281250000113;70;0.6328125;violin
34.421637656250006;0.04464281249999402;69;0.6328125;violin
34.4683096875;0.04464281250000113;70;0.6328125;violin
34.512952500000004;0.04464281250000113;69;0.6328125;violin
34.55962453125;0.04464281250000113;70;0.6328125;violin
34.60426734375;0.04464281250000113;69;0.6328125;violin
34.650939375;0.04464281250000113;70;0.6328125;violin
34.6955821875;0.04464281250000113;69;0.6328125;violin
34.742254218750006;0.04464281250000113;70;0.6328125;violin
34.78689703125001;0.04464281249999402;69;0.6328125;violin
34.833569062500004;0.04464281250000113;70;0.6328125;violin
34.878211875000005;0.04464281250000113;69;0.6328125;violin
34.92488390625;0.04464281250000113;70;0.6328125;violin
34.969526718750004;0.04464281250000113;69;0.6328125;violin
35.01619875;0.024350625000003845;67;0.6328125;violin
35.040549375000005;0.02435062499999674;69;0.6328125;violin
35.0649;0.5844149999999999;69;0.6328125;violin
35.649315;0.19480500000000234;70;0.6328125;violin
35.844120000000004;0.43831124999999815;72;0.6328125;violin
36.428535000000004;0.14610375000000175;74;0.6328125;violin
36.623340000000006;0.38960999999999757;70;0.6328125;violin
37.40256;0.04464281250000113;72;0.6328125;violin
37.4472028125;0.04464281250000113;70;0.6328125;violin
37.49387484375001;0.04464281249999402;72;0.6328125;violin
37.53851765625;0.04464281250000113;70;0.6328125;violin
37.585189687500005;0.04464281250000113;72;0.6328125;violin
37.629832500000006;0.04464281250000113;70;0.6328125;violin
37.67650453125;0.04464281250000113;72;0.6328125;violin
37.721147343750005;0.04464281250000113;70;0.6328125;violin
37.767819375;0.04464281250000113;72;0.6328125;violin
37.8124621875;0.04464281250000113;70;0.6328125;violin
37.85913421875;0.04464281250000113;72;0.6328125;violin
37.90377703125;0.04464281250000113;70;0.6328125;violin
37.950449062500006;0.04464281250000113;72;0.6328125;violin
37.99509187500001;0.04464281249999402;70;0.6328125;violin
38.041763906250004;0.04464281250000113;72;0.6328125;violin
38.086406718750005;0.04464281250000113;70;0.6328125;violin
38.13307875;0.024350625000003845;69;0.6328125;violin
38.15742937500001;0.02435062499999674;70;0.6328125;violin
38.18178;0.38960999999999757;75;0.6328125;violin
38.961000000000006;0.04464281250000113;72;0.6328125;violin
39.00564281250001;0.04464281249999402;70;0.6328125;violin
39.052314843750004;0.04464281250000113;72;0.6328125;violin
39.096957656250005;0.04464281250000113;70;0.6328125;violin
39.1436296875;0.04464281250000113;72;0.6328125;violin
39.188272500000004;0.04464281250000113;70;0.6328125;violin
39.23494453125;0.04464281250000113;72;0.6328125;violin
39.27958734375;0.04464281250000113;70;0.6328125;violin
39.32625937500001;0.04464281249999402;72;0.6328125;violin
39.3709021875;0.04464281250000113;70;0.6328125;violin
39.417574218750005;0.04464281250000113;72;0.6328125;violin
39.462217031250006;0.04464281250000113;70;0.6328125;violin
39.5088890625;0.04464281250000113;72;0.6328125;violin
39.553531875000004;0.04464281250000113;70;0.6328125;violin
39.60020390625;0.04464281250000113;72;0.6328125;violin
39.64484671875;0.04464281250000113;70;0.6328125;violin
39.69151875000001;0.02435062499999674;69;0.6328125;violin
39.715869375000004;0.02435062499999674;70;0.6328125;violin
39.74022;0.3896100000000047;79;0.6328125;violin
40.51944;0.04464281250000113;84;0.6328125;violin
40.564082812500004;0.04464281250000113;82;0.6328125;violin
40.61075484375;0.04464281250000113;84;0.6328125;violin
40.65539765625;0.04464281250000113;82;0.6328125;violin
40.70206968750001;0.04464281249999402;84;0.6328125;violin
40.7467125;0.04464281250000113;82;0.6328125;violin
40.793384531250005;0.04464281250000113;84;0.6328125;violin
40.83802734375001;0.04464281250000113;82;0.6328125;violin
40.884699375000004;0.04464281250000113;84;0.6328125;violin
40.929342187500005;0.04464281250000113;82;0.6328125;violin
40.97601421875;0.04464281250000113;84;0.6328125;violin
41.02065703125;0.04464281250000113;82;0.6328125;violin
41.0673290625;0.04464281250000113;84;0.6328125;violin
41.111971875;0.04464281250000113;82;0.6328125;violin
41.158643906250006;0.04464281250000113;84;0.6328125;violin
41.20328671875001;0.04464281249999402;82;0.6328125;violin
41.249958750000005;0.02435062499999674;81;0.6328125;violin
41.274309375;0.024350625000003845;82;0.6328125;violin
41.298660000000005;0.38960999999999757;74;0.6328125;violin
42.07788000000001;0.04464281249999402;77;0.6328125;violin
42.1225228125;0.04464281250000113;75;0.6328125;violin
42.169194843750006;0.04464281250000113;77;0.6328125;violin
42.21383765625001;0.04464281249999402;75;0.6328125;violin
42.260509687500004;0.04464281250000113;77;0.6328125;violin
42.305152500000005;0.04464281250000113;75;0.6328125;violin
42.35182453125;0.04464281250000113;77;0.6328125;violin
42.396467343750004;0.04464281250000113;75;0.6328125;violin
42.443139375;0.04464281250000113;77;0.6328125;violin
42.4877821875;0.04464281250000113;75;0.6328125;violin
42.53445421875001;0.04464281249999402;77;0.6328125;violin
42.57909703125;0.04464281250000113;75;0.6328125;violin
42.625769062500005;0.04464281250000113;77;0.6328125;violin
42.670411875000006;0.04464281250000113;75;0.6328125;violin
42.717083906250004;0.04464281250000113;77;0.6328125;violin
42.761726718750005;0.04464281250000113;75;0.6328125;violin
42.80839875;0.024350625000003845;74;0.6328125;violin
42.832749375000006;0.02435062499999674;75;0.6328125;violin
42.8571;0.3896100000000047;77;0.6328125;violin
43.636320000000005;0.04464281250000113;72;0.6328125;violin
43.680962812500006;0.04464281250000113;70;0.6328125;violin
43.72763484375;0.04464281250000113;72;0.6328125;violin
43.772277656250004;0.04464281250000113;70;0.6328125;violin
43.8189496875;0.04464281250000113;72;0.6328125;violin
43.8635925;0.04464281250000113;70;0.6328125;violin
43.91026453125001;0.04464281249999402;72;0.6328125;violin
43.95490734375;0.04464281250000113;70;0.6328125;violin
44.001579375000006;0.04464281250000113;72;0.6328125;violin
44.04622218750001;0.04464281250000113;70;0.6328125;violin
44.092894218750004;0.04464281250000113;72;0.6328125;violin
44.137537031250005;0.04464281250000113;70;0.6328125;violin
44.1842090625;0.04464281250000113;72;0.6328125;violin
44.228851875000004;0.04464281250000113;70;0.6328125;violin
44.27552390625;0.04464281250000113;72;0.6328125;violin
44.32016671875;0.04464281250000113;70;0.6328125;violin
44.36683875000001;0.02435062499999674;69;0.6328125;violin
44.391189375;0.024350625000003845;70;0.6328125;violin
44.41554000000001;0.38960999999999757;75;0.6328125;violin
45.19476;0.04464281250000113;74;0.6328125;violin
45.2394028125;0.04464281250000113;72;0.6328125;violin
45.28607484375001;0.04464281249999402;74;0.6328125;violin
45.33071765625;0.04464281250000113;72;0.6328125;violin
45.377389687500006;0.04464281250000113;74;0.6328125;violin
45.42203250000001;0.04464281249999402;72;0.6328125;violin
45.468704531250005;0.04464281250000113;74;0.6328125;violin
45.513347343750006;0.04464281250000113;72;0.6328125;violin
45.560019375;0.04464281250000113;74;0.6328125;violin
45.604662187500004;0.04464281250000113;72;0.6328125;violin
45.65133421875;0.04464281250000113;74;0.6328125;violin
45.69597703125;0.04464281250000113;72;0.6328125;violin
45.74264906250001;0.04464281250000113;74;0.6328125;violin
45.78729187500001;0.04464281249999402;72;0.6328125;violin
45.833963906250005;0.04464281250000113;74;0.6328125;violin
45.87860671875001;0.04464281250000113;72;0.6328125;violin
45.925278750000004;0.024350625000003845;71;0.6328125;violin
45.94962937500001;0.02435062499999674;72;0.6328125;violin
45.973980000000005;0.6818175000000011;68;0.6328125;violin
46.75320000000001;0.04464281250000113;67;0.6328125;violin
46.79784281250001;0.04464281249999402;65;0.6328125;violin
46.844514843750005;0.04464281250000113;67;0.6328125;violin
46.889157656250006;0.04464281250000113;65;0.6328125;violin
46.935829687500004;0.04464281250000113;67;0.6328125;violin
46.980472500000005;0.04464281250000113;65;0.6328125;violin
47.02714453125;0.04464281250000113;67;0.6328125;violin
47.07178734375;0.04464281250000113;65;0.6328125;violin
47.11845937500001;0.04464281249999402;67;0.6328125;violin
47.1631021875;0.04464281250000113;65;0.6328125;violin
47.209774218750006;0.04464281250000113;67;0.6328125;violin
47.25441703125001;0.04464281250000113;65;0.6328125;violin
47.301089062500004;0.04464281250000113;67;0.6328125;violin
47.345731875000006;0.04464281250000113;65;0.6328125;violin
47.39240390625;0.04464281250000113;67;0.6328125;violin
47.437046718750004;0.04464281250000113;65;0.6328125;violin
47.48371875;0.024350625000003845;64;0.6328125;violin
47.508069375000005;0.02435062499999674;65;0.6328125;violin
47.53242;0.43831125000000526;62;0.6328125;violin
48.116835;0.14610375000000175;63;0.59375;violin
48.311640000000004;0.43831124999999815;65;0.578125;violin
48.896055000000004;0.14610375000000175;67;0.5390625;violin
49.090860000000006;0.6818175000000011;63;0.5390625;violin
49.87008;0.04464281250000113;84;0.5390625;violin
49.9147228125;0.04464281250000113;82;0.5390625;violin
49.96139484375001;0.04464281250000113;84;0.5390625;violin
50.00603765625001;0.04464281249999402;82;0.5390625;violin
50.052709687500005;0.04464281250000113;84;0.5390625;violin
50.09735250000001;0.04464281250000113;82;0.5390625;violin
50.144024531250004;0.04464281250000113;84;0.5390625;violin
50.188667343750005;0.04464281250000113;82;0.5390625;violin
50.235339375;0.04464281250000113;84;0.5390625;violin
50.2799821875;0.04464281250000113;82;0.5390625;violin
50.32665421875001;0.04464281249999402;84;0.5390625;violin
50.37129703125;0.04464281250000113;82;0.5390625;violin
50.417969062500006;0.04464281250000113;84;0.5390625;violin
50.46261187500001;0.04464281250000113;82;0.5390625;violin
50.509283906250005;0.04464281250000113;84;0.5390625;violin
50.553926718750006;0.04464281250000113;82;0.5390625;violin
50.60059875;0.024350625000003845;81;0.5390625;violin
50.62494937500001;0.02435062499999674;82;0.5390625;violin
50.649300000000004;0.3896100000000047;74;0.5390625;violin
51.428520000000006;0.04464281250000113;84;0.5390625;violin
51.47316281250001;0.04464281250000113;82;0.5390625;violin
51.519834843750004;0.04464281250000113;84;0.5390625;violin
51.564477656250006;0.04464281250000113;82;0.5390625;violin
51.6111496875;0.04464281250000113;84;0.5390625;violin
51.655792500000004;0.04464281250000113;82;0.5390625;violin
51.70246453125001;0.04464281249999402;84;0.5390625;violin
51.74710734375;0.04464281250000113;82;0.5390625;violin
51.79377937500001;0.04464281250000113;84;0.5390625;violin
51.83842218750001;0.04464281249999402;82;0.5390625;violin
51.885094218750005;0.04464281250000113;84;0.5390625;violin
51.929737031250006;0.04464281250000113;82;0.5390625;violin
51.976409062500004;0.04464281250000113;84;0.5390625;violin
52.021051875000005;0.04464281250000113;82;0.5390625;violin
52.06772390625;0.04464281250000113;84;0.5390625;violin
52.11236671875;0.04464281250000113;82;0.5390625;violin
52.15903875000001;0.02435062499999674;81;0.5390625;violin
52.183389375000004;0.024350625000003845;82;0.5390625;violin
52.20774000000001;0.38960999999999757;74;0.5390625;violin
52.98696;0.04464281250000113;84;0.5390625;violin
53.031602812500005;0.04464281250000113;82;0.5390625;violin
53.07827484375001;0.04464281249999402;84;0.5390625;violin
53.12291765625;0.04464281250000113;82;0.5390625;violin
53.16958968750001;0.04464281250000113;84;0.5390625;violin
53.21423250000001;0.04464281249999402;82;0.5390625;violin
53.260904531250006;0.04464281250000113;84;0.5390625;violin
53.30554734375001;0.04464281250000113;82;0.5390625;violin
53.352219375000004;0.04464281250000113;84;0.5390625;violin
53.396862187500005;0.04464281250000113;82;0.5390625;violin
53.44353421875;0.04464281250000113;84;0.5390625;violin
53.488177031250004;0.04464281250000113;82;0.5390625;violin
53.53484906250001;0.04464281249999402;84;0.5390625;violin
53.579491875;0.04464281250000113;82;0.5390625;violin
53.62616390625001;0.04464281250000113;84;0.5390625;violin
53.67080671875001;0.04464281250000113;82;0.5390625;violin
53.717478750000005;0.024350625000003845;81;0.5390625;violin
53.74182937500001;0.02435062499999674;82;0.5390625;violin
53.766180000000006;0.5844149999999999;76;0.5390625;violin
54.350595000000006;0.14610375000000175;77;0.5390625;violin
54.54540000000001;0.43831124999999815;79;0.5390625;violin
55.12981500000001;0.14610374999999465;82;0.5390625;violin
55.32462;0.3896100000000047;80;0.5390625;violin
56.103840000000005;0.04464281250000113;79;0.5390625;violin
56.148482812500006;0.04464281250000113;77;0.5390625;violin
56.195154843750004;0.04464281250000113;79;0.5390625;violin
56.239797656250005;0.04464281250000113;77;0.5390625;violin
56.28646968750001;0.04464281249999402;79;0.5390625;violin
56.3311125;0.04464281250000113;77;0.5390625;violin
56.37778453125001;0.04464281250000113;79;0.5390625;violin
56.42242734375001;0.04464281249999402;77;0.5390625;violin
56.469099375000006;0.04464281250000113;79;0.5390625;violin
56.51374218750001;0.04464281250000113;77;0.5390625;violin
56.560414218750005;0.04464281250000113;79;0.5390625;violin
56.605057031250006;0.04464281250000113;77;0.5390625;violin
56.6517290625;0.04464281250000113;79;0.5390625;violin
56.696371875000004;0.04464281250000113;77;0.5390625;violin
56.74304390625001;0.04464281249999402;79;0.5390625;violin
56.78768671875;0.04464281250000113;77;0.5390625;violin
56.83435875000001;0.02435062499999674;76;0.5390625;violin
56.858709375000004;0.024350625000003845;77;0.5390625;violin
56.88306000000001;0.38960999999999757;79;0.5390625;violin
57.66228;0.04464281250000113;77;0.5390625;violin
57.706922812500004;0.04464281250000113;75;0.5390625;violin
57.75359484375001;0.04464281250000113;77;0.5390625;violin
57.79823765625001;0.04464281249999402;75;0.5390625;violin
57.84490968750001;0.04464281250000113;77;0.5390625;violin
57.88955250000001;0.04464281250000113;75;0.5390625;violin
57.936224531250005;0.04464281250000113;77;0.5390625;violin
57.980867343750006;0.04464281250000113;75;0.5390625;violin
58.027539375;0.04464281250000113;77;0.5390625;violin
58.072182187500005;0.04464281250000113;75;0.5390625;violin
58.11885421875001;0.04464281249999402;77;0.5390625;violin
58.16349703125;0.04464281250000113;75;0.5390625;violin
58.21016906250001;0.04464281250000113;77;0.5390625;violin
58.25481187500001;0.04464281249999402;75;0.5390625;violin
58.301483906250006;0.04464281250000113;77;0.5390625;violin
58.34612671875001;0.04464281250000113;75;0.5390625;violin
58.392798750000004;0.024350625000003845;74;0.5390625;violin
58.41714937500001;0.02435062499999674;75;0.5390625;violin
58.441500000000005;0.7792200000000022;72;0.5390625;violin
59.22072000000001;0.04464281250000113;70;0.5390625;violin
59.26536281250001;0.04464281250000113;69;0.5390625;violin
59.312034843750006;0.04464281250000113;70;0.5390625;violin
59.35667765625001;0.04464281250000113;69;0.5390625;violin
59.403349687500004;0.04464281250000113;70;0.5390625;violin
59.447992500000005;0.04464281250000113;69;0.5390625;violin
59.49466453125001;0.04464281249999402;70;0.5390625;violin
59.539307343750004;0.04464281250000113;69;0.5390625;violin
59.58597937500001;0.04464281250000113;70;0.5390625;violin
59.63062218750001;0.04464281249999402;69;0.5390625;violin
59.677294218750006;0.04464281250000113;70;0.5390625;violin
59.72193703125001;0.04464281250000113;69;0.5390625;violin
59.768609062500005;0.04464281250000113;70;0.5390625;violin
59.813251875000006;0.04464281250000113;69;0.5390625;violin
59.85992390625;0.04464281250000113;70;0.5390625;violin
59.904566718750004;0.04464281250000113;69;0.5390625;violin
59.95123875000001;0.02435062499999674;67;0.5390625;violin
59.975589375000006;0.024350625000003845;69;0.5390625;violin
59.99994000000001;0.5844149999999999;69;0.5390625;violin
60.58435500000001;0.19480499999999523;70;0.5;violin
60.779160000000005;0.43831125000000526;72;0.4921875;violin
61.363575000000004;0.14610375000000175;74;0.453125;violin
61.55838000000001;0.38960999999999757;70;0.6328125;violin
62.33760000000001;0.04464281249999402;72;0.6328125;violin
62.3822428125;0.04464281250000113;70;0.6328125;violin
62.42891484375001;0.04464281250000113;72;0.6328125;violin
62.47355765625001;0.04464281250000113;70;0.6328125;violin
62.520229687500006;0.04464281250000113;72;0.6328125;violin
62.56487250000001;0.04464281250000113;70;0.6328125;violin
62.611544531250004;0.04464281250000113;72;0.6328125;violin
62.656187343750005;0.04464281250000113;70;0.6328125;violin
62.70285937500001;0.04464281249999402;72;0.6328125;violin
62.747502187500004;0.04464281250000113;70;0.6328125;violin
62.79417421875001;0.04464281250000113;72;0.6328125;violin
62.83881703125001;0.04464281249999402;70;0.6328125;violin
62.88548906250001;0.04464281250000113;72;0.6328125;violin
62.93013187500001;0.04464281250000113;70;0.6328125;violin
62.976803906250005;0.04464281250000113;72;0.6328125;violin
63.021446718750006;0.04464281250000113;70;0.6328125;violin
63.068118750000004;0.024350625000003845;69;0.6328125;violin
63.09246937500001;0.02435062499999674;70;0.6328125;violin
63.116820000000004;0.3896100000000047;75;0.6328125;violin
63.896040000000006;0.04464281250000113;72;0.6328125;violin
63.94068281250001;0.04464281250000113;70;0.6328125;violin
63.987354843750005;0.04464281250000823;72;0.6328125;violin
64.03199765625001;0.04464281249998692;70;0.6328125;violin
64.07866968750001;0.04464281250000113;72;0.6328125;violin
64.12331250000001;0.04464281250000113;70;0.6328125;violin
64.16998453125001;0.04464281250000113;72;0.6328125;violin
64.21462734375001;0.04464281250000113;70;0.6328125;violin
64.26129937500001;0.04464281250000113;72;0.6328125;violin
64.30594218750001;0.04464281250000113;70;0.6328125;violin
64.35261421875;0.04464281250000113;72;0.6328125;violin
64.39725703125;0.04464281250000113;70;0.6328125;violin
64.4439290625;0.04464281250000113;72;0.6328125;violin
64.488571875;0.04464281250000113;70;0.6328125;violin
64.53524390625;0.04464281250000113;72;0.6328125;violin
64.57988671875;0.04464281250000113;70;0.6328125;violin
64.62655875;0.02435062500001095;69;0.6328125;violin
64.65090937500001;0.02435062499999674;70;0.6328125;violin
64.67526000000001;0.3896100000000047;79;0.6328125;violin
65.45448;0.04464281250000113;84;0.6328125;violin
65.4991228125;0.04464281250000113;82;0.6328125;violin
65.54579484375;0.04464281250000113;84;0.6328125;violin
65.59043765625;0.04464281250000113;82;0.6328125;violin
65.6371096875;0.04464281250000113;84;0.6328125;violin
65.6817525;0.04464281250000113;82;0.6328125;violin
65.72842453125001;0.04464281249998692;84;0.6328125;violin
65.77306734375;0.04464281250000113;82;0.6328125;violin
65.81973937500001;0.04464281250000113;84;0.6328125;violin
65.86438218750001;0.04464281249998692;82;0.6328125;violin
65.91105421875001;0.04464281250000113;84;0.6328125;violin
65.95569703125001;0.04464281250000113;82;0.6328125;violin
66.00236906250001;0.04464281250000113;84;0.6328125;violin
66.04701187500001;0.04464281250000113;82;0.6328125;violin
66.09368390625;0.04464281250000113;84;0.6328125;violin
66.13832671875001;0.04464281250000113;82;0.6328125;violin
66.18499875;0.02435062499999674;81;0.6328125;violin
66.209349375;0.02435062500001095;82;0.6328125;violin
66.23370000000001;0.38960999999999046;74;0.6328125;violin
67.01292000000001;0.04464281250000113;77;0.6328125;violin
67.05756281250001;0.04464281250000113;75;0.6328125;violin
67.10423484375;0.04464281250000113;77;0.6328125;violin
67.14887765625001;0.04464281250000113;75;0.6328125;violin
67.1955496875;0.04464281250000113;77;0.6328125;violin
67.2401925;0.04464281250000113;75;0.6328125;violin
67.28686453125;0.04464281250000113;77;0.6328125;violin
67.33150734375;0.04464281250000113;75;0.6328125;violin
67.378179375;0.04464281250000113;77;0.6328125;violin
67.4228221875;0.04464281250000113;75;0.6328125;violin
67.46949421875;0.04464281250000113;77;0.6328125;violin
67.51413703125;0.04464281250000113;75;0.6328125;violin
67.56080906250001;0.04464281249998692;77;0.6328125;violin
67.605451875;0.04464281250000113;75;0.6328125;violin
67.65212390625001;0.04464281250000113;77;0.6328125;violin
67.69676671875001;0.04464281250000113;75;0.6328125;violin
67.74343875000001;0.02435062499999674;74;0.6328125;violin
67.767789375;0.02435062499999674;75;0.6328125;violin
67.79214;0.3896100000000047;77;0.6328125;violin
68.57136000000001;0.04464281250000113;72;0.6328125;violin
68.61600281250001;0.04464281249998692;70;0.6328125;violin
68.66267484375001;0.04464281250000113;72;0.6328125;violin
68.70731765625001;0.04464281250000113;70;0.6328125;violin
68.75398968750001;0.04464281250000113;72;0.6328125;violin
68.79863250000001;0.04464281250000113;70;0.6328125;violin
68.84530453125001;0.04464281250000113;72;0.6328125;violin
68.88994734375001;0.04464281250000113;70;0.6328125;violin
68.936619375;0.04464281250000113;72;0.6328125;violin
68.98126218750001;0.04464281250000113;70;0.6328125;violin
69.02793421875;0.04464281250000113;72;0.6328125;violin
69.07257703125;0.04464281250000113;70;0.6328125;violin
69.1192490625;0.04464281250000113;72;0.6328125;violin
69.163891875;0.04464281250000113;70;0.6328125;violin
69.21056390625;0.04464281250000113;72;0.6328125;violin
69.25520671875;0.04464281250000113;70;0.6328125;violin
69.30187875;0.02435062500001095;69;0.6328125;violin
69.32622937500001;0.02435062499999674;70;0.6328125;violin
69.35058000000001;0.3896100000000047;75;0.6328125;violin
70.1298;0.04464281250000113;74;0.6328125;violin
70.1744428125;0.04464281250000113;72;0.6328125;violin
70.22111484375;0.04464281250000113;74;0.6328125;violin
70.26575765625;0.04464281250000113;72;0.6328125;violin
70.31242968750001;0.04464281249998692;74;0.6328125;violin
70.3570725;0.04464281250000113;72;0.6328125;violin
70.40374453125001;0.04464281250000113;74;0.6328125;violin
70.44838734375001;0.04464281249998692;72;0.6328125;violin
70.49505937500001;0.04464281250000113;74;0.6328125;violin
70.53970218750001;0.04464281250000113;72;0.6328125;violin
70.58637421875001;0.04464281250000113;74;0.6328125;violin
70.63101703125001;0.04464281250000113;72;0.6328125;violin
70.67768906250001;0.04464281250000113;74;0.6328125;violin
70.72233187500001;0.04464281250000113;72;0.6328125;violin
70.76900390625;0.04464281250000113;74;0.6328125;violin
70.81364671875001;0.04464281250000113;72;0.6328125;violin
70.86031875;0.02435062499999674;71;0.6328125;violin
70.884669375;0.02435062500001095;72;0.6328125;violin
70.90902000000001;0.38960999999999046;68;0.6328125;violin
71.68824000000001;0.04464281250000113;67;0.6328125;violin
71.73288281250001;0.04464281250000113;65;0.6328125;violin
71.77955484375;0.04464281250000113;67;0.6328125;violin
71.82419765625;0.04464281250000113;65;0.6328125;violin
71.8708696875;0.04464281250000113;67;0.6328125;violin
71.9155125;0.04464281250000113;65;0.6328125;violin
71.96218453125;0.04464281250000113;67;0.6328125;violin
72.00682734375;0.04464281250000113;65;0.6328125;violin
72.053499375;0.04464281250000113;67;0.6328125;violin
72.0981421875;0.04464281250000113;65;0.6328125;violin
72.14481421875001;0.04464281249998692;67;0.6328125;violin
72.18945703125;0.04464281250000113;65;0.6328125;violin
72.23612906250001;0.04464281250000113;67;0.6328125;violin
72.28077187500001;0.04464281249998692;65;0.6328125;violin
72.32744390625001;0.04464281250000113;67;0.6328125;violin
72.37208671875001;0.04464281250000113;65;0.6328125;violin
72.41875875000001;0.02435062499999674;64;0.6328125;violin
72.443109375;0.02435062499999674;65;0.6328125;violin
72.46746;0.584415000000007;62;0.6328125;violin
73.05187500000001;0.14610374999999465;63;0.5546875;violin
73.24668000000001;0.43831124999999815;65;0.53125;violin
73.831095;0.14610375000000886;67;0.453125;violin
74.02590000000001;0.681817499999994;63;0.7890625;violin
74.80512;0.09740250000000117;55;0.7890625;violin
74.999925;0.09740250000000117;57;0.7890625;violin
75.19473;0.09740250000000117;59;0.7890625;violin
75.38953500000001;0.09740250000000117;55;0.7890625;violin
75.58434000000001;0.09740250000000117;60;0.7890625;violin
75.77914500000001;0.19480499999998813;62;0.7890625;violin
75.97395;0.09740250000000117;63;0.7890625;violin
76.168755;0.09740250000000117;65;0.7890625;violin
76.36356;0.09740250000000117;67;0.7890625;violin
76.55836500000001;0.09740250000000117;63;0.7890625;violin
76.75317000000001;0.19480500000000234;62;0.7890625;violin
76.94797500000001;0.09740249999998696;60;0.7890625;violin
77.14278;0.09740250000000117;65;0.7890625;violin
77.337585;0.09740250000000117;67;0.7890625;violin
77.53239;0.09740250000000117;68;0.7890625;violin
77.72719500000001;0.09740250000000117;70;0.7890625;violin
77.92200000000001;0.09740250000000117;72;0.7890625;violin
78.11680500000001;0.09740250000000117;68;0.7890625;violin
78.31161;0.09740250000000117;67;0.7890625;violin
78.506415;0.09740250000000117;65;0.7890625;violin
78.70122;0.09740250000000117;67;0.7890625;violin
78.89602500000001;0.09740250000000117;63;0.7890625;violin
79.09083000000001;0.09740250000000117;62;0.7890625;violin
79.28563500000001;0.09740250000000117;60;0.7890625;violin
79.48044;0.09740250000000117;59;0.7890625;violin
79.675245;0.09740250000000117;60;0.7890625;violin
79.87005;0.09740250000000117;62;0.7890625;violin
80.06485500000001;0.09740250000000117;60;0.7890625;violin
80.25966000000001;0.09740250000000117;59;0.7890625;violin
80.45446500000001;0.09740250000000117;60;0.7890625;violin
80.64927;0.09740250000000117;62;0.7890625;violin
80.844075;0.09740250000000117;59;0.7890625;violin
81.03888;0.09740250000000117;55;0.7890625;violin
81.23368500000001;0.09740250000000117;57;0.7890625;violin
81.42849000000001;0.09740250000000117;59;0.7890625;violin
81.62329500000001;0.09740250000000117;55;0.7890625;violin
81.81810000000002;0.1704543749999914;60;0.7890625;violin
82.012905;0.19480500000000234;62;0.7890625;violin
82.20771;0.1704543750000056;63;0.7890625;violin
82.40251500000001;0.1704543750000056;65;0.7890625;violin
82.59732000000001;0.1704543749999914;67;0.7890625;violin
82.79212500000001;0.1704543749999914;63;0.7890625;violin
82.98693000000002;0.1704543749999914;62;0.7890625;violin
83.181735;0.1704543750000056;60;0.7890625;violin
83.37654;0.19480500000000234;62;0.7890625;violin
83.57134500000001;0.1704543750000056;67;0.796875;violin
83.76615000000001;0.1704543749999914;70;0.796875;violin
83.96095500000001;0.1704543749999914;72;0.796875;violin
84.15576000000001;0.1704543749999914;74;0.8046875;violin
84.350565;0.1704543750000056;70;0.8046875;violin
84.54537;0.19480500000000234;69;0.8125;violin
84.74017500000001;0.1704543750000056;67;0.8125;violin
84.93498000000001;0.1704543750000056;62;0.8203125;violin
85.12978500000001;0.1704543749999914;67;0.8203125;violin
85.32459000000001;0.19480499999998813;69;0.828125;violin
85.519395;0.1704543750000056;70;0.828125;violin
85.7142;0.1704543750000056;74;0.828125;violin
85.90900500000001;0.1704543750000056;72;0.828125;violin
86.10381000000001;0.1704543750000056;70;0.828125;violin
86.29861500000001;0.19480500000000234;69;0.828125;violin
86.49342000000001;0.1704543749999914;67;0.8203125;violin
86.688225;0.19480500000000234;62;0.8125;violin
86.88303;0.1704543750000056;58;0.796875;violin
87.07783500000001;0.1704543750000056;57;0.7890625;violin
87.27264000000001;0.1704543750000056;55;0.7890625;violin
87.46744500000001;0.1704543749999914;57;0.7890625;violin
87.66225000000001;0.1704543749999914;59;0.7890625;violin
87.857055;0.1704543750000056;55;0.7890625;violin
88.05186;0.09740250000000117;60;0.7890625;violin
88.24666500000001;0.19480500000000234;62;0.7890625;violin
88.44147000000001;0.09740250000000117;63;0.7890625;violin
88.63627500000001;0.09740250000000117;65;0.7890625;violin
88.83108000000001;0.09740250000000117;67;0.7890625;violin
89.025885;0.09740250000000117;63;0.7890625;violin
89.22069;0.09740250000000117;62;0.7890625;violin
89.415495;0.09740250000000117;60;0.7890625;violin
89.61030000000001;0.1704543750000056;65;0.7890625;violin
89.80510500000001;0.1704543749999914;67;0.7890625;violin
89.99991000000001;0.1704543749999914;68;0.7890625;violin
90.194715;0.1704543750000056;70;0.7890625;violin
90.38952;0.1704543750000056;72;0.7890625;violin
90.584325;0.1704543750000056;68;0.7890625;violin
90.77913000000001;0.1704543750000056;67;0.7890625;violin
90.97393500000001;0.1704543749999914;65;0.7890625;violin
91.16874000000001;0.1704543749999914;67;0.7890625;violin
91.36354500000002;0.1704543749999914;63;0.7890625;violin
91.55835;0.1704543750000056;62;0.7890625;violin
91.753155;0.1704543750000056;60;0.7890625;violin
91.94796000000001;0.1704543750000056;59;0.7890625;violin
92.14276500000001;0.1704543749999914;60;0.7890625;violin
92.33757000000001;0.1704543749999914;62;0.7890625;violin
92.53237500000002;0.1704543749999914;60;0.7890625;violin
92.72718;0.1704543750000056;59;0.7890625;violin
92.921985;0.1704543750000056;60;0.7890625;violin
93.11679000000001;0.1704543750000056;62;0.7890625;violin
93.31159500000001;0.1704543749999914;59;0.7890625;violin
93.50640000000001;0.1704543749999914;55;0.7890625;violin
93.70120500000002;0.1704543749999914;57;0.7890625;violin
93.89601;0.1704543750000056;59;0.7890625;violin
94.090815;0.1704543750000056;55;0.7890625;violin
94.28562000000001;0.1704543750000056;60;0.7890625;violin
94.48042500000001;0.19480500000000234;62;0.7890625;violin
94.67523000000001;0.1704543749999914;63;0.7890625;violin
94.87003500000002;0.1704543749999914;65;0.7890625;violin
95.06484;0.1704543750000056;67;0.7890625;violin
95.259645;0.1704543750000056;63;0.7890625;violin
95.45445000000001;0.1704543750000056;62;0.7890625;violin
95.64925500000001;0.1704543750000056;60;0.7890625;violin
95.84406000000001;0.1704543749999914;62;0.7890625;violin
96.03886500000002;0.1704543749999914;67;0.7890625;violin
96.23367;0.1704543750000056;70;0.8125;violin
96.428475;0.1704543750000056;72;0.828125;violin
96.62328000000001;0.1704543750000056;74;0.8515625;violin
96.81808500000001;0.1704543750000056;70;0.8671875;violin
97.01289000000001;0.19480500000000234;68;0.890625;violin
97.20769500000002;0.1704543749999914;67;0.90625;violin
97.4025;0.1704543750000056;62;0.9296875;violin
97.597305;0.1704543750000056;67;0.9453125;violin
97.79211000000001;0.19480500000000234;69;0.96875;violin
97.98691500000001;0.1704543750000056;70;0.953125;violin
98.18172000000001;0.1704543749999914;74;0.9296875;violin
98.37652500000002;0.1704543749999914;72;0.9140625;violin
98.57133;0.1704543750000056;70;0.8984375;violin
98.766135;0.1704543750000056;69;0.8828125;violin
98.96094000000001;0.1704543750000056;67;0.859375;violin
99.15574500000001;0.1704543750000056;70;0.84375;violin
99.35055000000001;0.1704543749999914;74;0.828125;violin
99.54535500000001;0.1704543749999914;78;0.8046875;violin
99.74016;0.1704543750000056;79;0.7890625;violin
99.934965;0.1704543750000056;78;0.796875;violin
100.12977000000001;0.1704543750000056;79;0.8125;violin
100.32457500000001;0.1704543750000056;80;0.8203125;violin
100.51938000000001;0.1704543749999914;82;0.828125;violin
100.71418500000001;0.1704543749999914;79;0.828125;violin
100.90899000000002;0.1704543749999914;75;0.828125;violin
101.103795;0.1704543750000056;73;0.828125;violin
101.29860000000001;0.1704543750000056;70;0.828125;violin
101.49340500000001;0.1704543750000056;67;0.828125;violin
101.68821000000001;0.1704543749999914;63;0.828125;violin
101.88301500000001;0.1704543749999914;73;0.828125;violin
102.07782000000002;0.1704543749999914;72;0.828125;violin
102.272625;0.1704543750000056;70;0.828125;violin
102.46743000000001;0.1704543750000056;72;0.828125;violin
102.66223500000001;0.1704543750000056;73;0.828125;violin
102.85704000000001;0.1704543749999914;75;0.828125;violin
103.05184500000001;0.1704543749999914;77;0.828125;violin
103.24665000000002;0.1704543749999914;79;0.828125;violin
103.441455;0.1704543750000056;80;0.828125;violin
103.63626000000001;0.1704543750000056;79;0.828125;violin
103.83106500000001;0.1704543750000056;77;0.828125;violin
104.02587000000001;0.1704543750000056;73;0.828125;violin
104.22067500000001;0.1704543749999914;72;0.828125;violin
104.41548000000002;0.1704543749999914;70;0.8125;violin
104.610285;0.1704543750000056;72;0.796875;violin
104.80509;0.1704543750000056;73;0.78125;violin
104.99989500000001;0.1704543750000056;70;0.765625;violin
105.19470000000001;0.1704543750000056;68;0.75;violin
105.38950500000001;0.1704543749999914;72;0.734375;violin
105.58431000000002;0.1704543749999914;70;0.71875;violin
105.779115;0.1704543750000056;68;0.703125;violin
105.97392;0.1704543750000056;67;0.6875;violin
106.16872500000001;0.1704543750000056;63;0.671875;violin
106.36353000000001;0.1704543750000056;65;0.65625;violin
106.55833500000001;0.1704543749999914;67;0.640625;violin
106.75314000000002;0.1704543749999914;68;0.625;violin
106.947945;0.1704543750000056;70;0.609375;violin
107.14275;0.1704543750000056;72;0.59375;violin
107.33755500000001;0.1704543750000056;73;0.578125;violin
107.53236000000001;0.1704543750000056;75;0.59375;violin
107.72716500000001;0.1704543749999914;77;0.609375;violin
107.92197000000002;0.1704543749999914;79;0.6171875;violin
108.116775;0.1704543750000056;80;0.6328125;violin
108.31158;0.19480500000000234;81;0.7890625;violin
108.50638500000001;0.1704543750000056;79;0.6328125;violin
108.70119000000001;0.09740250000000117;79;0.6328125;violin
108.89599500000001;0.09740250000000117;79;0.6328125;violin
109.09080000000002;0.09740250000000117;79;0.6328125;violin
109.28560500000002;0.09740249999998696;74;0.6328125;violin
109.48041;0.09740250000000117;79;0.6328125;violin
109.67521500000001;0.09740250000000117;77;0.6328125;violin
109.87002000000001;0.19480500000000234;77;0.7890625;violin
110.06482500000001;0.1704543749999914;75;0.6328125;violin
110.25963000000002;0.09740250000000117;75;0.6328125;violin
110.45443500000002;0.09740249999998696;75;0.6328125;violin
110.64924;0.19480500000000234;77;0.7890625;violin
110.84404500000001;0.1704543750000056;75;0.6328125;violin
111.03885000000001;0.09740250000000117;74;0.6328125;violin
111.23365500000001;0.19480500000000234;72;0.6328125;violin
111.42846000000002;0.19480500000000234;72;0.7890625;violin
111.62326500000002;0.1704543749999914;71;0.6328125;violin
111.81807;0.09740250000000117;74;0.6328125;violin
112.01287500000001;0.09740250000000117;71;0.6328125;violin
112.20768000000001;0.09740250000000117;67;0.6328125;violin
112.40248500000001;0.09740250000000117;65;0.671875;violin
112.59729000000002;0.09740250000000117;63;0.7109375;violin
112.79209500000002;0.09740249999998696;62;0.75;violin
112.9869;0.1704543750000056;60;0.7890625;violin
113.18170500000001;0.1704543750000056;62;0.7890625;violin
113.37651000000001;0.1704543750000056;63;0.7890625;violin
113.57131500000001;0.1704543750000056;65;0.7890625;violin
113.76612000000002;0.1704543749999914;67;0.7890625;violin
113.96092500000002;0.1704543749999914;63;0.7890625;violin
114.15573;0.1704543750000056;62;0.7890625;violin
114.35053500000001;0.1704543750000056;60;0.7890625;violin
114.54534000000001;0.1704543750000056;65;0.7890625;violin
114.74014500000001;0.1704543750000056;67;0.7890625;violin
114.93495000000001;0.1704543749999914;68;0.7890625;violin
115.12975500000002;0.1704543749999914;70;0.7890625;violin
115.32456;0.1704543750000056;72;0.7890625;violin
115.51936500000001;0.1704543750000056;69;0.7890625;violin
115.71417000000001;0.1704543750000056;67;0.7890625;violin
115.90897500000001;0.1704543750000056;65;0.7890625;violin
116.10378000000001;0.1704543749999914;67;0.7890625;violin
116.29858500000002;0.1704543749999914;63;0.7890625;violin
116.49339;0.1704543750000056;62;0.7890625;violin
116.68819500000001;0.1704543750000056;60;0.7890625;violin
116.88300000000001;0.1704543750000056;59;0.7890625;violin
117.07780500000001;0.1704543750000056;60;0.7890625;violin
117.27261000000001;0.1704543749999914;62;0.7890625;violin
117.46741500000002;0.1704543749999914;60;0.7890625;violin
117.66222;0.1704543750000056;59;0.7890625;violin
117.85702500000001;0.1704543750000056;60;0.7890625;violin
118.05183000000001;0.1704543750000056;62;0.7890625;violin
118.24663500000001;0.1704543750000056;59;0.7890625;violin
118.44144000000001;0.1704543749999914;55;0.7890625;violin
118.63624500000002;0.1704543749999914;57;0.7890625;violin
118.83105000000002;0.1704543749999914;59;0.7890625;violin
119.025855;0.1704543750000056;55;0.7890625;violin
119.22066000000001;0.1704543750000056;60;0.7890625;violin
119.41546500000001;0.19480500000000234;62;0.7890625;violin
119.61027000000001;0.1704543749999914;63;0.7890625;violin
119.80507500000002;0.1704543749999914;65;0.7890625;violin
119.99988000000002;0.1704543749999914;67;0.7890625;violin
120.194685;0.1704543750000056;63;0.7890625;violin
120.38949000000001;0.1704543750000056;62;0.7890625;violin
120.58429500000001;0.1704543750000056;60;0.7890625;violin
120.77910000000001;0.1704543749999914;65;0.7890625;violin
120.97390500000002;0.1704543749999914;68;0.7890625;violin
121.16871000000002;0.1704543749999914;72;0.7890625;violin
121.363515;0.1704543750000056;77;0.7890625;violin
121.55832000000001;0.1704543750000056;81;0.7890625;violin
121.75312500000001;0.1704543750000056;77;0.7890625;violin
121.94793000000001;0.1704543750000056;75;0.7890625;violin
122.14273500000002;0.1704543749999914;74;0.7890625;violin
122.33754000000002;0.1704543749999914;79;0.7890625;violin
122.532345;0.1704543750000056;75;0.78125;violin
122.72715000000001;0.1704543750000056;74;0.765625;violin
122.92195500000001;0.1704543750000056;72;0.7578125;violin
123.11676000000001;0.1704543750000056;71;0.7421875;violin
123.31156500000002;0.1704543749999914;72;0.734375;violin
123.50637000000002;0.1704543749999914;74;0.71875;violin
123.701175;0.1704543750000056;75;0.7109375;violin
123.89598000000001;0.1704543750000056;72;0.6953125;violin
124.09078500000001;0.1704543750000056;71;0.6875;violin
124.28559000000001;0.1704543750000056;72;0.671875;violin
124.48039500000002;0.1704543749999914;74;0.6640625;violin
124.67520000000002;0.1704543749999914;75;0.6484375;violin
124.870005;0.1704543750000056;77;0.7109375;violin
125.06481000000001;0.1704543750000056;79;0.7734375;violin
125.25961500000001;0.1704543750000056;80;0.828125;violin
125.45442000000001;0.1704543750000056;82;0.828125;violin
125.64922500000002;0.1704543749999914;79;0.828125;violin
125.84403000000002;0.1704543749999914;75;0.828125;violin
126.038835;0.1704543750000056;73;0.828125;violin
126.23364000000001;0.1704543750000056;70;0.828125;violin
126.42844500000001;0.1704543750000056;67;0.828125;violin
126.62325000000001;0.1704543750000056;63;0.828125;violin
126.81805500000002;0.1704543749999914;73;0.828125;violin
127.01286000000002;0.1704543749999914;72;0.828125;violin
127.20766500000002;0.1704543749999914;70;0.828125;violin
127.40247000000001;0.1704543750000056;72;0.828125;violin
127.59727500000001;0.1704543750000056;73;0.828125;violin
127.79208000000001;0.1704543750000056;75;0.828125;violin
127.98688500000002;0.1704543750000056;77;0.828125;violin
128.18169;0.1704543750000198;79;0.828125;violin
128.376495;0.1704543750000198;80;0.828125;violin
128.5713;0.1704543749999914;79;0.828125;violin
128.766105;0.1704543749999914;77;0.828125;violin
128.96091;0.1704543749999914;73;0.828125;violin
129.15571500000001;0.1704543749999914;72;0.828125;violin
129.35052000000002;0.1704543749999914;70;0.8125;violin
129.54532500000002;0.1704543749999914;72;0.796875;violin
129.74013000000002;0.1704543749999914;73;0.78125;violin
129.93493500000002;0.1704543749999914;70;0.765625;violin
130.12974000000003;0.1704543749999914;68;0.75;violin
130.324545;0.1704543750000198;72;0.734375;violin
130.51935;0.1704543750000198;70;0.71875;violin
130.714155;0.1704543750000198;68;0.703125;violin
130.90896;0.1704543750000198;67;0.6875;violin
131.103765;0.1704543749999914;63;0.671875;violin
131.29857;0.1704543749999914;65;0.65625;violin
131.49337500000001;0.1704543749999914;67;0.640625;violin
131.68818000000002;0.1704543749999914;68;0.625;violin
131.88298500000002;0.1704543749999914;70;0.609375;violin
132.07779000000002;0.1704543749999914;72;0.59375;violin
132.27259500000002;0.1704543749999914;73;0.578125;violin
132.46740000000003;0.1704543749999914;75;0.59375;violin
132.662205;0.1704543750000198;77;0.609375;violin
132.85701;0.1704543750000198;79;0.6171875;violin
133.051815;0.1704543750000198;80;0.6328125;violin
133.24662;0.19480500000000234;81;0.7890625;violin
133.441425;0.1704543749999914;79;0.6328125;violin
133.63623;0.09740250000001538;79;0.6328125;violin
133.831035;0.09740249999998696;79;0.6328125;violin
134.02584000000002;0.09740249999998696;79;0.6328125;violin
134.22064500000002;0.09740249999998696;74;0.6328125;violin
134.41545000000002;0.09740249999998696;79;0.6328125;violin
134.61025500000002;0.09740249999998696;77;0.6328125;violin
134.80506000000003;0.19480499999997392;77;0.7890625;violin
134.999865;0.1704543750000198;75;0.6328125;violin
135.19467;0.09740250000001538;75;0.6328125;violin
135.389475;0.09740250000001538;75;0.6328125;violin
135.58428;0.19480500000000234;77;0.7890625;violin
135.779085;0.1704543749999914;75;0.6328125;violin
135.97389;0.09740250000001538;74;0.6328125;violin
136.168695;0.19480500000000234;72;0.6328125;violin
136.36350000000002;0.19480500000000234;72;0.7890625;violin
136.55830500000002;0.1704543749999914;71;0.6328125;violin
136.75311000000002;0.09740249999998696;74;0.6328125;violin
136.94791500000002;0.09740249999998696;71;0.6328125;violin
137.14272000000003;0.09740249999998696;67;0.6328125;violin
137.33752500000003;0.09740249999998696;65;0.671875;violin
137.53233;0.09740250000001538;63;0.7109375;violin
137.727135;0.09740250000001538;62;0.75;violin
137.92194;0.1704543750000198;60;0.7890625;violin
138.116745;0.1704543749999914;62;0.7890625;violin
138.31155;0.1704543749999914;63;0.7890625;violin
138.506355;0.1704543749999914;65;0.7890625;violin
138.70116000000002;0.1704543749999914;67;0.7890625;violin
138.89596500000002;0.1704543749999914;63;0.7890625;violin
139.09077000000002;0.1704543749999914;62;0.7890625;violin
139.28557500000002;0.1704543749999914;60;0.7890625;violin
139.48038000000003;0.1704543749999914;65;0.7890625;violin
139.67518500000003;0.1704543749999914;67;0.7890625;violin
139.86999;0.1704543750000198;68;0.7890625;violin
140.064795;0.1704543750000198;70;0.7890625;violin
140.2596;0.1704543750000198;72;0.7890625;violin
140.454405;0.1704543750000198;69;0.7890625;violin
140.64921;0.1704543749999914;67;0.7890625;violin
140.844015;0.1704543749999914;65;0.7890625;violin
141.03882000000002;0.1704543749999914;67;0.7890625;violin
141.23362500000002;0.1704543749999914;63;0.7890625;violin
141.42843000000002;0.1704543749999914;62;0.7890625;violin
141.62323500000002;0.1704543749999914;60;0.7890625;violin
141.81804000000002;0.1704543749999914;59;0.7890625;violin
142.01284500000003;0.1704543749999914;60;0.7890625;violin
142.20765;0.1704543750000198;62;0.7890625;violin
142.402455;0.1704543750000198;60;0.7890625;violin
142.59726;0.1704543750000198;59;0.7890625;violin
142.792065;0.1704543750000198;60;0.7890625;violin
142.98687;0.1704543749999914;62;0.7890625;violin
143.181675;0.1704543749999914;59;0.7890625;violin
143.37648000000002;0.1704543749999914;55;0.7890625;violin
143.57128500000002;0.1704543749999914;57;0.7890625;violin
143.76609000000002;0.1704543749999914;59;0.7890625;violin
143.96089500000002;0.1704543749999914;55;0.7890625;violin
144.15570000000002;0.1704543749999914;60;0.7890625;violin
144.35050500000003;0.19480499999997392;62;0.7890625;violin
144.54531;0.1704543750000198;63;0.7890625;violin
144.740115;0.1704543750000198;65;0.7890625;violin
144.93492;0.1704543750000198;67;0.7890625;violin
145.129725;0.1704543750000198;63;0.7890625;violin
145.32453;0.1704543749999914;62;0.7890625;violin
145.519335;0.1704543749999914;60;0.7890625;violin
145.71414000000001;0.1704543749999914;65;0.7890625;violin
145.90894500000002;0.1704543749999914;68;0.7890625;violin
146.10375000000002;0.1704543749999914;72;0.7890625;violin
146.29855500000002;0.1704543749999914;77;0.7890625;violin
146.49336000000002;0.1704543749999914;81;0.7890625;violin
146.68816500000003;0.1704543749999914;77;0.7890625;violin
146.88297000000003;0.1704543749999914;75;0.7890625;violin
147.077775;0.1704543750000198;74;0.7890625;violin
147.27258;0.1704543750000198;79;0.7890625;violin
147.467385;0.1704543750000198;75;0.7734375;violin
147.66219;0.1704543749999914;74;0.75;violin
147.856995;0.1704543749999914;72;0.7265625;violin
148.05180000000001;0.1704543749999914;71;0.7109375;violin
148.24660500000002;0.1704543749999914;72;0.6875;violin
148.44141000000002;0.1704543749999914;74;0.671875;violin
148.63621500000002;0.1704543749999914;75;0.6484375;violin
148.83102000000002;0.681817499999994;72;0.6328125;violin
149.61024;0.04464281250000113;72;0.6328125;violin
149.6548828125;0.04464281250000113;70;0.6328125;violin
149.70155484375002;0.04464281250000113;72;0.6328125;violin
149.74619765625002;0.04464281250000113;70;0.6328125;violin
149.7928696875;0.04464281250000113;72;0.6328125;violin
149.8375125;0.04464281250000113;70;0.6328125;violin
149.88418453125;0.04464281250000113;72;0.6328125;violin
149.92882734375002;0.04464281250000113;70;0.6328125;violin
149.97549937500003;0.04464281250000113;72;0.6328125;violin
150.02014218750003;0.04464281250000113;70;0.6328125;violin
150.06681421875;0.04464281250000113;72;0.6328125;violin
150.11145703125;0.04464281250000113;70;0.6328125;violin
150.15812906250002;0.04464281250000113;72;0.6328125;violin
150.20277187500002;0.04464281250000113;70;0.6328125;violin
150.24944390625;0.04464281250000113;72;0.6328125;violin
150.29408671875;0.04464281250000113;70;0.6328125;violin
150.34075875000002;0.02435062499998253;69;0.6328125;violin
150.365109375;0.02435062500001095;70;0.6328125;violin
150.38946;0.681817499999994;75;0.6328125;violin
151.16868000000002;0.04464281250000113;72;0.6328125;violin
151.21332281250002;0.04464281250000113;70;0.6328125;violin
151.25999484375;0.04464281250000113;72;0.6328125;violin
151.30463765625;0.04464281250000113;70;0.6328125;violin
151.35130968750002;0.04464281250000113;72;0.6328125;violin
151.39595250000002;0.04464281250000113;70;0.6328125;violin
151.44262453125;0.04464281250000113;72;0.6328125;violin
151.48726734375;0.04464281250000113;70;0.6328125;violin
151.53393937500002;0.04464281250000113;72;0.6328125;violin
151.57858218750002;0.04464281250000113;70;0.6328125;violin
151.62525421875003;0.044642812499972706;72;0.6328125;violin
151.66989703125;0.04464281250000113;70;0.6328125;violin
151.7165690625;0.04464281250000113;72;0.6328125;violin
151.76121187500001;0.04464281250000113;70;0.6328125;violin
151.80788390625003;0.04464281250000113;72;0.6328125;violin
151.85252671875003;0.04464281250000113;70;0.6328125;violin
151.89919875;0.02435062500001095;69;0.6328125;violin
151.92354937500002;0.02435062499998253;70;0.6328125;violin
151.9479;0.3896100000000047;79;0.6328125;violin
152.72712;0.04464281250000113;84;0.6328125;violin
152.77176281250001;0.04464281250000113;82;0.6328125;violin
152.81843484375003;0.04464281250000113;84;0.6328125;violin
152.86307765625003;0.04464281250000113;82;0.6328125;violin
152.9097496875;0.04464281250000113;84;0.6328125;violin
152.9543925;0.04464281250000113;82;0.6328125;violin
153.00106453125002;0.04464281250000113;84;0.6328125;violin
153.04570734375002;0.04464281250000113;82;0.6328125;violin
153.092379375;0.04464281250000113;84;0.6328125;violin
153.1370221875;0.04464281250000113;82;0.6328125;violin
153.18369421875002;0.04464281250000113;84;0.6328125;violin
153.22833703125002;0.04464281250000113;82;0.6328125;violin
153.2750090625;0.04464281250000113;84;0.6328125;violin
153.319651875;0.04464281250000113;82;0.6328125;violin
153.36632390625002;0.04464281250000113;84;0.6328125;violin
153.41096671875002;0.04464281250000113;82;0.6328125;violin
153.45763875000003;0.02435062499998253;81;0.6328125;violin
153.481989375;0.02435062500001095;82;0.6328125;violin
153.50634000000002;0.3896100000000047;74;0.6328125;violin
154.28556;0.04464281250000113;77;0.6328125;violin
154.3302028125;0.04464281250000113;75;0.6328125;violin
154.37687484375002;0.04464281250000113;77;0.6328125;violin
154.42151765625002;0.04464281250000113;75;0.6328125;violin
154.46818968750003;0.044642812499972706;77;0.6328125;violin
154.5128325;0.04464281250000113;75;0.6328125;violin
154.55950453125;0.04464281250000113;77;0.6328125;violin
154.60414734375001;0.04464281250000113;75;0.6328125;violin
154.65081937500003;0.04464281250000113;77;0.6328125;violin
154.69546218750003;0.04464281250000113;75;0.6328125;violin
154.74213421875;0.04464281250000113;77;0.6328125;violin
154.78677703125;0.04464281250000113;75;0.6328125;violin
154.83344906250002;0.04464281250000113;77;0.6328125;violin
154.87809187500002;0.04464281250000113;75;0.6328125;violin
154.92476390625;0.04464281250000113;77;0.6328125;violin
154.96940671875;0.04464281250000113;75;0.6328125;violin
155.01607875000002;0.02435062499998253;74;0.6328125;violin
155.040429375;0.02435062500001095;75;0.6328125;violin
155.06478;0.3896100000000047;77;0.6328125;violin
155.84400000000002;0.04464281250000113;72;0.6328125;violin
155.88864281250002;0.04464281250000113;70;0.6328125;violin
155.93531484375;0.04464281250000113;72;0.6328125;violin
155.97995765625;0.04464281250000113;70;0.6328125;violin
156.02662968750002;0.04464281250000113;72;0.6328125;violin
156.07127250000002;0.04464281250000113;70;0.6328125;violin
156.11794453125;0.04464281250000113;72;0.6328125;violin
156.16258734375;0.04464281250000113;70;0.6328125;violin
156.20925937500002;0.04464281250000113;72;0.6328125;violin
156.25390218750002;0.04464281250000113;70;0.6328125;violin
156.30057421875003;0.04464281250000113;72;0.6328125;violin
156.34521703125003;0.044642812499972706;70;0.6328125;violin
156.3918890625;0.04464281250000113;72;0.6328125;violin
156.43653187500001;0.04464281250000113;70;0.6328125;violin
156.48320390625003;0.04464281250000113;72;0.6328125;violin
156.52784671875003;0.04464281250000113;70;0.6328125;violin
156.57451875;0.02435062500001095;69;0.6328125;violin
156.59886937500002;0.02435062499998253;70;0.6328125;violin
156.62322;0.3896100000000047;75;0.6328125;violin
157.40244;0.7305187500000159;79;0.6328125;violin
158.13295875000003;0.02435062499998253;78;0.6328125;violin
158.157309375;0.02435062500001095;79;0.6328125;violin
158.18166000000002;0.3896100000000047;69;0.6328125;violin
158.96088;0.04464281250000113;79;0.6328125;violin
159.0055228125;0.04464281250000113;77;0.6328125;violin
159.05219484375002;0.04464281250000113;79;0.6328125;violin
159.09683765625002;0.04464281250000113;77;0.6328125;violin
159.14350968750003;0.04464281250000113;79;0.6328125;violin
159.18815250000003;0.044642812499972706;77;0.6328125;violin
159.23482453125;0.04464281250000113;79;0.6328125;violin
159.27946734375;0.04464281250000113;77;0.6328125;violin
159.32613937500003;0.04464281250000113;79;0.6328125;violin
159.37078218750003;0.04464281250000113;77;0.6328125;violin
159.41745421875;0.04464281250000113;79;0.6328125;violin
159.46209703125;0.04464281250000113;77;0.6328125;violin
159.50876906250002;0.04464281250000113;79;0.6328125;violin
159.55341187500002;0.04464281250000113;77;0.6328125;violin
159.60008390625;0.04464281250000113;79;0.6328125;violin
159.64472671875;0.04464281250000113;77;0.6328125;violin
159.69139875000002;0.02435062500001095;76;0.6328125;violin
159.71574937500003;0.02435062499998253;77;0.6328125;violin
159.7401;0.43831124999999815;81;0.6328125;violin
160.32451500000002;0.14610375000000886;82;0.5546875;violin
160.51932000000002;0.43831124999999815;84;0.53125;violin
161.10373500000003;0.14610374999998044;86;0.453125;violin
161.29854;0.3896100000000047;82;0.734375;violin
162.07776;0.04464281250000113;84;0.734375;violin
162.1224028125;0.04464281250000113;82;0.734375;violin
162.16907484375002;0.04464281250000113;84;0.734375;violin
162.21371765625003;0.04464281250000113;82;0.734375;violin
162.2603896875;0.04464281250000113;84;0.734375;violin
162.3050325;0.04464281250000113;82;0.734375;violin
162.35170453125002;0.04464281250000113;84;0.734375;violin
162.39634734375002;0.04464281250000113;82;0.734375;violin
162.443019375;0.04464281250000113;84;0.734375;violin
162.4876621875;0.04464281250000113;82;0.734375;violin
162.53433421875002;0.04464281250000113;84;0.734375;violin
162.57897703125002;0.04464281250000113;82;0.734375;violin
162.6256490625;0.04464281250000113;84;0.734375;violin
162.670291875;0.04464281250000113;82;0.734375;violin
162.71696390625002;0.04464281250000113;84;0.734375;violin
162.76160671875002;0.04464281250000113;82;0.734375;violin
162.80827875000003;0.02435062499998253;81;0.734375;violin
162.832629375;0.02435062500001095;82;0.734375;violin
162.85698000000002;0.3896100000000047;74;0.734375;violin
163.63620000000003;0.044642812499972706;84;0.734375;violin
163.6808428125;0.04464281250000113;82;0.734375;violin
163.72751484375001;0.04464281250000113;84;0.734375;violin
163.77215765625002;0.04464281250000113;82;0.734375;violin
163.81882968750003;0.04464281250000113;84;0.734375;violin
163.86347250000003;0.04464281250000113;82;0.734375;violin
163.91014453125;0.04464281250000113;84;0.734375;violin
163.95478734375;0.04464281250000113;82;0.734375;violin
164.00145937500002;0.04464281250000113;84;0.734375;violin
164.04610218750003;0.04464281250000113;82;0.734375;violin
164.09277421875;0.04464281250000113;84;0.734375;violin
164.13741703125;0.04464281250000113;82;0.734375;violin
164.18408906250002;0.04464281250000113;84;0.734375;violin
164.22873187500002;0.04464281250000113;82;0.734375;violin
164.27540390625;0.04464281250000113;84;0.734375;violin
164.32004671875;0.04464281250000113;82;0.734375;violin
164.36671875000002;0.02435062500001095;81;0.734375;violin
164.39106937500003;0.02435062499998253;82;0.734375;violin
164.41542;0.3896100000000047;75;0.734375;violin
165.19464000000002;0.04464281250000113;84;0.734375;violin
165.23928281250002;0.04464281250000113;82;0.734375;violin
165.28595484375;0.04464281250000113;84;0.734375;violin
165.33059765625;0.04464281250000113;82;0.734375;violin
165.37726968750002;0.04464281250000113;84;0.734375;violin
165.42191250000002;0.04464281250000113;82;0.734375;violin
165.46858453125003;0.044642812499972706;84;0.734375;violin
165.51322734375;0.04464281250000113;82;0.734375;violin
165.55989937500001;0.04464281250000113;84;0.734375;violin
165.60454218750002;0.04464281250000113;82;0.734375;violin
165.65121421875003;0.04464281250000113;84;0.734375;violin
165.69585703125003;0.04464281250000113;82;0.734375;violin
165.7425290625;0.04464281250000113;84;0.734375;violin
165.787171875;0.04464281250000113;82;0.734375;violin
165.83384390625002;0.04464281250000113;84;0.734375;violin
165.87848671875003;0.04464281250000113;82;0.734375;violin
165.92515875;0.02435062500001095;81;0.734375;violin
165.94950937500002;0.02435062500001095;82;0.734375;violin
165.97386000000003;0.5844149999999786;76;0.734375;violin
166.558275;0.19480500000000234;77;0.734375;violin
166.75308;0.43831124999999815;79;0.734375;violin
167.33749500000002;0.14610375000000886;82;0.734375;violin
167.53230000000002;0.3896100000000047;80;0.734375;violin
168.31152000000003;0.04464281250000113;79;0.734375;violin
168.35616281250003;0.044642812499972706;77;0.734375;violin
168.40283484375001;0.04464281250000113;79;0.734375;violin
168.44747765625002;0.04464281250000113;77;0.734375;violin
168.49414968750003;0.04464281250000113;79;0.734375;violin
168.53879250000003;0.04464281250000113;77;0.734375;violin
168.58546453125;0.04464281250000113;79;0.734375;violin
168.63010734375;0.04464281250000113;77;0.734375;violin
168.67677937500002;0.04464281250000113;79;0.734375;violin
168.72142218750002;0.04464281250000113;77;0.734375;violin
168.76809421875;0.04464281250000113;79;0.734375;violin
168.81273703125;0.04464281250000113;77;0.734375;violin
168.85940906250002;0.04464281250000113;79;0.734375;violin
168.90405187500002;0.04464281250000113;77;0.734375;violin
168.95072390625;0.04464281250000113;79;0.734375;violin
168.99536671875;0.04464281250000113;77;0.734375;violin
169.04203875000002;0.02435062500001095;76;0.734375;violin
169.06638937500003;0.02435062499998253;77;0.734375;violin
169.09074;0.3896100000000047;79;0.734375;violin
169.86996000000002;0.04464281250000113;77;0.734375;violin
169.91460281250002;0.04464281250000113;75;0.734375;violin
169.96127484375;0.04464281250000113;77;0.734375;violin
170.00591765625;0.04464281250000113;75;0.734375;violin
170.05258968750002;0.04464281250000113;77;0.734375;violin
170.09723250000002;0.04464281250000113;75;0.734375;violin
170.14390453125003;0.04464281250000113;77;0.734375;violin
170.18854734375003;0.044642812499972706;75;0.734375;violin
170.235219375;0.04464281250000113;77;0.734375;violin
170.27986218750002;0.04464281250000113;75;0.734375;violin
170.32653421875003;0.04464281250000113;77;0.734375;violin
170.37117703125003;0.04464281250000113;75;0.734375;violin
170.4178490625;0.04464281250000113;77;0.734375;violin
170.462491875;0.04464281250000113;75;0.734375;violin
170.50916390625002;0.04464281250000113;77;0.734375;violin
170.55380671875002;0.04464281250000113;75;0.734375;violin
170.60047875;0.02435062500001095;74;0.734375;violin
170.62482937500002;0.02435062500001095;75;0.734375;violin
170.64918000000003;0.7792199999999809;72;0.734375;violin
171.4284;0.04464281250000113;70;0.734375;violin
171.4730428125;0.04464281250000113;69;0.734375;violin
171.51971484375002;0.04464281250000113;70;0.734375;violin
171.56435765625002;0.04464281250000113;69;0.734375;violin
171.6110296875;0.04464281250000113;70;0.734375;violin
171.6556725;0.04464281250000113;69;0.734375;violin
171.70234453125002;0.04464281250000113;70;0.734375;violin
171.74698734375002;0.04464281250000113;69;0.734375;violin
171.793659375;0.04464281250000113;70;0.734375;violin
171.8383021875;0.04464281250000113;69;0.734375;violin
171.88497421875002;0.04464281250000113;70;0.734375;violin
171.92961703125002;0.04464281250000113;69;0.734375;violin
171.97628906250003;0.04464281250000113;70;0.734375;violin
172.02093187500003;0.044642812499972706;69;0.734375;violin
172.06760390625;0.04464281250000113;70;0.734375;violin
172.11224671875001;0.04464281250000113;69;0.734375;violin
172.15891875000003;0.02435062499998253;67;0.734375;violin
172.183269375;0.02435062500001095;69;0.734375;violin
172.20762000000002;0.584415000000007;69;0.734375;violin
172.79203500000003;0.19480500000000234;70;0.6875;violin
172.98684000000003;0.43831124999999815;72;0.671875;violin
173.571255;0.14610375000000886;74;0.6328125;violin
173.76606;0.681817499999994;70;0.6328125;violin
174.54528000000002;0.04464281250000113;72;0.6328125;violin
174.58992281250002;0.04464281250000113;70;0.6328125;violin
174.63659484375;0.04464281250000113;72;0.6328125;violin
174.68123765625;0.04464281250000113;70;0.6328125;violin
174.72790968750002;0.04464281250000113;72;0.6328125;violin
174.77255250000002;0.04464281250000113;70;0.6328125;violin
174.81922453125003;0.04464281250000113;72;0.6328125;violin
174.86386734375003;0.04464281250000113;70;0.6328125;violin
174.910539375;0.04464281250000113;72;0.6328125;violin
174.95518218750001;0.04464281250000113;70;0.6328125;violin
175.00185421875003;0.04464281250000113;72;0.6328125;violin
175.04649703125003;0.04464281250000113;70;0.6328125;violin
175.0931690625;0.04464281250000113;72;0.6328125;violin
175.137811875;0.04464281250000113;70;0.6328125;violin
175.18448390625002;0.04464281250000113;72;0.6328125;violin
175.22912671875002;0.04464281250000113;70;0.6328125;violin
175.27579875;0.02435062500001095;69;0.6328125;violin
175.30014937500002;0.02435062500001095;70;0.6328125;violin
175.32450000000003;0.38960999999997625;75;0.6328125;violin
176.10372;0.04464281250000113;72;0.6328125;violin
176.1483628125;0.04464281250000113;70;0.6328125;violin
176.19503484375002;0.04464281250000113;72;0.6328125;violin
176.23967765625002;0.04464281250000113;70;0.6328125;violin
176.2863496875;0.04464281250000113;72;0.6328125;violin
176.3309925;0.04464281250000113;70;0.6328125;violin
176.37766453125002;0.04464281250000113;72;0.6328125;violin
176.42230734375002;0.04464281250000113;70;0.6328125;violin
176.46897937500003;0.044642812499972706;72;0.6328125;violin
176.5136221875;0.04464281250000113;70;0.6328125;violin
176.56029421875002;0.04464281250000113;72;0.6328125;violin
176.60493703125002;0.04464281250000113;70;0.6328125;violin
176.65160906250003;0.04464281250000113;72;0.6328125;violin
176.69625187500003;0.04464281250000113;70;0.6328125;violin
176.74292390625;0.04464281250000113;72;0.6328125;violin
176.78756671875;0.04464281250000113;70;0.6328125;violin
176.83423875000003;0.02435062499998253;69;0.6328125;violin
176.858589375;0.02435062500001095;70;0.6328125;violin
176.88294000000002;0.3896100000000047;79;0.6328125;violin
177.66216000000003;0.04464281250000113;84;0.6328125;violin
177.70680281250003;0.04464281250000113;82;0.6328125;violin
177.75347484375;0.04464281250000113;84;0.6328125;violin
177.79811765625;0.04464281250000113;82;0.6328125;violin
177.84478968750003;0.04464281250000113;84;0.6328125;violin
177.88943250000003;0.04464281250000113;82;0.6328125;violin
177.93610453125;0.04464281250000113;84;0.6328125;violin
177.98074734375;0.04464281250000113;82;0.6328125;violin
178.02741937500002;0.04464281250000113;84;0.6328125;violin
178.07206218750002;0.04464281250000113;82;0.6328125;violin
178.11873421875;0.04464281250000113;84;0.6328125;violin
178.16337703125;0.04464281250000113;82;0.6328125;violin
178.21004906250002;0.04464281250000113;84;0.6328125;violin
178.25469187500002;0.04464281250000113;82;0.6328125;violin
178.30136390625003;0.044642812499972706;84;0.6328125;violin
178.34600671875;0.04464281250000113;82;0.6328125;violin
178.39267875000002;0.02435062500001095;81;0.6328125;violin
178.41702937500003;0.02435062499998253;82;0.6328125;violin
178.44138;0.7792200000000093;74;0.6328125;violin
179.22060000000002;0.04464281250000113;77;0.6328125;violin
179.26524281250002;0.04464281250000113;75;0.6328125;violin
179.31191484375003;0.044642812499972706;77;0.6328125;violin
179.35655765625;0.04464281250000113;75;0.6328125;violin
179.40322968750002;0.04464281250000113;77;0.6328125;violin
179.44787250000002;0.04464281250000113;75;0.6328125;violin
179.49454453125003;0.04464281250000113;77;0.6328125;violin
179.53918734375003;0.04464281250000113;75;0.6328125;violin
179.585859375;0.04464281250000113;77;0.6328125;violin
179.6305021875;0.04464281250000113;75;0.6328125;violin
179.67717421875003;0.04464281250000113;77;0.6328125;violin
179.72181703125003;0.04464281250000113;75;0.6328125;violin
179.7684890625;0.04464281250000113;77;0.6328125;violin
179.813131875;0.04464281250000113;75;0.6328125;violin
179.85980390625002;0.04464281250000113;77;0.6328125;violin
179.90444671875002;0.04464281250000113;75;0.6328125;violin
179.95111875;0.02435062500001095;74;0.6328125;violin
179.97546937500002;0.02435062500001095;75;0.6328125;violin
179.99982000000003;0.38960999999997625;77;0.6328125;violin
180.77904;0.04464281250000113;72;0.6328125;violin
180.8236828125;0.04464281250000113;70;0.6328125;violin
180.87035484375002;0.04464281250000113;72;0.6328125;violin
180.91499765625002;0.04464281250000113;70;0.6328125;violin
180.9616696875;0.04464281250000113;72;0.6328125;violin
181.0063125;0.04464281250000113;70;0.6328125;violin
181.05298453125002;0.04464281250000113;72;0.6328125;violin
181.09762734375002;0.04464281250000113;70;0.6328125;violin
181.14429937500003;0.04464281250000113;72;0.6328125;violin
181.18894218750003;0.044642812499972706;70;0.6328125;violin
181.23561421875002;0.04464281250000113;72;0.6328125;violin
181.28025703125002;0.04464281250000113;70;0.6328125;violin
181.32692906250003;0.04464281250000113;72;0.6328125;violin
181.37157187500003;0.04464281250000113;70;0.6328125;violin
181.41824390625;0.04464281250000113;72;0.6328125;violin
181.46288671875;0.04464281250000113;70;0.6328125;violin
181.50955875000002;0.02435062499998253;69;0.6328125;violin
181.533909375;0.02435062500001095;70;0.6328125;violin
181.55826000000002;0.3896100000000047;75;0.6328125;violin
182.33748000000003;0.04464281250000113;74;0.6328125;violin
182.38212281250003;0.04464281250000113;72;0.6328125;violin
182.42879484375;0.04464281250000113;74;0.6328125;violin
182.47343765625;0.04464281250000113;72;0.6328125;violin
182.52010968750002;0.04464281250000113;74;0.6328125;violin
182.56475250000003;0.04464281250000113;72;0.6328125;violin
182.61142453125;0.04464281250000113;74;0.6328125;violin
182.65606734375;0.04464281250000113;72;0.6328125;violin
182.70273937500002;0.04464281250000113;74;0.6328125;violin
182.74738218750002;0.04464281250000113;72;0.6328125;violin
182.79405421875;0.04464281250000113;74;0.6328125;violin
182.83869703125;0.04464281250000113;72;0.6328125;violin
182.88536906250002;0.04464281250000113;74;0.6328125;violin
182.93001187500002;0.04464281250000113;72;0.6328125;violin
182.97668390625003;0.04464281250000113;74;0.6328125;violin
183.02132671875003;0.044642812499972706;72;0.6328125;violin
183.06799875000002;0.02435062500001095;71;0.6328125;violin
183.09234937500003;0.02435062499998253;72;0.6328125;violin
183.1167;0.3896100000000047;68;0.6328125;violin
183.89592000000002;0.04464281250000113;67;0.6328125;violin
183.94056281250002;0.04464281250000113;65;0.6328125;violin
183.98723484375003;0.04464281250000113;67;0.6328125;violin
184.03187765625003;0.044642812499972706;65;0.6328125;violin
184.07854968750001;0.04464281250000113;67;0.6328125;violin
184.12319250000002;0.04464281250000113;65;0.6328125;violin
184.16986453125003;0.04464281250000113;67;0.6328125;violin
184.21450734375003;0.04464281250000113;65;0.6328125;violin
184.261179375;0.04464281250000113;67;0.6328125;violin
184.3058221875;0.04464281250000113;65;0.6328125;violin
184.35249421875002;0.04464281250000113;67;0.6328125;violin
184.39713703125003;0.04464281250000113;65;0.6328125;violin
184.4438090625;0.04464281250000113;67;0.6328125;violin
184.488451875;0.04464281250000113;65;0.6328125;violin
184.53512390625002;0.04464281250000113;67;0.6328125;violin
184.57976671875002;0.04464281250000113;65;0.6328125;violin
184.62643875;0.02435062500001095;64;0.6328125;violin
184.65078937500002;0.02435062500001095;65;0.6328125;violin
184.67514000000003;0.43831124999999815;62;0.6328125;violin
185.259555;0.14610375000000886;63;0.6328125;violin
185.45436;0.43831124999999815;65;0.6328125;violin
186.03877500000002;0.14610375000000886;67;0.6328125;violin
186.23358000000002;0.681817499999994;63;0.6328125;violin
187.01280000000003;0.04464281250000113;72;0.6328125;violin
187.05744281250003;0.04464281250000113;70;0.6328125;violin
187.10411484375;0.04464281250000113;72;0.6328125;violin
187.14875765625;0.04464281250000113;70;0.6328125;violin
187.19542968750002;0.04464281250000113;72;0.6328125;violin
187.24007250000003;0.04464281250000113;70;0.6328125;violin
187.28674453125;0.04464281250000113;72;0.6328125;violin
187.33138734375;0.04464281250000113;70;0.6328125;violin
187.37805937500002;0.04464281250000113;72;0.6328125;violin
187.42270218750002;0.04464281250000113;70;0.6328125;violin
187.46937421875;0.04464281250000113;72;0.6328125;violin
187.51401703125;0.04464281250000113;70;0.6328125;violin
187.56068906250002;0.04464281250000113;72;0.6328125;violin
187.60533187500002;0.04464281250000113;70;0.6328125;violin
187.65200390625003;0.04464281250000113;72;0.6328125;violin
187.69664671875003;0.04464281250000113;70;0.6328125;violin
187.74331875000001;0.02435062500001095;69;0.6328125;violin
187.76766937500003;0.02435062499998253;70;0.6328125;violin
187.79202;1.5584400000000187;70;0.6328125;violin
187.79202;1.5584400000000187;80;0.6328125;violin
189.35046000000003;0.681817499999994;75;0.5703125;violin
189.35046000000003;0.681817499999994;79;0.5703125;violin
190.12968;0.04464281250000113;72;0.5703125;violin
190.1743228125;0.04464281250000113;70;0.5703125;violin
190.22099484375002;0.04464281250000113;72;0.5703125;violin
190.26563765625002;0.04464281250000113;70;0.5703125;violin
190.31230968750003;0.044642812499972706;72;0.5703125;violin
190.3569525;0.04464281250000113;70;0.5703125;violin
190.40362453125002;0.04464281250000113;72;0.5703125;violin
190.44826734375002;0.04464281250000113;70;0.5703125;violin
190.49493937500003;0.04464281250000113;72;0.5703125;violin
190.53958218750003;0.04464281250000113;70;0.5703125;violin
190.58625421875;0.04464281250000113;72;0.5703125;violin
190.63089703125002;0.04464281250000113;70;0.5703125;violin
190.67756906250003;0.04464281250000113;72;0.5703125;violin
190.72221187500003;0.04464281250000113;70;0.5703125;violin
190.76888390625;0.04464281250000113;72;0.5703125;violin
190.81352671875;0.04464281250000113;70;0.5703125;violin
190.86019875000002;0.02435062499998253;69;0.5703125;violin
190.884549375;0.02435062500001095;70;0.5703125;violin
190.90890000000002;1.5584399999999903;65;0.5703125;violin
190.90890000000002;1.5584399999999903;74;0.5703125;violin
192.46734;0.6818175000000224;63;0.515625;violin
192.46734;0.6818175000000224;75;0.515625;violin
193.24656000000002;0.04464281250000113;74;0.515625;violin
193.29120281250002;0.04464281250000113;72;0.515625;violin
193.33787484375003;0.04464281250000113;74;0.515625;violin
193.38251765625003;0.04464281250000113;72;0.515625;violin
193.4291896875;0.04464281250000113;74;0.515625;violin
193.47383250000001;0.04464281250000113;72;0.515625;violin
193.52050453125003;0.04464281250000113;74;0.515625;violin
193.56514734375003;0.04464281250000113;72;0.515625;violin
193.611819375;0.04464281250000113;74;0.515625;violin
193.6564621875;0.04464281250000113;72;0.515625;violin
193.70313421875002;0.04464281250000113;74;0.515625;violin
193.74777703125002;0.04464281250000113;72;0.515625;violin
193.7944490625;0.04464281250000113;74;0.515625;violin
193.839091875;0.04464281250000113;72;0.515625;violin
193.88576390625002;0.04464281250000113;74;0.515625;violin
193.93040671875002;0.04464281250000113;72;0.515625;violin
193.97707875000003;0.02435062499998253;71;0.515625;violin
194.00142937500001;0.02435062500001095;72;0.515625;violin
194.02578000000003;0.3896100000000047;68;0.515625;violin
194.805;0.04464281250000113;67;0.515625;violin
194.8496428125;0.04464281250000113;65;0.515625;violin
194.89631484375002;0.04464281250000113;67;0.515625;violin
194.94095765625002;0.04464281250000113;65;0.515625;violin
194.98762968750003;0.04464281250000113;67;0.515625;violin
195.03227250000003;0.044642812499972706;65;0.515625;violin
195.07894453125002;0.04464281250000113;67;0.515625;violin
195.12358734375002;0.04464281250000113;65;0.515625;violin
195.17025937500003;0.04464281250000113;67;0.515625;violin
195.21490218750003;0.04464281250000113;65;0.515625;violin
195.26157421875;0.04464281250000113;67;0.515625;violin
195.30621703125001;0.04464281250000113;65;0.515625;violin
195.35288906250003;0.04464281250000113;67;0.515625;violin
195.39753187500003;0.04464281250000113;65;0.515625;violin
195.44420390625;0.04464281250000113;67;0.515625;violin
195.48884671875;0.04464281250000113;65;0.515625;violin
195.53551875000002;0.02435062500001095;64;0.515625;violin
195.55986937500003;0.02435062499998253;65;0.515625;violin
195.58422000000002;0.3896100000000047;70;0.515625;violin
196.36344000000003;0.04464281250000113;60;0.515625;violin
196.40808281250003;0.04464281250000113;58;0.515625;violin
196.45475484375;0.04464281250000113;60;0.515625;violin
196.49939765625;0.04464281250000113;58;0.515625;violin
196.54606968750002;0.04464281250000113;60;0.515625;violin
196.59071250000002;0.04464281250000113;58;0.515625;violin
196.63738453125;0.04464281250000113;60;0.515625;violin
196.68202734375;0.04464281250000113;58;0.515625;violin
196.72869937500002;0.04464281250000113;60;0.515625;violin
196.77334218750002;0.04464281250000113;58;0.515625;violin
196.82001421875003;0.04464281250000113;60;0.515625;violin
196.86465703125003;0.04464281250000113;58;0.515625;violin
196.91132906250002;0.04464281250000113;60;0.515625;violin
196.95597187500002;0.04464281250000113;58;0.515625;violin
197.00264390625003;0.04464281250000113;60;0.515625;violin
197.04728671875003;0.04464281250000113;58;0.515625;violin
197.09395875;0.02435062500001095;57;0.515625;violin
197.11830937500002;0.02435062499998253;58;0.515625;violin
197.14266;0.19480500000000234;56;0.7578125;violin
197.14266;1.5584400000000187;62;0.515625;violin
197.337465;0.19480500000000234;58;0.7578125;violin
197.53227;0.19480500000000234;56;0.7578125;violin
197.727075;0.19480500000000234;58;0.7578125;violin
197.92188000000002;0.19480500000000234;56;0.7578125;violin
198.11668500000002;0.19480500000000234;58;0.7578125;violin
198.31149000000002;0.19480500000000234;56;0.7578125;violin
198.50629500000002;0.19480500000000234;58;0.7578125;violin
198.70110000000003;0.681817499999994;55;0.453125;violin
198.70110000000003;0.681817499999994;63;0.453125;violin
199.48032;0.04464281250000113;60;0.453125;violin
199.5249628125;0.04464281250000113;58;0.453125;violin
199.57163484375002;0.04464281250000113;60;0.453125;violin
199.61627765625002;0.04464281250000113;58;0.453125;violin
199.66294968750003;0.04464281250000113;60;0.453125;violin
199.70759250000003;0.04464281250000113;58;0.453125;violin
199.75426453125002;0.04464281250000113;60;0.453125;violin
199.79890734375002;0.04464281250000113;58;0.453125;violin
199.84557937500003;0.04464281250000113;60;0.453125;violin
199.89022218750003;0.04464281250000113;58;0.453125;violin
199.93689421875;0.04464281250000113;60;0.453125;violin
199.98153703125;0.04464281250000113;58;0.453125;violin
200.02820906250003;0.04464281250000113;60;0.453125;violin
200.07285187500003;0.04464281250000113;58;0.453125;violin
200.11952390625;0.04464281250000113;60;0.453125;violin
200.16416671875;0.04464281250000113;58;0.453125;violin
200.21083875000002;0.02435062500001095;57;0.453125;violin
200.23518937500003;0.02435062499998253;58;0.453125;violin
200.25954000000002;0.681817499999994;55;0.453125;violin
200.25954000000002;0.681817499999994;63;0.453125;violin
201.03876000000002;0.04464281250000113;60;0.453125;violin
201.08340281250003;0.04464281250000113;58;0.453125;violin
201.13007484375;0.04464281250000113;60;0.453125;violin
201.17471765625;0.04464281250000113;58;0.453125;violin
201.22138968750002;0.04464281250000113;60;0.453125;violin
201.26603250000002;0.04464281250000113;58;0.453125;violin
201.31270453125003;0.044642812499972706;60;0.453125;violin
201.35734734375;0.04464281250000113;58;0.453125;violin
201.40401937500002;0.04464281250000113;60;0.453125;violin
201.44866218750002;0.04464281250000113;58;0.453125;violin
201.49533421875003;0.04464281250000113;60;0.453125;violin
201.53997703125003;0.04464281250000113;58;0.453125;violin
201.58664906250002;0.04464281250000113;60;0.453125;violin
201.63129187500002;0.04464281250000113;58;0.453125;violin
201.67796390625003;0.04464281250000113;60;0.453125;violin
201.72260671875003;0.04464281250000113;58;0.453125;violin
201.76927875;0.02435062500001095;57;0.453125;violin
201.79362937500002;0.02435062500001095;58;0.453125;violin
201.81798000000003;0.681817499999994;55;0.453125;violin
201.81798000000003;0.681817499999994;63;0.453125;violin
202.59720000000002;0.04464281250000113;60;0.453125;violin
202.64184281250002;0.04464281250000113;58;0.453125;violin
202.68851484375003;0.04464281250000113;60;0.453125;violin
202.73315765625003;0.04464281250000113;58;0.453125;violin
202.7798296875;0.04464281250000113;60;0.453125;violin
202.8244725;0.04464281250000113;58;0.453125;violin
202.87114453125002;0.04464281250000113;60;0.453125;violin
202.91578734375003;0.04464281250000113;58;0.453125;violin
202.962459375;0.04464281250000113;60;0.453125;violin
203.0071021875;0.04464281250000113;58;0.453125;violin
203.05377421875002;0.04464281250000113;60;0.453125;violin
203.09841703125002;0.04464281250000113;58;0.453125;violin
203.14508906250003;0.044642812499972706;60;0.453125;violin
203.189731875;0.04464281250000113;58;0.453125;violin
203.23640390625002;0.04464281250000113;60;0.453125;violin
203.28104671875002;0.04464281250000113;58;0.453125;violin
203.32771875000003;0.02435062499998253;57;0.453125;violin
203.352069375;0.02435062500001095;58;0.453125;violin
203.37642000000002;2.0454525000000103;55;0.453125;violin
203.37642000000002;2.0454525000000103;63;0.453125;violin
205.71408000000002;0.3896100000000047;63;0.7890625;violin
205.71408000000002;0.3896100000000047;70;0.7890625;violin
205.71408000000002;0.3896100000000047;79;0.7890625;violin
206.49330000000003;0.38960999999997625;62;0.7890625;violin
206.49330000000003;0.38960999999997625;70;0.7890625;violin
206.49330000000003;0.38960999999997625;77;0.7890625;violin
208.05174000000002;0.681817499999994;62;0.7890625;violin
208.05174000000002;0.681817499999994;70;0.7890625;violin
208.05174000000002;0.681817499999994;82;0.7890625;violin
209.415375;0.1704543750000198;67;0.7890625;violin
209.415375;0.1704543750000198;75;0.7890625;violin
209.61018;2.0454525000000103;67;0.7890625;violin
209.61018;2.0454525000000103;75;0.7890625;violin
