start;duration;pitch;velocity;instrument
0.0;0.08130066666666667;81;0.6328125;violin
0.08130066666666667;0.08130066666666667;82;0.6328125;violin
0.16260133333333335;0.08130066666666666;81;0.6328125;violin
0.243902;0.08130066666666669;80;0.7890625;violin
0.3252026666666667;0.08130066666666669;81;0.6328125;violin
0.4065033333333334;0.08130066666666663;80;0.6328125;violin
0.487804;0.08130066666666669;81;0.7890625;violin
0.5691046666666667;0.08130066666666669;82;0.6328125;violin
0.6504053333333334;0.08130066666666669;81;0.6328125;violin
0.7317060000000001;0.08130066666666669;80;0.7890625;violin
0.8130066666666668;0.08130066666666669;81;0.6328125;violin
0.8943073333333335;0.08130066666666658;80;0.6328125;violin
0.975608;0.08130066666666669;81;0.7890625;violin
1.0569086666666667;0.08130066666666669;82;0.6328125;violin
1.1382093333333334;0.08130066666666669;81;0.6328125;violin
1.21951;0.08130066666666669;80;0.7890625;violin
1.3008106666666668;0.08130066666666669;81;0.6328125;violin
1.3821113333333335;0.07113808333333327;80;0.6328125;violin
1.4634120000000002;0.08130066666666669;81;0.6328125;violin
1.5447126666666668;0.08130066666666669;82;0.6328125;violin
1.6260133333333335;0.08130066666666669;81;0.6328125;violin
1.7073140000000002;0.08130066666666669;79;0.6328125;violin
1.788614666666667;0.08130066666666669;81;0.6328125;violin
1.8699153333333336;0.08130066666666647;79;0.6328125;violin
1.951216;0.08130066666666691;77;0.6328125;violin
2.032516666666667;0.08130066666666647;79;0.6328125;violin
2.1138173333333334;0.08130066666666691;77;0.6328125;violin
2.1951180000000003;0.08130066666666647;76;0.6328125;violin
2.276418666666667;0.08130066666666691;77;0.6328125;violin
2.3577193333333337;0.08130066666666647;76;0.6328125;violin
2.43902;0.08130066666666691;74;0.6328125;violin
2.520320666666667;0.08130066666666647;76;0.6328125;violin
2.6016213333333336;0.08130066666666647;74;0.6328125;violin
2.682922;0.08130066666666691;73;0.6328125;violin
2.764222666666667;0.08130066666666647;74;0.6328125;violin
2.8455233333333334;0.07113808333333349;73;0.6328125;violin
2.9268240000000003;0.08130066666666647;74;0.6328125;violin
3.008124666666667;0.08130066666666691;76;0.6328125;violin
3.0894253333333337;0.08130066666666647;74;0.6328125;violin
3.170726;0.08130066666666691;73;0.7890625;violin
3.252026666666667;0.08130066666666647;74;0.6328125;violin
3.3333273333333335;0.08130066666666691;73;0.6328125;violin
3.4146280000000004;0.08130066666666647;74;0.6328125;violin
3.495928666666667;0.08130066666666691;76;0.6328125;violin
3.577229333333334;0.08130066666666647;74;0.6328125;violin
3.6585300000000003;0.08130066666666691;73;0.7890625;violin
3.739830666666667;0.08130066666666647;74;0.6328125;violin
3.8211313333333337;0.08130066666666647;73;0.6328125;violin
3.902432;0.08130066666666691;74;0.6328125;violin
3.983732666666667;0.08130066666666691;76;0.6328125;violin
4.065033333333334;0.08130066666666647;74;0.6328125;violin
4.146334;0.08130066666666647;73;0.7890625;violin
4.227634666666667;0.08130066666666647;74;0.6328125;violin
4.308935333333333;0.07113808333333349;73;0.6328125;violin
4.390236000000001;0.08130066666666647;74;0.6328125;violin
4.471536666666667;0.08130066666666647;76;0.6328125;violin
4.552837333333334;0.08130066666666647;74;0.6328125;violin
4.634138;0.08130066666666735;72;0.6328125;violin
4.7154386666666674;0.08130066666666647;74;0.6328125;violin
4.796739333333334;0.08130066666666647;72;0.6328125;violin
4.87804;0.08130066666666647;70;0.6328125;violin
4.959340666666667;0.08130066666666735;72;0.6328125;violin
5.040641333333334;0.08130066666666647;70;0.6328125;violin
5.121942000000001;0.08130066666666647;69;0.6328125;violin
5.203242666666667;0.08130066666666647;70;0.6328125;violin
5.284543333333334;0.08130066666666647;69;0.6328125;violin
5.365844;0.08130066666666735;67;0.6328125;violin
5.447144666666667;0.08130066666666647;69;0.6328125;violin
5.528445333333334;0.08130066666666647;67;0.6328125;violin
5.609746;0.08130066666666647;66;0.6328125;violin
5.691046666666667;0.08130066666666735;67;0.6328125;violin
5.772347333333334;0.0711380833333326;66;0.6328125;violin
5.853648000000001;0.08130066666666647;67;0.6328125;violin
5.934948666666667;0.08130066666666647;69;0.6328125;violin
6.016249333333334;0.08130066666666735;67;0.6328125;violin
6.097550000000001;0.08130066666666647;66;0.7890625;violin
6.178850666666667;0.08130066666666647;67;0.6328125;violin
6.260151333333334;0.08130066666666647;66;0.6328125;violin
6.341452;0.08130066666666735;67;0.6328125;violin
6.422752666666668;0.08130066666666647;69;0.6328125;violin
6.504053333333334;0.08130066666666647;67;0.6328125;violin
6.585354000000001;0.08130066666666647;66;0.7890625;violin
6.666654666666667;0.08130066666666647;67;0.6328125;violin
6.7479553333333335;0.08130066666666735;66;0.6328125;violin
6.829256000000001;0.08130066666666647;67;0.6328125;violin
6.910556666666667;0.08130066666666647;69;0.6328125;violin
6.991857333333334;0.08130066666666647;67;0.6328125;violin
7.073158;0.08130066666666735;66;0.7890625;violin
7.154458666666668;0.08130066666666647;67;0.6328125;violin
7.235759333333334;0.07113808333333349;66;0.6328125;violin
7.317060000000001;0.08130066666666647;67;0.6328125;violin
7.398360666666667;0.08130066666666735;69;0.6328125;violin
7.479661333333334;0.08130066666666647;67;0.6328125;violin
7.560962000000001;0.08130066666666647;65;0.6328125;violin
7.642262666666667;0.08130066666666647;67;0.6328125;violin
7.723563333333334;0.08130066666666647;65;0.6328125;violin
7.804864;0.08130066666666735;64;0.6328125;violin
7.886164666666668;0.08130066666666647;65;0.6328125;violin
7.967465333333334;0.08130066666666647;64;0.6328125;violin
8.048766;0.08130066666666735;62;0.6328125;violin
8.130066666666668;0.08130066666666558;64;0.6484375;violin
8.211367333333333;0.08130066666666735;62;0.6640625;violin
8.292668;0.08130066666666735;61;0.6875;violin
8.373968666666668;0.08130066666666558;62;0.703125;violin
8.455269333333334;0.08130066666666735;61;0.71875;violin
8.536570000000001;0.08130066666666558;59;0.734375;violin
8.617870666666667;0.08130066666666735;61;0.7578125;violin
8.699171333333334;0.0711380833333326;59;0.7734375;violin
8.780472000000001;0.08130066666666558;57;0.7890625;violin
8.861772666666667;0.08130066666666735;59;0.7890625;violin
8.943073333333334;0.08130066666666735;57;0.7890625;violin
9.024374000000002;0.08130066666666558;61;0.7890625;violin
9.105674666666667;0.08130066666666735;62;0.7890625;violin
9.186975333333335;0.08130066666666558;61;0.7890625;violin
9.268276;0.08130066666666735;64;0.7890625;violin
9.349576666666668;0.08130066666666735;65;0.7890625;violin
9.430877333333335;0.08130066666666558;64;0.7890625;violin
9.512178;0.08130066666666735;69;0.7890625;violin
9.593478666666668;0.08130066666666558;71;0.7890625;violin
9.674779333333333;0.08130066666666735;69;0.7890625;violin
9.75608;0.08130066666666735;73;0.7890625;violin
9.837380666666668;0.08130066666666558;74;0.7890625;violin
9.918681333333334;0.08130066666666735;73;0.7890625;violin
9.999982000000001;0.08130066666666735;74;0.7890625;violin
10.081282666666668;0.08130066666666558;76;0.7890625;violin
10.162583333333334;0.07113808333333438;74;0.7890625;violin
10.243884000000001;0.08130066666666558;75;0.7890625;violin
10.325184666666667;0.08130066666666735;76;0.78125;violin
10.406485333333334;0.08130066666666735;75;0.7734375;violin
10.487786000000002;0.08130066666666558;76;0.765625;violin
10.569086666666667;0.08130066666666735;77;0.7578125;violin
10.650387333333335;0.08130066666666558;76;0.7421875;violin
10.731688;0.08130066666666735;77;0.734375;violin
10.812988666666667;0.08130066666666735;79;0.7265625;violin
10.894289333333335;0.08130066666666558;77;0.71875;violin
10.97559;0.08130066666666735;78;0.7109375;violin
11.056890666666668;0.08130066666666735;79;0.703125;violin
11.138191333333335;0.08130066666666558;78;0.6953125;violin
11.219492;0.08130066666666735;79;0.6875;violin
11.300792666666668;0.08130066666666558;81;0.671875;violin
11.382093333333334;0.08130066666666735;79;0.6640625;violin
11.463394000000001;0.08130066666666735;80;0.65625;violin
11.544694666666668;0.08130066666666558;81;0.6484375;violin
11.625995333333334;0.07113808333333438;80;0.640625;violin
11.707296000000001;0.08130066666666558;81;0.6328125;violin
11.788596666666667;0.08130066666666735;82;0.6328125;violin
11.869897333333334;0.08130066666666735;81;0.6328125;violin
11.951198000000002;0.08130066666666558;80;0.7890625;violin
12.032498666666667;0.08130066666666735;81;0.6328125;violin
12.113799333333334;0.08130066666666735;80;0.6328125;violin
12.195100000000002;0.08130066666666558;81;0.6328125;violin
12.276400666666667;0.08130066666666735;82;0.6328125;violin
12.357701333333335;0.08130066666666558;81;0.6328125;violin
12.439002;0.08130066666666735;80;0.7890625;violin
12.520302666666668;0.08130066666666735;81;0.6328125;violin
12.601603333333335;0.08130066666666558;80;0.6328125;violin
12.682904;0.08130066666666735;81;0.6328125;violin
12.764204666666668;0.08130066666666735;82;0.6328125;violin
12.845505333333335;0.08130066666666558;81;0.6328125;violin
12.926806000000001;0.08130066666666735;80;0.7890625;violin
13.008106666666668;0.08130066666666558;81;0.6328125;violin
13.089407333333334;0.07113808333333438;80;0.6328125;violin
13.170708000000001;0.08130066666666735;81;0.6328125;violin
13.252008666666669;0.08130066666666558;82;0.6328125;violin
13.333309333333334;0.08130066666666735;81;0.6328125;violin
13.414610000000001;0.08130066666666558;79;0.6328125;violin
13.495910666666667;0.08130066666666735;81;0.6328125;violin
13.577211333333334;0.08130066666666735;79;0.6328125;violin
13.658512000000002;0.08130066666666558;77;0.6328125;violin
13.739812666666667;0.08130066666666735;79;0.6328125;violin
13.821113333333335;0.08130066666666735;77;0.6328125;violin
13.902414000000002;0.08130066666666558;76;0.6328125;violin
13.983714666666668;0.08130066666666735;77;0.6328125;violin
14.065015333333335;0.08130066666666558;76;0.6328125;violin
14.146316;0.08130066666666735;74;0.6328125;violin
14.227616666666668;0.08130066666666735;76;0.6328125;violin
14.308917333333335;0.08130066666666558;74;0.6328125;violin
14.390218;0.08130066666666735;73;0.6328125;violin
14.471518666666668;0.08130066666666558;74;0.6328125;violin
14.552819333333334;0.07113808333333438;73;0.6328125;violin
14.634120000000001;0.08130066666666735;74;0.6328125;violin
14.715420666666668;0.08130066666666558;76;0.6328125;violin
14.796721333333334;0.08130066666666735;74;0.6328125;violin
14.878022000000001;0.08130066666666735;73;0.7890625;violin
14.959322666666669;0.08130066666666558;74;0.6328125;violin
15.040623333333334;0.08130066666666735;73;0.6328125;violin
15.121924000000002;0.08130066666666558;74;0.6328125;violin
15.203224666666667;0.08130066666666735;76;0.6328125;violin
15.284525333333335;0.08130066666666735;74;0.6328125;violin
15.365826000000002;0.08130066666666558;73;0.7890625;violin
15.447126666666668;0.08130066666666735;74;0.6328125;violin
15.528427333333335;0.08130066666666558;73;0.6328125;violin
15.609728;0.08130066666666735;74;0.6328125;violin
15.691028666666668;0.08130066666666735;76;0.6328125;violin
15.772329333333335;0.08130066666666558;74;0.6328125;violin
15.85363;0.08130066666666735;73;0.7890625;violin
15.934930666666668;0.08130066666666558;74;0.6328125;violin
16.016231333333334;0.07113808333333438;73;0.6328125;violin
16.097532;0.08130066666666735;74;0.6328125;violin
16.17883266666667;0.08130066666666735;76;0.6328125;violin
16.260133333333336;0.08130066666666735;74;0.6328125;violin
16.341434000000003;0.0813006666666638;72;0.6328125;violin
16.422734666666667;0.08130066666666735;74;0.6328125;violin
16.504035333333334;0.08130066666666735;72;0.6328125;violin
16.585336;0.08130066666666735;70;0.6328125;violin
16.66663666666667;0.08130066666666735;72;0.6328125;violin
16.747937333333336;0.0813006666666638;70;0.6328125;violin
16.829238;0.08130066666666735;69;0.6328125;violin
16.910538666666667;0.08130066666666735;70;0.6328125;violin
16.991839333333335;0.08130066666666735;69;0.6328125;violin
17.073140000000002;0.08130066666666735;67;0.6328125;violin
17.15444066666667;0.0813006666666638;69;0.6328125;violin
17.235741333333333;0.08130066666666735;67;0.6328125;violin
17.317042;0.08130066666666735;66;0.6328125;violin
17.398342666666668;0.08130066666666735;67;0.6328125;violin
17.479643333333335;0.07113808333333438;66;0.6328125;violin
17.560944000000003;0.0813006666666638;67;0.6328125;violin
17.642244666666667;0.08130066666666735;69;0.6328125;violin
17.723545333333334;0.08130066666666735;67;0.6328125;violin
17.804846;0.08130066666666735;66;0.7890625;violin
17.88614666666667;0.08130066666666735;67;0.6328125;violin
17.967447333333336;0.08130066666666735;66;0.6328125;violin
18.048748000000003;0.0813006666666638;67;0.6328125;violin
18.130048666666667;0.08130066666666735;69;0.6328125;violin
18.211349333333334;0.08130066666666735;67;0.6328125;violin
18.292650000000002;0.08130066666666735;66;0.7890625;violin
18.37395066666667;0.08130066666666735;67;0.6328125;violin
18.455251333333337;0.0813006666666638;66;0.6328125;violin
18.536552;0.08130066666666735;67;0.6328125;violin
18.617852666666668;0.08130066666666735;69;0.6328125;violin
18.699153333333335;0.08130066666666735;67;0.6328125;violin
18.780454000000002;0.08130066666666735;66;0.7890625;violin
18.86175466666667;0.0813006666666638;67;0.6328125;violin
18.943055333333334;0.07113808333333438;66;0.6328125;violin
19.024356;0.08130066666666735;67;0.6328125;violin
19.10565666666667;0.08130066666666735;69;0.6328125;violin
19.186957333333336;0.08130066666666735;67;0.6328125;violin
19.268258000000003;0.0813006666666638;66;0.6328125;violin
19.349558666666667;0.08130066666666735;67;0.609375;violin
19.430859333333334;0.08130066666666735;66;0.578125;violin
19.51216;0.08130066666666735;67;0.578125;violin
19.59346066666667;0.08130066666666735;69;0.578125;violin
19.674761333333336;0.0813006666666638;67;0.578125;violin
19.756062;0.08130066666666735;65;0.578125;violin
19.837362666666667;0.08130066666666735;67;0.6015625;violin
19.918663333333335;0.08130066666666735;65;0.625;violin
19.999964000000002;0.08130066666666735;64;0.6484375;violin
20.08126466666667;0.08130066666666735;65;0.671875;violin
20.162565333333337;0.0813006666666638;64;0.6953125;violin
20.243866;0.08130066666666735;62;0.71875;violin
20.325166666666668;0.08130066666666735;64;0.7421875;violin
20.406467333333335;0.07113808333333438;62;0.765625;violin
20.487768000000003;0.08130066666666735;60;0.7890625;violin
20.56906866666667;0.0813006666666638;62;0.7890625;violin
20.650369333333334;0.08130066666666735;60;0.7890625;violin
20.73167;0.08130066666666735;59;0.7890625;violin
20.81297066666667;0.08130066666666735;60;0.7890625;violin
20.894271333333336;0.08130066666666735;59;0.7890625;violin
20.975572000000003;0.0813006666666638;60;0.7890625;violin
21.056872666666667;0.08130066666666735;62;0.7890625;violin
21.138173333333334;0.08130066666666735;60;0.7890625;violin
21.219474;0.08130066666666735;62;0.7890625;violin
21.30077466666667;0.08130066666666735;64;0.7890625;violin
21.382075333333336;0.0813006666666638;62;0.7890625;violin
21.463376;0.08130066666666735;64;0.7890625;violin
21.544676666666668;0.08130066666666735;65;0.7890625;violin
21.625977333333335;0.08130066666666735;64;0.7890625;violin
21.707278000000002;0.08130066666666735;65;0.7890625;violin
21.78857866666667;0.08130066666666735;67;0.7890625;violin
21.869879333333337;0.07113808333333083;65;0.7890625;violin
21.95118;0.08130066666666735;67;0.7890625;violin
22.032480666666668;0.08130066666666735;69;0.7890625;violin
22.113781333333336;0.08130066666666735;67;0.78125;violin
22.195082000000003;0.08130066666666735;69;0.78125;violin
22.27638266666667;0.0813006666666638;70;0.78125;violin
22.357683333333334;0.08130066666666735;69;0.7734375;violin
22.438984;0.08130066666666735;71;0.7734375;violin
22.52028466666667;0.08130066666666735;72;0.765625;violin
22.601585333333336;0.08130066666666735;71;0.765625;violin
22.682886000000003;0.0813006666666638;72;0.765625;violin
22.764186666666667;0.08130066666666735;74;0.7578125;violin
22.845487333333335;0.08130066666666735;72;0.7578125;violin
22.926788000000002;0.08130066666666735;74;0.75;violin
23.00808866666667;0.08130066666666735;76;0.75;violin
23.089389333333337;0.0813006666666638;74;0.75;violin
23.17069;0.08130066666666735;76;0.7421875;violin
23.251990666666668;0.08130066666666735;77;0.7421875;violin
23.333291333333335;0.07113808333333438;76;0.734375;violin
23.414592000000003;0.08130066666666735;77;0.734375;violin
23.49589266666667;0.0813006666666638;79;0.734375;violin
23.577193333333334;0.08130066666666735;77;0.734375;violin
23.658494;0.08130066666666735;79;0.890625;violin
23.73979466666667;0.08130066666666735;81;0.734375;violin
23.821095333333336;0.08130066666666735;79;0.734375;violin
23.902396000000003;0.08130066666666735;77;0.734375;violin
23.98369666666667;0.0813006666666638;79;0.734375;violin
24.064997333333334;0.08130066666666735;77;0.734375;violin
24.146298;0.08130066666666735;79;0.890625;violin
24.22759866666667;0.08130066666666735;81;0.734375;violin
24.308899333333336;0.08130066666666735;79;0.734375;violin
24.390200000000004;0.0813006666666638;77;0.734375;violin
24.471500666666667;0.08130066666666735;79;0.734375;violin
24.552801333333335;0.08130066666666735;77;0.734375;violin
24.634102000000002;0.08130066666666735;79;0.890625;violin
24.71540266666667;0.08130066666666735;81;0.734375;violin
24.796703333333337;0.07113808333333083;79;0.734375;violin
24.878004;0.08130066666666735;77;0.734375;violin
24.959304666666668;0.08130066666666735;79;0.7578125;violin
25.040605333333335;0.08130066666666735;77;0.78125;violin
25.121906000000003;0.08130066666666735;81;0.8046875;violin
25.20320666666667;0.0813006666666638;82;0.8203125;violin
25.284507333333334;0.08130066666666735;81;0.84375;violin
25.365808;0.08130066666666735;84;0.8671875;violin
25.44710866666667;0.08130066666666735;86;0.890625;violin
25.528409333333336;0.08130066666666735;84;0.9140625;violin
25.609710000000003;0.08130066666666735;89;0.9140625;violin
25.69101066666667;0.0813006666666638;88;0.890625;violin
25.772311333333334;0.08130066666666735;86;0.8671875;violin
25.853612000000002;0.08130066666666735;84;0.84375;violin
25.93491266666667;0.08130066666666735;82;0.8203125;violin
26.016213333333337;0.08130066666666735;81;0.8046875;violin
26.097514000000004;0.0813006666666638;79;0.78125;violin
26.178814666666668;0.08130066666666735;77;0.7578125;violin
26.260115333333335;0.07113808333333438;76;0.734375;violin
26.341416000000002;0.08130066666666735;74;0.734375;violin
26.42271666666667;0.08130066666666735;76;0.734375;violin
26.504017333333337;0.0813006666666638;74;0.734375;violin
26.585318;0.08130066666666735;73;0.890625;violin
26.66661866666667;0.08130066666666735;74;0.734375;violin
26.747919333333336;0.08130066666666735;73;0.734375;violin
26.829220000000003;0.08130066666666735;74;0.734375;violin
26.91052066666667;0.0813006666666638;76;0.734375;violin
26.991821333333334;0.08130066666666735;74;0.734375;violin
27.073122;0.08130066666666735;73;0.890625;violin
27.15442266666667;0.08130066666666735;74;0.734375;violin
27.235723333333336;0.08130066666666735;73;0.734375;violin
27.317024000000004;0.0813006666666638;74;0.734375;violin
27.398324666666667;0.08130066666666735;76;0.734375;violin
27.479625333333335;0.08130066666666735;74;0.734375;violin
27.560926000000002;0.08130066666666735;73;0.890625;violin
27.64222666666667;0.08130066666666735;74;0.734375;violin
27.723527333333337;0.07113808333333083;73;0.734375;violin
27.804828000000004;0.0813006666666638;74;0.734375;violin
27.886128666666668;0.08130066666666735;76;0.7578125;violin
27.967429333333335;0.08130066666666735;74;0.78125;violin
28.048730000000003;0.08130066666666735;77;0.8046875;violin
28.13003066666667;0.08130066666666735;79;0.8203125;violin
28.211331333333337;0.0813006666666638;77;0.84375;violin
28.292632;0.08130066666666735;81;0.8671875;violin
28.37393266666667;0.08130066666666735;82;0.890625;violin
28.455233333333336;0.08130066666666735;81;0.9140625;violin
28.536534000000003;0.08130066666666735;86;0.9140625;violin
28.61783466666667;0.0813006666666638;84;0.890625;violin
28.699135333333334;0.08130066666666735;82;0.8671875;violin
28.780436;0.08130066666666735;81;0.84375;violin
28.86173666666667;0.08130066666666735;79;0.8203125;violin
28.943037333333336;0.08130066666666735;77;0.8046875;violin
29.024338000000004;0.0813006666666638;76;0.78125;violin
29.105638666666668;0.08130066666666735;74;0.7578125;violin
29.186939333333335;0.08130066666666735;72;0.734375;violin
29.268240000000002;0.08130066666666735;70;0.734375;violin
29.34954066666667;0.08130066666666735;72;0.734375;violin
29.430841333333337;0.08130066666666735;70;0.734375;violin
29.512142000000004;0.0813006666666638;69;0.890625;violin
29.593442666666668;0.08130066666666735;70;0.734375;violin
29.674743333333335;0.08130066666666735;69;0.734375;violin
29.756044000000003;0.08130066666666735;70;0.734375;violin
29.83734466666667;0.08130066666666735;72;0.734375;violin
29.918645333333338;0.0813006666666638;70;0.734375;violin
29.999946;0.08130066666666735;69;0.890625;violin
30.08124666666667;0.08130066666666735;70;0.734375;violin
30.162547333333336;0.08130066666666735;69;0.734375;violin
30.243848000000003;0.08130066666666735;70;0.734375;violin
30.32514866666667;0.0813006666666638;72;0.734375;violin
30.406449333333335;0.08130066666666735;70;0.734375;violin
30.487750000000002;0.08130066666666735;69;0.890625;violin
30.56905066666667;0.08130066666666735;70;0.734375;violin
30.650351333333337;0.07113808333333438;69;0.734375;violin
30.731652000000004;0.0813006666666638;70;0.734375;violin
30.812952666666668;0.08130066666666735;72;0.734375;violin
30.894253333333335;0.08130066666666735;70;0.734375;violin
30.975554000000002;0.08130066666666735;69;0.890625;violin
31.05685466666667;0.08130066666666735;70;0.734375;violin
31.138155333333337;0.0813006666666638;69;0.734375;violin
31.219456;0.08130066666666735;70;0.734375;violin
31.30075666666667;0.08130066666666735;72;0.734375;violin
31.382057333333336;0.08130066666666735;70;0.734375;violin
31.463358000000003;0.08130066666666735;69;0.734375;violin
31.54465866666667;0.08130066666666735;70;0.734375;violin
31.625959333333338;0.0813006666666638;69;0.734375;violin
31.70726;0.08130066666666735;67;0.734375;violin
31.78856066666667;0.08130066666666735;69;0.734375;violin
31.869861333333336;0.08130066666666735;67;0.734375;violin
31.951162000000004;0.0813006666666638;66;0.734375;violin
32.03246266666667;0.0813006666666709;67;0.734375;violin
32.11376333333334;0.07113808333333083;66;0.734375;violin
32.195064;0.0813006666666709;67;0.734375;violin
32.27636466666667;0.0813006666666638;69;0.734375;violin
32.35766533333334;0.0813006666666638;67;0.734375;violin
32.438966;0.0813006666666709;66;0.890625;violin
32.52026666666667;0.0813006666666638;67;0.734375;violin
32.601567333333335;0.0813006666666709;66;0.734375;violin
32.682868000000006;0.0813006666666638;67;0.734375;violin
32.76416866666667;0.0813006666666638;69;0.734375;violin
32.845469333333334;0.0813006666666709;67;0.734375;violin
32.926770000000005;0.0813006666666638;66;0.890625;violin
33.00807066666667;0.0813006666666709;67;0.734375;violin
33.08937133333334;0.0813006666666638;66;0.734375;violin
33.170672;0.0813006666666638;67;0.734375;violin
33.25197266666667;0.0813006666666709;69;0.734375;violin
33.33327333333334;0.0813006666666638;67;0.734375;violin
33.414574;0.0813006666666709;66;0.890625;violin
33.49587466666667;0.0813006666666638;67;0.734375;violin
33.57717533333334;0.07113808333333083;66;0.734375;violin
33.658476;0.0813006666666709;67;0.734375;violin
33.73977666666667;0.0813006666666638;69;0.734375;violin
33.821077333333335;0.0813006666666709;67;0.734375;violin
33.902378000000006;0.0813006666666638;66;0.890625;violin
33.98367866666667;0.0813006666666638;67;0.734375;violin
34.06497933333333;0.0813006666666709;66;0.734375;violin
34.146280000000004;0.0813006666666638;67;0.734375;violin
34.22758066666667;0.0813006666666709;69;0.734375;violin
34.30888133333334;0.0813006666666638;67;0.734375;violin
34.390182;0.0813006666666638;65;0.734375;violin
34.47148266666667;0.0813006666666709;67;0.734375;violin
34.55278333333334;0.0813006666666638;65;0.734375;violin
34.634084;0.0813006666666709;64;0.734375;violin
34.71538466666667;0.0813006666666638;65;0.734375;violin
34.796685333333336;0.0813006666666638;64;0.734375;violin
34.877986;0.0813006666666709;62;0.734375;violin
34.95928666666667;0.0813006666666638;64;0.734375;violin
35.040587333333335;0.07113808333333793;62;0.734375;violin
35.121888000000006;0.0813006666666638;60;0.734375;violin
35.20318866666667;0.0813006666666638;62;0.734375;violin
35.28448933333333;0.0813006666666709;60;0.734375;violin
35.365790000000004;0.0813006666666638;59;0.890625;violin
35.44709066666667;0.0813006666666709;60;0.734375;violin
35.52839133333334;0.0813006666666638;59;0.734375;violin
35.609692;0.0813006666666638;60;0.734375;violin
35.690992666666666;0.0813006666666709;62;0.734375;violin
35.77229333333334;0.0813006666666638;60;0.734375;violin
35.853594;0.0813006666666709;59;0.890625;violin
35.93489466666667;0.0813006666666638;60;0.734375;violin
36.016195333333336;0.0813006666666709;59;0.734375;violin
36.09749600000001;0.0813006666666638;60;0.734375;violin
36.17879666666667;0.0813006666666638;62;0.734375;violin
36.260097333333334;0.0813006666666709;60;0.734375;violin
36.341398000000005;0.0813006666666638;59;0.890625;violin
36.42269866666667;0.0813006666666709;60;0.734375;violin
36.50399933333334;0.07113808333333083;59;0.734375;violin
36.585300000000004;0.0813006666666638;60;0.7890625;violin
36.66660066666667;0.0813006666666709;62;0.7890625;violin
36.74790133333334;0.0813006666666638;60;0.7890625;violin
36.829202;0.0813006666666709;62;0.7890625;violin
36.91050266666667;0.0813006666666638;64;0.7890625;violin
36.99180333333334;0.0813006666666638;62;0.7890625;violin
37.073104;0.0813006666666709;64;0.7890625;violin
37.15440466666667;0.0813006666666638;65;0.7890625;violin
37.235705333333335;0.0813006666666709;64;0.7890625;violin
37.317006000000006;0.0813006666666638;65;0.7890625;violin
37.39830666666667;0.0813006666666638;67;0.765625;violin
37.479607333333334;0.0813006666666709;65;0.7421875;violin
37.560908000000005;0.0813006666666638;67;0.7265625;violin
37.64220866666667;0.0813006666666709;69;0.703125;violin
37.72350933333334;0.0813006666666638;67;0.6796875;violin
37.80481;0.0813006666666638;69;0.65625;violin
37.88611066666667;0.0813006666666709;70;0.6328125;violin
37.96741133333334;0.07113808333333083;69;0.609375;violin
38.048712;0.0813006666666709;70;0.609375;violin
38.13001266666667;0.0813006666666638;72;0.609375;violin
38.21131333333334;0.0813006666666638;70;0.609375;violin
38.292614;0.0813006666666709;72;0.609375;violin
38.37391466666667;0.0813006666666638;74;0.609375;violin
38.455215333333335;0.0813006666666709;72;0.609375;violin
38.536516000000006;0.0813006666666638;74;0.609375;violin
38.61781666666667;0.0813006666666638;76;0.609375;violin
38.699117333333334;0.0813006666666709;74;0.609375;violin
38.780418000000004;0.0813006666666638;76;0.609375;violin
38.86171866666667;0.0813006666666709;77;0.609375;violin
38.94301933333334;0.0813006666666638;76;0.609375;violin
39.02432;0.0813006666666638;77;0.609375;violin
39.10562066666667;0.0813006666666709;79;0.609375;violin
39.18692133333334;0.0813006666666638;77;0.609375;violin
39.268222;0.0813006666666709;78;0.609375;violin
39.34952266666667;0.0813006666666638;79;0.609375;violin
39.430823333333336;0.07113808333333083;78;0.609375;violin
39.512124;0.0813006666666709;79;0.609375;violin
39.59342466666667;0.0813006666666638;81;0.609375;violin
39.674725333333335;0.0813006666666709;79;0.609375;violin
39.756026000000006;0.0813006666666638;78;0.765625;violin
39.83732666666667;0.0813006666666709;79;0.609375;violin
39.91862733333334;0.0813006666666638;78;0.609375;violin
39.999928000000004;0.0813006666666638;79;0.609375;violin
40.08122866666667;0.0813006666666709;81;0.609375;violin
40.16252933333334;0.0813006666666638;79;0.609375;violin
40.24383;0.0813006666666709;78;0.765625;violin
40.325130666666674;0.0813006666666638;79;0.609375;violin
40.40643133333334;0.0813006666666638;78;0.609375;violin
40.487732;0.0813006666666709;79;0.609375;violin
40.56903266666667;0.0813006666666638;81;0.609375;violin
40.650333333333336;0.0813006666666709;79;0.609375;violin
40.73163400000001;0.0813006666666638;84;0.765625;violin
40.81293466666667;0.0813006666666638;86;0.609375;violin
40.894235333333334;0.07113808333333793;84;0.609375;violin
40.975536000000005;0.0813006666666638;77;0.7890625;violin
41.05683666666667;0.0813006666666709;79;0.7890625;violin
41.13813733333334;0.0813006666666638;77;0.7890625;violin
41.219438000000004;0.0813006666666638;81;0.9453125;violin
41.30073866666667;0.0813006666666709;82;0.7890625;violin
41.38203933333334;0.0813006666666638;81;0.7890625;violin
41.46334;0.0813006666666709;77;0.7890625;violin
41.54464066666667;0.0813006666666638;79;0.7890625;violin
41.62594133333334;0.0813006666666638;77;0.7890625;violin
41.707242;0.0813006666666709;81;0.9453125;violin
41.78854266666667;0.0813006666666638;82;0.7890625;violin
41.869843333333336;0.0813006666666709;81;0.7890625;violin
41.951144000000006;0.0813006666666638;77;0.7890625;violin
42.03244466666667;0.0813006666666638;79;0.7890625;violin
42.113745333333334;0.0813006666666709;77;0.7890625;violin
42.195046000000005;0.0813006666666638;81;0.9453125;violin
42.27634666666667;0.0813006666666709;82;0.7890625;violin
42.35764733333334;0.07113808333333083;81;0.7890625;violin
42.438948;0.0813006666666638;77;0.7890625;violin
42.52024866666667;0.0813006666666709;79;0.7890625;violin
42.60154933333334;0.0813006666666638;77;0.7890625;violin
42.68285;0.0813006666666709;84;0.7890625;violin
42.76415066666667;0.0813006666666638;86;0.7890625;violin
42.84545133333334;0.0813006666666638;84;0.7890625;violin
42.926752;0.0813006666666709;81;0.7890625;violin
43.00805266666667;0.0813006666666638;82;0.7890625;violin
43.089353333333335;0.0813006666666709;81;0.7890625;violin
43.170654000000006;0.0813006666666638;89;0.7890625;violin
43.25195466666667;0.0813006666666638;88;0.7890625;violin
43.333255333333334;0.0813006666666709;89;0.7890625;violin
43.414556000000005;0.0813006666666638;84;0.7890625;violin
43.49585666666667;0.0813006666666709;86;0.7890625;violin
43.57715733333334;0.0813006666666638;84;0.7890625;violin
43.658458;0.0813006666666709;81;0.7890625;violin
43.739758666666674;0.0813006666666638;82;0.7890625;violin
43.82105933333334;0.07113808333333083;81;0.7890625;violin
43.90236;0.0813006666666709;82;0.7890625;violin
43.98366066666667;0.0813006666666638;84;0.7890625;violin
44.064961333333336;0.0813006666666709;82;0.7890625;violin
44.14626200000001;0.0813006666666638;81;0.9453125;violin
44.22756266666667;0.0813006666666638;82;0.7890625;violin
44.308863333333335;0.0813006666666709;81;0.7890625;violin
44.390164000000006;0.0813006666666638;82;0.7890625;violin
44.47146466666667;0.0813006666666709;84;0.7890625;violin
44.55276533333334;0.0813006666666638;82;0.7890625;violin
44.634066000000004;0.0813006666666638;81;0.9453125;violin
44.71536666666667;0.0813006666666709;82;0.7890625;violin
44.79666733333334;0.0813006666666638;81;0.7890625;violin
44.877968;0.0813006666666709;82;0.7890625;violin
44.959268666666674;0.0813006666666638;84;0.7890625;violin
45.04056933333334;0.0813006666666638;82;0.7890625;violin
45.12187;0.0813006666666709;81;0.9453125;violin
45.20317066666667;0.0813006666666638;82;0.7890625;violin
45.284471333333336;0.07113808333333793;81;0.7890625;violin
45.36577200000001;0.0813006666666638;82;0.7890625;violin
45.44707266666667;0.0813006666666638;84;0.7890625;violin
45.528373333333334;0.0813006666666709;82;0.7890625;violin
45.609674000000005;0.0813006666666638;79;0.7890625;violin
45.69097466666667;0.0813006666666709;81;0.7890625;violin
45.77227533333334;0.0813006666666638;79;0.7890625;violin
45.853576000000004;0.0813006666666638;76;0.7890625;violin
45.93487666666667;0.0813006666666709;77;0.7890625;violin
46.01617733333334;0.0813006666666638;76;0.7890625;violin
46.097478;0.0813006666666709;72;0.7890625;violin
46.17877866666667;0.0813006666666638;74;0.7890625;violin
46.26007933333334;0.0813006666666638;72;0.7890625;violin
46.34138;0.0813006666666709;74;0.7890625;violin
46.42268066666667;0.0813006666666638;76;0.7890625;violin
46.503981333333336;0.0813006666666709;74;0.7890625;violin
46.58528200000001;0.0813006666666638;76;0.7890625;violin
46.66658266666667;0.0813006666666638;77;0.7890625;violin
46.747883333333334;0.07113808333333793;76;0.7890625;violin
46.829184000000005;0.0813006666666638;77;0.7890625;violin
46.91048466666667;0.0813006666666709;79;0.7890625;violin
46.99178533333334;0.0813006666666638;77;0.7890625;violin
47.073086;0.0813006666666638;81;0.9453125;violin
47.15438666666667;0.0813006666666709;82;0.7890625;violin
47.23568733333334;0.0813006666666638;81;0.7890625;violin
47.316988;0.0813006666666709;77;0.7890625;violin
47.39828866666667;0.0813006666666638;79;0.7890625;violin
47.47958933333334;0.0813006666666709;77;0.7890625;violin
47.56089000000001;0.0813006666666638;81;0.9453125;violin
47.64219066666667;0.0813006666666638;82;0.7890625;violin
47.723491333333335;0.0813006666666709;81;0.7890625;violin
47.804792000000006;0.0813006666666638;77;0.7890625;violin
47.88609266666667;0.0813006666666709;79;0.7890625;violin
47.96739333333334;0.0813006666666638;77;0.7890625;violin
48.048694000000005;0.0813006666666638;81;0.9453125;violin
48.12999466666667;0.0813006666666709;82;0.7890625;violin
48.21129533333334;0.07113808333333083;81;0.7890625;violin
48.292596;0.0813006666666709;77;0.7890625;violin
48.373896666666674;0.0813006666666638;79;0.7890625;violin
48.45519733333334;0.0813006666666638;77;0.7890625;violin
48.536498;0.0813006666666709;84;0.7890625;violin
48.61779866666667;0.0813006666666638;86;0.7890625;violin
48.699099333333336;0.0813006666666709;84;0.7890625;violin
48.78040000000001;0.0813006666666638;81;0.7890625;violin
48.86170066666667;0.0813006666666638;82;0.7890625;violin
48.943001333333335;0.0813006666666709;81;0.7890625;violin
49.024302000000006;0.0813006666666638;89;0.7890625;violin
49.10560266666667;0.0813006666666709;88;0.7890625;violin
49.18690333333334;0.0813006666666638;89;0.7890625;violin
49.268204000000004;0.0813006666666638;84;0.7890625;violin
49.34950466666667;0.0813006666666709;86;0.7890625;violin
49.43080533333334;0.0813006666666638;84;0.7890625;violin
49.512106;0.0813006666666709;85;0.7890625;violin
49.593406666666674;0.0813006666666638;86;0.7890625;violin
49.67470733333334;0.07113808333333083;85;0.7890625;violin
49.756008;0.0813006666666709;86;0.7890625;violin
49.83730866666667;0.0813006666666638;88;0.7890625;violin
49.918609333333336;0.0813006666666709;86;0.7890625;violin
49.99991000000001;0.0813006666666638;85;0.9453125;violin
50.08121066666667;0.0813006666666638;86;0.7890625;violin
50.162511333333335;0.0813006666666709;85;0.7890625;violin
50.243812000000005;0.0813006666666638;86;0.7890625;violin
50.32511266666667;0.0813006666666709;88;0.7890625;violin
50.40641333333334;0.0813006666666638;86;0.7890625;violin
50.487714000000004;0.0813006666666638;85;0.9453125;violin
50.56901466666667;0.0813006666666709;86;0.7890625;violin
50.65031533333334;0.0813006666666638;85;0.7890625;violin
50.731616;0.0813006666666709;86;0.7890625;violin
50.81291666666667;0.0813006666666638;88;0.7890625;violin
50.89421733333334;0.0813006666666638;86;0.7890625;violin
50.975518;0.0813006666666709;84;0.9453125;violin
51.05681866666667;0.0813006666666638;86;0.7890625;violin
51.138119333333336;0.07113808333333793;84;0.7890625;violin
51.21942000000001;0.0813006666666638;86;0.7890625;violin
51.30072066666667;0.0813006666666709;88;0.7890625;violin
51.38202133333334;0.0813006666666638;86;0.7890625;violin
51.463322000000005;0.0813006666666638;84;0.7890625;violin
51.54462266666667;0.0813006666666709;86;0.7890625;violin
51.62592333333334;0.0813006666666638;84;0.7890625;violin
51.707224000000004;0.0813006666666709;82;0.7890625;violin
51.788524666666675;0.0813006666666638;84;0.7890625;violin
51.86982533333334;0.0813006666666638;82;0.78125;violin
51.951126;0.0813006666666709;81;0.78125;violin
52.03242666666667;0.0813006666666638;82;0.78125;violin
52.11372733333334;0.0813006666666709;81;0.7734375;violin
52.19502800000001;0.0813006666666638;79;0.7734375;violin
52.27632866666667;0.0813006666666638;81;0.765625;violin
52.357629333333335;0.0813006666666709;79;0.765625;violin
52.438930000000006;0.0813006666666638;77;0.765625;violin
52.52023066666667;0.0813006666666709;79;0.7578125;violin
52.60153133333334;0.07113808333333083;77;0.7578125;violin
52.682832000000005;0.0813006666666638;76;0.7578125;violin
52.76413266666667;0.0813006666666709;77;0.7578125;violin
52.84543333333334;0.0813006666666638;76;0.7578125;violin
52.926734;0.0813006666666709;79;0.9140625;violin
53.008034666666674;0.0813006666666638;81;0.7578125;violin
53.08933533333334;0.0813006666666638;79;0.7578125;violin
53.170636;0.0813006666666709;76;0.7578125;violin
53.25193666666667;0.0813006666666638;77;0.7578125;violin
53.33323733333334;0.0813006666666709;76;0.7578125;violin
53.41453800000001;0.0813006666666638;79;0.9140625;violin
53.49583866666667;0.0813006666666638;81;0.7578125;violin
53.577139333333335;0.0813006666666709;79;0.7578125;violin
53.658440000000006;0.0813006666666638;76;0.7578125;violin
53.73974066666667;0.0813006666666709;77;0.7578125;violin
53.82104133333334;0.0813006666666638;76;0.7578125;violin
53.902342000000004;0.0813006666666638;79;0.9140625;violin
53.98364266666667;0.0813006666666709;81;0.7578125;violin
54.06494333333334;0.07113808333333083;79;0.7578125;violin
54.146244;0.0813006666666709;76;0.7578125;violin
54.227544666666674;0.0813006666666638;77;0.7578125;violin
54.30884533333334;0.0813006666666638;76;0.7578125;violin
54.390146;0.0813006666666709;79;0.9140625;violin
54.47144666666667;0.0813006666666638;81;0.7578125;violin
54.552747333333336;0.0813006666666709;79;0.7578125;violin
54.63404800000001;0.0813006666666638;82;0.7578125;violin
54.71534866666667;0.0813006666666638;81;0.7578125;violin
54.796649333333335;0.0813006666666709;79;0.7578125;violin
54.877950000000006;0.0813006666666638;77;0.7578125;violin
54.95925066666667;0.0813006666666709;76;0.7578125;violin
55.04055133333334;0.0813006666666638;74;0.7578125;violin
55.121852000000004;0.0813006666666709;72;0.7578125;violin
55.203152666666675;0.0813006666666638;74;0.7578125;violin
55.28445333333334;0.0813006666666638;72;0.7578125;violin
55.365754;0.0813006666666709;70;0.7578125;violin
55.44705466666667;0.0813006666666638;69;0.7578125;violin
55.52835533333334;0.07113808333333083;67;0.7578125;violin
55.60965600000001;0.0813006666666638;69;0.6328125;violin
55.69095666666667;0.0813006666666638;72;0.6328125;violin
55.772257333333336;0.0813006666666709;76;0.6328125;violin
55.85355800000001;0.0813006666666638;77;0.7890625;violin
55.93485866666667;0.0813006666666709;72;0.6328125;violin
56.01615933333334;0.0813006666666638;69;0.6328125;violin
56.097460000000005;0.0813006666666638;70;0.6328125;violin
56.17876066666667;0.0813006666666709;74;0.6328125;violin
56.26006133333334;0.0813006666666638;78;0.6328125;violin
56.341362000000004;0.0813006666666709;79;0.7890625;violin
56.422662666666675;0.0813006666666638;74;0.6328125;violin
56.50396333333334;0.0813006666666638;71;0.6328125;violin
56.585264;0.0813006666666709;72;0.6328125;violin
56.66656466666667;0.0813006666666638;76;0.6328125;violin
56.74786533333334;0.0813006666666709;80;0.6328125;violin
56.82916600000001;0.0813006666666638;81;0.7890625;violin
56.91046666666667;0.0813006666666638;76;0.6328125;violin
56.991767333333335;0.07113808333333793;73;0.6328125;violin
57.073068000000006;0.0813006666666638;74;0.6328125;violin
57.15436866666667;0.0813006666666709;77;0.6328125;violin
57.23566933333334;0.0813006666666638;81;0.6328125;violin
57.316970000000005;0.0813006666666638;82;0.7890625;violin
57.39827066666667;0.0813006666666709;77;0.6328125;violin
57.47957133333334;0.0813006666666638;74;0.6328125;violin
57.560872;0.0813006666666709;76;0.6328125;violin
57.642172666666674;0.0813006666666638;79;0.6328125;violin
57.72347333333334;0.0813006666666638;83;0.6328125;violin
57.804774;0.0813006666666709;84;0.7890625;violin
57.88607466666667;0.0813006666666638;79;0.6328125;violin
57.96737533333334;0.0813006666666709;76;0.6328125;violin
58.04867600000001;0.0813006666666638;77;0.6328125;violin
58.12997666666667;0.0813006666666638;81;0.6328125;violin
58.211277333333335;0.0813006666666709;85;0.6328125;violin
58.292578000000006;0.0813006666666638;86;0.7890625;violin
58.37387866666667;0.0813006666666709;81;0.6328125;violin
58.45517933333334;0.07113808333333083;77;0.6328125;violin
58.536480000000005;0.0813006666666638;79;0.7890625;violin
58.61778066666667;0.0813006666666709;82;0.6328125;violin
58.69908133333334;0.0813006666666638;88;0.6328125;violin
58.780382;0.0813006666666709;86;0.6328125;violin
58.861682666666674;0.0813006666666638;81;0.6328125;violin
58.94298333333334;0.0813006666666709;77;0.6328125;violin
59.02428400000001;0.0813006666666638;76;0.7890625;violin
59.10558466666667;0.0813006666666638;79;0.6328125;violin
59.186885333333336;0.0813006666666709;83;0.6328125;violin
59.26818600000001;0.0813006666666638;84;0.6328125;violin
59.34948666666667;0.0813006666666709;79;0.6328125;violin
59.43078733333334;0.0813006666666638;76;0.6328125;violin
59.512088000000006;0.0813006666666638;74;0.7890625;violin
59.59338866666667;0.0813006666666709;77;0.6328125;violin
59.67468933333334;0.0813006666666638;82;0.6328125;violin
59.755990000000004;0.0813006666666709;81;0.6328125;violin
59.837290666666675;0.0813006666666638;76;0.6328125;violin
59.91859133333334;0.0813006666666638;72;0.6328125;violin
59.999892;0.0813006666666709;70;0.7890625;violin
60.081192666666674;0.0813006666666638;74;0.6328125;violin
60.16249333333334;0.0813006666666709;78;0.6328125;violin
60.24379400000001;0.0813006666666638;79;0.6328125;violin
60.32509466666667;0.0813006666666638;74;0.6328125;violin
60.406395333333336;0.0813006666666709;70;0.6328125;violin
60.48769600000001;0.0813006666666638;69;0.7890625;violin
60.56899666666667;0.0813006666666709;72;0.6328125;violin
60.65029733333334;0.0813006666666638;77;0.6328125;violin
60.731598000000005;0.0813006666666638;76;0.7890625;violin
60.81289866666667;0.0813006666666709;70;0.6328125;violin
60.89419933333334;0.0813006666666638;67;0.6328125;violin
60.975500000000004;0.0813006666666709;65;0.7890625;violin
61.056800666666675;0.0813006666666638;69;0.6328125;violin
61.13810133333334;0.0813006666666638;73;0.6328125;violin
61.219402;0.0813006666666709;74;0.6328125;violin
61.30070266666667;0.0813006666666638;69;0.6328125;violin
61.38200333333334;0.07113808333333793;65;0.6328125;violin
61.46330400000001;0.0813006666666638;64;0.7890625;violin
61.54460466666667;0.0813006666666638;67;0.6328125;violin
61.625905333333336;0.0813006666666709;72;0.6328125;violin
61.707206000000006;0.0813006666666638;70;0.7890625;violin
61.78850666666667;0.0813006666666709;65;0.6328125;violin
61.86980733333334;0.0813006666666638;62;0.6328125;violin
61.951108000000005;0.0813006666666638;60;0.7890625;violin
62.03240866666667;0.0813006666666709;64;0.6328125;violin
62.11370933333334;0.0813006666666638;68;0.6328125;violin
62.19501;0.0813006666666709;69;0.6328125;violin
62.276310666666674;0.0813006666666638;64;0.6328125;violin
62.35761133333334;0.0813006666666638;60;0.6328125;violin
62.438912;0.0813006666666709;58;0.7890625;violin
62.52021266666667;0.0813006666666638;62;0.6328125;violin
62.60151333333334;0.0813006666666709;67;0.6328125;violin
62.68281400000001;0.0813006666666638;65;0.7890625;violin
62.76411466666667;0.0813006666666709;62;0.6328125;violin
62.84541533333334;0.07113808333333083;56;0.6328125;violin
62.926716000000006;0.0813006666666638;57;0.7890625;violin
63.00801666666667;0.0813006666666709;58;0.7890625;violin
63.08931733333334;0.0813006666666638;57;0.7890625;violin
63.170618000000005;0.0813006666666709;61;0.7890625;violin
63.251918666666676;0.0813006666666638;62;0.7890625;violin
63.33321933333334;0.0813006666666638;61;0.7890625;violin
63.41452;0.0813006666666709;64;0.7890625;violin
63.495820666666674;0.0813006666666638;65;0.7890625;violin
63.57712133333334;0.0813006666666709;64;0.7890625;violin
63.65842200000001;0.0813006666666638;69;0.7890625;violin
63.73972266666667;0.0813006666666638;70;0.7890625;violin
63.821023333333336;0.0813006666666709;69;0.7890625;violin
63.90232400000001;0.0813006666666638;73;0.7890625;violin
63.98362466666667;0.0813006666666638;74;0.7890625;violin
64.06492533333333;0.0813006666666638;73;0.7890625;violin
64.146226;0.08130066666667801;76;0.7890625;violin
64.22752666666668;0.0813006666666638;77;0.7890625;violin
64.30882733333334;0.07113808333333793;76;0.7890625;violin
64.390128;0.0813006666666638;77;0.7890625;violin
64.47142866666667;0.08130066666667801;79;0.7890625;violin
64.55272933333335;0.0813006666666638;77;0.7890625;violin
64.63403000000001;0.0813006666666638;81;0.7890625;violin
64.71533066666667;0.0813006666666638;82;0.7890625;violin
64.79663133333334;0.0813006666666638;81;0.7890625;violin
64.877932;0.08130066666667801;77;0.7890625;violin
64.95923266666668;0.0813006666666638;79;0.7890625;violin
65.04053333333334;0.0813006666666638;77;0.7890625;violin
65.121834;0.0813006666666638;74;0.7890625;violin
65.20313466666667;0.0813006666666638;76;0.7890625;violin
65.28443533333333;0.08130066666667801;74;0.7890625;violin
65.36573600000001;0.0813006666666638;69;0.7890625;violin
65.44703666666668;0.0813006666666638;70;0.7890625;violin
65.52833733333334;0.0813006666666638;69;0.7890625;violin
65.609638;0.0813006666666638;65;0.7890625;violin
65.69093866666667;0.08130066666667801;64;0.7890625;violin
65.77223933333335;0.07113808333332372;62;0.7890625;violin
65.85354000000001;0.0813006666666638;57;0.7890625;violin
65.93484066666667;0.0813006666666638;58;0.7890625;violin
66.01614133333334;0.0813006666666638;57;0.7890625;violin
66.097442;0.08130066666667801;61;0.7890625;violin
66.17874266666668;0.0813006666666638;62;0.7890625;violin
66.26004333333334;0.0813006666666638;61;0.7890625;violin
66.341344;0.0813006666666638;64;0.7890625;violin
66.42264466666667;0.0813006666666638;62;0.7890625;violin
66.50394533333333;0.08130066666667801;64;0.7890625;violin
66.58524600000001;0.0813006666666638;69;0.7890625;violin
66.66654666666668;0.0813006666666638;70;0.7890625;violin
66.74784733333334;0.0813006666666638;69;0.7890625;violin
66.829148;0.0813006666666638;73;0.7890625;violin
66.91044866666667;0.08130066666667801;74;0.7890625;violin
66.99174933333335;0.0813006666666638;73;0.7890625;violin
67.07305000000001;0.0813006666666638;69;0.7890625;violin
67.15435066666667;0.0813006666666638;70;0.7890625;violin
67.23565133333334;0.07113808333333793;69;0.7890625;violin
67.316952;0.08130066666667801;74;0.7890625;violin
67.39825266666668;0.0813006666666638;76;0.7890625;violin
67.47955333333334;0.0813006666666638;74;0.7890625;violin
67.560854;0.0813006666666638;73;0.7890625;violin
67.64215466666667;0.0813006666666638;74;0.7890625;violin
67.72345533333333;0.08130066666667801;73;0.7890625;violin
67.80475600000001;0.0813006666666638;74;0.7890625;violin
67.88605666666668;0.0813006666666638;76;0.7890625;violin
67.96735733333334;0.0813006666666638;74;0.7890625;violin
68.048658;0.0813006666666638;69;0.7890625;violin
68.12995866666667;0.08130066666667801;70;0.7890625;violin
68.21125933333335;0.0813006666666638;69;0.7890625;violin
68.29256000000001;0.0813006666666638;65;0.7890625;violin
68.37386066666667;0.0813006666666638;67;0.7890625;violin
68.45516133333334;0.0813006666666638;65;0.7890625;violin
68.536462;0.08130066666667801;62;0.7890625;violin
68.61776266666668;0.0813006666666638;64;0.7890625;violin
68.69906333333334;0.07113808333332372;62;0.7890625;violin
68.780364;0.0813006666666638;69;0.7890625;violin
68.86166466666667;0.0813006666666638;70;0.7890625;violin
68.94296533333333;0.08130066666667801;69;0.7890625;violin
69.02426600000001;0.0813006666666638;68;0.7890625;violin
69.10556666666668;0.0813006666666638;69;0.7890625;violin
69.18686733333334;0.0813006666666638;68;0.7890625;violin
69.268168;0.0813006666666638;69;0.7890625;violin
69.34946866666667;0.08130066666667801;70;0.7890625;violin
69.43076933333334;0.0813006666666638;69;0.7890625;violin
69.51207000000001;0.0813006666666638;70;0.7890625;violin
69.59337066666667;0.0813006666666638;72;0.7890625;violin
69.67467133333334;0.0813006666666638;70;0.7890625;violin
69.755972;0.08130066666667801;69;0.7890625;violin
69.83727266666668;0.0813006666666638;70;0.7890625;violin
69.91857333333334;0.0813006666666638;69;0.7890625;violin
69.999874;0.0813006666666638;68;0.7890625;violin
70.08117466666667;0.0813006666666638;69;0.7890625;violin
70.16247533333333;0.07113808333333793;68;0.7890625;violin
70.24377600000001;0.0813006666666638;69;0.7890625;violin
70.32507666666667;0.0813006666666638;70;0.7890625;violin
70.40637733333334;0.0813006666666638;69;0.7890625;violin
70.487678;0.0813006666666638;68;0.9453125;violin
70.56897866666667;0.08130066666667801;69;0.7890625;violin
70.65027933333334;0.0813006666666638;68;0.7890625;violin
70.73158000000001;0.0813006666666638;69;0.7890625;violin
70.81288066666667;0.0813006666666638;70;0.7890625;violin
70.89418133333334;0.0813006666666638;69;0.7890625;violin
70.975482;0.08130066666667801;68;0.9453125;violin
71.05678266666668;0.0813006666666638;69;0.7890625;violin
71.13808333333334;0.0813006666666638;68;0.7890625;violin
71.219384;0.0813006666666638;69;0.7578125;violin
71.30068466666667;0.0813006666666638;70;0.71875;violin
71.38198533333333;0.08130066666667801;69;0.6875;violin
71.46328600000001;0.0813006666666638;68;0.8046875;violin
71.54458666666667;0.0813006666666638;69;0.6171875;violin
71.62588733333334;0.07113808333333793;68;0.578125;violin
71.707188;0.0813006666666638;69;0.578125;violin
71.78848866666667;0.08130066666667801;70;0.578125;violin
71.86978933333334;0.0813006666666638;69;0.578125;violin
71.95109000000001;0.0813006666666638;70;0.578125;violin
72.03239066666667;0.0813006666666638;72;0.578125;violin
72.11369133333334;0.08130066666667801;70;0.578125;violin
72.19499200000001;0.0813006666666638;71;0.578125;violin
72.27629266666668;0.0813006666666638;72;0.578125;violin
72.35759333333334;0.0813006666666638;71;0.578125;violin
72.438894;0.0813006666666638;72;0.578125;violin
72.52019466666667;0.08130066666667801;74;0.5859375;violin
72.60149533333335;0.0813006666666638;72;0.59375;violin
72.68279600000001;0.0813006666666638;73;0.6015625;violin
72.76409666666667;0.0813006666666638;74;0.609375;violin
72.84539733333334;0.0813006666666638;73;0.609375;violin
72.926698;0.08130066666667801;74;0.6171875;violin
73.00799866666668;0.0813006666666638;76;0.625;violin
73.08929933333334;0.07113808333332372;74;0.6328125;violin
73.17060000000001;0.0813006666666638;75;0.6328125;violin
73.25190066666667;0.0813006666666638;76;0.6328125;violin
73.33320133333334;0.08130066666667801;75;0.6328125;violin
73.41450200000001;0.0813006666666638;76;0.6328125;violin
73.49580266666668;0.0813006666666638;77;0.6328125;violin
73.57710333333334;0.0813006666666638;76;0.6328125;violin
73.658404;0.0813006666666638;77;0.6328125;violin
73.73970466666667;0.08130066666667801;79;0.6328125;violin
73.82100533333335;0.0813006666666638;77;0.6328125;violin
73.90230600000001;0.0813006666666638;78;0.6328125;violin
73.98360666666667;0.0813006666666638;79;0.6328125;violin
74.06490733333334;0.0813006666666638;78;0.6328125;violin
74.146208;0.08130066666667801;79;0.6328125;violin
74.22750866666668;0.0813006666666638;81;0.6328125;violin
74.30880933333334;0.0813006666666638;79;0.6328125;violin
74.39011;0.0813006666666638;80;0.6328125;violin
74.47141066666667;0.0813006666666638;81;0.6328125;violin
74.55271133333333;0.07113808333333793;80;0.6328125;violin
74.63401200000001;0.0813006666666638;81;0.6328125;violin
74.71531266666668;0.0813006666666638;82;0.6328125;violin
74.79661333333334;0.0813006666666638;81;0.6328125;violin
74.877914;0.0813006666666638;80;0.7890625;violin
74.95921466666667;0.08130066666667801;81;0.6328125;violin
75.04051533333335;0.0813006666666638;80;0.6328125;violin
75.12181600000001;0.0813006666666638;81;0.6328125;violin
75.20311666666667;0.0813006666666638;82;0.6328125;violin
75.28441733333334;0.0813006666666638;81;0.6328125;violin
75.365718;0.08130066666667801;80;0.7890625;violin
75.44701866666668;0.0813006666666638;81;0.6328125;violin
75.52831933333334;0.0813006666666638;80;0.6328125;violin
75.60962;0.0813006666666638;81;0.6328125;violin
75.69092066666667;0.0813006666666638;82;0.6328125;violin
75.77222133333333;0.08130066666667801;81;0.6328125;violin
75.85352200000001;0.0813006666666638;80;0.7890625;violin
75.93482266666668;0.0813006666666638;81;0.6328125;violin
76.01612333333334;0.07113808333333793;80;0.6328125;violin
76.097424;0.0813006666666638;81;0.6328125;violin
76.17872466666667;0.08130066666667801;82;0.6328125;violin
76.26002533333335;0.0813006666666638;81;0.6328125;violin
76.34132600000001;0.0813006666666638;79;0.6328125;violin
76.42262666666667;0.0813006666666638;81;0.6328125;violin
76.50392733333334;0.0813006666666638;79;0.6328125;violin
76.585228;0.08130066666667801;77;0.6328125;violin
76.66652866666668;0.0813006666666638;79;0.6328125;violin
76.74782933333334;0.0813006666666638;77;0.6328125;violin
76.82913;0.0813006666666638;76;0.6328125;violin
76.91043066666667;0.0813006666666638;77;0.6328125;violin
76.99173133333333;0.08130066666667801;76;0.6328125;violin
77.07303200000001;0.0813006666666638;74;0.6328125;violin
77.15433266666668;0.0813006666666638;76;0.6328125;violin
77.23563333333334;0.0813006666666638;74;0.6328125;violin
77.316934;0.0813006666666638;73;0.6328125;violin
77.39823466666667;0.08130066666667801;74;0.6328125;violin
77.47953533333335;0.07113808333332372;73;0.6328125;violin
77.56083600000001;0.0813006666666638;74;0.6328125;violin
77.64213666666667;0.0813006666666638;76;0.6328125;violin
77.72343733333334;0.0813006666666638;74;0.6328125;violin
77.804738;0.08130066666667801;73;0.7890625;violin
77.88603866666668;0.0813006666666638;74;0.6328125;violin
77.96733933333334;0.0813006666666638;73;0.6328125;violin
78.04864;0.0813006666666638;74;0.6328125;violin
78.12994066666667;0.0813006666666638;76;0.6328125;violin
78.21124133333333;0.08130066666667801;74;0.6328125;violin
78.29254200000001;0.0813006666666638;73;0.7890625;violin
78.37384266666668;0.0813006666666638;74;0.6328125;violin
78.45514333333334;0.0813006666666638;73;0.6328125;violin
78.536444;0.0813006666666638;74;0.6328125;violin
78.61774466666667;0.08130066666667801;76;0.6328125;violin
78.69904533333334;0.0813006666666638;74;0.6328125;violin
78.78034600000001;0.0813006666666638;73;0.7890625;violin
78.86164666666667;0.0813006666666638;74;0.6328125;violin
78.94294733333334;0.07113808333333793;73;0.6328125;violin
79.024248;0.08130066666667801;74;0.6328125;violin
79.10554866666668;0.0813006666666638;76;0.6328125;violin
79.18684933333334;0.0813006666666638;74;0.6328125;violin
79.26815;0.0813006666666638;72;0.6328125;violin
79.34945066666667;0.0813006666666638;74;0.6328125;violin
79.43075133333333;0.08130066666667801;72;0.6328125;violin
79.51205200000001;0.0813006666666638;70;0.6328125;violin
79.59335266666668;0.0813006666666638;72;0.6328125;violin
79.67465333333334;0.0813006666666638;70;0.6328125;violin
79.755954;0.08130066666667801;69;0.6328125;violin
79.83725466666668;0.0813006666666638;70;0.6328125;violin
79.91855533333334;0.0813006666666638;69;0.6328125;violin
79.99985600000001;0.0813006666666638;67;0.6328125;violin
80.08115666666667;0.0813006666666638;69;0.6328125;violin
80.16245733333334;0.08130066666667801;67;0.6328125;violin
80.24375800000001;0.0813006666666638;66;0.6328125;violin
80.32505866666668;0.0813006666666638;67;0.6328125;violin
80.40635933333334;0.07113808333333793;66;0.6328125;violin
80.48766;0.0813006666666638;67;0.6328125;violin
80.56896066666667;0.08130066666667801;69;0.6328125;violin
80.65026133333335;0.0813006666666638;67;0.6328125;violin
80.73156200000001;0.0813006666666638;66;0.7890625;violin
80.81286266666667;0.0813006666666638;67;0.6328125;violin
80.89416333333334;0.0813006666666638;66;0.6328125;violin
80.975464;0.08130066666667801;67;0.6328125;violin
81.05676466666668;0.0813006666666638;69;0.6328125;violin
81.13806533333334;0.0813006666666638;67;0.6328125;violin
81.21936600000001;0.0813006666666638;66;0.7890625;violin
81.30066666666667;0.0813006666666638;67;0.6328125;violin
81.38196733333334;0.08130066666667801;66;0.6328125;violin
81.46326800000001;0.0813006666666638;67;0.6328125;violin
81.54456866666668;0.0813006666666638;69;0.6328125;violin
81.62586933333334;0.0813006666666638;67;0.6328125;violin
81.70717;0.0813006666666638;66;0.7890625;violin
81.78847066666667;0.08130066666667801;67;0.6328125;violin
81.86977133333335;0.07113808333332372;66;0.6328125;violin
81.95107200000001;0.0813006666666638;67;0.6328125;violin
82.03237266666667;0.0813006666666638;69;0.6328125;violin
82.11367333333334;0.0813006666666638;67;0.6328125;violin
82.194974;0.08130066666667801;66;0.7890625;violin
82.27627466666668;0.0813006666666638;67;0.6328125;violin
82.35757533333334;0.0813006666666638;66;0.6328125;violin
82.43887600000001;0.0813006666666638;67;0.6328125;violin
82.52017666666667;0.0813006666666638;69;0.6328125;violin
82.60147733333334;0.08130066666667801;67;0.6328125;violin
82.68277800000001;0.0813006666666638;65;0.6328125;violin
82.76407866666668;0.0813006666666638;67;0.6328125;violin
82.84537933333334;0.0813006666666638;65;0.6328125;violin
82.92668;0.0813006666666638;64;0.6328125;violin
83.00798066666667;0.08130066666667801;65;0.6328125;violin
83.08928133333335;0.0813006666666638;64;0.6328125;violin
83.17058200000001;0.0813006666666638;62;0.6328125;violin
83.25188266666667;0.0813006666666638;64;0.6328125;violin
83.33318333333334;0.07113808333333793;62;0.6328125;violin
83.414484;0.08130066666667801;61;0.7890625;violin
83.49578466666668;0.0813006666666638;62;0.7890625;violin
83.57708533333334;0.0813006666666638;61;0.7890625;violin
83.65838600000001;0.0813006666666638;59;0.7890625;violin
83.73968666666667;0.0813006666666638;61;0.7890625;violin
83.82098733333333;0.08130066666667801;59;0.7890625;violin
83.90228800000001;0.0813006666666638;57;0.7890625;violin
83.98358866666668;0.0813006666666638;59;0.7734375;violin
84.06488933333334;0.0813006666666638;57;0.7578125;violin
84.14619;0.0813006666666638;61;0.7421875;violin
84.22749066666667;0.08130066666667801;62;0.7265625;violin
84.30879133333335;0.0813006666666638;61;0.7109375;violin
84.39009200000001;0.0813006666666638;64;0.6953125;violin
84.47139266666667;0.0813006666666638;65;0.6796875;violin
84.55269333333334;0.0813006666666638;64;0.65625;violin
84.633994;0.08130066666667801;69;0.640625;violin
84.71529466666668;0.0813006666666638;68;0.625;violin
84.79659533333334;0.07113808333333793;69;0.609375;violin
84.877896;0.0813006666666638;65;0.7890625;violin
84.95919666666667;0.0813006666666638;67;0.7890625;violin
85.04049733333333;0.08130066666667801;65;0.7890625;violin
85.12179800000001;0.0813006666666638;64;0.7890625;violin
85.20309866666668;0.0813006666666638;65;0.7890625;violin
85.28439933333334;0.0813006666666638;64;0.7890625;violin
85.3657;0.0813006666666638;62;0.7890625;violin
85.44700066666667;0.08130066666667801;64;0.7890625;violin
85.52830133333335;0.0813006666666638;62;0.7890625;violin
85.60960200000001;0.0813006666666638;65;0.7890625;violin
85.69090266666667;0.0813006666666638;67;0.7890625;violin
85.77220333333334;0.0813006666666638;65;0.7890625;violin
85.853504;0.08130066666667801;69;0.7890625;violin
85.93480466666668;0.0813006666666638;70;0.7890625;violin
86.01610533333334;0.07113808333333793;69;0.78125;violin
86.097406;0.0813006666666638;74;0.78125;violin
86.17870666666667;0.0813006666666638;73;0.78125;violin
86.26000733333333;0.08130066666667801;74;0.78125;violin
86.34130800000001;0.0813006666666638;64;0.78125;violin
86.42260866666668;0.0813006666666638;62;0.78125;violin
86.50390933333334;0.07113808333333793;64;0.78125;violin
86.58521;0.0813006666666638;74;0.78125;violin
86.66651066666667;0.08130066666667801;73;0.78125;violin
86.74781133333335;0.0813006666666638;74;0.7734375;violin
86.82911200000001;0.0813006666666638;65;0.7734375;violin
86.91041266666667;0.0813006666666638;64;0.7734375;violin
86.99171333333334;0.07113808333333793;65;0.7734375;violin
87.07301400000001;0.0813006666666638;74;0.7734375;violin
87.15431466666668;0.0813006666666638;73;0.7734375;violin
87.23561533333334;0.0813006666666638;74;0.7734375;violin
87.316916;0.0813006666666638;66;0.7734375;violin
87.39821666666667;0.08130066666667801;64;0.765625;violin
87.47951733333335;0.07113808333332372;66;0.765625;violin
87.56081800000001;0.0813006666666638;74;0.765625;violin
87.64211866666668;0.0813006666666638;73;0.765625;violin
87.72341933333334;0.0813006666666638;74;0.765625;violin
87.80472;0.08130066666667801;67;0.765625;violin
87.88602066666668;0.0813006666666638;66;0.765625;violin
87.96732133333335;0.07113808333332372;67;0.765625;violin
88.04862200000001;0.0813006666666638;74;0.765625;violin
88.12992266666667;0.0813006666666638;73;0.7578125;violin
88.21122333333334;0.08130066666667801;74;0.7578125;violin
88.29252400000001;0.0813006666666638;68;0.7578125;violin
88.37382466666668;0.0813006666666638;65;0.7578125;violin
88.45512533333334;0.0813006666666638;68;0.7578125;violin
88.536426;0.0813006666666638;74;0.7578125;violin
88.61772666666667;0.08130066666667801;73;0.7578125;violin
88.69902733333335;0.0813006666666638;74;0.7578125;violin
88.78032800000001;0.0813006666666638;77;0.7578125;violin
88.86162866666668;0.0813006666666638;76;0.7578125;violin
88.94292933333334;0.0813006666666638;77;0.7578125;violin
89.02423;0.08130066666667801;74;0.7578125;violin
89.10553066666668;0.0813006666666638;73;0.7578125;violin
89.18683133333334;0.07113808333332372;74;0.7578125;violin
89.26813200000001;0.0813006666666638;69;0.7578125;violin
89.34943266666667;0.0813006666666638;70;0.78125;violin
89.43073333333334;0.08130066666667801;69;0.8046875;violin
89.51203400000001;0.0813006666666638;74;0.8203125;violin
89.59333466666668;0.0813006666666638;76;0.84375;violin
89.67463533333334;0.0813006666666638;74;0.8671875;violin
89.755936;0.0813006666666638;77;0.890625;violin
89.83723666666667;0.08130066666667801;79;0.9140625;violin
89.91853733333335;0.0813006666666638;77;0.9375;violin
89.99983800000001;0.0813006666666638;81;0.9375;violin
90.08113866666667;0.0813006666666638;82;0.9375;violin
90.16243933333334;0.0813006666666638;81;0.9375;violin
90.24374;0.08130066666667801;86;0.9375;violin
90.32504066666668;0.0813006666666638;85;0.8984375;violin
90.40634133333334;0.0813006666666638;86;0.8671875;violin
90.48764200000001;0.0813006666666638;81;0.828125;violin
90.56894266666667;0.0813006666666638;80;0.7890625;violin
90.65024333333334;0.07113808333333793;81;0.7578125;violin
90.73154400000001;0.0813006666666638;77;0.7578125;violin
90.81284466666668;0.0813006666666638;76;0.7578125;violin
90.89414533333334;0.0813006666666638;77;0.7578125;violin
90.975446;0.0813006666666638;74;0.7578125;violin
91.05674666666667;0.08130066666667801;73;0.7578125;violin
91.13804733333335;0.0813006666666638;74;0.7578125;violin
91.21934800000001;0.0813006666666638;69;0.7578125;violin
91.30064866666667;0.0813006666666638;68;0.7578125;violin
91.38194933333334;0.0813006666666638;69;0.7578125;violin
91.46325;0.08130066666667801;65;0.7578125;violin
91.54455066666668;0.0813006666666638;64;0.7578125;violin
91.62585133333334;0.0813006666666638;65;0.7578125;violin
91.70715200000001;0.0813006666666638;64;0.7578125;violin
91.78845266666667;0.0813006666666638;62;0.7578125;violin
91.86975333333334;0.08130066666667801;64;0.7578125;violin
91.95105400000001;0.0813006666666638;62;0.7578125;violin
92.03235466666668;0.0813006666666638;61;0.7578125;violin
92.11365533333334;0.07113808333333793;62;0.7578125;violin
92.194956;0.0813006666666638;57;0.7578125;violin
92.27625666666667;0.08130066666667801;58;0.7578125;violin
92.35755733333335;0.0813006666666638;57;0.7578125;violin
92.43885800000001;0.0813006666666638;62;0.7578125;violin
92.52015866666667;0.0813006666666638;64;0.7578125;violin
92.60145933333334;0.0813006666666638;62;0.7578125;violin
92.68276;0.08130066666667801;64;0.7578125;violin
92.76406066666668;0.0813006666666638;65;0.7578125;violin
92.84536133333334;0.0813006666666638;64;0.765625;violin
92.92666200000001;0.0813006666666638;69;0.765625;violin
93.00796266666667;0.0813006666666638;70;0.765625;violin
93.08926333333334;0.08130066666667801;69;0.7734375;violin
93.17056400000001;0.0813006666666638;74;0.7734375;violin
93.25186466666668;0.0813006666666638;76;0.7734375;violin
93.33316533333334;0.0813006666666638;74;0.78125;violin
93.414466;0.0813006666666638;76;0.78125;violin
93.49576666666667;0.08130066666667801;77;0.78125;violin
93.57706733333335;0.07113808333332372;76;0.7890625;violin
93.65836800000001;0.0813006666666638;81;0.7890625;violin
93.73966866666667;0.0813006666666638;82;0.7890625;violin
93.82096933333334;0.0813006666666638;81;0.7890625;violin
93.90227;0.08130066666667801;80;0.7890625;violin
93.98357066666668;0.0813006666666638;81;0.7890625;violin
94.06487133333334;0.0813006666666638;80;0.7890625;violin
94.146172;0.0813006666666638;81;0.7890625;violin
94.22747266666667;0.0813006666666638;82;0.7890625;violin
94.30877333333333;0.08130066666667801;81;0.7890625;violin
94.39007400000001;0.0813006666666638;79;0.7890625;violin
94.47137466666668;0.0813006666666638;81;0.765625;violin
94.55267533333334;0.0813006666666638;79;0.7421875;violin
94.633976;0.08130066666667801;76;0.7265625;violin
94.71527666666668;0.0813006666666638;77;0.703125;violin
94.79657733333335;0.0813006666666638;76;0.6796875;violin
94.87787800000001;0.0813006666666638;73;0.65625;violin
94.95917866666667;0.0813006666666638;74;0.6328125;violin
95.04047933333334;0.07113808333333793;73;0.609375;violin
95.12178000000002;0.0813006666666638;74;0.609375;violin
95.20308066666668;0.0813006666666638;76;0.609375;violin
95.28438133333334;0.0813006666666638;74;0.609375;violin
95.365682;0.0813006666666638;73;0.609375;violin
95.44698266666667;0.08130066666667801;74;0.609375;violin
95.52828333333335;0.0813006666666638;73;0.609375;violin
95.60958400000001;0.0813006666666638;74;0.609375;violin
95.69088466666668;0.0813006666666638;76;0.609375;violin
95.77218533333334;0.0813006666666638;74;0.609375;violin
95.853486;0.08130066666667801;77;0.609375;violin
95.93478666666668;0.0813006666666638;79;0.6328125;violin
96.01608733333335;0.0813006666666638;77;0.6484375;violin
96.09738800000001;0.0813006666666638;81;0.671875;violin
96.17868866666667;0.0813006666666638;82;0.6875;violin
96.25998933333334;0.08130066666667801;81;0.7109375;violin
96.34129000000001;0.0813006666666638;86;0.7265625;violin
96.42259066666668;0.0813006666666638;85;0.75;violin
96.50389133333334;0.07113808333333793;86;0.7734375;violin
96.585192;0.0813006666666638;82;0.7890625;violin
96.66649266666667;0.08130066666667801;81;0.7890625;violin
96.74779333333335;0.0813006666666638;82;0.7890625;violin
96.82909400000001;0.0813006666666638;77;0.7890625;violin
96.91039466666668;0.0813006666666638;76;0.7890625;violin
96.99169533333334;0.0813006666666638;77;0.7890625;violin
97.072996;0.08130066666667801;74;0.7890625;violin
97.15429666666668;0.0813006666666638;73;0.7890625;violin
97.23559733333335;0.0813006666666638;74;0.78125;violin
97.31689800000001;0.0813006666666638;70;0.7734375;violin
97.39819866666667;0.0813006666666638;69;0.7734375;violin
97.47949933333334;0.08130066666667801;70;0.765625;violin
97.56080000000001;0.0813006666666638;65;0.765625;violin
97.64210066666668;0.0813006666666638;64;0.7578125;violin
97.72340133333334;0.0813006666666638;65;0.75;violin
97.804702;0.0813006666666638;62;0.75;violin
97.88600266666667;0.08130066666667801;61;0.7421875;violin
97.96730333333335;0.0813006666666638;62;0.7421875;violin
98.04860400000001;0.0813006666666638;57;0.734375;violin
98.12990466666668;0.0813006666666638;58;0.734375;violin
98.21120533333334;0.0813006666666638;57;0.734375;violin
98.292506;0.08130066666667801;62;0.734375;violin
98.37380666666668;0.0813006666666638;64;0.734375;violin
98.45510733333334;0.0813006666666638;62;0.734375;violin
98.53640800000001;0.0813006666666638;65;0.734375;violin
98.61770866666667;0.0813006666666638;67;0.734375;violin
98.69900933333334;0.08130066666667801;65;0.734375;violin
98.78031000000001;0.0813006666666638;69;0.734375;violin
98.86161066666668;0.0813006666666638;70;0.7421875;violin
98.94291133333334;0.0813006666666638;69;0.75;violin
99.024212;0.0813006666666638;74;0.75;violin
99.10551266666667;0.08130066666667801;76;0.7578125;violin
99.18681333333335;0.0813006666666638;74;0.765625;violin
99.26811400000001;0.0813006666666638;77;0.7734375;violin
99.34941466666668;0.0813006666666638;79;0.78125;violin
99.43071533333334;0.07113808333333793;77;0.78125;violin
99.512016;0.08130066666667801;81;0.7890625;violin
99.59331666666668;0.0813006666666638;82;0.7890625;violin
99.67461733333334;0.0813006666666638;81;0.7890625;violin
99.75591800000001;0.0813006666666638;79;0.7890625;violin
99.83721866666667;0.0813006666666638;81;0.7890625;violin
99.91851933333334;0.08130066666667801;79;0.7890625;violin
99.99982000000001;0.0813006666666638;76;0.7890625;violin
100.08112066666668;0.0813006666666638;77;0.7734375;violin
100.16242133333334;0.0813006666666638;76;0.7578125;violin
100.243722;0.0813006666666638;73;0.7421875;violin
100.32502266666667;0.08130066666667801;74;0.7265625;violin
100.40632333333335;0.0813006666666638;73;0.7109375;violin
100.48762400000001;0.0813006666666638;69;0.6953125;violin
100.56892466666667;0.0813006666666638;70;0.6796875;violin
100.65022533333334;0.0813006666666638;69;0.65625;violin
100.731526;0.08130066666667801;72;0.640625;violin
100.81282666666668;0.0813006666666638;74;0.625;violin
100.89412733333334;0.07113808333333793;72;0.609375;violin
100.97542800000001;0.0813006666666638;74;0.828125;violin
101.05672866666667;0.0813006666666638;76;0.828125;violin
101.13802933333334;0.08130066666667801;74;0.828125;violin
101.21933000000001;0.0813006666666638;73;0.828125;violin
101.30063066666668;0.0813006666666638;74;0.828125;violin
101.38193133333334;0.0813006666666638;73;0.828125;violin
101.463232;0.0813006666666638;74;0.828125;violin
101.54453266666667;0.08130066666667801;76;0.828125;violin
101.62583333333335;0.0813006666666638;74;0.828125;violin
101.70713400000001;0.0813006666666638;69;0.828125;violin
101.78843466666667;0.0813006666666638;70;0.828125;violin
101.86973533333334;0.0813006666666638;69;0.828125;violin
101.951036;0.08130066666667801;65;0.828125;violin
102.03233666666668;0.0813006666666638;67;0.828125;violin
102.11363733333334;0.0813006666666638;65;0.828125;violin
102.19493800000001;0.0813006666666638;62;0.828125;violin
102.27623866666667;0.08130066666667801;64;0.828125;violin
102.35753933333335;0.07113808333332372;62;0.828125;violin
102.43884000000001;0.0813006666666638;74;0.828125;violin
102.52014066666668;0.0813006666666638;76;0.828125;violin
102.60144133333334;0.0813006666666638;74;0.828125;violin
102.682742;0.08130066666667801;73;0.828125;violin
102.76404266666668;0.0813006666666638;74;0.828125;violin
102.84534333333335;0.0813006666666638;73;0.828125;violin
102.92664400000001;0.0813006666666638;74;0.828125;violin
103.00794466666667;0.0813006666666638;76;0.828125;violin
103.08924533333334;0.08130066666667801;74;0.828125;violin
103.17054600000002;0.0813006666666638;70;0.828125;violin
103.25184666666668;0.0813006666666638;72;0.828125;violin
103.33314733333334;0.0813006666666638;70;0.828125;violin
103.41444800000001;0.0813006666666638;65;0.828125;violin
103.49574866666667;0.08130066666667801;67;0.828125;violin
103.57704933333335;0.0813006666666638;65;0.828125;violin
103.65835000000001;0.0813006666666638;62;0.828125;violin
103.73965066666668;0.0813006666666638;64;0.828125;violin
103.82095133333334;0.07113808333333793;62;0.828125;violin
103.902252;0.08130066666667801;74;0.5859375;violin
103.98355266666668;0.0813006666666638;76;0.5859375;violin
104.06485333333335;0.0813006666666638;74;0.5859375;violin
104.14615400000001;0.0813006666666638;73;0.5859375;violin
104.22745466666667;0.0813006666666638;74;0.5859375;violin
104.30875533333334;0.08130066666667801;73;0.5859375;violin
104.39005600000002;0.0813006666666638;74;0.5859375;violin
104.47135666666668;0.0813006666666638;76;0.5859375;violin
104.55265733333334;0.0813006666666638;74;0.5859375;violin
104.633958;0.0813006666666638;69;0.5859375;violin
104.71525866666667;0.08130066666667801;70;0.5859375;violin
104.79655933333335;0.0813006666666638;69;0.5859375;violin
104.87786000000001;0.0813006666666638;65;0.5859375;violin
104.95916066666668;0.0813006666666638;67;0.5859375;violin
105.04046133333334;0.0813006666666638;65;0.5859375;violin
105.121762;0.08130066666667801;62;0.5859375;violin
105.20306266666668;0.0813006666666638;64;0.5859375;violin
105.28436333333335;0.07113808333332372;62;0.5859375;violin
105.36566400000001;0.0813006666666638;74;0.5859375;violin
105.44696466666667;0.0813006666666638;76;0.5859375;violin
105.52826533333334;0.08130066666667801;74;0.5859375;violin
105.60956600000002;0.0813006666666638;73;0.5859375;violin
105.69086666666668;0.0813006666666638;74;0.5859375;violin
105.77216733333334;0.0813006666666638;73;0.5859375;violin
105.853468;0.0813006666666638;74;0.5859375;violin
105.93476866666667;0.08130066666667801;76;0.5859375;violin
106.01606933333335;0.0813006666666638;74;0.5859375;violin
106.09737000000001;0.0813006666666638;70;0.5859375;violin
106.17867066666668;0.0813006666666638;72;0.5859375;violin
106.25997133333334;0.0813006666666638;70;0.5859375;violin
106.341272;0.08130066666667801;65;0.5859375;violin
106.42257266666668;0.0813006666666638;67;0.5859375;violin
106.50387333333335;0.0813006666666638;65;0.5859375;violin
106.58517400000001;0.0813006666666638;62;0.5859375;violin
106.66647466666667;0.0813006666666638;64;0.5859375;violin
106.74777533333334;0.07113808333333793;62;0.5859375;violin
106.82907600000001;0.0813006666666638;74;0.5859375;violin
106.91037666666668;0.0813006666666638;76;0.5859375;violin
106.99167733333334;0.0813006666666638;74;0.5859375;violin
107.072978;0.0813006666666638;73;0.5859375;violin
107.15427866666667;0.08130066666667801;74;0.5859375;violin
107.23557933333335;0.0813006666666638;73;0.5859375;violin
107.31688000000001;0.0813006666666638;74;0.5859375;violin
107.39818066666668;0.0813006666666638;76;0.59375;violin
107.47948133333334;0.0813006666666638;74;0.6015625;violin
107.560782;0.08130066666667801;69;0.6171875;violin
107.64208266666668;0.0813006666666638;70;0.625;violin
107.72338333333335;0.0813006666666638;69;0.6328125;violin
107.80468400000001;0.0813006666666638;65;0.6484375;violin
107.88598466666667;0.0813006666666638;67;0.65625;violin
107.96728533333334;0.08130066666667801;65;0.6640625;violin
108.04858600000001;0.0813006666666638;62;0.6796875;violin
108.12988666666668;0.0813006666666638;64;0.6875;violin
108.21118733333334;0.07113808333333793;62;0.6953125;violin
108.292488;0.0813006666666638;62;0.7109375;violin
108.37378866666667;0.08130066666667801;64;0.71875;violin
108.45508933333335;0.0813006666666638;62;0.7265625;violin
108.53639000000001;0.0813006666666638;65;0.734375;violin
108.61769066666668;0.0813006666666638;67;0.75;violin
108.69899133333334;0.0813006666666638;65;0.7578125;violin
108.780292;0.08130066666667801;69;0.765625;violin
108.86159266666668;0.0813006666666638;70;0.78125;violin
108.94289333333334;0.0813006666666638;69;0.7890625;violin
109.02419400000001;0.0813006666666638;74;0.7890625;violin
109.10549466666667;0.0813006666666638;76;0.7890625;violin
109.18679533333334;0.08130066666667801;74;0.7890625;violin
109.26809600000001;0.0813006666666638;77;0.7890625;violin
109.34939666666668;0.0813006666666638;79;0.7890625;violin
109.43069733333334;0.0813006666666638;77;0.7890625;violin
109.511998;0.0813006666666638;81;0.7890625;violin
109.59329866666667;0.08130066666667801;82;0.7890625;violin
109.67459933333335;0.0813006666666638;81;0.7890625;violin
109.75590000000001;0.21341424999999958;86;0.828125;violin
110.24370400000001;0.42682849999999917;62;0.7578125;violin
