start;duration;pitch;velocity;instrument
0.0;0.121951;75;0.9453125;violin
0.121951;0.121951;73;0.7890625;violin
0.243902;0.12195100000000003;72;0.7890625;violin
0.36585300000000004;0.10670712500000001;70;0.7890625;violin
0.487804;0.12195100000000003;72;0.9453125;violin
0.609755;0.12195100000000003;70;0.7890625;violin
0.7317060000000001;0.12195100000000003;68;0.7890625;violin
0.8536570000000001;0.10670712500000001;67;0.7890625;violin
0.975608;0.12195100000000014;68;0.9453125;violin
1.0975590000000002;0.12195099999999992;67;0.7890625;violin
1.21951;0.12195099999999992;65;0.7890625;violin
1.341461;0.10670712500000001;63;0.7890625;violin
1.4634120000000002;0.12195099999999992;65;0.9453125;violin
1.585363;0.12195100000000014;63;0.7890625;violin
1.7073140000000002;0.12195099999999992;61;0.7890625;violin
1.8292650000000001;0.10670712500000001;60;0.7890625;violin
1.951216;0.12195100000000014;72;0.9453125;violin
2.073167;0.12195100000000014;70;0.7890625;violin
2.1951180000000003;0.1219509999999997;68;0.7890625;violin
2.317069;0.10670712500000024;67;0.7890625;violin
2.43902;0.12195100000000014;68;0.9453125;violin
2.5609710000000003;0.1219509999999997;67;0.7890625;violin
2.682922;0.12195100000000014;65;0.7890625;violin
2.804873;0.10670712500000024;63;0.7890625;violin
2.9268240000000003;0.12195100000000014;65;0.9453125;violin
3.0487750000000005;0.1219509999999997;63;0.7890625;violin
3.170726;0.12195100000000014;61;0.7890625;violin
3.2926770000000003;0.10670712499999979;60;0.7890625;violin
3.4146280000000004;0.1219509999999997;61;0.9453125;violin
3.536579;0.12195100000000014;60;0.7890625;violin
3.6585300000000003;0.12195100000000014;58;0.7890625;violin
3.7804810000000004;0.10670712499999979;56;0.7890625;violin
3.902432;0.12195100000000014;58;0.6328125;violin
4.024383;0.12195100000000014;57;0.6328125;violin
4.146334;0.12195100000000014;58;0.6328125;violin
4.2682850000000006;0.12195100000000014;60;0.6328125;violin
4.390236000000001;0.12195100000000014;61;0.6328125;violin
4.512187000000001;0.12195099999999925;60;0.6328125;violin
4.634138;0.12195100000000014;61;0.6328125;violin
4.756089;0.10670712499999979;64;0.6328125;violin
4.87804;0.12195100000000014;65;0.6328125;violin
4.9999910000000005;0.12195100000000014;64;0.640625;violin
5.121942000000001;0.12195100000000014;65;0.6484375;violin
5.243893000000001;0.12195099999999925;69;0.65625;violin
5.365844;0.12195100000000014;70;0.6640625;violin
5.487795;0.12195100000000014;69;0.671875;violin
5.609746;0.12195100000000014;70;0.6796875;violin
5.7316970000000005;0.10670712499999979;72;0.6875;violin
5.853648000000001;0.12195100000000014;73;0.6953125;violin
5.975599000000001;0.12195100000000014;72;0.703125;violin
6.097550000000001;0.12195099999999925;73;0.7109375;violin
6.219501;0.12195100000000014;76;0.71875;violin
6.341452;0.12195100000000014;77;0.7265625;violin
6.4634030000000005;0.12195100000000014;76;0.734375;violin
6.585354000000001;0.12195100000000014;77;0.7421875;violin
6.707305000000001;0.12195100000000014;81;0.75;violin
6.829256000000001;0.12195100000000014;82;0.7578125;violin
6.951207000000001;0.12195099999999925;81;0.765625;violin
7.073158;0.12195100000000014;82;0.7734375;violin
7.195109;0.12195100000000014;84;0.78125;violin
7.317060000000001;0.21341425000000047;85;0.7890625;violin
7.804864;0.12195100000000014;85;0.9453125;violin
7.926815;0.12195100000000014;84;0.7890625;violin
8.048766;0.12195100000000103;82;0.7890625;violin
8.170717000000002;0.10670712499999979;80;0.7890625;violin
8.292668;0.12195099999999925;82;0.9453125;violin
8.414619;0.12195100000000103;80;0.7890625;violin
8.536570000000001;0.12195099999999925;79;0.7890625;violin
8.658521;0.10670712499999979;77;0.7890625;violin
8.780472000000001;0.12195099999999925;79;0.9453125;violin
8.902423;0.12195100000000103;77;0.7890625;violin
9.024374000000002;0.12195099999999925;75;0.7890625;violin
9.146325000000001;0.10670712499999979;73;0.7890625;violin
9.268276;0.12195100000000103;75;0.9453125;violin
9.390227000000001;0.12195099999999925;73;0.7890625;violin
9.512178;0.12195100000000103;72;0.7890625;violin
9.634129000000001;0.10670712499999979;70;0.7890625;violin
9.75608;0.12195099999999925;82;0.9453125;violin
9.878031;0.12195100000000103;80;0.7890625;violin
9.999982000000001;0.12195099999999925;79;0.7890625;violin
10.121933;0.10670712499999979;77;0.7890625;violin
10.243884000000001;0.12195099999999925;79;0.9453125;violin
10.365835;0.12195100000000103;77;0.7890625;violin
10.487786000000002;0.12195099999999925;75;0.7890625;violin
10.609737;0.10670712499999979;73;0.7890625;violin
10.731688;0.12195100000000103;75;0.9453125;violin
10.853639000000001;0.12195099999999925;73;0.7890625;violin
10.97559;0.12195100000000103;72;0.7890625;violin
11.097541000000001;0.10670712499999979;70;0.7890625;violin
11.219492;0.12195100000000103;72;0.9453125;violin
11.341443000000002;0.12195099999999925;70;0.7890625;violin
11.463394000000001;0.12195099999999925;68;0.7890625;violin
11.585345;0.10670712500000157;67;0.7890625;violin
11.707296000000001;0.12195099999999925;68;0.6328125;violin
11.829247;0.12195100000000103;67;0.6328125;violin
11.951198000000002;0.12195099999999925;68;0.6328125;violin
12.073149;0.12195100000000103;65;0.6328125;violin
12.195100000000002;0.12195099999999925;63;0.6328125;violin
12.317051000000001;0.12195099999999925;62;0.6328125;violin
12.439002;0.12195100000000103;63;0.6328125;violin
12.560953000000001;0.10670712499999979;72;0.6328125;violin
12.682904;0.12195100000000103;75;0.6328125;violin
12.804855000000002;0.12195099999999925;74;0.6328125;violin
12.926806000000001;0.12195100000000103;75;0.6328125;violin
13.048757000000002;0.12195099999999925;72;0.6328125;violin
13.170708000000001;0.12195099999999925;68;0.6328125;violin
13.292659;0.12195100000000103;67;0.6328125;violin
13.414610000000001;0.12195099999999925;68;0.6328125;violin
13.536561;0.10670712499999979;72;0.6328125;violin
13.658512000000002;0.12195099999999925;80;0.6328125;violin
13.780463000000001;0.12195100000000103;79;0.640625;violin
13.902414000000002;0.12195099999999925;80;0.6484375;violin
14.024365000000001;0.12195099999999925;77;0.6640625;violin
14.146316;0.12195100000000103;75;0.671875;violin
14.268267000000002;0.12195099999999925;74;0.6796875;violin
14.390218;0.12195100000000103;75;0.6875;violin
14.512169000000002;0.10670712499999979;80;0.703125;violin
14.634120000000001;0.12195100000000103;84;0.7109375;violin
14.756071000000002;0.12195099999999925;83;0.71875;violin
14.878022000000001;0.12195099999999925;84;0.7265625;violin
14.999973;0.12195100000000103;80;0.7421875;violin
15.121924000000002;0.12195099999999925;82;0.75;violin
15.243875000000001;0.12195100000000103;84;0.7578125;violin
15.365826000000002;0.12195099999999925;85;0.7734375;violin
15.487777000000001;0.10670712499999979;87;0.78125;violin
15.609728;0.12195100000000103;89;0.7890625;violin
15.731679000000002;0.12195099999999925;88;0.7890625;violin
15.85363;0.12195100000000103;89;0.7890625;violin
15.975581000000002;0.12195099999999925;86;0.7890625;violin
16.097532;0.12195099999999925;86;0.7890625;violin
16.219483;0.12195100000000281;85;0.7890625;violin
16.341434000000003;0.12195099999999925;86;0.7890625;violin
16.463385000000002;0.12195099999999925;83;0.7890625;violin
16.585336;0.12195099999999925;83;0.7890625;violin
16.707287;0.12195099999999925;82;0.7890625;violin
16.829238;0.12195100000000281;83;0.7890625;violin
16.951189000000003;0.12195099999999925;80;0.7890625;violin
17.073140000000002;0.12195099999999925;80;0.7890625;violin
17.195091;0.12195099999999925;79;0.7890625;violin
17.317042;0.12195099999999925;80;0.7890625;violin
17.438993;0.10670712500000334;77;0.7890625;violin
17.560944000000003;0.12195099999999925;77;0.7890625;violin
17.682895000000002;0.12195099999999925;76;0.7890625;violin
17.804846;0.12195099999999925;77;0.7890625;violin
17.926797;0.10670712499999979;72;0.7890625;violin
18.048748000000003;0.12195099999999925;72;0.7890625;violin
18.170699000000003;0.12195099999999925;71;0.7734375;violin
18.292650000000002;0.12195099999999925;72;0.7578125;violin
18.414601;0.10670712499999979;68;0.75;violin
18.536552;0.12195100000000281;68;0.734375;violin
18.658503000000003;0.12195099999999925;67;0.71875;violin
18.780454000000002;0.12195099999999925;68;0.703125;violin
18.902405;0.10670712499999979;65;0.6875;violin
19.024356;0.12195099999999925;65;0.671875;violin
19.146307;0.12195100000000281;64;0.65625;violin
19.268258000000003;0.12195099999999925;65;0.6484375;violin
19.390209000000002;0.10670712499999979;60;0.6328125;violin
19.51216;0.12195099999999925;59;0.6328125;violin
19.634111;0.12195099999999925;58;0.6328125;violin
19.756062;0.12195100000000281;59;0.6328125;violin
19.878013000000003;0.12195099999999925;62;0.6328125;violin
19.999964000000002;0.12195099999999925;65;0.6328125;violin
20.121915;0.12195099999999925;64;0.6328125;violin
20.243866;0.12195100000000281;65;0.6328125;violin
20.365817000000003;0.10670712499999979;68;0.6328125;violin
20.487768000000003;0.12195099999999925;71;0.6328125;violin
20.609719000000002;0.12195099999999925;70;0.6328125;violin
20.73167;0.12195099999999925;71;0.6328125;violin
20.853621;0.10670712499999979;74;0.6328125;violin
20.975572000000003;0.12195099999999925;77;0.6328125;violin
21.097523000000002;0.12195099999999925;76;0.6328125;violin
21.219474;0.12195099999999925;77;0.6328125;violin
21.341425;0.10670712499999979;80;0.6328125;violin
21.463376;0.12195100000000281;84;0.6328125;violin
21.585327000000003;0.12195099999999925;83;0.6328125;violin
21.707278000000002;0.12195099999999925;84;0.6328125;violin
21.829229;0.10670712499999979;80;0.6328125;violin
21.95118;0.12195100000000281;75;0.6328125;violin
22.073131000000004;0.12195099999999925;74;0.6328125;violin
22.195082000000003;0.12195099999999925;75;0.6328125;violin
22.317033000000002;0.10670712499999979;72;0.6328125;violin
22.438984;0.12195099999999925;68;0.6328125;violin
22.560935;0.12195100000000281;67;0.6328125;violin
22.682886000000003;0.12195099999999925;68;0.6328125;violin
22.804837000000003;0.10670712499999979;63;0.6328125;violin
22.926788000000002;0.12195099999999925;60;0.6328125;violin
23.048739;0.12195099999999925;59;0.6328125;violin
23.17069;0.12195100000000281;60;0.6328125;violin
23.292641000000003;0.10670712499999979;56;0.6328125;violin
23.414592000000003;0.12195099999999925;55;0.6328125;violin
23.536543;0.12195099999999925;56;0.6328125;violin
23.658494;0.12195100000000281;58;0.6328125;violin
23.780445000000004;0.12195099999999925;60;0.6328125;violin
23.902396000000003;0.12195099999999925;61;0.6328125;violin
24.024347000000002;0.12195099999999925;64;0.6328125;violin
24.146298;0.12195099999999925;67;0.6328125;violin
24.268249;0.10670712499999979;70;0.6328125;violin
24.390200000000004;0.12195099999999925;73;0.6328125;violin
24.512151000000003;0.12195099999999925;72;0.6328125;violin
24.634102000000002;0.12195099999999925;73;0.6328125;violin
24.756053;0.12195099999999925;70;0.6328125;violin
24.878004;0.12195100000000281;67;0.6328125;violin
24.999955000000003;0.12195099999999925;64;0.6328125;violin
25.121906000000003;0.12195099999999925;61;0.6328125;violin
25.243857000000002;0.10670712499999979;58;0.6328125;violin
25.365808;0.12195099999999925;56;0.6328125;violin
25.487759;0.12195100000000281;58;0.6328125;violin
25.609710000000003;0.12195099999999925;60;0.6328125;violin
25.731661000000003;0.12195099999999925;61;0.6328125;violin
25.853612000000002;0.12195099999999925;60;0.6328125;violin
25.975563;0.12195100000000281;64;0.6328125;violin
26.097514000000004;0.12195099999999925;65;0.6328125;violin
26.219465000000003;0.10670712499999979;68;0.6328125;violin
26.341416000000002;0.12195099999999925;72;0.6328125;violin
26.463367;0.12195099999999925;71;0.6328125;violin
26.585318;0.12195100000000281;72;0.6328125;violin
26.707269000000004;0.12195099999999925;68;0.6328125;violin
26.829220000000003;0.12195099999999925;65;0.6328125;violin
26.951171000000002;0.12195099999999925;60;0.6328125;violin
27.073122;0.12195099999999925;58;0.6328125;violin
27.195073;0.10670712500000334;56;0.6328125;violin
27.317024000000004;0.12195099999999925;58;0.6328125;violin
27.438975000000003;0.12195099999999925;67;0.6328125;violin
27.560926000000002;0.12195099999999925;73;0.6328125;violin
27.682877;0.12195100000000281;67;0.6328125;violin
27.804828000000004;0.12195099999999925;58;0.6328125;violin
27.926779000000003;0.10670712499999979;67;0.6328125;violin
28.048730000000003;0.12195099999999925;73;0.6328125;violin
28.170681000000002;0.10670712499999979;67;0.6328125;violin
28.292632;0.12195100000000281;59;0.6328125;violin
28.414583000000004;0.12195099999999925;68;0.6484375;violin
28.536534000000003;0.12195099999999925;74;0.671875;violin
28.658485000000002;0.12195099999999925;68;0.6875;violin
28.780436;0.12195099999999925;59;0.7109375;violin
28.902387;0.10670712500000334;68;0.7265625;violin
29.024338000000004;0.12195099999999925;74;0.75;violin
29.146289000000003;0.10670712499999979;68;0.7734375;violin
29.268240000000002;0.12195099999999925;60;0.7890625;violin
29.390191;0.12195100000000281;67;0.7890625;violin
29.512142000000004;0.12195099999999925;72;0.7890625;violin
29.634093000000004;0.12195099999999925;76;0.7890625;violin
29.756044000000003;0.12195099999999925;76;0.7890625;violin
29.877995000000002;0.12195099999999925;72;0.7890625;violin
29.999946;0.12195100000000281;67;0.7890625;violin
30.121897000000004;0.10670712499999979;60;0.7890625;violin
30.243848000000003;0.12195099999999925;60;0.7890625;violin
30.365799000000003;0.10670712499999979;67;0.7890625;violin
30.487750000000002;0.060975500000001404;72;0.7890625;violin
30.609701;0.060975500000001404;72;0.7890625;violin
30.731652000000004;0.21341424999999958;72;0.7890625;violin
31.219456;0.12195100000000281;75;0.7890625;violin
31.341407000000004;0.12195099999999925;74;0.7890625;violin
31.463358000000003;0.12195099999999925;75;0.7890625;violin
31.585309000000002;0.12195099999999925;79;0.7890625;violin
31.70726;0.12195100000000281;80;0.7890625;violin
31.829211000000004;0.12195099999999925;79;0.7890625;violin
31.951162000000004;0.1219509999999957;80;0.7890625;violin
32.073113;0.12195100000000281;83;0.7890625;violin
32.195064;0.12195100000000281;84;0.7890625;violin
32.317015000000005;0.1219509999999957;83;0.7890625;violin
32.438966;0.12195100000000281;84;0.7890625;violin
32.560917;0.12195100000000281;80;0.7890625;violin
32.682868000000006;0.1219509999999957;75;0.7890625;violin
32.804819;0.12195100000000281;74;0.7890625;violin
32.926770000000005;0.1219509999999957;75;0.7890625;violin
33.048721;0.10670712499999979;72;0.7890625;violin
33.170672;0.12195100000000281;68;0.7890625;violin
33.292623000000006;0.1219509999999957;67;0.7890625;violin
33.414574;0.12195100000000281;68;0.7890625;violin
33.536525000000005;0.1219509999999957;65;0.7890625;violin
33.658476;0.12195100000000281;63;0.7890625;violin
33.780427;0.12195100000000281;62;0.7890625;violin
33.902378000000006;0.1219509999999957;63;0.7890625;violin
34.024329;0.10670712499999979;60;0.7890625;violin
34.146280000000004;0.1219509999999957;56;0.7890625;violin
34.268231;0.12195100000000281;55;0.7890625;violin
34.390182;0.12195100000000281;56;0.7890625;violin
34.512133000000006;0.1219509999999957;60;0.7890625;violin
34.634084;0.12195100000000281;63;0.7890625;violin
34.756035000000004;0.1219509999999957;62;0.7890625;violin
34.877986;0.12195100000000281;63;0.7890625;violin
34.999937;0.10670712499999979;68;0.7890625;violin
35.121888000000006;0.1219509999999957;67;0.7890625;violin
35.243839;0.12195100000000281;66;0.7890625;violin
35.365790000000004;0.1219509999999957;67;0.7890625;violin
35.487741;0.12195100000000281;69;0.7890625;violin
35.609692;0.12195100000000281;70;0.7890625;violin
35.731643000000005;0.1219509999999957;69;0.7890625;violin
35.853594;0.12195100000000281;70;0.7890625;violin
35.975545000000004;0.10670712499999979;74;0.7890625;violin
36.09749600000001;0.1219509999999957;75;0.7890625;violin
36.219447;0.12195100000000281;74;0.7890625;violin
36.341398000000005;0.1219509999999957;75;0.7890625;violin
36.463349;0.12195100000000281;78;0.7890625;violin
36.585300000000004;0.12195100000000281;79;0.7890625;violin
36.70725100000001;0.1219509999999957;78;0.7890625;violin
36.829202;0.12195100000000281;79;0.7890625;violin
36.951153000000005;0.1219509999999957;81;0.7890625;violin
37.073104;0.12195100000000281;82;0.7890625;violin
37.195055;0.12195100000000281;81;0.7890625;violin
37.317006000000006;0.1219509999999957;82;0.7890625;violin
37.438957;0.12195100000000281;84;0.7890625;violin
37.560908000000005;0.1219509999999957;85;0.7890625;violin
37.682859;0.12195100000000281;84;0.7890625;violin
37.80481;0.12195100000000281;85;0.7890625;violin
37.926761000000006;0.10670712499999979;82;0.7890625;violin
38.048712;0.12195100000000281;79;0.7890625;violin
38.170663000000005;0.1219509999999957;78;0.7890625;violin
38.292614;0.12195100000000281;79;0.7890625;violin
38.414565;0.12195100000000281;75;0.7890625;violin
38.536516000000006;0.1219509999999957;73;0.7890625;violin
38.658467;0.12195100000000281;72;0.7890625;violin
38.780418000000004;0.1219509999999957;73;0.7890625;violin
38.902369;0.10670712499999979;70;0.7890625;violin
39.02432;0.12195100000000281;72;0.7890625;violin
39.146271000000006;0.1219509999999957;71;0.7890625;violin
39.268222;0.12195100000000281;72;0.7890625;violin
39.390173000000004;0.1219509999999957;68;0.7890625;violin
39.512124;0.12195100000000281;63;0.7890625;violin
39.634075;0.12195100000000281;62;0.7890625;violin
39.756026000000006;0.1219509999999957;63;0.7890625;violin
39.877977;0.10670712499999979;60;0.7890625;violin
39.999928000000004;0.12195100000000281;56;0.7890625;violin
40.12187900000001;0.1219509999999957;55;0.7890625;violin
40.24383;0.12195100000000281;56;0.7890625;violin
40.365781000000005;0.1219509999999957;60;0.7890625;violin
40.487732;0.12195100000000281;63;0.7890625;violin
40.609683000000004;0.12195100000000281;62;0.7890625;violin
40.73163400000001;0.1219509999999957;63;0.7890625;violin
40.853585;0.10670712499999979;68;0.7890625;violin
40.975536000000005;0.1219509999999957;70;0.7890625;violin
41.097487;0.12195100000000281;69;0.7890625;violin
41.219438000000004;0.12195100000000281;70;0.7890625;violin
41.34138900000001;0.1219509999999957;67;0.7890625;violin
41.46334;0.12195100000000281;63;0.7890625;violin
41.585291000000005;0.1219509999999957;62;0.7890625;violin
41.707242;0.12195100000000281;63;0.7890625;violin
41.829193000000004;0.10670712499999979;67;0.7890625;violin
41.951144000000006;0.1219509999999957;70;0.7890625;violin
42.073095;0.12195100000000281;69;0.7890625;violin
42.195046000000005;0.1219509999999957;70;0.7890625;violin
42.316997;0.12195100000000281;75;0.7890625;violin
42.438948;0.12195100000000281;79;0.7890625;violin
42.560899000000006;0.1219509999999957;78;0.7890625;violin
42.68285;0.12195100000000281;79;0.7890625;violin
42.804801000000005;0.10670712499999979;82;0.7890625;violin
42.926752;0.12195100000000281;82;0.9453125;violin
43.048703;0.12195100000000281;80;0.7890625;violin
43.170654000000006;0.1219509999999957;79;0.7890625;violin
43.292605;0.10670712499999979;77;0.7890625;violin
43.414556000000005;0.12195100000000281;79;0.9453125;violin
43.53650700000001;0.1219509999999957;77;0.7890625;violin
43.658458;0.12195100000000281;75;0.7890625;violin
43.780409000000006;0.10670712499999979;74;0.7890625;violin
43.90236;0.12195100000000281;75;0.9453125;violin
44.024311000000004;0.12195100000000281;74;0.7890625;violin
44.14626200000001;0.1219509999999957;72;0.7890625;violin
44.268213;0.10670712499999979;70;0.7890625;violin
44.390164000000006;0.1219509999999957;72;0.9453125;violin
44.512115;0.12195100000000281;68;0.7890625;violin
44.634066000000004;0.12195100000000281;65;0.7890625;violin
44.75601700000001;0.1219509999999957;62;0.7890625;violin
44.877968;0.12195100000000281;63;0.6328125;violin
44.999919000000006;0.1219509999999957;65;0.6328125;violin
45.12187;0.12195100000000281;67;0.6328125;violin
45.243821000000004;0.10670712499999979;68;0.6328125;violin
45.36577200000001;0.1219509999999957;67;0.6328125;violin
45.487723;0.12195100000000281;68;0.6328125;violin
45.609674000000005;0.1219509999999957;70;0.6484375;violin
45.731625;0.10670712499999979;72;0.6640625;violin
45.853576000000004;0.12195100000000281;70;0.6796875;violin
45.97552700000001;0.1219509999999957;72;0.6953125;violin
46.097478;0.12195100000000281;74;0.7109375;violin
46.219429000000005;0.10670712499999979;75;0.7265625;violin
46.34138;0.12195100000000281;73;0.7421875;violin
46.463331000000004;0.12195100000000281;72;0.7578125;violin
46.58528200000001;0.1219509999999957;73;0.7734375;violin
46.707233;0.10670712499999979;70;0.7890625;violin
46.829184000000005;0.1219509999999957;75;0.7890625;violin
46.951135;0.12195100000000281;74;0.7890625;violin
47.073086;0.12195100000000281;75;0.7890625;violin
47.195037000000006;0.1219509999999957;79;0.7890625;violin
47.316988;0.12195100000000281;80;0.7890625;violin
47.438939000000005;0.12195100000000281;79;0.7890625;violin
47.56089000000001;0.1219509999999957;80;0.7890625;violin
47.682841;0.12195100000000281;83;0.7890625;violin
47.804792000000006;0.1219509999999957;84;0.7890625;violin
47.926743;0.12195100000000281;83;0.7890625;violin
48.048694000000005;0.12195100000000281;84;0.7890625;violin
48.17064500000001;0.1219509999999957;80;0.7890625;violin
48.292596;0.12195100000000281;75;0.7890625;violin
48.414547000000006;0.1219509999999957;74;0.7890625;violin
48.536498;0.12195100000000281;75;0.7890625;violin
48.658449000000005;0.10670712499999979;72;0.7890625;violin
48.78040000000001;0.1219509999999957;68;0.7890625;violin
48.902351;0.12195100000000281;67;0.7890625;violin
49.024302000000006;0.1219509999999957;68;0.7890625;violin
49.146253;0.12195100000000281;65;0.7890625;violin
49.268204000000004;0.12195100000000281;63;0.7890625;violin
49.39015500000001;0.1219509999999957;62;0.7890625;violin
49.512106;0.12195100000000281;63;0.7890625;violin
49.634057000000006;0.10670712499999979;60;0.7890625;violin
49.756008;0.12195100000000281;56;0.7890625;violin
49.877959000000004;0.12195100000000281;55;0.7890625;violin
49.99991000000001;0.1219509999999957;56;0.7890625;violin
50.121861;0.12195100000000281;60;0.7890625;violin
50.243812000000005;0.1219509999999957;63;0.7890625;violin
50.365763;0.12195100000000281;62;0.7890625;violin
50.487714000000004;0.12195100000000281;63;0.7890625;violin
50.60966500000001;0.10670712499999979;68;0.7890625;violin
50.731616;0.12195100000000281;67;0.7890625;violin
50.853567000000005;0.1219509999999957;66;0.7890625;violin
50.975518;0.12195100000000281;67;0.7890625;violin
51.097469000000004;0.12195100000000281;69;0.7890625;violin
51.21942000000001;0.1219509999999957;70;0.7890625;violin
51.341371;0.12195100000000281;69;0.7890625;violin
51.463322000000005;0.12195100000000281;70;0.7890625;violin
51.58527300000001;0.10670712499999979;74;0.7890625;violin
51.707224000000004;0.12195100000000281;75;0.7890625;violin
51.829175000000006;0.1219509999999957;74;0.7890625;violin
51.951126;0.12195100000000281;75;0.7890625;violin
52.073077000000005;0.12195100000000281;78;0.7890625;violin
52.19502800000001;0.1219509999999957;79;0.7890625;violin
52.316979;0.12195100000000281;78;0.7890625;violin
52.438930000000006;0.1219509999999957;79;0.7890625;violin
52.560881;0.12195100000000281;81;0.7890625;violin
52.682832000000005;0.12195100000000281;82;0.7890625;violin
52.80478300000001;0.1219509999999957;81;0.7890625;violin
52.926734;0.12195100000000281;82;0.7890625;violin
53.048685000000006;0.1219509999999957;84;0.7890625;violin
53.170636;0.12195100000000281;85;0.7890625;violin
53.292587000000005;0.12195100000000281;84;0.7890625;violin
53.41453800000001;0.1219509999999957;85;0.7890625;violin
53.536489;0.10670712499999979;82;0.7890625;violin
53.658440000000006;0.1219509999999957;79;0.7890625;violin
53.780391;0.12195100000000281;78;0.7890625;violin
53.902342000000004;0.12195100000000281;79;0.7890625;violin
54.02429300000001;0.1219509999999957;75;0.7890625;violin
54.146244;0.12195100000000281;73;0.7890625;violin
54.268195000000006;0.1219509999999957;72;0.7890625;violin
54.390146;0.12195100000000281;73;0.7890625;violin
54.512097000000004;0.10670712499999979;70;0.7890625;violin
54.63404800000001;0.1219509999999957;72;0.7890625;violin
54.755999;0.12195100000000281;71;0.7890625;violin
54.877950000000006;0.12195100000000281;72;0.7890625;violin
54.99990100000001;0.1219509999999957;68;0.7890625;violin
55.121852000000004;0.12195100000000281;63;0.7890625;violin
55.24380300000001;0.1219509999999957;62;0.7890625;violin
55.365754;0.12195100000000281;63;0.7890625;violin
55.487705000000005;0.10670712499999979;68;0.7890625;violin
55.60965600000001;0.1219509999999957;72;0.7890625;violin
55.731607000000004;0.12195100000000281;71;0.7890625;violin
55.85355800000001;0.1219509999999957;72;0.7890625;violin
55.975509;0.12195100000000281;75;0.7890625;violin
56.097460000000005;0.12195100000000281;80;0.7890625;violin
56.21941100000001;0.1219509999999957;79;0.7890625;violin
56.341362000000004;0.12195100000000281;80;0.7890625;violin
56.46331300000001;0.1219509999999957;84;0.7890625;violin
56.585264;0.12195100000000281;82;0.7890625;violin
56.707215000000005;0.12195100000000281;81;0.7890625;violin
56.82916600000001;0.1219509999999957;82;0.7890625;violin
56.951117;0.12195100000000281;79;0.7890625;violin
57.073068000000006;0.1219509999999957;75;0.7890625;violin
57.195019;0.12195100000000281;74;0.7890625;violin
57.316970000000005;0.12195100000000281;75;0.7890625;violin
57.43892100000001;0.10670712499999979;70;0.7890625;violin
57.560872;0.12195100000000281;67;0.7890625;violin
57.682823000000006;0.1219509999999957;66;0.7890625;violin
57.804774;0.12195100000000281;67;0.7890625;violin
57.926725000000005;0.12195100000000281;70;0.7890625;violin
58.04867600000001;0.1219509999999957;75;0.7890625;violin
58.170627;0.12195100000000281;74;0.7890625;violin
58.292578000000006;0.1219509999999957;75;0.7890625;violin
58.414529;0.1067071250000069;79;0.7890625;violin
58.536480000000005;0.12195100000000281;77;0.7890625;violin
58.65843100000001;0.1219509999999957;79;0.7890625;violin
58.780382;0.12195100000000281;80;0.7890625;violin
58.902333000000006;0.10670712499999979;82;0.7890625;violin
59.02428400000001;0.1219509999999957;84;0.7890625;violin
59.146235000000004;0.12195100000000281;80;0.7890625;violin
59.26818600000001;0.1219509999999957;77;0.7890625;violin
59.390137;0.12195100000000281;74;0.7890625;violin
59.512088000000006;0.12195100000000281;80;0.7890625;violin
59.63403900000001;0.1219509999999957;77;0.7890625;violin
59.755990000000004;0.12195100000000281;74;0.7890625;violin
59.87794100000001;0.1219509999999957;70;0.7890625;violin
59.999892;0.12195100000000281;77;0.7890625;violin
60.121843000000005;0.12195100000000281;74;0.7890625;violin
60.24379400000001;0.1219509999999957;70;0.7890625;violin
60.365745000000004;0.12195100000000281;74;0.7890625;violin
60.48769600000001;0.1219509999999957;75;0.7890625;violin
60.609647;0.12195100000000281;77;0.7890625;violin
60.731598000000005;0.12195100000000281;79;0.7890625;violin
60.85354900000001;0.1219509999999957;80;0.7890625;violin
60.975500000000004;0.12195100000000281;82;0.7890625;violin
61.09745100000001;0.1219509999999957;84;0.7890625;violin
61.219402;0.12195100000000281;85;0.7890625;violin
61.341353000000005;0.10670712499999979;84;0.7890625;violin
61.46330400000001;0.1219509999999957;82;0.7890625;violin
61.585255000000004;0.12195100000000281;80;0.7890625;violin
61.707206000000006;0.1219509999999957;79;0.7890625;violin
61.829157;0.12195100000000281;77;0.7890625;violin
61.951108000000005;0.12195100000000281;75;0.7890625;violin
62.07305900000001;0.1219509999999957;74;0.7890625;violin
62.19501;0.12195100000000281;75;0.7890625;violin
62.316961000000006;0.10670712499999979;74;0.7890625;violin
62.438912;0.12195100000000281;75;0.9453125;violin
62.560863000000005;0.12195100000000281;73;0.7890625;violin
62.68281400000001;0.1219509999999957;72;0.7890625;violin
62.804765;0.10670712499999979;70;0.7890625;violin
62.926716000000006;0.12195100000000281;72;0.9453125;violin
63.04866700000001;0.1219509999999957;70;0.7890625;violin
63.170618000000005;0.12195100000000281;68;0.7890625;violin
63.29256900000001;0.10670712499999979;67;0.7890625;violin
63.41452;0.12195100000000281;68;0.9453125;violin
63.536471000000006;0.12195100000000281;67;0.7890625;violin
63.65842200000001;0.1219509999999957;65;0.7890625;violin
63.780373000000004;0.10670712499999979;63;0.7890625;violin
63.90232400000001;0.1219509999999957;65;0.9453125;violin
64.024275;0.1219509999999957;63;0.7890625;violin
64.146226;0.12195100000000991;61;0.7890625;violin
64.26817700000001;0.10670712499999979;60;0.7890625;violin
64.390128;0.1219509999999957;72;0.9453125;violin
64.512079;0.12195100000000991;70;0.7890625;violin
64.63403000000001;0.1219509999999957;68;0.7890625;violin
64.755981;0.10670712499999979;67;0.7890625;violin
64.877932;0.12195100000000991;68;0.9453125;violin
64.99988300000001;0.1219509999999957;67;0.7890625;violin
65.121834;0.1219509999999957;65;0.7890625;violin
65.243785;0.10670712499999979;63;0.7890625;violin
65.36573600000001;0.1219509999999957;65;0.9453125;violin
65.48768700000001;0.1219509999999957;63;0.7890625;violin
65.609638;0.1219509999999957;61;0.7890625;violin
65.731589;0.10670712499999979;60;0.7890625;violin
65.85354000000001;0.1219509999999957;61;0.9453125;violin
65.975491;0.1219509999999957;60;0.7890625;violin
66.097442;0.12195100000000991;58;0.7890625;violin
66.21939300000001;0.10670712499999979;56;0.7890625;violin
66.341344;0.1219509999999957;58;0.6328125;violin
66.463295;0.12195100000000991;57;0.6328125;violin
66.58524600000001;0.1219509999999957;58;0.6328125;violin
66.70719700000001;0.1219509999999957;60;0.6328125;violin
66.829148;0.1219509999999957;61;0.6328125;violin
66.951099;0.12195100000000991;60;0.6328125;violin
67.07305000000001;0.1219509999999957;61;0.6328125;violin
67.195001;0.10670712499999979;64;0.6328125;violin
67.316952;0.12195100000000991;65;0.6328125;violin
67.43890300000001;0.1219509999999957;64;0.640625;violin
67.560854;0.1219509999999957;65;0.6484375;violin
67.682805;0.12195100000000991;69;0.65625;violin
67.80475600000001;0.1219509999999957;70;0.6640625;violin
67.92670700000001;0.1219509999999957;69;0.671875;violin
68.048658;0.12195100000000991;70;0.6796875;violin
68.17060900000001;0.10670712499999979;72;0.6875;violin
68.29256000000001;0.1219509999999957;73;0.6953125;violin
68.414511;0.1219509999999957;72;0.703125;violin
68.536462;0.12195100000000991;73;0.7109375;violin
68.65841300000001;0.1219509999999957;76;0.71875;violin
68.780364;0.1219509999999957;77;0.7265625;violin
68.902315;0.12195100000000991;76;0.734375;violin
69.02426600000001;0.1219509999999957;77;0.7421875;violin
69.14621700000001;0.1219509999999957;81;0.75;violin
69.268168;0.12195100000000991;82;0.7578125;violin
69.39011900000001;0.1219509999999957;81;0.765625;violin
69.51207000000001;0.1219509999999957;82;0.7734375;violin
69.634021;0.1219509999999957;84;0.78125;violin
69.755972;0.21341424999999958;85;0.7890625;violin
70.24377600000001;0.1219509999999957;85;0.9453125;violin
70.365727;0.1219509999999957;84;0.7890625;violin
70.487678;0.12195100000000991;82;0.7890625;violin
70.60962900000001;0.10670712499999979;80;0.7890625;violin
70.73158000000001;0.1219509999999957;82;0.9453125;violin
70.853531;0.1219509999999957;80;0.7890625;violin
70.975482;0.12195100000000991;79;0.7890625;violin
71.09743300000001;0.10670712499999979;77;0.7890625;violin
71.219384;0.1219509999999957;79;0.9453125;violin
71.341335;0.12195100000000991;77;0.7890625;violin
71.46328600000001;0.1219509999999957;75;0.7890625;violin
71.585237;0.10670712499999979;73;0.7890625;violin
71.707188;0.12195100000000991;75;0.9453125;violin
71.82913900000001;0.1219509999999957;73;0.7890625;violin
71.95109000000001;0.1219509999999957;72;0.7890625;violin
72.073041;0.10670712499999979;70;0.7890625;violin
72.19499200000001;0.1219509999999957;82;0.9453125;violin
72.31694300000001;0.1219509999999957;80;0.7890625;violin
72.438894;0.1219509999999957;79;0.7890625;violin
72.560845;0.10670712499999979;77;0.7890625;violin
72.68279600000001;0.1219509999999957;79;0.9453125;violin
72.804747;0.1219509999999957;77;0.7890625;violin
72.926698;0.12195100000000991;75;0.7890625;violin
73.04864900000001;0.10670712499999979;73;0.7890625;violin
73.17060000000001;0.1219509999999957;75;0.9453125;violin
73.292551;0.12195100000000991;73;0.7890625;violin
73.41450200000001;0.1219509999999957;72;0.7890625;violin
73.53645300000001;0.10670712499999979;70;0.7890625;violin
73.658404;0.1219509999999957;72;0.9453125;violin
73.780355;0.12195100000000991;70;0.7890625;violin
73.90230600000001;0.1219509999999957;68;0.7890625;violin
74.024257;0.10670712499999979;67;0.7890625;violin
74.146208;0.12195100000000991;68;0.6328125;violin
74.26815900000001;0.1219509999999957;67;0.6328125;violin
74.39011;0.1219509999999957;68;0.6328125;violin
74.512061;0.12195100000000991;65;0.6328125;violin
74.63401200000001;0.1219509999999957;63;0.6328125;violin
74.75596300000001;0.1219509999999957;62;0.6328125;violin
74.877914;0.1219509999999957;63;0.6328125;violin
74.999865;0.10670712499999979;72;0.6328125;violin
75.12181600000001;0.1219509999999957;75;0.6328125;violin
75.243767;0.1219509999999957;74;0.6328125;violin
75.365718;0.12195100000000991;75;0.6328125;violin
75.48766900000001;0.1219509999999957;72;0.6328125;violin
75.60962;0.1219509999999957;68;0.6328125;violin
75.731571;0.12195100000000991;67;0.6328125;violin
75.85352200000001;0.1219509999999957;68;0.6328125;violin
75.97547300000001;0.10670712499999979;72;0.6328125;violin
76.097424;0.12195100000000991;80;0.6328125;violin
76.21937500000001;0.1219509999999957;79;0.6328125;violin
76.34132600000001;0.1219509999999957;80;0.6328125;violin
76.463277;0.1219509999999957;77;0.6328125;violin
76.585228;0.12195100000000991;75;0.6328125;violin
76.70717900000001;0.1219509999999957;74;0.6328125;violin
76.82913;0.1219509999999957;75;0.6328125;violin
76.951081;0.12195100000000991;80;0.6328125;violin
77.07303200000001;0.1219509999999957;84;0.6328125;violin
77.19498300000001;0.1219509999999957;83;0.6484375;violin
77.316934;0.12195100000000991;84;0.671875;violin
77.43888500000001;0.1219509999999957;80;0.6875;violin
77.56083600000001;0.1219509999999957;82;0.7109375;violin
77.682787;0.1219509999999957;84;0.7265625;violin
77.804738;0.12195100000000991;85;0.75;violin
77.92668900000001;0.10670712499999979;87;0.7734375;violin
78.04864;0.1219509999999957;89;0.7890625;violin
78.170591;0.12195100000000991;88;0.7890625;violin
78.29254200000001;0.1219509999999957;86;0.7890625;violin
78.41449300000001;0.1219509999999957;85;0.7890625;violin
78.536444;0.12195100000000991;80;0.7890625;violin
78.65839500000001;0.1219509999999957;79;0.7890625;violin
78.78034600000001;0.1219509999999957;80;0.7890625;violin
78.902297;0.1219509999999957;77;0.7890625;violin
79.024248;0.12195100000000991;73;0.7890625;violin
79.14619900000001;0.1219509999999957;72;0.7890625;violin
79.26815;0.1219509999999957;73;0.7890625;violin
79.390101;0.12195100000000991;77;0.7890625;violin
79.51205200000001;0.1219509999999957;80;0.7890625;violin
79.634003;0.1219509999999957;79;0.7890625;violin
79.755954;0.12195100000000991;80;0.7890625;violin
79.87790500000001;0.1219509999999957;85;0.7890625;violin
79.99985600000001;0.1219509999999957;87;0.7890625;violin
80.121807;0.12195100000000991;86;0.7890625;violin
80.24375800000001;0.1219509999999957;87;0.7890625;violin
80.36570900000001;0.10670712499999979;84;0.7890625;violin
80.48766;0.1219509999999957;80;0.7890625;violin
80.609611;0.12195100000000991;79;0.7890625;violin
80.73156200000001;0.1219509999999957;80;0.7890625;violin
80.853513;0.10670712499999979;77;0.7890625;violin
80.975464;0.12195100000000991;75;0.7890625;violin
81.09741500000001;0.1219509999999957;74;0.7890625;violin
81.21936600000001;0.1219509999999957;75;0.7890625;violin
81.341317;0.10670712499999979;80;0.7890625;violin
81.46326800000001;0.1219509999999957;84;0.7890625;violin
81.58521900000001;0.1219509999999957;83;0.7890625;violin
81.70717;0.1219509999999957;84;0.7890625;violin
81.829121;0.10670712499999979;80;0.7890625;violin
81.95107200000001;0.1219509999999957;85;0.7890625;violin
82.073023;0.1219509999999957;84;0.7890625;violin
82.194974;0.12195100000000991;85;0.7890625;violin
82.31692500000001;0.10670712499999979;82;0.7890625;violin
82.43887600000001;0.1219509999999957;79;0.7890625;violin
82.560827;0.12195100000000991;78;0.7890625;violin
82.68277800000001;0.1219509999999957;79;0.7890625;violin
82.80472900000001;0.10670712499999979;75;0.7890625;violin
82.92668;0.1219509999999957;73;0.7890625;violin
83.048631;0.12195100000000991;72;0.7890625;violin
83.17058200000001;0.1219509999999957;73;0.7890625;violin
83.292533;0.10670712499999979;70;0.7890625;violin
83.414484;0.12195100000000991;67;0.7890625;violin
83.53643500000001;0.1219509999999957;66;0.7890625;violin
83.65838600000001;0.1219509999999957;67;0.7890625;violin
83.780337;0.10670712499999979;63;0.7890625;violin
83.90228800000001;0.1219509999999957;68;0.6328125;violin
84.02423900000001;0.1219509999999957;67;0.6328125;violin
84.14619;0.12195100000000991;68;0.6328125;violin
84.26814100000001;0.10670712499999979;65;0.6328125;violin
84.39009200000001;0.1219509999999957;63;0.6328125;violin
84.512043;0.1219509999999957;62;0.6328125;violin
84.633994;0.12195100000000991;63;0.6328125;violin
84.75594500000001;0.10670712499999979;72;0.6328125;violin
84.877896;0.1219509999999957;75;0.6328125;violin
84.999847;0.12195100000000991;74;0.6328125;violin
85.12179800000001;0.1219509999999957;75;0.6328125;violin
85.24374900000001;0.10670712499999979;72;0.6328125;violin
85.3657;0.12195100000000991;68;0.6328125;violin
85.48765100000001;0.1219509999999957;72;0.6328125;violin
85.60960200000001;0.1219509999999957;73;0.6484375;violin
85.731553;0.10670712499999979;75;0.6640625;violin
85.853504;0.12195100000000991;77;0.6875;violin
85.97545500000001;0.1219509999999957;76;0.703125;violin
86.097406;0.1219509999999957;77;0.71875;violin
86.219357;0.10670712499999979;79;0.734375;violin
86.34130800000001;0.1219509999999957;80;0.7578125;violin
86.46325900000001;0.1219509999999957;79;0.7734375;violin
86.58521;0.12195100000000991;80;0.7890625;violin
86.70716100000001;0.1219509999999957;82;0.8125;violin
86.82911200000001;0.1219509999999957;83;0.8125;violin
86.951063;0.12195100000000991;82;0.8125;violin
87.07301400000001;0.1219509999999957;83;0.8125;violin
87.19496500000001;0.10670712499999979;80;0.8125;violin
87.316916;0.1219509999999957;77;0.8125;violin
87.438867;0.12195100000000991;76;0.8125;violin
87.56081800000001;0.1219509999999957;77;0.8125;violin
87.68276900000001;0.1219509999999957;74;0.8125;violin
87.80472;0.12195100000000991;75;0.8125;violin
87.92667100000001;0.1219509999999957;74;0.8125;violin
88.04862200000001;0.1219509999999957;75;0.8125;violin
88.170573;0.10670712499999979;79;0.8125;violin
88.29252400000001;0.1219509999999957;80;0.8125;violin
88.41447500000001;0.1219509999999957;79;0.8125;violin
88.536426;0.1219509999999957;80;0.8125;violin
88.658377;0.12195100000000991;83;0.8125;violin
88.78032800000001;0.1219509999999957;84;0.8125;violin
88.90227900000001;0.1219509999999957;83;0.8125;violin
89.02423;0.12195100000000991;84;0.8125;violin
89.14618100000001;0.10670712499999979;80;0.8125;violin
89.26813200000001;0.1219509999999957;75;0.8125;violin
89.390083;0.12195100000000991;74;0.8125;violin
89.51203400000001;0.1219509999999957;75;0.8125;violin
89.63398500000001;0.1219509999999957;72;0.8125;violin
89.755936;0.1219509999999957;73;0.8125;violin
89.877887;0.12195100000000991;72;0.8125;violin
89.99983800000001;0.1219509999999957;73;0.8125;violin
90.121789;0.10670712499999979;70;0.8125;violin
90.24374;0.12195100000000991;67;0.8125;violin
90.36569100000001;0.1219509999999957;66;0.8125;violin
90.48764200000001;0.1219509999999957;67;0.8125;violin
90.609593;0.10670712499999979;65;0.8125;violin
90.73154400000001;0.1219509999999957;63;0.8125;violin
90.85349500000001;0.1219509999999957;62;0.7890625;violin
90.975446;0.12195100000000991;63;0.765625;violin
91.09739700000002;0.10670712499999979;61;0.7421875;violin
91.21934800000001;0.1219509999999957;58;0.71875;violin
91.341299;0.1219509999999957;57;0.6953125;violin
91.46325;0.12195100000000991;58;0.671875;violin
91.58520100000001;0.10670712499999979;55;0.65625;violin
91.70715200000001;0.1219509999999957;56;0.6328125;violin
91.829103;0.12195100000000991;55;0.6328125;violin
91.95105400000001;0.1219509999999957;56;0.6328125;violin
92.07300500000001;0.1219509999999957;60;0.6328125;violin
92.194956;0.12195100000000991;63;0.6328125;violin
92.31690700000001;0.1219509999999957;62;0.6328125;violin
92.43885800000001;0.1219509999999957;63;0.6328125;violin
92.560809;0.10670712499999979;68;0.6328125;violin
92.68276;0.12195100000000991;72;0.6328125;violin
92.80471100000001;0.1219509999999957;71;0.6328125;violin
92.92666200000001;0.1219509999999957;72;0.6328125;violin
93.048613;0.12195100000000991;68;0.6328125;violin
93.17056400000001;0.1219509999999957;63;0.6328125;violin
93.29251500000001;0.1219509999999957;62;0.65625;violin
93.414466;0.12195100000000991;63;0.6796875;violin
93.53641700000001;0.10670712499999979;61;0.6953125;violin
93.65836800000001;0.1219509999999957;60;0.71875;violin
93.780319;0.1219509999999957;59;0.7421875;violin
93.90227;0.12195100000000991;60;0.765625;violin
94.02422100000001;0.1219509999999957;63;0.7890625;violin
94.146172;0.1219509999999957;68;0.8125;violin
94.268123;0.12195100000000991;67;0.8359375;violin
94.39007400000001;0.1219509999999957;68;0.859375;violin
94.51202500000001;0.10670712499999979;72;0.8828125;violin
94.633976;0.12195100000000991;75;0.8828125;violin
94.75592700000001;0.1219509999999957;74;0.8828125;violin
94.87787800000001;0.1219509999999957;75;0.8828125;violin
94.999829;0.12195100000000991;72;0.8828125;violin
95.12178000000002;0.1219509999999957;68;0.8828125;violin
95.24373100000001;0.1219509999999957;67;0.8828125;violin
95.365682;0.1219509999999957;68;0.8828125;violin
95.487633;0.10670712499999979;65;0.8828125;violin
95.60958400000001;0.1219509999999957;63;0.8828125;violin
95.73153500000001;0.1219509999999957;62;0.8828125;violin
95.853486;0.12195100000000991;63;0.8828125;violin
95.97543700000001;0.1219509999999957;67;0.8828125;violin
96.09738800000001;0.1219509999999957;68;0.8828125;violin
96.219339;0.12195100000000991;67;0.8828125;violin
96.34129000000001;0.1219509999999957;68;0.8828125;violin
96.46324100000001;0.10670712499999979;71;0.8828125;violin
96.585192;0.1219509999999957;72;0.8828125;violin
96.707143;0.12195100000000991;71;0.8828125;violin
96.82909400000001;0.1219509999999957;72;0.8828125;violin
96.95104500000001;0.1219509999999957;74;0.8828125;violin
97.072996;0.12195100000000991;75;0.8828125;violin
97.19494700000001;0.1219509999999957;74;0.8828125;violin
97.31689800000001;0.1219509999999957;75;0.8828125;violin
97.438849;0.10670712499999979;79;0.8828125;violin
97.56080000000001;0.1219509999999957;80;0.8828125;violin
97.68275100000001;0.1219509999999957;79;0.8828125;violin
97.804702;0.1219509999999957;80;0.8828125;violin
97.926653;0.12195100000000991;77;0.8828125;violin
98.04860400000001;0.1219509999999957;75;0.8828125;violin
98.17055500000001;0.1219509999999957;74;0.8828125;violin
98.292506;0.12195100000000991;75;0.8828125;violin
98.41445700000001;0.10670712499999979;72;0.8828125;violin
98.53640800000001;0.1219509999999957;68;0.8828125;violin
98.658359;0.12195100000000991;67;0.875;violin
98.78031000000001;0.1219509999999957;68;0.8671875;violin
98.90226100000001;0.1219509999999957;65;0.859375;violin
99.024212;0.12195100000000991;63;0.8515625;violin
99.14616300000002;0.1219509999999957;62;0.84375;violin
99.26811400000001;0.1219509999999957;63;0.8359375;violin
99.390065;0.10670712499999979;60;0.828125;violin
99.512016;0.12195100000000991;56;0.828125;violin
99.63396700000001;0.1219509999999957;55;0.828125;violin
99.75591800000001;0.1219509999999957;58;0.984375;violin
99.877869;0.12195100000000991;55;0.828125;violin
99.99982000000001;0.1219509999999957;56;0.828125;violin
100.12177100000001;0.1219509999999957;55;0.828125;violin
100.243722;0.12195100000000991;58;0.984375;violin
100.36567300000002;0.1219509999999957;55;0.828125;violin
100.48762400000001;0.1219509999999957;56;0.828125;violin
100.609575;0.1219509999999957;55;0.828125;violin
100.731526;0.12195100000000991;58;0.984375;violin
100.85347700000001;0.1219509999999957;55;0.828125;violin
100.97542800000001;0.1219509999999957;56;0.828125;violin
101.097379;0.12195100000000991;55;0.828125;violin
101.21933000000001;0.1219509999999957;58;0.984375;violin
101.34128100000001;0.10670712499999979;55;0.828125;violin
101.463232;1.7073140000000109;56;0.984375;violin
103.41444800000001;0.42682849999999917;56;0.828125;violin
103.41444800000001;0.42682849999999917;63;0.828125;violin
103.41444800000001;0.42682849999999917;72;0.828125;violin
103.41444800000001;0.42682849999999917;80;0.828125;violin
