start;duration;pitch;velocity;instrument
0.0;0.13719487500000002;68;0.6328125;violin
0.18292650000000002;0.045731625;67;0.6328125;violin
0.243902;0.13719487500000005;65;0.6328125;violin
0.42682850000000006;0.045731625;64;0.6328125;violin
0.487804;0.13719487500000005;65;0.6328125;violin
0.6707305;0.045731625000000053;67;0.6328125;violin
0.7317060000000001;0.13719487500000005;68;0.6328125;violin
0.9146325000000001;0.045731625000000053;67;0.6328125;violin
0.975608;0.13719487500000005;68;0.6328125;violin
1.1585345;0.045731625000000165;65;0.6328125;violin
1.21951;0.13719487500000005;64;0.6328125;violin
1.4024365;0.04573162499999994;62;0.6328125;violin
1.4634120000000002;0.13719487500000005;64;0.6328125;violin
1.6463385000000001;0.04573162499999994;67;0.6328125;violin
1.7073140000000002;0.13719487500000005;72;0.6328125;violin
1.8902405000000002;0.04573162499999994;71;0.6328125;violin
1.951216;0.13719487500000005;72;0.6328125;violin
2.1341425000000003;0.04573162499999972;64;0.6328125;violin
2.1951180000000003;0.13719487500000005;65;0.6328125;violin
2.3780445;0.045731625000000165;64;0.6328125;violin
2.43902;0.13719487500000005;65;0.6328125;violin
2.6219465000000004;0.04573162499999972;68;0.6328125;violin
2.682922;0.13719487500000005;72;0.6328125;violin
2.8658485000000002;0.045731625000000165;77;0.6875;violin
2.9268240000000003;0.13719487500000005;80;0.7109375;violin
3.1097505;0.045731625000000165;71;0.7734375;violin
3.170726;0.13719487500000005;72;0.7890625;violin
3.3536525000000004;0.04573162499999972;71;0.7890625;violin
3.4146280000000004;0.13719487500000005;72;0.7890625;violin
3.5975545;0.045731625000000165;73;0.7890625;violin
3.6585300000000003;0.21341425000000003;72;0.7890625;violin
3.902432;0.1371948750000005;72;0.6328125;violin
4.085358500000001;0.045731624999999276;75;0.6328125;violin
4.146334;0.1371948749999996;79;0.7890625;violin
4.3292605;0.045731625000000165;77;0.6328125;violin
4.390236000000001;0.1371948749999996;75;0.6328125;violin
4.5731625000000005;0.045731625000000165;74;0.6328125;violin
4.634138;0.1371948750000005;72;0.6328125;violin
4.817064500000001;0.045731624999999276;71;0.6328125;violin
4.87804;0.1371948750000005;72;0.6328125;violin
5.0609665;0.045731625000000165;77;0.6328125;violin
5.121942000000001;0.1371948749999996;80;0.7890625;violin
5.3048685;0.045731625000000165;79;0.6328125;violin
5.365844;0.1371948750000005;77;0.6328125;violin
5.548770500000001;0.045731625000000165;75;0.6328125;violin
5.609746;0.1371948750000005;74;0.6328125;violin
5.7926725;0.045731625000000165;73;0.6328125;violin
5.853648000000001;0.1371948749999996;74;0.6328125;violin
6.0365745;0.045731625000000165;75;0.6328125;violin
6.097550000000001;0.1371948749999996;77;0.7890625;violin
6.280476500000001;0.045731625000000165;75;0.6328125;violin
6.341452;0.1371948750000005;74;0.6328125;violin
6.524378500000001;0.045731624999999276;72;0.6328125;violin
6.585354000000001;0.1371948749999996;71;0.6328125;violin
6.7682805;0.045731625000000165;68;0.6328125;violin
6.829256000000001;0.1371948749999996;67;0.6328125;violin
7.012182500000001;0.045731625000000165;71;0.6328125;violin
7.073158;0.1371948750000005;72;0.6328125;violin
7.256084500000001;0.045731624999999276;71;0.6953125;violin
7.317060000000001;0.1371948750000005;72;0.71875;violin
7.4999865;0.045731625000000165;73;0.7890625;violin
7.560962000000001;0.1371948749999996;72;0.8125;violin
7.743888500000001;0.045731625000000165;70;0.7421875;violin
7.804864;0.1371948750000005;68;0.71875;violin
7.987790500000001;0.045731625000000165;67;0.65625;violin
8.048766;0.1371948750000005;65;0.6328125;violin
8.231692500000001;0.045731625000000165;64;0.6328125;violin
8.292668;0.1371948750000005;65;0.6328125;violin
8.475594500000001;0.045731625000000165;67;0.6328125;violin
8.536570000000001;0.1371948750000005;68;0.6328125;violin
8.7194965;0.045731625000000165;67;0.6328125;violin
8.780472000000001;0.13719487499999872;68;0.6328125;violin
8.9633985;0.045731625000000165;65;0.6328125;violin
9.024374000000002;0.13719487499999872;64;0.6328125;violin
9.2073005;0.045731625000000165;62;0.6328125;violin
9.268276;0.1371948750000005;62;0.6328125;violin
9.4512025;0.045731625000000165;67;0.6328125;violin
9.512178;0.1371948750000005;72;0.6328125;violin
9.695104500000001;0.045731625000000165;71;0.6328125;violin
9.75608;0.1371948750000005;72;0.6328125;violin
9.939006500000001;0.045731625000000165;64;0.6328125;violin
9.999982000000001;0.1371948750000005;65;0.6328125;violin
10.182908500000002;0.04573162499999839;64;0.6328125;violin
10.243884000000001;0.13719487499999872;65;0.6328125;violin
10.4268105;0.045731625000000165;68;0.6328125;violin
10.487786000000002;0.13719487499999872;72;0.6328125;violin
10.6707125;0.045731625000000165;77;0.6875;violin
10.731688;0.1371948750000005;80;0.7109375;violin
10.9146145;0.045731625000000165;71;0.7734375;violin
10.97559;0.1371948750000005;72;0.7890625;violin
11.158516500000001;0.045731625000000165;71;0.7890625;violin
11.219492;0.1371948750000005;72;0.7890625;violin
11.402418500000001;0.045731625000000165;73;0.7890625;violin
11.463394000000001;0.21341424999999958;72;0.6328125;violin
11.707296000000001;0.1371948750000005;72;0.6328125;violin
11.890222500000002;0.04573162499999839;72;0.6328125;violin
11.951198000000002;0.13719487499999872;73;0.6328125;violin
12.1341245;0.045731625000000165;72;0.5390625;violin
12.195100000000002;0.13719487499999872;70;0.5390625;violin
12.3780265;0.045731625000000165;68;0.5390625;violin
12.439002;0.21341425000000136;67;0.5390625;violin
12.682904;0.1371948750000005;67;0.5390625;violin
12.865830500000001;0.045731625000000165;67;0.5390625;violin
12.926806000000001;0.1371948750000005;72;0.5390625;violin
13.109732500000002;0.045731625000000165;70;0.453125;violin
13.170708000000001;0.1371948750000005;68;0.453125;violin
13.353634500000002;0.045731625000000165;67;0.453125;violin
13.414610000000001;0.21341424999999958;65;0.453125;violin
13.658512000000002;0.13719487499999872;68;0.453125;violin
13.8414385;0.045731625000000165;68;0.453125;violin
13.902414000000002;0.13719487499999872;67;0.453125;violin
14.085340500000001;0.045731625000000165;68;0.453125;violin
14.146316;0.1371948750000005;70;0.453125;violin
14.329242500000001;0.045731625000000165;67;0.453125;violin
14.390218;0.1371948750000005;65;0.453125;violin
14.573144500000001;0.045731625000000165;67;0.453125;violin
14.634120000000001;0.1371948750000005;68;0.453125;violin
14.817046500000002;0.045731625000000165;65;0.453125;violin
14.878022000000001;0.1371948750000005;64;0.734375;violin
15.060948500000002;0.04573162499999839;65;0.734375;violin
15.121924000000002;0.1371948750000005;67;0.734375;violin
15.3048505;0.045731625000000165;64;0.734375;violin
15.365826000000002;0.21341424999999958;65;0.734375;violin
15.609728;0.1371948750000005;63;0.6328125;violin
15.792654500000001;0.045731625000000165;67;0.6328125;violin
15.85363;0.1371948750000005;68;0.6328125;violin
16.0365565;0.04573162500000194;67;0.6328125;violin
16.097532;0.13719487499999872;68;0.6328125;violin
16.2804585;0.04573162499999839;70;0.6328125;violin
16.341434000000003;0.13719487499999872;72;0.6328125;violin
16.5243605;0.04573162500000194;73;0.6328125;violin
16.585336;0.13719487499999872;75;0.6328125;violin
16.768262500000002;0.04573162499999839;68;0.6328125;violin
16.829238;0.13719487500000227;67;0.6328125;violin
17.0121645;0.04573162500000194;66;0.6328125;violin
17.073140000000002;0.13719487499999872;67;0.6328125;violin
17.256066500000003;0.04573162499999839;70;0.6328125;violin
17.317042;0.18292650000000066;75;0.6328125;violin
17.4999685;0.04573162500000194;79;0.6875;violin
17.560944000000003;0.13719487499999872;82;0.7109375;violin
17.7438705;0.04573162500000194;84;0.7734375;violin
17.804846;0.13719487499999872;85;0.7890625;violin
17.987772500000002;0.04573162499999839;81;0.7890625;violin
18.048748000000003;0.13719487499999872;82;0.7890625;violin
18.2316745;0.04573162500000194;78;0.7734375;violin
18.292650000000002;0.13719487499999872;79;0.765625;violin
18.475576500000003;0.04573162499999839;74;0.75;violin
18.536552;0.13719487500000227;75;0.7421875;violin
18.7194785;0.04573162500000194;73;0.7265625;violin
18.780454000000002;0.18292650000000066;72;0.71875;violin
18.963380500000003;0.04573162499999839;71;0.703125;violin
19.024356;0.13719487500000227;72;0.6953125;violin
19.2072825;0.04573162499999839;73;0.6796875;violin
19.268258000000003;0.13719487499999872;72;0.6796875;violin
19.4511845;0.04573162500000194;63;0.65625;violin
19.51216;0.13719487499999872;65;0.65625;violin
19.695086500000002;0.04573162499999839;67;0.640625;violin
19.756062;0.13719487500000227;68;0.6328125;violin
19.9389885;0.04573162500000194;67;0.6328125;violin
19.999964000000002;0.13719487499999872;68;0.6328125;violin
20.182890500000003;0.04573162499999839;71;0.6328125;violin
20.243866;0.13719487500000227;72;0.6328125;violin
20.4267925;0.04573162500000194;74;0.6328125;violin
20.487768000000003;0.13719487499999872;75;0.6328125;violin
20.670694500000003;0.04573162499999839;68;0.6328125;violin
20.73167;0.1600606874999997;67;0.6328125;violin
20.914596500000002;0.053353562499999896;66;0.6328125;violin
20.975572000000003;0.1600606874999997;67;0.6328125;violin
21.1584985;0.053353562499999896;70;0.671875;violin
21.219474;0.18292650000000066;75;0.6875;violin
21.402400500000002;0.053353562499999896;74;0.7265625;violin
21.463376;0.16006068750000324;75;0.734375;violin
21.6463025;0.053353562499999896;79;0.7734375;violin
21.707278000000002;0.18292650000000066;82;0.7890625;violin
21.890204500000003;0.053353562499999896;83;0.7890625;violin
21.95118;0.1600606874999997;84;0.7890625;violin
22.1341065;0.060975500000001404;79;0.7890625;violin
22.195082000000003;0.1600606874999997;80;0.7890625;violin
22.378008500000004;0.06097549999999785;76;0.7890625;violin
22.438984;0.1600606874999997;77;0.7890625;violin
22.621910500000002;0.053353562499999896;74;0.7421875;violin
22.682886000000003;0.1600606874999997;75;0.7265625;violin
22.8658125;0.053353562499999896;74;0.6796875;violin
22.926788000000002;0.1600606874999997;75;0.65625;violin
23.109714500000003;0.053353562499999896;77;0.609375;violin
23.17069;0.21341425000000314;75;0.609375;violin
23.414592000000003;0.18292650000000066;75;0.703125;violin
23.597518500000003;0.06097549999999785;79;0.765625;violin
23.658494;0.1600606874999997;82;0.7890625;violin
23.8414205;0.053353562499999896;81;0.7734375;violin
23.902396000000003;0.1600606874999997;82;0.7734375;violin
24.085322500000004;0.053353562499999896;80;0.7578125;violin
24.146298;0.1600606874999997;79;0.7578125;violin
24.329224500000002;0.053353562499999896;77;0.7578125;violin
24.390200000000004;0.1600606874999997;75;0.7578125;violin
24.5731265;0.053353562499999896;73;0.7578125;violin
24.634102000000002;0.18292650000000066;72;0.7578125;violin
24.817028500000003;0.053353562499999896;71;0.7578125;violin
24.878004;0.16006068750000324;72;0.7578125;violin
25.0609305;0.053353562499999896;73;0.7578125;violin
25.121906000000003;0.21341424999999958;72;0.7578125;violin
25.365808;0.18292650000000066;75;0.7578125;violin
25.548734500000002;0.060975500000001404;80;0.7578125;violin
25.609710000000003;0.1600606874999997;84;0.7578125;violin
25.792636500000004;0.053353562499999896;83;0.7421875;violin
25.853612000000002;0.1600606874999997;84;0.7421875;violin
26.036538500000002;0.053353562499999896;82;0.7265625;violin
26.097514000000004;0.1600606874999997;80;0.7265625;violin
26.2804405;0.053353562499999896;79;0.7265625;violin
26.341416000000002;0.1600606874999997;77;0.7265625;violin
26.524342500000003;0.053353562499999896;75;0.7265625;violin
26.585318;0.16006068750000324;73;0.7265625;violin
26.7682445;0.060975500000001404;72;0.7265625;violin
26.829220000000003;0.1600606874999997;73;0.7265625;violin
27.012146500000004;0.053353562499999896;75;0.7265625;violin
27.073122;0.21341424999999958;73;0.7265625;violin
27.317024000000004;0.18292650000000066;75;0.7265625;violin
27.499950500000004;0.04573162499999839;79;0.7265625;violin
27.560926000000002;0.18292650000000066;82;0.7265625;violin
27.743852500000003;0.053353562499999896;75;0.71875;violin
27.804828000000004;0.1600606874999997;81;0.7109375;violin
27.9877545;0.053353562499999896;75;0.6953125;violin
28.048730000000003;0.21341424999999958;82;0.6953125;violin
28.292632;0.1600606874999997;75;0.6953125;violin
28.4755585;0.053353562499999896;80;0.6953125;violin
28.536534000000003;0.18292650000000066;84;0.6953125;violin
28.719460500000004;0.053353562499999896;75;0.6953125;violin
28.780436;0.18292650000000066;83;0.6953125;violin
28.963362500000002;0.053353562499999896;75;0.6953125;violin
29.024338000000004;0.2439019999999985;84;0.6953125;violin
29.268240000000002;0.13719487499999872;84;0.6953125;violin
29.451166500000003;0.04573162499999839;84;0.6953125;violin
29.512142000000004;0.1600606874999997;84;0.6953125;violin
29.6950685;0.053353562499999896;82;0.6875;violin
29.756044000000003;0.1600606874999997;80;0.6796875;violin
29.938970500000003;0.053353562499999896;79;0.6640625;violin
29.999946;0.1600606874999997;77;0.6640625;violin
30.182872500000002;0.053353562499999896;76;0.6484375;violin
30.243848000000003;0.1600606874999997;77;0.640625;violin
30.426774500000004;0.053353562499999896;80;0.6328125;violin
30.487750000000002;0.1600606874999997;84;0.6328125;violin
30.670676500000003;0.060975500000001404;78;0.6328125;violin
30.731652000000004;0.1829264999999971;79;0.6328125;violin
30.9145785;0.060975500000001404;76;0.6328125;violin
30.975554000000002;0.1600606874999997;72;0.6328125;violin
31.158480500000003;0.053353562499999896;70;0.6328125;violin
31.219456;0.16006068750000324;68;0.6328125;violin
31.4023825;0.053353562499999896;67;0.6328125;violin
31.463358000000003;0.1600606874999997;65;0.6328125;violin
31.646284500000004;0.053353562499999896;64;0.6328125;violin
31.70726;0.1600606874999997;65;0.6328125;violin
31.890186500000002;0.053353562499999896;67;0.6328125;violin
31.951162000000004;0.1600606874999997;68;0.6328125;violin
32.134088500000004;0.053353562499999896;67;0.6328125;violin
32.195064;0.1600606874999997;68;0.6328125;violin
32.3779905;0.053353562499999896;65;0.6328125;violin
32.438966;0.1600606874999997;64;0.6328125;violin
32.6218925;0.053353562499999896;62;0.6328125;violin
32.682868000000006;0.1600606874999997;64;0.6328125;violin
32.8657945;0.053353562499999896;67;0.6328125;violin
32.926770000000005;0.1600606874999997;72;0.6328125;violin
33.109696500000005;0.053353562499999896;71;0.6328125;violin
33.170672;0.1600606874999997;72;0.6328125;violin
33.353598500000004;0.053353562499999896;64;0.6328125;violin
33.414574;0.1600606874999997;65;0.6328125;violin
33.5975005;0.053353562499999896;64;0.6328125;violin
33.658476;0.1600606874999997;65;0.6328125;violin
33.8414025;0.053353562499999896;68;0.6328125;violin
33.902378000000006;0.1600606874999997;72;0.6328125;violin
34.08530450000001;0.053353562499999896;77;0.6875;violin
34.146280000000004;0.1600606874999997;80;0.7109375;violin
34.329206500000005;0.053353562499999896;71;0.7734375;violin
34.390182;0.1600606874999997;72;0.7890625;violin
34.573108500000004;0.053353562499999896;71;0.7890625;violin
34.634084;0.1600606874999997;72;0.7890625;violin
34.8170105;0.053353562499999896;73;0.7890625;violin
34.877986;0.2134142500000067;72;0.7890625;violin
35.121888000000006;0.1600606874999997;72;0.6328125;violin
35.304814500000006;0.053353562499999896;75;0.6328125;violin
35.365790000000004;0.1600606874999997;79;0.7890625;violin
35.548716500000005;0.053353562499999896;77;0.6328125;violin
35.609692;0.1600606874999997;75;0.6328125;violin
35.7926185;0.053353562499999896;74;0.6328125;violin
35.853594;0.1600606874999997;72;0.6328125;violin
36.0365205;0.053353562499999896;71;0.6328125;violin
36.09749600000001;0.1600606874999997;72;0.6328125;violin
36.2804225;0.053353562499999896;77;0.6328125;violin
36.341398000000005;0.1600606874999997;80;0.7890625;violin
36.524324500000006;0.053353562499999896;79;0.6328125;violin
36.585300000000004;0.1600606874999997;77;0.6328125;violin
36.768226500000004;0.053353562499999896;75;0.6328125;violin
36.829202;0.1600606874999997;74;0.6328125;violin
37.0121285;0.053353562499999896;73;0.6328125;violin
37.073104;0.1600606874999997;74;0.6328125;violin
37.2560305;0.053353562499999896;75;0.6328125;violin
37.317006000000006;0.1600606874999997;77;0.7890625;violin
37.4999325;0.053353562499999896;75;0.6328125;violin
37.560908000000005;0.1600606874999997;74;0.6328125;violin
37.743834500000006;0.053353562499999896;72;0.6328125;violin
37.80481;0.1600606874999997;71;0.6328125;violin
37.987736500000004;0.053353562499999896;68;0.6328125;violin
38.048712;0.1600606874999997;67;0.6328125;violin
38.2316385;0.053353562499999896;71;0.6328125;violin
38.292614;0.1600606874999997;72;0.6328125;violin
38.4755405;0.053353562499999896;71;0.7109375;violin
38.536516000000006;0.1600606874999997;72;0.734375;violin
38.71944250000001;0.053353562499999896;73;0.8125;violin
38.780418000000004;0.1600606874999997;72;0.8125;violin
38.963344500000005;0.053353562499999896;70;0.7421875;violin
39.02432;0.1600606874999997;68;0.71875;violin
39.207246500000004;0.053353562499999896;67;0.65625;violin
39.268222;0.1600606874999997;65;0.6328125;violin
39.4511485;0.053353562499999896;64;0.6328125;violin
39.512124;0.1600606875000068;65;0.6328125;violin
39.6950505;0.053353562499999896;67;0.6328125;violin
39.756026000000006;0.1600606874999997;68;0.6328125;violin
39.938952500000006;0.053353562499999896;67;0.6328125;violin
39.999928000000004;0.1600606874999997;68;0.6328125;violin
40.182854500000005;0.053353562499999896;65;0.6328125;violin
40.24383;0.1600606874999997;64;0.6328125;violin
40.4267565;0.053353562499999896;62;0.6328125;violin
40.487732;0.1600606874999997;64;0.6328125;violin
40.6706585;0.053353562499999896;67;0.6328125;violin
40.73163400000001;0.1600606874999997;72;0.6328125;violin
40.9145605;0.053353562499999896;71;0.6328125;violin
40.975536000000005;0.1600606874999997;72;0.6328125;violin
41.158462500000006;0.053353562499999896;64;0.6328125;violin
41.219438000000004;0.1600606874999997;65;0.6328125;violin
41.402364500000004;0.053353562499999896;64;0.6328125;violin
41.46334;0.1600606874999997;65;0.6328125;violin
41.6462665;0.053353562499999896;68;0.6328125;violin
41.707242;0.1600606874999997;72;0.6328125;violin
41.8901685;0.053353562499999896;77;0.6875;violin
41.951144000000006;0.1600606874999997;80;0.7109375;violin
42.13407050000001;0.053353562499999896;71;0.7734375;violin
42.195046000000005;0.1600606874999997;72;0.7890625;violin
42.377972500000006;0.053353562499999896;71;0.7890625;violin
42.438948;0.1600606874999997;72;0.7890625;violin
42.621874500000004;0.053353562499999896;73;0.7890625;violin
42.68285;0.21341424999999958;72;0.7890625;violin
42.926752;0.13719487500000582;72;0.7890625;violin
43.1096785;0.04573162500000194;72;0.7890625;violin
43.170654000000006;0.1600606874999997;73;0.7890625;violin
43.35358050000001;0.053353562499999896;72;0.78125;violin
43.414556000000005;0.1600606874999997;70;0.7734375;violin
43.597482500000005;0.053353562499999896;68;0.765625;violin
43.658458;0.21341424999999958;67;0.765625;violin
43.90236;0.13719487500000582;67;0.765625;violin
44.0852865;0.04573162500000194;67;0.765625;violin
44.14626200000001;0.1600606874999997;72;0.765625;violin
44.3291885;0.053353562499999896;70;0.75;violin
44.390164000000006;0.1600606874999997;68;0.75;violin
44.573090500000006;0.053353562499999896;67;0.734375;violin
44.634066000000004;0.21341424999999958;65;0.734375;violin
44.877968;0.13719487499999872;68;0.734375;violin
45.0608945;0.04573162500000194;68;0.734375;violin
45.12187;0.1600606874999997;67;0.734375;violin
45.3047965;0.053353562499999896;68;0.734375;violin
45.36577200000001;0.1600606874999997;70;0.734375;violin
45.54869850000001;0.053353562499999896;67;0.734375;violin
45.609674000000005;0.1600606874999997;65;0.734375;violin
45.792600500000006;0.053353562499999896;67;0.734375;violin
45.853576000000004;0.1600606874999997;68;0.734375;violin
46.036502500000005;0.053353562499999896;65;0.734375;violin
46.097478;0.1600606874999997;64;0.734375;violin
46.2804045;0.053353562499999896;65;0.734375;violin
46.34138;0.1600606874999997;67;0.734375;violin
46.5243065;0.053353562499999896;65;0.734375;violin
46.58528200000001;0.21341424999999958;65;0.734375;violin
46.829184000000005;0.13719487499999872;77;0.734375;violin
47.012110500000006;0.04573162500000194;79;0.8671875;violin
47.073086;0.1600606874999997;80;0.9140625;violin
47.256012500000004;0.053353562499999896;77;0.8359375;violin
47.316988;0.1600606874999997;74;0.8125;violin
47.4999145;0.053353562499999896;71;0.734375;violin
47.56089000000001;0.21341424999999958;72;0.734375;violin
47.804792000000006;0.13719487499999872;65;0.734375;violin
47.98771850000001;0.045731624999994835;67;0.8671875;violin
48.048694000000005;0.1600606874999997;68;0.9140625;violin
48.231620500000005;0.053353562499999896;65;0.8359375;violin
48.292596;0.1600606874999997;62;0.8125;violin
48.475522500000004;0.053353562499999896;59;0.734375;violin
48.536498;0.21341424999999958;60;0.734375;violin
48.78040000000001;0.13719487499999872;65;0.734375;violin
48.9633265;0.04573162500000194;68;0.734375;violin
49.024302000000006;0.1600606874999997;72;0.734375;violin
49.20722850000001;0.053353562499999896;71;0.734375;violin
49.268204000000004;0.1600606874999997;72;0.734375;violin
49.451130500000005;0.053353562499999896;73;0.734375;violin
49.512106;0.1600606874999997;72;0.734375;violin
49.6950325;0.053353562499999896;70;0.734375;violin
49.756008;0.1600606874999997;67;0.734375;violin
49.9389345;0.053353562499999896;68;0.734375;violin
49.99991000000001;0.1600606874999997;65;0.734375;violin
50.18283650000001;0.053353562499999896;60;0.734375;violin
50.243812000000005;0.1600606874999997;67;0.734375;violin
50.426738500000006;0.053353562499999896;60;0.734375;violin
50.487714000000004;0.21341424999999958;68;0.734375;violin
50.731616;0.13719487499999872;80;0.734375;violin
50.9145425;0.06097549999999785;82;0.8671875;violin
50.975518;0.18292650000000066;84;0.9140625;violin
51.1584445;0.053353562499999896;80;0.8984375;violin
51.21942000000001;0.1600606874999997;77;0.8984375;violin
51.40234650000001;0.053353562499999896;74;0.8984375;violin
51.463322000000005;0.21341424999999958;75;0.8984375;violin
51.707224000000004;0.18292650000000066;68;0.8984375;violin
51.890150500000004;0.04573162500000194;70;0.8984375;violin
51.951126;0.1600606874999997;72;0.8984375;violin
52.1340525;0.053353562499999896;68;0.875;violin
52.19502800000001;0.18292649999999355;65;0.875;violin
52.3779545;0.053353562499999896;62;0.8515625;violin
52.438930000000006;0.21341424999999958;63;0.8515625;violin
52.682832000000005;0.18292650000000066;68;0.8515625;violin
52.865758500000005;0.04573162500000194;70;0.8515625;violin
52.926734;0.1600606874999997;72;0.8515625;violin
53.109660500000004;0.053353562499999896;68;0.8515625;violin
53.170636;0.1600606874999997;72;0.8515625;violin
53.3535625;0.053353562499999896;77;0.8515625;violin
53.41453800000001;0.1600606874999997;75;0.8515625;violin
53.59746450000001;0.053353562499999896;73;0.8515625;violin
53.658440000000006;0.1600606874999997;70;0.8515625;violin
53.84136650000001;0.053353562499999896;72;0.8515625;violin
53.902342000000004;0.1600606874999997;68;0.8515625;violin
54.085268500000005;0.06097549999999785;63;0.8515625;violin
54.146244;0.1600606874999997;70;0.8515625;violin
54.329170500000004;0.053353562499999896;63;0.8515625;violin
54.390146;0.2134142500000067;72;0.8515625;violin
54.63404800000001;0.13719487499999872;72;0.8515625;violin
54.81697450000001;0.045731624999994835;72;0.8515625;violin
54.877950000000006;0.1600606874999997;77;0.8515625;violin
55.060876500000006;0.053353562499999896;72;0.8359375;violin
55.121852000000004;0.1600606874999997;79;0.8359375;violin
55.304778500000005;0.053353562499999896;72;0.8125;violin
55.365754;0.21341424999999958;80;0.8125;violin
55.60965600000001;0.18292649999999355;68;0.8125;violin
55.7925825;0.04573162500000194;68;0.8125;violin
55.85355800000001;0.1600606874999997;73;0.8125;violin
56.03648450000001;0.053353562499999896;68;0.796875;violin
56.097460000000005;0.1600606874999997;75;0.7890625;violin
56.280386500000006;0.053353562499999896;68;0.7734375;violin
56.341362000000004;0.21341424999999958;77;0.7734375;violin
56.585264;0.18292650000000066;65;0.7734375;violin
56.7681905;0.04573162500000194;65;0.7734375;violin
56.82916600000001;0.1600606874999997;70;0.7734375;violin
57.01209250000001;0.053353562499999896;65;0.7578125;violin
57.073068000000006;0.1600606874999997;72;0.75;violin
57.25599450000001;0.053353562499999896;65;0.734375;violin
57.316970000000005;0.21341424999999958;73;0.734375;violin
57.560872;0.13719487499999872;70;0.734375;violin
57.743798500000004;0.04573162500000194;67;0.734375;violin
57.804774;0.1600606875000068;72;0.734375;violin
57.9877005;0.053353562499999896;72;0.734375;violin
58.04867600000001;0.1600606874999997;68;0.734375;violin
58.23160250000001;0.053353562499999896;65;0.734375;violin
58.292578000000006;0.21341424999999958;60;0.734375;violin
58.536480000000005;0.0266767812500035;65;0.734375;violin
58.56315678125001;0.026676781249996395;64;0.734375;violin
58.589833562500004;0.0266767812500035;65;0.734375;violin
58.61651034375001;0.026676781249996395;64;0.734375;violin
58.643187125000004;0.0266767812500035;65;0.734375;violin
58.66986390625001;0.026676781249996395;64;0.734375;violin
58.696540687500004;0.0266767812500035;65;0.734375;violin
58.72321746875001;0.026676781249996395;64;0.734375;violin
58.749894250000004;0.015243875000003015;62;0.734375;violin
58.76513812500001;0.01524387499999591;64;0.734375;violin
58.780382;0.1600606874999997;65;0.734375;violin
58.963308500000004;0.053353562499999896;64;0.734375;violin
59.02428400000001;0.1600606874999997;65;0.734375;violin
59.2072105;0.053353562499999896;67;0.734375;violin
59.26818600000001;0.1600606874999997;68;0.734375;violin
59.45111250000001;0.053353562499999896;67;0.734375;violin
59.512088000000006;0.1600606874999997;68;0.734375;violin
59.695014500000006;0.053353562499999896;65;0.734375;violin
59.755990000000004;0.1600606874999997;64;0.734375;violin
59.938916500000005;0.053353562499999896;62;0.734375;violin
59.999892;0.1600606874999997;64;0.734375;violin
60.1828185;0.053353562499999896;67;0.734375;violin
60.24379400000001;0.1600606874999997;72;0.734375;violin
60.4267205;0.053353562500007;71;0.734375;violin
60.48769600000001;0.1600606874999997;72;0.734375;violin
60.67062250000001;0.053353562499999896;64;0.734375;violin
60.731598000000005;0.1600606874999997;65;0.734375;violin
60.914524500000006;0.053353562499999896;64;0.734375;violin
60.975500000000004;0.1600606874999997;65;0.734375;violin
61.158426500000004;0.053353562499999896;68;0.734375;violin
61.219402;0.1600606874999997;72;0.734375;violin
61.4023285;0.053353562499999896;77;0.734375;violin
61.46330400000001;0.1600606874999997;80;0.7421875;violin
61.64623050000001;0.053353562499999896;71;0.78125;violin
61.707206000000006;0.1600606874999997;72;0.7890625;violin
61.89013250000001;0.053353562499999896;71;0.7890625;violin
61.951108000000005;0.1600606874999997;72;0.7890625;violin
62.134034500000006;0.053353562499999896;73;0.7890625;violin
62.19501;0.21341424999999958;72;0.7890625;violin
62.438912;0.13719487500000582;72;0.6328125;violin
62.6218385;0.04573162500000194;72;0.6328125;violin
62.68281400000001;0.1600606874999997;73;0.6328125;violin
62.86574050000001;0.053353562499999896;72;0.59375;violin
62.926716000000006;0.1600606874999997;70;0.578125;violin
63.10964250000001;0.053353562499999896;68;0.5390625;violin
63.170618000000005;0.21341424999999958;67;0.5390625;violin
63.41452;0.13719487500000582;67;0.5390625;violin
63.597446500000004;0.04573162500000194;67;0.5390625;violin
63.65842200000001;0.1600606874999997;72;0.5390625;violin
63.8413485;0.053353562499999896;70;0.5;violin
63.90232400000001;0.16006068749999258;68;0.4921875;violin
64.0852505;0.053353562500007;67;0.453125;violin
64.146226;0.2134142500000138;65;0.453125;violin
64.390128;0.13719487500000582;68;0.453125;violin
64.57305450000001;0.04573162499998773;68;0.453125;violin
64.63403000000001;0.21341424999999958;67;0.453125;violin
65.121834;0.21341424999999958;70;0.7890625;violin
65.121834;0.21341424999999958;76;0.7890625;violin
65.609638;0.6402427499999988;68;0.7890625;violin
65.609638;0.6402427499999988;72;0.7890625;violin
65.609638;0.6402427499999988;77;0.7890625;violin
66.58524600000001;0.06097549999999785;77;0.828125;violin
66.70719700000001;0.06097549999999785;65;0.828125;violin
67.560854;0.8536569999999983;56;0.5859375;violin
67.560854;0.8536569999999983;65;0.5859375;violin
