start;duration;pitch;velocity;instrument
0.0;0.16260133333333335;67;0.7890625;violin
0.16260133333333335;0.16260133333333335;66;0.796875;violin
0.3252026666666667;0.16260133333333332;67;0.8125;violin
0.487804;0.42682850000000006;68;0.8203125;violin
0.975608;0.16260133333333338;67;0.8203125;violin
1.1382093333333334;0.16260133333333338;66;0.828125;violin
1.3008106666666668;0.16260133333333338;67;0.84375;violin
1.4634120000000002;0.42682850000000006;63;0.8515625;violin
1.951216;0.16260133333333338;60;0.8515625;violin
2.1138173333333334;0.16260133333333338;59;0.859375;violin
2.276418666666667;0.16260133333333338;60;0.875;violin
2.43902;0.42682850000000006;55;0.8828125;violin
2.9268240000000003;0.16260133333333338;60;0.8828125;violin
3.0894253333333337;0.16260133333333338;59;0.890625;violin
3.252026666666667;0.16260133333333338;60;0.90625;violin
3.4146280000000004;0.42682850000000006;63;0.9140625;violin
3.902432;0.16260133333333382;67;0.9140625;violin
4.065033333333334;0.16260133333333293;66;0.9140625;violin
4.227634666666667;0.16260133333333382;67;0.9140625;violin
4.390236000000001;0.42682850000000006;75;0.9140625;violin
4.87804;0.16260133333333382;74;0.9140625;violin
5.040641333333334;0.16260133333333293;75;0.9140625;violin
5.203242666666667;0.16260133333333293;74;0.9140625;violin
5.365844;0.42682850000000006;72;0.9140625;violin
5.853648000000001;0.16260133333333293;70;0.9140625;violin
6.016249333333334;0.16260133333333382;72;0.9140625;violin
6.178850666666667;0.16260133333333293;70;0.9140625;violin
6.341452;0.42682850000000006;68;0.9140625;violin
6.829256000000001;0.16260133333333293;67;0.9140625;violin
6.991857333333334;0.16260133333333382;68;0.9140625;violin
7.154458666666668;0.16260133333333293;67;0.9140625;violin
7.317060000000001;0.42682850000000006;65;0.9140625;violin
7.804864;0.16260133333333382;63;0.9140625;violin
7.967465333333334;0.16260133333333382;65;0.9140625;violin
8.130066666666668;0.16260133333333293;63;0.9140625;violin
8.292668;0.42682849999999917;62;0.9140625;violin
8.780472000000001;0.16260133333333293;68;0.9140625;violin
8.943073333333334;0.16260133333333293;67;0.9140625;violin
9.105674666666667;0.16260133333333293;68;0.9140625;violin
9.268276;0.42682850000000094;67;0.9140625;violin
9.75608;0.16260133333333293;65;0.9140625;violin
9.918681333333334;0.1626013333333347;63;0.9140625;violin
10.081282666666668;0.16260133333333293;65;0.9140625;violin
10.243884000000001;0.42682849999999917;63;0.9140625;violin
10.731688;0.1626013333333347;79;0.9140625;violin
10.894289333333335;0.16260133333333293;78;0.9140625;violin
11.056890666666668;0.16260133333333293;79;0.9140625;violin
11.219492;0.42682850000000094;75;0.9140625;violin
11.707296000000001;0.16260133333333293;72;0.875;violin
11.869897333333334;0.16260133333333293;71;0.8671875;violin
12.032498666666667;0.1626013333333347;72;0.8515625;violin
12.195100000000002;0.42682849999999917;69;0.84375;violin
12.682904;0.1626013333333347;74;0.8046875;violin
12.845505333333335;0.16260133333333293;73;0.796875;violin
13.008106666666668;0.16260133333333293;74;0.78125;violin
13.170708000000001;0.42682849999999917;62;0.7734375;violin
13.658512000000002;0.16260133333333293;78;0.734375;violin
13.821113333333335;0.16260133333333293;76;0.734375;violin
13.983714666666668;0.16260133333333293;78;0.734375;violin
14.146316;0.42682850000000094;79;0.734375;violin
14.634120000000001;0.16260133333333293;82;0.734375;violin
14.796721333333334;0.1626013333333347;81;0.734375;violin
14.959322666666669;0.16260133333333293;82;0.734375;violin
15.121924000000002;0.42682849999999917;79;0.734375;violin
15.609728;0.1626013333333347;70;0.6328125;violin
15.772329333333335;0.16260133333333293;69;0.6328125;violin
15.934930666666668;0.16260133333333293;70;0.6328125;violin
16.097532;0.42682849999999917;74;0.6328125;violin
16.585336;0.1626013333333347;75;0.6328125;violin
16.747937333333336;0.16260133333333116;74;0.6328125;violin
16.910538666666667;0.1626013333333347;75;0.6328125;violin
17.073140000000002;0.42682849999999917;77;0.6328125;violin
17.560944000000003;0.16260133333333116;80;0.6328125;violin
17.723545333333334;0.1626013333333347;79;0.640625;violin
17.88614666666667;0.1626013333333347;80;0.640625;violin
18.048748000000003;0.42682849999999917;79;0.6484375;violin
18.536552;0.1626013333333347;77;0.671875;violin
18.699153333333335;0.1626013333333347;79;0.6796875;violin
18.86175466666667;0.16260133333333116;77;0.6875;violin
19.024356;0.42682849999999917;75;0.6875;violin
19.51216;0.1626013333333347;74;0.7109375;violin
19.674761333333336;0.16260133333333116;75;0.71875;violin
19.837362666666667;0.1626013333333347;74;0.7265625;violin
19.999964000000002;0.42682849999999917;72;0.7265625;violin
20.487768000000003;0.16260133333333116;70;0.75;violin
20.650369333333334;0.1626013333333347;72;0.7578125;violin
20.81297066666667;0.1626013333333347;70;0.765625;violin
20.975572000000003;0.42682849999999917;69;0.7734375;violin
21.463376;0.1626013333333347;77;0.7890625;violin
21.625977333333335;0.1626013333333347;76;0.7890625;violin
21.78857866666667;0.16260133333333116;77;0.7890625;violin
21.95118;0.4268285000000027;74;0.7890625;violin
22.438984;0.1626013333333347;72;0.7890625;violin
22.601585333333336;0.16260133333333116;74;0.7890625;violin
22.764186666666667;0.1626013333333347;72;0.7890625;violin
22.926788000000002;0.42682849999999917;70;0.7890625;violin
23.414592000000003;0.16260133333333116;70;0.6328125;violin
23.577193333333334;0.1626013333333347;69;0.6328125;violin
23.73979466666667;0.1626013333333347;70;0.6328125;violin
23.902396000000003;0.42682849999999917;74;0.6328125;violin
24.390200000000004;0.16260133333333116;75;0.6328125;violin
24.552801333333335;0.1626013333333347;74;0.6328125;violin
24.71540266666667;0.16260133333333116;75;0.6328125;violin
24.878004;0.4268285000000027;77;0.6328125;violin
25.365808;0.1626013333333347;80;0.6328125;violin
25.528409333333336;0.1626013333333347;79;0.640625;violin
25.69101066666667;0.16260133333333116;80;0.6484375;violin
25.853612000000002;0.42682849999999917;79;0.65625;violin
26.341416000000002;0.1626013333333347;77;0.6875;violin
26.504017333333337;0.16260133333333116;79;0.6953125;violin
26.66661866666667;0.1626013333333347;77;0.703125;violin
26.829220000000003;0.42682849999999917;75;0.7109375;violin
27.317024000000004;0.16260133333333116;74;0.734375;violin
27.479625333333335;0.1626013333333347;75;0.7421875;violin
27.64222666666667;0.1626013333333347;74;0.7578125;violin
27.804828000000004;0.42682849999999917;72;0.765625;violin
28.292632;0.1626013333333347;72;0.7890625;violin
28.455233333333336;0.1626013333333347;71;0.7890625;violin
28.61783466666667;0.16260133333333116;72;0.7890625;violin
28.780436;0.42682849999999917;75;0.7890625;violin
29.268240000000002;0.1626013333333347;75;0.7890625;violin
29.430841333333337;0.16260133333333116;74;0.7890625;violin
29.593442666666668;0.1626013333333347;72;0.7890625;violin
29.756044000000003;0.42682849999999917;71;0.7890625;violin
30.243848000000003;0.16260133333333116;74;0.7890625;violin
30.406449333333335;0.1626013333333347;73;0.7890625;violin
30.56905066666667;0.1626013333333347;74;0.7890625;violin
30.731652000000004;0.42682849999999917;79;0.7890625;violin
31.219456;0.1626013333333347;83;0.6328125;violin
31.382057333333336;0.1626013333333347;82;0.6328125;violin
31.54465866666667;0.16260133333333116;83;0.6328125;violin
31.70726;0.4268285000000027;74;0.6328125;violin
32.195064;0.1626013333333347;83;0.6328125;violin
32.35766533333334;0.1626013333333347;82;0.6328125;violin
32.52026666666667;0.1626013333333347;83;0.6328125;violin
32.682868000000006;0.42682849999999917;72;0.6328125;violin
33.170672;0.1626013333333347;81;0.6328125;violin
33.33327333333334;0.1626013333333347;80;0.6328125;violin
33.49587466666667;0.1626013333333276;81;0.6328125;violin
33.658476;0.4268285000000063;71;0.6328125;violin
34.146280000000004;0.1626013333333347;72;0.6328125;violin
34.30888133333334;0.1626013333333276;71;0.6328125;violin
34.47148266666667;0.1626013333333347;72;0.6328125;violin
34.634084;0.42682849999999917;74;0.6328125;violin
35.121888000000006;0.1626013333333276;83;0.6328125;violin
35.28448933333333;0.1626013333333347;82;0.640625;violin
35.44709066666667;0.1626013333333347;83;0.6484375;violin
35.609692;0.42682849999999917;74;0.6640625;violin
36.09749600000001;0.1626013333333276;83;0.6953125;violin
36.260097333333334;0.1626013333333347;82;0.703125;violin
36.42269866666667;0.1626013333333347;83;0.71875;violin
36.585300000000004;0.42682849999999917;81;0.7265625;violin
37.073104;0.1626013333333347;78;0.7578125;violin
37.235705333333335;0.1626013333333347;77;0.765625;violin
37.39830666666667;0.1626013333333347;78;0.78125;violin
37.560908000000005;0.42682849999999917;79;0.7890625;violin
38.048712;0.1626013333333347;74;0.7890625;violin
38.21131333333334;0.1626013333333347;73;0.7890625;violin
38.37391466666667;0.1626013333333347;74;0.7890625;violin
38.536516000000006;0.42682849999999917;67;0.7890625;violin
39.02432;0.1626013333333347;71;0.6328125;violin
39.18692133333334;0.1626013333333347;72;0.6328125;violin
39.34952266666667;0.1626013333333276;71;0.6328125;violin
39.512124;0.4268285000000063;75;0.6328125;violin
39.999928000000004;0.1626013333333347;71;0.6328125;violin
40.16252933333334;0.1626013333333347;72;0.6484375;violin
40.325130666666674;0.1626013333333276;71;0.671875;violin
40.487732;0.42682849999999917;76;0.6875;violin
40.975536000000005;0.1626013333333347;71;0.75;violin
41.13813733333334;0.1626013333333276;72;0.7734375;violin
41.30073866666667;0.1626013333333347;71;0.7890625;violin
41.46334;0.42682849999999917;83;0.8125;violin
41.951144000000006;0.1626013333333276;81;0.765625;violin
42.113745333333334;0.1626013333333347;83;0.75;violin
42.27634666666667;0.1626013333333347;81;0.734375;violin
42.438948;0.42682849999999917;79;0.71875;violin
42.926752;0.1626013333333347;79;0.671875;violin
43.089353333333335;0.1626013333333347;78;0.6640625;violin
43.25195466666667;0.1626013333333347;76;0.6484375;violin
43.414556000000005;0.42682849999999917;74;0.6328125;violin
43.90236;0.1626013333333347;76;0.6328125;violin
44.064961333333336;0.1626013333333347;74;0.6328125;violin
44.22756266666667;0.1626013333333347;71;0.6328125;violin
44.390164000000006;0.42682849999999917;69;0.6328125;violin
44.877968;0.1626013333333347;74;0.6328125;violin
45.04056933333334;0.1626013333333347;72;0.6328125;violin
45.20317066666667;0.1626013333333347;69;0.6328125;violin
45.36577200000001;0.42682849999999917;70;0.6328125;violin
45.853576000000004;0.1626013333333347;70;0.5234375;violin
46.01617733333334;0.1626013333333347;71;0.484375;violin
46.17877866666667;0.1626013333333276;72;0.453125;violin
46.34138;0.4268285000000063;71;0.453125;violin
46.829184000000005;0.1626013333333347;71;0.453125;violin
46.99178533333334;0.1626013333333276;72;0.453125;violin
47.15438666666667;0.1626013333333347;71;0.453125;violin
47.316988;0.42682849999999917;83;0.7890625;violin
47.804792000000006;0.1626013333333347;81;0.7890625;violin
47.96739333333334;0.1626013333333276;83;0.7890625;violin
48.12999466666667;0.1626013333333347;81;0.7890625;violin
48.292596;0.42682849999999917;79;0.7890625;violin
48.78040000000001;0.1626013333333276;78;0.7890625;violin
48.943001333333335;0.1626013333333347;79;0.7890625;violin
49.10560266666667;0.1626013333333347;78;0.7890625;violin
49.268204000000004;0.42682849999999917;81;0.7890625;violin
49.756008;0.1626013333333347;79;0.7734375;violin
49.918609333333336;0.1626013333333347;81;0.765625;violin
50.08121066666667;0.1626013333333347;79;0.7578125;violin
50.243812000000005;0.42682849999999917;76;0.7578125;violin
50.731616;0.1626013333333347;72;0.734375;violin
50.89421733333334;0.1626013333333347;74;0.734375;violin
51.05681866666667;0.1626013333333347;72;0.7265625;violin
51.21942000000001;0.42682849999999917;76;0.71875;violin
51.707224000000004;0.1626013333333347;74;0.703125;violin
51.86982533333334;0.1626013333333347;76;0.6953125;violin
52.03242666666667;0.1626013333333347;74;0.6875;violin
52.19502800000001;0.42682849999999917;72;0.6875;violin
52.682832000000005;0.1626013333333347;69;0.6640625;violin
52.84543333333334;0.1626013333333347;71;0.6640625;violin
53.008034666666674;0.1626013333333276;69;0.65625;violin
53.170636;0.4268285000000063;67;0.6484375;violin
53.658440000000006;0.1626013333333347;67;0.6328125;violin
53.82104133333334;0.1626013333333276;66;0.6328125;violin
53.98364266666667;0.1626013333333347;67;0.6328125;violin
54.146244;0.42682849999999917;55;0.6328125;violin
54.63404800000001;0.1626013333333276;67;0.6328125;violin
54.796649333333335;0.1626013333333347;66;0.6328125;violin
54.95925066666667;0.1626013333333347;67;0.6328125;violin
55.121852000000004;0.42682849999999917;71;0.6328125;violin
55.60965600000001;0.1626013333333276;72;0.6328125;violin
55.772257333333336;0.1626013333333347;71;0.6328125;violin
55.93485866666667;0.1626013333333347;72;0.6328125;violin
56.097460000000005;0.42682849999999917;74;0.6328125;violin
56.585264;0.1626013333333347;79;0.6328125;violin
56.74786533333334;0.1626013333333347;78;0.640625;violin
56.91046666666667;0.1626013333333347;79;0.6484375;violin
57.073068000000006;0.42682849999999917;77;0.6640625;violin
57.560872;0.1626013333333347;75;0.6953125;violin
57.72347333333334;0.1626013333333347;74;0.703125;violin
57.88607466666667;0.1626013333333347;75;0.71875;violin
58.04867600000001;0.42682849999999917;74;0.7265625;violin
58.536480000000005;0.1626013333333347;72;0.7578125;violin
58.69908133333334;0.1626013333333347;71;0.765625;violin
58.861682666666674;0.1626013333333347;72;0.78125;violin
59.02428400000001;0.42682849999999917;75;0.7890625;violin
59.512088000000006;0.1626013333333347;75;0.7890625;violin
59.67468933333334;0.1626013333333347;74;0.7890625;violin
59.837290666666675;0.1626013333333276;72;0.7890625;violin
59.999892;0.42682849999999917;81;0.7890625;violin
60.48769600000001;0.1626013333333347;75;0.7890625;violin
60.65029733333334;0.1626013333333276;74;0.7734375;violin
60.81289866666667;0.1626013333333347;72;0.7578125;violin
60.975500000000004;0.42682849999999917;71;0.734375;violin
61.46330400000001;0.1626013333333276;74;0.6875;violin
61.625905333333336;0.1626013333333347;73;0.6640625;violin
61.78850666666667;0.1626013333333347;74;0.6484375;violin
61.951108000000005;0.42682849999999917;79;0.6328125;violin
62.438912;0.1626013333333347;67;0.6328125;violin
62.60151333333334;0.1626013333333347;66;0.6328125;violin
62.76411466666667;0.1626013333333347;67;0.6328125;violin
62.926716000000006;0.42682849999999917;71;0.6328125;violin
63.41452;0.1626013333333347;72;0.6328125;violin
63.57712133333334;0.1626013333333347;71;0.6328125;violin
63.73972266666667;0.1626013333333347;72;0.6328125;violin
63.90232400000001;0.42682849999999917;74;0.6328125;violin
64.390128;0.1626013333333418;79;0.6328125;violin
64.55272933333335;0.1626013333333276;78;0.640625;violin
64.71533066666667;0.1626013333333276;79;0.6484375;violin
64.877932;0.42682849999999917;77;0.6640625;violin
65.36573600000001;0.1626013333333276;75;0.6953125;violin
65.52833733333334;0.1626013333333276;74;0.703125;violin
65.69093866666667;0.1626013333333418;75;0.71875;violin
65.85354000000001;0.42682849999999917;74;0.7265625;violin
66.341344;0.1626013333333276;72;0.7578125;violin
66.50394533333333;0.1626013333333418;71;0.765625;violin
66.66654666666668;0.1626013333333276;72;0.78125;violin
66.829148;0.42682849999999917;75;0.7890625;violin
67.316952;0.1626013333333418;75;0.7890625;violin
67.47955333333334;0.1626013333333276;74;0.7890625;violin
67.64215466666667;0.1626013333333418;72;0.7890625;violin
67.80475600000001;0.42682849999999917;78;0.7890625;violin
68.29256000000001;0.1626013333333276;75;0.7890625;violin
68.45516133333334;0.1626013333333418;74;0.7734375;violin
68.61776266666668;0.1626013333333276;72;0.7578125;violin
68.780364;0.42682849999999917;71;0.7421875;violin
69.268168;0.1626013333333418;74;0.703125;violin
69.43076933333334;0.1626013333333276;73;0.6875;violin
69.59337066666667;0.1626013333333276;74;0.671875;violin
69.755972;0.4268285000000134;79;0.65625;violin
70.24377600000001;0.1626013333333276;79;0.609375;violin
70.40637733333334;0.1626013333333276;81;0.671875;violin
70.56897866666667;0.1626013333333418;79;0.7265625;violin
70.73158000000001;0.42682849999999917;83;0.7890625;violin
71.219384;0.1626013333333276;79;0.7890625;violin
71.38198533333333;0.1626013333333418;81;0.7890625;violin
71.54458666666667;0.1626013333333276;79;0.7890625;violin
71.707188;0.42682849999999917;76;0.7890625;violin
72.19499200000001;0.1626013333333276;73;0.7578125;violin
72.35759333333334;0.1626013333333276;74;0.7421875;violin
72.52019466666667;0.1626013333333418;73;0.7265625;violin
72.68279600000001;0.42682849999999917;74;0.71875;violin
73.17060000000001;0.1626013333333276;77;0.6796875;violin
73.33320133333334;0.1626013333333418;79;0.671875;violin
73.49580266666668;0.1626013333333276;77;0.65625;violin
73.658404;0.42682849999999917;81;0.6484375;violin
74.146208;0.1626013333333418;77;0.609375;violin
74.30880933333334;0.1626013333333276;79;0.671875;violin
74.47141066666667;0.1626013333333418;77;0.7265625;violin
74.63401200000001;0.42682849999999917;80;0.7890625;violin
75.12181600000001;0.1626013333333276;77;0.7890625;violin
75.28441733333334;0.1626013333333418;79;0.7890625;violin
75.44701866666668;0.1626013333333276;77;0.7890625;violin
75.60962;0.42682849999999917;74;0.7890625;violin
76.097424;0.1626013333333418;71;0.7578125;violin
76.26002533333335;0.1626013333333276;72;0.75;violin
76.42262666666667;0.1626013333333276;71;0.734375;violin
76.585228;0.42682849999999917;72;0.7265625;violin
77.07303200000001;0.1626013333333276;74;0.6953125;violin
77.23563333333334;0.1626013333333276;72;0.6875;violin
77.39823466666667;0.1626013333333418;74;0.671875;violin
77.56083600000001;0.42682849999999917;75;0.6640625;violin
78.04864;0.1626013333333276;72;0.6328125;violin
78.21124133333333;0.1626013333333418;71;0.6328125;violin
78.37384266666668;0.1626013333333276;72;0.6328125;violin
78.536444;0.42682849999999917;75;0.6328125;violin
79.024248;0.1626013333333418;72;0.6328125;violin
79.18684933333334;0.1626013333333276;71;0.6328125;violin
79.34945066666667;0.1626013333333418;72;0.6328125;violin
79.51205200000001;0.42682849999999917;68;0.6328125;violin
79.99985600000001;0.1626013333333276;65;0.6328125;violin
80.16245733333334;0.1626013333333418;64;0.6328125;violin
80.32505866666668;0.1626013333333276;65;0.6328125;violin
80.48766;0.42682849999999917;67;0.6328125;violin
80.975464;0.1626013333333418;67;0.6328125;violin
81.13806533333334;0.1626013333333276;66;0.6328125;violin
81.30066666666667;0.1626013333333418;67;0.6328125;violin
81.46326800000001;0.42682849999999917;55;0.6328125;violin
81.95107200000001;0.1626013333333276;67;0.6328125;violin
82.11367333333334;0.1626013333333418;66;0.6328125;violin
82.27627466666668;0.1626013333333276;67;0.6328125;violin
82.43887600000001;0.42682849999999917;71;0.6328125;violin
82.92668;0.1626013333333418;67;0.671875;violin
83.08928133333335;0.1626013333333276;66;0.6875;violin
83.25188266666667;0.1626013333333276;67;0.6953125;violin
83.414484;0.42682849999999917;72;0.7109375;violin
83.90228800000001;0.1626013333333276;67;0.75;violin
84.06488933333334;0.1626013333333276;66;0.765625;violin
84.22749066666667;0.1626013333333418;67;0.7734375;violin
84.39009200000001;0.42682849999999917;74;0.7890625;violin
84.877896;0.1626013333333276;67;0.6328125;violin
85.04049733333333;0.1626013333333418;66;0.6328125;violin
85.20309866666668;0.1626013333333276;67;0.6328125;violin
85.3657;0.42682849999999917;55;0.6328125;violin
85.853504;0.1626013333333418;67;0.6328125;violin
86.01610533333334;0.1626013333333276;66;0.6328125;violin
86.17870666666667;0.1626013333333418;67;0.6328125;violin
86.34130800000001;0.42682849999999917;72;0.6328125;violin
86.82911200000001;0.1626013333333276;67;0.6328125;violin
86.99171333333334;0.1626013333333418;66;0.6328125;violin
87.15431466666668;0.1626013333333276;67;0.6484375;violin
87.316916;0.42682849999999917;74;0.671875;violin
87.80472;0.1626013333333418;67;0.7265625;violin
87.96732133333335;0.1626013333333276;66;0.75;violin
88.12992266666667;0.1626013333333418;67;0.7734375;violin
88.29252400000001;0.42682849999999917;75;0.7890625;violin
88.78032800000001;0.1626013333333276;67;0.6328125;violin
88.94292933333334;0.1626013333333418;66;0.6328125;violin
89.10553066666668;0.1626013333333276;67;0.6328125;violin
89.26813200000001;0.42682849999999917;55;0.6328125;violin
89.755936;0.1626013333333418;67;0.6328125;violin
89.91853733333335;0.1626013333333276;66;0.6328125;violin
90.08113866666667;0.1626013333333276;67;0.6328125;violin
90.24374;0.42682849999999917;74;0.6328125;violin
90.73154400000001;0.1626013333333276;67;0.6875;violin
90.89414533333334;0.1626013333333276;66;0.703125;violin
91.05674666666667;0.1626013333333418;67;0.71875;violin
91.21934800000001;0.42682849999999917;75;0.734375;violin
91.70715200000001;0.1626013333333276;67;0.7890625;violin
91.86975333333334;0.1626013333333418;66;0.7890625;violin
92.03235466666668;0.1626013333333276;67;0.7890625;violin
92.194956;0.42682849999999917;72;0.7890625;violin
92.68276;0.1626013333333418;67;0.7109375;violin
92.84536133333334;0.1626013333333276;66;0.6875;violin
93.00796266666667;0.1626013333333418;67;0.65625;violin
93.17056400000001;0.42682849999999917;71;0.6328125;violin
93.65836800000001;0.1626013333333276;67;0.7890625;violin
93.82096933333334;0.1626013333333418;66;0.8125;violin
93.98357066666668;0.1626013333333276;67;0.828125;violin
94.146172;0.42682849999999917;68;0.8515625;violin
94.633976;0.1626013333333418;67;0.8515625;violin
94.79657733333335;0.1626013333333276;66;0.8671875;violin
94.95917866666667;0.1626013333333418;67;0.890625;violin
95.12178000000002;0.42682849999999917;63;0.90625;violin
95.60958400000001;0.1626013333333276;60;0.90625;violin
95.77218533333334;0.1626013333333418;59;0.9296875;violin
95.93478666666668;0.1626013333333276;60;0.9453125;violin
96.09738800000001;0.42682849999999917;55;0.96875;violin
96.585192;0.1626013333333418;60;0.96875;violin
96.74779333333335;0.1626013333333276;59;0.96875;violin
96.91039466666668;0.1626013333333276;60;0.96875;violin
97.072996;0.42682849999999917;63;0.96875;violin
97.56080000000001;0.1626013333333276;67;0.96875;violin
97.72340133333334;0.1626013333333276;66;0.96875;violin
97.88600266666667;0.1626013333333418;67;0.96875;violin
98.04860400000001;0.42682849999999917;75;0.96875;violin
98.53640800000001;0.1626013333333276;74;0.96875;violin
98.69900933333334;0.1626013333333418;75;0.96875;violin
98.86161066666668;0.1626013333333276;74;0.96875;violin
99.024212;0.42682849999999917;72;0.96875;violin
99.512016;0.1626013333333418;70;0.96875;violin
99.67461733333334;0.1626013333333276;72;0.96875;violin
99.83721866666667;0.1626013333333418;70;0.96875;violin
99.99982000000001;0.42682849999999917;68;0.96875;violin
100.48762400000001;0.1626013333333276;67;0.96875;violin
100.65022533333334;0.1626013333333418;68;0.96875;violin
100.81282666666668;0.1626013333333276;67;0.96875;violin
100.97542800000001;0.42682849999999917;65;0.96875;violin
101.463232;0.1626013333333418;63;0.96875;violin
101.62583333333335;0.1626013333333276;65;0.96875;violin
101.78843466666667;0.1626013333333276;63;0.96875;violin
101.951036;0.4268285000000134;62;0.96875;violin
102.43884000000001;0.1626013333333276;68;0.96875;violin
102.60144133333334;0.1626013333333418;67;0.96875;violin
102.76404266666668;0.1626013333333276;68;0.96875;violin
102.92664400000001;0.42682849999999917;67;0.96875;violin
103.41444800000001;0.1626013333333418;65;0.96875;violin
103.57704933333335;0.1626013333333276;63;0.96875;violin
103.73965066666668;0.1626013333333276;65;0.96875;violin
103.902252;0.42682849999999917;63;0.96875;violin
104.39005600000002;0.1626013333333276;79;0.96875;violin
104.55265733333334;0.1626013333333276;78;0.96875;violin
104.71525866666667;0.1626013333333418;79;0.96875;violin
104.87786000000001;0.42682849999999917;75;0.96875;violin
105.36566400000001;0.1626013333333276;72;0.96875;violin
105.52826533333334;0.1626013333333418;71;0.96875;violin
105.69086666666668;0.1626013333333276;72;0.96875;violin
105.853468;0.42682849999999917;80;0.96875;violin
106.341272;0.1626013333333418;77;0.96875;violin
106.50387333333335;0.1626013333333276;76;0.96875;violin
106.66647466666667;0.1626013333333418;77;0.96875;violin
106.82907600000001;0.42682849999999917;79;0.96875;violin
107.31688000000001;0.1626013333333276;71;0.96875;violin
107.47948133333334;0.1626013333333418;69;0.96875;violin
107.64208266666668;0.1626013333333276;71;0.96875;violin
107.80468400000001;0.42682849999999917;72;0.96875;violin
108.292488;0.1626013333333418;76;0.6328125;violin
108.45508933333335;0.1626013333333276;77;0.6328125;violin
108.61769066666668;0.1626013333333276;76;0.6328125;violin
108.780292;0.4268285000000134;79;0.6328125;violin
109.26809600000001;0.1626013333333276;82;0.71875;violin
109.43069733333334;0.1626013333333276;81;0.75;violin
109.59329866666667;0.1626013333333418;82;0.78125;violin
109.75590000000001;0.42682849999999917;80;0.8125;violin
110.24370400000001;0.1626013333333418;77;0.765625;violin
110.40630533333335;0.1626013333333276;76;0.75;violin
110.56890666666668;0.1626013333333276;77;0.734375;violin
110.731508;0.42682849999999917;72;0.71875;violin
111.21931200000002;0.1626013333333276;68;0.671875;violin
111.38191333333334;0.1626013333333276;67;0.6640625;violin
111.54451466666667;0.1626013333333418;68;0.6484375;violin
111.70711600000001;0.42682849999999917;65;0.6328125;violin
112.19492000000001;0.1626013333333276;65;0.6875;violin
112.35752133333334;0.1626013333333418;67;0.703125;violin
112.52012266666668;0.1626013333333276;68;0.71875;violin
112.68272400000001;0.42682849999999917;67;0.734375;violin
113.170528;0.1626013333333418;55;0.7890625;violin
113.33312933333335;0.1626013333333276;57;0.7890625;violin
113.49573066666667;0.1626013333333418;59;0.7890625;violin
113.65833200000002;0.42682849999999917;60;0.7890625;violin
114.14613600000001;0.1626013333333276;63;0.6328125;violin
114.30873733333334;0.1626013333333418;62;0.6328125;violin
114.47133866666668;0.1626013333333276;63;0.6328125;violin
114.63394000000001;0.42682849999999917;67;0.6328125;violin
115.121744;0.1626013333333418;72;0.6328125;violin
115.28434533333335;0.1626013333333276;71;0.6328125;violin
115.44694666666668;0.1626013333333276;72;0.640625;violin
115.609548;0.48780400000001123;76;0.65625;violin
116.09735200000001;0.1626013333333276;77;0.6953125;violin
116.25995333333334;0.1626013333333276;76;0.7109375;violin
116.42255466666667;0.1626013333333418;77;0.71875;violin
116.58515600000001;0.42682849999999917;79;0.734375;violin
117.07296000000001;0.1626013333333276;82;0.7734375;violin
117.23556133333334;0.1626013333333418;81;0.78125;violin
117.39816266666668;0.1626013333333276;82;0.796875;violin
117.560764;0.42682849999999917;80;0.8125;violin
118.04856800000002;0.1626013333333276;77;0.765625;violin
118.21116933333334;0.1626013333333276;76;0.75;violin
118.37377066666667;0.1626013333333418;77;0.734375;violin
118.53637200000001;0.42682849999999917;72;0.71875;violin
119.02417600000001;0.1626013333333276;68;0.671875;violin
119.18677733333334;0.1626013333333418;67;0.6640625;violin
119.34937866666668;0.1626013333333276;68;0.6484375;violin
119.51198000000001;0.42682849999999917;65;0.6328125;violin
119.999784;0.1626013333333418;65;0.640625;violin
120.16238533333335;0.1626013333333276;67;0.6484375;violin
120.32498666666667;0.1626013333333418;68;0.65625;violin
120.48758800000002;0.42682849999999917;67;0.65625;violin
120.97539200000001;0.1626013333333276;55;0.671875;violin
121.13799333333334;0.1626013333333418;57;0.671875;violin
121.30059466666668;0.1626013333333276;59;0.6796875;violin
121.46319600000001;0.42682849999999917;60;0.6875;violin
121.95100000000001;0.1626013333333418;60;0.6953125;violin
122.11360133333335;0.1626013333333276;59;0.703125;violin
122.27620266666668;0.1626013333333276;60;0.703125;violin
122.438804;0.42682849999999917;63;0.7109375;violin
122.92660800000002;0.1626013333333276;67;0.7265625;violin
123.08920933333334;0.1626013333333276;66;0.7265625;violin
123.25181066666667;0.1626013333333418;67;0.734375;violin
123.41441200000001;0.42682849999999917;72;0.734375;violin
123.90221600000001;0.1626013333333276;72;0.75;violin
124.06481733333334;0.1626013333333418;71;0.7578125;violin
124.22741866666668;0.1626013333333276;72;0.7578125;violin
124.39002;0.42682849999999917;75;0.765625;violin
124.877824;0.1626013333333418;79;0.7734375;violin
125.04042533333335;0.1626013333333276;78;0.78125;violin
125.20302666666667;0.1626013333333418;79;0.7890625;violin
125.36562800000002;1.7073139999999967;84;0.7890625;violin
127.31684400000002;0.8536569999999841;63;0.6328125;violin
127.31684400000002;0.8536569999999841;72;0.6328125;violin
128.292452;0.8536570000000268;63;0.6328125;violin
128.292452;0.8536570000000268;72;0.6328125;violin
129.26806000000002;1.2804854999999975;63;0.7890625;violin
129.26806000000002;1.2804854999999975;72;0.7890625;violin
