start;duration;pitch;velocity;instrument
0.0;0.135135;60;0.7578125;violin
0.27027;0.135135;64;0.7734375;violin
0.54054;0.135135;67;0.796875;violin
0.81081;0.135135;72;0.8203125;violin
1.08108;0.27027;76;0.8359375;violin
1.35135;0.27027;79;0.859375;violin
1.62162;0.27027;84;0.875;violin
1.89189;0.27027;76;0.8984375;violin
2.16216;0.27027;79;0.9140625;violin
2.43243;0.27027;84;0.9375;violin
2.7027;0.27027;88;0.9375;violin
3.24324;0.27027;59;0.7578125;violin
3.51351;0.27027;62;0.7734375;violin
3.78378;0.135135;67;0.796875;violin
4.05405;0.135135;71;0.8203125;violin
4.32432;0.27027;74;0.8359375;violin
4.59459;0.27027;79;0.859375;violin
4.86486;0.135135;83;0.875;violin
5.13513;0.135135;74;0.8984375;violin
5.4054;0.135135;79;0.9140625;violin
5.67567;0.135135;83;0.9375;violin
5.94594;0.135135;86;0.9375;violin
6.48648;0.27027;62;0.7578125;violin
6.75675;0.135135;65;0.7734375;violin
7.02702;0.135135;69;0.7890625;violin
7.29729;0.27027;74;0.8125;violin
7.56756;0.27027;77;0.828125;violin
7.83783;0.27027;81;0.84375;violin
8.1081;0.135135;86;0.8671875;violin
8.37837;0.135135;77;0.8828125;violin
8.64864;0.135135;81;0.8984375;violin
8.91891;0.27027;86;0.9140625;violin
9.18918;0.27027;89;0.9375;violin
9.72972;0.135135;57;0.7578125;violin
9.99999;0.135135;61;0.7734375;violin
10.27026;0.135135;64;0.796875;violin
10.54053;0.135135;69;0.8203125;violin
10.8108;0.135135;73;0.8359375;violin
11.08107;0.135135;76;0.859375;violin
11.35134;0.27027;81;0.875;violin
11.62161;0.27027;76;0.8984375;violin
11.89188;0.27027;81;0.9140625;violin
12.16215;0.135135;85;0.9375;violin
12.43242;0.135135;88;0.9375;violin
12.97296;0.135135;62;0.9375;violin
13.24323;0.135135;65;0.9140625;violin
13.5135;0.135135;69;0.9140625;violin
13.78377;0.135135;74;0.9140625;violin
14.05404;0.135135;77;0.9140625;violin
14.32431;0.135135;81;0.9140625;violin
14.59458;0.135135;59;0.9140625;violin
14.86485;0.135135;62;0.890625;violin
15.13512;0.135135;67;0.890625;violin
15.40539;0.135135;71;0.890625;violin
15.67566;0.135135;74;0.890625;violin
15.94593;0.13513500000000178;71;0.890625;violin
16.2162;0.13513499999999823;60;0.890625;violin
16.48647;0.13513500000000178;64;0.8671875;violin
16.75674;0.13513499999999823;67;0.8671875;violin
17.02701;0.13513500000000178;72;0.8671875;violin
17.29728;0.13513499999999823;76;0.8671875;violin
17.56755;0.13513500000000178;79;0.8671875;violin
17.83782;0.13513499999999823;57;0.8671875;violin
18.10809;0.13513500000000178;60;0.84375;violin
18.37836;0.13513499999999823;65;0.84375;violin
18.64863;0.13513500000000178;69;0.84375;violin
18.9189;0.13513499999999823;72;0.84375;violin
19.18917;0.13513500000000178;69;0.84375;violin
19.45944;0.13513499999999823;59;0.84375;violin
19.72971;0.13513500000000178;62;0.8203125;violin
19.99998;0.13513499999999823;65;0.8203125;violin
20.27025;0.27027;71;0.8203125;violin
20.54052;0.27027;74;0.8203125;violin
20.81079;0.27027;77;0.8203125;violin
21.08106;0.13513499999999823;56;0.8203125;violin
21.35133;0.13513500000000178;59;0.8046875;violin
21.6216;0.13513499999999823;64;0.8046875;violin
21.89187;0.13513500000000178;68;0.8046875;violin
22.16214;0.13513499999999823;71;0.8046875;violin
22.43241;0.13513500000000178;68;0.8046875;violin
22.70268;0.13513499999999823;57;0.8046875;violin
22.97295;0.13513500000000178;60;0.78125;violin
23.24322;0.13513499999999823;64;0.78125;violin
23.51349;0.13513500000000178;69;0.78125;violin
23.78376;0.13513499999999823;72;0.78125;violin
24.05403;0.13513500000000178;76;0.78125;violin
24.3243;0.13513499999999823;65;0.78125;violin
24.59457;0.27027;69;0.7578125;violin
24.86484;0.27027;76;0.7578125;violin
25.13511;0.13513500000000178;75;0.7578125;violin
25.40538;0.13513499999999823;69;0.7578125;violin
25.67565;0.13513500000000178;71;0.7578125;violin
25.94592;0.13513499999999823;64;0.7578125;violin
26.21619;0.13513500000000178;68;0.7890625;violin
26.48646;0.13513499999999823;71;0.8203125;violin
26.75673;0.27027;76;0.84375;violin
27.027;0.13513499999999823;80;0.875;violin
27.29727;0.13513500000000178;83;0.90625;violin
27.56754;0.4729725000000009;88;0.9375;violin
29.18916;0.13513499999999823;57;0.7578125;violin
29.45943;0.13513500000000178;60;0.7734375;violin
29.7297;0.13513499999999823;64;0.796875;violin
29.99997;0.13513500000000178;69;0.8203125;violin
30.27024;0.13513499999999823;72;0.8359375;violin
30.54051;0.13513500000000178;76;0.859375;violin
30.81078;0.13513499999999823;77;0.875;violin
31.08105;0.13513500000000178;69;0.8984375;violin
31.35132;0.13513499999999823;74;0.9140625;violin
31.62159;0.13513500000000178;77;0.9375;violin
31.89186;0.13513499999999823;81;0.9375;violin
32.4324;0.13513499999999823;55;0.7578125;violin
32.70267;0.13513500000000533;59;0.7734375;violin
32.97294;0.13513499999999823;62;0.796875;violin
33.243210000000005;0.13513499999999823;67;0.8203125;violin
33.51348;0.13513499999999823;71;0.8359375;violin
33.78375;0.13513500000000533;74;0.859375;violin
34.05402;0.13513499999999823;76;0.875;violin
34.324290000000005;0.13513499999999823;67;0.8984375;violin
34.59456;0.13513499999999823;72;0.9140625;violin
34.86483;0.27027000000000356;76;0.9375;violin
35.1351;0.13513499999999823;79;0.9375;violin
35.67564;0.13513499999999823;65;0.9375;violin
35.94591;0.13513500000000533;69;0.7578125;violin
36.21618;0.13513499999999823;72;0.7578125;violin
36.486450000000005;0.13513499999999823;77;0.7578125;violin
36.75672;0.27026999999999646;81;0.84375;violin
37.02699;0.27027000000000356;84;0.9375;violin
37.29726;0.27027000000000356;62;0.9375;violin
37.567530000000005;0.27026999999999646;77;0.7578125;violin
37.8378;0.27026999999999646;81;0.7578125;violin
38.10807;0.27027000000000356;86;0.7578125;violin
38.37834;0.27027000000000356;89;0.8203125;violin
38.648610000000005;0.27026999999999646;93;0.875;violin
38.91888;0.13513499999999823;55;0.9375;violin
39.18915;0.13513500000000533;60;0.7578125;violin
39.45942;0.13513499999999823;64;0.7578125;violin
39.729690000000005;0.13513499999999823;67;0.8203125;violin
39.99996;0.13513499999999823;72;0.875;violin
40.27023;0.27027000000000356;76;0.9375;violin
40.5405;0.13513499999999823;79;0.9375;violin
40.810770000000005;0.13513499999999823;74;0.9375;violin
41.08104;0.13513499999999823;71;0.9375;violin
41.35131;0.13513500000000533;67;0.875;violin
41.62158;0.13513499999999823;62;0.8203125;violin
41.891850000000005;0.13513499999999823;59;0.7578125;violin
42.16212;0.13513499999999823;60;0.7578125;violin
42.43239;0.13513500000000533;63;0.7734375;violin
42.70266;0.13513499999999823;67;0.796875;violin
42.972930000000005;0.13513499999999823;72;0.8203125;violin
43.2432;0.13513499999999823;75;0.8359375;violin
43.51347;0.27027000000000356;79;0.859375;violin
43.78374;0.27027000000000356;84;0.875;violin
44.054010000000005;0.27026999999999646;75;0.8984375;violin
44.32428;0.27026999999999646;79;0.9140625;violin
44.59455;0.27027000000000356;84;0.9375;violin
44.86482;0.27027000000000356;88;0.9375;violin
45.40536;0.13513499999999823;59;0.7578125;violin
45.67563;0.13513500000000533;62;0.7734375;violin
45.9459;0.13513499999999823;67;0.796875;violin
46.216170000000005;0.13513499999999823;71;0.8203125;violin
46.48644;0.27026999999999646;74;0.8359375;violin
46.75671;0.27027000000000356;79;0.859375;violin
47.02698;0.13513499999999823;83;0.875;violin
47.297250000000005;0.13513499999999823;74;0.8984375;violin
47.56752;0.13513499999999823;79;0.9140625;violin
47.83779;0.13513500000000533;83;0.9375;violin
48.10806;0.13513499999999823;86;0.9375;violin
48.6486;0.13513499999999823;58;0.7578125;violin
48.91887;0.13513500000000533;62;0.7734375;violin
49.18914;0.13513499999999823;67;0.796875;violin
49.459410000000005;0.13513499999999823;70;0.8203125;violin
49.72968;0.27026999999999646;74;0.8359375;violin
49.99995;0.27027000000000356;79;0.859375;violin
50.27022;0.13513499999999823;82;0.875;violin
50.540490000000005;0.13513499999999823;74;0.8984375;violin
50.81076;0.13513499999999823;79;0.9140625;violin
51.08103;0.13513500000000533;82;0.9375;violin
51.3513;0.13513499999999823;86;0.9375;violin
51.89184;0.13513499999999823;62;0.7578125;violin
52.16211;0.13513500000000533;66;0.7734375;violin
52.43238;0.13513499999999823;69;0.796875;violin
52.702650000000006;0.27026999999999646;74;0.8203125;violin
52.97292;0.27026999999999646;78;0.8359375;violin
53.24319;0.27027000000000356;81;0.859375;violin
53.51346;0.13513499999999823;86;0.875;violin
53.783730000000006;0.13513499999999823;78;0.8984375;violin
54.054;0.13513499999999823;81;0.9140625;violin
54.32427;0.27027000000000356;86;0.9375;violin
54.59454;0.27027000000000356;90;0.9375;violin
55.13508;0.27026999999999646;67;0.7578125;violin
55.40535;0.27027000000000356;70;0.7890625;violin
55.67562;0.23648624999999868;74;0.828125;violin
55.945890000000006;0.23648624999999868;79;0.8671875;violin
56.21616;0.23648624999999868;82;0.8984375;violin
56.48643;0.23648625000000578;86;0.9375;violin
56.7567;0.27027000000000356;63;0.7578125;violin
57.026970000000006;0.27026999999999646;67;0.7890625;violin
57.29724;0.27026999999999646;72;0.828125;violin
57.56751;0.27027000000000356;75;0.8671875;violin
57.83778;0.27027000000000356;79;0.8984375;violin
58.108050000000006;0.27026999999999646;84;0.9375;violin
58.37832;0.27026999999999646;65;0.7578125;violin
58.64859;0.23648625000000578;70;0.7890625;violin
58.91886;0.27027000000000356;74;0.828125;violin
59.189130000000006;0.27026999999999646;77;0.8671875;violin
59.4594;0.23648624999999868;82;0.8984375;violin
59.72967;0.23648625000000578;86;0.9375;violin
59.99994;0.27027000000000356;65;0.7578125;violin
60.270210000000006;0.27026999999999646;69;0.7890625;violin
60.54048;0.23648624999999868;72;0.828125;violin
60.81075;0.23648625000000578;77;0.8671875;violin
61.08102;0.27027000000000356;81;0.8984375;violin
61.351290000000006;0.27026999999999646;84;0.9375;violin
61.62156;0.23648624999999868;86;0.7578125;violin
61.89183;0.23648625000000578;82;0.7578125;violin
62.1621;0.23648624999999868;77;0.7578125;violin
62.432370000000006;0.23648624999999868;74;0.7578125;violin
62.70264;0.27026999999999646;70;0.7578125;violin
62.97291;0.27027000000000356;65;0.7578125;violin
63.24318;0.23648624999999868;62;0.7578125;violin
63.513450000000006;0.23648624999999868;70;0.7578125;violin
63.78372;0.23648624999999868;65;0.7578125;violin
64.05399;0.23648624999999868;62;0.7578125;violin
64.32426000000001;0.23648624999999868;58;0.7578125;violin
64.59453;0.27026999999999646;86;0.7578125;violin
64.8648;0.27026999999999646;84;0.7578125;violin
65.13507;0.23648624999999868;81;0.7578125;violin
65.40534;0.27027000000001067;77;0.7578125;violin
65.67561;0.27026999999999646;72;0.7578125;violin
65.94588;0.27026999999999646;69;0.7578125;violin
66.21615;0.27027000000001067;65;0.7578125;violin
66.48642000000001;0.27026999999999646;60;0.7578125;violin
66.75669;0.27026999999999646;69;0.7578125;violin
67.02696;0.23648624999999868;65;0.7578125;violin
67.29723;0.23648624999999868;60;0.7578125;violin
67.5675;0.27027000000001067;57;0.7578125;violin
67.83777;0.27026999999999646;84;0.7578125;violin
68.10804;0.27026999999999646;83;0.7578125;violin
68.37831;0.27027000000001067;80;0.7578125;violin
68.64858000000001;0.23648624999999868;77;0.7578125;violin
68.91885;0.23648624999999868;74;0.7578125;violin
69.18912;0.23648624999999868;71;0.7578125;violin
69.45939;0.23648624999999868;83;0.7578125;violin
69.72966;0.2364862500000129;82;0.7578125;violin
69.99993;0.23648624999999868;79;0.7578125;violin
70.2702;0.23648624999999868;76;0.7578125;violin
70.54047;0.23648624999999868;73;0.7578125;violin
70.81074000000001;0.23648624999999868;70;0.7578125;violin
71.08101;0.23648624999999868;82;0.7578125;violin
71.35128;0.23648624999999868;81;0.7578125;violin
71.62155;0.23648624999999868;77;0.7578125;violin
71.89182;0.2364862500000129;74;0.7578125;violin
72.16209;0.23648624999999868;69;0.7578125;violin
72.43236;0.23648624999999868;65;0.7578125;violin
72.70263;0.23648624999999868;81;0.7578125;violin
72.97290000000001;0.23648624999999868;79;0.7578125;violin
73.24317;0.23648624999999868;74;0.7578125;violin
73.51344;0.23648624999999868;70;0.7578125;violin
73.78371;0.23648624999999868;67;0.7578125;violin
74.05398;0.2364862500000129;62;0.7578125;violin
74.32425;0.23648624999999868;79;0.7578125;violin
74.59452;0.23648624999999868;77;0.7578125;violin
74.86479;0.23648624999999868;72;0.7578125;violin
75.13506000000001;0.27026999999999646;69;0.7578125;violin
75.40533;0.23648624999999868;65;0.7578125;violin
75.6756;0.23648624999999868;60;0.7578125;violin
75.94587;0.23648624999999868;77;0.7578125;violin
76.21614;0.27027000000001067;76;0.7578125;violin
76.48641;0.27026999999999646;84;0.7578125;violin
76.75668;0.27026999999999646;82;0.7578125;violin
77.02695;0.27027000000001067;79;0.7578125;violin
77.29722000000001;0.23648624999999868;76;0.7578125;violin
77.56749;0.23648624999999868;72;0.7578125;violin
77.83776;0.23648624999999868;81;0.7578125;violin
78.10803;0.23648624999999868;77;0.7578125;violin
78.3783;0.2364862500000129;72;0.7578125;violin
78.64857;0.23648624999999868;69;0.7578125;violin
78.91884;0.23648624999999868;65;0.7578125;violin
79.18911;0.27027000000001067;81;0.7578125;violin
79.45938000000001;0.23648624999999868;84;0.7578125;violin
79.72965;0.27026999999999646;79;0.7578125;violin
79.99992;0.23648624999999868;76;0.7578125;violin
80.27019;0.27026999999999646;72;0.7578125;violin
80.54046;0.27027000000001067;67;0.7578125;violin
80.81073;0.27026999999999646;84;0.7578125;violin
81.081;0.23648624999999868;83;0.7578125;violin
81.35127;0.23648624999999868;79;0.7578125;violin
81.62154000000001;0.23648624999999868;74;0.7578125;violin
81.89181;0.23648624999999868;71;0.7578125;violin
82.16208;0.23648624999999868;67;0.7578125;violin
82.43235;0.27026999999999646;86;0.7578125;violin
82.70262;0.27027000000001067;89;0.7578125;violin
82.97289;0.27026999999999646;86;0.7578125;violin
83.24316;0.27026999999999646;83;0.7578125;violin
83.51343;0.27027000000001067;79;0.7578125;violin
83.78370000000001;0.27026999999999646;77;0.7578125;violin
84.05397;0.27026999999999646;89;0.7578125;violin
84.32424;0.27026999999999646;88;0.7578125;violin
84.59451;0.27026999999999646;84;0.7578125;violin
84.86478;0.27027000000001067;79;0.7578125;violin
85.13505;0.27026999999999646;88;0.7578125;violin
85.40532;0.27026999999999646;86;0.7578125;violin
85.67559;0.27027000000001067;77;0.7578125;violin
85.94586000000001;0.27026999999999646;76;0.7578125;violin
86.21613;0.23648624999999868;84;0.7578125;violin
86.4864;0.23648624999999868;79;0.7578125;violin
86.75667;0.23648624999999868;76;0.7578125;violin
87.02694;0.2364862500000129;74;0.7578125;violin
87.29721;0.23648624999999868;83;0.7578125;violin
87.56748;0.23648624999999868;86;0.7578125;violin
87.83775;0.23648624999999868;83;0.7265625;violin
88.10802000000001;0.23648624999999868;79;0.6953125;violin
88.37829;0.23648624999999868;77;0.6640625;violin
88.64856;0.23648624999999868;74;0.640625;violin
88.91883;0.27026999999999646;71;0.609375;violin
89.1891;0.2364862500000129;72;0.578125;violin
89.45937;0.23648624999999868;74;0.6171875;violin
89.72964;0.27026999999999646;76;0.6484375;violin
89.99991;0.23648624999999868;77;0.6875;violin
90.27018000000001;0.23648624999999868;79;0.71875;violin
90.54045;0.23648624999999868;80;0.7578125;violin
90.81072;0.23648624999999868;81;0.7578125;violin
91.08099;0.23648624999999868;77;0.7578125;violin
91.35126;0.2364862500000129;72;0.7578125;violin
91.62153;0.27026999999999646;69;0.7578125;violin
91.8918;0.23648624999999868;65;0.7578125;violin
92.16207;0.23648624999999868;81;0.7578125;violin
92.43234000000001;0.23648624999999868;79;0.7578125;violin
92.70261;0.23648624999999868;76;0.7578125;violin
92.97288;0.23648624999999868;72;0.7578125;violin
93.24315;0.23648624999999868;67;0.7578125;violin
93.51342;0.2364862500000129;64;0.7578125;violin
93.78369;0.23648624999999868;79;0.7578125;violin
94.05396;0.23648624999999868;82;0.7578125;violin
94.32423;0.23648624999999868;79;0.7578125;violin
94.59450000000001;0.23648624999999868;74;0.7578125;violin
94.86477000000001;0.23648624999999868;70;0.7578125;violin
95.13504;0.23648624999999868;67;0.7578125;violin
95.40531;0.23648624999999868;82;0.7578125;violin
95.67558;0.2364862500000129;81;0.7578125;violin
95.94585000000001;0.23648624999999868;77;0.7578125;violin
96.21612;0.23648624999999868;74;0.7578125;violin
96.48639;0.27027000000001067;69;0.7578125;violin
96.75666000000001;0.23648624999999868;65;0.7578125;violin
97.02693000000001;0.27026999999999646;81;0.7578125;violin
97.2972;0.27026999999999646;86;0.7578125;violin
97.56747;0.27026999999999646;82;0.7578125;violin
97.83774;0.27027000000001067;77;0.7578125;violin
98.10801000000001;0.27026999999999646;74;0.7578125;violin
98.37828;0.27026999999999646;70;0.7578125;violin
98.64855;0.27027000000001067;86;0.7578125;violin
98.91882000000001;0.23648624999999868;84;0.7578125;violin
99.18909000000001;0.23648624999999868;81;0.7578125;violin
99.45936;0.23648624999999868;77;0.7578125;violin
99.72963;0.23648624999999868;72;0.7578125;violin
99.9999;0.2364862500000129;69;0.7578125;violin
100.27017000000001;0.23648624999999868;84;0.7578125;violin
100.54044;0.23648624999999868;84;0.7578125;violin
100.81071;0.23648624999999868;82;0.7578125;violin
101.08098000000001;0.27026999999999646;79;0.7578125;violin
101.35125000000001;0.27026999999999646;76;0.7578125;violin
101.62152;0.27026999999999646;77;0.7578125;violin
101.89179;0.23648624999999868;81;0.7578125;violin
102.16206;0.2364862500000129;79;0.7578125;violin
102.43233000000001;0.27026999999999646;76;0.578125;violin
102.7026;0.23648624999999868;72;0.578125;violin
102.97287;0.23648624999999868;70;0.578125;violin
103.24314000000001;0.23648624999999868;67;0.578125;violin
103.51341000000001;0.23648624999999868;64;0.578125;violin
103.78368;0.23648624999999868;65;0.7578125;violin
104.05395;0.23648624999999868;69;0.7578125;violin
104.32422;0.2364862500000129;72;0.7578125;violin
104.59449000000001;0.23648624999999868;77;0.7578125;violin
104.86476;0.23648624999999868;81;0.7578125;violin
105.13503;0.27027000000001067;84;0.7578125;violin
105.40530000000001;0.27026999999999646;62;0.7578125;violin
105.67557000000001;0.27026999999999646;69;0.7578125;violin
105.94584;0.23648624999999868;74;0.7578125;violin
106.21611;0.27026999999999646;77;0.7578125;violin
106.48638;0.2364862500000129;81;0.7578125;violin
106.75665000000001;0.23648624999999868;86;0.7578125;violin
107.02692;0.27026999999999646;61;0.7578125;violin
107.29719;0.27027000000001067;64;0.7578125;violin
107.56746000000001;0.27026999999999646;69;0.7578125;violin
107.83773000000001;0.23648624999999868;73;0.7578125;violin
108.108;0.27026999999999646;76;0.7578125;violin
108.37827;0.23648624999999868;81;0.7578125;violin
108.64854;0.2364862500000129;64;0.7578125;violin
108.91881000000001;0.23648624999999868;74;0.7578125;violin
109.18908;0.23648624999999868;77;0.7578125;violin
109.45935;0.23648624999999868;81;0.7578125;violin
109.72962000000001;0.23648624999999868;70;0.7578125;violin
109.99989000000001;0.23648624999999868;79;0.578125;violin
110.27016;0.23648624999999868;72;0.7578125;violin
110.54043;0.23648624999999868;81;0.7578125;violin
110.8107;0.2364862500000129;77;0.7578125;violin
111.08097000000001;0.23648624999999868;72;0.7578125;violin
111.35124;0.27026999999999646;69;0.7578125;violin
111.62151;0.23648624999999868;65;0.7578125;violin
111.89178000000001;0.23648624999999868;64;0.7578125;violin
112.16205000000001;0.23648624999999868;72;0.578125;violin
112.43232;0.23648624999999868;70;0.578125;violin
112.70259;0.23648624999999868;67;0.578125;violin
112.97286;0.2364862500000129;64;0.578125;violin
113.24313000000001;0.23648624999999868;60;0.578125;violin
113.5134;0.23648624999999868;64;0.7578125;violin
113.78367;0.23648624999999868;67;0.7578125;violin
114.05394000000001;0.23648624999999868;70;0.7578125;violin
114.32421000000001;0.23648624999999868;72;0.7578125;violin
114.59448;0.27026999999999646;76;0.7578125;violin
114.86475;0.23648624999999868;79;0.7578125;violin
115.13502;0.2364862500000129;77;0.7578125;violin
115.40529000000001;0.23648624999999868;81;0.7578125;violin
115.67556;0.23648624999999868;77;0.7578125;violin
115.94583;0.27027000000001067;76;0.7578125;violin
116.21610000000001;0.23648624999999868;74;0.7578125;violin
116.48637000000001;0.23648624999999868;72;0.7578125;violin
116.75664;0.27026999999999646;71;0.7578125;violin
117.02691;0.27026999999999646;77;0.6953125;violin
117.29718;0.2364862500000129;74;0.6953125;violin
117.56745000000001;0.23648624999999868;72;0.6953125;violin
117.83772;0.23648624999999868;71;0.6953125;violin
118.10799;0.27027000000001067;69;0.6953125;violin
118.37826000000001;0.23648624999999868;67;0.6953125;violin
118.64853000000001;0.23648624999999868;74;0.640625;violin
118.9188;0.23648624999999868;71;0.640625;violin
119.18907;0.23648624999999868;67;0.640625;violin
119.45934;0.2364862500000129;65;0.640625;violin
119.72961000000001;0.23648624999999868;64;0.640625;violin
119.99988;0.23648624999999868;62;0.640625;violin
120.27015;0.27027000000001067;69;0.578125;violin
120.54042000000001;0.23648624999999868;65;0.578125;violin
120.81069000000001;0.23648624999999868;64;0.578125;violin
121.08096;0.23648624999999868;62;0.578125;violin
121.35123;0.23648624999999868;60;0.578125;violin
121.6215;0.2364862500000129;59;0.578125;violin
121.89177000000001;0.27026999999999646;65;0.578125;violin
122.16204;0.27026999999999646;62;0.578125;violin
122.43231;0.23648624999999868;55;0.578125;violin
122.70258000000001;0.23648624999999868;57;0.6640625;violin
122.97285000000001;0.23648624999999868;59;0.7578125;violin
123.24312;0.23648624999999868;60;0.7578125;violin
123.51339;0.23648624999999868;64;0.7734375;violin
123.78366;0.2364862500000129;67;0.796875;violin
124.05393000000001;0.23648624999999868;72;0.8203125;violin
124.3242;0.27026999999999646;76;0.8359375;violin
124.59447;0.27027000000001067;79;0.859375;violin
124.86474000000001;0.27026999999999646;84;0.875;violin
125.13501000000001;0.27026999999999646;76;0.8984375;violin
125.40528;0.27026999999999646;79;0.9140625;violin
125.67555;0.27026999999999646;84;0.9375;violin
125.94582;0.27027000000001067;88;0.9375;violin
126.48636;0.23648624999999868;59;0.7578125;violin
126.75663;0.23648624999999868;62;0.7734375;violin
127.02690000000001;0.23648624999999868;67;0.796875;violin
127.29717000000001;0.23648624999999868;71;0.8203125;violin
127.56744;0.27026999999999646;74;0.8359375;violin
127.83771;0.27026999999999646;79;0.859375;violin
128.10798;0.2364862500000129;83;0.875;violin
128.37825;0.23648624999998447;74;0.8984375;violin
128.64852000000002;0.23648624999998447;79;0.9140625;violin
128.91879;0.2364862500000129;83;0.9375;violin
129.18906;0.23648624999998447;86;0.9375;violin
129.7296;0.2364862500000129;62;0.7578125;violin
129.99987000000002;0.23648624999998447;65;0.7734375;violin
130.27014;0.2364862500000129;69;0.796875;violin
130.54041;0.27026999999998225;74;0.8203125;violin
130.81068;0.27027000000001067;77;0.8359375;violin
131.08095;0.2364862500000129;81;0.859375;violin
131.35122;0.23648624999998447;86;0.875;violin
131.62149;0.2364862500000129;77;0.8984375;violin
131.89176;0.2364862500000129;81;0.9140625;violin
132.16203000000002;0.27026999999998225;86;0.9375;violin
132.4323;0.27027000000001067;89;0.9375;violin
132.97284000000002;0.23648624999998447;57;0.7578125;violin
133.24311;0.2364862500000129;61;0.7734375;violin
133.51338;0.23648624999998447;64;0.796875;violin
133.78365;0.27027000000001067;69;0.8203125;violin
134.05392;0.2364862500000129;73;0.8359375;violin
134.32419000000002;0.27026999999998225;76;0.859375;violin
134.59446;0.27027000000001067;81;0.875;violin
134.86473;0.27026999999998225;76;0.8984375;violin
135.135;0.27027000000001067;81;0.9140625;violin
135.40527;0.2364862500000129;85;0.9375;violin
135.67554;0.23648624999998447;88;0.9375;violin
136.21608;0.2364862500000129;62;0.7578125;violin
136.48635000000002;0.23648624999998447;65;0.7578125;violin
136.75662;0.2364862500000129;69;0.7578125;violin
137.02689;0.23648624999998447;74;0.7578125;violin
137.29716000000002;0.23648624999998447;77;0.7578125;violin
137.56743;0.2364862500000129;81;0.7578125;violin
137.8377;0.23648624999998447;59;0.7578125;violin
138.10797;0.2364862500000129;62;0.734375;violin
138.37824;0.2364862500000129;67;0.734375;violin
138.64851000000002;0.23648624999998447;71;0.734375;violin
138.91878;0.2364862500000129;74;0.734375;violin
139.18905;0.23648624999998447;71;0.734375;violin
139.45932;0.2364862500000129;60;0.734375;violin
139.72959;0.2364862500000129;64;0.71875;violin
139.99986;0.23648624999998447;67;0.71875;violin
140.27013;0.2364862500000129;72;0.71875;violin
140.5404;0.2364862500000129;76;0.71875;violin
140.81067000000002;0.23648624999998447;79;0.71875;violin
141.08094;0.2364862500000129;57;0.71875;violin
141.35121;0.23648624999998447;62;0.6953125;violin
141.62148000000002;0.23648624999998447;66;0.6953125;violin
141.89175;0.2364862500000129;69;0.6953125;violin
142.16202;0.23648624999998447;72;0.6953125;violin
142.43229;0.2364862500000129;69;0.6953125;violin
142.70256;0.27027000000001067;55;0.6953125;violin
142.97283000000002;0.27026999999998225;59;0.6796875;violin
143.2431;0.2364862500000129;62;0.65625;violin
143.51337;0.20270249999998668;67;0.65625;violin
143.78364;0.2027025000000151;71;0.65625;violin
144.05391;0.2027025000000151;74;0.65625;violin
144.32418;0.27026999999998225;62;0.65625;violin
144.59445;0.27027000000001067;66;0.640625;violin
144.86472;0.2364862500000129;69;0.6171875;violin
145.13499000000002;0.20270249999998668;72;0.6171875;violin
145.40526;0.2027025000000151;74;0.6171875;violin
145.67553;0.20270249999998668;78;0.6171875;violin
145.94580000000002;0.27026999999998225;81;0.6171875;violin
146.21607;0.27027000000001067;79;0.6015625;violin
146.48634;0.23648624999998447;74;0.578125;violin
146.75661;0.2027025000000151;71;0.578125;violin
147.02688;0.20270249999998668;67;0.578125;violin
147.29715000000002;0.20270249999998668;62;0.578125;violin
147.56742;0.27027000000001067;55;0.578125;violin
147.83769;0.27026999999998225;57;0.6171875;violin
148.10796;0.2364862500000129;59;0.6484375;violin
148.37823;0.13513499999999112;60;0.6875;violin
148.6485;0.13513499999999112;62;0.71875;violin
148.91877;0.13513500000001955;63;0.7578125;violin
149.18904;0.13513499999999112;64;0.7578125;violin
149.45931000000002;0.13513499999999112;60;0.7734375;violin
149.72958;0.13513500000001955;64;0.796875;violin
149.99985;0.13513499999999112;67;0.8203125;violin
150.27012000000002;0.13513499999999112;72;0.8359375;violin
150.54039;0.13513499999999112;76;0.859375;violin
150.81066;0.27026999999998225;79;0.875;violin
151.08093;0.27027000000001067;76;0.8984375;violin
151.3512;0.27027000000001067;79;0.9140625;violin
151.62147000000002;0.27026999999998225;84;0.9375;violin
151.89174;0.27027000000001067;88;0.9375;violin
152.43228;0.2364862500000129;59;0.7578125;violin
152.70255;0.2364862500000129;62;0.7734375;violin
152.97282;0.23648624999998447;67;0.796875;violin
153.24309;0.2364862500000129;71;0.8203125;violin
153.51336;0.27027000000001067;74;0.8359375;violin
153.78363000000002;0.27026999999998225;79;0.859375;violin
154.0539;0.2364862500000129;83;0.875;violin
154.32417;0.23648624999998447;74;0.8984375;violin
154.59444000000002;0.23648624999998447;79;0.9140625;violin
154.86471;0.2364862500000129;83;0.9375;violin
155.13498;0.23648624999998447;86;0.9375;violin
155.67552;0.27027000000001067;58;0.7578125;violin
155.94579000000002;0.23648624999998447;62;0.7734375;violin
156.21606;0.2364862500000129;67;0.796875;violin
156.48633;0.23648624999998447;70;0.8203125;violin
156.7566;0.27027000000001067;74;0.8359375;violin
157.02687;0.27027000000001067;79;0.859375;violin
157.29714;0.23648624999998447;82;0.875;violin
157.56741;0.2364862500000129;74;0.8984375;violin
157.83768;0.2364862500000129;79;0.9140625;violin
158.10795000000002;0.23648624999998447;82;0.9375;violin
158.37822;0.2364862500000129;86;0.9375;violin
158.91876000000002;0.23648624999998447;57;0.7578125;violin
159.18903;0.2364862500000129;64;0.7734375;violin
159.4593;0.27026999999998225;69;0.796875;violin
159.72957;0.2364862500000129;73;0.8203125;violin
159.99984;0.27027000000001067;76;0.8359375;violin
160.27011000000002;0.27026999999998225;81;0.859375;violin
160.54038;0.2364862500000129;85;0.875;violin
160.81065;0.23648624999998447;76;0.8984375;violin
161.08092;0.2364862500000129;81;0.9140625;violin
161.35119;0.2364862500000129;85;0.9375;violin
161.62146;0.23648624999998447;88;0.9375;violin
162.162;0.2364862500000129;62;0.9375;violin
162.43227000000002;0.23648624999998447;65;0.90625;violin
162.70254;0.2364862500000129;69;0.90625;violin
162.97281;0.23648624999998447;74;0.90625;violin
163.24308000000002;0.23648624999998447;77;0.90625;violin
163.51335;0.2364862500000129;81;0.90625;violin
163.78362;0.23648624999998447;59;0.90625;violin
164.05389;0.2364862500000129;62;0.875;violin
164.32416;0.2364862500000129;67;0.875;violin
164.59443000000002;0.23648624999998447;71;0.875;violin
164.8647;0.2364862500000129;74;0.875;violin
165.13497;0.23648624999998447;71;0.875;violin
165.40524;0.2364862500000129;60;0.875;violin
165.67551;0.2364862500000129;64;0.84375;violin
165.94578;0.23648624999998447;67;0.84375;violin
166.21605;0.2364862500000129;72;0.84375;violin
166.48632;0.27027000000001067;76;0.84375;violin
166.75659000000002;0.23648624999998447;79;0.84375;violin
167.02686;0.2364862500000129;65;0.84375;violin
167.29713;0.23648624999998447;69;0.8203125;violin
167.56740000000002;0.23648624999998447;74;0.8203125;violin
167.83767;0.2364862500000129;77;0.8203125;violin
168.10794;0.23648624999998447;81;0.8203125;violin
168.37821;0.2364862500000129;77;0.8203125;violin
168.64848;0.2364862500000129;55;0.8203125;violin
168.91875000000002;0.23648624999998447;60;0.7890625;violin
169.18902;0.2364862500000129;64;0.7890625;violin
169.45929;0.23648624999998447;67;0.7890625;violin
169.72956;0.2364862500000129;72;0.7890625;violin
169.99983;0.2364862500000129;76;0.7890625;violin
170.2701;0.23648624999998447;55;0.7890625;violin
170.54037;0.2364862500000129;59;0.7578125;violin
170.81064;0.27027000000001067;62;0.7578125;violin
171.08091000000002;0.23648624999998447;67;0.7578125;violin
171.35118;0.2364862500000129;71;0.7578125;violin
171.62145;0.23648624999998447;74;0.7578125;violin
171.89172000000002;0.23648624999998447;60;0.7578125;violin
172.16199;0.2364862500000129;64;0.7578125;violin
172.43226;0.23648624999998447;67;0.7578125;violin
172.70253;0.2364862500000129;72;0.7578125;violin
172.9728;0.2364862500000129;76;0.7578125;violin
173.24307000000002;0.27026999999998225;79;0.7578125;violin
173.51334;0.5405399999999929;84;0.7578125;violin
175.13496;0.27027000000001067;84;0.7578125;violin
175.40523000000002;0.27026999999998225;81;0.7578125;violin
175.6755;0.2027025000000151;78;0.7578125;violin
175.94577;0.20270249999998668;75;0.7578125;violin
176.21604000000002;0.20270249999998668;72;0.7578125;violin
176.48631;0.27027000000001067;69;0.7578125;violin
176.75658;0.4054050000000018;66;0.7578125;violin
178.3782;0.27027000000001067;67;0.7578125;violin
178.64847;0.27027000000001067;72;0.7890625;violin
178.91874;0.27026999999998225;76;0.8203125;violin
179.18901;0.27027000000001067;79;0.84375;violin
179.45928;0.27027000000001067;84;0.875;violin
179.72955000000002;0.27026999999998225;88;0.90625;violin
179.99982;0.5405400000000213;91;0.9375;violin
181.62144;0.27027000000001067;81;0.7578125;violin
181.89171000000002;0.27026999999998225;79;0.7578125;violin
182.16198;0.2027025000000151;74;0.7578125;violin
182.43225;0.20270249999998668;71;0.7578125;violin
182.70252;0.2027025000000151;67;0.7578125;violin
182.97279;0.2027025000000151;62;0.7578125;violin
183.24306;0.4054050000000018;59;0.7578125;violin
184.86468000000002;0.27026999999998225;60;0.7578125;violin
185.13495;0.2364862500000129;64;0.7578125;violin
185.40522;0.20270249999998668;67;0.7578125;violin
185.67549;0.2027025000000151;72;0.8203125;violin
185.94576;0.20270249999998668;76;0.875;violin
186.21603000000002;0.20270249999998668;79;0.9375;violin
186.4863;0.5405399999999929;84;0.9375;violin
188.10792;0.27027000000001067;57;0.7578125;violin
188.37819000000002;0.23648624999998447;60;0.7578125;violin
188.64846;0.2027025000000151;63;0.7578125;violin
188.91873;0.20270249999998668;66;0.7578125;violin
189.18900000000002;0.20270249999998668;69;0.8203125;violin
189.45927;0.2027025000000151;72;0.875;violin
189.72954000000001;0.47297249999999735;75;0.9375;violin
191.35116;0.27027000000001067;55;0.7578125;violin
191.62143;0.2364862500000129;60;0.7578125;violin
191.89170000000001;0.20270249999998668;64;0.7578125;violin
192.16197;0.2027025000000151;67;0.7578125;violin
192.43224;0.20270249999998668;72;0.7578125;violin
192.70251000000002;0.27026999999998225;76;0.7578125;violin
192.97278;0.4054050000000018;79;0.7578125;violin
194.5944;0.27027000000001067;81;0.828125;violin
194.86467000000002;0.23648624999998447;79;0.828125;violin
195.13494;0.2027025000000151;77;0.828125;violin
195.40521;0.27026999999998225;76;0.828125;violin
195.67548;0.2027025000000151;74;0.828125;violin
195.94575;0.2027025000000151;72;0.828125;violin
196.21602000000001;0.20270249999998668;71;0.828125;violin
196.48629;0.27027000000001067;69;0.828125;violin
196.75656;0.20270249999998668;67;0.828125;violin
197.02683000000002;0.20270249999998668;65;0.828125;violin
197.2971;0.2027025000000151;64;0.828125;violin
197.56737;0.27027000000001067;62;0.828125;violin
197.83764000000002;0.13513499999999112;60;0.7890625;violin
198.10791;0.13513499999999112;64;0.7890625;violin
198.37818000000001;0.13513499999999112;67;0.7890625;violin
198.64845;0.13513500000001955;72;0.7890625;violin
198.91872;0.13513499999999112;64;0.7890625;violin
199.18899000000002;0.13513499999999112;67;0.7890625;violin
199.45926;0.13513500000001955;72;0.7890625;violin
199.72953;0.13513499999999112;76;0.7890625;violin
199.9998;0.13513500000001955;67;0.7890625;violin
200.27007;0.13513499999999112;72;0.7890625;violin
200.54034000000001;0.27026999999998225;76;0.7890625;violin
200.81061;0.13513500000001955;79;0.7890625;violin
201.08088;0.13513499999999112;72;0.7890625;violin
201.35115000000002;0.13513499999999112;76;0.7890625;violin
201.62142;0.27027000000001067;79;0.7890625;violin
201.89169;0.27027000000001067;84;0.7890625;violin
202.16196000000002;0.27026999999998225;79;0.7890625;violin
202.43223;0.13513499999999112;76;0.7890625;violin
202.70250000000001;0.13513499999999112;72;0.7890625;violin
202.97277;0.13513500000001955;79;0.7890625;violin
203.24304;0.13513499999999112;76;0.7890625;violin
203.51331000000002;0.13513499999999112;72;0.7890625;violin
203.78358;0.13513500000001955;67;0.7890625;violin
204.05385;0.13513499999999112;64;0.7890625;violin
204.32412;0.4729725000000258;60;0.7890625;violin
205.810605;0.11824312499999223;76;0.828125;violin
205.810605;0.11824312499999223;84;0.828125;violin
205.94574;0.47297249999999735;76;0.828125;violin
205.94574;0.47297249999999735;84;0.828125;violin
207.43222500000002;0.11824312499999223;64;0.828125;violin
207.43222500000002;0.11824312499999223;72;0.828125;violin
207.56736;2.0945925000000045;64;0.828125;violin
207.56736;2.0945925000000045;72;0.828125;violin
