start;duration;pitch;velocity;instrument
0.0;0.18018;81;0.7578125;violin
0.18018;0.18018;83;0.75;violin
0.36036;0.18018;81;0.734375;violin
0.54054;0.54054;78;0.7265625;violin
1.08108;0.18018;74;0.6953125;violin
1.26126;0.18018;76;0.6875;violin
1.44144;0.18018;74;0.6796875;violin
1.62162;0.54054;69;0.6640625;violin
2.16216;0.18018;66;0.640625;violin
2.34234;0.18018;67;0.625;violin
2.52252;0.18018;66;0.6171875;violin
2.7027;0.4729725;74;0.609375;violin
3.24324;0.18018;73;0.578125;violin
3.42342;0.18018;74;0.5859375;violin
3.6036;0.18018;73;0.6015625;violin
3.78378;0.54054;69;0.609375;violin
4.32432;0.18018;79;0.640625;violin
4.5045;0.18018;81;0.6484375;violin
4.68468;0.18018;79;0.65625;violin
4.86486;0.54054;76;0.6640625;violin
5.4054;0.18018;85;0.6953125;violin
5.58558;0.18018;86;0.7109375;violin
5.76576;0.18018;85;0.71875;violin
5.94594;0.4729725;81;0.7265625;violin
6.48648;0.18018;88;0.7578125;violin
6.66666;0.18018;90;0.75;violin
6.84684;0.18018;88;0.734375;violin
7.02702;0.54054;85;0.7265625;violin
7.56756;0.18018;81;0.6953125;violin
7.74774;0.18018;83;0.6875;violin
7.92792;0.18018;81;0.6796875;violin
8.1081;0.54054;79;0.6640625;violin
8.64864;0.18018;69;0.640625;violin
8.82882;0.18018;71;0.625;violin
9.009;0.18018;69;0.6171875;violin
9.18918;0.54054;76;0.609375;violin
9.72972;0.18018;78;0.578125;violin
9.9099;0.18018;79;0.640625;violin
10.09008;0.18018;78;0.6953125;violin
10.27026;0.54054;81;0.7578125;violin
10.8108;0.18018;74;0.71875;violin
10.99098;0.18018;76;0.7109375;violin
11.17116;0.18018;74;0.6953125;violin
11.35134;0.54054;78;0.6875;violin
11.89188;0.18018;69;0.6484375;violin
12.07206;0.18018;71;0.640625;violin
12.25224;0.18018;69;0.625;violin
12.43242;0.4729725000000009;74;0.6171875;violin
12.97296;0.18018;66;0.578125;violin
13.15314;0.18018;67;0.5859375;violin
13.33332;0.18018;66;0.6015625;violin
13.5135;0.54054;70;0.609375;violin
14.05404;0.18018;73;0.640625;violin
14.23422;0.18018;74;0.6484375;violin
14.4144;0.18018;73;0.65625;violin
14.59458;0.54054;78;0.6640625;violin
15.13512;0.18018;76;0.6953125;violin
15.3153;0.18018;78;0.7109375;violin
15.49548;0.18018;76;0.71875;violin
15.67566;0.54054;73;0.7265625;violin
16.2162;0.18018;74;0.7578125;violin
16.39638;0.18018;76;0.75;violin
16.57656;0.18018;74;0.734375;violin
16.75674;0.54054;71;0.7265625;violin
17.29728;0.18018;78;0.6953125;violin
17.47746;0.18018;79;0.6875;violin
17.65764;0.18018;78;0.6796875;violin
17.83782;0.54054;74;0.6640625;violin
18.37836;0.18018;83;0.640625;violin
18.55854;0.18018;85;0.625;violin
18.73872;0.18018;83;0.6171875;violin
18.9189;0.4729725000000009;78;0.609375;violin
19.45944;0.18018;76;0.578125;violin
19.63962;0.18018;75;0.59375;violin
19.8198;0.18018;76;0.609375;violin
19.99998;0.54054;78;0.625;violin
20.54052;0.18018;79;0.6640625;violin
20.7207;0.18018;78;0.6796875;violin
20.90088;0.18018;79;0.6953125;violin
21.08106;0.54054;78;0.7109375;violin
21.6216;0.18018;76;0.7578125;violin
21.80178;0.18018;75;0.6953125;violin
21.98196;0.18018;76;0.640625;violin
22.16214;0.4729725000000009;77;0.578125;violin
22.70268;0.18018;78;0.7890625;violin
22.88286;0.18018;80;0.7890625;violin
23.06304;0.18018;78;0.7890625;violin
23.24322;0.18018;82;0.7890625;violin
23.4234;0.18018;83;0.7890625;violin
23.60358;0.18018;82;0.7890625;violin
23.78376;0.18018;85;0.7890625;violin
23.96394;0.18018;87;0.7890625;violin
24.14412;0.18018;85;0.7890625;violin
24.3243;0.18018;82;0.7890625;violin
24.50448;0.18018;83;0.78125;violin
24.68466;0.18018;82;0.7734375;violin
24.86484;0.18018;78;0.7578125;violin
25.04502;0.18018;79;0.75;violin
25.2252;0.18018;78;0.7421875;violin
25.40538;0.18018;79;0.7421875;violin
25.58556;0.18018;81;0.7421875;violin
25.76574;0.15765749999999912;79;0.7421875;violin
25.94592;0.18018;81;0.7421875;violin
26.1261;0.18018;83;0.734375;violin
26.30628;0.18018;81;0.7265625;violin
26.48646;0.54054;78;0.7109375;violin
27.027;0.18018;74;0.6875;violin
27.20718;0.18018;76;0.6796875;violin
27.38736;0.18018;74;0.6640625;violin
27.56754;0.54054;69;0.65625;violin
28.10808;0.18018;66;0.6328125;violin
28.28826;0.18018;67;0.6171875;violin
28.46844;0.18018;66;0.609375;violin
28.64862;0.4729725000000009;74;0.609375;violin
29.18916;0.18018;73;0.609375;violin
29.36934;0.18018;74;0.625;violin
29.54952;0.18018;73;0.640625;violin
29.7297;0.54054;69;0.6484375;violin
30.27024;0.18018;79;0.6875;violin
30.45042;0.18018;81;0.703125;violin
30.6306;0.18018;79;0.7109375;violin
30.81078;0.54054;76;0.7265625;violin
31.35132;0.18018;85;0.765625;violin
31.5315;0.18018;86;0.7734375;violin
31.71168;0.18018;85;0.7890625;violin
31.89186;0.47297249999999735;81;0.7890625;violin
32.4324;0.18018;88;0.7890625;violin
32.61258;0.18018;90;0.7890625;violin
32.79276;0.18018;88;0.7890625;violin
32.97294;0.54054;85;0.7734375;violin
33.51348;0.18018;81;0.7265625;violin
33.69366;0.18018;83;0.71875;violin
33.87384;0.18018;81;0.703125;violin
34.05402;0.54054;79;0.6875;violin
34.59456;0.18018;69;0.640625;violin
34.77474;0.18018;71;0.625;violin
34.95492;0.18018;69;0.609375;violin
35.1351;0.54054;76;0.609375;violin
35.67564;0.18018;78;0.609375;violin
35.85582;0.18018;79;0.609375;violin
36.036;0.18018;78;0.609375;violin
36.21618;0.54054;81;0.609375;violin
36.75672;0.18018;74;0.609375;violin
36.9369;0.18018;76;0.609375;violin
37.11708;0.18018;74;0.609375;violin
37.29726;0.54054;78;0.609375;violin
37.8378;0.18018;69;0.609375;violin
38.01798;0.18018;71;0.609375;violin
38.19816;0.18018;69;0.609375;violin
38.37834;0.47297249999999735;74;0.609375;violin
38.91888;0.18018;72;0.609375;violin
39.09906;0.18018;74;0.609375;violin
39.27924;0.18018;72;0.609375;violin
39.45942;0.54054;62;0.609375;violin
39.99996;0.18018;78;0.609375;violin
40.18014;0.18018;79;0.625;violin
40.36032;0.18018;78;0.640625;violin
40.5405;0.54054;74;0.65625;violin
41.08104;0.18018;84;0.703125;violin
41.26122;0.18018;86;0.71875;violin
41.4414;0.18018;84;0.7265625;violin
41.62158;0.47297249999999735;81;0.7421875;violin
42.16212;0.18018;83;0.7890625;violin
42.3423;0.18018;82;0.765625;violin
42.52248;0.18018;83;0.7421875;violin
42.70266;0.54054;86;0.7265625;violin
43.2432;0.18018;79;0.65625;violin
43.42338;0.18018;78;0.6328125;violin
43.60356;0.18018;79;0.609375;violin
43.78374;0.54054;83;0.609375;violin
44.32428;0.18018;74;0.609375;violin
44.50446;0.18018;73;0.609375;violin
44.68464;0.18018;74;0.609375;violin
44.86482;0.54054;79;0.609375;violin
45.40536;0.18018;69;0.7890625;violin
45.58554;0.18018;71;0.7890625;violin
45.76572;0.18018;69;0.7890625;violin
45.9459;0.54054;73;0.7890625;violin
46.48644;0.18018;76;0.7890625;violin
46.66662;0.18018;78;0.7890625;violin
46.8468;0.18018;76;0.7890625;violin
47.02698;0.54054;79;0.7890625;violin
47.56752;0.18018;76;0.7890625;violin
47.7477;0.18018;78;0.78125;violin
47.92788;0.18018;76;0.765625;violin
48.10806;0.54054;73;0.7578125;violin
48.6486;0.18018;74;0.7578125;violin
48.82878;0.18018;76;0.7421875;violin
49.00896;0.18018;74;0.7265625;violin
49.18914;0.54054;62;0.7265625;violin
49.72968;0.18018;78;0.7265625;violin
49.90986;0.18018;79;0.71875;violin
50.09004;0.18018;78;0.703125;violin
50.27022;0.54054;62;0.703125;violin
50.81076;0.18018;75;0.703125;violin
50.99094;0.18018;77;0.6953125;violin
51.17112;0.18018;75;0.6796875;violin
51.3513;0.47297249999999735;62;0.6796875;violin
51.89184;0.18018;74;0.6796875;violin
52.07202;0.18018;75;0.671875;violin
52.2522;0.18018;74;0.65625;violin
52.43238;0.54054;62;0.65625;violin
52.97292;0.18018;70;0.65625;violin
53.1531;0.18018;72;0.6484375;violin
53.33328;0.18018;70;0.6328125;violin
53.51346;0.54054;62;0.6328125;violin
54.054;0.18018;67;0.6328125;violin
54.23418;0.18018;69;0.625;violin
54.41436;0.18018;67;0.609375;violin
54.59454;0.47297249999999735;62;0.609375;violin
55.13508;0.18018;66;0.609375;violin
55.31526;0.18018;67;0.625;violin
55.49544;0.18018;66;0.640625;violin
55.67562;0.54054;74;0.6484375;violin
56.21616;0.18018;72;0.6875;violin
56.39634;0.18018;74;0.703125;violin
56.57652;0.18018;72;0.7109375;violin
56.7567;0.54054;81;0.7265625;violin
57.29724;0.18018;78;0.765625;violin
57.47742;0.18018;79;0.7734375;violin
57.6576;0.18018;78;0.7890625;violin
57.83778;0.54054;84;0.7890625;violin
58.37832;0.18018;82;0.7890625;violin
58.5585;0.18018;81;0.7890625;violin
58.73868;0.18018;82;0.7890625;violin
58.91886;0.54054;86;0.7890625;violin
59.4594;0.18018;79;0.7890625;violin
59.63958;0.18018;78;0.7890625;violin
59.81976;0.18018;79;0.7890625;violin
59.99994;0.54054;82;0.7890625;violin
60.54048;0.18018;74;0.7890625;violin
60.72066;0.18018;73;0.7890625;violin
60.90084;0.18018;74;0.7890625;violin
61.08102;0.54054;79;0.7890625;violin
61.62156;0.18018;78;0.7890625;violin
61.80174;0.18018;79;0.7734375;violin
61.98192;0.18018;78;0.765625;violin
62.1621;0.54054;74;0.75;violin
62.70264;0.18018;69;0.7109375;violin
62.88282;0.18018;70;0.703125;violin
63.063;0.18018;69;0.6875;violin
63.24318;0.54054;66;0.671875;violin
63.78372;0.18018;62;0.640625;violin
63.9639;0.18018;63;0.625;violin
64.14408;0.1801800000000071;62;0.609375;violin
64.32426000000001;1.0135124999999903;74;0.609375;violin
65.40534;0.1801800000000071;63;0.609375;violin
65.58552;0.1801800000000071;65;0.609375;violin
65.76570000000001;0.1801799999999929;63;0.609375;violin
65.94588;1.08108;74;0.609375;violin
67.02696;0.1801800000000071;64;0.703125;violin
67.20714000000001;0.1801799999999929;65;0.71875;violin
67.38732;0.1801799999999929;64;0.7265625;violin
67.5675;1.0135125000000045;74;0.7421875;violin
68.64858000000001;0.1801799999999929;65;0.7890625;violin
68.82876;0.1801799999999929;67;0.7890625;violin
69.00894;0.1801800000000071;65;0.7890625;violin
69.18912;0.1801800000000071;67;0.7890625;violin
69.36930000000001;0.1801799999999929;69;0.7890625;violin
69.54948;0.1801799999999929;67;0.7890625;violin
69.72966;0.1801800000000071;69;0.7890625;violin
69.90984;0.1801800000000071;70;0.7890625;violin
70.09002000000001;0.1801799999999929;69;0.7890625;violin
70.2702;0.1801799999999929;70;0.7890625;violin
70.45038;0.1801800000000071;72;0.7890625;violin
70.63056;0.1801800000000071;73;0.7890625;violin
70.81074000000001;0.1801799999999929;74;0.7890625;violin
70.99092;0.1801799999999929;75;0.7890625;violin
71.1711;0.1801800000000071;76;0.7890625;violin
71.35128;0.1801800000000071;77;0.7890625;violin
71.53146000000001;0.1801799999999929;79;0.7734375;violin
71.71164;0.1801799999999929;77;0.765625;violin
71.89182;0.5405400000000071;74;0.75;violin
72.43236;0.1801799999999929;70;0.7109375;violin
72.61254;0.1801800000000071;72;0.703125;violin
72.79272;0.1801800000000071;70;0.6875;violin
72.97290000000001;0.5405399999999929;65;0.671875;violin
73.51344;0.1801800000000071;62;0.640625;violin
73.69362000000001;0.1801799999999929;63;0.625;violin
73.8738;0.1801799999999929;62;0.609375;violin
74.05398;0.5405400000000071;70;0.609375;violin
74.59452;0.1801799999999929;69;0.609375;violin
74.7747;0.1801800000000071;70;0.625;violin
74.95488;0.1801800000000071;69;0.6328125;violin
75.13506000000001;0.5405399999999929;65;0.640625;violin
75.6756;0.1801800000000071;75;0.671875;violin
75.85578000000001;0.1801799999999929;74;0.6796875;violin
76.03596;0.1801799999999929;75;0.6875;violin
76.21614;0.5405400000000071;73;0.703125;violin
76.75668;0.1801799999999929;81;0.7265625;violin
76.93686;0.1801800000000071;80;0.7421875;violin
77.11704;0.1801800000000071;81;0.75;violin
77.29722000000001;0.47297249999999735;77;0.7578125;violin
77.83776;0.1801800000000071;84;0.7890625;violin
78.01794000000001;0.1801799999999929;86;0.7734375;violin
78.19812;0.1801799999999929;84;0.765625;violin
78.3783;0.5405400000000071;81;0.75;violin
78.91884;0.1801799999999929;77;0.7109375;violin
79.09902;0.1801800000000071;79;0.703125;violin
79.2792;0.1801800000000071;77;0.6875;violin
79.45938000000001;0.5405399999999929;75;0.671875;violin
79.99992;0.1801800000000071;65;0.640625;violin
80.18010000000001;0.1801799999999929;67;0.625;violin
80.36028;0.1801799999999929;65;0.609375;violin
80.54046;0.47297250000001156;72;0.609375;violin
81.081;0.1801799999999929;74;0.609375;violin
81.26118;0.1801800000000071;75;0.671875;violin
81.44136;0.1801800000000071;74;0.7265625;violin
81.62154000000001;0.5405399999999929;77;0.7890625;violin
82.16208;0.1801800000000071;70;0.7421875;violin
82.34226000000001;0.1801799999999929;72;0.7265625;violin
82.52244;0.1801799999999929;70;0.7109375;violin
82.70262;0.5405400000000071;74;0.6953125;violin
83.24316;0.1801799999999929;65;0.640625;violin
83.42334;0.1801800000000071;67;0.625;violin
83.60352;0.1801800000000071;65;0.609375;violin
83.78370000000001;0.47297249999999735;70;0.609375;violin
84.32424;0.1801800000000071;62;0.609375;violin
84.50442000000001;0.1801799999999929;63;0.625;violin
84.6846;0.1801799999999929;62;0.6328125;violin
84.86478;0.5405400000000071;66;0.640625;violin
85.40532;0.1801799999999929;69;0.671875;violin
85.5855;0.1801800000000071;70;0.6796875;violin
85.76568;0.1801800000000071;69;0.6875;violin
85.94586000000001;0.5405399999999929;74;0.703125;violin
86.4864;0.1801800000000071;72;0.7265625;violin
86.66658000000001;0.1801799999999929;74;0.7421875;violin
86.84676;0.1801799999999929;72;0.75;violin
87.02694;0.47297250000001156;69;0.7578125;violin
87.56748;0.1801799999999929;70;0.7890625;violin
87.74766;0.1801800000000071;72;0.7734375;violin
87.92784;0.1801800000000071;70;0.765625;violin
88.10802000000001;0.5405399999999929;67;0.75;violin
88.64856;0.1801800000000071;74;0.7109375;violin
88.82874000000001;0.1801799999999929;75;0.703125;violin
89.00892;0.1801799999999929;74;0.6875;violin
89.1891;0.5405400000000071;70;0.671875;violin
89.72964;0.1801799999999929;79;0.640625;violin
89.90982;0.1801800000000071;81;0.625;violin
90.09;0.1801800000000071;79;0.609375;violin
90.27018000000001;0.47297249999999735;74;0.609375;violin
90.81072;0.1801800000000071;72;0.609375;violin
90.99090000000001;0.1801799999999929;71;0.6171875;violin
91.17108;0.1801799999999929;72;0.625;violin
91.35126;0.5405400000000071;74;0.6328125;violin
91.8918;0.1801799999999929;75;0.65625;violin
92.07198;0.1801800000000071;74;0.6640625;violin
92.25216;0.1801800000000071;75;0.671875;violin
92.43234000000001;0.5405399999999929;74;0.6796875;violin
92.97288;0.1801800000000071;72;0.703125;violin
93.15306000000001;0.1801799999999929;71;0.7109375;violin
93.33324;0.1801799999999929;72;0.71875;violin
93.51342;0.47297250000001156;73;0.7265625;violin
94.05396;0.1801799999999929;74;0.7265625;violin
94.23414;0.1801800000000071;76;0.734375;violin
94.41432;0.1801800000000071;74;0.7421875;violin
94.59450000000001;0.1801799999999929;78;0.75;violin
94.77468;0.1801799999999929;79;0.7578125;violin
94.95486;0.1801800000000071;78;0.765625;violin
95.13504;0.1801800000000071;81;0.7734375;violin
95.31522000000001;0.1801799999999929;83;0.78125;violin
95.4954;0.1801799999999929;81;0.7890625;violin
95.67558;0.1801800000000071;86;0.7890625;violin
95.85576;0.1801800000000071;84;0.78125;violin
96.03594000000001;0.1801799999999929;83;0.7734375;violin
96.21612;0.1801799999999929;81;0.765625;violin
96.3963;0.1801800000000071;79;0.765625;violin
96.57648;0.1801800000000071;78;0.7578125;violin
96.75666000000001;0.1801799999999929;76;0.75;violin
96.93684;0.1801799999999929;74;0.7421875;violin
97.11702;0.1801800000000071;72;0.734375;violin
97.2972;0.1801800000000071;71;0.734375;violin
97.47738000000001;0.1801799999999929;72;0.734375;violin
97.65756;0.1801799999999929;71;0.734375;violin
97.83774;0.5405400000000071;74;0.734375;violin
98.37828;0.1801799999999929;79;0.734375;violin
98.55846;0.1801800000000071;81;0.734375;violin
98.73864;0.1801800000000071;79;0.734375;violin
98.91882000000001;0.5405399999999929;78;0.734375;violin
99.45936;0.1801800000000071;69;0.734375;violin
99.63954000000001;0.1801799999999929;71;0.734375;violin
99.81972;0.1801799999999929;69;0.734375;violin
99.9999;0.47297250000001156;72;0.734375;violin
100.54044;0.1801799999999929;62;0.734375;violin
100.72062;0.1801800000000071;64;0.734375;violin
100.9008;0.1801800000000071;62;0.7734375;violin
101.08098000000001;0.5405399999999929;81;0.8046875;violin
101.62152;0.1801800000000071;78;0.9140625;violin
101.80170000000001;0.1801799999999929;74;0.8203125;violin
101.98188;0.1801799999999929;72;0.734375;violin
102.16206;0.1801800000000071;71;0.734375;violin
102.34224;0.1801800000000071;72;0.734375;violin
102.52242000000001;0.1801799999999929;71;0.8203125;violin
102.7026;0.5405400000000071;86;0.9140625;violin
103.24314000000001;0.1801799999999929;83;0.8671875;violin
103.42332;0.1801799999999929;79;0.8515625;violin
103.6035;0.15765750000001333;74;0.8359375;violin
103.78368;0.1801800000000071;71;0.8359375;violin
103.96386000000001;0.1801799999999929;72;0.8359375;violin
104.14404;0.1801799999999929;71;0.8359375;violin
104.32422;0.5405400000000071;74;0.8359375;violin
104.86476;0.1801799999999929;79;0.8359375;violin
105.04494;0.1801800000000071;81;0.8359375;violin
105.22512;0.1801800000000071;79;0.8359375;violin
105.40530000000001;0.5405399999999929;78;0.8359375;violin
105.94584;0.1801800000000071;69;0.8359375;violin
106.12602000000001;0.1801799999999929;71;0.8203125;violin
106.3062;0.1801799999999929;69;0.8046875;violin
106.48638;0.5405400000000071;76;0.7890625;violin
107.02692;0.1801799999999929;66;0.7890625;violin
107.2071;0.1801800000000071;67;0.7890625;violin
107.38728;0.1801800000000071;66;0.7890625;violin
107.56746000000001;0.5405399999999929;74;0.7890625;violin
108.108;0.1801800000000071;62;0.7890625;violin
108.28818000000001;0.1801799999999929;64;0.7890625;violin
108.46836;0.1801799999999929;62;0.7890625;violin
108.64854;0.1801800000000071;71;0.7890625;violin
108.82872;0.1801800000000071;67;0.7890625;violin
109.00890000000001;0.1801799999999929;62;0.7890625;violin
109.18908;0.5405400000000071;55;0.7890625;violin
109.72962000000001;0.47297249999999735;62;0.7890625;violin
109.72962000000001;0.47297249999999735;71;0.7890625;violin
109.72962000000001;0.47297249999999735;79;0.7890625;violin
110.27016;0.1801800000000071;76;0.734375;violin
110.45034000000001;0.1801799999999929;78;0.734375;violin
110.63052;0.1801799999999929;76;0.734375;violin
110.8107;0.5405400000000071;71;0.734375;violin
111.35124;0.1801799999999929;79;0.734375;violin
111.53142;0.1801800000000071;78;0.734375;violin
111.7116;0.1801800000000071;76;0.734375;violin
111.89178000000001;0.1801799999999929;78;0.734375;violin
112.07196;0.1801799999999929;79;0.734375;violin
112.25214;0.1801800000000071;78;0.734375;violin
112.43232;0.5405399999999929;71;0.734375;violin
112.97286;0.1801800000000071;81;0.734375;violin
113.15304;0.1801800000000071;79;0.734375;violin
113.33322000000001;0.15765749999999912;78;0.734375;violin
113.5134;0.1801799999999929;79;0.734375;violin
113.69358;0.1801800000000071;83;0.734375;violin
113.87376;0.1801800000000071;79;0.734375;violin
114.05394000000001;0.5405399999999929;76;0.734375;violin
114.59448;0.1801800000000071;79;0.734375;violin
114.77466000000001;0.1801799999999929;78;0.734375;violin
114.95484;0.1801799999999929;76;0.734375;violin
115.13502;0.1801800000000071;78;0.734375;violin
115.3152;0.1801800000000071;83;0.734375;violin
115.49538000000001;0.1801799999999929;82;0.734375;violin
115.67556;0.1801799999999929;83;0.734375;violin
115.85574;0.1801800000000071;78;0.734375;violin
116.03592;0.1801800000000071;75;0.734375;violin
116.21610000000001;0.47297249999999735;71;0.734375;violin
116.75664;0.1801800000000071;76;0.734375;violin
116.93682000000001;0.1801799999999929;78;0.734375;violin
117.117;0.1801799999999929;76;0.734375;violin
117.29718;0.5405400000000071;71;0.734375;violin
117.83772;0.1801799999999929;79;0.734375;violin
118.0179;0.1801800000000071;78;0.734375;violin
118.19808;0.1801800000000071;76;0.734375;violin
118.37826000000001;0.1801799999999929;78;0.734375;violin
118.55844;0.1801799999999929;79;0.734375;violin
118.73862;0.1801800000000071;78;0.734375;violin
118.9188;0.5405399999999929;71;0.734375;violin
119.45934;0.1801800000000071;81;0.734375;violin
119.63952;0.1801800000000071;79;0.734375;violin
119.81970000000001;0.15765749999999912;78;0.734375;violin
119.99988;0.1801799999999929;79;0.734375;violin
120.18006;0.1801800000000071;83;0.75;violin
120.36024;0.1801800000000071;76;0.7578125;violin
120.54042000000001;0.1801799999999929;78;0.7734375;violin
120.7206;0.1801799999999929;81;0.78125;violin
120.90078;0.1801800000000071;79;0.796875;violin
121.08096;0.1801800000000071;78;0.8046875;violin
121.26114000000001;0.1801799999999929;76;0.8203125;violin
121.44132;0.1801799999999929;75;0.828125;violin
121.6215;0.1801800000000071;76;0.84375;violin
121.80168;0.1801800000000071;71;0.8515625;violin
121.98186000000001;0.1801799999999929;67;0.8671875;violin
122.16204;0.5405400000000071;64;0.875;violin
122.70258000000001;0.47297249999999735;71;0.9140625;violin
122.70258000000001;0.47297249999999735;76;0.9140625;violin
123.24312;0.1801800000000071;55;0.6328125;violin
123.42330000000001;0.1801799999999929;62;0.6328125;violin
123.60348;0.1801799999999929;67;0.6328125;violin
123.78366;0.5405400000000071;71;0.6328125;violin
124.3242;0.1801799999999929;74;0.6328125;violin
124.50438;0.1801800000000071;76;0.6328125;violin
124.68456;0.1801800000000071;74;0.6328125;violin
124.86474000000001;0.5405399999999929;83;0.6328125;violin
125.40528;0.1801800000000071;79;0.765625;violin
125.58546000000001;0.1801799999999929;76;0.8125;violin
125.76564;0.1801799999999929;74;0.71875;violin
125.94582;0.47297250000001156;71;0.6328125;violin
126.48636;0.1801799999999929;62;0.6328125;violin
126.66654;0.1801800000000071;72;0.6328125;violin
126.84672;0.1801800000000071;69;0.6328125;violin
127.02690000000001;0.5405399999999929;78;0.6328125;violin
127.56744;0.1801800000000071;74;0.6328125;violin
127.74762000000001;0.1801799999999929;76;0.6328125;violin
127.9278;0.1801799999999929;74;0.6328125;violin
128.10798;0.5405400000000213;88;0.6328125;violin
128.64852000000002;0.1801799999999787;86;0.7890625;violin
128.8287;0.1801800000000071;84;0.84375;violin
129.00888;0.1801800000000071;81;0.8359375;violin
129.18906;0.5405399999999929;78;0.828125;violin
129.7296;0.1801800000000071;79;0.828125;violin
129.90978;0.1801800000000071;81;0.828125;violin
130.08996000000002;0.1801799999999787;79;0.828125;violin
130.27014;0.5405399999999929;83;0.828125;violin
130.81068;0.1801800000000071;74;0.828125;violin
130.99086;0.1801800000000071;76;0.828125;violin
131.17104;0.1801800000000071;74;0.828125;violin
131.35122;0.5405399999999929;79;0.828125;violin
131.89176;0.1801800000000071;71;0.828125;violin
132.07194;0.1801799999999787;72;0.828125;violin
132.25212;0.1801800000000071;71;0.828125;violin
132.4323;0.47297249999999735;76;0.828125;violin
132.97284000000002;0.1801799999999787;57;0.828125;violin
133.15302;0.1801800000000071;59;0.828125;violin
133.3332;0.1801800000000071;57;0.828125;violin
133.51338;0.5405399999999929;67;0.828125;violin
134.05392;0.1801800000000071;64;0.828125;violin
134.2341;0.1801800000000071;66;0.828125;violin
134.41428000000002;0.1801799999999787;64;0.828125;violin
134.59446;0.5405399999999929;73;0.828125;violin
135.135;0.1801800000000071;69;0.828125;violin
135.31518;0.1801800000000071;71;0.828125;violin
135.49536;0.15765749999999912;69;0.828125;violin
135.67554;0.72072;79;0.984375;violin
136.39626;0.1801799999999787;78;0.828125;violin
136.57644;0.1801800000000071;74;0.828125;violin
136.75662;0.5405400000000213;62;0.828125;violin
137.29716000000002;0.7207199999999716;81;0.828125;violin
138.01788;0.1801800000000071;79;0.8125;violin
138.19806;0.1801800000000071;76;0.8125;violin
138.37824;0.47297249999999735;74;0.8125;violin
138.91878;0.72072;83;0.8125;violin
139.6395;0.1801800000000071;81;0.7890625;violin
139.81968;0.1801800000000071;78;0.7890625;violin
139.99986;0.5405399999999929;74;0.7890625;violin
140.5404;0.72072;84;0.7890625;violin
141.26112;0.1801800000000071;83;0.7890625;violin
141.4413;0.1801800000000071;79;0.7890625;violin
141.62148000000002;0.47297249999999735;74;0.7890625;violin
142.16202;0.72072;86;0.7890625;violin
142.88274;0.1801800000000071;84;0.7890625;violin
143.06292000000002;0.1801799999999787;81;0.7890625;violin
143.2431;0.5405399999999929;78;0.7890625;violin
143.78364;0.6981975000000205;88;0.7890625;violin
144.50436000000002;0.1801799999999787;86;0.953125;violin
144.68454;0.1801800000000071;84;0.9453125;violin
144.86472;0.1801800000000071;83;0.9296875;violin
145.0449;0.1801799999999787;81;0.921875;violin
145.22508;0.1801800000000071;79;0.90625;violin
145.40526;0.1801800000000071;78;0.8984375;violin
145.58544;0.1801800000000071;76;0.8828125;violin
145.76562;0.15765749999999912;74;0.8828125;violin
145.94580000000002;0.1801799999999787;72;0.8828125;violin
146.12598;0.1801800000000071;69;0.8828125;violin
146.30616;0.1801800000000071;67;0.8828125;violin
146.48634;0.5405399999999929;66;0.8828125;violin
147.02688;0.698197499999992;76;0.8828125;violin
147.7476;0.1801800000000071;74;0.875;violin
147.92778;0.1801799999999787;72;0.859375;violin
148.10796;0.1801800000000071;71;0.8515625;violin
148.28814;0.1801800000000071;69;0.8359375;violin
148.46832;0.1801800000000071;67;0.828125;violin
148.6485;0.1801800000000071;66;0.8125;violin
148.82868000000002;0.1801799999999787;64;0.8046875;violin
149.00886;0.15765749999999912;62;0.7890625;violin
149.18904;0.1801800000000071;61;0.7890625;violin
149.36922;0.1801799999999787;64;0.7890625;violin
149.5494;0.1801800000000071;62;0.7890625;violin
149.72958;0.1801800000000071;66;0.7890625;violin
149.90976;0.1801800000000071;64;0.8046875;violin
150.08994;0.1801800000000071;67;0.8125;violin
150.27012000000002;0.1801799999999787;66;0.828125;violin
150.4503;0.1801800000000071;69;0.8359375;violin
150.63048;0.1801800000000071;68;0.8515625;violin
150.81066;0.1801799999999787;71;0.859375;violin
150.99084;0.1801800000000071;69;0.875;violin
151.17102;0.1801800000000071;72;0.8828125;violin
151.3512;0.1801800000000071;71;0.8984375;violin
151.53138;0.1801800000000071;74;0.90625;violin
151.71156000000002;0.1801799999999787;72;0.921875;violin
151.89174;0.1801800000000071;76;0.9296875;violin
152.07192;0.1801800000000071;75;0.9453125;violin
152.2521;0.15765749999999912;78;0.953125;violin
152.43228;0.1801800000000071;76;0.7890625;violin
152.61246;0.1801800000000071;79;0.7890625;violin
152.79264;0.1801800000000071;78;0.7890625;violin
152.97282;0.1801800000000071;81;0.7890625;violin
153.15300000000002;0.1801799999999787;80;0.7890625;violin
153.33318;0.1801800000000071;83;0.7890625;violin
153.51336;0.1801800000000071;81;0.7890625;violin
153.69354;0.1801799999999787;84;0.7890625;violin
153.87372;0.1801800000000071;83;0.7890625;violin
154.0539;0.1801800000000071;86;0.7890625;violin
154.23408;0.1801800000000071;83;0.7890625;violin
154.41426;0.1801800000000071;84;0.7890625;violin
154.59444000000002;0.1801799999999787;79;0.7890625;violin
154.77462;0.1801800000000071;81;0.78125;violin
154.9548;0.1801800000000071;77;0.7734375;violin
155.13498;0.1801799999999787;76;0.765625;violin
155.31516;0.1801800000000071;73;0.7578125;violin
155.49534;0.15765749999999912;74;0.7421875;violin
155.67552;0.1801800000000071;71;0.7421875;violin
155.8557;0.1801800000000071;72;0.734375;violin
156.03588000000002;0.1801799999999787;68;0.7265625;violin
156.21606;0.1801800000000071;69;0.71875;violin
156.39624;0.1801800000000071;65;0.7109375;violin
156.57642;0.1801799999999787;66;0.703125;violin
156.7566;0.4729725000000258;62;0.6953125;violin
157.29714;0.1801800000000071;75;0.6953125;violin
157.47732000000002;0.1801799999999787;76;0.6796875;violin
157.6575;0.1801800000000071;71;0.671875;violin
157.83768;0.1801800000000071;72;0.6640625;violin
158.01786;0.1801799999999787;68;0.65625;violin
158.19804;0.1801800000000071;69;0.6484375;violin
158.37822;0.5405400000000213;62;0.640625;violin
158.91876000000002;0.1801799999999787;80;0.7890625;violin
159.09894;0.1801800000000071;81;0.7890625;violin
159.27912;0.1801800000000071;79;0.7890625;violin
159.4593;0.1801799999999787;78;0.7890625;violin
159.63948;0.1801800000000071;76;0.7890625;violin
159.81966;0.1801800000000071;74;0.7890625;violin
159.99984;0.1801800000000071;72;0.7890625;violin
160.18002;0.1801800000000071;71;0.7734375;violin
160.36020000000002;0.15765749999999912;69;0.765625;violin
160.54038;0.1801800000000071;68;0.75;violin
160.72056;0.1801800000000071;69;0.734375;violin
160.90074;0.1801799999999787;67;0.7265625;violin
161.08092;0.1801800000000071;66;0.7109375;violin
161.2611;0.1801800000000071;64;0.6953125;violin
161.44128;0.1801800000000071;62;0.6875;violin
161.62146;0.1801800000000071;60;0.671875;violin
161.80164000000002;0.1801799999999787;59;0.65625;violin
161.98182;0.15765749999999912;57;0.640625;violin
162.162;0.1801800000000071;55;0.6328125;violin
162.34218;0.1801799999999787;62;0.6328125;violin
162.52236;0.1801800000000071;67;0.6328125;violin
162.70254;0.5405400000000213;71;0.6328125;violin
163.24308000000002;0.1801799999999787;74;0.71875;violin
163.42326;0.1801800000000071;76;0.75;violin
163.60344;0.1801800000000071;74;0.78125;violin
163.78362;0.5405399999999929;83;0.8125;violin
164.32416;0.1801800000000071;79;0.703125;violin
164.50434;0.1801800000000071;76;0.6640625;violin
164.68452000000002;0.1801799999999787;74;0.6328125;violin
164.8647;0.47297249999999735;71;0.6328125;violin
165.40524;0.1801800000000071;62;0.6328125;violin
165.58542;0.1801800000000071;72;0.703125;violin
165.7656;0.1801800000000071;69;0.7734375;violin
165.94578;0.5405399999999929;78;0.84375;violin
166.48632;0.1801800000000071;74;0.8359375;violin
166.6665;0.1801799999999787;76;0.8359375;violin
166.84668;0.1801800000000071;74;0.8359375;violin
167.02686;0.5405400000000213;88;0.8359375;violin
167.56740000000002;0.1801799999999787;86;0.8359375;violin
167.74758;0.1801800000000071;84;0.828125;violin
167.92776;0.1801800000000071;81;0.828125;violin
168.10794;0.5405399999999929;78;0.828125;violin
168.64848;0.1801800000000071;79;0.828125;violin
168.82866;0.1801800000000071;81;0.828125;violin
169.00884000000002;0.1801799999999787;79;0.828125;violin
169.18902;0.5405399999999929;83;0.828125;violin
169.72956;0.1801800000000071;74;0.828125;violin
169.90974;0.1801800000000071;76;0.828125;violin
170.08992;0.1801800000000071;74;0.828125;violin
170.2701;0.5405399999999929;79;0.828125;violin
170.81064;0.1801800000000071;71;0.828125;violin
170.99082;0.1801799999999787;72;0.828125;violin
171.171;0.1801800000000071;71;0.828125;violin
171.35118;0.47297249999999735;76;0.828125;violin
171.89172000000002;0.1801799999999787;75;0.828125;violin
172.0719;0.1801800000000071;76;0.828125;violin
172.25208;0.1801800000000071;75;0.828125;violin
172.43226;0.5405399999999929;84;0.828125;violin
172.9728;0.1801800000000071;83;0.8203125;violin
173.15298;0.1801800000000071;84;0.8203125;violin
173.33316000000002;0.1801799999999787;83;0.8203125;violin
173.51334;0.5405399999999929;81;0.8203125;violin
174.05388;0.1801800000000071;79;0.8125;violin
174.23406;0.1801800000000071;81;0.8125;violin
174.41424;0.1801800000000071;79;0.8125;violin
174.59442;0.47297249999999735;76;0.8125;violin
175.13496;0.1801800000000071;73;0.8125;violin
175.31514;0.1801799999999787;74;0.8046875;violin
175.49532;0.1801800000000071;73;0.8046875;violin
175.6755;0.5405400000000213;83;0.8046875;violin
176.21604000000002;0.1801799999999787;81;0.8046875;violin
176.39622;0.1801800000000071;83;0.796875;violin
176.5764;0.1801800000000071;81;0.796875;violin
176.75658;0.5405399999999929;78;0.796875;violin
177.29712;0.1801800000000071;74;0.796875;violin
177.4773;0.1801800000000071;76;0.7890625;violin
177.65748000000002;0.1801799999999787;74;0.7890625;violin
177.83766;0.47297249999999735;71;0.7890625;violin
178.3782;0.1801800000000071;68;0.7890625;violin
178.55838;0.1801800000000071;69;0.78125;violin
178.73856;0.1801800000000071;68;0.765625;violin
178.91874;0.5405399999999929;78;0.7578125;violin
179.45928;0.1801800000000071;76;0.7265625;violin
179.63946;0.1801799999999787;78;0.71875;violin
179.81964;0.1801800000000071;76;0.703125;violin
179.99982;0.1801800000000071;74;0.6953125;violin
180.18;0.1801800000000071;73;0.6875;violin
180.36018;0.1801800000000071;71;0.671875;violin
180.54036000000002;0.1801799999999787;69;0.6640625;violin
180.72054;0.1801800000000071;68;0.65625;violin
180.90072;0.1801800000000071;66;0.640625;violin
181.0809;0.1801799999999787;64;0.6328125;violin
181.26108;0.1801800000000071;62;0.625;violin
181.44126;0.1801800000000071;59;0.609375;violin
181.62144;0.1801800000000071;57;0.609375;violin
181.80162;0.1801800000000071;56;0.609375;violin
181.98180000000002;0.1801799999999787;59;0.609375;violin
182.16198;0.1801800000000071;57;0.609375;violin
182.34216;0.1801800000000071;61;0.609375;violin
182.52234;0.1801799999999787;59;0.609375;violin
182.70252;0.1801800000000071;62;0.609375;violin
182.8827;0.1801800000000071;61;0.625;violin
183.06288;0.1801800000000071;64;0.640625;violin
183.24306;0.1801800000000071;63;0.65625;violin
183.42324000000002;0.1801799999999787;66;0.6796875;violin
183.60342;0.1801800000000071;64;0.6953125;violin
183.7836;0.1801800000000071;67;0.7109375;violin
183.96378;0.1801799999999787;66;0.7265625;violin
184.14396;0.1801800000000071;69;0.7421875;violin
184.32414;0.1801800000000071;68;0.7578125;violin
184.50432;0.1801800000000071;71;0.7734375;violin
184.6845;0.1801800000000071;69;0.7890625;violin
184.86468000000002;0.1801799999999787;73;0.7890625;violin
185.04486;0.1801800000000071;71;0.7890625;violin
185.22504;0.1801800000000071;74;0.7890625;violin
185.40522;0.1801799999999787;73;0.7890625;violin
185.5854;0.1801800000000071;76;0.7890625;violin
185.76558;0.1801800000000071;75;0.7890625;violin
185.94576;0.1801800000000071;78;0.7890625;violin
186.12594;0.1801800000000071;76;0.7890625;violin
186.30612000000002;0.1801799999999787;79;0.7890625;violin
186.4863;0.1801800000000071;78;0.7890625;violin
186.66648;0.1801800000000071;81;0.7890625;violin
186.84666;0.1801799999999787;79;0.7890625;violin
187.02684;0.1801800000000071;83;0.7890625;violin
187.20702;0.1801800000000071;81;0.7890625;violin
187.3872;0.1801800000000071;80;0.7890625;violin
187.56738;0.1801800000000071;83;0.7890625;violin
187.74756000000002;0.1801799999999787;81;0.7890625;violin
187.92774;0.15765749999999912;80;0.7890625;violin
188.10792;0.1801800000000071;81;0.7890625;violin
188.28810000000001;0.1801799999999787;83;0.7734375;violin
188.46828;0.1801800000000071;81;0.765625;violin
188.64846;0.5405400000000213;78;0.75;violin
189.18900000000002;0.1801799999999787;74;0.7109375;violin
189.36918;0.1801800000000071;76;0.703125;violin
189.54936;0.1801800000000071;74;0.6875;violin
189.72954000000001;0.5405399999999929;69;0.671875;violin
190.27008;0.1801800000000071;66;0.640625;violin
190.45026000000001;0.1801800000000071;67;0.625;violin
190.63044000000002;0.1801799999999787;66;0.609375;violin
190.81062;0.47297249999999735;74;0.609375;violin
191.35116;0.1801800000000071;73;0.609375;violin
191.53134;0.1801800000000071;74;0.625;violin
191.71152;0.1801800000000071;73;0.640625;violin
191.89170000000001;0.5405399999999929;69;0.6484375;violin
192.43224;0.1801800000000071;79;0.6875;violin
192.61242000000001;0.1801799999999787;81;0.703125;violin
192.7926;0.1801800000000071;79;0.7109375;violin
192.97278;0.5405400000000213;76;0.7265625;violin
193.51332000000002;0.1801799999999787;85;0.765625;violin
193.6935;0.1801800000000071;86;0.7734375;violin
193.87368;0.1801800000000071;85;0.7890625;violin
194.05386000000001;0.47297249999999735;81;0.7890625;violin
194.5944;0.1801800000000071;88;0.7890625;violin
194.77458000000001;0.1801800000000071;90;0.7890625;violin
194.95476000000002;0.1801799999999787;88;0.7734375;violin
195.13494;0.5405399999999929;85;0.765625;violin
195.67548;0.1801800000000071;81;0.71875;violin
195.85566;0.1801800000000071;83;0.7109375;violin
196.03584;0.1801800000000071;81;0.6953125;violin
196.21602000000001;0.5405399999999929;79;0.6796875;violin
196.75656;0.1801800000000071;69;0.640625;violin
196.93674000000001;0.1801799999999787;71;0.625;violin
197.11692;0.1801800000000071;69;0.609375;violin
197.2971;0.5405400000000213;76;0.609375;violin
197.83764000000002;0.1801799999999787;78;0.609375;violin
198.01782;0.1801800000000071;79;0.671875;violin
198.198;0.1801800000000071;78;0.7265625;violin
198.37818000000001;0.5405399999999929;81;0.7890625;violin
198.91872;0.1801800000000071;74;0.7421875;violin
199.09890000000001;0.1801800000000071;76;0.7265625;violin
199.27908000000002;0.1801799999999787;74;0.7109375;violin
199.45926;0.5405399999999929;78;0.6953125;violin
199.9998;0.1801800000000071;69;0.640625;violin
200.17998;0.1801800000000071;71;0.625;violin
200.36016;0.1801800000000071;69;0.609375;violin
200.54034000000001;0.47297249999999735;74;0.609375;violin
201.08088;0.1801800000000071;66;0.609375;violin
201.26106000000001;0.1801799999999787;67;0.625;violin
201.44124;0.1801800000000071;66;0.640625;violin
201.62142;0.5405400000000213;70;0.6484375;violin
202.16196000000002;0.1801799999999787;73;0.6875;violin
202.34214;0.1801800000000071;74;0.703125;violin
202.52232;0.1801800000000071;73;0.7109375;violin
202.70250000000001;0.5405399999999929;78;0.7265625;violin
203.24304;0.1801800000000071;76;0.765625;violin
203.42322000000001;0.1801800000000071;78;0.7734375;violin
203.60340000000002;0.1801799999999787;76;0.7890625;violin
203.78358;0.5405399999999929;73;0.7890625;violin
204.32412;0.1801800000000071;74;0.7890625;violin
204.5043;0.1801800000000071;76;0.7890625;violin
204.68448;0.1801800000000071;74;0.7734375;violin
204.86466000000001;0.5405399999999929;71;0.765625;violin
205.4052;0.1801800000000071;78;0.7265625;violin
205.58538000000001;0.1801799999999787;79;0.7109375;violin
205.76556;0.1801800000000071;78;0.703125;violin
205.94574;0.5405400000000213;74;0.6875;violin
206.48628000000002;0.1801799999999787;83;0.6484375;violin
206.66646;0.1801800000000071;85;0.640625;violin
206.84664;0.1801800000000071;83;0.625;violin
207.02682000000001;0.47297249999999735;78;0.609375;violin
207.56736;0.1801800000000071;76;0.609375;violin
207.74754000000001;0.1801800000000071;75;0.625;violin
207.92772000000002;0.1801799999999787;76;0.640625;violin
208.1079;0.5405399999999929;78;0.65625;violin
208.64844;0.1801800000000071;79;0.703125;violin
208.82862;0.1801800000000071;78;0.71875;violin
209.0088;0.1801800000000071;79;0.7265625;violin
209.18898000000002;0.5405399999999929;78;0.7421875;violin
209.72952;0.1801800000000071;76;0.7890625;violin
209.90970000000002;0.1801799999999787;75;0.7265625;violin
210.08988;0.1801800000000071;76;0.671875;violin
210.27006;0.47297249999999735;77;0.609375;violin
210.81060000000002;0.1801799999999787;78;0.7890625;violin
210.99078;0.1801800000000071;80;0.7890625;violin
211.17096;0.1801800000000071;78;0.7890625;violin
211.35114000000002;0.1801799999999787;82;0.7890625;violin
211.53132;0.1801800000000071;83;0.7890625;violin
211.7115;0.1801800000000071;82;0.7890625;violin
211.89168;0.1801800000000071;85;0.7890625;violin
212.07186000000002;0.1801800000000071;87;0.7890625;violin
212.25204000000002;0.1801799999999787;85;0.7890625;violin
212.43222;0.1801800000000071;82;0.7890625;violin
212.6124;0.1801800000000071;83;0.7890625;violin
212.79258000000002;0.1801799999999787;82;0.7890625;violin
212.97276;0.1801800000000071;78;0.7890625;violin
213.15294;0.1801800000000071;79;0.765625;violin
213.33312;0.1801800000000071;78;0.734375;violin
213.51330000000002;0.1801800000000071;79;0.7109375;violin
213.69348000000002;0.1801799999999787;81;0.6875;violin
213.87366;0.15765749999999912;79;0.65625;violin
214.05384;0.1801800000000071;81;0.6328125;violin
214.23402000000002;0.1801799999999787;83;0.6171875;violin
214.4142;0.1801800000000071;81;0.609375;violin
214.59438;0.5405400000000213;78;0.59375;violin
215.13492000000002;0.1801799999999787;74;0.5546875;violin
215.3151;0.1801800000000071;76;0.5390625;violin
215.49528;0.1801800000000071;74;0.53125;violin
215.67546000000002;0.5405399999999929;69;0.515625;violin
216.216;0.1801800000000071;66;0.4765625;violin
216.39618000000002;0.1801800000000071;67;0.46875;violin
216.57636000000002;0.1801799999999787;66;0.453125;violin
216.75654;0.47297249999999735;74;0.453125;violin
217.29708;0.1801800000000071;73;0.453125;violin
217.47726;0.1801800000000071;74;0.453125;violin
217.65744;0.1801800000000071;73;0.46875;violin
217.83762000000002;0.5405399999999929;69;0.4765625;violin
218.37816;0.1801800000000071;79;0.5234375;violin
218.55834000000002;0.1801799999999787;81;0.53125;violin
218.73852;0.1801800000000071;79;0.546875;violin
218.9187;0.5405400000000213;76;0.5625;violin
219.45924000000002;0.1801799999999787;85;0.6015625;violin
219.63942;0.1801800000000071;86;0.6171875;violin
219.8196;0.1801800000000071;85;0.6328125;violin
219.99978000000002;0.47297249999999735;81;0.6328125;violin
220.54032;0.1801800000000071;88;0.6328125;violin
220.72050000000002;0.1801800000000071;90;0.6328125;violin
220.90068000000002;0.1801799999999787;88;0.6171875;violin
221.08086;0.5405399999999929;85;0.6015625;violin
221.6214;0.1801800000000071;81;0.5625;violin
221.80158;0.1801800000000071;83;0.546875;violin
221.98176;0.1801800000000071;81;0.53125;violin
222.16194000000002;0.5405399999999929;79;0.5234375;violin
222.70248;0.1801800000000071;69;0.4765625;violin
222.88266000000002;0.1801799999999787;71;0.46875;violin
223.06284;0.1801800000000071;69;0.453125;violin
223.24302;0.47297249999999735;76;0.453125;violin
223.78356000000002;0.1801799999999787;78;0.453125;violin
223.96374;0.1801800000000071;79;0.453125;violin
224.14392;0.1801800000000071;78;0.453125;violin
224.32410000000002;0.5405399999999929;81;0.453125;violin
224.86464;0.1801800000000071;74;0.453125;violin
225.04482000000002;0.1801800000000071;76;0.453125;violin
225.22500000000002;0.1801799999999787;74;0.453125;violin
225.40518;0.5405399999999929;78;0.453125;violin
225.94572;0.1801800000000071;69;0.453125;violin
226.1259;0.1801800000000071;71;0.453125;violin
226.30608;0.1801800000000071;69;0.453125;violin
226.48626000000002;0.47297249999999735;74;0.453125;violin
227.0268;0.1801800000000071;72;0.453125;violin
227.20698000000002;0.1801799999999787;74;0.453125;violin
227.38716;0.1801800000000071;72;0.453125;violin
227.56734;0.5405400000000213;69;0.453125;violin
228.10788000000002;0.1801799999999787;78;0.453125;violin
228.28806;0.1801800000000071;79;0.46875;violin
228.46824;0.1801800000000071;78;0.484375;violin
228.64842000000002;0.5405399999999929;74;0.5;violin
229.18896;0.1801800000000071;84;0.5390625;violin
229.36914000000002;0.1801800000000071;86;0.5546875;violin
229.54932000000002;0.1801799999999787;84;0.5703125;violin
229.7295;0.47297249999999735;81;0.5859375;violin
230.27004;0.1801800000000071;83;0.6328125;violin
230.45022;0.1801800000000071;82;0.6328125;violin
230.6304;0.1801800000000071;83;0.625;violin
230.81058000000002;0.5405399999999929;86;0.625;violin
231.35112;0.1801800000000071;79;0.625;violin
231.53130000000002;0.1801799999999787;78;0.6171875;violin
231.71148;0.1801800000000071;79;0.6171875;violin
231.89166;0.5405400000000213;83;0.6171875;violin
232.43220000000002;0.1801799999999787;74;0.609375;violin
232.61238;0.1801800000000071;73;0.609375;violin
232.79256;0.1801800000000071;74;0.609375;violin
232.97274000000002;0.5405399999999929;79;0.609375;violin
233.51328;0.1801800000000071;69;0.609375;violin
233.69346000000002;0.1801800000000071;71;0.609375;violin
233.87364000000002;0.1801799999999787;69;0.609375;violin
234.05382;0.5405399999999929;73;0.609375;violin
234.59436;0.1801800000000071;76;0.609375;violin
234.77454;0.1801800000000071;78;0.609375;violin
234.95472;0.1801800000000071;76;0.609375;violin
235.13490000000002;0.5405399999999929;79;0.609375;violin
235.67544;0.1801800000000071;76;0.609375;violin
235.85562000000002;0.1801799999999787;78;0.609375;violin
236.0358;0.1801800000000071;76;0.609375;violin
236.21598;0.5405400000000213;73;0.609375;violin
236.75652000000002;0.1801799999999787;74;0.609375;violin
236.9367;0.1801800000000071;76;0.609375;violin
237.11688;0.1801800000000071;74;0.609375;violin
237.29706000000002;0.5405399999999929;62;0.609375;violin
237.8376;0.1801800000000071;78;0.609375;violin
238.01778000000002;0.1801800000000071;79;0.6015625;violin
238.19796000000002;0.1801799999999787;78;0.6015625;violin
238.37814;0.5405399999999929;62;0.6015625;violin
238.91868;0.1801800000000071;75;0.6015625;violin
239.09886;0.1801800000000071;77;0.6015625;violin
239.27904;0.1801800000000071;75;0.6015625;violin
239.45922000000002;0.47297249999999735;62;0.6015625;violin
239.99976;0.1801800000000071;74;0.6015625;violin
240.17994000000002;0.1801799999999787;75;0.6015625;violin
240.36012;0.1801800000000071;74;0.59375;violin
240.5403;0.5405400000000213;62;0.59375;violin
241.08084000000002;0.1801799999999787;70;0.59375;violin
241.26102;0.1801800000000071;72;0.59375;violin
241.4412;0.1801800000000071;70;0.59375;violin
241.62138000000002;0.5405399999999929;62;0.59375;violin
242.16192;0.1801800000000071;67;0.59375;violin
242.34210000000002;0.1801800000000071;69;0.59375;violin
242.52228000000002;0.1801799999999787;67;0.59375;violin
242.70246;0.47297249999999735;62;0.59375;violin
243.243;0.1801800000000071;66;0.59375;violin
243.42318;0.1801800000000071;67;0.5859375;violin
243.60336;0.1801800000000071;66;0.5859375;violin
243.78354000000002;0.5405399999999929;62;0.5859375;violin
244.32408;0.1801800000000071;69;0.5859375;violin
244.50426000000002;0.1801799999999787;70;0.5859375;violin
244.68444;0.1801800000000071;69;0.5859375;violin
244.86462;0.5405400000000213;62;0.5859375;violin
245.40516000000002;0.1801799999999787;74;0.5859375;violin
245.58534;0.1801800000000071;75;0.5859375;violin
245.76552;0.1801800000000071;74;0.578125;violin
245.94570000000002;0.47297249999999735;62;0.578125;violin
246.48624;0.1801800000000071;72;0.578125;violin
246.66642000000002;0.1801800000000071;74;0.578125;violin
246.84660000000002;0.1801799999999787;72;0.578125;violin
247.02678;0.5405399999999929;62;0.578125;violin
247.56732;0.1801800000000071;70;0.578125;violin
247.7475;0.1801800000000071;72;0.578125;violin
247.92768;0.1801800000000071;70;0.578125;violin
248.10786000000002;0.5405399999999929;62;0.578125;violin
248.6484;0.1801800000000071;67;0.578125;violin
248.82858000000002;0.1801799999999787;69;0.578125;violin
249.00876;0.1801800000000071;67;0.578125;violin
249.18894;0.47297249999999735;62;0.578125;violin
249.72948000000002;0.1801799999999787;66;0.578125;violin
249.90966;0.1801800000000071;67;0.578125;violin
250.08984;0.1801800000000071;66;0.578125;violin
250.27002000000002;0.5405399999999929;62;0.578125;violin
250.81056;0.1801800000000071;69;0.578125;violin
250.99074000000002;0.1801800000000071;71;0.5859375;violin
251.17092000000002;0.1801799999999787;69;0.59375;violin
251.3511;0.5405399999999929;66;0.6015625;violin
251.89164;0.1801800000000071;74;0.625;violin
252.07182;0.1801800000000071;76;0.6328125;violin
252.252;0.1801800000000071;74;0.640625;violin
252.43218000000002;0.5405399999999929;69;0.640625;violin
252.97272;0.1801800000000071;78;0.6640625;violin
253.15290000000002;0.1801799999999787;79;0.671875;violin
253.33308;0.1801800000000071;78;0.6796875;violin
253.51326;0.5405400000000213;74;0.6875;violin
254.05380000000002;0.1801799999999787;81;0.703125;violin
254.23398;0.1801800000000071;83;0.7109375;violin
254.41416;0.1801800000000071;81;0.71875;violin
254.59434000000002;0.5405399999999929;78;0.7265625;violin
255.13488;0.1801800000000071;86;0.75;violin
255.31506000000002;0.1801800000000071;88;0.7578125;violin
255.49524000000002;0.1801799999999787;86;0.765625;violin
255.67542;0.47297249999999735;81;0.765625;violin
256.21596;0.1801800000000071;90;0.7890625;violin
256.39614;0.1801800000000071;89;0.7890625;violin
256.57632;0.1801800000000071;90;0.7890625;violin
256.7565;0.5405400000000213;86;0.7890625;violin
257.29704000000004;0.18017999999995027;81;0.7890625;violin
257.47722;0.1801800000000071;80;0.7890625;violin
257.6574;0.1801800000000071;81;0.7890625;violin
257.83758;0.5405400000000213;78;0.7890625;violin
258.37812;0.1801800000000071;74;0.7890625;violin
258.55830000000003;0.18017999999995027;73;0.7890625;violin
258.73848;0.1801800000000071;74;0.7890625;violin
258.91866;0.5405400000000213;69;0.7890625;violin
259.4592;0.1801800000000071;66;0.6328125;violin
259.63938;0.1801800000000071;67;0.6328125;violin
259.81956;0.1801800000000071;66;0.6328125;violin
259.99974000000003;0.5405399999999645;62;0.6328125;violin
260.54028;0.1801800000000071;69;0.6328125;violin
260.72046;0.1801800000000071;71;0.6484375;violin
260.90064;0.1801800000000071;69;0.65625;violin
261.08082;0.5405399999999645;62;0.671875;violin
261.62136;0.1801800000000071;74;0.71875;violin
261.80154;0.1801800000000071;76;0.7265625;violin
261.98172;0.1801800000000071;74;0.7421875;violin
262.1619;0.4729725000000258;62;0.7578125;violin
262.640503125;0.06052921874999129;62;0.7578125;violin
262.70244;0.9459449999999947;78;0.7578125;violin
262.70244;0.9459449999999947;86;0.7578125;violin
