start;duration;pitch;velocity;instrument
0.0;0.50347171875;72;0.734375;violin
0.50347171875;0.03314390625000008;74;0.734375;violin
0.536615625;0.033143906249999966;72;0.734375;violin
0.5713378125;0.033143906249999966;71;0.734375;violin
0.60606;0.30303;72;0.734375;violin
0.9090900000000001;0.30303;76;0.734375;violin
1.21212;0.3030299999999999;67;0.734375;violin
1.51515;0.30303000000000013;64;0.734375;violin
1.8181800000000001;0.3030299999999999;65;0.734375;violin
2.12121;0.30303000000000013;69;0.734375;violin
2.42424;0.5034717187499997;67;0.734375;violin
2.92771171875;0.0331439062500003;69;0.734375;violin
2.960855625;0.033143906249999855;67;0.734375;violin
2.9955778125;0.033143906249999855;66;0.734375;violin
3.0303;0.30303000000000013;67;0.734375;violin
3.33333;0.26515125000000017;72;0.734375;violin
3.6363600000000003;1.0606050000000002;64;0.734375;violin
4.84848;0.5034717187500002;67;0.734375;violin
5.3519517187500005;0.03314390624999941;69;0.734375;violin
5.385095625;0.0331439062500003;67;0.734375;violin
5.4198178125;0.0331439062500003;66;0.734375;violin
5.45454;0.3030300000000006;67;0.734375;violin
5.75757;0.2651512499999997;72;0.734375;violin
6.0606;0.3030300000000006;69;0.734375;violin
6.363630000000001;0.3030299999999997;67;0.734375;violin
6.66666;0.3030299999999997;64;0.734375;violin
6.96969;0.2651512500000006;60;0.734375;violin
7.2727200000000005;1.2121199999999996;60;0.734375;violin
8.48484;0.5303024999999995;59;0.734375;violin
9.69696;0.5034717187499993;65;0.734375;violin
10.20043171875;0.0331439062500003;67;0.734375;violin
10.233575625;0.0331439062500003;65;0.734375;violin
10.2682978125;0.0331439062500003;64;0.734375;violin
10.30302;0.3030299999999997;65;0.734375;violin
10.60605;0.3030299999999997;69;0.734375;violin
10.90908;0.30303000000000146;59;0.734375;violin
11.212110000000001;0.3030299999999997;62;0.734375;violin
11.51514;0.3030299999999997;65;0.734375;violin
11.81817;0.3030299999999997;69;0.734375;violin
12.1212;0.3030299999999997;67;0.734375;violin
12.42423;0.30303000000000146;71;0.7421875;violin
12.727260000000001;0.3030299999999997;74;0.75;violin
13.03029;0.26515124999999884;77;0.7578125;violin
13.33332;1.0606050000000007;83;0.765625;violin
14.545440000000001;0.7386356249999988;86;0.7890625;violin
15.303015;0.15151499999999984;83;0.7890625;violin
15.45453;0.15151499999999984;79;0.7890625;violin
15.606045;0.15151499999999984;77;0.7890625;violin
15.75756;0.15151499999999984;74;0.7890625;violin
15.909075;0.15151500000000162;71;0.7890625;violin
16.06059;0.15151499999999984;67;0.7890625;violin
16.212105;0.15151499999999984;65;0.7890625;violin
16.36362;0.15151499999999984;62;0.7890625;violin
16.515135;0.15151499999999984;59;0.7890625;violin
16.66665;0.15151499999999984;69;0.7890625;violin
16.818165;0.1325756250000012;67;0.7890625;violin
16.96968;0.7575749999999992;65;0.7890625;violin
17.727255;0.15151499999999984;64;0.7734375;violin
17.87877;0.15151499999999984;67;0.765625;violin
18.030285;0.1325756250000012;65;0.75;violin
18.1818;0.5303025000000012;64;0.734375;violin
19.39392;0.5034717187499993;72;0.734375;violin
19.89739171875;0.0331439062500003;74;0.734375;violin
19.930535625;0.0331439062500003;72;0.734375;violin
19.9652578125;0.0331439062500003;71;0.734375;violin
19.99998;0.3030299999999997;72;0.734375;violin
20.30301;0.3030299999999997;76;0.734375;violin
20.60604;0.3030299999999997;67;0.734375;violin
20.90907;0.3030299999999997;64;0.734375;violin
21.2121;0.3030299999999997;65;0.734375;violin
21.51513;0.3030299999999997;69;0.734375;violin
21.81816;0.5034717187500029;67;0.734375;violin
22.32163171875;0.0331439062500003;69;0.734375;violin
22.354775625000002;0.0331439062500003;67;0.734375;violin
22.3894978125;0.0331439062500003;66;0.734375;violin
22.424220000000002;0.3030299999999997;67;0.734375;violin
22.72725;0.26515124999999884;72;0.734375;violin
23.03028;1.060604999999999;64;0.734375;violin
24.2424;0.3030299999999997;60;0.734375;violin
24.54543;0.3030299999999997;55;0.7578125;violin
24.84846;0.3030299999999997;60;0.7734375;violin
25.15149;0.30303000000000324;64;0.796875;violin
25.454520000000002;0.3030299999999997;65;0.796875;violin
25.757550000000002;0.3030299999999997;64;0.796875;violin
26.06058;0.3030299999999997;62;0.796875;violin
26.36361;0.26515124999999884;60;0.796875;violin
26.66664;1.2121199999999988;71;0.953125;violin
27.87876;0.5303025000000012;69;0.796875;violin
29.090880000000002;0.9090899999999991;67;0.796875;violin
29.99997;0.26515124999999884;71;0.796875;violin
30.303;0.3030299999999997;74;0.796875;violin
30.60603;0.3030299999999997;77;0.796875;violin
30.90906;0.3030299999999997;83;0.796875;violin
31.21209;0.2651512500000024;86;0.796875;violin
31.51512;0.5034717187500029;76;0.796875;violin
32.01859171875;0.033143906249996746;77;0.796875;violin
32.051735625;0.03314390625000385;76;0.796875;violin
32.0864578125;0.033143906249996746;75;0.796875;violin
32.12118;0.3030299999999997;76;0.796875;violin
32.42421;0.2651512499999953;79;0.796875;violin
32.72724;0.9090899999999991;84;0.796875;violin
33.63633;0.2651512500000024;76;0.796875;violin
33.93936;0.3030299999999997;74;0.796875;violin
34.24239;0.3030299999999997;77;0.796875;violin
34.54542;0.3030299999999997;83;0.796875;violin
34.84845;0.2651512500000024;81;0.796875;violin
35.15148;0.3030299999999997;79;0.796875;violin
35.45451;0.3030299999999997;77;0.796875;violin
35.75754;0.3030299999999997;69;0.796875;violin
36.06057;0.2651512500000024;71;0.796875;violin
36.3636;1.2121200000000059;72;0.796875;violin
37.575720000000004;1.2121199999999988;60;0.796875;violin
38.78784;0.5034717187499993;62;0.796875;violin
39.29131171875;0.033143906249996746;64;0.796875;violin
39.324455625;0.03314390625000385;62;0.796875;violin
39.3591778125;0.03314390625000385;61;0.796875;violin
39.3939;0.3030299999999997;62;0.796875;violin
39.69693;0.2651512500000024;66;0.796875;violin
39.99996;0.3030299999999997;69;0.796875;violin
40.30299;0.3030299999999997;72;0.796875;violin
40.60602;0.3030299999999997;74;0.796875;violin
40.90905;0.2651512500000024;78;0.796875;violin
41.21208;0.3030299999999997;79;0.796875;violin
41.51511;0.3030299999999997;74;0.796875;violin
41.81814;0.3030299999999997;83;0.796875;violin
42.12117;0.2651512500000024;79;0.796875;violin
42.4242;1.0606050000000025;86;0.796875;violin
43.63632;0.5034717187500064;84;0.796875;violin
44.139791718750004;0.033143906249996746;83;0.796875;violin
44.172935625;0.033143906249996746;84;0.796875;violin
44.2076578125;0.033143906249996746;86;0.796875;violin
44.242380000000004;0.2651512499999953;84;0.796875;violin
44.545410000000004;0.3030299999999997;81;0.796875;violin
44.848440000000004;0.3030299999999997;78;0.796875;violin
45.15147;0.3030299999999997;74;0.796875;violin
45.4545;0.3030299999999997;72;0.796875;violin
45.75753;0.2651512499999953;69;0.796875;violin
46.06056;0.5034717187499993;76;0.796875;violin
46.56403171875;0.033143906249996746;73;0.796875;violin
46.597175625;0.03314390625000385;74;0.796875;violin
46.6318978125;0.03314390625000385;76;0.796875;violin
46.66662;0.3030299999999997;74;0.796875;violin
46.96965;0.2651512500000024;71;0.796875;violin
47.27268;1.0606050000000025;67;0.796875;violin
48.4848;0.5034717187499993;62;0.796875;violin
48.98827171875;0.03314390625000385;59;0.796875;violin
49.021415625;0.033143906249996746;60;0.796875;violin
49.056137812500005;0.033143906249996746;62;0.796875;violin
49.09086;0.3030299999999997;60;0.796875;violin
49.39389;0.2651512500000024;57;0.796875;violin
49.69692;0.3030299999999997;60;0.796875;violin
49.99995;0.3030299999999997;62;0.8125;violin
50.30298;0.3030300000000068;66;0.8359375;violin
50.606010000000005;0.3030299999999997;76;0.8515625;violin
50.909040000000005;0.5034717187499993;74;0.875;violin
51.412511718750004;0.033143906249996746;76;0.90625;violin
51.445655625;0.03314390625000385;74;0.9140625;violin
51.4803778125;0.033143906249996746;73;0.9140625;violin
51.515100000000004;0.1515149999999963;74;0.9140625;violin
51.666615;0.1515150000000034;71;0.9140625;violin
51.818130000000004;0.1515149999999963;74;0.9140625;violin
51.969645;0.1325756250000012;79;0.9140625;violin
52.12116;1.0606049999999954;83;0.9140625;violin
53.33328;0.5034717187499993;84;0.9140625;violin
53.83675171875;0.033143906249996746;83;0.9140625;violin
53.869895625;0.03314390625000385;84;0.9140625;violin
53.9046178125;0.03314390625000385;86;0.9140625;violin
53.93934;0.3030299999999997;84;0.9140625;violin
54.24237;0.2651512500000024;75;0.9140625;violin
54.5454;0.3030299999999997;74;0.9140625;violin
54.84843;0.3030299999999997;78;0.9140625;violin
55.15146;0.3030299999999997;83;0.9140625;violin
55.45449;0.3030299999999997;78;0.9140625;violin
55.75752;0.5034717187499993;79;0.9140625;violin
56.26099171875;0.03314390625000385;81;0.9140625;violin
56.294135625;0.033143906249996746;79;0.9140625;violin
56.328857812500004;0.033143906249996746;78;0.9140625;violin
56.36358;0.3030299999999997;79;0.9140625;violin
56.66661;0.2651512500000024;80;0.9140625;violin
56.96964;0.3030299999999997;83;0.9140625;violin
57.27267;0.3030300000000068;81;0.8515625;violin
57.575700000000005;0.3030299999999997;77;0.796875;violin
57.878730000000004;0.2651512499999953;74;0.734375;violin
58.181760000000004;0.5034717187499993;72;0.734375;violin
58.68523171875;0.033143906249996746;74;0.734375;violin
58.718375625;0.03314390625000385;72;0.734375;violin
58.7530978125;0.033143906249996746;71;0.734375;violin
58.78782;0.3030299999999997;72;0.734375;violin
59.09085;0.3030299999999997;76;0.734375;violin
59.39388;0.3030299999999997;67;0.734375;violin
59.69691;0.3030299999999997;64;0.734375;violin
59.99994;0.3030299999999997;65;0.734375;violin
60.30297;0.3030299999999997;69;0.734375;violin
60.606;0.5034717187499993;67;0.734375;violin
61.10947171875;0.03314390625000385;69;0.734375;violin
61.142615625000005;0.033143906249996746;67;0.734375;violin
61.1773378125;0.03314390625000385;66;0.734375;violin
61.21206;0.3030299999999997;67;0.734375;violin
61.51509;0.2651512500000024;72;0.734375;violin
61.81812;1.0606050000000025;64;0.734375;violin
63.03024;0.5034717187499993;67;0.734375;violin
63.53371171875;0.03314390625000385;69;0.734375;violin
63.566855625;0.033143906249996746;67;0.734375;violin
63.601577812500004;0.033143906249996746;66;0.734375;violin
63.6363;0.3030299999999997;67;0.734375;violin
63.93933;0.2651512500000024;72;0.734375;violin
64.24236;0.3030299999999926;69;0.734375;violin
64.54539;0.3030300000000068;67;0.734375;violin
64.84842;0.3030299999999926;64;0.734375;violin
65.15145;0.2651512500000024;60;0.734375;violin
65.45448;1.2121199999999988;60;0.734375;violin
66.6666;0.5303025000000048;59;0.734375;violin
67.87872;0.5034717187500064;65;0.734375;violin
68.38219171875001;0.03314390624998964;67;0.734375;violin
68.415335625;0.03314390625000385;65;0.734375;violin
68.4500578125;0.03314390624998964;64;0.734375;violin
68.48478;0.3030300000000068;65;0.734375;violin
68.78781000000001;0.3030299999999926;69;0.734375;violin
69.09084;0.3030300000000068;59;0.734375;violin
69.39387;0.3030299999999926;62;0.734375;violin
69.6969;0.3030300000000068;65;0.734375;violin
69.99993;0.3030299999999926;69;0.734375;violin
70.30296;0.3030300000000068;67;0.734375;violin
70.60599;0.3030299999999926;71;0.7421875;violin
70.90902;0.3030300000000068;74;0.75;violin
71.21205;0.2651512500000024;77;0.7578125;violin
71.51508;1.0606050000000096;83;0.765625;violin
72.7272;0.7386356250000006;86;0.7890625;violin
73.484775;0.1515150000000034;83;0.7890625;violin
73.63629;0.1515150000000034;79;0.7890625;violin
73.787805;0.15151499999998919;77;0.7890625;violin
73.93932;0.1515150000000034;74;0.7890625;violin
74.090835;0.1515150000000034;71;0.7890625;violin
74.24235;0.1515150000000034;67;0.7890625;violin
74.393865;0.1515150000000034;65;0.7890625;violin
74.54538000000001;0.15151499999998919;62;0.7890625;violin
74.696895;0.1515150000000034;59;0.7890625;violin
74.84841;0.1515150000000034;69;0.7890625;violin
74.999925;0.1325756250000012;67;0.7890625;violin
75.15144000000001;0.7575749999999886;65;0.7890625;violin
75.909015;0.1515150000000034;64;0.7734375;violin
76.06053;0.1515150000000034;67;0.765625;violin
76.212045;0.1325756250000012;65;0.75;violin
76.36356;0.5303024999999906;64;0.734375;violin
77.57568;0.5034717187499922;72;0.734375;violin
78.07915171875;0.03314390625000385;74;0.734375;violin
78.112295625;0.03314390625000385;72;0.734375;violin
78.1470178125;0.03314390625000385;71;0.734375;violin
78.18174;0.3030299999999926;72;0.734375;violin
78.48477;0.3030300000000068;76;0.734375;violin
78.7878;0.3030299999999926;67;0.734375;violin
79.09083;0.3030300000000068;64;0.734375;violin
79.39386;0.3030299999999926;67;0.734375;violin
79.69689;0.2651512500000024;72;0.734375;violin
79.99992;0.5034717187499922;74;0.734375;violin
80.50339171875;0.03314390625000385;76;0.734375;violin
80.536535625;0.03314390625000385;74;0.734375;violin
80.57125781250001;0.03314390624998964;73;0.734375;violin
80.60598;0.3030299999999926;74;0.734375;violin
80.90901;0.2651512500000024;77;0.734375;violin
81.21204;0.3030300000000068;81;0.734375;violin
81.51507000000001;0.3030299999999926;80;0.734375;violin
81.8181;0.3030300000000068;83;0.734375;violin
82.12113000000001;0.2651512499999882;81;0.734375;violin
82.42416;0.5034717187500064;79;0.734375;violin
82.92763171875;0.03314390624998964;81;0.734375;violin
82.960775625;0.03314390625000385;79;0.734375;violin
82.9954978125;0.03314390625000385;78;0.734375;violin
83.03022;0.3030300000000068;79;0.734375;violin
83.33325;0.3030299999999926;84;0.734375;violin
83.63628;0.3030300000000068;79;0.734375;violin
83.93931;0.3030299999999926;77;0.734375;violin
84.24234;0.3030300000000068;74;0.734375;violin
84.54537;0.2651512500000024;71;0.734375;violin
84.8484;1.2121199999999988;74;0.734375;violin
86.06052;0.2651512500000024;72;0.734375;violin
86.36355;0.3030299999999926;69;0.734375;violin
86.66658;0.3030300000000068;67;0.734375;violin
86.96961;0.2651512500000024;65;0.734375;violin
87.27264;0.5034717187500064;64;0.734375;violin
87.77611171875;0.03314390625000385;69;0.734375;violin
87.809255625;0.03314390624998964;67;0.734375;violin
87.8439778125;0.03314390625000385;66;0.734375;violin
87.87870000000001;0.3030299999999926;67;0.734375;violin
88.18173;0.2651512500000024;64;0.734375;violin
88.48476000000001;0.5034717187499922;72;0.734375;violin
88.98823171875;0.03314390625000385;74;0.734375;violin
89.021375625;0.03314390625000385;72;0.734375;violin
89.0560978125;0.03314390625000385;71;0.734375;violin
89.09082000000001;0.3030299999999926;72;0.734375;violin
89.39385;0.3030300000000068;76;0.734375;violin
89.69688000000001;0.5034717187499922;74;0.734375;violin
90.20035171875;0.03314390625000385;76;0.734375;violin
90.233495625;0.03314390625000385;74;0.734375;violin
90.2682178125;0.03314390625000385;73;0.734375;violin
90.30294;0.3030299999999926;74;0.734375;violin
90.60597;0.3030300000000068;69;0.734375;violin
90.909;1.2121199999999988;81;0.734375;violin
92.12112;0.5034717187499922;76;0.734375;violin
92.62459171875;0.03314390625000385;77;0.734375;violin
92.657735625;0.03314390625000385;76;0.734375;violin
92.6924578125;0.03314390625000385;75;0.734375;violin
92.72718;0.3030299999999926;76;0.734375;violin
93.03021;0.2651512500000024;79;0.734375;violin
93.33324;0.5034717187499922;77;0.734375;violin
93.83671171875;0.03314390625000385;79;0.734375;violin
93.869855625;0.03314390625000385;77;0.734375;violin
93.90457781250001;0.03314390624998964;76;0.734375;violin
93.9393;0.3030299999999926;77;0.734375;violin
94.24233;0.2651512500000024;83;0.734375;violin
94.54536;1.2121199999999988;86;0.734375;violin
95.75748;0.5303025000000048;84;0.734375;violin
