start;duration;pitch;velocity;instrument
0.0;0.23648625;62;0.7890625;violin
0.27027;0.118243125;66;0.7890625;violin
0.405405;0.135135;69;0.7890625;violin
0.54054;0.118243125;74;0.7890625;violin
0.675675;0.118243125;66;0.7890625;violin
0.81081;0.135135;69;0.7890625;violin
0.945945;0.118243125;74;0.7890625;violin
1.08108;0.945945;78;0.7890625;violin
2.16216;0.23648625;62;0.7890625;violin
2.43243;0.11824312500000023;66;0.7890625;violin
2.567565;0.135135;69;0.7890625;violin
2.7027;0.11824312500000023;74;0.7890625;violin
2.837835;0.11824312500000023;66;0.7890625;violin
2.97297;0.135135;69;0.7890625;violin
3.108105;0.11824312500000023;74;0.7890625;violin
3.24324;0.945945;78;0.7890625;violin
4.32432;0.23648625000000045;62;0.7890625;violin
4.59459;0.11824312500000023;67;0.7890625;violin
4.729725;0.11824312500000023;71;0.7890625;violin
4.86486;0.11824312500000023;74;0.7890625;violin
4.999995;0.11824312500000023;71;0.7890625;violin
5.13513;0.11824312500000023;74;0.7890625;violin
5.270265;0.11824312500000023;79;0.7890625;violin
5.4054;0.945945;83;0.7890625;violin
6.48648;0.23648625000000045;62;0.7890625;violin
6.75675;0.11824312500000023;66;0.7890625;violin
6.891885;0.135135;69;0.7890625;violin
7.02702;0.11824312500000023;74;0.7890625;violin
7.162155;0.11824312500000023;66;0.7890625;violin
7.29729;0.135135;69;0.7890625;violin
7.432425;0.11824312500000023;74;0.7890625;violin
7.56756;0.945945;78;0.7890625;violin
8.64864;0.23648625000000045;57;0.7890625;violin
8.91891;0.11824312499999934;61;0.7890625;violin
9.054045;0.11824312499999934;64;0.7890625;violin
9.18918;0.11824312499999934;67;0.7890625;violin
9.324315;0.11824312499999934;64;0.7890625;violin
9.45945;0.11824312499999934;67;0.7890625;violin
9.594585;0.11824312499999934;73;0.7890625;violin
9.72972;1.08108;76;0.7890625;violin
10.8108;0.23648625000000045;59;0.7890625;violin
11.08107;0.135135;62;0.7890625;violin
11.216205;0.11824312499999934;66;0.7890625;violin
11.35134;0.11824312499999934;71;0.7890625;violin
11.486475;0.11824312499999934;66;0.7890625;violin
11.62161;0.11824312499999934;71;0.7890625;violin
11.756745;0.11824312499999934;74;0.7890625;violin
11.89188;0.945945;78;0.7890625;violin
12.97296;0.23648625000000045;64;0.7890625;violin
13.24323;0.135135;69;0.7890625;violin
13.378365;0.11824312499999934;73;0.7890625;violin
13.5135;0.135135;76;0.7890625;violin
13.648635;0.11824312499999934;73;0.7890625;violin
13.78377;0.135135;76;0.7890625;violin
13.918905;0.11824312499999934;81;0.7890625;violin
14.05404;0.23648625000000045;80;0.7890625;violin
14.32431;0.11824312499999934;74;0.7890625;violin
14.459445;0.11824312499999934;71;0.7890625;violin
14.59458;0.11824312499999934;68;0.7890625;violin
14.729715;0.11824312499999934;64;0.7890625;violin
14.86485;0.135135;62;0.7890625;violin
14.999985;0.11824312499999934;59;0.7890625;violin
15.13512;0.23648625000000045;57;0.7890625;violin
15.40539;0.11824312499999934;61;0.7890625;violin
15.540525;0.11824312499999934;64;0.7890625;violin
15.67566;0.135135;69;0.7890625;violin
15.810795;0.135135;69;0.7890625;violin
15.94593;0.11824312499999934;73;0.7890625;violin
16.081065000000002;0.13513499999999823;76;0.7890625;violin
16.2162;0.23648624999999868;81;0.7890625;violin
16.48647;0.13513500000000178;76;0.7890625;violin
16.621605000000002;0.11824312499999934;73;0.7890625;violin
16.75674;0.13513499999999823;69;0.7890625;violin
16.891875;0.11824312500000289;67;0.7890625;violin
17.02701;0.11824312499999934;66;0.7890625;violin
17.162145000000002;0.11824312499999934;64;0.7890625;violin
17.29728;0.23648624999999868;62;0.7890625;violin
17.56755;0.11824312499999934;66;0.7890625;violin
17.702685000000002;0.11824312499999934;69;0.7890625;violin
17.83782;0.11824312499999934;74;0.7890625;violin
17.972955;0.11824312500000289;66;0.7890625;violin
18.10809;0.11824312499999934;69;0.7890625;violin
18.243225000000002;0.11824312499999934;74;0.7890625;violin
18.37836;0.9459450000000018;78;0.7890625;violin
19.45944;0.23648624999999868;62;0.7890625;violin
19.72971;0.11824312499999934;66;0.7890625;violin
19.864845000000003;0.11824312499999934;69;0.7890625;violin
19.99998;0.11824312499999934;74;0.7890625;violin
20.135115;0.11824312500000289;66;0.7890625;violin
20.27025;0.11824312499999934;69;0.7890625;violin
20.405385000000003;0.11824312499999934;74;0.7890625;violin
20.54052;0.9459450000000018;78;0.7890625;violin
21.6216;0.23648624999999868;62;0.7890625;violin
21.89187;0.11824312499999934;67;0.7890625;violin
22.027005000000003;0.11824312499999934;71;0.7890625;violin
22.16214;0.11824312499999934;74;0.7890625;violin
22.297275;0.11824312500000289;71;0.7890625;violin
22.43241;0.11824312499999934;74;0.7890625;violin
22.567545000000003;0.11824312499999934;79;0.7890625;violin
22.70268;0.9459450000000018;83;0.7890625;violin
23.78376;0.23648624999999868;62;0.7890625;violin
24.05403;0.11824312499999934;66;0.7890625;violin
24.189165000000003;0.11824312499999934;69;0.7890625;violin
24.3243;0.11824312499999934;74;0.7890625;violin
24.459435;0.11824312500000289;66;0.7890625;violin
24.59457;0.11824312499999934;69;0.7890625;violin
24.729705000000003;0.11824312499999934;74;0.7890625;violin
24.86484;0.9459450000000018;78;0.7890625;violin
25.94592;0.23648624999999868;60;0.7890625;violin
26.21619;0.11824312499999934;66;0.7890625;violin
26.351325000000003;0.11824312499999934;69;0.7890625;violin
26.48646;0.11824312499999934;72;0.7890625;violin
26.621595;0.11824312500000289;69;0.7890625;violin
26.75673;0.11824312499999934;72;0.7890625;violin
26.891865000000003;0.11824312499999934;78;0.7890625;violin
27.027;0.9459450000000018;81;0.7890625;violin
28.10808;0.23648624999999868;59;0.7890625;violin
28.37835;0.11824312499999934;62;0.7890625;violin
28.513485000000003;0.11824312499999934;67;0.7890625;violin
28.64862;0.11824312499999934;71;0.7890625;violin
28.783755;0.11824312500000289;67;0.7890625;violin
28.91889;0.11824312499999934;71;0.7890625;violin
29.054025000000003;0.11824312499999934;74;0.7890625;violin
29.18916;0.9459450000000018;83;0.7890625;violin
30.27024;0.23648624999999868;57;0.7890625;violin
30.54051;0.13513500000000178;62;0.7890625;violin
30.675645000000003;0.11824312499999934;66;0.7890625;violin
30.81078;0.13513499999999823;69;0.7890625;violin
30.945915;0.11824312500000289;74;0.7890625;violin
31.08105;0.11824312499999934;78;0.7890625;violin
31.216185000000003;0.11824312499999934;83;0.7890625;violin
31.35132;0.23648624999999868;81;0.7890625;violin
31.62159;0.11824312499999934;79;0.7890625;violin
31.756725000000003;0.13513499999999823;76;0.7890625;violin
31.89186;0.11824312499999934;73;0.7890625;violin
32.026995;0.13513500000000533;69;0.7890625;violin
32.162130000000005;0.11824312499999934;67;0.7890625;violin
32.297265;0.11824312499999934;64;0.7890625;violin
32.4324;0.23648624999999868;62;0.7890625;violin
32.70267;0.11824312500000644;66;0.7890625;violin
32.837805;0.13513499999999823;69;0.7890625;violin
32.97294;0.11824312499999934;74;0.7890625;violin
33.108075;0.11824312499999934;78;0.7890625;violin
33.243210000000005;0.11824312499999934;81;0.7890625;violin
33.378345;0.11824312499999934;78;0.7890625;violin
33.51348;0.9459450000000018;74;0.7890625;violin
34.59456;0.23648624999999868;79;0.7890625;violin
34.86483;0.13513500000000533;76;0.7890625;violin
34.999965;0.11824312499999934;73;0.7890625;violin
35.1351;0.13513499999999823;69;0.7890625;violin
35.270235;0.11824312499999934;67;0.7890625;violin
35.405370000000005;0.11824312499999934;64;0.7890625;violin
35.540505;0.11824312499999934;61;0.7890625;violin
35.67564;0.54054;57;0.7890625;violin
36.21618;0.47297249999999735;67;0.7890625;violin
36.75672;0.23648624999999868;66;0.7890625;violin
37.02699;0.11824312500000644;57;0.7890625;violin
37.162125;0.13513499999999823;62;0.7890625;violin
37.29726;0.11824312499999934;66;0.7890625;violin
37.432395;0.13513500000000533;69;0.7890625;violin
37.567530000000005;0.11824312499999934;74;0.7890625;violin
37.702665;0.11824312499999934;78;0.7890625;violin
37.8378;0.54054;83;0.7890625;violin
38.37834;0.47297249999999735;81;0.7890625;violin
38.91888;0.23648624999999868;79;0.7890625;violin
39.18915;0.13513500000000533;76;0.7890625;violin
39.324285;0.11824312499999934;73;0.7890625;violin
39.45942;0.13513499999999823;69;0.7890625;violin
39.594555;0.11824312499999934;67;0.7890625;violin
39.729690000000005;0.11824312499999934;64;0.7890625;violin
39.864825;0.11824312499999934;61;0.7890625;violin
39.99996;0.54054;57;0.7890625;violin
40.5405;0.47297249999999735;67;0.7890625;violin
41.08104;0.23648624999999868;66;0.7890625;violin
41.35131;0.11824312500000644;57;0.7890625;violin
41.486445;0.11824312499999934;62;0.7890625;violin
41.62158;0.11824312499999934;66;0.7890625;violin
41.756715;0.11824312499999934;69;0.7890625;violin
41.891850000000005;0.11824312499999934;74;0.7890625;violin
42.026985;0.11824312499999934;78;0.7890625;violin
42.16212;0.54054;81;0.7890625;violin
42.70266;0.47297249999999735;78;0.7890625;violin
43.2432;0.23648624999999868;83;0.7890625;violin
43.51347;0.11824312500000644;78;0.7890625;violin
43.648605;0.11824312499999934;75;0.7890625;violin
43.78374;0.11824312499999934;71;0.7890625;violin
43.918875;0.13513500000000533;69;0.7890625;violin
44.054010000000005;0.11824312499999934;66;0.7890625;violin
44.189145;0.13513499999999823;63;0.7890625;violin
44.32428;0.47297249999999735;59;0.7890625;violin
44.86482;0.11824312499999934;57;0.7890625;violin
44.999955;0.11824312499999934;59;0.7890625;violin
45.135090000000005;0.13513499999999823;63;0.7890625;violin
45.270225;0.11824312499999934;66;0.7890625;violin
45.40536;0.27026999999999646;69;0.7890625;violin
45.67563;0.11824312500000644;67;0.7890625;violin
45.810765;0.11824312499999934;66;0.7890625;violin
45.9459;0.11824312499999934;67;0.7890625;violin
46.081035;0.11824312499999934;71;0.7890625;violin
46.216170000000005;0.11824312499999934;75;0.7890625;violin
46.351305;0.13513499999999823;76;0.7890625;violin
46.48644;0.54054;79;0.7890625;violin
47.02698;0.47297249999999735;83;0.7890625;violin
47.56752;0.23648624999999868;81;0.7890625;violin
47.83779;0.11824312500000644;78;0.7890625;violin
47.972925000000004;0.11824312499999934;74;0.7890625;violin
48.10806;0.13513499999999823;69;0.7890625;violin
48.243195;0.11824312499999934;74;0.7890625;violin
48.378330000000005;0.11824312499999934;78;0.7890625;violin
48.513465000000004;0.11824312499999934;83;0.7890625;violin
48.6486;0.23648624999999868;81;0.7890625;violin
48.91887;0.11824312500000644;79;0.7890625;violin
49.054005000000004;0.13513499999999823;76;0.7890625;violin
49.18914;0.11824312499999934;73;0.7890625;violin
49.324275;0.13513500000000533;69;0.7890625;violin
49.459410000000005;0.11824312499999934;71;0.7890625;violin
49.594545000000004;0.11824312499999934;73;0.7890625;violin
49.72968;0.23648624999999868;74;0.7890625;violin
49.99995;0.13513500000000533;69;0.7890625;violin
50.135085000000004;0.11824312499999934;66;0.7890625;violin
50.27022;0.11824312499999934;62;0.7890625;violin
50.405355;0.11824312499999934;57;0.7890625;violin
50.540490000000005;0.11824312499999934;62;0.7890625;violin
50.675625000000004;0.11824312499999934;66;0.7890625;violin
50.81076;0.13513499999999823;69;0.7890625;violin
50.945895;0.11824312499999934;62;0.7890625;violin
51.08103;0.11824312500000644;66;0.7890625;violin
51.216165000000004;0.13513499999999823;69;0.7890625;violin
51.3513;0.47297249999999735;74;0.7890625;violin
51.89184;0.23648624999999868;79;0.7890625;violin
52.16211;0.13513500000000533;76;0.7890625;violin
52.297245000000004;0.11824312499999934;73;0.7890625;violin
52.43238;0.11824312499999934;69;0.7890625;violin
52.567515;0.11824312499999934;67;0.7890625;violin
52.702650000000006;0.11824312499999934;64;0.7890625;violin
52.837785000000004;0.11824312499999934;61;0.7890625;violin
52.97292;0.54054;57;0.7890625;violin
53.51346;0.47297249999999735;67;0.7890625;violin
54.054;0.23648624999999868;66;0.7890625;violin
54.32427;0.11824312500000644;57;0.7890625;violin
54.459405000000004;0.11824312499999934;62;0.7890625;violin
54.59454;0.11824312499999934;66;0.7890625;violin
54.729675;0.11824312499999934;69;0.7890625;violin
54.864810000000006;0.11824312499999934;74;0.7890625;violin
54.999945000000004;0.11824312499999934;78;0.7890625;violin
55.13508;0.54054;83;0.7890625;violin
55.67562;0.47297249999999735;81;0.7890625;violin
56.21616;0.27026999999999646;79;0.7890625;violin
56.48643;0.11824312500000644;76;0.7890625;violin
56.621565000000004;0.11824312499999934;73;0.7890625;violin
56.7567;0.13513499999999823;69;0.7890625;violin
56.891835;0.11824312499999934;67;0.7890625;violin
57.026970000000006;0.11824312499999934;64;0.7890625;violin
57.162105000000004;0.11824312499999934;61;0.7890625;violin
57.29724;0.54054;57;0.7890625;violin
57.83778;0.47297249999999735;67;0.7890625;violin
58.37832;0.23648624999999868;66;0.7890625;violin
58.64859;0.11824312500000644;57;0.7890625;violin
58.783725000000004;0.13513499999999823;62;0.7890625;violin
58.91886;0.11824312499999934;66;0.7890625;violin
59.053995;0.11824312499999934;69;0.7890625;violin
59.189130000000006;0.11824312499999934;74;0.7890625;violin
59.324265000000004;0.11824312499999934;78;0.7890625;violin
59.4594;0.54054;81;0.7890625;violin
59.99994;0.47297249999999735;78;0.7890625;violin
60.54048;0.23648624999999868;83;0.7890625;violin
60.81075;0.11824312500000644;78;0.7890625;violin
60.945885000000004;0.11824312499999934;75;0.7890625;violin
61.08102;0.11824312499999934;71;0.7890625;violin
61.216155;0.13513500000000533;69;0.7890625;violin
61.351290000000006;0.11824312499999934;66;0.7890625;violin
61.486425000000004;0.13513499999999823;63;0.7890625;violin
61.62156;0.47297249999999735;59;0.7890625;violin
62.1621;0.11824312499999934;57;0.7890625;violin
62.297235;0.11824312499999934;59;0.7890625;violin
62.432370000000006;0.13513499999999823;63;0.7890625;violin
62.567505000000004;0.11824312499999934;66;0.7890625;violin
62.70264;0.27026999999999646;69;0.7890625;violin
62.97291;0.11824312500000644;67;0.7890625;violin
63.108045000000004;0.11824312499999934;66;0.7890625;violin
63.24318;0.11824312499999934;67;0.7890625;violin
63.378315;0.11824312499999934;71;0.7890625;violin
63.513450000000006;0.11824312499999934;75;0.7890625;violin
63.648585000000004;0.13513499999999823;76;0.7890625;violin
63.78372;0.5405400000000071;79;0.7890625;violin
64.32426000000001;0.47297249999999735;83;0.7890625;violin
64.8648;0.23648624999999868;81;0.7890625;violin
65.13507;0.11824312500000644;78;0.7890625;violin
65.270205;0.11824312499999223;74;0.7890625;violin
65.40534;0.13513500000000533;69;0.7890625;violin
65.540475;0.11824312500000644;69;0.7890625;violin
65.67561;0.11824312499999223;74;0.7890625;violin
65.810745;0.11824312500000644;78;0.7890625;violin
65.94588;0.23648624999999868;81;0.7890625;violin
66.21615;0.11824312500000644;77;0.7890625;violin
66.351285;0.11824312499999223;74;0.7890625;violin
66.48642000000001;0.11824312499999223;69;0.7890625;violin
66.621555;0.11824312500000644;69;0.7890625;violin
66.75669;0.11824312499999223;74;0.7890625;violin
66.891825;0.11824312500000644;77;0.7890625;violin
67.02696;0.23648624999999868;81;0.7890625;violin
67.29723;0.13513500000000533;76;0.7890625;violin
67.432365;0.11824312499999223;73;0.7890625;violin
67.5675;0.13513500000000533;69;0.7890625;violin
67.702635;0.11824312500000644;69;0.7890625;violin
67.83777;0.11824312499999223;64;0.7890625;violin
67.972905;0.11824312500000644;61;0.7890625;violin
68.10804;0.23648624999999868;57;0.7890625;violin
68.37831;0.11824312500000644;61;0.7890625;violin
68.513445;0.11824312499999223;64;0.7890625;violin
68.64858000000001;0.13513499999999112;69;0.7890625;violin
68.783715;0.11824312500000644;67;0.7890625;violin
68.91885;0.11824312499999223;66;0.7890625;violin
69.053985;0.11824312500000644;64;0.7890625;violin
69.18912;0.23648624999999868;62;0.7890625;violin
69.45939;0.11824312500000644;66;0.7890625;violin
69.594525;0.13513499999999112;69;0.7890625;violin
69.72966;0.11824312500000644;74;0.7890625;violin
69.864795;0.11824312500000644;66;0.7890625;violin
69.99993;0.13513499999999112;69;0.7890625;violin
70.135065;0.11824312500000644;74;0.7890625;violin
70.2702;0.9459449999999947;78;0.7890625;violin
71.35128;0.23648624999999868;62;0.7890625;violin
71.62155;0.11824312500000644;66;0.7890625;violin
71.756685;0.13513499999999112;69;0.7890625;violin
71.89182;0.11824312500000644;74;0.7890625;violin
72.026955;0.11824312500000644;66;0.7890625;violin
72.16209;0.13513499999999112;69;0.7890625;violin
72.297225;0.11824312500000644;74;0.7890625;violin
72.43236;0.9459449999999947;78;0.7890625;violin
73.51344;0.23648624999999868;62;0.7890625;violin
73.78371;0.11824312500000644;67;0.7890625;violin
73.918845;0.11824312499999223;71;0.7890625;violin
74.05398;0.11824312500000644;74;0.7890625;violin
74.189115;0.11824312500000644;71;0.7890625;violin
74.32425;0.11824312499999223;74;0.7890625;violin
74.459385;0.11824312500000644;79;0.7890625;violin
74.59452;0.9459449999999947;83;0.7890625;violin
75.6756;0.23648624999999868;62;0.7890625;violin
75.94587;0.11824312500000644;66;0.7890625;violin
76.081005;0.13513499999999112;69;0.7890625;violin
76.21614;0.11824312500000644;74;0.7890625;violin
76.351275;0.11824312500000644;66;0.7890625;violin
76.48641;0.13513499999999112;69;0.7890625;violin
76.621545;0.11824312500000644;74;0.7890625;violin
76.75668;0.9459449999999947;78;0.7890625;violin
77.83776;0.23648624999999868;57;0.7890625;violin
78.10803;0.11824312500000644;61;0.7890625;violin
78.243165;0.11824312499999223;64;0.7890625;violin
78.3783;0.11824312500000644;67;0.7890625;violin
78.513435;0.11824312500000644;64;0.7890625;violin
78.64857;0.11824312499999223;67;0.7890625;violin
78.783705;0.11824312500000644;73;0.7890625;violin
78.91884;1.08108;76;0.7890625;violin
79.99992;0.23648624999999868;59;0.7890625;violin
80.27019;0.13513500000000533;62;0.7890625;violin
80.405325;0.11824312499999223;66;0.7890625;violin
80.54046;0.11824312500000644;71;0.7890625;violin
80.675595;0.11824312500000644;66;0.7890625;violin
80.81073;0.11824312499999223;71;0.7890625;violin
80.945865;0.11824312500000644;74;0.7890625;violin
81.081;0.9459449999999947;78;0.7890625;violin
82.16208;0.23648624999999868;64;0.7890625;violin
82.43235;0.13513500000000533;69;0.7890625;violin
82.567485;0.11824312499999223;73;0.7890625;violin
82.70262;0.13513500000000533;76;0.7890625;violin
82.837755;0.11824312500000644;73;0.7890625;violin
82.97289;0.13513499999999112;76;0.7890625;violin
83.108025;0.11824312500000644;81;0.7890625;violin
83.24316;0.23648624999999868;80;0.7890625;violin
83.51343;0.11824312500000644;74;0.7890625;violin
83.648565;0.11824312499999223;71;0.7890625;violin
83.78370000000001;0.11824312499999223;68;0.7890625;violin
83.918835;0.11824312500000644;64;0.7890625;violin
84.05397;0.13513499999999112;62;0.7890625;violin
84.189105;0.11824312500000644;59;0.7890625;violin
84.32424;0.23648624999999868;57;0.7890625;violin
84.59451;0.11824312500000644;61;0.7890625;violin
84.729645;0.11824312499999223;64;0.7890625;violin
84.86478;0.13513500000000533;69;0.7890625;violin
84.999915;0.13513500000000533;69;0.7890625;violin
85.13505;0.11824312499999223;73;0.7890625;violin
85.270185;0.11824312500000644;76;0.7890625;violin
85.40532;0.23648624999999868;81;0.7890625;violin
85.67559;0.13513500000000533;76;0.7890625;violin
85.810725;0.11824312499999223;73;0.7890625;violin
85.94586000000001;0.11824312499999223;69;0.7890625;violin
86.080995;0.11824312500000644;67;0.7890625;violin
86.21613;0.11824312499999223;66;0.7890625;violin
86.351265;0.11824312500000644;64;0.7890625;violin
86.4864;0.23648624999999868;62;0.7890625;violin
86.75667;0.11824312500000644;66;0.7890625;violin
86.891805;0.13513499999999112;69;0.7890625;violin
87.02694;0.11824312500000644;74;0.7890625;violin
87.162075;0.11824312500000644;66;0.7890625;violin
87.29721;0.13513499999999112;69;0.7890625;violin
87.432345;0.11824312500000644;74;0.7890625;violin
87.56748;0.9459449999999947;78;0.7890625;violin
88.64856;0.23648624999999868;62;0.7890625;violin
88.91883;0.11824312500000644;66;0.7890625;violin
89.053965;0.13513499999999112;69;0.7890625;violin
89.1891;0.11824312500000644;74;0.7890625;violin
89.324235;0.11824312500000644;66;0.7890625;violin
89.45937;0.13513499999999112;69;0.7890625;violin
89.594505;0.11824312500000644;74;0.7890625;violin
89.72964;0.9459449999999947;78;0.7890625;violin
90.81072;0.23648624999999868;62;0.7890625;violin
91.08099;0.11824312500000644;67;0.7890625;violin
91.216125;0.11824312499999223;71;0.7890625;violin
91.35126;0.11824312500000644;74;0.7890625;violin
91.486395;0.11824312500000644;71;0.7890625;violin
91.62153;0.11824312499999223;74;0.7890625;violin
91.756665;0.11824312500000644;79;0.7890625;violin
91.8918;0.9459449999999947;83;0.7890625;violin
92.97288;0.23648624999999868;62;0.7890625;violin
93.24315;0.11824312500000644;66;0.7890625;violin
93.378285;0.13513499999999112;69;0.7890625;violin
93.51342;0.11824312500000644;74;0.7890625;violin
93.648555;0.11824312500000644;66;0.7890625;violin
93.78369;0.13513499999999112;69;0.7890625;violin
93.918825;0.11824312500000644;74;0.7890625;violin
94.05396;0.9459449999999947;78;0.7890625;violin
95.13504;0.23648624999999868;60;0.7890625;violin
95.40531;0.11824312500000644;66;0.7890625;violin
95.540445;0.11824312499999223;69;0.7890625;violin
95.67558;0.11824312500000644;72;0.7890625;violin
95.810715;0.13513500000000533;69;0.7890625;violin
95.94585000000001;0.11824312499999223;72;0.7890625;violin
96.080985;0.11824312500000644;78;0.7890625;violin
96.21612;0.9459449999999947;81;0.7890625;violin
97.2972;0.23648624999999868;59;0.7890625;violin
97.56747;0.13513500000000533;62;0.7890625;violin
97.702605;0.11824312499999223;67;0.7890625;violin
97.83774;0.13513500000000533;71;0.7890625;violin
97.972875;0.11824312500000644;67;0.7890625;violin
98.10801000000001;0.11824312499999223;71;0.7890625;violin
98.243145;0.13513500000000533;74;0.7890625;violin
98.37828;0.9459449999999947;83;0.7890625;violin
99.45936;0.23648624999999868;57;0.7890625;violin
99.72963;0.13513500000000533;62;0.7890625;violin
99.864765;0.11824312499999223;66;0.7890625;violin
99.9999;0.11824312500000644;69;0.7890625;violin
100.135035;0.11824312500000644;74;0.7890625;violin
100.27017000000001;0.11824312499999223;78;0.7890625;violin
100.405305;0.11824312500000644;83;0.7890625;violin
100.54044;0.23648624999999868;81;0.7890625;violin
100.81071;0.11824312500000644;79;0.7890625;violin
100.945845;0.13513500000000533;76;0.7890625;violin
101.08098000000001;0.11824312499999223;73;0.7890625;violin
101.216115;0.13513500000000533;69;0.7890625;violin
101.35125000000001;0.11824312499999223;67;0.7890625;violin
101.486385;0.11824312500000644;64;0.7890625;violin
101.62152;0.27026999999999646;62;0.7890625;violin
101.89179;0.11824312500000644;66;0.7890625;violin
102.026925;0.11824312499999223;69;0.7890625;violin
102.16206;0.11824312500000644;74;0.7890625;violin
102.297195;0.11824312500000644;78;0.7890625;violin
102.43233000000001;0.11824312499999223;81;0.7890625;violin
102.567465;0.11824312500000644;78;0.7890625;violin
102.7026;0.23648624999999868;74;0.7890625;violin
