start;duration;pitch;velocity;instrument
0.0;0.22727250000000002;57;0.7890625;violin
0.45454500000000003;0.11363624999999994;57;0.7890625;violin
0.60606;0.2272725;57;0.7890625;violin
1.060605;0.1136362500000001;57;0.7890625;violin
1.21212;0.2272725;57;0.7890625;violin
1.666665;0.11363624999999988;57;0.7890625;violin
1.8181800000000001;0.15151499999999984;57;0.7890625;violin
1.969695;0.15151500000000007;59;0.7890625;violin
2.12121;0.15151499999999984;60;0.7890625;violin
2.272725;0.1325756250000003;59;0.7890625;violin
2.42424;0.22727249999999977;57;0.7890625;violin
2.878785;0.11363624999999988;57;0.7890625;violin
3.0303;0.2272725000000002;57;0.7890625;violin
3.484845;0.11363625000000033;57;0.7890625;violin
3.6363600000000003;0.22727249999999977;57;0.7890625;violin
4.090905;0.11363624999999988;57;0.7890625;violin
4.24242;0.15151499999999984;57;0.7890625;violin
4.393935;0.15151499999999984;59;0.7890625;violin
4.54545;0.15151500000000073;60;0.7890625;violin
4.6969650000000005;0.13257562499999942;59;0.7890625;violin
4.84848;0.22727249999999977;57;0.7890625;violin
5.303025;0.11363624999999988;57;0.7890625;violin
5.45454;0.15151500000000073;57;0.7890625;violin
5.6060550000000005;0.15151499999999984;59;0.7890625;violin
5.75757;0.15151499999999984;60;0.7890625;violin
5.909085;0.1325756250000003;59;0.7890625;violin
6.0606;0.22727249999999977;57;0.7890625;violin
6.515145;0.11363624999999988;59;0.7890625;violin
6.66666;0.22727249999999977;60;0.7890625;violin
7.121205;0.11363625000000077;62;0.7890625;violin
7.2727200000000005;0.22727249999999977;64;0.7890625;violin
7.727265;0.11363624999999988;64;0.7890625;violin
7.87878;0.15151500000000073;64;0.7890625;violin
8.030295;0.15151499999999984;66;0.7890625;violin
8.18181;0.15151499999999984;68;0.7890625;violin
8.333325;0.13257562499999942;66;0.7890625;violin
8.48484;0.22727249999999977;64;0.7890625;violin
8.939385;0.11363625000000077;62;0.7890625;violin
9.0909;0.22727250000000154;60;0.7890625;violin
9.545445;0.113636249999999;59;0.7890625;violin
9.69696;0.22727249999999977;57;0.7890625;violin
10.151505;0.11363625000000077;57;0.7890625;violin
10.30302;0.22727249999999977;57;0.7890625;violin
10.757565;0.11363625000000077;57;0.7890625;violin
10.90908;0.22727250000000154;57;0.7890625;violin
11.363625;0.113636249999999;57;0.7890625;violin
11.51514;0.15151499999999984;57;0.7890625;violin
11.666655;0.15151499999999984;59;0.7890625;violin
11.81817;0.15151499999999984;60;0.7890625;violin
11.969685;0.13257562499999942;59;0.7890625;violin
12.1212;0.3030299999999997;62;0.7890625;violin
12.575745;0.15151500000000162;62;0.7890625;violin
12.727260000000001;0.22727249999999977;62;0.7890625;violin
13.181805;0.113636249999999;62;0.7890625;violin
13.33332;0.22727249999999977;62;0.7890625;violin
13.787865;0.11363625000000077;62;0.7890625;violin
13.93938;0.15151499999999984;62;0.7890625;violin
14.090895;0.15151499999999984;64;0.7890625;violin
14.24241;0.15151500000000162;65;0.7890625;violin
14.393925000000001;0.13257562499999942;62;0.7890625;violin
14.545440000000001;0.5303024999999995;64;0.7890625;violin
15.1515;0.15151499999999984;69;0.7890625;violin
15.303015;0.15151499999999984;71;0.7890625;violin
15.45453;0.15151499999999984;72;0.7890625;violin
15.606045;0.1325756250000012;69;0.7890625;violin
15.75756;0.6060600000000012;64;0.7890625;violin
16.36362;0.15151499999999984;68;0.7890625;violin
16.515135;0.15151499999999984;69;0.7890625;violin
16.66665;0.15151499999999984;71;0.7890625;violin
16.818165;0.1325756250000012;68;0.7890625;violin
16.96968;0.22727250000000154;69;0.7890625;violin
17.424225;0.113636249999999;69;0.7890625;violin
17.57574;0.3030299999999997;65;0.7890625;violin
18.030285;0.11363625000000255;62;0.7890625;violin
18.1818;0.22727250000000154;64;0.7890625;violin
18.636345000000002;0.113636249999999;62;0.7890625;violin
18.787860000000002;0.227272499999998;60;0.7890625;violin
19.242405;0.113636249999999;59;0.7890625;violin
19.39392;0.227272499999998;57;0.7890625;violin
19.848465;0.113636249999999;57;0.7890625;violin
19.99998;0.227272499999998;57;0.7890625;violin
20.454525;0.113636249999999;57;0.7890625;violin
20.60604;0.22727250000000154;57;0.7890625;violin
21.060585;0.11363625000000255;57;0.7890625;violin
21.2121;0.15151499999999984;57;0.7890625;violin
21.363615;0.15151499999999984;59;0.7890625;violin
21.51513;0.15151499999999984;60;0.7890625;violin
21.666645;0.1325756250000012;59;0.7890625;violin
21.81816;0.22727250000000154;57;0.7890625;violin
22.272705000000002;0.113636249999999;57;0.7890625;violin
22.424220000000002;0.227272499999998;57;0.7890625;violin
22.878765;0.113636249999999;57;0.7890625;violin
23.03028;0.227272499999998;57;0.7890625;violin
23.484825;0.113636249999999;57;0.7890625;violin
23.63634;0.15151499999999984;57;0.7890625;violin
23.787855;0.15151499999999984;59;0.7890625;violin
23.93937;0.15151499999999984;60;0.7890625;violin
24.090885;0.1325756250000012;59;0.7890625;violin
24.2424;0.22727250000000154;57;0.7890625;violin
24.696945;0.11363625000000255;57;0.7890625;violin
24.84846;0.15151499999999984;57;0.7890625;violin
24.999975;0.15151499999999984;59;0.7890625;violin
25.15149;0.1515150000000034;60;0.7890625;violin
25.303005000000002;0.13257562499999764;59;0.7890625;violin
25.454520000000002;0.227272499999998;57;0.7890625;violin
25.909065000000002;0.113636249999999;59;0.7890625;violin
26.06058;0.227272499999998;60;0.7890625;violin
26.515125;0.113636249999999;62;0.7890625;violin
26.66664;0.227272499999998;64;0.7890625;violin
27.121185;0.113636249999999;64;0.7890625;violin
27.2727;0.22727250000000154;64;0.7890625;violin
27.727245;0.11363625000000255;64;0.7890625;violin
27.87876;0.22727250000000154;64;0.7890625;violin
28.333305;0.11363625000000255;64;0.7890625;violin
28.48482;0.15151499999999984;64;0.7890625;violin
28.636335;0.1515150000000034;66;0.7890625;violin
28.787850000000002;0.15151499999999984;68;0.7890625;violin
28.939365000000002;0.13257562499999764;64;0.7890625;violin
29.090880000000002;0.3030299999999997;69;0.7890625;violin
29.545425;0.15151499999999984;69;0.7890625;violin
29.69694;0.227272499999998;69;0.7890625;violin
30.151485;0.113636249999999;69;0.7890625;violin
30.303;0.22727250000000154;69;0.7890625;violin
30.757545;0.113636249999999;69;0.7890625;violin
30.90906;0.15151499999999984;69;0.7890625;violin
31.060575;0.15151499999999984;71;0.7890625;violin
31.21209;0.15151499999999984;73;0.7890625;violin
31.363605;0.1325756250000012;69;0.7890625;violin
31.51512;0.22727250000000154;74;0.7890625;violin
31.969665;0.113636249999999;74;0.7890625;violin
32.12118;0.227272499999998;77;0.7890625;violin
32.575725;0.113636249999999;77;0.7890625;violin
32.72724;0.227272499999998;81;0.7890625;violin
33.181785;0.1136362500000061;81;0.7890625;violin
33.3333;0.5303024999999977;86;0.7890625;violin
33.93936;0.6060599999999994;76;0.7890625;violin
34.54542;0.1515150000000034;81;0.7890625;violin
34.696935;0.1515149999999963;83;0.7890625;violin
34.84845;0.1515150000000034;84;0.7890625;violin
34.999965;0.1325756250000012;81;0.7890625;violin
35.15148;0.6060599999999994;76;0.7890625;violin
35.75754;0.1515150000000034;68;0.7890625;violin
35.909055;0.1515149999999963;69;0.7890625;violin
36.06057;0.1515150000000034;71;0.7890625;violin
36.212085;0.1325756250000012;68;0.7890625;violin
36.3636;0.5303025000000048;69;0.7890625;violin
36.96966;0.2272725000000051;69;0.7890625;violin
36.96966;0.2272725000000051;81;0.7890625;violin
37.424205;0.113636249999999;69;0.7890625;violin
37.424205;0.113636249999999;81;0.7890625;violin
37.575720000000004;0.2651512499999953;69;0.7890625;violin
37.575720000000004;0.2651512499999953;81;0.7890625;violin
38.18178;0.1515149999999963;81;0.7890625;violin
38.333295;0.1515150000000034;79;0.7890625;violin
38.48481;0.1515149999999963;77;0.7890625;violin
38.636325;0.1325756250000012;76;0.7890625;violin
38.78784;0.5303024999999977;77;0.7890625;violin
39.3939;0.227272499999998;62;0.7890625;violin
39.3939;0.227272499999998;74;0.7890625;violin
39.848445;0.1136362500000061;62;0.7890625;violin
39.848445;0.1136362500000061;74;0.7890625;violin
39.99996;0.2651512500000024;62;0.7890625;violin
39.99996;0.2651512500000024;74;0.7890625;violin
40.60602;0.1515150000000034;79;0.7890625;violin
40.757535000000004;0.1515149999999963;77;0.7890625;violin
40.90905;0.1515150000000034;76;0.7890625;violin
41.060565000000004;0.1325756249999941;74;0.7890625;violin
41.21208;0.5303024999999977;73;0.7890625;violin
41.81814;0.227272499999998;69;0.7890625;violin
41.81814;0.227272499999998;81;0.7890625;violin
42.272685;0.113636249999999;69;0.7890625;violin
42.272685;0.113636249999999;81;0.7890625;violin
42.4242;0.2651512500000024;69;0.7890625;violin
42.4242;0.2651512500000024;81;0.7890625;violin
43.03026;0.1515150000000034;69;0.7890625;violin
43.181775;0.1515149999999963;71;0.7890625;violin
43.33329;0.1515150000000034;73;0.7890625;violin
43.484805;0.1325756250000012;69;0.7890625;violin
43.63632;0.2272725000000051;74;0.7890625;violin
44.090865;0.113636249999999;74;0.7890625;violin
44.242380000000004;0.227272499999998;69;0.7890625;violin
44.696925;0.113636249999999;69;0.7890625;violin
44.848440000000004;0.227272499999998;65;0.7890625;violin
45.302985;0.113636249999999;65;0.7890625;violin
45.4545;0.227272499999998;62;0.7890625;violin
45.909045;0.113636249999999;62;0.7890625;violin
46.06056;0.6060599999999994;69;0.7890625;violin
46.66662;0.227272499999998;57;0.7890625;violin
46.66662;0.227272499999998;69;0.7890625;violin
47.121165;0.1325756250000012;57;0.7890625;violin
47.121165;0.1325756250000012;69;0.7890625;violin
47.27268;0.2651512500000024;57;0.7890625;violin
47.27268;0.2651512500000024;69;0.7890625;violin
47.87874;0.1515150000000034;81;0.7890625;violin
48.030255000000004;0.1515149999999963;79;0.7890625;violin
48.18177;0.1515150000000034;77;0.7890625;violin
48.333285000000004;0.1325756249999941;76;0.7890625;violin
48.4848;0.5303025000000048;77;0.7890625;violin
49.09086;0.2272725000000051;62;0.7890625;violin
49.09086;0.2272725000000051;74;0.7890625;violin
49.545405;0.1325756250000012;62;0.7890625;violin
49.545405;0.1325756250000012;74;0.7890625;violin
49.69692;0.2651512500000024;62;0.7890625;violin
49.69692;0.2651512500000024;74;0.7890625;violin
50.30298;0.1515150000000034;79;0.7890625;violin
50.454495;0.1515150000000034;77;0.7890625;violin
50.606010000000005;0.1515149999999963;76;0.7890625;violin
50.757525;0.1325756250000012;74;0.7890625;violin
50.909040000000005;0.5303024999999977;73;0.7890625;violin
51.515100000000004;0.227272499999998;69;0.7890625;violin
51.515100000000004;0.227272499999998;81;0.7890625;violin
51.969645;0.113636249999999;69;0.7890625;violin
51.969645;0.113636249999999;81;0.7890625;violin
52.12116;0.2651512499999953;69;0.7890625;violin
52.12116;0.2651512499999953;81;0.7890625;violin
52.72722;0.1515149999999963;69;0.7890625;violin
52.878735;0.1515150000000034;71;0.7890625;violin
53.03025;0.1515149999999963;73;0.7890625;violin
53.181765;0.1325756250000012;69;0.7890625;violin
53.33328;0.227272499999998;74;0.7890625;violin
53.787825;0.1136362500000061;74;0.7890625;violin
53.93934;0.227272499999998;69;0.7890625;violin
54.393885000000004;0.113636249999999;69;0.7890625;violin
54.5454;0.227272499999998;65;0.7890625;violin
54.999945000000004;0.113636249999999;65;0.7890625;violin
55.15146;0.227272499999998;62;0.7890625;violin
55.606005;0.113636249999999;62;0.7890625;violin
55.75752;0.5303025000000048;57;0.7890625;violin
56.36358;0.2272725000000051;69;0.7890625;violin
56.36358;0.2272725000000051;81;0.7890625;violin
56.818125;0.113636249999999;69;0.7890625;violin
56.818125;0.113636249999999;81;0.7890625;violin
56.96964;0.2272725000000051;69;0.7890625;violin
56.96964;0.2272725000000051;81;0.7890625;violin
57.424185;0.113636249999999;81;0.7890625;violin
57.575700000000005;0.227272499999998;81;0.7890625;violin
58.030245;0.113636249999999;81;0.7890625;violin
58.181760000000004;0.3030299999999997;81;0.7890625;violin
58.636305;0.113636249999999;81;0.7890625;violin
58.78782;0.227272499999998;81;0.7890625;violin
59.242365;0.113636249999999;81;0.7890625;violin
59.39388;0.227272499999998;81;0.7890625;violin
59.848425;0.1136362500000061;82;0.7890625;violin
59.99994;0.227272499999998;84;0.7890625;violin
60.454485;0.1136362500000061;86;0.7890625;violin
60.606;0.227272499999998;84;0.7890625;violin
61.060545000000005;0.113636249999999;84;0.7890625;violin
61.21206;0.3030299999999997;79;0.7890625;violin
61.666605000000004;0.113636249999999;79;0.7890625;violin
61.81812;0.227272499999998;76;0.7890625;violin
62.272665;0.113636249999999;76;0.7890625;violin
62.42418;0.3030299999999997;72;0.7890625;violin
62.878725;0.113636249999999;70;0.7890625;violin
63.03024;0.2272725000000051;69;0.7890625;violin
63.484785;0.113636249999999;69;0.7890625;violin
63.6363;0.2272725000000051;72;0.7890625;violin
64.090845;0.113636249999999;72;0.7890625;violin
64.24236;0.227272499999998;77;0.7890625;violin
64.696905;0.113636249999999;77;0.7890625;violin
64.84842;0.227272499999998;81;0.7890625;violin
65.302965;0.113636249999999;81;0.7890625;violin
65.45448;0.227272499999998;79;0.7890625;violin
65.909025;0.113636249999999;79;0.7890625;violin
66.06054;0.227272499999998;76;0.7890625;violin
66.515085;0.113636249999999;76;0.7890625;violin
66.6666;0.227272499999998;72;0.7890625;violin
67.121145;0.113636249999999;67;0.7890625;violin
67.27266;0.227272499999998;65;0.7890625;violin
67.727205;0.113636249999999;64;0.7890625;violin
67.87872;0.227272499999998;62;0.7890625;violin
68.333265;0.113636249999999;67;0.7890625;violin
68.48478;0.227272499999998;71;0.7890625;violin
68.939325;0.1515150000000034;74;0.7890625;violin
69.09084;0.227272499999998;77;0.7890625;violin
69.545385;0.113636249999999;83;0.7890625;violin
69.6969;0.227272499999998;86;0.7890625;violin
70.151445;0.1515150000000034;77;0.7890625;violin
70.30296;0.227272499999998;76;0.7890625;violin
70.757505;0.1136362500000132;79;0.7890625;violin
70.90902;0.227272499999998;84;0.7890625;violin
71.36356500000001;0.113636249999999;76;0.7890625;violin
71.51508;0.227272499999998;74;0.7890625;violin
71.96962500000001;0.113636249999999;77;0.7890625;violin
72.12114;0.227272499999998;83;0.7890625;violin
72.57568500000001;0.113636249999999;81;0.7890625;violin
72.7272;0.6060599999999994;79;0.7890625;violin
73.33326;0.1515150000000034;71;0.7890625;violin
73.484775;0.1515150000000034;72;0.7890625;violin
73.63629;0.1515150000000034;74;0.7890625;violin
73.787805;0.1325756250000012;76;0.7890625;violin
73.93932;0.5303025000000048;77;0.7890625;violin
74.54538000000001;0.15151499999998919;66;0.7890625;violin
74.696895;0.1515150000000034;67;0.7890625;violin
74.84841;0.1515150000000034;69;0.7890625;violin
74.999925;0.1325756250000012;71;0.7890625;violin
75.15144000000001;0.5303024999999906;72;0.7890625;violin
75.75750000000001;0.15151499999998919;60;0.7890625;violin
75.909015;0.1515150000000034;59;0.7890625;violin
76.06053;0.1515150000000034;60;0.7890625;violin
76.212045;0.1325756250000012;59;0.7890625;violin
76.36356;0.227272499999998;60;0.7890625;violin
76.818105;0.113636249999999;64;0.7890625;violin
76.96962;0.227272499999998;65;0.7890625;violin
77.424165;0.113636249999999;67;0.7890625;violin
77.57568;0.227272499999998;69;0.7890625;violin
78.030225;0.113636249999999;69;0.7890625;violin
78.18174;0.227272499999998;69;0.7890625;violin
78.636285;0.113636249999999;69;0.7890625;violin
78.7878;0.227272499999998;69;0.7890625;violin
79.242345;0.113636249999999;71;0.7890625;violin
79.39386;0.227272499999998;72;0.7890625;violin
79.848405;0.1515150000000034;74;0.7890625;violin
79.99992;0.227272499999998;76;0.7890625;violin
80.454465;0.113636249999999;84;0.7890625;violin
80.60598;0.3030299999999926;79;0.7890625;violin
81.060525;0.113636249999999;76;0.7890625;violin
81.21204;0.6060599999999994;72;0.7890625;violin
81.8181;0.1515150000000034;71;0.7890625;violin
81.969615;0.1515150000000034;72;0.7890625;violin
82.12113000000001;0.15151499999998919;74;0.7890625;violin
82.272645;0.1325756250000012;76;0.7890625;violin
82.42416;0.227272499999998;77;0.7890625;violin
82.878705;0.113636249999999;79;0.7890625;violin
83.03022;0.3030300000000068;81;0.7890625;violin
83.484765;0.1136362500000132;83;0.7890625;violin
83.63628;0.227272499999998;86;0.7890625;violin
84.090825;0.1136362500000132;84;0.7890625;violin
84.24234;0.227272499999998;83;0.7890625;violin
84.69688500000001;0.113636249999999;81;0.7890625;violin
84.8484;0.3030300000000068;79;0.7890625;violin
85.30294500000001;0.113636249999999;76;0.7890625;violin
85.45446;0.227272499999998;72;0.7890625;violin
85.90900500000001;0.15151499999998919;76;0.7890625;violin
86.06052;0.5303025000000048;67;0.7890625;violin
86.66658;0.1515150000000034;59;0.7890625;violin
86.818095;0.1515150000000034;60;0.7890625;violin
86.96961;0.1515150000000034;62;0.7890625;violin
87.121125;0.1325756250000012;64;0.7890625;violin
87.27264;0.2272725000000122;65;0.7890625;violin
87.727185;0.113636249999999;71;0.7890625;violin
87.87870000000001;0.227272499999998;74;0.7890625;violin
88.333245;0.113636249999999;77;0.7890625;violin
88.48476000000001;0.5303024999999906;83;0.7890625;violin
89.09082000000001;0.15151499999998919;77;0.7890625;violin
89.242335;0.1515150000000034;74;0.7890625;violin
89.39385;0.1515150000000034;71;0.7890625;violin
89.545365;0.1325756250000012;65;0.7890625;violin
89.69688000000001;0.227272499999998;64;0.7890625;violin
90.151425;0.113636249999999;72;0.7890625;violin
90.30294;0.227272499999998;76;0.7890625;violin
90.757485;0.113636249999999;79;0.7890625;violin
90.909;0.6060599999999994;84;0.7890625;violin
91.51506;0.1515150000000034;84;0.7890625;violin
91.66657500000001;0.15151499999998919;83;0.7890625;violin
91.81809;0.1515150000000034;86;0.7890625;violin
91.969605;0.1325756250000012;84;0.7890625;violin
92.12112;0.227272499999998;81;0.7890625;violin
92.575665;0.113636249999999;81;0.7890625;violin
92.72718;0.3030299999999926;77;0.7890625;violin
93.181725;0.113636249999999;74;0.7890625;violin
93.33324;0.3030299999999926;71;0.7890625;violin
93.787785;0.113636249999999;67;0.7890625;violin
93.9393;0.227272499999998;69;0.7890625;violin
94.393845;0.113636249999999;71;0.7890625;violin
94.54536;0.227272499999998;72;0.7890625;violin
94.999905;0.1515150000000034;60;0.7890625;violin
95.15142;0.227272499999998;60;0.7890625;violin
95.605965;0.113636249999999;60;0.7890625;violin
95.75748;0.3030300000000068;60;0.7890625;violin
96.212025;0.113636249999999;60;0.7890625;violin
96.36354;0.227272499999998;60;0.7890625;violin
96.818085;0.113636249999999;59;0.7890625;violin
96.9696;0.227272499999998;57;0.7890625;violin
97.424145;0.1136362500000132;57;0.7890625;violin
97.57566;0.227272499999998;57;0.7890625;violin
98.03020500000001;0.113636249999999;57;0.7890625;violin
98.18172;0.227272499999998;57;0.7890625;violin
98.63626500000001;0.113636249999999;57;0.7890625;violin
98.78778;0.1515150000000034;57;0.7890625;violin
98.939295;0.1515150000000034;59;0.7890625;violin
99.09081;0.1515150000000034;60;0.7890625;violin
99.24232500000001;0.1325756250000012;59;0.7890625;violin
99.39384;0.2272725000000122;57;0.7890625;violin
99.84838500000001;0.113636249999999;57;0.7890625;violin
99.9999;0.2272725000000122;57;0.7890625;violin
100.454445;0.113636249999999;57;0.7890625;violin
100.60596;0.2272725000000122;57;0.7890625;violin
101.060505;0.113636249999999;57;0.7890625;violin
101.21202000000001;0.15151499999998919;57;0.7890625;violin
101.363535;0.1515150000000034;59;0.7890625;violin
101.51505;0.1515150000000034;60;0.7890625;violin
101.666565;0.1325756250000012;59;0.7890625;violin
101.81808000000001;0.227272499999998;57;0.7890625;violin
102.272625;0.113636249999999;57;0.7890625;violin
102.42414000000001;0.15151499999998919;57;0.7890625;violin
102.575655;0.1515150000000034;59;0.7890625;violin
102.72717;0.1515150000000034;60;0.7890625;violin
102.878685;0.1325756250000012;59;0.7890625;violin
103.03020000000001;0.227272499999998;57;0.7890625;violin
103.484745;0.113636249999999;59;0.7890625;violin
103.63626000000001;0.227272499999998;60;0.7890625;violin
104.090805;0.113636249999999;62;0.7890625;violin
104.24232;0.227272499999998;64;0.7890625;violin
104.696865;0.113636249999999;64;0.7890625;violin
104.84838;0.1515150000000034;64;0.7890625;violin
104.99989500000001;0.15151499999998919;66;0.7890625;violin
105.15141;0.1515150000000034;68;0.7890625;violin
105.302925;0.1325756250000012;66;0.7890625;violin
105.45444;0.227272499999998;64;0.7890625;violin
105.908985;0.113636249999999;62;0.7890625;violin
106.0605;0.227272499999998;60;0.7890625;violin
106.515045;0.113636249999999;59;0.7890625;violin
106.66656;0.227272499999998;57;0.7890625;violin
107.121105;0.113636249999999;57;0.7890625;violin
107.27262;0.227272499999998;57;0.7890625;violin
107.727165;0.113636249999999;57;0.7890625;violin
107.87868;0.227272499999998;57;0.7890625;violin
108.333225;0.113636249999999;57;0.7890625;violin
108.48474;0.1515150000000034;57;0.7890625;violin
108.636255;0.1515150000000034;59;0.7890625;violin
108.78777000000001;0.15151499999998919;60;0.7890625;violin
108.939285;0.1325756250000012;59;0.7890625;violin
109.0908;0.3030300000000068;62;0.7890625;violin
109.545345;0.1515150000000034;62;0.7890625;violin
109.69686;0.227272499999998;62;0.7890625;violin
110.151405;0.113636249999999;62;0.7890625;violin
110.30292;0.227272499999998;62;0.7890625;violin
110.757465;0.1136362500000132;62;0.7890625;violin
110.90898;0.1515150000000034;62;0.7890625;violin
111.060495;0.1515150000000034;64;0.7890625;violin
111.21201;0.1515150000000034;65;0.7890625;violin
111.36352500000001;0.13257562499998699;62;0.7890625;violin
111.51504;0.5303025000000048;64;0.7890625;violin
112.1211;0.1515150000000034;69;0.7890625;violin
112.272615;0.1515150000000034;71;0.7890625;violin
112.42413;0.1515150000000034;72;0.7890625;violin
112.57564500000001;0.1325756250000012;69;0.7890625;violin
112.72716;0.5303025000000048;64;0.7890625;violin
113.33322;0.1515150000000034;68;0.7890625;violin
113.484735;0.1515150000000034;69;0.7890625;violin
113.63625;0.1515150000000034;71;0.7890625;violin
113.78776500000001;0.1325756250000012;68;0.7890625;violin
113.93928;0.5303025000000048;69;0.7890625;violin
114.54534;0.2272725000000122;69;0.7890625;violin
114.54534;0.2272725000000122;81;0.7890625;violin
114.999885;0.1325756250000012;69;0.7890625;violin
114.999885;0.1325756250000012;81;0.7890625;violin
115.15140000000001;0.2651512499999882;69;0.7890625;violin
115.15140000000001;0.2651512499999882;81;0.7890625;violin
