start;duration;pitch;velocity;instrument
0.0;1.060605;55;0.734375;violin
0.0;1.060605;67;0.734375;violin
1.060605;0.08207062500000006;62;0.734375;violin
1.142675625;0.06786609374999997;65;0.734375;violin
1.21212;0.454545;63;0.734375;violin
1.666665;0.11363624999999988;62;0.734375;violin
1.8181800000000001;1.060605;55;0.734375;violin
1.8181800000000001;1.060605;67;0.734375;violin
2.878785;0.08207062500000006;62;0.734375;violin
2.960855625;0.06786609374999975;65;0.734375;violin
3.0303;0.454545;63;0.734375;violin
3.484845;0.11363625000000033;62;0.734375;violin
3.6363600000000003;0.8712112499999995;55;0.734375;violin
3.6363600000000003;0.8712112499999995;67;0.734375;violin
4.54545;0.15151500000000073;57;0.734375;violin
4.6969650000000005;0.13257562499999942;69;0.7578125;violin
4.84848;0.15151499999999984;58;0.7734375;violin
4.999995;0.1325756250000003;70;0.796875;violin
5.15151;0.15151499999999984;60;0.8125;violin
5.303025;0.1325756250000003;72;0.8359375;violin
5.45454;0.15151500000000073;62;0.8515625;violin
5.6060550000000005;0.13257562499999942;74;0.875;violin
5.75757;0.15151499999999984;63;0.890625;violin
5.909085;0.1325756250000003;75;0.9140625;violin
6.0606;0.15151499999999984;62;0.9140625;violin
6.212115;0.1325756250000003;74;0.890625;violin
6.363630000000001;0.15151499999999984;60;0.859375;violin
6.515145;0.13257562499999942;72;0.8359375;violin
6.66666;0.15151499999999984;58;0.8125;violin
6.818175;0.1325756250000003;70;0.7890625;violin
6.96969;0.15151499999999984;57;0.7578125;violin
7.121205;0.1325756250000003;69;0.734375;violin
7.2727200000000005;1.0606049999999998;55;0.734375;violin
7.2727200000000005;1.0606049999999998;67;0.734375;violin
8.333325;0.08207062500000006;62;0.734375;violin
8.415395625;0.06786609375000019;65;0.734375;violin
8.48484;0.45454499999999953;63;0.734375;violin
8.939385;0.11363625000000077;62;0.734375;violin
9.0909;0.87121125;55;0.734375;violin
9.0909;0.87121125;67;0.734375;violin
9.99999;0.15151499999999984;57;0.734375;violin
10.151505;0.13257562499999942;69;0.7578125;violin
10.30302;0.15151499999999984;58;0.7734375;violin
10.454535;0.1325756250000012;70;0.796875;violin
10.60605;0.15151499999999984;60;0.8125;violin
10.757565;0.1325756250000012;72;0.8359375;violin
10.90908;0.15151500000000162;62;0.8515625;violin
11.060595000000001;0.13257562499999942;74;0.875;violin
11.212110000000001;0.15151499999999984;63;0.890625;violin
11.363625;0.13257562499999942;75;0.9140625;violin
11.51514;0.15151499999999984;62;0.9140625;violin
11.666655;0.13257562499999942;74;0.890625;violin
11.81817;0.15151499999999984;60;0.859375;violin
11.969685;0.13257562499999942;72;0.8359375;violin
12.1212;0.15151499999999984;58;0.8125;violin
12.272715;0.1325756250000012;70;0.7890625;violin
12.42423;0.15151499999999984;57;0.7578125;violin
12.575745;0.1325756250000012;69;0.734375;violin
12.727260000000001;0.5303024999999995;55;0.734375;violin
12.727260000000001;0.5303024999999995;67;0.734375;violin
13.63635;0.2651512500000006;62;0.734375;violin
13.63635;0.2651512500000006;74;0.734375;violin
13.93938;0.4545450000000013;63;0.734375;violin
13.93938;0.4545450000000013;75;0.734375;violin
14.393925000000001;0.113636249999999;62;0.734375;violin
14.393925000000001;0.113636249999999;74;0.734375;violin
14.545440000000001;0.3030299999999997;62;0.734375;violin
14.545440000000001;0.3030299999999997;74;0.734375;violin
14.84847;0.26515124999999884;72;0.734375;violin
14.84847;0.26515124999999884;78;0.734375;violin
15.1515;0.2651512500000006;72;0.734375;violin
15.1515;0.2651512500000006;78;0.734375;violin
15.45453;0.2651512500000006;62;0.734375;violin
15.45453;0.2651512500000006;74;0.734375;violin
15.75756;0.4545450000000013;63;0.734375;violin
15.75756;0.4545450000000013;75;0.734375;violin
16.212105;0.13257562499999764;62;0.734375;violin
16.212105;0.13257562499999764;74;0.734375;violin
16.36362;0.3030299999999997;62;0.734375;violin
16.36362;0.3030299999999997;74;0.734375;violin
16.66665;0.26515124999999884;70;0.734375;violin
16.66665;0.26515124999999884;79;0.734375;violin
16.96968;0.26515124999999884;70;0.734375;violin
16.96968;0.26515124999999884;79;0.734375;violin
17.27271;0.26515124999999884;62;0.734375;violin
17.27271;0.26515124999999884;74;0.734375;violin
17.57574;0.45454499999999953;63;0.734375;violin
17.57574;0.45454499999999953;75;0.734375;violin
18.030285;0.1325756250000012;62;0.734375;violin
18.030285;0.1325756250000012;74;0.734375;violin
18.1818;0.3030299999999997;62;0.734375;violin
18.1818;0.3030299999999997;74;0.734375;violin
18.48483;0.2651512500000024;72;0.734375;violin
18.48483;0.2651512500000024;78;0.734375;violin
18.787860000000002;0.26515124999999884;72;0.734375;violin
18.787860000000002;0.26515124999999884;78;0.734375;violin
19.09089;0.26515124999999884;62;0.734375;violin
19.09089;0.26515124999999884;74;0.734375;violin
19.39392;0.45454499999999953;63;0.734375;violin
19.39392;0.45454499999999953;75;0.734375;violin
19.848465;0.1325756250000012;62;0.734375;violin
19.848465;0.1325756250000012;74;0.734375;violin
19.99998;0.3030299999999997;62;0.734375;violin
19.99998;0.3030299999999997;74;0.734375;violin
20.30301;0.26515124999999884;70;0.734375;violin
20.30301;0.26515124999999884;79;0.734375;violin
20.60604;0.26515124999999884;70;0.734375;violin
20.60604;0.26515124999999884;79;0.734375;violin
21.060585;0.1325756250000012;72;0.734375;violin
21.060585;0.1325756250000012;75;0.734375;violin
21.2121;0.45454499999999953;72;0.734375;violin
21.2121;0.45454499999999953;75;0.734375;violin
21.666645;0.1325756250000012;70;0.734375;violin
21.666645;0.1325756250000012;74;0.734375;violin
21.81816;0.7954537500000001;70;0.734375;violin
21.81816;0.7954537500000001;74;0.734375;violin
22.72725;0.3030299999999997;69;0.734375;violin
22.72725;0.3030299999999997;72;0.734375;violin
23.03028;0.3030299999999997;67;0.734375;violin
23.03028;0.3030299999999997;70;0.734375;violin
23.33331;0.26515124999999884;66;0.734375;violin
23.33331;0.26515124999999884;69;0.734375;violin
23.63634;0.9090899999999991;67;0.734375;violin
23.63634;0.9090899999999991;70;0.734375;violin
24.696945;0.11363625000000255;72;0.734375;violin
24.696945;0.11363625000000255;75;0.734375;violin
24.84846;0.4545450000000031;72;0.734375;violin
24.84846;0.4545450000000031;75;0.734375;violin
25.303005000000002;0.113636249999999;70;0.734375;violin
25.303005000000002;0.113636249999999;74;0.734375;violin
25.454520000000002;0.7954537500000001;70;0.734375;violin
25.454520000000002;0.7954537500000001;74;0.734375;violin
26.36361;0.3030299999999997;69;0.734375;violin
26.36361;0.3030299999999997;72;0.734375;violin
26.66664;0.3030299999999997;67;0.734375;violin
26.66664;0.3030299999999997;70;0.734375;violin
26.96967;0.26515124999999884;66;0.734375;violin
26.96967;0.26515124999999884;69;0.734375;violin
27.2727;0.9090899999999991;67;0.734375;violin
27.2727;0.9090899999999991;70;0.734375;violin
28.333305;0.11363625000000255;72;0.734375;violin
28.333305;0.11363625000000255;75;0.734375;violin
28.48482;0.4545450000000031;72;0.734375;violin
28.48482;0.4545450000000031;75;0.734375;violin
28.939365000000002;0.113636249999999;70;0.734375;violin
28.939365000000002;0.113636249999999;74;0.734375;violin
29.090880000000002;1.060604999999999;70;0.734375;violin
29.090880000000002;1.060604999999999;74;0.734375;violin
30.151485;0.113636249999999;72;0.734375;violin
30.151485;0.113636249999999;75;0.734375;violin
30.303;0.45454499999999953;72;0.734375;violin
30.303;0.45454499999999953;75;0.734375;violin
30.757545;0.113636249999999;70;0.734375;violin
30.757545;0.113636249999999;74;0.734375;violin
30.90906;1.060604999999999;70;0.734375;violin
30.90906;1.060604999999999;74;0.734375;violin
31.969665;0.113636249999999;69;0.734375;violin
31.969665;0.113636249999999;72;0.734375;violin
32.12118;0.454544999999996;69;0.734375;violin
32.12118;0.454544999999996;72;0.734375;violin
32.575725;0.113636249999999;67;0.734375;violin
32.575725;0.113636249999999;70;0.734375;violin
32.72724;0.3030299999999997;66;0.734375;violin
32.72724;0.3030299999999997;69;0.734375;violin
33.03027;0.2651512500000024;62;0.734375;violin
33.03027;0.2651512500000024;74;0.734375;violin
33.3333;0.2651512500000024;62;0.734375;violin
33.3333;0.2651512500000024;74;0.734375;violin
33.63633;0.23358562500000346;62;0.734375;violin
33.869915625000004;0.06786609374999841;65;0.734375;violin
33.93936;0.4545450000000031;63;0.734375;violin
34.393905000000004;0.1325756249999941;62;0.734375;violin
34.54542;1.0606050000000025;55;0.734375;violin
34.54542;1.0606050000000025;67;0.734375;violin
35.606025;0.08207062500000006;62;0.734375;violin
35.688095625;0.06786609374999841;65;0.734375;violin
35.75754;0.4545450000000031;63;0.734375;violin
36.212085;0.113636249999999;62;0.734375;violin
36.3636;1.0606050000000025;55;0.734375;violin
36.3636;1.0606050000000025;67;0.734375;violin
37.424205;0.08207062500000006;62;0.734375;violin
37.506275625;0.06786609374999841;65;0.734375;violin
37.575720000000004;0.454544999999996;63;0.734375;violin
38.030265;0.113636249999999;62;0.734375;violin
38.18178;0.8712112499999947;55;0.734375;violin
38.18178;0.8712112499999947;67;0.734375;violin
39.09087;0.1515149999999963;57;0.734375;violin
39.242385;0.1325756250000012;69;0.7578125;violin
39.3939;0.1515149999999963;58;0.7734375;violin
39.545415;0.1325756250000012;70;0.796875;violin
39.69693;0.1515149999999963;60;0.8125;violin
39.848445;0.1325756250000012;72;0.8359375;violin
39.99996;0.1515149999999963;62;0.8515625;violin
40.151475;0.1325756250000012;74;0.875;violin
40.30299;0.1515149999999963;63;0.890625;violin
40.454505;0.1325756250000012;75;0.9140625;violin
40.60602;0.1515150000000034;62;0.9140625;violin
40.757535000000004;0.1325756249999941;74;0.890625;violin
40.90905;0.1515150000000034;60;0.859375;violin
41.060565000000004;0.1325756249999941;72;0.8359375;violin
41.21208;0.1515150000000034;58;0.8125;violin
41.363595000000004;0.1325756249999941;70;0.7890625;violin
41.51511;0.1515150000000034;57;0.7578125;violin
41.666625;0.1325756250000012;69;0.734375;violin
41.81814;1.0606050000000025;55;0.734375;violin
41.81814;1.0606050000000025;67;0.734375;violin
42.878745;0.08207062500000006;62;0.734375;violin
42.960815625;0.06786609374999841;65;0.734375;violin
43.03026;0.4545450000000031;63;0.734375;violin
43.484805;0.113636249999999;62;0.734375;violin
43.63632;0.8712112500000018;55;0.734375;violin
43.63632;0.8712112500000018;67;0.734375;violin
44.545410000000004;0.1515149999999963;57;0.734375;violin
44.696925;0.1325756250000012;69;0.7578125;violin
44.848440000000004;0.1515149999999963;58;0.7734375;violin
44.999955;0.1325756250000012;70;0.796875;violin
45.15147;0.1515149999999963;60;0.8125;violin
45.302985;0.1325756250000012;72;0.8359375;violin
45.4545;0.1515149999999963;62;0.8515625;violin
45.606015;0.1325756250000012;74;0.875;violin
45.75753;0.1515149999999963;63;0.890625;violin
45.909045;0.1325756250000012;75;0.9140625;violin
46.06056;0.1515149999999963;62;0.9140625;violin
46.212075;0.1325756250000012;74;0.890625;violin
46.36359;0.1515149999999963;60;0.859375;violin
46.515105;0.1325756250000012;72;0.8359375;violin
46.66662;0.1515149999999963;58;0.8125;violin
46.818135;0.1325756250000012;70;0.7890625;violin
46.96965;0.1515149999999963;57;0.7578125;violin
47.121165;0.1325756250000012;69;0.734375;violin
47.27268;0.5303024999999977;55;0.734375;violin
47.27268;0.5303024999999977;67;0.734375;violin
48.18177;0.2651512500000024;70;0.734375;violin
48.18177;0.2651512500000024;79;0.734375;violin
48.4848;0.2651512500000024;70;0.734375;violin
48.4848;0.2651512500000024;79;0.734375;violin
48.78783;0.2651512500000024;70;0.734375;violin
48.78783;0.2651512500000024;79;0.734375;violin
49.09086;0.4545450000000031;69;0.734375;violin
49.09086;0.4545450000000031;78;0.734375;violin
49.545405;0.1325756250000012;62;0.734375;violin
49.545405;0.1325756250000012;74;0.734375;violin
49.69692;0.2651512500000024;62;0.734375;violin
49.69692;0.2651512500000024;74;0.734375;violin
49.99995;0.3030299999999997;78;0.734375;violin
49.99995;0.3030299999999997;81;0.734375;violin
50.30298;0.3030300000000068;77;0.734375;violin
50.30298;0.3030300000000068;80;0.734375;violin
50.606010000000005;0.3030299999999997;78;0.734375;violin
50.606010000000005;0.3030299999999997;81;0.734375;violin
50.909040000000005;0.454544999999996;79;0.734375;violin
50.909040000000005;0.454544999999996;82;0.734375;violin
51.363585;0.113636249999999;55;0.734375;violin
51.363585;0.113636249999999;67;0.734375;violin
51.515100000000004;0.3030299999999997;55;0.734375;violin
51.515100000000004;0.3030299999999997;67;0.734375;violin
51.818130000000004;0.2651512499999953;70;0.734375;violin
51.818130000000004;0.2651512499999953;79;0.734375;violin
52.12116;0.2651512499999953;69;0.734375;violin
52.12116;0.2651512499999953;79;0.734375;violin
52.42419;0.2651512499999953;67;0.734375;violin
52.42419;0.2651512499999953;79;0.734375;violin
52.72722;0.454544999999996;69;0.734375;violin
52.72722;0.454544999999996;78;0.734375;violin
53.181765;0.1325756250000012;62;0.734375;violin
53.181765;0.1325756250000012;74;0.734375;violin
53.33328;0.2651512500000024;62;0.734375;violin
53.33328;0.2651512500000024;74;0.734375;violin
53.63631;0.3030299999999997;78;0.734375;violin
53.63631;0.3030299999999997;81;0.734375;violin
53.93934;0.3030299999999997;77;0.734375;violin
53.93934;0.3030299999999997;80;0.734375;violin
54.24237;0.3030299999999997;78;0.734375;violin
54.24237;0.3030299999999997;81;0.734375;violin
54.5454;0.4545450000000031;79;0.734375;violin
54.5454;0.4545450000000031;82;0.734375;violin
54.999945000000004;0.113636249999999;55;0.734375;violin
54.999945000000004;0.113636249999999;67;0.734375;violin
55.15146;0.2651512500000024;55;0.734375;violin
55.15146;0.2651512500000024;67;0.734375;violin
55.45449;0.3030299999999997;70;0.734375;violin
55.45449;0.3030299999999997;74;0.734375;violin
55.75752;0.3030299999999997;72;0.734375;violin
55.75752;0.3030299999999997;75;0.734375;violin
56.06055;0.3030299999999997;70;0.734375;violin
56.06055;0.3030299999999997;74;0.734375;violin
56.36358;0.4545450000000031;69;0.734375;violin
56.36358;0.4545450000000031;72;0.734375;violin
56.818125;0.113636249999999;65;0.734375;violin
56.818125;0.113636249999999;77;0.734375;violin
56.96964;0.1515150000000034;65;0.734375;violin
56.96964;0.1515150000000034;77;0.734375;violin
57.27267;0.3030300000000068;69;0.734375;violin
57.27267;0.3030300000000068;72;0.734375;violin
57.575700000000005;0.3030299999999997;68;0.734375;violin
57.575700000000005;0.3030299999999997;71;0.734375;violin
57.878730000000004;0.3030299999999997;69;0.734375;violin
57.878730000000004;0.3030299999999997;72;0.734375;violin
58.181760000000004;0.454544999999996;70;0.734375;violin
58.181760000000004;0.454544999999996;74;0.734375;violin
58.636305;0.113636249999999;58;0.734375;violin
58.636305;0.113636249999999;70;0.734375;violin
58.78782;0.1515149999999963;58;0.734375;violin
58.78782;0.1515149999999963;70;0.734375;violin
59.09085;0.3030299999999997;70;0.734375;violin
59.09085;0.3030299999999997;74;0.734375;violin
59.39388;0.3030299999999997;72;0.734375;violin
59.39388;0.3030299999999997;75;0.734375;violin
59.69691;0.3030299999999997;70;0.734375;violin
59.69691;0.3030299999999997;74;0.734375;violin
59.99994;0.454544999999996;69;0.734375;violin
59.99994;0.454544999999996;72;0.734375;violin
60.454485;0.1136362500000061;65;0.734375;violin
60.454485;0.1136362500000061;77;0.734375;violin
60.606;0.1515150000000034;65;0.734375;violin
60.606;0.1515150000000034;77;0.734375;violin
60.90903;0.3030299999999997;69;0.734375;violin
60.90903;0.3030299999999997;72;0.734375;violin
61.21206;0.3030299999999997;68;0.734375;violin
61.21206;0.3030299999999997;71;0.734375;violin
61.51509;0.3030299999999997;69;0.734375;violin
61.51509;0.3030299999999997;72;0.734375;violin
61.81812;0.4545450000000031;70;0.734375;violin
61.81812;0.4545450000000031;74;0.734375;violin
62.272665;0.1325756250000012;58;0.734375;violin
62.272665;0.1325756250000012;70;0.734375;violin
62.42418;0.2651512500000024;58;0.734375;violin
62.42418;0.2651512500000024;70;0.734375;violin
63.03024;0.1515150000000034;55;0.734375;violin
63.181755;0.1515149999999963;67;0.734375;violin
63.33327;0.1515150000000034;58;0.734375;violin
63.484785;0.1325756250000012;70;0.734375;violin
63.6363;0.1515150000000034;62;0.734375;violin
63.787815;0.1515149999999963;74;0.734375;violin
63.93933;0.1515150000000034;66;0.734375;violin
64.090845;0.1325756250000012;78;0.734375;violin
64.24236;0.1515150000000034;67;0.734375;violin
64.39387500000001;0.13257562499998699;79;0.734375;violin
64.54539;0.1515150000000034;69;0.734375;violin
64.696905;0.1515150000000034;81;0.734375;violin
64.84842;0.1515150000000034;70;0.734375;violin
64.99993500000001;0.13257562499998699;82;0.734375;violin
65.15145;0.1515150000000034;69;0.734375;violin
65.302965;0.1325756250000012;81;0.734375;violin
65.45448;0.1515150000000034;67;0.734375;violin
65.60599500000001;0.1325756250000012;79;0.734375;violin
65.75751;0.1515150000000034;62;0.734375;violin
65.909025;0.1515150000000034;74;0.734375;violin
66.06054;0.1515150000000034;63;0.734375;violin
66.212055;0.1325756250000012;75;0.734375;violin
66.36357;0.1515150000000034;62;0.734375;violin
66.515085;0.1325756250000012;74;0.734375;violin
66.6666;0.1515150000000034;60;0.734375;violin
66.818115;0.1325756250000012;72;0.734375;violin
66.96963;0.1515150000000034;58;0.734375;violin
67.121145;0.1325756250000012;70;0.734375;violin
67.27266;0.1515150000000034;57;0.734375;violin
67.424175;0.1325756250000012;69;0.734375;violin
67.57569000000001;0.15151499999998919;62;0.734375;violin
67.727205;0.1325756250000012;74;0.734375;violin
67.87872;0.1515150000000034;63;0.734375;violin
68.030235;0.1325756250000012;75;0.734375;violin
68.18175000000001;0.15151499999998919;62;0.734375;violin
68.333265;0.1325756250000012;74;0.734375;violin
68.48478;0.1515150000000034;63;0.734375;violin
68.636295;0.1325756250000012;75;0.734375;violin
68.78781000000001;0.15151499999998919;62;0.734375;violin
68.939325;0.1325756250000012;74;0.734375;violin
69.09084;0.1515150000000034;63;0.734375;violin
69.242355;0.1325756250000012;75;0.7421875;violin
69.39387;0.15151499999998919;62;0.75;violin
69.545385;0.1325756250000012;74;0.7578125;violin
69.6969;0.1515150000000034;63;0.765625;violin
69.848415;0.1325756250000012;75;0.7734375;violin
69.99993;0.15151499999998919;62;0.78125;violin
70.151445;0.1325756250000012;74;0.7890625;violin
70.30296;0.1515150000000034;63;0.796875;violin
70.454475;0.1325756250000012;75;0.8046875;violin
70.60599;0.15151499999998919;62;0.8125;violin
70.757505;0.1325756250000012;74;0.8203125;violin
70.90902;0.5303025000000048;55;0.7578125;violin
70.90902;0.5303025000000048;62;0.7578125;violin
70.90902;2.348482500000003;70;0.828125;violin
70.90902;2.348482500000003;82;0.828125;violin
74.54538000000001;0.15151499999998919;55;0.6328125;violin
74.54538000000001;0.15151499999998919;67;0.6328125;violin
74.7474;0.10101000000000226;57;0.6640625;violin
74.7474;0.20202000000000453;67;0.6328125;violin
74.94942;0.1515150000000034;58;0.6328125;violin
74.94942;0.1515150000000034;67;0.6328125;violin
75.15144000000001;0.5303024999999906;58;0.7578125;violin
75.15144000000001;1.13636249999999;67;0.6328125;violin
75.75750000000001;0.3977268749999894;57;0.7578125;violin
76.212045;0.1325756250000012;55;0.7578125;violin
76.36356;0.5303024999999906;55;0.6328125;violin
76.36356;0.5303024999999906;67;0.6328125;violin
77.57568;0.454544999999996;72;0.734375;violin
77.57568;0.454544999999996;75;0.734375;violin
78.030225;0.113636249999999;70;0.734375;violin
78.030225;0.113636249999999;74;0.734375;violin
78.18174;0.795453749999993;70;0.734375;violin
78.18174;0.795453749999993;74;0.734375;violin
79.09083;0.3030300000000068;69;0.734375;violin
79.09083;0.3030300000000068;72;0.734375;violin
79.39386;0.3030299999999926;67;0.734375;violin
79.39386;0.3030299999999926;70;0.734375;violin
79.69689;0.2651512500000024;66;0.734375;violin
79.69689;0.2651512500000024;69;0.734375;violin
79.99992;0.909089999999992;67;0.734375;violin
79.99992;0.909089999999992;70;0.734375;violin
81.060525;0.113636249999999;72;0.734375;violin
81.060525;0.113636249999999;75;0.734375;violin
81.21204;0.454544999999996;72;0.734375;violin
81.21204;0.454544999999996;75;0.734375;violin
81.666585;0.113636249999999;70;0.734375;violin
81.666585;0.113636249999999;74;0.734375;violin
81.8181;0.7954537500000072;70;0.734375;violin
81.8181;0.7954537500000072;74;0.734375;violin
82.72719000000001;0.3030299999999926;69;0.734375;violin
82.72719000000001;0.3030299999999926;72;0.734375;violin
83.03022;0.3030300000000068;67;0.734375;violin
83.03022;0.3030300000000068;70;0.734375;violin
83.33325;0.2651512500000024;62;0.734375;violin
83.33325;0.2651512500000024;69;0.734375;violin
83.63628;1.0606050000000096;58;0.734375;violin
83.63628;1.0606050000000096;67;0.734375;violin
84.69688500000001;0.08207062500000006;62;0.734375;violin
84.77895562500001;0.06786609374999841;65;0.734375;violin
84.8484;0.4545450000000102;63;0.734375;violin
85.30294500000001;0.113636249999999;62;0.734375;violin
85.45446;1.0606050000000096;55;0.734375;violin
85.45446;1.0606050000000096;67;0.734375;violin
86.515065;0.08207062500000006;62;0.734375;violin
86.597135625;0.06786609374999841;65;0.734375;violin
86.66658;0.4545450000000102;63;0.734375;violin
87.121125;0.113636249999999;62;0.734375;violin
87.27264;0.8712112500000018;55;0.734375;violin
87.27264;0.8712112500000018;67;0.734375;violin
88.18173;0.1515150000000034;57;0.734375;violin
88.333245;0.1325756250000012;69;0.7578125;violin
88.48476000000001;0.15151499999998919;58;0.7734375;violin
88.636275;0.1325756250000012;70;0.796875;violin
88.78779;0.1515150000000034;60;0.8125;violin
88.939305;0.1325756250000012;72;0.8359375;violin
89.09082000000001;0.15151499999998919;62;0.8515625;violin
89.242335;0.1325756250000012;74;0.875;violin
89.39385;0.1515150000000034;63;0.890625;violin
89.545365;0.1325756250000012;75;0.9140625;violin
89.69688000000001;0.15151499999998919;62;0.9140625;violin
89.848395;0.1325756250000012;74;0.90625;violin
89.99991;0.1515150000000034;60;0.8984375;violin
90.151425;0.1325756250000012;72;0.890625;violin
90.30294;0.15151499999998919;58;0.8828125;violin
90.454455;0.1325756250000012;70;0.875;violin
90.60597;0.1515150000000034;57;0.859375;violin
90.757485;0.1325756250000012;69;0.8515625;violin
90.909;0.5303024999999906;55;0.84375;violin
90.909;0.5303024999999906;67;0.84375;violin
92.72718;0.2651512500000024;55;0.828125;violin
92.72718;0.2651512500000024;62;0.828125;violin
92.72718;0.2651512500000024;70;0.828125;violin
92.72718;0.2651512500000024;82;0.828125;violin
93.33324;0.2651512500000024;62;0.828125;violin
93.33324;0.2651512500000024;72;0.828125;violin
93.33324;0.2651512500000024;81;0.828125;violin
93.9393;0.2651512500000024;62;0.828125;violin
93.9393;0.2651512500000024;72;0.828125;violin
93.9393;0.2651512500000024;78;0.828125;violin
94.54536;0.2651512500000024;55;0.828125;violin
94.54536;0.2651512500000024;62;0.828125;violin
94.54536;0.2651512500000024;70;0.828125;violin
94.54536;0.2651512500000024;79;0.828125;violin
94.999905;0.1325756250000012;55;0.828125;violin
94.999905;0.1325756250000012;67;0.828125;violin
95.15142;0.2651512500000024;55;0.828125;violin
95.15142;0.2651512500000024;67;0.828125;violin
