start;duration;pitch;velocity;instrument
0.0;0.16260133333333335;67;0.7890625;violin
0.16260133333333335;0.16260133333333335;66;0.7890625;violin
0.3252026666666667;0.16260133333333332;67;0.7890625;violin
0.487804;0.16260133333333338;68;0.7890625;violin
0.6504053333333334;0.16260133333333338;67;0.7890625;violin
0.8130066666666668;0.16260133333333326;66;0.7890625;violin
0.975608;0.14227616666666676;67;0.7890625;violin
1.1382093333333334;0.14227616666666676;63;0.7890625;violin
1.3008106666666668;0.14227616666666676;60;0.7890625;violin
1.4634120000000002;0.14227616666666676;55;0.7890625;violin
1.6260133333333335;0.14227616666666654;60;0.7890625;violin
1.788614666666667;0.14227616666666654;63;0.7890625;violin
1.951216;0.14227616666666698;67;0.7890625;violin
2.1138173333333334;0.14227616666666698;66;0.7890625;violin
2.276418666666667;0.14227616666666654;67;0.7890625;violin
2.43902;0.14227616666666654;68;0.7890625;violin
2.6016213333333336;0.14227616666666654;67;0.7890625;violin
2.764222666666667;0.14227616666666654;66;0.7890625;violin
2.9268240000000003;0.14227616666666654;67;0.7890625;violin
3.0894253333333337;0.14227616666666654;63;0.7890625;violin
3.252026666666667;0.14227616666666654;60;0.7890625;violin
3.4146280000000004;0.14227616666666654;55;0.7890625;violin
3.577229333333334;0.14227616666666654;60;0.7890625;violin
3.739830666666667;0.14227616666666654;63;0.7890625;violin
3.902432;0.14227616666666698;67;0.7890625;violin
4.065033333333334;0.1422761666666661;66;0.7890625;violin
4.227634666666667;0.14227616666666698;67;0.7890625;violin
4.390236000000001;0.1422761666666661;68;0.7890625;violin
4.552837333333334;0.14227616666666698;67;0.7890625;violin
4.7154386666666674;0.1422761666666661;66;0.7890625;violin
4.87804;0.14227616666666698;67;0.7890625;violin
5.040641333333334;0.16260133333333293;62;0.7890625;violin
5.203242666666667;0.14227616666666698;59;0.7890625;violin
5.365844;0.14227616666666698;55;0.7890625;violin
5.528445333333334;0.14227616666666698;59;0.7890625;violin
5.691046666666667;0.14227616666666698;62;0.7890625;violin
5.853648000000001;0.14227616666666698;67;0.7890625;violin
6.016249333333334;0.14227616666666698;66;0.7890625;violin
6.178850666666667;0.1422761666666661;67;0.7890625;violin
6.341452;0.14227616666666698;68;0.7890625;violin
6.504053333333334;0.1422761666666661;67;0.7890625;violin
6.666654666666667;0.14227616666666698;66;0.7890625;violin
6.829256000000001;0.1422761666666661;67;0.7890625;violin
6.991857333333334;0.14227616666666698;65;0.7890625;violin
7.154458666666668;0.1422761666666661;62;0.7890625;violin
7.317060000000001;0.14227616666666698;65;0.7890625;violin
7.479661333333334;0.1422761666666661;71;0.7890625;violin
7.642262666666667;0.14227616666666698;74;0.7890625;violin
7.804864;0.14227616666666698;72;0.7890625;violin
7.967465333333334;0.1422761666666661;71;0.7890625;violin
8.130066666666668;0.14227616666666698;72;0.7890625;violin
8.292668;0.14227616666666698;75;0.7890625;violin
8.455269333333334;0.14227616666666698;74;0.7890625;violin
8.617870666666667;0.14227616666666698;72;0.7890625;violin
8.780472000000001;0.1422761666666652;71;0.7890625;violin
8.943073333333334;0.14227616666666698;74;0.7890625;violin
9.105674666666667;0.14227616666666698;77;0.7890625;violin
9.268276;0.14227616666666698;80;0.7890625;violin
9.430877333333335;0.1422761666666652;79;0.7890625;violin
9.593478666666668;0.14227616666666698;77;0.7890625;violin
9.75608;0.14227616666666698;75;0.7890625;violin
9.918681333333334;0.14227616666666698;71;0.7890625;violin
10.081282666666668;0.1422761666666652;72;0.7890625;violin
10.243884000000001;0.14227616666666698;75;0.7890625;violin
10.406485333333334;0.14227616666666698;74;0.7890625;violin
10.569086666666667;0.14227616666666698;72;0.7890625;violin
10.731688;0.14227616666666698;71;0.7890625;violin
10.894289333333335;0.14227616666666698;74;0.7890625;violin
11.056890666666668;0.14227616666666698;77;0.7890625;violin
11.219492;0.14227616666666698;80;0.7890625;violin
11.382093333333334;0.14227616666666698;79;0.7890625;violin
11.544694666666668;0.1422761666666652;77;0.7890625;violin
11.707296000000001;0.14227616666666698;75;0.7890625;violin
11.869897333333334;0.14227616666666698;71;0.7890625;violin
12.032498666666667;0.14227616666666698;72;0.7890625;violin
12.195100000000002;0.1422761666666652;75;0.7890625;violin
12.357701333333335;0.14227616666666698;74;0.7890625;violin
12.520302666666668;0.14227616666666698;72;0.7890625;violin
12.682904;0.14227616666666698;71;0.7890625;violin
12.845505333333335;0.1422761666666652;72;0.7890625;violin
13.008106666666668;0.14227616666666698;74;0.7890625;violin
13.170708000000001;0.14227616666666698;75;0.7890625;violin
13.333309333333334;0.14227616666666698;74;0.7890625;violin
13.495910666666667;0.14227616666666698;72;0.7890625;violin
13.658512000000002;0.14227616666666698;71;0.7890625;violin
13.821113333333335;0.14227616666666698;67;0.7890625;violin
13.983714666666668;0.14227616666666698;71;0.7890625;violin
14.146316;0.14227616666666698;74;0.7890625;violin
14.308917333333335;0.1422761666666652;71;0.7890625;violin
14.471518666666668;0.14227616666666698;74;0.7890625;violin
14.634120000000001;0.14227616666666698;79;0.7890625;violin
14.796721333333334;0.14227616666666698;74;0.7890625;violin
14.959322666666669;0.1422761666666652;71;0.7890625;violin
15.121924000000002;0.14227616666666698;68;0.7890625;violin
15.284525333333335;0.14227616666666698;67;0.7890625;violin
15.447126666666668;0.14227616666666698;66;0.7890625;violin
15.609728;0.14227616666666698;67;0.7890625;violin
15.772329333333335;0.14227616666666698;66;0.7890625;violin
15.934930666666668;0.14227616666666698;67;0.7890625;violin
16.097532;0.14227616666666876;68;0.7890625;violin
16.260133333333336;0.1422761666666652;67;0.7890625;violin
16.422734666666667;0.14227616666666876;66;0.7890625;violin
16.585336;0.1422761666666652;67;0.7890625;violin
16.747937333333336;0.1422761666666652;63;0.7890625;violin
16.910538666666667;0.14227616666666876;60;0.7890625;violin
17.073140000000002;0.1422761666666652;55;0.7890625;violin
17.235741333333333;0.14227616666666876;60;0.7890625;violin
17.398342666666668;0.1422761666666652;63;0.7890625;violin
17.560944000000003;0.1422761666666652;67;0.7890625;violin
17.723545333333334;0.14227616666666876;66;0.7890625;violin
17.88614666666667;0.1422761666666652;67;0.7890625;violin
18.048748000000003;0.1422761666666652;68;0.7890625;violin
18.211349333333334;0.14227616666666876;67;0.7890625;violin
18.37395066666667;0.1422761666666652;66;0.7890625;violin
18.536552;0.14227616666666876;67;0.7890625;violin
18.699153333333335;0.1422761666666652;72;0.7890625;violin
18.86175466666667;0.1422761666666652;74;0.7890625;violin
19.024356;0.14227616666666876;75;0.7890625;violin
19.186957333333336;0.1422761666666652;74;0.7890625;violin
19.349558666666667;0.14227616666666876;72;0.7890625;violin
19.51216;0.1422761666666652;67;0.7890625;violin
19.674761333333336;0.1422761666666652;66;0.7890625;violin
19.837362666666667;0.14227616666666876;67;0.7890625;violin
19.999964000000002;0.1422761666666652;68;0.7890625;violin
20.162565333333337;0.1422761666666652;67;0.7890625;violin
20.325166666666668;0.14227616666666876;66;0.7890625;violin
20.487768000000003;0.1422761666666652;67;0.7890625;violin
20.650369333333334;0.14227616666666876;62;0.7890625;violin
20.81297066666667;0.1422761666666652;59;0.7890625;violin
20.975572000000003;0.1422761666666652;55;0.7890625;violin
21.138173333333334;0.14227616666666876;59;0.7890625;violin
21.30077466666667;0.1422761666666652;62;0.7890625;violin
21.463376;0.14227616666666876;67;0.7890625;violin
21.625977333333335;0.14227616666666876;66;0.7890625;violin
21.78857866666667;0.1422761666666652;67;0.7890625;violin
21.95118;0.14227616666666876;68;0.7890625;violin
22.113781333333336;0.1422761666666652;67;0.7890625;violin
22.27638266666667;0.1422761666666652;66;0.7890625;violin
22.438984;0.1626013333333347;67;0.7890625;violin
22.601585333333336;0.1422761666666652;71;0.7890625;violin
22.764186666666667;0.14227616666666876;74;0.7890625;violin
22.926788000000002;0.1422761666666652;77;0.7890625;violin
23.089389333333337;0.1422761666666652;83;0.7890625;violin
23.251990666666668;0.14227616666666876;86;0.7890625;violin
23.414592000000003;0.1422761666666652;84;0.7890625;violin
23.577193333333334;0.14227616666666876;86;0.7890625;violin
23.73979466666667;0.14227616666666876;84;0.7890625;violin
23.902396000000003;0.1422761666666652;83;0.7890625;violin
24.064997333333334;0.14227616666666876;84;0.7890625;violin
24.22759866666667;0.1422761666666652;86;0.7890625;violin
24.390200000000004;0.1422761666666652;84;0.7890625;violin
24.552801333333335;0.1626013333333347;79;0.7890625;violin
24.71540266666667;0.1422761666666652;77;0.7890625;violin
24.878004;0.14227616666666876;75;0.7890625;violin
25.040605333333335;0.1422761666666652;74;0.7890625;violin
25.20320666666667;0.16260133333333116;72;0.7890625;violin
25.365808;0.14227616666666876;71;0.7890625;violin
25.528409333333336;0.1422761666666652;74;0.7890625;violin
25.69101066666667;0.1422761666666652;77;0.7890625;violin
25.853612000000002;0.14227616666666876;74;0.7890625;violin
26.016213333333337;0.1422761666666652;77;0.7890625;violin
26.178814666666668;0.14227616666666876;74;0.7890625;violin
26.341416000000002;0.1422761666666652;77;0.7890625;violin
26.504017333333337;0.1422761666666652;74;0.7890625;violin
26.66661866666667;0.14227616666666876;71;0.7890625;violin
26.829220000000003;0.1422761666666652;68;0.7890625;violin
26.991821333333334;0.14227616666666876;67;0.7890625;violin
27.15442266666667;0.1626013333333347;65;0.7890625;violin
27.317024000000004;0.16260133333333116;63;0.7890625;violin
27.479625333333335;0.14227616666666876;67;0.7890625;violin
27.64222666666667;0.1422761666666652;72;0.7890625;violin
27.804828000000004;0.1422761666666652;75;0.7890625;violin
27.967429333333335;0.14227616666666876;79;0.7890625;violin
28.13003066666667;0.1422761666666652;84;0.7890625;violin
28.292632;0.14227616666666876;83;0.7890625;violin
28.455233333333336;0.1422761666666652;74;0.7890625;violin
28.61783466666667;0.1422761666666652;75;0.7890625;violin
28.780436;0.14227616666666876;77;0.7890625;violin
28.943037333333336;0.1422761666666652;75;0.7890625;violin
29.105638666666668;0.14227616666666876;74;0.7890625;violin
29.268240000000002;0.1626013333333347;72;0.7890625;violin
29.430841333333337;0.1422761666666652;68;0.7890625;violin
29.593442666666668;0.14227616666666876;67;0.7890625;violin
29.756044000000003;0.1422761666666652;65;0.7890625;violin
29.918645333333338;0.1422761666666652;63;0.7890625;violin
30.08124666666667;0.14227616666666876;62;0.7890625;violin
30.243848000000003;0.1422761666666652;60;0.7890625;violin
30.406449333333335;0.14227616666666876;55;0.7890625;violin
30.56905066666667;0.1422761666666652;60;0.7890625;violin
30.731652000000004;0.1422761666666652;63;0.7890625;violin
30.894253333333335;0.14227616666666876;67;0.7890625;violin
31.05685466666667;0.1422761666666652;72;0.7890625;violin
31.219456;0.14227616666666876;71;0.7890625;violin
31.382057333333336;0.1626013333333347;76;0.7890625;violin
31.54465866666667;0.1422761666666652;74;0.7890625;violin
31.70726;0.14227616666666876;71;0.7890625;violin
31.869861333333336;0.16260133333333116;76;0.7890625;violin
32.03246266666667;0.14227616666666876;74;0.7890625;violin
32.195064;0.14227616666666876;72;0.7890625;violin
32.35766533333334;0.14227616666666876;62;0.7890625;violin
32.52026666666667;0.14227616666666165;66;0.7890625;violin
32.682868000000006;0.14227616666666165;69;0.7890625;violin
32.845469333333334;0.1626013333333347;74;0.7890625;violin
33.00807066666667;0.14227616666666876;78;0.7890625;violin
33.170672;0.14227616666666876;81;0.7890625;violin
33.33327333333334;0.14227616666666165;86;0.7890625;violin
33.49587466666667;0.14227616666666165;84;0.7890625;violin
33.658476;0.14227616666666876;81;0.7890625;violin
33.821077333333335;0.14227616666666876;86;0.7890625;violin
33.98367866666667;0.14227616666666876;84;0.7890625;violin
34.146280000000004;0.14227616666666876;83;0.7890625;violin
34.30888133333334;0.14227616666666165;79;0.7890625;violin
34.47148266666667;0.14227616666666876;74;0.7890625;violin
34.634084;0.1626013333333347;71;0.7890625;violin
34.796685333333336;0.14227616666666876;67;0.7890625;violin
34.95928666666667;0.14227616666666876;62;0.7890625;violin
35.121888000000006;0.14227616666666165;59;0.7890625;violin
35.28448933333333;0.14227616666666876;64;0.7890625;violin
35.44709066666667;0.14227616666666876;62;0.7890625;violin
35.609692;0.14227616666666876;67;0.7890625;violin
35.77229333333334;0.14227616666666876;69;0.7890625;violin
35.93489466666667;0.14227616666666165;71;0.7890625;violin
36.09749600000001;0.14227616666666165;72;0.7890625;violin
36.260097333333334;0.14227616666666876;62;0.7890625;violin
36.42269866666667;0.14227616666666876;66;0.7890625;violin
36.585300000000004;0.14227616666666876;69;0.7890625;violin
36.74790133333334;0.1626013333333347;74;0.7890625;violin
36.91050266666667;0.14227616666666165;78;0.7890625;violin
37.073104;0.14227616666666876;81;0.7890625;violin
37.235705333333335;0.14227616666666876;86;0.7890625;violin
37.39830666666667;0.14227616666666876;84;0.7890625;violin
37.560908000000005;0.14227616666666165;83;0.7890625;violin
37.72350933333334;0.14227616666666165;84;0.7890625;violin
37.88611066666667;0.14227616666666876;81;0.7890625;violin
38.048712;0.1626013333333347;79;0.7890625;violin
38.21131333333334;0.14227616666666876;74;0.7890625;violin
38.37391466666667;0.1626013333333347;71;0.7890625;violin
38.536516000000006;0.14227616666666165;67;0.7890625;violin
38.699117333333334;0.14227616666666876;69;0.7890625;violin
38.86171866666667;0.14227616666666876;71;0.7890625;violin
39.02432;0.14227616666666876;72;0.7890625;violin
39.18692133333334;0.14227616666666876;67;0.7890625;violin
39.34952266666667;0.1626013333333276;63;0.7890625;violin
39.512124;0.14227616666666876;60;0.7890625;violin
39.674725333333335;0.14227616666666876;62;0.7890625;violin
39.83732666666667;0.14227616666666876;63;0.7890625;violin
39.999928000000004;0.14227616666666876;62;0.7890625;violin
40.16252933333334;0.14227616666666165;55;0.7890625;violin
40.325130666666674;0.14227616666666165;57;0.7890625;violin
40.487732;0.14227616666666876;59;0.7890625;violin
40.650333333333336;0.14227616666666876;60;0.7890625;violin
40.81293466666667;0.1626013333333347;62;0.7890625;violin
40.975536000000005;0.14227616666666165;60;0.7890625;violin
41.13813733333334;0.14227616666666165;63;0.7890625;violin
41.30073866666667;0.14227616666666876;67;0.7890625;violin
41.46334;0.14227616666666876;72;0.7890625;violin
41.62594133333334;0.14227616666666876;75;0.7890625;violin
41.78854266666667;0.14227616666666876;77;0.7890625;violin
41.951144000000006;0.14227616666666165;79;0.7890625;violin
42.113745333333334;0.14227616666666876;74;0.7890625;violin
42.27634666666667;0.14227616666666876;71;0.7890625;violin
42.438948;0.14227616666666876;67;0.7890625;violin
42.60154933333334;0.14227616666666876;69;0.7890625;violin
42.76415066666667;0.14227616666666165;71;0.7890625;violin
42.926752;0.14227616666666876;72;0.7890625;violin
43.089353333333335;0.14227616666666876;67;0.7890625;violin
43.25195466666667;0.14227616666666876;63;0.7890625;violin
43.414556000000005;0.14227616666666876;60;0.7890625;violin
43.57715733333334;0.14227616666666165;62;0.7890625;violin
43.739758666666674;0.14227616666666165;63;0.7890625;violin
43.90236;0.14227616666666876;62;0.7890625;violin
44.064961333333336;0.14227616666666876;55;0.7890625;violin
44.22756266666667;0.14227616666666876;57;0.7890625;violin
44.390164000000006;0.14227616666666165;59;0.7890625;violin
44.55276533333334;0.14227616666666165;60;0.7890625;violin
44.71536666666667;0.1626013333333347;62;0.7890625;violin
44.877968;0.14227616666666876;60;0.7890625;violin
45.04056933333334;0.14227616666666876;63;0.7890625;violin
45.20317066666667;0.14227616666666165;67;0.7890625;violin
45.36577200000001;0.14227616666666165;72;0.7890625;violin
45.528373333333334;0.14227616666666876;76;0.7890625;violin
45.69097466666667;0.14227616666666876;77;0.7890625;violin
45.853576000000004;0.14227616666666876;79;0.7890625;violin
46.01617733333334;0.14227616666666876;74;0.7890625;violin
46.17877866666667;0.14227616666666165;71;0.7890625;violin
46.34138;0.14227616666666876;67;0.7890625;violin
46.503981333333336;0.14227616666666876;71;0.7890625;violin
46.66658266666667;0.14227616666666876;74;0.7890625;violin
46.829184000000005;0.14227616666666876;79;0.7890625;violin
46.99178533333334;0.14227616666666165;78;0.7890625;violin
47.15438666666667;0.14227616666666876;79;0.7890625;violin
47.316988;0.14227616666666876;80;0.7890625;violin
47.47958933333334;0.14227616666666876;79;0.7890625;violin
47.64219066666667;0.14227616666666876;78;0.7890625;violin
47.804792000000006;0.14227616666666165;79;0.7890625;violin
47.96739333333334;0.14227616666666165;74;0.7890625;violin
48.12999466666667;0.14227616666666876;71;0.7890625;violin
48.292596;0.14227616666666876;67;0.7890625;violin
48.45519733333334;0.14227616666666876;71;0.7890625;violin
48.61779866666667;0.14227616666666165;74;0.7890625;violin
48.78040000000001;0.14227616666666165;79;0.7890625;violin
48.943001333333335;0.14227616666666876;78;0.7890625;violin
49.10560266666667;0.14227616666666876;79;0.7890625;violin
49.268204000000004;0.14227616666666876;80;0.7890625;violin
49.43080533333334;0.14227616666666876;79;0.7890625;violin
49.593406666666674;0.14227616666666165;78;0.7890625;violin
49.756008;0.14227616666666876;79;0.7890625;violin
49.918609333333336;0.14227616666666876;74;0.7890625;violin
50.08121066666667;0.14227616666666876;71;0.7890625;violin
50.243812000000005;0.14227616666666876;67;0.7890625;violin
50.40641333333334;0.14227616666666165;62;0.7890625;violin
50.56901466666667;0.14227616666666876;59;0.7890625;violin
50.731616;0.14227616666666876;55;0.7890625;violin
50.89421733333334;0.14227616666666876;59;0.7890625;violin
51.05681866666667;0.14227616666666876;62;0.7890625;violin
51.21942000000001;0.14227616666666165;67;0.7890625;violin
51.38202133333334;0.14227616666666165;63;0.7890625;violin
51.54462266666667;0.14227616666666876;60;0.7890625;violin
51.707224000000004;0.14227616666666876;55;0.7890625;violin
51.86982533333334;0.14227616666666876;59;0.7890625;violin
52.03242666666667;0.14227616666666165;62;0.7890625;violin
52.19502800000001;0.14227616666666165;67;0.7890625;violin
52.357629333333335;0.14227616666666876;63;0.7890625;violin
52.52023066666667;0.14227616666666876;60;0.7890625;violin
52.682832000000005;0.14227616666666876;55;0.7890625;violin
52.84543333333334;0.14227616666666876;59;0.7890625;violin
53.008034666666674;0.14227616666666165;62;0.7890625;violin
53.170636;0.14227616666666876;67;0.7890625;violin
53.33323733333334;0.14227616666666876;71;0.7890625;violin
53.49583866666667;0.14227616666666876;74;0.7890625;violin
53.658440000000006;0.14227616666666876;79;0.7890625;violin
53.82104133333334;0.14227616666666165;74;0.7890625;violin
53.98364266666667;0.14227616666666876;71;0.7890625;violin
54.146244;0.14227616666666876;68;0.7890625;violin
54.30884533333334;0.14227616666666876;67;0.7890625;violin
54.47144666666667;0.14227616666666876;66;0.7890625;violin
54.63404800000001;0.14227616666666165;67;0.7890625;violin
54.796649333333335;0.14227616666666876;66;0.7890625;violin
54.95925066666667;0.14227616666666876;67;0.7890625;violin
55.121852000000004;0.14227616666666876;68;0.7890625;violin
55.28445333333334;0.14227616666666876;67;0.7890625;violin
55.44705466666667;0.14227616666666165;66;0.7890625;violin
55.60965600000001;0.14227616666666165;67;0.7890625;violin
55.772257333333336;0.14227616666666876;63;0.7890625;violin
55.93485866666667;0.14227616666666876;60;0.7890625;violin
56.097460000000005;0.14227616666666876;55;0.7890625;violin
56.26006133333334;0.14227616666666165;60;0.7890625;violin
56.422662666666675;0.14227616666666165;63;0.7890625;violin
56.585264;0.14227616666666876;67;0.7890625;violin
56.74786533333334;0.14227616666666876;66;0.7890625;violin
56.91046666666667;0.14227616666666876;67;0.7890625;violin
57.073068000000006;0.14227616666666876;68;0.7890625;violin
57.23566933333334;0.14227616666666165;67;0.7890625;violin
57.39827066666667;0.14227616666666876;66;0.7890625;violin
57.560872;0.14227616666666876;67;0.7890625;violin
57.72347333333334;0.14227616666666876;72;0.7890625;violin
57.88607466666667;0.14227616666666876;74;0.7890625;violin
58.04867600000001;0.14227616666666165;75;0.7890625;violin
58.211277333333335;0.14227616666666876;74;0.7890625;violin
58.37387866666667;0.14227616666666876;72;0.7890625;violin
58.536480000000005;0.14227616666666876;67;0.7890625;violin
58.69908133333334;0.14227616666666876;66;0.7890625;violin
58.861682666666674;0.14227616666666165;67;0.7890625;violin
59.02428400000001;0.14227616666666165;68;0.7890625;violin
59.186885333333336;0.14227616666666876;67;0.7890625;violin
59.34948666666667;0.14227616666666876;66;0.7890625;violin
59.512088000000006;0.14227616666666876;67;0.7890625;violin
59.67468933333334;0.14227616666666165;62;0.7890625;violin
59.837290666666675;0.14227616666666165;59;0.7890625;violin
59.999892;0.14227616666666876;55;0.7890625;violin
60.16249333333334;0.14227616666666876;59;0.7890625;violin
60.32509466666667;0.14227616666666876;62;0.7890625;violin
60.48769600000001;0.14227616666666876;67;0.7890625;violin
60.65029733333334;0.14227616666666165;66;0.7890625;violin
60.81289866666667;0.14227616666666876;67;0.7890625;violin
60.975500000000004;0.14227616666666876;68;0.7890625;violin
61.13810133333334;0.14227616666666876;67;0.7890625;violin
61.30070266666667;0.14227616666666876;66;0.7890625;violin
61.46330400000001;0.1626013333333276;67;0.7890625;violin
61.625905333333336;0.14227616666666876;71;0.7890625;violin
61.78850666666667;0.14227616666666876;74;0.7890625;violin
61.951108000000005;0.14227616666666876;77;0.7890625;violin
62.11370933333334;0.14227616666666876;83;0.7890625;violin
62.276310666666674;0.14227616666666165;86;0.7890625;violin
62.438912;0.14227616666666876;84;0.7890625;violin
62.60151333333334;0.14227616666666876;86;0.7890625;violin
62.76411466666667;0.14227616666666876;84;0.7890625;violin
62.926716000000006;0.14227616666666876;83;0.7890625;violin
63.08931733333334;0.14227616666666165;84;0.7890625;violin
63.251918666666676;0.14227616666666165;86;0.7890625;violin
63.41452;0.14227616666666876;84;0.7890625;violin
63.57712133333334;0.1626013333333347;79;0.7890625;violin
63.73972266666667;0.14227616666666876;77;0.7890625;violin
63.90232400000001;0.14227616666666165;75;0.7890625;violin
64.06492533333333;0.14227616666667586;74;0.7890625;violin
64.22752666666668;0.1626013333333276;72;0.7890625;violin
64.390128;0.14227616666666165;71;0.7890625;violin
64.55272933333335;0.14227616666666165;74;0.7890625;violin
64.71533066666667;0.14227616666666165;77;0.7890625;violin
64.877932;0.14227616666667586;74;0.7890625;violin
65.04053333333334;0.14227616666666165;77;0.7890625;violin
65.20313466666667;0.14227616666666165;74;0.7890625;violin
65.36573600000001;0.14227616666666165;77;0.7890625;violin
65.52833733333334;0.14227616666666165;74;0.7890625;violin
65.69093866666667;0.14227616666667586;71;0.7890625;violin
65.85354000000001;0.14227616666666165;68;0.7890625;violin
66.01614133333334;0.14227616666666165;67;0.7890625;violin
66.17874266666668;0.1626013333333276;65;0.7890625;violin
66.341344;0.14227616666666165;63;0.7890625;violin
66.50394533333333;0.14227616666667586;67;0.7890625;violin
66.66654666666668;0.14227616666666165;72;0.7890625;violin
66.829148;0.14227616666667586;75;0.7890625;violin
66.99174933333335;0.14227616666666165;79;0.7890625;violin
67.15435066666667;0.14227616666666165;84;0.7890625;violin
67.316952;0.14227616666667586;83;0.7890625;violin
67.47955333333334;0.14227616666666165;74;0.7890625;violin
67.64215466666667;0.14227616666667586;75;0.7890625;violin
67.80475600000001;0.14227616666666165;77;0.7890625;violin
67.96735733333334;0.14227616666666165;75;0.7890625;violin
68.12995866666667;0.14227616666667586;74;0.7890625;violin
68.29256000000001;0.14227616666666165;72;0.7890625;violin
68.45516133333334;0.14227616666667586;75;0.7890625;violin
68.61776266666668;0.14227616666666165;79;0.7890625;violin
68.780364;0.14227616666666165;84;0.7890625;violin
68.94296533333333;0.14227616666667586;79;0.7890625;violin
69.10556666666668;0.14227616666666165;75;0.7890625;violin
69.268168;0.1626013333333418;72;0.7890625;violin
69.43076933333334;0.14227616666666165;68;0.7890625;violin
69.59337066666667;0.14227616666666165;67;0.7890625;violin
69.755972;0.14227616666667586;65;0.7890625;violin
69.91857333333334;0.14227616666666165;63;0.7890625;violin
70.08117466666667;0.14227616666667586;62;0.7890625;violin
70.24377600000001;0.14227616666666165;60;0.7890625;violin
70.40637733333334;0.14227616666666165;63;0.7890625;violin
70.56897866666667;0.14227616666667586;67;0.7890625;violin
70.73158000000001;0.14227616666666165;55;0.7890625;violin
70.89418133333334;0.14227616666667586;56;0.7890625;violin
71.05678266666668;0.14227616666666165;55;0.7890625;violin
71.219384;0.14227616666666165;59;0.7890625;violin
71.38198533333333;0.14227616666667586;62;0.7890625;violin
71.54458666666667;0.14227616666666165;67;0.7890625;violin
71.707188;0.14227616666667586;55;0.7890625;violin
71.86978933333334;0.14227616666666165;56;0.7890625;violin
72.03239066666667;0.14227616666666165;55;0.7890625;violin
72.19499200000001;0.14227616666666165;60;0.7890625;violin
72.35759333333334;0.14227616666666165;63;0.7890625;violin
72.52019466666667;0.14227616666667586;67;0.7890625;violin
72.68279600000001;0.14227616666666165;55;0.7890625;violin
72.84539733333334;0.14227616666666165;56;0.7890625;violin
73.00799866666668;0.14227616666666165;55;0.7890625;violin
73.17060000000001;0.14227616666666165;59;0.7890625;violin
73.33320133333334;0.14227616666667586;62;0.7890625;violin
73.49580266666668;0.14227616666666165;67;0.7890625;violin
73.658404;0.14227616666667586;55;0.7890625;violin
73.82100533333335;0.14227616666666165;56;0.7890625;violin
73.98360666666667;0.14227616666666165;55;0.7890625;violin
74.146208;0.14227616666667586;60;0.7890625;violin
74.30880933333334;0.14227616666666165;65;0.7890625;violin
74.47141066666667;0.14227616666667586;67;0.7890625;violin
74.63401200000001;0.14227616666666165;68;0.7890625;violin
74.79661333333334;0.14227616666666165;67;0.7890625;violin
74.95921466666667;0.14227616666667586;71;0.7890625;violin
75.12181600000001;0.1626013333333276;72;0.7890625;violin
75.28441733333334;0.1626013333333418;75;0.7890625;violin
75.44701866666668;0.1626013333333276;79;0.7890625;violin
75.60962;0.1626013333333276;80;0.7890625;violin
75.77222133333333;0.1626013333333418;79;0.7890625;violin
75.93482266666668;0.1626013333333276;83;0.7890625;violin
76.097424;0.1626013333333418;84;0.7890625;violin
76.26002533333335;0.1626013333333276;79;0.7890625;violin
76.42262666666667;0.1626013333333276;75;0.7890625;violin
76.585228;0.1626013333333418;72;0.7890625;violin
76.74782933333334;0.1626013333333276;67;0.7890625;violin
76.91043066666667;0.1626013333333418;63;0.7890625;violin
77.07303200000001;0.487803999999997;60;0.7890625;violin
