start;duration;pitch;velocity;instrument
0.0;0.487804;62;0.7890625;violin
0.487804;1.463412;67;0.7890625;violin
1.951216;0.24390200000000029;62;0.7890625;violin
2.1951180000000003;0.21341425000000003;62;0.7890625;violin
2.43902;1.463412;67;0.7890625;violin
3.902432;0.24390200000000029;62;0.7890625;violin
4.146334;0.21341424999999958;62;0.7890625;violin
4.390236000000001;0.4878039999999997;67;0.7890625;violin
4.87804;0.4878039999999997;69;0.7890625;violin
5.365844;0.48780400000000057;71;0.7890625;violin
5.853648000000001;0.4878039999999997;69;0.7890625;violin
6.341452;0.9756080000000003;67;0.7890625;violin
7.317060000000001;0.9756080000000003;79;0.7890625;violin
8.292668;0.42682849999999917;78;0.7890625;violin
8.780472000000001;0.42682849999999917;76;0.7890625;violin
9.268276;0.42682850000000094;74;0.7890625;violin
9.75608;0.48780400000000057;72;0.7890625;violin
10.243884000000001;0.42682849999999917;71;0.7890625;violin
10.731688;0.42682850000000094;69;0.7890625;violin
11.219492;0.42682850000000094;67;0.7890625;violin
11.707296000000001;0.42682849999999917;71;0.7890625;violin
12.195100000000002;0.42682849999999917;69;0.7890625;violin
12.682904;0.48780400000000057;74;0.7890625;violin
13.170708000000001;0.42682849999999917;78;0.7890625;violin
13.658512000000002;0.42682849999999917;76;0.7890625;violin
14.146316;0.42682850000000094;74;0.7890625;violin
15.609728;0.48780400000000057;62;0.7890625;violin
16.097532;1.4634120000000017;67;0.7890625;violin
17.560944000000003;0.2439019999999985;62;0.7890625;violin
17.804846;0.21341424999999958;62;0.7890625;violin
18.048748000000003;1.4634119999999982;67;0.7890625;violin
19.51216;0.2439019999999985;62;0.7890625;violin
19.756062;0.21341425000000314;62;0.7890625;violin
19.999964000000002;0.2439019999999985;67;0.7890625;violin
20.243866;0.24390200000000206;62;0.7890625;violin
20.487768000000003;0.2439019999999985;69;0.7890625;violin
20.73167;0.24390200000000206;62;0.7890625;violin
20.975572000000003;0.2439019999999985;71;0.7890625;violin
21.219474;0.2439019999999985;62;0.7890625;violin
21.463376;0.24390200000000206;69;0.7890625;violin
21.707278000000002;0.2439019999999985;62;0.7890625;violin
21.95118;0.48780400000000057;67;0.7890625;violin
22.438984;0.42682849999999917;55;0.7890625;violin
22.926788000000002;0.48780400000000057;67;0.7890625;violin
23.414592000000003;0.48780400000000057;79;0.7890625;violin
23.902396000000003;0.2439019999999985;78;0.7890625;violin
24.146298;0.21341424999999958;79;0.7890625;violin
24.390200000000004;0.21341424999999958;78;0.7890625;violin
24.634102000000002;0.21341424999999958;76;0.7890625;violin
24.878004;0.4268285000000027;74;0.7890625;violin
25.365808;0.48780400000000057;72;0.7890625;violin
25.853612000000002;0.21341424999999958;71;0.7890625;violin
26.097514000000004;0.21341424999999958;72;0.7890625;violin
26.341416000000002;0.21341424999999958;71;0.7890625;violin
26.585318;0.21341425000000314;69;0.7890625;violin
26.829220000000003;0.42682849999999917;67;0.7890625;violin
27.317024000000004;0.48780400000000057;83;0.7890625;violin
27.804828000000004;0.2439019999999985;81;0.7890625;violin
28.048730000000003;0.2439019999999985;86;0.7890625;violin
28.292632;0.24390200000000206;83;0.7890625;violin
28.536534000000003;0.21341424999999958;86;0.7890625;violin
28.780436;0.21341424999999958;84;0.7890625;violin
29.024338000000004;0.21341424999999958;86;0.7890625;violin
29.268240000000002;0.21341424999999958;83;0.7890625;violin
29.512142000000004;0.21341424999999958;86;0.7890625;violin
29.756044000000003;0.2439019999999985;81;0.7890625;violin
29.999946;0.24390200000000206;79;0.7890625;violin
30.243848000000003;0.2439019999999985;78;0.7890625;violin
30.487750000000002;0.24390200000000206;76;0.7890625;violin
30.731652000000004;0.42682849999999917;74;0.7890625;violin
31.219456;0.4268285000000027;83;0.7890625;violin
31.70726;0.24390200000000206;81;0.7890625;violin
31.951162000000004;0.2439019999999985;86;0.7890625;violin
32.195064;0.2439019999999985;83;0.7890625;violin
32.438966;0.21341424999999958;86;0.7890625;violin
32.682868000000006;0.21341424999999958;84;0.7890625;violin
32.926770000000005;0.21341424999999958;86;0.7890625;violin
33.170672;0.21341424999999958;83;0.7890625;violin
33.414574;0.21341424999999958;86;0.7890625;violin
33.658476;0.12195100000000281;81;0.7890625;violin
33.902378000000006;0.2439019999999985;79;0.7890625;violin
34.146280000000004;0.2439019999999985;78;0.7890625;violin
34.390182;0.2439019999999985;76;0.7890625;violin
34.634084;0.42682849999999917;74;0.7890625;violin
35.121888000000006;0.487803999999997;62;0.7890625;violin
35.609692;0.2439019999999985;67;0.7890625;violin
35.853594;0.24390200000000561;69;0.7890625;violin
36.09749600000001;0.2439019999999985;71;0.7890625;violin
36.341398000000005;0.21341424999999958;72;0.7890625;violin
36.585300000000004;0.42682849999999917;74;0.7890625;violin
37.073104;0.42682849999999917;83;0.7890625;violin
37.560908000000005;0.1219509999999957;81;0.7890625;violin
37.80481;0.2439019999999985;79;0.7890625;violin
38.048712;0.2439019999999985;78;0.7890625;violin
38.292614;0.24390200000000561;76;0.7890625;violin
38.536516000000006;0.42682849999999917;74;0.7890625;violin
39.02432;0.487803999999997;62;0.7890625;violin
39.512124;0.24390200000000561;67;0.7890625;violin
39.756026000000006;0.2439019999999985;69;0.7890625;violin
39.999928000000004;0.2439019999999985;71;0.7890625;violin
40.24383;0.21341424999999958;72;0.7890625;violin
40.487732;0.42682849999999917;74;0.7890625;violin
40.975536000000005;0.42682849999999917;83;0.7890625;violin
41.46334;0.12195100000000281;81;0.7890625;violin
41.707242;0.24390200000000561;79;0.7890625;violin
41.951144000000006;0.2439019999999985;78;0.7890625;violin
42.195046000000005;0.2439019999999985;76;0.7890625;violin
42.438948;0.21341424999999958;74;0.7890625;violin
42.68285;0.2439019999999985;86;0.7890625;violin
42.926752;0.24390200000000561;83;0.7890625;violin
43.170654000000006;0.2439019999999985;86;0.7890625;violin
43.414556000000005;0.21341424999999958;81;0.7890625;violin
43.658458;0.2439019999999985;86;0.7890625;violin
43.90236;0.24390200000000561;83;0.7890625;violin
44.14626200000001;0.2439019999999985;86;0.7890625;violin
44.390164000000006;0.21341424999999958;81;0.7890625;violin
44.634066000000004;0.2439019999999985;86;0.7890625;violin
44.877968;0.2439019999999985;83;0.7890625;violin
45.12187;0.24390200000000561;86;0.7890625;violin
45.36577200000001;0.21341424999999958;81;0.7890625;violin
45.609674000000005;0.2439019999999985;86;0.7890625;violin
45.853576000000004;0.2439019999999985;83;0.7890625;violin
46.097478;0.2439019999999985;86;0.7890625;violin
46.34138;0.2134142500000067;81;0.7890625;violin
46.58528200000001;0.2439019999999985;86;0.7890625;violin
46.829184000000005;0.2439019999999985;83;0.7890625;violin
47.073086;0.2439019999999985;86;0.7890625;violin
47.316988;0.42682849999999917;81;0.7890625;violin
48.292596;0.42682849999999917;62;0.7890625;violin
48.292596;0.42682849999999917;74;0.7890625;violin
48.292596;0.42682849999999917;86;0.7890625;violin
49.268204000000004;0.42682849999999917;62;0.7890625;violin
49.268204000000004;0.42682849999999917;74;0.7890625;violin
49.268204000000004;0.42682849999999917;86;0.7890625;violin
50.731616;0.4878040000000041;62;0.7890625;violin
51.21942000000001;1.4634119999999982;67;0.7890625;violin
52.682832000000005;0.2439019999999985;62;0.7890625;violin
52.926734;0.21341424999999958;62;0.7890625;violin
53.170636;1.4634120000000053;67;0.7890625;violin
54.63404800000001;0.2439019999999985;62;0.7890625;violin
54.877950000000006;0.21341424999999958;62;0.7890625;violin
55.121852000000004;0.4878040000000041;67;0.7890625;violin
55.60965600000001;0.42682849999999917;69;0.7890625;violin
56.097460000000005;0.42682849999999917;71;0.7890625;violin
56.585264;0.4268285000000063;69;0.7890625;violin
57.073068000000006;0.9756080000000011;67;0.7890625;violin
58.04867600000001;0.9756080000000011;86;0.7890625;violin
59.02428400000001;0.42682849999999917;84;0.7890625;violin
59.512088000000006;0.42682849999999917;83;0.7890625;violin
59.999892;0.42682849999999917;81;0.7890625;violin
60.48769600000001;0.487803999999997;79;0.7890625;violin
60.975500000000004;0.42682849999999917;78;0.7890625;violin
61.46330400000001;0.42682849999999917;76;0.7890625;violin
61.951108000000005;0.42682849999999917;74;0.7890625;violin
62.438912;0.4878040000000041;72;0.7890625;violin
62.926716000000006;0.42682849999999917;71;0.7890625;violin
63.41452;0.24390200000000561;62;0.7890625;violin
63.65842200000001;0.2439019999999985;67;0.7890625;violin
63.90232400000001;0.487803999999997;71;0.7890625;violin
64.390128;0.42682849999999917;69;0.7890625;violin
64.877932;0.24390200000000561;67;0.7890625;violin
65.121834;0.21341424999999958;69;0.7890625;violin
65.36573600000001;0.21341424999999958;71;0.7890625;violin
65.609638;0.21341424999999958;72;0.7890625;violin
65.85354000000001;0.21341424999999958;74;0.7890625;violin
66.097442;0.21341424999999958;76;0.7890625;violin
66.341344;0.21341424999999958;78;0.7890625;violin
66.58524600000001;0.21341424999999958;79;0.7890625;violin
66.829148;0.21341424999999958;81;0.7890625;violin
67.07305000000001;0.21341424999999958;83;0.7890625;violin
67.316952;0.21341424999999958;84;0.7890625;violin
67.560854;0.21341424999999958;83;0.7890625;violin
67.80475600000001;0.21341424999999958;81;0.7890625;violin
68.048658;0.24390200000000561;79;0.7890625;violin
68.29256000000001;0.21341424999999958;78;0.7890625;violin
68.536462;0.21341424999999958;76;0.7890625;violin
68.780364;0.24390200000000561;74;0.7890625;violin
69.02426600000001;0.21341424999999958;76;0.7890625;violin
69.268168;0.21341424999999958;78;0.7890625;violin
69.51207000000001;0.21341424999999958;76;0.7890625;violin
69.755972;0.21341424999999958;74;0.7890625;violin
69.999874;0.24390200000000561;72;0.7890625;violin
70.24377600000001;0.21341424999999958;71;0.7890625;violin
70.487678;0.21341424999999958;69;0.7890625;violin
70.73158000000001;0.975607999999994;67;0.7890625;violin
71.707188;0.9756080000000082;62;0.7890625;violin
72.68279600000001;0.2439019999999914;67;0.7890625;violin
72.926698;0.21341424999999958;69;0.7890625;violin
73.17060000000001;0.21341424999999958;71;0.7890625;violin
73.41450200000001;0.21341424999999958;72;0.7890625;violin
73.658404;0.24390200000000561;74;0.7890625;violin
73.90230600000001;0.21341424999999958;76;0.7890625;violin
74.146208;0.21341424999999958;78;0.7890625;violin
74.39011;0.21341424999999958;79;0.7890625;violin
74.63401200000001;0.2439019999999914;81;0.7890625;violin
74.877914;0.21341424999999958;83;0.7890625;violin
75.12181600000001;0.21341424999999958;84;0.7890625;violin
75.365718;0.21341424999999958;83;0.7890625;violin
75.60962;0.24390200000000561;81;0.7890625;violin
75.85352200000001;0.2439019999999914;79;0.7890625;violin
76.097424;0.21341424999999958;78;0.7890625;violin
76.34132600000001;0.21341424999999958;76;0.7890625;violin
76.585228;0.24390200000000561;74;0.7890625;violin
76.82913;0.21341424999999958;76;0.7890625;violin
77.07303200000001;0.21341424999999958;78;0.7890625;violin
77.316934;0.21341424999999958;76;0.7890625;violin
77.56083600000001;0.2439019999999914;74;0.7890625;violin
77.804738;0.24390200000000561;72;0.7890625;violin
78.04864;0.21341424999999958;71;0.7890625;violin
78.29254200000001;0.21341424999999958;69;0.7890625;violin
78.536444;0.24390200000000561;67;0.7890625;violin
78.78034600000001;0.21341424999999958;71;0.7890625;violin
79.024248;0.2134142500000138;74;0.7890625;violin
79.26815;0.21341424999999958;79;0.7890625;violin
79.51205200000001;0.42682849999999917;67;0.7890625;violin
79.99985600000001;0.487803999999997;55;0.7890625;violin
80.48766;1.4634120000000053;60;0.7890625;violin
81.95107200000001;0.487803999999997;64;0.7890625;violin
82.43887600000001;1.2804854999999975;67;0.7890625;violin
83.90228800000001;0.487803999999997;67;0.7890625;violin
84.39009200000001;1.463411999999991;71;0.7890625;violin
85.853504;0.48780400000001123;74;0.7890625;violin
86.34130800000001;1.463411999999991;79;0.7890625;violin
87.80472;0.48780400000001123;55;0.7890625;violin
88.29252400000001;1.463411999999991;60;0.7890625;violin
89.755936;0.487803999999997;64;0.7890625;violin
90.24374;1.2804855000000117;67;0.7890625;violin
91.70715200000001;0.487803999999997;67;0.7890625;violin
92.194956;1.2804854999999975;71;0.7890625;violin
93.65836800000001;0.487803999999997;74;0.7890625;violin
94.146172;1.2804854999999975;79;0.7890625;violin
95.60958400000001;0.487803999999997;83;0.7890625;violin
96.09738800000001;0.487803999999997;86;0.7890625;violin
96.585192;0.42682849999999917;81;0.7890625;violin
97.072996;0.42682849999999917;81;0.7890625;violin
97.56080000000001;0.42682849999999917;81;0.7890625;violin
98.04860400000001;0.975607999999994;83;0.7890625;violin
99.024212;0.24390200000000561;79;0.7890625;violin
99.512016;0.24390200000000561;71;0.7890625;violin
99.75591800000001;0.24390200000000561;62;0.7890625;violin
99.99982000000001;0.2439019999999914;69;0.7890625;violin
100.243722;0.24390200000000561;62;0.7890625;violin
100.48762400000001;0.2439019999999914;71;0.7890625;violin
100.731526;0.24390200000000561;62;0.7890625;violin
100.97542800000001;0.24390200000000561;72;0.7890625;violin
101.21933000000001;0.2439019999999914;62;0.7890625;violin
101.463232;0.24390200000000561;69;0.7890625;violin
101.70713400000001;0.2439019999999914;62;0.7890625;violin
101.951036;0.24390200000000561;71;0.7890625;violin
102.19493800000001;0.24390200000000561;62;0.7890625;violin
102.43884000000001;0.2439019999999914;69;0.7890625;violin
102.682742;0.24390200000000561;62;0.7890625;violin
102.92664400000001;0.24390200000000561;67;0.7890625;violin
103.41444800000001;0.487803999999997;83;0.7890625;violin
103.902252;0.48780400000001123;86;0.7890625;violin
104.39005600000002;0.42682849999999917;81;0.7890625;violin
104.87786000000001;0.42682849999999917;81;0.7890625;violin
105.36566400000001;0.42682849999999917;81;0.7890625;violin
105.853468;0.9756080000000082;83;0.7890625;violin
106.82907600000001;0.2439019999999914;79;0.7890625;violin
107.31688000000001;0.2439019999999914;71;0.7890625;violin
107.560782;0.24390200000000561;62;0.7890625;violin
107.80468400000001;0.24390200000000561;72;0.7890625;violin
108.04858600000001;0.2439019999999914;62;0.7890625;violin
108.292488;0.24390200000000561;71;0.7890625;violin
108.53639000000001;0.2439019999999914;62;0.7890625;violin
108.780292;0.24390200000000561;72;0.7890625;violin
109.02419400000001;0.24390200000000561;62;0.7890625;violin
109.26809600000001;0.2439019999999914;69;0.7890625;violin
109.511998;0.24390200000000561;62;0.7890625;violin
109.75590000000001;0.21341424999999958;67;0.7890625;violin
111.21931200000002;0.487803999999997;62;0.7890625;violin
111.70711600000001;1.463411999999991;67;0.7890625;violin
113.170528;0.24390200000000561;62;0.7890625;violin
113.41443000000001;0.21341424999999958;62;0.7890625;violin
113.65833200000002;1.463411999999991;67;0.7890625;violin
115.121744;0.24390200000000561;62;0.7890625;violin
115.36564600000001;0.21341424999999958;62;0.7890625;violin
115.609548;0.24390200000000561;67;0.7890625;violin
115.85345000000001;0.24390200000000561;62;0.7890625;violin
116.09735200000001;0.2439019999999914;69;0.7890625;violin
116.341254;0.24390200000000561;62;0.7890625;violin
116.58515600000001;0.2439019999999914;71;0.7890625;violin
116.829058;0.24390200000000561;62;0.7890625;violin
117.07296000000001;0.24390200000000561;69;0.7890625;violin
117.31686200000001;0.21341424999999958;62;0.7890625;violin
117.560764;1.4634120000000053;67;0.7890625;violin
119.02417600000001;0.487803999999997;79;0.7890625;violin
119.51198000000001;0.24390200000000561;78;0.7890625;violin
119.75588200000001;0.21341424999999958;79;0.7890625;violin
119.999784;0.21341424999999958;78;0.7890625;violin
120.24368600000001;0.21341424999999958;76;0.7890625;violin
120.48758800000002;0.2439019999999914;74;0.7890625;violin
120.73149000000001;0.21341424999999958;76;0.7890625;violin
120.97539200000001;0.21341424999999958;74;0.7890625;violin
121.219294;0.24390200000000561;72;0.7890625;violin
121.46319600000001;0.24390200000000561;71;0.7890625;violin
121.70709800000002;0.21341424999999958;72;0.7890625;violin
121.95100000000001;0.21341424999999958;71;0.7890625;violin
122.19490200000001;0.21341424999999958;69;0.7890625;violin
122.438804;0.24390200000000561;67;0.7890625;violin
122.68270600000001;0.24390200000000561;62;0.7890625;violin
122.92660800000002;0.2439019999999914;67;0.7890625;violin
123.17051000000001;0.21341424999999958;71;0.7890625;violin
123.41441200000001;0.487803999999997;69;0.7890625;violin
123.90221600000001;0.487803999999997;74;0.7890625;violin
124.39002;0.42682849999999917;78;0.7890625;violin
124.877824;0.4268285000000134;76;0.7890625;violin
125.36562800000002;0.42682849999999917;74;0.7890625;violin
126.82904;0.48780400000001123;62;0.7890625;violin
127.31684400000002;1.463411999999991;66;0.7890625;violin
128.780256;0.2439019999999914;69;0.7890625;violin
129.024158;0.21341424999999958;69;0.7890625;violin
129.26806000000002;1.4634120000000053;74;0.7890625;violin
130.73147200000002;0.2439019999999914;62;0.7890625;violin
130.97537400000002;0.21341424999999958;62;0.7890625;violin
131.219276;1.4634120000000053;67;0.7890625;violin
132.682688;0.2439019999999914;71;0.7890625;violin
132.92659;0.21341424999999958;71;0.7890625;violin
133.17049200000002;1.4634119999999768;74;0.7890625;violin
134.633904;0.24390200000001983;62;0.7890625;violin
134.87780600000002;0.21341424999999958;62;0.7890625;violin
135.121708;0.48780400000001123;66;0.7890625;violin
135.60951200000002;0.8536569999999983;66;0.9453125;violin
136.58512000000002;0.4878039999999828;69;0.7890625;violin
137.072924;0.48780400000001123;74;0.7890625;violin
137.560728;0.8536569999999983;74;0.9453125;violin
138.536336;0.48780400000001123;62;0.7890625;violin
139.02414000000002;0.4878039999999828;67;0.7890625;violin
139.511944;0.8536570000000268;67;0.9453125;violin
140.48755200000002;0.4878039999999828;71;0.7890625;violin
140.975356;0.48780400000001123;74;0.7890625;violin
141.46316000000002;0.8536569999999983;74;0.9453125;violin
142.438768;0.48780400000001123;62;0.7890625;violin
142.92657200000002;0.2439019999999914;67;0.7890625;violin
143.170474;0.21341424999999958;69;0.7890625;violin
143.414376;0.21341424999999958;71;0.7890625;violin
143.65827800000002;0.2439019999999914;72;0.7890625;violin
143.90218000000002;0.2439019999999914;74;0.7890625;violin
144.146082;0.21341424999999958;76;0.7890625;violin
144.38998400000003;0.21341424999999958;78;0.7890625;violin
144.63388600000002;0.21341424999999958;79;0.7890625;violin
144.877788;0.2439019999999914;81;0.7890625;violin
145.12169;0.21341424999999958;83;0.7890625;violin
145.36559200000002;0.21341424999999958;84;0.7890625;violin
145.609494;0.21341424999999958;83;0.7890625;violin
145.853396;0.24390200000001983;81;0.7890625;violin
146.09729800000002;0.21341424999999958;79;0.7890625;violin
146.34120000000001;0.21341424999999958;78;0.7890625;violin
146.585102;0.21341424999999958;76;0.7890625;violin
146.82900400000003;0.2439019999999914;74;0.7890625;violin
147.07290600000002;0.21341424999999958;76;0.7890625;violin
147.316808;0.21341424999999958;78;0.7890625;violin
147.56071;0.21341424999999958;76;0.7890625;violin
147.80461200000002;0.2439019999999914;74;0.7890625;violin
148.048514;0.21341424999999958;72;0.7890625;violin
148.292416;0.21341424999999958;71;0.7890625;violin
148.53631800000002;0.21341424999999958;69;0.7890625;violin
148.78022;0.2439019999999914;67;0.7890625;violin
149.024122;0.21341424999999958;69;0.7890625;violin
149.26802400000003;0.21341424999999958;71;0.7890625;violin
149.51192600000002;0.21341424999999958;67;0.7890625;violin
149.755828;0.975607999999994;62;0.7890625;violin
150.731436;0.24390200000001983;67;0.7890625;violin
150.97533800000002;0.2439019999999914;69;0.7890625;violin
151.21924;0.2439019999999914;71;0.7890625;violin
151.463142;0.24390200000001983;72;0.7890625;violin
151.70704400000002;0.2439019999999914;74;0.7890625;violin
151.95094600000002;0.2439019999999914;76;0.7890625;violin
152.194848;0.24390200000001983;78;0.7890625;violin
152.43875000000003;0.21341424999999958;79;0.7890625;violin
152.68265200000002;0.2439019999999914;81;0.7890625;violin
152.926554;0.2439019999999914;83;0.7890625;violin
153.170456;0.24390200000001983;84;0.7890625;violin
153.41435800000002;0.2439019999999914;83;0.7890625;violin
153.65826;0.2439019999999914;81;0.7890625;violin
153.902162;0.24390200000001983;79;0.7890625;violin
154.14606400000002;0.2439019999999914;78;0.7890625;violin
154.38996600000002;0.21341424999999958;76;0.7890625;violin
154.633868;0.24390200000001983;74;0.7890625;violin
154.87777000000003;0.2439019999999914;76;0.7890625;violin
155.12167200000002;0.2439019999999914;78;0.7890625;violin
155.365574;0.2439019999999914;76;0.7890625;violin
155.609476;0.24390200000001983;74;0.7890625;violin
155.85337800000002;0.2439019999999914;72;0.7890625;violin
156.09728;0.2439019999999914;71;0.7890625;violin
156.341182;0.24390200000001983;69;0.7890625;violin
156.58508400000002;0.21341424999999958;67;0.7890625;violin
156.82898600000001;0.2439019999999914;62;0.7890625;violin
157.072888;0.24390200000001983;63;0.7890625;violin
157.31679000000003;0.2439019999999914;62;0.7890625;violin
157.56069200000002;0.2439019999999914;64;0.7890625;violin
157.804594;0.2439019999999914;62;0.7890625;violin
158.048496;0.24390200000001983;66;0.7890625;violin
158.29239800000002;0.2439019999999914;62;0.7890625;violin
158.5363;0.21341424999999958;67;0.7890625;violin
158.780202;0.24390200000001983;62;0.7890625;violin
159.02410400000002;0.2439019999999914;60;0.7890625;violin
159.268006;0.2439019999999914;62;0.7890625;violin
159.511908;0.24390200000001983;59;0.7890625;violin
159.75581000000003;0.2439019999999914;62;0.7890625;violin
159.99971200000002;0.2439019999999914;57;0.7890625;violin
160.243614;0.24390200000001983;62;0.7890625;violin
160.48751600000003;0.21341424999999958;55;0.7890625;violin
160.73141800000002;0.2439019999999914;62;0.7890625;violin
160.97532;0.2439019999999914;63;0.7890625;violin
161.219222;0.24390200000001983;62;0.7890625;violin
161.46312400000002;0.2439019999999914;64;0.7890625;violin
161.707026;0.2439019999999914;62;0.7890625;violin
161.950928;0.24390200000001983;66;0.7890625;violin
162.19483000000002;0.2439019999999914;62;0.7890625;violin
162.43873200000002;0.21341424999999958;67;0.7890625;violin
162.682634;0.24390200000001983;62;0.7890625;violin
162.92653600000003;0.2439019999999914;60;0.7890625;violin
163.17043800000002;0.2439019999999914;62;0.7890625;violin
163.41434;0.2439019999999914;59;0.7890625;violin
163.658242;0.24390200000001983;62;0.7890625;violin
163.90214400000002;0.2439019999999914;57;0.7890625;violin
164.146046;0.2439019999999914;62;0.7890625;violin
164.389948;0.42682849999999917;55;0.7890625;violin
164.87775200000002;0.48780400000001123;67;0.7890625;violin
165.36555600000003;0.4878039999999828;71;0.7890625;violin
165.85336;0.48780400000001123;74;0.7890625;violin
166.34116400000002;0.42682849999999917;75;0.7890625;violin
166.828968;0.48780400000001123;74;0.7890625;violin
167.31677200000001;0.48780400000001123;78;0.7890625;violin
167.80457600000003;0.4878039999999828;74;0.7890625;violin
168.29238;0.42682849999999917;79;0.7890625;violin
168.78018400000002;0.4878039999999828;67;0.7890625;violin
169.267988;0.48780400000001123;71;0.7890625;violin
169.755792;0.48780400000001123;74;0.7890625;violin
170.24359600000003;0.42682849999999917;76;0.7890625;violin
170.7314;0.48780400000001123;74;0.7890625;violin
171.21920400000002;0.4878039999999828;78;0.7890625;violin
171.707008;0.48780400000001123;74;0.7890625;violin
172.194812;0.42682849999999917;79;0.7890625;violin
172.68261600000002;0.4878039999999828;67;0.7890625;violin
173.17042;0.48780400000001123;71;0.7890625;violin
173.65822400000002;0.48780400000001123;74;0.7890625;violin
174.14602800000003;0.42682849999999917;75;0.7890625;violin
174.633832;0.48780400000001123;74;0.7890625;violin
175.12163600000002;0.4878039999999828;78;0.7890625;violin
175.60944;0.48780400000001123;74;0.7890625;violin
176.09724400000002;0.21341424999999958;79;0.7890625;violin
176.341146;0.24390200000001983;74;0.7890625;violin
176.58504800000003;0.2439019999999914;75;0.7890625;violin
176.82895000000002;0.2439019999999914;74;0.7890625;violin
177.072852;0.2439019999999914;76;0.7890625;violin
177.316754;0.24390200000001983;74;0.7890625;violin
177.56065600000002;0.2439019999999914;78;0.7890625;violin
177.80455800000001;0.2439019999999914;74;0.7890625;violin
178.04846;0.21341424999999958;79;0.7890625;violin
178.29236200000003;0.2439019999999914;74;0.7890625;violin
178.53626400000002;0.2439019999999914;75;0.7890625;violin
178.780166;0.24390200000001983;74;0.7890625;violin
179.02406800000003;0.2439019999999914;76;0.7890625;violin
179.26797000000002;0.2439019999999914;74;0.7890625;violin
179.511872;0.2439019999999914;78;0.7890625;violin
179.755774;0.24390200000001983;74;0.7890625;violin
179.99967600000002;0.21341424999999958;79;0.7890625;violin
181.46308800000003;0.4878039999999828;62;0.7890625;violin
181.950892;0.48780400000001123;67;0.7890625;violin
182.43869600000002;0.42682849999999917;71;0.7890625;violin
182.9265;0.42682849999999917;74;0.7890625;violin
183.41430400000002;0.42682849999999917;79;0.7890625;violin
183.90210800000003;0.42682849999999917;83;0.7890625;violin
184.389912;0.42682849999999917;79;0.7890625;violin
184.87771600000002;0.42682849999999917;74;0.7890625;violin
185.36552;0.42682849999999917;71;0.7890625;violin
185.85332400000001;0.42682849999999917;67;0.7890625;violin
186.828932;0.42682849999999917;55;0.7890625;violin
186.828932;0.42682849999999917;62;0.7890625;violin
186.828932;0.42682849999999917;71;0.7890625;violin
186.828932;0.42682849999999917;83;0.7890625;violin
187.80454;0.4268285000000276;55;0.7890625;violin
187.80454;0.4268285000000276;62;0.7890625;violin
187.80454;0.4268285000000276;71;0.7890625;violin
187.80454;0.4268285000000276;79;0.7890625;violin
