start;duration;pitch;velocity;instrument
0.0;1.951216;62;0.7890625;violin
0.0;0.243902;72;0.7578125;violin
0.243902;0.243902;74;0.7578125;violin
0.487804;0.24390200000000006;76;0.7578125;violin
0.7317060000000001;0.24390199999999995;74;0.7578125;violin
0.975608;0.24390200000000006;72;0.7578125;violin
1.21951;0.24390200000000006;71;0.7578125;violin
1.4634120000000002;0.24390200000000006;72;0.7578125;violin
1.7073140000000002;0.24390199999999984;69;0.7578125;violin
1.951216;0.365853;62;0.7890625;violin
1.951216;0.365853;71;0.7890625;violin
2.43902;0.24390199999999984;62;0.7890625;violin
2.9268240000000003;0.24390199999999984;67;0.7890625;violin
3.4146280000000004;0.24390199999999984;59;0.7890625;violin
3.902432;0.24390200000000029;60;0.7890625;violin
3.902432;0.24390200000000029;62;0.7890625;violin
4.390236000000001;0.2439019999999994;60;0.7890625;violin
4.390236000000001;0.2439019999999994;62;0.7890625;violin
4.87804;0.24390200000000029;57;0.7578125;violin
4.87804;0.9756080000000003;62;0.7890625;violin
5.121942000000001;0.2439019999999994;59;0.7578125;violin
5.365844;0.24390200000000029;60;0.7578125;violin
5.609746;0.24390200000000029;57;0.7578125;violin
5.853648000000001;0.36585299999999954;59;0.7890625;violin
5.853648000000001;0.36585299999999954;62;0.7890625;violin
6.341452;0.24390200000000029;59;0.7890625;violin
6.341452;0.24390200000000029;62;0.7890625;violin
6.829256000000001;0.2439019999999994;55;0.7890625;violin
6.829256000000001;0.2439019999999994;67;0.7890625;violin
7.317060000000001;0.24390200000000029;67;0.7890625;violin
7.317060000000001;0.24390200000000029;71;0.7890625;violin
7.804864;1.9512160000000005;62;0.7890625;violin
7.804864;0.24390200000000029;72;0.7578125;violin
8.048766;0.24390200000000029;74;0.7578125;violin
8.292668;0.24390200000000029;76;0.7578125;violin
8.536570000000001;0.24390200000000029;74;0.7578125;violin
8.780472000000001;0.24390200000000029;72;0.7578125;violin
9.024374000000002;0.2439019999999985;71;0.7578125;violin
9.268276;0.24390200000000029;72;0.7578125;violin
9.512178;0.24390200000000029;69;0.7578125;violin
9.75608;0.36585299999999954;62;0.7890625;violin
9.75608;0.36585299999999954;71;0.7890625;violin
10.243884000000001;0.24390200000000029;62;0.7890625;violin
10.243884000000001;0.24390200000000029;71;0.7890625;violin
10.731688;0.24390200000000029;59;0.7890625;violin
10.731688;0.24390200000000029;67;0.7890625;violin
11.219492;0.24390200000000029;59;0.7890625;violin
11.219492;0.24390200000000029;62;0.7890625;violin
11.707296000000001;0.24390200000000029;60;0.7890625;violin
11.707296000000001;0.24390200000000029;64;0.7890625;violin
12.195100000000002;0.2439019999999985;64;0.7890625;violin
12.195100000000002;0.2439019999999985;72;0.7890625;violin
12.682904;0.24390200000000029;72;0.7890625;violin
12.682904;0.24390200000000029;76;0.7890625;violin
13.170708000000001;0.42682849999999917;62;0.7890625;violin
13.170708000000001;0.42682849999999917;72;0.7890625;violin
13.170708000000001;0.42682849999999917;78;0.7890625;violin
13.658512000000002;0.42682849999999917;55;0.7890625;violin
13.658512000000002;0.42682849999999917;62;0.7890625;violin
13.658512000000002;0.42682849999999917;71;0.7890625;violin
13.658512000000002;0.42682849999999917;79;0.7890625;violin
14.146316;0.21341425000000136;74;0.7890625;violin
14.390218;0.21341424999999958;71;0.7890625;violin
14.634120000000001;0.42682850000000094;67;0.7890625;violin
15.609728;1.9512160000000023;62;0.7890625;violin
15.609728;0.24390200000000029;72;0.7578125;violin
15.85363;0.24390200000000029;74;0.7578125;violin
16.097532;0.24390200000000206;76;0.7578125;violin
16.341434000000003;0.2439019999999985;74;0.7578125;violin
16.585336;0.2439019999999985;72;0.7578125;violin
16.829238;0.24390200000000206;71;0.7578125;violin
17.073140000000002;0.2439019999999985;72;0.7578125;violin
17.317042;0.24390200000000206;69;0.7578125;violin
17.560944000000003;0.36585299999999776;62;0.7890625;violin
17.560944000000003;0.36585299999999776;71;0.7890625;violin
18.048748000000003;0.2439019999999985;62;0.7890625;violin
18.536552;0.24390200000000206;67;0.7890625;violin
19.024356;0.24390200000000206;59;0.7890625;violin
19.51216;0.2439019999999985;60;0.7890625;violin
19.51216;0.2439019999999985;62;0.7890625;violin
19.999964000000002;0.2439019999999985;60;0.7890625;violin
19.999964000000002;0.2439019999999985;62;0.7890625;violin
20.487768000000003;0.2439019999999985;57;0.7578125;violin
20.487768000000003;0.9756079999999976;62;0.7890625;violin
20.73167;0.24390200000000206;59;0.7578125;violin
20.975572000000003;0.2439019999999985;60;0.7578125;violin
21.219474;0.2439019999999985;57;0.7578125;violin
21.463376;0.3658530000000013;59;0.7890625;violin
21.463376;0.3658530000000013;62;0.7890625;violin
21.95118;0.24390200000000206;59;0.7890625;violin
21.95118;0.24390200000000206;62;0.7890625;violin
22.438984;0.24390200000000206;55;0.7890625;violin
22.438984;0.24390200000000206;67;0.7890625;violin
22.926788000000002;0.2439019999999985;67;0.7890625;violin
22.926788000000002;0.2439019999999985;71;0.7890625;violin
23.414592000000003;1.9512159999999987;62;0.7890625;violin
23.414592000000003;0.2439019999999985;72;0.7578125;violin
23.658494;0.24390200000000206;74;0.7578125;violin
23.902396000000003;0.2439019999999985;76;0.7578125;violin
24.146298;0.24390200000000206;74;0.7578125;violin
24.390200000000004;0.2439019999999985;72;0.7578125;violin
24.634102000000002;0.2439019999999985;71;0.7578125;violin
24.878004;0.24390200000000206;72;0.7578125;violin
25.121906000000003;0.2439019999999985;69;0.7578125;violin
25.365808;0.3658530000000013;62;0.7890625;violin
25.365808;0.3658530000000013;71;0.7890625;violin
25.853612000000002;0.24390200000000206;62;0.7890625;violin
25.853612000000002;0.24390200000000206;71;0.7890625;violin
26.341416000000002;0.2439019999999985;59;0.7890625;violin
26.341416000000002;0.2439019999999985;67;0.7890625;violin
26.829220000000003;0.2439019999999985;59;0.7890625;violin
26.829220000000003;0.2439019999999985;62;0.7890625;violin
27.317024000000004;0.2439019999999985;60;0.7890625;violin
27.317024000000004;0.2439019999999985;64;0.7890625;violin
27.804828000000004;0.2439019999999985;64;0.7890625;violin
27.804828000000004;0.2439019999999985;72;0.7890625;violin
28.292632;0.24390200000000206;72;0.7890625;violin
28.292632;0.24390200000000206;76;0.7890625;violin
28.780436;0.42682849999999917;62;0.7890625;violin
28.780436;0.42682849999999917;72;0.7890625;violin
28.780436;0.42682849999999917;78;0.7890625;violin
29.268240000000002;0.42682849999999917;55;0.7890625;violin
29.268240000000002;0.42682849999999917;62;0.7890625;violin
29.268240000000002;0.42682849999999917;71;0.7890625;violin
29.268240000000002;0.42682849999999917;79;0.7890625;violin
29.756044000000003;0.21341424999999958;74;0.7890625;violin
29.999946;0.21341424999999958;71;0.7890625;violin
30.243848000000003;0.42682849999999917;67;0.7890625;violin
31.219456;0.24390200000000206;64;0.7890625;violin
31.463358000000003;0.21341424999999958;68;0.7890625;violin
31.70726;0.21341424999999958;71;0.7890625;violin
31.951162000000004;0.21341424999999958;74;0.7890625;violin
32.195064;0.21341424999999958;72;0.7890625;violin
32.438966;0.21341424999999958;71;0.7890625;violin
32.682868000000006;0.42682849999999917;69;0.7890625;violin
33.170672;0.2439019999999985;71;0.7578125;violin
33.170672;0.9756080000000011;76;0.7890625;violin
33.414574;0.2439019999999985;74;0.7578125;violin
33.658476;0.24390200000000561;72;0.7578125;violin
33.902378000000006;0.2439019999999985;71;0.7578125;violin
34.146280000000004;0.42682849999999917;72;0.7890625;violin
34.146280000000004;0.42682849999999917;76;0.7890625;violin
34.634084;0.42682849999999917;81;0.7890625;violin
35.121888000000006;0.2439019999999985;62;0.7890625;violin
35.365790000000004;0.21341424999999958;66;0.7890625;violin
35.609692;0.2439019999999985;69;0.7890625;violin
35.853594;0.21341424999999958;72;0.7890625;violin
36.09749600000001;0.21341424999999958;71;0.7890625;violin
36.341398000000005;0.2439019999999985;69;0.7890625;violin
36.585300000000004;0.42682849999999917;67;0.7890625;violin
37.073104;0.24390200000000561;57;0.7578125;violin
37.073104;1.4024365000000003;62;0.7890625;violin
37.317006000000006;0.21341424999999958;60;0.7578125;violin
37.560908000000005;0.21341424999999958;59;0.7578125;violin
37.80481;0.21341424999999958;57;0.7578125;violin
38.048712;0.42682849999999917;59;0.7890625;violin
38.536516000000006;0.42682849999999917;67;0.7890625;violin
39.02432;0.2439019999999985;57;0.7890625;violin
39.02432;0.2439019999999985;67;0.7890625;violin
39.02432;0.2439019999999985;73;0.7890625;violin
39.268222;0.21341424999999958;74;0.7890625;violin
39.512124;0.24390200000000561;76;0.7890625;violin
39.756026000000006;0.21341424999999958;74;0.7890625;violin
39.999928000000004;0.2439019999999985;73;0.7890625;violin
40.24383;0.21341424999999958;71;0.7890625;violin
40.487732;0.21341424999999958;69;0.7890625;violin
40.73163400000001;0.21341424999999958;71;0.7890625;violin
40.975536000000005;0.2439019999999985;73;0.7890625;violin
41.219438000000004;0.21341424999999958;74;0.7890625;violin
41.46334;0.21341424999999958;76;0.7890625;violin
41.707242;0.21341424999999958;78;0.7890625;violin
41.951144000000006;0.21341424999999958;79;0.7890625;violin
42.195046000000005;0.21341424999999958;81;0.7890625;violin
42.438948;0.42682849999999917;83;0.7890625;violin
42.926752;1.9512160000000023;69;0.7578125;violin
42.926752;0.24390200000000561;79;0.7890625;violin
43.170654000000006;0.2439019999999985;81;0.7890625;violin
43.414556000000005;0.2439019999999985;83;0.7890625;violin
43.658458;0.2439019999999985;81;0.7890625;violin
43.90236;0.24390200000000561;79;0.7890625;violin
44.14626200000001;0.2439019999999985;81;0.7890625;violin
44.390164000000006;0.2439019999999985;83;0.7890625;violin
44.634066000000004;0.21341424999999958;81;0.7890625;violin
44.877968;0.2439019999999985;69;0.7890625;violin
44.877968;0.2439019999999985;79;0.7890625;violin
45.12187;0.21341424999999958;78;0.7890625;violin
45.36577200000001;0.21341424999999958;76;0.7890625;violin
45.609674000000005;0.21341424999999958;74;0.7890625;violin
45.853576000000004;0.8536569999999983;73;0.7890625;violin
46.829184000000005;1.9512160000000023;62;0.7890625;violin
46.829184000000005;0.2439019999999985;72;0.7578125;violin
47.073086;0.2439019999999985;74;0.7578125;violin
47.316988;0.24390200000000561;76;0.7578125;violin
47.56089000000001;0.2439019999999985;74;0.7578125;violin
47.804792000000006;0.2439019999999985;72;0.7578125;violin
48.048694000000005;0.2439019999999985;71;0.7578125;violin
48.292596;0.2439019999999985;72;0.7578125;violin
48.536498;0.24390200000000561;69;0.7578125;violin
48.78040000000001;0.3658529999999942;62;0.7890625;violin
48.78040000000001;0.3658529999999942;71;0.7890625;violin
49.268204000000004;0.2439019999999985;62;0.7890625;violin
49.756008;0.24390200000000561;67;0.7890625;violin
50.243812000000005;0.2439019999999985;59;0.7890625;violin
50.731616;0.2439019999999985;60;0.7890625;violin
50.731616;0.2439019999999985;62;0.7890625;violin
51.21942000000001;0.2439019999999985;60;0.7890625;violin
51.21942000000001;0.2439019999999985;62;0.7890625;violin
51.707224000000004;0.2439019999999985;57;0.7578125;violin
51.707224000000004;0.9756080000000011;62;0.7890625;violin
51.951126;0.24390200000000561;59;0.7578125;violin
52.19502800000001;0.2439019999999985;60;0.7578125;violin
52.438930000000006;0.2439019999999985;57;0.7578125;violin
52.682832000000005;0.42682849999999917;59;0.7890625;violin
52.682832000000005;0.42682849999999917;62;0.7890625;violin
53.170636;0.24390200000000561;59;0.7890625;violin
53.170636;0.24390200000000561;62;0.7890625;violin
53.658440000000006;0.2439019999999985;55;0.7890625;violin
53.658440000000006;0.2439019999999985;67;0.7890625;violin
54.146244;0.2439019999999985;67;0.7890625;violin
54.146244;0.2439019999999985;71;0.7890625;violin
54.63404800000001;1.9512159999999952;62;0.7890625;violin
54.63404800000001;0.2439019999999985;72;0.7578125;violin
54.877950000000006;0.2439019999999985;74;0.7578125;violin
55.121852000000004;0.2439019999999985;76;0.7578125;violin
55.365754;0.24390200000000561;74;0.7578125;violin
55.60965600000001;0.2439019999999985;72;0.7578125;violin
55.85355800000001;0.2439019999999985;71;0.7578125;violin
56.097460000000005;0.2439019999999985;74;0.7578125;violin
56.341362000000004;0.2439019999999985;69;0.7578125;violin
56.585264;0.3658530000000013;62;0.7890625;violin
56.585264;0.3658530000000013;71;0.7890625;violin
57.073068000000006;0.2439019999999985;62;0.7890625;violin
57.073068000000006;0.2439019999999985;71;0.7890625;violin
57.560872;0.2439019999999985;59;0.7890625;violin
57.560872;0.2439019999999985;67;0.7890625;violin
58.04867600000001;0.2439019999999985;59;0.7890625;violin
58.04867600000001;0.2439019999999985;62;0.7890625;violin
58.536480000000005;0.42682849999999917;60;0.7890625;violin
58.536480000000005;0.42682849999999917;64;0.7890625;violin
59.02428400000001;0.2439019999999985;64;0.7890625;violin
59.02428400000001;0.2439019999999985;72;0.7890625;violin
59.512088000000006;0.2439019999999985;72;0.7890625;violin
59.512088000000006;0.2439019999999985;76;0.7890625;violin
59.999892;0.42682849999999917;62;0.7890625;violin
59.999892;0.42682849999999917;72;0.7890625;violin
59.999892;0.42682849999999917;78;0.7890625;violin
60.48769600000001;0.42682849999999917;55;0.7890625;violin
60.48769600000001;0.42682849999999917;62;0.7890625;violin
60.48769600000001;0.42682849999999917;71;0.7890625;violin
60.48769600000001;0.42682849999999917;79;0.7890625;violin
60.975500000000004;0.21341424999999958;74;0.7890625;violin
61.219402;0.21341424999999958;71;0.7890625;violin
61.46330400000001;0.42682849999999917;67;0.7890625;violin
62.438912;0.24390200000000561;64;0.7890625;violin
62.68281400000001;0.21341424999999958;68;0.7890625;violin
62.926716000000006;0.21341424999999958;71;0.7890625;violin
63.170618000000005;0.21341424999999958;74;0.7890625;violin
63.41452;0.21341424999999958;72;0.7890625;violin
63.65842200000001;0.21341424999999958;71;0.7890625;violin
63.90232400000001;0.42682849999999917;69;0.7890625;violin
64.390128;0.24390200000000561;71;0.7578125;violin
64.390128;0.9756080000000082;76;0.7890625;violin
64.63403000000001;0.2439019999999914;74;0.7578125;violin
64.877932;0.24390200000000561;72;0.7578125;violin
65.121834;0.24390200000000561;71;0.7578125;violin
65.36573600000001;0.42682849999999917;72;0.7890625;violin
65.36573600000001;0.42682849999999917;76;0.7890625;violin
65.85354000000001;0.42682849999999917;81;0.7890625;violin
66.341344;0.24390200000000561;62;0.7890625;violin
66.58524600000001;0.21341424999999958;66;0.7890625;violin
66.829148;0.24390200000000561;69;0.7890625;violin
67.07305000000001;0.21341424999999958;72;0.7890625;violin
67.316952;0.21341424999999958;71;0.7890625;violin
67.560854;0.24390200000000561;69;0.7890625;violin
67.80475600000001;0.42682849999999917;67;0.7890625;violin
68.29256000000001;0.2439019999999914;57;0.7578125;violin
68.29256000000001;1.4024364999999932;62;0.7890625;violin
68.536462;0.21341424999999958;60;0.7578125;violin
68.780364;0.21341424999999958;59;0.7578125;violin
69.02426600000001;0.21341424999999958;57;0.7578125;violin
69.268168;0.42682849999999917;59;0.7890625;violin
69.755972;0.4268285000000134;67;0.7890625;violin
70.24377600000001;0.2439019999999914;57;0.7890625;violin
70.24377600000001;0.2439019999999914;67;0.7890625;violin
70.24377600000001;0.2439019999999914;73;0.7890625;violin
70.487678;0.21341424999999958;74;0.7890625;violin
70.73158000000001;0.2439019999999914;76;0.7890625;violin
70.975482;0.2134142500000138;74;0.7890625;violin
71.219384;0.24390200000000561;73;0.7890625;violin
71.46328600000001;0.21341424999999958;71;0.7890625;violin
71.707188;0.21341424999999958;69;0.7890625;violin
71.95109000000001;0.21341424999999958;71;0.7890625;violin
72.19499200000001;0.2439019999999914;73;0.7890625;violin
72.438894;0.21341424999999958;74;0.7890625;violin
72.68279600000001;0.21341424999999958;76;0.7890625;violin
72.926698;0.21341424999999958;78;0.7890625;violin
73.17060000000001;0.21341424999999958;79;0.7890625;violin
73.41450200000001;0.21341424999999958;81;0.7890625;violin
73.658404;0.42682849999999917;83;0.7890625;violin
74.146208;1.9512160000000023;69;0.7578125;violin
74.146208;0.24390200000000561;79;0.7890625;violin
74.39011;0.24390200000000561;81;0.7890625;violin
74.63401200000001;0.2439019999999914;83;0.7890625;violin
74.877914;0.24390200000000561;81;0.7890625;violin
75.12181600000001;0.2439019999999914;79;0.7890625;violin
75.365718;0.24390200000000561;81;0.7890625;violin
75.60962;0.24390200000000561;83;0.7890625;violin
75.85352200000001;0.21341424999999958;81;0.7890625;violin
76.097424;0.24390200000000561;69;0.7890625;violin
76.097424;0.24390200000000561;79;0.7890625;violin
76.34132600000001;0.21341424999999958;78;0.7890625;violin
76.585228;0.21341424999999958;76;0.7890625;violin
76.82913;0.21341424999999958;74;0.7890625;violin
77.07303200000001;0.8536569999999983;73;0.7890625;violin
78.04864;1.9512160000000023;62;0.7890625;violin
78.04864;0.24390200000000561;72;0.7578125;violin
78.29254200000001;0.2439019999999914;74;0.7578125;violin
78.536444;0.24390200000000561;76;0.7578125;violin
78.78034600000001;0.2439019999999914;74;0.7578125;violin
79.024248;0.24390200000000561;72;0.7578125;violin
79.26815;0.24390200000000561;71;0.7578125;violin
79.51205200000001;0.2439019999999914;72;0.7578125;violin
79.755954;0.24390200000000561;69;0.7578125;violin
79.99985600000001;0.3658530000000013;62;0.7890625;violin
79.99985600000001;0.3658530000000013;71;0.7890625;violin
80.48766;0.24390200000000561;62;0.7890625;violin
80.975464;0.24390200000000561;67;0.7890625;violin
81.46326800000001;0.2439019999999914;59;0.7890625;violin
81.95107200000001;0.2439019999999914;60;0.7890625;violin
81.95107200000001;0.2439019999999914;62;0.7890625;violin
82.43887600000001;0.24390200000000561;60;0.7890625;violin
82.43887600000001;0.24390200000000561;62;0.7890625;violin
82.92668;0.24390200000000561;57;0.7578125;violin
82.92668;0.9756080000000082;62;0.7890625;violin
83.17058200000001;0.2439019999999914;59;0.7578125;violin
83.414484;0.24390200000000561;60;0.7578125;violin
83.65838600000001;0.24390200000000561;57;0.7578125;violin
83.90228800000001;0.42682849999999917;59;0.7890625;violin
83.90228800000001;0.42682849999999917;62;0.7890625;violin
84.39009200000001;0.2439019999999914;59;0.7890625;violin
84.39009200000001;0.2439019999999914;62;0.7890625;violin
84.877896;0.24390200000000561;55;0.7890625;violin
84.877896;0.24390200000000561;67;0.7890625;violin
85.3657;0.24390200000000561;67;0.7890625;violin
85.3657;0.24390200000000561;71;0.7890625;violin
85.853504;1.9512160000000023;62;0.7890625;violin
85.853504;0.24390200000000561;72;0.7578125;violin
86.097406;0.24390200000000561;74;0.7578125;violin
86.34130800000001;0.2439019999999914;76;0.7578125;violin
86.58521;0.24390200000000561;74;0.7578125;violin
86.82911200000001;0.24390200000000561;72;0.7578125;violin
87.07301400000001;0.2439019999999914;71;0.7578125;violin
87.316916;0.24390200000000561;74;0.7578125;violin
87.56081800000001;0.2439019999999914;69;0.7578125;violin
87.80472;0.3658530000000013;62;0.7890625;violin
87.80472;0.3658530000000013;71;0.7890625;violin
88.29252400000001;0.2439019999999914;62;0.7890625;violin
88.29252400000001;0.2439019999999914;71;0.7890625;violin
88.78032800000001;0.2439019999999914;59;0.7890625;violin
88.78032800000001;0.2439019999999914;67;0.7890625;violin
89.26813200000001;0.24390200000000561;59;0.7890625;violin
89.26813200000001;0.24390200000000561;62;0.7890625;violin
89.755936;0.42682849999999917;60;0.7890625;violin
89.755936;0.42682849999999917;64;0.7890625;violin
90.24374;0.24390200000000561;64;0.7890625;violin
90.24374;0.24390200000000561;72;0.7890625;violin
90.73154400000001;0.2439019999999914;72;0.7890625;violin
90.73154400000001;0.2439019999999914;76;0.7890625;violin
91.21934800000001;0.42682849999999917;62;0.7890625;violin
91.21934800000001;0.42682849999999917;72;0.7890625;violin
91.21934800000001;0.42682849999999917;78;0.7890625;violin
91.70715200000001;0.42682849999999917;55;0.7890625;violin
91.70715200000001;0.42682849999999917;62;0.7890625;violin
91.70715200000001;0.42682849999999917;71;0.7890625;violin
91.70715200000001;0.42682849999999917;79;0.7890625;violin
92.194956;0.21341424999999958;74;0.7890625;violin
92.43885800000001;0.21341424999999958;71;0.7890625;violin
92.68276;0.4268285000000134;67;0.7890625;violin
