start;duration;pitch;velocity;instrument
0.0;0.49180300000000005;57;0.7578125;violin
0.49180300000000005;0.24590150000000005;58;0.7578125;violin
0.7377045000000001;0.2459015;59;0.7578125;violin
0.9836060000000001;0.2459015000000001;60;0.7578125;violin
1.2295075000000002;0.2459015;61;0.7578125;violin
1.4754090000000002;0.2459015;62;0.7578125;violin
1.7213105000000002;0.2459015;57;0.7578125;violin
1.9672120000000002;0.24590150000000022;62;0.7578125;violin
2.2131135000000004;0.2459015;66;0.7578125;violin
2.4590150000000004;0.491803;69;0.7578125;violin
2.9508180000000004;0.2459015;70;0.7578125;violin
3.1967195000000004;0.2459015;69;0.7578125;violin
3.4426210000000004;0.2459015;71;0.7578125;violin
3.6885225000000004;0.2459015;69;0.7578125;violin
3.9344240000000004;0.2459015;73;0.7578125;violin
4.1803255;0.24590150000000044;69;0.7578125;violin
4.426227000000001;0.24590149999999955;74;0.7578125;violin
4.6721285;0.24590150000000044;69;0.7578125;violin
4.918030000000001;0.24590149999999955;74;0.7578125;violin
5.1639315;0.24590150000000044;78;0.7578125;violin
5.409833000000001;0.43032762499999944;81;0.7578125;violin
5.901636000000001;0.491803;69;0.7578125;violin
6.393439000000001;0.24590149999999955;70;0.7578125;violin
6.6393405;0.24590150000000044;71;0.7578125;violin
6.885242000000001;0.24590149999999955;72;0.7578125;violin
7.1311435;0.24590150000000044;73;0.7578125;violin
7.377045000000001;0.24590149999999955;74;0.7578125;violin
7.6229465;0.24590150000000044;69;0.7578125;violin
7.868848000000001;0.24590149999999955;74;0.7578125;violin
8.1147495;0.24590150000000044;78;0.7578125;violin
8.360651;0.4303276250000003;81;0.7578125;violin
8.852454000000002;0.24590149999999866;82;0.7578125;violin
9.0983555;0.24590150000000044;81;0.7578125;violin
9.344257;0.24590150000000044;83;0.7578125;violin
9.590158500000001;0.24590150000000044;81;0.7578125;violin
9.836060000000002;0.24590149999999866;85;0.7578125;violin
10.0819615;0.24590150000000044;81;0.7578125;violin
10.327863;0.21516381250000016;86;0.7578125;violin
10.573764500000001;0.24590150000000044;81;0.7578125;violin
10.819666000000002;0.24590149999999866;82;0.7578125;violin
11.0655675;0.24590150000000044;81;0.7578125;violin
11.311469;0.24590150000000044;85;0.7578125;violin
11.557370500000001;0.24590150000000044;81;0.7578125;violin
11.803272000000002;0.21516381250000016;86;0.7578125;violin
12.049173500000002;0.24590149999999866;81;0.7578125;violin
12.295075;0.24590150000000044;82;0.7578125;violin
12.540976500000001;0.24590150000000044;83;0.7578125;violin
12.786878000000002;0.24590150000000044;84;0.7578125;violin
13.032779500000002;0.24590149999999866;85;0.7578125;violin
13.278681;0.21516381250000016;86;0.7578125;violin
13.524582500000001;0.24590150000000044;81;0.7578125;violin
13.770484000000002;0.24590150000000044;82;0.7578125;violin
14.016385500000002;0.24590149999999866;83;0.7578125;violin
14.262287;0.24590150000000044;84;0.7578125;violin
14.508188500000001;0.24590150000000044;85;0.7578125;violin
14.754090000000001;0.21516381250000016;86;0.7578125;violin
14.999991500000002;0.24590149999999866;69;0.7578125;violin
15.245893;0.24590150000000044;70;0.7578125;violin
15.491794500000001;0.24590150000000044;71;0.7578125;violin
15.737696000000001;0.24590150000000044;72;0.7578125;violin
15.983597500000002;0.24590149999999866;73;0.7578125;violin
16.229499;0.21516381250000194;74;0.7578125;violin
16.475400500000003;0.24590149999999866;57;0.7578125;violin
16.721302;0.24590149999999866;58;0.7578125;violin
16.9672035;0.24590150000000222;59;0.7578125;violin
17.213105000000002;0.24590149999999866;60;0.7578125;violin
17.4590065;0.24590150000000222;61;0.7578125;violin
17.704908000000003;0.24590149999999866;62;0.7578125;violin
17.950809500000002;0.24590149999999866;57;0.7578125;violin
18.196711;0.24590150000000222;62;0.7578125;violin
18.442612500000003;0.24590149999999866;66;0.7578125;violin
18.688514;0.24590149999999866;69;0.7578125;violin
18.9344155;0.24590150000000222;73;0.7578125;violin
19.180317000000002;0.21516381249999839;74;0.7578125;violin
19.4262185;0.24590150000000222;69;0.7578125;violin
19.672120000000003;0.24590149999999866;74;0.7578125;violin
19.918021500000002;0.24590149999999866;78;0.7578125;violin
20.163923;0.24590150000000222;81;0.7578125;violin
20.409824500000003;0.24590149999999866;82;0.7578125;violin
20.655726;0.21516381250000194;83;0.7578125;violin
20.901627500000004;0.24590149999999866;81;0.7578125;violin
21.147529000000002;0.24590149999999866;79;0.7578125;violin
21.3934305;0.24590150000000222;78;0.7578125;violin
21.639332000000003;0.24590149999999866;76;0.7578125;violin
21.885233500000002;0.24590149999999866;74;0.7578125;violin
22.131135;0.24590150000000222;73;0.7578125;violin
22.377036500000003;0.24590149999999866;71;0.7578125;violin
22.622938;0.24590150000000222;69;0.7578125;violin
22.868839500000004;0.24590149999999866;67;0.7578125;violin
23.114741000000002;0.24590149999999866;66;0.7578125;violin
23.3606425;0.21516381250000194;64;0.7578125;violin
23.606544000000003;0.4918030000000009;62;0.7578125;violin
24.098347000000004;0.24590149999999866;63;0.7578125;violin
24.344248500000003;0.24590149999999866;64;0.7578125;violin
24.59015;0.24590150000000222;65;0.7578125;violin
24.836051500000004;0.24590149999999866;66;0.7578125;violin
25.081953000000002;0.24590149999999866;67;0.7578125;violin
25.3278545;0.24590150000000222;68;0.7578125;violin
25.573756000000003;0.24590149999999866;69;0.7578125;violin
25.8196575;0.24590150000000222;70;0.7578125;violin
26.065559000000004;0.24590149999999866;71;0.7578125;violin
26.311460500000003;0.21516381249999839;73;0.7578125;violin
26.557362;0.24590150000000222;74;0.7578125;violin
26.803263500000003;0.24590149999999866;69;0.7578125;violin
27.049165000000002;0.24590149999999866;66;0.7578125;violin
27.2950665;0.24590150000000222;62;0.7578125;violin
27.540968000000003;0.24590149999999866;66;0.7578125;violin
27.7868695;0.24590150000000222;69;0.7578125;violin
28.032771000000004;0.24590149999999866;74;0.7578125;violin
28.278672500000003;0.24590149999999866;78;0.7578125;violin
28.524574;0.24590150000000222;81;0.7578125;violin
28.770475500000003;0.24590149999999866;78;0.7578125;violin
29.016377000000002;0.24590150000000222;74;0.7578125;violin
29.262278500000004;0.24590149999999866;69;0.7578125;violin
29.508180000000003;0.4918030000000009;74;0.7578125;violin
29.999983000000004;0.24590149999999866;75;0.7578125;violin
30.245884500000003;0.24590149999999866;76;0.7578125;violin
30.491786;0.24590150000000222;77;0.7578125;violin
30.737687500000003;0.24590149999999866;78;0.7578125;violin
30.983589000000002;0.24590150000000222;79;0.7578125;violin
31.229490500000004;0.24590149999999866;80;0.7578125;violin
31.475392000000003;0.24590149999999866;81;0.7578125;violin
31.7212935;0.24590150000000222;82;0.7578125;violin
31.967195000000004;0.24590150000000222;83;0.7578125;violin
32.213096500000006;0.21516381249999483;85;0.7578125;violin
32.458998;0.24590150000000222;86;0.7578125;violin
32.7048995;0.24590150000000222;81;0.7578125;violin
32.950801000000006;0.2459014999999951;78;0.7578125;violin
33.1967025;0.24590150000000222;74;0.7578125;violin
33.442604;0.24590150000000222;69;0.7578125;violin
33.688505500000005;0.2459014999999951;66;0.7578125;violin
33.934407;0.24590150000000222;62;0.7578125;violin
34.1803085;0.24590150000000222;66;0.7578125;violin
34.426210000000005;0.2459014999999951;69;0.7578125;violin
34.6721115;0.24590150000000222;74;0.7578125;violin
34.918013;0.24590150000000222;78;0.7578125;violin
35.163914500000004;0.24590150000000222;81;0.7578125;violin
35.409816000000006;0.21516381249999483;86;0.7578125;violin
35.6557175;0.24590150000000222;81;0.7578125;violin
35.901619000000004;0.24590150000000222;82;0.7578125;violin
36.147520500000006;0.2459014999999951;83;0.7578125;violin
36.393422;0.24590150000000222;84;0.7578125;violin
36.6393235;0.24590150000000222;85;0.7578125;violin
36.885225000000005;0.21516381249999483;86;0.7578125;violin
37.1311265;0.24590150000000222;81;0.7578125;violin
37.377028;0.24590150000000222;82;0.7578125;violin
37.622929500000005;0.2459014999999951;83;0.7578125;violin
37.868831;0.24590150000000222;84;0.7578125;violin
38.1147325;0.24590150000000222;85;0.7578125;violin
38.360634000000005;0.43032762499999677;86;0.7578125;violin
38.852437;0.24590150000000222;74;0.7578125;violin
39.098338500000004;0.24590150000000222;76;0.7578125;violin
39.344240000000006;0.2459014999999951;78;0.7578125;violin
39.5901415;0.21516381250000194;79;0.7578125;violin
39.836043000000004;0.43032762499999677;81;0.7578125;violin
40.327846;0.24590150000000222;69;0.7578125;violin
40.5737475;0.24590150000000222;71;0.7578125;violin
40.819649000000005;0.2459014999999951;73;0.7578125;violin
41.0655505;0.21516381250000194;69;0.7578125;violin
41.311452;0.24590150000000222;74;0.7578125;violin
41.557353500000005;0.24590150000000222;69;0.7578125;violin
41.80325500000001;0.2459014999999951;70;0.7578125;violin
42.0491565;0.24590150000000222;71;0.7578125;violin
42.295058000000004;0.24590150000000222;72;0.7578125;violin
42.54095950000001;0.2459014999999951;73;0.7578125;violin
42.786861;0.21516381250000194;74;0.7578125;violin
43.032762500000004;0.24590150000000222;69;0.7578125;violin
43.278664000000006;0.2459014999999951;70;0.7578125;violin
43.5245655;0.24590150000000222;71;0.7578125;violin
43.770467000000004;0.24590150000000222;72;0.7578125;violin
44.016368500000006;0.2459014999999951;73;0.7578125;violin
44.26227;0.21516381250000194;74;0.7578125;violin
44.5081715;0.24590150000000222;83;0.7578125;violin
44.754073000000005;0.24590150000000222;82;0.7578125;violin
44.99997450000001;0.2459014999999951;81;0.7578125;violin
45.245876;0.24590150000000222;80;0.7578125;violin
45.491777500000005;0.24590150000000222;79;0.7578125;violin
45.73767900000001;0.21516381249999483;78;0.7578125;violin
45.9835805;0.24590150000000222;83;0.7578125;violin
46.229482000000004;0.24590150000000222;82;0.7578125;violin
46.47538350000001;0.2459014999999951;81;0.7578125;violin
46.721285;0.24590150000000222;80;0.7578125;violin
46.967186500000004;0.24590150000000222;79;0.7578125;violin
47.213088000000006;0.21516381249999483;78;0.7578125;violin
47.4589895;0.24590150000000222;83;0.7578125;violin
47.704891;0.24590150000000222;81;0.7578125;violin
47.950792500000006;0.24590150000000222;79;0.7578125;violin
48.19669400000001;0.2459014999999951;78;0.7578125;violin
48.4425955;0.24590150000000222;76;0.7578125;violin
48.688497000000005;0.21516381250000194;74;0.7578125;violin
48.93439850000001;0.2459014999999951;78;0.7578125;violin
49.1803;0.24590150000000222;76;0.7578125;violin
49.426201500000005;0.24590150000000222;74;0.7578125;violin
49.67210300000001;0.2459014999999951;73;0.7578125;violin
49.9180045;0.24590150000000222;71;0.7578125;violin
50.163906000000004;0.21516381250000194;69;0.7578125;violin
50.40980750000001;0.2459014999999951;74;0.7578125;violin
50.655709;0.24590150000000222;73;0.7578125;violin
50.901610500000004;0.24590150000000222;71;0.7578125;violin
51.147512000000006;0.24590150000000222;69;0.7578125;violin
51.39341350000001;0.2459014999999951;67;0.7578125;violin
51.639315;0.21516381250000194;66;0.7578125;violin
51.885216500000006;0.24590150000000222;71;0.7578125;violin
52.13111800000001;0.2459014999999951;69;0.7578125;violin
52.3770195;0.24590150000000222;67;0.7578125;violin
52.622921000000005;0.24590150000000222;66;0.7578125;violin
52.86882250000001;0.2459014999999951;64;0.7578125;violin
53.114724;0.21516381250000194;62;0.7578125;violin
53.360625500000005;0.24590150000000222;62;0.7578125;violin
53.60652700000001;0.2459014999999951;63;0.7578125;violin
53.8524285;0.24590150000000222;64;0.7578125;violin
54.098330000000004;0.24590150000000222;65;0.7578125;violin
54.34423150000001;0.2459014999999951;66;0.7578125;violin
54.590133;0.24590150000000222;67;0.7578125;violin
54.836034500000004;0.24590150000000222;68;0.7578125;violin
55.081936000000006;0.24590150000000222;69;0.7578125;violin
55.32783750000001;0.2459014999999951;70;0.7578125;violin
55.573739;0.24590150000000222;71;0.7578125;violin
55.819640500000006;0.24590150000000222;73;0.7578125;violin
56.06554200000001;0.21516381249999483;74;0.7578125;violin
56.3114435;0.24590150000000222;69;0.7578125;violin
56.557345000000005;0.24590150000000222;66;0.7578125;violin
56.80324650000001;0.2459014999999951;62;0.7578125;violin
57.049148;0.24590150000000222;66;0.7578125;violin
57.295049500000005;0.24590150000000222;69;0.7578125;violin
57.54095100000001;0.2459014999999951;74;0.7578125;violin
57.7868525;0.24590150000000222;78;0.7578125;violin
58.032754000000004;0.24590150000000222;81;0.7578125;violin
58.278655500000006;0.24590150000000222;78;0.7578125;violin
58.52455700000001;0.2459014999999951;74;0.7578125;violin
58.770458500000004;0.24590150000000222;69;0.7578125;violin
59.016360000000006;0.21516381250000194;74;0.7578125;violin
59.26226150000001;0.2459014999999951;74;0.7578125;violin
59.508163;0.24590150000000222;75;0.7578125;violin
59.754064500000005;0.24590150000000222;76;0.7578125;violin
59.99996600000001;0.2459014999999951;77;0.7578125;violin
60.2458675;0.24590150000000222;78;0.7578125;violin
60.491769000000005;0.24590150000000222;79;0.7578125;violin
60.73767050000001;0.2459014999999951;80;0.7578125;violin
60.983572;0.24590150000000222;81;0.7578125;violin
61.229473500000005;0.24590150000000222;82;0.7578125;violin
61.47537500000001;0.24590150000000222;83;0.7578125;violin
61.72127650000001;0.2459014999999951;85;0.7578125;violin
61.967178000000004;0.21516381250000194;86;0.7578125;violin
62.213079500000006;0.24590150000000222;81;0.7578125;violin
62.45898100000001;0.2459014999999951;78;0.7578125;violin
62.704882500000004;0.24590150000000222;74;0.7578125;violin
62.950784000000006;0.24590150000000222;69;0.7578125;violin
63.19668550000001;0.2459014999999951;66;0.7578125;violin
63.442587;0.24590150000000222;62;0.7578125;violin
63.688488500000005;0.24590150000000222;66;0.7578125;violin
63.93439000000001;0.24590150000000222;69;0.7578125;violin
64.18029150000001;0.24590150000000222;74;0.7578125;violin
64.42619300000001;0.245901499999988;78;0.7578125;violin
64.6720945;0.24590150000000222;81;0.7578125;violin
64.917996;0.4303276250000039;86;0.7578125;violin
65.409799;0.24590150000000222;74;0.7578125;violin
65.65570050000001;0.24590150000000222;76;0.7578125;violin
65.90160200000001;0.245901499999988;78;0.7578125;violin
66.1475035;0.21516381250000904;79;0.7578125;violin
66.393405;0.4303276250000039;81;0.7578125;violin
66.885208;0.24590150000000222;69;0.7578125;violin
67.13110950000001;0.24590150000000222;71;0.7578125;violin
67.37701100000001;0.24590150000000222;73;0.7578125;violin
67.62291250000001;0.245901499999988;69;0.7578125;violin
67.868814;0.21516381250000904;74;0.7578125;violin
68.1147155;0.24590150000000222;69;0.7578125;violin
68.360617;0.24590150000000222;70;0.7578125;violin
68.6065185;0.24590150000000222;71;0.7578125;violin
68.85242000000001;0.24590150000000222;72;0.7578125;violin
69.09832150000001;0.245901499999988;73;0.7578125;violin
69.344223;0.21516381250000904;74;0.7578125;violin
69.5901245;0.24590150000000222;83;0.7578125;violin
69.836026;0.24590150000000222;82;0.7578125;violin
70.0819275;0.24590150000000222;81;0.7578125;violin
70.32782900000001;0.24590150000000222;80;0.7578125;violin
70.57373050000001;0.24590150000000222;79;0.7578125;violin
70.81963200000001;0.21516381249999483;78;0.7578125;violin
71.0655335;0.24590150000000222;69;0.7578125;violin
71.311435;0.24590150000000222;70;0.7578125;violin
71.5573365;0.24590150000000222;71;0.7578125;violin
71.80323800000001;0.24590150000000222;72;0.7578125;violin
72.04913950000001;0.24590150000000222;73;0.7578125;violin
72.29504100000001;0.21516381249999483;74;0.7578125;violin
72.5409425;0.24590150000000222;82;0.7578125;violin
72.786844;0.24590150000000222;82;0.7578125;violin
73.0327455;0.24590150000000222;81;0.7578125;violin
73.278647;0.24590150000000222;80;0.7578125;violin
73.52454850000001;0.24590150000000222;79;0.7578125;violin
73.77045000000001;0.21516381249999483;78;0.7578125;violin
74.01635150000001;0.245901499999988;69;0.7578125;violin
74.262253;0.24590150000000222;70;0.7578125;violin
74.5081545;0.24590150000000222;71;0.7578125;violin
74.754056;0.24590150000000222;72;0.7578125;violin
74.99995750000001;0.24590150000000222;73;0.7578125;violin
75.24585900000001;0.21516381249999483;74;0.7578125;violin
75.49176050000001;0.245901499999988;57;0.7578125;violin
75.737662;0.24590150000000222;58;0.7578125;violin
75.9835635;0.24590150000000222;59;0.7578125;violin
76.229465;0.24590150000000222;60;0.7578125;violin
76.4753665;0.24590150000000222;61;0.7578125;violin
76.72126800000001;0.24590150000000222;62;0.7578125;violin
76.96716950000001;0.24590150000000222;66;0.7578125;violin
77.21307100000001;0.245901499999988;69;0.7578125;violin
77.4589725;0.24590150000000222;74;0.7578125;violin
77.704874;0.24590150000000222;78;0.7578125;violin
77.9507755;0.24590150000000222;81;0.7578125;violin
78.19667700000001;0.21516381249999483;86;0.7578125;violin
78.44257850000001;0.24590150000000222;81;0.7578125;violin
78.68848000000001;0.245901499999988;78;0.7578125;violin
78.9343815;0.24590150000000222;74;0.7578125;violin
79.180283;0.24590150000000222;69;0.7578125;violin
79.4261845;0.24590150000000222;66;0.7578125;violin
79.67208600000001;0.21516381249999483;62;0.7578125;violin
79.91798750000001;0.24590150000000222;66;0.7578125;violin
80.16388900000001;0.24590150000000222;69;0.7578125;violin
80.40979050000001;0.245901499999988;74;0.7578125;violin
80.655692;0.24590150000000222;78;0.7578125;violin
80.9015935;0.24590150000000222;83;0.7578125;violin
81.147495;0.21516381249999483;81;0.7578125;violin
81.39339650000001;0.24590150000000222;78;0.7578125;violin
81.63929800000001;0.24590150000000222;74;0.7578125;violin
81.88519950000001;0.245901499999988;69;0.7578125;violin
82.131101;0.24590150000000222;66;0.7578125;violin
82.3770025;0.24590150000000222;62;0.7578125;violin
82.622904;0.21516381250000904;61;0.7578125;violin
82.86880550000001;0.24590150000000222;57;0.7578125;violin
83.11470700000001;0.24590150000000222;61;0.7578125;violin
83.36060850000001;0.24590150000000222;64;0.7578125;violin
83.60651000000001;0.245901499999988;69;0.7578125;violin
83.8524115;0.24590150000000222;57;0.7578125;violin
84.098313;0.21516381250000904;68;0.7578125;violin
84.3442145;0.24590150000000222;69;0.7578125;violin
84.59011600000001;0.24590150000000222;70;0.7578125;violin
84.83601750000001;0.24590150000000222;71;0.7578125;violin
85.08191900000001;0.245901499999988;72;0.7578125;violin
85.3278205;0.24590150000000222;73;0.7578125;violin
85.573722;0.21516381250000904;74;0.7578125;violin
85.8196235;0.24590150000000222;69;0.7578125;violin
86.06552500000001;0.24590150000000222;74;0.7578125;violin
86.31142650000001;0.24590150000000222;78;0.7578125;violin
86.55732800000001;0.24590150000000222;81;0.7578125;violin
86.80322950000001;0.245901499999988;69;0.7578125;violin
87.049131;0.21516381250000904;71;0.7578125;violin
87.2950325;0.24590150000000222;69;0.7578125;violin
87.54093400000001;0.24590150000000222;67;0.7578125;violin
87.78683550000001;0.24590150000000222;66;0.7578125;violin
88.03273700000001;0.24590150000000222;64;0.7578125;violin
88.27863850000001;0.245901499999988;62;0.7578125;violin
88.52454;0.21516381250000904;61;0.7578125;violin
88.7704415;0.24590150000000222;57;0.7578125;violin
89.016343;0.24590150000000222;61;0.7578125;violin
89.26224450000001;0.24590150000000222;64;0.7578125;violin
89.50814600000001;0.24590150000000222;69;0.7578125;violin
89.75404750000001;0.24590150000000222;57;0.7578125;violin
89.99994900000002;0.21516381249999483;68;0.7578125;violin
90.2458505;0.24590150000000222;69;0.7578125;violin
90.491752;0.24590150000000222;70;0.7578125;violin
90.73765350000001;0.24590150000000222;71;0.7578125;violin
90.98355500000001;0.24590150000000222;72;0.7578125;violin
91.22945650000001;0.24590150000000222;73;0.7578125;violin
91.47535800000001;0.21516381249999483;74;0.7578125;violin
91.7212595;0.24590150000000222;69;0.7578125;violin
91.967161;0.24590150000000222;74;0.7578125;violin
92.2130625;0.24590150000000222;78;0.7578125;violin
92.45896400000001;0.24590150000000222;81;0.7578125;violin
92.70486550000001;0.24590150000000222;69;0.7578125;violin
92.95076700000001;0.21516381249999483;71;0.7578125;violin
93.19666850000002;0.245901499999988;69;0.7578125;violin
93.44257;0.24590150000000222;67;0.7578125;violin
93.6884715;0.24590150000000222;66;0.7578125;violin
93.93437300000001;0.24590150000000222;64;0.7578125;violin
94.18027450000001;0.24590150000000222;62;0.7578125;violin
94.42617600000001;0.21516381249999483;55;0.7578125;violin
94.67207750000001;0.245901499999988;59;0.7578125;violin
94.917979;0.24590150000000222;62;0.7578125;violin
95.1638805;0.24590150000000222;67;0.7578125;violin
95.409782;0.24590150000000222;71;0.7578125;violin
95.65568350000001;0.24590150000000222;74;0.7578125;violin
95.90158500000001;0.21516381249999483;79;0.7578125;violin
96.14748650000001;0.24590150000000222;81;0.7578125;violin
96.39338800000002;0.245901499999988;82;0.7578125;violin
96.6392895;0.24590150000000222;83;0.7578125;violin
96.885191;0.24590150000000222;84;0.7578125;violin
97.13109250000001;0.24590150000000222;85;0.7578125;violin
97.37699400000001;0.21516381249999483;86;0.7578125;violin
97.62289550000001;0.24590150000000222;81;0.7578125;violin
97.86879700000001;0.245901499999988;78;0.7578125;violin
98.1146985;0.24590150000000222;74;0.7578125;violin
98.3606;0.24590150000000222;69;0.7578125;violin
98.60650150000001;0.24590150000000222;66;0.7578125;violin
98.85240300000001;0.21516381249999483;62;0.7578125;violin
99.09830450000001;0.24590150000000222;66;0.7578125;violin
99.34420600000001;0.24590150000000222;67;0.7578125;violin
99.59010750000002;0.245901499999988;68;0.7578125;violin
99.836009;0.24590150000000222;69;0.7578125;violin
100.0819105;0.24590150000000222;70;0.7578125;violin
100.32781200000001;0.21516381249999483;71;0.7578125;violin
100.57371350000001;0.24590150000000222;83;0.7578125;violin
100.81961500000001;0.24590150000000222;82;0.7578125;violin
101.06551650000002;0.245901499999988;81;0.7578125;violin
101.311418;0.24590150000000222;80;0.7578125;violin
101.5573195;0.24590150000000222;79;0.7578125;violin
101.80322100000001;0.21516381249999483;78;0.7578125;violin
102.04912250000001;0.24590150000000222;81;0.7578125;violin
102.29502400000001;0.24590150000000222;80;0.7578125;violin
102.54092550000001;0.24590150000000222;79;0.7578125;violin
102.78682700000002;0.245901499999988;78;0.7578125;violin
103.0327285;0.24590150000000222;77;0.7578125;violin
103.27863;0.21516381250000904;76;0.7578125;violin
103.52453150000001;0.24590150000000222;81;0.7578125;violin
103.77043300000001;0.24590150000000222;76;0.7578125;violin
104.01633450000001;0.24590150000000222;73;0.7578125;violin
104.26223600000002;0.245901499999988;69;0.7578125;violin
104.5081375;0.24590150000000222;68;0.7578125;violin
104.754039;0.21516381250000904;71;0.7578125;violin
104.99994050000001;0.24590150000000222;69;0.7578125;violin
105.24584200000001;0.24590150000000222;67;0.7578125;violin
105.49174350000001;0.24590150000000222;66;0.7578125;violin
105.73764500000001;0.245901499999988;67;0.7578125;violin
105.9835465;0.24590150000000222;64;0.7578125;violin
106.229448;0.21516381250000904;62;0.7578125;violin
106.47534950000001;0.24590150000000222;57;0.7578125;violin
106.72125100000001;0.24590150000000222;58;0.7578125;violin
106.96715250000001;0.24590150000000222;59;0.7578125;violin
107.21305400000001;0.24590150000000222;60;0.7578125;violin
107.45895550000002;0.245901499999988;61;0.7578125;violin
107.704857;0.24590150000000222;62;0.7578125;violin
107.9507585;0.24590150000000222;66;0.7578125;violin
108.19666000000001;0.24590150000000222;67;0.7578125;violin
108.44256150000001;0.24590150000000222;68;0.7578125;violin
108.68846300000001;0.24590150000000222;69;0.7578125;violin
108.93436450000002;0.245901499999988;70;0.7578125;violin
109.180266;0.21516381250000904;71;0.7578125;violin
109.4261675;0.24590150000000222;76;0.7578125;violin
109.67206900000001;0.24590150000000222;79;0.7578125;violin
109.91797050000001;0.24590150000000222;78;0.7578125;violin
110.16387200000001;0.24590150000000222;76;0.7578125;violin
110.40977350000001;0.24590150000000222;74;0.7578125;violin
110.65567500000002;0.21516381249999483;73;0.7578125;violin
110.9015765;0.24590150000000222;71;0.7578125;violin
111.147478;0.24590150000000222;69;0.7578125;violin
111.39337950000001;0.24590150000000222;67;0.7578125;violin
111.63928100000001;0.24590150000000222;66;0.7578125;violin
111.88518250000001;0.24590150000000222;64;0.7578125;violin
112.13108400000002;0.21516381249999483;62;0.7578125;violin
112.3769855;0.24590150000000222;57;0.7578125;violin
112.622887;0.24590150000000222;58;0.7578125;violin
112.86878850000001;0.24590150000000222;59;0.7578125;violin
113.11469000000001;0.24590150000000222;60;0.7578125;violin
113.36059150000001;0.24590150000000222;61;0.7578125;violin
113.60649300000001;0.24590150000000222;62;0.7578125;violin
113.85239450000002;0.245901499999988;66;0.7578125;violin
114.098296;0.24590150000000222;67;0.7578125;violin
114.3441975;0.24590150000000222;68;0.7578125;violin
114.59009900000001;0.24590150000000222;69;0.7578125;violin
114.83600050000001;0.24590150000000222;70;0.7578125;violin
115.08190200000001;0.21516381249999483;71;0.7578125;violin
115.32780350000002;0.245901499999988;76;0.7578125;violin
115.573705;0.24590150000000222;79;0.7578125;violin
115.8196065;0.24590150000000222;78;0.7578125;violin
116.06550800000001;0.24590150000000222;76;0.7578125;violin
116.31140950000001;0.24590150000000222;74;0.7578125;violin
116.55731100000001;0.21516381249999483;73;0.7578125;violin
116.80321250000001;0.24590150000000222;71;0.7578125;violin
117.04911400000002;0.245901499999988;69;0.7578125;violin
117.2950155;0.24590150000000222;67;0.7578125;violin
117.54091700000001;0.24590150000000222;66;0.7578125;violin
117.78681850000001;0.24590150000000222;64;0.7578125;violin
118.03272000000001;0.21516381249999483;62;0.7578125;violin
118.27862150000001;0.24590150000000222;57;0.7578125;violin
118.52452300000002;0.245901499999988;56;0.7578125;violin
118.7704245;0.24590150000000222;57;0.7578125;violin
119.016326;0.24590150000000222;59;0.7578125;violin
119.26222750000001;0.24590150000000222;61;0.7578125;violin
119.50812900000001;0.24590150000000222;62;0.7578125;violin
119.75403050000001;0.24590150000000222;57;0.7578125;violin
119.99993200000002;0.24590150000000222;56;0.7578125;violin
120.24583350000002;0.245901499999988;57;0.7578125;violin
120.491735;0.24590150000000222;59;0.7578125;violin
120.73763650000001;0.24590150000000222;61;0.7578125;violin
120.98353800000001;0.24590150000000222;62;0.7578125;violin
121.22943950000001;0.24590150000000222;61;0.7578125;violin
121.47534100000001;0.24590150000000222;62;0.7578125;violin
121.72124250000002;0.245901499999988;64;0.7578125;violin
121.967144;0.24590150000000222;66;0.7578125;violin
122.2130455;0.24590150000000222;67;0.7578125;violin
122.45894700000001;0.24590150000000222;69;0.7578125;violin
122.70484850000001;0.24590150000000222;68;0.7578125;violin
122.95075000000001;0.24590150000000222;69;0.7578125;violin
123.19665150000002;0.24590150000000222;71;0.7578125;violin
123.44255300000002;0.245901499999988;73;0.7578125;violin
123.6884545;0.24590150000000222;69;0.7578125;violin
123.93435600000001;0.24590150000000222;74;0.7578125;violin
124.18025750000001;0.24590150000000222;69;0.7578125;violin
124.42615900000001;0.24590150000000222;68;0.7578125;violin
124.67206050000001;0.24590150000000222;69;0.7578125;violin
124.91796200000002;0.245901499999988;71;0.7578125;violin
125.1638635;0.24590150000000222;73;0.7578125;violin
125.40976500000001;0.24590150000000222;74;0.7578125;violin
125.65566650000001;0.24590150000000222;69;0.7578125;violin
125.90156800000001;0.24590150000000222;68;0.7578125;violin
126.14746950000001;0.24590150000000222;69;0.7578125;violin
126.39337100000002;0.24590150000000222;71;0.7578125;violin
126.63927250000002;0.245901499999988;73;0.7578125;violin
126.885174;0.24590150000000222;74;0.7578125;violin
127.13107550000001;0.24590150000000222;73;0.7578125;violin
127.37697700000001;0.24590150000000222;74;0.7578125;violin
127.62287850000001;0.24590150000000222;76;0.7578125;violin
127.86878000000002;0.24590150000000222;78;0.7578125;violin
128.11468150000002;0.24590150000000222;79;0.7578125;violin
128.36058300000002;0.24590150000000222;81;0.7578125;violin
128.60648450000002;0.24590150000000222;80;0.7578125;violin
128.85238600000002;0.2459014999999738;81;0.7578125;violin
129.0982875;0.24590150000000222;83;0.7578125;violin
129.344189;0.24590150000000222;85;0.7578125;violin
129.5900905;0.24590150000000222;81;0.7578125;violin
129.835992;0.21516381250000904;86;0.7578125;violin
130.0818935;0.24590150000000222;81;0.7578125;violin
130.327795;0.24590150000000222;82;0.7578125;violin
130.5736965;0.24590150000000222;83;0.7578125;violin
130.819598;0.24590150000000222;84;0.7578125;violin
131.06549950000002;0.24590150000000222;85;0.7578125;violin
131.31140100000002;0.21516381249998062;86;0.7578125;violin
131.55730250000002;0.24590150000000222;81;0.7578125;violin
131.80320400000002;0.24590150000000222;82;0.7578125;violin
132.04910550000002;0.2459014999999738;83;0.7578125;violin
132.295007;0.24590150000000222;84;0.7578125;violin
132.5409085;0.24590150000000222;85;0.7578125;violin
132.78681;0.21516381250000904;86;0.7578125;violin
133.0327115;0.24590150000000222;81;0.7578125;violin
133.278613;0.24590150000000222;82;0.7578125;violin
133.5245145;0.24590150000000222;83;0.7578125;violin
133.770416;0.24590150000000222;84;0.7578125;violin
134.0163175;0.24590150000000222;85;0.7578125;violin
134.26221900000002;0.21516381250000904;86;0.7578125;violin
134.50812050000002;0.24590150000000222;81;0.7578125;violin
134.75402200000002;0.24590150000000222;82;0.7578125;violin
134.99992350000002;0.24590150000000222;83;0.7578125;violin
135.24582500000002;0.2459014999999738;84;0.7578125;violin
135.4917265;0.24590150000000222;85;0.7578125;violin
135.737628;0.4303276250000181;86;0.7578125;violin
137.213037;0.43032762499998967;62;0.9921875;violin
137.213037;0.43032762499998967;74;0.9921875;violin
137.213037;0.43032762499998967;86;0.9921875;violin
138.688446;1.905736625000003;62;0.9921875;violin
