start;duration;pitch;velocity;instrument
0.0;0.16260133333333335;57;0.7578125;violin
0.16260133333333335;0.16260133333333335;56;0.7578125;violin
0.3252026666666667;0.16260133333333332;57;0.7578125;violin
0.487804;0.16260133333333338;61;0.7578125;violin
0.6504053333333334;0.16260133333333338;60;0.7578125;violin
0.8130066666666668;0.14227616666666665;61;0.7578125;violin
0.975608;0.16260133333333338;64;0.7578125;violin
1.1382093333333334;0.16260133333333338;63;0.7578125;violin
1.3008106666666668;0.16260133333333338;64;0.7578125;violin
1.4634120000000002;0.16260133333333338;69;0.7578125;violin
1.6260133333333335;0.16260133333333338;68;0.7578125;violin
1.788614666666667;0.16260133333333315;69;0.7578125;violin
1.951216;0.16260133333333338;73;0.7578125;violin
2.1138173333333334;0.16260133333333338;72;0.7578125;violin
2.276418666666667;0.16260133333333338;73;0.7578125;violin
2.43902;0.16260133333333338;76;0.7578125;violin
2.6016213333333336;0.16260133333333338;75;0.7578125;violin
2.764222666666667;0.16260133333333338;76;0.7578125;violin
2.9268240000000003;0.8536570000000001;81;0.7578125;violin
3.902432;0.16260133333333382;57;0.7578125;violin
4.065033333333334;0.16260133333333293;56;0.7578125;violin
4.227634666666667;0.16260133333333382;57;0.7578125;violin
4.390236000000001;0.16260133333333293;62;0.7578125;violin
4.552837333333334;0.16260133333333382;61;0.7578125;violin
4.7154386666666674;0.16260133333333293;62;0.7578125;violin
4.87804;0.16260133333333382;66;0.7578125;violin
5.040641333333334;0.16260133333333293;65;0.7578125;violin
5.203242666666667;0.16260133333333293;66;0.7578125;violin
5.365844;0.16260133333333382;69;0.7578125;violin
5.528445333333334;0.16260133333333293;68;0.7578125;violin
5.691046666666667;0.16260133333333382;69;0.7578125;violin
5.853648000000001;0.16260133333333293;74;0.7578125;violin
6.016249333333334;0.16260133333333382;73;0.7578125;violin
6.178850666666667;0.16260133333333293;74;0.7578125;violin
6.341452;0.16260133333333382;78;0.7578125;violin
6.504053333333334;0.16260133333333293;77;0.7578125;violin
6.666654666666667;0.14227616666666698;78;0.7578125;violin
6.829256000000001;0.8536570000000001;81;0.7578125;violin
7.804864;0.16260133333333382;80;0.7578125;violin
7.967465333333334;0.16260133333333382;78;0.7578125;violin
8.130066666666668;0.16260133333333293;80;0.7578125;violin
8.292668;0.16260133333333293;76;0.7578125;violin
8.455269333333334;0.16260133333333293;78;0.7578125;violin
8.617870666666667;0.14227616666666698;80;0.7578125;violin
8.780472000000001;0.16260133333333293;81;0.7578125;violin
8.943073333333334;0.16260133333333293;76;0.7578125;violin
9.105674666666667;0.16260133333333293;81;0.7578125;violin
9.268276;0.1626013333333347;85;0.7578125;violin
9.430877333333335;0.16260133333333293;81;0.7578125;violin
9.593478666666668;0.14227616666666698;85;0.7578125;violin
9.75608;0.16260133333333293;88;0.7578125;violin
9.918681333333334;0.1626013333333347;76;0.7578125;violin
10.081282666666668;0.16260133333333293;78;0.7578125;violin
10.243884000000001;0.16260133333333293;80;0.7578125;violin
10.406485333333334;0.16260133333333293;78;0.7578125;violin
10.569086666666667;0.14227616666666698;80;0.7578125;violin
10.731688;0.1626013333333347;81;0.7578125;violin
10.894289333333335;0.16260133333333293;76;0.7578125;violin
11.056890666666668;0.16260133333333293;81;0.7578125;violin
11.219492;0.16260133333333293;85;0.7578125;violin
11.382093333333334;0.1626013333333347;81;0.7578125;violin
11.544694666666668;0.1422761666666652;85;0.7578125;violin
11.707296000000001;0.16260133333333293;88;0.7578125;violin
11.869897333333334;0.16260133333333293;76;0.7578125;violin
12.032498666666667;0.1626013333333347;78;0.7578125;violin
12.195100000000002;0.16260133333333293;80;0.7578125;violin
12.357701333333335;0.16260133333333293;78;0.7578125;violin
12.520302666666668;0.14227616666666698;76;0.7578125;violin
12.682904;0.1626013333333347;81;0.7578125;violin
12.845505333333335;0.16260133333333293;76;0.7578125;violin
13.008106666666668;0.16260133333333293;73;0.7578125;violin
13.170708000000001;0.16260133333333293;76;0.7578125;violin
13.333309333333334;0.16260133333333293;73;0.7578125;violin
13.495910666666667;0.14227616666666698;69;0.7578125;violin
13.658512000000002;0.16260133333333293;64;0.7578125;violin
13.821113333333335;0.16260133333333293;68;0.7578125;violin
13.983714666666668;0.16260133333333293;71;0.7578125;violin
14.146316;0.1626013333333347;76;0.7578125;violin
14.308917333333335;0.16260133333333293;71;0.7578125;violin
14.471518666666668;0.14227616666666698;68;0.7578125;violin
14.634120000000001;0.16260133333333293;64;0.7578125;violin
14.796721333333334;0.1626013333333347;66;0.7578125;violin
14.959322666666669;0.16260133333333293;64;0.7578125;violin
15.121924000000002;0.16260133333333293;62;0.7578125;violin
15.284525333333335;0.16260133333333293;61;0.7578125;violin
15.447126666666668;0.14227616666666698;59;0.7578125;violin
15.609728;0.1626013333333347;57;0.7578125;violin
15.772329333333335;0.16260133333333293;56;0.7578125;violin
15.934930666666668;0.16260133333333293;57;0.7578125;violin
16.097532;0.1626013333333347;61;0.7578125;violin
16.260133333333336;0.16260133333333116;60;0.7578125;violin
16.422734666666667;0.14227616666666876;61;0.7578125;violin
16.585336;0.1626013333333347;64;0.7578125;violin
16.747937333333336;0.16260133333333116;63;0.7578125;violin
16.910538666666667;0.1626013333333347;64;0.7578125;violin
17.073140000000002;0.16260133333333116;69;0.7578125;violin
17.235741333333333;0.1626013333333347;68;0.7578125;violin
17.398342666666668;0.1422761666666652;69;0.7578125;violin
17.560944000000003;0.16260133333333116;73;0.7578125;violin
17.723545333333334;0.1626013333333347;72;0.7578125;violin
17.88614666666667;0.1626013333333347;73;0.7578125;violin
18.048748000000003;0.16260133333333116;76;0.7578125;violin
18.211349333333334;0.1626013333333347;75;0.7578125;violin
18.37395066666667;0.1422761666666652;76;0.7578125;violin
18.536552;0.8536570000000019;81;0.7578125;violin
19.51216;0.1626013333333347;57;0.7578125;violin
19.674761333333336;0.16260133333333116;56;0.7578125;violin
19.837362666666667;0.1626013333333347;57;0.7578125;violin
19.999964000000002;0.1626013333333347;61;0.7578125;violin
20.162565333333337;0.16260133333333116;60;0.7578125;violin
20.325166666666668;0.14227616666666876;61;0.7578125;violin
20.487768000000003;0.16260133333333116;66;0.7578125;violin
20.650369333333334;0.1626013333333347;65;0.7578125;violin
20.81297066666667;0.1626013333333347;66;0.7578125;violin
20.975572000000003;0.16260133333333116;69;0.7578125;violin
21.138173333333334;0.1626013333333347;68;0.7578125;violin
21.30077466666667;0.1422761666666652;69;0.7578125;violin
21.463376;0.1626013333333347;73;0.7578125;violin
21.625977333333335;0.1626013333333347;72;0.7578125;violin
21.78857866666667;0.16260133333333116;73;0.7578125;violin
21.95118;0.1626013333333347;78;0.7578125;violin
22.113781333333336;0.1626013333333347;77;0.7578125;violin
22.27638266666667;0.1422761666666652;78;0.7578125;violin
22.438984;0.8536570000000019;81;0.7578125;violin
23.414592000000003;0.16260133333333116;71;0.7578125;violin
23.577193333333334;0.1626013333333347;70;0.7578125;violin
23.73979466666667;0.1626013333333347;71;0.7578125;violin
23.902396000000003;0.16260133333333116;75;0.7578125;violin
24.064997333333334;0.1626013333333347;78;0.7578125;violin
24.22759866666667;0.1422761666666652;81;0.7578125;violin
24.390200000000004;0.16260133333333116;80;0.7578125;violin
24.552801333333335;0.1626013333333347;79;0.7578125;violin
24.71540266666667;0.16260133333333116;80;0.7578125;violin
24.878004;0.1626013333333347;85;0.7578125;violin
25.040605333333335;0.1626013333333347;83;0.7578125;violin
25.20320666666667;0.1422761666666652;82;0.7578125;violin
25.365808;0.1626013333333347;83;0.7578125;violin
25.528409333333336;0.1626013333333347;87;0.7578125;violin
25.69101066666667;0.16260133333333116;85;0.7578125;violin
25.853612000000002;0.1626013333333347;83;0.7578125;violin
26.016213333333337;0.16260133333333116;81;0.7578125;violin
26.178814666666668;0.1626013333333347;78;0.7578125;violin
26.341416000000002;0.1626013333333347;76;0.7578125;violin
26.504017333333337;0.16260133333333116;80;0.7578125;violin
26.66661866666667;0.1626013333333347;78;0.7578125;violin
26.829220000000003;0.16260133333333116;76;0.7578125;violin
26.991821333333334;0.1626013333333347;75;0.7578125;violin
27.15442266666667;0.1626013333333347;73;0.7578125;violin
27.317024000000004;0.16260133333333116;71;0.7578125;violin
27.479625333333335;0.1626013333333347;70;0.7578125;violin
27.64222666666667;0.1626013333333347;71;0.7578125;violin
27.804828000000004;0.16260133333333116;75;0.7578125;violin
27.967429333333335;0.1626013333333347;78;0.7578125;violin
28.13003066666667;0.1422761666666652;81;0.7578125;violin
28.292632;0.1626013333333347;80;0.7578125;violin
28.455233333333336;0.1626013333333347;79;0.7578125;violin
28.61783466666667;0.16260133333333116;80;0.7578125;violin
28.780436;0.1626013333333347;83;0.7578125;violin
28.943037333333336;0.16260133333333116;82;0.7578125;violin
29.105638666666668;0.14227616666666876;83;0.7578125;violin
29.268240000000002;0.1626013333333347;87;0.7578125;violin
29.430841333333337;0.16260133333333116;81;0.7578125;violin
29.593442666666668;0.1626013333333347;85;0.7578125;violin
29.756044000000003;0.1626013333333347;83;0.7578125;violin
29.918645333333338;0.16260133333333116;81;0.7578125;violin
30.08124666666667;0.1626013333333347;78;0.7578125;violin
30.243848000000003;0.16260133333333116;76;0.7578125;violin
30.406449333333335;0.1626013333333347;75;0.7578125;violin
30.56905066666667;0.1626013333333347;78;0.7578125;violin
30.731652000000004;0.16260133333333116;76;0.7578125;violin
30.894253333333335;0.1626013333333347;80;0.7578125;violin
31.05685466666667;0.1422761666666652;83;0.7578125;violin
31.219456;0.1626013333333347;88;0.7578125;violin
31.382057333333336;0.1626013333333347;85;0.7578125;violin
31.54465866666667;0.16260133333333116;82;0.7578125;violin
31.70726;0.1626013333333347;78;0.7578125;violin
31.869861333333336;0.16260133333333116;77;0.7578125;violin
32.03246266666667;0.14227616666666876;78;0.7578125;violin
32.195064;0.1626013333333347;80;0.7578125;violin
32.35766533333334;0.1626013333333347;78;0.7578125;violin
32.52026666666667;0.1626013333333347;75;0.7578125;violin
32.682868000000006;0.1626013333333276;78;0.7578125;violin
32.845469333333334;0.1626013333333347;83;0.7578125;violin
33.00807066666667;0.14227616666666876;87;0.7578125;violin
33.170672;0.1626013333333347;88;0.7578125;violin
33.33327333333334;0.1626013333333347;85;0.7578125;violin
33.49587466666667;0.1626013333333276;82;0.7578125;violin
33.658476;0.1626013333333347;78;0.7578125;violin
33.821077333333335;0.1626013333333347;77;0.7578125;violin
33.98367866666667;0.14227616666666876;78;0.7578125;violin
34.146280000000004;0.1626013333333347;80;0.7578125;violin
34.30888133333334;0.1626013333333276;78;0.7578125;violin
34.47148266666667;0.1626013333333347;75;0.7578125;violin
34.634084;0.1626013333333347;78;0.7578125;violin
34.796685333333336;0.1626013333333347;83;0.7578125;violin
34.95928666666667;0.14227616666666876;87;0.7578125;violin
35.121888000000006;0.42682849999999917;88;0.7578125;violin
35.609692;0.1626013333333347;76;0.7578125;violin
35.77229333333334;0.1626013333333347;75;0.7578125;violin
35.93489466666667;0.1626013333333347;76;0.7578125;violin
36.09749600000001;0.1626013333333276;79;0.7578125;violin
36.260097333333334;0.1626013333333347;78;0.7578125;violin
36.42269866666667;0.1626013333333347;79;0.7578125;violin
36.585300000000004;0.1626013333333347;83;0.7578125;violin
36.74790133333334;0.1626013333333347;82;0.7578125;violin
36.91050266666667;0.14227616666666165;83;0.7578125;violin
37.073104;0.42682849999999917;88;0.7578125;violin
37.560908000000005;0.1626013333333347;76;0.7578125;violin
37.72350933333334;0.1626013333333276;75;0.7578125;violin
37.88611066666667;0.1626013333333347;76;0.7578125;violin
38.048712;0.1626013333333347;79;0.7578125;violin
38.21131333333334;0.1626013333333347;78;0.7578125;violin
38.37391466666667;0.1626013333333347;79;0.7578125;violin
38.536516000000006;0.1626013333333276;84;0.7578125;violin
38.699117333333334;0.1626013333333347;83;0.7578125;violin
38.86171866666667;0.14227616666666876;84;0.7578125;violin
39.02432;0.42682849999999917;88;0.7578125;violin
39.512124;0.1626013333333347;76;0.7578125;violin
39.674725333333335;0.1626013333333347;75;0.7578125;violin
39.83732666666667;0.1626013333333347;76;0.7578125;violin
39.999928000000004;0.1626013333333347;79;0.7578125;violin
40.16252933333334;0.1626013333333347;78;0.7578125;violin
40.325130666666674;0.1626013333333276;79;0.7578125;violin
40.487732;0.1626013333333347;83;0.7578125;violin
40.650333333333336;0.1626013333333347;82;0.7578125;violin
40.81293466666667;0.14227616666666876;83;0.7578125;violin
40.975536000000005;0.1626013333333347;88;0.7578125;violin
41.13813733333334;0.1626013333333276;85;0.7578125;violin
41.30073866666667;0.1626013333333347;82;0.7578125;violin
41.46334;0.1626013333333347;79;0.7578125;violin
41.62594133333334;0.1626013333333347;76;0.7578125;violin
41.78854266666667;0.1626013333333347;73;0.7578125;violin
41.951144000000006;0.1626013333333276;70;0.7578125;violin
42.113745333333334;0.1626013333333347;64;0.7578125;violin
42.27634666666667;0.1626013333333347;66;0.7578125;violin
42.438948;0.1626013333333347;67;0.7578125;violin
42.60154933333334;0.1626013333333347;66;0.7578125;violin
42.76415066666667;0.14227616666666165;64;0.7578125;violin
42.926752;0.1626013333333347;63;0.7578125;violin
43.089353333333335;0.1626013333333347;66;0.7578125;violin
43.25195466666667;0.1626013333333347;69;0.7578125;violin
43.414556000000005;0.1626013333333347;73;0.7578125;violin
43.57715733333334;0.1626013333333347;71;0.7578125;violin
43.739758666666674;0.14227616666666165;70;0.7578125;violin
43.90236;0.1626013333333347;71;0.7578125;violin
44.064961333333336;0.1626013333333347;75;0.7578125;violin
44.22756266666667;0.1626013333333347;78;0.7578125;violin
44.390164000000006;0.1626013333333347;83;0.7578125;violin
44.55276533333334;0.1626013333333276;82;0.7578125;violin
44.71536666666667;0.14227616666666876;83;0.7578125;violin
44.877968;0.1626013333333347;84;0.7578125;violin
45.04056933333334;0.1626013333333347;83;0.7578125;violin
45.20317066666667;0.1626013333333347;81;0.7578125;violin
45.36577200000001;0.1626013333333276;78;0.7578125;violin
45.528373333333334;0.1626013333333347;75;0.7578125;violin
45.69097466666667;0.1626013333333347;71;0.7578125;violin
45.853576000000004;0.1626013333333347;72;0.7578125;violin
46.01617733333334;0.1626013333333347;71;0.7578125;violin
46.17877866666667;0.1626013333333276;70;0.7578125;violin
46.34138;0.1626013333333347;71;0.7578125;violin
46.503981333333336;0.1626013333333347;72;0.7578125;violin
46.66658266666667;0.1626013333333347;63;0.7578125;violin
46.829184000000005;0.1626013333333347;64;0.7578125;violin
46.99178533333334;0.1626013333333276;63;0.7578125;violin
47.15438666666667;0.1626013333333347;64;0.7578125;violin
47.316988;0.1626013333333347;68;0.7578125;violin
47.47958933333334;0.1626013333333347;73;0.7578125;violin
47.64219066666667;0.14227616666666876;71;0.7578125;violin
47.804792000000006;0.1626013333333347;69;0.7578125;violin
47.96739333333334;0.1626013333333276;68;0.7578125;violin
48.12999466666667;0.1626013333333347;69;0.7578125;violin
48.292596;0.1626013333333347;75;0.7578125;violin
48.45519733333334;0.1626013333333347;80;0.7578125;violin
48.61779866666667;0.14227616666666165;76;0.7578125;violin
48.78040000000001;0.1626013333333276;76;0.7578125;violin
48.943001333333335;0.1626013333333347;75;0.7578125;violin
49.10560266666667;0.1626013333333347;76;0.7578125;violin
49.268204000000004;0.1626013333333347;68;0.7578125;violin
49.43080533333334;0.1626013333333347;73;0.7578125;violin
49.593406666666674;0.14227616666666165;71;0.7578125;violin
49.756008;0.1626013333333347;69;0.7578125;violin
49.918609333333336;0.1626013333333347;68;0.7578125;violin
50.08121066666667;0.1626013333333347;69;0.7578125;violin
50.243812000000005;0.1626013333333347;75;0.7578125;violin
50.40641333333334;0.1626013333333276;80;0.7578125;violin
50.56901466666667;0.14227616666666876;78;0.7578125;violin
50.731616;0.1626013333333347;76;0.7578125;violin
50.89421733333334;0.1626013333333347;75;0.7578125;violin
51.05681866666667;0.1626013333333347;76;0.7578125;violin
51.21942000000001;0.1626013333333347;71;0.7578125;violin
51.38202133333334;0.1626013333333276;68;0.7578125;violin
51.54462266666667;0.1626013333333347;71;0.7578125;violin
51.707224000000004;0.1626013333333347;76;0.7578125;violin
51.86982533333334;0.1626013333333347;75;0.7578125;violin
52.03242666666667;0.1626013333333347;76;0.7578125;violin
52.19502800000001;0.1626013333333276;77;0.7578125;violin
52.357629333333335;0.1626013333333347;76;0.7578125;violin
52.52023066666667;0.14227616666666876;75;0.7578125;violin
52.682832000000005;0.1626013333333347;76;0.7578125;violin
52.84543333333334;0.1626013333333347;75;0.7578125;violin
53.008034666666674;0.1626013333333276;76;0.7578125;violin
53.170636;0.1626013333333347;71;0.7578125;violin
53.33323733333334;0.1626013333333347;68;0.7578125;violin
53.49583866666667;0.1626013333333347;71;0.7578125;violin
53.658440000000006;0.1626013333333347;76;0.7578125;violin
53.82104133333334;0.1626013333333276;75;0.7578125;violin
53.98364266666667;0.1626013333333347;76;0.7578125;violin
54.146244;0.1626013333333347;77;0.7578125;violin
54.30884533333334;0.1626013333333347;76;0.7578125;violin
54.47144666666667;0.14227616666666876;75;0.7578125;violin
54.63404800000001;0.1626013333333276;76;0.7578125;violin
54.796649333333335;0.1626013333333347;75;0.7578125;violin
54.95925066666667;0.1626013333333347;76;0.7578125;violin
55.121852000000004;0.1626013333333347;77;0.7578125;violin
55.28445333333334;0.1626013333333347;76;0.7578125;violin
55.44705466666667;0.1626013333333347;75;0.7578125;violin
55.60965600000001;0.1626013333333276;76;0.7578125;violin
55.772257333333336;0.1626013333333347;75;0.7578125;violin
55.93485866666667;0.1626013333333347;76;0.7578125;violin
56.097460000000005;0.1626013333333347;77;0.7578125;violin
56.26006133333334;0.1626013333333347;76;0.7578125;violin
56.422662666666675;0.14227616666666165;75;0.7578125;violin
56.585264;0.1626013333333347;76;0.7578125;violin
56.74786533333334;0.1626013333333347;71;0.7578125;violin
56.91046666666667;0.1626013333333347;68;0.7578125;violin
57.073068000000006;0.1626013333333347;64;0.7578125;violin
57.23566933333334;0.1626013333333276;63;0.7578125;violin
57.39827066666667;0.1626013333333347;64;0.7578125;violin
57.560872;0.1626013333333347;68;0.7578125;violin
57.72347333333334;0.1626013333333347;66;0.7578125;violin
57.88607466666667;0.1626013333333347;64;0.7578125;violin
58.04867600000001;0.1626013333333276;62;0.7578125;violin
58.211277333333335;0.1626013333333347;61;0.7578125;violin
58.37387866666667;0.14227616666666876;59;0.7578125;violin
58.536480000000005;0.1626013333333347;57;0.7578125;violin
58.69908133333334;0.1626013333333347;56;0.7578125;violin
58.861682666666674;0.1626013333333347;57;0.7578125;violin
59.02428400000001;0.1626013333333276;61;0.7578125;violin
59.186885333333336;0.1626013333333347;60;0.7578125;violin
59.34948666666667;0.1626013333333347;61;0.7578125;violin
59.512088000000006;0.1626013333333347;64;0.7578125;violin
59.67468933333334;0.1626013333333347;63;0.7578125;violin
59.837290666666675;0.1626013333333276;64;0.7578125;violin
59.999892;0.1626013333333347;69;0.7578125;violin
60.16249333333334;0.1626013333333347;68;0.7578125;violin
60.32509466666667;0.14227616666666876;69;0.7578125;violin
60.48769600000001;0.1626013333333347;73;0.7578125;violin
60.65029733333334;0.1626013333333276;72;0.7578125;violin
60.81289866666667;0.1626013333333347;73;0.7578125;violin
60.975500000000004;0.1626013333333347;76;0.7578125;violin
61.13810133333334;0.1626013333333347;75;0.7578125;violin
61.30070266666667;0.1626013333333347;76;0.7578125;violin
61.46330400000001;0.8536569999999983;81;0.7578125;violin
62.438912;0.1626013333333347;57;0.7578125;violin
62.60151333333334;0.1626013333333347;56;0.7578125;violin
62.76411466666667;0.1626013333333347;57;0.7578125;violin
62.926716000000006;0.1626013333333347;62;0.7578125;violin
63.08931733333334;0.1626013333333347;61;0.7578125;violin
63.251918666666676;0.1626013333333276;62;0.7578125;violin
63.41452;0.1626013333333347;66;0.7578125;violin
63.57712133333334;0.1626013333333347;65;0.7578125;violin
63.73972266666667;0.1626013333333347;66;0.7578125;violin
63.90232400000001;0.1626013333333276;69;0.7578125;violin
64.06492533333333;0.1626013333333418;68;0.7578125;violin
64.22752666666668;0.14227616666666165;69;0.7578125;violin
64.390128;0.1626013333333418;74;0.7578125;violin
64.55272933333335;0.1626013333333276;73;0.7578125;violin
64.71533066666667;0.1626013333333276;74;0.7578125;violin
64.877932;0.1626013333333418;78;0.7578125;violin
65.04053333333334;0.1626013333333276;77;0.7578125;violin
65.20313466666667;0.1626013333333418;78;0.7578125;violin
65.36573600000001;0.8536569999999983;81;0.7578125;violin
66.341344;0.1626013333333276;80;0.7578125;violin
66.50394533333333;0.1626013333333418;78;0.7578125;violin
66.66654666666668;0.1626013333333276;80;0.7578125;violin
66.829148;0.1626013333333418;76;0.7578125;violin
66.99174933333335;0.1626013333333276;78;0.7578125;violin
67.15435066666667;0.14227616666666165;80;0.7578125;violin
67.316952;0.1626013333333418;81;0.7578125;violin
67.47955333333334;0.1626013333333276;76;0.7578125;violin
67.64215466666667;0.1626013333333418;81;0.7578125;violin
67.80475600000001;0.1626013333333276;85;0.7578125;violin
67.96735733333334;0.1626013333333276;81;0.7578125;violin
68.12995866666667;0.14227616666667586;85;0.7578125;violin
68.29256000000001;0.1626013333333276;88;0.7578125;violin
68.45516133333334;0.1626013333333418;76;0.7578125;violin
68.61776266666668;0.1626013333333276;78;0.7578125;violin
68.780364;0.1626013333333276;80;0.7578125;violin
68.94296533333333;0.1626013333333418;78;0.7578125;violin
69.10556666666668;0.14227616666666165;80;0.7578125;violin
69.268168;0.1626013333333418;81;0.7578125;violin
69.43076933333334;0.1626013333333276;76;0.7578125;violin
69.59337066666667;0.1626013333333276;81;0.7578125;violin
69.755972;0.1626013333333418;85;0.7578125;violin
69.91857333333334;0.1626013333333276;81;0.7578125;violin
70.08117466666667;0.14227616666667586;85;0.7578125;violin
70.24377600000001;0.1626013333333276;88;0.7578125;violin
70.40637733333334;0.1626013333333276;76;0.7578125;violin
70.56897866666667;0.1626013333333418;78;0.7578125;violin
70.73158000000001;0.1626013333333276;80;0.7578125;violin
70.89418133333334;0.1626013333333418;78;0.7578125;violin
71.05678266666668;0.14227616666666165;76;0.7578125;violin
71.219384;0.1626013333333276;81;0.7578125;violin
71.38198533333333;0.1626013333333418;76;0.7578125;violin
71.54458666666667;0.1626013333333276;73;0.7578125;violin
71.707188;0.1626013333333418;76;0.7578125;violin
71.86978933333334;0.1626013333333276;73;0.7578125;violin
72.03239066666667;0.14227616666666165;69;0.7578125;violin
72.19499200000001;0.1626013333333276;64;0.7578125;violin
72.35759333333334;0.1626013333333276;68;0.7578125;violin
72.52019466666667;0.1626013333333418;71;0.7578125;violin
72.68279600000001;0.1626013333333276;76;0.7578125;violin
72.84539733333334;0.1626013333333418;71;0.7578125;violin
73.00799866666668;0.14227616666666165;68;0.7578125;violin
73.17060000000001;0.1626013333333276;64;0.7578125;violin
73.33320133333334;0.1626013333333418;66;0.7578125;violin
73.49580266666668;0.1626013333333276;64;0.7578125;violin
73.658404;0.1626013333333418;62;0.7578125;violin
73.82100533333335;0.1626013333333276;61;0.7578125;violin
73.98360666666667;0.14227616666666165;59;0.7578125;violin
74.146208;0.1626013333333418;57;0.7578125;violin
74.30880933333334;0.1626013333333276;56;0.7578125;violin
74.47141066666667;0.1626013333333418;57;0.7578125;violin
74.63401200000001;0.1626013333333276;61;0.7578125;violin
74.79661333333334;0.1626013333333276;60;0.7578125;violin
74.95921466666667;0.1626013333333418;61;0.7578125;violin
75.12181600000001;0.1626013333333276;64;0.7578125;violin
75.28441733333334;0.1626013333333418;63;0.7578125;violin
75.44701866666668;0.1626013333333276;64;0.7578125;violin
75.60962;0.1626013333333276;69;0.7578125;violin
75.77222133333333;0.1626013333333418;68;0.7578125;violin
75.93482266666668;0.14227616666666165;69;0.7578125;violin
76.097424;0.1626013333333418;73;0.7578125;violin
76.26002533333335;0.1626013333333276;72;0.7578125;violin
76.42262666666667;0.1626013333333276;73;0.7578125;violin
76.585228;0.1626013333333418;76;0.7578125;violin
76.74782933333334;0.1626013333333276;75;0.7578125;violin
76.91043066666667;0.1626013333333418;76;0.7578125;violin
77.07303200000001;0.8536569999999983;81;0.7578125;violin
78.04864;0.1626013333333276;57;0.7578125;violin
78.21124133333333;0.1626013333333418;56;0.7578125;violin
78.37384266666668;0.1626013333333276;57;0.7578125;violin
78.536444;0.1626013333333418;61;0.7578125;violin
78.69904533333334;0.1626013333333276;60;0.7578125;violin
78.86164666666667;0.1626013333333276;61;0.7578125;violin
79.024248;0.1626013333333418;66;0.7578125;violin
79.18684933333334;0.1626013333333276;65;0.7578125;violin
79.34945066666667;0.1626013333333418;66;0.7578125;violin
79.51205200000001;0.1626013333333276;69;0.7578125;violin
79.67465333333334;0.1626013333333418;68;0.7578125;violin
79.83725466666668;0.14227616666666165;69;0.7578125;violin
79.99985600000001;0.1626013333333276;73;0.7578125;violin
80.16245733333334;0.1626013333333418;72;0.7578125;violin
80.32505866666668;0.1626013333333276;73;0.7578125;violin
80.48766;0.1626013333333418;78;0.7578125;violin
80.65026133333335;0.1626013333333276;77;0.7578125;violin
80.81286266666667;0.1626013333333276;78;0.7578125;violin
80.975464;0.8536569999999983;81;0.7578125;violin
81.95107200000001;0.1626013333333276;64;0.7578125;violin
82.11367333333334;0.1626013333333418;63;0.7578125;violin
82.27627466666668;0.1626013333333276;64;0.7578125;violin
82.43887600000001;0.1626013333333276;69;0.7578125;violin
82.60147733333334;0.1626013333333418;68;0.7578125;violin
82.76407866666668;0.14227616666666165;69;0.7578125;violin
82.92668;0.1626013333333418;73;0.7578125;violin
83.08928133333335;0.1626013333333276;72;0.7578125;violin
83.25188266666667;0.1626013333333276;73;0.7578125;violin
83.414484;0.1626013333333418;76;0.7578125;violin
83.57708533333334;0.1626013333333276;75;0.7578125;violin
83.73968666666667;0.14227616666667586;76;0.7578125;violin
83.90228800000001;0.1626013333333276;81;0.7578125;violin
84.06488933333334;0.1626013333333276;80;0.7578125;violin
84.22749066666667;0.1626013333333418;81;0.7578125;violin
84.39009200000001;0.1626013333333276;85;0.7578125;violin
84.55269333333334;0.1626013333333418;84;0.7578125;violin
84.71529466666668;0.14227616666666165;85;0.7578125;violin
84.877896;0.1626013333333276;81;0.7578125;violin
85.04049733333333;0.1626013333333418;80;0.7578125;violin
85.20309866666668;0.1626013333333276;81;0.7578125;violin
85.3657;0.1626013333333418;76;0.7578125;violin
85.52830133333335;0.1626013333333276;75;0.7578125;violin
85.69090266666667;0.14227616666666165;76;0.7578125;violin
85.853504;0.1626013333333418;73;0.7578125;violin
86.01610533333334;0.1626013333333276;72;0.7578125;violin
86.17870666666667;0.1626013333333418;73;0.7578125;violin
86.34130800000001;0.1626013333333276;69;0.7578125;violin
86.50390933333334;0.1626013333333276;68;0.7578125;violin
86.66651066666667;0.14227616666667586;69;0.7578125;violin
86.82911200000001;0.1626013333333276;64;0.7578125;violin
86.99171333333334;0.1626013333333418;63;0.7578125;violin
87.15431466666668;0.1626013333333276;64;0.7578125;violin
87.316916;0.1626013333333418;61;0.7578125;violin
87.47951733333335;0.1626013333333276;60;0.7578125;violin
87.64211866666668;0.14227616666666165;61;0.7578125;violin
87.80472;0.1626013333333418;57;0.7578125;violin
87.96732133333335;0.1626013333333276;61;0.7578125;violin
88.12992266666667;0.1626013333333418;64;0.7578125;violin
88.29252400000001;0.1626013333333276;69;0.7578125;violin
88.45512533333334;0.1626013333333276;73;0.7578125;violin
88.61772666666667;0.1626013333333418;76;0.7578125;violin
88.78032800000001;0.1626013333333276;81;0.7578125;violin
88.94292933333334;0.1626013333333418;76;0.7578125;violin
89.10553066666668;0.1626013333333276;73;0.7578125;violin
89.26813200000001;0.1626013333333276;69;0.7578125;violin
89.43073333333334;0.1626013333333418;64;0.7578125;violin
89.59333466666668;0.14227616666666165;61;0.7578125;violin
89.755936;0.1626013333333418;57;0.7578125;violin
89.91853733333335;0.1626013333333276;61;0.7578125;violin
90.08113866666667;0.1626013333333276;64;0.7578125;violin
90.24374;0.1626013333333418;69;0.7578125;violin
90.40634133333334;0.1626013333333276;73;0.7578125;violin
90.56894266666667;0.1626013333333418;76;0.7578125;violin
90.73154400000001;0.1626013333333276;81;0.7578125;violin
90.89414533333334;0.1626013333333276;76;0.7578125;violin
91.05674666666667;0.1626013333333418;73;0.7578125;violin
91.21934800000001;0.1626013333333276;69;0.7578125;violin
91.38194933333334;0.1626013333333418;64;0.7578125;violin
91.54455066666668;0.14227616666666165;61;0.7578125;violin
91.70715200000001;0.42682849999999917;57;0.7578125;violin
92.43885800000001;0.21341424999999958;57;0.7578125;violin
92.43885800000001;0.21341424999999958;69;0.7578125;violin
92.68276;0.4268285000000134;57;0.7578125;violin
92.68276;0.4268285000000134;69;0.7578125;violin
93.17056400000001;0.42682849999999917;57;0.7578125;violin
93.17056400000001;0.42682849999999917;69;0.7578125;violin
93.65836800000001;0.42682849999999917;57;0.7578125;violin
93.65836800000001;0.42682849999999917;69;0.7578125;violin
