start;duration;pitch;velocity;instrument
0.0;1.62162;71;0.7578125;violin
0.0;0.27027;74;0.7890625;violin
0.27027;0.135135;76;0.7890625;violin
0.405405;0.135135;74;0.7890625;violin
0.54054;0.135135;76;0.7890625;violin
0.675675;0.135135;74;0.7890625;violin
0.81081;0.135135;76;0.7890625;violin
0.945945;0.135135;74;0.7890625;violin
1.08108;0.135135;76;0.7890625;violin
1.216215;0.135135;74;0.7890625;violin
1.35135;0.135135;76;0.7890625;violin
1.486485;0.118243125;74;0.7890625;violin
1.62162;0.135135;71;0.7578125;violin
1.62162;0.135135;79;0.7890625;violin
2.16216;1.62162;67;0.7578125;violin
2.16216;0.27027;71;0.7890625;violin
2.43243;0.135135;72;0.7890625;violin
2.567565;0.135135;71;0.7890625;violin
2.7027;0.135135;72;0.7890625;violin
2.837835;0.135135;71;0.7890625;violin
2.97297;0.135135;72;0.7890625;violin
3.108105;0.135135;71;0.7890625;violin
3.24324;0.135135;72;0.7890625;violin
3.378375;0.135135;71;0.7890625;violin
3.51351;0.135135;72;0.7890625;violin
3.648645;0.11824312500000023;71;0.7890625;violin
3.78378;0.135135;67;0.7578125;violin
3.78378;0.135135;76;0.7890625;violin
4.32432;0.135135;66;0.7578125;violin
4.32432;1.08108;69;0.7890625;violin
4.459455;0.135135;64;0.7578125;violin
4.59459;0.135135;66;0.7578125;violin
4.729725;0.135135;62;0.7578125;violin
4.86486;0.135135;66;0.7578125;violin
4.999995;0.135135;64;0.7578125;violin
5.13513;0.135135;66;0.7578125;violin
5.270265;0.11824312500000023;62;0.7578125;violin
5.4054;0.135135;66;0.7578125;violin
5.4054;0.81081;69;0.7890625;violin
5.540535;0.135135;64;0.7578125;violin
5.67567;0.135135;66;0.7578125;violin
5.810805;0.11824312500000023;62;0.7578125;violin
5.94594;0.135135;66;0.7578125;violin
6.081075;0.135135;64;0.7578125;violin
6.21621;0.135135;66;0.7578125;violin
6.351345;0.11824312500000023;62;0.7578125;violin
6.48648;0.135135;67;0.7578125;violin
6.48648;0.4729725;71;0.7890625;violin
6.621615;0.135135;66;0.7578125;violin
6.75675;0.135135;67;0.7578125;violin
6.891885;0.11824312500000023;62;0.7578125;violin
7.02702;0.135135;66;0.7578125;violin
7.02702;0.4729725;69;0.7890625;violin
7.162155;0.135135;64;0.7578125;violin
7.29729;0.135135;66;0.7578125;violin
7.432425;0.11824312500000023;62;0.7578125;violin
7.56756;0.4729725000000009;59;0.7578125;violin
7.56756;0.4729725000000009;67;0.7890625;violin
8.1081;0.135135;62;0.7890625;violin
8.243235;0.135135;67;0.7890625;violin
8.37837;0.135135;71;0.7890625;violin
8.513505;0.11824312499999934;74;0.7890625;violin
8.64864;1.4189174999999992;71;0.7578125;violin
8.64864;0.135135;76;0.7890625;violin
8.783775;0.135135;74;0.7890625;violin
8.91891;0.135135;76;0.7890625;violin
9.054045;0.135135;74;0.7890625;violin
9.18918;0.135135;76;0.7890625;violin
9.324315;0.135135;74;0.7890625;violin
9.45945;0.135135;76;0.7890625;violin
9.594585;0.135135;74;0.7890625;violin
9.72972;0.135135;76;0.7890625;violin
9.864855;0.135135;74;0.7890625;violin
9.99999;0.135135;76;0.7890625;violin
10.135125;0.11824312499999934;74;0.7890625;violin
10.27026;0.11824312499999934;71;0.7578125;violin
10.27026;0.11824312499999934;79;0.7890625;violin
10.8108;1.4189174999999992;67;0.7578125;violin
10.8108;0.135135;72;0.7890625;violin
10.945935;0.135135;71;0.7890625;violin
11.08107;0.135135;72;0.7890625;violin
11.216205;0.135135;71;0.7890625;violin
11.35134;0.135135;72;0.7890625;violin
11.486475;0.135135;71;0.7890625;violin
11.62161;0.135135;72;0.7890625;violin
11.756745;0.135135;71;0.7890625;violin
11.89188;0.135135;72;0.7890625;violin
12.027015;0.135135;71;0.7890625;violin
12.16215;0.135135;72;0.7890625;violin
12.297285;0.11824312499999934;71;0.7890625;violin
12.43242;0.11824312499999934;67;0.7578125;violin
12.43242;0.11824312499999934;76;0.7890625;violin
12.97296;0.135135;66;0.7578125;violin
12.97296;0.4729725000000009;69;0.7890625;violin
13.108095;0.135135;64;0.7578125;violin
13.24323;0.135135;66;0.7578125;violin
13.378365;0.11824312499999934;62;0.7578125;violin
13.5135;0.135135;66;0.7578125;violin
13.5135;0.4729725000000009;74;0.7890625;violin
13.648635;0.135135;64;0.7578125;violin
13.78377;0.135135;66;0.7578125;violin
13.918905;0.11824312499999934;62;0.7578125;violin
14.05404;0.4729725000000009;69;0.7578125;violin
14.05404;0.135135;78;0.7890625;violin
14.189175;0.135135;81;0.7890625;violin
14.32431;0.135135;79;0.7890625;violin
14.459445;0.11824312499999934;78;0.7890625;violin
14.59458;0.4729725000000009;69;0.7578125;violin
14.59458;0.135135;81;0.7890625;violin
14.729715;0.135135;79;0.7890625;violin
14.86485;0.135135;78;0.7890625;violin
14.999985;0.11824312499999934;76;0.7890625;violin
15.13512;0.23648625000000045;66;0.7578125;violin
15.13512;0.135135;74;0.7890625;violin
15.270255;0.11824312499999934;69;0.7890625;violin
15.40539;0.11824312499999934;66;0.7578125;violin
15.40539;0.11824312499999934;74;0.7890625;violin
15.540525;0.11824312499999934;69;0.7578125;violin
15.540525;0.11824312499999934;76;0.7890625;violin
15.67566;0.23648625000000045;74;0.7578125;violin
15.67566;0.135135;78;0.7890625;violin
15.810795;0.11824312499999934;79;0.7890625;violin
15.94593;0.11824312499999934;74;0.7578125;violin
15.94593;0.11824312499999934;78;0.7890625;violin
16.081065000000002;0.11824312499999934;69;0.7578125;violin
16.081065000000002;0.11824312499999934;76;0.7890625;violin
16.2162;0.4729725000000009;66;0.7578125;violin
16.2162;0.4729725000000009;74;0.7890625;violin
16.75674;0.13513499999999823;76;0.7890625;violin
16.891875;0.13513500000000178;74;0.7890625;violin
17.02701;0.13513500000000178;76;0.7890625;violin
17.162145000000002;0.11824312499999934;74;0.7890625;violin
17.29728;0.7094587499999996;62;0.7578125;violin
17.29728;0.13513499999999823;72;0.7890625;violin
17.432415;0.13513500000000178;74;0.7890625;violin
17.56755;0.13513500000000178;72;0.7890625;violin
17.702685000000002;0.13513499999999823;71;0.7890625;violin
17.83782;0.27027;72;0.7890625;violin
18.10809;0.23648624999999868;69;0.7578125;violin
18.10809;0.23648624999999868;78;0.7890625;violin
18.37836;0.11824312499999934;72;0.7578125;violin
18.37836;0.81081;83;0.7890625;violin
18.513495;0.11824312500000289;74;0.7578125;violin
18.64863;0.11824312499999934;72;0.7578125;violin
18.783765000000002;0.11824312499999934;71;0.7578125;violin
18.9189;0.4729725000000009;72;0.7578125;violin
19.18917;0.23648624999999868;81;0.7890625;violin
19.45944;0.7094587499999996;62;0.7578125;violin
19.45944;0.13513499999999823;71;0.7890625;violin
19.594575;0.13513500000000178;72;0.7890625;violin
19.72971;0.13513500000000178;71;0.7890625;violin
19.864845000000003;0.13513499999999823;69;0.7890625;violin
19.99998;0.27027;71;0.7890625;violin
20.27025;0.23648624999999868;71;0.7578125;violin
20.27025;0.23648624999999868;79;0.7890625;violin
20.54052;0.11824312499999934;71;0.7578125;violin
20.54052;0.81081;83;0.7890625;violin
20.675655;0.11824312500000289;72;0.7578125;violin
20.81079;0.11824312499999934;71;0.7578125;violin
20.945925000000003;0.11824312499999934;69;0.7578125;violin
21.08106;0.23648624999999868;71;0.7578125;violin
21.35133;0.23648624999999868;67;0.7578125;violin
21.35133;0.23648624999999868;71;0.7890625;violin
21.6216;0.7770262499999987;62;0.7578125;violin
21.6216;0.13513499999999823;72;0.7890625;violin
21.756735;0.13513500000000178;74;0.7890625;violin
21.89187;0.13513500000000178;72;0.7890625;violin
22.027005000000003;0.13513499999999823;71;0.7890625;violin
22.16214;0.23648624999999868;72;0.7890625;violin
22.567545000000003;0.11824312499999934;76;0.7890625;violin
22.567545000000003;0.11824312499999934;84;0.7890625;violin
22.70268;0.27027;76;0.7890625;violin
22.70268;0.27027;84;0.7890625;violin
22.97295;0.27027;69;0.7890625;violin
22.97295;0.27027;78;0.7890625;violin
23.24322;0.27027;74;0.7890625;violin
23.24322;0.27027;83;0.7890625;violin
23.51349;0.23648624999999868;72;0.7890625;violin
23.51349;0.23648624999999868;78;0.7890625;violin
23.78376;0.11824312499999934;72;0.7578125;violin
23.78376;0.54054;81;0.7890625;violin
23.918895;0.11824312500000289;71;0.7578125;violin
24.05403;0.11824312499999934;72;0.7578125;violin
24.189165000000003;0.11824312499999934;69;0.7578125;violin
24.3243;0.23648624999999868;71;0.7578125;violin
24.3243;0.23648624999999868;79;0.7890625;violin
24.59457;0.13513500000000178;62;0.7890625;violin
24.729705000000003;0.13513499999999823;64;0.7890625;violin
24.86484;0.13513499999999823;66;0.7890625;violin
24.999975;0.13513500000000178;67;0.7890625;violin
25.13511;0.13513500000000178;66;0.7890625;violin
25.270245000000003;0.13513499999999823;67;0.7890625;violin
25.40538;0.13513499999999823;69;0.7890625;violin
25.540515;0.13513500000000178;71;0.7890625;violin
25.67565;0.13513500000000178;69;0.7890625;violin
25.810785000000003;0.11824312499999934;71;0.7890625;violin
25.94592;0.8952693750000016;62;0.7578125;violin
25.94592;0.13513499999999823;72;0.7890625;violin
26.081055;0.13513500000000178;74;0.7890625;violin
26.21619;0.13513500000000178;72;0.7890625;violin
26.351325000000003;0.13513499999999823;71;0.7890625;violin
26.48646;0.4054050000000018;72;0.7890625;violin
26.891865000000003;0.11824312499999934;69;0.7578125;violin
26.891865000000003;0.11824312499999934;78;0.7890625;violin
27.027;0.11824312499999934;72;0.7578125;violin
27.027;0.54054;83;0.7890625;violin
27.162135;0.11824312500000289;74;0.7578125;violin
27.29727;0.11824312499999934;72;0.7578125;violin
27.432405000000003;0.11824312499999934;71;0.7578125;violin
27.56754;0.35472937500000157;72;0.7578125;violin
27.56754;0.4054050000000018;81;0.7890625;violin
27.972945000000003;0.11824312499999934;62;0.7578125;violin
27.972945000000003;0.11824312499999934;72;0.7890625;violin
28.10808;0.8952693750000016;67;0.7578125;violin
28.10808;0.13513499999999823;71;0.7890625;violin
28.243215;0.13513500000000178;72;0.7890625;violin
28.37835;0.13513500000000178;71;0.7890625;violin
28.513485000000003;0.13513499999999823;69;0.7890625;violin
28.64862;0.4054050000000018;71;0.7890625;violin
29.054025000000003;0.11824312499999934;71;0.7578125;violin
29.054025000000003;0.1013512499999969;79;0.7890625;violin
29.18916;0.11824312499999934;71;0.7578125;violin
29.18916;0.54054;83;0.7890625;violin
29.324295;0.11824312500000289;72;0.7578125;violin
29.45943;0.11824312499999934;71;0.7578125;violin
29.594565000000003;0.11824312499999934;69;0.7578125;violin
29.7297;0.35472937500000157;71;0.7578125;violin
29.7297;0.4054050000000018;79;0.7890625;violin
30.135105000000003;0.11824312499999934;71;0.7578125;violin
30.135105000000003;0.1013512499999969;83;0.7890625;violin
30.27024;0.13513499999999823;73;0.7578125;violin
30.27024;0.4729725000000009;76;0.7890625;violin
30.405375;0.13513500000000178;74;0.7578125;violin
30.54051;0.13513500000000178;73;0.7578125;violin
30.675645000000003;0.11824312499999934;71;0.7578125;violin
30.81078;0.23648624999999868;73;0.7578125;violin
30.81078;0.13513499999999823;81;0.7890625;violin
30.945915;0.13513500000000178;83;0.7890625;violin
31.08105;0.23648624999999868;69;0.7578125;violin
31.08105;0.13513500000000178;81;0.7890625;violin
31.216185000000003;0.11824312499999934;79;0.7890625;violin
31.35132;0.13513499999999823;74;0.7578125;violin
31.35132;0.4729725000000009;78;0.7890625;violin
31.486455;0.13513500000000178;73;0.7578125;violin
31.62159;0.13513500000000178;74;0.7578125;violin
31.756725000000003;0.11824312499999934;69;0.7578125;violin
31.89186;0.13513499999999823;73;0.7578125;violin
31.89186;0.47297249999999735;76;0.7890625;violin
32.026995;0.13513500000000533;71;0.7578125;violin
32.162130000000005;0.13513499999999823;73;0.7578125;violin
32.297265;0.11824312499999934;69;0.7578125;violin
32.4324;0.23648624999999868;66;0.7578125;violin
32.4324;0.13513499999999823;74;0.7890625;violin
32.567535;0.11824312499999934;69;0.7890625;violin
32.70267;0.11824312500000644;66;0.7578125;violin
32.70267;0.11824312500000644;74;0.7890625;violin
32.837805;0.11824312499999934;69;0.7578125;violin
32.837805;0.11824312499999934;76;0.7890625;violin
32.97294;0.23648624999999868;74;0.7578125;violin
32.97294;0.13513499999999823;78;0.7890625;violin
33.108075;0.11824312499999934;79;0.7890625;violin
33.243210000000005;0.11824312499999934;74;0.7578125;violin
33.243210000000005;0.11824312499999934;78;0.7890625;violin
33.378345;0.11824312499999934;69;0.7578125;violin
33.378345;0.11824312499999934;76;0.7890625;violin
33.51348;0.47297249999999735;66;0.7578125;violin
33.51348;0.47297249999999735;74;0.7890625;violin
34.05402;0.13513499999999823;76;0.7890625;violin
34.189155;0.13513500000000533;74;0.7890625;violin
34.324290000000005;0.13513499999999823;76;0.7890625;violin
34.459425;0.11824312499999934;74;0.7890625;violin
34.59456;0.7094587500000031;62;0.7578125;violin
34.59456;0.13513499999999823;72;0.7890625;violin
34.729695;0.13513499999999823;74;0.7890625;violin
34.86483;0.13513500000000533;72;0.7890625;violin
34.999965;0.13513499999999823;71;0.7890625;violin
35.1351;0.27027000000000356;72;0.7890625;violin
35.405370000000005;0.23648624999999868;69;0.7578125;violin
35.405370000000005;0.23648624999999868;78;0.7890625;violin
35.67564;0.11824312499999934;72;0.7578125;violin
35.67564;0.8108100000000036;83;0.7890625;violin
35.810775;0.11824312499999934;74;0.7578125;violin
35.94591;0.11824312500000644;72;0.7578125;violin
36.081045;0.11824312499999934;71;0.7578125;violin
36.21618;0.47297249999999735;72;0.7578125;violin
36.486450000000005;0.23648624999999868;81;0.7890625;violin
36.75672;0.7094587500000031;62;0.7578125;violin
36.75672;0.13513499999999823;71;0.7890625;violin
36.891855;0.13513499999999823;72;0.7890625;violin
37.02699;0.13513500000000533;71;0.7890625;violin
37.162125;0.13513499999999823;69;0.7890625;violin
37.29726;0.27027000000000356;71;0.7890625;violin
37.567530000000005;0.23648624999999868;71;0.7578125;violin
37.567530000000005;0.23648624999999868;79;0.7890625;violin
37.8378;0.11824312499999934;71;0.7578125;violin
37.8378;0.8108100000000036;83;0.7890625;violin
37.972935;0.11824312499999934;72;0.7578125;violin
38.10807;0.11824312500000644;71;0.7578125;violin
38.243205;0.11824312499999934;69;0.7578125;violin
38.37834;0.23648624999999868;71;0.7578125;violin
38.648610000000005;0.23648624999999868;67;0.7578125;violin
38.648610000000005;0.23648624999999868;71;0.7890625;violin
38.91888;0.7770262499999987;62;0.7578125;violin
38.91888;0.13513499999999823;72;0.7890625;violin
39.054015;0.13513499999999823;74;0.7890625;violin
39.18915;0.13513500000000533;72;0.7890625;violin
39.324285;0.13513499999999823;71;0.7890625;violin
39.45942;0.23648624999999868;72;0.7890625;violin
39.864825;0.11824312499999934;76;0.7890625;violin
39.864825;0.11824312499999934;84;0.7890625;violin
39.99996;0.27026999999999646;76;0.7890625;violin
39.99996;0.27026999999999646;84;0.7890625;violin
40.27023;0.27027000000000356;69;0.7890625;violin
40.27023;0.27027000000000356;78;0.7890625;violin
40.5405;0.27027000000000356;74;0.7890625;violin
40.5405;0.27027000000000356;83;0.7890625;violin
40.810770000000005;0.23648624999999868;72;0.7890625;violin
40.810770000000005;0.23648624999999868;78;0.7890625;violin
41.08104;0.11824312499999934;72;0.7578125;violin
41.08104;0.54054;81;0.7890625;violin
41.216175;0.11824312499999934;71;0.7578125;violin
41.35131;0.11824312500000644;72;0.7578125;violin
41.486445;0.11824312499999934;69;0.7578125;violin
41.62158;0.23648624999999868;71;0.7578125;violin
41.62158;0.23648624999999868;79;0.7890625;violin
41.891850000000005;0.13513499999999823;62;0.7890625;violin
42.026985;0.13513499999999823;64;0.7890625;violin
42.16212;0.13513499999999823;66;0.7890625;violin
42.297255;0.13513499999999823;67;0.7890625;violin
42.43239;0.13513500000000533;66;0.7890625;violin
42.567525;0.13513499999999823;67;0.7890625;violin
42.70266;0.13513499999999823;69;0.7890625;violin
42.837795;0.13513500000000533;71;0.7890625;violin
42.972930000000005;0.13513499999999823;69;0.7890625;violin
43.108065;0.11824312499999934;71;0.7890625;violin
43.2432;0.895269374999998;62;0.7578125;violin
43.2432;0.13513499999999823;72;0.7890625;violin
43.378335;0.13513499999999823;74;0.7890625;violin
43.51347;0.13513500000000533;72;0.7890625;violin
43.648605;0.13513499999999823;71;0.7890625;violin
43.78374;0.4054050000000018;72;0.7890625;violin
44.189145;0.11824312499999934;69;0.7578125;violin
44.189145;0.11824312499999934;78;0.7890625;violin
44.32428;0.11824312499999934;72;0.7578125;violin
44.32428;0.54054;83;0.7890625;violin
44.459415;0.11824312499999934;74;0.7578125;violin
44.59455;0.11824312500000644;72;0.7578125;violin
44.729685;0.11824312499999934;71;0.7578125;violin
44.86482;0.354729374999998;72;0.7578125;violin
44.86482;0.4054050000000018;81;0.7890625;violin
45.270225;0.11824312499999934;62;0.7578125;violin
45.270225;0.11824312499999934;72;0.7890625;violin
45.40536;0.895269374999998;67;0.7578125;violin
45.40536;0.13513499999999823;71;0.7890625;violin
45.540495;0.13513499999999823;72;0.7890625;violin
45.67563;0.13513500000000533;71;0.7890625;violin
45.810765;0.13513499999999823;69;0.7890625;violin
45.9459;0.4054050000000018;71;0.7890625;violin
46.351305;0.11824312499999934;71;0.7578125;violin
46.351305;0.10135125000000045;79;0.7890625;violin
46.48644;0.11824312499999934;71;0.7578125;violin
46.48644;0.54054;83;0.7890625;violin
46.621575;0.11824312499999934;72;0.7578125;violin
46.75671;0.11824312500000644;71;0.7578125;violin
46.891845;0.11824312499999934;69;0.7578125;violin
47.02698;0.354729374999998;71;0.7578125;violin
47.02698;0.4054050000000018;79;0.7890625;violin
47.432385000000004;0.11824312499999934;71;0.7578125;violin
47.432385000000004;0.10135125000000045;83;0.7890625;violin
47.56752;0.13513499999999823;73;0.7578125;violin
47.56752;0.47297249999999735;76;0.7890625;violin
47.702655;0.13513499999999823;74;0.7578125;violin
47.83779;0.13513500000000533;73;0.7578125;violin
47.972925000000004;0.11824312499999934;71;0.7578125;violin
48.10806;0.23648624999999868;73;0.7578125;violin
48.10806;0.13513499999999823;81;0.7890625;violin
48.243195;0.13513500000000533;83;0.7890625;violin
48.378330000000005;0.23648624999999868;69;0.7578125;violin
48.378330000000005;0.13513499999999823;81;0.7890625;violin
48.513465000000004;0.11824312499999934;79;0.7890625;violin
48.6486;0.13513499999999823;74;0.7578125;violin
48.6486;0.47297249999999735;78;0.7890625;violin
48.783735;0.13513499999999823;73;0.7578125;violin
48.91887;0.13513500000000533;74;0.7578125;violin
49.054005000000004;0.11824312499999934;69;0.7578125;violin
49.18914;0.13513499999999823;73;0.7578125;violin
49.18914;0.47297249999999735;76;0.7890625;violin
49.324275;0.13513500000000533;71;0.7578125;violin
49.459410000000005;0.13513499999999823;73;0.7578125;violin
49.594545000000004;0.11824312499999934;69;0.7578125;violin
49.72968;0.23648624999999868;66;0.7578125;violin
49.72968;0.13513499999999823;74;0.7890625;violin
49.864815;0.11824312499999934;69;0.7890625;violin
49.99995;0.11824312500000644;66;0.7578125;violin
49.99995;0.11824312500000644;74;0.7890625;violin
50.135085000000004;0.11824312499999934;69;0.7578125;violin
50.135085000000004;0.11824312499999934;76;0.7890625;violin
50.27022;0.13513499999999823;74;0.7890625;violin
50.27022;0.13513499999999823;78;0.7890625;violin
50.405355;0.11824312499999934;76;0.828125;violin
50.405355;0.11824312499999934;79;0.828125;violin
50.540490000000005;0.11824312499999934;78;0.859375;violin
50.540490000000005;0.11824312499999934;81;0.859375;violin
50.675625000000004;0.11824312499999934;77;0.8984375;violin
50.675625000000004;0.11824312499999934;80;0.8984375;violin
50.81076;0.13513499999999823;78;0.9296875;violin
50.81076;0.13513499999999823;81;0.9296875;violin
50.945895;0.11824312499999934;79;0.96875;violin
50.945895;0.11824312499999934;83;0.96875;violin
51.08103;0.11824312500000644;78;0.96875;violin
51.08103;0.11824312500000644;81;0.96875;violin
51.216165000000004;0.11824312499999934;76;0.96875;violin
51.216165000000004;0.11824312499999934;79;0.96875;violin
51.3513;0.13513499999999823;74;0.96875;violin
51.3513;0.13513499999999823;78;0.96875;violin
51.486435;0.11824312499999934;72;0.90625;violin
51.486435;0.11824312499999934;76;0.90625;violin
51.621570000000006;0.11824312499999934;71;0.8515625;violin
51.621570000000006;0.11824312499999934;74;0.8515625;violin
51.756705000000004;0.11824312499999934;69;0.7890625;violin
51.756705000000004;0.11824312499999934;72;0.7890625;violin
51.89184;1.4189174999999992;71;0.7578125;violin
51.89184;0.13513499999999823;76;0.7890625;violin
52.026975;0.13513499999999823;74;0.7890625;violin
52.16211;0.13513500000000533;76;0.7890625;violin
52.297245000000004;0.13513499999999823;74;0.7890625;violin
52.43238;0.13513499999999823;76;0.7890625;violin
52.567515;0.13513500000000533;74;0.7890625;violin
52.702650000000006;0.13513499999999823;76;0.7890625;violin
52.837785000000004;0.13513499999999823;74;0.7890625;violin
52.97292;0.13513499999999823;76;0.7890625;violin
53.108055;0.13513499999999823;74;0.7890625;violin
53.24319;0.13513500000000533;76;0.7890625;violin
53.378325000000004;0.11824312499999934;74;0.7890625;violin
53.51346;0.11824312499999934;71;0.7578125;violin
53.51346;0.11824312499999934;79;0.7890625;violin
54.054;1.4189174999999992;67;0.7578125;violin
54.054;0.13513499999999823;72;0.7890625;violin
54.189135;0.13513499999999823;71;0.7890625;violin
54.32427;0.13513500000000533;72;0.7890625;violin
54.459405000000004;0.13513499999999823;71;0.7890625;violin
54.59454;0.13513499999999823;72;0.7890625;violin
54.729675;0.13513500000000533;71;0.7890625;violin
54.864810000000006;0.13513499999999823;72;0.7890625;violin
54.999945000000004;0.13513499999999823;71;0.7890625;violin
55.13508;0.13513499999999823;72;0.7890625;violin
55.270215;0.13513499999999823;71;0.7890625;violin
55.40535;0.13513500000000533;72;0.7890625;violin
55.540485000000004;0.11824312499999934;71;0.7890625;violin
55.67562;0.11824312499999934;67;0.7578125;violin
55.67562;0.11824312499999934;76;0.7890625;violin
56.21616;0.13513499999999823;66;0.7578125;violin
56.21616;0.9459450000000018;69;0.7890625;violin
56.351295;0.13513499999999823;64;0.7578125;violin
56.48643;0.13513500000000533;66;0.7578125;violin
56.621565000000004;0.13513499999999823;62;0.7578125;violin
56.7567;0.13513499999999823;66;0.7578125;violin
56.891835;0.13513500000000533;64;0.7578125;violin
57.026970000000006;0.13513499999999823;66;0.7578125;violin
57.162105000000004;0.11824312499999934;62;0.7578125;violin
57.29724;0.13513499999999823;66;0.7578125;violin
57.29724;0.8108100000000036;69;0.7890625;violin
57.432375;0.13513499999999823;64;0.7578125;violin
57.56751;0.13513500000000533;66;0.7578125;violin
57.702645000000004;0.11824312499999934;62;0.7578125;violin
57.83778;0.13513499999999823;66;0.7578125;violin
57.972915;0.13513500000000533;64;0.7578125;violin
58.108050000000006;0.13513499999999823;66;0.7578125;violin
58.243185000000004;0.11824312499999934;62;0.7578125;violin
58.37832;0.13513499999999823;67;0.7578125;violin
58.37832;0.47297249999999735;71;0.7890625;violin
58.513455;0.13513499999999823;66;0.7578125;violin
58.64859;0.13513500000000533;67;0.7578125;violin
58.783725000000004;0.11824312499999934;62;0.7578125;violin
58.91886;0.13513499999999823;66;0.7578125;violin
58.91886;0.47297249999999735;69;0.7890625;violin
59.053995;0.13513500000000533;64;0.7578125;violin
59.189130000000006;0.13513499999999823;66;0.7578125;violin
59.324265000000004;0.11824312499999934;62;0.7578125;violin
59.4594;0.47297249999999735;59;0.7578125;violin
59.4594;0.47297249999999735;67;0.7890625;violin
59.99994;0.13513499999999823;62;0.7890625;violin
60.135075;0.13513500000000533;67;0.7890625;violin
60.270210000000006;0.13513499999999823;71;0.7890625;violin
60.405345000000004;0.11824312499999934;74;0.7890625;violin
60.54048;1.4189174999999992;71;0.7578125;violin
60.54048;0.13513499999999823;76;0.7890625;violin
60.675615;0.13513499999999823;74;0.7890625;violin
60.81075;0.13513500000000533;76;0.7890625;violin
60.945885000000004;0.13513499999999823;74;0.7890625;violin
61.08102;0.13513499999999823;76;0.7890625;violin
61.216155;0.13513500000000533;74;0.7890625;violin
61.351290000000006;0.13513499999999823;76;0.7890625;violin
61.486425000000004;0.13513499999999823;74;0.7890625;violin
61.62156;0.13513499999999823;76;0.7890625;violin
61.756695;0.13513499999999823;74;0.7890625;violin
61.89183;0.13513500000000533;76;0.7890625;violin
62.026965000000004;0.11824312499999934;74;0.7890625;violin
62.1621;0.11824312499999934;71;0.7578125;violin
62.1621;0.11824312499999934;79;0.7890625;violin
62.70264;1.4189175000000063;67;0.7578125;violin
62.70264;0.13513499999999823;72;0.7890625;violin
62.837775;0.13513499999999823;71;0.7890625;violin
62.97291;0.13513500000000533;72;0.7890625;violin
63.108045000000004;0.13513499999999823;71;0.7890625;violin
63.24318;0.13513499999999823;72;0.7890625;violin
63.378315;0.13513500000000533;71;0.7890625;violin
63.513450000000006;0.13513499999999823;72;0.7890625;violin
63.648585000000004;0.13513499999999823;71;0.7890625;violin
63.78372;0.13513499999999823;72;0.7890625;violin
63.918855;0.13513499999999823;71;0.7890625;violin
64.05399;0.13513500000000533;72;0.7890625;violin
64.189125;0.11824312499999223;71;0.7890625;violin
64.32426000000001;0.11824312499999223;67;0.7578125;violin
64.32426000000001;0.11824312499999223;76;0.7890625;violin
64.8648;0.13513500000000533;66;0.7578125;violin
64.8648;0.47297249999999735;69;0.7890625;violin
64.99993500000001;0.13513499999999112;64;0.7578125;violin
65.13507;0.13513500000000533;66;0.7578125;violin
65.270205;0.11824312499999223;62;0.7578125;violin
65.40534;0.13513500000000533;66;0.7578125;violin
65.40534;0.47297250000001156;74;0.7890625;violin
65.540475;0.13513500000000533;64;0.7578125;violin
65.67561;0.13513499999999112;66;0.7578125;violin
65.810745;0.11824312500000644;62;0.7578125;violin
65.94588;0.13513500000000533;66;0.7578125;violin
65.94588;0.47297249999999735;69;0.7890625;violin
66.08101500000001;0.13513499999999112;64;0.7578125;violin
66.21615;0.13513500000000533;66;0.7578125;violin
66.351285;0.11824312499999223;62;0.7578125;violin
66.48642000000001;0.13513499999999112;60;0.7578125;violin
66.48642000000001;0.47297249999999735;62;0.7890625;violin
66.621555;0.13513500000000533;59;0.7578125;violin
66.75669;0.13513499999999112;60;0.7578125;violin
66.891825;0.11824312500000644;57;0.7578125;violin
67.02696;0.23648624999999868;59;0.7890625;violin
67.02696;0.23648624999999868;67;0.7890625;violin
67.5675;0.06756750000000977;65;0.9453125;violin
67.5675;0.06756750000000977;76;0.9453125;violin
67.702635;0.13513500000000533;74;0.7890625;violin
67.83777;0.13513499999999112;76;0.7890625;violin
67.972905;0.13513500000000533;74;0.7890625;violin
68.10804;0.10135124999999334;64;0.9453125;violin
68.10804;0.10135124999999334;72;0.9453125;violin
68.24317500000001;0.13513499999999112;71;0.7890625;violin
68.37831;0.13513500000000533;72;0.7890625;violin
68.513445;0.13513500000000533;69;0.7890625;violin
68.64858000000001;0.10135124999999334;60;0.9453125;violin
68.64858000000001;0.10135124999999334;66;0.9453125;violin
68.783715;0.13513500000000533;64;0.7890625;violin
68.91885;0.13513499999999112;66;0.7890625;violin
69.053985;0.13513500000000533;62;0.7890625;violin
69.18912;0.10135124999999334;59;0.9453125;violin
69.18912;0.10135124999999334;67;0.9453125;violin
69.32425500000001;0.13513499999999112;57;0.7890625;violin
69.45939;0.13513500000000533;59;0.7890625;violin
69.594525;0.13513499999999112;55;0.7890625;violin
69.72966;0.10135125000000755;65;0.9453125;violin
69.72966;0.10135125000000755;76;0.9453125;violin
69.864795;0.13513500000000533;74;0.7890625;violin
69.99993;0.13513499999999112;76;0.7890625;violin
70.135065;0.13513500000000533;74;0.7890625;violin
70.2702;0.10135124999999334;64;0.9453125;violin
70.2702;0.10135124999999334;72;0.9453125;violin
70.40533500000001;0.13513499999999112;71;0.7890625;violin
70.54047;0.13513500000000533;72;0.7890625;violin
70.675605;0.13513500000000533;69;0.7890625;violin
70.81074000000001;0.10135124999999334;60;0.9453125;violin
70.81074000000001;0.10135124999999334;66;0.9453125;violin
70.945875;0.13513500000000533;64;0.7890625;violin
71.08101;0.13513499999999112;66;0.7890625;violin
71.216145;0.13513500000000533;62;0.7890625;violin
71.35128;0.2027025000000009;59;0.9453125;violin
71.35128;0.2027025000000009;67;0.9453125;violin
71.62155;0.27026999999999646;67;0.7890625;violin
71.62155;0.27026999999999646;71;0.7890625;violin
71.89182;0.2027025000000009;71;0.7890625;violin
71.89182;0.2027025000000009;74;0.7890625;violin
72.16209;0.27026999999999646;71;0.7890625;violin
72.16209;0.27026999999999646;79;0.7890625;violin
72.43236;0.2027025000000009;79;0.7890625;violin
72.43236;0.2027025000000009;83;0.7890625;violin
72.70263;0.27027000000001067;78;0.7890625;violin
72.70263;0.27027000000001067;81;0.7890625;violin
72.97290000000001;0.20270249999998668;86;0.7890625;violin
73.24317;0.27026999999999646;78;0.7890625;violin
73.24317;0.27026999999999646;81;0.7890625;violin
73.51344;0.2027025000000009;79;0.7890625;violin
73.51344;0.2027025000000009;83;0.7890625;violin
73.78371;0.27026999999999646;67;0.7890625;violin
73.78371;0.27026999999999646;71;0.7890625;violin
74.05398;0.2027025000000009;71;0.7890625;violin
74.05398;0.2027025000000009;74;0.7890625;violin
74.32425;0.27026999999999646;71;0.7890625;violin
74.32425;0.27026999999999646;79;0.7890625;violin
74.59452;0.2027025000000009;79;0.7890625;violin
74.59452;0.2027025000000009;83;0.7890625;violin
74.86479;0.27027000000001067;78;0.7890625;violin
74.86479;0.27027000000001067;81;0.7890625;violin
75.13506000000001;0.23648624999999868;86;0.7890625;violin
75.40533;0.27026999999999646;78;0.7890625;violin
75.40533;0.27026999999999646;81;0.7890625;violin
75.6756;0.23648624999999868;79;0.7890625;violin
75.6756;0.23648624999999868;83;0.7890625;violin
76.21614;0.13513500000000533;66;0.7578125;violin
76.21614;0.47297250000001156;69;0.7890625;violin
76.351275;0.13513500000000533;64;0.7578125;violin
76.48641;0.13513499999999112;66;0.7578125;violin
76.621545;0.11824312500000644;62;0.7578125;violin
76.75668;0.13513500000000533;67;0.7578125;violin
76.75668;0.47297249999999735;71;0.7890625;violin
76.89181500000001;0.13513499999999112;66;0.7578125;violin
77.02695;0.13513500000000533;67;0.7578125;violin
77.162085;0.11824312499999223;62;0.7578125;violin
77.29722000000001;0.13513499999999112;66;0.7578125;violin
77.29722000000001;0.47297249999999735;69;0.7890625;violin
77.432355;0.13513500000000533;64;0.7578125;violin
77.56749;0.13513499999999112;66;0.7578125;violin
77.702625;0.11824312500000644;62;0.7578125;violin
77.83776;0.13513500000000533;67;0.7578125;violin
77.83776;0.47297249999999735;71;0.7890625;violin
77.97289500000001;0.13513499999999112;66;0.7578125;violin
78.10803;0.13513500000000533;67;0.7578125;violin
78.243165;0.11824312499999223;62;0.7578125;violin
78.3783;0.13513500000000533;66;0.7578125;violin
78.3783;0.47297250000001156;69;0.7890625;violin
78.513435;0.13513500000000533;64;0.7578125;violin
78.64857;0.13513499999999112;66;0.7578125;violin
78.783705;0.11824312500000644;62;0.7578125;violin
78.91884;0.13513500000000533;67;0.7578125;violin
78.91884;0.47297249999999735;71;0.7890625;violin
79.05397500000001;0.13513499999999112;66;0.7578125;violin
79.18911;0.13513500000000533;67;0.7578125;violin
79.324245;0.11824312499999223;62;0.7578125;violin
79.45938000000001;0.13513499999999112;60;0.7578125;violin
79.45938000000001;0.47297249999999735;62;0.7890625;violin
79.594515;0.13513500000000533;59;0.7578125;violin
79.72965;0.13513499999999112;60;0.7578125;violin
79.864785;0.11824312500000644;57;0.7578125;violin
79.99992;0.13513500000000533;59;0.7578125;violin
79.99992;0.9459449999999947;67;0.7890625;violin
80.13505500000001;0.13513499999999112;62;0.7578125;violin
80.27019;0.13513500000000533;57;0.7578125;violin
80.405325;0.13513499999999112;62;0.7578125;violin
80.54046;0.13513500000000533;55;0.7578125;violin
80.675595;0.13513500000000533;62;0.7578125;violin
80.81073;0.13513499999999112;57;0.7578125;violin
80.945865;0.11824312500000644;62;0.7578125;violin
81.081;0.13513500000000533;59;0.7578125;violin
81.081;0.9459449999999947;67;0.7890625;violin
81.21613500000001;0.13513499999999112;62;0.7578125;violin
81.35127;0.13513500000000533;57;0.7578125;violin
81.486405;0.13513500000000533;62;0.7578125;violin
81.62154000000001;0.13513499999999112;55;0.7578125;violin
81.756675;0.13513500000000533;62;0.7578125;violin
81.89181;0.13513499999999112;57;0.7578125;violin
82.026945;0.11824312500000644;62;0.7578125;violin
82.16208;1.4189175000000063;59;0.7890625;violin
82.16208;1.4189175000000063;67;0.7890625;violin
