start;duration;pitch;velocity;instrument
0.0;0.4729725;72;0.9453125;violin
0.54054;0.10135125;71;0.7890625;violin
0.675675;0.10135125;69;0.7890625;violin
0.81081;0.10135125;67;0.7890625;violin
0.945945;0.10135125;65;0.7890625;violin
1.08108;0.945945;64;0.7890625;violin
2.16216;0.54054;69;0.9453125;violin
2.7027;0.10135125;67;0.7890625;violin
2.837835;0.10135125;65;0.7890625;violin
2.97297;0.10135125;64;0.7890625;violin
3.108105;0.10135125;62;0.7890625;violin
3.24324;0.945945;60;0.7890625;violin
4.32432;0.4729725;64;0.9453125;violin
4.86486;0.135135;62;0.7890625;violin
4.999995;0.10135125000000045;60;0.7890625;violin
5.13513;0.10135125000000045;59;0.7890625;violin
5.270265;0.10135125000000045;57;0.7890625;violin
5.4054;0.945945;55;0.7890625;violin
6.48648;0.23648625000000045;60;0.9453125;violin
6.75675;0.135135;62;0.7890625;violin
6.891885;0.10135125000000045;64;0.7890625;violin
7.02702;0.10135125000000045;65;0.7890625;violin
7.162155;0.10135125000000045;67;0.7890625;violin
7.29729;0.10135125000000045;69;0.7890625;violin
7.432425;0.10135125000000045;71;0.7890625;violin
7.56756;0.945945;72;0.7890625;violin
8.64864;0.135135;77;0.7890625;violin
8.783775;0.11824312499999934;79;0.7890625;violin
8.91891;0.10135125000000045;81;0.7890625;violin
9.054045;0.10135125000000045;79;0.7890625;violin
9.18918;0.10135125000000045;77;0.7890625;violin
9.324315;0.10135125000000045;76;0.7890625;violin
9.45945;0.10135125000000045;74;0.7890625;violin
9.594585;0.10135125000000045;72;0.7890625;violin
9.72972;0.945945;71;0.7890625;violin
10.8108;0.135135;72;0.7890625;violin
10.945935;0.11824312499999934;74;0.7890625;violin
11.08107;0.135135;76;0.7890625;violin
11.216205;0.10135125000000045;74;0.7890625;violin
11.35134;0.10135125000000045;72;0.7890625;violin
11.486475;0.10135125000000045;67;0.7890625;violin
11.62161;0.10135125000000045;64;0.7890625;violin
11.756745;0.10135125000000045;60;0.7890625;violin
11.89188;0.945945;55;0.7890625;violin
12.97296;0.135135;59;0.7890625;violin
13.108095;0.11824312499999934;57;0.7890625;violin
13.24323;0.10135125000000045;55;0.7890625;violin
13.378365;0.10135125000000045;57;0.7890625;violin
13.5135;0.10135125000000045;59;0.7890625;violin
13.648635;0.10135125000000045;60;0.7890625;violin
13.78377;0.10135125000000045;62;0.7890625;violin
13.918905;0.10135125000000045;64;0.7890625;violin
14.05404;0.135135;65;0.7890625;violin
14.189175;0.11824312499999934;64;0.7890625;violin
14.32431;0.10135125000000045;62;0.7890625;violin
14.459445;0.10135125000000045;64;0.7890625;violin
14.59458;0.10135125000000045;65;0.7890625;violin
14.729715;0.10135125000000045;67;0.7890625;violin
14.86485;0.10135125000000045;69;0.7890625;violin
14.999985;0.10135125000000045;71;0.7890625;violin
15.13512;0.23648625000000045;72;0.7890625;violin
15.40539;0.10135125000000045;71;0.7890625;violin
15.540525;0.10135125000000045;69;0.7890625;violin
15.67566;0.10135125000000045;67;0.7890625;violin
15.810795;0.10135125000000045;65;0.7890625;violin
15.94593;0.10135125000000045;64;0.7890625;violin
16.081065000000002;0.1013512499999969;62;0.7890625;violin
16.2162;0.9459450000000018;60;0.7890625;violin
17.29728;0.23648624999999868;64;0.7890625;violin
17.56755;0.10135125000000045;66;0.7890625;violin
17.702685000000002;0.1013512499999969;68;0.7890625;violin
17.83782;0.10135125000000045;69;0.7890625;violin
17.972955;0.10135125000000045;71;0.7890625;violin
18.10809;0.10135125000000045;72;0.7890625;violin
18.243225000000002;0.1013512499999969;74;0.7890625;violin
18.37836;1.08108;76;0.7890625;violin
19.45944;0.13513499999999823;72;0.7890625;violin
19.594575;0.11824312500000289;69;0.7890625;violin
19.72971;0.10135125000000045;71;0.7890625;violin
19.864845000000003;0.1013512499999969;72;0.7890625;violin
19.99998;0.10135125000000045;74;0.7890625;violin
20.135115;0.10135125000000045;76;0.7890625;violin
20.27025;0.10135125000000045;78;0.7890625;violin
20.405385000000003;0.1013512499999969;80;0.7890625;violin
20.54052;0.9459450000000018;81;0.7890625;violin
21.6216;0.23648624999999868;62;0.7890625;violin
21.89187;0.10135125000000045;64;0.7890625;violin
22.027005000000003;0.1013512499999969;66;0.7890625;violin
22.16214;0.10135125000000045;67;0.7890625;violin
22.297275;0.10135125000000045;69;0.7890625;violin
22.43241;0.10135125000000045;71;0.7890625;violin
22.567545000000003;0.1013512499999969;72;0.7890625;violin
22.70268;0.9459450000000018;74;0.7890625;violin
23.78376;0.13513499999999823;71;0.7890625;violin
23.918895;0.11824312500000289;67;0.7890625;violin
24.05403;0.10135125000000045;69;0.7890625;violin
24.189165000000003;0.1013512499999969;71;0.7890625;violin
24.3243;0.10135125000000045;72;0.7890625;violin
24.459435;0.10135125000000045;74;0.7890625;violin
24.59457;0.10135125000000045;76;0.7890625;violin
24.729705000000003;0.1013512499999969;78;0.7890625;violin
24.86484;0.9459450000000018;79;0.7890625;violin
25.94592;0.23648624999999868;55;0.9453125;violin
26.21619;0.10135125000000045;57;0.7890625;violin
26.351325000000003;0.1013512499999969;59;0.7890625;violin
26.48646;0.10135125000000045;60;0.7890625;violin
26.621595;0.10135125000000045;62;0.7890625;violin
26.75673;0.10135125000000045;64;0.7890625;violin
26.891865000000003;0.1013512499999969;65;0.7890625;violin
27.027;0.9459450000000018;67;0.7890625;violin
28.10808;0.23648624999999868;64;0.7890625;violin
28.37835;0.10135125000000045;65;0.7890625;violin
28.513485000000003;0.1013512499999969;67;0.7890625;violin
28.64862;0.10135125000000045;69;0.7890625;violin
28.783755;0.10135125000000045;71;0.7890625;violin
28.91889;0.10135125000000045;72;0.7890625;violin
29.054025000000003;0.1013512499999969;74;0.7890625;violin
29.18916;1.08108;76;0.7890625;violin
30.27024;0.13513499999999823;81;0.7890625;violin
30.405375;0.11824312500000289;79;0.7890625;violin
30.54051;0.10135125000000045;77;0.7890625;violin
30.675645000000003;0.1013512499999969;76;0.7890625;violin
30.81078;0.10135125000000045;74;0.7890625;violin
30.945915;0.10135125000000045;72;0.7890625;violin
31.08105;0.10135125000000045;71;0.7890625;violin
31.216185000000003;0.1013512499999969;69;0.7890625;violin
31.35132;0.10135125000000045;67;0.7890625;violin
31.486455;0.10135125000000045;65;0.7890625;violin
31.62159;0.10135125000000045;64;0.7890625;violin
31.756725000000003;0.1013512499999969;62;0.7890625;violin
31.89186;0.10135125000000045;60;0.7890625;violin
32.026995;0.10135125000000045;59;0.7890625;violin
32.162130000000005;0.10135124999999334;57;0.7890625;violin
32.297265;0.10135125000000045;55;0.7890625;violin
32.4324;0.15765749999999912;60;0.9453125;violin
32.61258;0.13513499999999823;64;0.7890625;violin
32.79276;0.13513499999999823;67;0.7890625;violin
32.97294;0.13513499999999823;72;0.7890625;violin
33.15312;0.13513499999999823;76;0.7890625;violin
33.3333;0.13513499999999823;79;0.7890625;violin
33.51348;1.08108;84;0.7890625;violin
34.59456;0.15765749999999912;57;0.9453125;violin
34.77474;0.13513499999999823;61;0.7890625;violin
34.95492;0.13513499999999823;64;0.7890625;violin
35.1351;0.13513499999999823;69;0.7890625;violin
35.31528;0.13513499999999823;73;0.7890625;violin
35.49546;0.18018;76;0.7890625;violin
35.67564;0.9459450000000018;79;0.7890625;violin
36.75672;0.15765749999999912;77;0.9453125;violin
36.9369;0.13513499999999823;81;0.7890625;violin
37.11708;0.13513499999999823;77;0.7890625;violin
37.29726;0.13513499999999823;74;0.7890625;violin
37.47744;0.13513499999999823;69;0.7890625;violin
37.65762;0.13513499999999823;65;0.7890625;violin
37.8378;0.9459450000000018;62;0.7890625;violin
38.91888;0.15765749999999912;55;0.9453125;violin
39.09906;0.13513499999999823;59;0.7890625;violin
39.27924;0.13513499999999823;62;0.7890625;violin
39.45942;0.13513499999999823;67;0.7890625;violin
39.6396;0.13513499999999823;71;0.7890625;violin
39.81978;0.13513499999999823;74;0.7890625;violin
39.99996;0.9459450000000018;77;0.7890625;violin
41.08104;0.15765749999999912;76;0.9453125;violin
41.26122;0.13513499999999823;79;0.7890625;violin
41.4414;0.13513499999999823;76;0.7890625;violin
41.62158;0.13513499999999823;72;0.7890625;violin
41.80176;0.13513499999999823;67;0.7890625;violin
41.98194;0.13513499999999823;64;0.7890625;violin
42.16212;0.9459450000000018;60;0.7890625;violin
43.2432;0.15765749999999912;58;0.9453125;violin
43.42338;0.13513499999999823;64;0.7890625;violin
43.60356;0.13513499999999823;67;0.7890625;violin
43.78374;0.13513499999999823;70;0.7890625;violin
43.96392;0.18018;76;0.7890625;violin
44.1441;0.13513499999999823;79;0.7890625;violin
44.32428;0.9459450000000018;82;0.7890625;violin
45.40536;0.15765749999999912;81;0.9453125;violin
45.58554;0.18018;84;0.7890625;violin
45.76572;0.13513499999999823;81;0.7890625;violin
45.9459;0.13513499999999823;77;0.7890625;violin
46.12608;0.13513499999999823;72;0.7890625;violin
46.30626;0.13513499999999823;69;0.7890625;violin
46.48644;0.9459450000000018;65;0.7890625;violin
47.56752;0.13513499999999823;64;0.7890625;violin
47.702655;0.11824312499999934;67;0.7890625;violin
47.83779;0.10135125000000045;72;0.7890625;violin
47.972925000000004;0.10135125000000045;71;0.7890625;violin
48.10806;0.10135125000000045;69;0.7890625;violin
48.243195;0.10135125000000045;67;0.7890625;violin
48.378330000000005;0.10135124999999334;65;0.7890625;violin
48.513465000000004;0.10135125000000045;64;0.7890625;violin
48.6486;0.13513499999999823;62;0.7890625;violin
48.783735;0.11824312499999934;65;0.7890625;violin
48.91887;0.10135125000000045;71;0.7890625;violin
49.054005000000004;0.10135125000000045;69;0.7890625;violin
49.18914;0.10135125000000045;67;0.7890625;violin
49.324275;0.10135125000000045;65;0.7890625;violin
49.459410000000005;0.10135124999999334;64;0.7890625;violin
49.594545000000004;0.10135125000000045;62;0.7890625;violin
49.72968;0.23648624999999868;60;0.9453125;violin
49.99995;0.10135125000000045;62;0.7890625;violin
50.135085000000004;0.10135125000000045;64;0.7890625;violin
50.27022;0.10135125000000045;65;0.7890625;violin
50.405355;0.10135125000000045;67;0.7890625;violin
50.540490000000005;0.10135124999999334;69;0.7890625;violin
50.675625000000004;0.10135125000000045;71;0.7890625;violin
50.81076;0.9459450000000018;72;0.7890625;violin
