start;duration;pitch;velocity;instrument
0.0;0.21341425000000003;55;0.7890625;violin
0.243902;0.21341425000000003;57;0.7890625;violin
0.487804;0.21341425000000003;59;0.7890625;violin
0.7317060000000001;0.853657;60;0.7890625;violin
1.7073140000000002;0.8536570000000001;55;0.7890625;violin
2.682922;0.8536570000000001;60;0.7890625;violin
3.6585300000000003;0.8536570000000006;55;0.7890625;violin
4.634138;0.9756080000000003;60;0.7890625;violin
5.609746;0.9756080000000003;64;0.7890625;violin
6.585354000000001;0.9756080000000003;67;0.7890625;violin
7.560962000000001;0.9756080000000003;72;0.7890625;violin
8.536570000000001;0.48780400000000057;60;0.7890625;violin
9.024374000000002;0.4878039999999988;64;0.7890625;violin
9.512178;0.48780400000000057;67;0.7890625;violin
9.999982000000001;0.48780400000000057;72;0.7890625;violin
10.487786000000002;0.4878039999999988;76;0.7890625;violin
10.97559;0.48780400000000057;79;0.7890625;violin
11.463394000000001;0.24390200000000029;84;0.7890625;violin
11.707296000000001;0.24390200000000029;83;0.7890625;violin
11.951198000000002;0.24390200000000029;84;0.7890625;violin
12.195100000000002;0.2439019999999985;86;0.7890625;violin
12.439002;1.9512160000000005;84;0.7890625;violin
14.390218;1.1890222500000007;60;0.7890625;violin
15.609728;0.21341425000000136;55;0.7890625;violin
15.85363;0.21341425000000136;57;0.7890625;violin
16.097532;0.21341424999999958;59;0.7890625;violin
16.341434000000003;0.8536569999999983;60;0.7890625;violin
17.317042;0.8536570000000019;55;0.7890625;violin
18.292650000000002;0.8536569999999983;60;0.7890625;violin
19.268258000000003;0.8536569999999983;55;0.7890625;violin
20.243866;0.9756080000000011;60;0.7890625;violin
21.219474;0.9756080000000011;64;0.7890625;violin
22.195082000000003;0.9756079999999976;67;0.7890625;violin
23.17069;0.9756080000000011;72;0.7890625;violin
24.146298;0.48780400000000057;64;0.7890625;violin
24.634102000000002;0.48780400000000057;67;0.7890625;violin
25.121906000000003;0.48780400000000057;72;0.7890625;violin
25.609710000000003;0.48780400000000057;76;0.7890625;violin
26.097514000000004;0.487803999999997;74;0.7890625;violin
26.585318;0.48780400000000057;78;0.7890625;violin
27.073122;0.48780400000000057;81;0.7890625;violin
27.560926000000002;0.48780400000000057;86;0.7890625;violin
28.048730000000003;0.48780400000000057;83;0.7890625;violin
28.536534000000003;0.48780400000000057;79;0.7890625;violin
29.024338000000004;0.48780400000000057;74;0.7890625;violin
29.512142000000004;0.487803999999997;71;0.7890625;violin
29.999946;1.1890222500000007;67;0.7890625;violin
31.219456;0.21341425000000314;62;0.7890625;violin
31.463358000000003;0.2439019999999985;64;0.7890625;violin
31.70726;0.21341424999999958;66;0.7890625;violin
31.951162000000004;0.8536569999999983;67;0.7890625;violin
32.926770000000005;0.8536569999999983;62;0.7890625;violin
33.902378000000006;0.8536569999999983;67;0.7890625;violin
34.877986;0.8536570000000054;62;0.7890625;violin
35.853594;0.9756080000000011;67;0.7890625;violin
36.829202;0.9756080000000011;71;0.7890625;violin
37.80481;0.9756080000000011;74;0.7890625;violin
38.780418000000004;0.9756080000000011;79;0.7890625;violin
39.756026000000006;0.487803999999997;67;0.7890625;violin
40.24383;0.4878040000000041;71;0.7890625;violin
40.73163400000001;0.487803999999997;74;0.7890625;violin
41.219438000000004;0.487803999999997;79;0.7890625;violin
41.707242;0.4878040000000041;83;0.7890625;violin
42.195046000000005;0.487803999999997;86;0.7890625;violin
42.68285;0.2439019999999985;77;0.7890625;violin
42.926752;0.2134142500000067;76;0.7890625;violin
43.170654000000006;0.21341424999999958;76;0.7890625;violin
43.414556000000005;0.21341424999999958;79;0.7890625;violin
43.658458;1.7073140000000038;76;0.7890625;violin
45.609674000000005;0.487803999999997;55;0.7890625;violin
46.097478;0.4878040000000041;60;0.7890625;violin
46.58528200000001;0.42682849999999917;64;0.7890625;violin
47.073086;0.42682849999999917;67;0.7890625;violin
47.56089000000001;1.9512159999999952;72;0.7890625;violin
49.512106;1.9512160000000023;60;0.7890625;violin
51.463322000000005;1.9512160000000023;76;0.7890625;violin
53.41453800000001;1.9512159999999952;60;0.7890625;violin
55.365754;1.9512160000000023;79;0.7890625;violin
57.316970000000005;1.9512160000000023;60;0.7890625;violin
59.26818600000001;0.9756080000000011;84;0.7890625;violin
60.24379400000001;0.2439019999999985;82;0.7890625;violin
60.48769600000001;0.2439019999999985;81;0.7890625;violin
60.731598000000005;0.2439019999999985;82;0.7890625;violin
60.975500000000004;0.2439019999999985;84;0.7890625;violin
61.219402;0.4268285000000063;81;0.7890625;violin
61.707206000000006;0.42682849999999917;77;0.7890625;violin
62.19501;0.42682849999999917;74;0.7890625;violin
62.68281400000001;0.487803999999997;69;0.7890625;violin
63.170618000000005;0.4878040000000041;74;0.7890625;violin
63.65842200000001;0.42682849999999206;77;0.7890625;violin
64.146226;0.4268285000000134;81;0.7890625;violin
64.63403000000001;0.42682849999999917;86;0.7890625;violin
65.121834;0.42682849999999917;83;0.7890625;violin
65.609638;0.42682849999999917;77;0.7890625;violin
66.097442;0.42682849999999917;74;0.7890625;violin
66.58524600000001;0.42682849999999917;71;0.7890625;violin
67.07305000000001;0.487803999999997;67;0.7890625;violin
67.560854;0.487803999999997;62;0.7890625;violin
68.048658;0.24390200000000561;65;0.7890625;violin
68.29256000000001;0.2439019999999914;64;0.7890625;violin
68.536462;0.24390200000000561;65;0.7890625;violin
68.780364;0.24390200000000561;67;0.7890625;violin
69.02426600000001;0.42682849999999917;64;0.7890625;violin
69.51207000000001;0.42682849999999917;55;0.7890625;violin
69.999874;0.487803999999997;60;0.7890625;violin
70.487678;0.42682849999999917;64;0.7890625;violin
70.975482;0.4268285000000134;67;0.7890625;violin
71.46328600000001;0.42682849999999917;72;0.7890625;violin
71.95109000000001;0.24390200000000561;70;0.7890625;violin
72.19499200000001;0.2439019999999914;69;0.7890625;violin
72.438894;0.24390200000000561;70;0.7890625;violin
72.68279600000001;0.2439019999999914;72;0.7890625;violin
72.926698;0.42682849999999917;69;0.7890625;violin
73.41450200000001;0.487803999999997;65;0.7890625;violin
73.90230600000001;0.42682849999999917;69;0.7890625;violin
74.39011;0.42682849999999917;72;0.7890625;violin
74.877914;0.24390200000000561;77;0.7890625;violin
75.12181600000001;0.21341424999999958;76;0.7890625;violin
75.365718;0.21341424999999958;77;0.7890625;violin
75.60962;0.21341424999999958;79;0.7890625;violin
75.85352200000001;0.42682849999999917;77;0.7890625;violin
76.34132600000001;0.42682849999999917;83;0.7890625;violin
76.82913;1.7073139999999967;84;0.7890625;violin
78.78034600000001;0.975607999999994;60;0.7890625;violin
79.755954;0.9756080000000082;72;0.7890625;violin
80.73156200000001;0.975607999999994;60;0.7890625;violin
81.70717;0.9756080000000082;76;0.7890625;violin
82.68277800000001;0.975607999999994;60;0.7890625;violin
83.65838600000001;0.975607999999994;79;0.7890625;violin
84.633994;0.9756080000000082;60;0.7890625;violin
85.60960200000001;0.975607999999994;84;0.7890625;violin
86.58521;0.48780400000001123;62;0.7890625;violin
87.07301400000001;0.487803999999997;66;0.7890625;violin
87.56081800000001;0.487803999999997;69;0.7890625;violin
88.04862200000001;0.487803999999997;74;0.7890625;violin
88.536426;0.42682849999999917;78;0.7890625;violin
89.02423;0.42682849999999917;81;0.7890625;violin
89.51203400000001;0.42682849999999917;86;0.7890625;violin
89.99983800000001;0.42682849999999917;84;0.7890625;violin
90.48764200000001;0.24390200000000561;83;0.7890625;violin
90.73154400000001;0.21341424999999958;81;0.7890625;violin
90.975446;0.21341424999999958;83;0.7890625;violin
91.21934800000001;0.21341424999999958;84;0.7890625;violin
91.46325;0.42682849999999917;86;0.7890625;violin
91.95105400000001;0.487803999999997;55;0.7890625;violin
92.43885800000001;0.42682849999999917;59;0.7890625;violin
92.92666200000001;0.42682849999999917;62;0.7890625;violin
93.414466;0.42682849999999917;67;0.7890625;violin
93.90227;0.4268285000000134;65;0.7890625;violin
94.39007400000001;0.2439019999999914;64;0.7890625;violin
94.633976;0.21341424999999958;62;0.7890625;violin
94.87787800000001;0.21341424999999958;64;0.7890625;violin
95.12178000000002;0.21341424999999958;65;0.7890625;violin
95.365682;0.42682849999999917;67;0.7890625;violin
95.853486;0.48780400000001123;76;0.7890625;violin
96.34129000000001;0.42682849999999917;74;0.7890625;violin
96.82909400000001;0.42682849999999917;78;0.7890625;violin
97.31689800000001;0.42682849999999917;83;0.7890625;violin
97.804702;0.42682849999999917;81;0.7890625;violin
98.292506;1.1890222500000078;79;0.7890625;violin
99.512016;0.21341424999999958;62;0.7890625;violin
99.75591800000001;0.21341424999999958;64;0.7890625;violin
99.99982000000001;0.21341424999999958;66;0.7890625;violin
100.243722;1.1890222500000078;67;0.7890625;violin
101.463232;0.21341424999999958;62;0.7890625;violin
101.70713400000001;0.21341424999999958;64;0.7890625;violin
101.951036;0.2134142500000138;66;0.7890625;violin
102.19493800000001;0.42682849999999917;67;0.7890625;violin
102.682742;0.42682849999999917;71;0.7890625;violin
103.17054600000002;0.42682849999999917;74;0.7890625;violin
103.65835000000001;0.42682849999999917;79;0.7890625;violin
104.14615400000001;0.42682849999999917;83;0.7890625;violin
104.633958;0.487803999999997;62;0.7890625;violin
105.121762;0.48780400000001123;67;0.7890625;violin
105.60956600000002;0.42682849999999917;71;0.7890625;violin
106.09737000000001;0.42682849999999917;74;0.7890625;violin
106.58517400000001;0.42682849999999917;77;0.7890625;violin
107.072978;0.42682849999999917;83;0.7890625;violin
107.560782;0.4268285000000134;84;0.7890625;violin
108.04858600000001;2.3780445000000014;86;0.7890625;violin
111.21931200000002;0.21341424999999958;55;0.7890625;violin
111.46321400000001;0.21341424999999958;57;0.7890625;violin
111.70711600000001;0.21341424999999958;59;0.7890625;violin
111.951018;0.8536569999999983;60;0.7890625;violin
112.92662600000001;0.8536569999999983;55;0.7890625;violin
113.902234;0.8536569999999983;60;0.7890625;violin
114.87784200000002;0.8536569999999983;55;0.7890625;violin
115.85345000000001;0.975607999999994;60;0.7890625;violin
116.829058;0.8536570000000125;64;0.7890625;violin
117.80466600000001;0.8536569999999983;67;0.7890625;violin
118.780274;0.8536569999999983;72;0.7890625;violin
119.75588200000001;0.42682849999999917;60;0.7890625;violin
120.24368600000001;0.42682849999999917;64;0.7890625;violin
120.73149000000001;0.42682849999999917;67;0.7890625;violin
121.219294;0.42682849999999917;72;0.7890625;violin
121.70709800000002;0.42682849999999917;76;0.7890625;violin
122.19490200000001;0.42682849999999917;79;0.7890625;violin
122.68270600000001;0.24390200000000561;84;0.7890625;violin
122.92660800000002;0.21341424999999958;83;0.7890625;violin
123.17051000000001;0.21341424999999958;84;0.7890625;violin
123.41441200000001;0.21341424999999958;86;0.7890625;violin
123.658314;1.7073140000000109;84;0.7890625;violin
125.60953;1.1890222500000078;60;0.7890625;violin
126.82904;0.21341424999999958;60;0.7890625;violin
127.07294200000001;0.21341424999999958;62;0.7890625;violin
127.31684400000002;0.21341424999999958;64;0.7890625;violin
127.56074600000001;0.8536570000000125;65;0.7890625;violin
128.53635400000002;0.8536569999999983;60;0.7890625;violin
129.511962;0.8536569999999983;65;0.7890625;violin
130.48757;0.8536569999999983;60;0.7890625;violin
131.463178;0.8536569999999983;65;0.7890625;violin
132.43878600000002;0.8536569999999983;69;0.7890625;violin
133.41439400000002;0.8536569999999983;72;0.7890625;violin
134.390002;0.8536569999999983;77;0.7890625;violin
135.36561;0.48780400000001123;65;0.7890625;violin
135.85341400000001;0.42682849999999917;69;0.7890625;violin
136.34121800000003;0.42682849999999917;74;0.7890625;violin
136.829022;0.42682849999999917;77;0.7890625;violin
137.31682600000002;0.4878039999999828;55;0.7890625;violin
137.80463;0.42682849999999917;59;0.7890625;violin
138.29243400000001;0.42682849999999917;62;0.7890625;violin
138.78023800000003;0.42682849999999917;67;0.7890625;violin
139.268042;1.7073139999999967;64;0.7890625;violin
141.21925800000002;1.1890222499999936;60;0.7890625;violin
142.438768;0.21341424999999958;55;0.7890625;violin
142.68267;0.21341424999999958;57;0.7890625;violin
142.92657200000002;0.21341424999999958;59;0.7890625;violin
143.170474;0.8536569999999983;60;0.7890625;violin
144.146082;0.8536569999999983;55;0.7890625;violin
145.12169;0.8536569999999983;60;0.7890625;violin
146.09729800000002;0.8536569999999983;55;0.7890625;violin
147.07290600000002;0.975607999999994;60;0.7890625;violin
148.048514;0.8536569999999983;64;0.7890625;violin
149.024122;0.8536569999999983;67;0.7890625;violin
149.99973;0.8536570000000268;72;0.7890625;violin
150.97533800000002;0.42682849999999917;60;0.7890625;violin
151.463142;0.42682849999999917;64;0.7890625;violin
151.95094600000002;0.42682849999999917;67;0.7890625;violin
152.43875000000003;0.42682849999999917;72;0.7890625;violin
152.926554;0.48780400000001123;64;0.7890625;violin
153.41435800000002;0.42682849999999917;67;0.7890625;violin
153.902162;0.42682849999999917;72;0.7890625;violin
154.38996600000002;0.42682849999999917;76;0.7890625;violin
154.87777000000003;0.2439019999999914;77;0.7890625;violin
155.12167200000002;0.21341424999999958;76;0.7890625;violin
155.365574;0.21341424999999958;77;0.7890625;violin
155.609476;0.21341424999999958;79;0.7890625;violin
155.85337800000002;0.8536569999999983;77;0.7890625;violin
156.82898600000001;0.42682849999999917;81;0.7890625;violin
157.31679000000003;0.42682849999999917;84;0.7890625;violin
157.804594;0.42682849999999917;83;0.7890625;violin
158.29239800000002;0.42682849999999917;81;0.7890625;violin
158.780202;0.42682849999999917;79;0.7890625;violin
159.268006;0.42682849999999917;55;0.7890625;violin
159.75581000000003;0.4878039999999828;60;0.7890625;violin
160.243614;0.42682849999999917;64;0.7890625;violin
160.73141800000002;0.42682849999999917;67;0.7890625;violin
161.219222;0.42682849999999917;76;0.7890625;violin
161.707026;0.42682849999999917;72;0.7890625;violin
162.19483000000002;0.42682849999999917;69;0.7890625;violin
162.682634;0.42682849999999917;67;0.7890625;violin
163.17043800000002;0.4878039999999828;65;0.7890625;violin
163.658242;0.42682849999999917;71;0.7890625;violin
164.146046;0.42682849999999917;69;0.7890625;violin
164.63385000000002;0.42682849999999917;67;0.7890625;violin
165.121654;0.42682849999999917;55;0.7890625;violin
165.60945800000002;0.4878039999999828;64;0.7890625;violin
166.097262;0.4268285000000276;62;0.7890625;violin
166.585066;0.8536569999999983;60;0.7890625;violin
167.560674;0.8536569999999983;55;0.7890625;violin
168.53628200000003;0.8536569999999983;60;0.7890625;violin
169.51189000000002;0.8536569999999983;55;0.7890625;violin
170.48749800000002;0.975607999999994;60;0.7890625;violin
171.463106;0.975607999999994;64;0.7890625;violin
172.438714;0.9756080000000225;67;0.7890625;violin
173.41432200000003;0.975607999999994;72;0.7890625;violin
174.38993000000002;0.42682849999999917;60;0.7890625;violin
174.877734;0.42682849999999917;64;0.7890625;violin
175.36553800000002;0.42682849999999917;67;0.7890625;violin
175.85334200000003;0.42682849999999917;72;0.7890625;violin
176.341146;0.42682849999999917;76;0.7890625;violin
176.82895000000002;0.42682849999999917;79;0.7890625;violin
177.316754;0.24390200000001983;84;0.7890625;violin
177.56065600000002;0.21341424999999958;83;0.7890625;violin
177.80455800000001;0.21341424999999958;84;0.7890625;violin
178.04846;0.21341424999999958;86;0.7890625;violin
178.29236200000003;2.3780444999999872;84;0.7890625;violin
