start;duration;pitch;velocity;instrument
0.243902;0.243902;74;0.734375;violin
0.487804;0.24390200000000006;71;0.734375;violin
0.7317060000000001;0.24390199999999995;72;0.734375;violin
0.975608;0.24390200000000006;74;0.734375;violin
1.21951;0.24390200000000006;83;0.734375;violin
1.4634120000000002;0.24390200000000006;79;0.734375;violin
1.7073140000000002;0.24390199999999984;76;0.734375;violin
1.951216;0.21341425000000003;74;0.734375;violin
2.1951180000000003;0.24390199999999984;71;0.734375;violin
2.43902;0.24390199999999984;67;0.734375;violin
2.682922;0.24390200000000029;69;0.734375;violin
2.9268240000000003;0.24390199999999984;71;0.734375;violin
3.170726;0.24390200000000029;74;0.734375;violin
3.4146280000000004;0.24390199999999984;72;0.734375;violin
3.6585300000000003;0.24390199999999984;76;0.734375;violin
3.902432;0.21341425000000047;74;0.734375;violin
4.146334;0.24390200000000029;71;0.734375;violin
4.390236000000001;0.2439019999999994;67;0.734375;violin
4.634138;0.24390200000000029;71;0.734375;violin
4.87804;0.24390200000000029;74;0.734375;violin
5.121942000000001;0.2439019999999994;83;0.734375;violin
5.365844;0.24390200000000029;79;0.734375;violin
5.609746;0.24390200000000029;76;0.734375;violin
5.853648000000001;0.21341424999999958;74;0.734375;violin
6.097550000000001;0.2439019999999994;71;0.734375;violin
6.341452;0.24390200000000029;67;0.734375;violin
6.585354000000001;0.24390200000000029;69;0.734375;violin
6.829256000000001;0.2439019999999994;71;0.734375;violin
7.073158;0.24390200000000029;74;0.734375;violin
7.317060000000001;0.24390200000000029;72;0.734375;violin
7.560962000000001;0.2439019999999994;76;0.734375;violin
7.804864;0.21341424999999958;74;0.734375;violin
8.048766;0.24390200000000029;71;0.734375;violin
8.292668;0.24390200000000029;67;0.734375;violin
8.536570000000001;0.24390200000000029;69;0.734375;violin
8.780472000000001;0.24390200000000029;71;0.734375;violin
9.024374000000002;0.2439019999999985;67;0.734375;violin
9.268276;0.24390200000000029;62;0.734375;violin
9.512178;0.24390200000000029;60;0.734375;violin
9.75608;0.21341424999999958;59;0.734375;violin
9.999982000000001;0.24390200000000029;62;0.734375;violin
10.243884000000001;0.24390200000000029;60;0.734375;violin
10.487786000000002;0.2439019999999985;64;0.734375;violin
10.731688;0.24390200000000029;62;0.734375;violin
10.97559;0.24390200000000029;67;0.734375;violin
11.219492;0.24390200000000029;71;0.734375;violin
11.463394000000001;0.24390200000000029;76;0.734375;violin
11.707296000000001;0.21341424999999958;74;0.734375;violin
11.951198000000002;0.24390200000000029;71;0.734375;violin
12.195100000000002;0.2439019999999985;67;0.734375;violin
12.439002;0.24390200000000029;69;0.734375;violin
12.682904;0.24390200000000029;71;0.734375;violin
12.926806000000001;0.24390200000000029;67;0.734375;violin
13.170708000000001;0.24390200000000029;62;0.734375;violin
13.414610000000001;0.24390200000000029;60;0.734375;violin
13.658512000000002;0.21341424999999958;59;0.734375;violin
13.902414000000002;0.2439019999999985;62;0.734375;violin
14.146316;0.24390200000000029;60;0.734375;violin
14.390218;0.24390200000000029;64;0.734375;violin
14.634120000000001;0.24390200000000029;62;0.734375;violin
14.878022000000001;0.24390200000000029;67;0.734375;violin
15.121924000000002;0.24390200000000029;71;0.734375;violin
15.365826000000002;0.2439019999999985;76;0.734375;violin
15.609728;0.21341425000000136;74;0.734375;violin
15.85363;0.24390200000000029;71;0.734375;violin
16.097532;0.24390200000000206;67;0.734375;violin
16.341434000000003;0.2439019999999985;69;0.734375;violin
16.585336;0.2439019999999985;71;0.734375;violin
16.829238;0.24390200000000206;67;0.734375;violin
17.073140000000002;0.2439019999999985;62;0.734375;violin
17.317042;0.24390200000000206;76;0.734375;violin
17.560944000000003;0.21341424999999958;74;0.734375;violin
17.804846;0.24390200000000206;71;0.734375;violin
18.048748000000003;0.2439019999999985;79;0.734375;violin
18.292650000000002;0.2439019999999985;76;0.734375;violin
18.536552;0.24390200000000206;74;0.734375;violin
18.780454000000002;0.2439019999999985;71;0.734375;violin
19.024356;0.24390200000000206;79;0.734375;violin
19.268258000000003;0.2439019999999985;76;0.734375;violin
19.51216;0.21341424999999958;74;0.734375;violin
19.756062;0.24390200000000206;71;0.734375;violin
19.999964000000002;0.2439019999999985;67;0.734375;violin
20.243866;0.24390200000000206;69;0.734375;violin
20.487768000000003;0.2439019999999985;71;0.734375;violin
20.73167;0.24390200000000206;67;0.734375;violin
20.975572000000003;0.2439019999999985;62;0.734375;violin
21.219474;0.2439019999999985;76;0.734375;violin
21.463376;0.21341425000000314;74;0.734375;violin
21.707278000000002;0.2439019999999985;71;0.734375;violin
21.95118;0.24390200000000206;79;0.734375;violin
22.195082000000003;0.2439019999999985;76;0.734375;violin
22.438984;0.24390200000000206;74;0.734375;violin
22.682886000000003;0.2439019999999985;71;0.734375;violin
22.926788000000002;0.2439019999999985;79;0.734375;violin
23.17069;0.24390200000000206;81;0.734375;violin
23.414592000000003;0.21341424999999958;79;0.734375;violin
23.658494;0.24390200000000206;74;0.734375;violin
23.902396000000003;0.2439019999999985;71;0.734375;violin
24.146298;0.24390200000000206;81;0.734375;violin
24.390200000000004;0.2439019999999985;79;0.734375;violin
24.634102000000002;0.2439019999999985;74;0.734375;violin
24.878004;0.24390200000000206;71;0.734375;violin
25.121906000000003;0.2439019999999985;81;0.734375;violin
25.365808;0.21341424999999958;79;0.734375;violin
25.609710000000003;0.2439019999999985;74;0.734375;violin
25.853612000000002;0.24390200000000206;71;0.734375;violin
26.097514000000004;0.2439019999999985;81;0.734375;violin
26.341416000000002;0.2439019999999985;79;0.734375;violin
26.585318;0.24390200000000206;74;0.734375;violin
26.829220000000003;0.2439019999999985;71;0.734375;violin
27.073122;0.24390200000000206;81;0.734375;violin
27.317024000000004;0.21341424999999958;79;0.734375;violin
27.560926000000002;0.24390200000000206;74;0.734375;violin
27.804828000000004;0.2439019999999985;71;0.734375;violin
28.048730000000003;0.2439019999999985;72;0.734375;violin
28.292632;0.24390200000000206;74;0.734375;violin
28.536534000000003;0.2439019999999985;71;0.734375;violin
28.780436;0.24390200000000206;67;0.734375;violin
29.024338000000004;0.2439019999999985;76;0.734375;violin
29.268240000000002;0.21341424999999958;74;0.734375;violin
29.512142000000004;0.2439019999999985;71;0.734375;violin
29.756044000000003;0.2439019999999985;67;0.734375;violin
29.999946;0.24390200000000206;69;0.734375;violin
30.243848000000003;0.2439019999999985;71;0.734375;violin
30.487750000000002;0.24390200000000206;67;0.734375;violin
30.731652000000004;0.2439019999999985;62;0.734375;violin
30.975554000000002;0.2439019999999985;72;0.734375;violin
31.219456;0.21341425000000314;71;0.734375;violin
31.463358000000003;0.2439019999999985;67;0.734375;violin
31.70726;0.24390200000000206;62;0.734375;violin
31.951162000000004;0.2439019999999985;72;0.734375;violin
32.195064;0.2439019999999985;71;0.734375;violin
32.438966;0.24390200000000561;67;0.734375;violin
32.682868000000006;0.2439019999999985;62;0.734375;violin
32.926770000000005;0.2439019999999985;72;0.734375;violin
33.170672;0.21341424999999958;71;0.734375;violin
33.414574;0.2439019999999985;67;0.734375;violin
33.658476;0.24390200000000561;62;0.734375;violin
33.902378000000006;0.2439019999999985;66;0.734375;violin
34.146280000000004;0.2439019999999985;67;0.734375;violin
34.390182;0.2439019999999985;62;0.734375;violin
34.634084;0.2439019999999985;59;0.734375;violin
34.877986;0.24390200000000561;60;0.734375;violin
35.121888000000006;0.2439019999999985;62;0.734375;violin
35.365790000000004;0.2439019999999985;59;0.734375;violin
35.609692;0.2439019999999985;55;0.734375;violin
35.853594;0.24390200000000561;57;0.734375;violin
36.09749600000001;0.2439019999999985;59;0.734375;violin
36.341398000000005;0.2439019999999985;62;0.734375;violin
36.585300000000004;0.2439019999999985;67;0.734375;violin
36.829202;0.2439019999999985;69;0.734375;violin
37.073104;0.21341424999999958;67;0.734375;violin
37.317006000000006;0.2439019999999985;62;0.734375;violin
37.560908000000005;0.2439019999999985;59;0.734375;violin
37.80481;0.2439019999999985;60;0.734375;violin
38.048712;0.2439019999999985;62;0.734375;violin
38.292614;0.24390200000000561;67;0.734375;violin
38.536516000000006;0.2439019999999985;71;0.734375;violin
38.780418000000004;0.2439019999999985;72;0.734375;violin
39.02432;0.21341424999999958;71;0.734375;violin
39.268222;0.2439019999999985;67;0.734375;violin
39.512124;0.24390200000000561;62;0.734375;violin
39.756026000000006;0.2439019999999985;66;0.734375;violin
39.999928000000004;0.2439019999999985;67;0.734375;violin
40.24383;0.2439019999999985;71;0.734375;violin
40.487732;0.24390200000000561;74;0.734375;violin
40.73163400000001;0.2439019999999985;76;0.734375;violin
40.975536000000005;0.21341424999999958;74;0.734375;violin
41.219438000000004;0.2439019999999985;71;0.734375;violin
41.46334;0.2439019999999985;67;0.734375;violin
41.707242;0.24390200000000561;69;0.734375;violin
41.951144000000006;0.2439019999999985;71;0.734375;violin
42.195046000000005;0.2439019999999985;74;0.734375;violin
42.438948;0.2439019999999985;79;0.734375;violin
42.68285;0.2439019999999985;81;0.734375;violin
42.926752;0.2134142500000067;79;0.734375;violin
43.170654000000006;0.2439019999999985;74;0.734375;violin
43.414556000000005;0.2439019999999985;71;0.734375;violin
43.658458;0.2439019999999985;81;0.734375;violin
43.90236;0.24390200000000561;79;0.734375;violin
44.14626200000001;0.2439019999999985;74;0.734375;violin
44.390164000000006;0.2439019999999985;71;0.734375;violin
44.634066000000004;0.2439019999999985;81;0.734375;violin
44.877968;0.21341424999999958;79;0.734375;violin
45.12187;0.24390200000000561;74;0.734375;violin
45.36577200000001;0.2439019999999985;71;0.734375;violin
45.609674000000005;0.2439019999999985;81;0.734375;violin
45.853576000000004;0.2439019999999985;79;0.734375;violin
46.097478;0.2439019999999985;74;0.734375;violin
46.34138;0.24390200000000561;71;0.734375;violin
46.58528200000001;0.2439019999999985;83;0.734375;violin
46.829184000000005;0.21341424999999958;79;0.734375;violin
47.073086;0.2439019999999985;74;0.734375;violin
47.316988;0.24390200000000561;71;0.734375;violin
47.56089000000001;0.2439019999999985;72;0.734375;violin
47.804792000000006;0.2439019999999985;74;0.734375;violin
48.048694000000005;0.2439019999999985;71;0.734375;violin
48.292596;0.2439019999999985;67;0.734375;violin
48.536498;0.24390200000000561;76;0.734375;violin
48.78040000000001;0.21341424999999958;74;0.734375;violin
49.024302000000006;0.2439019999999985;71;0.734375;violin
49.268204000000004;0.2439019999999985;67;0.734375;violin
49.512106;0.2439019999999985;69;0.734375;violin
49.756008;0.24390200000000561;71;0.734375;violin
49.99991000000001;0.2439019999999985;67;0.734375;violin
50.243812000000005;0.2439019999999985;62;0.734375;violin
50.487714000000004;0.2439019999999985;76;0.734375;violin
50.731616;0.21341424999999958;74;0.734375;violin
50.975518;0.24390200000000561;71;0.734375;violin
51.21942000000001;0.2439019999999985;67;0.734375;violin
51.463322000000005;0.2439019999999985;71;0.734375;violin
51.707224000000004;0.2439019999999985;74;0.734375;violin
51.951126;0.24390200000000561;71;0.734375;violin
52.19502800000001;0.2439019999999985;79;0.734375;violin
52.438930000000006;0.2439019999999985;76;0.734375;violin
52.682832000000005;0.21341424999999958;74;0.734375;violin
52.926734;0.2439019999999985;71;0.734375;violin
53.170636;0.24390200000000561;67;0.734375;violin
53.41453800000001;0.2439019999999985;71;0.734375;violin
53.658440000000006;0.2439019999999985;74;0.734375;violin
53.902342000000004;0.2439019999999985;71;0.734375;violin
54.146244;0.2439019999999985;79;0.734375;violin
54.390146;0.24390200000000561;83;0.734375;violin
54.63404800000001;0.21341424999999958;79;0.734375;violin
54.877950000000006;0.2439019999999985;74;0.734375;violin
55.121852000000004;0.2439019999999985;71;0.734375;violin
55.365754;0.24390200000000561;79;0.734375;violin
55.60965600000001;0.2439019999999985;74;0.734375;violin
55.85355800000001;0.2439019999999985;71;0.734375;violin
56.097460000000005;0.2439019999999985;67;0.734375;violin
56.341362000000004;0.2439019999999985;76;0.734375;violin
56.585264;0.21341424999999958;74;0.734375;violin
56.82916600000001;0.2439019999999985;71;0.734375;violin
57.073068000000006;0.2439019999999985;67;0.734375;violin
57.316970000000005;0.2439019999999985;69;0.734375;violin
57.560872;0.2439019999999985;71;0.734375;violin
57.804774;0.24390200000000561;67;0.734375;violin
58.04867600000001;0.2439019999999985;62;0.734375;violin
58.292578000000006;0.21341424999999958;60;0.734375;violin
58.536480000000005;2.3780445000000014;59;0.734375;violin
