start;duration;pitch;velocity;instrument
0.0;0.49180300000000005;55;0.7890625;violin
0.49180300000000005;0.43032762500000005;60;0.7890625;violin
0.9836060000000001;0.4918030000000001;72;0.7890625;violin
1.4754090000000002;0.491803;60;0.7890625;violin
1.9672120000000002;0.4303276250000001;59;0.7890625;violin
2.4590150000000004;0.491803;71;0.7890625;violin
2.9508180000000004;0.491803;59;0.7890625;violin
3.4426210000000004;0.4303276249999999;57;0.7890625;violin
3.9344240000000004;0.49180300000000043;69;0.7890625;violin
4.426227000000001;0.491803;57;0.7890625;violin
4.918030000000001;0.43032762499999944;55;0.7890625;violin
5.409833000000001;0.43032762499999944;67;0.7890625;violin
5.901636000000001;0.491803;55;0.7890625;violin
6.393439000000001;0.43032762499999944;57;0.7890625;violin
6.885242000000001;0.491803;69;0.7890625;violin
7.377045000000001;0.491803;57;0.7890625;violin
7.868848000000001;0.491803;59;0.7890625;violin
8.360651;0.4918030000000009;71;0.7890625;violin
8.852454000000002;0.4918029999999991;59;0.7890625;violin
9.344257;0.4918030000000009;60;0.7890625;violin
9.836060000000002;0.4918029999999991;72;0.7890625;violin
10.327863;0.4918030000000009;60;0.7890625;violin
10.819666000000002;0.4918029999999991;59;0.7890625;violin
11.311469;0.4303276250000003;71;0.7890625;violin
11.803272000000002;0.4918029999999991;59;0.7890625;violin
12.295075;0.4303276250000003;57;0.7890625;violin
12.786878000000002;0.4303276250000003;69;0.7890625;violin
13.278681;0.4918030000000009;57;0.7890625;violin
13.770484000000002;0.4303276250000003;55;0.7890625;violin
14.262287;0.4303276250000003;67;0.7890625;violin
14.754090000000001;0.4918029999999991;55;0.7890625;violin
15.245893;0.4303276250000003;57;0.7890625;violin
15.737696000000001;0.43032762499999855;69;0.7890625;violin
16.229499;0.4918030000000009;57;0.7890625;violin
16.721302;0.4918030000000009;59;0.7890625;violin
17.213105000000002;0.4303276250000003;71;0.7890625;violin
17.704908000000003;0.4918029999999973;59;0.7890625;violin
18.196711;0.4918030000000009;60;0.7890625;violin
18.688514;0.4303276250000003;72;0.7890625;violin
19.180317000000002;0.4918030000000009;60;0.7890625;violin
19.672120000000003;0.4918029999999973;59;0.7890625;violin
20.163923;0.4303276250000003;71;0.7890625;violin
20.655726;0.4918030000000009;59;0.7890625;violin
21.147529000000002;0.4918030000000009;57;0.7890625;violin
21.639332000000003;0.4303276250000003;69;0.7890625;violin
22.131135;0.4918030000000009;57;0.7890625;violin
22.622938;0.4303276250000003;55;0.7890625;violin
23.114741000000002;0.4303276250000003;67;0.7890625;violin
23.606544000000003;0.4918030000000009;55;0.7890625;violin
24.098347000000004;0.43032762499999677;57;0.7890625;violin
24.59015;0.4303276250000003;69;0.7890625;violin
25.081953000000002;0.4918030000000009;57;0.7890625;violin
25.573756000000003;0.4918030000000009;59;0.7890625;violin
26.065559000000004;0.43032762499999677;71;0.7890625;violin
26.557362;0.4918030000000009;59;0.7890625;violin
27.049165000000002;0.4303276250000003;60;0.7890625;violin
27.540968000000003;0.4303276250000003;72;0.7890625;violin
28.032771000000004;0.4918029999999973;55;0.7890625;violin
28.524574;0.4918030000000009;60;0.7890625;violin
29.016377000000002;0.4303276250000003;64;0.7890625;violin
29.508180000000003;0.4303276250000003;67;0.7890625;violin
29.999983000000004;0.4303276250000003;72;0.7890625;violin
30.491786;0.4303276250000003;76;0.7890625;violin
30.983589000000002;0.4303276250000003;79;0.7890625;violin
31.475392000000003;0.9836059999999982;84;0.7890625;violin
32.458998;0.49180300000000443;88;0.7890625;violin
32.950801000000006;2.3360642499999997;88;0.7890625;violin
35.409816000000006;0.4918029999999973;55;0.7890625;violin
35.901619000000004;0.4918029999999973;60;0.7890625;violin
36.393422;0.4303276250000039;72;0.7890625;violin
36.885225000000005;0.4918029999999973;60;0.7890625;violin
37.377028;0.4918029999999973;59;0.7890625;violin
37.868831;0.4303276250000039;71;0.7890625;violin
38.360634000000005;0.4918029999999973;59;0.7890625;violin
38.852437;0.49180300000000443;57;0.7890625;violin
39.344240000000006;0.43032762499999677;69;0.7890625;violin
39.836043000000004;0.4918029999999973;57;0.7890625;violin
40.327846;0.4303276250000039;55;0.7890625;violin
40.819649000000005;0.43032762499999677;67;0.7890625;violin
41.311452;0.49180300000000443;55;0.7890625;violin
41.80325500000001;0.43032762499999677;57;0.7890625;violin
42.295058000000004;0.43032762499999677;69;0.7890625;violin
42.786861;0.49180300000000443;57;0.7890625;violin
43.278664000000006;0.4918029999999973;59;0.7890625;violin
43.770467000000004;0.4303276250000039;71;0.7890625;violin
44.26227;0.49180300000000443;59;0.7890625;violin
44.754073000000005;0.4918029999999973;60;0.7890625;violin
45.245876;0.4303276250000039;72;0.7890625;violin
45.73767900000001;0.4918029999999973;60;0.7890625;violin
46.229482000000004;0.43032762499999677;59;0.7890625;violin
46.721285;0.4303276250000039;71;0.7890625;violin
47.213088000000006;0.4918029999999973;59;0.7890625;violin
47.704891;0.4303276250000039;57;0.7890625;violin
48.19669400000001;0.43032762499999677;69;0.7890625;violin
48.688497000000005;0.4918029999999973;57;0.7890625;violin
49.1803;0.4303276250000039;55;0.7890625;violin
49.67210300000001;0.43032762499999677;67;0.7890625;violin
50.163906000000004;0.4918029999999973;55;0.7890625;violin
50.655709;0.4303276250000039;57;0.7890625;violin
51.147512000000006;0.43032762499999677;69;0.7890625;violin
51.639315;0.49180300000000443;57;0.7890625;violin
52.13111800000001;0.4918029999999973;59;0.7890625;violin
52.622921000000005;0.43032762499999677;71;0.7890625;violin
53.114724;0.49180300000000443;59;0.7890625;violin
53.60652700000001;0.4918029999999973;60;0.7890625;violin
54.098330000000004;0.4303276250000039;72;0.7890625;violin
54.590133;0.49180300000000443;60;0.7890625;violin
55.081936000000006;0.43032762499999677;59;0.7890625;violin
55.573739;0.4303276250000039;71;0.7890625;violin
56.06554200000001;0.4918029999999973;59;0.7890625;violin
56.557345000000005;0.43032762499999677;57;0.7890625;violin
57.049148;0.4303276250000039;69;0.7890625;violin
57.54095100000001;0.4918029999999973;57;0.7890625;violin
58.032754000000004;0.4303276250000039;55;0.7890625;violin
58.52455700000001;0.43032762499999677;67;0.7890625;violin
59.016360000000006;0.4918029999999973;55;0.7890625;violin
59.508163;0.4303276250000039;57;0.7890625;violin
59.99996600000001;0.43032762499999677;69;0.7890625;violin
60.491769000000005;0.4918029999999973;57;0.7890625;violin
60.983572;0.4303276250000039;59;0.7890625;violin
61.47537500000001;0.43032762499999677;71;0.7890625;violin
61.967178000000004;0.49180300000000443;59;0.7890625;violin
62.45898100000001;0.43032762499999677;60;0.7890625;violin
62.950784000000006;0.43032762499999677;72;0.7890625;violin
63.442587;0.49180300000000443;55;0.7890625;violin
63.93439000000001;0.49180300000000443;60;0.7890625;violin
64.42619300000001;0.4918029999999902;64;0.7890625;violin
64.917996;0.4303276250000039;67;0.7890625;violin
65.409799;0.4303276250000039;72;0.7890625;violin
65.90160200000001;0.43032762499998967;76;0.7890625;violin
66.393405;0.4303276250000039;79;0.7890625;violin
66.885208;0.9836059999999947;84;0.7890625;violin
67.868814;0.49180300000000443;88;0.7890625;violin
68.360617;2.336064250000007;88;0.7890625;violin
70.81963200000001;0.4918029999999902;76;0.7890625;violin
71.311435;0.4303276250000039;86;0.7890625;violin
71.80323800000001;0.49180300000000443;76;0.7890625;violin
72.29504100000001;0.4918029999999902;86;0.7890625;violin
72.786844;0.4303276250000039;84;0.7890625;violin
73.278647;0.49180300000000443;76;0.7890625;violin
73.77045000000001;0.4918029999999902;84;0.7890625;violin
74.262253;0.4303276250000039;83;0.7890625;violin
74.754056;0.49180300000000443;76;0.7890625;violin
75.24585900000001;0.4918029999999902;83;0.7890625;violin
75.737662;0.4303276250000039;84;0.7890625;violin
76.229465;0.49180300000000443;76;0.7890625;violin
76.72126800000001;0.49180300000000443;84;0.7890625;violin
77.21307100000001;0.43032762499998967;83;0.7890625;violin
77.704874;0.49180300000000443;76;0.7890625;violin
78.19667700000001;0.49180300000000443;83;0.7890625;violin
78.68848000000001;0.43032762499998967;81;0.7890625;violin
79.180283;0.49180300000000443;76;0.7890625;violin
79.67208600000001;0.49180300000000443;81;0.7890625;violin
80.16388900000001;0.43032762499998967;83;0.7890625;violin
80.655692;0.49180300000000443;76;0.7890625;violin
81.147495;0.49180300000000443;83;0.7890625;violin
81.63929800000001;0.4303276250000039;81;0.7890625;violin
82.131101;0.49180300000000443;76;0.7890625;violin
82.622904;0.49180300000000443;81;0.7890625;violin
83.11470700000001;0.4303276250000039;80;0.7890625;violin
83.60651000000001;0.4918029999999902;76;0.7890625;violin
84.098313;0.49180300000000443;80;0.7890625;violin
84.59011600000001;0.4303276250000039;81;0.7890625;violin
85.08191900000001;0.4918029999999902;76;0.7890625;violin
85.573722;0.49180300000000443;81;0.7890625;violin
86.06552500000001;0.4303276250000039;84;0.7890625;violin
86.55732800000001;0.43032762499998967;81;0.7890625;violin
87.049131;0.4303276250000039;84;0.7890625;violin
87.54093400000001;0.9836059999999947;88;0.7890625;violin
88.52454;0.49180300000000443;62;0.7890625;violin
89.016343;0.49180300000000443;72;0.7890625;violin
89.50814600000001;0.49180300000000443;62;0.7890625;violin
89.99994900000002;0.4918029999999902;72;0.7890625;violin
90.491752;0.49180300000000443;71;0.7890625;violin
90.98355500000001;0.49180300000000443;62;0.7890625;violin
91.47535800000001;0.4918029999999902;71;0.7890625;violin
91.967161;0.49180300000000443;69;0.7890625;violin
92.45896400000001;0.49180300000000443;62;0.7890625;violin
92.95076700000001;0.4918029999999902;69;0.7890625;violin
93.44257;0.49180300000000443;71;0.7890625;violin
93.93437300000001;0.49180300000000443;62;0.7890625;violin
94.42617600000001;0.4918029999999902;71;0.7890625;violin
94.917979;0.49180300000000443;69;0.7890625;violin
95.409782;0.49180300000000443;62;0.7890625;violin
95.90158500000001;0.49180300000000443;69;0.7890625;violin
96.39338800000002;0.4918029999999902;67;0.7890625;violin
96.885191;0.49180300000000443;62;0.7890625;violin
97.37699400000001;0.49180300000000443;67;0.7890625;violin
97.86879700000001;0.43032762499998967;69;0.7890625;violin
98.3606;0.49180300000000443;62;0.7890625;violin
98.85240300000001;0.49180300000000443;69;0.7890625;violin
99.34420600000001;0.43032762499998967;67;0.7890625;violin
99.836009;0.49180300000000443;62;0.7890625;violin
100.32781200000001;0.49180300000000443;67;0.7890625;violin
100.81961500000001;0.43032762499998967;66;0.7890625;violin
101.311418;0.49180300000000443;62;0.7890625;violin
101.80322100000001;0.49180300000000443;66;0.7890625;violin
102.29502400000001;0.4303276250000039;67;0.7890625;violin
102.78682700000002;0.4918029999999902;62;0.7890625;violin
103.27863;0.49180300000000443;67;0.7890625;violin
103.77043300000001;0.4303276250000039;71;0.7890625;violin
104.26223600000002;0.43032762499998967;67;0.7890625;violin
104.754039;0.4303276250000039;71;0.7890625;violin
105.24584200000001;0.8606552499999935;74;0.7890625;violin
106.229448;0.49180300000000443;55;0.7890625;violin
106.72125100000001;0.49180300000000443;65;0.7890625;violin
107.21305400000001;0.43032762499998967;55;0.7890625;violin
107.704857;0.49180300000000443;65;0.7890625;violin
108.19666000000001;0.49180300000000443;64;0.7890625;violin
108.68846300000001;0.4303276250000039;55;0.7890625;violin
109.180266;0.49180300000000443;64;0.7890625;violin
109.67206900000001;0.49180300000000443;62;0.7890625;violin
110.16387200000001;0.4303276250000039;55;0.7890625;violin
110.65567500000002;0.4918029999999902;62;0.7890625;violin
111.147478;0.49180300000000443;64;0.7890625;violin
111.63928100000001;0.4303276250000039;55;0.7890625;violin
112.13108400000002;0.4918029999999902;64;0.7890625;violin
112.622887;0.49180300000000443;62;0.7890625;violin
113.11469000000001;0.4303276250000039;55;0.7890625;violin
113.60649300000001;0.4918029999999902;62;0.7890625;violin
114.098296;0.49180300000000443;60;0.7890625;violin
114.59009900000001;0.4303276250000039;55;0.7890625;violin
115.08190200000001;0.4918029999999902;60;0.7890625;violin
115.573705;0.4303276250000039;62;0.7890625;violin
116.06550800000001;0.4303276250000039;55;0.7890625;violin
116.55731100000001;0.49180300000000443;62;0.7890625;violin
117.04911400000002;0.43032762499998967;60;0.7890625;violin
117.54091700000001;0.4303276250000039;55;0.7890625;violin
118.03272000000001;0.49180300000000443;60;0.7890625;violin
118.52452300000002;0.43032762499998967;59;0.7890625;violin
119.016326;0.4303276250000039;55;0.7890625;violin
119.50812900000001;0.49180300000000443;59;0.7890625;violin
119.99993200000002;0.43032762499998967;60;0.7890625;violin
120.491735;0.4303276250000039;55;0.7890625;violin
120.98353800000001;0.49180300000000443;60;0.7890625;violin
121.47534100000001;0.4303276250000039;64;0.7890625;violin
121.967144;0.49180300000000443;60;0.7890625;violin
122.45894700000001;0.4303276250000039;64;0.7890625;violin
122.95075000000001;0.8606552499999935;67;0.7890625;violin
123.93435600000001;0.49180300000000443;55;0.7890625;violin
124.42615900000001;0.49180300000000443;65;0.7890625;violin
124.91796200000002;0.43032762499998967;55;0.7890625;violin
125.40976500000001;0.49180300000000443;65;0.7890625;violin
125.90156800000001;0.4303276250000039;64;0.7890625;violin
126.39337100000002;0.43032762499998967;55;0.7890625;violin
126.885174;0.49180300000000443;64;0.7890625;violin
127.37697700000001;0.4303276250000039;62;0.7890625;violin
127.86878000000002;0.43032762499998967;55;0.7890625;violin
128.36058300000002;0.49180300000000443;62;0.7890625;violin
128.85238600000002;0.43032762499998967;64;0.7890625;violin
129.344189;0.4303276250000181;55;0.7890625;violin
129.835992;0.49180300000000443;64;0.7890625;violin
130.327795;0.43032762499998967;62;0.7890625;violin
130.819598;0.43032762499998967;55;0.7890625;violin
131.31140100000002;0.49180300000000443;62;0.7890625;violin
131.80320400000002;0.43032762499998967;60;0.7890625;violin
132.295007;0.4303276250000181;55;0.7890625;violin
132.78681;0.49180300000000443;60;0.7890625;violin
133.278613;0.4303276250000181;62;0.7890625;violin
133.770416;0.43032762499998967;55;0.7890625;violin
134.26221900000002;0.49180300000000443;62;0.7890625;violin
134.75402200000002;0.43032762499998967;64;0.7890625;violin
135.24582500000002;0.43032762499998967;55;0.7890625;violin
135.737628;0.49180300000000443;64;0.7890625;violin
136.229431;0.4303276250000181;62;0.7890625;violin
136.721234;0.43032762499998967;55;0.7890625;violin
137.213037;0.49180300000000443;62;0.7890625;violin
137.70484000000002;0.49180300000000443;60;0.7890625;violin
138.19664300000002;0.43032762499998967;72;0.7890625;violin
138.688446;0.49180300000000443;60;0.7890625;violin
139.180249;0.49180300000000443;59;0.7890625;violin
139.672052;0.4303276250000181;71;0.7890625;violin
140.163855;0.49180300000000443;59;0.7890625;violin
140.65565800000002;0.49180300000000443;57;0.7890625;violin
141.14746100000002;0.43032762499998967;69;0.7890625;violin
141.63926400000003;0.491802999999976;57;0.7890625;violin
142.131067;0.4303276250000181;55;0.7890625;violin
142.62287;0.4303276250000181;67;0.7890625;violin
143.114673;0.49180300000000443;55;0.7890625;violin
143.60647600000001;0.43032762499998967;57;0.7890625;violin
144.09827900000002;0.43032762499998967;69;0.7890625;violin
144.59008200000002;0.491802999999976;57;0.7890625;violin
145.081885;0.49180300000000443;59;0.7890625;violin
145.573688;0.4303276250000181;71;0.7890625;violin
146.065491;0.49180300000000443;57;0.7890625;violin
146.557294;0.49180300000000443;60;0.7890625;violin
147.04909700000002;0.43032762499998967;72;0.7890625;violin
147.54090000000002;0.49180300000000443;60;0.7890625;violin
148.03270300000003;0.491802999999976;59;0.7890625;violin
148.524506;0.4303276250000181;71;0.7890625;violin
149.016309;0.49180300000000443;59;0.7890625;violin
149.508112;0.49180300000000443;57;0.7890625;violin
149.99991500000002;0.43032762499998967;69;0.7890625;violin
150.49171800000002;0.49180300000000443;57;0.7890625;violin
150.98352100000002;0.43032762499998967;55;0.7890625;violin
151.475324;0.4303276250000181;67;0.7890625;violin
151.967127;0.49180300000000443;55;0.7890625;violin
152.45893;0.4303276250000181;57;0.7890625;violin
152.950733;0.43032762499998967;69;0.7890625;violin
153.44253600000002;0.49180300000000443;57;0.7890625;violin
153.93433900000002;0.49180300000000443;59;0.7890625;violin
154.42614200000003;0.43032762499998967;71;0.7890625;violin
154.917945;0.49180300000000443;57;0.7890625;violin
155.409748;0.49180300000000443;60;0.7890625;violin
155.901551;0.43032762499998967;64;0.7890625;violin
156.39335400000002;0.43032762499998967;67;0.7890625;violin
156.88515700000002;0.43032762499998967;72;0.7890625;violin
157.37696000000003;0.43032762499998967;67;0.7890625;violin
157.868763;0.4303276250000181;64;0.7890625;violin
158.360566;0.4303276250000181;60;0.7890625;violin
158.852369;0.4303276250000181;55;0.7890625;violin
159.34417200000001;0.49180300000000443;60;0.7890625;violin
159.83597500000002;0.43032762499998967;64;0.7890625;violin
160.32777800000002;0.43032762499998967;67;0.7890625;violin
160.81958100000003;0.43032762499998967;72;0.7890625;violin
161.311384;0.49180300000000443;76;0.7890625;violin
161.803187;0.4303276250000181;72;0.7890625;violin
162.29499;0.43032762499998967;67;0.7890625;violin
162.78679300000002;0.43032762499998967;64;0.7890625;violin
163.27859600000002;0.43032762499998967;60;0.7890625;violin
163.77039900000003;0.491802999999976;64;0.7890625;violin
164.262202;0.4303276250000181;67;0.7890625;violin
164.754005;0.4303276250000181;72;0.7890625;violin
165.245808;0.49180300000000443;76;0.7890625;violin
165.73761100000002;0.43032762499998967;79;0.7890625;violin
166.22941400000002;0.43032762499998967;76;0.7890625;violin
166.72121700000002;0.43032762499998967;72;0.7890625;violin
167.21302000000003;0.43032762499998967;67;0.7890625;violin
167.704823;0.4303276250000181;64;0.7890625;violin
168.196626;0.49180300000000443;67;0.7890625;violin
168.688429;0.43032762499998967;72;0.7890625;violin
169.18023200000002;0.43032762499998967;76;0.7890625;violin
169.67203500000002;0.49180300000000443;79;0.7890625;violin
170.16383800000003;0.43032762499998967;84;0.7890625;violin
170.655641;0.4303276250000181;79;0.7890625;violin
171.147444;0.4303276250000181;76;0.7890625;violin
171.639247;1.2909828749999974;72;0.7890625;violin
173.11465600000002;1.4754089999999849;60;0.7578125;violin
173.11465600000002;0.49180300000000443;70;0.7890625;violin
173.60645900000003;0.491802999999976;72;0.7890625;violin
174.098262;0.4303276250000181;70;0.7890625;violin
174.590065;0.24590150000000222;70;0.7890625;violin
174.590065;0.24590150000000222;76;0.7890625;violin
175.08186800000001;0.49180300000000443;60;0.7890625;violin
175.57367100000002;0.49180300000000443;62;0.7890625;violin
176.06547400000002;0.49180300000000443;64;0.7890625;violin
176.55727700000003;0.43032762499998967;62;0.7890625;violin
177.04908;0.4303276250000181;60;0.7890625;violin
177.540883;1.4754090000000133;60;0.7578125;violin
177.540883;0.49180300000000443;69;0.7890625;violin
178.032686;0.49180300000000443;70;0.7890625;violin
178.52448900000002;0.43032762499998967;69;0.7890625;violin
179.01629200000002;0.24590150000000222;69;0.7890625;violin
179.01629200000002;0.24590150000000222;77;0.7890625;violin
179.50809500000003;0.49180300000000443;81;0.7890625;violin
179.99989800000003;0.491802999999976;86;0.7890625;violin
180.491701;0.49180300000000443;84;0.7890625;violin
180.983504;0.4303276250000181;81;0.7890625;violin
181.47530700000002;0.43032762499998967;77;0.7890625;violin
181.96711000000002;0.49180300000000443;80;0.7890625;violin
182.45891300000002;0.43032762499998967;77;0.7890625;violin
182.95071600000003;0.491802999999976;74;0.7890625;violin
183.442519;0.49180300000000443;77;0.7890625;violin
183.934322;0.4303276250000181;74;0.7890625;violin
184.426125;0.49180300000000443;71;0.7890625;violin
184.91792800000002;0.43032762499998967;67;0.7890625;violin
185.40973100000002;0.43032762499998967;69;0.7890625;violin
185.90153400000003;0.49180300000000443;71;0.7890625;violin
186.39333700000003;0.491802999999976;72;0.7890625;violin
186.88514;0.4303276250000181;76;0.7890625;violin
187.376943;0.49180300000000443;77;0.7890625;violin
187.86874600000002;0.43032762499998967;84;0.7890625;violin
188.36054900000002;0.43032762499998967;79;0.7890625;violin
188.85235200000002;0.43032762499998967;76;0.7890625;violin
189.34415500000003;1.2909828749999974;72;0.7890625;violin
190.819564;1.4754090000000133;60;0.7578125;violin
190.819564;0.49180300000000443;70;0.7890625;violin
191.31136700000002;0.49180300000000443;72;0.7890625;violin
191.80317000000002;0.43032762499998967;70;0.7890625;violin
192.29497300000003;0.24590150000000222;70;0.7890625;violin
192.29497300000003;0.24590150000000222;76;0.7890625;violin
192.78677600000003;0.491802999999976;60;0.7890625;violin
193.278579;0.49180300000000443;62;0.7890625;violin
193.770382;0.49180300000000443;64;0.7890625;violin
194.26218500000002;0.43032762499998967;62;0.7890625;violin
194.75398800000002;0.43032762499998967;60;0.7890625;violin
195.24579100000003;1.4754089999999849;60;0.7578125;violin
195.24579100000003;0.49180300000000443;69;0.7890625;violin
195.73759400000003;0.491802999999976;70;0.7890625;violin
196.229397;0.4303276250000181;69;0.7890625;violin
196.7212;0.24590150000000222;69;0.7890625;violin
196.7212;0.24590150000000222;77;0.7890625;violin
197.21300300000001;0.49180300000000443;69;0.7890625;violin
197.70480600000002;0.49180300000000443;74;0.7890625;violin
198.19660900000002;0.49180300000000443;72;0.7890625;violin
198.68841200000003;0.43032762499998967;69;0.7890625;violin
199.18021500000003;0.43032762499998967;65;0.7890625;violin
199.672018;0.4303276250000181;68;0.7890625;violin
200.163821;0.4303276250000181;65;0.7890625;violin
200.65562400000002;0.49180300000000443;62;0.7890625;violin
201.14742700000002;0.43032762499998967;65;0.7890625;violin
201.63923000000003;0.43032762499998967;62;0.7890625;violin
202.13103300000003;0.491802999999976;59;0.7890625;violin
202.622836;0.4303276250000181;55;0.7890625;violin
203.114639;0.4303276250000181;57;0.7890625;violin
203.60644200000002;0.49180300000000443;59;0.7890625;violin
204.09824500000002;0.43032762499998967;60;0.7890625;violin
204.59004800000002;0.43032762499998967;55;0.7890625;violin
205.08185100000003;0.49180300000000443;60;0.7890625;violin
205.57365400000003;0.43032762499998967;64;0.7890625;violin
206.065457;0.4303276250000181;60;0.7890625;violin
206.55726;0.4303276250000181;64;0.7890625;violin
207.04906300000002;1.2909828749999974;67;0.7890625;violin
208.52447200000003;0.491802999999976;69;0.7890625;violin
209.016275;0.4303276250000181;65;0.7890625;violin
209.508078;0.49180300000000443;62;0.7890625;violin
209.99988100000002;0.43032762499998967;65;0.7890625;violin
210.49168400000002;0.43032762499998967;62;0.7890625;violin
210.98348700000003;0.49180300000000443;59;0.7890625;violin
211.47529000000003;0.43032762499998967;55;0.7890625;violin
211.967093;0.4303276250000181;57;0.7890625;violin
212.458896;0.49180300000000443;59;0.7890625;violin
212.95069900000001;0.4303276250000181;60;0.7890625;violin
213.44250200000002;0.43032762499998967;55;0.7890625;violin
213.93430500000002;0.49180300000000443;60;0.7890625;violin
214.42610800000003;0.43032762499998967;64;0.7890625;violin
214.91791100000003;0.43032762499998967;60;0.7890625;violin
215.409714;0.4303276250000181;64;0.7890625;violin
215.901517;1.2909828749999974;67;0.7890625;violin
217.37692600000003;0.49180300000000443;69;0.7890625;violin
217.86872900000003;0.43032762499998967;65;0.7890625;violin
218.360532;0.49180300000000443;62;0.7890625;violin
218.852335;0.4303276250000181;65;0.7890625;violin
219.34413800000002;0.4303276250000181;62;0.7890625;violin
219.83594100000002;0.49180300000000443;59;0.7890625;violin
220.32774400000002;0.43032762499998967;55;0.7890625;violin
220.81954700000003;0.43032762499998967;57;0.7890625;violin
221.31135000000003;0.491802999999976;59;0.7890625;violin
221.803153;0.4303276250000181;60;0.7890625;violin
222.294956;0.4303276250000181;55;0.7890625;violin
222.78675900000002;0.49180300000000443;60;0.7890625;violin
223.27856200000002;0.43032762499998967;64;0.7890625;violin
223.77036500000003;0.43032762499998967;60;0.7890625;violin
224.26216800000003;0.43032762499998967;64;0.7890625;violin
224.753971;0.9836060000000089;67;0.7890625;violin
225.73757700000002;0.49180300000000443;55;0.7890625;violin
226.22938000000002;0.49180300000000443;60;0.7890625;violin
226.72118300000002;0.43032762499998967;55;0.7890625;violin
227.21298600000003;0.49180300000000443;60;0.7890625;violin
227.70478900000003;0.43032762499998967;64;0.7890625;violin
228.196592;0.4303276250000181;60;0.7890625;violin
228.688395;0.4303276250000181;64;0.7890625;violin
229.18019800000002;0.8606552500000078;67;0.7890625;violin
230.16380400000003;0.49180300000000443;55;0.7890625;violin
230.65560700000003;0.491802999999976;60;0.7890625;violin
231.14741;0.4303276250000181;55;0.7890625;violin
231.639213;0.49180300000000443;64;0.7890625;violin
232.13101600000002;0.4303276250000181;60;0.7890625;violin
232.62281900000002;0.43032762499998967;55;0.7890625;violin
233.11462200000003;0.49180300000000443;64;0.7890625;violin
233.60642500000003;0.43032762499998967;60;0.7890625;violin
234.09822800000003;0.43032762499998967;55;0.7890625;violin
234.590031;0.49180300000000443;64;0.7890625;violin
235.08183400000001;0.49180300000000443;60;0.7890625;violin
235.57363700000002;0.43032762499998967;55;0.7890625;violin
236.06544000000002;0.49180300000000443;64;0.7890625;violin
236.55724300000003;0.43032762499998967;60;0.7890625;violin
237.04904600000003;0.43032762499998967;55;0.7890625;violin
237.540849;0.49180300000000443;64;0.7890625;violin
238.032652;0.4303276250000181;60;0.7890625;violin
238.52445500000002;0.4303276250000181;55;0.7890625;violin
239.01625800000002;0.49180300000000443;64;0.7890625;violin
239.50806100000003;0.43032762499998967;60;0.7890625;violin
242.45887900000002;0.43032762499998967;55;0.7890625;violin
242.45887900000002;0.43032762499998967;67;0.7890625;violin
242.45887900000002;0.43032762499998967;77;0.7890625;violin
242.45887900000002;0.43032762499998967;83;0.7890625;violin
243.934288;0.4303276250000181;60;0.7890625;violin
243.934288;0.4303276250000181;67;0.7890625;violin
243.934288;0.4303276250000181;76;0.7890625;violin
243.934288;0.4303276250000181;84;0.7890625;violin
