start;duration;pitch;velocity;instrument
0.0;0.03630046875;74;0.7578125;violin
0.03630046875;0.03630046875;72;0.7578125;violin
0.07417921875;0.03630046875000001;74;0.7578125;violin
0.1104796875;0.03630046875000001;72;0.7578125;violin
0.1483584375;0.03630046875000001;74;0.7578125;violin
0.1862371875;0.03630046874999998;72;0.7578125;violin
0.22253765625;0.03630046875000004;74;0.7578125;violin
0.26041640625;0.03630046874999998;72;0.7578125;violin
0.29829515625;0.03630046874999998;74;0.7578125;violin
0.334595625;0.03630046874999998;72;0.7578125;violin
0.372474375;0.03630046874999998;74;0.7578125;violin
0.40877484375;0.03630046874999998;72;0.7578125;violin
0.44665359375;0.03630046874999998;74;0.7578125;violin
0.48453234375000004;0.03630046874999998;72;0.7578125;violin
0.5208328125;0.03630046875000004;74;0.7578125;violin
0.5587115625;0.03630046875000004;72;0.7578125;violin
0.5965903125;0.036300468749999926;74;0.7578125;violin
0.63289078125;0.03630046875000004;72;0.7578125;violin
0.67076953125;0.036300468749999926;74;0.7578125;violin
0.70707;0.03630046875000004;72;0.7578125;violin
0.74494875;0.036300468749999926;74;0.7578125;violin
0.7828275;0.03630046875000004;72;0.7578125;violin
0.81912796875;0.036300468749999926;74;0.7578125;violin
0.85700671875;0.03630046875000004;72;0.7578125;violin
0.89488546875;0.03630046875000004;74;0.7578125;violin
0.9311859375;0.03630046875000004;72;0.7578125;violin
0.9690646875000001;0.03630046875000004;74;0.7578125;violin
1.0053651562500001;0.036300468749999926;72;0.7578125;violin
1.04324390625;0.036300468749999926;74;0.7578125;violin
1.08112265625;0.036300468749999926;72;0.7578125;violin
1.117423125;0.03630046875000015;74;0.7578125;violin
1.155301875;0.03630046875000015;72;0.7578125;violin
1.193180625;0.036300468749999926;74;0.7578125;violin
1.22948109375;0.036300468749999926;72;0.7578125;violin
1.26735984375;0.03630046875000015;74;0.7578125;violin
1.3036603125000001;0.036300468749999926;72;0.7578125;violin
1.3415390625;0.036300468749999926;74;0.7578125;violin
1.3794178125;0.036300468749999926;72;0.7578125;violin
1.41571828125;0.03630046875000015;74;0.7578125;violin
1.45359703125;0.03630046875000015;72;0.7578125;violin
1.4914757812500001;0.036300468749999926;74;0.7578125;violin
1.52777625;0.036300468749999926;72;0.7578125;violin
1.565655;0.036300468749999926;74;0.7578125;violin
1.60195546875;0.03630046875000015;72;0.7578125;violin
1.6398342187500001;0.036300468749999926;74;0.7578125;violin
1.67771296875;0.036300468749999926;72;0.7578125;violin
1.7140134375;0.036300468749999926;74;0.7578125;violin
1.7518921875;0.03630046875000015;72;0.7578125;violin
1.7897709375;0.03630046875000015;74;0.7578125;violin
1.82607140625;0.036300468749999926;72;0.7578125;violin
1.86395015625;0.036300468749999926;74;0.7578125;violin
1.900250625;0.03630046875000015;72;0.7578125;violin
1.9381293750000002;0.036300468749999926;74;0.7578125;violin
1.9760081250000001;0.03630046875000015;72;0.7578125;violin
2.0123085937500003;0.036300468749999926;74;0.7578125;violin
2.0501873437500002;0.036300468749999926;72;0.7578125;violin
2.08806609375;0.036300468749999926;74;0.7578125;violin
2.1243665625;0.036300468749999926;72;0.7578125;violin
2.1622453125;0.036300468749999926;74;0.7578125;violin
2.19854578125;0.036300468749999926;72;0.7578125;violin
2.23642453125;0.036300468749999926;74;0.7578125;violin
2.27430328125;0.036300468749999926;72;0.7578125;violin
2.31060375;0.03630046875000037;74;0.7578125;violin
2.3484825000000003;0.036300468749999926;72;0.7578125;violin
2.38636125;0.01893937499999998;71;0.7578125;violin
2.405300625;0.01893937499999998;72;0.7578125;violin
2.42424;0.15151499999999984;74;0.7578125;violin
2.960855625;0.033143906249999855;74;0.7578125;violin
2.9955778125;0.033143906249999855;76;0.7578125;violin
3.0303;0.30303000000000013;74;0.7578125;violin
3.33333;0.26515125000000017;71;0.7578125;violin
3.6363600000000003;1.0606050000000002;67;0.7578125;violin
4.84848;0.03630046874999948;81;0.7578125;violin
4.88478046875;0.03630046875000037;79;0.7578125;violin
4.92265921875;0.03630046875000037;81;0.7578125;violin
4.9589596875;0.03630046875000037;79;0.7578125;violin
4.9968384375;0.03630046875000037;81;0.7578125;violin
5.0347171875;0.03630046875000037;79;0.7578125;violin
5.0710176562500004;0.03630046874999948;81;0.7578125;violin
5.10889640625;0.03630046874999948;79;0.7578125;violin
5.14677515625;0.03630046874999948;81;0.7578125;violin
5.183075625;0.03630046875000037;79;0.7578125;violin
5.220954375;0.03630046875000037;81;0.7578125;violin
5.25725484375;0.03630046875000037;79;0.7578125;violin
5.29513359375;0.03630046875000037;81;0.7578125;violin
5.33301234375;0.03630046875000037;79;0.7578125;violin
5.3693128125000005;0.03630046874999948;81;0.7578125;violin
5.4071915625;0.03630046874999948;79;0.7578125;violin
5.4450703125;0.03630046874999948;81;0.7578125;violin
5.48137078125;0.03630046875000037;79;0.7578125;violin
5.51924953125;0.03630046875000037;81;0.7578125;violin
5.55555;0.03630046875000037;79;0.7578125;violin
5.59342875;0.03630046875000037;81;0.7578125;violin
5.6313075;0.03630046875000037;79;0.7578125;violin
5.6676079687500005;0.03630046874999948;81;0.7578125;violin
5.7054867187500005;0.03630046874999948;79;0.7578125;violin
5.74336546875;0.03630046874999948;81;0.7578125;violin
5.7796659375;0.03630046875000037;79;0.7578125;violin
5.8175446875;0.03630046875000037;81;0.7578125;violin
5.85384515625;0.03630046874999948;79;0.7578125;violin
5.89172390625;0.03630046875000037;81;0.7578125;violin
5.92960265625;0.03630046875000037;79;0.7578125;violin
5.9659031250000005;0.03630046874999948;81;0.7578125;violin
6.0037818750000005;0.03630046874999948;79;0.7578125;violin
6.0416606250000005;0.03630046874999948;81;0.7578125;violin
6.07796109375;0.03630046875000037;79;0.7578125;violin
6.11583984375;0.03630046875000037;81;0.7578125;violin
6.1521403125;0.03630046874999948;79;0.7578125;violin
6.1900190625;0.03630046875000037;81;0.7578125;violin
6.2278978125;0.03630046875000037;79;0.7578125;violin
6.2641982812500006;0.03630046874999948;81;0.7578125;violin
6.3020770312500005;0.03630046874999948;79;0.7578125;violin
6.3399557812500005;0.03630046874999948;81;0.7578125;violin
6.37625625;0.03630046875000037;79;0.7578125;violin
6.414135;0.03630046875000037;81;0.7578125;violin
6.45043546875;0.03630046874999948;79;0.7578125;violin
6.48831421875;0.03630046874999948;81;0.7578125;violin
6.52619296875;0.03630046875000037;79;0.7578125;violin
6.562493437500001;0.03630046874999948;81;0.7578125;violin
6.6003721875000005;0.03630046874999948;79;0.7578125;violin
6.6382509375000005;0.03630046874999948;81;0.7578125;violin
6.67455140625;0.03630046875000037;79;0.7578125;violin
6.71243015625;0.03630046875000037;81;0.7578125;violin
6.748730625;0.03630046874999948;79;0.7578125;violin
6.786609375;0.03630046874999948;81;0.7578125;violin
6.824488125;0.03630046875000037;79;0.7578125;violin
6.860788593750001;0.03630046874999948;81;0.7578125;violin
6.898667343750001;0.03630046874999948;79;0.7578125;violin
6.9365460937500005;0.03630046874999948;81;0.7578125;violin
6.9728465625;0.03630046875000037;79;0.7578125;violin
7.0107253125;0.03630046875000037;81;0.7578125;violin
7.04702578125;0.03630046874999948;79;0.7578125;violin
7.08490453125;0.03630046874999948;81;0.7578125;violin
7.12278328125;0.03630046874999948;79;0.7578125;violin
7.15908375;0.03630046875000037;81;0.7578125;violin
7.196962500000001;0.03630046874999948;79;0.7578125;violin
7.234841250000001;0.018939374999999536;78;0.7578125;violin
7.253780625;0.018939375000000425;79;0.7578125;violin
7.2727200000000005;0.15151499999999984;81;0.7578125;violin
7.809335625;0.0331439062500003;79;0.7578125;violin
7.8440578125;0.0331439062500003;81;0.7578125;violin
7.87878;0.3030300000000006;79;0.7578125;violin
8.18181;0.3030299999999997;76;0.7578125;violin
8.48484;1.2121200000000005;84;0.7578125;violin
9.69696;0.03630046874999948;84;0.7578125;violin
9.73326046875;0.03630046874999948;83;0.7578125;violin
9.771139218750001;0.03630046874999948;84;0.7578125;violin
9.8074396875;0.03630046874999948;83;0.7578125;violin
9.8453184375;0.03630046875000126;84;0.7578125;violin
9.8831971875;0.03630046874999948;83;0.7578125;violin
9.91949765625;0.03630046874999948;84;0.7578125;violin
9.95737640625;0.03630046874999948;83;0.7578125;violin
9.99525515625;0.03630046875000126;84;0.7578125;violin
10.031555625000001;0.03630046874999948;83;0.7578125;violin
10.069434375;0.03630046874999948;84;0.7578125;violin
10.10573484375;0.03630046875000126;83;0.7578125;violin
10.14361359375;0.03630046874999948;84;0.7578125;violin
10.18149234375;0.03630046875000126;83;0.7578125;violin
10.2177928125;0.03630046874999948;84;0.7578125;violin
10.2556715625;0.03630046874999948;83;0.7578125;violin
10.2935503125;0.03630046874999948;84;0.7578125;violin
10.32985078125;0.03630046874999948;83;0.7578125;violin
10.367729531250001;0.03630046874999948;84;0.7578125;violin
10.40403;0.03630046874999948;83;0.7578125;violin
10.44190875;0.03630046875000126;84;0.7578125;violin
10.4797875;0.03630046874999948;83;0.7578125;violin
10.51608796875;0.03630046874999948;84;0.7578125;violin
10.55396671875;0.03630046874999948;83;0.7578125;violin
10.59184546875;0.03630046875000126;84;0.7578125;violin
10.628145937500001;0.03630046874999948;83;0.7578125;violin
10.6660246875;0.03630046874999948;84;0.7578125;violin
10.70232515625;0.03630046875000126;83;0.7578125;violin
10.74020390625;0.03630046874999948;84;0.7578125;violin
10.77808265625;0.03630046875000126;83;0.7578125;violin
10.814383125;0.03630046874999948;84;0.7578125;violin
10.852261875;0.03630046874999948;83;0.7578125;violin
10.890140625;0.03630046874999948;84;0.7578125;violin
10.92644109375;0.03630046874999948;83;0.7578125;violin
10.964319843750001;0.03630046874999948;84;0.7578125;violin
11.0006203125;0.03630046874999948;83;0.7578125;violin
11.0384990625;0.03630046875000126;84;0.7578125;violin
11.0763778125;0.03630046874999948;83;0.7578125;violin
11.11267828125;0.03630046874999948;84;0.7578125;violin
11.15055703125;0.03630046874999948;83;0.7578125;violin
11.18843578125;0.03630046874999948;84;0.7578125;violin
11.22473625;0.03630046875000126;83;0.7578125;violin
11.262615;0.03630046874999948;84;0.7578125;violin
11.29891546875;0.03630046875000126;83;0.7578125;violin
11.33679421875;0.03630046874999948;84;0.7578125;violin
11.37467296875;0.03630046875000126;83;0.7578125;violin
11.410973437500001;0.03630046874999948;84;0.7578125;violin
11.4488521875;0.03630046874999948;83;0.7578125;violin
11.4867309375;0.03630046874999948;84;0.7578125;violin
11.52303140625;0.03630046874999948;83;0.7578125;violin
11.560910156250001;0.03630046874999948;84;0.7578125;violin
11.597210625;0.03630046874999948;83;0.7578125;violin
11.635089375;0.03630046875000126;84;0.7578125;violin
11.672968125;0.03630046874999948;83;0.7578125;violin
11.70926859375;0.03630046874999948;84;0.7578125;violin
11.747147343750001;0.03630046874999948;83;0.7578125;violin
11.78502609375;0.03630046874999948;84;0.7578125;violin
11.8213265625;0.03630046875000126;83;0.7578125;violin
11.8592053125;0.03630046874999948;84;0.7578125;violin
11.89550578125;0.03630046875000126;83;0.7578125;violin
11.93338453125;0.03630046874999948;84;0.7578125;violin
11.97126328125;0.03630046875000126;83;0.7578125;violin
12.007563750000001;0.03630046874999948;84;0.7578125;violin
12.0454425;0.03630046874999948;83;0.7578125;violin
12.083321250000001;0.018939374999998648;81;0.7578125;violin
12.102260625;0.018939375000000425;83;0.7578125;violin
12.1212;0.6060600000000012;86;0.7578125;violin
12.727260000000001;0.5366156249999996;84;0.7578125;violin
13.263875625;0.0331439062500003;83;0.7578125;violin
13.2985978125;0.0331439062500003;84;0.7578125;violin
13.33332;0.5303024999999995;83;0.7578125;violin
13.93938;0.5303025000000012;81;0.7578125;violin
14.545440000000001;0.6060599999999994;79;0.7578125;violin
15.1515;0.5303024999999995;77;0.7578125;violin
15.688115625;0.0331439062500003;77;0.7578125;violin
15.7228378125;0.0331439062500003;79;0.7578125;violin
15.75756;0.6060600000000012;77;0.7578125;violin
16.36362;0.5303025000000012;76;0.7578125;violin
16.96968;0.6060599999999994;74;0.7578125;violin
17.57574;0.45454499999999953;77;0.7578125;violin
18.030285;0.15151499999999984;71;0.7578125;violin
18.1818;0.036300468750003034;72;0.7578125;violin
18.218100468750002;0.03630046874999948;71;0.7578125;violin
18.2544009375;0.03630046874999948;72;0.7578125;violin
18.29070140625;0.03630046874999948;71;0.7578125;violin
18.328580156250002;0.03630046874999948;72;0.7578125;violin
18.364880625;0.03630046874999948;71;0.7578125;violin
18.40118109375;0.03630046874999948;72;0.7578125;violin
18.4374815625;0.03630046874999948;71;0.7578125;violin
18.4753603125;0.03630046874999948;72;0.7578125;violin
18.51166078125;0.03630046874999948;71;0.7578125;violin
18.54796125;0.03630046874999948;72;0.7578125;violin
18.58426171875;0.03630046874999948;71;0.7578125;violin
18.62214046875;0.03630046874999948;72;0.7578125;violin
18.6584409375;0.03630046874999948;71;0.7578125;violin
18.69474140625;0.03630046874999948;72;0.7578125;violin
18.731041875;0.036300468750003034;71;0.7578125;violin
18.768920625;0.03630046874999948;72;0.7578125;violin
18.80522109375;0.03630046874999948;71;0.7578125;violin
18.8415215625;0.036300468750003034;72;0.7578125;violin
18.877822031250002;0.03630046874999948;71;0.7578125;violin
18.91570078125;0.036300468750003034;72;0.7578125;violin
18.952001250000002;0.03630046874999948;71;0.7578125;violin
18.98830171875;0.03630046874999948;72;0.7578125;violin
19.0246021875;0.03630046874999948;71;0.7578125;violin
19.062480937500002;0.03630046874999948;72;0.7578125;violin
19.09878140625;0.03630046874999948;71;0.7578125;violin
19.135081875;0.03630046874999948;72;0.7578125;violin
19.17138234375;0.03630046874999948;71;0.7578125;violin
19.20926109375;0.03630046874999948;72;0.7578125;violin
19.2455615625;0.03630046874999948;71;0.7578125;violin
19.28186203125;0.03630046874999948;72;0.7578125;violin
19.3181625;0.03630046874999948;71;0.7578125;violin
19.35604125;0.018939374999998648;69;0.7578125;violin
19.374980625;0.0189393750000022;71;0.7578125;violin
19.39392;0.03630046874999948;74;0.7578125;violin
19.43022046875;0.03630046874999948;72;0.7578125;violin
19.46809921875;0.03630046874999948;74;0.7578125;violin
19.5043996875;0.03630046874999948;72;0.7578125;violin
19.542278437500002;0.03630046874999948;74;0.7578125;violin
19.5801571875;0.03630046874999948;72;0.7578125;violin
19.61645765625;0.036300468750003034;74;0.7578125;violin
19.65433640625;0.03630046874999948;72;0.7578125;violin
19.69221515625;0.03630046874999948;74;0.7578125;violin
19.728515625;0.03630046874999948;72;0.7578125;violin
19.766394375;0.03630046874999948;74;0.7578125;violin
19.80269484375;0.03630046874999948;72;0.7578125;violin
19.84057359375;0.03630046874999948;74;0.7578125;violin
19.878452343750002;0.03630046874999948;72;0.7578125;violin
19.9147528125;0.03630046874999948;74;0.7578125;violin
19.9526315625;0.036300468750003034;72;0.7578125;violin
19.9905103125;0.03630046874999948;74;0.7578125;violin
20.02681078125;0.036300468750003034;72;0.7578125;violin
20.06468953125;0.03630046874999948;74;0.7578125;violin
20.10099;0.03630046874999948;72;0.7578125;violin
20.13886875;0.03630046874999948;74;0.7578125;violin
20.1767475;0.03630046874999948;72;0.7578125;violin
20.21304796875;0.03630046874999948;74;0.7578125;violin
20.25092671875;0.03630046874999948;72;0.7578125;violin
20.28880546875;0.036300468750003034;74;0.7578125;violin
20.325105937500002;0.03630046874999948;72;0.7578125;violin
20.3629846875;0.036300468750003034;74;0.7578125;violin
20.399285156250002;0.03630046874999948;72;0.7578125;violin
20.43716390625;0.03630046874999948;74;0.7578125;violin
20.47504265625;0.03630046874999948;72;0.7578125;violin
20.511343125;0.03630046874999948;74;0.7578125;violin
20.549221875;0.03630046874999948;72;0.7578125;violin
20.587100625;0.03630046874999948;74;0.7578125;violin
20.62340109375;0.03630046874999948;72;0.7578125;violin
20.661279843750002;0.03630046874999948;74;0.7578125;violin
20.6975803125;0.03630046874999948;72;0.7578125;violin
20.735459062500002;0.03630046874999948;74;0.7578125;violin
20.7733378125;0.03630046874999948;72;0.7578125;violin
20.80963828125;0.036300468750003034;74;0.7578125;violin
20.84751703125;0.03630046874999948;72;0.7578125;violin
20.88539578125;0.03630046874999948;74;0.7578125;violin
20.92169625;0.03630046874999948;72;0.7578125;violin
20.959575;0.03630046874999948;74;0.7578125;violin
20.99587546875;0.03630046874999948;72;0.7578125;violin
21.03375421875;0.03630046874999948;74;0.7578125;violin
21.071632968750002;0.03630046874999948;72;0.7578125;violin
21.1079334375;0.03630046874999948;74;0.7578125;violin
21.1458121875;0.036300468750003034;72;0.7578125;violin
21.1836909375;0.03630046874999948;74;0.7578125;violin
21.21999140625;0.036300468750003034;72;0.7578125;violin
21.25787015625;0.03630046874999948;74;0.7578125;violin
21.294170625;0.03630046874999948;72;0.7578125;violin
21.332049375;0.03630046874999948;74;0.7578125;violin
21.369928125;0.03630046874999948;72;0.7578125;violin
21.40622859375;0.03630046874999948;74;0.7578125;violin
21.44410734375;0.03630046874999948;72;0.7578125;violin
21.48198609375;0.036300468750003034;74;0.7578125;violin
21.518286562500002;0.03630046874999948;72;0.7578125;violin
21.5561653125;0.036300468750003034;74;0.7578125;violin
21.592465781250002;0.03630046874999948;72;0.7578125;violin
21.63034453125;0.03630046874999948;74;0.7578125;violin
21.66822328125;0.03630046874999948;72;0.7578125;violin
21.70452375;0.03630046874999948;74;0.7578125;violin
21.7424025;0.03630046874999948;72;0.7578125;violin
21.78028125;0.018939374999998648;71;0.7578125;violin
21.799220625;0.018939374999998648;72;0.7578125;violin
21.81816;0.30303000000000324;74;0.7578125;violin
22.121190000000002;0.3030299999999997;76;0.7578125;violin
22.424220000000002;0.3030299999999997;74;0.7578125;violin
22.72725;0.3030299999999997;71;0.7578125;violin
23.03028;1.060604999999999;67;0.7578125;violin
24.2424;0.03630046874999948;81;0.7578125;violin
24.27870046875;0.03630046874999948;79;0.7578125;violin
24.31657921875;0.03630046874999948;81;0.7578125;violin
24.3528796875;0.03630046874999948;79;0.7578125;violin
24.3907584375;0.03630046874999948;81;0.7578125;violin
24.4286371875;0.03630046874999948;79;0.7578125;violin
24.46493765625;0.03630046874999948;81;0.7578125;violin
24.502816406250002;0.03630046874999948;79;0.7578125;violin
24.54069515625;0.036300468750003034;81;0.7578125;violin
24.576995625000002;0.03630046874999948;79;0.7578125;violin
24.614874375;0.03630046874999948;81;0.7578125;violin
24.65117484375;0.036300468750003034;79;0.7578125;violin
24.68905359375;0.03630046874999948;81;0.7578125;violin
24.72693234375;0.03630046874999948;79;0.7578125;violin
24.7632328125;0.03630046874999948;81;0.7578125;violin
24.8011115625;0.03630046874999948;79;0.7578125;violin
24.838990312500002;0.03630046874999948;81;0.7578125;violin
24.87529078125;0.03630046874999948;79;0.7578125;violin
24.913169531250002;0.03630046874999948;81;0.7578125;violin
24.94947;0.03630046874999948;79;0.7578125;violin
24.98734875;0.036300468750003034;81;0.7578125;violin
25.0252275;0.03630046874999948;79;0.7578125;violin
25.06152796875;0.036300468750003034;81;0.7578125;violin
25.09940671875;0.03630046874999948;79;0.7578125;violin
25.13728546875;0.03630046874999948;81;0.7578125;violin
25.1735859375;0.03630046874999948;79;0.7578125;violin
25.2114646875;0.03630046874999948;81;0.7578125;violin
25.24776515625;0.03630046874999948;79;0.7578125;violin
25.28564390625;0.03630046874999948;81;0.7578125;violin
25.32352265625;0.036300468750003034;79;0.7578125;violin
25.359823125000002;0.03630046874999948;81;0.7578125;violin
25.397701875;0.036300468750003034;79;0.7578125;violin
25.435580625;0.03630046874999948;81;0.7578125;violin
25.47188109375;0.03630046874999948;79;0.7578125;violin
25.50975984375;0.03630046874999948;81;0.7578125;violin
25.5460603125;0.03630046874999948;79;0.7578125;violin
25.5839390625;0.03630046874999948;81;0.7578125;violin
25.6218178125;0.03630046874999948;79;0.7578125;violin
25.65811828125;0.03630046874999948;81;0.7578125;violin
25.695997031250002;0.03630046874999948;79;0.7578125;violin
25.73387578125;0.036300468750003034;81;0.7578125;violin
25.770176250000002;0.03630046874999948;79;0.7578125;violin
25.808055;0.03630046874999948;81;0.7578125;violin
25.84435546875;0.036300468750003034;79;0.7578125;violin
25.88223421875;0.03630046874999948;81;0.7578125;violin
25.92011296875;0.03630046874999948;79;0.7578125;violin
25.9564134375;0.03630046874999948;81;0.7578125;violin
25.9942921875;0.03630046874999948;79;0.7578125;violin
26.032170937500002;0.03630046874999948;81;0.7578125;violin
26.06847140625;0.03630046874999948;79;0.7578125;violin
26.106350156250002;0.03630046874999948;81;0.7578125;violin
26.142650625;0.03630046874999948;79;0.7578125;violin
26.180529375;0.036300468750003034;81;0.7578125;violin
26.218408125;0.03630046874999948;79;0.7578125;violin
26.25470859375;0.036300468750003034;81;0.7578125;violin
26.29258734375;0.03630046874999948;79;0.7578125;violin
26.33046609375;0.03630046874999948;81;0.7578125;violin
26.3667665625;0.03630046874999948;79;0.7578125;violin
26.4046453125;0.03630046874999948;81;0.7578125;violin
26.44094578125;0.03630046874999948;79;0.7578125;violin
26.47882453125;0.03630046874999948;81;0.7578125;violin
26.51670328125;0.036300468750003034;79;0.7578125;violin
26.553003750000002;0.03630046874999948;81;0.7578125;violin
26.5908825;0.036300468750003034;79;0.7578125;violin
26.62876125;0.0189393750000022;78;0.7578125;violin
26.647700625000002;0.018939374999998648;79;0.7578125;violin
26.66664;0.3030299999999997;81;0.7578125;violin
26.96967;0.3030299999999997;79;0.7578125;violin
27.2727;0.3030299999999997;76;0.7578125;violin
27.57573;0.3030299999999997;72;0.7578125;violin
27.87876;1.0606050000000025;67;0.7578125;violin
29.090880000000002;0.03630046874999948;67;0.7578125;violin
29.12718046875;0.03630046874999948;65;0.7578125;violin
29.165059218750002;0.03630046874999948;67;0.7578125;violin
29.201359687500002;0.03630046874999948;65;0.7578125;violin
29.2392384375;0.036300468750003034;67;0.7578125;violin
29.2771171875;0.03630046874999948;65;0.7578125;violin
29.31341765625;0.03630046874999948;67;0.7578125;violin
29.35129640625;0.03630046874999948;65;0.7578125;violin
29.38917515625;0.03630046874999948;67;0.7578125;violin
29.425475625;0.03630046874999948;65;0.7578125;violin
29.463354375;0.03630046874999948;67;0.7578125;violin
29.49965484375;0.03630046874999948;65;0.7578125;violin
29.537533593750002;0.03630046874999948;67;0.7578125;violin
29.57541234375;0.036300468750003034;65;0.7578125;violin
29.611712812500002;0.03630046874999948;67;0.7578125;violin
29.6495915625;0.03630046874999948;65;0.7578125;violin
29.6874703125;0.03630046874999948;67;0.7578125;violin
29.72377078125;0.03630046874999948;65;0.7578125;violin
29.76164953125;0.03630046874999948;67;0.7578125;violin
29.79795;0.03630046874999948;65;0.7578125;violin
29.83582875;0.03630046874999948;67;0.7578125;violin
29.873707500000002;0.03630046874999948;65;0.7578125;violin
29.91000796875;0.03630046874999948;67;0.7578125;violin
29.947886718750002;0.03630046874999948;65;0.7578125;violin
29.98576546875;0.036300468750003034;67;0.7578125;violin
30.022065937500003;0.03630046874999948;65;0.7578125;violin
30.0599446875;0.03630046874999948;67;0.7578125;violin
30.09624515625;0.036300468750003034;65;0.7578125;violin
30.13412390625;0.03630046874999948;67;0.7578125;violin
30.17200265625;0.03630046874999948;65;0.7578125;violin
30.208303125;0.03630046874999948;67;0.7578125;violin
30.246181875;0.03630046874999948;65;0.7578125;violin
30.284060625000002;0.03630046874999948;67;0.7578125;violin
30.32036109375;0.03630046874999948;65;0.7578125;violin
30.358239843750003;0.03630046874999948;67;0.7578125;violin
30.394540312500002;0.03630046874999948;65;0.7578125;violin
30.4324190625;0.036300468750003034;67;0.7578125;violin
30.4702978125;0.03630046874999948;65;0.7578125;violin
30.50659828125;0.03630046874999948;67;0.7578125;violin
30.54447703125;0.03630046874999948;65;0.7578125;violin
30.58235578125;0.03630046874999948;67;0.7578125;violin
30.61865625;0.03630046874999948;65;0.7578125;violin
30.656535;0.03630046874999948;67;0.7578125;violin
30.69283546875;0.03630046874999948;65;0.7578125;violin
30.730714218750002;0.03630046874999948;67;0.7578125;violin
30.76859296875;0.036300468750003034;65;0.7578125;violin
30.804893437500002;0.03630046874999948;67;0.7578125;violin
30.8427721875;0.03630046874999948;65;0.7578125;violin
30.8806509375;0.03630046874999948;67;0.7578125;violin
30.91695140625;0.03630046874999948;65;0.7578125;violin
30.95483015625;0.03630046874999948;67;0.7578125;violin
30.991130625;0.03630046874999948;65;0.7578125;violin
31.029009375;0.03630046874999948;67;0.7578125;violin
31.066888125000002;0.03630046874999948;65;0.7578125;violin
31.10318859375;0.03630046874999948;67;0.7578125;violin
31.141067343750002;0.03630046874999948;65;0.7578125;violin
31.17894609375;0.03630046874999948;67;0.7578125;violin
31.2152465625;0.036300468750003034;65;0.7578125;violin
31.2531253125;0.03630046874999948;67;0.7578125;violin
31.28942578125;0.036300468750003034;65;0.7578125;violin
31.32730453125;0.03630046874999948;67;0.7578125;violin
31.36518328125;0.03630046874999948;65;0.7578125;violin
31.40148375;0.03630046874999948;67;0.7578125;violin
31.4393625;0.03630046874999948;65;0.7578125;violin
31.477241250000002;0.018939374999998648;64;0.7578125;violin
31.496180625;0.018939374999998648;65;0.7578125;violin
31.51512;0.3030299999999997;69;0.7578125;violin
31.81815;0.30303000000000324;67;0.7578125;violin
32.12118;0.3030299999999997;64;0.7578125;violin
32.42421;0.3030299999999997;67;0.7578125;violin
32.72724;0.9090899999999991;72;0.7578125;violin
33.63633;0.3030299999999997;76;0.7578125;violin
33.93936;0.3030299999999997;74;0.8046875;violin
34.24239;0.3030299999999997;76;0.84375;violin
34.54542;0.3030299999999997;78;0.890625;violin
34.84845;0.2651512500000024;79;0.9375;violin
35.15148;0.9090899999999991;83;0.9921875;violin
36.06057;0.2651512500000024;81;0.9375;violin
36.3636;0.9090900000000062;79;0.9375;violin
37.272690000000004;0.2651512499999953;71;0.7578125;violin
37.575720000000004;0.03630046874999948;72;0.7578125;violin
37.61202046875;0.03630046874999948;71;0.7578125;violin
37.6483209375;0.03630046874999948;72;0.7578125;violin
37.68462140625;0.03630046874999948;71;0.7578125;violin
37.72250015625;0.03630046874999948;72;0.7578125;violin
37.758800625;0.03630046874999948;71;0.7578125;violin
37.79510109375;0.03630046874999948;72;0.7578125;violin
37.8314015625;0.03630046874999948;71;0.7578125;violin
37.8692803125;0.03630046874999948;72;0.7578125;violin
37.90558078125;0.03630046874999948;71;0.7578125;violin
37.94188125;0.03630046874999948;72;0.7578125;violin
37.97818171875;0.03630046874999948;71;0.7578125;violin
38.01606046875;0.03630046874999948;72;0.7578125;violin
38.0523609375;0.03630046875000659;71;0.7578125;violin
38.088661406250004;0.03630046874999948;72;0.7578125;violin
38.124961875000004;0.03630046874999948;71;0.7578125;violin
38.162840625;0.03630046874999948;72;0.7578125;violin
38.19914109375;0.03630046874999948;71;0.7578125;violin
38.2354415625;0.03630046874999948;72;0.7578125;violin
38.27174203125;0.03630046874999948;71;0.7578125;violin
38.309620781250004;0.03630046874999948;72;0.7578125;violin
38.34592125;0.03630046874999948;71;0.7578125;violin
38.38222171875;0.03630046874999948;72;0.7578125;violin
38.4185221875;0.03630046874999948;71;0.7578125;violin
38.4564009375;0.03630046874999948;72;0.7578125;violin
38.49270140625;0.03630046874999948;71;0.7578125;violin
38.529001875;0.03630046874999948;72;0.7578125;violin
38.56530234375;0.03630046874999948;71;0.7578125;violin
38.60318109375;0.03630046874999948;72;0.7578125;violin
38.6394815625;0.03630046874999948;71;0.7578125;violin
38.67578203125;0.03630046874999948;72;0.7578125;violin
38.7120825;0.03630046874999948;71;0.7578125;violin
38.74996125;0.0189393750000022;69;0.7578125;violin
38.768900625;0.0189393750000022;71;0.7578125;violin
38.78784;0.03630046874999948;74;0.7578125;violin
38.82414046875;0.03630046874999948;72;0.7578125;violin
38.86201921875;0.03630046874999948;74;0.7578125;violin
38.8983196875;0.03630046874999948;72;0.7578125;violin
38.9361984375;0.03630046874999948;74;0.7578125;violin
38.9740771875;0.03630046874999948;72;0.7578125;violin
39.01037765625;0.03630046874999948;74;0.7578125;violin
39.04825640625;0.03630046875000659;72;0.7578125;violin
39.08613515625;0.03630046874999948;74;0.7578125;violin
39.122435625;0.03630046874999948;72;0.7578125;violin
39.160314375;0.03630046874999948;74;0.7578125;violin
39.19661484375;0.03630046874999948;72;0.7578125;violin
39.23449359375;0.03630046874999948;74;0.7578125;violin
39.27237234375;0.03630046874999948;72;0.7578125;violin
39.3086728125;0.03630046874999948;74;0.7578125;violin
39.346551562500004;0.03630046874999948;72;0.7578125;violin
39.3844303125;0.03630046874999948;74;0.7578125;violin
39.42073078125;0.03630046874999948;72;0.7578125;violin
39.45860953125;0.03630046875000659;74;0.7578125;violin
39.494910000000004;0.03630046874999948;72;0.7578125;violin
39.53278875;0.03630046874999948;74;0.7578125;violin
39.5706675;0.03630046874999948;72;0.7578125;violin
39.60696796875;0.03630046874999948;74;0.7578125;violin
39.64484671875;0.03630046874999948;72;0.7578125;violin
39.68272546875;0.03630046874999948;74;0.7578125;violin
39.7190259375;0.03630046874999948;72;0.7578125;violin
39.756904687500004;0.03630046874999948;74;0.7578125;violin
39.79320515625;0.03630046874999948;72;0.7578125;violin
39.83108390625;0.03630046874999948;74;0.7578125;violin
39.86896265625;0.03630046874999948;72;0.7578125;violin
39.905263125;0.03630046875000659;74;0.7578125;violin
39.943141875;0.03630046874999948;72;0.7578125;violin
39.981020625;0.03630046874999948;74;0.7578125;violin
40.01732109375;0.03630046874999948;72;0.7578125;violin
40.05519984375;0.03630046874999948;74;0.7578125;violin
40.0915003125;0.03630046874999948;72;0.7578125;violin
40.1293790625;0.03630046874999948;74;0.7578125;violin
40.167257812500004;0.03630046874999948;72;0.7578125;violin
40.203558281250004;0.03630046874999948;74;0.7578125;violin
40.24143703125;0.03630046874999948;72;0.7578125;violin
40.27931578125;0.03630046874999948;74;0.7578125;violin
40.31561625;0.03630046875000659;72;0.7578125;violin
40.353495;0.03630046874999948;74;0.7578125;violin
40.38979546875;0.03630046874999948;72;0.7578125;violin
40.42767421875;0.03630046874999948;74;0.7578125;violin
40.46555296875;0.03630046874999948;72;0.7578125;violin
40.5018534375;0.03630046874999948;74;0.7578125;violin
40.5397321875;0.03630046874999948;72;0.7578125;violin
40.5776109375;0.03630046875000659;74;0.7578125;violin
40.613911406250004;0.03630046874999948;72;0.7578125;violin
40.65179015625;0.03630046874999948;74;0.7578125;violin
40.688090625;0.03630046874999948;72;0.7578125;violin
40.725969375;0.03630046874999948;74;0.7578125;violin
40.763848125;0.03630046874999948;72;0.7578125;violin
40.80014859375;0.03630046874999948;74;0.7578125;violin
40.83802734375;0.03630046874999948;72;0.7578125;violin
40.875906093750004;0.03630046874999948;74;0.7578125;violin
40.9122065625;0.03630046874999948;72;0.7578125;violin
40.9500853125;0.03630046874999948;74;0.7578125;violin
40.98638578125;0.03630046874999948;72;0.7578125;violin
41.024264531250004;0.03630046874999948;74;0.7578125;violin
41.06214328125;0.03630046874999948;72;0.7578125;violin
41.09844375;0.03630046874999948;74;0.7578125;violin
41.1363225;0.03630046874999948;72;0.7578125;violin
41.17420125;0.018939374999995096;71;0.7578125;violin
41.193140625;0.0189393750000022;72;0.7578125;violin
41.21208;0.3030299999999997;71;0.7578125;violin
41.51511;0.3030299999999997;74;0.7578125;violin
41.81814;0.3030299999999997;79;0.7578125;violin
42.12117;0.3030299999999997;83;0.7578125;violin
42.4242;1.0606050000000025;84;0.7578125;violin
43.63632;0.03630046875000659;84;0.7578125;violin
43.672620468750004;0.03630046874999948;83;0.7578125;violin
43.71049921875;0.03630046874999948;84;0.7578125;violin
43.7467996875;0.03630046874999948;83;0.7578125;violin
43.7846784375;0.03630046874999948;84;0.7578125;violin
43.8225571875;0.03630046874999948;83;0.7578125;violin
43.85885765625;0.03630046874999948;84;0.7578125;violin
43.89673640625;0.03630046874999948;83;0.7578125;violin
43.934615156250004;0.03630046874999948;84;0.7578125;violin
43.970915625;0.03630046874999948;83;0.7578125;violin
44.008794375;0.03630046874999948;84;0.7578125;violin
44.04509484375;0.03630046874999948;83;0.7578125;violin
44.08297359375;0.03630046875000659;84;0.7578125;violin
44.12085234375;0.03630046874999948;83;0.7578125;violin
44.1571528125;0.03630046874999948;84;0.7578125;violin
44.1950315625;0.03630046874999948;83;0.7578125;violin
44.2329103125;0.03630046874999948;84;0.7578125;violin
44.26921078125;0.03630046874999948;83;0.7578125;violin
44.30708953125;0.03630046874999948;84;0.7578125;violin
44.34339;0.03630046874999948;83;0.7578125;violin
44.381268750000004;0.03630046874999948;84;0.7578125;violin
44.4191475;0.03630046874999948;83;0.7578125;violin
44.45544796875;0.03630046874999948;84;0.7578125;violin
44.49332671875;0.03630046875000659;83;0.7578125;violin
44.53120546875;0.03630046874999948;84;0.7578125;violin
44.5675059375;0.03630046874999948;83;0.7578125;violin
44.6053846875;0.03630046874999948;84;0.7578125;violin
44.64168515625;0.03630046874999948;83;0.7578125;violin
44.67956390625;0.03630046874999948;84;0.7578125;violin
44.71744265625;0.03630046874999948;83;0.7578125;violin
44.753743125;0.03630046874999948;84;0.7578125;violin
44.791621875000004;0.03630046874999948;83;0.7578125;violin
44.829500625;0.03630046874999948;84;0.7578125;violin
44.86580109375;0.03630046874999948;83;0.7578125;violin
44.90367984375;0.03630046874999948;84;0.7578125;violin
44.9399803125;0.03630046875000659;83;0.7578125;violin
44.9778590625;0.03630046874999948;84;0.7578125;violin
45.0157378125;0.03630046874999948;83;0.7578125;violin
45.05203828125;0.03630046874999948;84;0.7578125;violin
45.08991703125;0.03630046874999948;83;0.7578125;violin
45.12779578125;0.03630046874999948;84;0.7578125;violin
45.16409625;0.03630046874999948;83;0.7578125;violin
45.201975000000004;0.03630046874999948;84;0.7578125;violin
45.238275468750004;0.03630046874999948;83;0.7578125;violin
45.27615421875;0.03630046874999948;84;0.7578125;violin
45.31403296875;0.03630046874999948;83;0.7578125;violin
45.3503334375;0.03630046875000659;84;0.7578125;violin
45.3882121875;0.03630046874999948;83;0.7578125;violin
45.4260909375;0.03630046874999948;84;0.7578125;violin
45.46239140625;0.03630046874999948;83;0.7578125;violin
45.500270156250004;0.03630046874999948;84;0.7578125;violin
45.536570625;0.03630046874999948;83;0.7578125;violin
45.574449375;0.03630046874999948;84;0.7578125;violin
45.612328125;0.03630046875000659;83;0.7578125;violin
45.648628593750004;0.03630046874999948;84;0.7578125;violin
45.68650734375;0.03630046874999948;83;0.7578125;violin
45.72438609375;0.03630046874999948;84;0.7578125;violin
45.7606865625;0.03630046874999948;83;0.7578125;violin
45.7985653125;0.03630046874999948;84;0.7578125;violin
45.83486578125;0.03630046874999948;83;0.7578125;violin
45.87274453125;0.03630046874999948;84;0.7578125;violin
45.910623281250004;0.03630046874999948;83;0.7578125;violin
45.94692375;0.03630046874999948;84;0.7578125;violin
45.9848025;0.03630046874999948;83;0.7578125;violin
46.02268125;0.0189393750000022;81;0.7578125;violin
46.041620625;0.0189393750000022;83;0.7578125;violin
46.06056;0.3030299999999997;84;0.7578125;violin
46.36359;0.3030299999999997;81;0.7578125;violin
46.66662;0.3030299999999997;76;0.7578125;violin
46.96965;0.3030299999999997;72;0.7578125;violin
47.27268;1.0606050000000025;69;0.7578125;violin
48.4848;0.03630046874999948;67;0.7578125;violin
48.52110046875;0.03630046874999948;66;0.7578125;violin
48.558979218750004;0.03630046874999948;67;0.7578125;violin
48.5952796875;0.03630046874999948;66;0.7578125;violin
48.6331584375;0.03630046874999948;67;0.7578125;violin
48.6710371875;0.03630046875000659;66;0.7578125;violin
48.707337656250004;0.03630046874999948;67;0.7578125;violin
48.74521640625;0.03630046874999948;66;0.7578125;violin
48.78309515625;0.03630046874999948;67;0.7578125;violin
48.819395625;0.03630046874999948;66;0.7578125;violin
48.857274375;0.03630046874999948;67;0.7578125;violin
48.89357484375;0.03630046874999948;66;0.7578125;violin
48.93145359375;0.03630046874999948;67;0.7578125;violin
48.969332343750004;0.03630046874999948;66;0.7578125;violin
49.005632812500004;0.03630046874999948;67;0.7578125;violin
49.0435115625;0.03630046874999948;66;0.7578125;violin
49.0813903125;0.03630046875000659;67;0.7578125;violin
49.117690781250005;0.03630046874999948;66;0.7578125;violin
49.15556953125;0.03630046874999948;67;0.7578125;violin
49.19187;0.03630046874999948;66;0.7578125;violin
49.22974875;0.03630046874999948;67;0.7578125;violin
49.2676275;0.03630046874999948;66;0.7578125;violin
49.30392796875;0.03630046874999948;67;0.7578125;violin
49.34180671875;0.03630046874999948;66;0.7578125;violin
49.379685468750004;0.03630046874999948;67;0.7578125;violin
49.415985937500004;0.03630046874999948;66;0.7578125;violin
49.4538646875;0.03630046874999948;67;0.7578125;violin
49.49016515625;0.03630046874999948;66;0.7578125;violin
49.52804390625;0.03630046875000659;67;0.7578125;violin
49.56592265625;0.03630046874999948;66;0.7578125;violin
49.602223125;0.03630046874999948;67;0.7578125;violin
49.640101875;0.03630046874999948;66;0.7578125;violin
49.677980625000004;0.03630046874999948;67;0.7578125;violin
49.71428109375;0.03630046874999948;66;0.7578125;violin
49.75215984375;0.03630046874999948;67;0.7578125;violin
49.7884603125;0.03630046874999948;66;0.7578125;violin
49.826339062500004;0.03630046874999948;67;0.7578125;violin
49.8642178125;0.03630046874999948;66;0.7578125;violin
49.90051828125;0.03630046874999948;67;0.7578125;violin
49.93839703125;0.03630046874999948;66;0.7578125;violin
49.97627578125;0.03630046874999948;67;0.7578125;violin
50.01257625;0.03630046874999948;66;0.7578125;violin
50.050455;0.03630046874999948;67;0.7578125;violin
50.08675546875;0.03630046874999948;66;0.7578125;violin
50.12463421875;0.03630046874999948;67;0.7578125;violin
50.16251296875;0.03630046874999948;66;0.7578125;violin
50.1988134375;0.03630046874999948;67;0.7578125;violin
50.236692187500005;0.03630046874999948;66;0.7578125;violin
50.2745709375;0.03630046874999948;67;0.7578125;violin
50.31087140625;0.03630046874999948;66;0.7578125;violin
50.34875015625;0.03630046874999948;67;0.7578125;violin
50.385050625;0.03630046875000659;66;0.7578125;violin
50.422929375;0.03630046874999948;67;0.7578125;violin
50.460808125;0.03630046874999948;66;0.7578125;violin
50.49710859375;0.03630046874999948;67;0.7578125;violin
50.534987343750004;0.03630046874999948;66;0.7578125;violin
50.57286609375;0.03630046874999948;67;0.7578125;violin
50.6091665625;0.03630046874999948;66;0.7578125;violin
50.6470453125;0.03630046875000659;67;0.7578125;violin
50.683345781250004;0.03630046874999948;66;0.7578125;violin
50.72122453125;0.03630046874999948;67;0.7578125;violin
50.75910328125;0.03630046874999948;66;0.7578125;violin
50.79540375;0.03630046874999948;67;0.7578125;violin
50.8332825;0.03630046874999948;66;0.7578125;violin
50.87116125;0.0189393750000022;64;0.7578125;violin
50.890100625;0.0189393750000022;66;0.7578125;violin
50.909040000000005;0.3030299999999997;67;0.7578125;violin
51.212070000000004;0.3030299999999997;71;0.7578125;violin
51.515100000000004;0.3030299999999997;74;0.7578125;violin
51.818130000000004;0.3030299999999997;79;0.7578125;violin
52.12116;0.3030299999999997;83;0.7578125;violin
52.42419;0.3030299999999997;81;0.7578125;violin
52.72722;0.3030299999999997;79;0.7578125;violin
53.03025;0.2651512500000024;78;0.7578125;violin
53.33328;0.3030299999999997;81;0.7578125;violin
53.63631;0.3030299999999997;79;0.7578125;violin
53.93934;0.3030299999999997;77;0.7578125;violin
54.24237;0.3030299999999997;76;0.7578125;violin
54.5454;0.3030299999999997;79;0.7578125;violin
54.84843;0.3030299999999997;77;0.7578125;violin
55.15146;0.3030299999999997;76;0.7578125;violin
55.45449;0.2651512500000024;74;0.7578125;violin
55.75752;0.3030299999999997;72;0.7578125;violin
56.06055;0.3030299999999997;71;0.7578125;violin
56.36358;0.3030299999999997;69;0.7578125;violin
56.66661;0.3030299999999997;67;0.7578125;violin
56.96964;0.3030299999999997;66;0.7578125;violin
57.27267;0.3030300000000068;67;0.7578125;violin
57.575700000000005;0.3030299999999997;69;0.7578125;violin
57.878730000000004;0.2651512499999953;71;0.7578125;violin
58.181760000000004;0.03630046874999948;74;0.7578125;violin
58.218060468750004;0.03630046874999948;72;0.7578125;violin
58.25593921875;0.03630046874999948;74;0.7578125;violin
58.2922396875;0.03630046874999948;72;0.7578125;violin
58.330118437500005;0.03630046874999948;74;0.7578125;violin
58.3679971875;0.03630046874999948;72;0.7578125;violin
58.40429765625;0.03630046874999948;74;0.7578125;violin
58.44217640625;0.03630046874999948;72;0.7578125;violin
58.48005515625;0.03630046874999948;74;0.7578125;violin
58.516355625;0.03630046874999948;72;0.7578125;violin
58.554234375;0.03630046874999948;74;0.7578125;violin
58.59053484375;0.03630046874999948;72;0.7578125;violin
58.628413593750004;0.03630046874999948;74;0.7578125;violin
58.66629234375;0.03630046874999948;72;0.7578125;violin
58.7025928125;0.03630046874999948;74;0.7578125;violin
58.7404715625;0.03630046875000659;72;0.7578125;violin
58.7783503125;0.03630046874999948;74;0.7578125;violin
58.81465078125;0.03630046874999948;72;0.7578125;violin
58.85252953125;0.03630046874999948;74;0.7578125;violin
58.88883;0.03630046874999948;72;0.7578125;violin
58.92670875;0.03630046874999948;74;0.7578125;violin
58.9645875;0.03630046874999948;72;0.7578125;violin
59.00088796875;0.03630046874999948;74;0.7578125;violin
59.038766718750004;0.03630046874999948;72;0.7578125;violin
59.07664546875;0.03630046874999948;74;0.7578125;violin
59.1129459375;0.03630046874999948;72;0.7578125;violin
59.1508246875;0.03630046875000659;74;0.7578125;violin
59.187125156250005;0.03630046874999948;72;0.7578125;violin
59.22500390625;0.03630046874999948;74;0.7578125;violin
59.26288265625;0.03630046874999948;72;0.7578125;violin
59.299183125;0.03630046874999948;74;0.7578125;violin
59.337061875;0.03630046874999948;72;0.7578125;violin
59.374940625;0.03630046874999948;74;0.7578125;violin
59.41124109375;0.03630046874999948;72;0.7578125;violin
59.449119843750005;0.03630046874999948;74;0.7578125;violin
59.485420312500004;0.03630046874999948;72;0.7578125;violin
59.5232990625;0.03630046874999948;74;0.7578125;violin
59.5611778125;0.03630046874999948;72;0.7578125;violin
59.59747828125;0.03630046875000659;74;0.7578125;violin
59.63535703125;0.03630046874999948;72;0.7578125;violin
59.67323578125;0.03630046874999948;74;0.7578125;violin
59.70953625;0.03630046874999948;72;0.7578125;violin
59.747415000000004;0.03630046874999948;74;0.7578125;violin
59.78371546875;0.03630046874999948;72;0.7578125;violin
59.82159421875;0.03630046874999948;74;0.7578125;violin
59.859472968750005;0.03630046874999948;72;0.7578125;violin
59.895773437500004;0.03630046874999948;74;0.7578125;violin
59.9336521875;0.03630046874999948;72;0.7578125;violin
59.9715309375;0.03630046874999948;74;0.7578125;violin
60.00783140625;0.03630046875000659;72;0.7578125;violin
60.04571015625;0.03630046874999948;74;0.7578125;violin
60.082010625;0.03630046874999948;72;0.7578125;violin
60.119889375;0.03630046874999948;74;0.7578125;violin
60.157768125000004;0.03630046874999948;72;0.7578125;violin
60.19406859375;0.03630046874999948;74;0.7578125;violin
60.23194734375;0.03630046874999948;72;0.7578125;violin
60.26982609375;0.03630046875000659;74;0.7578125;violin
60.306126562500005;0.03630046874999948;72;0.7578125;violin
60.3440053125;0.03630046874999948;74;0.7578125;violin
60.38030578125;0.03630046874999948;72;0.7578125;violin
60.41818453125;0.03630046874999948;74;0.7578125;violin
60.45606328125;0.03630046874999948;72;0.7578125;violin
60.49236375;0.03630046874999948;74;0.7578125;violin
60.5302425;0.03630046874999948;72;0.7578125;violin
60.568121250000004;0.018939374999995096;71;0.7578125;violin
60.587060625;0.0189393750000022;72;0.7578125;violin
60.606;0.1515150000000034;74;0.7578125;violin
61.142615625000005;0.033143906249996746;74;0.7578125;violin
61.1773378125;0.03314390625000385;76;0.7578125;violin
61.21206;0.3030299999999997;74;0.7578125;violin
61.51509;0.2651512500000024;71;0.7578125;violin
61.81812;1.0606050000000025;67;0.7578125;violin
63.03024;0.03630046874999948;81;0.7578125;violin
63.06654046875;0.03630046874999948;79;0.7578125;violin
63.10441921875;0.03630046874999948;81;0.7578125;violin
63.1407196875;0.03630046874999948;79;0.7578125;violin
63.1785984375;0.03630046874999948;81;0.7578125;violin
63.216477187500004;0.03630046874999948;79;0.7578125;violin
63.252777656250004;0.03630046874999948;81;0.7578125;violin
63.29065640625;0.03630046874999948;79;0.7578125;violin
63.32853515625;0.03630046875000659;81;0.7578125;violin
63.364835625000005;0.03630046874999948;79;0.7578125;violin
63.402714375;0.03630046874999948;81;0.7578125;violin
63.43901484375;0.03630046874999948;79;0.7578125;violin
63.47689359375;0.03630046874999948;81;0.7578125;violin
63.51477234375;0.03630046874999948;79;0.7578125;violin
63.5510728125;0.03630046874999948;81;0.7578125;violin
63.5889515625;0.03630046874999948;79;0.7578125;violin
63.626830312500005;0.03630046874999948;81;0.7578125;violin
63.663130781250004;0.03630046874999948;79;0.7578125;violin
63.70100953125;0.03630046874999948;81;0.7578125;violin
63.73731;0.03630046874999948;79;0.7578125;violin
63.77518875;0.03630046875000659;81;0.7578125;violin
63.8130675;0.03630046874999948;79;0.7578125;violin
63.84936796875;0.03630046874999948;81;0.7578125;violin
63.88724671875;0.03630046874999948;79;0.7578125;violin
63.925125468750004;0.03630046874999948;81;0.7578125;violin
63.9614259375;0.03630046874999948;79;0.7578125;violin
63.9993046875;0.03630046874999948;81;0.7578125;violin
64.03560515625;0.03630046874999948;79;0.7578125;violin
64.07348390625;0.03630046874999948;81;0.7578125;violin
64.11136265625;0.03630046875001369;79;0.7578125;violin
64.14766312500001;0.03630046874999948;81;0.7578125;violin
64.185541875;0.03630046874999948;79;0.7578125;violin
64.223420625;0.03630046874999948;81;0.7578125;violin
64.25972109375;0.03630046874999948;79;0.7578125;violin
64.29759984375;0.03630046874999948;81;0.7578125;violin
64.3339003125;0.03630046874999948;79;0.7578125;violin
64.3717790625;0.03630046874999948;81;0.7578125;violin
64.4096578125;0.03630046874999948;79;0.7578125;violin
64.44595828125;0.03630046874999948;81;0.7578125;violin
64.48383703125;0.03630046874999948;79;0.7578125;violin
64.52171578125;0.03630046875001369;81;0.7578125;violin
64.55801625000001;0.03630046874999948;79;0.7578125;violin
64.595895;0.03630046874999948;81;0.7578125;violin
64.63219546875;0.03630046874999948;79;0.7578125;violin
64.67007421875;0.03630046874999948;81;0.7578125;violin
64.70795296875;0.03630046874999948;79;0.7578125;violin
64.7442534375;0.03630046874999948;81;0.7578125;violin
64.7821321875;0.03630046874999948;79;0.7578125;violin
64.8200109375;0.03630046874999948;81;0.7578125;violin
64.85631140625;0.03630046874999948;79;0.7578125;violin
64.89419015625;0.03630046874999948;81;0.7578125;violin
64.930490625;0.03630046874999948;79;0.7578125;violin
64.968369375;0.03630046875001369;81;0.7578125;violin
65.006248125;0.03630046874999948;79;0.7578125;violin
65.04254859375;0.03630046874999948;81;0.7578125;violin
65.08042734375;0.03630046874999948;79;0.7578125;violin
65.11830609375001;0.03630046874999948;81;0.7578125;violin
65.1546065625;0.03630046874999948;79;0.7578125;violin
65.1924853125;0.03630046874999948;81;0.7578125;violin
65.22878578125;0.03630046874999948;79;0.7578125;violin
65.26666453125;0.03630046874999948;81;0.7578125;violin
65.30454328125;0.03630046874999948;79;0.7578125;violin
65.34084375;0.03630046874999948;81;0.7578125;violin
65.3787225;0.03630046875001369;79;0.7578125;violin
65.41660125;0.0189393750000022;78;0.7578125;violin
65.435540625;0.0189393750000022;79;0.7578125;violin
65.45448;0.1515150000000034;81;0.7578125;violin
65.991095625;0.03314390625000385;79;0.7578125;violin
66.02581781250001;0.03314390624998964;81;0.7578125;violin
66.06054;0.3030299999999926;79;0.7578125;violin
66.36357;0.3030300000000068;76;0.7578125;violin
66.6666;1.2121199999999988;84;0.7578125;violin
67.87872;0.03630046874999948;84;0.7578125;violin
67.91502046875;0.03630046874999948;83;0.7578125;violin
67.95289921875;0.03630046874999948;84;0.7578125;violin
67.9891996875;0.03630046874999948;83;0.7578125;violin
68.0270784375;0.03630046875001369;84;0.7578125;violin
68.0649571875;0.03630046874999948;83;0.7578125;violin
68.10125765625;0.03630046874999948;84;0.7578125;violin
68.13913640625;0.03630046874999948;83;0.7578125;violin
68.17701515625001;0.03630046874999948;84;0.7578125;violin
68.213315625;0.03630046874999948;83;0.7578125;violin
68.251194375;0.03630046874999948;84;0.7578125;violin
68.28749484375;0.03630046874999948;83;0.7578125;violin
68.32537359375;0.03630046874999948;84;0.7578125;violin
68.36325234375;0.03630046874999948;83;0.7578125;violin
68.3995528125;0.03630046874999948;84;0.7578125;violin
68.4374315625;0.03630046874999948;83;0.7578125;violin
68.4753103125;0.03630046874999948;84;0.7578125;violin
68.51161078125;0.03630046874999948;83;0.7578125;violin
68.54948953125;0.03630046874999948;84;0.7578125;violin
68.58579;0.03630046874999948;83;0.7578125;violin
68.62366875000001;0.03630046874999948;84;0.7578125;violin
68.6615475;0.03630046874999948;83;0.7578125;violin
68.69784796875;0.03630046874999948;84;0.7578125;violin
68.73572671875;0.03630046874999948;83;0.7578125;violin
68.77360546875;0.03630046874999948;84;0.7578125;violin
68.8099059375;0.03630046874999948;83;0.7578125;violin
68.8477846875;0.03630046874999948;84;0.7578125;violin
68.88408515625;0.03630046875001369;83;0.7578125;violin
68.92196390625;0.03630046874999948;84;0.7578125;violin
68.95984265625;0.03630046874999948;83;0.7578125;violin
68.996143125;0.03630046874999948;84;0.7578125;violin
69.03402187500001;0.03630046874999948;83;0.7578125;violin
69.071900625;0.03630046874999948;84;0.7578125;violin
69.10820109375;0.03630046874999948;83;0.7578125;violin
69.14607984375;0.03630046874999948;84;0.7578125;violin
69.1823803125;0.03630046874999948;83;0.7578125;violin
69.2202590625;0.03630046874999948;84;0.7578125;violin
69.2581378125;0.03630046874999948;83;0.7578125;violin
69.29443828125;0.03630046874999948;84;0.7578125;violin
69.33231703125;0.03630046874999948;83;0.7578125;violin
69.37019578125;0.03630046874999948;84;0.7578125;violin
69.40649625;0.03630046874999948;83;0.7578125;violin
69.44437500000001;0.03630046874999948;84;0.7578125;violin
69.48067546875001;0.03630046874999948;83;0.7578125;violin
69.51855421875;0.03630046874999948;84;0.7578125;violin
69.55643296875;0.03630046874999948;83;0.7578125;violin
69.5927334375;0.03630046874999948;84;0.7578125;violin
69.6306121875;0.03630046874999948;83;0.7578125;violin
69.6684909375;0.03630046874999948;84;0.7578125;violin
69.70479140625;0.03630046874999948;83;0.7578125;violin
69.74267015625;0.03630046874999948;84;0.7578125;violin
69.778970625;0.03630046874999948;83;0.7578125;violin
69.816849375;0.03630046874999948;84;0.7578125;violin
69.85472812500001;0.03630046874999948;83;0.7578125;violin
69.89102859375001;0.03630046874999948;84;0.7578125;violin
69.92890734375;0.03630046874999948;83;0.7578125;violin
69.96678609375;0.03630046874999948;84;0.7578125;violin
70.0030865625;0.03630046874999948;83;0.7578125;violin
70.0409653125;0.03630046874999948;84;0.7578125;violin
70.07726578125;0.03630046874999948;83;0.7578125;violin
70.11514453125;0.03630046874999948;84;0.7578125;violin
70.15302328125;0.03630046874999948;83;0.7578125;violin
70.18932375;0.03630046874999948;84;0.7578125;violin
70.2272025;0.03630046874999948;83;0.7578125;violin
70.26508125000001;0.01893937499998799;81;0.7578125;violin
70.284020625;0.0189393750000022;83;0.7578125;violin
70.30296;0.6060599999999994;86;0.7578125;violin
70.90902;0.5366156250000103;84;0.7578125;violin
71.44563562500001;0.03314390624998964;83;0.7578125;violin
71.4803578125;0.03314390625000385;84;0.7578125;violin
71.51508;0.6060599999999994;83;0.7578125;violin
72.12114;0.5303025000000048;81;0.7578125;violin
72.7272;0.6060599999999994;79;0.7578125;violin
73.33326;0.5303025000000048;77;0.7578125;violin
73.869875625;0.03314390624998964;77;0.7578125;violin
73.9045978125;0.03314390625000385;79;0.7578125;violin
73.93932;0.6060600000000136;77;0.7578125;violin
74.54538000000001;0.5303024999999906;76;0.7578125;violin
75.15144000000001;0.6060599999999994;74;0.7578125;violin
75.75750000000001;0.454544999999996;77;0.7578125;violin
76.212045;0.1515150000000034;71;0.7578125;violin
76.36356;0.03630046874999948;72;0.7578125;violin
76.39986046875;0.03630046874999948;71;0.7578125;violin
76.4361609375;0.03630046874999948;72;0.7578125;violin
76.47246140625;0.03630046874999948;71;0.7578125;violin
76.51034015625;0.03630046874999948;72;0.7578125;violin
76.546640625;0.03630046875001369;71;0.7578125;violin
76.58294109375001;0.03630046874999948;72;0.7578125;violin
76.61924156250001;0.03630046874999948;71;0.7578125;violin
76.6571203125;0.03630046874999948;72;0.7578125;violin
76.69342078125;0.03630046874999948;71;0.7578125;violin
76.72972125;0.03630046874999948;72;0.7578125;violin
76.76602171875;0.03630046874999948;71;0.7578125;violin
76.80390046875;0.03630046874999948;72;0.7578125;violin
76.8402009375;0.03630046874999948;71;0.7578125;violin
76.87650140625;0.03630046874999948;72;0.7578125;violin
76.912801875;0.03630046874999948;71;0.7578125;violin
76.950680625;0.03630046874999948;72;0.7578125;violin
76.98698109375;0.03630046874999948;71;0.7578125;violin
77.0232815625;0.03630046874999948;72;0.7578125;violin
77.05958203125;0.03630046874999948;71;0.7578125;violin
77.09746078125;0.03630046874999948;72;0.7578125;violin
77.13376125;0.03630046874999948;71;0.7578125;violin
77.17006171875;0.03630046874999948;72;0.7578125;violin
77.2063621875;0.03630046874999948;71;0.7578125;violin
77.2442409375;0.03630046874999948;72;0.7578125;violin
77.28054140625;0.03630046875001369;71;0.7578125;violin
77.31684187500001;0.03630046874999948;72;0.7578125;violin
77.35314234375001;0.03630046874999948;71;0.7578125;violin
77.39102109375;0.03630046874999948;72;0.7578125;violin
77.4273215625;0.03630046874999948;71;0.7578125;violin
77.46362203125;0.03630046874999948;72;0.7578125;violin
77.4999225;0.03630046874999948;71;0.7578125;violin
77.53780125;0.0189393750000022;69;0.7578125;violin
77.556740625;0.0189393750000022;71;0.7578125;violin
77.57568;0.03630046874999948;74;0.7578125;violin
77.61198046875;0.03630046874999948;72;0.7578125;violin
77.64985921875;0.03630046875001369;74;0.7578125;violin
77.68615968750001;0.03630046874999948;72;0.7578125;violin
77.7240384375;0.03630046874999948;74;0.7578125;violin
77.7619171875;0.03630046874999948;72;0.7578125;violin
77.79821765625;0.03630046874999948;74;0.7578125;violin
77.83609640625001;0.03630046874999948;72;0.7578125;violin
77.87397515625;0.03630046874999948;74;0.7578125;violin
77.910275625;0.03630046874999948;72;0.7578125;violin
77.948154375;0.03630046874999948;74;0.7578125;violin
77.98445484375;0.03630046874999948;72;0.7578125;violin
78.02233359375;0.03630046874999948;74;0.7578125;violin
78.06021234375;0.03630046874999948;72;0.7578125;violin
78.0965128125;0.03630046875001369;74;0.7578125;violin
78.1343915625;0.03630046874999948;72;0.7578125;violin
78.1722703125;0.03630046874999948;74;0.7578125;violin
78.20857078125;0.03630046874999948;72;0.7578125;violin
78.24644953125001;0.03630046874999948;74;0.7578125;violin
78.28275000000001;0.03630046874999948;72;0.7578125;violin
78.32062875;0.03630046874999948;74;0.7578125;violin
78.3585075;0.03630046874999948;72;0.7578125;violin
78.39480796875;0.03630046874999948;74;0.7578125;violin
78.43268671875;0.03630046874999948;72;0.7578125;violin
78.47056546875;0.03630046874999948;74;0.7578125;violin
78.5068659375;0.03630046875001369;72;0.7578125;violin
78.5447446875;0.03630046874999948;74;0.7578125;violin
78.58104515625;0.03630046874999948;72;0.7578125;violin
78.61892390625;0.03630046874999948;74;0.7578125;violin
78.65680265625001;0.03630046874999948;72;0.7578125;violin
78.69310312500001;0.03630046874999948;74;0.7578125;violin
78.730981875;0.03630046874999948;72;0.7578125;violin
78.768860625;0.03630046874999948;74;0.7578125;violin
78.80516109375;0.03630046874999948;72;0.7578125;violin
78.84303984375;0.03630046874999948;74;0.7578125;violin
78.8793403125;0.03630046874999948;72;0.7578125;violin
78.9172190625;0.03630046874999948;74;0.7578125;violin
78.9550978125;0.03630046874999948;72;0.7578125;violin
78.99139828125;0.03630046874999948;74;0.7578125;violin
79.02927703125;0.03630046874999948;72;0.7578125;violin
79.06715578125001;0.03630046874999948;74;0.7578125;violin
79.10345625000001;0.03630046874999948;72;0.7578125;violin
79.141335;0.03630046874999948;74;0.7578125;violin
79.17763546875;0.03630046874999948;72;0.7578125;violin
79.21551421875;0.03630046874999948;74;0.7578125;violin
79.25339296875;0.03630046874999948;72;0.7578125;violin
79.2896934375;0.03630046874999948;74;0.7578125;violin
79.3275721875;0.03630046874999948;72;0.7578125;violin
79.3654509375;0.03630046874999948;74;0.7578125;violin
79.40175140625;0.03630046874999948;72;0.7578125;violin
79.43963015625;0.03630046874999948;74;0.7578125;violin
79.475930625;0.03630046874999948;72;0.7578125;violin
79.51380937500001;0.03630046874999948;74;0.7578125;violin
79.551688125;0.03630046874999948;72;0.7578125;violin
79.58798859375;0.03630046874999948;74;0.7578125;violin
79.62586734375;0.03630046874999948;72;0.7578125;violin
79.66374609375;0.03630046874999948;74;0.7578125;violin
79.7000465625;0.03630046874999948;72;0.7578125;violin
79.7379253125;0.03630046874999948;74;0.7578125;violin
79.77422578125;0.03630046874999948;72;0.7578125;violin
79.81210453125;0.03630046874999948;74;0.7578125;violin
79.84998328125;0.03630046874999948;72;0.7578125;violin
79.88628375;0.03630046874999948;74;0.7578125;violin
79.92416250000001;0.03630046874999948;72;0.7578125;violin
79.96204125;0.0189393750000022;71;0.7578125;violin
79.980980625;0.0189393750000022;72;0.7578125;violin
79.99992;0.3030299999999926;74;0.7578125;violin
80.30295;0.3030300000000068;76;0.7578125;violin
80.60598;0.3030299999999926;74;0.7578125;violin
80.90901;0.3030300000000068;71;0.7578125;violin
81.21204;1.0606049999999954;67;0.7578125;violin
82.42416;0.03630046874999948;81;0.7578125;violin
82.46046046875;0.03630046874999948;79;0.7578125;violin
82.49833921875;0.03630046874999948;81;0.7578125;violin
82.5346396875;0.03630046874999948;79;0.7578125;violin
82.57251843750001;0.03630046874999948;81;0.7578125;violin
82.6103971875;0.03630046874999948;79;0.7578125;violin
82.64669765625;0.03630046874999948;81;0.7578125;violin
82.68457640625;0.03630046874999948;79;0.7578125;violin
82.72245515625;0.03630046874999948;81;0.7578125;violin
82.758755625;0.03630046874999948;79;0.7578125;violin
82.796634375;0.03630046874999948;81;0.7578125;violin
82.83293484375;0.03630046874999948;79;0.7578125;violin
82.87081359375;0.03630046874999948;81;0.7578125;violin
82.90869234375;0.03630046874999948;79;0.7578125;violin
82.9449928125;0.03630046874999948;81;0.7578125;violin
82.98287156250001;0.03630046874999948;79;0.7578125;violin
83.0207503125;0.03630046874999948;81;0.7578125;violin
83.05705078125;0.03630046874999948;79;0.7578125;violin
83.09492953125;0.03630046874999948;81;0.7578125;violin
83.13123;0.03630046874999948;79;0.7578125;violin
83.16910875;0.03630046874999948;81;0.7578125;violin
83.2069875;0.03630046874999948;79;0.7578125;violin
83.24328796875;0.03630046874999948;81;0.7578125;violin
83.28116671875;0.03630046874999948;79;0.7578125;violin
83.31904546875;0.03630046874999948;81;0.7578125;violin
83.3553459375;0.03630046874999948;79;0.7578125;violin
83.39322468750001;0.03630046874999948;81;0.7578125;violin
83.42952515625001;0.03630046874999948;79;0.7578125;violin
83.46740390625;0.03630046874999948;81;0.7578125;violin
83.50528265625;0.03630046874999948;79;0.7578125;violin
83.541583125;0.03630046874999948;81;0.7578125;violin
83.579461875;0.03630046874999948;79;0.7578125;violin
83.617340625;0.03630046874999948;81;0.7578125;violin
83.65364109375;0.03630046874999948;79;0.7578125;violin
83.69151984375;0.03630046874999948;81;0.7578125;violin
83.7278203125;0.03630046874999948;79;0.7578125;violin
83.7656990625;0.03630046874999948;81;0.7578125;violin
83.8035778125;0.03630046875001369;79;0.7578125;violin
83.83987828125001;0.03630046874999948;81;0.7578125;violin
83.87775703125;0.03630046874999948;79;0.7578125;violin
83.91563578125;0.03630046874999948;81;0.7578125;violin
83.95193625;0.03630046874999948;79;0.7578125;violin
83.98981500000001;0.03630046874999948;81;0.7578125;violin
84.02611546875;0.03630046874999948;79;0.7578125;violin
84.06399421875;0.03630046874999948;81;0.7578125;violin
84.10187296875;0.03630046874999948;79;0.7578125;violin
84.1381734375;0.03630046874999948;81;0.7578125;violin
84.1760521875;0.03630046874999948;79;0.7578125;violin
84.2139309375;0.03630046875001369;81;0.7578125;violin
84.25023140625001;0.03630046874999948;79;0.7578125;violin
84.28811015625;0.03630046874999948;81;0.7578125;violin
84.324410625;0.03630046874999948;79;0.7578125;violin
84.362289375;0.03630046874999948;81;0.7578125;violin
84.40016812500001;0.03630046874999948;79;0.7578125;violin
84.43646859375;0.03630046874999948;81;0.7578125;violin
84.47434734375;0.03630046874999948;79;0.7578125;violin
84.51222609375;0.03630046874999948;81;0.7578125;violin
84.5485265625;0.03630046874999948;79;0.7578125;violin
84.5864053125;0.03630046874999948;81;0.7578125;violin
84.62270578125;0.03630046874999948;79;0.7578125;violin
84.66058453125;0.03630046875001369;81;0.7578125;violin
84.69846328125;0.03630046874999948;79;0.7578125;violin
84.73476375;0.03630046874999948;81;0.7578125;violin
84.7726425;0.03630046874999948;79;0.7578125;violin
84.81052125000001;0.01893937499998799;78;0.7578125;violin
84.829460625;0.0189393750000022;79;0.7578125;violin
84.8484;0.3030300000000068;81;0.7578125;violin
85.15143;0.3030299999999926;79;0.7578125;violin
85.45446;0.1515150000000034;81;0.7578125;violin
85.605975;0.1515150000000034;83;0.7578125;violin
85.75749;0.1515150000000034;84;0.7578125;violin
85.90900500000001;0.15151499999998919;86;0.7578125;violin
86.06052;1.0606050000000096;88;0.7578125;violin
87.27264;0.6060600000000136;88;0.7578125;violin
87.87870000000001;0.536615624999996;84;0.7578125;violin
88.415315625;0.03314390625000385;83;0.7578125;violin
88.4500378125;0.03314390625000385;84;0.7578125;violin
88.48476000000001;0.6060599999999994;83;0.7578125;violin
89.09082000000001;0.5303024999999906;81;0.7578125;violin
89.69688000000001;0.536615624999996;79;0.7578125;violin
90.233495625;0.03314390625000385;77;0.7578125;violin
90.2682178125;0.03314390625000385;79;0.7578125;violin
90.30294;1.2121199999999988;77;0.9140625;violin
91.51506;0.6060599999999994;71;0.7578125;violin
92.12112;0.03630046874999948;76;0.7578125;violin
92.15742046875;0.03630046874999948;74;0.7578125;violin
92.19529921875001;0.03630046874999948;76;0.7578125;violin
92.23159968750001;0.03630046874999948;74;0.7578125;violin
92.2694784375;0.03630046874999948;76;0.7578125;violin
92.3073571875;0.03630046874999948;74;0.7578125;violin
92.34365765625;0.03630046874999948;76;0.7578125;violin
92.38153640625;0.03630046874999948;74;0.7578125;violin
92.41941515625;0.03630046874999948;76;0.7578125;violin
92.455715625;0.03630046874999948;74;0.7578125;violin
92.493594375;0.03630046874999948;76;0.7578125;violin
92.52989484375;0.03630046874999948;74;0.7578125;violin
92.56777359375;0.03630046874999948;76;0.7578125;violin
92.60565234375001;0.03630046874999948;74;0.7578125;violin
92.64195281250001;0.03630046874999948;76;0.7578125;violin
92.6798315625;0.03630046874999948;74;0.7578125;violin
92.7177103125;0.03630046874999948;76;0.7578125;violin
92.75401078125;0.03630046874999948;74;0.7578125;violin
92.79188953125;0.03630046874999948;76;0.7578125;violin
92.82819;0.03630046874999948;74;0.7578125;violin
92.86606875;0.03630046874999948;76;0.7578125;violin
92.9039475;0.03630046874999948;74;0.7578125;violin
92.94024796875;0.03630046874999948;76;0.7578125;violin
92.97812671875;0.03630046874999948;74;0.7578125;violin
93.01600546875001;0.03630046874999948;76;0.7578125;violin
93.05230593750001;0.03630046874999948;74;0.7578125;violin
93.0901846875;0.03630046874999948;76;0.7578125;violin
93.12648515625;0.03630046874999948;74;0.7578125;violin
93.16436390625;0.03630046874999948;76;0.7578125;violin
93.20224265625001;0.03630046874999948;74;0.7578125;violin
93.238543125;0.03630046874999948;76;0.7578125;violin
93.276421875;0.03630046874999948;74;0.7578125;violin
93.314300625;0.03630046874999948;76;0.7578125;violin
93.35060109375;0.03630046874999948;74;0.7578125;violin
93.38847984375;0.03630046874999948;76;0.7578125;violin
93.4247803125;0.03630046874999948;74;0.7578125;violin
93.46265906250001;0.03630046874999948;76;0.7578125;violin
93.5005378125;0.03630046874999948;74;0.7578125;violin
93.53683828125;0.03630046874999948;76;0.7578125;violin
93.57471703125;0.03630046874999948;74;0.7578125;violin
93.61259578125001;0.03630046874999948;76;0.7578125;violin
93.64889625;0.03630046874999948;74;0.7578125;violin
93.686775;0.03630046874999948;76;0.7578125;violin
93.72307546875;0.03630046874999948;74;0.7578125;violin
93.76095421875;0.03630046874999948;76;0.7578125;violin
93.79883296875;0.03630046874999948;74;0.7578125;violin
93.8351334375;0.03630046874999948;76;0.7578125;violin
93.87301218750001;0.03630046874999948;74;0.7578125;violin
93.9108909375;0.03630046874999948;76;0.7578125;violin
93.94719140625;0.03630046874999948;74;0.7578125;violin
93.98507015625;0.03630046874999948;76;0.7578125;violin
94.021370625;0.03630046874999948;74;0.7578125;violin
94.05924937500001;0.03630046874999948;76;0.7578125;violin
94.097128125;0.03630046874999948;74;0.7578125;violin
94.13342859375;0.03630046874999948;76;0.7578125;violin
94.17130734375;0.03630046874999948;74;0.7578125;violin
94.20918609375;0.03630046874999948;76;0.7578125;violin
94.2454865625;0.03630046874999948;74;0.7578125;violin
94.2833653125;0.03630046875001369;76;0.7578125;violin
94.31966578125001;0.03630046874999948;74;0.7578125;violin
94.35754453125;0.03630046874999948;76;0.7578125;violin
94.39542328125;0.03630046874999948;74;0.7578125;violin
94.43172375;0.03630046874999948;76;0.7578125;violin
94.46960250000001;0.03630046874999948;74;0.7578125;violin
94.50748125;0.0189393750000022;72;0.7578125;violin
94.526420625;0.0189393750000022;74;0.7578125;violin
94.54536;0.6060599999999994;72;0.7578125;violin
95.15142;0.6060599999999994;67;0.7578125;violin
95.75748;0.6060599999999994;64;0.7578125;violin
96.36354;0.5303025000000048;67;0.7578125;violin
96.9696;0.6060599999999994;76;0.7578125;violin
97.57566;0.5303025000000048;72;0.7578125;violin
98.11227562500001;0.03314390624998964;67;0.7578125;violin
98.1469978125;0.03314390625000385;69;0.7578125;violin
98.18172;0.6060599999999994;67;0.7578125;violin
98.78778;0.5303025000000048;64;0.7578125;violin
99.39384;0.5366156250000103;67;0.7578125;violin
99.93045562500001;0.03314390624998964;65;0.7578125;violin
99.9651778125;0.03314390625000385;67;0.7578125;violin
99.9999;0.5303025000000048;65;0.7578125;violin
100.60596;0.9090900000000062;69;0.7578125;violin
101.51505;0.2651512500000024;59;0.7578125;violin
101.81808000000001;0.03630046874999948;60;0.7578125;violin
101.85438046875001;0.03630046874999948;59;0.7578125;violin
101.89068093750001;0.03630046874999948;60;0.7578125;violin
101.92698140625001;0.03630046874999948;59;0.7578125;violin
101.96486015625;0.03630046874999948;60;0.7578125;violin
102.001160625;0.03630046874999948;59;0.7578125;violin
102.03746109375;0.03630046874999948;60;0.7578125;violin
102.0737615625;0.03630046874999948;59;0.7578125;violin
102.1116403125;0.03630046874999948;60;0.7578125;violin
102.14794078125;0.03630046874999948;59;0.7578125;violin
102.18424125;0.03630046874999948;60;0.7578125;violin
102.22054171875;0.03630046874999948;59;0.7578125;violin
102.25842046875;0.03630046874999948;60;0.7578125;violin
102.2947209375;0.03630046874999948;59;0.7578125;violin
102.33102140625;0.03630046874999948;60;0.7578125;violin
102.367321875;0.03630046874999948;59;0.7578125;violin
102.405200625;0.03630046874999948;60;0.7578125;violin
102.44150109375;0.03630046874999948;59;0.7578125;violin
102.4778015625;0.03630046874999948;60;0.7578125;violin
102.51410203125;0.03630046874999948;59;0.7578125;violin
102.55198078125001;0.03630046874999948;60;0.7578125;violin
102.58828125000001;0.03630046874999948;59;0.7578125;violin
102.62458171875001;0.03630046874999948;60;0.7578125;violin
102.66088218750001;0.03630046874999948;59;0.7578125;violin
102.6987609375;0.03630046874999948;60;0.7578125;violin
102.73506140625;0.03630046874999948;59;0.7578125;violin
102.771361875;0.03630046874999948;60;0.7578125;violin
102.80766234375;0.03630046874999948;59;0.7578125;violin
102.84554109375;0.03630046874999948;60;0.7578125;violin
102.8818415625;0.03630046874999948;59;0.7578125;violin
102.91814203125;0.03630046874999948;60;0.7578125;violin
102.9544425;0.03630046874999948;59;0.7578125;violin
102.99232125;0.0189393750000022;57;0.7578125;violin
103.011260625;0.0189393750000022;59;0.7578125;violin
103.03020000000001;0.6060599999999994;59;0.7578125;violin
103.63626000000001;0.454544999999996;62;0.7578125;violin
104.090805;0.1325756250000012;60;0.7578125;violin
104.24232;0.5303024999999906;60;0.7578125;violin
