start;duration;pitch;velocity;instrument
0.0;0.243902;62;0.7578125;violin
0.243902;0.243902;67;0.7578125;violin
0.487804;0.12195100000000003;79;0.7578125;violin
0.7317060000000001;0.12195100000000003;69;0.7578125;violin
0.975608;0.12195100000000014;79;0.7578125;violin
1.21951;0.12195099999999992;71;0.7578125;violin
1.4634120000000002;0.12195099999999992;79;0.7578125;violin
1.7073140000000002;0.12195099999999992;69;0.7578125;violin
1.951216;0.12195100000000014;79;0.7578125;violin
2.1951180000000003;0.1219509999999997;67;0.7578125;violin
2.43902;0.24390199999999984;79;0.7578125;violin
2.682922;0.21341425000000003;74;0.7578125;violin
2.9268240000000003;0.24390199999999984;71;0.7578125;violin
3.170726;0.21341425000000003;67;0.7578125;violin
3.4146280000000004;0.24390199999999984;65;0.7578125;violin
3.6585300000000003;0.21341425000000003;63;0.7578125;violin
3.902432;0.24390200000000029;62;0.7578125;violin
4.146334;0.18292649999999977;60;0.7578125;violin
4.390236000000001;0.12195100000000014;72;0.7578125;violin
4.634138;0.12195100000000014;62;0.7578125;violin
4.87804;0.12195100000000014;72;0.7578125;violin
5.121942000000001;0.12195100000000014;63;0.7578125;violin
5.365844;0.12195100000000014;72;0.7578125;violin
5.609746;0.12195100000000014;62;0.7578125;violin
5.853648000000001;0.12195100000000014;72;0.7578125;violin
6.097550000000001;0.12195099999999925;60;0.7578125;violin
6.341452;0.24390200000000029;72;0.7578125;violin
6.585354000000001;0.21341424999999958;67;0.7578125;violin
6.829256000000001;0.2439019999999994;63;0.7578125;violin
7.073158;0.21341425000000047;60;0.7578125;violin
7.317060000000001;0.24390200000000029;55;0.7578125;violin
7.560962000000001;0.21341424999999958;60;0.7578125;violin
7.804864;0.24390200000000029;63;0.7578125;violin
8.048766;0.21341424999999958;62;0.7578125;violin
8.292668;0.24390200000000029;62;0.7578125;violin
8.536570000000001;0.24390200000000029;67;0.7578125;violin
8.780472000000001;0.24390200000000029;71;0.7578125;violin
9.024374000000002;0.21341424999999958;74;0.7578125;violin
9.268276;0.24390200000000029;74;0.7578125;violin
9.512178;0.21341424999999958;79;0.7578125;violin
9.75608;0.24390200000000029;83;0.7578125;violin
9.999982000000001;0.21341424999999958;86;0.7578125;violin
10.243884000000001;0.24390200000000029;83;0.7578125;violin
10.487786000000002;0.21341424999999958;86;0.7578125;violin
11.707296000000001;0.24390200000000029;62;0.7578125;violin
11.951198000000002;0.24390200000000029;67;0.7578125;violin
12.195100000000002;0.2439019999999985;79;0.7578125;violin
12.439002;0.21341425000000136;67;0.7578125;violin
12.682904;0.24390200000000029;69;0.7578125;violin
12.926806000000001;0.21341424999999958;71;0.7578125;violin
13.170708000000001;0.24390200000000029;69;0.7578125;violin
13.414610000000001;0.21341424999999958;71;0.7578125;violin
13.658512000000002;0.24390200000000029;67;0.7578125;violin
13.902414000000002;0.2439019999999985;66;0.7578125;violin
14.146316;0.24390200000000029;78;0.7578125;violin
14.390218;0.21341424999999958;66;0.7578125;violin
14.634120000000001;0.24390200000000029;67;0.7578125;violin
14.878022000000001;0.21341424999999958;69;0.7578125;violin
15.121924000000002;0.24390200000000029;67;0.7578125;violin
15.365826000000002;0.21341424999999958;69;0.7578125;violin
15.609728;0.24390200000000029;66;0.7578125;violin
15.85363;0.24390200000000029;64;0.7578125;violin
16.097532;0.24390200000000206;76;0.7578125;violin
16.341434000000003;0.21341424999999958;64;0.7578125;violin
16.585336;0.2439019999999985;66;0.7578125;violin
16.829238;0.21341425000000314;67;0.7578125;violin
17.073140000000002;0.2439019999999985;66;0.7578125;violin
17.317042;0.21341424999999958;67;0.7578125;violin
17.560944000000003;0.2439019999999985;64;0.7578125;violin
17.804846;0.21341424999999958;62;0.7578125;violin
18.048748000000003;0.2439019999999985;74;0.7578125;violin
18.292650000000002;0.21341424999999958;62;0.7578125;violin
18.536552;0.24390200000000206;64;0.7578125;violin
18.780454000000002;0.21341424999999958;66;0.7578125;violin
19.024356;0.24390200000000206;64;0.7578125;violin
19.268258000000003;0.21341424999999958;66;0.7578125;violin
19.51216;0.2439019999999985;62;0.7578125;violin
19.756062;0.24390200000000206;67;0.7578125;violin
19.999964000000002;0.2439019999999985;79;0.7578125;violin
20.243866;0.21341424999999958;67;0.7578125;violin
20.487768000000003;0.2439019999999985;69;0.7578125;violin
20.73167;0.21341424999999958;71;0.7578125;violin
20.975572000000003;0.2439019999999985;69;0.7578125;violin
21.219474;0.21341424999999958;71;0.7578125;violin
21.463376;0.24390200000000206;67;0.7578125;violin
21.707278000000002;0.2439019999999985;66;0.7578125;violin
21.95118;0.24390200000000206;78;0.7578125;violin
22.195082000000003;0.21341424999999958;66;0.7578125;violin
22.438984;0.24390200000000206;67;0.7578125;violin
22.682886000000003;0.21341424999999958;69;0.7578125;violin
22.926788000000002;0.2439019999999985;67;0.7578125;violin
23.17069;0.21341425000000314;69;0.7578125;violin
23.414592000000003;0.2439019999999985;66;0.7578125;violin
23.658494;0.24390200000000206;64;0.7578125;violin
23.902396000000003;0.2439019999999985;76;0.7578125;violin
24.146298;0.21341424999999958;64;0.7578125;violin
24.390200000000004;0.2439019999999985;66;0.7578125;violin
24.634102000000002;0.21341424999999958;67;0.7578125;violin
24.878004;0.24390200000000206;66;0.7578125;violin
25.121906000000003;0.21341424999999958;67;0.7578125;violin
25.365808;0.24390200000000206;64;0.7578125;violin
25.609710000000003;0.21341424999999958;62;0.7578125;violin
25.853612000000002;0.24390200000000206;59;0.7578125;violin
26.097514000000004;0.21341424999999958;55;0.7578125;violin
26.341416000000002;0.2439019999999985;59;0.7578125;violin
26.585318;0.21341425000000314;62;0.7578125;violin
26.829220000000003;0.2439019999999985;67;0.7578125;violin
27.073122;0.21341424999999958;71;0.7578125;violin
27.317024000000004;0.2439019999999985;74;0.7578125;violin
27.560926000000002;0.24390200000000206;72;0.7578125;violin
27.804828000000004;0.2439019999999985;84;0.7578125;violin
28.048730000000003;0.21341424999999958;72;0.7578125;violin
28.292632;0.24390200000000206;74;0.7578125;violin
28.536534000000003;0.21341424999999958;76;0.7578125;violin
28.780436;0.24390200000000206;74;0.7578125;violin
29.024338000000004;0.21341424999999958;76;0.7578125;violin
29.268240000000002;0.24390200000000206;72;0.7578125;violin
29.512142000000004;0.2439019999999985;71;0.7578125;violin
29.756044000000003;0.2439019999999985;83;0.7578125;violin
29.999946;0.21341424999999958;71;0.7578125;violin
30.243848000000003;0.2439019999999985;72;0.7578125;violin
30.487750000000002;0.21341424999999958;74;0.7578125;violin
30.731652000000004;0.2439019999999985;72;0.7578125;violin
30.975554000000002;0.21341424999999958;74;0.7578125;violin
31.219456;0.24390200000000206;71;0.7578125;violin
31.463358000000003;0.21341424999999958;69;0.7578125;violin
31.70726;0.24390200000000206;81;0.7578125;violin
31.951162000000004;0.21341424999999958;69;0.7578125;violin
32.195064;0.2439019999999985;71;0.7578125;violin
32.438966;0.21341424999999958;72;0.7578125;violin
32.682868000000006;0.2439019999999985;71;0.7578125;violin
32.926770000000005;0.21341424999999958;72;0.7578125;violin
33.170672;0.2439019999999985;69;0.7578125;violin
33.414574;0.21341424999999958;74;0.7578125;violin
33.658476;0.24390200000000561;78;0.7578125;violin
33.902378000000006;0.21341424999999958;81;0.7578125;violin
34.146280000000004;0.2439019999999985;78;0.7578125;violin
34.390182;0.21341424999999958;74;0.7578125;violin
34.634084;0.2439019999999985;69;0.7578125;violin
34.877986;0.2134142500000067;66;0.7578125;violin
35.121888000000006;0.2439019999999985;62;0.7578125;violin
35.365790000000004;0.2439019999999985;67;0.7578125;violin
35.609692;0.2439019999999985;79;0.7578125;violin
35.853594;0.21341424999999958;67;0.7578125;violin
36.09749600000001;0.2439019999999985;69;0.7578125;violin
36.341398000000005;0.21341424999999958;71;0.7578125;violin
36.585300000000004;0.2439019999999985;69;0.7578125;violin
36.829202;0.21341424999999958;71;0.7578125;violin
37.073104;0.24390200000000561;67;0.7578125;violin
37.317006000000006;0.2439019999999985;66;0.7578125;violin
37.560908000000005;0.2439019999999985;78;0.7578125;violin
37.80481;0.21341424999999958;66;0.7578125;violin
38.048712;0.2439019999999985;67;0.7578125;violin
38.292614;0.21341424999999958;69;0.7578125;violin
38.536516000000006;0.2439019999999985;67;0.7578125;violin
38.780418000000004;0.21341424999999958;69;0.7578125;violin
39.02432;0.2439019999999985;66;0.7578125;violin
39.268222;0.21341424999999958;64;0.7578125;violin
39.512124;0.24390200000000561;76;0.7578125;violin
39.756026000000006;0.21341424999999958;64;0.7578125;violin
39.999928000000004;0.2439019999999985;66;0.7578125;violin
40.24383;0.21341424999999958;67;0.7578125;violin
40.487732;0.24390200000000561;66;0.7578125;violin
40.73163400000001;0.21341424999999958;67;0.7578125;violin
40.975536000000005;0.2439019999999985;64;0.7578125;violin
41.219438000000004;0.21341424999999958;62;0.7578125;violin
41.46334;0.2439019999999985;74;0.7578125;violin
41.707242;0.21341424999999958;62;0.7578125;violin
41.951144000000006;0.2439019999999985;64;0.7578125;violin
42.195046000000005;0.21341424999999958;66;0.7578125;violin
42.438948;0.2439019999999985;64;0.7578125;violin
42.68285;0.21341424999999958;66;0.7578125;violin
42.926752;0.24390200000000561;62;0.7578125;violin
43.170654000000006;0.2439019999999985;67;0.7578125;violin
43.414556000000005;0.2439019999999985;79;0.7578125;violin
43.658458;0.21341424999999958;67;0.7578125;violin
43.90236;0.24390200000000561;69;0.7578125;violin
44.14626200000001;0.21341424999999958;70;0.7578125;violin
44.390164000000006;0.2439019999999985;69;0.7578125;violin
44.634066000000004;0.21341424999999958;70;0.7578125;violin
44.877968;0.2439019999999985;67;0.7578125;violin
45.12187;0.24390200000000561;66;0.7578125;violin
45.36577200000001;0.2439019999999985;78;0.7578125;violin
45.609674000000005;0.21341424999999958;66;0.7578125;violin
45.853576000000004;0.2439019999999985;67;0.7578125;violin
46.097478;0.21341424999999958;69;0.7578125;violin
46.34138;0.24390200000000561;67;0.7578125;violin
46.58528200000001;0.21341424999999958;69;0.7578125;violin
46.829184000000005;0.2439019999999985;66;0.7578125;violin
47.073086;0.2439019999999985;63;0.7578125;violin
47.316988;0.24390200000000561;75;0.7578125;violin
47.56089000000001;0.21341424999999958;63;0.7578125;violin
47.804792000000006;0.2439019999999985;65;0.7578125;violin
48.048694000000005;0.21341424999999958;67;0.7578125;violin
48.292596;0.2439019999999985;65;0.7578125;violin
48.536498;0.21341424999999958;67;0.7578125;violin
48.78040000000001;0.2439019999999985;63;0.7578125;violin
49.024302000000006;0.21341424999999958;62;0.7578125;violin
49.268204000000004;0.2439019999999985;59;0.7578125;violin
49.512106;0.21341424999999958;55;0.7578125;violin
49.756008;0.24390200000000561;59;0.7578125;violin
49.99991000000001;0.21341424999999958;62;0.7578125;violin
50.243812000000005;0.2439019999999985;67;0.7578125;violin
50.487714000000004;0.21341424999999958;71;0.7578125;violin
50.731616;0.2439019999999985;74;0.7578125;violin
50.975518;0.24390200000000561;72;0.7578125;violin
51.21942000000001;0.2439019999999985;84;0.7578125;violin
51.463322000000005;0.21341424999999958;72;0.7578125;violin
51.707224000000004;0.2439019999999985;74;0.7578125;violin
51.951126;0.21341424999999958;75;0.7578125;violin
52.19502800000001;0.2439019999999985;74;0.7578125;violin
52.438930000000006;0.21341424999999958;75;0.7578125;violin
52.682832000000005;0.2439019999999985;72;0.7578125;violin
52.926734;0.2439019999999985;70;0.7578125;violin
53.170636;0.24390200000000561;82;0.7578125;violin
53.41453800000001;0.21341424999999958;70;0.7578125;violin
53.658440000000006;0.2439019999999985;72;0.7578125;violin
53.902342000000004;0.21341424999999958;74;0.7578125;violin
54.146244;0.2439019999999985;72;0.7578125;violin
54.390146;0.2134142500000067;74;0.7578125;violin
54.63404800000001;0.2439019999999985;70;0.7578125;violin
54.877950000000006;0.21341424999999958;69;0.7578125;violin
55.121852000000004;0.2439019999999985;81;0.7578125;violin
55.365754;0.21341424999999958;69;0.7578125;violin
55.60965600000001;0.2439019999999985;70;0.7578125;violin
55.85355800000001;0.21341424999999958;72;0.7578125;violin
56.097460000000005;0.2439019999999985;70;0.7578125;violin
56.341362000000004;0.21341424999999958;72;0.7578125;violin
56.585264;0.24390200000000561;69;0.7578125;violin
56.82916600000001;0.21341424999999958;67;0.7578125;violin
57.073068000000006;0.2439019999999985;70;0.7578125;violin
57.316970000000005;0.21341424999999958;75;0.7578125;violin
57.560872;0.2439019999999985;74;0.7578125;violin
57.804774;0.2134142500000067;72;0.7578125;violin
58.04867600000001;0.2439019999999985;78;0.7578125;violin
58.292578000000006;0.21341424999999958;82;0.7578125;violin
58.536480000000005;0.2439019999999985;81;0.7578125;violin
58.780382;0.21341424999999958;79;0.7578125;violin
59.02428400000001;0.2439019999999985;70;0.7578125;violin
59.26818600000001;0.21341424999999958;75;0.7578125;violin
59.512088000000006;0.2439019999999985;74;0.7578125;violin
59.755990000000004;0.21341424999999958;72;0.7578125;violin
59.999892;0.24390200000000561;78;0.7578125;violin
60.24379400000001;0.21341424999999958;82;0.7578125;violin
60.48769600000001;0.2439019999999985;81;0.7578125;violin
60.731598000000005;0.21341424999999958;79;0.7578125;violin
60.975500000000004;0.2439019999999985;75;0.7578125;violin
61.219402;0.21341424999999958;74;0.7578125;violin
61.46330400000001;0.2439019999999985;70;0.7578125;violin
61.707206000000006;0.21341424999999958;67;0.7578125;violin
61.951108000000005;0.2439019999999985;63;0.7578125;violin
62.19501;0.21341424999999958;62;0.7578125;violin
62.438912;0.24390200000000561;58;0.7578125;violin
62.68281400000001;0.18292650000000066;55;0.7578125;violin
62.926716000000006;0.12195100000000281;67;0.7578125;violin
63.170618000000005;0.12195100000000281;57;0.7578125;violin
63.41452;0.12195100000000281;67;0.7578125;violin
63.65842200000001;0.1219509999999957;58;0.7578125;violin
63.90232400000001;0.1219509999999957;67;0.7578125;violin
64.146226;0.12195100000000991;57;0.7578125;violin
64.390128;0.1219509999999957;67;0.7578125;violin
64.63403000000001;0.1219509999999957;55;0.7578125;violin
64.877932;0.24390200000000561;58;0.7578125;violin
65.121834;0.21341424999999958;62;0.7578125;violin
65.36573600000001;0.2439019999999914;67;0.7578125;violin
65.609638;0.21341424999999958;70;0.7578125;violin
65.85354000000001;0.2439019999999914;67;0.7578125;violin
66.097442;0.21341424999999958;62;0.7578125;violin
66.341344;0.24390200000000561;58;0.7578125;violin
66.58524600000001;0.18292649999999355;55;0.7578125;violin
66.829148;0.1219509999999957;67;0.7578125;violin
67.07305000000001;0.1219509999999957;57;0.7578125;violin
67.316952;0.12195100000000991;67;0.7578125;violin
67.560854;0.1219509999999957;59;0.7578125;violin
67.80475600000001;0.1219509999999957;67;0.7578125;violin
68.048658;0.12195100000000991;55;0.7578125;violin
68.29256000000001;0.1219509999999957;67;0.7578125;violin
68.536462;0.12195100000000991;60;0.7578125;violin
68.780364;0.24390200000000561;63;0.7578125;violin
69.02426600000001;0.21341424999999958;67;0.7578125;violin
69.268168;0.24390200000000561;72;0.7578125;violin
69.51207000000001;0.21341424999999958;75;0.7578125;violin
69.755972;0.24390200000000561;67;0.7578125;violin
69.999874;0.21341424999999958;63;0.7578125;violin
70.24377600000001;0.2439019999999914;60;0.7578125;violin
70.487678;0.21341424999999958;62;0.7578125;violin
70.73158000000001;0.2439019999999914;67;0.7578125;violin
70.975482;0.2134142500000138;71;0.7578125;violin
71.219384;0.24390200000000561;74;0.7578125;violin
71.46328600000001;0.21341424999999958;79;0.7578125;violin
71.707188;0.24390200000000561;83;0.7578125;violin
71.95109000000001;0.21341424999999958;86;0.7578125;violin
72.19499200000001;0.2439019999999914;74;0.7578125;violin
72.438894;0.21341424999999958;84;0.7578125;violin
72.68279600000001;0.2439019999999914;81;0.7578125;violin
72.926698;0.24390200000000561;78;0.7578125;violin
73.17060000000001;0.24390200000000561;74;0.7578125;violin
73.41450200000001;0.21341424999999958;72;0.7578125;violin
73.658404;0.24390200000000561;69;0.7578125;violin
73.90230600000001;0.21341424999999958;66;0.7578125;violin
74.146208;0.24390200000000561;62;0.7578125;violin
74.39011;0.24390200000000561;67;0.7578125;violin
74.63401200000001;0.1219509999999957;79;0.7578125;violin
74.877914;0.1219509999999957;69;0.7578125;violin
75.12181600000001;0.1219509999999957;79;0.7578125;violin
75.365718;0.12195100000000991;71;0.7578125;violin
75.60962;0.1219509999999957;79;0.7578125;violin
75.85352200000001;0.1219509999999957;69;0.7578125;violin
76.097424;0.12195100000000991;79;0.7578125;violin
76.34132600000001;0.1219509999999957;67;0.7578125;violin
76.585228;0.24390200000000561;70;0.7578125;violin
76.82913;0.21341424999999958;73;0.7578125;violin
77.07303200000001;0.2439019999999914;76;0.7578125;violin
77.316934;0.21341424999999958;79;0.7578125;violin
77.56083600000001;0.2439019999999914;82;0.7578125;violin
77.804738;0.21341424999999958;85;0.7578125;violin
78.04864;0.24390200000000561;67;0.7578125;violin
78.29254200000001;0.2439019999999914;66;0.7578125;violin
78.536444;0.12195100000000991;78;0.7578125;violin
78.78034600000001;0.1219509999999957;67;0.7578125;violin
79.024248;0.12195100000000991;78;0.7578125;violin
79.26815;0.1219509999999957;69;0.7578125;violin
79.51205200000001;0.1219509999999957;78;0.7578125;violin
79.755954;0.12195100000000991;67;0.7578125;violin
79.99985600000001;0.1219509999999957;78;0.7578125;violin
80.24375800000001;0.2439019999999914;66;0.7578125;violin
80.48766;0.24390200000000561;69;0.7578125;violin
80.73156200000001;0.21341424999999958;72;0.7578125;violin
80.975464;0.24390200000000561;75;0.7578125;violin
81.21936600000001;0.21341424999999958;78;0.7578125;violin
81.46326800000001;0.2439019999999914;81;0.7578125;violin
81.70717;0.21341424999999958;84;0.7578125;violin
81.95107200000001;0.2439019999999914;66;0.7578125;violin
82.194974;0.24390200000000561;64;0.7578125;violin
82.43887600000001;0.1219509999999957;76;0.7578125;violin
82.68277800000001;0.1219509999999957;66;0.7578125;violin
82.92668;0.1219509999999957;76;0.7578125;violin
83.17058200000001;0.1219509999999957;67;0.7578125;violin
83.414484;0.12195100000000991;76;0.7578125;violin
83.65838600000001;0.1219509999999957;66;0.7578125;violin
83.90228800000001;0.1219509999999957;76;0.7578125;violin
84.14619;0.12195100000000991;64;0.7578125;violin
84.39009200000001;0.2439019999999914;67;0.7578125;violin
84.633994;0.21341424999999958;70;0.7578125;violin
84.877896;0.24390200000000561;73;0.7578125;violin
85.12179800000001;0.21341424999999958;76;0.7578125;violin
85.3657;0.24390200000000561;79;0.7578125;violin
85.60960200000001;0.21341424999999958;82;0.7578125;violin
85.853504;0.24390200000000561;64;0.7578125;violin
86.097406;0.18292650000000776;62;0.7578125;violin
86.34130800000001;0.1219509999999957;74;0.7578125;violin
86.58521;0.12195100000000991;64;0.7578125;violin
86.82911200000001;0.1219509999999957;74;0.7578125;violin
87.07301400000001;0.1219509999999957;66;0.7578125;violin
87.316916;0.1219509999999957;74;0.7578125;violin
87.56081800000001;0.1219509999999957;64;0.7578125;violin
87.80472;0.12195100000000991;74;0.7578125;violin
88.04862200000001;0.1219509999999957;62;0.7578125;violin
88.29252400000001;0.2439019999999914;66;0.7578125;violin
88.536426;0.21341424999999958;69;0.7578125;violin
88.78032800000001;0.2439019999999914;74;0.7578125;violin
89.02423;0.21341424999999958;78;0.7578125;violin
89.26813200000001;0.24390200000000561;81;0.7578125;violin
89.51203400000001;0.21341424999999958;86;0.7578125;violin
89.755936;0.24390200000000561;62;0.7578125;violin
89.99983800000001;0.2439019999999914;60;0.7578125;violin
90.24374;0.12195100000000991;72;0.7578125;violin
90.48764200000001;0.1219509999999957;62;0.7578125;violin
90.73154400000001;0.1219509999999957;72;0.7578125;violin
90.975446;0.12195100000000991;64;0.7578125;violin
91.21934800000001;0.1219509999999957;72;0.7578125;violin
91.46325;0.12195100000000991;62;0.7578125;violin
91.70715200000001;0.1219509999999957;72;0.7578125;violin
91.95105400000001;0.1219509999999957;60;0.7578125;violin
92.194956;0.24390200000000561;64;0.7578125;violin
92.43885800000001;0.21341424999999958;67;0.7578125;violin
92.68276;0.24390200000000561;72;0.7578125;violin
92.92666200000001;0.21341424999999958;76;0.7578125;violin
93.17056400000001;0.2439019999999914;79;0.7578125;violin
93.414466;0.21341424999999958;84;0.7578125;violin
93.65836800000001;0.2439019999999914;60;0.7578125;violin
93.90227;0.24390200000000561;59;0.7578125;violin
94.146172;0.1219509999999957;71;0.7578125;violin
94.39007400000001;0.1219509999999957;60;0.7578125;violin
94.633976;0.12195100000000991;71;0.7578125;violin
94.87787800000001;0.1219509999999957;62;0.7578125;violin
95.12178000000002;0.1219509999999957;71;0.7578125;violin
95.365682;0.1219509999999957;60;0.7578125;violin
95.60958400000001;0.1219509999999957;71;0.7578125;violin
95.853486;0.24390200000000561;59;0.7578125;violin
96.09738800000001;0.24390200000000561;62;0.7578125;violin
96.34129000000001;0.21341424999999958;67;0.7578125;violin
96.585192;0.24390200000000561;71;0.7578125;violin
96.82909400000001;0.21341424999999958;74;0.7578125;violin
97.072996;0.24390200000000561;79;0.7578125;violin
97.31689800000001;0.21341424999999958;83;0.7578125;violin
97.56080000000001;0.2439019999999914;59;0.7578125;violin
97.804702;0.24390200000000561;57;0.7578125;violin
98.04860400000001;0.2439019999999914;69;0.7578125;violin
98.292506;0.12195100000000991;59;0.7578125;violin
98.53640800000001;0.1219509999999957;69;0.7578125;violin
98.78031000000001;0.1219509999999957;60;0.7578125;violin
99.024212;0.12195100000000991;69;0.7578125;violin
99.26811400000001;0.1219509999999957;59;0.7578125;violin
99.512016;0.12195100000000991;69;0.7578125;violin
99.75591800000001;0.1219509999999957;57;0.7578125;violin
99.99982000000001;0.2439019999999914;60;0.7578125;violin
100.243722;0.21341424999999958;66;0.7578125;violin
100.48762400000001;0.2439019999999914;69;0.7578125;violin
100.731526;0.21341424999999958;72;0.7578125;violin
100.97542800000001;0.24390200000000561;78;0.7578125;violin
101.21933000000001;0.21341424999999958;81;0.7578125;violin
101.463232;0.24390200000000561;57;0.7578125;violin
101.70713400000001;0.18292649999999355;55;0.7578125;violin
101.951036;0.12195100000000991;67;0.7578125;violin
102.19493800000001;0.1219509999999957;57;0.7578125;violin
102.43884000000001;0.1219509999999957;67;0.7578125;violin
102.682742;0.12195100000000991;59;0.7578125;violin
102.92664400000001;0.1219509999999957;67;0.7578125;violin
103.17054600000002;0.1219509999999957;57;0.7578125;violin
103.41444800000001;0.1219509999999957;67;0.7578125;violin
103.65835000000001;0.1219509999999957;55;0.7578125;violin
103.902252;0.24390200000000561;59;0.7578125;violin
104.14615400000001;0.21341424999999958;62;0.7578125;violin
104.39005600000002;0.2439019999999914;67;0.7578125;violin
104.633958;0.21341424999999958;71;0.7578125;violin
104.87786000000001;0.2439019999999914;74;0.7578125;violin
105.121762;0.21341424999999958;79;0.7578125;violin
105.36566400000001;0.24390200000000561;83;0.7578125;violin
105.60956600000002;0.21341424999999958;86;0.7578125;violin
105.853468;0.24390200000000561;84;0.7578125;violin
106.09737000000001;0.21341424999999958;81;0.7578125;violin
106.341272;0.24390200000000561;78;0.7578125;violin
106.58517400000001;0.21341424999999958;74;0.7578125;violin
106.82907600000001;0.2439019999999914;72;0.7578125;violin
107.072978;0.21341424999999958;69;0.7578125;violin
107.31688000000001;0.2439019999999914;62;0.7578125;violin
107.560782;0.24390200000000561;67;0.7578125;violin
107.80468400000001;0.24390200000000561;59;0.7578125;violin
108.04858600000001;0.21341424999999958;62;0.7578125;violin
108.292488;0.24390200000000561;67;0.7578125;violin
108.53639000000001;0.21341424999999958;71;0.7578125;violin
108.780292;0.24390200000000561;74;0.7578125;violin
109.02419400000001;0.21341424999999958;79;0.7578125;violin
109.26809600000001;0.2439019999999914;83;0.7578125;violin
109.511998;0.21341424999999958;86;0.7578125;violin
109.75590000000001;0.24390200000000561;84;0.7578125;violin
109.99980200000002;0.21341424999999958;81;0.7578125;violin
110.24370400000001;0.24390200000000561;78;0.7578125;violin
110.48760600000001;0.21341424999999958;74;0.7578125;violin
110.731508;0.24390200000000561;72;0.7578125;violin
110.97541000000001;0.21341424999999958;69;0.7578125;violin
111.21931200000002;0.2439019999999914;62;0.7578125;violin
111.46321400000001;0.24390200000000561;67;0.7578125;violin
111.70711600000001;0.1219509999999957;79;0.7578125;violin
111.951018;0.12195100000000991;69;0.7578125;violin
112.19492000000001;0.1219509999999957;79;0.7578125;violin
112.43882200000002;0.1219509999999957;71;0.7578125;violin
112.68272400000001;0.1219509999999957;79;0.7578125;violin
112.92662600000001;0.1219509999999957;69;0.7578125;violin
113.170528;0.24390200000000561;79;0.7578125;violin
113.41443000000001;0.18292649999999355;67;0.7578125;violin
113.65833200000002;0.1219509999999957;55;0.7578125;violin
113.902234;0.24390200000000561;69;0.7578125;violin
114.14613600000001;0.1219509999999957;55;0.7578125;violin
114.390038;0.24390200000000561;71;0.7578125;violin
114.63394000000001;0.1219509999999957;55;0.7578125;violin
114.87784200000002;0.1219509999999957;69;0.7578125;violin
115.121744;0.24390200000000561;55;0.7578125;violin
115.36564600000001;0.18292649999999355;67;0.7578125;violin
115.609548;0.12195100000000991;79;0.7578125;violin
115.85345000000001;0.1219509999999957;69;0.7578125;violin
116.09735200000001;0.1219509999999957;79;0.7578125;violin
116.341254;0.12195100000000991;71;0.7578125;violin
116.58515600000001;0.1219509999999957;79;0.7578125;violin
116.829058;0.12195100000000991;69;0.7578125;violin
117.07296000000001;0.24390200000000561;79;0.7578125;violin
117.31686200000001;0.21341424999999958;67;0.7578125;violin
117.560764;0.12195100000000991;55;0.7578125;violin
117.80466600000001;0.1219509999999957;69;0.7578125;violin
118.04856800000002;0.1219509999999957;55;0.7578125;violin
118.29247000000001;0.1219509999999957;71;0.7578125;violin
118.53637200000001;0.1219509999999957;55;0.7578125;violin
118.780274;0.12195100000000991;69;0.7578125;violin
119.02417600000001;0.24390200000000561;55;0.7578125;violin
119.26807800000002;0.21341424999999958;67;0.7578125;violin
119.51198000000001;0.24390200000000561;62;0.7578125;violin
119.75588200000001;0.21341424999999958;67;0.7578125;violin
119.999784;0.24390200000000561;71;0.7578125;violin
120.24368600000001;0.21341424999999958;74;0.7578125;violin
120.48758800000002;0.2439019999999914;78;0.7578125;violin
120.73149000000001;0.21341424999999958;83;0.7578125;violin
120.97539200000001;0.2439019999999914;81;0.7578125;violin
121.219294;0.21341424999999958;79;0.7578125;violin
121.46319600000001;0.24390200000000561;74;0.7578125;violin
121.70709800000002;0.21341424999999958;71;0.7578125;violin
121.95100000000001;0.24390200000000561;67;0.7578125;violin
122.19490200000001;0.21341424999999958;66;0.7578125;violin
122.438804;0.24390200000000561;62;0.7578125;violin
122.68270600000001;0.21341424999999958;64;0.7578125;violin
122.92660800000002;0.2439019999999914;66;0.7578125;violin
123.17051000000001;0.21341424999999958;67;0.7578125;violin
123.41441200000001;0.2439019999999914;62;0.7578125;violin
123.658314;0.21341424999999958;67;0.7578125;violin
123.90221600000001;0.24390200000000561;71;0.7578125;violin
124.14611800000002;0.21341424999999958;74;0.7578125;violin
124.39002;0.24390200000000561;78;0.7578125;violin
124.63392200000001;0.21341424999999958;83;0.7578125;violin
124.877824;0.24390200000000561;81;0.7578125;violin
125.12172600000001;0.21341424999999958;79;0.7578125;violin
125.36562800000002;0.2439019999999914;74;0.7578125;violin
125.60953;0.21341424999999958;71;0.7578125;violin
125.85343200000001;0.24390200000000561;67;0.7578125;violin
126.09733400000002;0.21341424999999958;66;0.7578125;violin
126.34123600000001;0.24390200000000561;64;0.7578125;violin
126.58513800000001;0.21341424999999958;66;0.7578125;violin
126.82904;0.24390200000000561;62;0.7578125;violin
127.07294200000001;0.487803999999997;67;0.7578125;violin
127.56074600000001;0.1219509999999957;69;0.7578125;violin
127.80464800000001;0.1219509999999957;55;0.7578125;violin
128.04855;0.1219509999999957;71;0.7578125;violin
128.292452;0.12195100000002412;55;0.7578125;violin
128.53635400000002;0.1219509999999957;69;0.7578125;violin
128.780256;0.1219509999999957;55;0.7578125;violin
129.024158;0.12195100000002412;67;0.7578125;violin
129.26806000000002;0.1219509999999957;55;0.7578125;violin
129.511962;0.1219509999999957;69;0.7578125;violin
129.755864;0.1219509999999957;55;0.7578125;violin
129.99976600000002;0.1219509999999957;71;0.7578125;violin
130.243668;0.1219509999999957;55;0.7578125;violin
130.48757;0.1219509999999957;69;0.7578125;violin
130.73147200000002;0.1219509999999957;55;0.7578125;violin
130.97537400000002;0.1219509999999957;67;0.7578125;violin
131.219276;0.2439019999999914;55;0.7578125;violin
131.463178;0.21341424999999958;59;0.7578125;violin
131.70708000000002;0.2439019999999914;62;0.7578125;violin
131.950982;0.21341424999999958;67;0.7578125;violin
132.194884;0.24390200000001983;67;0.7578125;violin
132.43878600000002;0.21341424999999958;71;0.7578125;violin
132.682688;0.2439019999999914;74;0.7578125;violin
132.92659;0.21341424999999958;79;0.7578125;violin
