start;duration;pitch;velocity;instrument
0.0;0.80808;83;0.7578125;violin
0.80808;0.20201999999999998;81;0.7578125;violin
1.0101;0.2020200000000001;79;0.7578125;violin
1.21212;0.20201999999999987;79;0.7578125;violin
1.41414;0.2020200000000001;78;0.7578125;violin
1.61616;0.17676749999999997;76;0.7578125;violin
1.8181800000000001;0.20201999999999987;76;0.7578125;violin
2.0202;0.2020200000000001;74;0.7578125;violin
2.22222;0.2020200000000001;71;0.7578125;violin
2.42424;0.6060599999999998;74;0.7578125;violin
3.0303;0.2020200000000001;74;0.7578125;violin
3.23232;0.2020200000000001;79;0.7578125;violin
3.43434;0.17676749999999997;83;0.7578125;violin
3.6363600000000003;0.8080799999999999;84;0.7578125;violin
4.44444;0.2020200000000001;83;0.7578125;violin
4.64646;0.2020200000000001;81;0.7578125;violin
4.84848;0.2020200000000001;81;0.7578125;violin
5.0505;0.2020200000000001;79;0.7578125;violin
5.2525200000000005;0.17676749999999952;78;0.7578125;violin
5.45454;0.2020200000000001;83;0.7578125;violin
5.65656;0.2020200000000001;81;0.7578125;violin
5.85858;0.2020200000000001;79;0.7578125;violin
6.0606;0.2020200000000001;79;0.7578125;violin
6.26262;0.2020200000000001;78;0.7578125;violin
6.46464;0.2020200000000001;76;0.7578125;violin
6.66666;0.2020200000000001;76;0.7578125;violin
6.86868;0.2020200000000001;74;0.7578125;violin
7.0707;0.17676749999999952;72;0.7578125;violin
7.2727200000000005;0.8080799999999995;71;0.7578125;violin
8.0808;0.20202000000000098;69;0.7578125;violin
8.282820000000001;0.2020199999999992;67;0.7578125;violin
8.48484;0.2020199999999992;67;0.7578125;violin
8.68686;0.20202000000000098;66;0.7578125;violin
8.88888;0.1767675000000004;64;0.7578125;violin
9.0909;0.20202000000000098;64;0.7578125;violin
9.29292;0.2020199999999992;62;0.7578125;violin
9.49494;0.20202000000000098;59;0.7578125;violin
9.69696;0.8080800000000004;62;0.7578125;violin
10.505040000000001;0.2020199999999992;67;0.7578125;violin
10.70706;0.1767675000000004;71;0.7578125;violin
10.90908;0.20202000000000098;72;0.7578125;violin
11.1111;0.2020199999999992;71;0.7578125;violin
11.31312;0.20202000000000098;69;0.7578125;violin
11.51514;0.2020199999999992;69;0.7578125;violin
11.71716;0.20202000000000098;67;0.7578125;violin
11.91918;0.2020199999999992;66;0.7578125;violin
12.1212;0.20202000000000098;66;0.7578125;violin
12.323220000000001;0.2020199999999992;64;0.7578125;violin
12.52524;0.1767675000000004;62;0.7578125;violin
12.727260000000001;0.6060599999999994;67;0.7578125;violin
13.93938;0.20202000000000098;74;0.7578125;violin
14.1414;0.2020199999999992;72;0.7578125;violin
14.34342;0.1767675000000004;71;0.7578125;violin
14.545440000000001;0.8080799999999986;71;0.7578125;violin
15.35352;0.20202000000000098;69;0.7578125;violin
15.55554;0.2020199999999992;67;0.7578125;violin
15.75756;0.20202000000000098;67;0.7578125;violin
15.95958;0.2020199999999992;66;0.7578125;violin
16.1616;0.1767675000000004;64;0.7578125;violin
16.36362;0.20202000000000098;64;0.7578125;violin
16.565640000000002;0.20201999999999742;62;0.7578125;violin
16.76766;0.20202000000000098;59;0.7578125;violin
16.96968;0.20202000000000098;62;0.7578125;violin
17.1717;0.20201999999999742;67;0.7578125;violin
17.37372;0.20202000000000098;71;0.7578125;violin
17.57574;0.20202000000000098;74;0.7578125;violin
17.77776;0.20202000000000098;72;0.7578125;violin
17.97978;0.1767675000000004;71;0.7578125;violin
18.1818;0.20202000000000098;71;0.7578125;violin
18.38382;0.20202000000000098;69;0.7578125;violin
18.58584;0.20202000000000098;67;0.7578125;violin
18.787860000000002;0.20201999999999742;67;0.7578125;violin
18.98988;0.20202000000000098;66;0.7578125;violin
19.1919;0.20202000000000098;64;0.7578125;violin
19.39392;0.20201999999999742;64;0.7578125;violin
19.59594;0.20202000000000098;62;0.7578125;violin
19.79796;0.1767675000000004;60;0.7578125;violin
19.99998;0.20202000000000098;60;0.7578125;violin
20.202;0.20201999999999742;59;0.7578125;violin
20.40402;0.20202000000000098;57;0.7578125;violin
20.60604;0.20202000000000098;62;0.7578125;violin
20.80806;0.20202000000000098;67;0.7578125;violin
21.010080000000002;0.20201999999999742;71;0.7578125;violin
21.2121;0.20202000000000098;74;0.7578125;violin
21.41412;0.20202000000000098;79;0.7578125;violin
21.61614;0.1767675000000004;83;0.7578125;violin
21.81816;0.8080800000000004;86;0.7578125;violin
22.62624;0.20202000000000098;84;0.7578125;violin
22.82826;0.20202000000000098;83;0.7578125;violin
23.03028;0.20202000000000098;83;0.7578125;violin
23.232300000000002;0.20201999999999742;81;0.7578125;violin
23.43432;0.1767675000000004;79;0.7578125;violin
23.63634;0.20202000000000098;79;0.7578125;violin
23.83836;0.20201999999999742;78;0.7578125;violin
24.04038;0.20202000000000098;76;0.7578125;violin
24.2424;0.20202000000000098;76;0.7578125;violin
24.44442;0.20202000000000098;74;0.7578125;violin
24.646440000000002;0.20201999999999742;72;0.7578125;violin
24.84846;0.20202000000000098;72;0.7578125;violin
25.05048;0.20202000000000098;71;0.7578125;violin
25.2525;0.1767675000000004;69;0.7578125;violin
25.454520000000002;0.20201999999999742;69;0.7578125;violin
25.65654;0.20202000000000098;67;0.7578125;violin
25.85856;0.20202000000000098;66;0.7578125;violin
26.06058;0.20201999999999742;66;0.7578125;violin
26.2626;0.20202000000000098;64;0.7578125;violin
26.46462;0.20202000000000098;62;0.7578125;violin
26.66664;0.20202000000000098;62;0.7578125;violin
26.868660000000002;0.20201999999999742;60;0.7578125;violin
27.07068;0.1767675000000004;57;0.7578125;violin
27.2727;0.5303025000000012;55;0.7578125;violin
