start;duration;pitch;velocity;instrument
0.0;0.09146325000000001;83;0.7578125;violin
0.121951;0.09146325000000002;83;0.7578125;violin
0.243902;0.12195100000000003;83;0.7578125;violin
0.487804;0.09146325;79;0.7578125;violin
0.609755;0.09146325;79;0.7578125;violin
0.7317060000000001;0.12195100000000003;79;0.7578125;violin
0.975608;0.09146325000000011;74;0.7578125;violin
1.0975590000000002;0.09146324999999988;74;0.7578125;violin
1.21951;0.12195099999999992;74;0.7578125;violin
1.4634120000000002;0.09146324999999988;71;0.7578125;violin
1.585363;0.09146325000000011;71;0.7578125;violin
1.7073140000000002;0.12195099999999992;71;0.7578125;violin
1.951216;0.09146325000000033;79;0.7578125;violin
2.073167;0.09146324999999988;79;0.7578125;violin
2.1951180000000003;0.1219509999999997;79;0.7578125;violin
2.43902;0.09146324999999988;74;0.7578125;violin
2.5609710000000003;0.09146324999999988;74;0.7578125;violin
2.682922;0.12195100000000014;74;0.7578125;violin
2.9268240000000003;0.09146324999999988;71;0.7578125;violin
3.0487750000000005;0.09146324999999988;71;0.7578125;violin
3.170726;0.12195100000000014;71;0.7578125;violin
3.4146280000000004;0.09146324999999988;67;0.7578125;violin
3.536579;0.09146325000000033;67;0.7578125;violin
3.6585300000000003;0.12195100000000014;67;0.7578125;violin
3.902432;0.09146325000000033;66;0.7578125;violin
4.024383;0.09146325000000033;64;0.7578125;violin
4.146334;0.12195100000000014;62;0.7578125;violin
4.390236000000001;0.09146324999999944;74;0.7578125;violin
4.512187000000001;0.09146324999999944;74;0.7578125;violin
4.634138;0.12195100000000014;74;0.7578125;violin
4.87804;0.09146325000000033;66;0.7578125;violin
4.9999910000000005;0.09146325000000033;64;0.7578125;violin
5.121942000000001;0.12195100000000014;62;0.7578125;violin
5.365844;0.09146325000000033;74;0.7578125;violin
5.487795;0.09146325000000033;74;0.7578125;violin
5.609746;0.12195100000000014;74;0.7578125;violin
5.853648000000001;0.09146325000000033;66;0.7578125;violin
5.975599000000001;0.09146324999999944;64;0.7578125;violin
6.097550000000001;0.12195099999999925;62;0.7578125;violin
6.341452;0.12195100000000014;74;0.7578125;violin
6.4634030000000005;0.09146325000000033;74;0.7578125;violin
6.585354000000001;0.12195100000000014;74;0.7578125;violin
6.829256000000001;0.09146324999999944;86;0.7578125;violin
6.951207000000001;0.09146324999999944;86;0.7578125;violin
7.073158;0.12195100000000014;86;0.7578125;violin
7.317060000000001;0.12195100000000014;74;0.7578125;violin
7.439011000000001;0.09146325000000033;74;0.7578125;violin
7.560962000000001;0.12195100000000014;74;0.7578125;violin
7.804864;0.12195100000000014;83;0.7578125;violin
7.926815;0.09146324999999944;83;0.7578125;violin
8.048766;0.12195100000000103;83;0.7578125;violin
8.292668;0.12195099999999925;79;0.7578125;violin
8.414619;0.09146325000000033;79;0.7578125;violin
8.536570000000001;0.12195099999999925;79;0.7578125;violin
8.780472000000001;0.09146324999999855;74;0.7578125;violin
8.902423;0.09146325000000033;74;0.7578125;violin
9.024374000000002;0.12195099999999925;74;0.7578125;violin
9.268276;0.09146325000000033;71;0.7578125;violin
9.390227000000001;0.09146325000000033;71;0.7578125;violin
9.512178;0.12195100000000103;71;0.7578125;violin
9.75608;0.09146325000000033;79;0.7578125;violin
9.878031;0.09146325000000033;79;0.7578125;violin
9.999982000000001;0.12195099999999925;79;0.7578125;violin
10.243884000000001;0.09146325000000033;74;0.7578125;violin
10.365835;0.09146325000000033;74;0.7578125;violin
10.487786000000002;0.12195099999999925;74;0.7578125;violin
10.731688;0.09146325000000033;71;0.7578125;violin
10.853639000000001;0.09146325000000033;71;0.7578125;violin
10.97559;0.12195100000000103;71;0.7578125;violin
11.219492;0.09146325000000033;67;0.7578125;violin
11.341443000000002;0.09146324999999855;67;0.7578125;violin
11.463394000000001;0.12195099999999925;67;0.7578125;violin
11.707296000000001;0.09146325000000033;69;0.7578125;violin
11.829247;0.09146325000000033;71;0.7578125;violin
11.951198000000002;0.12195099999999925;72;0.7578125;violin
12.195100000000002;0.09146324999999855;76;0.7578125;violin
12.317051000000001;0.09146325000000033;76;0.7578125;violin
12.439002;0.12195100000000103;76;0.7578125;violin
12.682904;0.09146325000000033;78;0.7578125;violin
12.804855000000002;0.09146325000000033;76;0.7578125;violin
12.926806000000001;0.12195100000000103;74;0.7578125;violin
13.170708000000001;0.09146325000000033;86;0.7578125;violin
13.292659;0.09146325000000033;86;0.7578125;violin
13.414610000000001;0.12195099999999925;86;0.7578125;violin
13.658512000000002;0.09146325000000033;81;0.7578125;violin
13.780463000000001;0.09146325000000033;83;0.7578125;violin
13.902414000000002;0.12195099999999925;84;0.7578125;violin
14.146316;0.09146325000000033;74;0.7578125;violin
14.268267000000002;0.09146325000000033;74;0.7578125;violin
14.390218;0.12195100000000103;74;0.7578125;violin
14.634120000000001;0.09146325000000033;76;0.7578125;violin
14.756071000000002;0.09146324999999855;78;0.7578125;violin
14.878022000000001;0.12195099999999925;79;0.7578125;violin
15.121924000000002;0.12195099999999925;67;0.7578125;violin
15.243875000000001;0.09146325000000033;67;0.7578125;violin
15.365826000000002;0.12195099999999925;67;0.7578125;violin
15.609728;0.09146325000000033;69;0.7578125;violin
15.731679000000002;0.09146325000000033;71;0.7578125;violin
15.85363;0.12195100000000103;72;0.7578125;violin
16.097532;0.12195099999999925;76;0.7578125;violin
16.219483;0.09146325000000033;76;0.7578125;violin
16.341434000000003;0.12195099999999925;76;0.7578125;violin
16.585336;0.09146325000000033;78;0.7578125;violin
16.707287;0.09146325000000033;76;0.7578125;violin
16.829238;0.12195100000000281;74;0.7578125;violin
17.073140000000002;0.09146325000000033;86;0.7578125;violin
17.195091;0.09146325000000033;86;0.7578125;violin
17.317042;0.12195099999999925;86;0.7578125;violin
17.560944000000003;0.09146325000000033;81;0.7578125;violin
17.682895000000002;0.09146325000000033;83;0.7578125;violin
17.804846;0.12195099999999925;84;0.7578125;violin
18.048748000000003;0.12195099999999925;69;0.7578125;violin
18.170699000000003;0.09146325000000033;69;0.7578125;violin
18.292650000000002;0.12195099999999925;69;0.7578125;violin
18.536552;0.09146325000000033;69;0.7578125;violin
18.658503000000003;0.09146324999999678;71;0.7578125;violin
18.780454000000002;0.2439019999999985;72;0.7578125;violin
19.024356;0.12195099999999925;62;0.7578125;violin
19.146307;0.09146325000000033;62;0.7578125;violin
19.268258000000003;0.12195099999999925;62;0.7578125;violin
19.51216;0.12195099999999925;71;0.7578125;violin
19.634111;0.09146325000000033;71;0.7578125;violin
19.756062;0.12195100000000281;71;0.7578125;violin
19.999964000000002;0.12195099999999925;67;0.7578125;violin
20.121915;0.09146325000000033;67;0.7578125;violin
20.243866;0.12195100000000281;67;0.7578125;violin
20.487768000000003;0.12195099999999925;62;0.7578125;violin
20.609719000000002;0.09146325000000033;62;0.7578125;violin
20.73167;0.12195099999999925;62;0.7578125;violin
20.975572000000003;0.09146325000000033;59;0.7578125;violin
21.097523000000002;0.09146325000000033;59;0.7578125;violin
21.219474;0.12195099999999925;59;0.7578125;violin
21.463376;0.09146325000000033;67;0.7578125;violin
21.585327000000003;0.09146325000000033;67;0.7578125;violin
21.707278000000002;0.12195099999999925;67;0.7578125;violin
21.95118;0.12195100000000281;62;0.7578125;violin
22.073131000000004;0.09146324999999678;62;0.7578125;violin
22.195082000000003;0.12195099999999925;62;0.7578125;violin
22.438984;0.09146325000000033;59;0.7578125;violin
22.560935;0.09146325000000033;59;0.7578125;violin
22.682886000000003;0.12195099999999925;59;0.7578125;violin
22.926788000000002;0.09146325000000033;55;0.7578125;violin
23.048739;0.09146325000000033;55;0.7578125;violin
23.17069;0.12195100000000281;55;0.7578125;violin
23.414592000000003;0.09146325000000033;57;0.7578125;violin
23.536543;0.09146325000000033;59;0.7578125;violin
23.658494;0.12195100000000281;60;0.7578125;violin
23.902396000000003;0.09146325000000033;66;0.7578125;violin
24.024347000000002;0.09146325000000033;67;0.7578125;violin
24.146298;0.24390200000000206;69;0.7578125;violin
24.390200000000004;0.09146324999999678;74;0.7578125;violin
24.512151000000003;0.09146325000000033;72;0.7578125;violin
24.634102000000002;0.12195099999999925;71;0.7578125;violin
24.878004;0.12195100000000281;76;0.7578125;violin
24.999955000000003;0.09146325000000033;76;0.7578125;violin
25.121906000000003;0.12195099999999925;76;0.7578125;violin
25.365808;0.09146325000000033;72;0.7578125;violin
25.487759;0.09146325000000033;71;0.7578125;violin
25.609710000000003;0.12195099999999925;69;0.7578125;violin
25.853612000000002;0.09146325000000033;74;0.7578125;violin
25.975563;0.09146325000000033;74;0.7578125;violin
26.097514000000004;0.12195099999999925;74;0.7578125;violin
26.341416000000002;0.09146325000000033;71;0.7578125;violin
26.463367;0.09146325000000033;69;0.7578125;violin
26.585318;0.12195100000000281;71;0.7578125;violin
26.829220000000003;0.12195099999999925;62;0.7578125;violin
26.951171000000002;0.09146325000000033;62;0.7578125;violin
27.073122;0.12195099999999925;62;0.7578125;violin
27.317024000000004;0.12195099999999925;57;0.7578125;violin
27.438975000000003;0.09146325000000033;59;0.7578125;violin
27.560926000000002;0.12195099999999925;60;0.7578125;violin
27.804828000000004;0.09146324999999678;66;0.7578125;violin
27.926779000000003;0.09146325000000033;67;0.7578125;violin
28.048730000000003;0.2439019999999985;69;0.7578125;violin
28.292632;0.09146325000000033;74;0.7578125;violin
28.414583000000004;0.09146325000000033;72;0.7578125;violin
28.536534000000003;0.12195099999999925;71;0.7578125;violin
28.780436;0.12195099999999925;76;0.7578125;violin
28.902387;0.09146325000000033;76;0.7578125;violin
29.024338000000004;0.12195099999999925;76;0.7578125;violin
29.268240000000002;0.09146325000000033;72;0.7578125;violin
29.390191;0.09146325000000033;71;0.7578125;violin
29.512142000000004;0.12195099999999925;69;0.7578125;violin
29.756044000000003;0.09146325000000033;74;0.7578125;violin
29.877995000000002;0.09146325000000033;74;0.7578125;violin
29.999946;0.12195100000000281;74;0.7578125;violin
30.243848000000003;0.09146325000000033;71;0.7578125;violin
30.365799000000003;0.12195099999999925;69;0.7578125;violin
30.487750000000002;0.12195099999999925;67;0.7578125;violin
30.731652000000004;0.09146325000000033;67;0.7578125;violin
30.853603000000003;0.09146325000000033;66;0.7578125;violin
30.975554000000002;0.12195099999999925;64;0.7578125;violin
31.219456;0.09146325000000033;67;0.7578125;violin
31.341407000000004;0.09146325000000033;69;0.7578125;violin
31.463358000000003;0.12195099999999925;71;0.7578125;violin
31.70726;0.09146325000000033;67;0.7578125;violin
31.829211000000004;0.09146324999999678;66;0.7578125;violin
31.951162000000004;0.1219509999999957;64;0.7578125;violin
32.195064;0.12195100000000281;67;0.7578125;violin
32.317015000000005;0.1219509999999957;69;0.7578125;violin
32.438966;0.12195100000000281;71;0.7578125;violin
32.682868000000006;0.09146324999999678;79;0.7578125;violin
32.804819;0.09146325000000388;78;0.7578125;violin
32.926770000000005;0.2439019999999985;76;0.7578125;violin
33.170672;0.09146324999999678;79;0.7578125;violin
33.292623000000006;0.09146324999999678;81;0.7578125;violin
33.414574;0.12195100000000281;83;0.7578125;violin
33.658476;0.09146325000000388;79;0.7578125;violin
33.780427;0.09146324999999678;78;0.7578125;violin
33.902378000000006;0.2439019999999985;76;0.7578125;violin
34.146280000000004;0.09146324999999678;79;0.7578125;violin
34.268231;0.09146325000000388;81;0.7578125;violin
34.390182;0.12195100000000281;83;0.7578125;violin
34.634084;0.09146325000000388;71;0.7578125;violin
34.756035000000004;0.09146324999999678;71;0.7578125;violin
34.877986;0.24390200000000561;75;0.7578125;violin
35.121888000000006;0.09146324999999678;78;0.7578125;violin
35.243839;0.09146325000000388;78;0.7578125;violin
35.365790000000004;0.1219509999999957;83;0.7578125;violin
35.609692;0.09146325000000388;71;0.7578125;violin
35.731643000000005;0.09146324999999678;71;0.7578125;violin
35.853594;0.24390200000000561;75;0.7578125;violin
36.09749600000001;0.09146324999999678;78;0.7578125;violin
36.219447;0.09146325000000388;78;0.7578125;violin
36.341398000000005;0.1219509999999957;83;0.7578125;violin
36.585300000000004;0.09146324999999678;78;0.7578125;violin
36.70725100000001;0.09146324999999678;78;0.7578125;violin
36.829202;0.12195100000000281;83;0.7578125;violin
37.073104;0.09146325000000388;78;0.7578125;violin
37.195055;0.09146324999999678;78;0.7578125;violin
37.317006000000006;0.1219509999999957;83;0.7578125;violin
37.560908000000005;0.1219509999999957;71;0.7578125;violin
37.682859;0.09146325000000388;71;0.7578125;violin
37.80481;0.12195100000000281;71;0.7578125;violin
38.048712;0.09146325000000388;83;0.7578125;violin
38.170663000000005;0.09146324999999678;83;0.7578125;violin
38.292614;0.12195100000000281;83;0.7578125;violin
38.536516000000006;0.09146324999999678;79;0.7578125;violin
38.658467;0.09146325000000388;79;0.7578125;violin
38.780418000000004;0.1219509999999957;79;0.7578125;violin
39.02432;0.12195100000000281;76;0.7578125;violin
39.146271000000006;0.09146324999999678;76;0.7578125;violin
39.268222;0.12195100000000281;76;0.7578125;violin
39.512124;0.09146325000000388;71;0.7578125;violin
39.634075;0.09146325000000388;71;0.7578125;violin
39.756026000000006;0.1219509999999957;71;0.7578125;violin
39.999928000000004;0.09146324999999678;79;0.7578125;violin
40.12187900000001;0.09146324999999678;79;0.7578125;violin
40.24383;0.12195100000000281;79;0.7578125;violin
40.487732;0.12195100000000281;76;0.7578125;violin
40.609683000000004;0.09146324999999678;76;0.7578125;violin
40.73163400000001;0.1219509999999957;76;0.7578125;violin
40.975536000000005;0.09146324999999678;71;0.7578125;violin
41.097487;0.09146325000000388;71;0.7578125;violin
41.219438000000004;0.12195100000000281;71;0.7578125;violin
41.46334;0.09146325000000388;67;0.7578125;violin
41.585291000000005;0.09146324999999678;67;0.7578125;violin
41.707242;0.12195100000000281;67;0.7578125;violin
41.951144000000006;0.09146324999999678;66;0.7578125;violin
42.073095;0.09146325000000388;64;0.7578125;violin
42.195046000000005;0.1219509999999957;62;0.7578125;violin
42.438948;0.09146324999999678;66;0.7578125;violin
42.560899000000006;0.09146324999999678;67;0.7578125;violin
42.68285;0.12195100000000281;69;0.7578125;violin
42.926752;0.09146325000000388;71;0.7578125;violin
43.048703;0.09146325000000388;72;0.7578125;violin
43.170654000000006;0.1219509999999957;74;0.7578125;violin
43.414556000000005;0.09146324999999678;76;0.7578125;violin
43.53650700000001;0.09146324999999678;78;0.7578125;violin
43.658458;0.12195100000000281;79;0.7578125;violin
43.90236;0.09146325000000388;78;0.7578125;violin
44.024311000000004;0.09146324999999678;76;0.7578125;violin
44.14626200000001;0.1219509999999957;74;0.7578125;violin
44.390164000000006;0.09146324999999678;72;0.7578125;violin
44.512115;0.09146325000000388;71;0.7578125;violin
44.634066000000004;0.2439019999999985;69;0.7578125;violin
44.877968;0.09146325000000388;71;0.7578125;violin
44.999919000000006;0.09146324999999678;69;0.7578125;violin
45.12187;0.12195100000000281;67;0.7578125;violin
45.36577200000001;0.09146324999999678;66;0.7578125;violin
45.487723;0.09146325000000388;64;0.7578125;violin
45.609674000000005;0.2439019999999985;62;0.7578125;violin
45.853576000000004;0.09146324999999678;83;0.7578125;violin
45.97552700000001;0.09146324999999678;83;0.7578125;violin
46.097478;0.12195100000000281;83;0.7578125;violin
46.34138;0.09146325000000388;79;0.7578125;violin
46.463331000000004;0.09146325000000388;79;0.7578125;violin
46.58528200000001;0.1219509999999957;79;0.7578125;violin
46.829184000000005;0.09146324999999678;74;0.7578125;violin
46.951135;0.09146325000000388;74;0.7578125;violin
47.073086;0.12195100000000281;74;0.7578125;violin
47.316988;0.09146325000000388;71;0.7578125;violin
47.438939000000005;0.09146324999999678;71;0.7578125;violin
47.56089000000001;0.1219509999999957;71;0.7578125;violin
47.804792000000006;0.09146324999999678;79;0.7578125;violin
47.926743;0.09146325000000388;79;0.7578125;violin
48.048694000000005;0.12195100000000281;79;0.7578125;violin
48.292596;0.09146325000000388;74;0.7578125;violin
48.414547000000006;0.09146324999999678;74;0.7578125;violin
48.536498;0.12195100000000281;74;0.7578125;violin
48.78040000000001;0.09146324999999678;71;0.7578125;violin
48.902351;0.09146325000000388;71;0.7578125;violin
49.024302000000006;0.1219509999999957;71;0.7578125;violin
49.268204000000004;0.09146324999999678;67;0.7578125;violin
49.39015500000001;0.09146324999999678;67;0.7578125;violin
49.512106;0.12195100000000281;67;0.7578125;violin
49.756008;0.09146325000000388;66;0.7578125;violin
49.877959000000004;0.09146324999999678;64;0.7578125;violin
49.99991000000001;0.2439019999999985;62;0.7578125;violin
50.243812000000005;0.09146324999999678;66;0.7578125;violin
50.365763;0.09146325000000388;67;0.7578125;violin
50.487714000000004;0.2439019999999985;69;0.7578125;violin
50.731616;0.09146325000000388;71;0.7578125;violin
50.853567000000005;0.09146324999999678;72;0.7578125;violin
50.975518;0.12195100000000281;74;0.7578125;violin
51.21942000000001;0.1219509999999957;76;0.7578125;violin
51.341371;0.09146325000000388;78;0.7578125;violin
51.463322000000005;0.12195100000000281;79;0.7578125;violin
51.707224000000004;0.09146325000000388;78;0.7578125;violin
51.829175000000006;0.1219509999999957;76;0.7578125;violin
51.951126;0.12195100000000281;74;0.7578125;violin
52.19502800000001;0.09146324999999678;72;0.7578125;violin
52.316979;0.09146325000000388;71;0.7578125;violin
52.438930000000006;0.1219509999999957;69;0.7578125;violin
52.682832000000005;0.09146324999999678;71;0.7578125;violin
52.80478300000001;0.09146324999999678;69;0.7578125;violin
52.926734;0.12195100000000281;67;0.7578125;violin
53.170636;0.09146325000000388;55;0.7578125;violin
53.292587000000005;0.09146324999999678;55;0.7578125;violin
53.41453800000001;0.1219509999999957;55;0.7578125;violin
53.658440000000006;0.09146324999999678;79;0.7578125;violin
53.780391;0.09146325000000388;79;0.7578125;violin
53.902342000000004;0.12195100000000281;79;0.7578125;violin
54.146244;0.09146325000000388;74;0.7578125;violin
54.268195000000006;0.09146324999999678;74;0.7578125;violin
54.390146;0.12195100000000281;74;0.7578125;violin
54.63404800000001;0.09146324999999678;71;0.7578125;violin
54.755999;0.09146325000000388;71;0.7578125;violin
54.877950000000006;0.12195100000000281;71;0.7578125;violin
55.121852000000004;0.09146325000000388;67;0.7578125;violin
55.24380300000001;0.09146324999999678;67;0.7578125;violin
55.365754;0.12195100000000281;67;0.7578125;violin
55.60965600000001;0.09146324999999678;71;0.7578125;violin
55.731607000000004;0.09146325000000388;71;0.7578125;violin
55.85355800000001;0.1219509999999957;71;0.7578125;violin
56.097460000000005;0.09146324999999678;67;0.7578125;violin
56.21941100000001;0.09146324999999678;67;0.7578125;violin
56.341362000000004;0.12195100000000281;67;0.7578125;violin
56.585264;0.12195100000000281;62;0.7578125;violin
56.707215000000005;0.09146324999999678;62;0.7578125;violin
56.82916600000001;0.1219509999999957;62;0.7578125;violin
57.073068000000006;0.09146324999999678;59;0.7578125;violin
57.195019;0.09146325000000388;59;0.7578125;violin
57.316970000000005;0.12195100000000281;59;0.7578125;violin
57.560872;0.09146325000000388;67;0.7578125;violin
57.682823000000006;0.09146324999999678;67;0.7578125;violin
57.804774;0.12195100000000281;67;0.7578125;violin
58.04867600000001;0.1219509999999957;62;0.7578125;violin
58.170627;0.09146325000000388;62;0.7578125;violin
58.292578000000006;0.1219509999999957;62;0.7578125;violin
58.536480000000005;0.09146325000000388;59;0.7578125;violin
58.65843100000001;0.09146324999999678;59;0.7578125;violin
58.780382;0.12195100000000281;55;0.7578125;violin
59.02428400000001;0.09146324999999678;59;0.7578125;violin
59.146235000000004;0.09146325000000388;59;0.7578125;violin
59.26818600000001;0.2439019999999985;62;0.7578125;violin
59.512088000000006;0.09146324999999678;59;0.7578125;violin
59.63403900000001;0.09146324999999678;59;0.7578125;violin
59.755990000000004;0.12195100000000281;55;0.7578125;violin
59.999892;0.09146325000000388;59;0.7578125;violin
60.121843000000005;0.09146324999999678;59;0.7578125;violin
60.24379400000001;0.2439019999999985;62;0.7578125;violin
60.48769600000001;0.09146324999999678;59;0.7578125;violin
60.609647;0.09146325000000388;59;0.7578125;violin
60.731598000000005;0.21341424999999958;55;0.7578125;violin
61.219402;0.21341424999999958;55;0.7578125;violin
61.219402;0.21341424999999958;62;0.7578125;violin
61.219402;0.21341424999999958;71;0.7578125;violin
61.219402;0.21341424999999958;79;0.7578125;violin
