start;duration;pitch;velocity;instrument
0.0;0.16260133333333335;55;0.7890625;violin
0.16260133333333335;0.16260133333333335;57;0.7890625;violin
0.3252026666666667;0.16260133333333332;59;0.7890625;violin
0.487804;0.3658530000000001;60;0.7890625;violin
0.975608;0.16260133333333338;60;0.7890625;violin
1.1382093333333334;0.16260133333333338;62;0.7890625;violin
1.3008106666666668;0.16260133333333338;60;0.7890625;violin
1.4634120000000002;0.16260133333333338;59;0.7890625;violin
1.6260133333333335;0.16260133333333338;60;0.7890625;violin
1.788614666666667;0.16260133333333315;62;0.7890625;violin
1.951216;0.365853;60;0.7890625;violin
2.43902;0.24390199999999984;55;0.7890625;violin
2.9268240000000003;0.4878040000000001;60;0.7890625;violin
3.4146280000000004;0.4878039999999997;64;0.7890625;violin
3.902432;0.16260133333333382;64;0.7890625;violin
4.065033333333334;0.16260133333333293;65;0.7890625;violin
4.227634666666667;0.16260133333333382;64;0.7890625;violin
4.390236000000001;0.16260133333333293;62;0.7890625;violin
4.552837333333334;0.16260133333333382;64;0.7890625;violin
4.7154386666666674;0.16260133333333293;65;0.7890625;violin
4.87804;0.36585300000000043;64;0.7890625;violin
5.365844;0.24390200000000029;67;0.7890625;violin
5.853648000000001;0.24390200000000029;72;0.7890625;violin
6.341452;0.24390200000000029;69;0.7890625;violin
6.829256000000001;0.16260133333333293;60;0.7890625;violin
6.991857333333334;0.16260133333333382;62;0.7890625;violin
7.154458666666668;0.16260133333333293;64;0.7890625;violin
7.317060000000001;0.16260133333333382;65;0.7890625;violin
7.479661333333334;0.16260133333333293;64;0.7890625;violin
7.642262666666667;0.16260133333333293;62;0.7890625;violin
7.804864;0.3658530000000013;60;0.7890625;violin
8.292668;0.24390200000000029;65;0.7890625;violin
8.780472000000001;0.24390200000000029;69;0.7890625;violin
9.268276;0.24390200000000029;67;0.7890625;violin
9.75608;0.16260133333333293;76;0.7890625;violin
9.918681333333334;0.1626013333333347;77;0.7890625;violin
10.081282666666668;0.16260133333333293;76;0.7890625;violin
10.243884000000001;0.16260133333333293;74;0.7890625;violin
10.406485333333334;0.16260133333333293;76;0.7890625;violin
10.569086666666667;0.16260133333333293;77;0.7890625;violin
10.731688;0.3658530000000013;76;0.7890625;violin
11.219492;0.24390200000000029;79;0.7890625;violin
11.707296000000001;0.24390200000000029;84;0.7890625;violin
12.195100000000002;0.2439019999999985;83;0.7890625;violin
12.682904;0.1626013333333347;67;0.7890625;violin
12.845505333333335;0.16260133333333293;69;0.7890625;violin
13.008106666666668;0.16260133333333293;71;0.7890625;violin
13.170708000000001;0.16260133333333293;72;0.7890625;violin
13.333309333333334;0.16260133333333293;71;0.7890625;violin
13.495910666666667;0.1626013333333347;69;0.7890625;violin
13.658512000000002;0.36585299999999954;67;0.7890625;violin
14.146316;0.24390200000000029;79;0.7890625;violin
14.634120000000001;0.24390200000000029;77;0.7890625;violin
15.121924000000002;0.24390200000000029;76;0.7890625;violin
15.609728;0.1626013333333347;60;0.7890625;violin
15.772329333333335;0.16260133333333293;62;0.7890625;violin
15.934930666666668;0.16260133333333293;64;0.7890625;violin
16.097532;0.1626013333333347;65;0.7890625;violin
16.260133333333336;0.16260133333333116;64;0.7890625;violin
16.422734666666667;0.1626013333333347;62;0.7890625;violin
16.585336;0.3658530000000013;60;0.7890625;violin
17.073140000000002;0.2439019999999985;71;0.7890625;violin
17.560944000000003;0.2439019999999985;72;0.7890625;violin
18.048748000000003;0.2439019999999985;69;0.7890625;violin
18.536552;0.1626013333333347;62;0.7890625;violin
18.699153333333335;0.1626013333333347;64;0.7890625;violin
18.86175466666667;0.16260133333333116;66;0.7890625;violin
19.024356;0.1626013333333347;67;0.7890625;violin
19.186957333333336;0.16260133333333116;66;0.7890625;violin
19.349558666666667;0.1626013333333347;64;0.7890625;violin
19.51216;0.3658530000000013;62;0.7890625;violin
19.999964000000002;0.2439019999999985;74;0.7890625;violin
20.487768000000003;0.2439019999999985;72;0.7890625;violin
20.975572000000003;0.2439019999999985;71;0.7890625;violin
21.463376;0.1626013333333347;71;0.7890625;violin
21.625977333333335;0.1626013333333347;79;0.7890625;violin
21.78857866666667;0.16260133333333116;77;0.7890625;violin
21.95118;0.1626013333333347;74;0.7890625;violin
22.113781333333336;0.1626013333333347;71;0.7890625;violin
22.27638266666667;0.16260133333333116;67;0.7890625;violin
22.438984;0.3658530000000013;65;0.7890625;violin
22.926788000000002;0.1626013333333347;65;0.7890625;violin
23.089389333333337;0.16260133333333116;62;0.7890625;violin
23.251990666666668;0.1626013333333347;59;0.7890625;violin
23.414592000000003;0.16260133333333116;55;0.7890625;violin
23.577193333333334;0.1626013333333347;57;0.7890625;violin
23.73979466666667;0.1626013333333347;59;0.7890625;violin
23.902396000000003;0.36585299999999776;60;0.7890625;violin
24.390200000000004;0.16260133333333116;60;0.7890625;violin
24.552801333333335;0.1626013333333347;62;0.7890625;violin
24.71540266666667;0.16260133333333116;60;0.7890625;violin
24.878004;0.1626013333333347;59;0.7890625;violin
25.040605333333335;0.1626013333333347;60;0.7890625;violin
25.20320666666667;0.16260133333333116;62;0.7890625;violin
25.365808;0.3658530000000013;60;0.7890625;violin
25.853612000000002;0.24390200000000206;55;0.7890625;violin
26.341416000000002;0.48780400000000057;57;0.7890625;violin
26.829220000000003;0.48780400000000057;64;0.7890625;violin
27.317024000000004;0.16260133333333116;64;0.7890625;violin
27.479625333333335;0.1626013333333347;65;0.7890625;violin
27.64222666666667;0.1626013333333347;64;0.7890625;violin
27.804828000000004;0.16260133333333116;62;0.7890625;violin
27.967429333333335;0.1626013333333347;64;0.7890625;violin
28.13003066666667;0.16260133333333116;65;0.7890625;violin
28.292632;0.3658530000000013;64;0.7890625;violin
28.780436;0.24390200000000206;67;0.7890625;violin
29.268240000000002;0.24390200000000206;72;0.7890625;violin
29.756044000000003;0.2439019999999985;69;0.7890625;violin
30.243848000000003;0.16260133333333116;60;0.7890625;violin
30.406449333333335;0.1626013333333347;62;0.7890625;violin
30.56905066666667;0.1626013333333347;64;0.7890625;violin
30.731652000000004;0.16260133333333116;65;0.7890625;violin
30.894253333333335;0.1626013333333347;64;0.7890625;violin
31.05685466666667;0.16260133333333116;62;0.7890625;violin
31.219456;0.3658530000000013;60;0.7890625;violin
31.70726;0.24390200000000206;65;0.7890625;violin
32.195064;0.2439019999999985;69;0.7890625;violin
32.682868000000006;0.2439019999999985;67;0.7890625;violin
33.170672;0.1626013333333347;76;0.7890625;violin
33.33327333333334;0.1626013333333347;77;0.7890625;violin
33.49587466666667;0.1626013333333276;76;0.7890625;violin
33.658476;0.1626013333333347;74;0.7890625;violin
33.821077333333335;0.1626013333333347;76;0.7890625;violin
33.98367866666667;0.1626013333333347;77;0.7890625;violin
34.146280000000004;0.3658530000000013;76;0.7890625;violin
34.634084;0.2439019999999985;79;0.7890625;violin
35.121888000000006;0.2439019999999985;84;0.7890625;violin
35.609692;0.2439019999999985;81;0.7890625;violin
36.09749600000001;0.1626013333333276;62;0.7890625;violin
36.260097333333334;0.1626013333333347;61;0.7890625;violin
36.42269866666667;0.1626013333333347;62;0.7890625;violin
36.585300000000004;0.1626013333333347;64;0.7890625;violin
36.74790133333334;0.1626013333333347;62;0.7890625;violin
36.91050266666667;0.1626013333333276;61;0.7890625;violin
37.073104;0.3658530000000013;62;0.7890625;violin
37.560908000000005;0.2439019999999985;66;0.7890625;violin
38.048712;0.2439019999999985;69;0.7890625;violin
38.536516000000006;0.2439019999999985;71;0.7890625;violin
39.02432;0.1626013333333347;62;0.7890625;violin
39.18692133333334;0.1626013333333347;64;0.7890625;violin
39.34952266666667;0.1626013333333276;66;0.7890625;violin
39.512124;0.1626013333333347;67;0.7890625;violin
39.674725333333335;0.1626013333333347;66;0.7890625;violin
39.83732666666667;0.1626013333333347;64;0.7890625;violin
39.999928000000004;0.3658530000000013;62;0.7890625;violin
40.487732;0.24390200000000561;74;0.7890625;violin
40.975536000000005;0.2439019999999985;83;0.7890625;violin
41.46334;0.2439019999999985;81;0.7890625;violin
41.951144000000006;0.1626013333333276;72;0.7890625;violin
42.113745333333334;0.1626013333333347;74;0.7890625;violin
42.27634666666667;0.1626013333333347;72;0.7890625;violin
42.438948;0.1626013333333347;71;0.7890625;violin
42.60154933333334;0.1626013333333347;72;0.7890625;violin
42.76415066666667;0.1626013333333276;71;0.7890625;violin
42.926752;0.3658530000000013;72;0.7890625;violin
43.414556000000005;0.2439019999999985;83;0.7890625;violin
43.90236;0.24390200000000561;81;0.7890625;violin
44.390164000000006;0.2439019999999985;79;0.7890625;violin
44.877968;0.1626013333333347;67;0.7890625;violin
45.04056933333334;0.1626013333333347;66;0.7890625;violin
45.20317066666667;0.1626013333333347;67;0.7890625;violin
45.36577200000001;0.1626013333333276;69;0.7890625;violin
45.528373333333334;0.1626013333333347;67;0.7890625;violin
45.69097466666667;0.1626013333333347;66;0.7890625;violin
45.853576000000004;0.3658530000000013;67;0.7890625;violin
46.34138;0.24390200000000561;59;0.7890625;violin
46.829184000000005;0.2439019999999985;64;0.7890625;violin
47.316988;0.4878040000000041;62;0.7890625;violin
47.804792000000006;0.1626013333333347;72;0.7890625;violin
47.96739333333334;0.1626013333333276;71;0.7890625;violin
48.12999466666667;0.1626013333333347;74;0.7890625;violin
48.292596;0.1626013333333347;72;0.7890625;violin
48.45519733333334;0.1626013333333347;71;0.7890625;violin
48.61779866666667;0.1626013333333347;74;0.7890625;violin
48.78040000000001;0.3658529999999942;72;0.7890625;violin
49.268204000000004;0.2439019999999985;78;0.7890625;violin
49.756008;0.24390200000000561;81;0.7890625;violin
50.243812000000005;0.2439019999999985;83;0.7890625;violin
50.731616;0.1626013333333347;67;0.7890625;violin
50.89421733333334;0.1626013333333347;66;0.7890625;violin
51.05681866666667;0.1626013333333347;69;0.7890625;violin
51.21942000000001;0.1626013333333347;67;0.7890625;violin
51.38202133333334;0.1626013333333276;66;0.7890625;violin
51.54462266666667;0.1626013333333347;69;0.7890625;violin
51.707224000000004;0.3658530000000013;67;0.7890625;violin
52.19502800000001;0.2439019999999985;59;0.7890625;violin
52.682832000000005;0.2439019999999985;64;0.7890625;violin
53.170636;0.24390200000000561;62;0.7890625;violin
53.658440000000006;0.1626013333333347;72;0.7890625;violin
53.82104133333334;0.1626013333333276;71;0.7890625;violin
53.98364266666667;0.1626013333333347;74;0.7890625;violin
54.146244;0.1626013333333347;72;0.7890625;violin
54.30884533333334;0.1626013333333347;71;0.7890625;violin
54.47144666666667;0.1626013333333347;74;0.7890625;violin
54.63404800000001;0.3658530000000013;72;0.7890625;violin
55.121852000000004;0.2439019999999985;57;0.7890625;violin
55.60965600000001;0.2439019999999985;64;0.7890625;violin
56.097460000000005;0.2439019999999985;62;0.7890625;violin
56.585264;0.1626013333333347;71;0.7890625;violin
56.74786533333334;0.1626013333333347;69;0.7890625;violin
56.91046666666667;0.1626013333333347;72;0.7890625;violin
57.073068000000006;0.1626013333333347;71;0.7890625;violin
57.23566933333334;0.1626013333333276;69;0.7890625;violin
57.39827066666667;0.1626013333333347;72;0.7890625;violin
57.560872;0.3658530000000013;71;0.7890625;violin
58.04867600000001;0.2439019999999985;74;0.7890625;violin
58.536480000000005;0.2439019999999985;79;0.7890625;violin
59.02428400000001;0.2439019999999985;83;0.7890625;violin
59.512088000000006;0.1626013333333347;77;0.7890625;violin
59.67468933333334;0.1626013333333347;76;0.7890625;violin
59.837290666666675;0.1626013333333276;79;0.7890625;violin
59.999892;0.1626013333333347;77;0.7890625;violin
60.16249333333334;0.1626013333333347;76;0.7890625;violin
60.32509466666667;0.1626013333333347;79;0.7890625;violin
60.48769600000001;0.3658530000000013;77;0.7890625;violin
60.975500000000004;0.2439019999999985;81;0.7890625;violin
61.46330400000001;0.2439019999999985;79;0.7890625;violin
61.951108000000005;0.2439019999999985;76;0.7890625;violin
62.438912;0.1626013333333347;72;0.7890625;violin
62.60151333333334;0.1626013333333347;71;0.7890625;violin
62.76411466666667;0.1626013333333347;74;0.7890625;violin
62.926716000000006;0.1626013333333347;72;0.7890625;violin
63.08931733333334;0.1626013333333347;71;0.7890625;violin
63.251918666666676;0.1626013333333276;74;0.7890625;violin
63.41452;0.3658530000000013;72;0.7890625;violin
63.90232400000001;0.2439019999999914;64;0.7890625;violin
64.390128;0.487803999999997;69;0.7890625;violin
64.877932;0.24390200000000561;66;0.7890625;violin
65.36573600000001;0.1626013333333276;74;0.7890625;violin
65.52833733333334;0.1626013333333276;73;0.7890625;violin
65.69093866666667;0.1626013333333418;76;0.7890625;violin
65.85354000000001;0.1626013333333276;74;0.7890625;violin
66.01614133333334;0.1626013333333418;73;0.7890625;violin
66.17874266666668;0.1626013333333276;76;0.7890625;violin
66.341344;0.3658530000000013;74;0.7890625;violin
66.829148;0.24390200000000561;64;0.7890625;violin
67.316952;0.24390200000000561;66;0.7890625;violin
67.80475600000001;0.2439019999999914;67;0.7890625;violin
68.29256000000001;0.1626013333333276;67;0.7890625;violin
68.45516133333334;0.1626013333333418;66;0.7890625;violin
68.61776266666668;0.1626013333333276;69;0.7890625;violin
68.780364;0.1626013333333276;67;0.7890625;violin
68.94296533333333;0.1626013333333418;66;0.7890625;violin
69.10556666666668;0.1626013333333276;69;0.7890625;violin
69.268168;0.3658530000000013;67;0.7890625;violin
69.755972;0.24390200000000561;59;0.7890625;violin
70.24377600000001;0.2439019999999914;64;0.7890625;violin
70.73158000000001;0.2439019999999914;62;0.7890625;violin
71.219384;0.1626013333333276;72;0.7890625;violin
71.38198533333333;0.1626013333333418;71;0.7890625;violin
71.54458666666667;0.1626013333333276;74;0.7890625;violin
71.707188;0.1626013333333418;72;0.7890625;violin
71.86978933333334;0.1626013333333276;71;0.7890625;violin
72.03239066666667;0.1626013333333418;74;0.7890625;violin
72.19499200000001;0.3658529999999871;72;0.7890625;violin
72.68279600000001;0.2439019999999914;78;0.7890625;violin
73.17060000000001;0.24390200000000561;81;0.7890625;violin
73.658404;0.24390200000000561;83;0.7890625;violin
74.146208;0.1626013333333418;67;0.7890625;violin
74.30880933333334;0.1626013333333276;66;0.7890625;violin
74.47141066666667;0.1626013333333418;69;0.7890625;violin
74.63401200000001;0.1626013333333276;67;0.7890625;violin
74.79661333333334;0.1626013333333276;66;0.7890625;violin
74.95921466666667;0.1626013333333418;69;0.7890625;violin
75.12181600000001;0.3658530000000013;67;0.7890625;violin
75.60962;0.24390200000000561;59;0.7890625;violin
76.097424;0.24390200000000561;64;0.7890625;violin
76.585228;0.24390200000000561;62;0.7890625;violin
77.07303200000001;0.1626013333333276;72;0.7890625;violin
77.23563333333334;0.1626013333333276;71;0.7890625;violin
77.39823466666667;0.1626013333333418;74;0.7890625;violin
77.56083600000001;0.1626013333333276;72;0.7890625;violin
77.72343733333334;0.1626013333333418;71;0.7890625;violin
77.88603866666668;0.1626013333333276;74;0.7890625;violin
78.04864;0.3658530000000013;72;0.7890625;violin
78.536444;0.24390200000000561;57;0.7890625;violin
79.024248;0.24390200000000561;64;0.7890625;violin
79.51205200000001;0.2439019999999914;62;0.7890625;violin
79.99985600000001;0.1626013333333276;71;0.7890625;violin
80.16245733333334;0.1626013333333418;69;0.7890625;violin
80.32505866666668;0.1626013333333276;72;0.7890625;violin
80.48766;0.1626013333333418;71;0.7890625;violin
80.65026133333335;0.1626013333333276;69;0.7890625;violin
80.81286266666667;0.1626013333333276;72;0.7890625;violin
80.975464;0.3658530000000013;71;0.7890625;violin
81.46326800000001;0.2439019999999914;74;0.7890625;violin
81.95107200000001;0.2439019999999914;79;0.7890625;violin
82.43887600000001;0.24390200000000561;83;0.7890625;violin
82.92668;0.1626013333333418;77;0.7890625;violin
83.08928133333335;0.1626013333333276;76;0.7890625;violin
83.25188266666667;0.1626013333333276;79;0.7890625;violin
83.414484;0.1626013333333418;77;0.7890625;violin
83.57708533333334;0.1626013333333276;76;0.7890625;violin
83.73968666666667;0.1626013333333418;79;0.7890625;violin
83.90228800000001;0.3658530000000013;77;0.7890625;violin
84.39009200000001;0.2439019999999914;81;0.7890625;violin
84.877896;0.24390200000000561;79;0.7890625;violin
85.3657;0.24390200000000561;76;0.7890625;violin
85.853504;0.1626013333333418;72;0.7890625;violin
86.01610533333334;0.1626013333333276;71;0.7890625;violin
86.17870666666667;0.1626013333333418;74;0.7890625;violin
86.34130800000001;0.1626013333333276;72;0.7890625;violin
86.50390933333334;0.1626013333333276;71;0.7890625;violin
86.66651066666667;0.1626013333333418;74;0.7890625;violin
86.82911200000001;0.3658530000000013;72;0.7890625;violin
87.316916;0.24390200000000561;64;0.7890625;violin
87.80472;0.48780400000001123;69;0.7890625;violin
88.29252400000001;0.2439019999999914;66;0.7890625;violin
88.78032800000001;0.1626013333333276;74;0.7890625;violin
88.94292933333334;0.1626013333333418;73;0.7890625;violin
89.10553066666668;0.1626013333333276;76;0.7890625;violin
89.26813200000001;0.1626013333333276;74;0.7890625;violin
89.43073333333334;0.1626013333333418;73;0.7890625;violin
89.59333466666668;0.1626013333333276;76;0.7890625;violin
89.755936;0.3658530000000013;74;0.7890625;violin
90.24374;0.24390200000000561;64;0.7890625;violin
90.73154400000001;0.2439019999999914;66;0.7890625;violin
91.21934800000001;0.2439019999999914;67;0.7890625;violin
91.70715200000001;0.1626013333333276;79;0.7890625;violin
91.86975333333334;0.1626013333333418;78;0.7890625;violin
92.03235466666668;0.1626013333333276;81;0.7890625;violin
92.194956;0.1626013333333418;79;0.7890625;violin
92.35755733333335;0.1626013333333276;78;0.7890625;violin
92.52015866666667;0.1626013333333276;81;0.7890625;violin
92.68276;0.3658530000000013;79;0.7890625;violin
93.17056400000001;0.1626013333333276;77;0.7890625;violin
93.33316533333334;0.1626013333333276;74;0.7890625;violin
93.49576666666667;0.1626013333333418;71;0.7890625;violin
93.65836800000001;0.1626013333333276;67;0.7890625;violin
93.82096933333334;0.1626013333333418;65;0.7890625;violin
93.98357066666668;0.1626013333333276;62;0.7890625;violin
94.146172;0.3658530000000013;60;0.7890625;violin
94.633976;0.1626013333333418;60;0.7890625;violin
94.79657733333335;0.1626013333333276;62;0.7890625;violin
94.95917866666667;0.1626013333333418;60;0.7890625;violin
95.12178000000002;0.1626013333333276;59;0.7890625;violin
95.28438133333334;0.1626013333333276;60;0.7890625;violin
95.44698266666667;0.1626013333333418;62;0.7890625;violin
95.60958400000001;0.3658530000000013;60;0.7890625;violin
96.09738800000001;0.24390200000000561;55;0.7890625;violin
96.585192;0.487803999999997;60;0.7890625;violin
97.072996;0.24390200000000561;64;0.7890625;violin
97.56080000000001;0.1626013333333276;64;0.7890625;violin
97.72340133333334;0.1626013333333276;65;0.7890625;violin
97.88600266666667;0.1626013333333418;64;0.7890625;violin
98.04860400000001;0.1626013333333276;62;0.7890625;violin
98.21120533333334;0.1626013333333418;64;0.7890625;violin
98.37380666666668;0.1626013333333276;65;0.7890625;violin
98.53640800000001;0.3658530000000013;64;0.7890625;violin
99.024212;0.24390200000000561;67;0.7890625;violin
99.512016;0.24390200000000561;72;0.7890625;violin
99.99982000000001;0.2439019999999914;69;0.7890625;violin
100.48762400000001;0.1626013333333276;60;0.7890625;violin
100.65022533333334;0.1626013333333418;62;0.7890625;violin
100.81282666666668;0.1626013333333276;64;0.7890625;violin
100.97542800000001;0.1626013333333276;65;0.7890625;violin
101.13802933333334;0.1626013333333418;64;0.7890625;violin
101.30063066666668;0.1626013333333276;62;0.7890625;violin
101.463232;0.3658530000000013;60;0.7890625;violin
101.951036;0.24390200000000561;65;0.7890625;violin
102.43884000000001;0.2439019999999914;69;0.7890625;violin
102.92664400000001;0.24390200000000561;67;0.7890625;violin
103.41444800000001;0.1626013333333418;76;0.7890625;violin
103.57704933333335;0.1626013333333276;77;0.7890625;violin
103.73965066666668;0.1626013333333276;76;0.7890625;violin
103.902252;0.1626013333333418;74;0.7890625;violin
104.06485333333335;0.1626013333333276;76;0.7890625;violin
104.22745466666667;0.1626013333333418;77;0.7890625;violin
104.39005600000002;0.3658529999999871;76;0.7890625;violin
104.87786000000001;0.2439019999999914;79;0.7890625;violin
105.36566400000001;0.24390200000000561;84;0.7890625;violin
105.853468;0.24390200000000561;81;0.7890625;violin
106.341272;0.1626013333333418;77;0.7890625;violin
106.50387333333335;0.1626013333333276;79;0.7890625;violin
106.66647466666667;0.1626013333333418;77;0.7890625;violin
106.82907600000001;0.1626013333333276;76;0.7890625;violin
106.99167733333334;0.1626013333333276;77;0.7890625;violin
107.15427866666667;0.1626013333333418;79;0.7890625;violin
107.31688000000001;0.3658530000000013;77;0.7890625;violin
107.80468400000001;0.487803999999997;69;0.7890625;violin
108.292488;0.487803999999997;74;0.7890625;violin
108.780292;0.24390200000000561;72;0.7890625;violin
109.26809600000001;0.1626013333333276;67;0.7890625;violin
109.43069733333334;0.1626013333333276;69;0.7890625;violin
109.59329866666667;0.1626013333333418;67;0.7890625;violin
109.75590000000001;0.1626013333333276;66;0.7890625;violin
109.91850133333334;0.1626013333333418;67;0.7890625;violin
110.08110266666668;0.1626013333333276;69;0.7890625;violin
110.24370400000001;0.3658530000000013;67;0.7890625;violin
110.731508;0.24390200000000561;64;0.7890625;violin
111.21931200000002;0.2439019999999914;60;0.7890625;violin
111.70711600000001;0.2439019999999914;55;0.7890625;violin
112.19492000000001;0.1626013333333276;65;0.7890625;violin
112.35752133333334;0.1626013333333418;67;0.7890625;violin
112.52012266666668;0.1626013333333276;65;0.7890625;violin
112.68272400000001;0.1626013333333418;64;0.7890625;violin
112.84532533333335;0.1626013333333276;65;0.7890625;violin
113.00792666666668;0.1626013333333276;67;0.7890625;violin
113.170528;0.3658530000000013;65;0.7890625;violin
113.65833200000002;0.2439019999999914;57;0.7890625;violin
114.14613600000001;0.2439019999999914;59;0.7890625;violin
114.63394000000001;0.24390200000000561;60;0.7890625;violin
115.121744;0.1626013333333418;60;0.7890625;violin
115.28434533333335;0.1626013333333276;59;0.7890625;violin
115.44694666666668;0.1626013333333276;60;0.7890625;violin
115.609548;0.1626013333333418;62;0.7890625;violin
115.77214933333335;0.1626013333333276;60;0.7890625;violin
115.93475066666667;0.1626013333333418;59;0.7890625;violin
116.09735200000001;0.3658530000000013;60;0.7890625;violin
116.58515600000001;0.1626013333333276;60;0.7890625;violin
116.74775733333334;0.1626013333333418;59;0.7890625;violin
116.91035866666668;0.1626013333333276;57;0.7890625;violin
117.07296000000001;0.1626013333333276;55;0.7890625;violin
117.23556133333334;0.1626013333333418;57;0.7890625;violin
117.39816266666668;0.1626013333333276;59;0.7890625;violin
117.560764;0.3658530000000013;60;0.7890625;violin
118.04856800000002;0.1626013333333276;60;0.7890625;violin
118.21116933333334;0.1626013333333276;62;0.7890625;violin
118.37377066666667;0.1626013333333418;60;0.7890625;violin
118.53637200000001;0.1626013333333276;59;0.7890625;violin
118.69897333333334;0.1626013333333418;60;0.7890625;violin
118.86157466666668;0.1626013333333276;62;0.7890625;violin
119.02417600000001;0.3658530000000013;60;0.7890625;violin
119.51198000000001;0.24390200000000561;55;0.7890625;violin
119.999784;0.48780400000001123;60;0.7890625;violin
120.48758800000002;0.487803999999997;64;0.7890625;violin
120.97539200000001;0.1626013333333276;64;0.7890625;violin
121.13799333333334;0.1626013333333418;65;0.7890625;violin
121.30059466666668;0.1626013333333276;64;0.7890625;violin
121.46319600000001;0.1626013333333276;62;0.7890625;violin
121.62579733333334;0.1626013333333418;64;0.7890625;violin
121.78839866666668;0.1626013333333276;67;0.7890625;violin
121.95100000000001;0.3658530000000013;64;0.7890625;violin
122.438804;0.24390200000000561;60;0.7890625;violin
122.92660800000002;0.2439019999999914;64;0.7890625;violin
123.41441200000001;0.2439019999999914;67;0.7890625;violin
123.90221600000001;0.1626013333333276;67;0.7890625;violin
124.06481733333334;0.1626013333333418;69;0.7890625;violin
124.22741866666668;0.1626013333333276;71;0.7890625;violin
124.39002;0.1626013333333418;72;0.7890625;violin
124.55262133333335;0.1626013333333276;71;0.7890625;violin
124.71522266666668;0.1626013333333276;69;0.7890625;violin
124.877824;0.3658530000000013;67;0.7890625;violin
125.36562800000002;0.2439019999999914;69;0.7890625;violin
125.85343200000001;0.24390200000000561;71;0.7890625;violin
126.34123600000001;0.24390200000000561;72;0.7890625;violin
126.82904;0.1626013333333418;76;0.7890625;violin
126.99164133333335;0.1626013333333276;75;0.7890625;violin
127.15424266666668;0.1626013333333418;76;0.7890625;violin
127.31684400000002;0.1626013333333276;77;0.7890625;violin
127.47944533333335;0.1626013333333276;83;0.7890625;violin
127.64204666666667;0.1626013333333418;86;0.7890625;violin
127.80464800000001;0.3658529999999871;84;0.7890625;violin
128.292452;0.16260133333335602;76;0.7890625;violin
128.45505333333335;0.1626013333333276;75;0.7890625;violin
128.61765466666668;0.1626013333333276;76;0.7890625;violin
128.780256;0.1626013333333276;77;0.7890625;violin
128.94285733333334;0.16260133333335602;83;0.7890625;violin
129.1054586666667;0.1626013333333276;86;0.7890625;violin
129.26806000000002;0.3658529999999871;84;0.7890625;violin
129.755864;0.16260133333335602;84;0.7890625;violin
129.91846533333336;0.1626013333333276;83;0.7890625;violin
130.0810666666667;0.1626013333333276;84;0.7890625;violin
130.243668;0.1626013333333276;86;0.7890625;violin
130.40626933333334;0.1626013333333276;84;0.7890625;violin
130.56887066666667;0.16260133333335602;83;0.7890625;violin
130.73147200000002;0.3658529999999871;84;0.7890625;violin
131.219276;0.48780400000001123;55;0.7890625;violin
131.70708000000002;0.4878039999999828;64;0.7890625;violin
132.194884;0.48780400000001123;60;0.7890625;violin
132.682688;0.1626013333333276;84;0.7890625;violin
132.84528933333334;0.1626013333333276;83;0.7890625;violin
133.00789066666667;0.16260133333335602;84;0.7890625;violin
133.17049200000002;0.1626013333333276;86;0.7890625;violin
133.33309333333335;0.1626013333333276;84;0.7890625;violin
133.49569466666668;0.1626013333333276;83;0.7890625;violin
133.658296;0.3658530000000155;84;0.7890625;violin
134.14610000000002;0.4878039999999828;55;0.7890625;violin
134.633904;0.48780400000001123;64;0.7890625;violin
135.121708;0.48780400000001123;60;0.7890625;violin
135.60951200000002;0.1626013333333276;60;0.7890625;violin
135.77211333333335;0.1626013333333276;62;0.7890625;violin
135.93471466666668;0.1626013333333276;64;0.7890625;violin
136.097316;0.1626013333333276;65;0.7890625;violin
136.25991733333333;0.16260133333335602;64;0.7890625;violin
136.4225186666667;0.1626013333333276;62;0.7890625;violin
136.58512000000002;0.3658529999999871;60;0.7890625;violin
137.072924;0.16260133333335602;60;0.7890625;violin
137.23552533333336;0.1626013333333276;59;0.7890625;violin
137.39812666666668;0.1626013333333276;57;0.7890625;violin
137.560728;0.1626013333333276;55;0.7890625;violin
137.72332933333334;0.1626013333333276;57;0.7890625;violin
137.88593066666667;0.16260133333335602;59;0.7890625;violin
138.04853200000002;0.3658529999999871;60;0.7890625;violin
138.536336;0.1626013333333276;60;0.7890625;violin
138.69893733333333;0.16260133333335602;59;0.7890625;violin
138.8615386666667;0.1626013333333276;60;0.7890625;violin
139.02414000000002;0.1626013333333276;62;0.7890625;violin
139.18674133333334;0.1626013333333276;60;0.7890625;violin
139.34934266666667;0.1626013333333276;59;0.7890625;violin
139.511944;0.3658530000000155;60;0.7890625;violin
